<?xml version="1.0" encoding="UTF-8" standalone="no"?>
<!DOCTYPE svg PUBLIC "-//W3C//DTD SVG 1.1//EN"
 "http://www.w3.org/Graphics/SVG/1.1/DTD/svg11.dtd">
<!-- Generated by graphviz version 12.2.1 (20241206.2353)
 -->
<!-- Title: ABSCOND_1 Pages: 1 -->
<svg width="10803pt" height="856pt"
 viewBox="0.00 0.00 10803.08 856.39" xmlns="http://www.w3.org/2000/svg" xmlns:xlink="http://www.w3.org/1999/xlink">
<g id="graph0" class="graph" transform="scale(1 1) rotate(0) translate(4 852.39)">
<title>ABSCOND_1</title>
<polygon fill="white" stroke="none" points="-4,4 -4,-852.39 10799.08,-852.39 10799.08,4 -4,4"/>
<!-- START_NODE -->
<g id="node1" class="node">
<title>START_NODE</title>
</g>
<!-- 44534 -->
<g id="node2" class="node">
<title>44534</title>
<ellipse fill="none" stroke="black" cx="313.03" cy="-358.78" rx="199.78" ry="199.78"/>
<text text-anchor="start" x="174.65" y="-354.73" font-family="Times,serif" font-size="14.00"> </text>
<text text-anchor="start" x="178.4" y="-354.73" font-family="Times,serif" font-size="14.00" fill="royalblue">44534 </text>
<text text-anchor="start" x="215.9" y="-354.73" font-family="Times,serif" font-size="14.00"> Were the police informed of the incident? </text>
</g>
<!-- START_NODE&#45;&gt;44534 -->
<g id="edge1" class="edge">
<title>START_NODE&#45;&gt;44534</title>
<path fill="none" stroke="black" d="M53.96,-358.78C66.61,-358.78 83.09,-358.78 101.61,-358.78"/>
<polygon fill="black" stroke="black" points="101.55,-362.28 111.55,-358.78 101.55,-355.28 101.55,-362.28"/>
<text text-anchor="middle" x="83.62" y="-361.98" font-family="Times,serif" font-size="14.00">start</text>
</g>
<!-- 44941 -->
<g id="node15" class="node">
<title>44941</title>
<ellipse fill="none" stroke="black" cx="858.65" cy="-612.78" rx="235.6" ry="235.6"/>
<text text-anchor="start" x="694.03" y="-608.73" font-family="Times,serif" font-size="14.00"> </text>
<text text-anchor="start" x="697.78" y="-608.73" font-family="Times,serif" font-size="14.00" fill="royalblue">44941 </text>
<text text-anchor="start" x="735.28" y="-608.73" font-family="Times,serif" font-size="14.00"> Is the incident the subject of a police investigation? </text>
</g>
<!-- 44534&#45;&gt;44941 -->
<g id="edge17" class="edge">
<title>44534&#45;&gt;44941</title>
<path fill="none" stroke="black" d="M494.29,-443.01C539.21,-464 587.91,-486.75 634.62,-508.57"/>
<polygon fill="black" stroke="black" points="632.95,-511.66 643.49,-512.72 635.91,-505.32 632.95,-511.66"/>
<text text-anchor="start" x="530.8" y="-497.6" font-family="Times,serif" font-size="14.00"> </text>
<text text-anchor="start" x="534.55" y="-497.6" font-family="Times,serif" font-size="14.00" fill="royalblue">180389 </text>
<text text-anchor="start" x="578.8" y="-497.6" font-family="Times,serif" font-size="14.00"> Yes </text>
</g>
<!-- 44766 -->
<g id="node16" class="node">
<title>44766</title>
<ellipse fill="none" stroke="black" cx="1450.34" cy="-572.78" rx="245.84" ry="245.84"/>
<text text-anchor="start" x="1278.22" y="-568.73" font-family="Times,serif" font-size="14.00"> </text>
<text text-anchor="start" x="1281.97" y="-568.73" font-family="Times,serif" font-size="14.00" fill="royalblue">44766 </text>
<text text-anchor="start" x="1319.47" y="-568.73" font-family="Times,serif" font-size="14.00"> Is the incident the subject of an internal investigation? </text>
</g>
<!-- 44534&#45;&gt;44766 -->
<g id="edge18" class="edge">
<title>44534&#45;&gt;44766</title>
<path fill="none" stroke="black" d="M510.54,-326.44C670.86,-307.23 901.52,-296.1 1094.26,-351.28 1145.88,-366.07 1197.3,-390.77 1244.32,-418.45"/>
<polygon fill="black" stroke="black" points="1242.29,-421.31 1252.67,-423.43 1245.87,-415.3 1242.29,-421.31"/>
<text text-anchor="start" x="822.65" y="-355.48" font-family="Times,serif" font-size="14.00"> </text>
<text text-anchor="start" x="826.4" y="-355.48" font-family="Times,serif" font-size="14.00" fill="royalblue">180390 </text>
<text text-anchor="start" x="870.65" y="-355.48" font-family="Times,serif" font-size="14.00"> No </text>
</g>
<!-- END_NODE -->
<g id="node3" class="node">
<title>END_NODE</title>
<ellipse fill="none" stroke="black" cx="10761.23" cy="-460.78" rx="29.86" ry="29.86"/>
<ellipse fill="none" stroke="black" cx="10761.23" cy="-460.78" rx="33.86" ry="33.86"/>
<text text-anchor="middle" x="10761.23" y="-455.73" font-family="Times,serif" font-size="14.00">END</text>
</g>
<!-- 44198 -->
<g id="node4" class="node">
<title>44198</title>
<ellipse fill="none" stroke="black" cx="6627.83" cy="-358.78" rx="244.3" ry="244.3"/>
<text text-anchor="start" x="6456.83" y="-354.73" font-family="Times,serif" font-size="14.00"> </text>
<text text-anchor="start" x="6460.58" y="-354.73" font-family="Times,serif" font-size="14.00" fill="royalblue">44198 </text>
<text text-anchor="start" x="6498.08" y="-354.73" font-family="Times,serif" font-size="14.00"> Has the prisoner been charged with a further offence? </text>
</g>
<!-- 44854 -->
<g id="node5" class="node">
<title>44854</title>
<ellipse fill="none" stroke="black" cx="7212.36" cy="-360.78" rx="229.97" ry="229.97"/>
<text text-anchor="start" x="7051.86" y="-356.73" font-family="Times,serif" font-size="14.00"> </text>
<text text-anchor="start" x="7055.61" y="-356.73" font-family="Times,serif" font-size="14.00" fill="royalblue">44854 </text>
<text text-anchor="start" x="7093.11" y="-356.73" font-family="Times,serif" font-size="14.00"> With what offence has the prisoner been charged? </text>
</g>
<!-- 44198&#45;&gt;44854 -->
<g id="edge2" class="edge">
<title>44198&#45;&gt;44854</title>
<path fill="none" stroke="black" d="M6872.5,-359.62C6904.99,-359.73 6938.29,-359.85 6970.73,-359.96"/>
<polygon fill="black" stroke="black" points="6970.64,-363.46 6980.65,-359.99 6970.67,-356.46 6970.64,-363.46"/>
<text text-anchor="start" x="6890.14" y="-364.1" font-family="Times,serif" font-size="14.00"> </text>
<text text-anchor="start" x="6893.89" y="-364.1" font-family="Times,serif" font-size="14.00" fill="royalblue">179161 </text>
<text text-anchor="start" x="6938.14" y="-364.1" font-family="Times,serif" font-size="14.00"> Yes </text>
</g>
<!-- 44615 -->
<g id="node6" class="node">
<title>44615</title>
<ellipse fill="none" stroke="black" cx="8450.4" cy="-366.78" rx="192.61" ry="192.61"/>
<text text-anchor="start" x="8317.27" y="-362.73" font-family="Times,serif" font-size="14.00"> </text>
<text text-anchor="start" x="8321.02" y="-362.73" font-family="Times,serif" font-size="14.00" fill="royalblue">44615 </text>
<text text-anchor="start" x="8358.52" y="-362.73" font-family="Times,serif" font-size="14.00"> Was damage caused to prison property? </text>
</g>
<!-- 44198&#45;&gt;44615 -->
<g id="edge3" class="edge">
<title>44198&#45;&gt;44615</title>
<path fill="none" stroke="black" d="M6816.46,-203.59C6867.31,-170.07 6924.41,-139.42 6982.39,-121.78 7477.82,28.91 7659.49,51.35 8147.54,-121.78 8206.07,-142.55 8261.53,-180.04 8308.56,-219.56"/>
<polygon fill="black" stroke="black" points="8306.21,-222.15 8316.09,-225.97 8310.75,-216.82 8306.21,-222.15"/>
<text text-anchor="start" x="7523.33" y="-11.02" font-family="Times,serif" font-size="14.00"> </text>
<text text-anchor="start" x="7527.08" y="-11.02" font-family="Times,serif" font-size="14.00" fill="royalblue">179162 </text>
<text text-anchor="start" x="7571.33" y="-11.02" font-family="Times,serif" font-size="14.00"> No </text>
</g>
<!-- 44416 -->
<g id="node13" class="node">
<title>44416</title>
<ellipse fill="none" stroke="black" cx="7911.93" cy="-366.78" rx="235.6" ry="235.6"/>
<text text-anchor="start" x="7747.31" y="-362.73" font-family="Times,serif" font-size="14.00"> </text>
<text text-anchor="start" x="7751.06" y="-362.73" font-family="Times,serif" font-size="14.00" fill="royalblue">44416 </text>
<text text-anchor="start" x="7788.56" y="-362.73" font-family="Times,serif" font-size="14.00"> Has any prosecution taken place or is any pending? </text>
</g>
<!-- 44854&#45;&gt;44416 -->
<g id="edge32" class="edge">
<title>44854&#45;&gt;44416</title>
<path fill="none" stroke="black" d="M7375.7,-523.32C7402.18,-541.87 7430.71,-557.97 7460.33,-568.78 7543,-598.96 7575.29,-597.91 7658.33,-568.78 7682.9,-560.17 7706.86,-548.04 7729.63,-533.97"/>
<polygon fill="black" stroke="black" points="7731.46,-536.94 7738.03,-528.63 7727.71,-531.04 7731.46,-536.94"/>
<text text-anchor="start" x="7460.33" y="-595.22" font-family="Times,serif" font-size="14.00"> </text>
<text text-anchor="start" x="7464.08" y="-595.22" font-family="Times,serif" font-size="14.00" fill="royalblue">181404 </text>
<text text-anchor="start" x="7508.33" y="-595.22" font-family="Times,serif" font-size="14.00"> Murder/attempted murder </text>
</g>
<!-- 44854&#45;&gt;44416 -->
<g id="edge33" class="edge">
<title>44854&#45;&gt;44416</title>
<path fill="none" stroke="black" d="M7395.02,-501.23C7416.18,-512.38 7438.15,-521.96 7460.33,-528.78 7544.43,-554.68 7573.88,-553.54 7658.33,-528.78 7675.78,-523.67 7693.16,-516.94 7710.18,-509.13"/>
<polygon fill="black" stroke="black" points="7711.24,-512.5 7718.79,-505.06 7708.25,-506.17 7711.24,-512.5"/>
<text text-anchor="start" x="7494.08" y="-551.98" font-family="Times,serif" font-size="14.00"> </text>
<text text-anchor="start" x="7497.83" y="-551.98" font-family="Times,serif" font-size="14.00" fill="royalblue">181403 </text>
<text text-anchor="start" x="7542.08" y="-551.98" font-family="Times,serif" font-size="14.00"> Manslaughter </text>
</g>
<!-- 44854&#45;&gt;44416 -->
<g id="edge34" class="edge">
<title>44854&#45;&gt;44416</title>
<path fill="none" stroke="black" d="M7412.78,-473.97C7428.54,-479.86 7444.5,-484.92 7460.33,-488.78 7545.83,-509.62 7572.55,-508.42 7658.33,-488.78 7669.48,-486.23 7680.72,-483.12 7691.92,-479.58"/>
<polygon fill="black" stroke="black" points="7692.81,-482.97 7701.21,-476.52 7690.62,-476.32 7692.81,-482.97"/>
<text text-anchor="start" x="7511.71" y="-508.16" font-family="Times,serif" font-size="14.00"> </text>
<text text-anchor="start" x="7515.46" y="-508.16" font-family="Times,serif" font-size="14.00" fill="royalblue">181400 </text>
<text text-anchor="start" x="7559.71" y="-508.16" font-family="Times,serif" font-size="14.00"> Assault </text>
</g>
<!-- 44854&#45;&gt;44416 -->
<g id="edge35" class="edge">
<title>44854&#45;&gt;44416</title>
<path fill="none" stroke="black" d="M7427.7,-442.03C7438.65,-444.64 7449.57,-446.92 7460.33,-448.78 7547.04,-463.77 7571.41,-462.54 7658.33,-448.78 7664.75,-447.77 7671.23,-446.62 7677.74,-445.35"/>
<polygon fill="black" stroke="black" points="7678.14,-448.84 7687.24,-443.4 7676.74,-441.98 7678.14,-448.84"/>
<text text-anchor="start" x="7475.33" y="-463.76" font-family="Times,serif" font-size="14.00"> </text>
<text text-anchor="start" x="7479.08" y="-463.76" font-family="Times,serif" font-size="14.00" fill="royalblue">181408 </text>
<text text-anchor="start" x="7523.33" y="-463.76" font-family="Times,serif" font-size="14.00"> Rape/attempted rape </text>
</g>
<!-- 44854&#45;&gt;44416 -->
<g id="edge36" class="edge">
<title>44854&#45;&gt;44416</title>
<path fill="none" stroke="black" d="M7438.21,-406.36C7445.66,-407.27 7453.05,-408.08 7460.33,-408.78 7547.93,-417.22 7570.63,-416.03 7658.33,-408.78 7661.6,-408.51 7664.89,-408.23 7668.2,-407.92"/>
<polygon fill="black" stroke="black" points="7668.4,-411.42 7678.01,-406.95 7667.72,-404.45 7668.4,-411.42"/>
<text text-anchor="start" x="7474.96" y="-418.87" font-family="Times,serif" font-size="14.00"> </text>
<text text-anchor="start" x="7478.71" y="-418.87" font-family="Times,serif" font-size="14.00" fill="royalblue">181406 </text>
<text text-anchor="start" x="7522.96" y="-418.87" font-family="Times,serif" font-size="14.00"> Other sexual offence </text>
</g>
<!-- 44854&#45;&gt;44416 -->
<g id="edge37" class="edge">
<title>44854&#45;&gt;44416</title>
<path fill="none" stroke="black" d="M7442.43,-368.46C7448.46,-368.58 7454.43,-368.69 7460.33,-368.78 7526.51,-369.86 7598.16,-370 7664.44,-369.71"/>
<polygon fill="black" stroke="black" points="7664.39,-373.22 7674.37,-369.67 7664.36,-366.22 7664.39,-373.22"/>
<text text-anchor="start" x="7517.33" y="-374.04" font-family="Times,serif" font-size="14.00"> </text>
<text text-anchor="start" x="7521.08" y="-374.04" font-family="Times,serif" font-size="14.00" fill="royalblue">181410 </text>
<text text-anchor="start" x="7565.33" y="-374.04" font-family="Times,serif" font-size="14.00"> Theft </text>
</g>
<!-- 44854&#45;&gt;44416 -->
<g id="edge38" class="edge">
<title>44854&#45;&gt;44416</title>
<path fill="none" stroke="black" d="M7442.42,-348.79C7448.45,-348.6 7454.43,-348.43 7460.33,-348.28 7548.3,-346.06 7570.39,-345.07 7658.33,-348.28 7660.69,-348.37 7663.06,-348.46 7665.45,-348.56"/>
<polygon fill="black" stroke="black" points="7665.02,-352.04 7675.16,-348.97 7665.31,-345.05 7665.02,-352.04"/>
<text text-anchor="start" x="7508.33" y="-352.48" font-family="Times,serif" font-size="14.00"> </text>
<text text-anchor="start" x="7512.08" y="-352.48" font-family="Times,serif" font-size="14.00" fill="royalblue">181409 </text>
<text text-anchor="start" x="7556.33" y="-352.48" font-family="Times,serif" font-size="14.00"> Robbery </text>
</g>
<!-- 44854&#45;&gt;44416 -->
<g id="edge39" class="edge">
<title>44854&#45;&gt;44416</title>
<path fill="none" stroke="black" d="M7440.32,-326.9C7447.06,-326.3 7453.74,-325.76 7460.33,-325.28 7548.11,-319.01 7570.62,-318.13 7658.33,-325.28 7661.44,-325.54 7664.57,-325.81 7667.72,-326.1"/>
<polygon fill="black" stroke="black" points="7667.38,-329.58 7677.67,-327.06 7668.05,-322.61 7667.38,-329.58"/>
<text text-anchor="start" x="7487.71" y="-329.48" font-family="Times,serif" font-size="14.00"> </text>
<text text-anchor="start" x="7491.46" y="-329.48" font-family="Times,serif" font-size="14.00" fill="royalblue">181402 </text>
<text text-anchor="start" x="7535.71" y="-329.48" font-family="Times,serif" font-size="14.00"> Firearm offence </text>
</g>
<!-- 44854&#45;&gt;44416 -->
<g id="edge40" class="edge">
<title>44854&#45;&gt;44416</title>
<path fill="none" stroke="black" d="M7435.36,-302.82C7443.76,-301.48 7452.11,-300.29 7460.33,-299.28 7547.68,-288.57 7571.08,-287.83 7658.33,-299.28 7663.34,-299.94 7668.39,-300.67 7673.47,-301.46"/>
<polygon fill="black" stroke="black" points="7672.7,-304.88 7683.14,-303.05 7673.83,-297.97 7672.7,-304.88"/>
<text text-anchor="start" x="7495.58" y="-303.48" font-family="Times,serif" font-size="14.00"> </text>
<text text-anchor="start" x="7499.33" y="-303.48" font-family="Times,serif" font-size="14.00" fill="royalblue">181401 </text>
<text text-anchor="start" x="7543.58" y="-303.48" font-family="Times,serif" font-size="14.00"> Drug offence </text>
</g>
<!-- 44854&#45;&gt;44416 -->
<g id="edge41" class="edge">
<title>44854&#45;&gt;44416</title>
<path fill="none" stroke="black" d="M7426.95,-277.41C7438.15,-274.65 7449.31,-272.24 7460.33,-270.28 7546.98,-254.91 7571.79,-254.32 7658.33,-270.28 7666.27,-271.75 7674.27,-273.45 7682.31,-275.35"/>
<polygon fill="black" stroke="black" points="7681.26,-278.7 7691.81,-277.7 7682.94,-271.9 7681.26,-278.7"/>
<text text-anchor="start" x="7494.08" y="-274.48" font-family="Times,serif" font-size="14.00"> </text>
<text text-anchor="start" x="7497.83" y="-274.48" font-family="Times,serif" font-size="14.00" fill="royalblue">181411 </text>
<text text-anchor="start" x="7542.08" y="-274.48" font-family="Times,serif" font-size="14.00"> Vehicle crime </text>
</g>
<!-- 44854&#45;&gt;44416 -->
<g id="edge42" class="edge">
<title>44854&#45;&gt;44416</title>
<path fill="none" stroke="black" d="M7415.12,-251.7C7430.14,-246.39 7445.3,-241.81 7460.33,-238.28 7546.01,-218.2 7572.76,-217.77 7658.33,-238.28 7670.45,-241.19 7682.64,-244.78 7694.78,-248.89"/>
<polygon fill="black" stroke="black" points="7693.4,-252.11 7704,-252.12 7695.72,-245.51 7693.4,-252.11"/>
<text text-anchor="start" x="7476.08" y="-242.48" font-family="Times,serif" font-size="14.00"> </text>
<text text-anchor="start" x="7479.83" y="-242.48" font-family="Times,serif" font-size="14.00" fill="royalblue">181407 </text>
<text text-anchor="start" x="7524.08" y="-242.48" font-family="Times,serif" font-size="14.00"> Public order offence </text>
</g>
<!-- 44854&#45;&gt;44416 -->
<g id="edge43" class="edge">
<title>44854&#45;&gt;44416</title>
<path fill="none" stroke="black" d="M7399.52,-226.31C7419.35,-216.62 7439.8,-208.31 7460.33,-202.28 7544.77,-177.52 7573.97,-177.24 7658.33,-202.28 7676.15,-207.58 7693.9,-214.57 7711.24,-222.69"/>
<polygon fill="black" stroke="black" points="7709.51,-225.74 7720.03,-226.93 7712.55,-219.43 7709.51,-225.74"/>
<text text-anchor="start" x="7516.21" y="-206.48" font-family="Times,serif" font-size="14.00"> </text>
<text text-anchor="start" x="7519.96" y="-206.48" font-family="Times,serif" font-size="14.00" fill="royalblue">181405 </text>
<text text-anchor="start" x="7564.21" y="-206.48" font-family="Times,serif" font-size="14.00"> Other </text>
</g>
<!-- 44868 -->
<g id="node19" class="node">
<title>44868</title>
<ellipse fill="none" stroke="black" cx="8875.75" cy="-507.78" rx="122.49" ry="122.49"/>
<text text-anchor="start" x="8794" y="-503.73" font-family="Times,serif" font-size="14.00"> </text>
<text text-anchor="start" x="8797.75" y="-503.73" font-family="Times,serif" font-size="14.00" fill="royalblue">44868 </text>
<text text-anchor="start" x="8835.25" y="-503.73" font-family="Times,serif" font-size="14.00"> Describe the damage </text>
</g>
<!-- 44615&#45;&gt;44868 -->
<g id="edge21" class="edge">
<title>44615&#45;&gt;44868</title>
<path fill="none" stroke="black" d="M8633.7,-427.5C8672.43,-440.4 8712.49,-453.74 8748.57,-465.76"/>
<polygon fill="black" stroke="black" points="8747.11,-468.96 8757.7,-468.8 8749.32,-462.32 8747.11,-468.96"/>
<text text-anchor="start" x="8661.01" y="-462.35" font-family="Times,serif" font-size="14.00"> </text>
<text text-anchor="start" x="8664.76" y="-462.35" font-family="Times,serif" font-size="14.00" fill="royalblue">180641 </text>
<text text-anchor="start" x="8709.01" y="-462.35" font-family="Times,serif" font-size="14.00"> Yes </text>
</g>
<!-- 44976 -->
<g id="node20" class="node">
<title>44976</title>
<ellipse fill="none" stroke="black" cx="9413.4" cy="-467.78" rx="270.41" ry="270.41"/>
<text text-anchor="start" x="9223.27" y="-463.73" font-family="Times,serif" font-size="14.00"> </text>
<text text-anchor="start" x="9227.02" y="-463.73" font-family="Times,serif" font-size="14.00" fill="royalblue">44976 </text>
<text text-anchor="start" x="9264.52" y="-463.73" font-family="Times,serif" font-size="14.00"> Was any damage caused to private property during abscond? </text>
</g>
<!-- 44615&#45;&gt;44976 -->
<g id="edge22" class="edge">
<title>44615&#45;&gt;44976</title>
<path fill="none" stroke="black" d="M8643.41,-362.03C8679.89,-361.3 8717.74,-360.67 8753.26,-360.28 8862.13,-359.11 8890.24,-346.5 8998.24,-360.28 9045.5,-366.32 9095.07,-376.07 9142.82,-387.31"/>
<polygon fill="black" stroke="black" points="9141.94,-390.7 9152.48,-389.61 9143.56,-383.89 9141.94,-390.7"/>
<text text-anchor="start" x="8839.75" y="-364.48" font-family="Times,serif" font-size="14.00"> </text>
<text text-anchor="start" x="8843.5" y="-364.48" font-family="Times,serif" font-size="14.00" fill="royalblue">180642 </text>
<text text-anchor="start" x="8887.75" y="-364.48" font-family="Times,serif" font-size="14.00"> No </text>
</g>
<!-- 44271 -->
<g id="node7" class="node">
<title>44271</title>
<ellipse fill="none" stroke="black" cx="4439.75" cy="-572.78" rx="225.37" ry="225.37"/>
<text text-anchor="start" x="4282.62" y="-568.73" font-family="Times,serif" font-size="14.00"> </text>
<text text-anchor="start" x="4286.37" y="-568.73" font-family="Times,serif" font-size="14.00" fill="royalblue">44271 </text>
<text text-anchor="start" x="4323.87" y="-568.73" font-family="Times,serif" font-size="14.00"> Was any form of deception used in the abscond? </text>
</g>
<!-- 44284 -->
<g id="node8" class="node">
<title>44284</title>
<ellipse fill="none" stroke="black" cx="5014.55" cy="-572.78" rx="239.18" ry="239.18"/>
<text text-anchor="start" x="4847.3" y="-568.73" font-family="Times,serif" font-size="14.00"> </text>
<text text-anchor="start" x="4851.05" y="-568.73" font-family="Times,serif" font-size="14.00" fill="royalblue">44284 </text>
<text text-anchor="start" x="4888.55" y="-568.73" font-family="Times,serif" font-size="14.00"> Was the abscond in the company of other prisoners? </text>
</g>
<!-- 44271&#45;&gt;44284 -->
<g id="edge4" class="edge">
<title>44271&#45;&gt;44284</title>
<path fill="none" stroke="black" d="M4665.49,-572.78C4697.87,-572.78 4731.36,-572.78 4764.19,-572.78"/>
<polygon fill="black" stroke="black" points="4763.78,-576.28 4773.78,-572.78 4763.78,-569.28 4763.78,-576.28"/>
<text text-anchor="start" x="4683.11" y="-576.98" font-family="Times,serif" font-size="14.00"> </text>
<text text-anchor="start" x="4686.86" y="-576.98" font-family="Times,serif" font-size="14.00" fill="royalblue">179380 </text>
<text text-anchor="start" x="4731.11" y="-576.98" font-family="Times,serif" font-size="14.00"> Yes </text>
</g>
<!-- 44271&#45;&gt;44284 -->
<g id="edge5" class="edge">
<title>44271&#45;&gt;44284</title>
<path fill="none" stroke="black" d="M4664.54,-553.16C4670.79,-552.84 4677,-552.54 4683.11,-552.28 4709.48,-551.17 4737.03,-551.12 4764.47,-551.78"/>
<polygon fill="black" stroke="black" points="4764.2,-555.27 4774.3,-552.05 4764.4,-548.27 4764.2,-555.27"/>
<text text-anchor="start" x="4684.24" y="-556.48" font-family="Times,serif" font-size="14.00"> </text>
<text text-anchor="start" x="4687.99" y="-556.48" font-family="Times,serif" font-size="14.00" fill="royalblue">179379 </text>
<text text-anchor="start" x="4732.24" y="-556.48" font-family="Times,serif" font-size="14.00"> No </text>
</g>
<!-- 44861 -->
<g id="node9" class="node">
<title>44861</title>
<ellipse fill="none" stroke="black" cx="5520.77" cy="-572.78" rx="156.78" ry="156.78"/>
<text text-anchor="start" x="5413.89" y="-568.73" font-family="Times,serif" font-size="14.00"> </text>
<text text-anchor="start" x="5417.64" y="-568.73" font-family="Times,serif" font-size="14.00" fill="royalblue">44861 </text>
<text text-anchor="start" x="5455.14" y="-568.73" font-family="Times,serif" font-size="14.00"> Has prisoner been recaptured? </text>
</g>
<!-- 44284&#45;&gt;44861 -->
<g id="edge6" class="edge">
<title>44284&#45;&gt;44861</title>
<path fill="none" stroke="black" d="M5254,-572.78C5287.13,-572.78 5320.57,-572.78 5352.03,-572.78"/>
<polygon fill="black" stroke="black" points="5352.01,-576.28 5362.01,-572.78 5352.01,-569.28 5352.01,-576.28"/>
<text text-anchor="start" x="5271.73" y="-576.98" font-family="Times,serif" font-size="14.00"> </text>
<text text-anchor="start" x="5275.48" y="-576.98" font-family="Times,serif" font-size="14.00" fill="royalblue">179406 </text>
<text text-anchor="start" x="5319.73" y="-576.98" font-family="Times,serif" font-size="14.00"> Yes </text>
</g>
<!-- 44284&#45;&gt;44861 -->
<g id="edge7" class="edge">
<title>44284&#45;&gt;44861</title>
<path fill="none" stroke="black" d="M5252.89,-551.16C5284.19,-550.33 5315.86,-550.51 5345.98,-552.28 5348.51,-552.43 5351.05,-552.59 5353.61,-552.77"/>
<polygon fill="black" stroke="black" points="5353.19,-556.24 5363.42,-553.48 5353.7,-549.26 5353.19,-556.24"/>
<text text-anchor="start" x="5272.86" y="-556.48" font-family="Times,serif" font-size="14.00"> </text>
<text text-anchor="start" x="5276.61" y="-556.48" font-family="Times,serif" font-size="14.00" fill="royalblue">179405 </text>
<text text-anchor="start" x="5320.86" y="-556.48" font-family="Times,serif" font-size="14.00"> No </text>
</g>
<!-- 44861&#45;&gt;44615 -->
<g id="edge45" class="edge">
<title>44861&#45;&gt;44615</title>
<path fill="none" stroke="black" d="M5675.63,-599.83C5774.74,-614.95 5906.54,-630.78 6023.92,-630.78 6023.92,-630.78 6023.92,-630.78 7912.93,-630.78 8017.54,-630.78 8050.44,-650.71 8147.54,-611.78 8204.89,-588.79 8259.83,-550.91 8306.74,-511.73"/>
<polygon fill="black" stroke="black" points="8308.88,-514.51 8314.25,-505.38 8304.36,-509.16 8308.88,-514.51"/>
<text text-anchor="start" x="6891.26" y="-634.98" font-family="Times,serif" font-size="14.00"> </text>
<text text-anchor="start" x="6895.01" y="-634.98" font-family="Times,serif" font-size="14.00" fill="royalblue">181440 </text>
<text text-anchor="start" x="6939.26" y="-634.98" font-family="Times,serif" font-size="14.00"> No </text>
</g>
<!-- 44402 -->
<g id="node12" class="node">
<title>44402</title>
<ellipse fill="none" stroke="black" cx="6024.92" cy="-398.78" rx="171.11" ry="171.11"/>
<text text-anchor="start" x="5907.54" y="-394.73" font-family="Times,serif" font-size="14.00"> </text>
<text text-anchor="start" x="5911.29" y="-394.73" font-family="Times,serif" font-size="14.00" fill="royalblue">44402 </text>
<text text-anchor="start" x="5948.79" y="-394.73" font-family="Times,serif" font-size="14.00"> How was the prisoner recaptured? </text>
</g>
<!-- 44861&#45;&gt;44402 -->
<g id="edge44" class="edge">
<title>44861&#45;&gt;44402</title>
<path fill="none" stroke="black" d="M5669.37,-521.64C5726.69,-501.77 5792.74,-478.89 5852.17,-458.3"/>
<polygon fill="black" stroke="black" points="5853.07,-461.69 5861.37,-455.11 5850.77,-455.08 5853.07,-461.69"/>
<text text-anchor="start" x="5695.55" y="-515.74" font-family="Times,serif" font-size="14.00"> </text>
<text text-anchor="start" x="5699.3" y="-515.74" font-family="Times,serif" font-size="14.00" fill="royalblue">181439 </text>
<text text-anchor="start" x="5743.55" y="-515.74" font-family="Times,serif" font-size="14.00"> Yes (enter date) </text>
</g>
<!-- 44326 -->
<g id="node10" class="node">
<title>44326</title>
<ellipse fill="none" stroke="black" cx="3139.95" cy="-572.78" rx="233.04" ry="233.04"/>
<text text-anchor="start" x="2977.2" y="-568.73" font-family="Times,serif" font-size="14.00"> </text>
<text text-anchor="start" x="2980.95" y="-568.73" font-family="Times,serif" font-size="14.00" fill="royalblue">44326 </text>
<text text-anchor="start" x="3018.45" y="-568.73" font-family="Times,serif" font-size="14.00"> Has the prison service press office been informed? </text>
</g>
<!-- 44717 -->
<g id="node11" class="node">
<title>44717</title>
<ellipse fill="none" stroke="black" cx="3761.81" cy="-572.78" rx="212.57" ry="212.57"/>
<text text-anchor="start" x="3614.06" y="-568.73" font-family="Times,serif" font-size="14.00"> </text>
<text text-anchor="start" x="3617.81" y="-568.73" font-family="Times,serif" font-size="14.00" fill="royalblue">44717 </text>
<text text-anchor="start" x="3655.31" y="-568.73" font-family="Times,serif" font-size="14.00"> From which area did the abscond take place? </text>
</g>
<!-- 44326&#45;&gt;44717 -->
<g id="edge8" class="edge">
<title>44326&#45;&gt;44717</title>
<path fill="none" stroke="black" d="M3373.08,-572.78C3426.91,-572.78 3484.08,-572.78 3537.52,-572.78"/>
<polygon fill="black" stroke="black" points="3537.35,-576.28 3547.35,-572.78 3537.35,-569.28 3537.35,-576.28"/>
<text text-anchor="start" x="3390.99" y="-576.98" font-family="Times,serif" font-size="14.00"> </text>
<text text-anchor="start" x="3394.74" y="-576.98" font-family="Times,serif" font-size="14.00" fill="royalblue">179607 </text>
<text text-anchor="start" x="3438.99" y="-576.98" font-family="Times,serif" font-size="14.00"> Yes (enter date) </text>
</g>
<!-- 44326&#45;&gt;44717 -->
<g id="edge9" class="edge">
<title>44326&#45;&gt;44717</title>
<path fill="none" stroke="black" d="M3372.49,-553.13C3378.72,-552.82 3384.9,-552.53 3390.99,-552.28 3453.27,-549.74 3468.97,-549.51 3531.24,-552.28 3533.62,-552.39 3536.01,-552.5 3538.42,-552.62"/>
<polygon fill="black" stroke="black" points="3538.08,-556.11 3548.25,-553.14 3538.45,-549.12 3538.08,-556.11"/>
<text text-anchor="start" x="3425.11" y="-556.48" font-family="Times,serif" font-size="14.00"> </text>
<text text-anchor="start" x="3428.86" y="-556.48" font-family="Times,serif" font-size="14.00" fill="royalblue">179606 </text>
<text text-anchor="start" x="3473.11" y="-556.48" font-family="Times,serif" font-size="14.00"> No </text>
</g>
<!-- 44717&#45;&gt;44271 -->
<g id="edge23" class="edge">
<title>44717&#45;&gt;44271</title>
<path fill="none" stroke="black" d="M3971.58,-608.83C3978.59,-609.57 3985.54,-610.22 3992.38,-610.78 4082.74,-618.21 4105.99,-617.83 4196.38,-610.78 4199.46,-610.54 4202.56,-610.29 4205.67,-610.02"/>
<polygon fill="black" stroke="black" points="4205.88,-613.51 4215.51,-609.1 4205.23,-606.54 4205.88,-613.51"/>
<text text-anchor="start" x="4012.26" y="-620.41" font-family="Times,serif" font-size="14.00"> </text>
<text text-anchor="start" x="4016.01" y="-620.41" font-family="Times,serif" font-size="14.00" fill="royalblue">180993 </text>
<text text-anchor="start" x="4060.26" y="-620.41" font-family="Times,serif" font-size="14.00"> From establishment </text>
</g>
<!-- 44717&#45;&gt;44271 -->
<g id="edge24" class="edge">
<title>44717&#45;&gt;44271</title>
<path fill="none" stroke="black" d="M3974.83,-572.78C4047.19,-572.78 4128.54,-572.78 4202.68,-572.78"/>
<polygon fill="black" stroke="black" points="4202.52,-576.28 4212.52,-572.78 4202.52,-569.28 4202.52,-576.28"/>
<text text-anchor="start" x="3999.51" y="-576.98" font-family="Times,serif" font-size="14.00"> </text>
<text text-anchor="start" x="4003.26" y="-576.98" font-family="Times,serif" font-size="14.00" fill="royalblue">180995 </text>
<text text-anchor="start" x="4047.51" y="-576.98" font-family="Times,serif" font-size="14.00"> Supervised outside party </text>
</g>
<!-- 44717&#45;&gt;44271 -->
<g id="edge25" class="edge">
<title>44717&#45;&gt;44271</title>
<path fill="none" stroke="black" d="M3973.86,-553.21C3980.1,-552.87 3986.28,-552.56 3992.38,-552.28 4082.96,-548.25 4105.79,-548.46 4196.38,-552.28 4198.77,-552.39 4201.17,-552.49 4203.59,-552.6"/>
<polygon fill="black" stroke="black" points="4203.29,-556.09 4213.45,-553.09 4203.63,-549.1 4203.29,-556.09"/>
<text text-anchor="start" x="3992.38" y="-556.48" font-family="Times,serif" font-size="14.00"> </text>
<text text-anchor="start" x="3996.13" y="-556.48" font-family="Times,serif" font-size="14.00" fill="royalblue">180996 </text>
<text text-anchor="start" x="4040.38" y="-556.48" font-family="Times,serif" font-size="14.00"> Unsupervised outside party </text>
</g>
<!-- 44717&#45;&gt;44271 -->
<g id="edge26" class="edge">
<title>44717&#45;&gt;44271</title>
<path fill="none" stroke="black" d="M3970.6,-531.63C3977.93,-530.75 3985.21,-529.96 3992.38,-529.28 4082.65,-520.81 4106.07,-521.24 4196.38,-529.28 4199.67,-529.58 4202.99,-529.89 4206.32,-530.23"/>
<polygon fill="black" stroke="black" points="4205.9,-533.7 4216.21,-531.29 4206.64,-526.74 4205.9,-533.7"/>
<text text-anchor="start" x="4051.26" y="-533.48" font-family="Times,serif" font-size="14.00"> </text>
<text text-anchor="start" x="4055.01" y="-533.48" font-family="Times,serif" font-size="14.00" fill="royalblue">180994 </text>
<text text-anchor="start" x="4099.26" y="-533.48" font-family="Times,serif" font-size="14.00"> Other </text>
</g>
<!-- 44402&#45;&gt;44198 -->
<g id="edge10" class="edge">
<title>44402&#45;&gt;44198</title>
<path fill="none" stroke="black" d="M6195.57,-415.77C6201.8,-416.15 6207.97,-416.5 6214.03,-416.78 6281.29,-420 6298.6,-424.12 6365.53,-416.78 6369.7,-416.33 6373.9,-415.83 6378.13,-415.3"/>
<polygon fill="black" stroke="black" points="6378.42,-418.79 6387.87,-414 6377.49,-411.85 6378.42,-418.79"/>
<text text-anchor="start" x="6228.28" y="-425.08" font-family="Times,serif" font-size="14.00"> </text>
<text text-anchor="start" x="6232.03" y="-425.08" font-family="Times,serif" font-size="14.00" fill="royalblue">179847 </text>
<text text-anchor="start" x="6276.28" y="-425.08" font-family="Times,serif" font-size="14.00"> Police arrest </text>
</g>
<!-- 44402&#45;&gt;44198 -->
<g id="edge11" class="edge">
<title>44402&#45;&gt;44198</title>
<path fill="none" stroke="black" d="M6196.08,-387.9C6250.25,-384.4 6310.41,-380.47 6365.53,-376.78 6367.78,-376.63 6370.05,-376.48 6372.32,-376.33"/>
<polygon fill="black" stroke="black" points="6372.52,-379.82 6382.26,-375.66 6372.05,-372.84 6372.52,-379.82"/>
<text text-anchor="start" x="6214.03" y="-390.78" font-family="Times,serif" font-size="14.00"> </text>
<text text-anchor="start" x="6217.78" y="-390.78" font-family="Times,serif" font-size="14.00" fill="royalblue">179848 </text>
<text text-anchor="start" x="6262.03" y="-390.78" font-family="Times,serif" font-size="14.00"> Prison staff arrest </text>
</g>
<!-- 44402&#45;&gt;44198 -->
<g id="edge12" class="edge">
<title>44402&#45;&gt;44198</title>
<path fill="none" stroke="black" d="M6191.75,-359.22C6199.26,-358.09 6206.71,-357.1 6214.03,-356.28 6264.96,-350.6 6319.64,-348.29 6372.01,-347.91"/>
<polygon fill="black" stroke="black" points="6372,-351.41 6381.98,-347.86 6371.97,-344.41 6372,-351.41"/>
<text text-anchor="start" x="6235.4" y="-360.48" font-family="Times,serif" font-size="14.00"> </text>
<text text-anchor="start" x="6239.15" y="-360.48" font-family="Times,serif" font-size="14.00" fill="royalblue">179849 </text>
<text text-anchor="start" x="6283.4" y="-360.48" font-family="Times,serif" font-size="14.00"> Surrender </text>
</g>
<!-- 44402&#45;&gt;44198 -->
<g id="edge13" class="edge">
<title>44402&#45;&gt;44198</title>
<path fill="none" stroke="black" d="M6183.83,-334.15C6193.94,-331.45 6204.06,-329.11 6214.03,-327.28 6265.76,-317.79 6321.64,-316.29 6375.07,-319"/>
<polygon fill="black" stroke="black" points="6374.74,-322.49 6384.92,-319.55 6375.14,-315.5 6374.74,-322.49"/>
<text text-anchor="start" x="6246.65" y="-331.48" font-family="Times,serif" font-size="14.00"> </text>
<text text-anchor="start" x="6250.4" y="-331.48" font-family="Times,serif" font-size="14.00" fill="royalblue">179846 </text>
<text text-anchor="start" x="6294.65" y="-331.48" font-family="Times,serif" font-size="14.00"> Other </text>
</g>
<!-- 44416&#45;&gt;44615 -->
<g id="edge14" class="edge">
<title>44416&#45;&gt;44615</title>
<path fill="none" stroke="black" d="M8147.84,-366.78C8180.61,-366.78 8214.04,-366.78 8246.16,-366.78"/>
<polygon fill="black" stroke="black" points="8245.94,-370.28 8255.94,-366.78 8245.94,-363.28 8245.94,-370.28"/>
<text text-anchor="start" x="8165.54" y="-370.98" font-family="Times,serif" font-size="14.00"> </text>
<text text-anchor="start" x="8169.29" y="-370.98" font-family="Times,serif" font-size="14.00" fill="royalblue">179890 </text>
<text text-anchor="start" x="8213.54" y="-370.98" font-family="Times,serif" font-size="14.00"> Yes </text>
</g>
<!-- 44416&#45;&gt;44615 -->
<g id="edge15" class="edge">
<title>44416&#45;&gt;44615</title>
<path fill="none" stroke="black" d="M8146.78,-345.79C8178.04,-344.83 8209.69,-344.82 8239.79,-346.28 8242.17,-346.4 8244.58,-346.53 8247,-346.66"/>
<polygon fill="black" stroke="black" points="8246.69,-350.14 8256.88,-347.23 8247.1,-343.16 8246.69,-350.14"/>
<text text-anchor="start" x="8166.66" y="-350.48" font-family="Times,serif" font-size="14.00"> </text>
<text text-anchor="start" x="8170.41" y="-350.48" font-family="Times,serif" font-size="14.00" fill="royalblue">179889 </text>
<text text-anchor="start" x="8214.66" y="-350.48" font-family="Times,serif" font-size="14.00"> No </text>
</g>
<!-- 44467 -->
<g id="node14" class="node">
<title>44467</title>
<ellipse fill="none" stroke="black" cx="10324.71" cy="-375.78" rx="140.92" ry="140.92"/>
<text text-anchor="start" x="10229.46" y="-371.73" font-family="Times,serif" font-size="14.00"> </text>
<text text-anchor="start" x="10233.21" y="-371.73" font-family="Times,serif" font-size="14.00" fill="royalblue">44467 </text>
<text text-anchor="start" x="10270.71" y="-371.73" font-family="Times,serif" font-size="14.00"> Estimated cost of damage </text>
</g>
<!-- 44467&#45;&gt;END_NODE -->
<g id="edge16" class="edge">
<title>44467&#45;&gt;END_NODE</title>
<path fill="none" stroke="black" d="M10463.49,-402.74C10550.88,-419.83 10658.16,-440.82 10716.82,-452.29"/>
<polygon fill="black" stroke="black" points="10715.91,-455.68 10726.4,-454.17 10717.26,-448.81 10715.91,-455.68"/>
<text text-anchor="start" x="10483.62" y="-454.45" font-family="Times,serif" font-size="14.00"> </text>
<text text-anchor="start" x="10487.37" y="-454.45" font-family="Times,serif" font-size="14.00" fill="royalblue">180085 </text>
<text text-anchor="start" x="10531.62" y="-454.45" font-family="Times,serif" font-size="14.00"> Enter amount in pound sterling </text>
</g>
<!-- 44941&#45;&gt;44766 -->
<g id="edge49" class="edge">
<title>44941&#45;&gt;44766</title>
<path fill="none" stroke="black" d="M1093.99,-597.05C1125.1,-594.95 1156.57,-592.82 1186.51,-590.78 1188.87,-590.62 1191.24,-590.46 1193.63,-590.3"/>
<polygon fill="black" stroke="black" points="1193.61,-593.81 1203.35,-589.64 1193.13,-586.83 1193.61,-593.81"/>
<text text-anchor="start" x="1112.26" y="-599.83" font-family="Times,serif" font-size="14.00"> </text>
<text text-anchor="start" x="1116.01" y="-599.83" font-family="Times,serif" font-size="14.00" fill="royalblue">181762 </text>
<text text-anchor="start" x="1160.26" y="-599.83" font-family="Times,serif" font-size="14.00"> Yes </text>
</g>
<!-- 44941&#45;&gt;44766 -->
<g id="edge50" class="edge">
<title>44941&#45;&gt;44766</title>
<path fill="none" stroke="black" d="M1091.06,-572.29C1098.2,-571.54 1105.28,-570.87 1112.26,-570.28 1138.4,-568.1 1165.72,-566.76 1193.01,-566.03"/>
<polygon fill="black" stroke="black" points="1192.85,-569.53 1202.77,-565.8 1192.69,-562.54 1192.85,-569.53"/>
<text text-anchor="start" x="1113.38" y="-574.48" font-family="Times,serif" font-size="14.00"> </text>
<text text-anchor="start" x="1117.13" y="-574.48" font-family="Times,serif" font-size="14.00" fill="royalblue">181761 </text>
<text text-anchor="start" x="1161.38" y="-574.48" font-family="Times,serif" font-size="14.00"> No </text>
</g>
<!-- 44609 -->
<g id="node17" class="node">
<title>44609</title>
<ellipse fill="none" stroke="black" cx="2041.52" cy="-572.78" rx="235.09" ry="235.09"/>
<text text-anchor="start" x="1877.27" y="-568.73" font-family="Times,serif" font-size="14.00"> </text>
<text text-anchor="start" x="1881.02" y="-568.73" font-family="Times,serif" font-size="14.00" fill="royalblue">44609 </text>
<text text-anchor="start" x="1918.52" y="-568.73" font-family="Times,serif" font-size="14.00"> Is the incident subject to a governor&#39;s adjudication? </text>
</g>
<!-- 44766&#45;&gt;44609 -->
<g id="edge27" class="edge">
<title>44766&#45;&gt;44609</title>
<path fill="none" stroke="black" d="M1696.52,-572.78C1729.02,-572.78 1762.35,-572.78 1794.86,-572.78"/>
<polygon fill="black" stroke="black" points="1794.81,-576.28 1804.81,-572.78 1794.81,-569.28 1794.81,-576.28"/>
<text text-anchor="start" x="1714.18" y="-576.98" font-family="Times,serif" font-size="14.00"> </text>
<text text-anchor="start" x="1717.93" y="-576.98" font-family="Times,serif" font-size="14.00" fill="royalblue">181146 </text>
<text text-anchor="start" x="1762.18" y="-576.98" font-family="Times,serif" font-size="14.00"> Yes </text>
</g>
<!-- 44766&#45;&gt;44609 -->
<g id="edge28" class="edge">
<title>44766&#45;&gt;44609</title>
<path fill="none" stroke="black" d="M1695.7,-552.08C1726.9,-551.16 1758.41,-551.07 1788.43,-552.28 1790.83,-552.38 1793.24,-552.48 1795.67,-552.59"/>
<polygon fill="black" stroke="black" points="1795.41,-556.08 1805.57,-553.06 1795.74,-549.09 1795.41,-556.08"/>
<text text-anchor="start" x="1715.31" y="-556.48" font-family="Times,serif" font-size="14.00"> </text>
<text text-anchor="start" x="1719.06" y="-556.48" font-family="Times,serif" font-size="14.00" fill="royalblue">181145 </text>
<text text-anchor="start" x="1763.31" y="-556.48" font-family="Times,serif" font-size="14.00"> No </text>
</g>
<!-- 45077 -->
<g id="node18" class="node">
<title>45077</title>
<ellipse fill="none" stroke="black" cx="2591.76" cy="-572.78" rx="204.89" ry="204.89"/>
<text text-anchor="start" x="2449.63" y="-568.73" font-family="Times,serif" font-size="14.00"> </text>
<text text-anchor="start" x="2453.38" y="-568.73" font-family="Times,serif" font-size="14.00" fill="royalblue">45077 </text>
<text text-anchor="start" x="2490.88" y="-568.73" font-family="Times,serif" font-size="14.00"> Is there any media interest in this incident? </text>
</g>
<!-- 44609&#45;&gt;45077 -->
<g id="edge19" class="edge">
<title>44609&#45;&gt;45077</title>
<path fill="none" stroke="black" d="M2277.01,-572.78C2309.66,-572.78 2343.08,-572.78 2375.35,-572.78"/>
<polygon fill="black" stroke="black" points="2375.21,-576.28 2385.21,-572.78 2375.21,-569.28 2375.21,-576.28"/>
<text text-anchor="start" x="2294.61" y="-576.98" font-family="Times,serif" font-size="14.00"> </text>
<text text-anchor="start" x="2298.36" y="-576.98" font-family="Times,serif" font-size="14.00" fill="royalblue">180628 </text>
<text text-anchor="start" x="2342.61" y="-576.98" font-family="Times,serif" font-size="14.00"> Yes </text>
</g>
<!-- 44609&#45;&gt;45077 -->
<g id="edge20" class="edge">
<title>44609&#45;&gt;45077</title>
<path fill="none" stroke="black" d="M2276,-551.94C2307.21,-550.97 2338.81,-550.9 2368.86,-552.28 2371.24,-552.39 2373.63,-552.51 2376.04,-552.63"/>
<polygon fill="black" stroke="black" points="2375.68,-556.12 2385.85,-553.17 2376.06,-549.13 2375.68,-556.12"/>
<text text-anchor="start" x="2295.74" y="-556.48" font-family="Times,serif" font-size="14.00"> </text>
<text text-anchor="start" x="2299.49" y="-556.48" font-family="Times,serif" font-size="14.00" fill="royalblue">180627 </text>
<text text-anchor="start" x="2343.74" y="-556.48" font-family="Times,serif" font-size="14.00"> No </text>
</g>
<!-- 45077&#45;&gt;44326 -->
<g id="edge53" class="edge">
<title>45077&#45;&gt;44326</title>
<path fill="none" stroke="black" d="M2796.91,-572.78C2829.04,-572.78 2862.52,-572.78 2895.43,-572.78"/>
<polygon fill="black" stroke="black" points="2895.05,-576.28 2905.05,-572.78 2895.05,-569.28 2895.05,-576.28"/>
<text text-anchor="start" x="2814.65" y="-576.98" font-family="Times,serif" font-size="14.00"> </text>
<text text-anchor="start" x="2818.4" y="-576.98" font-family="Times,serif" font-size="14.00" fill="royalblue">182275 </text>
<text text-anchor="start" x="2862.65" y="-576.98" font-family="Times,serif" font-size="14.00"> Yes </text>
</g>
<!-- 45077&#45;&gt;44326 -->
<g id="edge54" class="edge">
<title>45077&#45;&gt;44326</title>
<path fill="none" stroke="black" d="M2796.15,-553.25C2802.39,-552.89 2808.57,-552.57 2814.65,-552.28 2841.03,-551.07 2868.6,-550.98 2896.04,-551.65"/>
<polygon fill="black" stroke="black" points="2895.77,-555.15 2905.86,-551.93 2895.97,-548.15 2895.77,-555.15"/>
<text text-anchor="start" x="2815.78" y="-556.48" font-family="Times,serif" font-size="14.00"> </text>
<text text-anchor="start" x="2819.53" y="-556.48" font-family="Times,serif" font-size="14.00" fill="royalblue">182274 </text>
<text text-anchor="start" x="2863.78" y="-556.48" font-family="Times,serif" font-size="14.00"> No </text>
</g>
<!-- 44868&#45;&gt;44976 -->
<g id="edge46" class="edge">
<title>44868&#45;&gt;44976</title>
<path fill="none" stroke="black" d="M8998.71,-509.79C9038.96,-509.66 9083.93,-508.65 9124.99,-505.78 9127.9,-505.58 9130.83,-505.37 9133.77,-505.14"/>
<polygon fill="black" stroke="black" points="9133.97,-508.64 9143.66,-504.36 9133.41,-501.66 9133.97,-508.64"/>
<text text-anchor="start" x="9025.62" y="-513.81" font-family="Times,serif" font-size="14.00"> </text>
<text text-anchor="start" x="9029.37" y="-513.81" font-family="Times,serif" font-size="14.00" fill="royalblue">181455 </text>
<text text-anchor="start" x="9073.62" y="-513.81" font-family="Times,serif" font-size="14.00"> Minor </text>
</g>
<!-- 44868&#45;&gt;44976 -->
<g id="edge47" class="edge">
<title>44868&#45;&gt;44976</title>
<path fill="none" stroke="black" d="M8996.85,-487.51C9003.4,-486.68 9009.9,-485.93 9016.24,-485.28 9053.41,-481.48 9092.62,-478.5 9131.34,-476.17"/>
<polygon fill="black" stroke="black" points="9131.5,-479.67 9141.28,-475.59 9131.09,-472.68 9131.5,-479.67"/>
<text text-anchor="start" x="9022.62" y="-489.48" font-family="Times,serif" font-size="14.00"> </text>
<text text-anchor="start" x="9026.37" y="-489.48" font-family="Times,serif" font-size="14.00" fill="royalblue">181456 </text>
<text text-anchor="start" x="9070.62" y="-489.48" font-family="Times,serif" font-size="14.00"> Serious </text>
</g>
<!-- 44868&#45;&gt;44976 -->
<g id="edge48" class="edge">
<title>44868&#45;&gt;44976</title>
<path fill="none" stroke="black" d="M8989.63,-462.36C8998.54,-459.93 9007.47,-457.85 9016.24,-456.28 9053.54,-449.62 9093.12,-446.35 9132.28,-445.33"/>
<polygon fill="black" stroke="black" points="9132.15,-448.84 9142.08,-445.13 9132.01,-441.84 9132.15,-448.84"/>
<text text-anchor="start" x="9016.24" y="-460.48" font-family="Times,serif" font-size="14.00"> </text>
<text text-anchor="start" x="9019.99" y="-460.48" font-family="Times,serif" font-size="14.00" fill="royalblue">181454 </text>
<text text-anchor="start" x="9064.24" y="-460.48" font-family="Times,serif" font-size="14.00"> Extensive </text>
</g>
<!-- 44976&#45;&gt;END_NODE -->
<g id="edge52" class="edge">
<title>44976&#45;&gt;END_NODE</title>
<path fill="none" stroke="black" d="M9681,-509.31C9718.87,-513.95 9757.39,-518 9794.05,-520.78 10091.68,-543.38 10168.9,-558.13 10465.62,-525.78 10556.66,-515.86 10660.77,-489.17 10717.63,-473.25"/>
<polygon fill="black" stroke="black" points="10718.22,-476.72 10726.89,-470.63 10716.32,-469.98 10718.22,-476.72"/>
<text text-anchor="start" x="10075.41" y="-548.68" font-family="Times,serif" font-size="14.00"> </text>
<text text-anchor="start" x="10079.16" y="-548.68" font-family="Times,serif" font-size="14.00" fill="royalblue">181893 </text>
<text text-anchor="start" x="10123.41" y="-548.68" font-family="Times,serif" font-size="14.00"> No </text>
</g>
<!-- 44800 -->
<g id="node21" class="node">
<title>44800</title>
<ellipse fill="none" stroke="black" cx="9916.54" cy="-389.78" rx="122.49" ry="122.49"/>
<text text-anchor="start" x="9834.79" y="-385.73" font-family="Times,serif" font-size="14.00"> </text>
<text text-anchor="start" x="9838.54" y="-385.73" font-family="Times,serif" font-size="14.00" fill="royalblue">44800 </text>
<text text-anchor="start" x="9876.04" y="-385.73" font-family="Times,serif" font-size="14.00"> Describe the damage </text>
</g>
<!-- 44976&#45;&gt;44800 -->
<g id="edge51" class="edge">
<title>44976&#45;&gt;44800</title>
<path fill="none" stroke="black" d="M9680.74,-426.33C9716.54,-420.76 9751.91,-415.25 9783.9,-410.27"/>
<polygon fill="black" stroke="black" points="9784.24,-413.76 9793.58,-408.77 9783.16,-406.85 9784.24,-413.76"/>
<text text-anchor="start" x="9701.8" y="-426" font-family="Times,serif" font-size="14.00"> </text>
<text text-anchor="start" x="9705.55" y="-426" font-family="Times,serif" font-size="14.00" fill="royalblue">181892 </text>
<text text-anchor="start" x="9749.8" y="-426" font-family="Times,serif" font-size="14.00"> Yes </text>
</g>
<!-- 44800&#45;&gt;44467 -->
<g id="edge29" class="edge">
<title>44800&#45;&gt;44467</title>
<path fill="none" stroke="black" d="M10039.25,-398.1C10045.26,-398.37 10051.22,-398.6 10057.04,-398.78 10105.35,-400.34 10117.58,-402.28 10165.79,-398.78 10168.47,-398.59 10171.17,-398.38 10173.9,-398.15"/>
<polygon fill="black" stroke="black" points="10174.03,-401.65 10183.67,-397.25 10173.39,-394.68 10174.03,-401.65"/>
<text text-anchor="start" x="10066.41" y="-404.94" font-family="Times,serif" font-size="14.00"> </text>
<text text-anchor="start" x="10070.16" y="-404.94" font-family="Times,serif" font-size="14.00" fill="royalblue">181258 </text>
<text text-anchor="start" x="10114.41" y="-404.94" font-family="Times,serif" font-size="14.00"> Minor </text>
</g>
<!-- 44800&#45;&gt;44467 -->
<g id="edge30" class="edge">
<title>44800&#45;&gt;44467</title>
<path fill="none" stroke="black" d="M10038.86,-379.25C10045,-378.88 10051.09,-378.56 10057.04,-378.28 10094.4,-376.57 10134.73,-375.69 10172.44,-375.29"/>
<polygon fill="black" stroke="black" points="10172.05,-378.79 10182.01,-375.2 10171.98,-371.79 10172.05,-378.79"/>
<text text-anchor="start" x="10063.41" y="-382.48" font-family="Times,serif" font-size="14.00"> </text>
<text text-anchor="start" x="10067.16" y="-382.48" font-family="Times,serif" font-size="14.00" fill="royalblue">181259 </text>
<text text-anchor="start" x="10111.41" y="-382.48" font-family="Times,serif" font-size="14.00"> Serious </text>
</g>
<!-- 44800&#45;&gt;44467 -->
<g id="edge31" class="edge">
<title>44800&#45;&gt;44467</title>
<path fill="none" stroke="black" d="M10035.13,-358.58C10042.51,-357.28 10049.86,-356.16 10057.04,-355.28 10094.79,-350.68 10135.69,-351.13 10173.85,-353.86"/>
<polygon fill="black" stroke="black" points="10173.32,-357.33 10183.56,-354.61 10173.86,-350.35 10173.32,-357.33"/>
<text text-anchor="start" x="10057.04" y="-359.48" font-family="Times,serif" font-size="14.00"> </text>
<text text-anchor="start" x="10060.79" y="-359.48" font-family="Times,serif" font-size="14.00" fill="royalblue">181257 </text>
<text text-anchor="start" x="10105.04" y="-359.48" font-family="Times,serif" font-size="14.00"> Extensive </text>
</g>
</g>
</svg>
