<?xml version="1.0" encoding="UTF-8" standalone="no"?>
<!DOCTYPE svg PUBLIC "-//W3C//DTD SVG 1.1//EN"
 "http://www.w3.org/Graphics/SVG/1.1/DTD/svg11.dtd">
<!-- Generated by graphviz version 12.1.1 (20240910.0053)
 -->
<!-- Title: ABSCONDER Pages: 1 -->
<svg width="8925pt" height="721pt"
 viewBox="0.00 0.00 8924.81 721.27" xmlns="http://www.w3.org/2000/svg" xmlns:xlink="http://www.w3.org/1999/xlink">
<g id="graph0" class="graph" transform="scale(1 1) rotate(0) translate(4 717.27)">
<title>ABSCONDER</title>
<polygon fill="white" stroke="none" points="-4,4 -4,-717.27 8920.81,-717.27 8920.81,4 -4,4"/>
<!-- START_NODE -->
<g id="node1" class="node">
<title>START_NODE</title>
</g>
<!-- 44534 -->
<g id="node2" class="node">
<title>44534</title>
<ellipse fill="none" stroke="black" cx="280.27" cy="-289.93" rx="167.02" ry="167.02"/>
<text text-anchor="middle" x="280.27" y="-284.88" font-family="Times,serif" font-size="14.00">Were the police informed of the incident?</text>
</g>
<!-- START_NODE&#45;&gt;44534 -->
<g id="edge1" class="edge">
<title>START_NODE&#45;&gt;44534</title>
<path fill="none" stroke="black" d="M53.94,-289.93C66.67,-289.93 83.21,-289.93 101.55,-289.93"/>
<polygon fill="black" stroke="black" points="101.34,-293.43 111.34,-289.93 101.34,-286.43 101.34,-293.43"/>
<text text-anchor="middle" x="83.62" y="-293.13" font-family="Times,serif" font-size="14.00">start</text>
</g>
<!-- 44941 -->
<g id="node15" class="node">
<title>44941</title>
<ellipse fill="none" stroke="black" cx="711.12" cy="-510.93" rx="202.33" ry="202.33"/>
<text text-anchor="middle" x="711.12" y="-505.88" font-family="Times,serif" font-size="14.00">Is the incident the subject of a police investigation?</text>
</g>
<!-- 44534&#45;&gt;44941 -->
<g id="edge17" class="edge">
<title>44534&#45;&gt;44941</title>
<path fill="none" stroke="black" d="M429.16,-366.15C458.66,-381.35 490.03,-397.51 520.71,-413.32"/>
<polygon fill="black" stroke="black" points="518.8,-416.28 529.29,-417.75 522.01,-410.06 518.8,-416.28"/>
<text text-anchor="middle" x="478.04" y="-397.01" font-family="Times,serif" font-size="14.00">YES</text>
</g>
<!-- 44766 -->
<g id="node16" class="node">
<title>44766</title>
<ellipse fill="none" stroke="black" cx="1187.53" cy="-470.93" rx="212.57" ry="212.57"/>
<text text-anchor="middle" x="1187.53" y="-465.88" font-family="Times,serif" font-size="14.00">Is the incident the subject of an internal investigation?</text>
</g>
<!-- 44534&#45;&gt;44766 -->
<g id="edge18" class="edge">
<title>44534&#45;&gt;44766</title>
<path fill="none" stroke="black" d="M445.02,-261.23C575.04,-244.8 759.88,-235.78 913.46,-283.43 947.81,-294.09 981.66,-310.73 1013.23,-329.79"/>
<polygon fill="black" stroke="black" points="1011.31,-332.72 1021.66,-334.98 1014.98,-326.76 1011.31,-332.72"/>
<text text-anchor="middle" x="711.12" y="-286.63" font-family="Times,serif" font-size="14.00">NO</text>
</g>
<!-- END_NODE -->
<g id="node3" class="node">
<title>END_NODE</title>
<ellipse fill="none" stroke="black" cx="8882.95" cy="-395.93" rx="29.86" ry="29.86"/>
<ellipse fill="none" stroke="black" cx="8882.95" cy="-395.93" rx="33.86" ry="33.86"/>
<text text-anchor="middle" x="8882.95" y="-390.88" font-family="Times,serif" font-size="14.00">END</text>
</g>
<!-- 44198 -->
<g id="node4" class="node">
<title>44198</title>
<ellipse fill="none" stroke="black" cx="5486.25" cy="-330.93" rx="211.04" ry="211.04"/>
<text text-anchor="middle" x="5486.25" y="-325.88" font-family="Times,serif" font-size="14.00">Has the prisoner been charged with a further offence?</text>
</g>
<!-- 44854 -->
<g id="node5" class="node">
<title>44854</title>
<ellipse fill="none" stroke="black" cx="5956" cy="-330.93" rx="197.22" ry="197.22"/>
<text text-anchor="middle" x="5956" y="-325.88" font-family="Times,serif" font-size="14.00">With what offence has the prisoner been charged?</text>
</g>
<!-- 44198&#45;&gt;44854 -->
<g id="edge2" class="edge">
<title>44198&#45;&gt;44854</title>
<path fill="none" stroke="black" d="M5697.52,-330.93C5713.99,-330.93 5730.61,-330.93 5747.06,-330.93"/>
<polygon fill="black" stroke="black" points="5746.9,-334.43 5756.9,-330.93 5746.9,-327.43 5746.9,-334.43"/>
<text text-anchor="middle" x="5728.04" y="-334.13" font-family="Times,serif" font-size="14.00">YES</text>
</g>
<!-- 44615 -->
<g id="node6" class="node">
<title>44615</title>
<ellipse fill="none" stroke="black" cx="7019.24" cy="-334.93" rx="159.85" ry="159.85"/>
<text text-anchor="middle" x="7019.24" y="-329.88" font-family="Times,serif" font-size="14.00">Was damage caused to prison property?</text>
</g>
<!-- 44198&#45;&gt;44615 -->
<g id="edge3" class="edge">
<title>44198&#45;&gt;44615</title>
<path fill="none" stroke="black" d="M5641.94,-188.14C5677.91,-162.5 5717.76,-139.37 5758.79,-124.93 6194.41,28.4 6371.5,53.47 6797.89,-123.93 6839.7,-141.33 6878.17,-170.65 6910.85,-201.98"/>
<polygon fill="black" stroke="black" points="6908.36,-204.43 6917.96,-208.92 6913.25,-199.43 6908.36,-204.43"/>
<text text-anchor="middle" x="6273.22" y="-12.35" font-family="Times,serif" font-size="14.00">NO</text>
</g>
<!-- 44416 -->
<g id="node13" class="node">
<title>44416</title>
<ellipse fill="none" stroke="black" cx="6595.55" cy="-334.93" rx="202.33" ry="202.33"/>
<text text-anchor="middle" x="6595.55" y="-329.88" font-family="Times,serif" font-size="14.00">Has any prosecution taken place or is any pending?</text>
</g>
<!-- 44854&#45;&gt;44416 -->
<g id="edge32" class="edge">
<title>44854&#45;&gt;44416</title>
<path fill="none" stroke="black" d="M6085.53,-480.25C6111.55,-501.76 6140.46,-520.72 6171.22,-532.93 6213.35,-549.67 6332.91,-549.21 6375.22,-532.93 6401.32,-522.9 6426.25,-508.15 6449.33,-491.17"/>
<polygon fill="black" stroke="black" points="6451.35,-494.03 6457.21,-485.2 6447.12,-488.45 6451.35,-494.03"/>
<text text-anchor="middle" x="6273.22" y="-548.51" font-family="Times,serif" font-size="14.00">MURDER/ATTEMPTED MURDER</text>
</g>
<!-- 44854&#45;&gt;44416 -->
<g id="edge33" class="edge">
<title>44854&#45;&gt;44416</title>
<path fill="none" stroke="black" d="M6104.81,-461.09C6125.96,-474.07 6148.34,-485.26 6171.22,-492.93 6214.2,-507.36 6332.08,-506.86 6375.22,-492.93 6393.68,-486.98 6411.91,-478.82 6429.48,-469.34"/>
<polygon fill="black" stroke="black" points="6430.82,-472.6 6437.85,-464.67 6427.41,-466.48 6430.82,-472.6"/>
<text text-anchor="middle" x="6273.22" y="-506.76" font-family="Times,serif" font-size="14.00">MANSLAUGHTER</text>
</g>
<!-- 44854&#45;&gt;44416 -->
<g id="edge34" class="edge">
<title>44854&#45;&gt;44416</title>
<path fill="none" stroke="black" d="M6123.34,-436.22C6139.1,-442.93 6155.19,-448.69 6171.22,-452.93 6258.87,-476.14 6287.3,-475.08 6375.22,-452.93 6386.94,-449.98 6398.71,-446.27 6410.39,-442"/>
<polygon fill="black" stroke="black" points="6411.57,-445.29 6419.66,-438.46 6409.07,-438.75 6411.57,-445.29"/>
<text text-anchor="middle" x="6273.22" y="-473.14" font-family="Times,serif" font-size="14.00">ASSAULT</text>
</g>
<!-- 44854&#45;&gt;44416 -->
<g id="edge35" class="edge">
<title>44854&#45;&gt;44416</title>
<path fill="none" stroke="black" d="M6138.89,-405.62C6149.72,-408.48 6160.55,-410.96 6171.22,-412.93 6260.38,-429.42 6285.87,-428.35 6375.22,-412.93 6381.73,-411.81 6388.29,-410.52 6394.89,-409.07"/>
<polygon fill="black" stroke="black" points="6395.58,-412.5 6404.54,-406.85 6394.01,-405.68 6395.58,-412.5"/>
<text text-anchor="middle" x="6273.22" y="-428.1" font-family="Times,serif" font-size="14.00">RAPE/ATTEMPTED RAPE</text>
</g>
<!-- 44854&#45;&gt;44416 -->
<g id="edge36" class="edge">
<title>44854&#45;&gt;44416</title>
<path fill="none" stroke="black" d="M6149.43,-370.49C6156.77,-371.41 6164.05,-372.24 6171.22,-372.93 6261.46,-381.7 6284.89,-380.7 6375.22,-372.93 6378.32,-372.67 6381.43,-372.38 6384.57,-372.08"/>
<polygon fill="black" stroke="black" points="6384.91,-375.56 6394.49,-371.04 6384.18,-368.6 6384.91,-375.56"/>
<text text-anchor="middle" x="6273.22" y="-382.34" font-family="Times,serif" font-size="14.00">OTHER SEXUAL OFFENCE</text>
</g>
<!-- 44854&#45;&gt;44416 -->
<g id="edge37" class="edge">
<title>44854&#45;&gt;44416</title>
<path fill="none" stroke="black" d="M6153.7,-332.81C6159.6,-332.85 6165.45,-332.89 6171.22,-332.93 6239.71,-333.42 6314.43,-333.81 6381.77,-334.12"/>
<polygon fill="black" stroke="black" points="6381.42,-337.62 6391.43,-334.16 6381.45,-330.62 6381.42,-337.62"/>
<text text-anchor="middle" x="6273.22" y="-337.26" font-family="Times,serif" font-size="14.00">THEFT</text>
</g>
<!-- 44854&#45;&gt;44416 -->
<g id="edge38" class="edge">
<title>44854&#45;&gt;44416</title>
<path fill="none" stroke="black" d="M6152.79,-313.34C6159,-313 6165.16,-312.7 6171.22,-312.43 6261.8,-308.53 6284.67,-307.8 6375.22,-312.43 6377.74,-312.56 6380.28,-312.7 6382.84,-312.85"/>
<polygon fill="black" stroke="black" points="6382.4,-316.33 6392.59,-313.44 6382.82,-309.34 6382.4,-316.33"/>
<text text-anchor="middle" x="6273.22" y="-315.63" font-family="Times,serif" font-size="14.00">ROBBERY</text>
</g>
<!-- 44854&#45;&gt;44416 -->
<g id="edge39" class="edge">
<title>44854&#45;&gt;44416</title>
<path fill="none" stroke="black" d="M6149.42,-290.91C6156.76,-289.97 6164.05,-289.14 6171.22,-288.43 6261.45,-279.57 6285.05,-278.98 6375.22,-288.43 6378.9,-288.82 6382.6,-289.24 6386.33,-289.69"/>
<polygon fill="black" stroke="black" points="6385.71,-293.14 6396.08,-290.95 6386.61,-286.2 6385.71,-293.14"/>
<text text-anchor="middle" x="6273.22" y="-291.63" font-family="Times,serif" font-size="14.00">FIREARM OFFENCE</text>
</g>
<!-- 44854&#45;&gt;44416 -->
<g id="edge40" class="edge">
<title>44854&#45;&gt;44416</title>
<path fill="none" stroke="black" d="M6142.79,-266.83C6152.34,-264.74 6161.85,-262.92 6171.22,-261.43 6260.77,-247.27 6285.73,-246.84 6375.22,-261.43 6381.29,-262.42 6387.42,-263.56 6393.57,-264.82"/>
<polygon fill="black" stroke="black" points="6392.69,-268.21 6403.21,-266.89 6394.17,-261.36 6392.69,-268.21"/>
<text text-anchor="middle" x="6273.22" y="-264.63" font-family="Times,serif" font-size="14.00">DRUG OFFENCE</text>
</g>
<!-- 44854&#45;&gt;44416 -->
<g id="edge41" class="edge">
<title>44854&#45;&gt;44416</title>
<path fill="none" stroke="black" d="M6132.24,-241.42C6145.22,-237.07 6158.29,-233.32 6171.22,-230.43 6259.71,-210.71 6286.78,-210.44 6375.22,-230.43 6385.04,-232.65 6394.93,-235.37 6404.8,-238.47"/>
<polygon fill="black" stroke="black" points="6403.47,-241.71 6414.06,-241.5 6405.65,-235.06 6403.47,-241.71"/>
<text text-anchor="middle" x="6273.22" y="-233.63" font-family="Times,serif" font-size="14.00">VEHICLE CRIME</text>
</g>
<!-- 44854&#45;&gt;44416 -->
<g id="edge42" class="edge">
<title>44854&#45;&gt;44416</title>
<path fill="none" stroke="black" d="M6117.07,-216.7C6134.72,-208.11 6152.94,-200.73 6171.22,-195.43 6258.3,-170.2 6288.17,-170.1 6375.22,-195.43 6390.36,-199.84 6405.45,-205.64 6420.22,-212.38"/>
<polygon fill="black" stroke="black" points="6418.49,-215.43 6429.03,-216.54 6421.48,-209.1 6418.49,-215.43"/>
<text text-anchor="middle" x="6273.22" y="-198.63" font-family="Times,serif" font-size="14.00">PUBLIC ORDER OFFENCE</text>
</g>
<!-- 44854&#45;&gt;44416 -->
<g id="edge43" class="edge">
<title>44854&#45;&gt;44416</title>
<path fill="none" stroke="black" d="M6098.61,-194.32C6121.42,-178.85 6145.91,-165.44 6171.22,-156.43 6256.64,-126.05 6289.79,-126.07 6375.22,-156.43 6397.58,-164.39 6419.32,-175.7 6439.88,-188.82"/>
<polygon fill="black" stroke="black" points="6437.69,-191.57 6447.97,-194.14 6441.54,-185.72 6437.69,-191.57"/>
<text text-anchor="middle" x="6273.22" y="-159.63" font-family="Times,serif" font-size="14.00">OTHER</text>
</g>
<!-- 44868 -->
<g id="node19" class="node">
<title>44868</title>
<ellipse fill="none" stroke="black" cx="7329.82" cy="-442.93" rx="89.23" ry="89.23"/>
<text text-anchor="middle" x="7329.82" y="-437.88" font-family="Times,serif" font-size="14.00">Describe the damage</text>
</g>
<!-- 44615&#45;&gt;44868 -->
<g id="edge21" class="edge">
<title>44615&#45;&gt;44868</title>
<path fill="none" stroke="black" d="M7170.47,-387.51C7192.29,-395.15 7214.23,-402.83 7234.52,-409.93"/>
<polygon fill="black" stroke="black" points="7233.27,-413.2 7243.87,-413.2 7235.59,-406.59 7233.27,-413.2"/>
<text text-anchor="middle" x="7209.85" y="-408.12" font-family="Times,serif" font-size="14.00">YES</text>
</g>
<!-- 44976 -->
<g id="node20" class="node">
<title>44976</title>
<ellipse fill="none" stroke="black" cx="7766.95" cy="-402.93" rx="237.65" ry="237.65"/>
<text text-anchor="middle" x="7766.95" y="-397.88" font-family="Times,serif" font-size="14.00">Was any damage caused to private property during abscond?</text>
</g>
<!-- 44615&#45;&gt;44976 -->
<g id="edge22" class="edge">
<title>44615&#45;&gt;44976</title>
<path fill="none" stroke="black" d="M7179.41,-329.68C7199.99,-329.17 7220.79,-328.73 7240.6,-328.43 7319.9,-327.27 7340.18,-320.06 7419.05,-328.43 7453.47,-332.09 7489.49,-337.73 7524.75,-344.3"/>
<polygon fill="black" stroke="black" points="7523.7,-347.67 7534.18,-346.09 7525,-340.79 7523.7,-347.67"/>
<text text-anchor="middle" x="7329.82" y="-331.63" font-family="Times,serif" font-size="14.00">NO</text>
</g>
<!-- 44271 -->
<g id="node7" class="node">
<title>44271</title>
<ellipse fill="none" stroke="black" cx="3685.02" cy="-470.93" rx="192.61" ry="192.61"/>
<text text-anchor="middle" x="3685.02" y="-465.88" font-family="Times,serif" font-size="14.00">Was any form of deception used in the abscond?</text>
</g>
<!-- 44284 -->
<g id="node8" class="node">
<title>44284</title>
<ellipse fill="none" stroke="black" cx="4145.56" cy="-470.93" rx="206.43" ry="206.43"/>
<text text-anchor="middle" x="4145.56" y="-465.88" font-family="Times,serif" font-size="14.00">Was the abscond in the company of other prisoners?</text>
</g>
<!-- 44271&#45;&gt;44284 -->
<g id="edge4" class="edge">
<title>44271&#45;&gt;44284</title>
<path fill="none" stroke="black" d="M3877.82,-470.93C3894.18,-470.93 3910.79,-470.93 3927.32,-470.93"/>
<polygon fill="black" stroke="black" points="3927.23,-474.43 3937.23,-470.93 3927.23,-467.43 3927.23,-474.43"/>
<text text-anchor="middle" x="3908.38" y="-474.13" font-family="Times,serif" font-size="14.00">YES</text>
</g>
<!-- 44271&#45;&gt;44284 -->
<g id="edge5" class="edge">
<title>44271&#45;&gt;44284</title>
<path fill="none" stroke="black" d="M3877.03,-451.47C3883.3,-451.08 3889.51,-450.73 3895.63,-450.43 3906.43,-449.91 3917.49,-449.68 3928.65,-449.69"/>
<polygon fill="black" stroke="black" points="3928.3,-453.19 3938.33,-449.77 3928.36,-446.19 3928.3,-453.19"/>
<text text-anchor="middle" x="3908.38" y="-453.63" font-family="Times,serif" font-size="14.00">NO</text>
</g>
<!-- 44861 -->
<g id="node9" class="node">
<title>44861</title>
<ellipse fill="none" stroke="black" cx="4537" cy="-470.93" rx="123.52" ry="123.52"/>
<text text-anchor="middle" x="4537" y="-465.88" font-family="Times,serif" font-size="14.00">Has prisoner been recaptured?</text>
</g>
<!-- 44284&#45;&gt;44861 -->
<g id="edge6" class="edge">
<title>44284&#45;&gt;44861</title>
<path fill="none" stroke="black" d="M4352.4,-470.93C4369.24,-470.93 4385.98,-470.93 4402.09,-470.93"/>
<polygon fill="black" stroke="black" points="4401.63,-474.43 4411.63,-470.93 4401.63,-467.43 4401.63,-474.43"/>
<text text-anchor="middle" x="4382.74" y="-474.13" font-family="Times,serif" font-size="14.00">YES</text>
</g>
<!-- 44284&#45;&gt;44861 -->
<g id="edge7" class="edge">
<title>44284&#45;&gt;44861</title>
<path fill="none" stroke="black" d="M4351.32,-449.01C4366.26,-448.96 4381.11,-449.39 4395.49,-450.43 4398.04,-450.62 4400.61,-450.82 4403.2,-451.04"/>
<polygon fill="black" stroke="black" points="4402.85,-454.53 4413.14,-451.97 4403.5,-447.56 4402.85,-454.53"/>
<text text-anchor="middle" x="4382.74" y="-453.63" font-family="Times,serif" font-size="14.00">NO</text>
</g>
<!-- 44861&#45;&gt;44615 -->
<g id="edge45" class="edge">
<title>44861&#45;&gt;44615</title>
<path fill="none" stroke="black" d="M4650.68,-520.3C4732.93,-551.87 4847.99,-586.93 4953.37,-586.93 4953.37,-586.93 4953.37,-586.93 6596.55,-586.93 6687.87,-586.93 6716.99,-588.29 6797.89,-545.93 6837.36,-525.27 6874.69,-495.4 6907.01,-464.61"/>
<polygon fill="black" stroke="black" points="6909.28,-467.29 6914.03,-457.82 6904.41,-462.26 6909.28,-467.29"/>
<text text-anchor="middle" x="5728.04" y="-590.13" font-family="Times,serif" font-size="14.00">NO</text>
</g>
<!-- 44402 -->
<g id="node12" class="node">
<title>44402</title>
<ellipse fill="none" stroke="black" cx="4954.37" cy="-370.93" rx="137.85" ry="137.85"/>
<text text-anchor="middle" x="4954.37" y="-365.88" font-family="Times,serif" font-size="14.00">How was the prisoner recaptured?</text>
</g>
<!-- 44861&#45;&gt;44402 -->
<g id="edge44" class="edge">
<title>44861&#45;&gt;44402</title>
<path fill="none" stroke="black" d="M4657.59,-442.14C4704.82,-430.77 4759.52,-417.6 4808.94,-405.71"/>
<polygon fill="black" stroke="black" points="4809.68,-409.13 4818.58,-403.38 4808.04,-402.32 4809.68,-409.13"/>
<text text-anchor="middle" x="4738.52" y="-438.93" font-family="Times,serif" font-size="14.00">YES (ENTER DATE)</text>
</g>
<!-- 44326 -->
<g id="node10" class="node">
<title>44326</title>
<ellipse fill="none" stroke="black" cx="2531.28" cy="-470.93" rx="199.78" ry="199.78"/>
<text text-anchor="middle" x="2531.28" y="-465.88" font-family="Times,serif" font-size="14.00">Has the prison service press office been informed?</text>
</g>
<!-- 44717 -->
<g id="node11" class="node">
<title>44717</title>
<ellipse fill="none" stroke="black" cx="3066.36" cy="-470.93" rx="179.3" ry="179.3"/>
<text text-anchor="middle" x="3066.36" y="-465.88" font-family="Times,serif" font-size="14.00">From which area did the abscond take place?</text>
</g>
<!-- 44326&#45;&gt;44717 -->
<g id="edge8" class="edge">
<title>44326&#45;&gt;44717</title>
<path fill="none" stroke="black" d="M2731.53,-470.93C2778.66,-470.93 2828.79,-470.93 2875.49,-470.93"/>
<polygon fill="black" stroke="black" points="2875.45,-474.43 2885.45,-470.93 2875.45,-467.43 2875.45,-474.43"/>
<text text-anchor="middle" x="2809.05" y="-474.13" font-family="Times,serif" font-size="14.00">YES (ENTER DATE)</text>
</g>
<!-- 44326&#45;&gt;44717 -->
<g id="edge9" class="edge">
<title>44326&#45;&gt;44717</title>
<path fill="none" stroke="black" d="M2730.4,-451.43C2736.69,-451.06 2742.92,-450.72 2749.05,-450.43 2802.33,-447.92 2815.79,-447.66 2869.05,-450.43 2871.46,-450.56 2873.88,-450.69 2876.32,-450.84"/>
<polygon fill="black" stroke="black" points="2876.09,-454.33 2886.29,-451.46 2876.53,-447.34 2876.09,-454.33"/>
<text text-anchor="middle" x="2809.05" y="-453.63" font-family="Times,serif" font-size="14.00">NO</text>
</g>
<!-- 44717&#45;&gt;44271 -->
<g id="edge23" class="edge">
<title>44717&#45;&gt;44271</title>
<path fill="none" stroke="black" d="M3242.37,-506.55C3249.54,-507.46 3256.66,-508.26 3263.66,-508.93 3356.9,-517.88 3381.12,-517.32 3474.41,-508.93 3477.65,-508.64 3480.91,-508.33 3484.19,-507.99"/>
<polygon fill="black" stroke="black" points="3484.35,-511.49 3493.91,-506.92 3483.59,-504.53 3484.35,-511.49"/>
<text text-anchor="middle" x="3369.03" y="-518.63" font-family="Times,serif" font-size="14.00">FROM ESTABLISHMENT</text>
</g>
<!-- 44717&#45;&gt;44271 -->
<g id="edge24" class="edge">
<title>44717&#45;&gt;44271</title>
<path fill="none" stroke="black" d="M3246.13,-470.93C3319.61,-470.93 3405.08,-470.93 3480.91,-470.93"/>
<polygon fill="black" stroke="black" points="3480.51,-474.43 3490.51,-470.93 3480.51,-467.43 3480.51,-474.43"/>
<text text-anchor="middle" x="3369.03" y="-474.13" font-family="Times,serif" font-size="14.00">SUPERVISED OUTSIDE PARTY</text>
</g>
<!-- 44717&#45;&gt;44271 -->
<g id="edge25" class="edge">
<title>44717&#45;&gt;44271</title>
<path fill="none" stroke="black" d="M3244.91,-451.56C3251.24,-451.13 3257.5,-450.76 3263.66,-450.43 3357.2,-445.56 3380.85,-445.87 3474.41,-450.43 3476.8,-450.55 3479.2,-450.68 3481.62,-450.81"/>
<polygon fill="black" stroke="black" points="3481.31,-454.29 3491.5,-451.38 3481.72,-447.31 3481.31,-454.29"/>
<text text-anchor="middle" x="3369.03" y="-453.63" font-family="Times,serif" font-size="14.00">UNSUPERVISED OUTSIDE PARTY</text>
</g>
<!-- 44717&#45;&gt;44271 -->
<g id="edge26" class="edge">
<title>44717&#45;&gt;44271</title>
<path fill="none" stroke="black" d="M3241.21,-429.39C3248.77,-428.26 3256.28,-427.26 3263.66,-426.43 3356.74,-416.02 3381.25,-416.66 3474.41,-426.43 3478.06,-426.82 3481.75,-427.24 3485.45,-427.69"/>
<polygon fill="black" stroke="black" points="3484.76,-431.13 3495.13,-428.95 3485.66,-424.19 3484.76,-431.13"/>
<text text-anchor="middle" x="3369.03" y="-429.63" font-family="Times,serif" font-size="14.00">OTHER</text>
</g>
<!-- 44402&#45;&gt;44198 -->
<g id="edge10" class="edge">
<title>44402&#45;&gt;44198</title>
<path fill="none" stroke="black" d="M5091.66,-387.66C5097.93,-388.15 5104.14,-388.58 5110.21,-388.93 5175.44,-392.71 5192.39,-397.05 5257.21,-388.93 5261.65,-388.38 5266.12,-387.77 5270.62,-387.1"/>
<polygon fill="black" stroke="black" points="5271.01,-390.58 5280.35,-385.58 5269.92,-383.67 5271.01,-390.58"/>
<text text-anchor="middle" x="5183.71" y="-396.73" font-family="Times,serif" font-size="14.00">POLICE ARREST</text>
</g>
<!-- 44402&#45;&gt;44198 -->
<g id="edge11" class="edge">
<title>44402&#45;&gt;44198</title>
<path fill="none" stroke="black" d="M5092.12,-361.14C5143.85,-357.39 5203.25,-353.03 5257.21,-348.93 5259.57,-348.76 5261.95,-348.58 5264.33,-348.39"/>
<polygon fill="black" stroke="black" points="5264.36,-351.9 5274.06,-347.65 5263.82,-344.92 5264.36,-351.9"/>
<text text-anchor="middle" x="5183.71" y="-362.56" font-family="Times,serif" font-size="14.00">PRISON STAFF ARREST</text>
</g>
<!-- 44402&#45;&gt;44198 -->
<g id="edge12" class="edge">
<title>44402&#45;&gt;44198</title>
<path fill="none" stroke="black" d="M5087.08,-332.25C5094.87,-330.75 5102.62,-329.46 5110.21,-328.43 5159.71,-321.77 5213.21,-319.32 5263.87,-319.16"/>
<polygon fill="black" stroke="black" points="5263.8,-322.66 5273.8,-319.16 5263.8,-315.66 5263.8,-322.66"/>
<text text-anchor="middle" x="5183.71" y="-331.63" font-family="Times,serif" font-size="14.00">SURRENDER</text>
</g>
<!-- 44402&#45;&gt;44198 -->
<g id="edge13" class="edge">
<title>44402&#45;&gt;44198</title>
<path fill="none" stroke="black" d="M5077.47,-307.93C5088.34,-304.12 5099.35,-300.85 5110.21,-298.43 5160.58,-287.23 5215.56,-286.02 5267.51,-289.72"/>
<polygon fill="black" stroke="black" points="5267.14,-293.2 5277.38,-290.49 5267.68,-286.22 5267.14,-293.2"/>
<text text-anchor="middle" x="5183.71" y="-301.63" font-family="Times,serif" font-size="14.00">OTHER</text>
</g>
<!-- 44416&#45;&gt;44615 -->
<g id="edge14" class="edge">
<title>44416&#45;&gt;44615</title>
<path fill="none" stroke="black" d="M6798.14,-334.93C6814.74,-334.93 6831.42,-334.93 6847.76,-334.93"/>
<polygon fill="black" stroke="black" points="6847.5,-338.43 6857.5,-334.93 6847.5,-331.43 6847.5,-338.43"/>
<text text-anchor="middle" x="6828.64" y="-338.13" font-family="Times,serif" font-size="14.00">YES</text>
</g>
<!-- 44416&#45;&gt;44615 -->
<g id="edge15" class="edge">
<title>44416&#45;&gt;44615</title>
<path fill="none" stroke="black" d="M6797.25,-313.53C6812.18,-313.35 6827.02,-313.6 6841.39,-314.43 6843.9,-314.58 6846.42,-314.74 6848.96,-314.9"/>
<polygon fill="black" stroke="black" points="6848.46,-318.38 6858.68,-315.59 6848.96,-311.39 6848.46,-318.38"/>
<text text-anchor="middle" x="6828.64" y="-317.63" font-family="Times,serif" font-size="14.00">NO</text>
</g>
<!-- 44467 -->
<g id="node14" class="node">
<title>44467</title>
<ellipse fill="none" stroke="black" cx="8462.45" cy="-327.93" rx="107.65" ry="107.65"/>
<text text-anchor="middle" x="8462.45" y="-322.88" font-family="Times,serif" font-size="14.00">Estimated cost of damage</text>
</g>
<!-- 44467&#45;&gt;END_NODE -->
<g id="edge16" class="edge">
<title>44467&#45;&gt;END_NODE</title>
<path fill="none" stroke="black" d="M8569.06,-345.09C8655.91,-359.21 8774.63,-378.5 8837.95,-388.78"/>
<polygon fill="black" stroke="black" points="8837.18,-392.21 8847.61,-390.35 8838.3,-385.3 8837.18,-392.21"/>
<text text-anchor="middle" x="8709.6" y="-390.71" font-family="Times,serif" font-size="14.00">ENTER AMOUNT IN POUND STERLING</text>
</g>
<!-- 44941&#45;&gt;44766 -->
<g id="edge49" class="edge">
<title>44941&#45;&gt;44766</title>
<path fill="none" stroke="black" d="M912.97,-494C929.87,-492.58 947.01,-491.13 964.06,-489.69"/>
<polygon fill="black" stroke="black" points="964.06,-493.2 973.73,-488.88 963.48,-486.23 964.06,-493.2"/>
<text text-anchor="middle" x="944.21" y="-495.33" font-family="Times,serif" font-size="14.00">YES</text>
</g>
<!-- 44941&#45;&gt;44766 -->
<g id="edge50" class="edge">
<title>44941&#45;&gt;44766</title>
<path fill="none" stroke="black" d="M910.07,-472.69C917.27,-471.84 924.42,-471.08 931.46,-470.43 941.85,-469.48 952.49,-468.71 963.25,-468.09"/>
<polygon fill="black" stroke="black" points="963.17,-471.6 972.98,-467.58 962.81,-464.61 963.17,-471.6"/>
<text text-anchor="middle" x="944.21" y="-473.63" font-family="Times,serif" font-size="14.00">NO</text>
</g>
<!-- 44609 -->
<g id="node17" class="node">
<title>44609</title>
<ellipse fill="none" stroke="black" cx="1663.42" cy="-470.93" rx="201.82" ry="201.82"/>
<text text-anchor="middle" x="1663.42" y="-465.88" font-family="Times,serif" font-size="14.00">Is the incident subject to a governor&#39;s adjudication?</text>
</g>
<!-- 44766&#45;&gt;44609 -->
<g id="edge27" class="edge">
<title>44766&#45;&gt;44609</title>
<path fill="none" stroke="black" d="M1400.53,-470.93C1416.95,-470.93 1433.53,-470.93 1449.95,-470.93"/>
<polygon fill="black" stroke="black" points="1449.78,-474.43 1459.78,-470.93 1449.78,-467.43 1449.78,-474.43"/>
<text text-anchor="middle" x="1430.85" y="-474.13" font-family="Times,serif" font-size="14.00">YES</text>
</g>
<!-- 44766&#45;&gt;44609 -->
<g id="edge28" class="edge">
<title>44766&#45;&gt;44609</title>
<path fill="none" stroke="black" d="M1399.33,-449.8C1414.31,-449.59 1429.18,-449.76 1443.6,-450.43 1445.98,-450.55 1448.38,-450.66 1450.79,-450.79"/>
<polygon fill="black" stroke="black" points="1450.45,-454.28 1460.63,-451.33 1450.84,-447.29 1450.45,-454.28"/>
<text text-anchor="middle" x="1430.85" y="-453.63" font-family="Times,serif" font-size="14.00">NO</text>
</g>
<!-- 45077 -->
<g id="node18" class="node">
<title>45077</title>
<ellipse fill="none" stroke="black" cx="2098.37" cy="-470.93" rx="171.63" ry="171.63"/>
<text text-anchor="middle" x="2098.37" y="-465.88" font-family="Times,serif" font-size="14.00">Is there any media interest in this incident?</text>
</g>
<!-- 44609&#45;&gt;45077 -->
<g id="edge19" class="edge">
<title>44609&#45;&gt;45077</title>
<path fill="none" stroke="black" d="M1865.69,-470.93C1882.2,-470.93 1898.82,-470.93 1915.18,-470.93"/>
<polygon fill="black" stroke="black" points="1914.94,-474.43 1924.94,-470.93 1914.94,-467.43 1914.94,-474.43"/>
<text text-anchor="middle" x="1896" y="-474.13" font-family="Times,serif" font-size="14.00">YES</text>
</g>
<!-- 44609&#45;&gt;45077 -->
<g id="edge20" class="edge">
<title>44609&#45;&gt;45077</title>
<path fill="none" stroke="black" d="M1864.36,-449.66C1879.37,-449.44 1894.3,-449.65 1908.75,-450.43 1911.25,-450.57 1913.78,-450.72 1916.31,-450.87"/>
<polygon fill="black" stroke="black" points="1915.81,-454.35 1926.02,-451.51 1916.27,-447.36 1915.81,-454.35"/>
<text text-anchor="middle" x="1896" y="-453.63" font-family="Times,serif" font-size="14.00">NO</text>
</g>
<!-- 45077&#45;&gt;44326 -->
<g id="edge53" class="edge">
<title>45077&#45;&gt;44326</title>
<path fill="none" stroke="black" d="M2270.3,-470.93C2286.52,-470.93 2303.1,-470.93 2319.65,-470.93"/>
<polygon fill="black" stroke="black" points="2319.57,-474.43 2329.57,-470.93 2319.57,-467.43 2319.57,-474.43"/>
<text text-anchor="middle" x="2300.75" y="-474.13" font-family="Times,serif" font-size="14.00">YES</text>
</g>
<!-- 45077&#45;&gt;44326 -->
<g id="edge54" class="edge">
<title>45077&#45;&gt;44326</title>
<path fill="none" stroke="black" d="M2269.22,-451.61C2275.56,-451.16 2281.83,-450.77 2288,-450.43 2298.83,-449.85 2309.92,-449.59 2321.12,-449.59"/>
<polygon fill="black" stroke="black" points="2320.8,-453.09 2330.83,-449.66 2320.86,-446.09 2320.8,-453.09"/>
<text text-anchor="middle" x="2300.75" y="-453.63" font-family="Times,serif" font-size="14.00">NO</text>
</g>
<!-- 44868&#45;&gt;44976 -->
<g id="edge46" class="edge">
<title>44868&#45;&gt;44976</title>
<path fill="none" stroke="black" d="M7419.52,-444.37C7448.78,-444.2 7481.47,-443.31 7511.3,-440.93 7514.33,-440.69 7517.37,-440.44 7520.44,-440.17"/>
<polygon fill="black" stroke="black" points="7520.45,-443.68 7530.08,-439.28 7519.8,-436.71 7520.45,-443.68"/>
<text text-anchor="middle" x="7474.17" y="-447.38" font-family="Times,serif" font-size="14.00">MINOR</text>
</g>
<!-- 44868&#45;&gt;44976 -->
<g id="edge47" class="edge">
<title>44868&#45;&gt;44976</title>
<path fill="none" stroke="black" d="M7417.3,-423.46C7423.96,-422.31 7430.6,-421.28 7437.05,-420.43 7463.21,-416.99 7490.62,-414.22 7517.99,-411.99"/>
<polygon fill="black" stroke="black" points="7518.09,-415.49 7527.79,-411.22 7517.54,-408.51 7518.09,-415.49"/>
<text text-anchor="middle" x="7474.17" y="-423.63" font-family="Times,serif" font-size="14.00">SERIOUS</text>
</g>
<!-- 44868&#45;&gt;44976 -->
<g id="edge48" class="edge">
<title>44868&#45;&gt;44976</title>
<path fill="none" stroke="black" d="M7408.9,-401.14C7418.18,-397.59 7427.69,-394.55 7437.05,-392.43 7463.25,-386.52 7490.93,-383.14 7518.65,-381.55"/>
<polygon fill="black" stroke="black" points="7518.77,-385.05 7528.59,-381.07 7518.44,-378.05 7518.77,-385.05"/>
<text text-anchor="middle" x="7474.17" y="-395.63" font-family="Times,serif" font-size="14.00">EXTENSIVE</text>
</g>
<!-- 44976&#45;&gt;END_NODE -->
<g id="edge52" class="edge">
<title>44976&#45;&gt;END_NODE</title>
<path fill="none" stroke="black" d="M8002.9,-434.45C8024.24,-436.6 8045.55,-438.49 8066.1,-439.93 8289.55,-455.69 8346.64,-460.69 8570.1,-444.93 8686.97,-436.69 8715.97,-429.63 8831.1,-407.93 8833.56,-407.47 8836.09,-406.97 8838.63,-406.44"/>
<polygon fill="black" stroke="black" points="8839.27,-409.88 8848.29,-404.32 8837.77,-403.04 8839.27,-409.88"/>
<text text-anchor="middle" x="8299.67" y="-457.67" font-family="Times,serif" font-size="14.00">NO</text>
</g>
<!-- 44800 -->
<g id="node21" class="node">
<title>44800</title>
<ellipse fill="none" stroke="black" cx="8155.32" cy="-341.93" rx="89.23" ry="89.23"/>
<text text-anchor="middle" x="8155.32" y="-336.88" font-family="Times,serif" font-size="14.00">Describe the damage</text>
</g>
<!-- 44976&#45;&gt;44800 -->
<g id="edge51" class="edge">
<title>44976&#45;&gt;44800</title>
<path fill="none" stroke="black" d="M8002.17,-365.96C8020.89,-363 8039.07,-360.13 8055.97,-357.46"/>
<polygon fill="black" stroke="black" points="8056.05,-360.99 8065.38,-355.98 8054.96,-354.08 8056.05,-360.99"/>
<text text-anchor="middle" x="8035.35" y="-364.87" font-family="Times,serif" font-size="14.00">YES</text>
</g>
<!-- 44800&#45;&gt;44467 -->
<g id="edge29" class="edge">
<title>44800&#45;&gt;44467</title>
<path fill="none" stroke="black" d="M8244.68,-349.99C8250.72,-350.37 8256.72,-350.69 8262.55,-350.93 8295.52,-352.33 8303.94,-353.94 8336.8,-350.93 8339.63,-350.68 8342.49,-350.38 8345.37,-350.07"/>
<polygon fill="black" stroke="black" points="8345.56,-353.57 8355.06,-348.88 8344.71,-346.62 8345.56,-353.57"/>
<text text-anchor="middle" x="8299.67" y="-355.84" font-family="Times,serif" font-size="14.00">MINOR</text>
</g>
<!-- 44800&#45;&gt;44467 -->
<g id="edge30" class="edge">
<title>44800&#45;&gt;44467</title>
<path fill="none" stroke="black" d="M8244.37,-331.75C8250.52,-331.24 8256.62,-330.79 8262.55,-330.43 8288.64,-328.86 8316.69,-328 8343.26,-327.57"/>
<polygon fill="black" stroke="black" points="8343.08,-331.07 8353.03,-327.43 8342.98,-324.07 8343.08,-331.07"/>
<text text-anchor="middle" x="8299.67" y="-333.63" font-family="Times,serif" font-size="14.00">SERIOUS</text>
</g>
<!-- 44800&#45;&gt;44467 -->
<g id="edge31" class="edge">
<title>44800&#45;&gt;44467</title>
<path fill="none" stroke="black" d="M8239.8,-312.14C8247.42,-310.24 8255.08,-308.62 8262.55,-307.43 8289.22,-303.21 8318.04,-303.45 8345.25,-305.82"/>
<polygon fill="black" stroke="black" points="8344.6,-309.28 8354.89,-306.77 8345.28,-302.31 8344.6,-309.28"/>
<text text-anchor="middle" x="8299.67" y="-310.63" font-family="Times,serif" font-size="14.00">EXTENSIVE</text>
</g>
</g>
</svg>
