<?xml version="1.0" encoding="UTF-8" standalone="no"?>
<!DOCTYPE svg PUBLIC "-//W3C//DTD SVG 1.1//EN"
 "http://www.w3.org/Graphics/SVG/1.1/DTD/svg11.dtd">
<!-- Generated by graphviz version 12.1.1 (20240910.0053)
 -->
<!-- Title: ABSCONDER Pages: 1 -->
<svg width="11241pt" height="990pt"
 viewBox="0.00 0.00 11241.25 989.89" xmlns="http://www.w3.org/2000/svg" xmlns:xlink="http://www.w3.org/1999/xlink">
<g id="graph0" class="graph" transform="scale(1 1) rotate(0) translate(4 985.89)">
<title>ABSCONDER</title>
<polygon fill="white" stroke="none" points="-4,4 -4,-985.89 11237.25,-985.89 11237.25,4 -4,4"/>
<!-- START_NODE -->
<g id="node1" class="node">
<title>START_NODE</title>
</g>
<!-- 44534 -->
<g id="node2" class="node">
<title>44534</title>
<ellipse fill="none" stroke="black" cx="337.08" cy="-412.37" rx="223.83" ry="223.83"/>
<text text-anchor="middle" x="337.08" y="-407.32" font-family="Times,serif" font-size="14.00">WERE THE POLICE INFORMED OF THE INCIDENT</text>
</g>
<!-- START_NODE&#45;&gt;44534 -->
<g id="edge1" class="edge">
<title>START_NODE&#45;&gt;44534</title>
<path fill="none" stroke="black" d="M53.74,-412.37C66.37,-412.37 82.91,-412.37 101.66,-412.37"/>
<polygon fill="black" stroke="black" points="101.43,-415.87 111.43,-412.37 101.43,-408.87 101.43,-415.87"/>
<text text-anchor="middle" x="83.62" y="-415.57" font-family="Times,serif" font-size="14.00">start</text>
</g>
<!-- 44941 -->
<g id="node15" class="node">
<title>44941</title>
<ellipse fill="none" stroke="black" cx="897.93" cy="-706.37" rx="275.52" ry="275.52"/>
<text text-anchor="middle" x="897.93" y="-701.32" font-family="Times,serif" font-size="14.00">IS THE INCIDENT THE SUBJECT OF A POLICE INVESTIGATION</text>
</g>
<!-- 44534&#45;&gt;44941 -->
<g id="edge17" class="edge">
<title>44534&#45;&gt;44941</title>
<path fill="none" stroke="black" d="M535.5,-516.23C570.39,-534.58 607.15,-553.92 643.32,-572.95"/>
<polygon fill="black" stroke="black" points="641.69,-576.05 652.17,-577.61 644.95,-569.85 641.69,-576.05"/>
<text text-anchor="middle" x="591.66" y="-553.76" font-family="Times,serif" font-size="14.00">YES</text>
</g>
<!-- 44766 -->
<g id="node16" class="node">
<title>44766</title>
<ellipse fill="none" stroke="black" cx="1531.47" cy="-666.37" rx="296.51" ry="296.51"/>
<text text-anchor="middle" x="1531.47" y="-661.32" font-family="Times,serif" font-size="14.00">IS THE INCIDENT THE SUBJECT OF AN INTERNAL INVESTIGATION</text>
</g>
<!-- 44534&#45;&gt;44766 -->
<g id="edge18" class="edge">
<title>44534&#45;&gt;44766</title>
<path fill="none" stroke="black" d="M557.65,-372.83C729.62,-350.7 972.54,-339.16 1173.46,-404.87 1216.56,-418.97 1258.76,-440.46 1298.18,-465.19"/>
<polygon fill="black" stroke="black" points="1296.02,-467.97 1306.33,-470.39 1299.78,-462.06 1296.02,-467.97"/>
<text text-anchor="middle" x="897.93" y="-408.07" font-family="Times,serif" font-size="14.00">NO</text>
</g>
<!-- END_NODE -->
<g id="node3" class="node">
<title>END_NODE</title>
<ellipse fill="none" stroke="black" cx="11199.4" cy="-490.37" rx="29.86" ry="29.86"/>
<ellipse fill="none" stroke="black" cx="11199.4" cy="-490.37" rx="33.86" ry="33.86"/>
<text text-anchor="middle" x="11199.4" y="-485.32" font-family="Times,serif" font-size="14.00">END</text>
</g>
<!-- 44198 -->
<g id="node4" class="node">
<title>44198</title>
<ellipse fill="none" stroke="black" cx="6967.42" cy="-416.37" rx="291.9" ry="291.9"/>
<text text-anchor="middle" x="6967.42" y="-411.32" font-family="Times,serif" font-size="14.00">HAS THE PRISONER BEEN CHARGED WITH A FURTHER OFFENCE</text>
</g>
<!-- 44854 -->
<g id="node5" class="node">
<title>44854</title>
<ellipse fill="none" stroke="black" cx="7589.69" cy="-433.37" rx="268.87" ry="268.87"/>
<text text-anchor="middle" x="7589.69" y="-428.32" font-family="Times,serif" font-size="14.00">WITH WHAT OFFENCE HAS THE PRISONER BEEN CHARGED</text>
</g>
<!-- 44198&#45;&gt;44854 -->
<g id="edge2" class="edge">
<title>44198&#45;&gt;44854</title>
<path fill="none" stroke="black" d="M7259.49,-424.35C7276.11,-424.8 7292.81,-425.26 7309.39,-425.72"/>
<polygon fill="black" stroke="black" points="7309.24,-429.21 7319.33,-425.99 7309.43,-422.22 7309.24,-429.21"/>
<text text-anchor="middle" x="7290.07" y="-428.58" font-family="Times,serif" font-size="14.00">YES</text>
</g>
<!-- 44615 -->
<g id="node6" class="node">
<title>44615</title>
<ellipse fill="none" stroke="black" cx="8917.03" cy="-436.37" rx="213.08" ry="213.08"/>
<text text-anchor="middle" x="8917.03" y="-431.32" font-family="Times,serif" font-size="14.00">WAS DAMAGE CAUSED TO PRISON PROPERTY</text>
</g>
<!-- 44198&#45;&gt;44615 -->
<g id="edge3" class="edge">
<title>44198&#45;&gt;44615</title>
<path fill="none" stroke="black" d="M7186.21,-222.88C7228.33,-195.15 7274.01,-170.82 7320.82,-155.37 7878.63,28.7 8101.29,73.04 8642.45,-155.37 8695.08,-177.59 8742.6,-215.43 8782.71,-256.26"/>
<polygon fill="black" stroke="black" points="8780.11,-258.61 8789.58,-263.38 8785.15,-253.75 8780.11,-258.61"/>
<text text-anchor="middle" x="7978.56" y="-12.13" font-family="Times,serif" font-size="14.00">NO</text>
</g>
<!-- 44416 -->
<g id="node13" class="node">
<title>44416</title>
<ellipse fill="none" stroke="black" cx="8370.5" cy="-436.37" rx="271.94" ry="271.94"/>
<text text-anchor="middle" x="8370.5" y="-431.32" font-family="Times,serif" font-size="14.00">HAS ANY PROSECUTION TAKEN PLACE OR IS ANY PENDING</text>
</g>
<!-- 44854&#45;&gt;44416 -->
<g id="edge32" class="edge">
<title>44854&#45;&gt;44416</title>
<path fill="none" stroke="black" d="M7801.08,-599.93C7825.5,-613.05 7850.89,-624.31 7876.56,-632.37 7963.07,-659.52 7993.89,-658.99 8080.56,-632.37 8101.98,-625.79 8123.23,-617.03 8143.92,-606.85"/>
<polygon fill="black" stroke="black" points="8145.33,-610.06 8152.68,-602.43 8142.17,-603.81 8145.33,-610.06"/>
<text text-anchor="middle" x="7978.56" y="-655.73" font-family="Times,serif" font-size="14.00">MURDER/ATTEMPTED MURDER</text>
</g>
<!-- 44854&#45;&gt;44416 -->
<g id="edge33" class="edge">
<title>44854&#45;&gt;44416</title>
<path fill="none" stroke="black" d="M7819.39,-573.27C7838.28,-580.88 7857.46,-587.42 7876.56,-592.37 7964.33,-615.14 7992.66,-614.59 8080.56,-592.37 8095.61,-588.57 8110.72,-583.81 8125.71,-578.35"/>
<polygon fill="black" stroke="black" points="8126.53,-581.78 8134.66,-574.99 8124.06,-575.23 8126.53,-581.78"/>
<text text-anchor="middle" x="7978.56" y="-612.44" font-family="Times,serif" font-size="14.00">MANSLAUGHTER</text>
</g>
<!-- 44854&#45;&gt;44416 -->
<g id="edge34" class="edge">
<title>44854&#45;&gt;44416</title>
<path fill="none" stroke="black" d="M7835.93,-542.53C7849.52,-546.35 7863.12,-549.69 7876.56,-552.37 7965.47,-570.14 7991.54,-569.57 8080.56,-552.37 8089.91,-550.57 8099.34,-548.46 8108.79,-546.1"/>
<polygon fill="black" stroke="black" points="8109.63,-549.5 8118.43,-543.6 8107.87,-542.72 8109.63,-549.5"/>
<text text-anchor="middle" x="7978.56" y="-568.68" font-family="Times,serif" font-size="14.00">ASSAULT</text>
</g>
<!-- 44854&#45;&gt;44416 -->
<g id="edge35" class="edge">
<title>44854&#45;&gt;44416</title>
<path fill="none" stroke="black" d="M7848.32,-507.96C7857.82,-509.62 7867.25,-511.11 7876.56,-512.37 7966.41,-524.56 7990.65,-524 8080.56,-512.37 8085.91,-511.68 8091.3,-510.92 8096.71,-510.1"/>
<polygon fill="black" stroke="black" points="8097.05,-513.59 8106.38,-508.56 8095.95,-506.67 8097.05,-513.59"/>
<text text-anchor="middle" x="7978.56" y="-524.5" font-family="Times,serif" font-size="14.00">RAPE/ATTEMPTED RAPE</text>
</g>
<!-- 44854&#45;&gt;44416 -->
<g id="edge36" class="edge">
<title>44854&#45;&gt;44416</title>
<path fill="none" stroke="black" d="M7856.1,-470.82C7862.99,-471.4 7869.82,-471.91 7876.56,-472.37 7967.02,-478.51 7990.07,-477.99 8080.56,-472.37 8083.43,-472.19 8086.32,-472.01 8089.22,-471.81"/>
<polygon fill="black" stroke="black" points="8089.22,-475.32 8098.94,-471.11 8088.72,-468.33 8089.22,-475.32"/>
<text text-anchor="middle" x="7978.56" y="-479.98" font-family="Times,serif" font-size="14.00">OTHER SEXUAL OFFENCE</text>
</g>
<!-- 44854&#45;&gt;44416 -->
<g id="edge37" class="edge">
<title>44854&#45;&gt;44416</title>
<path fill="none" stroke="black" d="M7858.99,-434.4C7932.53,-434.69 8012.47,-435 8086.79,-435.28"/>
<polygon fill="black" stroke="black" points="8086.67,-438.78 8096.68,-435.32 8086.69,-431.78 8086.67,-438.78"/>
<text text-anchor="middle" x="7978.56" y="-438.43" font-family="Times,serif" font-size="14.00">THEFT</text>
</g>
<!-- 44854&#45;&gt;44416 -->
<g id="edge38" class="edge">
<title>44854&#45;&gt;44416</title>
<path fill="none" stroke="black" d="M7858.1,-414.57C7864.31,-414.31 7870.47,-414.08 7876.56,-413.87 7967.18,-410.78 7989.97,-410.35 8080.56,-413.87 8082.97,-413.97 8085.39,-414.06 8087.81,-414.16"/>
<polygon fill="black" stroke="black" points="8087.58,-417.66 8097.72,-414.61 8087.89,-410.66 8087.58,-417.66"/>
<text text-anchor="middle" x="7978.56" y="-417.07" font-family="Times,serif" font-size="14.00">ROBBERY</text>
</g>
<!-- 44854&#45;&gt;44416 -->
<g id="edge39" class="edge">
<title>44854&#45;&gt;44416</title>
<path fill="none" stroke="black" d="M7855.7,-392.59C7862.72,-391.96 7869.68,-391.38 7876.56,-390.87 7966.98,-384.19 7990.17,-383.8 8080.56,-390.87 8083.83,-391.13 8087.11,-391.4 8090.41,-391.68"/>
<polygon fill="black" stroke="black" points="8089.89,-395.15 8100.17,-392.58 8090.53,-388.18 8089.89,-395.15"/>
<text text-anchor="middle" x="7978.56" y="-394.07" font-family="Times,serif" font-size="14.00">FIREARM OFFENCE</text>
</g>
<!-- 44854&#45;&gt;44416 -->
<g id="edge40" class="edge">
<title>44854&#45;&gt;44416</title>
<path fill="none" stroke="black" d="M7850.81,-368.34C7859.47,-367.04 7868.07,-365.87 7876.56,-364.87 7966.6,-354.23 7990.56,-353.9 8080.56,-364.87 8085.61,-365.49 8090.69,-366.16 8095.79,-366.88"/>
<polygon fill="black" stroke="black" points="8095.12,-370.32 8105.52,-368.33 8096.15,-363.4 8095.12,-370.32"/>
<text text-anchor="middle" x="7978.56" y="-368.07" font-family="Times,serif" font-size="14.00">DRUG OFFENCE</text>
</g>
<!-- 44854&#45;&gt;44416 -->
<g id="edge41" class="edge">
<title>44854&#45;&gt;44416</title>
<path fill="none" stroke="black" d="M7842.86,-342.46C7854.17,-339.94 7865.44,-337.72 7876.56,-335.87 7966.01,-321.04 7991.16,-320.77 8080.56,-335.87 8088.31,-337.18 8096.12,-338.67 8103.96,-340.32"/>
<polygon fill="black" stroke="black" points="8103.08,-343.71 8113.6,-342.43 8104.58,-336.87 8103.08,-343.71"/>
<text text-anchor="middle" x="7978.56" y="-339.07" font-family="Times,serif" font-size="14.00">VEHICLE CRIME</text>
</g>
<!-- 44854&#45;&gt;44416 -->
<g id="edge42" class="edge">
<title>44854&#45;&gt;44416</title>
<path fill="none" stroke="black" d="M7831.97,-315.72C7846.85,-311.08 7861.78,-307.06 7876.56,-303.87 7965.19,-284.73 7991.98,-284.53 8080.56,-303.87 8092.12,-306.4 8103.77,-309.43 8115.41,-312.86"/>
<polygon fill="black" stroke="black" points="8114.07,-316.11 8124.65,-315.68 8116.11,-309.41 8114.07,-316.11"/>
<text text-anchor="middle" x="7978.56" y="-307.07" font-family="Times,serif" font-size="14.00">PUBLIC ORDER OFFENCE</text>
</g>
<!-- 44854&#45;&gt;44416 -->
<g id="edge43" class="edge">
<title>44854&#45;&gt;44416</title>
<path fill="none" stroke="black" d="M7817.07,-289.5C7836.68,-281.27 7856.65,-274.19 7876.56,-268.87 7964.16,-245.47 7993.01,-245.33 8080.56,-268.87 8097.37,-273.39 8114.21,-279.15 8130.85,-285.81"/>
<polygon fill="black" stroke="black" points="8129.19,-288.91 8139.77,-289.48 8131.86,-282.44 8129.19,-288.91"/>
<text text-anchor="middle" x="7978.56" y="-272.07" font-family="Times,serif" font-size="14.00">OTHER</text>
</g>
<!-- 44868 -->
<g id="node19" class="node">
<title>44868</title>
<ellipse fill="none" stroke="black" cx="9310.52" cy="-573.37" rx="118.91" ry="118.91"/>
<text text-anchor="middle" x="9310.52" y="-568.32" font-family="Times,serif" font-size="14.00">DESCRIBE THE DAMAGE</text>
</g>
<!-- 44615&#45;&gt;44868 -->
<g id="edge21" class="edge">
<title>44615&#45;&gt;44868</title>
<path fill="none" stroke="black" d="M9118.65,-506.58C9142.07,-514.77 9165.39,-522.93 9187.28,-530.59"/>
<polygon fill="black" stroke="black" points="9185.88,-533.81 9196.48,-533.81 9188.2,-527.21 9185.88,-533.81"/>
<text text-anchor="middle" x="9160.86" y="-528.35" font-family="Times,serif" font-size="14.00">YES</text>
</g>
<!-- 44976 -->
<g id="node20" class="node">
<title>44976</title>
<ellipse fill="none" stroke="black" cx="9862.29" cy="-533.37" rx="322.61" ry="322.61"/>
<text text-anchor="middle" x="9862.29" y="-528.32" font-family="Times,serif" font-size="14.00">WAS ANY DAMAGE CAUSED TO PRIVATE PROPERTY DURING ABSCOND</text>
</g>
<!-- 44615&#45;&gt;44976 -->
<g id="edge22" class="edge">
<title>44615&#45;&gt;44976</title>
<path fill="none" stroke="black" d="M9130.47,-429.98C9151.13,-429.53 9171.78,-429.14 9191.61,-428.87 9297.3,-427.42 9324.48,-416.35 9429.43,-428.87 9465.42,-433.16 9502.75,-439.4 9539.71,-446.72"/>
<polygon fill="black" stroke="black" points="9538.66,-450.08 9549.16,-448.63 9540.05,-443.22 9538.66,-450.08"/>
<text text-anchor="middle" x="9310.52" y="-432.07" font-family="Times,serif" font-size="14.00">NO</text>
</g>
<!-- 44271 -->
<g id="node7" class="node">
<title>44271</title>
<ellipse fill="none" stroke="black" cx="4703.01" cy="-666.37" rx="254.54" ry="254.54"/>
<text text-anchor="middle" x="4703.01" y="-661.32" font-family="Times,serif" font-size="14.00">WAS ANY FORM OF DECEPTION USED IN THE ABSCOND</text>
</g>
<!-- 44284 -->
<g id="node8" class="node">
<title>44284</title>
<ellipse fill="none" stroke="black" cx="5296.62" cy="-666.37" rx="277.57" ry="277.57"/>
<text text-anchor="middle" x="5296.62" y="-661.32" font-family="Times,serif" font-size="14.00">WAS THE ABSCOND IN THE COMPANY OF OTHER PRISONERS</text>
</g>
<!-- 44271&#45;&gt;44284 -->
<g id="edge4" class="edge">
<title>44271&#45;&gt;44284</title>
<path fill="none" stroke="black" d="M4957.91,-666.37C4974.33,-666.37 4990.93,-666.37 5007.5,-666.37"/>
<polygon fill="black" stroke="black" points="5007.45,-669.87 5017.45,-666.37 5007.45,-662.87 5007.45,-669.87"/>
<text text-anchor="middle" x="4988.29" y="-669.57" font-family="Times,serif" font-size="14.00">YES</text>
</g>
<!-- 44271&#45;&gt;44284 -->
<g id="edge5" class="edge">
<title>44271&#45;&gt;44284</title>
<path fill="none" stroke="black" d="M4957.28,-646.63C4963.42,-646.35 4969.52,-646.1 4975.54,-645.87 4986.18,-645.47 4997.01,-645.24 5007.95,-645.17"/>
<polygon fill="black" stroke="black" points="5007.87,-648.67 5017.87,-645.14 5007.86,-641.67 5007.87,-648.67"/>
<text text-anchor="middle" x="4988.29" y="-649.07" font-family="Times,serif" font-size="14.00">NO</text>
</g>
<!-- 44861 -->
<g id="node9" class="node">
<title>44861</title>
<ellipse fill="none" stroke="black" cx="5801.68" cy="-666.37" rx="166" ry="166"/>
<text text-anchor="middle" x="5801.68" y="-661.32" font-family="Times,serif" font-size="14.00">HAS PRISONER BEEN RECAPTURED</text>
</g>
<!-- 44284&#45;&gt;44861 -->
<g id="edge6" class="edge">
<title>44284&#45;&gt;44861</title>
<path fill="none" stroke="black" d="M5574.53,-666.37C5591.3,-666.37 5607.92,-666.37 5624.08,-666.37"/>
<polygon fill="black" stroke="black" points="5623.68,-669.87 5633.68,-666.37 5623.68,-662.87 5623.68,-669.87"/>
<text text-anchor="middle" x="5604.94" y="-669.57" font-family="Times,serif" font-size="14.00">YES</text>
</g>
<!-- 44284&#45;&gt;44861 -->
<g id="edge7" class="edge">
<title>44284&#45;&gt;44861</title>
<path fill="none" stroke="black" d="M5573.45,-644.51C5588.41,-644.63 5603.23,-645.06 5617.69,-645.87 5620.21,-646.01 5622.76,-646.16 5625.32,-646.33"/>
<polygon fill="black" stroke="black" points="5624.92,-649.81 5635.14,-647 5625.4,-642.82 5624.92,-649.81"/>
<text text-anchor="middle" x="5604.94" y="-649.07" font-family="Times,serif" font-size="14.00">NO</text>
</g>
<!-- 44861&#45;&gt;44615 -->
<g id="edge45" class="edge">
<title>44861&#45;&gt;44615</title>
<path fill="none" stroke="black" d="M5964.6,-700.4C6063.14,-718.22 6191.83,-736.37 6307.1,-736.37 6307.1,-736.37 6307.1,-736.37 8371.5,-736.37 8492.22,-736.37 8532.94,-768.17 8642.45,-717.37 8693.83,-693.53 8740.72,-655.5 8780.6,-615.03"/>
<polygon fill="black" stroke="black" points="8782.98,-617.61 8787.43,-607.99 8777.95,-612.73 8782.98,-617.61"/>
<text text-anchor="middle" x="7290.07" y="-739.57" font-family="Times,serif" font-size="14.00">NO</text>
</g>
<!-- 44402 -->
<g id="node12" class="node">
<title>44402</title>
<ellipse fill="none" stroke="black" cx="6308.1" cy="-456.37" rx="184.42" ry="184.42"/>
<text text-anchor="middle" x="6308.1" y="-451.32" font-family="Times,serif" font-size="14.00">HOW WAS THE PRISONER RECAPTURED</text>
</g>
<!-- 44861&#45;&gt;44402 -->
<g id="edge44" class="edge">
<title>44861&#45;&gt;44402</title>
<path fill="none" stroke="black" d="M5955.39,-602.79C6009.44,-580.29 6070.75,-554.77 6126.87,-531.4"/>
<polygon fill="black" stroke="black" points="6128,-534.72 6135.89,-527.65 6125.31,-528.26 6128,-534.72"/>
<text text-anchor="middle" x="6045.68" y="-589.56" font-family="Times,serif" font-size="14.00">YES (ENTER DATE)</text>
</g>
<!-- 44326 -->
<g id="node10" class="node">
<title>44326</title>
<ellipse fill="none" stroke="black" cx="3297.96" cy="-666.37" rx="267.33" ry="267.33"/>
<text text-anchor="middle" x="3297.96" y="-661.32" font-family="Times,serif" font-size="14.00">HAS THE PRISON SERVICE PRESS OFFICE BEEN INFORMED</text>
</g>
<!-- 44717 -->
<g id="node11" class="node">
<title>44717</title>
<ellipse fill="none" stroke="black" cx="3961.51" cy="-666.37" rx="240.21" ry="240.21"/>
<text text-anchor="middle" x="3961.51" y="-661.32" font-family="Times,serif" font-size="14.00">FROM WHICH AREA DID THE ABSCOND TAKE PLACE</text>
</g>
<!-- 44326&#45;&gt;44717 -->
<g id="edge8" class="edge">
<title>44326&#45;&gt;44717</title>
<path fill="none" stroke="black" d="M3565.66,-666.37C3613.16,-666.37 3662.49,-666.37 3709.54,-666.37"/>
<polygon fill="black" stroke="black" points="3709.3,-669.87 3719.3,-666.37 3709.3,-662.87 3709.3,-669.87"/>
<text text-anchor="middle" x="3643.3" y="-669.57" font-family="Times,serif" font-size="14.00">YES (ENTER DATE)</text>
</g>
<!-- 44326&#45;&gt;44717 -->
<g id="edge9" class="edge">
<title>44326&#45;&gt;44717</title>
<path fill="none" stroke="black" d="M3564.81,-646.04C3610.98,-644.47 3658.53,-644.09 3703.3,-645.87 3705.66,-645.97 3708.03,-646.06 3710.41,-646.17"/>
<polygon fill="black" stroke="black" points="3709.97,-649.65 3720.12,-646.61 3710.3,-642.66 3709.97,-649.65"/>
<text text-anchor="middle" x="3643.3" y="-649.07" font-family="Times,serif" font-size="14.00">NO</text>
</g>
<!-- 44717&#45;&gt;44271 -->
<g id="edge23" class="edge">
<title>44717&#45;&gt;44271</title>
<path fill="none" stroke="black" d="M4199.22,-702.68C4206.12,-703.31 4212.96,-703.88 4219.72,-704.37 4313.13,-711.23 4337.03,-710.88 4430.47,-704.37 4433.37,-704.17 4436.3,-703.95 4439.24,-703.73"/>
<polygon fill="black" stroke="black" points="4439.44,-707.22 4449.13,-702.92 4438.88,-700.25 4439.44,-707.22"/>
<text text-anchor="middle" x="4325.09" y="-712.59" font-family="Times,serif" font-size="14.00">FROM ESTABLISHMENT</text>
</g>
<!-- 44717&#45;&gt;44271 -->
<g id="edge24" class="edge">
<title>44717&#45;&gt;44271</title>
<path fill="none" stroke="black" d="M4202.09,-666.37C4277.08,-666.37 4360.26,-666.37 4436.9,-666.37"/>
<polygon fill="black" stroke="black" points="4436.64,-669.87 4446.64,-666.37 4436.64,-662.87 4436.64,-669.87"/>
<text text-anchor="middle" x="4325.09" y="-669.57" font-family="Times,serif" font-size="14.00">SUPERVISED OUTSIDE PARTY</text>
</g>
<!-- 44717&#45;&gt;44271 -->
<g id="edge25" class="edge">
<title>44717&#45;&gt;44271</title>
<path fill="none" stroke="black" d="M4201.38,-646.68C4207.55,-646.38 4213.67,-646.11 4219.72,-645.87 4313.31,-642.15 4336.87,-642.34 4430.47,-645.87 4432.73,-645.96 4434.99,-646.05 4437.27,-646.14"/>
<polygon fill="black" stroke="black" points="4437.08,-649.63 4447.22,-646.57 4437.38,-642.64 4437.08,-649.63"/>
<text text-anchor="middle" x="4325.09" y="-649.07" font-family="Times,serif" font-size="14.00">UNSUPERVISED OUTSIDE PARTY</text>
</g>
<!-- 44717&#45;&gt;44271 -->
<g id="edge26" class="edge">
<title>44717&#45;&gt;44271</title>
<path fill="none" stroke="black" d="M4198.48,-624.89C4205.63,-624.13 4212.72,-623.46 4219.72,-622.87 4313.05,-615.03 4337.09,-615.44 4430.47,-622.87 4433.7,-623.13 4436.96,-623.4 4440.23,-623.69"/>
<polygon fill="black" stroke="black" points="4439.62,-627.15 4449.9,-624.6 4440.27,-620.18 4439.62,-627.15"/>
<text text-anchor="middle" x="4325.09" y="-626.07" font-family="Times,serif" font-size="14.00">OTHER</text>
</g>
<!-- 44402&#45;&gt;44198 -->
<g id="edge10" class="edge">
<title>44402&#45;&gt;44198</title>
<path fill="none" stroke="black" d="M6492.11,-473.43C6498.32,-473.79 6504.47,-474.1 6510.52,-474.37 6575.79,-477.28 6592.47,-480.43 6657.52,-474.37 6661.44,-474.01 6665.39,-473.62 6669.36,-473.2"/>
<polygon fill="black" stroke="black" points="6669.52,-476.7 6679.08,-472.14 6668.76,-469.75 6669.52,-476.7"/>
<text text-anchor="middle" x="6584.02" y="-481.03" font-family="Times,serif" font-size="14.00">POLICE ARREST</text>
</g>
<!-- 44402&#45;&gt;44198 -->
<g id="edge11" class="edge">
<title>44402&#45;&gt;44198</title>
<path fill="none" stroke="black" d="M6492.64,-445.2C6545.99,-441.96 6605.72,-438.32 6664.31,-434.76"/>
<polygon fill="black" stroke="black" points="6664.35,-438.26 6674.12,-434.16 6663.92,-431.27 6664.35,-438.26"/>
<text text-anchor="middle" x="6584.02" y="-447.2" font-family="Times,serif" font-size="14.00">PRISON STAFF ARREST</text>
</g>
<!-- 44402&#45;&gt;44198 -->
<g id="edge12" class="edge">
<title>44402&#45;&gt;44198</title>
<path fill="none" stroke="black" d="M6488.64,-417.47C6496.01,-416.48 6503.33,-415.6 6510.52,-414.87 6560.04,-409.82 6612.74,-407.35 6664.07,-406.48"/>
<polygon fill="black" stroke="black" points="6663.88,-409.98 6673.83,-406.34 6663.78,-402.98 6663.88,-409.98"/>
<text text-anchor="middle" x="6584.02" y="-418.07" font-family="Times,serif" font-size="14.00">SURRENDER</text>
</g>
<!-- 44402&#45;&gt;44198 -->
<g id="edge13" class="edge">
<title>44402&#45;&gt;44198</title>
<path fill="none" stroke="black" d="M6481.16,-391.95C6491.01,-389.58 6500.84,-387.52 6510.52,-385.87 6560.61,-377.36 6614.18,-375.01 6666.34,-376.29"/>
<polygon fill="black" stroke="black" points="6666.19,-379.78 6676.29,-376.58 6666.39,-372.79 6666.19,-379.78"/>
<text text-anchor="middle" x="6584.02" y="-389.07" font-family="Times,serif" font-size="14.00">OTHER</text>
</g>
<!-- 44416&#45;&gt;44615 -->
<g id="edge14" class="edge">
<title>44416&#45;&gt;44615</title>
<path fill="none" stroke="black" d="M8642.57,-436.37C8659.25,-436.37 8675.94,-436.37 8692.39,-436.37"/>
<polygon fill="black" stroke="black" points="8692.21,-439.87 8702.21,-436.37 8692.21,-432.87 8692.21,-439.87"/>
<text text-anchor="middle" x="8673.2" y="-439.57" font-family="Times,serif" font-size="14.00">YES</text>
</g>
<!-- 44416&#45;&gt;44615 -->
<g id="edge15" class="edge">
<title>44416&#45;&gt;44615</title>
<path fill="none" stroke="black" d="M8642.04,-414.93C8656.89,-414.94 8671.6,-415.23 8685.95,-415.87 8688.33,-415.98 8690.73,-416.09 8693.14,-416.21"/>
<polygon fill="black" stroke="black" points="8692.83,-419.7 8703,-416.72 8693.19,-412.71 8692.83,-419.7"/>
<text text-anchor="middle" x="8673.2" y="-419.07" font-family="Times,serif" font-size="14.00">NO</text>
</g>
<!-- 44467 -->
<g id="node14" class="node">
<title>44467</title>
<ellipse fill="none" stroke="black" cx="10740.51" cy="-403.37" rx="146.04" ry="146.04"/>
<text text-anchor="middle" x="10740.51" y="-398.32" font-family="Times,serif" font-size="14.00">ESTIMATED COST OF DAMAGE</text>
</g>
<!-- 44467&#45;&gt;END_NODE -->
<g id="edge16" class="edge">
<title>44467&#45;&gt;END_NODE</title>
<path fill="none" stroke="black" d="M10884.19,-430.54C10977.42,-448.29 11092.93,-470.29 11154.65,-482.04"/>
<polygon fill="black" stroke="black" points="11153.93,-485.47 11164.41,-483.9 11155.24,-478.59 11153.93,-485.47"/>
<text text-anchor="middle" x="11026.04" y="-482.79" font-family="Times,serif" font-size="14.00">ENTER AMOUNT IN POUND STERLING</text>
</g>
<!-- 44941&#45;&gt;44766 -->
<g id="edge49" class="edge">
<title>44941&#45;&gt;44766</title>
<path fill="none" stroke="black" d="M1173.18,-689C1190.04,-687.93 1207.06,-686.86 1224.05,-685.78"/>
<polygon fill="black" stroke="black" points="1223.93,-689.29 1233.69,-685.17 1223.49,-682.31 1223.93,-689.29"/>
<text text-anchor="middle" x="1204.21" y="-690.77" font-family="Times,serif" font-size="14.00">YES</text>
</g>
<!-- 44941&#45;&gt;44766 -->
<g id="edge50" class="edge">
<title>44941&#45;&gt;44766</title>
<path fill="none" stroke="black" d="M1170.91,-667.45C1177.82,-666.87 1184.68,-666.34 1191.46,-665.87 1201.92,-665.15 1212.56,-664.53 1223.32,-664.01"/>
<polygon fill="black" stroke="black" points="1223.22,-667.52 1233.05,-663.56 1222.9,-660.52 1223.22,-667.52"/>
<text text-anchor="middle" x="1204.21" y="-669.07" font-family="Times,serif" font-size="14.00">NO</text>
</g>
<!-- 44609 -->
<g id="node17" class="node">
<title>44609</title>
<ellipse fill="none" stroke="black" cx="2167.04" cy="-666.37" rx="277.57" ry="277.57"/>
<text text-anchor="middle" x="2167.04" y="-661.32" font-family="Times,serif" font-size="14.00">IS THE INCIDENT SUBJECT TO A GOVERNOR&#39;S ADJUDICATION</text>
</g>
<!-- 44766&#45;&gt;44609 -->
<g id="edge27" class="edge">
<title>44766&#45;&gt;44609</title>
<path fill="none" stroke="black" d="M1828.39,-666.37C1844.89,-666.37 1861.46,-666.37 1877.93,-666.37"/>
<polygon fill="black" stroke="black" points="1877.8,-669.87 1887.8,-666.37 1877.8,-662.87 1877.8,-669.87"/>
<text text-anchor="middle" x="1858.72" y="-669.57" font-family="Times,serif" font-size="14.00">YES</text>
</g>
<!-- 44766&#45;&gt;44609 -->
<g id="edge28" class="edge">
<title>44766&#45;&gt;44609</title>
<path fill="none" stroke="black" d="M1827.33,-645.17C1842.26,-645.15 1857.04,-645.37 1871.47,-645.87 1873.73,-645.95 1876,-646.03 1878.27,-646.12"/>
<polygon fill="black" stroke="black" points="1878.08,-649.61 1888.21,-646.51 1878.35,-642.62 1878.08,-649.61"/>
<text text-anchor="middle" x="1858.72" y="-649.07" font-family="Times,serif" font-size="14.00">NO</text>
</g>
<!-- 45077 -->
<g id="node18" class="node">
<title>45077</title>
<ellipse fill="none" stroke="black" cx="2737.62" cy="-666.37" rx="231.51" ry="231.51"/>
<text text-anchor="middle" x="2737.62" y="-661.32" font-family="Times,serif" font-size="14.00">IS THERE ANY MEDIA INTEREST IN THIS INCIDENT</text>
</g>
<!-- 44609&#45;&gt;45077 -->
<g id="edge19" class="edge">
<title>44609&#45;&gt;45077</title>
<path fill="none" stroke="black" d="M2444.84,-666.37C2461.47,-666.37 2478.14,-666.37 2494.62,-666.37"/>
<polygon fill="black" stroke="black" points="2494.48,-669.87 2504.48,-666.37 2494.48,-662.87 2494.48,-669.87"/>
<text text-anchor="middle" x="2475.36" y="-669.57" font-family="Times,serif" font-size="14.00">YES</text>
</g>
<!-- 44609&#45;&gt;45077 -->
<g id="edge20" class="edge">
<title>44609&#45;&gt;45077</title>
<path fill="none" stroke="black" d="M2444.28,-645.02C2459.11,-645.02 2473.79,-645.28 2488.11,-645.87 2490.48,-645.97 2492.86,-646.07 2495.25,-646.18"/>
<polygon fill="black" stroke="black" points="2494.83,-649.66 2504.98,-646.64 2495.16,-642.67 2494.83,-649.66"/>
<text text-anchor="middle" x="2475.36" y="-649.07" font-family="Times,serif" font-size="14.00">NO</text>
</g>
<!-- 45077&#45;&gt;44326 -->
<g id="edge53" class="edge">
<title>45077&#45;&gt;44326</title>
<path fill="none" stroke="black" d="M2969.35,-666.37C2985.69,-666.37 3002.26,-666.37 3018.83,-666.37"/>
<polygon fill="black" stroke="black" points="3018.78,-669.87 3028.78,-666.37 3018.78,-662.87 3018.78,-669.87"/>
<text text-anchor="middle" x="2999.88" y="-669.57" font-family="Times,serif" font-size="14.00">YES</text>
</g>
<!-- 45077&#45;&gt;44326 -->
<g id="edge54" class="edge">
<title>45077&#45;&gt;44326</title>
<path fill="none" stroke="black" d="M2968.75,-646.72C2974.94,-646.4 2981.07,-646.12 2987.13,-645.87 2997.82,-645.43 3008.72,-645.18 3019.73,-645.1"/>
<polygon fill="black" stroke="black" points="3019.73,-648.6 3029.72,-645.07 3019.71,-641.6 3019.73,-648.6"/>
<text text-anchor="middle" x="2999.88" y="-649.07" font-family="Times,serif" font-size="14.00">NO</text>
</g>
<!-- 44868&#45;&gt;44976 -->
<g id="edge46" class="edge">
<title>44868&#45;&gt;44976</title>
<path fill="none" stroke="black" d="M9429.69,-574.36C9459.72,-574.03 9491.91,-573.17 9521.68,-571.37 9524.43,-571.21 9527.19,-571.03 9529.96,-570.85"/>
<polygon fill="black" stroke="black" points="9530.15,-574.35 9539.9,-570.18 9529.68,-567.36 9530.15,-574.35"/>
<text text-anchor="middle" x="9484.56" y="-577.21" font-family="Times,serif" font-size="14.00">MINOR</text>
</g>
<!-- 44868&#45;&gt;44976 -->
<g id="edge47" class="edge">
<title>44868&#45;&gt;44976</title>
<path fill="none" stroke="black" d="M9428.16,-553.12C9434.67,-552.28 9441.13,-551.52 9447.43,-550.87 9473.6,-548.16 9500.74,-545.87 9528.05,-543.93"/>
<polygon fill="black" stroke="black" points="9528.09,-547.44 9537.83,-543.25 9527.61,-540.45 9528.09,-547.44"/>
<text text-anchor="middle" x="9484.56" y="-554.07" font-family="Times,serif" font-size="14.00">SERIOUS</text>
</g>
<!-- 44868&#45;&gt;44976 -->
<g id="edge48" class="edge">
<title>44868&#45;&gt;44976</title>
<path fill="none" stroke="black" d="M9421.94,-530.49C9430.48,-528.25 9439.04,-526.32 9447.43,-524.87 9473.65,-520.33 9500.94,-517.29 9528.44,-515.39"/>
<polygon fill="black" stroke="black" points="9528.55,-518.89 9538.31,-514.77 9528.11,-511.91 9528.55,-518.89"/>
<text text-anchor="middle" x="9484.56" y="-528.07" font-family="Times,serif" font-size="14.00">EXTENSIVE</text>
</g>
<!-- 44976&#45;&gt;END_NODE -->
<g id="edge52" class="edge">
<title>44976&#45;&gt;END_NODE</title>
<path fill="none" stroke="black" d="M10183.93,-562.79C10386.06,-576 10652.22,-583.62 10886.54,-558.37 10984.11,-547.86 11095.92,-519.35 11155.58,-502.78"/>
<polygon fill="black" stroke="black" points="11156.31,-506.21 11164.99,-500.14 11154.42,-499.47 11156.31,-506.21"/>
<text text-anchor="middle" x="10539.35" y="-578.23" font-family="Times,serif" font-size="14.00">NO</text>
</g>
<!-- 44800 -->
<g id="node21" class="node">
<title>44800</title>
<ellipse fill="none" stroke="black" cx="10365.31" cy="-423.37" rx="118.91" ry="118.91"/>
<text text-anchor="middle" x="10365.31" y="-418.32" font-family="Times,serif" font-size="14.00">DESCRIBE THE DAMAGE</text>
</g>
<!-- 44976&#45;&gt;44800 -->
<g id="edge51" class="edge">
<title>44976&#45;&gt;44800</title>
<path fill="none" stroke="black" d="M10177.75,-464.33C10198.62,-459.75 10218.86,-455.31 10237.83,-451.14"/>
<polygon fill="black" stroke="black" points="10238.35,-454.61 10247.37,-449.05 10236.85,-447.77 10238.35,-454.61"/>
<text text-anchor="middle" x="10215.65" y="-459.08" font-family="Times,serif" font-size="14.00">YES</text>
</g>
<!-- 44800&#45;&gt;44467 -->
<g id="edge29" class="edge">
<title>44800&#45;&gt;44467</title>
<path fill="none" stroke="black" d="M10484.54,-427.98C10490.52,-428.13 10496.44,-428.27 10502.22,-428.37 10535.22,-428.98 10543.57,-430.88 10576.47,-428.37 10579.18,-428.16 10581.91,-427.94 10584.67,-427.7"/>
<polygon fill="black" stroke="black" points="10584.93,-431.19 10594.56,-426.75 10584.27,-424.22 10584.93,-431.19"/>
<text text-anchor="middle" x="10539.35" y="-432.83" font-family="Times,serif" font-size="14.00">MINOR</text>
</g>
<!-- 44800&#45;&gt;44467 -->
<g id="edge30" class="edge">
<title>44800&#45;&gt;44467</title>
<path fill="none" stroke="black" d="M10483.75,-409.28C10489.99,-408.75 10496.18,-408.27 10502.22,-407.87 10528.21,-406.15 10555.84,-405 10582.7,-404.25"/>
<polygon fill="black" stroke="black" points="10582.74,-407.75 10592.65,-403.99 10582.56,-400.75 10582.74,-407.75"/>
<text text-anchor="middle" x="10539.35" y="-411.07" font-family="Times,serif" font-size="14.00">SERIOUS</text>
</g>
<!-- 44800&#45;&gt;44467 -->
<g id="edge31" class="edge">
<title>44800&#45;&gt;44467</title>
<path fill="none" stroke="black" d="M10479.25,-387.96C10486.97,-386.34 10494.68,-384.95 10502.22,-383.87 10528.75,-380.1 10557.05,-379.48 10584.53,-380.67"/>
<polygon fill="black" stroke="black" points="10584.16,-384.16 10594.33,-381.18 10584.53,-377.17 10584.16,-384.16"/>
<text text-anchor="middle" x="10539.35" y="-387.07" font-family="Times,serif" font-size="14.00">EXTENSIVE</text>
</g>
</g>
</svg>
