<?xml version="1.0" encoding="UTF-8" standalone="no"?>
<!DOCTYPE svg PUBLIC "-//W3C//DTD SVG 1.1//EN"
 "http://www.w3.org/Graphics/SVG/1.1/DTD/svg11.dtd">
<!-- Generated by graphviz version 12.1.1 (20240910.0053)
 -->
<!-- Title: ABSCONDER Pages: 1 -->
<svg width="8510pt" height="712pt"
 viewBox="0.00 0.00 8510.06 711.67" xmlns="http://www.w3.org/2000/svg" xmlns:xlink="http://www.w3.org/1999/xlink">
<g id="graph0" class="graph" transform="scale(1 1) rotate(0) translate(4 707.67)">
<title>ABSCONDER</title>
<polygon fill="white" stroke="none" points="-4,4 -4,-707.67 8506.06,-707.67 8506.06,4 -4,4"/>
<!-- START_NODE -->
<g id="node1" class="node">
<title>START_NODE</title>
</g>
<!-- 44534 -->
<g id="node2" class="node">
<title>44534</title>
<ellipse fill="none" stroke="black" cx="280.27" cy="-280.34" rx="167.02" ry="167.02"/>
<text text-anchor="middle" x="280.27" y="-275.29" font-family="Times,serif" font-size="14.00">Were the police informed of the incident?</text>
</g>
<!-- START_NODE&#45;&gt;44534 -->
<g id="edge1" class="edge">
<title>START_NODE&#45;&gt;44534</title>
<path fill="none" stroke="black" d="M53.94,-280.34C66.67,-280.34 83.21,-280.34 101.55,-280.34"/>
<polygon fill="black" stroke="black" points="101.34,-283.84 111.34,-280.34 101.34,-276.84 101.34,-283.84"/>
<text text-anchor="middle" x="83.62" y="-283.54" font-family="Times,serif" font-size="14.00">start</text>
</g>
<!-- 44941 -->
<g id="node15" class="node">
<title>44941</title>
<ellipse fill="none" stroke="black" cx="705.87" cy="-501.34" rx="202.33" ry="202.33"/>
<text text-anchor="middle" x="705.87" y="-496.29" font-family="Times,serif" font-size="14.00">Is the incident the subject of a police investigation?</text>
</g>
<!-- 44534&#45;&gt;44941 -->
<g id="edge17" class="edge">
<title>44534&#45;&gt;44941</title>
<path fill="none" stroke="black" d="M428.83,-357.32C457.04,-372.04 486.93,-387.63 516.22,-402.91"/>
<polygon fill="black" stroke="black" points="514.3,-405.86 524.79,-407.38 517.54,-399.65 514.3,-405.86"/>
<text text-anchor="middle" x="475.42" y="-387.41" font-family="Times,serif" font-size="14.00">Yes</text>
</g>
<!-- 44766 -->
<g id="node16" class="node">
<title>44766</title>
<ellipse fill="none" stroke="black" cx="1177.03" cy="-461.34" rx="212.57" ry="212.57"/>
<text text-anchor="middle" x="1177.03" y="-456.29" font-family="Times,serif" font-size="14.00">Is the incident the subject of an internal investigation?</text>
</g>
<!-- 44534&#45;&gt;44766 -->
<g id="edge18" class="edge">
<title>44534&#45;&gt;44766</title>
<path fill="none" stroke="black" d="M445.1,-251.3C574.04,-234.89 756.64,-226.05 908.21,-273.84 941.18,-284.23 973.62,-300.29 1003.92,-318.74"/>
<polygon fill="black" stroke="black" points="1002.06,-321.7 1012.4,-324.01 1005.75,-315.75 1002.06,-321.7"/>
<text text-anchor="middle" x="705.87" y="-277.04" font-family="Times,serif" font-size="14.00">No</text>
</g>
<!-- END_NODE -->
<g id="node3" class="node">
<title>END_NODE</title>
<ellipse fill="none" stroke="black" cx="8468.2" cy="-386.34" rx="29.86" ry="29.86"/>
<ellipse fill="none" stroke="black" cx="8468.2" cy="-386.34" rx="33.86" ry="33.86"/>
<text text-anchor="middle" x="8468.2" y="-381.29" font-family="Times,serif" font-size="14.00">END</text>
</g>
<!-- 44198 -->
<g id="node4" class="node">
<title>44198</title>
<ellipse fill="none" stroke="black" cx="5268.75" cy="-321.34" rx="211.04" ry="211.04"/>
<text text-anchor="middle" x="5268.75" y="-316.29" font-family="Times,serif" font-size="14.00">Has the prisoner been charged with a further offence?</text>
</g>
<!-- 44854 -->
<g id="node5" class="node">
<title>44854</title>
<ellipse fill="none" stroke="black" cx="5733.25" cy="-321.34" rx="197.22" ry="197.22"/>
<text text-anchor="middle" x="5733.25" y="-316.29" font-family="Times,serif" font-size="14.00">With what offence has the prisoner been charged?</text>
</g>
<!-- 44198&#45;&gt;44854 -->
<g id="edge2" class="edge">
<title>44198&#45;&gt;44854</title>
<path fill="none" stroke="black" d="M5480.02,-321.34C5494.76,-321.34 5509.61,-321.34 5524.34,-321.34"/>
<polygon fill="black" stroke="black" points="5524.05,-324.84 5534.05,-321.34 5524.05,-317.84 5524.05,-324.84"/>
<text text-anchor="middle" x="5507.91" y="-324.54" font-family="Times,serif" font-size="14.00">Yes</text>
</g>
<!-- 44615 -->
<g id="node6" class="node">
<title>44615</title>
<ellipse fill="none" stroke="black" cx="6729.74" cy="-325.34" rx="159.85" ry="159.85"/>
<text text-anchor="middle" x="6729.74" y="-320.29" font-family="Times,serif" font-size="14.00">Was damage caused to prison property?</text>
</g>
<!-- 44198&#45;&gt;44615 -->
<g id="edge3" class="edge">
<title>44198&#45;&gt;44615</title>
<path fill="none" stroke="black" d="M5422.63,-176.46C5457.48,-151.39 5496.09,-129.02 5536.04,-115.34 5947.07,25.49 6111.43,50 6513.64,-114.34 6554.6,-131.07 6591.97,-159.78 6623.66,-190.73"/>
<polygon fill="black" stroke="black" points="6620.97,-192.99 6630.52,-197.57 6625.91,-188.03 6620.97,-192.99"/>
<text text-anchor="middle" x="6019.72" y="-9.21" font-family="Times,serif" font-size="14.00">No</text>
</g>
<!-- 44416 -->
<g id="node13" class="node">
<title>44416</title>
<ellipse fill="none" stroke="black" cx="6311.3" cy="-325.34" rx="202.33" ry="202.33"/>
<text text-anchor="middle" x="6311.3" y="-320.29" font-family="Times,serif" font-size="14.00">Has any prosecution taken place or is any pending?</text>
</g>
<!-- 44854&#45;&gt;44416 -->
<g id="edge32" class="edge">
<title>44854&#45;&gt;44416</title>
<path fill="none" stroke="black" d="M5862.78,-470.65C5888.8,-492.16 5917.71,-511.12 5948.47,-523.34 6007.33,-546.71 6031.86,-546.07 6090.97,-523.34 6117.07,-513.3 6142,-498.56 6165.08,-481.57"/>
<polygon fill="black" stroke="black" points="6167.1,-484.43 6172.96,-475.61 6162.87,-478.85 6167.1,-484.43"/>
<text text-anchor="middle" x="6019.72" y="-543.83" font-family="Times,serif" font-size="14.00">Murder/attempted murder</text>
</g>
<!-- 44854&#45;&gt;44416 -->
<g id="edge33" class="edge">
<title>44854&#45;&gt;44416</title>
<path fill="none" stroke="black" d="M5882.06,-451.49C5903.21,-464.47 5925.59,-475.66 5948.47,-483.34 6008.51,-503.48 6030.7,-502.79 6090.97,-483.34 6109.43,-477.38 6127.66,-469.22 6145.23,-459.74"/>
<polygon fill="black" stroke="black" points="6146.57,-463 6153.6,-455.07 6143.16,-456.88 6146.57,-463"/>
<text text-anchor="middle" x="6019.72" y="-501.39" font-family="Times,serif" font-size="14.00">Manslaughter</text>
</g>
<!-- 44854&#45;&gt;44416 -->
<g id="edge34" class="edge">
<title>44854&#45;&gt;44416</title>
<path fill="none" stroke="black" d="M5900.59,-426.63C5916.35,-433.34 5932.44,-439.09 5948.47,-443.34 6009.69,-459.55 6029.55,-458.81 6090.97,-443.34 6102.69,-440.38 6114.46,-436.67 6126.14,-432.4"/>
<polygon fill="black" stroke="black" points="6127.32,-435.69 6135.41,-428.86 6124.82,-429.15 6127.32,-435.69"/>
<text text-anchor="middle" x="6019.72" y="-458.42" font-family="Times,serif" font-size="14.00">Assault</text>
</g>
<!-- 44854&#45;&gt;44416 -->
<g id="edge35" class="edge">
<title>44854&#45;&gt;44416</title>
<path fill="none" stroke="black" d="M5916.14,-396.02C5926.97,-398.88 5937.8,-401.36 5948.47,-403.34 6010.75,-414.85 6028.56,-414.1 6090.97,-403.34 6097.48,-402.21 6104.04,-400.92 6110.64,-399.47"/>
<polygon fill="black" stroke="black" points="6111.33,-402.91 6120.29,-397.25 6109.76,-396.08 6111.33,-402.91"/>
<text text-anchor="middle" x="6019.72" y="-414.89" font-family="Times,serif" font-size="14.00">Rape/attempted rape</text>
</g>
<!-- 44854&#45;&gt;44416 -->
<g id="edge36" class="edge">
<title>44854&#45;&gt;44416</title>
<path fill="none" stroke="black" d="M5926.68,-360.89C5934.02,-361.82 5941.3,-362.64 5948.47,-363.34 6011.51,-369.46 6027.87,-368.76 6090.97,-363.34 6094.07,-363.07 6097.18,-362.78 6100.32,-362.48"/>
<polygon fill="black" stroke="black" points="6100.66,-365.96 6110.24,-361.44 6099.93,-359 6100.66,-365.96"/>
<text text-anchor="middle" x="6019.72" y="-370.87" font-family="Times,serif" font-size="14.00">Other sexual offence</text>
</g>
<!-- 44854&#45;&gt;44416 -->
<g id="edge37" class="edge">
<title>44854&#45;&gt;44416</title>
<path fill="none" stroke="black" d="M5930.95,-323.2C5936.85,-323.25 5942.7,-323.29 5948.47,-323.34 5996.69,-323.7 6048.54,-324.02 6097.49,-324.3"/>
<polygon fill="black" stroke="black" points="6097.34,-327.79 6107.36,-324.35 6097.38,-320.79 6097.34,-327.79"/>
<text text-anchor="middle" x="6019.72" y="-327.44" font-family="Times,serif" font-size="14.00">Theft</text>
</g>
<!-- 44854&#45;&gt;44416 -->
<g id="edge38" class="edge">
<title>44854&#45;&gt;44416</title>
<path fill="none" stroke="black" d="M5930.04,-303.74C5936.25,-303.4 5942.41,-303.1 5948.47,-302.84 6011.74,-300.11 6027.72,-299.6 6090.97,-302.84 6093.49,-302.97 6096.03,-303.1 6098.59,-303.25"/>
<polygon fill="black" stroke="black" points="6098.15,-306.73 6108.34,-303.84 6098.57,-299.74 6098.15,-306.73"/>
<text text-anchor="middle" x="6019.72" y="-306.04" font-family="Times,serif" font-size="14.00">Robbery</text>
</g>
<!-- 44854&#45;&gt;44416 -->
<g id="edge39" class="edge">
<title>44854&#45;&gt;44416</title>
<path fill="none" stroke="black" d="M5926.97,-282.22C5934.22,-281.32 5941.4,-280.52 5948.47,-279.84 6011.51,-273.79 6027.97,-273.37 6090.97,-279.84 6094.64,-280.21 6098.35,-280.63 6102.08,-281.07"/>
<polygon fill="black" stroke="black" points="6101.45,-284.52 6111.81,-282.3 6102.33,-277.57 6101.45,-284.52"/>
<text text-anchor="middle" x="6019.72" y="-283.04" font-family="Times,serif" font-size="14.00">Firearm offence</text>
</g>
<!-- 44854&#45;&gt;44416 -->
<g id="edge40" class="edge">
<title>44854&#45;&gt;44416</title>
<path fill="none" stroke="black" d="M5921,-259.81C5930.23,-257.89 5939.42,-256.21 5948.47,-254.84 6011.09,-245.34 6028.4,-245.03 6090.97,-254.84 6096.69,-255.73 6102.46,-256.75 6108.26,-257.88"/>
<polygon fill="black" stroke="black" points="6107.47,-261.29 6117.97,-259.87 6108.88,-254.43 6107.47,-261.29"/>
<text text-anchor="middle" x="6019.72" y="-258.04" font-family="Times,serif" font-size="14.00">Drug offence</text>
</g>
<!-- 44854&#45;&gt;44416 -->
<g id="edge41" class="edge">
<title>44854&#45;&gt;44416</title>
<path fill="none" stroke="black" d="M5911.83,-236.49C5924.06,-232.68 5936.34,-229.39 5948.47,-226.84 6010.44,-213.77 6029.04,-213.57 6090.97,-226.84 6099.89,-228.75 6108.89,-231.05 6117.89,-233.67"/>
<polygon fill="black" stroke="black" points="6116.82,-237 6127.41,-236.56 6118.86,-230.3 6116.82,-237"/>
<text text-anchor="middle" x="6019.72" y="-230.04" font-family="Times,serif" font-size="14.00">Vehicle crime</text>
</g>
<!-- 44854&#45;&gt;44416 -->
<g id="edge42" class="edge">
<title>44854&#45;&gt;44416</title>
<path fill="none" stroke="black" d="M5899.24,-214.43C5915.41,-207.35 5931.96,-201.29 5948.47,-196.84 6009.62,-180.36 6029.85,-180.25 6090.97,-196.84 6104.33,-200.46 6117.71,-205.13 6130.9,-210.52"/>
<polygon fill="black" stroke="black" points="6129.47,-213.72 6140.04,-214.41 6132.21,-207.28 6129.47,-213.72"/>
<text text-anchor="middle" x="6019.72" y="-200.04" font-family="Times,serif" font-size="14.00">Public order offence</text>
</g>
<!-- 44854&#45;&gt;44416 -->
<g id="edge43" class="edge">
<title>44854&#45;&gt;44416</title>
<path fill="none" stroke="black" d="M5883.93,-193.85C5904.57,-181.63 5926.32,-171.1 5948.47,-163.84 6008.65,-144.09 6030.8,-144.07 6090.97,-163.84 6110.02,-170.09 6128.77,-178.71 6146.81,-188.73"/>
<polygon fill="black" stroke="black" points="6145.02,-191.74 6155.44,-193.68 6148.51,-185.66 6145.02,-191.74"/>
<text text-anchor="middle" x="6019.72" y="-167.04" font-family="Times,serif" font-size="14.00">Other</text>
</g>
<!-- 44868 -->
<g id="node19" class="node">
<title>44868</title>
<ellipse fill="none" stroke="black" cx="7035.07" cy="-433.34" rx="89.23" ry="89.23"/>
<text text-anchor="middle" x="7035.07" y="-428.29" font-family="Times,serif" font-size="14.00">Describe the damage</text>
</g>
<!-- 44615&#45;&gt;44868 -->
<g id="edge21" class="edge">
<title>44615&#45;&gt;44868</title>
<path fill="none" stroke="black" d="M6880.63,-378.7C6900.81,-385.89 6921.04,-393.09 6939.87,-399.8"/>
<polygon fill="black" stroke="black" points="6938.47,-403.01 6949.06,-403.07 6940.82,-396.42 6938.47,-403.01"/>
<text text-anchor="middle" x="6917.72" y="-398.52" font-family="Times,serif" font-size="14.00">Yes</text>
</g>
<!-- 44976 -->
<g id="node20" class="node">
<title>44976</title>
<ellipse fill="none" stroke="black" cx="7451.2" cy="-393.34" rx="237.65" ry="237.65"/>
<text text-anchor="middle" x="7451.2" y="-388.29" font-family="Times,serif" font-size="14.00">Was any damage caused to private property during abscond?</text>
</g>
<!-- 44615&#45;&gt;44976 -->
<g id="edge22" class="edge">
<title>44615&#45;&gt;44976</title>
<path fill="none" stroke="black" d="M6889.9,-319.99C6908.76,-319.51 6927.73,-319.11 6945.85,-318.84 7025.15,-317.64 7045.49,-309.94 7124.3,-318.84 7152.17,-321.98 7181.13,-326.59 7209.78,-332.01"/>
<polygon fill="black" stroke="black" points="7208.77,-335.38 7219.26,-333.83 7210.1,-328.5 7208.77,-335.38"/>
<text text-anchor="middle" x="7035.07" y="-322.04" font-family="Times,serif" font-size="14.00">No</text>
</g>
<!-- 44271 -->
<g id="node7" class="node">
<title>44271</title>
<ellipse fill="none" stroke="black" cx="3562.77" cy="-461.34" rx="192.61" ry="192.61"/>
<text text-anchor="middle" x="3562.77" y="-456.29" font-family="Times,serif" font-size="14.00">Was any form of deception used in the abscond?</text>
</g>
<!-- 44284 -->
<g id="node8" class="node">
<title>44284</title>
<ellipse fill="none" stroke="black" cx="4018.06" cy="-461.34" rx="206.43" ry="206.43"/>
<text text-anchor="middle" x="4018.06" y="-456.29" font-family="Times,serif" font-size="14.00">Was the abscond in the company of other prisoners?</text>
</g>
<!-- 44271&#45;&gt;44284 -->
<g id="edge4" class="edge">
<title>44271&#45;&gt;44284</title>
<path fill="none" stroke="black" d="M3755.68,-461.34C3770.3,-461.34 3785.12,-461.34 3799.89,-461.34"/>
<polygon fill="black" stroke="black" points="3799.65,-464.84 3809.65,-461.34 3799.65,-457.84 3799.65,-464.84"/>
<text text-anchor="middle" x="3783.5" y="-464.54" font-family="Times,serif" font-size="14.00">Yes</text>
</g>
<!-- 44271&#45;&gt;44284 -->
<g id="edge5" class="edge">
<title>44271&#45;&gt;44284</title>
<path fill="none" stroke="black" d="M3754.78,-441.87C3761.05,-441.48 3767.26,-441.14 3773.38,-440.84 3782.42,-440.4 3791.65,-440.17 3800.97,-440.13"/>
<polygon fill="black" stroke="black" points="3800.85,-443.63 3810.86,-440.16 3800.88,-436.63 3800.85,-443.63"/>
<text text-anchor="middle" x="3783.5" y="-444.04" font-family="Times,serif" font-size="14.00">No</text>
</g>
<!-- 44861 -->
<g id="node9" class="node">
<title>44861</title>
<ellipse fill="none" stroke="black" cx="4404.25" cy="-461.34" rx="123.52" ry="123.52"/>
<text text-anchor="middle" x="4404.25" y="-456.29" font-family="Times,serif" font-size="14.00">Has prisoner been recaptured?</text>
</g>
<!-- 44284&#45;&gt;44861 -->
<g id="edge6" class="edge">
<title>44284&#45;&gt;44861</title>
<path fill="none" stroke="black" d="M4224.93,-461.34C4239.84,-461.34 4254.63,-461.34 4268.96,-461.34"/>
<polygon fill="black" stroke="black" points="4268.82,-464.84 4278.82,-461.34 4268.82,-457.84 4268.82,-464.84"/>
<text text-anchor="middle" x="4252.61" y="-464.54" font-family="Times,serif" font-size="14.00">Yes</text>
</g>
<!-- 44284&#45;&gt;44861 -->
<g id="edge7" class="edge">
<title>44284&#45;&gt;44861</title>
<path fill="none" stroke="black" d="M4223.78,-439.46C4236.96,-439.49 4250.04,-439.91 4262.74,-440.84 4265.29,-441.02 4267.86,-441.22 4270.45,-441.45"/>
<polygon fill="black" stroke="black" points="4270.1,-444.93 4280.39,-442.37 4270.75,-437.96 4270.1,-444.93"/>
<text text-anchor="middle" x="4252.61" y="-444.04" font-family="Times,serif" font-size="14.00">No</text>
</g>
<!-- 44861&#45;&gt;44615 -->
<g id="edge45" class="edge">
<title>44861&#45;&gt;44615</title>
<path fill="none" stroke="black" d="M4516.12,-513.91C4590.88,-544.6 4692.69,-577.34 4786.87,-577.34 4786.87,-577.34 4786.87,-577.34 6312.3,-577.34 6403.62,-577.34 6432.99,-579.18 6513.64,-536.34 6551.97,-515.97 6588.05,-486.65 6619.31,-456.31"/>
<polygon fill="black" stroke="black" points="6621.41,-459.15 6626.07,-449.64 6616.49,-454.17 6621.41,-459.15"/>
<text text-anchor="middle" x="5507.91" y="-580.54" font-family="Times,serif" font-size="14.00">No</text>
</g>
<!-- 44402 -->
<g id="node12" class="node">
<title>44402</title>
<ellipse fill="none" stroke="black" cx="4787.87" cy="-361.34" rx="137.85" ry="137.85"/>
<text text-anchor="middle" x="4787.87" y="-356.29" font-family="Times,serif" font-size="14.00">How was the prisoner recaptured?</text>
</g>
<!-- 44861&#45;&gt;44402 -->
<g id="edge44" class="edge">
<title>44861&#45;&gt;44402</title>
<path fill="none" stroke="black" d="M4524.17,-430.18C4561.86,-420.3 4603.93,-409.27 4643.17,-398.99"/>
<polygon fill="black" stroke="black" points="4643.9,-402.42 4652.69,-396.5 4642.13,-395.65 4643.9,-402.42"/>
<text text-anchor="middle" x="4588.9" y="-426.43" font-family="Times,serif" font-size="14.00">Yes (enter date)</text>
</g>
<!-- 44326 -->
<g id="node10" class="node">
<title>44326</title>
<ellipse fill="none" stroke="black" cx="2505.03" cy="-461.34" rx="199.78" ry="199.78"/>
<text text-anchor="middle" x="2505.03" y="-456.29" font-family="Times,serif" font-size="14.00">Has the prison service press office been informed?</text>
</g>
<!-- 44717 -->
<g id="node11" class="node">
<title>44717</title>
<ellipse fill="none" stroke="black" cx="3006.36" cy="-461.34" rx="179.3" ry="179.3"/>
<text text-anchor="middle" x="3006.36" y="-456.29" font-family="Times,serif" font-size="14.00">From which area did the abscond take place?</text>
</g>
<!-- 44326&#45;&gt;44717 -->
<g id="edge8" class="edge">
<title>44326&#45;&gt;44717</title>
<path fill="none" stroke="black" d="M2705.17,-461.34C2741.62,-461.34 2779.58,-461.34 2815.75,-461.34"/>
<polygon fill="black" stroke="black" points="2815.4,-464.84 2825.4,-461.34 2815.4,-457.84 2815.4,-464.84"/>
<text text-anchor="middle" x="2765.93" y="-464.54" font-family="Times,serif" font-size="14.00">Yes (enter date)</text>
</g>
<!-- 44326&#45;&gt;44717 -->
<g id="edge9" class="edge">
<title>44326&#45;&gt;44717</title>
<path fill="none" stroke="black" d="M2704.02,-441.12C2739,-439.49 2775.09,-439.07 2809.05,-440.84 2811.46,-440.96 2813.88,-441.1 2816.32,-441.24"/>
<polygon fill="black" stroke="black" points="2816.09,-444.73 2826.29,-441.86 2816.53,-437.74 2816.09,-444.73"/>
<text text-anchor="middle" x="2765.93" y="-444.04" font-family="Times,serif" font-size="14.00">No</text>
</g>
<!-- 44717&#45;&gt;44271 -->
<g id="edge23" class="edge">
<title>44717&#45;&gt;44271</title>
<path fill="none" stroke="black" d="M3182.37,-496.95C3189.54,-497.86 3196.66,-498.67 3203.66,-499.34 3269.36,-505.64 3286.42,-505.25 3352.16,-499.34 3355.4,-499.05 3358.66,-498.73 3361.94,-498.39"/>
<polygon fill="black" stroke="black" points="3362.1,-501.89 3371.66,-497.32 3361.34,-494.94 3362.1,-501.89"/>
<text text-anchor="middle" x="3277.91" y="-507.12" font-family="Times,serif" font-size="14.00">From establishment</text>
</g>
<!-- 44717&#45;&gt;44271 -->
<g id="edge24" class="edge">
<title>44717&#45;&gt;44271</title>
<path fill="none" stroke="black" d="M3185.83,-461.34C3240.88,-461.34 3301.9,-461.34 3358.49,-461.34"/>
<polygon fill="black" stroke="black" points="3358.24,-464.84 3368.24,-461.34 3358.24,-457.84 3358.24,-464.84"/>
<text text-anchor="middle" x="3277.91" y="-464.54" font-family="Times,serif" font-size="14.00">Supervised outside party</text>
</g>
<!-- 44717&#45;&gt;44271 -->
<g id="edge25" class="edge">
<title>44717&#45;&gt;44271</title>
<path fill="none" stroke="black" d="M3184.91,-441.96C3191.24,-441.53 3197.5,-441.16 3203.66,-440.84 3269.57,-437.4 3286.24,-437.62 3352.16,-440.84 3354.55,-440.95 3356.95,-441.08 3359.37,-441.21"/>
<polygon fill="black" stroke="black" points="3359.06,-444.7 3369.25,-441.78 3359.47,-437.71 3359.06,-444.7"/>
<text text-anchor="middle" x="3277.91" y="-444.04" font-family="Times,serif" font-size="14.00">Unsupervised outside party</text>
</g>
<!-- 44717&#45;&gt;44271 -->
<g id="edge26" class="edge">
<title>44717&#45;&gt;44271</title>
<path fill="none" stroke="black" d="M3181.49,-420.68C3188.96,-419.59 3196.37,-418.63 3203.66,-417.84 3269.27,-410.65 3286.5,-411.1 3352.16,-417.84 3355.65,-418.2 3359.17,-418.59 3362.71,-419.01"/>
<polygon fill="black" stroke="black" points="3362.22,-422.47 3372.58,-420.26 3363.1,-415.53 3362.22,-422.47"/>
<text text-anchor="middle" x="3277.91" y="-421.04" font-family="Times,serif" font-size="14.00">Other</text>
</g>
<!-- 44402&#45;&gt;44198 -->
<g id="edge10" class="edge">
<title>44402&#45;&gt;44198</title>
<path fill="none" stroke="black" d="M4925.16,-378.07C4931.43,-378.56 4937.64,-378.98 4943.71,-379.34 4986.31,-381.8 4997.38,-384.64 5039.71,-379.34 5044.15,-378.78 5048.62,-378.17 5053.12,-377.5"/>
<polygon fill="black" stroke="black" points="5053.51,-380.98 5062.85,-375.98 5052.42,-374.07 5053.51,-380.98"/>
<text text-anchor="middle" x="4991.71" y="-385.54" font-family="Times,serif" font-size="14.00">Police arrest</text>
</g>
<!-- 44402&#45;&gt;44198 -->
<g id="edge11" class="edge">
<title>44402&#45;&gt;44198</title>
<path fill="none" stroke="black" d="M4925.46,-349.93C4963.31,-346.77 5005.41,-343.25 5046.76,-339.8"/>
<polygon fill="black" stroke="black" points="5046.93,-343.29 5056.61,-338.97 5046.35,-336.32 5046.93,-343.29"/>
<text text-anchor="middle" x="4991.71" y="-351.6" font-family="Times,serif" font-size="14.00">Prison staff arrest</text>
</g>
<!-- 44402&#45;&gt;44198 -->
<g id="edge12" class="edge">
<title>44402&#45;&gt;44198</title>
<path fill="none" stroke="black" d="M4921.05,-324.39C4928.68,-323 4936.27,-321.79 4943.71,-320.84 4976.82,-316.58 5011.98,-314.32 5046.47,-313.37"/>
<polygon fill="black" stroke="black" points="5046.22,-316.87 5056.13,-313.14 5046.05,-309.88 5046.22,-316.87"/>
<text text-anchor="middle" x="4991.71" y="-324.04" font-family="Times,serif" font-size="14.00">Surrender</text>
</g>
<!-- 44402&#45;&gt;44198 -->
<g id="edge13" class="edge">
<title>44402&#45;&gt;44198</title>
<path fill="none" stroke="black" d="M4912.45,-301.37C4922.86,-297.95 4933.36,-295.02 4943.71,-292.84 4977.49,-285.7 5013.62,-283.6 5049.04,-284.53"/>
<polygon fill="black" stroke="black" points="5048.88,-288.03 5059,-284.88 5049.13,-281.03 5048.88,-288.03"/>
<text text-anchor="middle" x="4991.71" y="-296.04" font-family="Times,serif" font-size="14.00">Other</text>
</g>
<!-- 44416&#45;&gt;44615 -->
<g id="edge14" class="edge">
<title>44416&#45;&gt;44615</title>
<path fill="none" stroke="black" d="M6514.12,-325.34C6528.91,-325.34 6543.75,-325.34 6558.33,-325.34"/>
<polygon fill="black" stroke="black" points="6557.91,-328.84 6567.91,-325.34 6557.91,-321.84 6557.91,-328.84"/>
<text text-anchor="middle" x="6541.76" y="-328.54" font-family="Times,serif" font-size="14.00">Yes</text>
</g>
<!-- 44416&#45;&gt;44615 -->
<g id="edge15" class="edge">
<title>44416&#45;&gt;44615</title>
<path fill="none" stroke="black" d="M6512.91,-303.93C6526.09,-303.83 6539.18,-304.1 6551.89,-304.84 6554.4,-304.98 6556.92,-305.14 6559.46,-305.3"/>
<polygon fill="black" stroke="black" points="6558.96,-308.78 6569.18,-305.99 6559.46,-301.8 6558.96,-308.78"/>
<text text-anchor="middle" x="6541.76" y="-308.04" font-family="Times,serif" font-size="14.00">No</text>
</g>
<!-- 44467 -->
<g id="node14" class="node">
<title>44467</title>
<ellipse fill="none" stroke="black" cx="8120.45" cy="-318.34" rx="107.65" ry="107.65"/>
<text text-anchor="middle" x="8120.45" y="-313.29" font-family="Times,serif" font-size="14.00">Estimated cost of damage</text>
</g>
<!-- 44467&#45;&gt;END_NODE -->
<g id="edge16" class="edge">
<title>44467&#45;&gt;END_NODE</title>
<path fill="none" stroke="black" d="M8226.6,-339.02C8292.63,-352 8374.32,-368.07 8423.51,-377.74"/>
<polygon fill="black" stroke="black" points="8422.72,-381.16 8433.21,-379.65 8424.07,-374.29 8422.72,-381.16"/>
<text text-anchor="middle" x="8331.22" y="-378.14" font-family="Times,serif" font-size="14.00">Enter amount in pound sterling</text>
</g>
<!-- 44941&#45;&gt;44766 -->
<g id="edge49" class="edge">
<title>44941&#45;&gt;44766</title>
<path fill="none" stroke="black" d="M907.88,-484.2C923.09,-482.9 938.49,-481.59 953.82,-480.28"/>
<polygon fill="black" stroke="black" points="953.8,-483.8 963.46,-479.46 953.2,-476.82 953.8,-483.8"/>
<text text-anchor="middle" x="936.33" y="-485.74" font-family="Times,serif" font-size="14.00">Yes</text>
</g>
<!-- 44941&#45;&gt;44766 -->
<g id="edge50" class="edge">
<title>44941&#45;&gt;44766</title>
<path fill="none" stroke="black" d="M904.82,-463.09C912.02,-462.24 919.17,-461.48 926.21,-460.84 934.94,-460.04 943.85,-459.37 952.86,-458.81"/>
<polygon fill="black" stroke="black" points="953.01,-462.31 962.8,-458.25 952.62,-455.32 953.01,-462.31"/>
<text text-anchor="middle" x="936.33" y="-464.04" font-family="Times,serif" font-size="14.00">No</text>
</g>
<!-- 44609 -->
<g id="node17" class="node">
<title>44609</title>
<ellipse fill="none" stroke="black" cx="1647.67" cy="-461.34" rx="201.82" ry="201.82"/>
<text text-anchor="middle" x="1647.67" y="-456.29" font-family="Times,serif" font-size="14.00">Is the incident subject to a governor&#39;s adjudication?</text>
</g>
<!-- 44766&#45;&gt;44609 -->
<g id="edge27" class="edge">
<title>44766&#45;&gt;44609</title>
<path fill="none" stroke="black" d="M1390.07,-461.34C1404.75,-461.34 1419.55,-461.34 1434.23,-461.34"/>
<polygon fill="black" stroke="black" points="1433.91,-464.84 1443.91,-461.34 1433.91,-457.84 1433.91,-464.84"/>
<text text-anchor="middle" x="1417.73" y="-464.54" font-family="Times,serif" font-size="14.00">Yes</text>
</g>
<!-- 44766&#45;&gt;44609 -->
<g id="edge28" class="edge">
<title>44766&#45;&gt;44609</title>
<path fill="none" stroke="black" d="M1388.89,-440.18C1402.07,-440.05 1415.14,-440.24 1427.85,-440.84 1430.23,-440.95 1432.63,-441.07 1435.04,-441.19"/>
<polygon fill="black" stroke="black" points="1434.7,-444.68 1444.88,-441.73 1435.09,-437.69 1434.7,-444.68"/>
<text text-anchor="middle" x="1417.73" y="-444.04" font-family="Times,serif" font-size="14.00">No</text>
</g>
<!-- 45077 -->
<g id="node18" class="node">
<title>45077</title>
<ellipse fill="none" stroke="black" cx="2077.37" cy="-461.34" rx="171.63" ry="171.63"/>
<text text-anchor="middle" x="2077.37" y="-456.29" font-family="Times,serif" font-size="14.00">Is there any media interest in this incident?</text>
</g>
<!-- 44609&#45;&gt;45077 -->
<g id="edge19" class="edge">
<title>44609&#45;&gt;45077</title>
<path fill="none" stroke="black" d="M1849.69,-461.34C1864.55,-461.34 1879.49,-461.34 1894.23,-461.34"/>
<polygon fill="black" stroke="black" points="1893.94,-464.84 1903.94,-461.34 1893.94,-457.84 1893.94,-464.84"/>
<text text-anchor="middle" x="1877.62" y="-464.54" font-family="Times,serif" font-size="14.00">Yes</text>
</g>
<!-- 44609&#45;&gt;45077 -->
<g id="edge20" class="edge">
<title>44609&#45;&gt;45077</title>
<path fill="none" stroke="black" d="M1848.84,-440.04C1862,-439.92 1875.06,-440.15 1887.75,-440.84 1890.25,-440.97 1892.78,-441.12 1895.31,-441.27"/>
<polygon fill="black" stroke="black" points="1894.81,-444.75 1905.02,-441.91 1895.27,-437.76 1894.81,-444.75"/>
<text text-anchor="middle" x="1877.62" y="-444.04" font-family="Times,serif" font-size="14.00">No</text>
</g>
<!-- 45077&#45;&gt;44326 -->
<g id="edge53" class="edge">
<title>45077&#45;&gt;44326</title>
<path fill="none" stroke="black" d="M2249.36,-461.34C2263.91,-461.34 2278.73,-461.34 2293.54,-461.34"/>
<polygon fill="black" stroke="black" points="2293.34,-464.84 2303.34,-461.34 2293.34,-457.84 2293.34,-464.84"/>
<text text-anchor="middle" x="2277.13" y="-464.54" font-family="Times,serif" font-size="14.00">Yes</text>
</g>
<!-- 45077&#45;&gt;44326 -->
<g id="edge54" class="edge">
<title>45077&#45;&gt;44326</title>
<path fill="none" stroke="black" d="M2248.22,-442.01C2254.56,-441.57 2260.83,-441.17 2267,-440.84 2276.02,-440.35 2285.22,-440.09 2294.52,-440.03"/>
<polygon fill="black" stroke="black" points="2294.37,-443.53 2304.38,-440.05 2294.39,-436.53 2294.37,-443.53"/>
<text text-anchor="middle" x="2277.13" y="-444.04" font-family="Times,serif" font-size="14.00">No</text>
</g>
<!-- 44868&#45;&gt;44976 -->
<g id="edge46" class="edge">
<title>44868&#45;&gt;44976</title>
<path fill="none" stroke="black" d="M7124.74,-434.36C7147.82,-434.04 7172.64,-433.18 7195.55,-431.34 7198.58,-431.09 7201.62,-430.84 7204.69,-430.56"/>
<polygon fill="black" stroke="black" points="7204.7,-434.08 7214.33,-429.67 7204.05,-427.11 7204.7,-434.08"/>
<text text-anchor="middle" x="7168.92" y="-437.19" font-family="Times,serif" font-size="14.00">Minor</text>
</g>
<!-- 44868&#45;&gt;44976 -->
<g id="edge47" class="edge">
<title>44868&#45;&gt;44976</title>
<path fill="none" stroke="black" d="M7122.55,-413.89C7129.21,-412.73 7135.85,-411.7 7142.3,-410.84 7161.78,-408.24 7182,-406.02 7202.35,-404.13"/>
<polygon fill="black" stroke="black" points="7202.51,-407.63 7212.16,-403.26 7201.89,-400.66 7202.51,-407.63"/>
<text text-anchor="middle" x="7168.92" y="-414.04" font-family="Times,serif" font-size="14.00">Serious</text>
</g>
<!-- 44868&#45;&gt;44976 -->
<g id="edge48" class="edge">
<title>44868&#45;&gt;44976</title>
<path fill="none" stroke="black" d="M7115.14,-392.86C7124.12,-389.59 7133.29,-386.8 7142.3,-384.84 7161.7,-380.62 7181.95,-377.8 7202.39,-376.07"/>
<polygon fill="black" stroke="black" points="7202.54,-379.57 7212.25,-375.33 7202.02,-372.59 7202.54,-379.57"/>
<text text-anchor="middle" x="7168.92" y="-388.04" font-family="Times,serif" font-size="14.00">Extensive</text>
</g>
<!-- 44976&#45;&gt;END_NODE -->
<g id="edge52" class="edge">
<title>44976&#45;&gt;END_NODE</title>
<path fill="none" stroke="black" d="M7686.92,-424.93C7841.05,-441.03 8046.91,-453.71 8228.1,-435.34 8297.42,-428.31 8376.35,-410.09 8423.93,-397.96"/>
<polygon fill="black" stroke="black" points="8424.76,-401.36 8433.57,-395.47 8423.02,-394.58 8424.76,-401.36"/>
<text text-anchor="middle" x="7968.17" y="-447.27" font-family="Times,serif" font-size="14.00">No</text>
</g>
<!-- 44800 -->
<g id="node21" class="node">
<title>44800</title>
<ellipse fill="none" stroke="black" cx="7834.32" cy="-332.34" rx="89.23" ry="89.23"/>
<text text-anchor="middle" x="7834.32" y="-327.29" font-family="Times,serif" font-size="14.00">Describe the damage</text>
</g>
<!-- 44976&#45;&gt;44800 -->
<g id="edge51" class="edge">
<title>44976&#45;&gt;44800</title>
<path fill="none" stroke="black" d="M7686.24,-355.88C7703.08,-353.18 7719.44,-350.56 7734.76,-348.11"/>
<polygon fill="black" stroke="black" points="7734.9,-351.63 7744.22,-346.6 7733.8,-344.72 7734.9,-351.63"/>
<text text-anchor="middle" x="7716.97" y="-355.27" font-family="Times,serif" font-size="14.00">Yes</text>
</g>
<!-- 44800&#45;&gt;44467 -->
<g id="edge29" class="edge">
<title>44800&#45;&gt;44467</title>
<path fill="none" stroke="black" d="M7923.68,-340.39C7929.72,-340.77 7935.72,-341.09 7941.55,-341.34 7965.19,-342.34 7971.23,-343.49 7994.8,-341.34 7997.63,-341.08 8000.49,-340.79 8003.37,-340.47"/>
<polygon fill="black" stroke="black" points="8003.56,-343.97 8013.06,-339.29 8002.71,-337.02 8003.56,-343.97"/>
<text text-anchor="middle" x="7968.17" y="-345.76" font-family="Times,serif" font-size="14.00">Minor</text>
</g>
<!-- 44800&#45;&gt;44467 -->
<g id="edge30" class="edge">
<title>44800&#45;&gt;44467</title>
<path fill="none" stroke="black" d="M7923.38,-322.16C7929.52,-321.65 7935.62,-321.2 7941.55,-320.84 7960.84,-319.66 7981.33,-318.91 8001.27,-318.45"/>
<polygon fill="black" stroke="black" points="8001.18,-321.95 8011.1,-318.24 8001.03,-314.95 8001.18,-321.95"/>
<text text-anchor="middle" x="7968.17" y="-324.04" font-family="Times,serif" font-size="14.00">Serious</text>
</g>
<!-- 44800&#45;&gt;44467 -->
<g id="edge31" class="edge">
<title>44800&#45;&gt;44467</title>
<path fill="none" stroke="black" d="M7918.8,-302.54C7926.42,-300.64 7934.08,-299.02 7941.55,-297.84 7961.5,-294.68 7982.78,-294.44 8003.43,-295.85"/>
<polygon fill="black" stroke="black" points="8003.07,-299.33 8013.32,-296.67 8003.64,-292.36 8003.07,-299.33"/>
<text text-anchor="middle" x="7968.17" y="-301.04" font-family="Times,serif" font-size="14.00">Extensive</text>
</g>
</g>
</svg>
