<?xml version="1.0" encoding="UTF-8" standalone="no"?>
<!DOCTYPE svg PUBLIC "-//W3C//DTD SVG 1.1//EN"
 "http://www.w3.org/Graphics/SVG/1.1/DTD/svg11.dtd">
<!-- Generated by graphviz version 12.1.1 (20240910.0053)
 -->
<!-- Title: ASSAULT Pages: 1 -->
<svg width="19232pt" height="2021pt"
 viewBox="0.00 0.00 19232.07 2020.78" xmlns="http://www.w3.org/2000/svg" xmlns:xlink="http://www.w3.org/1999/xlink">
<g id="graph0" class="graph" transform="scale(1 1) rotate(0) translate(4 2016.78)">
<title>ASSAULT</title>
<polygon fill="white" stroke="none" points="-4,4 -4,-2016.78 19228.07,-2016.78 19228.07,4 -4,4"/>
<!-- START_NODE -->
<g id="node1" class="node">
<title>START_NODE</title>
</g>
<!-- 61279 -->
<g id="node2" class="node">
<title>61279</title>
<ellipse fill="none" stroke="black" cx="418.97" cy="-305.72" rx="305.72" ry="305.72"/>
<text text-anchor="middle" x="418.97" y="-300.67" font-family="Times,serif" font-size="14.00">WHAT WAS THE MAIN MANAGEMENT OUTCOME OF THE INCIDENT</text>
</g>
<!-- START_NODE&#45;&gt;61279 -->
<g id="edge1" class="edge">
<title>START_NODE&#45;&gt;61279</title>
<path fill="none" stroke="black" d="M53.89,-305.72C66.33,-305.72 82.65,-305.72 101.48,-305.72"/>
<polygon fill="black" stroke="black" points="101.34,-309.22 111.34,-305.72 101.34,-302.22 101.34,-309.22"/>
<text text-anchor="middle" x="83.62" y="-308.92" font-family="Times,serif" font-size="14.00">start</text>
</g>
<!-- 61280 -->
<g id="node4" class="node">
<title>61280</title>
<ellipse fill="none" stroke="black" cx="1343.75" cy="-305.72" rx="277.06" ry="277.06"/>
<text text-anchor="middle" x="1343.75" y="-300.67" font-family="Times,serif" font-size="14.00">IS ANY MEMBER OF STAFF FACING DISCIPLINARY CHARGES</text>
</g>
<!-- 61279&#45;&gt;61280 -->
<g id="edge2" class="edge">
<title>61279&#45;&gt;61280</title>
<path fill="none" stroke="black" d="M722.64,-342.43C729.38,-342.9 736.07,-343.33 742.69,-343.72 878.46,-351.69 912.97,-352.45 1048.69,-343.72 1051.61,-343.53 1054.55,-343.33 1057.5,-343.13"/>
<polygon fill="black" stroke="black" points="1057.72,-346.62 1067.43,-342.39 1057.2,-339.64 1057.72,-346.62"/>
<text text-anchor="middle" x="895.69" y="-353.18" font-family="Times,serif" font-size="14.00">NO FURTHER ACTION</text>
</g>
<!-- 61279&#45;&gt;61280 -->
<g id="edge3" class="edge">
<title>61279&#45;&gt;61280</title>
<path fill="none" stroke="black" d="M725,-305.72C831.35,-305.72 950.27,-305.72 1055.16,-305.72"/>
<polygon fill="black" stroke="black" points="1055.05,-309.22 1065.05,-305.72 1055.05,-302.22 1055.05,-309.22"/>
<text text-anchor="middle" x="895.69" y="-308.92" font-family="Times,serif" font-size="14.00">IEP REGRESSION</text>
</g>
<!-- 61279&#45;&gt;61280 -->
<g id="edge4" class="edge">
<title>61279&#45;&gt;61280</title>
<path fill="none" stroke="black" d="M724.42,-285.85C730.56,-285.62 736.66,-285.41 742.69,-285.22 878.62,-280.91 912.77,-280.49 1048.69,-285.22 1050.94,-285.3 1053.21,-285.38 1055.48,-285.47"/>
<polygon fill="black" stroke="black" points="1055.26,-288.96 1065.39,-285.86 1055.54,-281.96 1055.26,-288.96"/>
<text text-anchor="middle" x="895.69" y="-288.42" font-family="Times,serif" font-size="14.00">PLACED ON REPORT/ADJUDICATION REFERRAL</text>
</g>
<!-- 61279&#45;&gt;61280 -->
<g id="edge5" class="edge">
<title>61279&#45;&gt;61280</title>
<path fill="none" stroke="black" d="M721.74,-262.81C728.79,-262.23 735.78,-261.69 742.69,-261.22 878.37,-251.91 913.07,-251.02 1048.69,-261.22 1051.95,-261.47 1055.23,-261.73 1058.52,-262"/>
<polygon fill="black" stroke="black" points="1057.99,-265.47 1068.26,-262.85 1058.6,-258.49 1057.99,-265.47"/>
<text text-anchor="middle" x="895.69" y="-264.42" font-family="Times,serif" font-size="14.00">POLICE REFERRAL</text>
</g>
<!-- END_NODE -->
<g id="node3" class="node">
<title>END_NODE</title>
<ellipse fill="none" stroke="black" cx="19190.21" cy="-1603.72" rx="29.86" ry="29.86"/>
<ellipse fill="none" stroke="black" cx="19190.21" cy="-1603.72" rx="33.86" ry="33.86"/>
<text text-anchor="middle" x="19190.21" y="-1598.67" font-family="Times,serif" font-size="14.00">END</text>
</g>
<!-- 61281 -->
<g id="node5" class="node">
<title>61281</title>
<ellipse fill="none" stroke="black" cx="1913.82" cy="-305.72" rx="231.51" ry="231.51"/>
<text text-anchor="middle" x="1913.82" y="-300.67" font-family="Times,serif" font-size="14.00">IS THERE ANY MEDIA INTEREST IN THIS INCIDENT</text>
</g>
<!-- 61280&#45;&gt;61281 -->
<g id="edge6" class="edge">
<title>61280&#45;&gt;61281</title>
<path fill="none" stroke="black" d="M1621.29,-305.72C1637.8,-305.72 1654.34,-305.72 1670.69,-305.72"/>
<polygon fill="black" stroke="black" points="1670.47,-309.22 1680.47,-305.72 1670.47,-302.22 1670.47,-309.22"/>
<text text-anchor="middle" x="1651.56" y="-308.92" font-family="Times,serif" font-size="14.00">YES</text>
</g>
<!-- 61280&#45;&gt;61281 -->
<g id="edge7" class="edge">
<title>61280&#45;&gt;61281</title>
<path fill="none" stroke="black" d="M1620.12,-284.37C1635.06,-284.36 1649.87,-284.63 1664.31,-285.22 1666.67,-285.32 1669.05,-285.42 1671.44,-285.53"/>
<polygon fill="black" stroke="black" points="1671.02,-289.01 1681.18,-285.99 1671.36,-282.02 1671.02,-289.01"/>
<text text-anchor="middle" x="1651.56" y="-288.42" font-family="Times,serif" font-size="14.00">NO</text>
</g>
<!-- 61282 -->
<g id="node6" class="node">
<title>61282</title>
<ellipse fill="none" stroke="black" cx="2474.16" cy="-305.72" rx="267.33" ry="267.33"/>
<text text-anchor="middle" x="2474.16" y="-300.67" font-family="Times,serif" font-size="14.00">HAS THE PRISON SERVICE PRESS OFFICE BEEN INFORMED</text>
</g>
<!-- 61281&#45;&gt;61282 -->
<g id="edge8" class="edge">
<title>61281&#45;&gt;61282</title>
<path fill="none" stroke="black" d="M2145.54,-305.72C2161.88,-305.72 2178.45,-305.72 2195.02,-305.72"/>
<polygon fill="black" stroke="black" points="2194.97,-309.22 2204.97,-305.72 2194.97,-302.22 2194.97,-309.22"/>
<text text-anchor="middle" x="2176.07" y="-308.92" font-family="Times,serif" font-size="14.00">YES</text>
</g>
<!-- 61281&#45;&gt;61282 -->
<g id="edge9" class="edge">
<title>61281&#45;&gt;61282</title>
<path fill="none" stroke="black" d="M2144.94,-286.07C2151.13,-285.75 2157.27,-285.47 2163.32,-285.22 2174.02,-284.78 2184.92,-284.53 2195.92,-284.45"/>
<polygon fill="black" stroke="black" points="2195.92,-287.95 2205.92,-284.42 2195.91,-280.95 2195.92,-287.95"/>
<text text-anchor="middle" x="2176.07" y="-288.42" font-family="Times,serif" font-size="14.00">NO</text>
</g>
<!-- 61283 -->
<g id="node7" class="node">
<title>61283</title>
<ellipse fill="none" stroke="black" cx="3005.84" cy="-305.72" rx="202.85" ry="202.85"/>
<text text-anchor="middle" x="3005.84" y="-300.67" font-family="Times,serif" font-size="14.00">IS THE LOCATION OF THE INCDENT KNOWN</text>
</g>
<!-- 61282&#45;&gt;61283 -->
<g id="edge10" class="edge">
<title>61282&#45;&gt;61283</title>
<path fill="none" stroke="black" d="M2741.94,-305.72C2758.56,-305.72 2775.18,-305.72 2791.52,-305.72"/>
<polygon fill="black" stroke="black" points="2791.27,-309.22 2801.27,-305.72 2791.27,-302.22 2791.27,-309.22"/>
<text text-anchor="middle" x="2772.24" y="-308.92" font-family="Times,serif" font-size="14.00">YES</text>
</g>
<!-- 61282&#45;&gt;61283 -->
<g id="edge11" class="edge">
<title>61282&#45;&gt;61283</title>
<path fill="none" stroke="black" d="M2740.9,-284.23C2755.81,-284.24 2770.59,-284.55 2784.99,-285.22 2787.39,-285.33 2789.79,-285.45 2792.21,-285.57"/>
<polygon fill="black" stroke="black" points="2791.93,-289.06 2802.1,-286.12 2792.31,-282.07 2791.93,-289.06"/>
<text text-anchor="middle" x="2772.24" y="-288.42" font-family="Times,serif" font-size="14.00">NO</text>
</g>
<!-- 61284 -->
<g id="node8" class="node">
<title>61284</title>
<ellipse fill="none" stroke="black" cx="3478.66" cy="-1022.72" rx="208.48" ry="208.48"/>
<text text-anchor="middle" x="3478.66" y="-1017.67" font-family="Times,serif" font-size="14.00">WHAT WAS THE LOCATION OF THE INCIDENT</text>
</g>
<!-- 61283&#45;&gt;61284 -->
<g id="edge12" class="edge">
<title>61283&#45;&gt;61284</title>
<path fill="none" stroke="black" d="M3118.12,-475.18C3189.99,-584.63 3283.47,-727 3357.11,-839.13"/>
<polygon fill="black" stroke="black" points="3354.02,-840.81 3362.44,-847.25 3359.87,-836.97 3354.02,-840.81"/>
<text text-anchor="middle" x="3239.44" y="-667.42" font-family="Times,serif" font-size="14.00">YES</text>
</g>
<!-- 61285 -->
<g id="node9" class="node">
<title>61285</title>
<ellipse fill="none" stroke="black" cx="4108.12" cy="-1022.72" rx="143.48" ry="143.48"/>
<text text-anchor="middle" x="4108.12" y="-1017.67" font-family="Times,serif" font-size="14.00">WAS THIS A SEXUAL ASSAULT</text>
</g>
<!-- 61283&#45;&gt;61285 -->
<g id="edge13" class="edge">
<title>61283&#45;&gt;61285</title>
<path fill="none" stroke="black" d="M3198.56,-241.45C3406.38,-184.93 3736.4,-135.24 3946.64,-303.72 4033.18,-373.07 4076.11,-678.41 4094.81,-868.19"/>
<polygon fill="black" stroke="black" points="4091.3,-868.27 4095.75,-877.88 4098.27,-867.59 4091.3,-868.27"/>
<text text-anchor="middle" x="3478.66" y="-224.74" font-family="Times,serif" font-size="14.00">NO</text>
</g>
<!-- 61284&#45;&gt;61285 -->
<g id="edge14" class="edge">
<title>61284&#45;&gt;61285</title>
<path fill="none" stroke="black" d="M3520.27,-1227.21C3560.32,-1405.5 3626.79,-1644.21 3705.14,-1700.72 3726.9,-1716.42 3925.59,-1717.37 3946.64,-1700.72 4027.62,-1636.67 4071.96,-1356.54 4092.51,-1177"/>
<polygon fill="black" stroke="black" points="4095.99,-1177.43 4093.63,-1167.1 4089.03,-1176.64 4095.99,-1177.43"/>
<text text-anchor="middle" x="3825.89" y="-1716.05" font-family="Times,serif" font-size="14.00">ADMINISTRATION</text>
</g>
<!-- 61284&#45;&gt;61285 -->
<g id="edge15" class="edge">
<title>61284&#45;&gt;61285</title>
<path fill="none" stroke="black" d="M3492.78,-1231.13C3514.17,-1377.65 3568.58,-1564.14 3705.14,-1660.72 3727.05,-1676.21 3925.48,-1677.22 3946.64,-1660.72 4022.18,-1601.83 4067.62,-1346.22 4089.98,-1176.96"/>
<polygon fill="black" stroke="black" points="4093.43,-1177.55 4091.26,-1167.18 4086.49,-1176.65 4093.43,-1177.55"/>
<text text-anchor="middle" x="3825.89" y="-1675.92" font-family="Times,serif" font-size="14.00">ASSOCIATION AREA</text>
</g>
<!-- 61284&#45;&gt;61285 -->
<g id="edge16" class="edge">
<title>61284&#45;&gt;61285</title>
<path fill="none" stroke="black" d="M3498.82,-1230.5C3523.33,-1366.05 3578.98,-1533.46 3705.14,-1620.72 3727.21,-1635.98 3925.35,-1637.05 3946.64,-1620.72 4016.81,-1566.89 4063.08,-1335.19 4087.18,-1176.52"/>
<polygon fill="black" stroke="black" points="4090.62,-1177.14 4088.65,-1166.73 4083.7,-1176.1 4090.62,-1177.14"/>
<text text-anchor="middle" x="3825.89" y="-1635.77" font-family="Times,serif" font-size="14.00">CELL</text>
</g>
<!-- 61284&#45;&gt;61285 -->
<g id="edge17" class="edge">
<title>61284&#45;&gt;61285</title>
<path fill="none" stroke="black" d="M3505.62,-1229.82C3533.04,-1354.05 3589.39,-1502.65 3705.14,-1580.72 3727.38,-1595.72 3925.2,-1596.86 3946.64,-1580.72 4011.5,-1531.88 4058.28,-1323.55 4084.05,-1175.79"/>
<polygon fill="black" stroke="black" points="4087.43,-1176.76 4085.68,-1166.31 4080.53,-1175.57 4087.43,-1176.76"/>
<text text-anchor="middle" x="3825.89" y="-1595.6" font-family="Times,serif" font-size="14.00">CHAPEL</text>
</g>
<!-- 61284&#45;&gt;61285 -->
<g id="edge18" class="edge">
<title>61284&#45;&gt;61285</title>
<path fill="none" stroke="black" d="M3513.3,-1228.79C3543.33,-1341.39 3599.72,-1471.64 3705.14,-1540.72 3727.58,-1555.43 3925.04,-1556.64 3946.64,-1540.72 4006.18,-1496.84 4053.08,-1311.69 4080.43,-1175.22"/>
<polygon fill="black" stroke="black" points="4083.8,-1176.22 4082.32,-1165.73 4076.94,-1174.85 4083.8,-1176.22"/>
<text text-anchor="middle" x="3825.89" y="-1555.41" font-family="Times,serif" font-size="14.00">DINING ROOM</text>
</g>
<!-- 61284&#45;&gt;61285 -->
<g id="edge19" class="edge">
<title>61284&#45;&gt;61285</title>
<path fill="none" stroke="black" d="M3521.92,-1227.09C3554.16,-1327.81 3609.92,-1440.35 3705.14,-1500.72 3727.8,-1515.09 3924.85,-1516.39 3946.64,-1500.72 4048.16,-1427.72 4086.35,-1287.36 4100.28,-1177.54"/>
<polygon fill="black" stroke="black" points="4103.72,-1178.19 4101.45,-1167.84 4096.77,-1177.35 4103.72,-1178.19"/>
<text text-anchor="middle" x="3825.89" y="-1515.18" font-family="Times,serif" font-size="14.00">DORMITORY</text>
</g>
<!-- 61284&#45;&gt;61285 -->
<g id="edge20" class="edge">
<title>61284&#45;&gt;61285</title>
<path fill="none" stroke="black" d="M3531.67,-1224.65C3565.62,-1313.26 3619.98,-1408.78 3705.14,-1460.72 3728.05,-1474.69 3924.64,-1476.09 3946.64,-1460.72 4037.65,-1397.14 4077.21,-1276.05 4094.32,-1177.27"/>
<polygon fill="black" stroke="black" points="4097.76,-1177.89 4095.95,-1167.45 4090.86,-1176.74 4097.76,-1177.89"/>
<text text-anchor="middle" x="3825.89" y="-1474.93" font-family="Times,serif" font-size="14.00">EDUCATION</text>
</g>
<!-- 61284&#45;&gt;61285 -->
<g id="edge21" class="edge">
<title>61284&#45;&gt;61285</title>
<path fill="none" stroke="black" d="M3542.86,-1221.54C3577.9,-1297.79 3630.01,-1376.93 3705.14,-1420.72 3728.32,-1434.23 3924.4,-1435.73 3946.64,-1420.72 4027.32,-1366.26 4067.45,-1263.71 4087.4,-1176.35"/>
<polygon fill="black" stroke="black" points="4090.79,-1177.22 4089.53,-1166.7 4083.96,-1175.72 4090.79,-1177.22"/>
<text text-anchor="middle" x="3825.89" y="-1434.62" font-family="Times,serif" font-size="14.00">EXERCISE YARD</text>
</g>
<!-- 61284&#45;&gt;61285 -->
<g id="edge22" class="edge">
<title>61284&#45;&gt;61285</title>
<path fill="none" stroke="black" d="M3555.33,-1216.67C3590.67,-1280.64 3639.71,-1344.6 3705.14,-1380.72 3728.63,-1393.69 3924.12,-1395.31 3946.64,-1380.72 4017.21,-1335.02 4057.04,-1250.15 4079.36,-1174.51"/>
<polygon fill="black" stroke="black" points="4082.59,-1175.94 4081.98,-1165.36 4075.86,-1174.01 4082.59,-1175.94"/>
<text text-anchor="middle" x="3825.89" y="-1394.26" font-family="Times,serif" font-size="14.00">GATE</text>
</g>
<!-- 61284&#45;&gt;61285 -->
<g id="edge23" class="edge">
<title>61284&#45;&gt;61285</title>
<path fill="none" stroke="black" d="M3569.76,-1210.58C3604.42,-1262.22 3649.37,-1311.9 3705.14,-1340.72 3728.98,-1353.04 3923.79,-1354.78 3946.64,-1340.72 4007,-1303.57 4045.48,-1235.94 4069.57,-1172.57"/>
<polygon fill="black" stroke="black" points="4072.76,-1174.04 4072.94,-1163.45 4066.19,-1171.62 4072.76,-1174.04"/>
<text text-anchor="middle" x="3825.89" y="-1353.82" font-family="Times,serif" font-size="14.00">GYM</text>
</g>
<!-- 61284&#45;&gt;61285 -->
<g id="edge24" class="edge">
<title>61284&#45;&gt;61285</title>
<path fill="none" stroke="black" d="M3585.91,-1201.96C3618.75,-1241.73 3658.72,-1278.6 3705.14,-1300.72 3753.59,-1323.81 3900.16,-1327.56 3946.64,-1300.72 3996.97,-1271.66 4032.93,-1220.13 4057.87,-1169.27"/>
<polygon fill="black" stroke="black" points="4060.92,-1171.01 4062.06,-1160.48 4054.6,-1168 4060.92,-1171.01"/>
<text text-anchor="middle" x="3825.89" y="-1322.67" font-family="Times,serif" font-size="14.00">HEALTH CARE CENTRE</text>
</g>
<!-- 61284&#45;&gt;61285 -->
<g id="edge25" class="edge">
<title>61284&#45;&gt;61285</title>
<path fill="none" stroke="black" d="M3603.63,-1190.04C3633.42,-1218.8 3667.62,-1244.58 3705.14,-1260.72 3754.44,-1281.93 3899.26,-1285.92 3946.64,-1260.72 3987.37,-1239.06 4019.63,-1201.94 4044.22,-1163.37"/>
<polygon fill="black" stroke="black" points="4046.89,-1165.71 4049.19,-1155.36 4040.94,-1162.02 4046.89,-1165.71"/>
<text text-anchor="middle" x="3825.89" y="-1281.35" font-family="Times,serif" font-size="14.00">KITCHEN</text>
</g>
<!-- 61284&#45;&gt;61285 -->
<g id="edge26" class="edge">
<title>61284&#45;&gt;61285</title>
<path fill="none" stroke="black" d="M3622.67,-1174.05C3648.2,-1193.11 3676.01,-1209.75 3705.14,-1220.72 3755.36,-1239.64 3898.19,-1243.81 3946.64,-1220.72 3977.81,-1205.86 4004.9,-1181.65 4027.48,-1155.18"/>
<polygon fill="black" stroke="black" points="4030.01,-1157.62 4033.69,-1147.68 4024.62,-1153.15 4030.01,-1157.62"/>
<text text-anchor="middle" x="3825.89" y="-1239.71" font-family="Times,serif" font-size="14.00">OFFICE</text>
</g>
<!-- 61284&#45;&gt;61285 -->
<g id="edge27" class="edge">
<title>61284&#45;&gt;61285</title>
<path fill="none" stroke="black" d="M3641.97,-1153C3662.33,-1164.26 3683.6,-1173.92 3705.14,-1180.72 3756.32,-1196.87 3896.98,-1201.06 3946.64,-1180.72 3969.07,-1171.53 3990.05,-1157.52 4008.97,-1141.57"/>
<polygon fill="black" stroke="black" points="4011.14,-1144.32 4016.37,-1135.11 4006.53,-1139.05 4011.14,-1144.32"/>
<text text-anchor="middle" x="3825.89" y="-1197.65" font-family="Times,serif" font-size="14.00">RECEPTION</text>
</g>
<!-- 61284&#45;&gt;61285 -->
<g id="edge28" class="edge">
<title>61284&#45;&gt;61285</title>
<path fill="none" stroke="black" d="M3660.07,-1126.45C3675,-1132.14 3690.12,-1137.03 3705.14,-1140.72 3757.25,-1153.53 3895.65,-1157.45 3946.64,-1140.72 3961.05,-1135.99 3975.23,-1129.42 3988.84,-1121.78"/>
<polygon fill="black" stroke="black" points="3990.48,-1124.87 3997.34,-1116.8 3986.94,-1118.83 3990.48,-1124.87"/>
<text text-anchor="middle" x="3825.89" y="-1155.04" font-family="Times,serif" font-size="14.00">RECESS</text>
</g>
<!-- 61284&#45;&gt;61285 -->
<g id="edge29" class="edge">
<title>61284&#45;&gt;61285</title>
<path fill="none" stroke="black" d="M3674.79,-1094.59C3684.97,-1096.96 3695.13,-1099.04 3705.14,-1100.72 3810.99,-1118.51 3842.04,-1124.79 3946.64,-1100.72 3954.53,-1098.9 3962.47,-1096.65 3970.39,-1094.06"/>
<polygon fill="black" stroke="black" points="3971.42,-1097.41 3979.72,-1090.83 3969.13,-1090.79 3971.42,-1097.41"/>
<text text-anchor="middle" x="3825.89" y="-1119.71" font-family="Times,serif" font-size="14.00">SEGREGATION UNIT</text>
</g>
<!-- 61284&#45;&gt;61285 -->
<g id="edge30" class="edge">
<title>61284&#45;&gt;61285</title>
<path fill="none" stroke="black" d="M3684.4,-1058.74C3691.39,-1059.48 3698.31,-1060.15 3705.14,-1060.72 3812.1,-1069.67 3840.03,-1073.17 3946.64,-1060.72 3950.26,-1060.3 3953.93,-1059.82 3957.61,-1059.3"/>
<polygon fill="black" stroke="black" points="3957.88,-1062.8 3967.24,-1057.83 3956.83,-1055.88 3957.88,-1062.8"/>
<text text-anchor="middle" x="3825.89" y="-1072" font-family="Times,serif" font-size="14.00">SPECIAL UNIT</text>
</g>
<!-- 61284&#45;&gt;61285 -->
<g id="edge31" class="edge">
<title>61284&#45;&gt;61285</title>
<path fill="none" stroke="black" d="M3687.29,-1022.72C3774.03,-1022.72 3873.03,-1022.72 3953.1,-1022.72"/>
<polygon fill="black" stroke="black" points="3952.76,-1026.22 3962.76,-1022.72 3952.76,-1019.22 3952.76,-1026.22"/>
<text text-anchor="middle" x="3825.89" y="-1025.92" font-family="Times,serif" font-size="14.00">SHOWERS/CHANGING ROOM</text>
</g>
<!-- 61284&#45;&gt;61285 -->
<g id="edge32" class="edge">
<title>61284&#45;&gt;61285</title>
<path fill="none" stroke="black" d="M3686.64,-1003.17C3692.88,-1002.81 3699.05,-1002.5 3705.14,-1002.22 3812.36,-997.36 3839.52,-995.41 3946.64,-1002.22 3949.14,-1002.38 3951.67,-1002.55 3954.21,-1002.74"/>
<polygon fill="black" stroke="black" points="3953.69,-1006.21 3963.94,-1003.51 3954.25,-999.23 3953.69,-1006.21"/>
<text text-anchor="middle" x="3825.89" y="-1005.42" font-family="Times,serif" font-size="14.00">VISITS</text>
</g>
<!-- 61284&#45;&gt;61285 -->
<g id="edge33" class="edge">
<title>61284&#45;&gt;61285</title>
<path fill="none" stroke="black" d="M3683.1,-979.76C3690.52,-978.8 3697.89,-977.94 3705.14,-977.22 3811.94,-966.55 3840.33,-962.44 3946.64,-977.22 3950.95,-977.82 3955.31,-978.51 3959.7,-979.27"/>
<polygon fill="black" stroke="black" points="3958.69,-982.64 3969.16,-981.03 3959.97,-975.76 3958.69,-982.64"/>
<text text-anchor="middle" x="3825.89" y="-980.42" font-family="Times,serif" font-size="14.00">WING</text>
</g>
<!-- 61284&#45;&gt;61285 -->
<g id="edge34" class="edge">
<title>61284&#45;&gt;61285</title>
<path fill="none" stroke="black" d="M3675.47,-953.01C3685.43,-950.77 3695.36,-948.81 3705.14,-947.22 3811.07,-929.96 3841.89,-923.81 3946.64,-947.22 3954.2,-948.91 3961.82,-950.99 3969.42,-953.38"/>
<polygon fill="black" stroke="black" points="3968.11,-956.64 3978.7,-956.47 3970.32,-949.99 3968.11,-956.64"/>
<text text-anchor="middle" x="3825.89" y="-950.42" font-family="Times,serif" font-size="14.00">WORKS DEPARTMENT</text>
</g>
<!-- 61284&#45;&gt;61285 -->
<g id="edge35" class="edge">
<title>61284&#45;&gt;61285</title>
<path fill="none" stroke="black" d="M3662.6,-923.88C3676.73,-918.85 3691,-914.52 3705.14,-911.22 3809.65,-886.79 3844.21,-879.13 3946.64,-911.22 3959.92,-915.38 3973.07,-921.07 3985.78,-927.7"/>
<polygon fill="black" stroke="black" points="3984.1,-930.77 3994.55,-932.48 3987.45,-924.62 3984.1,-930.77"/>
<text text-anchor="middle" x="3825.89" y="-914.42" font-family="Times,serif" font-size="14.00">WORKSHOP</text>
</g>
<!-- 61284&#45;&gt;61285 -->
<g id="edge36" class="edge">
<title>61284&#45;&gt;61285</title>
<path fill="none" stroke="black" d="M3643.89,-895.25C3663.7,-884.7 3684.32,-875.63 3705.14,-869.22 3807.71,-837.62 3847.03,-829.25 3946.64,-869.22 3968.2,-877.87 3988.51,-890.96 4006.95,-905.91"/>
<polygon fill="black" stroke="black" points="4004.22,-908.19 4014.13,-911.93 4008.72,-902.83 4004.22,-908.19"/>
<text text-anchor="middle" x="3825.89" y="-872.42" font-family="Times,serif" font-size="14.00">WITHIN PERIMETER</text>
</g>
<!-- 61284&#45;&gt;61285 -->
<g id="edge37" class="edge">
<title>61284&#45;&gt;61285</title>
<path fill="none" stroke="black" d="M3621.49,-870.23C3647.3,-850.62 3675.52,-833.49 3705.14,-822.22 3805.46,-784.07 3849.89,-775.74 3946.64,-822.22 3978.37,-837.47 4005.79,-862.38 4028.55,-889.55"/>
<polygon fill="black" stroke="black" points="4025.79,-891.71 4034.81,-897.26 4031.22,-887.29 4025.79,-891.71"/>
<text text-anchor="middle" x="3825.89" y="-825.42" font-family="Times,serif" font-size="14.00">ELSEWHERE</text>
</g>
<!-- 61284&#45;&gt;61285 -->
<g id="edge38" class="edge">
<title>61284&#45;&gt;61285</title>
<path fill="none" stroke="black" d="M3596.86,-850.84C3627.94,-818.14 3664.37,-788.47 3705.14,-770.22 3754.12,-748.29 3899.6,-744.38 3946.64,-770.22 3990.67,-794.41 4024.33,-836.36 4049.18,-879.2"/>
<polygon fill="black" stroke="black" points="4046.13,-880.91 4054.09,-887.9 4052.23,-877.47 4046.13,-880.91"/>
<text text-anchor="middle" x="3825.89" y="-773.42" font-family="Times,serif" font-size="14.00">FUNERAL</text>
</g>
<!-- 61284&#45;&gt;61285 -->
<g id="edge39" class="edge">
<title>61284&#45;&gt;61285</title>
<path fill="none" stroke="black" d="M3580.66,-840.49C3614.2,-797.07 3655.83,-756.37 3705.14,-732.22 3753.34,-708.62 3900.42,-704.95 3946.64,-732.22 4000.13,-763.78 4037.02,-820.27 4061.82,-875.09"/>
<polygon fill="black" stroke="black" points="4058.47,-876.17 4065.7,-883.92 4064.88,-873.35 4058.47,-876.17"/>
<text text-anchor="middle" x="3825.89" y="-735.42" font-family="Times,serif" font-size="14.00">HOSPITAL OUTSIDE (PATIENT)</text>
</g>
<!-- 61284&#45;&gt;61285 -->
<g id="edge40" class="edge">
<title>61284&#45;&gt;61285</title>
<path fill="none" stroke="black" d="M3564.98,-832.86C3599.97,-777.35 3646.33,-723.29 3705.14,-692.22 3752.59,-667.15 3901.15,-663.74 3946.64,-692.22 4010.02,-731.9 4049,-804.54 4072.64,-871.64"/>
<polygon fill="black" stroke="black" points="4069.27,-872.59 4075.82,-880.92 4075.89,-870.33 4069.27,-872.59"/>
<text text-anchor="middle" x="3825.89" y="-695.42" font-family="Times,serif" font-size="14.00">HOSPITAL OUTSIDE (VISITING)</text>
</g>
<!-- 61284&#45;&gt;61285 -->
<g id="edge41" class="edge">
<title>61284&#45;&gt;61285</title>
<path fill="none" stroke="black" d="M3550.91,-827.02C3586.25,-758.89 3636.43,-689.89 3705.14,-651.22 3751.91,-624.9 3901.79,-621.74 3946.64,-651.22 4020.66,-699.88 4060.7,-790.73 4082.27,-870.4"/>
<polygon fill="black" stroke="black" points="4078.76,-870.81 4084.68,-879.6 4085.53,-869.04 4078.76,-870.81"/>
<text text-anchor="middle" x="3825.89" y="-654.42" font-family="Times,serif" font-size="14.00">OUTSIDE WORKING PARTY</text>
</g>
<!-- 61284&#45;&gt;61285 -->
<g id="edge42" class="edge">
<title>61284&#45;&gt;61285</title>
<path fill="none" stroke="black" d="M3538.57,-822.8C3573.29,-742.01 3626.34,-656.95 3705.14,-610.22 3751.3,-582.85 3902.34,-579.92 3946.64,-610.22 4031.05,-667.96 4071.07,-777.15 4090.04,-868.69"/>
<polygon fill="black" stroke="black" points="4086.56,-869.16 4091.95,-878.28 4093.42,-867.79 4086.56,-869.16"/>
<text text-anchor="middle" x="3825.89" y="-613.42" font-family="Times,serif" font-size="14.00">SPORTS FIELD</text>
</g>
<!-- 61284&#45;&gt;61285 -->
<g id="edge43" class="edge">
<title>61284&#45;&gt;61285</title>
<path fill="none" stroke="black" d="M3527.53,-819.6C3560.85,-725.99 3615.87,-623.58 3705.14,-568.22 3750.75,-539.93 3902.83,-537.23 3946.64,-568.22 4041.97,-635.66 4081.05,-764.61 4096.88,-867.99"/>
<polygon fill="black" stroke="black" points="4093.39,-868.3 4098.3,-877.68 4100.32,-867.28 4093.39,-868.3"/>
<text text-anchor="middle" x="3825.89" y="-571.42" font-family="Times,serif" font-size="14.00">VEHICLE</text>
</g>
<!-- 61284&#45;&gt;61285 -->
<g id="edge44" class="edge">
<title>61284&#45;&gt;61285</title>
<path fill="none" stroke="black" d="M3517.54,-817.59C3548.75,-711.01 3604.91,-589.83 3705.14,-525.22 3750.24,-496.14 3903.25,-493.63 3946.64,-525.22 4003.46,-566.59 4050.27,-740.03 4078.38,-870.58"/>
<polygon fill="black" stroke="black" points="4074.88,-870.95 4080.39,-880 4081.73,-869.49 4074.88,-870.95"/>
<text text-anchor="middle" x="3825.89" y="-528.42" font-family="Times,serif" font-size="14.00">WEDDINGS</text>
</g>
<!-- 61284&#45;&gt;61285 -->
<g id="edge45" class="edge">
<title>61284&#45;&gt;61285</title>
<path fill="none" stroke="black" d="M3508.83,-816.16C3537.42,-696.95 3593.88,-556.36 3705.14,-482.22 3727.47,-467.34 3925.13,-466.17 3946.64,-482.22 4009.14,-528.86 4056.01,-726.86 4082.49,-869.71"/>
<polygon fill="black" stroke="black" points="4079,-870.07 4084.25,-879.27 4085.88,-868.8 4079,-870.07"/>
<text text-anchor="middle" x="3825.89" y="-485.42" font-family="Times,serif" font-size="14.00">MAGISTRATES COURT</text>
</g>
<!-- 61284&#45;&gt;61285 -->
<g id="edge46" class="edge">
<title>61284&#45;&gt;61285</title>
<path fill="none" stroke="black" d="M3503.05,-815.39C3529.44,-687.02 3585.61,-531.61 3705.14,-450.22 3749.5,-420.01 3903.87,-417.8 3946.64,-450.22 4013.39,-500.83 4060.01,-717.41 4085.19,-869.15"/>
<polygon fill="black" stroke="black" points="4081.72,-869.62 4086.79,-878.93 4088.63,-868.49 4081.72,-869.62"/>
<text text-anchor="middle" x="3825.89" y="-453.42" font-family="Times,serif" font-size="14.00">CROWN COURT</text>
</g>
<!-- 61284&#45;&gt;61285 -->
<g id="edge47" class="edge">
<title>61284&#45;&gt;61285</title>
<path fill="none" stroke="black" d="M3495.92,-814.75C3519,-674.07 3574.14,-497.8 3705.14,-406.22 3749.12,-375.47 3904.18,-373.4 3946.64,-406.22 4019.34,-462.42 4065.28,-705.45 4088.56,-869.06"/>
<polygon fill="black" stroke="black" points="4085.06,-869.29 4089.92,-878.71 4091.99,-868.32 4085.06,-869.29"/>
<text text-anchor="middle" x="3825.89" y="-409.42" font-family="Times,serif" font-size="14.00">INDUCTION/FIRST NIGHT CENTRE</text>
</g>
<!-- 61284&#45;&gt;61285 -->
<g id="edge48" class="edge">
<title>61284&#45;&gt;61285</title>
<path fill="none" stroke="black" d="M3489.63,-814.34C3509.16,-661.73 3562.61,-464.17 3705.14,-362.22 3726.96,-346.61 3925.54,-345.64 3946.64,-362.22 4025.22,-423.99 4070.07,-693.24 4091.43,-868.33"/>
<polygon fill="black" stroke="black" points="4087.95,-868.71 4092.62,-878.22 4094.9,-867.87 4087.95,-868.71"/>
<text text-anchor="middle" x="3825.89" y="-365.42" font-family="Times,serif" font-size="14.00">MAIL ROOM</text>
</g>
<!-- 61284&#45;&gt;61285 -->
<g id="edge49" class="edge">
<title>61284&#45;&gt;61285</title>
<path fill="none" stroke="black" d="M3518.67,-818C3558.14,-635.23 3624.73,-387.63 3705.14,-329.22 3748.56,-297.68 3904.63,-295.82 3946.64,-329.22 4029.72,-395.27 4073.56,-684.93 4093.41,-868.37"/>
<polygon fill="black" stroke="black" points="4089.93,-868.68 4094.47,-878.25 4096.89,-867.93 4089.93,-868.68"/>
<text text-anchor="middle" x="3825.89" y="-332.42" font-family="Times,serif" font-size="14.00">VULNERABLE PRISONERS UNIT (VPU)</text>
</g>
<!-- 61284&#45;&gt;61285 -->
<g id="edge50" class="edge">
<title>61284&#45;&gt;61285</title>
<path fill="none" stroke="black" d="M3517.01,-1228.07C3555.84,-1415.81 3622.46,-1673.2 3705.14,-1733.72 3791.75,-1797.12 3862.8,-1800.74 3946.64,-1733.72 4032.06,-1665.43 4075.29,-1365.24 4094.36,-1177.43"/>
<polygon fill="black" stroke="black" points="4097.83,-1177.86 4095.34,-1167.57 4090.87,-1177.17 4097.83,-1177.86"/>
<text text-anchor="middle" x="3825.89" y="-1785.83" font-family="Times,serif" font-size="14.00">EXTERNAL ROOF</text>
</g>
<!-- 61286 -->
<g id="node10" class="node">
<title>61286</title>
<ellipse fill="none" stroke="black" cx="4512.87" cy="-1022.72" rx="199.78" ry="199.78"/>
<text text-anchor="middle" x="4512.87" y="-1017.67" font-family="Times,serif" font-size="14.00">DID THE ASSAULT OCCUR DURING A FIGHT</text>
</g>
<!-- 61285&#45;&gt;61286 -->
<g id="edge51" class="edge">
<title>61285&#45;&gt;61286</title>
<path fill="none" stroke="black" d="M4251.96,-1022.72C4267.95,-1022.72 4284.48,-1022.72 4301.09,-1022.72"/>
<polygon fill="black" stroke="black" points="4301.09,-1026.22 4311.09,-1022.72 4301.09,-1019.22 4301.09,-1026.22"/>
<text text-anchor="middle" x="4282.34" y="-1025.92" font-family="Times,serif" font-size="14.00">YES</text>
</g>
<!-- 61285&#45;&gt;61286 -->
<g id="edge52" class="edge">
<title>61285&#45;&gt;61286</title>
<path fill="none" stroke="black" d="M4250.78,-1003.63C4257.13,-1003.09 4263.43,-1002.61 4269.59,-1002.22 4280.41,-1001.53 4291.5,-1001.19 4302.7,-1001.13"/>
<polygon fill="black" stroke="black" points="4302.4,-1004.63 4312.41,-1001.15 4302.42,-997.63 4302.4,-1004.63"/>
<text text-anchor="middle" x="4282.34" y="-1005.42" font-family="Times,serif" font-size="14.00">NO</text>
</g>
<!-- 61287 -->
<g id="node11" class="node">
<title>61287</title>
<ellipse fill="none" stroke="black" cx="4927.34" cy="-1022.72" rx="153.2" ry="153.2"/>
<text text-anchor="middle" x="4927.34" y="-1017.67" font-family="Times,serif" font-size="14.00">WHAT TYPE OF ASSAULT WAS IT</text>
</g>
<!-- 61286&#45;&gt;61287 -->
<g id="edge53" class="edge">
<title>61286&#45;&gt;61287</title>
<path fill="none" stroke="black" d="M4712.86,-1022.72C4729.51,-1022.72 4746.23,-1022.72 4762.58,-1022.72"/>
<polygon fill="black" stroke="black" points="4762.31,-1026.22 4772.31,-1022.72 4762.31,-1019.22 4762.31,-1026.22"/>
<text text-anchor="middle" x="4743.39" y="-1025.92" font-family="Times,serif" font-size="14.00">YES</text>
</g>
<!-- 61286&#45;&gt;61287 -->
<g id="edge54" class="edge">
<title>61286&#45;&gt;61287</title>
<path fill="none" stroke="black" d="M4711.81,-1001.27C4726.81,-1001.09 4741.71,-1001.35 4756.14,-1002.22 4758.68,-1002.37 4761.23,-1002.54 4763.8,-1002.71"/>
<polygon fill="black" stroke="black" points="4763.42,-1006.19 4773.65,-1003.45 4763.94,-999.21 4763.42,-1006.19"/>
<text text-anchor="middle" x="4743.39" y="-1005.42" font-family="Times,serif" font-size="14.00">NO</text>
</g>
<!-- 61288 -->
<g id="node12" class="node">
<title>61288</title>
<ellipse fill="none" stroke="black" cx="5419.06" cy="-1062.72" rx="145.01" ry="145.01"/>
<text text-anchor="middle" x="5419.06" y="-1057.67" font-family="Times,serif" font-size="14.00">WERE ANY STAFF ASSAULTED</text>
</g>
<!-- 61287&#45;&gt;61288 -->
<g id="edge55" class="edge">
<title>61287&#45;&gt;61288</title>
<path fill="none" stroke="black" d="M5080.6,-1031.18C5135.9,-1034.66 5198.83,-1039.08 5256.05,-1044.22 5258.41,-1044.43 5260.8,-1044.65 5263.2,-1044.88"/>
<polygon fill="black" stroke="black" points="5262.75,-1048.35 5273.04,-1045.82 5263.41,-1041.38 5262.75,-1048.35"/>
<text text-anchor="middle" x="5177.3" y="-1047.42" font-family="Times,serif" font-size="14.00">PRISONER ON PRISONER</text>
</g>
<!-- 61287&#45;&gt;61288 -->
<g id="edge57" class="edge">
<title>61287&#45;&gt;61288</title>
<path fill="none" stroke="black" d="M5079.94,-1006.36C5135.59,-1003.37 5198.93,-1003.52 5256.05,-1012.22 5260.72,-1012.93 5265.44,-1013.75 5270.18,-1014.66"/>
<polygon fill="black" stroke="black" points="5269.31,-1018.06 5279.81,-1016.65 5270.72,-1011.2 5269.31,-1018.06"/>
<text text-anchor="middle" x="5177.3" y="-1015.42" font-family="Times,serif" font-size="14.00">PRISONER ON OTHER</text>
</g>
<!-- 61287&#45;&gt;61288 -->
<g id="edge58" class="edge">
<title>61287&#45;&gt;61288</title>
<path fill="none" stroke="black" d="M5076.55,-1057.76C5083.96,-1058.9 5091.33,-1059.9 5098.55,-1060.72 5151.69,-1066.75 5210.13,-1068.52 5262.34,-1068.39"/>
<polygon fill="black" stroke="black" points="5262.23,-1071.89 5272.21,-1068.33 5262.2,-1064.89 5262.23,-1071.89"/>
<text text-anchor="middle" x="5177.3" y="-1071.59" font-family="Times,serif" font-size="14.00">OTHER</text>
</g>
<!-- 61289 -->
<g id="node13" class="node">
<title>61289</title>
<ellipse fill="none" stroke="black" cx="5770.58" cy="-882.72" rx="145.01" ry="145.01"/>
<text text-anchor="middle" x="5770.58" y="-877.67" font-family="Times,serif" font-size="14.00">DESCRIBE THE TYPE OF STAFF</text>
</g>
<!-- 61287&#45;&gt;61289 -->
<g id="edge56" class="edge">
<title>61287&#45;&gt;61289</title>
<path fill="none" stroke="black" d="M5066.46,-958.18C5128.5,-932.47 5203.49,-905.79 5274.05,-892.22 5386.53,-870.58 5516.02,-868.88 5614.42,-872.23"/>
<polygon fill="black" stroke="black" points="5614.02,-875.72 5624.14,-872.58 5614.28,-868.72 5614.02,-875.72"/>
<text text-anchor="middle" x="5419.06" y="-895.42" font-family="Times,serif" font-size="14.00">PRISONER ON STAFF</text>
</g>
<!-- 61288&#45;&gt;61289 -->
<g id="edge60" class="edge">
<title>61288&#45;&gt;61289</title>
<path fill="none" stroke="black" d="M5548.22,-996.72C5575.21,-982.82 5603.79,-968.1 5631.13,-954.02"/>
<polygon fill="black" stroke="black" points="5632.51,-957.25 5639.8,-949.56 5629.3,-951.03 5632.51,-957.25"/>
<text text-anchor="middle" x="5594.82" y="-981.32" font-family="Times,serif" font-size="14.00">YES</text>
</g>
<!-- 61290 -->
<g id="node14" class="node">
<title>61290</title>
<ellipse fill="none" stroke="black" cx="6389.21" cy="-922.72" rx="181.86" ry="181.86"/>
<text text-anchor="middle" x="6389.21" y="-917.67" font-family="Times,serif" font-size="14.00">WAS SPITTING USED IN THIS INCIDENT</text>
</g>
<!-- 61288&#45;&gt;61290 -->
<g id="edge59" class="edge">
<title>61288&#45;&gt;61290</title>
<path fill="none" stroke="black" d="M5564.37,-1061.88C5663.58,-1059.66 5798.1,-1053.4 5915.6,-1036.72 6039.3,-1019.16 6067.92,-1002.18 6189.35,-972.72 6193.39,-971.74 6197.48,-970.74 6201.6,-969.74"/>
<polygon fill="black" stroke="black" points="6202.23,-973.19 6211.11,-967.41 6200.56,-966.39 6202.23,-973.19"/>
<text text-anchor="middle" x="5770.58" y="-1063.28" font-family="Times,serif" font-size="14.00">NO</text>
</g>
<!-- 61289&#45;&gt;61290 -->
<g id="edge61" class="edge">
<title>61289&#45;&gt;61290</title>
<path fill="none" stroke="black" d="M5906.35,-934.82C5915.48,-937.15 5924.62,-939.16 5933.6,-940.72 6019.35,-955.61 6115.51,-954.34 6197.23,-948.07"/>
<polygon fill="black" stroke="black" points="6197.47,-951.57 6207.15,-947.28 6196.91,-944.59 6197.47,-951.57"/>
<text text-anchor="middle" x="6061.47" y="-955.69" font-family="Times,serif" font-size="14.00">OPERATIONAL STAFF &#45; PRISON OFFICER</text>
</g>
<!-- 61289&#45;&gt;61290 -->
<g id="edge62" class="edge">
<title>61289&#45;&gt;61290</title>
<path fill="none" stroke="black" d="M5915.09,-899.14C5921.34,-899.71 5927.53,-900.24 5933.6,-900.72 6019.55,-907.57 6114.82,-912.57 6195.85,-916.07"/>
<polygon fill="black" stroke="black" points="6195.54,-919.56 6205.68,-916.48 6195.84,-912.56 6195.54,-919.56"/>
<text text-anchor="middle" x="6061.47" y="-918.6" font-family="Times,serif" font-size="14.00">OPERATIONAL STAFF &#45; OTHER</text>
</g>
<!-- 61289&#45;&gt;61290 -->
<g id="edge63" class="edge">
<title>61289&#45;&gt;61290</title>
<path fill="none" stroke="black" d="M5916.01,-880.38C5921.95,-880.32 5927.83,-880.26 5933.6,-880.22 6047.26,-879.34 6076.31,-868.28 6189.35,-880.22 6192.99,-880.6 6196.66,-881.03 6200.36,-881.49"/>
<polygon fill="black" stroke="black" points="6199.64,-884.92 6210.01,-882.76 6200.55,-877.98 6199.64,-884.92"/>
<text text-anchor="middle" x="6061.47" y="-883.42" font-family="Times,serif" font-size="14.00">NON&#45;OPERATIONAL STAFF</text>
</g>
<!-- 61289&#45;&gt;61290 -->
<g id="edge64" class="edge">
<title>61289&#45;&gt;61290</title>
<path fill="none" stroke="black" d="M5913.55,-856.69C5994.76,-845.87 6098.29,-838.98 6189.35,-854.22 6195.25,-855.21 6201.22,-856.35 6207.22,-857.63"/>
<polygon fill="black" stroke="black" points="6206.03,-860.95 6216.56,-859.73 6207.57,-854.12 6206.03,-860.95"/>
<text text-anchor="middle" x="6061.47" y="-857.42" font-family="Times,serif" font-size="14.00">NON&#45;DIRECTLY EMPLOYED STAFF</text>
</g>
<!-- 61294 -->
<g id="node15" class="node">
<title>61294</title>
<ellipse fill="none" stroke="black" cx="8728.09" cy="-844.72" rx="132.73" ry="132.73"/>
<text text-anchor="middle" x="8728.09" y="-839.67" font-family="Times,serif" font-size="14.00">WERE ANY WEAPONS USED</text>
</g>
<!-- 61290&#45;&gt;61294 -->
<g id="edge65" class="edge">
<title>61290&#45;&gt;61294</title>
<path fill="none" stroke="black" d="M6506.71,-1061.72C6543.21,-1096 6586.2,-1128.4 6632.57,-1147.72 6821.16,-1226.3 6887.55,-1166.72 7091.86,-1166.72 7091.86,-1166.72 7091.86,-1166.72 8356.82,-1166.72 8483.04,-1166.72 8587.18,-1058.86 8652.53,-968"/>
<polygon fill="black" stroke="black" points="8655.31,-970.11 8658.24,-959.93 8649.6,-966.06 8655.31,-970.11"/>
<text text-anchor="middle" x="7908.59" y="-1169.92" font-family="Times,serif" font-size="14.00">NO</text>
</g>
<!-- 61291 -->
<g id="node16" class="node">
<title>61291</title>
<ellipse fill="none" stroke="black" cx="7092.86" cy="-678.72" rx="460.29" ry="460.29"/>
<text text-anchor="middle" x="7092.86" y="-673.67" font-family="Times,serif" font-size="14.00">IS THE ASSAILANT KNOWN TO HAVE AN INFECTIOUS DISEASE THAT CAN BE TRANSMITTED IN SALIVA</text>
</g>
<!-- 61290&#45;&gt;61291 -->
<g id="edge66" class="edge">
<title>61290&#45;&gt;61291</title>
<path fill="none" stroke="black" d="M6561.4,-863.19C6588.35,-853.82 6617.23,-843.77 6647.09,-833.39"/>
<polygon fill="black" stroke="black" points="6647.96,-836.79 6656.26,-830.2 6645.66,-830.18 6647.96,-836.79"/>
<text text-anchor="middle" x="6601.82" y="-853.82" font-family="Times,serif" font-size="14.00">YES</text>
</g>
<!-- 61295 -->
<g id="node19" class="node">
<title>61295</title>
<ellipse fill="none" stroke="black" cx="9070.91" cy="-1061.72" rx="148.59" ry="148.59"/>
<text text-anchor="middle" x="9070.91" y="-1056.67" font-family="Times,serif" font-size="14.00">DESCRIBE THE WEAPONS USED</text>
</g>
<!-- 61294&#45;&gt;61295 -->
<g id="edge75" class="edge">
<title>61294&#45;&gt;61295</title>
<path fill="none" stroke="black" d="M8840.69,-915.77C8870.95,-935.04 8904.03,-956.1 8935.41,-976.08"/>
<polygon fill="black" stroke="black" points="8933.49,-979.01 8943.81,-981.43 8937.25,-973.11 8933.49,-979.01"/>
<text text-anchor="middle" x="8891.57" y="-956.42" font-family="Times,serif" font-size="14.00">YES</text>
</g>
<!-- 61296 -->
<g id="node20" class="node">
<title>61296</title>
<ellipse fill="none" stroke="black" cx="9695.09" cy="-1061.72" rx="256.59" ry="256.59"/>
<text text-anchor="middle" x="9695.09" y="-1056.67" font-family="Times,serif" font-size="14.00">WERE ANY INJURIES RECEIVED DURING THIS INCIDENT</text>
</g>
<!-- 61294&#45;&gt;61296 -->
<g id="edge76" class="edge">
<title>61294&#45;&gt;61296</title>
<path fill="none" stroke="black" d="M8861.04,-839.47C9002.64,-837.64 9232.53,-845.77 9420.51,-904.72 9435.79,-909.51 9451.15,-915.26 9466.38,-921.68"/>
<polygon fill="black" stroke="black" points="9464.94,-924.87 9475.5,-925.63 9467.72,-918.45 9464.94,-924.87"/>
<text text-anchor="middle" x="9070.91" y="-863.12" font-family="Times,serif" font-size="14.00">NO</text>
</g>
<!-- 61292 -->
<g id="node17" class="node">
<title>61292</title>
<ellipse fill="none" stroke="black" cx="7908.59" cy="-718.72" rx="293.95" ry="293.95"/>
<text text-anchor="middle" x="7908.59" y="-713.67" font-family="Times,serif" font-size="14.00">DID THE SALIVA HIT THE BODY OR CLOTHING OF THE VICTIM(S)</text>
</g>
<!-- 61291&#45;&gt;61292 -->
<g id="edge67" class="edge">
<title>61291&#45;&gt;61292</title>
<path fill="none" stroke="black" d="M7553.04,-701.29C7569.96,-702.12 7586.75,-702.95 7603.3,-703.76"/>
<polygon fill="black" stroke="black" points="7603.05,-707.25 7613.21,-704.25 7603.39,-700.26 7603.05,-707.25"/>
<text text-anchor="middle" x="7583.89" y="-706.09" font-family="Times,serif" font-size="14.00">NO</text>
</g>
<!-- 61291&#45;&gt;61292 -->
<g id="edge68" class="edge">
<title>61291&#45;&gt;61292</title>
<path fill="none" stroke="black" d="M7553.57,-679.87C7568.1,-680.56 7582.48,-681.34 7596.64,-682.22 7599.39,-682.39 7602.15,-682.57 7604.92,-682.75"/>
<polygon fill="black" stroke="black" points="7604.64,-686.24 7614.86,-683.45 7605.13,-679.26 7604.64,-686.24"/>
<text text-anchor="middle" x="7583.89" y="-685.42" font-family="Times,serif" font-size="14.00">YES</text>
</g>
<!-- 61292&#45;&gt;61294 -->
<g id="edge69" class="edge">
<title>61292&#45;&gt;61294</title>
<path fill="none" stroke="black" d="M8202.58,-703.16C8282.72,-704.36 8369.1,-710.74 8447.61,-727.22 8499.09,-738.03 8552.97,-758.3 8599.53,-779.01"/>
<polygon fill="black" stroke="black" points="8598.03,-782.17 8608.58,-783.09 8600.9,-775.79 8598.03,-782.17"/>
<text text-anchor="middle" x="8355.82" y="-730.42" font-family="Times,serif" font-size="14.00">NO</text>
</g>
<!-- 61293 -->
<g id="node18" class="node">
<title>61293</title>
<ellipse fill="none" stroke="black" cx="8355.82" cy="-844.72" rx="91.78" ry="91.78"/>
<text text-anchor="middle" x="8355.82" y="-839.67" font-family="Times,serif" font-size="14.00">WHERE DID IT HIT</text>
</g>
<!-- 61292&#45;&gt;61293 -->
<g id="edge70" class="edge">
<title>61292&#45;&gt;61293</title>
<path fill="none" stroke="black" d="M8191.88,-798.61C8214.56,-805.03 8236.35,-811.19 8256.2,-816.81"/>
<polygon fill="black" stroke="black" points="8255,-820.11 8265.57,-819.46 8256.9,-813.37 8255,-820.11"/>
<text text-anchor="middle" x="8233.29" y="-814.13" font-family="Times,serif" font-size="14.00">YES</text>
</g>
<!-- 61293&#45;&gt;61294 -->
<g id="edge71" class="edge">
<title>61293&#45;&gt;61294</title>
<path fill="none" stroke="black" d="M8446.61,-828.24C8453.02,-827.43 8459.4,-826.74 8465.61,-826.22 8504.2,-822.96 8546.03,-823.91 8584.68,-826.64"/>
<polygon fill="black" stroke="black" points="8584.28,-830.12 8594.51,-827.38 8584.8,-823.14 8584.28,-830.12"/>
<text text-anchor="middle" x="8521.48" y="-829.42" font-family="Times,serif" font-size="14.00">NECK OR ABOVE</text>
</g>
<!-- 61293&#45;&gt;61294 -->
<g id="edge72" class="edge">
<title>61293&#45;&gt;61294</title>
<path fill="none" stroke="black" d="M8440.88,-809.25C8449.13,-806.81 8457.46,-804.72 8465.61,-803.22 8514.45,-794.22 8528.14,-796.53 8577.36,-803.22 8581.29,-803.75 8585.26,-804.36 8589.25,-805.04"/>
<polygon fill="black" stroke="black" points="8588.6,-808.48 8599.07,-806.83 8589.86,-801.59 8588.6,-808.48"/>
<text text-anchor="middle" x="8521.48" y="-806.42" font-family="Times,serif" font-size="14.00">TORSO</text>
</g>
<!-- 61293&#45;&gt;61294 -->
<g id="edge73" class="edge">
<title>61293&#45;&gt;61294</title>
<path fill="none" stroke="black" d="M8441.92,-877.45C8449.84,-879.58 8457.82,-881.4 8465.61,-882.72 8514.58,-891.03 8528.07,-888.88 8577.36,-882.72 8581.02,-882.26 8584.72,-881.75 8588.44,-881.18"/>
<polygon fill="black" stroke="black" points="8588.88,-884.65 8598.17,-879.56 8587.73,-877.74 8588.88,-884.65"/>
<text text-anchor="middle" x="8521.48" y="-891.37" font-family="Times,serif" font-size="14.00">ARMS OR HANDS</text>
</g>
<!-- 61293&#45;&gt;61294 -->
<g id="edge74" class="edge">
<title>61293&#45;&gt;61294</title>
<path fill="none" stroke="black" d="M8447.87,-844.72C8488.82,-844.72 8538.13,-844.72 8583.85,-844.72"/>
<polygon fill="black" stroke="black" points="8583.56,-848.22 8593.56,-844.72 8583.56,-841.22 8583.56,-848.22"/>
<text text-anchor="middle" x="8521.48" y="-847.92" font-family="Times,serif" font-size="14.00">LEGS OR FEET</text>
</g>
<!-- 61295&#45;&gt;61296 -->
<g id="edge77" class="edge">
<title>61295&#45;&gt;61296</title>
<path fill="none" stroke="black" d="M9157.87,-1182.06C9180.86,-1205.47 9207.71,-1226.74 9237.51,-1239.72 9312.07,-1272.2 9342.53,-1262.85 9420.51,-1239.72 9439.64,-1234.04 9458.69,-1226.56 9477.32,-1217.87"/>
<polygon fill="black" stroke="black" points="9478.76,-1221.06 9486.26,-1213.58 9475.73,-1214.75 9478.76,-1221.06"/>
<text text-anchor="middle" x="9329.01" y="-1263.92" font-family="Times,serif" font-size="14.00">FIREARM</text>
</g>
<!-- 61295&#45;&gt;61296 -->
<g id="edge78" class="edge">
<title>61295&#45;&gt;61296</title>
<path fill="none" stroke="black" d="M9176.42,-1166.42C9195.4,-1180.05 9216.04,-1191.95 9237.51,-1199.72 9309.21,-1225.68 9388.42,-1215.11 9460.45,-1190.92"/>
<polygon fill="black" stroke="black" points="9461.29,-1194.33 9469.59,-1187.75 9459,-1187.72 9461.29,-1194.33"/>
<text text-anchor="middle" x="9329.01" y="-1217.98" font-family="Times,serif" font-size="14.00">CHEMICAL INCAPACITANT</text>
</g>
<!-- 61295&#45;&gt;61296 -->
<g id="edge79" class="edge">
<title>61295&#45;&gt;61296</title>
<path fill="none" stroke="black" d="M9194.87,-1143.83C9208.81,-1150.27 9223.17,-1155.8 9237.51,-1159.72 9304.4,-1178.03 9377.58,-1173.16 9445.36,-1158.56"/>
<polygon fill="black" stroke="black" points="9445.72,-1162.06 9454.72,-1156.46 9444.19,-1155.23 9445.72,-1162.06"/>
<text text-anchor="middle" x="9329.01" y="-1174.76" font-family="Times,serif" font-size="14.00">KNIFE/BLADE</text>
</g>
<!-- 61295&#45;&gt;61296 -->
<g id="edge80" class="edge">
<title>61295&#45;&gt;61296</title>
<path fill="none" stroke="black" d="M9210.15,-1113.94C9219.32,-1116.22 9228.5,-1118.19 9237.51,-1119.72 9300.8,-1130.48 9369.35,-1128.78 9433.61,-1121.37"/>
<polygon fill="black" stroke="black" points="9433.7,-1124.88 9443.21,-1120.21 9432.86,-1117.93 9433.7,-1124.88"/>
<text text-anchor="middle" x="9329.01" y="-1130.56" font-family="Times,serif" font-size="14.00">OTHER SHARP INSTRUMENT</text>
</g>
<!-- 61295&#45;&gt;61296 -->
<g id="edge81" class="edge">
<title>61295&#45;&gt;61296</title>
<path fill="none" stroke="black" d="M9219.02,-1078.55C9225.26,-1079 9231.44,-1079.39 9237.51,-1079.72 9299.06,-1083.06 9365.32,-1082.71 9427.75,-1080.61"/>
<polygon fill="black" stroke="black" points="9427.57,-1084.11 9437.44,-1080.26 9427.32,-1077.12 9427.57,-1084.11"/>
<text text-anchor="middle" x="9329.01" y="-1085.41" font-family="Times,serif" font-size="14.00">BLUNT INSTRUMENT</text>
</g>
<!-- 61295&#45;&gt;61296 -->
<g id="edge82" class="edge">
<title>61295&#45;&gt;61296</title>
<path fill="none" stroke="black" d="M9219.97,-1059.37C9225.89,-1059.32 9231.76,-1059.26 9237.51,-1059.22 9298.82,-1058.76 9364.77,-1058.8 9426.96,-1059.09"/>
<polygon fill="black" stroke="black" points="9426.59,-1062.59 9436.6,-1059.14 9426.62,-1055.59 9426.59,-1062.59"/>
<text text-anchor="middle" x="9329.01" y="-1062.42" font-family="Times,serif" font-size="14.00">LIGATURE</text>
</g>
<!-- 61295&#45;&gt;61296 -->
<g id="edge83" class="edge">
<title>61295&#45;&gt;61296</title>
<path fill="none" stroke="black" d="M9218.07,-1039.84C9224.63,-1039.22 9231.13,-1038.67 9237.51,-1038.22 9299.13,-1033.87 9365.48,-1034.34 9427.99,-1037.09"/>
<polygon fill="black" stroke="black" points="9427.55,-1040.58 9437.7,-1037.54 9427.87,-1033.58 9427.55,-1040.58"/>
<text text-anchor="middle" x="9329.01" y="-1041.42" font-family="Times,serif" font-size="14.00">DANGEROUS LIQUID</text>
</g>
<!-- 61295&#45;&gt;61296 -->
<g id="edge84" class="edge">
<title>61295&#45;&gt;61296</title>
<path fill="none" stroke="black" d="M9213.17,-1018.39C9221.36,-1016.76 9229.51,-1015.34 9237.51,-1014.22 9300.14,-1005.41 9367.81,-1006.63 9431.39,-1012.51"/>
<polygon fill="black" stroke="black" points="9431,-1015.99 9441.29,-1013.47 9431.68,-1009.02 9431,-1015.99"/>
<text text-anchor="middle" x="9329.01" y="-1017.42" font-family="Times,serif" font-size="14.00">EXCRETA/URINE</text>
</g>
<!-- 61295&#45;&gt;61296 -->
<g id="edge85" class="edge">
<title>61295&#45;&gt;61296</title>
<path fill="none" stroke="black" d="M9204.48,-996.35C9215.47,-992.7 9226.56,-989.57 9237.51,-987.22 9302,-973.38 9372.1,-976.09 9437.57,-986.15"/>
<polygon fill="black" stroke="black" points="9436.97,-989.6 9447.39,-987.73 9438.08,-982.68 9436.97,-989.6"/>
<text text-anchor="middle" x="9329.01" y="-990.42" font-family="Times,serif" font-size="14.00">FOOD</text>
</g>
<!-- 61295&#45;&gt;61296 -->
<g id="edge86" class="edge">
<title>61295&#45;&gt;61296</title>
<path fill="none" stroke="black" d="M9192.12,-975.37C9206.86,-967.99 9222.16,-961.66 9237.51,-957.22 9305.08,-937.68 9379.11,-943.28 9447.53,-959.25"/>
<polygon fill="black" stroke="black" points="9446.44,-962.59 9456.99,-961.55 9448.09,-955.79 9446.44,-962.59"/>
<text text-anchor="middle" x="9329.01" y="-960.42" font-family="Times,serif" font-size="14.00">THROWN FURNITURE</text>
</g>
<!-- 61295&#45;&gt;61296 -->
<g id="edge87" class="edge">
<title>61295&#45;&gt;61296</title>
<path fill="none" stroke="black" d="M9176.93,-957.06C9195.78,-943.63 9216.24,-931.9 9237.51,-924.22 9309.12,-898.36 9388.22,-908.83 9460.17,-932.87"/>
<polygon fill="black" stroke="black" points="9458.71,-936.07 9469.3,-936.02 9460.99,-929.45 9458.71,-936.07"/>
<text text-anchor="middle" x="9329.01" y="-927.42" font-family="Times,serif" font-size="14.00">THROWN EQUIPMENT</text>
</g>
<!-- 61295&#45;&gt;61296 -->
<g id="edge88" class="edge">
<title>61295&#45;&gt;61296</title>
<path fill="none" stroke="black" d="M9141.53,-1192.99C9166.82,-1227.58 9198.87,-1260.55 9237.51,-1279.72 9310.36,-1315.87 9343.73,-1306.57 9420.51,-1279.72 9446.95,-1270.47 9472.75,-1257.48 9497.27,-1242.39"/>
<polygon fill="black" stroke="black" points="9499.1,-1245.38 9505.69,-1237.08 9495.36,-1239.46 9499.1,-1245.38"/>
<text text-anchor="middle" x="9329.01" y="-1306.67" font-family="Times,serif" font-size="14.00">OTHER</text>
</g>
<!-- 61297 -->
<g id="node21" class="node">
<title>61297</title>
<ellipse fill="none" stroke="black" cx="10220.63" cy="-1394.72" rx="207.45" ry="207.45"/>
<text text-anchor="middle" x="10220.63" y="-1389.67" font-family="Times,serif" font-size="14.00">ENTER DESCRIPTION OF PERSON(S) INJURED</text>
</g>
<!-- 61296&#45;&gt;61297 -->
<g id="edge89" class="edge">
<title>61296&#45;&gt;61297</title>
<path fill="none" stroke="black" d="M9912.06,-1199.09C9953.13,-1225.21 9995.75,-1252.32 10035.71,-1277.74"/>
<polygon fill="black" stroke="black" points="10033.68,-1280.59 10043.99,-1283 10037.43,-1274.68 10033.68,-1280.59"/>
<text text-anchor="middle" x="9982.43" y="-1251.36" font-family="Times,serif" font-size="14.00">YES</text>
</g>
<!-- 61306 -->
<g id="node22" class="node">
<title>61306</title>
<ellipse fill="none" stroke="black" cx="15883.57" cy="-1403.72" rx="325.17" ry="325.17"/>
<text text-anchor="middle" x="15883.57" y="-1398.67" font-family="Times,serif" font-size="14.00">ARE THERE ANY STAFF NOW OFF DUTY AS A RESULT OF THIS INCIDENT</text>
</g>
<!-- 61296&#45;&gt;61306 -->
<g id="edge90" class="edge">
<title>61296&#45;&gt;61306</title>
<path fill="none" stroke="black" d="M9951.68,-1050.78C10036.89,-1047.97 10132.33,-1045.72 10219.63,-1045.72 10219.63,-1045.72 10219.63,-1045.72 15128.21,-1045.72 15292.29,-1045.72 15344.91,-1002.9 15496.9,-1064.72 15552.1,-1087.17 15604.76,-1121 15652.45,-1158.75"/>
<polygon fill="black" stroke="black" points="15650.13,-1161.37 15660.12,-1164.9 15654.5,-1155.91 15650.13,-1161.37"/>
<text text-anchor="middle" x="12401.66" y="-1048.92" font-family="Times,serif" font-size="14.00">NO</text>
</g>
<!-- 61298 -->
<g id="node23" class="node">
<title>61298</title>
<ellipse fill="none" stroke="black" cx="10887.88" cy="-1434.72" rx="168.04" ry="168.04"/>
<text text-anchor="middle" x="10887.88" y="-1429.67" font-family="Times,serif" font-size="14.00">WAS A SERIOUS INJURY SUSTAINED</text>
</g>
<!-- 61297&#45;&gt;61298 -->
<g id="edge91" class="edge">
<title>61297&#45;&gt;61298</title>
<path fill="none" stroke="black" d="M10421.22,-1449.02C10429.59,-1450.43 10437.9,-1451.68 10446.08,-1452.72 10558.84,-1467.05 10588.3,-1458.23 10701.83,-1452.72 10704.23,-1452.6 10706.64,-1452.48 10709.06,-1452.35"/>
<polygon fill="black" stroke="black" points="10709.2,-1455.84 10718.98,-1451.76 10708.79,-1448.86 10709.2,-1455.84"/>
<text text-anchor="middle" x="10573.96" y="-1463.7" font-family="Times,serif" font-size="14.00">PRISONERS</text>
</g>
<!-- 61297&#45;&gt;61298 -->
<g id="edge92" class="edge">
<title>61297&#45;&gt;61298</title>
<path fill="none" stroke="black" d="M10427.71,-1411.49C10433.9,-1411.92 10440.04,-1412.33 10446.08,-1412.72 10532.35,-1418.33 10628.19,-1423.27 10708.41,-1427.04"/>
<polygon fill="black" stroke="black" points="10707.96,-1430.52 10718.11,-1427.49 10708.28,-1423.53 10707.96,-1430.52"/>
<text text-anchor="middle" x="10573.96" y="-1429.7" font-family="Times,serif" font-size="14.00">OPERATIONAL STAFF &#45; PRISON OFFICER</text>
</g>
<!-- 61297&#45;&gt;61298 -->
<g id="edge93" class="edge">
<title>61297&#45;&gt;61298</title>
<path fill="none" stroke="black" d="M10428.14,-1383C10513.15,-1380.94 10612.47,-1382.09 10701.83,-1392.22 10705.52,-1392.64 10709.24,-1393.1 10712.98,-1393.6"/>
<polygon fill="black" stroke="black" points="10712.37,-1397.05 10722.77,-1395.02 10713.37,-1390.12 10712.37,-1397.05"/>
<text text-anchor="middle" x="10573.96" y="-1395.42" font-family="Times,serif" font-size="14.00">OPERATIONAL STAFF &#45; OTHER</text>
</g>
<!-- 61297&#45;&gt;61298 -->
<g id="edge94" class="edge">
<title>61297&#45;&gt;61298</title>
<path fill="none" stroke="black" d="M10425.12,-1357.47C10511.11,-1347.67 10611.95,-1344.02 10701.83,-1361.22 10708.57,-1362.51 10715.38,-1364.04 10722.21,-1365.77"/>
<polygon fill="black" stroke="black" points="10720.91,-1369.05 10731.47,-1368.25 10722.72,-1362.28 10720.91,-1369.05"/>
<text text-anchor="middle" x="10573.96" y="-1364.42" font-family="Times,serif" font-size="14.00">NON&#45;OPERATIONAL STAFF</text>
</g>
<!-- 61297&#45;&gt;61298 -->
<g id="edge95" class="edge">
<title>61297&#45;&gt;61298</title>
<path fill="none" stroke="black" d="M10419.17,-1333.13C10506.75,-1314.66 10610.44,-1305 10701.83,-1329.22 10712.94,-1332.16 10724.08,-1335.95 10735.07,-1340.32"/>
<polygon fill="black" stroke="black" points="10733.59,-1343.5 10744.17,-1344.11 10736.28,-1337.03 10733.59,-1343.5"/>
<text text-anchor="middle" x="10573.96" y="-1332.42" font-family="Times,serif" font-size="14.00">NON&#45;DIRECTLY EMPLOYED STAFF</text>
</g>
<!-- 61297&#45;&gt;61298 -->
<g id="edge96" class="edge">
<title>61297&#45;&gt;61298</title>
<path fill="none" stroke="black" d="M10407.64,-1304.49C10420.46,-1300.44 10433.35,-1296.94 10446.08,-1294.22 10557.24,-1270.47 10594.11,-1257.96 10701.83,-1294.22 10719.09,-1300.03 10736.02,-1308.16 10752.19,-1317.61"/>
<polygon fill="black" stroke="black" points="10749.96,-1320.35 10760.33,-1322.53 10753.58,-1314.36 10749.96,-1320.35"/>
<text text-anchor="middle" x="10573.96" y="-1297.42" font-family="Times,serif" font-size="14.00">POLICE</text>
</g>
<!-- 61297&#45;&gt;61298 -->
<g id="edge97" class="edge">
<title>61297&#45;&gt;61298</title>
<path fill="none" stroke="black" d="M10392.15,-1512.28C10409.79,-1520.52 10427.93,-1527.58 10446.08,-1532.72 10555.46,-1563.65 10591.52,-1560.13 10701.83,-1532.72 10711.74,-1530.26 10721.71,-1527.16 10731.59,-1523.58"/>
<polygon fill="black" stroke="black" points="10732.76,-1526.89 10740.87,-1520.07 10730.28,-1520.34 10732.76,-1526.89"/>
<text text-anchor="middle" x="10573.96" y="-1557.82" font-family="Times,serif" font-size="14.00">VISITOR</text>
</g>
<!-- 61297&#45;&gt;61298 -->
<g id="edge98" class="edge">
<title>61297&#45;&gt;61298</title>
<path fill="none" stroke="black" d="M10413.15,-1473.3C10424.18,-1476.19 10435.21,-1478.71 10446.08,-1480.72 10557.85,-1501.4 10589.01,-1494.53 10701.83,-1480.72 10705.73,-1480.24 10709.66,-1479.71 10713.62,-1479.13"/>
<polygon fill="black" stroke="black" points="10714,-1482.62 10723.33,-1477.61 10712.91,-1475.7 10714,-1482.62"/>
<text text-anchor="middle" x="10573.96" y="-1496.98" font-family="Times,serif" font-size="14.00">OTHER</text>
</g>
<!-- 61307 -->
<g id="node31" class="node">
<title>61307</title>
<ellipse fill="none" stroke="black" cx="16563.16" cy="-1443.72" rx="292.92" ry="292.92"/>
<text text-anchor="middle" x="16563.16" y="-1438.67" font-family="Times,serif" font-size="14.00">ARE ANY STAFF ON SICK LEAVE AS A RESULT OF THIS INCIDENT</text>
</g>
<!-- 61306&#45;&gt;61307 -->
<g id="edge131" class="edge">
<title>61306&#45;&gt;61307</title>
<path fill="none" stroke="black" d="M16208.94,-1402.92C16223.58,-1403.55 16238.07,-1404.31 16252.24,-1405.22 16255.14,-1405.41 16258.05,-1405.6 16260.98,-1405.8"/>
<polygon fill="black" stroke="black" points="16260.59,-1409.28 16270.82,-1406.52 16261.1,-1402.3 16260.59,-1409.28"/>
<text text-anchor="middle" x="16239.49" y="-1408.42" font-family="Times,serif" font-size="14.00">YES</text>
</g>
<!-- 61306&#45;&gt;61307 -->
<g id="edge132" class="edge">
<title>61306&#45;&gt;61307</title>
<path fill="none" stroke="black" d="M16208.48,-1422.84C16225.44,-1423.84 16242.45,-1424.85 16259.33,-1425.84"/>
<polygon fill="black" stroke="black" points="16258.71,-1429.31 16268.9,-1426.41 16259.12,-1422.32 16258.71,-1429.31"/>
<text text-anchor="middle" x="16239.49" y="-1428.12" font-family="Times,serif" font-size="14.00">NO</text>
</g>
<!-- 61299 -->
<g id="node24" class="node">
<title>61299</title>
<ellipse fill="none" stroke="black" cx="11325.39" cy="-1434.72" rx="207.96" ry="207.96"/>
<text text-anchor="middle" x="11325.39" y="-1429.67" font-family="Times,serif" font-size="14.00">WHICH SERIOUS INJURIES WERE SUSTAINED</text>
</g>
<!-- 61298&#45;&gt;61299 -->
<g id="edge99" class="edge">
<title>61298&#45;&gt;61299</title>
<path fill="none" stroke="black" d="M11056.32,-1434.72C11072.49,-1434.72 11089.05,-1434.72 11105.62,-1434.72"/>
<polygon fill="black" stroke="black" points="11105.57,-1438.22 11115.57,-1434.72 11105.57,-1431.22 11105.57,-1438.22"/>
<text text-anchor="middle" x="11086.67" y="-1437.92" font-family="Times,serif" font-size="14.00">YES</text>
</g>
<!-- 61300 -->
<g id="node25" class="node">
<title>61300</title>
<ellipse fill="none" stroke="black" cx="11978.48" cy="-1480.72" rx="160.88" ry="160.88"/>
<text text-anchor="middle" x="11978.48" y="-1475.67" font-family="Times,serif" font-size="14.00">WAS A MINOR INJURY SUSTAINED</text>
</g>
<!-- 61298&#45;&gt;61300 -->
<g id="edge100" class="edge">
<title>61298&#45;&gt;61300</title>
<path fill="none" stroke="black" d="M10994.58,-1564.79C11029.79,-1599.19 11071.79,-1632.15 11117.42,-1651.72 11396.22,-1771.27 11521.77,-1795.49 11799.6,-1673.72 11828.16,-1661.2 11854.16,-1641.59 11876.93,-1619.56"/>
<polygon fill="black" stroke="black" points="11879.16,-1622.28 11883.78,-1612.75 11874.22,-1617.32 11879.16,-1622.28"/>
<text text-anchor="middle" x="11325.39" y="-1757.24" font-family="Times,serif" font-size="14.00">NO</text>
</g>
<!-- 61299&#45;&gt;61300 -->
<g id="edge101" class="edge">
<title>61299&#45;&gt;61300</title>
<path fill="none" stroke="black" d="M11503.53,-1542.67C11519.31,-1549.09 11535.37,-1554.61 11551.35,-1558.72 11658.2,-1586.22 11691.61,-1581.36 11799.6,-1558.72 11807.03,-1557.16 11814.53,-1555.28 11822.02,-1553.13"/>
<polygon fill="black" stroke="black" points="11822.99,-1556.5 11831.55,-1550.25 11820.96,-1549.8 11822.99,-1556.5"/>
<text text-anchor="middle" x="11675.48" y="-1580.76" font-family="Times,serif" font-size="14.00">FRACTURE</text>
</g>
<!-- 61299&#45;&gt;61300 -->
<g id="edge102" class="edge">
<title>61299&#45;&gt;61300</title>
<path fill="none" stroke="black" d="M11519.03,-1511.63C11529.86,-1514.39 11540.68,-1516.79 11551.35,-1518.72 11659.93,-1538.33 11689.88,-1530.31 11799.6,-1518.72 11803.02,-1518.36 11806.48,-1517.96 11809.95,-1517.53"/>
<polygon fill="black" stroke="black" points="11810.17,-1521.03 11819.62,-1516.23 11809.24,-1514.09 11810.17,-1521.03"/>
<text text-anchor="middle" x="11675.48" y="-1533.81" font-family="Times,serif" font-size="14.00">SCALD OR BURN</text>
</g>
<!-- 61299&#45;&gt;61300 -->
<g id="edge103" class="edge">
<title>61299&#45;&gt;61300</title>
<path fill="none" stroke="black" d="M11529.38,-1476.23C11536.78,-1477.16 11544.12,-1478 11551.35,-1478.72 11634.85,-1487.01 11728.01,-1488.34 11805.88,-1487.26"/>
<polygon fill="black" stroke="black" points="11805.79,-1490.76 11815.74,-1487.11 11805.68,-1483.76 11805.79,-1490.76"/>
<text text-anchor="middle" x="11675.48" y="-1490.79" font-family="Times,serif" font-size="14.00">STABBING</text>
</g>
<!-- 61299&#45;&gt;61300 -->
<g id="edge104" class="edge">
<title>61299&#45;&gt;61300</title>
<path fill="none" stroke="black" d="M11533.64,-1441.59C11616.46,-1445.23 11712.64,-1450.57 11799.6,-1458.22 11802.12,-1458.44 11804.66,-1458.67 11807.21,-1458.91"/>
<polygon fill="black" stroke="black" points="11806.7,-1462.38 11816.99,-1459.86 11807.38,-1455.41 11806.7,-1462.38"/>
<text text-anchor="middle" x="11675.48" y="-1461.42" font-family="Times,serif" font-size="14.00">CRUSHING</text>
</g>
<!-- 61299&#45;&gt;61300 -->
<g id="edge105" class="edge">
<title>61299&#45;&gt;61300</title>
<path fill="none" stroke="black" d="M11532.46,-1412.81C11615.86,-1408.21 11712.77,-1408.31 11799.6,-1422.22 11804.84,-1423.06 11810.14,-1424.03 11815.46,-1425.11"/>
<polygon fill="black" stroke="black" points="11814.42,-1428.47 11824.94,-1427.16 11815.9,-1421.63 11814.42,-1428.47"/>
<text text-anchor="middle" x="11675.48" y="-1425.42" font-family="Times,serif" font-size="14.00">EXTENSIVE/MULTIPLE BRUISING</text>
</g>
<!-- 61299&#45;&gt;61300 -->
<g id="edge106" class="edge">
<title>61299&#45;&gt;61300</title>
<path fill="none" stroke="black" d="M11527.93,-1386.13C11612.72,-1373.19 11711.86,-1367.98 11799.6,-1389.22 11808.82,-1391.45 11818.1,-1394.25 11827.31,-1397.47"/>
<polygon fill="black" stroke="black" points="11826.08,-1400.74 11836.68,-1400.9 11828.5,-1394.17 11826.08,-1400.74"/>
<text text-anchor="middle" x="11675.48" y="-1392.42" font-family="Times,serif" font-size="14.00">BLACK EYE</text>
</g>
<!-- 61299&#45;&gt;61300 -->
<g id="edge107" class="edge">
<title>61299&#45;&gt;61300</title>
<path fill="none" stroke="black" d="M11520.13,-1360.69C11606.95,-1337.93 11709.8,-1325.54 11799.6,-1354.22 11814.63,-1359.02 11829.48,-1365.61 11843.81,-1373.27"/>
<polygon fill="black" stroke="black" points="11841.87,-1376.2 11852.32,-1378 11845.28,-1370.08 11841.87,-1376.2"/>
<text text-anchor="middle" x="11675.48" y="-1357.42" font-family="Times,serif" font-size="14.00">BROKEN NOSE</text>
</g>
<!-- 61299&#45;&gt;61300 -->
<g id="edge108" class="edge">
<title>61299&#45;&gt;61300</title>
<path fill="none" stroke="black" d="M11506.4,-1331.43C11521.29,-1325.76 11536.37,-1320.9 11551.35,-1317.22 11658.5,-1290.92 11696.8,-1277.15 11799.6,-1317.22 11821.8,-1325.87 11842.9,-1338.73 11862.31,-1353.51"/>
<polygon fill="black" stroke="black" points="11859.89,-1356.06 11869.91,-1359.49 11864.22,-1350.56 11859.89,-1356.06"/>
<text text-anchor="middle" x="11675.48" y="-1320.42" font-family="Times,serif" font-size="14.00">BROKEN TEETH</text>
</g>
<!-- 61299&#45;&gt;61300 -->
<g id="edge109" class="edge">
<title>61299&#45;&gt;61300</title>
<path fill="none" stroke="black" d="M11485.33,-1301.43C11506.5,-1289.14 11528.74,-1278.57 11551.35,-1271.22 11656.28,-1237.12 11699.47,-1224.88 11799.6,-1271.22 11831.78,-1286.11 11860.27,-1310.01 11884.49,-1336.43"/>
<polygon fill="black" stroke="black" points="11881.59,-1338.45 11890.86,-1343.58 11886.82,-1333.79 11881.59,-1338.45"/>
<text text-anchor="middle" x="11675.48" y="-1274.42" font-family="Times,serif" font-size="14.00">CUTS REQUIRING SUTURES</text>
</g>
<!-- 61299&#45;&gt;61300 -->
<g id="edge110" class="edge">
<title>61299&#45;&gt;61300</title>
<path fill="none" stroke="black" d="M11460.83,-1276.45C11488.26,-1253.5 11518.79,-1233.26 11551.35,-1220.22 11653.78,-1179.21 11702.04,-1168.7 11799.6,-1220.22 11843.52,-1243.41 11878.64,-1282.86 11905.69,-1324.14"/>
<polygon fill="black" stroke="black" points="11902.72,-1325.99 11911.05,-1332.54 11908.62,-1322.22 11902.72,-1325.99"/>
<text text-anchor="middle" x="11675.48" y="-1223.42" font-family="Times,serif" font-size="14.00">BITES</text>
</g>
<!-- 61299&#45;&gt;61300 -->
<g id="edge111" class="edge">
<title>61299&#45;&gt;61300</title>
<path fill="none" stroke="black" d="M11465.93,-1588.59C11492.17,-1609.06 11520.98,-1627 11551.35,-1638.72 11602.82,-1658.58 11748.03,-1658.32 11799.6,-1638.72 11820.67,-1630.71 11840.84,-1618.94 11859.54,-1605.37"/>
<polygon fill="black" stroke="black" points="11861.49,-1608.28 11867.38,-1599.48 11857.29,-1602.69 11861.49,-1608.28"/>
<text text-anchor="middle" x="11675.48" y="-1656.72" font-family="Times,serif" font-size="14.00">GUN SHOT WOUND</text>
</g>
<!-- 61299&#45;&gt;61300 -->
<g id="edge112" class="edge">
<title>61299&#45;&gt;61300</title>
<path fill="none" stroke="black" d="M11485.68,-1567.79C11506.75,-1579.96 11528.87,-1590.43 11551.35,-1597.72 11603.83,-1614.73 11746.75,-1613.54 11799.6,-1597.72 11812.87,-1593.75 11826.07,-1588.43 11838.93,-1582.24"/>
<polygon fill="black" stroke="black" points="11840.45,-1585.4 11847.82,-1577.79 11837.31,-1579.14 11840.45,-1585.4"/>
<text text-anchor="middle" x="11675.48" y="-1613.23" font-family="Times,serif" font-size="14.00">TEMPORARY/PERMANENT BLINDNESS</text>
</g>
<!-- 61301 -->
<g id="node26" class="node">
<title>61301</title>
<ellipse fill="none" stroke="black" cx="12401.66" cy="-1480.72" rx="200.8" ry="200.8"/>
<text text-anchor="middle" x="12401.66" y="-1475.67" font-family="Times,serif" font-size="14.00">WHICH MINOR INJURIES WERE SUSTAINED</text>
</g>
<!-- 61300&#45;&gt;61301 -->
<g id="edge113" class="edge">
<title>61300&#45;&gt;61301</title>
<path fill="none" stroke="black" d="M12139.61,-1480.72C12155.77,-1480.72 12172.35,-1480.72 12188.93,-1480.72"/>
<polygon fill="black" stroke="black" points="12188.9,-1484.22 12198.9,-1480.72 12188.9,-1477.22 12188.9,-1484.22"/>
<text text-anchor="middle" x="12170.11" y="-1483.92" font-family="Times,serif" font-size="14.00">YES</text>
</g>
<!-- 61302 -->
<g id="node27" class="node">
<title>61302</title>
<ellipse fill="none" stroke="black" cx="13161.69" cy="-1560.72" rx="284.74" ry="284.74"/>
<text text-anchor="middle" x="13161.69" y="-1555.67" font-family="Times,serif" font-size="14.00">DID INJURIES RESULT IN ATTENDANCE TO OUTSIDE HOSPITAL</text>
</g>
<!-- 61300&#45;&gt;61302 -->
<g id="edge114" class="edge">
<title>61300&#45;&gt;61302</title>
<path fill="none" stroke="black" d="M12079.62,-1606.34C12114.04,-1640.29 12155.47,-1672.62 12200.86,-1690.72 12420.66,-1778.39 12688.84,-1730.39 12885.8,-1669.39"/>
<polygon fill="black" stroke="black" points="12886.66,-1672.79 12895.16,-1666.46 12884.57,-1666.11 12886.66,-1672.79"/>
<text text-anchor="middle" x="12401.66" y="-1741.85" font-family="Times,serif" font-size="14.00">NO</text>
</g>
<!-- 61301&#45;&gt;61302 -->
<g id="edge115" class="edge">
<title>61301&#45;&gt;61302</title>
<path fill="none" stroke="black" d="M12602.15,-1497.29C12682.06,-1504.33 12774.94,-1513.04 12858.96,-1522.22 12861.83,-1522.53 12864.71,-1522.85 12867.61,-1523.17"/>
<polygon fill="black" stroke="black" points="12867.02,-1526.63 12877.35,-1524.26 12867.8,-1519.67 12867.02,-1526.63"/>
<text text-anchor="middle" x="12739.71" y="-1525.42" font-family="Times,serif" font-size="14.00">GRAZES, SCRATCHES OR ABRASIONS</text>
</g>
<!-- 61301&#45;&gt;61302 -->
<g id="edge116" class="edge">
<title>61301&#45;&gt;61302</title>
<path fill="none" stroke="black" d="M12602.93,-1478.33C12608.84,-1478.29 12614.69,-1478.25 12620.46,-1478.22 12726.45,-1477.61 12753.9,-1464.12 12858.96,-1478.22 12864.7,-1478.99 12870.48,-1479.84 12876.3,-1480.76"/>
<polygon fill="black" stroke="black" points="12875.59,-1484.19 12886.03,-1482.37 12876.73,-1477.28 12875.59,-1484.19"/>
<text text-anchor="middle" x="12739.71" y="-1481.42" font-family="Times,serif" font-size="14.00">MINOR BRUISES</text>
</g>
<!-- 61301&#45;&gt;61302 -->
<g id="edge117" class="edge">
<title>61301&#45;&gt;61302</title>
<path fill="none" stroke="black" d="M12600.78,-1452.73C12607.41,-1452.16 12613.98,-1451.66 12620.46,-1451.22 12726.22,-1444.09 12754.56,-1432.86 12858.96,-1451.22 12867.35,-1452.7 12875.82,-1454.39 12884.33,-1456.26"/>
<polygon fill="black" stroke="black" points="12883.52,-1459.67 12894.05,-1458.49 12885.08,-1452.84 12883.52,-1459.67"/>
<text text-anchor="middle" x="12739.71" y="-1454.42" font-family="Times,serif" font-size="14.00">SWELLINGS</text>
</g>
<!-- 61301&#45;&gt;61302 -->
<g id="edge118" class="edge">
<title>61301&#45;&gt;61302</title>
<path fill="none" stroke="black" d="M12582.52,-1568.51C12595.17,-1572.54 12607.89,-1576.02 12620.46,-1578.72 12699.54,-1595.69 12786.62,-1599.2 12867.34,-1596.38"/>
<polygon fill="black" stroke="black" points="12867.31,-1599.88 12877.17,-1595.99 12867.04,-1592.88 12867.31,-1599.88"/>
<text text-anchor="middle" x="12739.71" y="-1600.43" font-family="Times,serif" font-size="14.00">SUPERFICIAL CUTS</text>
</g>
<!-- 61301&#45;&gt;61302 -->
<g id="edge119" class="edge">
<title>61301&#45;&gt;61302</title>
<path fill="none" stroke="black" d="M12595.46,-1534.44C12603.88,-1536.03 12612.24,-1537.47 12620.46,-1538.72 12668.49,-1546 12766,-1550.99 12865.13,-1554.35"/>
<polygon fill="black" stroke="black" points="12864.97,-1557.85 12875.08,-1554.69 12865.2,-1550.85 12864.97,-1557.85"/>
<text text-anchor="middle" x="12739.71" y="-1556.93" font-family="Times,serif" font-size="14.00">OTHER</text>
</g>
<!-- 61305 -->
<g id="node28" class="node">
<title>61305</title>
<ellipse fill="none" stroke="black" cx="15127.21" cy="-1443.72" rx="369.7" ry="369.7"/>
<text text-anchor="middle" x="15127.21" y="-1438.67" font-family="Times,serif" font-size="14.00">WAS MEDICAL TREATMENT FOR CONCUSSION OR INTERNAL INJURIES REQUIRED</text>
</g>
<!-- 61302&#45;&gt;61305 -->
<g id="edge120" class="edge">
<title>61302&#45;&gt;61305</title>
<path fill="none" stroke="black" d="M13446.55,-1563.46C13831.33,-1565.87 14498.11,-1565.02 14739.51,-1533.72 14744.94,-1533.02 14750.4,-1532.27 14755.89,-1531.48"/>
<polygon fill="black" stroke="black" points="14756.32,-1534.96 14765.71,-1530.04 14755.3,-1528.03 14756.32,-1534.96"/>
<text text-anchor="middle" x="13923.89" y="-1567.26" font-family="Times,serif" font-size="14.00">NO</text>
</g>
<!-- 61303 -->
<g id="node29" class="node">
<title>61303</title>
<ellipse fill="none" stroke="black" cx="13657.04" cy="-1760.72" rx="149.11" ry="149.11"/>
<text text-anchor="middle" x="13657.04" y="-1755.67" font-family="Times,serif" font-size="14.00">TYPE OF HOSPITAL ADMISSION</text>
</g>
<!-- 61302&#45;&gt;61303 -->
<g id="edge121" class="edge">
<title>61302&#45;&gt;61303</title>
<path fill="none" stroke="black" d="M13425.97,-1667.45C13454.02,-1678.83 13481.79,-1690.08 13507.8,-1700.63"/>
<polygon fill="black" stroke="black" points="13506.47,-1703.86 13517.05,-1704.38 13509.1,-1697.37 13506.47,-1703.86"/>
<text text-anchor="middle" x="13477.18" y="-1693.52" font-family="Times,serif" font-size="14.00">YES</text>
</g>
<!-- 61305&#45;&gt;61306 -->
<g id="edge129" class="edge">
<title>61305&#45;&gt;61306</title>
<path fill="none" stroke="black" d="M15495.28,-1406.31C15501.87,-1405.92 15508.42,-1405.56 15514.9,-1405.22 15525.43,-1404.68 15536.13,-1404.2 15546.93,-1403.77"/>
<polygon fill="black" stroke="black" points="15546.85,-1407.28 15556.72,-1403.41 15546.59,-1400.28 15546.85,-1407.28"/>
<text text-anchor="middle" x="15527.65" y="-1408.42" font-family="Times,serif" font-size="14.00">YES</text>
</g>
<!-- 61305&#45;&gt;61306 -->
<g id="edge130" class="edge">
<title>61305&#45;&gt;61306</title>
<path fill="none" stroke="black" d="M15496.83,-1424.17C15513.53,-1423.29 15530.26,-1422.4 15546.88,-1421.52"/>
<polygon fill="black" stroke="black" points="15547.05,-1425.02 15556.85,-1420.99 15546.68,-1418.03 15547.05,-1425.02"/>
<text text-anchor="middle" x="15527.65" y="-1425.72" font-family="Times,serif" font-size="14.00">NO</text>
</g>
<!-- 61304 -->
<g id="node30" class="node">
<title>61304</title>
<ellipse fill="#dddddd" stroke="#dddddd" cx="14253.7" cy="-1800.72" rx="212.06" ry="212.06"/>
<text text-anchor="middle" x="14253.7" y="-1795.67" font-family="Times,serif" font-size="14.00">WHO WAS ADMMITED TO OUTSIDE HOSPITAL</text>
</g>
<!-- 61303&#45;&gt;61304 -->
<g id="edge122" class="edge">
<title>61303&#45;&gt;61304</title>
<path fill="none" stroke="black" d="M13797.17,-1813.05C13806.22,-1815.28 13815.26,-1817.21 13824.14,-1818.72 13891.08,-1830.07 13964.7,-1831.05 14031.75,-1827.61"/>
<polygon fill="black" stroke="black" points="14031.58,-1831.13 14041.37,-1827.08 14031.19,-1824.14 14031.58,-1831.13"/>
<text text-anchor="middle" x="13923.89" y="-1832.56" font-family="Times,serif" font-size="14.00">A AND E</text>
</g>
<!-- 61303&#45;&gt;61304 -->
<g id="edge123" class="edge">
<title>61303&#45;&gt;61304</title>
<path fill="none" stroke="black" d="M13805.62,-1777.15C13811.88,-1777.71 13818.07,-1778.24 13824.14,-1778.72 13890.92,-1784.05 13963.67,-1788.35 14029.94,-1791.68"/>
<polygon fill="black" stroke="black" points="14029.71,-1795.18 14039.87,-1792.18 14030.05,-1788.18 14029.71,-1795.18"/>
<text text-anchor="middle" x="13923.89" y="-1794.56" font-family="Times,serif" font-size="14.00">INPATIENT (OVERNIGHT ONLY)</text>
</g>
<!-- 61303&#45;&gt;61304 -->
<g id="edge124" class="edge">
<title>61303&#45;&gt;61304</title>
<path fill="none" stroke="black" d="M13806.55,-1758.37C13812.49,-1758.32 13818.37,-1758.26 13824.14,-1758.22 13912.81,-1757.55 13935.35,-1750.1 14023.64,-1758.22 14026.95,-1758.52 14030.27,-1758.85 14033.62,-1759.2"/>
<polygon fill="black" stroke="black" points="14033.23,-1762.68 14043.56,-1760.31 14034,-1755.72 14033.23,-1762.68"/>
<text text-anchor="middle" x="13923.89" y="-1761.42" font-family="Times,serif" font-size="14.00">INPATIENT (OVER 24HR)</text>
</g>
<!-- 61303&#45;&gt;61304 -->
<g id="edge125" class="edge">
<title>61303&#45;&gt;61304</title>
<path fill="none" stroke="black" d="M13804.17,-1736.09C13810.91,-1735.37 13817.59,-1734.74 13824.14,-1734.22 13912.53,-1727.21 13935.86,-1721.74 14023.64,-1734.22 14028.88,-1734.96 14034.16,-1735.8 14039.47,-1736.72"/>
<polygon fill="black" stroke="black" points="14038.45,-1740.09 14048.92,-1738.43 14039.7,-1733.2 14038.45,-1740.09"/>
<text text-anchor="middle" x="13923.89" y="-1737.42" font-family="Times,serif" font-size="14.00">LIFE SUPPORT</text>
</g>
<!-- 61304&#45;&gt;END_NODE -->
<g id="edge128" class="edge">
<title>61304&#45;&gt;END_NODE</title>
<path fill="none" stroke="#dddddd" d="M14465.45,-1816.19C14641.88,-1827.81 14900.33,-1841.72 15126.21,-1841.72 15126.21,-1841.72 15126.21,-1841.72 18845.41,-1841.72 18956.6,-1841.72 19004.37,-1887.32 19094.86,-1822.72 19151.71,-1782.13 19174.61,-1699.9 19183.62,-1648.56"/>
<polygon fill="#dddddd" stroke="#dddddd" points="19187.03,-1649.4 19185.19,-1638.97 19180.12,-1648.27 19187.03,-1649.4"/>
<text text-anchor="middle" x="17115.83" y="-1844.92" font-family="Times,serif" font-size="14.00">OPERATIONAL STAFF &#45; OTHER</text>
</g>
<!-- 61304&#45;&gt;61305 -->
<g id="edge126" class="edge">
<title>61304&#45;&gt;61305</title>
<path fill="none" stroke="#dddddd" d="M14450.28,-1720.6C14545.91,-1681.43 14663.98,-1633.06 14774.55,-1587.77"/>
<polygon fill="#dddddd" stroke="#dddddd" points="14775.55,-1591.14 14783.48,-1584.11 14772.9,-1584.67 14775.55,-1591.14"/>
<text text-anchor="middle" x="14611.64" y="-1708.18" font-family="Times,serif" font-size="14.00">PRISONERS</text>
</g>
<!-- 61304&#45;&gt;61305 -->
<g id="edge127" class="edge">
<title>61304&#45;&gt;61305</title>
<path fill="none" stroke="#dddddd" d="M14465.81,-1790C14553.08,-1780.03 14653.71,-1761.17 14739.51,-1725.72 14769.61,-1713.28 14799.56,-1698.05 14828.69,-1681.16"/>
<polygon fill="#dddddd" stroke="#dddddd" points="14830.39,-1684.22 14837.24,-1676.13 14826.84,-1678.18 14830.39,-1684.22"/>
<text text-anchor="middle" x="14611.64" y="-1789.66" font-family="Times,serif" font-size="14.00">OPERATIONAL STAFF &#45; PRISON OFFICER</text>
</g>
<!-- 61308 -->
<g id="node32" class="node">
<title>61308</title>
<ellipse fill="none" stroke="black" cx="17115.83" cy="-1481.72" rx="198.24" ry="198.24"/>
<text text-anchor="middle" x="17115.83" y="-1476.67" font-family="Times,serif" font-size="14.00">DID THE ASSAULT OCCUR IN PUBLIC VIEW</text>
</g>
<!-- 61307&#45;&gt;61308 -->
<g id="edge133" class="edge">
<title>61307&#45;&gt;61308</title>
<path fill="none" stroke="black" d="M16856.54,-1442.19C16871.11,-1443 16885.52,-1444 16899.59,-1445.22 16902.67,-1445.49 16905.77,-1445.77 16908.89,-1446.08"/>
<polygon fill="black" stroke="black" points="16908.44,-1449.55 16918.75,-1447.1 16909.17,-1442.59 16908.44,-1449.55"/>
<text text-anchor="middle" x="16886.84" y="-1448.42" font-family="Times,serif" font-size="14.00">YES</text>
</g>
<!-- 61307&#45;&gt;61308 -->
<g id="edge134" class="edge">
<title>61307&#45;&gt;61308</title>
<path fill="none" stroke="black" d="M16855.62,-1463.83C16872.71,-1465.01 16889.71,-1466.18 16906.36,-1467.33"/>
<polygon fill="black" stroke="black" points="16906.1,-1470.82 16916.32,-1468.02 16906.58,-1463.84 16906.1,-1470.82"/>
<text text-anchor="middle" x="16886.84" y="-1469.32" font-family="Times,serif" font-size="14.00">NO</text>
</g>
<!-- 61309 -->
<g id="node33" class="node">
<title>61309</title>
<ellipse fill="none" stroke="black" cx="17654.16" cy="-1501.72" rx="278.59" ry="278.59"/>
<text text-anchor="middle" x="17654.16" y="-1496.67" font-family="Times,serif" font-size="14.00">IS THERE ANY AUDIO OR VISUAL FOOTAGE OF THE ASSAULT</text>
</g>
<!-- 61308&#45;&gt;61309 -->
<g id="edge135" class="edge">
<title>61308&#45;&gt;61309</title>
<path fill="none" stroke="black" d="M17314.57,-1482.06C17329.12,-1482.36 17343.58,-1482.74 17357.57,-1483.22 17359.83,-1483.3 17362.11,-1483.38 17364.39,-1483.46"/>
<polygon fill="black" stroke="black" points="17364.23,-1486.96 17374.36,-1483.84 17364.5,-1479.96 17364.23,-1486.96"/>
<text text-anchor="middle" x="17344.82" y="-1486.42" font-family="Times,serif" font-size="14.00">YES</text>
</g>
<!-- 61308&#45;&gt;61309 -->
<g id="edge136" class="edge">
<title>61308&#45;&gt;61309</title>
<path fill="none" stroke="black" d="M17313.56,-1498.79C17319.8,-1499.14 17325.98,-1499.45 17332.07,-1499.72 17342.51,-1500.19 17353.14,-1500.6 17363.87,-1500.96"/>
<polygon fill="black" stroke="black" points="17363.48,-1504.45 17373.59,-1501.26 17363.7,-1497.45 17363.48,-1504.45"/>
<text text-anchor="middle" x="17344.82" y="-1503.64" font-family="Times,serif" font-size="14.00">NO</text>
</g>
<!-- 61311 -->
<g id="node34" class="node">
<title>61311</title>
<ellipse fill="none" stroke="black" cx="18844.41" cy="-1563.72" rx="250.44" ry="250.44"/>
<text text-anchor="middle" x="18844.41" y="-1558.67" font-family="Times,serif" font-size="14.00">WAS THERE AN APPARENT REASON FOR THE ASSAULT</text>
</g>
<!-- 61309&#45;&gt;61311 -->
<g id="edge137" class="edge">
<title>61309&#45;&gt;61311</title>
<path fill="none" stroke="black" d="M17892.42,-1646.68C17925.64,-1661.47 17960.11,-1674.18 17994.26,-1682.72 18193.78,-1732.64 18425.28,-1694.01 18596.12,-1647.88"/>
<polygon fill="black" stroke="black" points="18596.84,-1651.31 18605.56,-1645.3 18594.99,-1644.56 18596.84,-1651.31"/>
<text text-anchor="middle" x="18181.24" y="-1709.32" font-family="Times,serif" font-size="14.00">NO</text>
</g>
<!-- 61310 -->
<g id="node35" class="node">
<title>61310</title>
<ellipse fill="none" stroke="black" cx="18181.24" cy="-1486.72" rx="186.98" ry="186.98"/>
<text text-anchor="middle" x="18181.24" y="-1481.67" font-family="Times,serif" font-size="14.00">WHAT IS THE SOURCE OF THE FOOTAGE</text>
</g>
<!-- 61309&#45;&gt;61310 -->
<g id="edge138" class="edge">
<title>61309&#45;&gt;61310</title>
<path fill="none" stroke="black" d="M17933.08,-1493.78C17949.87,-1493.3 17966.57,-1492.82 17982.92,-1492.36"/>
<polygon fill="black" stroke="black" points="17982.76,-1495.86 17992.66,-1492.08 17982.56,-1488.87 17982.76,-1495.86"/>
<text text-anchor="middle" x="17963.51" y="-1496.08" font-family="Times,serif" font-size="14.00">YES</text>
</g>
<!-- 61311&#45;&gt;END_NODE -->
<g id="edge144" class="edge">
<title>61311&#45;&gt;END_NODE</title>
<path fill="none" stroke="black" d="M19093.45,-1592.58C19112.66,-1594.81 19130.29,-1596.86 19145.04,-1598.58"/>
<polygon fill="black" stroke="black" points="19144.38,-1602.03 19154.72,-1599.71 19145.19,-1595.07 19144.38,-1602.03"/>
<text text-anchor="middle" x="19125.61" y="-1600.21" font-family="Times,serif" font-size="14.00">YES</text>
</g>
<!-- 61311&#45;&gt;END_NODE -->
<g id="edge145" class="edge">
<title>61311&#45;&gt;END_NODE</title>
<path fill="none" stroke="black" d="M19095.26,-1564.34C19109.96,-1566.95 19124.42,-1570.2 19138.36,-1574.22 19142.88,-1575.52 19147.43,-1577.32 19151.84,-1579.38"/>
<polygon fill="black" stroke="black" points="19149.99,-1582.36 19160.47,-1583.88 19153.22,-1576.15 19149.99,-1582.36"/>
<text text-anchor="middle" x="19125.61" y="-1577.42" font-family="Times,serif" font-size="14.00">NO</text>
</g>
<!-- 61310&#45;&gt;61311 -->
<g id="edge139" class="edge">
<title>61310&#45;&gt;61311</title>
<path fill="none" stroke="black" d="M18367.68,-1503.81C18433.51,-1510.28 18508.1,-1518.06 18575.97,-1526.22 18578.87,-1526.57 18581.79,-1526.92 18584.73,-1527.28"/>
<polygon fill="black" stroke="black" points="18584.25,-1530.75 18594.61,-1528.5 18585.11,-1523.8 18584.25,-1530.75"/>
<text text-anchor="middle" x="18481.09" y="-1529.42" font-family="Times,serif" font-size="14.00">BODY WORN VIDEO CAMERA</text>
</g>
<!-- 61310&#45;&gt;61311 -->
<g id="edge140" class="edge">
<title>61310&#45;&gt;61311</title>
<path fill="none" stroke="black" d="M18368.72,-1486.24C18374.62,-1486.24 18380.47,-1486.23 18386.22,-1486.22 18470.55,-1486.12 18492.47,-1474.37 18575.97,-1486.22 18581.66,-1487.03 18587.39,-1487.93 18593.16,-1488.91"/>
<polygon fill="black" stroke="black" points="18592.34,-1492.32 18602.79,-1490.63 18593.56,-1485.43 18592.34,-1492.32"/>
<text text-anchor="middle" x="18481.09" y="-1489.42" font-family="Times,serif" font-size="14.00">CCTV</text>
</g>
<!-- 61310&#45;&gt;61311 -->
<g id="edge141" class="edge">
<title>61310&#45;&gt;61311</title>
<path fill="none" stroke="black" d="M18365.66,-1455.37C18432.32,-1448.96 18507.95,-1447.52 18575.97,-1460.22 18584.49,-1461.81 18593.08,-1463.66 18601.7,-1465.73"/>
<polygon fill="black" stroke="black" points="18600.62,-1469.07 18611.17,-1468.11 18602.32,-1462.28 18600.62,-1469.07"/>
<text text-anchor="middle" x="18481.09" y="-1463.42" font-family="Times,serif" font-size="14.00">PIN PHONES</text>
</g>
<!-- 61310&#45;&gt;61311 -->
<g id="edge142" class="edge">
<title>61310&#45;&gt;61311</title>
<path fill="none" stroke="black" d="M18348.23,-1571.93C18360.87,-1576.22 18373.61,-1579.9 18386.22,-1582.72 18449.71,-1596.91 18519.36,-1600.08 18584.73,-1597.83"/>
<polygon fill="black" stroke="black" points="18584.67,-1601.33 18594.52,-1597.44 18584.39,-1594.34 18584.67,-1601.33"/>
<text text-anchor="middle" x="18481.09" y="-1601.69" font-family="Times,serif" font-size="14.00">RADIO NET</text>
</g>
<!-- 61310&#45;&gt;61311 -->
<g id="edge143" class="edge">
<title>61310&#45;&gt;61311</title>
<path fill="none" stroke="black" d="M18361.4,-1538.28C18369.76,-1539.93 18378.06,-1541.43 18386.22,-1542.72 18449.37,-1552.71 18518,-1558.5 18582.41,-1561.73"/>
<polygon fill="black" stroke="black" points="18581.88,-1565.21 18592.04,-1562.2 18582.22,-1558.22 18581.88,-1565.21"/>
<text text-anchor="middle" x="18481.09" y="-1564.47" font-family="Times,serif" font-size="14.00">OTHER</text>
</g>
<!-- 61313 -->
<g id="node36" class="node">
<title>61313</title>
<ellipse fill="none" stroke="black" cx="14253.7" cy="-1323.72" rx="208.99" ry="208.99"/>
<text text-anchor="middle" x="14253.7" y="-1318.67" font-family="Times,serif" font-size="14.00">WHO WAS ADMITTED TO OUTSIDE HOSPITAL</text>
</g>
<!-- 61313&#45;&gt;61305 -->
<g id="edge146" class="edge">
<title>61313&#45;&gt;61305</title>
<path fill="none" stroke="black" d="M14450.41,-1251.98C14461.6,-1249.34 14472.77,-1247.05 14483.76,-1245.22 14595.88,-1226.54 14629.02,-1218.52 14739.51,-1245.22 14757.29,-1249.52 14775.17,-1254.78 14792.98,-1260.79"/>
<polygon fill="black" stroke="black" points="14791.42,-1263.96 14802.02,-1263.92 14793.71,-1257.34 14791.42,-1263.96"/>
<text text-anchor="middle" x="14611.64" y="-1248.42" font-family="Times,serif" font-size="14.00">PRISONERS</text>
</g>
<!-- 61313&#45;&gt;61305 -->
<g id="edge147" class="edge">
<title>61313&#45;&gt;61305</title>
<path fill="none" stroke="black" d="M14408.78,-1464.41C14432.51,-1479.64 14457.8,-1492.82 14483.76,-1501.72 14535.23,-1519.37 14640.17,-1515.26 14750.59,-1503.38"/>
<polygon fill="black" stroke="black" points="14750.92,-1506.86 14760.47,-1502.29 14750.15,-1499.9 14750.92,-1506.86"/>
<text text-anchor="middle" x="14611.64" y="-1516.84" font-family="Times,serif" font-size="14.00">OPERATIONAL STAFF &#45; PRISON OFFICER</text>
</g>
<!-- 61313&#45;&gt;61305 -->
<g id="edge148" class="edge">
<title>61313&#45;&gt;61305</title>
<path fill="none" stroke="black" d="M14427.25,-1440.55C14445.74,-1449.1 14464.75,-1456.44 14483.76,-1461.72 14535.27,-1476.04 14638.25,-1477.11 14746.94,-1472.86"/>
<polygon fill="black" stroke="black" points="14746.79,-1476.36 14756.64,-1472.46 14746.51,-1469.37 14746.79,-1476.36"/>
<text text-anchor="middle" x="14611.64" y="-1478.24" font-family="Times,serif" font-size="14.00">OPERATIONAL STAFF &#45; OTHER</text>
</g>
<!-- 61313&#45;&gt;61305 -->
<g id="edge149" class="edge">
<title>61313&#45;&gt;61305</title>
<path fill="none" stroke="black" d="M14443.85,-1410.9C14457.18,-1415.1 14470.57,-1418.78 14483.76,-1421.72 14512.08,-1428.03 14623.43,-1432.85 14745.66,-1436.34"/>
<polygon fill="black" stroke="black" points="14745.53,-1439.84 14755.63,-1436.62 14745.73,-1432.84 14745.53,-1439.84"/>
<text text-anchor="middle" x="14611.64" y="-1438.84" font-family="Times,serif" font-size="14.00">NON&#45;OPERATIONAL STAFF</text>
</g>
<!-- 61313&#45;&gt;61305 -->
<g id="edge150" class="edge">
<title>61313&#45;&gt;61305</title>
<path fill="none" stroke="black" d="M14456.34,-1376.8C14465.58,-1378.59 14474.75,-1380.25 14483.76,-1381.72 14596.26,-1400.11 14626,-1390.66 14739.51,-1401.22 14742.38,-1401.49 14745.26,-1401.76 14748.15,-1402.03"/>
<polygon fill="black" stroke="black" points="14747.56,-1405.49 14757.84,-1402.95 14748.22,-1398.52 14747.56,-1405.49"/>
<text text-anchor="middle" x="14611.64" y="-1404.42" font-family="Times,serif" font-size="14.00">NON&#45;DIRECTLY EMPLOYED STAFF</text>
</g>
<!-- 61313&#45;&gt;61305 -->
<g id="edge151" class="edge">
<title>61313&#45;&gt;61305</title>
<path fill="none" stroke="black" d="M14462.27,-1340.05C14469.52,-1340.62 14476.7,-1341.17 14483.76,-1341.72 14597.42,-1350.52 14626.68,-1344.96 14739.51,-1361.22 14744.47,-1361.93 14749.46,-1362.68 14754.48,-1363.44"/>
<polygon fill="black" stroke="black" points="14753.58,-1366.84 14764,-1364.92 14754.66,-1359.93 14753.58,-1366.84"/>
<text text-anchor="middle" x="14611.64" y="-1364.42" font-family="Times,serif" font-size="14.00">POLICE</text>
</g>
<!-- 61313&#45;&gt;61305 -->
<g id="edge152" class="edge">
<title>61313&#45;&gt;61305</title>
<path fill="none" stroke="black" d="M14462.88,-1321.35C14469.92,-1321.3 14476.9,-1321.26 14483.76,-1321.22 14597.43,-1320.6 14627.18,-1303.85 14739.51,-1321.22 14747.86,-1322.51 14756.27,-1323.95 14764.73,-1325.52"/>
<polygon fill="black" stroke="black" points="14763.9,-1328.92 14774.38,-1327.37 14765.22,-1322.05 14763.9,-1328.92"/>
<text text-anchor="middle" x="14611.64" y="-1324.42" font-family="Times,serif" font-size="14.00">VISITOR</text>
</g>
<!-- 61313&#45;&gt;61305 -->
<g id="edge153" class="edge">
<title>61313&#45;&gt;61305</title>
<path fill="none" stroke="black" d="M14460.91,-1294.97C14468.62,-1294.31 14476.25,-1293.72 14483.76,-1293.22 14597.18,-1285.7 14627.8,-1272.25 14739.51,-1293.22 14750.84,-1295.35 14762.27,-1297.8 14773.74,-1300.52"/>
<polygon fill="black" stroke="black" points="14772.73,-1303.88 14783.28,-1302.86 14774.4,-1297.08 14772.73,-1303.88"/>
<text text-anchor="middle" x="14611.64" y="-1296.42" font-family="Times,serif" font-size="14.00">OTHER</text>
</g>
</g>
</svg>
