<?xml version="1.0" encoding="UTF-8" standalone="no"?>
<!DOCTYPE svg PUBLIC "-//W3C//DTD SVG 1.1//EN"
 "http://www.w3.org/Graphics/SVG/1.1/DTD/svg11.dtd">
<!-- Generated by graphviz version 14.1.5 (20260411.2331)
 -->
<!-- Title: BC_FUEL_SHORTAGE_1 Pages: 1 -->
<svg width="704pt" height="413pt"
 viewBox="0.00 0.00 704.00 413.00" xmlns="http://www.w3.org/2000/svg" xmlns:xlink="http://www.w3.org/1999/xlink">
<g id="graph0" class="graph" transform="scale(1 1) rotate(0) translate(4 408.67)">
<title>BC_FUEL_SHORTAGE_1</title>
<polygon fill="white" stroke="none" points="-4,4 -4,-408.67 699.88,-408.67 699.88,4 -4,4"/>
<!-- START_NODE -->
<g id="node1" class="node">
<title>START_NODE</title>
</g>
<!-- 100020 -->
<g id="node2" class="node">
<title>100020</title>
<ellipse fill="none" stroke="black" cx="315.58" cy="-202.33" rx="202.33" ry="202.33"/>
<text xml:space="preserve" text-anchor="start" x="175.33" y="-198.28" font-family="Times,serif" font-size="14.00"> </text>
<text xml:space="preserve" text-anchor="start" x="179.08" y="-198.28" font-family="Times,serif" font-size="14.00" fill="royalblue">100020 </text>
<text xml:space="preserve" text-anchor="start" x="223.33" y="-198.28" font-family="Times,serif" font-size="14.00"> Was there an impact to the daily regime? </text>
</g>
<!-- START_NODE&#45;&gt;100020 -->
<g id="edge1" class="edge">
<title>START_NODE&#45;&gt;100020</title>
<path fill="none" stroke="black" d="M53.94,-202.33C66.55,-202.33 82.98,-202.33 101.46,-202.33"/>
<polygon fill="black" stroke="black" points="101.38,-205.83 111.38,-202.33 101.38,-198.83 101.38,-205.83"/>
<text xml:space="preserve" text-anchor="middle" x="83.62" y="-205.53" font-family="Times,serif" font-size="14.00">start</text>
</g>
<!-- END_NODE -->
<g id="node3" class="node">
<title>END_NODE</title>
<ellipse fill="none" stroke="black" cx="662.03" cy="-202.33" rx="29.86" ry="29.86"/>
<ellipse fill="none" stroke="black" cx="662.03" cy="-202.33" rx="33.86" ry="33.86"/>
<text xml:space="preserve" text-anchor="middle" x="662.03" y="-197.28" font-family="Times,serif" font-size="14.00">END</text>
</g>
<!-- 100020&#45;&gt;END_NODE -->
<g id="edge2" class="edge">
<title>100020&#45;&gt;END_NODE</title>
<path fill="none" stroke="black" d="M517.94,-202.33C554.97,-202.33 590.14,-202.33 616.35,-202.33"/>
<polygon fill="black" stroke="black" points="616.22,-205.83 626.22,-202.33 616.22,-198.83 616.22,-205.83"/>
<text xml:space="preserve" text-anchor="start" x="535.92" y="-206.53" font-family="Times,serif" font-size="14.00"> </text>
<text xml:space="preserve" text-anchor="start" x="539.67" y="-206.53" font-family="Times,serif" font-size="14.00" fill="royalblue">100021 </text>
<text xml:space="preserve" text-anchor="start" x="583.92" y="-206.53" font-family="Times,serif" font-size="14.00"> Yes </text>
</g>
<!-- 100020&#45;&gt;END_NODE -->
<g id="edge3" class="edge">
<title>100020&#45;&gt;END_NODE</title>
<path fill="none" stroke="black" d="M516.42,-174.42C547.96,-174.02 580.07,-176 610.17,-181.83 613.52,-182.48 616.93,-183.35 620.31,-184.37"/>
<polygon fill="black" stroke="black" points="618.92,-187.59 629.52,-187.53 621.19,-180.97 618.92,-187.59"/>
<text xml:space="preserve" text-anchor="start" x="537.04" y="-186.03" font-family="Times,serif" font-size="14.00"> </text>
<text xml:space="preserve" text-anchor="start" x="540.79" y="-186.03" font-family="Times,serif" font-size="14.00" fill="royalblue">100022 </text>
<text xml:space="preserve" text-anchor="start" x="585.04" y="-186.03" font-family="Times,serif" font-size="14.00"> No </text>
</g>
</g>
</svg>
