<?xml version="1.0" encoding="UTF-8" standalone="no"?>
<!DOCTYPE svg PUBLIC "-//W3C//DTD SVG 1.1//EN"
 "http://www.w3.org/Graphics/SVG/1.1/DTD/svg11.dtd">
<!-- Generated by graphviz version 12.1.1 (20240910.0053)
 -->
<!-- Title: BREACH_OF_SECURITY Pages: 1 -->
<svg width="11563pt" height="989pt"
 viewBox="0.00 0.00 11563.28 988.67" xmlns="http://www.w3.org/2000/svg" xmlns:xlink="http://www.w3.org/1999/xlink">
<g id="graph0" class="graph" transform="scale(1 1) rotate(0) translate(4 984.67)">
<title>BREACH_OF_SECURITY</title>
<polygon fill="white" stroke="none" points="-4,4 -4,-984.67 11559.28,-984.67 11559.28,4 -4,4"/>
<!-- START_NODE -->
<g id="node1" class="node">
<title>START_NODE</title>
</g>
<!-- 44253 -->
<g id="node2" class="node">
<title>44253</title>
<ellipse fill="none" stroke="black" cx="280.27" cy="-557.33" rx="167.02" ry="167.02"/>
<text text-anchor="middle" x="280.27" y="-552.28" font-family="Times,serif" font-size="14.00">Were the police informed of the incident?</text>
</g>
<!-- START_NODE&#45;&gt;44253 -->
<g id="edge1" class="edge">
<title>START_NODE&#45;&gt;44253</title>
<path fill="none" stroke="black" d="M53.94,-557.33C66.67,-557.33 83.21,-557.33 101.55,-557.33"/>
<polygon fill="black" stroke="black" points="101.34,-560.83 111.34,-557.33 101.34,-553.83 101.34,-560.83"/>
<text text-anchor="middle" x="83.62" y="-560.53" font-family="Times,serif" font-size="14.00">start</text>
</g>
<!-- 44286 -->
<g id="node10" class="node">
<title>44286</title>
<ellipse fill="none" stroke="black" cx="705.87" cy="-778.33" rx="202.33" ry="202.33"/>
<text text-anchor="middle" x="705.87" y="-773.28" font-family="Times,serif" font-size="14.00">Is the incident the subject of a police investigation?</text>
</g>
<!-- 44253&#45;&gt;44286 -->
<g id="edge11" class="edge">
<title>44253&#45;&gt;44286</title>
<path fill="none" stroke="black" d="M428.83,-634.32C457.04,-649.04 486.93,-664.63 516.22,-679.91"/>
<polygon fill="black" stroke="black" points="514.3,-682.86 524.79,-684.38 517.54,-676.65 514.3,-682.86"/>
<text text-anchor="middle" x="475.42" y="-664.41" font-family="Times,serif" font-size="14.00">Yes</text>
</g>
<!-- 44364 -->
<g id="node11" class="node">
<title>44364</title>
<ellipse fill="none" stroke="black" cx="1177.03" cy="-738.33" rx="212.57" ry="212.57"/>
<text text-anchor="middle" x="1177.03" y="-733.28" font-family="Times,serif" font-size="14.00">Is the incident the subject of an internal investigation?</text>
</g>
<!-- 44253&#45;&gt;44364 -->
<g id="edge12" class="edge">
<title>44253&#45;&gt;44364</title>
<path fill="none" stroke="black" d="M445.1,-528.3C574.04,-511.89 756.64,-503.05 908.21,-550.83 941.18,-561.23 973.62,-577.29 1003.92,-595.74"/>
<polygon fill="black" stroke="black" points="1002.06,-598.7 1012.4,-601 1005.75,-592.75 1002.06,-598.7"/>
<text text-anchor="middle" x="705.87" y="-554.03" font-family="Times,serif" font-size="14.00">No</text>
</g>
<!-- END_NODE -->
<g id="node3" class="node">
<title>END_NODE</title>
<ellipse fill="none" stroke="black" cx="11521.43" cy="-433.33" rx="29.86" ry="29.86"/>
<ellipse fill="none" stroke="black" cx="11521.43" cy="-433.33" rx="33.86" ry="33.86"/>
<text text-anchor="middle" x="11521.43" y="-428.28" font-family="Times,serif" font-size="14.00">END</text>
</g>
<!-- 44124 -->
<g id="node4" class="node">
<title>44124</title>
<ellipse fill="none" stroke="black" cx="8764.07" cy="-377.33" rx="159.85" ry="159.85"/>
<text text-anchor="middle" x="8764.07" y="-372.28" font-family="Times,serif" font-size="14.00">Was damage caused to prison property?</text>
</g>
<!-- 44136 -->
<g id="node5" class="node">
<title>44136</title>
<ellipse fill="none" stroke="black" cx="9068.89" cy="-484.33" rx="88.71" ry="88.71"/>
<text text-anchor="middle" x="9068.89" y="-479.28" font-family="Times,serif" font-size="14.00">What was damaged?</text>
</g>
<!-- 44124&#45;&gt;44136 -->
<g id="edge2" class="edge">
<title>44124&#45;&gt;44136</title>
<path fill="none" stroke="black" d="M8915.15,-430.36C8935.17,-437.44 8955.21,-444.52 8973.89,-451.12"/>
<polygon fill="black" stroke="black" points="8972.7,-454.41 8983.29,-454.44 8975.03,-447.81 8972.7,-454.41"/>
<text text-anchor="middle" x="8952.05" y="-449.87" font-family="Times,serif" font-size="14.00">Yes</text>
</g>
<!-- 44249 -->
<g id="node6" class="node">
<title>44249</title>
<ellipse fill="none" stroke="black" cx="10132.39" cy="-377.33" rx="189.54" ry="189.54"/>
<text text-anchor="middle" x="10132.39" y="-372.28" font-family="Times,serif" font-size="14.00">Were any injuries received during this incident?</text>
</g>
<!-- 44124&#45;&gt;44249 -->
<g id="edge3" class="edge">
<title>44124&#45;&gt;44249</title>
<path fill="none" stroke="black" d="M8923.72,-365.79C8970.16,-363.27 9021.03,-361.33 9067.89,-361.33 9067.89,-361.33 9067.89,-361.33 9629.95,-361.33 9729.24,-361.33 9839.54,-364.51 9931.34,-368.03"/>
<polygon fill="black" stroke="black" points="9931.09,-371.52 9941.22,-368.41 9931.36,-364.53 9931.09,-371.52"/>
<text text-anchor="middle" x="9342.83" y="-364.53" font-family="Times,serif" font-size="14.00">No</text>
</g>
<!-- 45016 -->
<g id="node7" class="node">
<title>45016</title>
<ellipse fill="none" stroke="black" cx="9342.83" cy="-491.33" rx="89.23" ry="89.23"/>
<text text-anchor="middle" x="9342.83" y="-486.28" font-family="Times,serif" font-size="14.00">Describe the damage</text>
</g>
<!-- 44136&#45;&gt;45016 -->
<g id="edge4" class="edge">
<title>44136&#45;&gt;45016</title>
<path fill="none" stroke="black" d="M9143.42,-533.09C9153.87,-538.11 9164.75,-542.43 9175.6,-545.33 9201.36,-552.23 9209.67,-551.55 9235.6,-545.33 9241.85,-543.84 9248.15,-541.91 9254.39,-539.67"/>
<polygon fill="black" stroke="black" points="9255.35,-543.06 9263.42,-536.19 9252.83,-536.53 9255.35,-543.06"/>
<text text-anchor="middle" x="9205.6" y="-553.45" font-family="Times,serif" font-size="14.00">Furniture</text>
</g>
<!-- 44136&#45;&gt;45016 -->
<g id="edge5" class="edge">
<title>44136&#45;&gt;45016</title>
<path fill="none" stroke="black" d="M9155.93,-502.87C9162.57,-503.86 9169.18,-504.7 9175.6,-505.33 9197.32,-507.47 9220.66,-507.14 9242.78,-505.6"/>
<polygon fill="black" stroke="black" points="9243.02,-509.09 9252.71,-504.81 9242.47,-502.11 9243.02,-509.09"/>
<text text-anchor="middle" x="9205.6" y="-510.04" font-family="Times,serif" font-size="14.00">Fittings</text>
</g>
<!-- 44136&#45;&gt;45016 -->
<g id="edge6" class="edge">
<title>44136&#45;&gt;45016</title>
<path fill="none" stroke="black" d="M9158.06,-483.65C9183.12,-483.71 9210.44,-484.03 9235.6,-484.83 9237.78,-484.9 9239.99,-484.98 9242.21,-485.07"/>
<polygon fill="black" stroke="black" points="9241.8,-488.55 9251.94,-485.47 9242.1,-481.56 9241.8,-488.55"/>
<text text-anchor="middle" x="9205.6" y="-488.03" font-family="Times,serif" font-size="14.00">Machinery</text>
</g>
<!-- 44136&#45;&gt;45016 -->
<g id="edge7" class="edge">
<title>44136&#45;&gt;45016</title>
<path fill="none" stroke="black" d="M9155.48,-464.69C9181.24,-461.09 9209.57,-459.4 9235.6,-462.83 9238.84,-463.26 9242.12,-463.76 9245.42,-464.32"/>
<polygon fill="black" stroke="black" points="9244.74,-467.75 9255.22,-466.14 9246.03,-460.87 9244.74,-467.75"/>
<text text-anchor="middle" x="9205.6" y="-466.03" font-family="Times,serif" font-size="14.00">Equipment</text>
</g>
<!-- 44136&#45;&gt;45016 -->
<g id="edge8" class="edge">
<title>44136&#45;&gt;45016</title>
<path fill="none" stroke="black" d="M9149.98,-447.64C9158.49,-444.87 9167.13,-442.51 9175.6,-440.83 9201.76,-435.66 9209.59,-434.97 9235.6,-440.83 9241.45,-442.15 9247.36,-443.84 9253.23,-445.78"/>
<polygon fill="black" stroke="black" points="9251.73,-448.96 9262.32,-449.03 9254.09,-442.37 9251.73,-448.96"/>
<text text-anchor="middle" x="9205.6" y="-444.03" font-family="Times,serif" font-size="14.00">Other</text>
</g>
<!-- 45137 -->
<g id="node8" class="node">
<title>45137</title>
<ellipse fill="none" stroke="black" cx="10528.31" cy="-546.33" rx="150.13" ry="150.13"/>
<text text-anchor="middle" x="10528.31" y="-541.28" font-family="Times,serif" font-size="14.00">Enter description of person(s) injured</text>
</g>
<!-- 44249&#45;&gt;45137 -->
<g id="edge9" class="edge">
<title>44249&#45;&gt;45137</title>
<path fill="none" stroke="black" d="M10307.03,-451.83C10331.2,-462.2 10355.84,-472.77 10379.47,-482.91"/>
<polygon fill="black" stroke="black" points="10377.93,-486.06 10388.5,-486.78 10380.69,-479.62 10377.93,-486.06"/>
<text text-anchor="middle" x="10350.06" y="-475.15" font-family="Times,serif" font-size="14.00">Yes</text>
</g>
<!-- 44906 -->
<g id="node9" class="node">
<title>44906</title>
<ellipse fill="none" stroke="black" cx="10929.63" cy="-506.33" rx="119.93" ry="119.93"/>
<text text-anchor="middle" x="10929.63" y="-501.28" font-family="Times,serif" font-size="14.00">Were any illicit items found?</text>
</g>
<!-- 44249&#45;&gt;44906 -->
<g id="edge10" class="edge">
<title>44249&#45;&gt;44906</title>
<path fill="none" stroke="black" d="M10320.37,-351.56C10426.89,-342.68 10561.94,-341.31 10678.44,-370.83 10727.97,-383.39 10778.33,-407.92 10820.75,-432.7"/>
<polygon fill="black" stroke="black" points="10818.82,-435.63 10829.21,-437.72 10822.39,-429.61 10818.82,-435.63"/>
<text text-anchor="middle" x="10528.31" y="-374.03" font-family="Times,serif" font-size="14.00">No</text>
</g>
<!-- 44616 -->
<g id="node24" class="node">
<title>44616</title>
<ellipse fill="none" stroke="black" cx="9628.95" cy="-497.33" rx="107.65" ry="107.65"/>
<text text-anchor="middle" x="9628.95" y="-492.28" font-family="Times,serif" font-size="14.00">Estimated cost of damage</text>
</g>
<!-- 45016&#45;&gt;44616 -->
<g id="edge70" class="edge">
<title>45016&#45;&gt;44616</title>
<path fill="none" stroke="black" d="M9430.58,-509.92C9437.15,-510.88 9443.69,-511.71 9450.05,-512.33 9469.61,-514.25 9490.4,-514.3 9510.6,-513.28"/>
<polygon fill="black" stroke="black" points="9510.8,-516.78 9520.57,-512.68 9510.38,-509.79 9510.8,-516.78"/>
<text text-anchor="middle" x="9476.68" y="-517.14" font-family="Times,serif" font-size="14.00">Minor</text>
</g>
<!-- 45016&#45;&gt;44616 -->
<g id="edge71" class="edge">
<title>45016&#45;&gt;44616</title>
<path fill="none" stroke="black" d="M9432.41,-490.97C9455.49,-491.05 9480.33,-491.29 9503.3,-491.83 9505.5,-491.89 9507.71,-491.94 9509.94,-492"/>
<polygon fill="black" stroke="black" points="9509.59,-495.49 9519.69,-492.29 9509.8,-488.5 9509.59,-495.49"/>
<text text-anchor="middle" x="9476.68" y="-495.03" font-family="Times,serif" font-size="14.00">Serious</text>
</g>
<!-- 45016&#45;&gt;44616 -->
<g id="edge72" class="edge">
<title>45016&#45;&gt;44616</title>
<path fill="none" stroke="black" d="M9430.59,-473.19C9437.15,-472.25 9443.7,-471.44 9450.05,-470.83 9473.61,-468.58 9479.77,-468.36 9503.3,-470.83 9506.29,-471.15 9509.32,-471.5 9512.37,-471.9"/>
<polygon fill="black" stroke="black" points="9511.58,-475.32 9521.97,-473.25 9512.56,-468.39 9511.58,-475.32"/>
<text text-anchor="middle" x="9476.68" y="-474.03" font-family="Times,serif" font-size="14.00">Extensive</text>
</g>
<!-- 45137&#45;&gt;44906 -->
<g id="edge75" class="edge">
<title>45137&#45;&gt;44906</title>
<path fill="none" stroke="black" d="M10672.82,-587.86C10711.75,-593.52 10753.65,-594.41 10791.69,-584.33 10800.44,-582.02 10809.21,-579 10817.85,-575.5"/>
<polygon fill="black" stroke="black" points="10819.12,-578.76 10826.92,-571.6 10816.35,-572.33 10819.12,-578.76"/>
<text text-anchor="middle" x="10744.07" y="-595.24" font-family="Times,serif" font-size="14.00">Staff</text>
</g>
<!-- 45137&#45;&gt;44906 -->
<g id="edge76" class="edge">
<title>45137&#45;&gt;44906</title>
<path fill="none" stroke="black" d="M10678.63,-551.98C10715.71,-551.52 10755.26,-549.44 10791.69,-544.33 10795.54,-543.8 10799.42,-543.18 10803.34,-542.5"/>
<polygon fill="black" stroke="black" points="10803.74,-545.99 10812.92,-540.7 10802.45,-539.11 10803.74,-545.99"/>
<text text-anchor="middle" x="10744.07" y="-554.78" font-family="Times,serif" font-size="14.00">Prisoners</text>
</g>
<!-- 45137&#45;&gt;44906 -->
<g id="edge77" class="edge">
<title>45137&#45;&gt;44906</title>
<path fill="none" stroke="black" d="M10677.35,-525.94C10683.8,-525.2 10690.18,-524.49 10696.44,-523.83 10729.4,-520.38 10765.06,-517.34 10798.32,-514.81"/>
<polygon fill="black" stroke="black" points="10798.28,-518.32 10807.98,-514.08 10797.75,-511.34 10798.28,-518.32"/>
<text text-anchor="middle" x="10744.07" y="-527.03" font-family="Times,serif" font-size="14.00">Civilian grades</text>
</g>
<!-- 45137&#45;&gt;44906 -->
<g id="edge78" class="edge">
<title>45137&#45;&gt;44906</title>
<path fill="none" stroke="black" d="M10671.34,-499.46C10679.78,-497.65 10688.19,-496.08 10696.44,-494.83 10738.31,-488.53 10749.4,-493.06 10791.69,-494.83 10793.93,-494.93 10796.18,-495.03 10798.45,-495.14"/>
<polygon fill="black" stroke="black" points="10798.23,-498.63 10808.4,-495.67 10798.6,-491.64 10798.23,-498.63"/>
<text text-anchor="middle" x="10744.07" y="-498.03" font-family="Times,serif" font-size="14.00">Police</text>
</g>
<!-- 45137&#45;&gt;44906 -->
<g id="edge79" class="edge">
<title>45137&#45;&gt;44906</title>
<path fill="none" stroke="black" d="M10663.1,-480.08C10674.2,-476.39 10685.39,-473.21 10696.44,-470.83 10730.8,-463.44 10768.33,-465.04 10803.01,-470.43"/>
<polygon fill="black" stroke="black" points="10802.23,-473.84 10812.67,-472.05 10803.39,-466.94 10802.23,-473.84"/>
<text text-anchor="middle" x="10744.07" y="-474.03" font-family="Times,serif" font-size="14.00">External civilians</text>
</g>
<!-- 44906&#45;&gt;END_NODE -->
<g id="edge61" class="edge">
<title>44906&#45;&gt;END_NODE</title>
<path fill="none" stroke="black" d="M11038.54,-557.29C11155.28,-604.17 11341.8,-654.27 11469.57,-566.33 11498.01,-546.76 11510.56,-508.96 11516.08,-478.65"/>
<polygon fill="black" stroke="black" points="11519.51,-479.37 11517.64,-468.94 11512.6,-478.26 11519.51,-479.37"/>
<text text-anchor="middle" x="11228.82" y="-617.84" font-family="Times,serif" font-size="14.00">No</text>
</g>
<!-- 44301 -->
<g id="node12" class="node">
<title>44301</title>
<ellipse fill="none" stroke="black" cx="11228.82" cy="-426.33" rx="123" ry="123"/>
<text text-anchor="middle" x="11228.82" y="-421.28" font-family="Times,serif" font-size="14.00">Describe the illicit item found</text>
</g>
<!-- 44906&#45;&gt;44301 -->
<g id="edge60" class="edge">
<title>44906&#45;&gt;44301</title>
<path fill="none" stroke="black" d="M11045.95,-475.29C11063.25,-470.63 11081.18,-465.81 11098.74,-461.08"/>
<polygon fill="black" stroke="black" points="11099.4,-464.53 11108.15,-458.55 11097.58,-457.77 11099.4,-464.53"/>
<text text-anchor="middle" x="11077.69" y="-471.93" font-family="Times,serif" font-size="14.00">Yes</text>
</g>
<!-- 44286&#45;&gt;44364 -->
<g id="edge13" class="edge">
<title>44286&#45;&gt;44364</title>
<path fill="none" stroke="black" d="M907.88,-761.2C923.09,-759.9 938.49,-758.59 953.82,-757.28"/>
<polygon fill="black" stroke="black" points="953.8,-760.8 963.46,-756.46 953.2,-753.82 953.8,-760.8"/>
<text text-anchor="middle" x="936.33" y="-762.73" font-family="Times,serif" font-size="14.00">Yes</text>
</g>
<!-- 44286&#45;&gt;44364 -->
<g id="edge14" class="edge">
<title>44286&#45;&gt;44364</title>
<path fill="none" stroke="black" d="M904.82,-740.09C912.02,-739.24 919.17,-738.48 926.21,-737.83 934.94,-737.04 943.85,-736.37 952.86,-735.81"/>
<polygon fill="black" stroke="black" points="953.01,-739.31 962.8,-735.25 952.62,-732.32 953.01,-739.31"/>
<text text-anchor="middle" x="936.33" y="-741.03" font-family="Times,serif" font-size="14.00">No</text>
</g>
<!-- 44786 -->
<g id="node14" class="node">
<title>44786</title>
<ellipse fill="none" stroke="black" cx="1617.48" cy="-738.33" rx="171.63" ry="171.63"/>
<text text-anchor="middle" x="1617.48" y="-733.28" font-family="Times,serif" font-size="14.00">Is there any media interest in this incident?</text>
</g>
<!-- 44364&#45;&gt;44786 -->
<g id="edge25" class="edge">
<title>44364&#45;&gt;44786</title>
<path fill="none" stroke="black" d="M1389.87,-738.33C1404.78,-738.33 1419.73,-738.33 1434.45,-738.33"/>
<polygon fill="black" stroke="black" points="1434.14,-741.83 1444.14,-738.33 1434.14,-734.83 1434.14,-741.83"/>
<text text-anchor="middle" x="1417.73" y="-741.53" font-family="Times,serif" font-size="14.00">Yes</text>
</g>
<!-- 44364&#45;&gt;44786 -->
<g id="edge26" class="edge">
<title>44364&#45;&gt;44786</title>
<path fill="none" stroke="black" d="M1388.9,-716.96C1402.07,-716.88 1415.14,-717.15 1427.85,-717.83 1430.36,-717.97 1432.88,-718.12 1435.42,-718.27"/>
<polygon fill="black" stroke="black" points="1434.91,-721.75 1445.12,-718.91 1435.37,-714.76 1434.91,-721.75"/>
<text text-anchor="middle" x="1417.73" y="-721.03" font-family="Times,serif" font-size="14.00">No</text>
</g>
<!-- 44301&#45;&gt;END_NODE -->
<g id="edge15" class="edge">
<title>44301&#45;&gt;END_NODE</title>
<path fill="none" stroke="black" d="M11321.52,-507.61C11336.77,-517.33 11353.1,-525.76 11369.82,-531.33 11411.88,-545.35 11431.68,-554.36 11469.57,-531.33 11489.15,-519.44 11501.53,-497.29 11509.17,-477.05"/>
<polygon fill="black" stroke="black" points="11512.4,-478.42 11512.35,-467.83 11505.78,-476.14 11512.4,-478.42"/>
<text text-anchor="middle" x="11419.7" y="-548.63" font-family="Times,serif" font-size="14.00">Weapons</text>
</g>
<!-- 44301&#45;&gt;END_NODE -->
<g id="edge16" class="edge">
<title>44301&#45;&gt;END_NODE</title>
<path fill="none" stroke="black" d="M11338.67,-482.27C11349,-485.93 11359.48,-489.05 11369.82,-491.33 11413.11,-500.89 11429.19,-509.63 11469.57,-491.33 11479.62,-486.78 11488.47,-479.15 11495.85,-470.9"/>
<polygon fill="black" stroke="black" points="11498.4,-473.3 11502.03,-463.34 11492.99,-468.86 11498.4,-473.3"/>
<text text-anchor="middle" x="11419.7" y="-505.22" font-family="Times,serif" font-size="14.00">Alcohol</text>
</g>
<!-- 44301&#45;&gt;END_NODE -->
<g id="edge17" class="edge">
<title>44301&#45;&gt;END_NODE</title>
<path fill="none" stroke="black" d="M11349.45,-451.66C11387.95,-456.38 11430.7,-458.01 11469.57,-451.33 11472.58,-450.82 11475.65,-450.14 11478.72,-449.35"/>
<polygon fill="black" stroke="black" points="11479.64,-452.73 11488.22,-446.53 11477.64,-446.02 11479.64,-452.73"/>
<text text-anchor="middle" x="11419.7" y="-458.98" font-family="Times,serif" font-size="14.00">Cigarettes</text>
</g>
<!-- 44301&#45;&gt;END_NODE -->
<g id="edge18" class="edge">
<title>44301&#45;&gt;END_NODE</title>
<path fill="none" stroke="black" d="M11352.11,-427.91C11389.79,-428.59 11431.4,-429.54 11469.57,-430.83 11471.63,-430.9 11473.74,-430.98 11475.88,-431.07"/>
<polygon fill="black" stroke="black" points="11475.68,-434.56 11485.82,-431.5 11475.98,-427.57 11475.68,-434.56"/>
<text text-anchor="middle" x="11419.7" y="-434.03" font-family="Times,serif" font-size="14.00">Tobacco</text>
</g>
<!-- 44301&#45;&gt;END_NODE -->
<g id="edge19" class="edge">
<title>44301&#45;&gt;END_NODE</title>
<path fill="none" stroke="black" d="M11349.84,-402.69C11388.46,-398.89 11431.18,-398.75 11469.57,-407.83 11473.44,-408.75 11477.34,-410.01 11481.18,-411.48"/>
<polygon fill="black" stroke="black" points="11479.78,-414.68 11490.34,-415.46 11482.57,-408.26 11479.78,-414.68"/>
<text text-anchor="middle" x="11419.7" y="-411.03" font-family="Times,serif" font-size="14.00">Cash</text>
</g>
<!-- 44301&#45;&gt;END_NODE -->
<g id="edge20" class="edge">
<title>44301&#45;&gt;END_NODE</title>
<path fill="none" stroke="black" d="M11342.27,-377.66C11383.47,-366.72 11429.73,-362.74 11469.57,-379.83 11478.63,-383.72 11486.83,-390.1 11493.88,-397.13"/>
<polygon fill="black" stroke="black" points="11491.24,-399.43 11500.58,-404.44 11496.41,-394.7 11491.24,-399.43"/>
<text text-anchor="middle" x="11419.7" y="-383.03" font-family="Times,serif" font-size="14.00">Escape equipment</text>
</g>
<!-- 44301&#45;&gt;END_NODE -->
<g id="edge21" class="edge">
<title>44301&#45;&gt;END_NODE</title>
<path fill="none" stroke="black" d="M11330.99,-357.03C11375.25,-335.69 11426.74,-323.48 11469.57,-347.83 11486.11,-357.24 11497.83,-374.38 11505.81,-390.85"/>
<polygon fill="black" stroke="black" points="11502.43,-391.86 11509.7,-399.57 11508.83,-389.01 11502.43,-391.86"/>
<text text-anchor="middle" x="11419.7" y="-351.03" font-family="Times,serif" font-size="14.00">Tools</text>
</g>
<!-- 44301&#45;&gt;END_NODE -->
<g id="edge22" class="edge">
<title>44301&#45;&gt;END_NODE</title>
<path fill="none" stroke="black" d="M11318.52,-341.53C11365.21,-307.39 11422.4,-282.64 11469.57,-313.83 11494.58,-330.37 11507.33,-361.98 11513.81,-388.54"/>
<polygon fill="black" stroke="black" points="11510.34,-389.05 11515.9,-398.07 11517.18,-387.56 11510.34,-389.05"/>
<text text-anchor="middle" x="11419.7" y="-317.03" font-family="Times,serif" font-size="14.00">Other</text>
</g>
<!-- 44333 -->
<g id="node13" class="node">
<title>44333</title>
<ellipse fill="none" stroke="black" cx="8345.63" cy="-202.33" rx="202.33" ry="202.33"/>
<text text-anchor="middle" x="8345.63" y="-197.28" font-family="Times,serif" font-size="14.00">Has any prosecution taken place or is any pending?</text>
</g>
<!-- 44333&#45;&gt;44124 -->
<g id="edge23" class="edge">
<title>44333&#45;&gt;44124</title>
<path fill="none" stroke="black" d="M8532.62,-280.49C8557.07,-290.77 8581.93,-301.22 8605.84,-311.26"/>
<polygon fill="black" stroke="black" points="8604.42,-314.46 8614.99,-315.11 8607.13,-308.01 8604.42,-314.46"/>
<text text-anchor="middle" x="8576.09" y="-303.51" font-family="Times,serif" font-size="14.00">Yes</text>
</g>
<!-- 44333&#45;&gt;44124 -->
<g id="edge24" class="edge">
<title>44333&#45;&gt;44124</title>
<path fill="none" stroke="black" d="M8540.9,-256.9C8556.39,-262.53 8571.67,-268.52 8586.22,-274.83 8596.35,-279.23 8606.63,-284.08 8616.88,-289.19"/>
<polygon fill="black" stroke="black" points="8615.26,-292.3 8625.76,-293.71 8618.43,-286.06 8615.26,-292.3"/>
<text text-anchor="middle" x="8576.09" y="-278.03" font-family="Times,serif" font-size="14.00">No</text>
</g>
<!-- 45095 -->
<g id="node28" class="node">
<title>45095</title>
<ellipse fill="none" stroke="black" cx="2045.13" cy="-738.33" rx="199.78" ry="199.78"/>
<text text-anchor="middle" x="2045.13" y="-733.28" font-family="Times,serif" font-size="14.00">Has the prison service press office been informed?</text>
</g>
<!-- 44786&#45;&gt;45095 -->
<g id="edge52" class="edge">
<title>44786&#45;&gt;45095</title>
<path fill="none" stroke="black" d="M1789.46,-738.33C1804.01,-738.33 1818.84,-738.33 1833.64,-738.33"/>
<polygon fill="black" stroke="black" points="1833.45,-741.83 1843.45,-738.33 1833.45,-734.83 1833.45,-741.83"/>
<text text-anchor="middle" x="1817.23" y="-741.53" font-family="Times,serif" font-size="14.00">Yes</text>
</g>
<!-- 44786&#45;&gt;45095 -->
<g id="edge53" class="edge">
<title>44786&#45;&gt;45095</title>
<path fill="none" stroke="black" d="M1788.33,-719.01C1794.66,-718.56 1800.94,-718.17 1807.1,-717.83 1816.12,-717.35 1825.33,-717.09 1834.62,-717.03"/>
<polygon fill="black" stroke="black" points="1834.48,-720.53 1844.48,-717.05 1834.49,-713.53 1834.48,-720.53"/>
<text text-anchor="middle" x="1817.23" y="-721.03" font-family="Times,serif" font-size="14.00">No</text>
</g>
<!-- 44389 -->
<g id="node15" class="node">
<title>44389</title>
<ellipse fill="none" stroke="black" cx="4861.63" cy="-373.33" rx="202.33" ry="202.33"/>
<text text-anchor="middle" x="4861.63" y="-368.28" font-family="Times,serif" font-size="14.00">Has any prosecution taken place or is any pending?</text>
</g>
<!-- 44883 -->
<g id="node16" class="node">
<title>44883</title>
<ellipse fill="none" stroke="black" cx="5260.11" cy="-413.33" rx="139.89" ry="139.89"/>
<text text-anchor="middle" x="5260.11" y="-408.28" font-family="Times,serif" font-size="14.00">Was the incident a demonstration?</text>
</g>
<!-- 44389&#45;&gt;44883 -->
<g id="edge27" class="edge">
<title>44389&#45;&gt;44883</title>
<path fill="none" stroke="black" d="M5063.2,-393.57C5078.65,-395.13 5094.09,-396.69 5109.14,-398.2"/>
<polygon fill="black" stroke="black" points="5108.75,-401.68 5119.05,-399.2 5109.46,-394.72 5108.75,-401.68"/>
<text text-anchor="middle" x="5092.09" y="-400.12" font-family="Times,serif" font-size="14.00">Yes</text>
</g>
<!-- 44389&#45;&gt;44883 -->
<g id="edge28" class="edge">
<title>44389&#45;&gt;44883</title>
<path fill="none" stroke="black" d="M5064.16,-371.19C5077.06,-372.1 5089.83,-373.3 5102.22,-374.83 5105.84,-375.28 5109.49,-375.79 5113.17,-376.34"/>
<polygon fill="black" stroke="black" points="5112.35,-379.75 5122.77,-377.88 5113.46,-372.84 5112.35,-379.75"/>
<text text-anchor="middle" x="5092.09" y="-378.03" font-family="Times,serif" font-size="14.00">No</text>
</g>
<!-- 44883&#45;&gt;44124 -->
<g id="edge59" class="edge">
<title>44883&#45;&gt;44124</title>
<path fill="none" stroke="black" d="M5397.33,-443C5472.37,-456.85 5567.39,-470.33 5652.99,-470.33 5652.99,-470.33 5652.99,-470.33 8346.63,-470.33 8432.06,-470.33 8525.04,-451.46 8601.42,-430.72"/>
<polygon fill="black" stroke="black" points="8601.91,-434.21 8610.62,-428.18 8600.05,-427.46 8601.91,-434.21"/>
<text text-anchor="middle" x="7063.64" y="-473.53" font-family="Times,serif" font-size="14.00">No</text>
</g>
<!-- 44709 -->
<g id="node27" class="node">
<title>44709</title>
<ellipse fill="none" stroke="black" cx="5653.99" cy="-244.33" rx="197.73" ry="197.73"/>
<text text-anchor="middle" x="5653.99" y="-239.28" font-family="Times,serif" font-size="14.00">Was the demonstration organised or spontaneous?</text>
</g>
<!-- 44883&#45;&gt;44709 -->
<g id="edge58" class="edge">
<title>44883&#45;&gt;44709</title>
<path fill="none" stroke="black" d="M5389.16,-358.11C5412.31,-348.13 5436.9,-337.52 5461.41,-326.96"/>
<polygon fill="black" stroke="black" points="5462.71,-330.2 5470.51,-323.03 5459.94,-323.78 5462.71,-330.2"/>
<text text-anchor="middle" x="5428.13" y="-347.17" font-family="Times,serif" font-size="14.00">Yes</text>
</g>
<!-- 44500 -->
<g id="node17" class="node">
<title>44500</title>
<ellipse fill="none" stroke="black" cx="6504.3" cy="-232.33" rx="194.15" ry="194.15"/>
<text text-anchor="middle" x="6504.3" y="-227.28" font-family="Times,serif" font-size="14.00">Was the demonstration known about in advance?</text>
</g>
<!-- 44606 -->
<g id="node18" class="node">
<title>44606</title>
<ellipse fill="none" stroke="black" cx="6862.86" cy="-295.33" rx="108.16" ry="108.16"/>
<text text-anchor="middle" x="6862.86" y="-290.28" font-family="Times,serif" font-size="14.00">How was it known about?</text>
</g>
<!-- 44500&#45;&gt;44606 -->
<g id="edge29" class="edge">
<title>44500&#45;&gt;44606</title>
<path fill="none" stroke="black" d="M6695.84,-266C6712.68,-268.98 6729.37,-271.93 6745.3,-274.74"/>
<polygon fill="black" stroke="black" points="6744.26,-278.11 6754.72,-276.4 6745.48,-271.22 6744.26,-278.11"/>
<text text-anchor="middle" x="6726.57" y="-276.36" font-family="Times,serif" font-size="14.00">Yes</text>
</g>
<!-- 44658 -->
<g id="node19" class="node">
<title>44658</title>
<ellipse fill="none" stroke="black" cx="7331.99" cy="-255.33" rx="175.72" ry="175.72"/>
<text text-anchor="middle" x="7331.99" y="-250.28" font-family="Times,serif" font-size="14.00">What was the reason for the demonstration?</text>
</g>
<!-- 44500&#45;&gt;44658 -->
<g id="edge30" class="edge">
<title>44500&#45;&gt;44658</title>
<path fill="none" stroke="black" d="M6689.99,-174.06C6711.63,-169.04 6733.53,-164.77 6754.7,-161.83 6849.93,-148.63 6875.65,-149.65 6971.02,-161.83 7031.19,-169.52 7095.68,-184.16 7153.21,-199.61"/>
<polygon fill="black" stroke="black" points="7152.21,-202.97 7162.78,-202.21 7154.05,-196.21 7152.21,-202.97"/>
<text text-anchor="middle" x="6862.86" y="-165.03" font-family="Times,serif" font-size="14.00">No</text>
</g>
<!-- 44606&#45;&gt;44658 -->
<g id="edge37" class="edge">
<title>44606&#45;&gt;44658</title>
<path fill="none" stroke="black" d="M6970.27,-311.69C6976.6,-312.34 6982.89,-312.9 6989.02,-313.33 7055.18,-318.07 7072.64,-323 7138.27,-313.33 7143.22,-312.61 7148.21,-311.78 7153.23,-310.86"/>
<polygon fill="black" stroke="black" points="7153.63,-314.35 7162.78,-309.02 7152.3,-307.48 7153.63,-314.35"/>
<text text-anchor="middle" x="7063.64" y="-322.08" font-family="Times,serif" font-size="14.00">Information from prisoners</text>
</g>
<!-- 44606&#45;&gt;44658 -->
<g id="edge38" class="edge">
<title>44606&#45;&gt;44658</title>
<path fill="none" stroke="black" d="M6971.07,-287.07C7021.78,-283.07 7083.16,-278.12 7138.27,-273.33 7140.62,-273.13 7142.99,-272.92 7145.38,-272.72"/>
<polygon fill="black" stroke="black" points="7145.46,-276.22 7155.11,-271.86 7144.84,-269.25 7145.46,-276.22"/>
<text text-anchor="middle" x="7063.64" y="-288.29" font-family="Times,serif" font-size="14.00">Information from police</text>
</g>
<!-- 44606&#45;&gt;44658 -->
<g id="edge39" class="edge">
<title>44606&#45;&gt;44658</title>
<path fill="none" stroke="black" d="M6964.58,-258.01C6972.77,-255.94 6980.98,-254.16 6989.02,-252.83 7039.26,-244.54 7094.22,-242.08 7145.09,-242.48"/>
<polygon fill="black" stroke="black" points="7145.01,-245.98 7155.05,-242.6 7145.09,-238.98 7145.01,-245.98"/>
<text text-anchor="middle" x="7063.64" y="-256.03" font-family="Times,serif" font-size="14.00">Information from hq/am</text>
</g>
<!-- 44606&#45;&gt;44658 -->
<g id="edge40" class="edge">
<title>44606&#45;&gt;44658</title>
<path fill="none" stroke="black" d="M6953.3,-235.4C6964.92,-229.86 6976.98,-225.11 6989.02,-221.83 7040.21,-207.92 7097.1,-207.71 7149.55,-213.37"/>
<polygon fill="black" stroke="black" points="7148.83,-216.81 7159.17,-214.49 7149.64,-209.85 7148.83,-216.81"/>
<text text-anchor="middle" x="7063.64" y="-225.03" font-family="Times,serif" font-size="14.00">Other</text>
</g>
<!-- 44686 -->
<g id="node25" class="node">
<title>44686</title>
<ellipse fill="none" stroke="black" cx="7737.02" cy="-260.33" rx="92.81" ry="92.81"/>
<text text-anchor="middle" x="7737.02" y="-255.28" font-family="Times,serif" font-size="14.00">Did the police attend?</text>
</g>
<!-- 44658&#45;&gt;44686 -->
<g id="edge42" class="edge">
<title>44658&#45;&gt;44686</title>
<path fill="none" stroke="black" d="M7501.84,-301.22C7542.62,-306.95 7586.02,-308.59 7626.21,-301.33 7630.77,-300.51 7635.39,-299.51 7640.02,-298.37"/>
<polygon fill="black" stroke="black" points="7640.62,-301.83 7649.37,-295.86 7638.8,-295.07 7640.62,-301.83"/>
<text text-anchor="middle" x="7575.96" y="-309.37" font-family="Times,serif" font-size="14.00">Particular prisoner</text>
</g>
<!-- 44658&#45;&gt;44686 -->
<g id="edge43" class="edge">
<title>44658&#45;&gt;44686</title>
<path fill="none" stroke="black" d="M7507.88,-261.02C7513.9,-261.14 7519.85,-261.24 7525.71,-261.33 7570.37,-262.03 7581.54,-261.54 7626.21,-261.33 7628.27,-261.33 7630.34,-261.32 7632.44,-261.3"/>
<polygon fill="black" stroke="black" points="7632.26,-264.81 7642.24,-261.25 7632.22,-257.81 7632.26,-264.81"/>
<text text-anchor="middle" x="7575.96" y="-264.89" font-family="Times,serif" font-size="14.00">Local issue</text>
</g>
<!-- 44658&#45;&gt;44686 -->
<g id="edge44" class="edge">
<title>44658&#45;&gt;44686</title>
<path fill="none" stroke="black" d="M7507.18,-238.85C7546.38,-237.33 7587.75,-237.45 7626.21,-240.83 7628.86,-241.07 7631.53,-241.33 7634.23,-241.62"/>
<polygon fill="black" stroke="black" points="7633.56,-245.07 7643.9,-242.78 7634.39,-238.12 7633.56,-245.07"/>
<text text-anchor="middle" x="7575.96" y="-244.03" font-family="Times,serif" font-size="14.00">General issue</text>
</g>
<!-- 44658&#45;&gt;44686 -->
<g id="edge45" class="edge">
<title>44658&#45;&gt;44686</title>
<path fill="none" stroke="black" d="M7503.29,-215.58C7543.72,-211.1 7586.61,-210.44 7626.21,-217.83 7630.85,-218.7 7635.54,-219.75 7640.23,-220.96"/>
<polygon fill="black" stroke="black" points="7639.16,-224.29 7649.73,-223.61 7641.04,-217.55 7639.16,-224.29"/>
<text text-anchor="middle" x="7575.96" y="-221.03" font-family="Times,serif" font-size="14.00">Other</text>
</g>
<!-- 44514 -->
<g id="node20" class="node">
<title>44514</title>
<ellipse fill="none" stroke="black" cx="3707.65" cy="-607.33" rx="170.09" ry="170.09"/>
<text text-anchor="middle" x="3707.65" y="-602.28" font-family="Times,serif" font-size="14.00">Did unauthorised persons enter the prison?</text>
</g>
<!-- 44514&#45;&gt;44883 -->
<g id="edge32" class="edge">
<title>44514&#45;&gt;44883</title>
<path fill="none" stroke="black" d="M3875.86,-634.94C3936.74,-642.83 4006.22,-649.33 4069.82,-649.33 4069.82,-649.33 4069.82,-649.33 4862.63,-649.33 4972.85,-649.33 5019.57,-658.26 5102.22,-585.33 5122.2,-567.71 5142.29,-547.75 5161.11,-527.84"/>
<polygon fill="black" stroke="black" points="5163.5,-530.41 5167.78,-520.72 5158.39,-525.63 5163.5,-530.41"/>
<text text-anchor="middle" x="4433.47" y="-652.53" font-family="Times,serif" font-size="14.00">No</text>
</g>
<!-- 44543 -->
<g id="node21" class="node">
<title>44543</title>
<ellipse fill="none" stroke="black" cx="4070.82" cy="-484.33" rx="136.82" ry="136.82"/>
<text text-anchor="middle" x="4070.82" y="-479.28" font-family="Times,serif" font-size="14.00">Were these persons apprehended?</text>
</g>
<!-- 44514&#45;&gt;44543 -->
<g id="edge31" class="edge">
<title>44514&#45;&gt;44543</title>
<path fill="none" stroke="black" d="M3869.17,-552.67C3889.53,-545.73 3910.23,-538.68 3930.23,-531.87"/>
<polygon fill="black" stroke="black" points="3931.17,-535.25 3939.51,-528.71 3928.91,-528.62 3931.17,-535.25"/>
<text text-anchor="middle" x="3905.87" y="-545.35" font-family="Times,serif" font-size="14.00">Yes</text>
</g>
<!-- 44543&#45;&gt;44883 -->
<g id="edge34" class="edge">
<title>44543&#45;&gt;44883</title>
<path fill="none" stroke="black" d="M4198.6,-534.41C4220.12,-541.4 4242.44,-547.75 4263.89,-552.33 4437.9,-589.52 4897.42,-646.98 5063.97,-584.33 5098.26,-571.44 5130.46,-549.47 5158.44,-525.5"/>
<polygon fill="black" stroke="black" points="5160.63,-528.23 5165.84,-519.01 5156.02,-522.97 5160.63,-528.23"/>
<text text-anchor="middle" x="4631.17" y="-606.77" font-family="Times,serif" font-size="14.00">No</text>
</g>
<!-- 44855 -->
<g id="node22" class="node">
<title>44855</title>
<ellipse fill="none" stroke="black" cx="4433.47" cy="-373.33" rx="169.58" ry="169.58"/>
<text text-anchor="middle" x="4433.47" y="-368.28" font-family="Times,serif" font-size="14.00">Were these persons arrested by the police?</text>
</g>
<!-- 44543&#45;&gt;44855 -->
<g id="edge33" class="edge">
<title>44543&#45;&gt;44855</title>
<path fill="none" stroke="black" d="M4202.02,-444.26C4220.92,-438.45 4240.61,-432.38 4260.18,-426.36"/>
<polygon fill="black" stroke="black" points="4261.06,-429.75 4269.59,-423.47 4259,-423.06 4261.06,-429.75"/>
<text text-anchor="middle" x="4235.77" y="-438.68" font-family="Times,serif" font-size="14.00">Yes</text>
</g>
<!-- 44855&#45;&gt;44389 -->
<g id="edge54" class="edge">
<title>44855&#45;&gt;44389</title>
<path fill="none" stroke="black" d="M4603.51,-373.33C4618.05,-373.33 4632.87,-373.33 4647.69,-373.33"/>
<polygon fill="black" stroke="black" points="4647.51,-376.83 4657.51,-373.33 4647.51,-369.83 4647.51,-376.83"/>
<text text-anchor="middle" x="4631.17" y="-376.53" font-family="Times,serif" font-size="14.00">Yes</text>
</g>
<!-- 44855&#45;&gt;44883 -->
<g id="edge55" class="edge">
<title>44855&#45;&gt;44883</title>
<path fill="none" stroke="black" d="M4535.02,-237.1C4569.86,-200.44 4612.16,-165.52 4659.3,-145.83 4825.26,-76.52 4903.64,-64.34 5063.97,-145.83 5119.33,-173.98 5162.72,-226.01 5194.38,-276.75"/>
<polygon fill="black" stroke="black" points="5191.37,-278.54 5199.57,-285.25 5197.35,-274.89 5191.37,-278.54"/>
<text text-anchor="middle" x="4861.63" y="-149.03" font-family="Times,serif" font-size="14.00">No</text>
</g>
<!-- 44561 -->
<g id="node23" class="node">
<title>44561</title>
<ellipse fill="none" stroke="black" cx="6105.31" cy="-236.33" rx="148.59" ry="148.59"/>
<text text-anchor="middle" x="6105.31" y="-231.28" font-family="Times,serif" font-size="14.00">Was a known organisation involved?</text>
</g>
<!-- 44561&#45;&gt;44500 -->
<g id="edge35" class="edge">
<title>44561&#45;&gt;44500</title>
<path fill="none" stroke="black" d="M6254.13,-234.85C6268.63,-234.7 6283.51,-234.55 6298.43,-234.4"/>
<polygon fill="black" stroke="black" points="6298.37,-237.9 6308.34,-234.3 6298.3,-230.9 6298.37,-237.9"/>
<text text-anchor="middle" x="6282.03" y="-237.77" font-family="Times,serif" font-size="14.00">Yes</text>
</g>
<!-- 44561&#45;&gt;44500 -->
<g id="edge36" class="edge">
<title>44561&#45;&gt;44500</title>
<path fill="none" stroke="black" d="M6252.48,-215.38C6259.04,-214.79 6265.54,-214.27 6271.9,-213.83 6280.91,-213.23 6290.11,-212.87 6299.4,-212.71"/>
<polygon fill="black" stroke="black" points="6299.29,-216.21 6309.26,-212.64 6299.23,-209.21 6299.29,-216.21"/>
<text text-anchor="middle" x="6282.03" y="-217.03" font-family="Times,serif" font-size="14.00">No</text>
</g>
<!-- 44616&#45;&gt;44249 -->
<g id="edge41" class="edge">
<title>44616&#45;&gt;44249</title>
<path fill="none" stroke="black" d="M9734.16,-472.4C9792.72,-458.38 9867.71,-440.44 9936.72,-423.92"/>
<polygon fill="black" stroke="black" points="9937.36,-427.37 9946.27,-421.64 9935.73,-420.56 9937.36,-427.37"/>
<text text-anchor="middle" x="9839.73" y="-468.35" font-family="Times,serif" font-size="14.00">Enter amount in pound sterling</text>
</g>
<!-- 44686&#45;&gt;44124 -->
<g id="edge47" class="edge">
<title>44686&#45;&gt;44124</title>
<path fill="none" stroke="black" d="M7813.56,-313.07C7836.12,-327.05 7861.42,-341.09 7886.08,-351.33 8158.92,-464.71 8253.52,-437.8 8547.97,-413.33 8563.45,-412.05 8579.49,-410.25 8595.52,-408.14"/>
<polygon fill="black" stroke="black" points="8595.68,-411.65 8605.11,-406.83 8594.73,-404.71 8595.68,-411.65"/>
<text text-anchor="middle" x="8115.17" y="-427.76" font-family="Times,serif" font-size="14.00">No</text>
</g>
<!-- 44728 -->
<g id="node26" class="node">
<title>44728</title>
<ellipse fill="none" stroke="black" cx="7986.56" cy="-242.33" rx="100.48" ry="100.48"/>
<text text-anchor="middle" x="7986.56" y="-237.28" font-family="Times,serif" font-size="14.00">Were any arrests made?</text>
</g>
<!-- 44686&#45;&gt;44728 -->
<g id="edge46" class="edge">
<title>44686&#45;&gt;44728</title>
<path fill="none" stroke="black" d="M7829.84,-253.66C7844.43,-252.6 7859.64,-251.49 7874.61,-250.4"/>
<polygon fill="black" stroke="black" points="7874.76,-253.9 7884.48,-249.68 7874.25,-246.92 7874.76,-253.9"/>
<text text-anchor="middle" x="7857.95" y="-255.07" font-family="Times,serif" font-size="14.00">Yes</text>
</g>
<!-- 44728&#45;&gt;44333 -->
<g id="edge50" class="edge">
<title>44728&#45;&gt;44333</title>
<path fill="none" stroke="black" d="M8086.55,-231.25C8101.31,-229.59 8116.98,-227.84 8133.01,-226.04"/>
<polygon fill="black" stroke="black" points="8133.12,-229.55 8142.67,-224.96 8132.34,-222.59 8133.12,-229.55"/>
<text text-anchor="middle" x="8115.17" y="-231.45" font-family="Times,serif" font-size="14.00">Yes</text>
</g>
<!-- 44728&#45;&gt;44333 -->
<g id="edge51" class="edge">
<title>44728&#45;&gt;44333</title>
<path fill="none" stroke="black" d="M8082.59,-211.24C8090.13,-209.5 8097.68,-207.99 8105.05,-206.83 8113.72,-205.47 8122.58,-204.3 8131.56,-203.3"/>
<polygon fill="black" stroke="black" points="8131.88,-206.79 8141.47,-202.28 8131.16,-199.82 8131.88,-206.79"/>
<text text-anchor="middle" x="8115.17" y="-210.03" font-family="Times,serif" font-size="14.00">No</text>
</g>
<!-- 44709&#45;&gt;44561 -->
<g id="edge48" class="edge">
<title>44709&#45;&gt;44561</title>
<path fill="none" stroke="black" d="M5851.89,-243.69C5881.01,-243.38 5910.64,-242.94 5938.71,-242.33 5940.92,-242.29 5943.15,-242.24 5945.39,-242.18"/>
<polygon fill="black" stroke="black" points="5945.28,-245.69 5955.18,-241.94 5945.1,-238.69 5945.28,-245.69"/>
<text text-anchor="middle" x="5904.21" y="-246.6" font-family="Times,serif" font-size="14.00">Organised</text>
</g>
<!-- 44709&#45;&gt;44561 -->
<g id="edge49" class="edge">
<title>44709&#45;&gt;44561</title>
<path fill="none" stroke="black" d="M5851,-222.49C5880.38,-221.05 5910.33,-220.59 5938.71,-221.83 5941.08,-221.94 5943.46,-222.05 5945.86,-222.17"/>
<polygon fill="black" stroke="black" points="5945.49,-225.65 5955.67,-222.7 5945.87,-218.66 5945.49,-225.65"/>
<text text-anchor="middle" x="5904.21" y="-225.03" font-family="Times,serif" font-size="14.00">Spontaneous</text>
</g>
<!-- 44946 -->
<g id="node31" class="node">
<title>44946</title>
<ellipse fill="none" stroke="black" cx="2431.84" cy="-738.33" rx="130.68" ry="130.68"/>
<text text-anchor="middle" x="2431.84" y="-733.28" font-family="Times,serif" font-size="14.00">What was the incident location?</text>
</g>
<!-- 45095&#45;&gt;44946 -->
<g id="edge73" class="edge">
<title>45095&#45;&gt;44946</title>
<path fill="none" stroke="black" d="M2245.24,-738.33C2260.15,-738.33 2274.99,-738.33 2289.43,-738.33"/>
<polygon fill="black" stroke="black" points="2289.39,-741.83 2299.39,-738.33 2289.39,-734.83 2289.39,-741.83"/>
<text text-anchor="middle" x="2273.03" y="-741.53" font-family="Times,serif" font-size="14.00">Yes</text>
</g>
<!-- 45095&#45;&gt;44946 -->
<g id="edge74" class="edge">
<title>45095&#45;&gt;44946</title>
<path fill="none" stroke="black" d="M2243.97,-716.62C2257.23,-716.58 2270.38,-716.95 2283.16,-717.83 2285.67,-718.01 2288.21,-718.2 2290.77,-718.4"/>
<polygon fill="black" stroke="black" points="2290.3,-721.88 2300.57,-719.26 2290.91,-714.9 2290.3,-721.88"/>
<text text-anchor="middle" x="2273.03" y="-721.03" font-family="Times,serif" font-size="14.00">No</text>
</g>
<!-- 44864 -->
<g id="node29" class="node">
<title>44864</title>
<ellipse fill="none" stroke="black" cx="2823.54" cy="-738.33" rx="145.52" ry="145.52"/>
<text text-anchor="middle" x="2823.54" y="-733.28" font-family="Times,serif" font-size="14.00">Was the secure perimeter breached?</text>
</g>
<!-- 44864&#45;&gt;44514 -->
<g id="edge57" class="edge">
<title>44864&#45;&gt;44514</title>
<path fill="none" stroke="black" d="M2965.96,-769.28C3086.35,-790.1 3262.91,-807.46 3411.56,-769.33 3461.53,-756.52 3512.13,-733.28 3556.98,-708.33"/>
<polygon fill="black" stroke="black" points="3558.45,-711.52 3565.44,-703.56 3555.01,-705.42 3558.45,-711.52"/>
<text text-anchor="middle" x="3218.44" y="-795.07" font-family="Times,serif" font-size="14.00">No</text>
</g>
<!-- 44918 -->
<g id="node30" class="node">
<title>44918</title>
<ellipse fill="none" stroke="black" cx="3218.44" cy="-567.33" rx="193.12" ry="193.12"/>
<text text-anchor="middle" x="3218.44" y="-562.28" font-family="Times,serif" font-size="14.00">Describe how the secure perimeter was breached</text>
</g>
<!-- 44864&#45;&gt;44918 -->
<g id="edge56" class="edge">
<title>44864&#45;&gt;44918</title>
<path fill="none" stroke="black" d="M2957.56,-680.44C2981.03,-670.23 3005.86,-659.42 3030.49,-648.7"/>
<polygon fill="black" stroke="black" points="3031.86,-651.92 3039.64,-644.72 3029.07,-645.5 3031.86,-651.92"/>
<text text-anchor="middle" x="2997.19" y="-666.27" font-family="Times,serif" font-size="14.00">Yes</text>
</g>
<!-- 44918&#45;&gt;44514 -->
<g id="edge62" class="edge">
<title>44918&#45;&gt;44514</title>
<path fill="none" stroke="black" d="M3391.06,-654.52C3403.87,-658.81 3416.79,-662.5 3429.56,-665.33 3464.02,-672.98 3500.96,-671.76 3536.27,-666.07"/>
<polygon fill="black" stroke="black" points="3536.43,-669.59 3545.68,-664.42 3535.22,-662.7 3536.43,-669.59"/>
<text text-anchor="middle" x="3474.56" y="-673.9" font-family="Times,serif" font-size="14.00">Thrown over</text>
</g>
<!-- 44918&#45;&gt;44514 -->
<g id="edge63" class="edge">
<title>44918&#45;&gt;44514</title>
<path fill="none" stroke="black" d="M3404.21,-621.27C3412.74,-622.83 3421.22,-624.2 3429.56,-625.33 3469.2,-630.71 3479.61,-627.25 3519.56,-625.33 3521.92,-625.22 3524.29,-625.1 3526.67,-624.97"/>
<polygon fill="black" stroke="black" points="3526.63,-628.48 3536.41,-624.41 3526.22,-621.49 3526.63,-628.48"/>
<text text-anchor="middle" x="3474.56" y="-631.41" font-family="Times,serif" font-size="14.00">Climbed over</text>
</g>
<!-- 44918&#45;&gt;44514 -->
<g id="edge64" class="edge">
<title>44918&#45;&gt;44514</title>
<path fill="none" stroke="black" d="M3411.25,-583.82C3417.42,-584.33 3423.54,-584.84 3429.56,-585.33 3460.86,-587.92 3494.15,-590.61 3526.4,-593.19"/>
<polygon fill="black" stroke="black" points="3526,-596.67 3536.25,-593.97 3526.56,-589.69 3526,-596.67"/>
<text text-anchor="middle" x="3474.56" y="-595.34" font-family="Times,serif" font-size="14.00">Cut through</text>
</g>
<!-- 44918&#45;&gt;44514 -->
<g id="edge65" class="edge">
<title>44918&#45;&gt;44514</title>
<path fill="none" stroke="black" d="M3411.52,-558.89C3447.5,-559.25 3484.74,-560.93 3519.56,-564.83 3523.2,-565.24 3526.88,-565.69 3530.57,-566.19"/>
<polygon fill="black" stroke="black" points="3529.83,-569.62 3540.22,-567.56 3530.82,-562.68 3529.83,-569.62"/>
<text text-anchor="middle" x="3474.56" y="-568.03" font-family="Times,serif" font-size="14.00">Vehicle rammed</text>
</g>
<!-- 44918&#45;&gt;44514 -->
<g id="edge66" class="edge">
<title>44918&#45;&gt;44514</title>
<path fill="none" stroke="black" d="M3408.98,-533.84C3445.81,-531.69 3484,-532.53 3519.56,-538.83 3525.63,-539.91 3531.76,-541.17 3537.91,-542.58"/>
<polygon fill="black" stroke="black" points="3536.98,-545.95 3547.53,-544.91 3538.64,-539.15 3536.98,-545.95"/>
<text text-anchor="middle" x="3474.56" y="-542.03" font-family="Times,serif" font-size="14.00">Explosives</text>
</g>
<!-- 44918&#45;&gt;44514 -->
<g id="edge67" class="edge">
<title>44918&#45;&gt;44514</title>
<path fill="none" stroke="black" d="M3403.01,-508.88C3441.67,-503.41 3482.08,-502.82 3519.56,-511.83 3529.09,-514.13 3538.69,-516.99 3548.22,-520.28"/>
<polygon fill="black" stroke="black" points="3546.94,-523.54 3557.54,-523.65 3549.33,-516.96 3546.94,-523.54"/>
<text text-anchor="middle" x="3474.56" y="-515.03" font-family="Times,serif" font-size="14.00">Other</text>
</g>
<!-- 44946&#45;&gt;44864 -->
<g id="edge68" class="edge">
<title>44946&#45;&gt;44864</title>
<path fill="none" stroke="black" d="M2562.87,-738.33C2596.13,-738.33 2632.23,-738.33 2666.64,-738.33"/>
<polygon fill="black" stroke="black" points="2666.23,-741.83 2676.23,-738.33 2666.23,-734.83 2666.23,-741.83"/>
<text text-anchor="middle" x="2620.27" y="-741.53" font-family="Times,serif" font-size="14.00">Inside prison</text>
</g>
<!-- 44946&#45;&gt;44864 -->
<g id="edge69" class="edge">
<title>44946&#45;&gt;44864</title>
<path fill="none" stroke="black" d="M2561.6,-719.4C2567.99,-718.79 2574.32,-718.26 2580.52,-717.83 2608.65,-715.89 2638.6,-716.36 2667.5,-718.12"/>
<polygon fill="black" stroke="black" points="2667.22,-721.61 2677.43,-718.78 2667.69,-714.62 2667.22,-721.61"/>
<text text-anchor="middle" x="2620.27" y="-721.03" font-family="Times,serif" font-size="14.00">Outside prison</text>
</g>
</g>
</svg>
