<?xml version="1.0" encoding="UTF-8" standalone="no"?>
<!DOCTYPE svg PUBLIC "-//W3C//DTD SVG 1.1//EN"
 "http://www.w3.org/Graphics/SVG/1.1/DTD/svg11.dtd">
<!-- Generated by graphviz version 12.1.1 (20240910.0053)
 -->
<!-- Title: BREACH_OF_SECURITY Pages: 1 -->
<svg width="15180pt" height="1298pt"
 viewBox="0.00 0.00 15179.82 1298.46" xmlns="http://www.w3.org/2000/svg" xmlns:xlink="http://www.w3.org/1999/xlink">
<g id="graph0" class="graph" transform="scale(1 1) rotate(0) translate(4 1294.46)">
<title>BREACH_OF_SECURITY</title>
<polygon fill="white" stroke="none" points="-4,4 -4,-1294.46 15175.82,-1294.46 15175.82,4 -4,4"/>
<!-- START_NODE -->
<g id="node1" class="node">
<title>START_NODE</title>
</g>
<!-- 44253 -->
<g id="node2" class="node">
<title>44253</title>
<ellipse fill="none" stroke="black" cx="337.08" cy="-720.94" rx="223.83" ry="223.83"/>
<text text-anchor="middle" x="337.08" y="-715.89" font-family="Times,serif" font-size="14.00">WERE THE POLICE INFORMED OF THE INCIDENT</text>
</g>
<!-- START_NODE&#45;&gt;44253 -->
<g id="edge1" class="edge">
<title>START_NODE&#45;&gt;44253</title>
<path fill="none" stroke="black" d="M53.74,-720.94C66.37,-720.94 82.91,-720.94 101.66,-720.94"/>
<polygon fill="black" stroke="black" points="101.43,-724.44 111.43,-720.94 101.43,-717.44 101.43,-724.44"/>
<text text-anchor="middle" x="83.62" y="-724.14" font-family="Times,serif" font-size="14.00">start</text>
</g>
<!-- 44286 -->
<g id="node10" class="node">
<title>44286</title>
<ellipse fill="none" stroke="black" cx="897.93" cy="-1014.94" rx="275.52" ry="275.52"/>
<text text-anchor="middle" x="897.93" y="-1009.89" font-family="Times,serif" font-size="14.00">IS THE INCIDENT THE SUBJECT OF A POLICE INVESTIGATION</text>
</g>
<!-- 44253&#45;&gt;44286 -->
<g id="edge11" class="edge">
<title>44253&#45;&gt;44286</title>
<path fill="none" stroke="black" d="M535.5,-824.8C570.39,-843.15 607.15,-862.49 643.32,-881.52"/>
<polygon fill="black" stroke="black" points="641.69,-884.62 652.17,-886.18 644.95,-878.42 641.69,-884.62"/>
<text text-anchor="middle" x="591.66" y="-862.33" font-family="Times,serif" font-size="14.00">YES</text>
</g>
<!-- 44364 -->
<g id="node11" class="node">
<title>44364</title>
<ellipse fill="none" stroke="black" cx="1531.47" cy="-974.94" rx="296.51" ry="296.51"/>
<text text-anchor="middle" x="1531.47" y="-969.89" font-family="Times,serif" font-size="14.00">IS THE INCIDENT THE SUBJECT OF AN INTERNAL INVESTIGATION</text>
</g>
<!-- 44253&#45;&gt;44364 -->
<g id="edge12" class="edge">
<title>44253&#45;&gt;44364</title>
<path fill="none" stroke="black" d="M557.65,-681.4C729.62,-659.27 972.54,-647.73 1173.46,-713.44 1216.56,-727.54 1258.76,-749.03 1298.18,-773.76"/>
<polygon fill="black" stroke="black" points="1296.02,-776.54 1306.33,-778.96 1299.78,-770.63 1296.02,-776.54"/>
<text text-anchor="middle" x="897.93" y="-716.64" font-family="Times,serif" font-size="14.00">NO</text>
</g>
<!-- END_NODE -->
<g id="node3" class="node">
<title>END_NODE</title>
<ellipse fill="none" stroke="black" cx="15137.97" cy="-570.94" rx="29.86" ry="29.86"/>
<ellipse fill="none" stroke="black" cx="15137.97" cy="-570.94" rx="33.86" ry="33.86"/>
<text text-anchor="middle" x="15137.97" y="-565.89" font-family="Times,serif" font-size="14.00">END</text>
</g>
<!-- 44124 -->
<g id="node4" class="node">
<title>44124</title>
<ellipse fill="none" stroke="black" cx="11519.12" cy="-498.94" rx="213.08" ry="213.08"/>
<text text-anchor="middle" x="11519.12" y="-493.89" font-family="Times,serif" font-size="14.00">WAS DAMAGE CAUSED TO PRISON PROPERTY</text>
</g>
<!-- 44136 -->
<g id="node5" class="node">
<title>44136</title>
<ellipse fill="none" stroke="black" cx="11903.4" cy="-633.94" rx="109.7" ry="109.7"/>
<text text-anchor="middle" x="11903.4" y="-628.89" font-family="Times,serif" font-size="14.00">WHAT WAS DAMAGED</text>
</g>
<!-- 44124&#45;&gt;44136 -->
<g id="edge2" class="edge">
<title>44124&#45;&gt;44136</title>
<path fill="none" stroke="black" d="M11720.49,-569.7C11743.96,-577.99 11767.24,-586.21 11788.91,-593.86"/>
<polygon fill="black" stroke="black" points="11787.73,-597.16 11798.33,-597.19 11790.06,-590.56 11787.73,-597.16"/>
<text text-anchor="middle" x="11762.95" y="-589.62" font-family="Times,serif" font-size="14.00">YES</text>
</g>
<!-- 44249 -->
<g id="node6" class="node">
<title>44249</title>
<ellipse fill="none" stroke="black" cx="13307.32" cy="-498.94" rx="256.59" ry="256.59"/>
<text text-anchor="middle" x="13307.32" y="-493.89" font-family="Times,serif" font-size="14.00">WERE ANY INJURIES RECEIVED DURING THIS INCIDENT</text>
</g>
<!-- 44124&#45;&gt;44249 -->
<g id="edge3" class="edge">
<title>44124&#45;&gt;44249</title>
<path fill="none" stroke="black" d="M11731.87,-486.92C11787.34,-484.63 11847.1,-482.94 11902.4,-482.94 11902.4,-482.94 11902.4,-482.94 12626.7,-482.94 12762.75,-482.94 12914.07,-486.18 13039.33,-489.75"/>
<polygon fill="black" stroke="black" points="13038.99,-493.24 13049.08,-490.03 13039.19,-486.25 13038.99,-493.24"/>
<text text-anchor="middle" x="12250.51" y="-486.14" font-family="Times,serif" font-size="14.00">NO</text>
</g>
<!-- 45016 -->
<g id="node7" class="node">
<title>45016</title>
<ellipse fill="none" stroke="black" cx="12250.51" cy="-643.94" rx="118.91" ry="118.91"/>
<text text-anchor="middle" x="12250.51" y="-638.89" font-family="Times,serif" font-size="14.00">DESCRIBE THE DAMAGE</text>
</g>
<!-- 44136&#45;&gt;45016 -->
<g id="edge4" class="edge">
<title>44136&#45;&gt;45016</title>
<path fill="none" stroke="black" d="M11999.45,-687.75C12009.88,-691.89 12020.55,-695.43 12031.1,-697.94 12063.36,-705.63 12098.24,-702.27 12130.46,-694.36"/>
<polygon fill="black" stroke="black" points="12131.04,-697.83 12139.82,-691.9 12129.25,-691.06 12131.04,-697.83"/>
<text text-anchor="middle" x="12072.35" y="-705.46" font-family="Times,serif" font-size="14.00">FURNITURE</text>
</g>
<!-- 44136&#45;&gt;45016 -->
<g id="edge5" class="edge">
<title>44136&#45;&gt;45016</title>
<path fill="none" stroke="black" d="M12011.34,-655.66C12018.01,-656.56 12024.63,-657.33 12031.1,-657.94 12060.11,-660.66 12091.35,-660.5 12120.87,-658.93"/>
<polygon fill="black" stroke="black" points="12120.8,-662.44 12130.58,-658.36 12120.39,-655.45 12120.8,-662.44"/>
<text text-anchor="middle" x="12072.35" y="-663.26" font-family="Times,serif" font-size="14.00">FITTINGS</text>
</g>
<!-- 44136&#45;&gt;45016 -->
<g id="edge6" class="edge">
<title>44136&#45;&gt;45016</title>
<path fill="none" stroke="black" d="M12013.53,-635.13C12045.76,-635.65 12081.1,-636.39 12113.6,-637.44 12115.67,-637.51 12117.77,-637.58 12119.88,-637.65"/>
<polygon fill="black" stroke="black" points="12119.65,-641.14 12129.77,-638.01 12119.9,-634.15 12119.65,-641.14"/>
<text text-anchor="middle" x="12072.35" y="-640.64" font-family="Times,serif" font-size="14.00">MACHINERY</text>
</g>
<!-- 44136&#45;&gt;45016 -->
<g id="edge7" class="edge">
<title>44136&#45;&gt;45016</title>
<path fill="none" stroke="black" d="M12012.11,-617.13C12018.52,-616.47 12024.89,-615.89 12031.1,-615.44 12067.67,-612.78 12077.13,-611.66 12113.6,-615.44 12116.64,-615.76 12119.71,-616.11 12122.81,-616.5"/>
<polygon fill="black" stroke="black" points="12122.21,-619.95 12132.6,-617.84 12123.16,-613.01 12122.21,-619.95"/>
<text text-anchor="middle" x="12072.35" y="-618.64" font-family="Times,serif" font-size="14.00">EQUIPMENT</text>
</g>
<!-- 44136&#45;&gt;45016 -->
<g id="edge8" class="edge">
<title>44136&#45;&gt;45016</title>
<path fill="none" stroke="black" d="M12007.1,-597.33C12015.15,-595.37 12023.21,-593.7 12031.1,-592.44 12067.3,-586.66 12077.53,-585.84 12113.6,-592.44 12118.83,-593.4 12124.12,-594.55 12129.43,-595.85"/>
<polygon fill="black" stroke="black" points="12128.3,-599.17 12138.86,-598.34 12130.08,-592.4 12128.3,-599.17"/>
<text text-anchor="middle" x="12072.35" y="-595.64" font-family="Times,serif" font-size="14.00">OTHER</text>
</g>
<!-- 45137 -->
<g id="node8" class="node">
<title>45137</title>
<ellipse fill="none" stroke="black" cx="13832.86" cy="-724.94" rx="207.45" ry="207.45"/>
<text text-anchor="middle" x="13832.86" y="-719.89" font-family="Times,serif" font-size="14.00">ENTER DESCRIPTION OF PERSON(S) INJURED</text>
</g>
<!-- 44249&#45;&gt;45137 -->
<g id="edge9" class="edge">
<title>44249&#45;&gt;45137</title>
<path fill="none" stroke="black" d="M13543.29,-600.37C13572.71,-613.07 13602.58,-625.96 13631.4,-638.41"/>
<polygon fill="black" stroke="black" points="13630.01,-641.62 13640.58,-642.37 13632.79,-635.19 13630.01,-641.62"/>
<text text-anchor="middle" x="13594.66" y="-628.67" font-family="Times,serif" font-size="14.00">YES</text>
</g>
<!-- 44906 -->
<g id="node9" class="node">
<title>44906</title>
<ellipse fill="none" stroke="black" cx="14376.39" cy="-684.94" rx="158.32" ry="158.32"/>
<text text-anchor="middle" x="14376.39" y="-679.89" font-family="Times,serif" font-size="14.00">WERE ANY ILLICIT ITEMS FOUND</text>
</g>
<!-- 44249&#45;&gt;44906 -->
<g id="edge10" class="edge">
<title>44249&#45;&gt;44906</title>
<path fill="none" stroke="black" d="M13561.93,-463.78C13704.79,-452.1 13885.14,-451.04 14040.32,-492.44 14110.32,-511.12 14180.88,-548.29 14239.08,-585.03"/>
<polygon fill="black" stroke="black" points="14237.1,-587.92 14247.41,-590.35 14240.86,-582.02 14237.1,-587.92"/>
<text text-anchor="middle" x="13832.86" y="-495.64" font-family="Times,serif" font-size="14.00">NO</text>
</g>
<!-- 44616 -->
<g id="node24" class="node">
<title>44616</title>
<ellipse fill="none" stroke="black" cx="12625.7" cy="-656.94" rx="146.04" ry="146.04"/>
<text text-anchor="middle" x="12625.7" y="-651.89" font-family="Times,serif" font-size="14.00">ESTIMATED COST OF DAMAGE</text>
</g>
<!-- 45016&#45;&gt;44616 -->
<g id="edge70" class="edge">
<title>45016&#45;&gt;44616</title>
<path fill="none" stroke="black" d="M12368.14,-663.14C12374.65,-663.85 12381.11,-664.46 12387.42,-664.94 12413.49,-666.94 12441.21,-667.46 12468.16,-667.11"/>
<polygon fill="black" stroke="black" points="12468.21,-670.61 12478.14,-666.93 12468.08,-663.61 12468.21,-670.61"/>
<text text-anchor="middle" x="12424.54" y="-670.41" font-family="Times,serif" font-size="14.00">MINOR</text>
</g>
<!-- 45016&#45;&gt;44616 -->
<g id="edge71" class="edge">
<title>45016&#45;&gt;44616</title>
<path fill="none" stroke="black" d="M12369.63,-642.69C12399.66,-642.79 12431.86,-643.26 12461.67,-644.44 12463.9,-644.53 12466.15,-644.62 12468.42,-644.72"/>
<polygon fill="black" stroke="black" points="12468.17,-648.22 12478.32,-645.2 12468.5,-641.22 12468.17,-648.22"/>
<text text-anchor="middle" x="12424.54" y="-647.64" font-family="Times,serif" font-size="14.00">SERIOUS</text>
</g>
<!-- 45016&#45;&gt;44616 -->
<g id="edge72" class="edge">
<title>45016&#45;&gt;44616</title>
<path fill="none" stroke="black" d="M12368.13,-624.28C12374.64,-623.56 12381.11,-622.94 12387.42,-622.44 12420.31,-619.85 12428.85,-619.01 12461.67,-622.44 12464.9,-622.78 12468.17,-623.16 12471.46,-623.56"/>
<polygon fill="black" stroke="black" points="12470.83,-627.01 12481.21,-624.87 12471.77,-620.07 12470.83,-627.01"/>
<text text-anchor="middle" x="12424.54" y="-625.64" font-family="Times,serif" font-size="14.00">EXTENSIVE</text>
</g>
<!-- 45137&#45;&gt;44906 -->
<g id="edge75" class="edge">
<title>45137&#45;&gt;44906</title>
<path fill="none" stroke="black" d="M14036.06,-768.41C14089.72,-773.84 14147.39,-774.13 14200.07,-762.94 14207.51,-761.36 14215.02,-759.44 14222.53,-757.25"/>
<polygon fill="black" stroke="black" points="14223.55,-760.6 14232.07,-754.31 14221.48,-753.91 14223.55,-760.6"/>
<text text-anchor="middle" x="14129.19" y="-775.24" font-family="Times,serif" font-size="14.00">STAFF</text>
</g>
<!-- 45137&#45;&gt;44906 -->
<g id="edge76" class="edge">
<title>45137&#45;&gt;44906</title>
<path fill="none" stroke="black" d="M14040.56,-731.31C14092.73,-730.86 14148.56,-728.6 14200.07,-722.94 14203.52,-722.56 14207,-722.14 14210.5,-721.69"/>
<polygon fill="black" stroke="black" points="14210.83,-725.18 14220.25,-720.34 14209.87,-718.25 14210.83,-725.18"/>
<text text-anchor="middle" x="14129.19" y="-734.27" font-family="Times,serif" font-size="14.00">PRISONERS</text>
</g>
<!-- 45137&#45;&gt;44906 -->
<g id="edge77" class="edge">
<title>45137&#45;&gt;44906</title>
<path fill="none" stroke="black" d="M14039.62,-703.95C14045.92,-703.42 14052.17,-702.92 14058.32,-702.44 14106.4,-698.71 14158.65,-695.48 14206.61,-692.85"/>
<polygon fill="black" stroke="black" points="14206.74,-696.35 14216.54,-692.31 14206.37,-689.36 14206.74,-696.35"/>
<text text-anchor="middle" x="14129.19" y="-705.64" font-family="Times,serif" font-size="14.00">CIVILIAN GRADES</text>
</g>
<!-- 45137&#45;&gt;44906 -->
<g id="edge78" class="edge">
<title>45137&#45;&gt;44906</title>
<path fill="none" stroke="black" d="M14034.76,-675.6C14042.69,-674.4 14050.56,-673.34 14058.32,-672.44 14120.9,-665.22 14137.11,-670.2 14200.07,-672.44 14202.3,-672.52 14204.54,-672.61 14206.8,-672.7"/>
<polygon fill="black" stroke="black" points="14206.53,-676.19 14216.68,-673.12 14206.84,-669.19 14206.53,-676.19"/>
<text text-anchor="middle" x="14129.19" y="-675.64" font-family="Times,serif" font-size="14.00">POLICE</text>
</g>
<!-- 45137&#45;&gt;44906 -->
<g id="edge79" class="edge">
<title>45137&#45;&gt;44906</title>
<path fill="none" stroke="black" d="M14028.44,-654.38C14038.47,-652.08 14048.47,-650.07 14058.32,-648.44 14120.47,-638.14 14137.4,-641.99 14200.07,-648.44 14203.33,-648.78 14206.62,-649.15 14209.93,-649.55"/>
<polygon fill="black" stroke="black" points="14209.39,-653.01 14219.76,-650.83 14210.29,-646.07 14209.39,-653.01"/>
<text text-anchor="middle" x="14129.19" y="-651.64" font-family="Times,serif" font-size="14.00">EXTERNAL CIVILIANS</text>
</g>
<!-- 44906&#45;&gt;END_NODE -->
<g id="edge61" class="edge">
<title>44906&#45;&gt;END_NODE</title>
<path fill="none" stroke="black" d="M14525.82,-737.84C14680.39,-782.78 14922.39,-823.43 15086.11,-707.94 15115.47,-687.23 15127.91,-647.51 15133.17,-616.15"/>
<polygon fill="black" stroke="black" points="15136.59,-616.93 15134.58,-606.53 15129.66,-615.91 15136.59,-616.93"/>
<text text-anchor="middle" x="14765.78" y="-786.31" font-family="Times,serif" font-size="14.00">NO</text>
</g>
<!-- 44301 -->
<g id="node12" class="node">
<title>44301</title>
<ellipse fill="none" stroke="black" cx="14765.78" cy="-530.94" rx="169.58" ry="169.58"/>
<text text-anchor="middle" x="14765.78" y="-525.89" font-family="Times,serif" font-size="14.00">DESCRIBE THE ILLICIT ITEM FOUND</text>
</g>
<!-- 44906&#45;&gt;44301 -->
<g id="edge60" class="edge">
<title>44906&#45;&gt;44301</title>
<path fill="none" stroke="black" d="M14523.84,-626.72C14547.84,-617.18 14572.87,-607.23 14597.33,-597.51"/>
<polygon fill="black" stroke="black" points="14598.37,-600.86 14606.37,-593.92 14595.78,-594.36 14598.37,-600.86"/>
<text text-anchor="middle" x="14565.46" y="-615.76" font-family="Times,serif" font-size="14.00">YES</text>
</g>
<!-- 44286&#45;&gt;44364 -->
<g id="edge13" class="edge">
<title>44286&#45;&gt;44364</title>
<path fill="none" stroke="black" d="M1173.18,-997.57C1190.04,-996.5 1207.06,-995.42 1224.05,-994.35"/>
<polygon fill="black" stroke="black" points="1223.93,-997.86 1233.69,-993.74 1223.49,-990.88 1223.93,-997.86"/>
<text text-anchor="middle" x="1204.21" y="-999.34" font-family="Times,serif" font-size="14.00">YES</text>
</g>
<!-- 44286&#45;&gt;44364 -->
<g id="edge14" class="edge">
<title>44286&#45;&gt;44364</title>
<path fill="none" stroke="black" d="M1170.91,-976.01C1177.82,-975.43 1184.68,-974.91 1191.46,-974.44 1201.92,-973.72 1212.56,-973.1 1223.32,-972.58"/>
<polygon fill="black" stroke="black" points="1223.22,-976.08 1233.05,-972.13 1222.9,-969.09 1223.22,-976.08"/>
<text text-anchor="middle" x="1204.21" y="-977.64" font-family="Times,serif" font-size="14.00">NO</text>
</g>
<!-- 44786 -->
<g id="node14" class="node">
<title>44786</title>
<ellipse fill="none" stroke="black" cx="2120.98" cy="-974.94" rx="231.51" ry="231.51"/>
<text text-anchor="middle" x="2120.98" y="-969.89" font-family="Times,serif" font-size="14.00">IS THERE ANY MEDIA INTEREST IN THIS INCIDENT</text>
</g>
<!-- 44364&#45;&gt;44786 -->
<g id="edge25" class="edge">
<title>44364&#45;&gt;44786</title>
<path fill="none" stroke="black" d="M1828.37,-974.94C1844.96,-974.94 1861.53,-974.94 1877.89,-974.94"/>
<polygon fill="black" stroke="black" points="1877.66,-978.44 1887.66,-974.94 1877.66,-971.44 1877.66,-978.44"/>
<text text-anchor="middle" x="1858.72" y="-978.14" font-family="Times,serif" font-size="14.00">YES</text>
</g>
<!-- 44364&#45;&gt;44786 -->
<g id="edge26" class="edge">
<title>44364&#45;&gt;44786</title>
<path fill="none" stroke="black" d="M1827.34,-953.51C1842.26,-953.55 1857.04,-953.85 1871.47,-954.44 1873.84,-954.54 1876.22,-954.64 1878.6,-954.75"/>
<polygon fill="black" stroke="black" points="1878.19,-958.23 1888.34,-955.21 1878.52,-951.24 1878.19,-958.23"/>
<text text-anchor="middle" x="1858.72" y="-957.64" font-family="Times,serif" font-size="14.00">NO</text>
</g>
<!-- 44301&#45;&gt;END_NODE -->
<g id="edge15" class="edge">
<title>44301&#45;&gt;END_NODE</title>
<path fill="none" stroke="black" d="M14894.96,-641.36C14913.58,-652.61 14933.27,-662.32 14953.36,-668.94 15009.4,-687.41 15035.69,-699.58 15086.11,-668.94 15105.69,-657.04 15118.07,-634.89 15125.71,-614.66"/>
<polygon fill="black" stroke="black" points="15128.94,-616.03 15128.89,-605.44 15122.32,-613.75 15128.94,-616.03"/>
<text text-anchor="middle" x="15019.74" y="-690.83" font-family="Times,serif" font-size="14.00">WEAPONS</text>
</g>
<!-- 44301&#45;&gt;END_NODE -->
<g id="edge16" class="edge">
<title>44301&#45;&gt;END_NODE</title>
<path fill="none" stroke="black" d="M14912.88,-615.86C14926.26,-621.11 14939.86,-625.61 14953.36,-628.94 15010.65,-643.07 15032.37,-653.29 15086.11,-628.94 15096.16,-624.39 15105.01,-616.76 15112.39,-608.5"/>
<polygon fill="black" stroke="black" points="15114.95,-610.9 15118.58,-600.95 15109.53,-606.47 15114.95,-610.9"/>
<text text-anchor="middle" x="15019.74" y="-646.82" font-family="Times,serif" font-size="14.00">ALCOHOL</text>
</g>
<!-- 44301&#45;&gt;END_NODE -->
<g id="edge17" class="edge">
<title>44301&#45;&gt;END_NODE</title>
<path fill="none" stroke="black" d="M14927.12,-584.12C14935.94,-586 14944.73,-587.63 14953.36,-588.94 15011.69,-597.8 15027.96,-598.93 15086.11,-588.94 15089.13,-588.42 15092.19,-587.75 15095.26,-586.96"/>
<polygon fill="black" stroke="black" points="15096.18,-590.33 15104.77,-584.13 15094.19,-583.62 15096.18,-590.33"/>
<text text-anchor="middle" x="15019.74" y="-599.21" font-family="Times,serif" font-size="14.00">CIGARETTES</text>
</g>
<!-- 44301&#45;&gt;END_NODE -->
<g id="edge18" class="edge">
<title>44301&#45;&gt;END_NODE</title>
<path fill="none" stroke="black" d="M14934.82,-549.1C14992.8,-555.36 15053.03,-561.87 15092.5,-566.14"/>
<polygon fill="black" stroke="black" points="15091.98,-569.6 15102.3,-567.19 15092.74,-562.64 15091.98,-569.6"/>
<text text-anchor="middle" x="15019.74" y="-568.33" font-family="Times,serif" font-size="14.00">TOBACCO</text>
</g>
<!-- 44301&#45;&gt;END_NODE -->
<g id="edge19" class="edge">
<title>44301&#45;&gt;END_NODE</title>
<path fill="none" stroke="black" d="M14934.29,-510.86C14984.26,-510.24 15038.4,-515.05 15086.11,-531.44 15092.41,-533.61 15098.53,-536.9 15104.22,-540.69"/>
<polygon fill="black" stroke="black" points="15101.99,-543.39 15112.11,-546.5 15106.14,-537.75 15101.99,-543.39"/>
<text text-anchor="middle" x="15019.74" y="-534.64" font-family="Times,serif" font-size="14.00">CASH</text>
</g>
<!-- 44301&#45;&gt;END_NODE -->
<g id="edge20" class="edge">
<title>44301&#45;&gt;END_NODE</title>
<path fill="none" stroke="black" d="M14931.07,-492.42C14994.73,-481.15 15058.83,-475.4 15086.11,-490.44 15101.41,-498.87 15112.74,-514.05 15120.77,-528.97"/>
<polygon fill="black" stroke="black" points="15117.58,-530.4 15125.14,-537.82 15123.85,-527.3 15117.58,-530.4"/>
<text text-anchor="middle" x="15019.74" y="-493.64" font-family="Times,serif" font-size="14.00">ESCAPE EQUIPMENT</text>
</g>
<!-- 44301&#45;&gt;END_NODE -->
<g id="edge21" class="edge">
<title>44301&#45;&gt;END_NODE</title>
<path fill="none" stroke="black" d="M14916.63,-452.73C14973.18,-434.37 15035.92,-428.29 15086.11,-460.44 15108.76,-474.95 15121.46,-502.36 15128.5,-526.25"/>
<polygon fill="black" stroke="black" points="15125.09,-527.05 15131.05,-535.81 15131.86,-525.25 15125.09,-527.05"/>
<text text-anchor="middle" x="15019.74" y="-463.64" font-family="Times,serif" font-size="14.00">TOOLS</text>
</g>
<!-- 44301&#45;&gt;END_NODE -->
<g id="edge22" class="edge">
<title>44301&#45;&gt;END_NODE</title>
<path fill="none" stroke="black" d="M14901.56,-429.1C14961.86,-396.55 15031.5,-378 15086.11,-417.44 15120,-441.91 15131.67,-489.84 15135.51,-525.66"/>
<polygon fill="black" stroke="black" points="15131.99,-525.66 15136.36,-535.31 15138.97,-525.04 15131.99,-525.66"/>
<text text-anchor="middle" x="15019.74" y="-420.64" font-family="Times,serif" font-size="14.00">OTHER</text>
</g>
<!-- 44333 -->
<g id="node13" class="node">
<title>44333</title>
<ellipse fill="none" stroke="black" cx="10972.59" cy="-271.94" rx="271.94" ry="271.94"/>
<text text-anchor="middle" x="10972.59" y="-266.89" font-family="Times,serif" font-size="14.00">HAS ANY PROSECUTION TAKEN PLACE OR IS ANY PENDING</text>
</g>
<!-- 44333&#45;&gt;44124 -->
<g id="edge23" class="edge">
<title>44333&#45;&gt;44124</title>
<path fill="none" stroke="black" d="M11223.94,-376.31C11253.3,-388.54 11283,-400.93 11311.67,-412.88"/>
<polygon fill="black" stroke="black" points="11310.2,-416.06 11320.78,-416.67 11312.9,-409.6 11310.2,-416.06"/>
<text text-anchor="middle" x="11275.29" y="-402.23" font-family="Times,serif" font-size="14.00">YES</text>
</g>
<!-- 44333&#45;&gt;44124 -->
<g id="edge24" class="edge">
<title>44333&#45;&gt;44124</title>
<path fill="none" stroke="black" d="M11231.81,-355.74C11250.97,-363.07 11269.89,-370.67 11288.04,-378.44 11298.91,-383.09 11309.96,-388.06 11321.05,-393.22"/>
<polygon fill="black" stroke="black" points="11319.34,-396.28 11329.88,-397.37 11322.32,-389.95 11319.34,-396.28"/>
<text text-anchor="middle" x="11275.29" y="-381.64" font-family="Times,serif" font-size="14.00">NO</text>
</g>
<!-- 45095 -->
<g id="node28" class="node">
<title>45095</title>
<ellipse fill="none" stroke="black" cx="2681.32" cy="-974.94" rx="267.33" ry="267.33"/>
<text text-anchor="middle" x="2681.32" y="-969.89" font-family="Times,serif" font-size="14.00">HAS THE PRISON SERVICE PRESS OFFICE BEEN INFORMED</text>
</g>
<!-- 44786&#45;&gt;45095 -->
<g id="edge52" class="edge">
<title>44786&#45;&gt;45095</title>
<path fill="none" stroke="black" d="M2352.71,-974.94C2369.05,-974.94 2385.62,-974.94 2402.19,-974.94"/>
<polygon fill="black" stroke="black" points="2402.14,-978.44 2412.14,-974.94 2402.14,-971.44 2402.14,-978.44"/>
<text text-anchor="middle" x="2383.24" y="-978.14" font-family="Times,serif" font-size="14.00">YES</text>
</g>
<!-- 44786&#45;&gt;45095 -->
<g id="edge53" class="edge">
<title>44786&#45;&gt;45095</title>
<path fill="none" stroke="black" d="M2352.11,-955.29C2358.3,-954.97 2364.43,-954.69 2370.49,-954.44 2381.18,-954 2392.08,-953.75 2403.09,-953.67"/>
<polygon fill="black" stroke="black" points="2403.09,-957.17 2413.08,-953.64 2403.07,-950.17 2403.09,-957.17"/>
<text text-anchor="middle" x="2383.24" y="-957.64" font-family="Times,serif" font-size="14.00">NO</text>
</g>
<!-- 44389 -->
<g id="node15" class="node">
<title>44389</title>
<ellipse fill="none" stroke="black" cx="6389.32" cy="-494.94" rx="271.94" ry="271.94"/>
<text text-anchor="middle" x="6389.32" y="-489.89" font-family="Times,serif" font-size="14.00">HAS ANY PROSECUTION TAKEN PLACE OR IS ANY PENDING</text>
</g>
<!-- 44883 -->
<g id="node16" class="node">
<title>44883</title>
<ellipse fill="none" stroke="black" cx="6908.72" cy="-534.94" rx="185.96" ry="185.96"/>
<text text-anchor="middle" x="6908.72" y="-529.89" font-family="Times,serif" font-size="14.00">WAS THE INCIDENT A DEMONSTRATION</text>
</g>
<!-- 44389&#45;&gt;44883 -->
<g id="edge27" class="edge">
<title>44389&#45;&gt;44883</title>
<path fill="none" stroke="black" d="M6660.76,-515.85C6677.86,-517.17 6694.9,-518.49 6711.56,-519.78"/>
<polygon fill="black" stroke="black" points="6711.29,-523.27 6721.53,-520.55 6711.83,-516.29 6711.29,-523.27"/>
<text text-anchor="middle" x="6692.01" y="-521.72" font-family="Times,serif" font-size="14.00">YES</text>
</g>
<!-- 44389&#45;&gt;44883 -->
<g id="edge28" class="edge">
<title>44389&#45;&gt;44883</title>
<path fill="none" stroke="black" d="M6661.48,-493.1C6676.13,-493.98 6690.63,-495.08 6704.76,-496.44 6708.02,-496.76 6711.31,-497.1 6714.62,-497.46"/>
<polygon fill="black" stroke="black" points="6714.09,-500.92 6724.43,-498.62 6714.91,-493.97 6714.09,-500.92"/>
<text text-anchor="middle" x="6692.01" y="-499.64" font-family="Times,serif" font-size="14.00">NO</text>
</g>
<!-- 44883&#45;&gt;44124 -->
<g id="edge59" class="edge">
<title>44883&#45;&gt;44124</title>
<path fill="none" stroke="black" d="M7089.82,-579.21C7112.07,-583.69 7134.58,-587.75 7156.17,-590.94 7275.82,-608.61 7306.68,-609.94 7427.63,-609.94 7427.63,-609.94 7427.63,-609.94 10973.59,-609.94 11094.85,-609.94 11125.68,-601.95 11244.54,-577.94 11263.96,-574.02 11284,-569.39 11304,-564.36"/>
<polygon fill="black" stroke="black" points="11304.81,-567.77 11313.64,-561.91 11303.08,-560.99 11304.81,-567.77"/>
<text text-anchor="middle" x="9277.66" y="-613.14" font-family="Times,serif" font-size="14.00">NO</text>
</g>
<!-- 44709 -->
<g id="node27" class="node">
<title>44709</title>
<ellipse fill="none" stroke="black" cx="7428.63" cy="-309.94" rx="272.45" ry="272.45"/>
<text text-anchor="middle" x="7428.63" y="-304.89" font-family="Times,serif" font-size="14.00">WAS THE DEMONSTRATION ORGANISED OR SPONTANEOUS</text>
</g>
<!-- 44883&#45;&gt;44709 -->
<g id="edge58" class="edge">
<title>44883&#45;&gt;44709</title>
<path fill="none" stroke="black" d="M7079.66,-461.11C7107.89,-448.85 7137.72,-435.89 7167.57,-422.92"/>
<polygon fill="black" stroke="black" points="7168.97,-426.13 7176.74,-418.93 7166.18,-419.71 7168.97,-426.13"/>
<text text-anchor="middle" x="7125.42" y="-445.79" font-family="Times,serif" font-size="14.00">YES</text>
</g>
<!-- 44500 -->
<g id="node17" class="node">
<title>44500</title>
<ellipse fill="none" stroke="black" cx="8554.77" cy="-304.94" rx="262.22" ry="262.22"/>
<text text-anchor="middle" x="8554.77" y="-299.89" font-family="Times,serif" font-size="14.00">WAS THE DEMONSTRATION KNOWN ABOUT IN ADVANCE</text>
</g>
<!-- 44606 -->
<g id="node18" class="node">
<title>44606</title>
<ellipse fill="none" stroke="black" cx="9015.83" cy="-368.94" rx="137.34" ry="137.34"/>
<text text-anchor="middle" x="9015.83" y="-363.89" font-family="Times,serif" font-size="14.00">HOW WAS IT KNOWN ABOUT</text>
</g>
<!-- 44500&#45;&gt;44606 -->
<g id="edge29" class="edge">
<title>44500&#45;&gt;44606</title>
<path fill="none" stroke="black" d="M8814.82,-341.06C8833,-343.59 8850.93,-346.09 8868.15,-348.49"/>
<polygon fill="black" stroke="black" points="8867.46,-351.93 8877.85,-349.84 8868.43,-345 8867.46,-351.93"/>
<text text-anchor="middle" x="8847.74" y="-349.61" font-family="Times,serif" font-size="14.00">YES</text>
</g>
<!-- 44658 -->
<g id="node19" class="node">
<title>44658</title>
<ellipse fill="none" stroke="black" cx="9642.88" cy="-328.94" rx="240.72" ry="240.72"/>
<text text-anchor="middle" x="9642.88" y="-323.89" font-family="Times,serif" font-size="14.00">WHAT WAS THE REASON FOR THE DEMONSTRATION</text>
</g>
<!-- 44500&#45;&gt;44658 -->
<g id="edge30" class="edge">
<title>44500&#45;&gt;44658</title>
<path fill="none" stroke="black" d="M8803.38,-221.35C8828.53,-215.28 8853.87,-210.11 8878.49,-206.44 9054.16,-180.23 9252.19,-213.84 9402.52,-252.44"/>
<polygon fill="black" stroke="black" points="9401.24,-255.72 9411.8,-254.85 9403,-248.95 9401.24,-255.72"/>
<text text-anchor="middle" x="9015.83" y="-209.64" font-family="Times,serif" font-size="14.00">NO</text>
</g>
<!-- 44606&#45;&gt;44658 -->
<g id="edge37" class="edge">
<title>44606&#45;&gt;44658</title>
<path fill="none" stroke="black" d="M9152.26,-385.64C9158.64,-386.14 9164.97,-386.58 9171.16,-386.94 9265.67,-392.43 9290.07,-397.4 9384.16,-386.94 9388.34,-386.48 9392.55,-385.97 9396.78,-385.43"/>
<polygon fill="black" stroke="black" points="9397.09,-388.92 9406.53,-384.11 9396.15,-381.98 9397.09,-388.92"/>
<text text-anchor="middle" x="9277.66" y="-396.26" font-family="Times,serif" font-size="14.00">INFORMATION FROM PRISONERS</text>
</g>
<!-- 44606&#45;&gt;44658 -->
<g id="edge38" class="edge">
<title>44606&#45;&gt;44658</title>
<path fill="none" stroke="black" d="M9153.35,-361.09C9222.52,-357.03 9307.82,-351.89 9384.16,-346.94 9386.52,-346.79 9388.89,-346.63 9391.28,-346.48"/>
<polygon fill="black" stroke="black" points="9391.24,-349.99 9400.99,-345.84 9390.78,-343 9391.24,-349.99"/>
<text text-anchor="middle" x="9277.66" y="-363.01" font-family="Times,serif" font-size="14.00">INFORMATION FROM POLICE</text>
</g>
<!-- 44606&#45;&gt;44658 -->
<g id="edge39" class="edge">
<title>44606&#45;&gt;44658</title>
<path fill="none" stroke="black" d="M9148.1,-330.25C9155.86,-328.76 9163.59,-327.46 9171.16,-326.44 9242.08,-316.85 9319.55,-314.12 9390.81,-314.67"/>
<polygon fill="black" stroke="black" points="9390.64,-318.17 9400.67,-314.77 9390.71,-311.17 9390.64,-318.17"/>
<text text-anchor="middle" x="9277.66" y="-329.64" font-family="Times,serif" font-size="14.00">INFORMATION FROM HQ/AM</text>
</g>
<!-- 44606&#45;&gt;44658 -->
<g id="edge40" class="edge">
<title>44606&#45;&gt;44658</title>
<path fill="none" stroke="black" d="M9137.56,-304.52C9148.7,-300.47 9160,-296.99 9171.16,-294.44 9242.87,-278.04 9322.16,-277.38 9394.91,-283.45"/>
<polygon fill="black" stroke="black" points="9394.28,-286.9 9404.55,-284.3 9394.9,-279.93 9394.28,-286.9"/>
<text text-anchor="middle" x="9277.66" y="-297.64" font-family="Times,serif" font-size="14.00">OTHER</text>
</g>
<!-- 44686 -->
<g id="node25" class="node">
<title>44686</title>
<ellipse fill="none" stroke="black" cx="10193.29" cy="-332.94" rx="119.93" ry="119.93"/>
<text text-anchor="middle" x="10193.29" y="-327.89" font-family="Times,serif" font-size="14.00">DID THE POLICE ATTEND</text>
</g>
<!-- 44658&#45;&gt;44686 -->
<g id="edge42" class="edge">
<title>44658&#45;&gt;44686</title>
<path fill="none" stroke="black" d="M9879.28,-376.36C9936.97,-382.17 9998.48,-383.47 10055.35,-374.94 10059.47,-374.32 10063.63,-373.61 10067.82,-372.81"/>
<polygon fill="black" stroke="black" points="10068.37,-376.27 10077.45,-370.82 10066.95,-369.41 10068.37,-376.27"/>
<text text-anchor="middle" x="9978.48" y="-384.22" font-family="Times,serif" font-size="14.00">PARTICULAR PRISONER</text>
</g>
<!-- 44658&#45;&gt;44686 -->
<g id="edge43" class="edge">
<title>44658&#45;&gt;44686</title>
<path fill="none" stroke="black" d="M9883.95,-334.71C9889.89,-334.8 9895.78,-334.87 9901.6,-334.94 9969.93,-335.74 9987.02,-335.44 10055.35,-334.94 10057.45,-334.93 10059.56,-334.91 10061.68,-334.89"/>
<polygon fill="black" stroke="black" points="10061.68,-338.39 10071.65,-334.8 10061.62,-331.39 10061.68,-338.39"/>
<text text-anchor="middle" x="9978.48" y="-338.63" font-family="Times,serif" font-size="14.00">LOCAL ISSUE</text>
</g>
<!-- 44658&#45;&gt;44686 -->
<g id="edge44" class="edge">
<title>44658&#45;&gt;44686</title>
<path fill="none" stroke="black" d="M9883.35,-312.23C9939.79,-310.58 9999.72,-310.7 10055.35,-314.44 10057.88,-314.61 10060.43,-314.8 10063,-315"/>
<polygon fill="black" stroke="black" points="10062.6,-318.48 10072.86,-315.86 10063.2,-311.51 10062.6,-318.48"/>
<text text-anchor="middle" x="9978.48" y="-317.64" font-family="Times,serif" font-size="14.00">GENERAL ISSUE</text>
</g>
<!-- 44658&#45;&gt;44686 -->
<g id="edge45" class="edge">
<title>44658&#45;&gt;44686</title>
<path fill="none" stroke="black" d="M9880.26,-287.1C9937.72,-282.36 9998.87,-281.88 10055.35,-290.44 10059.66,-291.09 10064.02,-291.86 10068.4,-292.71"/>
<polygon fill="black" stroke="black" points="10067.34,-296.06 10077.84,-294.7 10068.78,-289.21 10067.34,-296.06"/>
<text text-anchor="middle" x="9978.48" y="-293.64" font-family="Times,serif" font-size="14.00">OTHER</text>
</g>
<!-- 44514 -->
<g id="node20" class="node">
<title>44514</title>
<ellipse fill="none" stroke="black" cx="4878.72" cy="-788.94" rx="232.53" ry="232.53"/>
<text text-anchor="middle" x="4878.72" y="-783.89" font-family="Times,serif" font-size="14.00">DID UNAUTHORISED PERSONS ENTER THE PRISON</text>
</g>
<!-- 44514&#45;&gt;44883 -->
<g id="edge32" class="edge">
<title>44514&#45;&gt;44883</title>
<path fill="none" stroke="black" d="M5108.96,-824.42C5185.87,-833.59 5272.25,-840.94 5351.57,-840.94 5351.57,-840.94 5351.57,-840.94 6390.32,-840.94 6511.47,-840.94 6549.71,-858.21 6661.26,-810.94 6715.85,-787.81 6763.12,-745.47 6801.24,-700.8"/>
<polygon fill="black" stroke="black" points="6803.79,-703.21 6807.53,-693.29 6798.42,-698.71 6803.79,-703.21"/>
<text text-anchor="middle" x="5824.88" y="-844.14" font-family="Times,serif" font-size="14.00">NO</text>
</g>
<!-- 44543 -->
<g id="node21" class="node">
<title>44543</title>
<ellipse fill="none" stroke="black" cx="5352.57" cy="-632.94" rx="179.82" ry="179.82"/>
<text text-anchor="middle" x="5352.57" y="-627.89" font-family="Times,serif" font-size="14.00">WERE THESE PERSONS APPREHENDED</text>
</g>
<!-- 44514&#45;&gt;44543 -->
<g id="edge31" class="edge">
<title>44514&#45;&gt;44543</title>
<path fill="none" stroke="black" d="M5099.76,-716.19C5123.41,-708.38 5147.26,-700.49 5170.38,-692.85"/>
<polygon fill="black" stroke="black" points="5171.47,-696.17 5179.87,-689.71 5169.27,-689.52 5171.47,-696.17"/>
<text text-anchor="middle" x="5142" y="-709.46" font-family="Times,serif" font-size="14.00">YES</text>
</g>
<!-- 44543&#45;&gt;44883 -->
<g id="edge34" class="edge">
<title>44543&#45;&gt;44883</title>
<path fill="none" stroke="black" d="M5515.33,-709.9C5541.14,-719.75 5567.91,-728.59 5593.89,-734.94 5824.46,-791.31 6441.45,-865.55 6661.26,-775.94 6707.63,-757.04 6750.01,-724.75 6786.07,-689.84"/>
<polygon fill="black" stroke="black" points="6788.4,-692.45 6793.06,-682.94 6783.48,-687.47 6788.4,-692.45"/>
<text text-anchor="middle" x="6086.63" y="-810.52" font-family="Times,serif" font-size="14.00">NO</text>
</g>
<!-- 44855 -->
<g id="node22" class="node">
<title>44855</title>
<ellipse fill="none" stroke="black" cx="5824.88" cy="-494.94" rx="231" ry="231"/>
<text text-anchor="middle" x="5824.88" y="-489.89" font-family="Times,serif" font-size="14.00">WERE THESE PERSONS ARRESTED BY THE POLICE</text>
</g>
<!-- 44543&#45;&gt;44855 -->
<g id="edge33" class="edge">
<title>44543&#45;&gt;44855</title>
<path fill="none" stroke="black" d="M5525.36,-582.53C5547.01,-576.18 5569.43,-569.6 5591.82,-563.03"/>
<polygon fill="black" stroke="black" points="5592.74,-566.41 5601.35,-560.24 5590.77,-559.69 5592.74,-566.41"/>
<text text-anchor="middle" x="5563.14" y="-575.4" font-family="Times,serif" font-size="14.00">YES</text>
</g>
<!-- 44855&#45;&gt;44389 -->
<g id="edge54" class="edge">
<title>44855&#45;&gt;44389</title>
<path fill="none" stroke="black" d="M6056.27,-494.94C6072.54,-494.94 6089.04,-494.94 6105.55,-494.94"/>
<polygon fill="black" stroke="black" points="6105.46,-498.44 6115.46,-494.94 6105.46,-491.44 6105.46,-498.44"/>
<text text-anchor="middle" x="6086.63" y="-498.14" font-family="Times,serif" font-size="14.00">YES</text>
</g>
<!-- 44855&#45;&gt;44883 -->
<g id="edge55" class="edge">
<title>44855&#45;&gt;44883</title>
<path fill="none" stroke="black" d="M5963.06,-309.42C6006.84,-264.22 6059.21,-221.88 6117.38,-197.44 6340.23,-103.8 6445.75,-87.96 6661.26,-197.44 6729.25,-231.98 6782.95,-295.05 6822.64,-357.4"/>
<polygon fill="black" stroke="black" points="6819.57,-359.08 6827.84,-365.7 6825.5,-355.37 6819.57,-359.08"/>
<text text-anchor="middle" x="6389.32" y="-200.64" font-family="Times,serif" font-size="14.00">NO</text>
</g>
<!-- 44561 -->
<g id="node23" class="node">
<title>44561</title>
<ellipse fill="none" stroke="black" cx="8032.82" cy="-304.94" rx="198.24" ry="198.24"/>
<text text-anchor="middle" x="8032.82" y="-299.89" font-family="Times,serif" font-size="14.00">WAS A KNOWN ORGANISATION INVOLVED</text>
</g>
<!-- 44561&#45;&gt;44500 -->
<g id="edge35" class="edge">
<title>44561&#45;&gt;44500</title>
<path fill="none" stroke="black" d="M8231.5,-304.94C8247.87,-304.94 8264.59,-304.94 8281.38,-304.94"/>
<polygon fill="black" stroke="black" points="8280.91,-308.44 8290.91,-304.94 8280.91,-301.44 8280.91,-308.44"/>
<text text-anchor="middle" x="8261.81" y="-308.14" font-family="Times,serif" font-size="14.00">YES</text>
</g>
<!-- 44561&#45;&gt;44500 -->
<g id="edge36" class="edge">
<title>44561&#45;&gt;44500</title>
<path fill="none" stroke="black" d="M8230.53,-285.44C8236.78,-285.07 8242.97,-284.73 8249.06,-284.44 8259.88,-283.93 8270.92,-283.62 8282.07,-283.51"/>
<polygon fill="black" stroke="black" points="8281.76,-287.01 8291.74,-283.45 8281.72,-280.01 8281.76,-287.01"/>
<text text-anchor="middle" x="8261.81" y="-287.64" font-family="Times,serif" font-size="14.00">NO</text>
</g>
<!-- 44616&#45;&gt;44249 -->
<g id="edge41" class="edge">
<title>44616&#45;&gt;44249</title>
<path fill="none" stroke="black" d="M12768.35,-624.01C12848.61,-605.35 12951.55,-581.42 13045.86,-559.49"/>
<polygon fill="black" stroke="black" points="13046.6,-562.92 13055.54,-557.24 13045.01,-556.1 13046.6,-562.92"/>
<text text-anchor="middle" x="12911.24" y="-621.96" font-family="Times,serif" font-size="14.00">ENTER AMOUNT IN POUND STERLING</text>
</g>
<!-- 44686&#45;&gt;44124 -->
<g id="edge47" class="edge">
<title>44686&#45;&gt;44124</title>
<path fill="none" stroke="black" d="M10290.04,-404.03C10316.57,-421.64 10345.99,-439.33 10374.72,-452.94 10511.66,-517.8 10550.81,-530.47 10700.65,-552.94 10939.71,-588.79 11003.96,-576.46 11244.54,-552.94 11262.48,-551.19 11280.98,-548.8 11299.52,-546"/>
<polygon fill="black" stroke="black" points="11299.9,-549.49 11309.24,-544.49 11298.83,-542.57 11299.9,-549.49"/>
<text text-anchor="middle" x="10669.9" y="-553.09" font-family="Times,serif" font-size="14.00">NO</text>
</g>
<!-- 44728 -->
<g id="node26" class="node">
<title>44728</title>
<ellipse fill="none" stroke="black" cx="10506.94" cy="-311.94" rx="132.22" ry="132.22"/>
<text text-anchor="middle" x="10506.94" y="-306.89" font-family="Times,serif" font-size="14.00">WERE ANY ARRESTS MADE</text>
</g>
<!-- 44686&#45;&gt;44728 -->
<g id="edge46" class="edge">
<title>44686&#45;&gt;44728</title>
<path fill="none" stroke="black" d="M10313.44,-324.91C10329.71,-323.82 10346.54,-322.68 10363.17,-321.56"/>
<polygon fill="black" stroke="black" points="10363.39,-325.05 10373.13,-320.89 10362.92,-318.07 10363.39,-325.05"/>
<text text-anchor="middle" x="10343.97" y="-326.9" font-family="Times,serif" font-size="14.00">YES</text>
</g>
<!-- 44728&#45;&gt;44333 -->
<g id="edge50" class="edge">
<title>44728&#45;&gt;44333</title>
<path fill="none" stroke="black" d="M10638.94,-300.64C10655.35,-299.22 10672.6,-297.73 10690.25,-296.21"/>
<polygon fill="black" stroke="black" points="10690.12,-299.74 10699.78,-295.39 10689.52,-292.76 10690.12,-299.74"/>
<text text-anchor="middle" x="10669.9" y="-302.2" font-family="Times,serif" font-size="14.00">YES</text>
</g>
<!-- 44728&#45;&gt;44333 -->
<g id="edge51" class="edge">
<title>44728&#45;&gt;44333</title>
<path fill="none" stroke="black" d="M10635.83,-280.55C10643.02,-279.35 10650.16,-278.3 10657.15,-277.44 10667.61,-276.15 10678.28,-275.03 10689.06,-274.05"/>
<polygon fill="black" stroke="black" points="10689.17,-277.56 10698.84,-273.22 10688.57,-270.58 10689.17,-277.56"/>
<text text-anchor="middle" x="10669.9" y="-280.64" font-family="Times,serif" font-size="14.00">NO</text>
</g>
<!-- 44709&#45;&gt;44561 -->
<g id="edge48" class="edge">
<title>44709&#45;&gt;44561</title>
<path fill="none" stroke="black" d="M7701.21,-307.69C7742.04,-307.35 7783.6,-307 7822.85,-306.68"/>
<polygon fill="black" stroke="black" points="7822.64,-310.18 7832.61,-306.59 7822.59,-303.18 7822.64,-310.18"/>
<text text-anchor="middle" x="7767.83" y="-310.64" font-family="Times,serif" font-size="14.00">ORGANISED</text>
</g>
<!-- 44709&#45;&gt;44561 -->
<g id="edge49" class="edge">
<title>44709&#45;&gt;44561</title>
<path fill="none" stroke="black" d="M7700.44,-286.36C7739.4,-285.04 7779.01,-284.83 7816.58,-286.44 7818.96,-286.54 7821.35,-286.65 7823.75,-286.77"/>
<polygon fill="black" stroke="black" points="7823.41,-290.25 7833.58,-287.27 7823.77,-283.26 7823.41,-290.25"/>
<text text-anchor="middle" x="7767.83" y="-289.64" font-family="Times,serif" font-size="14.00">SPONTANEOUS</text>
</g>
<!-- 44946 -->
<g id="node31" class="node">
<title>44946</title>
<ellipse fill="none" stroke="black" cx="3183.83" cy="-974.94" rx="173.67" ry="173.67"/>
<text text-anchor="middle" x="3183.83" y="-969.89" font-family="Times,serif" font-size="14.00">WHAT WAS THE INCIDENT LOCATION</text>
</g>
<!-- 45095&#45;&gt;44946 -->
<g id="edge73" class="edge">
<title>45095&#45;&gt;44946</title>
<path fill="none" stroke="black" d="M2949.06,-974.94C2965.83,-974.94 2982.5,-974.94 2998.77,-974.94"/>
<polygon fill="black" stroke="black" points="2998.45,-978.44 3008.45,-974.94 2998.45,-971.44 2998.45,-978.44"/>
<text text-anchor="middle" x="2979.41" y="-978.14" font-family="Times,serif" font-size="14.00">YES</text>
</g>
<!-- 45095&#45;&gt;44946 -->
<g id="edge74" class="edge">
<title>45095&#45;&gt;44946</title>
<path fill="none" stroke="black" d="M2948.07,-953.21C2962.98,-953.28 2977.76,-953.67 2992.16,-954.44 2994.56,-954.57 2996.98,-954.71 2999.41,-954.85"/>
<polygon fill="black" stroke="black" points="2999.17,-958.34 3009.37,-955.5 2999.62,-951.36 2999.17,-958.34"/>
<text text-anchor="middle" x="2979.41" y="-957.64" font-family="Times,serif" font-size="14.00">NO</text>
</g>
<!-- 44864 -->
<g id="node29" class="node">
<title>44864</title>
<ellipse fill="none" stroke="black" cx="3698.17" cy="-974.94" rx="195.17" ry="195.17"/>
<text text-anchor="middle" x="3698.17" y="-969.89" font-family="Times,serif" font-size="14.00">WAS THE SECURE PERIMETER BREACHED</text>
</g>
<!-- 44864&#45;&gt;44514 -->
<g id="edge57" class="edge">
<title>44864&#45;&gt;44514</title>
<path fill="none" stroke="black" d="M3888.09,-1020.94C4049.87,-1052.3 4287.5,-1079.09 4486.44,-1023.94 4554.58,-1005.05 4622.75,-970.78 4682.66,-934.15"/>
<polygon fill="black" stroke="black" points="4684.24,-937.28 4690.91,-929.05 4680.56,-931.33 4684.24,-937.28"/>
<text text-anchor="middle" x="4220.64" y="-1058.99" font-family="Times,serif" font-size="14.00">NO</text>
</g>
<!-- 44918 -->
<g id="node30" class="node">
<title>44918</title>
<ellipse fill="none" stroke="black" cx="4220.64" cy="-748.94" rx="265.8" ry="265.8"/>
<text text-anchor="middle" x="4220.64" y="-743.89" font-family="Times,serif" font-size="14.00">DESCRIBE HOW THE SECURE PERIMETER WAS BREACHED</text>
</g>
<!-- 44864&#45;&gt;44918 -->
<g id="edge56" class="edge">
<title>44864&#45;&gt;44918</title>
<path fill="none" stroke="black" d="M3877.56,-897.48C3906.25,-885.02 3936.41,-871.93 3966.45,-858.88"/>
<polygon fill="black" stroke="black" points="3967.46,-862.26 3975.24,-855.07 3964.67,-855.84 3967.46,-862.26"/>
<text text-anchor="middle" x="3924.09" y="-885.38" font-family="Times,serif" font-size="14.00">YES</text>
</g>
<!-- 44918&#45;&gt;44514 -->
<g id="edge62" class="edge">
<title>44918&#45;&gt;44514</title>
<path fill="none" stroke="black" d="M4470.67,-840.23C4482,-842.8 4493.3,-845.06 4504.44,-846.94 4548.95,-854.43 4596.51,-853.71 4642.26,-848.64"/>
<polygon fill="black" stroke="black" points="4642.52,-852.13 4652.04,-847.47 4641.69,-845.18 4642.52,-852.13"/>
<text text-anchor="middle" x="4566.32" y="-855.71" font-family="Times,serif" font-size="14.00">THROWN OVER</text>
</g>
<!-- 44918&#45;&gt;44514 -->
<g id="edge63" class="edge">
<title>44918&#45;&gt;44514</title>
<path fill="none" stroke="black" d="M4480.99,-804.25C4488.88,-805.25 4496.71,-806.16 4504.44,-806.94 4559.16,-812.49 4573.23,-808.92 4628.19,-806.94 4630.57,-806.86 4632.95,-806.77 4635.35,-806.67"/>
<polygon fill="black" stroke="black" points="4635.28,-810.18 4645.13,-806.26 4634.99,-803.18 4635.28,-810.18"/>
<text text-anchor="middle" x="4566.32" y="-813.11" font-family="Times,serif" font-size="14.00">CLIMBED OVER</text>
</g>
<!-- 44918&#45;&gt;44514 -->
<g id="edge64" class="edge">
<title>44918&#45;&gt;44514</title>
<path fill="none" stroke="black" d="M4486.2,-765.82C4492.34,-766.2 4498.43,-766.57 4504.44,-766.94 4546.61,-769.53 4591.47,-772.22 4634.92,-774.8"/>
<polygon fill="black" stroke="black" points="4634.53,-778.28 4644.72,-775.38 4634.95,-771.29 4634.53,-778.28"/>
<text text-anchor="middle" x="4566.32" y="-777.56" font-family="Times,serif" font-size="14.00">CUT THROUGH</text>
</g>
<!-- 44918&#45;&gt;44514 -->
<g id="edge65" class="edge">
<title>44918&#45;&gt;44514</title>
<path fill="none" stroke="black" d="M4486.8,-740.39C4533.95,-740.84 4582.56,-742.58 4628.19,-746.44 4631.48,-746.72 4634.78,-747.02 4638.11,-747.33"/>
<polygon fill="black" stroke="black" points="4637.66,-750.81 4647.96,-748.33 4638.36,-743.84 4637.66,-750.81"/>
<text text-anchor="middle" x="4566.32" y="-749.64" font-family="Times,serif" font-size="14.00">VEHICLE RAMMED</text>
</g>
<!-- 44918&#45;&gt;44514 -->
<g id="edge66" class="edge">
<title>44918&#45;&gt;44514</title>
<path fill="none" stroke="black" d="M4484.58,-714.84C4532.47,-713.08 4581.91,-714.2 4628.19,-720.44 4633.28,-721.13 4638.4,-721.89 4643.56,-722.71"/>
<polygon fill="black" stroke="black" points="4642.95,-726.16 4653.39,-724.38 4644.12,-719.26 4642.95,-726.16"/>
<text text-anchor="middle" x="4566.32" y="-723.64" font-family="Times,serif" font-size="14.00">EXPLOSIVES</text>
</g>
<!-- 44918&#45;&gt;44514 -->
<g id="edge67" class="edge">
<title>44918&#45;&gt;44514</title>
<path fill="none" stroke="black" d="M4480.04,-688.89C4529.36,-684.43 4580.47,-684.62 4628.19,-693.44 4636.11,-694.9 4644.1,-696.61 4652.12,-698.51"/>
<polygon fill="black" stroke="black" points="4651.05,-701.85 4661.6,-700.87 4652.74,-695.06 4651.05,-701.85"/>
<text text-anchor="middle" x="4566.32" y="-696.64" font-family="Times,serif" font-size="14.00">OTHER</text>
</g>
<!-- 44946&#45;&gt;44864 -->
<g id="edge68" class="edge">
<title>44946&#45;&gt;44864</title>
<path fill="none" stroke="black" d="M3357.93,-974.94C3400.81,-974.94 3447.17,-974.94 3491.43,-974.94"/>
<polygon fill="black" stroke="black" points="3491.43,-978.44 3501.43,-974.94 3491.43,-971.44 3491.43,-978.44"/>
<text text-anchor="middle" x="3430.25" y="-978.14" font-family="Times,serif" font-size="14.00">INSIDE PRISON</text>
</g>
<!-- 44946&#45;&gt;44864 -->
<g id="edge69" class="edge">
<title>44946&#45;&gt;44864</title>
<path fill="none" stroke="black" d="M3356.78,-955.6C3363.1,-955.16 3369.35,-954.77 3375.5,-954.44 3413.27,-952.42 3453.51,-952.89 3492.29,-954.68"/>
<polygon fill="black" stroke="black" points="3492.05,-958.18 3502.21,-955.18 3492.4,-951.18 3492.05,-958.18"/>
<text text-anchor="middle" x="3430.25" y="-957.64" font-family="Times,serif" font-size="14.00">OUTSIDE PRISON</text>
</g>
</g>
</svg>
