<?xml version="1.0" encoding="UTF-8" standalone="no"?>
<!DOCTYPE svg PUBLIC "-//W3C//DTD SVG 1.1//EN"
 "http://www.w3.org/Graphics/SVG/1.1/DTD/svg11.dtd">
<!-- Generated by graphviz version 12.1.1 (20240910.0053)
 -->
<!-- Title: BREACH_OF_SECURITY Pages: 1 -->
<svg width="12068pt" height="989pt"
 viewBox="0.00 0.00 12068.03 988.67" xmlns="http://www.w3.org/2000/svg" xmlns:xlink="http://www.w3.org/1999/xlink">
<g id="graph0" class="graph" transform="scale(1 1) rotate(0) translate(4 984.67)">
<title>BREACH_OF_SECURITY</title>
<polygon fill="white" stroke="none" points="-4,4 -4,-984.67 12064.03,-984.67 12064.03,4 -4,4"/>
<!-- START_NODE -->
<g id="node1" class="node">
<title>START_NODE</title>
</g>
<!-- 44253 -->
<g id="node2" class="node">
<title>44253</title>
<ellipse fill="none" stroke="black" cx="280.27" cy="-557.33" rx="167.02" ry="167.02"/>
<text text-anchor="middle" x="280.27" y="-552.28" font-family="Times,serif" font-size="14.00">Were the police informed of the incident?</text>
</g>
<!-- START_NODE&#45;&gt;44253 -->
<g id="edge1" class="edge">
<title>START_NODE&#45;&gt;44253</title>
<path fill="none" stroke="black" d="M53.94,-557.33C66.67,-557.33 83.21,-557.33 101.55,-557.33"/>
<polygon fill="black" stroke="black" points="101.34,-560.83 111.34,-557.33 101.34,-553.83 101.34,-560.83"/>
<text text-anchor="middle" x="83.62" y="-560.53" font-family="Times,serif" font-size="14.00">start</text>
</g>
<!-- 44286 -->
<g id="node10" class="node">
<title>44286</title>
<ellipse fill="none" stroke="black" cx="711.12" cy="-778.33" rx="202.33" ry="202.33"/>
<text text-anchor="middle" x="711.12" y="-773.28" font-family="Times,serif" font-size="14.00">Is the incident the subject of a police investigation?</text>
</g>
<!-- 44253&#45;&gt;44286 -->
<g id="edge11" class="edge">
<title>44253&#45;&gt;44286</title>
<path fill="none" stroke="black" d="M429.16,-633.55C458.66,-648.75 490.03,-664.91 520.71,-680.72"/>
<polygon fill="black" stroke="black" points="518.8,-683.68 529.29,-685.15 522.01,-677.46 518.8,-683.68"/>
<text text-anchor="middle" x="478.04" y="-664.41" font-family="Times,serif" font-size="14.00">YES</text>
</g>
<!-- 44364 -->
<g id="node11" class="node">
<title>44364</title>
<ellipse fill="none" stroke="black" cx="1187.53" cy="-738.33" rx="212.57" ry="212.57"/>
<text text-anchor="middle" x="1187.53" y="-733.28" font-family="Times,serif" font-size="14.00">Is the incident the subject of an internal investigation?</text>
</g>
<!-- 44253&#45;&gt;44364 -->
<g id="edge12" class="edge">
<title>44253&#45;&gt;44364</title>
<path fill="none" stroke="black" d="M445.02,-528.63C575.04,-512.2 759.88,-503.18 913.46,-550.83 947.81,-561.49 981.66,-578.13 1013.23,-597.19"/>
<polygon fill="black" stroke="black" points="1011.31,-600.12 1021.66,-602.38 1014.98,-594.16 1011.31,-600.12"/>
<text text-anchor="middle" x="711.12" y="-554.03" font-family="Times,serif" font-size="14.00">NO</text>
</g>
<!-- END_NODE -->
<g id="node3" class="node">
<title>END_NODE</title>
<ellipse fill="none" stroke="black" cx="12026.18" cy="-433.33" rx="29.86" ry="29.86"/>
<ellipse fill="none" stroke="black" cx="12026.18" cy="-433.33" rx="33.86" ry="33.86"/>
<text text-anchor="middle" x="12026.18" y="-428.28" font-family="Times,serif" font-size="14.00">END</text>
</g>
<!-- 44124 -->
<g id="node4" class="node">
<title>44124</title>
<ellipse fill="none" stroke="black" cx="9057.32" cy="-377.33" rx="159.85" ry="159.85"/>
<text text-anchor="middle" x="9057.32" y="-372.28" font-family="Times,serif" font-size="14.00">Was damage caused to prison property?</text>
</g>
<!-- 44136 -->
<g id="node5" class="node">
<title>44136</title>
<ellipse fill="none" stroke="black" cx="9367.39" cy="-484.33" rx="88.71" ry="88.71"/>
<text text-anchor="middle" x="9367.39" y="-479.28" font-family="Times,serif" font-size="14.00">What was damaged?</text>
</g>
<!-- 44124&#45;&gt;44136 -->
<g id="edge2" class="edge">
<title>44124&#45;&gt;44136</title>
<path fill="none" stroke="black" d="M9208.75,-429.58C9230.5,-437.14 9252.34,-444.72 9272.55,-451.74"/>
<polygon fill="black" stroke="black" points="9271.25,-455 9281.85,-454.97 9273.55,-448.38 9271.25,-455"/>
<text text-anchor="middle" x="9247.93" y="-449.87" font-family="Times,serif" font-size="14.00">YES</text>
</g>
<!-- 44249 -->
<g id="node6" class="node">
<title>44249</title>
<ellipse fill="none" stroke="black" cx="10547.14" cy="-377.33" rx="189.54" ry="189.54"/>
<text text-anchor="middle" x="10547.14" y="-372.28" font-family="Times,serif" font-size="14.00">Were any injuries received during this incident?</text>
</g>
<!-- 44124&#45;&gt;44249 -->
<g id="edge3" class="edge">
<title>44124&#45;&gt;44249</title>
<path fill="none" stroke="black" d="M9216.94,-365.94C9264.93,-363.35 9317.79,-361.33 9366.39,-361.33 9366.39,-361.33 9366.39,-361.33 9971.95,-361.33 10096.33,-361.33 10235.79,-365.13 10346.13,-369.03"/>
<polygon fill="black" stroke="black" points="10345.76,-372.52 10355.88,-369.37 10346.01,-365.52 10345.76,-372.52"/>
<text text-anchor="middle" x="9663.83" y="-364.53" font-family="Times,serif" font-size="14.00">NO</text>
</g>
<!-- 45016 -->
<g id="node7" class="node">
<title>45016</title>
<ellipse fill="none" stroke="black" cx="9663.83" cy="-491.33" rx="89.23" ry="89.23"/>
<text text-anchor="middle" x="9663.83" y="-486.28" font-family="Times,serif" font-size="14.00">Describe the damage</text>
</g>
<!-- 44136&#45;&gt;45016 -->
<g id="edge4" class="edge">
<title>44136&#45;&gt;45016</title>
<path fill="none" stroke="black" d="M9441.92,-533.09C9452.37,-538.11 9463.25,-542.43 9474.1,-545.33 9509.52,-554.82 9520.95,-553.88 9556.6,-545.33 9562.85,-543.84 9569.15,-541.91 9575.39,-539.67"/>
<polygon fill="black" stroke="black" points="9576.35,-543.06 9584.42,-536.19 9573.83,-536.53 9576.35,-543.06"/>
<text text-anchor="middle" x="9515.35" y="-555.3" font-family="Times,serif" font-size="14.00">FURNITURE</text>
</g>
<!-- 44136&#45;&gt;45016 -->
<g id="edge5" class="edge">
<title>44136&#45;&gt;45016</title>
<path fill="none" stroke="black" d="M9454.43,-502.87C9461.07,-503.86 9467.68,-504.7 9474.1,-505.33 9503.26,-508.2 9535,-507.37 9563.98,-505.08"/>
<polygon fill="black" stroke="black" points="9564.2,-508.57 9573.86,-504.22 9563.6,-501.6 9564.2,-508.57"/>
<text text-anchor="middle" x="9515.35" y="-510.36" font-family="Times,serif" font-size="14.00">FITTINGS</text>
</g>
<!-- 44136&#45;&gt;45016 -->
<g id="edge6" class="edge">
<title>44136&#45;&gt;45016</title>
<path fill="none" stroke="black" d="M9456.5,-483.51C9488.08,-483.49 9523.94,-483.79 9556.6,-484.83 9558.78,-484.9 9560.99,-484.98 9563.21,-485.06"/>
<polygon fill="black" stroke="black" points="9562.8,-488.55 9572.94,-485.47 9563.1,-481.56 9562.8,-488.55"/>
<text text-anchor="middle" x="9515.35" y="-488.03" font-family="Times,serif" font-size="14.00">MACHINERY</text>
</g>
<!-- 44136&#45;&gt;45016 -->
<g id="edge7" class="edge">
<title>44136&#45;&gt;45016</title>
<path fill="none" stroke="black" d="M9454.42,-465.35C9461.06,-464.35 9467.67,-463.48 9474.1,-462.83 9510.59,-459.16 9520.25,-458.04 9556.6,-462.83 9559.84,-463.26 9563.12,-463.76 9566.42,-464.32"/>
<polygon fill="black" stroke="black" points="9565.74,-467.75 9576.22,-466.14 9567.03,-460.87 9565.74,-467.75"/>
<text text-anchor="middle" x="9515.35" y="-466.03" font-family="Times,serif" font-size="14.00">EQUIPMENT</text>
</g>
<!-- 44136&#45;&gt;45016 -->
<g id="edge8" class="edge">
<title>44136&#45;&gt;45016</title>
<path fill="none" stroke="black" d="M9447.8,-446.16C9456.52,-443.17 9465.39,-440.63 9474.1,-438.83 9510.01,-431.43 9520.9,-430.49 9556.6,-438.83 9562.61,-440.24 9568.67,-442.03 9574.69,-444.11"/>
<polygon fill="black" stroke="black" points="9573.44,-447.38 9584.03,-447.6 9575.89,-440.82 9573.44,-447.38"/>
<text text-anchor="middle" x="9515.35" y="-442.03" font-family="Times,serif" font-size="14.00">OTHER</text>
</g>
<!-- 45137 -->
<g id="node8" class="node">
<title>45137</title>
<ellipse fill="none" stroke="black" cx="10948.31" cy="-546.33" rx="150.13" ry="150.13"/>
<text text-anchor="middle" x="10948.31" y="-541.28" font-family="Times,serif" font-size="14.00">Enter description of person(s) injured</text>
</g>
<!-- 44249&#45;&gt;45137 -->
<g id="edge9" class="edge">
<title>44249&#45;&gt;45137</title>
<path fill="none" stroke="black" d="M10722.06,-450.97C10747.82,-461.87 10774.16,-473.03 10799.33,-483.68"/>
<polygon fill="black" stroke="black" points="10797.69,-486.79 10808.26,-487.46 10800.42,-480.34 10797.69,-486.79"/>
<text text-anchor="middle" x="10767.43" y="-475.15" font-family="Times,serif" font-size="14.00">YES</text>
</g>
<!-- 44906 -->
<g id="node9" class="node">
<title>44906</title>
<ellipse fill="none" stroke="black" cx="11396.13" cy="-506.33" rx="119.93" ry="119.93"/>
<text text-anchor="middle" x="11396.13" y="-501.28" font-family="Times,serif" font-size="14.00">Were any illicit items found?</text>
</g>
<!-- 44249&#45;&gt;44906 -->
<g id="edge10" class="edge">
<title>44249&#45;&gt;44906</title>
<path fill="none" stroke="black" d="M10735.56,-354.44C10842.98,-346.44 10979.64,-344.99 11098.44,-370.83 11161.99,-384.66 11228.23,-413.35 11281.96,-440.79"/>
<polygon fill="black" stroke="black" points="11280.35,-443.9 11290.84,-445.38 11283.57,-437.68 11280.35,-443.9"/>
<text text-anchor="middle" x="10948.31" y="-374.03" font-family="Times,serif" font-size="14.00">NO</text>
</g>
<!-- 44616 -->
<g id="node24" class="node">
<title>44616</title>
<ellipse fill="none" stroke="black" cx="9970.95" cy="-497.33" rx="107.65" ry="107.65"/>
<text text-anchor="middle" x="9970.95" y="-492.28" font-family="Times,serif" font-size="14.00">Estimated cost of damage</text>
</g>
<!-- 45016&#45;&gt;44616 -->
<g id="edge70" class="edge">
<title>45016&#45;&gt;44616</title>
<path fill="none" stroke="black" d="M9751.58,-509.92C9758.15,-510.88 9764.69,-511.71 9771.05,-512.33 9797.44,-514.92 9825.83,-514.61 9852.68,-512.92"/>
<polygon fill="black" stroke="black" points="9852.84,-516.42 9862.56,-512.22 9852.34,-509.43 9852.84,-516.42"/>
<text text-anchor="middle" x="9808.18" y="-517.43" font-family="Times,serif" font-size="14.00">MINOR</text>
</g>
<!-- 45016&#45;&gt;44616 -->
<g id="edge71" class="edge">
<title>45016&#45;&gt;44616</title>
<path fill="none" stroke="black" d="M9753.42,-490.85C9782.68,-490.89 9815.39,-491.13 9845.3,-491.83 9847.5,-491.89 9849.71,-491.94 9851.94,-492"/>
<polygon fill="black" stroke="black" points="9851.59,-495.49 9861.69,-492.29 9851.8,-488.5 9851.59,-495.49"/>
<text text-anchor="middle" x="9808.18" y="-495.03" font-family="Times,serif" font-size="14.00">SERIOUS</text>
</g>
<!-- 45016&#45;&gt;44616 -->
<g id="edge72" class="edge">
<title>45016&#45;&gt;44616</title>
<path fill="none" stroke="black" d="M9751.59,-473.19C9758.15,-472.25 9764.7,-471.44 9771.05,-470.83 9803.9,-467.69 9812.48,-467.38 9845.3,-470.83 9848.29,-471.15 9851.32,-471.5 9854.37,-471.9"/>
<polygon fill="black" stroke="black" points="9853.58,-475.32 9863.97,-473.25 9854.56,-468.39 9853.58,-475.32"/>
<text text-anchor="middle" x="9808.18" y="-474.03" font-family="Times,serif" font-size="14.00">EXTENSIVE</text>
</g>
<!-- 45137&#45;&gt;44906 -->
<g id="edge75" class="edge">
<title>45137&#45;&gt;44906</title>
<path fill="none" stroke="black" d="M11093.1,-586.49C11145.65,-595.31 11205.18,-598.37 11258.19,-584.33 11266.94,-582.02 11275.71,-579 11284.35,-575.5"/>
<polygon fill="black" stroke="black" points="11285.62,-578.76 11293.42,-571.6 11282.85,-572.33 11285.62,-578.76"/>
<text text-anchor="middle" x="11187.32" y="-597.18" font-family="Times,serif" font-size="14.00">STAFF</text>
</g>
<!-- 45137&#45;&gt;44906 -->
<g id="edge76" class="edge">
<title>45137&#45;&gt;44906</title>
<path fill="none" stroke="black" d="M11098.75,-553.29C11149.56,-553.56 11206.54,-551.54 11258.19,-544.33 11262.04,-543.8 11265.92,-543.19 11269.84,-542.51"/>
<polygon fill="black" stroke="black" points="11270.24,-545.99 11279.42,-540.7 11268.95,-539.11 11270.24,-545.99"/>
<text text-anchor="middle" x="11187.32" y="-556.44" font-family="Times,serif" font-size="14.00">PRISONERS</text>
</g>
<!-- 45137&#45;&gt;44906 -->
<g id="edge77" class="edge">
<title>45137&#45;&gt;44906</title>
<path fill="none" stroke="black" d="M11097.34,-525.84C11103.79,-525.12 11110.18,-524.45 11116.44,-523.83 11164.69,-519.08 11217.77,-515.37 11264.54,-512.61"/>
<polygon fill="black" stroke="black" points="11264.69,-516.11 11274.47,-512.04 11264.28,-509.12 11264.69,-516.11"/>
<text text-anchor="middle" x="11187.32" y="-527.03" font-family="Times,serif" font-size="14.00">CIVILIAN GRADES</text>
</g>
<!-- 45137&#45;&gt;44906 -->
<g id="edge78" class="edge">
<title>45137&#45;&gt;44906</title>
<path fill="none" stroke="black" d="M11090.83,-497.75C11099.43,-495.82 11108.02,-494.15 11116.44,-492.83 11178.69,-483.12 11195.27,-489.74 11258.19,-492.83 11260.43,-492.94 11262.69,-493.06 11264.96,-493.19"/>
<polygon fill="black" stroke="black" points="11264.72,-496.69 11274.92,-493.82 11265.15,-489.7 11264.72,-496.69"/>
<text text-anchor="middle" x="11187.32" y="-496.03" font-family="Times,serif" font-size="14.00">POLICE</text>
</g>
<!-- 45137&#45;&gt;44906 -->
<g id="edge79" class="edge">
<title>45137&#45;&gt;44906</title>
<path fill="none" stroke="black" d="M11081.99,-476.92C11093.43,-472.88 11105,-469.42 11116.44,-466.83 11177.9,-452.96 11195.81,-458.02 11258.19,-466.83 11262.11,-467.39 11266.07,-468.03 11270.06,-468.74"/>
<polygon fill="black" stroke="black" points="11269.36,-472.17 11279.85,-470.63 11270.69,-465.3 11269.36,-472.17"/>
<text text-anchor="middle" x="11187.32" y="-470.03" font-family="Times,serif" font-size="14.00">EXTERNAL CIVILIANS</text>
</g>
<!-- 44906&#45;&gt;END_NODE -->
<g id="edge61" class="edge">
<title>44906&#45;&gt;END_NODE</title>
<path fill="none" stroke="black" d="M11504.72,-557.76C11629.23,-609 11834.95,-667.26 11974.32,-570.33 12003.82,-549.82 12016.24,-510.08 12021.46,-478.66"/>
<polygon fill="black" stroke="black" points="12024.88,-479.41 12022.85,-469.01 12017.96,-478.41 12024.88,-479.41"/>
<text text-anchor="middle" x="11700.57" y="-625.75" font-family="Times,serif" font-size="14.00">NO</text>
</g>
<!-- 44301 -->
<g id="node12" class="node">
<title>44301</title>
<ellipse fill="none" stroke="black" cx="11700.57" cy="-426.33" rx="123" ry="123"/>
<text text-anchor="middle" x="11700.57" y="-421.28" font-family="Times,serif" font-size="14.00">Describe the illicit item found</text>
</g>
<!-- 44906&#45;&gt;44301 -->
<g id="edge60" class="edge">
<title>44906&#45;&gt;44301</title>
<path fill="none" stroke="black" d="M11512.33,-475.86C11531.26,-470.86 11550.98,-465.64 11570.22,-460.55"/>
<polygon fill="black" stroke="black" points="11570.94,-463.98 11579.71,-458.04 11569.15,-457.21 11570.94,-463.98"/>
<text text-anchor="middle" x="11546.81" y="-471.93" font-family="Times,serif" font-size="14.00">YES</text>
</g>
<!-- 44286&#45;&gt;44364 -->
<g id="edge13" class="edge">
<title>44286&#45;&gt;44364</title>
<path fill="none" stroke="black" d="M912.97,-761.4C929.87,-759.98 947.01,-758.53 964.06,-757.09"/>
<polygon fill="black" stroke="black" points="964.06,-760.6 973.73,-756.28 963.48,-753.63 964.06,-760.6"/>
<text text-anchor="middle" x="944.21" y="-762.73" font-family="Times,serif" font-size="14.00">YES</text>
</g>
<!-- 44286&#45;&gt;44364 -->
<g id="edge14" class="edge">
<title>44286&#45;&gt;44364</title>
<path fill="none" stroke="black" d="M910.07,-740.09C917.27,-739.24 924.42,-738.48 931.46,-737.83 941.85,-736.88 952.49,-736.11 963.25,-735.49"/>
<polygon fill="black" stroke="black" points="963.17,-739 972.98,-734.98 962.81,-732.01 963.17,-739"/>
<text text-anchor="middle" x="944.21" y="-741.03" font-family="Times,serif" font-size="14.00">NO</text>
</g>
<!-- 44786 -->
<g id="node14" class="node">
<title>44786</title>
<ellipse fill="none" stroke="black" cx="1633.23" cy="-738.33" rx="171.63" ry="171.63"/>
<text text-anchor="middle" x="1633.23" y="-733.28" font-family="Times,serif" font-size="14.00">Is there any media interest in this incident?</text>
</g>
<!-- 44364&#45;&gt;44786 -->
<g id="edge25" class="edge">
<title>44364&#45;&gt;44786</title>
<path fill="none" stroke="black" d="M1400.31,-738.33C1416.89,-738.33 1433.54,-738.33 1449.9,-738.33"/>
<polygon fill="black" stroke="black" points="1449.66,-741.83 1459.66,-738.33 1449.66,-734.83 1449.66,-741.83"/>
<text text-anchor="middle" x="1430.85" y="-741.53" font-family="Times,serif" font-size="14.00">YES</text>
</g>
<!-- 44364&#45;&gt;44786 -->
<g id="edge26" class="edge">
<title>44364&#45;&gt;44786</title>
<path fill="none" stroke="black" d="M1399.35,-716.96C1414.32,-716.8 1429.18,-717.05 1443.6,-717.83 1446.11,-717.97 1448.63,-718.12 1451.17,-718.27"/>
<polygon fill="black" stroke="black" points="1450.66,-721.75 1460.87,-718.91 1451.12,-714.76 1450.66,-721.75"/>
<text text-anchor="middle" x="1430.85" y="-721.03" font-family="Times,serif" font-size="14.00">NO</text>
</g>
<!-- 44301&#45;&gt;END_NODE -->
<g id="edge15" class="edge">
<title>44301&#45;&gt;END_NODE</title>
<path fill="none" stroke="black" d="M11793.27,-507.61C11808.52,-517.33 11824.85,-525.76 11841.57,-531.33 11897.54,-549.99 11923.9,-561.97 11974.32,-531.33 11993.9,-519.44 12006.28,-497.29 12013.92,-477.05"/>
<polygon fill="black" stroke="black" points="12017.15,-478.42 12017.1,-467.83 12010.53,-476.14 12017.15,-478.42"/>
<text text-anchor="middle" x="11907.95" y="-553.29" font-family="Times,serif" font-size="14.00">WEAPONS</text>
</g>
<!-- 44301&#45;&gt;END_NODE -->
<g id="edge16" class="edge">
<title>44301&#45;&gt;END_NODE</title>
<path fill="none" stroke="black" d="M11810.42,-482.27C11820.75,-485.93 11831.23,-489.05 11841.57,-491.33 11899.18,-504.06 11920.58,-515.69 11974.32,-491.33 11984.37,-486.78 11993.22,-479.15 12000.6,-470.9"/>
<polygon fill="black" stroke="black" points="12003.15,-473.3 12006.78,-463.34 11997.74,-468.86 12003.15,-473.3"/>
<text text-anchor="middle" x="11907.95" y="-508.76" font-family="Times,serif" font-size="14.00">ALCOHOL</text>
</g>
<!-- 44301&#45;&gt;END_NODE -->
<g id="edge17" class="edge">
<title>44301&#45;&gt;END_NODE</title>
<path fill="none" stroke="black" d="M11821.59,-450.81C11869.34,-457.05 11924.64,-459.87 11974.32,-451.33 11977.33,-450.82 11980.4,-450.14 11983.47,-449.35"/>
<polygon fill="black" stroke="black" points="11984.39,-452.73 11992.97,-446.53 11982.39,-446.02 11984.39,-452.73"/>
<text text-anchor="middle" x="11907.95" y="-459.88" font-family="Times,serif" font-size="14.00">CIGARETTES</text>
</g>
<!-- 44301&#45;&gt;END_NODE -->
<g id="edge18" class="edge">
<title>44301&#45;&gt;END_NODE</title>
<path fill="none" stroke="black" d="M11823.79,-427.5C11870.85,-428.17 11925.09,-429.22 11974.32,-430.83 11976.38,-430.9 11978.49,-430.98 11980.63,-431.06"/>
<polygon fill="black" stroke="black" points="11980.43,-434.56 11990.57,-431.49 11980.73,-427.56 11980.43,-434.56"/>
<text text-anchor="middle" x="11907.95" y="-434.03" font-family="Times,serif" font-size="14.00">TOBACCO</text>
</g>
<!-- 44301&#45;&gt;END_NODE -->
<g id="edge19" class="edge">
<title>44301&#45;&gt;END_NODE</title>
<path fill="none" stroke="black" d="M11821.66,-402.87C11869.66,-397.44 11925.13,-396.19 11974.32,-407.83 11978.19,-408.75 11982.09,-410.01 11985.93,-411.48"/>
<polygon fill="black" stroke="black" points="11984.53,-414.68 11995.09,-415.46 11987.32,-408.26 11984.53,-414.68"/>
<text text-anchor="middle" x="11907.95" y="-411.03" font-family="Times,serif" font-size="14.00">CASH</text>
</g>
<!-- 44301&#45;&gt;END_NODE -->
<g id="edge20" class="edge">
<title>44301&#45;&gt;END_NODE</title>
<path fill="none" stroke="black" d="M11814.18,-378.45C11864.74,-363.99 11924.18,-357.04 11974.32,-378.83 11983.73,-382.93 11992.2,-389.71 11999.39,-397.13"/>
<polygon fill="black" stroke="black" points="11996.42,-399.06 12005.68,-404.21 12001.65,-394.41 11996.42,-399.06"/>
<text text-anchor="middle" x="11907.95" y="-382.03" font-family="Times,serif" font-size="14.00">ESCAPE EQUIPMENT</text>
</g>
<!-- 44301&#45;&gt;END_NODE -->
<g id="edge21" class="edge">
<title>44301&#45;&gt;END_NODE</title>
<path fill="none" stroke="black" d="M11803.65,-358.38C11856.95,-331.94 11921.81,-314.45 11974.32,-344.83 11991.47,-354.76 12003.34,-372.89 12011.27,-390.17"/>
<polygon fill="black" stroke="black" points="12008.02,-391.48 12015.12,-399.35 12014.48,-388.77 12008.02,-391.48"/>
<text text-anchor="middle" x="11907.95" y="-348.03" font-family="Times,serif" font-size="14.00">TOOLS</text>
</g>
<!-- 44301&#45;&gt;END_NODE -->
<g id="edge22" class="edge">
<title>44301&#45;&gt;END_NODE</title>
<path fill="none" stroke="black" d="M11787.01,-338.47C11803.83,-325.93 11822.28,-314.9 11841.57,-307.83 11896.97,-287.54 11925.39,-274.87 11974.32,-307.83 12000.79,-325.67 12013.49,-359.9 12019.58,-388.11"/>
<polygon fill="black" stroke="black" points="12016.13,-388.72 12021.45,-397.88 12023.01,-387.4 12016.13,-388.72"/>
<text text-anchor="middle" x="11907.95" y="-311.03" font-family="Times,serif" font-size="14.00">OTHER</text>
</g>
<!-- 44333 -->
<g id="node13" class="node">
<title>44333</title>
<ellipse fill="none" stroke="black" cx="8633.63" cy="-202.33" rx="202.33" ry="202.33"/>
<text text-anchor="middle" x="8633.63" y="-197.28" font-family="Times,serif" font-size="14.00">Has any prosecution taken place or is any pending?</text>
</g>
<!-- 44333&#45;&gt;44124 -->
<g id="edge23" class="edge">
<title>44333&#45;&gt;44124</title>
<path fill="none" stroke="black" d="M8820.82,-279.6C8846.8,-290.39 8873.29,-301.38 8898.68,-311.92"/>
<polygon fill="black" stroke="black" points="8897.14,-315.06 8907.71,-315.66 8899.82,-308.6 8897.14,-315.06"/>
<text text-anchor="middle" x="8866.72" y="-303.51" font-family="Times,serif" font-size="14.00">YES</text>
</g>
<!-- 44333&#45;&gt;44124 -->
<g id="edge24" class="edge">
<title>44333&#45;&gt;44124</title>
<path fill="none" stroke="black" d="M8829.27,-255.33C8846.43,-261.4 8863.38,-267.91 8879.47,-274.83 8889.61,-279.2 8899.9,-284.02 8910.16,-289.12"/>
<polygon fill="black" stroke="black" points="8908.54,-292.23 8919.04,-293.63 8911.7,-285.98 8908.54,-292.23"/>
<text text-anchor="middle" x="8866.72" y="-278.03" font-family="Times,serif" font-size="14.00">NO</text>
</g>
<!-- 45095 -->
<g id="node28" class="node">
<title>45095</title>
<ellipse fill="none" stroke="black" cx="2066.13" cy="-738.33" rx="199.78" ry="199.78"/>
<text text-anchor="middle" x="2066.13" y="-733.28" font-family="Times,serif" font-size="14.00">Has the prison service press office been informed?</text>
</g>
<!-- 44786&#45;&gt;45095 -->
<g id="edge52" class="edge">
<title>44786&#45;&gt;45095</title>
<path fill="none" stroke="black" d="M1805.15,-738.33C1821.38,-738.33 1837.96,-738.33 1854.5,-738.33"/>
<polygon fill="black" stroke="black" points="1854.43,-741.83 1864.43,-738.33 1854.43,-734.83 1854.43,-741.83"/>
<text text-anchor="middle" x="1835.6" y="-741.53" font-family="Times,serif" font-size="14.00">YES</text>
</g>
<!-- 44786&#45;&gt;45095 -->
<g id="edge53" class="edge">
<title>44786&#45;&gt;45095</title>
<path fill="none" stroke="black" d="M1804.08,-719.01C1810.41,-718.56 1816.69,-718.17 1822.85,-717.83 1833.68,-717.25 1844.78,-716.99 1855.97,-716.99"/>
<polygon fill="black" stroke="black" points="1855.66,-720.49 1865.69,-717.06 1855.71,-713.49 1855.66,-720.49"/>
<text text-anchor="middle" x="1835.6" y="-721.03" font-family="Times,serif" font-size="14.00">NO</text>
</g>
<!-- 44389 -->
<g id="node15" class="node">
<title>44389</title>
<ellipse fill="none" stroke="black" cx="4972.63" cy="-373.33" rx="202.33" ry="202.33"/>
<text text-anchor="middle" x="4972.63" y="-368.28" font-family="Times,serif" font-size="14.00">Has any prosecution taken place or is any pending?</text>
</g>
<!-- 44883 -->
<g id="node16" class="node">
<title>44883</title>
<ellipse fill="none" stroke="black" cx="5376.36" cy="-413.33" rx="139.89" ry="139.89"/>
<text text-anchor="middle" x="5376.36" y="-408.28" font-family="Times,serif" font-size="14.00">Was the incident a demonstration?</text>
</g>
<!-- 44389&#45;&gt;44883 -->
<g id="edge27" class="edge">
<title>44389&#45;&gt;44883</title>
<path fill="none" stroke="black" d="M5174.2,-393.31C5191.6,-395.04 5209,-396.77 5225.88,-398.45"/>
<polygon fill="black" stroke="black" points="5225.08,-401.89 5235.38,-399.4 5225.78,-394.92 5225.08,-401.89"/>
<text text-anchor="middle" x="5205.72" y="-400.12" font-family="Times,serif" font-size="14.00">YES</text>
</g>
<!-- 44389&#45;&gt;44883 -->
<g id="edge28" class="edge">
<title>44389&#45;&gt;44883</title>
<path fill="none" stroke="black" d="M5175.29,-370.81C5189.93,-371.78 5204.44,-373.1 5218.47,-374.83 5222.09,-375.28 5225.74,-375.79 5229.42,-376.34"/>
<polygon fill="black" stroke="black" points="5228.6,-379.75 5239.02,-377.88 5229.71,-372.84 5228.6,-379.75"/>
<text text-anchor="middle" x="5205.72" y="-378.03" font-family="Times,serif" font-size="14.00">NO</text>
</g>
<!-- 44883&#45;&gt;44124 -->
<g id="edge59" class="edge">
<title>44883&#45;&gt;44124</title>
<path fill="none" stroke="black" d="M5513.59,-442.67C5589.92,-456.64 5687.07,-470.33 5774.49,-470.33 5774.49,-470.33 5774.49,-470.33 8634.63,-470.33 8721.81,-470.33 8816.79,-451.15 8894.5,-430.2"/>
<polygon fill="black" stroke="black" points="8895.17,-433.65 8903.89,-427.64 8893.32,-426.9 8895.17,-433.65"/>
<text text-anchor="middle" x="7256.02" y="-473.53" font-family="Times,serif" font-size="14.00">NO</text>
</g>
<!-- 44709 -->
<g id="node27" class="node">
<title>44709</title>
<ellipse fill="none" stroke="black" cx="5775.49" cy="-244.33" rx="197.73" ry="197.73"/>
<text text-anchor="middle" x="5775.49" y="-239.28" font-family="Times,serif" font-size="14.00">Was the demonstration organised or spontaneous?</text>
</g>
<!-- 44883&#45;&gt;44709 -->
<g id="edge58" class="edge">
<title>44883&#45;&gt;44709</title>
<path fill="none" stroke="black" d="M5505.47,-358.82C5530.19,-348.3 5556.58,-337.07 5582.8,-325.91"/>
<polygon fill="black" stroke="black" points="5584.01,-329.2 5591.84,-322.06 5581.27,-322.76 5584.01,-329.2"/>
<text text-anchor="middle" x="5547.01" y="-347.17" font-family="Times,serif" font-size="14.00">YES</text>
</g>
<!-- 44500 -->
<g id="node17" class="node">
<title>44500</title>
<ellipse fill="none" stroke="black" cx="6659.55" cy="-232.33" rx="194.15" ry="194.15"/>
<text text-anchor="middle" x="6659.55" y="-227.28" font-family="Times,serif" font-size="14.00">Was the demonstration known about in advance?</text>
</g>
<!-- 44606 -->
<g id="node18" class="node">
<title>44606</title>
<ellipse fill="none" stroke="black" cx="7023.36" cy="-295.33" rx="108.16" ry="108.16"/>
<text text-anchor="middle" x="7023.36" y="-290.28" font-family="Times,serif" font-size="14.00">How was it known about?</text>
</g>
<!-- 44500&#45;&gt;44606 -->
<g id="edge29" class="edge">
<title>44500&#45;&gt;44606</title>
<path fill="none" stroke="black" d="M6851.25,-265.54C6869.67,-268.75 6887.95,-271.93 6905.32,-274.96"/>
<polygon fill="black" stroke="black" points="6904.66,-278.39 6915.11,-276.66 6905.86,-271.5 6904.66,-278.39"/>
<text text-anchor="middle" x="6884.45" y="-276.36" font-family="Times,serif" font-size="14.00">YES</text>
</g>
<!-- 44658 -->
<g id="node19" class="node">
<title>44658</title>
<ellipse fill="none" stroke="black" cx="7556.24" cy="-255.33" rx="175.72" ry="175.72"/>
<text text-anchor="middle" x="7556.24" y="-250.28" font-family="Times,serif" font-size="14.00">What was the reason for the demonstration?</text>
</g>
<!-- 44500&#45;&gt;44658 -->
<g id="edge30" class="edge">
<title>44500&#45;&gt;44658</title>
<path fill="none" stroke="black" d="M6845.35,-174.93C6868.67,-169.54 6892.35,-164.94 6915.2,-161.83 7071.16,-140.64 7248.21,-170.69 7376.5,-202.21"/>
<polygon fill="black" stroke="black" points="7375.57,-205.59 7386.12,-204.61 7377.26,-198.8 7375.57,-205.59"/>
<text text-anchor="middle" x="7023.36" y="-165.03" font-family="Times,serif" font-size="14.00">NO</text>
</g>
<!-- 44606&#45;&gt;44658 -->
<g id="edge37" class="edge">
<title>44606&#45;&gt;44658</title>
<path fill="none" stroke="black" d="M7130.77,-311.69C7137.1,-312.34 7143.39,-312.9 7149.52,-313.33 7243.94,-320.09 7268.86,-327.12 7362.52,-313.33 7367.47,-312.61 7372.46,-311.78 7377.48,-310.86"/>
<polygon fill="black" stroke="black" points="7377.88,-314.35 7387.03,-309.02 7376.55,-307.48 7377.88,-314.35"/>
<text text-anchor="middle" x="7256.02" y="-324.45" font-family="Times,serif" font-size="14.00">INFORMATION FROM PRISONERS</text>
</g>
<!-- 44606&#45;&gt;44658 -->
<g id="edge38" class="edge">
<title>44606&#45;&gt;44658</title>
<path fill="none" stroke="black" d="M7131.78,-289.12C7198.28,-285.08 7285.4,-279.44 7362.52,-273.33 7364.87,-273.15 7367.25,-272.96 7369.63,-272.77"/>
<polygon fill="black" stroke="black" points="7369.69,-276.27 7379.37,-271.97 7369.12,-269.3 7369.69,-276.27"/>
<text text-anchor="middle" x="7256.02" y="-291" font-family="Times,serif" font-size="14.00">INFORMATION FROM POLICE</text>
</g>
<!-- 44606&#45;&gt;44658 -->
<g id="edge39" class="edge">
<title>44606&#45;&gt;44658</title>
<path fill="none" stroke="black" d="M7125.08,-258.01C7133.27,-255.94 7141.48,-254.16 7149.52,-252.83 7220.78,-241.07 7300.05,-239.13 7369.48,-241.03"/>
<polygon fill="black" stroke="black" points="7369.36,-244.53 7379.47,-241.34 7369.58,-237.53 7369.36,-244.53"/>
<text text-anchor="middle" x="7256.02" y="-256.03" font-family="Times,serif" font-size="14.00">INFORMATION FROM HQ/AM</text>
</g>
<!-- 44606&#45;&gt;44658 -->
<g id="edge40" class="edge">
<title>44606&#45;&gt;44658</title>
<path fill="none" stroke="black" d="M7112.96,-234.13C7124.83,-228.29 7137.17,-223.27 7149.52,-219.83 7221.45,-199.82 7303.08,-202.36 7374.16,-212.25"/>
<polygon fill="black" stroke="black" points="7373.58,-215.7 7383.98,-213.68 7374.58,-208.77 7373.58,-215.7"/>
<text text-anchor="middle" x="7256.02" y="-223.03" font-family="Times,serif" font-size="14.00">OTHER</text>
</g>
<!-- 44686 -->
<g id="node25" class="node">
<title>44686</title>
<ellipse fill="none" stroke="black" cx="8014.52" cy="-260.33" rx="92.81" ry="92.81"/>
<text text-anchor="middle" x="8014.52" y="-255.28" font-family="Times,serif" font-size="14.00">Did the police attend?</text>
</g>
<!-- 44658&#45;&gt;44686 -->
<g id="edge42" class="edge">
<title>44658&#45;&gt;44686</title>
<path fill="none" stroke="black" d="M7726.91,-298.91C7783.33,-307.81 7846.39,-311.69 7903.71,-301.33 7908.27,-300.51 7912.89,-299.51 7917.52,-298.37"/>
<polygon fill="black" stroke="black" points="7918.12,-301.83 7926.87,-295.86 7916.3,-295.07 7918.12,-301.83"/>
<text text-anchor="middle" x="7826.84" y="-310.73" font-family="Times,serif" font-size="14.00">PARTICULAR PRISONER</text>
</g>
<!-- 44658&#45;&gt;44686 -->
<g id="edge43" class="edge">
<title>44658&#45;&gt;44686</title>
<path fill="none" stroke="black" d="M7732.13,-261.02C7738.15,-261.14 7744.1,-261.24 7749.96,-261.33 7818.29,-262.4 7835.38,-261.65 7903.71,-261.33 7905.77,-261.33 7907.84,-261.32 7909.94,-261.3"/>
<polygon fill="black" stroke="black" points="7909.76,-264.81 7919.74,-261.25 7909.72,-257.81 7909.76,-264.81"/>
<text text-anchor="middle" x="7826.84" y="-265.08" font-family="Times,serif" font-size="14.00">LOCAL ISSUE</text>
</g>
<!-- 44658&#45;&gt;44686 -->
<g id="edge44" class="edge">
<title>44658&#45;&gt;44686</title>
<path fill="none" stroke="black" d="M7731.48,-239.23C7786.63,-236.49 7847.79,-235.91 7903.71,-240.83 7906.36,-241.07 7909.03,-241.33 7911.73,-241.62"/>
<polygon fill="black" stroke="black" points="7911.06,-245.07 7921.4,-242.78 7911.89,-238.12 7911.06,-245.07"/>
<text text-anchor="middle" x="7826.84" y="-244.03" font-family="Times,serif" font-size="14.00">GENERAL ISSUE</text>
</g>
<!-- 44658&#45;&gt;44686 -->
<g id="edge45" class="edge">
<title>44658&#45;&gt;44686</title>
<path fill="none" stroke="black" d="M7727.65,-216.19C7783.98,-208.62 7846.79,-205.97 7903.71,-216.83 7908.54,-217.76 7913.43,-218.89 7918.33,-220.18"/>
<polygon fill="black" stroke="black" points="7917.01,-223.44 7927.58,-222.84 7918.94,-216.71 7917.01,-223.44"/>
<text text-anchor="middle" x="7826.84" y="-220.03" font-family="Times,serif" font-size="14.00">OTHER</text>
</g>
<!-- 44514 -->
<g id="node20" class="node">
<title>44514</title>
<ellipse fill="none" stroke="black" cx="3802.9" cy="-607.33" rx="170.09" ry="170.09"/>
<text text-anchor="middle" x="3802.9" y="-602.28" font-family="Times,serif" font-size="14.00">Did unauthorised persons enter the prison?</text>
</g>
<!-- 44514&#45;&gt;44883 -->
<g id="edge32" class="edge">
<title>44514&#45;&gt;44883</title>
<path fill="none" stroke="black" d="M3971.26,-634.65C4033.57,-642.67 4105.01,-649.33 4170.32,-649.33 4170.32,-649.33 4170.32,-649.33 4973.63,-649.33 5086.22,-649.33 5132.37,-656.88 5218.47,-584.33 5238.78,-567.22 5259.03,-547.58 5277.91,-527.86"/>
<polygon fill="black" stroke="black" points="5280.26,-530.47 5284.59,-520.8 5275.17,-525.66 5280.26,-530.47"/>
<text text-anchor="middle" x="4539.22" y="-652.53" font-family="Times,serif" font-size="14.00">NO</text>
</g>
<!-- 44543 -->
<g id="node21" class="node">
<title>44543</title>
<ellipse fill="none" stroke="black" cx="4171.32" cy="-484.33" rx="136.82" ry="136.82"/>
<text text-anchor="middle" x="4171.32" y="-479.28" font-family="Times,serif" font-size="14.00">Were these persons apprehended?</text>
</g>
<!-- 44514&#45;&gt;44543 -->
<g id="edge31" class="edge">
<title>44514&#45;&gt;44543</title>
<path fill="none" stroke="black" d="M3964.62,-553.39C3986.5,-546.04 4008.81,-538.55 4030.28,-531.34"/>
<polygon fill="black" stroke="black" points="4031.29,-534.7 4039.65,-528.2 4029.06,-528.06 4031.29,-534.7"/>
<text text-anchor="middle" x="4003.74" y="-545.35" font-family="Times,serif" font-size="14.00">YES</text>
</g>
<!-- 44543&#45;&gt;44883 -->
<g id="edge34" class="edge">
<title>44543&#45;&gt;44883</title>
<path fill="none" stroke="black" d="M4299.43,-533.37C4322.52,-540.77 4346.58,-547.52 4369.64,-552.33 4544.96,-588.93 5006.92,-646.29 5174.97,-584.33 5210.61,-571.2 5244.21,-548.58 5273.36,-524.03"/>
<polygon fill="black" stroke="black" points="5275.41,-526.88 5280.71,-517.7 5270.85,-521.57 5275.41,-526.88"/>
<text text-anchor="middle" x="4739.55" y="-606.29" font-family="Times,serif" font-size="14.00">NO</text>
</g>
<!-- 44855 -->
<g id="node22" class="node">
<title>44855</title>
<ellipse fill="none" stroke="black" cx="4539.22" cy="-373.33" rx="169.58" ry="169.58"/>
<text text-anchor="middle" x="4539.22" y="-368.28" font-family="Times,serif" font-size="14.00">Were these persons arrested by the police?</text>
</g>
<!-- 44543&#45;&gt;44855 -->
<g id="edge33" class="edge">
<title>44543&#45;&gt;44855</title>
<path fill="none" stroke="black" d="M4302.61,-444.81C4323.07,-438.6 4344.5,-432.1 4365.73,-425.66"/>
<polygon fill="black" stroke="black" points="4366.47,-429.09 4375.02,-422.84 4364.44,-422.4 4366.47,-429.09"/>
<text text-anchor="middle" x="4338.89" y="-438.68" font-family="Times,serif" font-size="14.00">YES</text>
</g>
<!-- 44855&#45;&gt;44389 -->
<g id="edge54" class="edge">
<title>44855&#45;&gt;44389</title>
<path fill="none" stroke="black" d="M4709.18,-373.33C4725.39,-373.33 4741.98,-373.33 4758.55,-373.33"/>
<polygon fill="black" stroke="black" points="4758.49,-376.83 4768.49,-373.33 4758.49,-369.83 4758.49,-376.83"/>
<text text-anchor="middle" x="4739.55" y="-376.53" font-family="Times,serif" font-size="14.00">YES</text>
</g>
<!-- 44855&#45;&gt;44883 -->
<g id="edge55" class="edge">
<title>44855&#45;&gt;44883</title>
<path fill="none" stroke="black" d="M4642.5,-238.24C4678.4,-201.14 4721.98,-165.69 4770.3,-145.83 4936.65,-77.48 5014.12,-65.36 5174.97,-145.83 5231.52,-174.13 5276.23,-226.8 5308.94,-277.97"/>
<polygon fill="black" stroke="black" points="5305.83,-279.6 5314.11,-286.22 5311.77,-275.89 5305.83,-279.6"/>
<text text-anchor="middle" x="4972.63" y="-149.03" font-family="Times,serif" font-size="14.00">NO</text>
</g>
<!-- 44561 -->
<g id="node23" class="node">
<title>44561</title>
<ellipse fill="none" stroke="black" cx="6255.31" cy="-236.33" rx="148.59" ry="148.59"/>
<text text-anchor="middle" x="6255.31" y="-231.28" font-family="Times,serif" font-size="14.00">Was a known organisation involved?</text>
</g>
<!-- 44561&#45;&gt;44500 -->
<g id="edge35" class="edge">
<title>44561&#45;&gt;44500</title>
<path fill="none" stroke="black" d="M6404.37,-234.86C6420.64,-234.7 6437.4,-234.53 6454.19,-234.37"/>
<polygon fill="black" stroke="black" points="6453.74,-237.87 6463.71,-234.27 6453.67,-230.87 6453.74,-237.87"/>
<text text-anchor="middle" x="6434.65" y="-237.77" font-family="Times,serif" font-size="14.00">YES</text>
</g>
<!-- 44561&#45;&gt;44500 -->
<g id="edge36" class="edge">
<title>44561&#45;&gt;44500</title>
<path fill="none" stroke="black" d="M6402.48,-215.38C6409.04,-214.79 6415.54,-214.27 6421.9,-213.83 6432.7,-213.1 6443.76,-212.72 6454.94,-212.61"/>
<polygon fill="black" stroke="black" points="6454.63,-216.12 6464.62,-212.6 6454.62,-209.12 6454.63,-216.12"/>
<text text-anchor="middle" x="6434.65" y="-217.03" font-family="Times,serif" font-size="14.00">NO</text>
</g>
<!-- 44616&#45;&gt;44249 -->
<g id="edge41" class="edge">
<title>44616&#45;&gt;44249</title>
<path fill="none" stroke="black" d="M10076.6,-475.46C10152.83,-459.53 10258.37,-437.48 10350.08,-418.31"/>
<polygon fill="black" stroke="black" points="10350.64,-421.77 10359.71,-416.3 10349.21,-414.92 10350.64,-421.77"/>
<text text-anchor="middle" x="10218.1" y="-471.54" font-family="Times,serif" font-size="14.00">ENTER AMOUNT IN POUND STERLING</text>
</g>
<!-- 44686&#45;&gt;44124 -->
<g id="edge47" class="edge">
<title>44686&#45;&gt;44124</title>
<path fill="none" stroke="black" d="M8091.94,-311.87C8115.79,-326.24 8142.71,-340.79 8168.83,-351.33 8444.94,-462.85 8539.16,-437.42 8835.97,-413.33 8853,-411.95 8870.71,-409.98 8888.35,-407.66"/>
<polygon fill="black" stroke="black" points="8888.68,-411.14 8898.12,-406.33 8887.74,-404.21 8888.68,-411.14"/>
<text text-anchor="middle" x="8400.55" y="-427.6" font-family="Times,serif" font-size="14.00">NO</text>
</g>
<!-- 44728 -->
<g id="node26" class="node">
<title>44728</title>
<ellipse fill="none" stroke="black" cx="8269.31" cy="-242.33" rx="100.48" ry="100.48"/>
<text text-anchor="middle" x="8269.31" y="-237.28" font-family="Times,serif" font-size="14.00">Were any arrests made?</text>
</g>
<!-- 44686&#45;&gt;44728 -->
<g id="edge46" class="edge">
<title>44686&#45;&gt;44728</title>
<path fill="none" stroke="black" d="M8107.5,-253.79C8123.67,-252.63 8140.66,-251.42 8157.28,-250.24"/>
<polygon fill="black" stroke="black" points="8157.49,-253.73 8167.21,-249.53 8156.99,-246.75 8157.49,-253.73"/>
<text text-anchor="middle" x="8138.08" y="-255.61" font-family="Times,serif" font-size="14.00">YES</text>
</g>
<!-- 44728&#45;&gt;44333 -->
<g id="edge50" class="edge">
<title>44728&#45;&gt;44333</title>
<path fill="none" stroke="black" d="M8369.32,-231.4C8385.55,-229.61 8402.9,-227.7 8420.66,-225.74"/>
<polygon fill="black" stroke="black" points="8421.01,-229.22 8430.56,-224.64 8420.24,-222.26 8421.01,-229.22"/>
<text text-anchor="middle" x="8400.55" y="-231.45" font-family="Times,serif" font-size="14.00">YES</text>
</g>
<!-- 44728&#45;&gt;44333 -->
<g id="edge51" class="edge">
<title>44728&#45;&gt;44333</title>
<path fill="none" stroke="black" d="M8365.34,-211.23C8372.88,-209.5 8380.43,-207.99 8387.8,-206.83 8398.16,-205.21 8408.8,-203.85 8419.57,-202.73"/>
<polygon fill="black" stroke="black" points="8419.71,-206.23 8429.33,-201.79 8419.04,-199.26 8419.71,-206.23"/>
<text text-anchor="middle" x="8400.55" y="-210.03" font-family="Times,serif" font-size="14.00">NO</text>
</g>
<!-- 44709&#45;&gt;44561 -->
<g id="edge48" class="edge">
<title>44709&#45;&gt;44561</title>
<path fill="none" stroke="black" d="M5973.45,-243.96C6011.69,-243.64 6051.45,-243.13 6088.71,-242.33 6090.92,-242.29 6093.15,-242.24 6095.39,-242.19"/>
<polygon fill="black" stroke="black" points="6095.27,-245.69 6105.18,-241.94 6095.1,-238.69 6095.27,-245.69"/>
<text text-anchor="middle" x="6039.96" y="-246.97" font-family="Times,serif" font-size="14.00">ORGANISED</text>
</g>
<!-- 44709&#45;&gt;44561 -->
<g id="edge49" class="edge">
<title>44709&#45;&gt;44561</title>
<path fill="none" stroke="black" d="M5972.44,-222.95C5978.77,-222.53 5985.04,-222.16 5991.21,-221.83 6034.49,-219.57 6045.42,-219.94 6088.71,-221.83 6091.08,-221.94 6093.46,-222.05 6095.86,-222.17"/>
<polygon fill="black" stroke="black" points="6095.49,-225.65 6105.67,-222.7 6095.87,-218.66 6095.49,-225.65"/>
<text text-anchor="middle" x="6039.96" y="-225.03" font-family="Times,serif" font-size="14.00">SPONTANEOUS</text>
</g>
<!-- 44946 -->
<g id="node31" class="node">
<title>44946</title>
<ellipse fill="none" stroke="black" cx="2458.09" cy="-738.33" rx="130.68" ry="130.68"/>
<text text-anchor="middle" x="2458.09" y="-733.28" font-family="Times,serif" font-size="14.00">What was the incident location?</text>
</g>
<!-- 45095&#45;&gt;44946 -->
<g id="edge73" class="edge">
<title>45095&#45;&gt;44946</title>
<path fill="none" stroke="black" d="M2266.39,-738.33C2283.08,-738.33 2299.73,-738.33 2315.84,-738.33"/>
<polygon fill="black" stroke="black" points="2315.4,-741.83 2325.4,-738.33 2315.4,-734.83 2315.4,-741.83"/>
<text text-anchor="middle" x="2296.66" y="-741.53" font-family="Times,serif" font-size="14.00">YES</text>
</g>
<!-- 45095&#45;&gt;44946 -->
<g id="edge74" class="edge">
<title>45095&#45;&gt;44946</title>
<path fill="none" stroke="black" d="M2265.09,-716.59C2280.08,-716.48 2294.98,-716.84 2309.41,-717.83 2311.92,-718.01 2314.46,-718.2 2317.02,-718.4"/>
<polygon fill="black" stroke="black" points="2316.55,-721.88 2326.82,-719.26 2317.16,-714.9 2316.55,-721.88"/>
<text text-anchor="middle" x="2296.66" y="-721.03" font-family="Times,serif" font-size="14.00">NO</text>
</g>
<!-- 44864 -->
<g id="node29" class="node">
<title>44864</title>
<ellipse fill="none" stroke="black" cx="2879.79" cy="-738.33" rx="145.52" ry="145.52"/>
<text text-anchor="middle" x="2879.79" y="-733.28" font-family="Times,serif" font-size="14.00">Was the secure perimeter breached?</text>
</g>
<!-- 44864&#45;&gt;44514 -->
<g id="edge57" class="edge">
<title>44864&#45;&gt;44514</title>
<path fill="none" stroke="black" d="M3022.75,-767.7C3143.97,-787.6 3322.14,-804.49 3473.06,-769.33 3532.75,-755.43 3594.06,-729.07 3647.33,-701.58"/>
<polygon fill="black" stroke="black" points="3648.94,-704.69 3656.18,-696.96 3645.7,-698.48 3648.94,-704.69"/>
<text text-anchor="middle" x="3279.94" y="-792.92" font-family="Times,serif" font-size="14.00">NO</text>
</g>
<!-- 44918 -->
<g id="node30" class="node">
<title>44918</title>
<ellipse fill="none" stroke="black" cx="3279.94" cy="-567.33" rx="193.12" ry="193.12"/>
<text text-anchor="middle" x="3279.94" y="-562.28" font-family="Times,serif" font-size="14.00">Describe how the secure perimeter was breached</text>
</g>
<!-- 44864&#45;&gt;44918 -->
<g id="edge56" class="edge">
<title>44864&#45;&gt;44918</title>
<path fill="none" stroke="black" d="M3013.92,-681.16C3038.87,-670.44 3065.37,-659.06 3091.61,-647.79"/>
<polygon fill="black" stroke="black" points="3092.83,-651.07 3100.64,-643.91 3090.07,-644.64 3092.83,-651.07"/>
<text text-anchor="middle" x="3056.07" y="-671.35" font-family="Times,serif" font-size="14.00">YES</text>
</g>
<!-- 44918&#45;&gt;44514 -->
<g id="edge62" class="edge">
<title>44918&#45;&gt;44514</title>
<path fill="none" stroke="black" d="M3452.56,-654.52C3465.37,-658.81 3478.29,-662.5 3491.06,-665.33 3535.99,-675.3 3584.83,-672.51 3630.2,-664.27"/>
<polygon fill="black" stroke="black" points="3630.71,-667.73 3639.87,-662.4 3629.38,-660.86 3630.71,-667.73"/>
<text text-anchor="middle" x="3552.94" y="-674.89" font-family="Times,serif" font-size="14.00">THROWN OVER</text>
</g>
<!-- 44918&#45;&gt;44514 -->
<g id="edge63" class="edge">
<title>44918&#45;&gt;44514</title>
<path fill="none" stroke="black" d="M3465.71,-621.27C3474.24,-622.83 3482.72,-624.2 3491.06,-625.33 3545.56,-632.72 3559.88,-627.97 3614.81,-625.33 3617.17,-625.22 3619.54,-625.1 3621.92,-624.97"/>
<polygon fill="black" stroke="black" points="3621.88,-628.48 3631.66,-624.41 3621.47,-621.49 3621.88,-628.48"/>
<text text-anchor="middle" x="3552.94" y="-632.48" font-family="Times,serif" font-size="14.00">CLIMBED OVER</text>
</g>
<!-- 44918&#45;&gt;44514 -->
<g id="edge64" class="edge">
<title>44918&#45;&gt;44514</title>
<path fill="none" stroke="black" d="M3472.74,-583.88C3478.92,-584.38 3485.04,-584.86 3491.06,-585.33 3533.27,-588.64 3578.72,-591.97 3621.49,-595.02"/>
<polygon fill="black" stroke="black" points="3621.15,-598.5 3631.37,-595.72 3621.65,-591.52 3621.15,-598.5"/>
<text text-anchor="middle" x="3552.94" y="-597.45" font-family="Times,serif" font-size="14.00">CUT THROUGH</text>
</g>
<!-- 44918&#45;&gt;44514 -->
<g id="edge65" class="edge">
<title>44918&#45;&gt;44514</title>
<path fill="none" stroke="black" d="M3472.91,-558.08C3519.47,-557.99 3569.02,-559.7 3614.81,-564.83 3618.45,-565.24 3622.13,-565.69 3625.82,-566.19"/>
<polygon fill="black" stroke="black" points="3625.08,-569.62 3635.47,-567.56 3626.07,-562.68 3625.08,-569.62"/>
<text text-anchor="middle" x="3552.94" y="-568.03" font-family="Times,serif" font-size="14.00">VEHICLE RAMMED</text>
</g>
<!-- 44918&#45;&gt;44514 -->
<g id="edge66" class="edge">
<title>44918&#45;&gt;44514</title>
<path fill="none" stroke="black" d="M3470.22,-533.17C3517.65,-529.39 3568.28,-529.47 3614.81,-537.83 3621.09,-538.96 3627.44,-540.29 3633.81,-541.78"/>
<polygon fill="black" stroke="black" points="3632.52,-545.07 3643.07,-544.07 3634.2,-538.27 3632.52,-545.07"/>
<text text-anchor="middle" x="3552.94" y="-541.03" font-family="Times,serif" font-size="14.00">EXPLOSIVES</text>
</g>
<!-- 44918&#45;&gt;44514 -->
<g id="edge67" class="edge">
<title>44918&#45;&gt;44514</title>
<path fill="none" stroke="black" d="M3464.27,-508.65C3513.44,-500.27 3566.4,-497.98 3614.81,-509.83 3624.61,-512.23 3634.46,-515.25 3644.25,-518.71"/>
<polygon fill="black" stroke="black" points="3642.82,-521.91 3653.42,-522.11 3645.26,-515.35 3642.82,-521.91"/>
<text text-anchor="middle" x="3552.94" y="-513.03" font-family="Times,serif" font-size="14.00">OTHER</text>
</g>
<!-- 44946&#45;&gt;44864 -->
<g id="edge68" class="edge">
<title>44946&#45;&gt;44864</title>
<path fill="none" stroke="black" d="M2589.01,-738.33C2631.31,-738.33 2678.71,-738.33 2722.72,-738.33"/>
<polygon fill="black" stroke="black" points="2722.61,-741.83 2732.61,-738.33 2722.61,-734.83 2722.61,-741.83"/>
<text text-anchor="middle" x="2661.52" y="-741.53" font-family="Times,serif" font-size="14.00">INSIDE PRISON</text>
</g>
<!-- 44946&#45;&gt;44864 -->
<g id="edge69" class="edge">
<title>44946&#45;&gt;44864</title>
<path fill="none" stroke="black" d="M2587.85,-719.4C2594.24,-718.79 2600.57,-718.26 2606.77,-717.83 2655.32,-714.48 2667.7,-714.78 2716.27,-717.83 2718.81,-717.99 2721.36,-718.17 2723.94,-718.35"/>
<polygon fill="black" stroke="black" points="2723.56,-721.83 2733.81,-719.13 2724.11,-714.86 2723.56,-721.83"/>
<text text-anchor="middle" x="2661.52" y="-721.03" font-family="Times,serif" font-size="14.00">OUTSIDE PRISON</text>
</g>
</g>
</svg>
