<?xml version="1.0" encoding="UTF-8" standalone="no"?>
<!DOCTYPE svg PUBLIC "-//W3C//DTD SVG 1.1//EN"
 "http://www.w3.org/Graphics/SVG/1.1/DTD/svg11.dtd">
<!-- Generated by graphviz version 12.1.1 (20240910.0053)
 -->
<!-- Title: DEATH_OTHER Pages: 1 -->
<svg width="7265pt" height="598pt"
 viewBox="0.00 0.00 7264.51 598.35" xmlns="http://www.w3.org/2000/svg" xmlns:xlink="http://www.w3.org/1999/xlink">
<g id="graph0" class="graph" transform="scale(1 1) rotate(0) translate(4 594.35)">
<title>DEATH_OTHER</title>
<polygon fill="white" stroke="none" points="-4,4 -4,-594.35 7260.51,-594.35 7260.51,4 -4,4"/>
<!-- START_NODE -->
<g id="node1" class="node">
<title>START_NODE</title>
</g>
<!-- 45054 -->
<g id="node2" class="node">
<title>45054</title>
<ellipse fill="none" stroke="black" cx="280.27" cy="-167.02" rx="167.02" ry="167.02"/>
<text text-anchor="middle" x="280.27" y="-161.97" font-family="Times,serif" font-size="14.00">Were the police informed of the incident?</text>
</g>
<!-- START_NODE&#45;&gt;45054 -->
<g id="edge1" class="edge">
<title>START_NODE&#45;&gt;45054</title>
<path fill="none" stroke="black" d="M53.94,-167.02C66.67,-167.02 83.21,-167.02 101.55,-167.02"/>
<polygon fill="black" stroke="black" points="101.34,-170.52 111.34,-167.02 101.34,-163.52 101.34,-170.52"/>
<text text-anchor="middle" x="83.62" y="-170.22" font-family="Times,serif" font-size="14.00">start</text>
</g>
<!-- 44434 -->
<g id="node18" class="node">
<title>44434</title>
<ellipse fill="none" stroke="black" cx="711.12" cy="-388.02" rx="202.33" ry="202.33"/>
<text text-anchor="middle" x="711.12" y="-382.97" font-family="Times,serif" font-size="14.00">Is the incident the subject of a police investigation?</text>
</g>
<!-- 45054&#45;&gt;44434 -->
<g id="edge43" class="edge">
<title>45054&#45;&gt;44434</title>
<path fill="none" stroke="black" d="M429.16,-243.23C458.66,-258.43 490.03,-274.6 520.71,-290.41"/>
<polygon fill="black" stroke="black" points="518.8,-293.36 529.29,-294.83 522.01,-287.14 518.8,-293.36"/>
<text text-anchor="middle" x="478.04" y="-274.09" font-family="Times,serif" font-size="14.00">YES</text>
</g>
<!-- 44839 -->
<g id="node19" class="node">
<title>44839</title>
<ellipse fill="none" stroke="black" cx="1187.53" cy="-348.02" rx="212.57" ry="212.57"/>
<text text-anchor="middle" x="1187.53" y="-342.97" font-family="Times,serif" font-size="14.00">Is the incident the subject of an internal investigation?</text>
</g>
<!-- 45054&#45;&gt;44839 -->
<g id="edge44" class="edge">
<title>45054&#45;&gt;44839</title>
<path fill="none" stroke="black" d="M445.02,-138.32C575.04,-121.89 759.88,-112.87 913.46,-160.52 947.81,-171.18 981.66,-187.81 1013.23,-206.87"/>
<polygon fill="black" stroke="black" points="1011.31,-209.8 1021.66,-212.07 1014.98,-203.84 1011.31,-209.8"/>
<text text-anchor="middle" x="711.12" y="-163.72" font-family="Times,serif" font-size="14.00">NO</text>
</g>
<!-- END_NODE -->
<g id="node3" class="node">
<title>END_NODE</title>
<ellipse fill="none" stroke="black" cx="7222.66" cy="-298.02" rx="29.86" ry="29.86"/>
<ellipse fill="none" stroke="black" cx="7222.66" cy="-298.02" rx="33.86" ry="33.86"/>
<text text-anchor="middle" x="7222.66" y="-292.97" font-family="Times,serif" font-size="14.00">END</text>
</g>
<!-- 44130 -->
<g id="node4" class="node">
<title>44130</title>
<ellipse fill="none" stroke="black" cx="5359.77" cy="-348.02" rx="79.5" ry="79.5"/>
<text text-anchor="middle" x="5359.77" y="-342.97" font-family="Times,serif" font-size="14.00">Name of deceased</text>
</g>
<!-- 44392 -->
<g id="node5" class="node">
<title>44392</title>
<ellipse fill="none" stroke="black" cx="5595.27" cy="-348.02" rx="79.5" ry="79.5"/>
<text text-anchor="middle" x="5595.27" y="-342.97" font-family="Times,serif" font-size="14.00">Status of deceased</text>
</g>
<!-- 44130&#45;&gt;44392 -->
<g id="edge2" class="edge">
<title>44130&#45;&gt;44392</title>
<path fill="none" stroke="black" d="M5439.49,-348.02C5460.26,-348.02 5482.82,-348.02 5504.13,-348.02"/>
<polygon fill="black" stroke="black" points="5503.97,-351.52 5513.97,-348.02 5503.97,-344.52 5503.97,-351.52"/>
<text text-anchor="middle" x="5477.52" y="-351.22" font-family="Times,serif" font-size="14.00">NAME</text>
</g>
<!-- 44645 -->
<g id="node13" class="node">
<title>44645</title>
<ellipse fill="none" stroke="black" cx="5979.28" cy="-348.02" rx="134.26" ry="134.26"/>
<text text-anchor="middle" x="5979.28" y="-342.97" font-family="Times,serif" font-size="14.00">Have next of kin been informed?</text>
</g>
<!-- 44392&#45;&gt;44645 -->
<g id="edge18" class="edge">
<title>44392&#45;&gt;44645</title>
<path fill="none" stroke="black" d="M5668.65,-379.83C5676.67,-382.36 5684.81,-384.51 5692.77,-386.02 5739.74,-394.94 5791.46,-391.89 5837.82,-384.57"/>
<polygon fill="black" stroke="black" points="5838.39,-388.03 5847.68,-382.93 5837.24,-381.12 5838.39,-388.03"/>
<text text-anchor="middle" x="5759.89" y="-394.7" font-family="Times,serif" font-size="14.00">OFFICER</text>
</g>
<!-- 44392&#45;&gt;44645 -->
<g id="edge19" class="edge">
<title>44392&#45;&gt;44645</title>
<path fill="none" stroke="black" d="M5674.96,-348.02C5720.64,-348.02 5779.6,-348.02 5833.38,-348.02"/>
<polygon fill="black" stroke="black" points="5833.26,-351.52 5843.26,-348.02 5833.26,-344.52 5833.26,-351.52"/>
<text text-anchor="middle" x="5759.89" y="-351.22" font-family="Times,serif" font-size="14.00">CIVILIAN STAFF</text>
</g>
<!-- 44392&#45;&gt;44645 -->
<g id="edge20" class="edge">
<title>44392&#45;&gt;44645</title>
<path fill="none" stroke="black" d="M5673.2,-330.18C5679.79,-329.11 5686.38,-328.19 5692.77,-327.52 5738.79,-322.69 5789.1,-324.08 5834.5,-327.81"/>
<polygon fill="black" stroke="black" points="5834.15,-331.29 5844.42,-328.68 5834.76,-324.32 5834.15,-331.29"/>
<text text-anchor="middle" x="5759.89" y="-330.72" font-family="Times,serif" font-size="14.00">EXTERNAL CIVILIAN</text>
</g>
<!-- 44392&#45;&gt;44645 -->
<g id="edge21" class="edge">
<title>44392&#45;&gt;44645</title>
<path fill="none" stroke="black" d="M5666.2,-311.59C5674.95,-308.28 5683.94,-305.46 5692.77,-303.52 5751.05,-290.73 5767.96,-295.01 5827.02,-303.52 5831.19,-304.12 5835.41,-304.81 5839.66,-305.58"/>
<polygon fill="black" stroke="black" points="5838.97,-309.01 5849.45,-307.48 5840.3,-302.14 5838.97,-309.01"/>
<text text-anchor="middle" x="5759.89" y="-306.72" font-family="Times,serif" font-size="14.00">OTHER</text>
</g>
<!-- 44142 -->
<g id="node6" class="node">
<title>44142</title>
<ellipse fill="none" stroke="black" cx="2066.13" cy="-348.02" rx="199.78" ry="199.78"/>
<text text-anchor="middle" x="2066.13" y="-342.97" font-family="Times,serif" font-size="14.00">Has the prison service press office been informed?</text>
</g>
<!-- 44751 -->
<g id="node7" class="node">
<title>44751</title>
<ellipse fill="none" stroke="black" cx="2482.14" cy="-348.02" rx="154.74" ry="154.74"/>
<text text-anchor="middle" x="2482.14" y="-342.97" font-family="Times,serif" font-size="14.00">What was the location of the incident?</text>
</g>
<!-- 44142&#45;&gt;44751 -->
<g id="edge3" class="edge">
<title>44142&#45;&gt;44751</title>
<path fill="none" stroke="black" d="M2266.25,-348.02C2282.83,-348.02 2299.48,-348.02 2315.77,-348.02"/>
<polygon fill="black" stroke="black" points="2315.47,-351.52 2325.47,-348.02 2315.47,-344.52 2315.47,-351.52"/>
<text text-anchor="middle" x="2296.66" y="-351.22" font-family="Times,serif" font-size="14.00">YES</text>
</g>
<!-- 44142&#45;&gt;44751 -->
<g id="edge4" class="edge">
<title>44142&#45;&gt;44751</title>
<path fill="none" stroke="black" d="M2265.07,-326.59C2280.07,-326.4 2294.97,-326.66 2309.41,-327.52 2311.81,-327.66 2314.22,-327.82 2316.66,-327.98"/>
<polygon fill="black" stroke="black" points="2316.39,-331.47 2326.62,-328.71 2316.91,-324.49 2316.39,-331.47"/>
<text text-anchor="middle" x="2296.66" y="-330.72" font-family="Times,serif" font-size="14.00">NO</text>
</g>
<!-- 44395 -->
<g id="node14" class="node">
<title>44395</title>
<ellipse fill="none" stroke="black" cx="2846.81" cy="-348.02" rx="119.93" ry="119.93"/>
<text text-anchor="middle" x="2846.81" y="-342.97" font-family="Times,serif" font-size="14.00">Was resuscitation attempted?</text>
</g>
<!-- 44751&#45;&gt;44395 -->
<g id="edge38" class="edge">
<title>44751&#45;&gt;44395</title>
<path fill="none" stroke="black" d="M2637.21,-348.02C2663.14,-348.02 2689.84,-348.02 2715.1,-348.02"/>
<polygon fill="black" stroke="black" points="2715.09,-351.52 2725.09,-348.02 2715.09,-344.52 2715.09,-351.52"/>
<text text-anchor="middle" x="2681.88" y="-351.22" font-family="Times,serif" font-size="14.00">SPECIFY</text>
</g>
<!-- 44237 -->
<g id="node8" class="node">
<title>44237</title>
<ellipse fill="none" stroke="black" cx="6891.58" cy="-258.02" rx="143.48" ry="143.48"/>
<text text-anchor="middle" x="6891.58" y="-252.97" font-family="Times,serif" font-size="14.00">What verdict did the inquest reach?</text>
</g>
<!-- 44237&#45;&gt;END_NODE -->
<g id="edge5" class="edge">
<title>44237&#45;&gt;END_NODE</title>
<path fill="none" stroke="black" d="M7010.19,-339.46C7024.15,-346.19 7038.6,-351.96 7053.05,-356.02 7103.43,-370.19 7123.13,-377.62 7170.8,-356.02 7180.85,-351.47 7189.7,-343.84 7197.08,-335.58"/>
<polygon fill="black" stroke="black" points="7199.64,-337.98 7203.27,-328.03 7194.22,-333.55 7199.64,-337.98"/>
<text text-anchor="middle" x="7111.93" y="-372.77" font-family="Times,serif" font-size="14.00">NATURAL CAUSES</text>
</g>
<!-- 44237&#45;&gt;END_NODE -->
<g id="edge6" class="edge">
<title>44237&#45;&gt;END_NODE</title>
<path fill="none" stroke="black" d="M7025.6,-310C7034.8,-312.38 7044.01,-314.44 7053.05,-316.02 7104.6,-325.05 7119.22,-324.88 7170.8,-316.02 7173.81,-315.5 7176.88,-314.83 7179.95,-314.04"/>
<polygon fill="black" stroke="black" points="7180.87,-317.41 7189.46,-311.21 7178.87,-310.7 7180.87,-317.41"/>
<text text-anchor="middle" x="7111.93" y="-325.93" font-family="Times,serif" font-size="14.00">SUICIDE</text>
</g>
<!-- 44237&#45;&gt;END_NODE -->
<g id="edge7" class="edge">
<title>44237&#45;&gt;END_NODE</title>
<path fill="none" stroke="black" d="M7034.05,-275.22C7085.76,-281.5 7140.58,-288.17 7177.52,-292.65"/>
<polygon fill="black" stroke="black" points="7177,-296.12 7187.35,-293.85 7177.85,-289.17 7177,-296.12"/>
<text text-anchor="middle" x="7111.93" y="-294.51" font-family="Times,serif" font-size="14.00">ACCIDENTAL</text>
</g>
<!-- 44237&#45;&gt;END_NODE -->
<g id="edge8" class="edge">
<title>44237&#45;&gt;END_NODE</title>
<path fill="none" stroke="black" d="M7034.32,-239.67C7079.04,-238.63 7127.94,-242.54 7170.8,-257.52 7177.37,-259.82 7183.73,-263.36 7189.6,-267.41"/>
<polygon fill="black" stroke="black" points="7187.09,-269.9 7197.16,-273.18 7191.33,-264.33 7187.09,-269.9"/>
<text text-anchor="middle" x="7111.93" y="-260.72" font-family="Times,serif" font-size="14.00">MISADVENTURE</text>
</g>
<!-- 44237&#45;&gt;END_NODE -->
<g id="edge9" class="edge">
<title>44237&#45;&gt;END_NODE</title>
<path fill="none" stroke="black" d="M7026.05,-207.19C7074.06,-197.05 7127.1,-195.76 7170.8,-219.52 7185.64,-227.59 7196.81,-242.05 7204.85,-256.39"/>
<polygon fill="black" stroke="black" points="7201.53,-257.59 7209.23,-264.87 7207.75,-254.38 7201.53,-257.59"/>
<text text-anchor="middle" x="7111.93" y="-222.72" font-family="Times,serif" font-size="14.00">OPEN VERDICT</text>
</g>
<!-- 44237&#45;&gt;END_NODE -->
<g id="edge10" class="edge">
<title>44237&#45;&gt;END_NODE</title>
<path fill="none" stroke="black" d="M7013.43,-181.94C7065.01,-159.7 7123.97,-148.66 7170.8,-179.52 7195.58,-195.85 7208.33,-227.04 7214.87,-253.33"/>
<polygon fill="black" stroke="black" points="7211.38,-253.76 7216.98,-262.76 7218.21,-252.23 7211.38,-253.76"/>
<text text-anchor="middle" x="7111.93" y="-182.72" font-family="Times,serif" font-size="14.00">OTHER</text>
</g>
<!-- 44248 -->
<g id="node9" class="node">
<title>44248</title>
<ellipse fill="none" stroke="black" cx="3545.26" cy="-348.02" rx="102.02" ry="102.02"/>
<text text-anchor="middle" x="3545.26" y="-342.97" font-family="Times,serif" font-size="14.00">Who pronounced death?</text>
</g>
<!-- 44702 -->
<g id="node10" class="node">
<title>44702</title>
<ellipse fill="none" stroke="black" cx="3996.18" cy="-348.02" rx="140.41" ry="140.41"/>
<text text-anchor="middle" x="3996.18" y="-342.97" font-family="Times,serif" font-size="14.00">What time was death pronounced?</text>
</g>
<!-- 44248&#45;&gt;44702 -->
<g id="edge11" class="edge">
<title>44248&#45;&gt;44702</title>
<path fill="none" stroke="black" d="M3646.46,-364.27C3652.82,-364.96 3659.13,-365.56 3665.28,-366.02 3741.73,-371.77 3761.23,-370.38 3837.78,-366.02 3840.29,-365.88 3842.82,-365.72 3845.37,-365.55"/>
<polygon fill="black" stroke="black" points="3845.4,-369.06 3855.12,-364.86 3844.9,-362.08 3845.4,-369.06"/>
<text text-anchor="middle" x="3751.53" y="-373.03" font-family="Times,serif" font-size="14.00">PRISON MEDICAL OFFICER</text>
</g>
<!-- 44248&#45;&gt;44702 -->
<g id="edge12" class="edge">
<title>44248&#45;&gt;44702</title>
<path fill="none" stroke="black" d="M3647.55,-345.75C3653.54,-345.66 3659.49,-345.58 3665.28,-345.52 3741.94,-344.71 3761.11,-344.91 3837.78,-345.52 3839.98,-345.54 3842.2,-345.56 3844.44,-345.58"/>
<polygon fill="black" stroke="black" points="3844.16,-349.07 3854.2,-345.67 3844.23,-342.07 3844.16,-349.07"/>
<text text-anchor="middle" x="3751.53" y="-348.72" font-family="Times,serif" font-size="14.00">HOSPITAL DOCTOR</text>
</g>
<!-- 44248&#45;&gt;44702 -->
<g id="edge13" class="edge">
<title>44248&#45;&gt;44702</title>
<path fill="none" stroke="black" d="M3645.4,-326.94C3652.11,-325.98 3658.78,-325.16 3665.28,-324.52 3741.58,-317.06 3761.32,-318.84 3837.78,-324.52 3840.45,-324.72 3843.15,-324.94 3845.86,-325.17"/>
<polygon fill="black" stroke="black" points="3845.32,-328.63 3855.6,-326.08 3845.97,-321.66 3845.32,-328.63"/>
<text text-anchor="middle" x="3751.53" y="-327.72" font-family="Times,serif" font-size="14.00">OTHER</text>
</g>
<!-- 44425 -->
<g id="node17" class="node">
<title>44425</title>
<ellipse fill="none" stroke="black" cx="4378.71" cy="-348.02" rx="171.63" ry="171.63"/>
<text text-anchor="middle" x="4378.71" y="-342.97" font-family="Times,serif" font-size="14.00">What were the circumstances of the death?</text>
</g>
<!-- 44702&#45;&gt;44425 -->
<g id="edge34" class="edge">
<title>44702&#45;&gt;44425</title>
<path fill="none" stroke="black" d="M4136.99,-348.02C4155.95,-348.02 4175.64,-348.02 4195.21,-348.02"/>
<polygon fill="black" stroke="black" points="4195.2,-351.52 4205.2,-348.02 4195.2,-344.52 4195.2,-351.52"/>
<text text-anchor="middle" x="4171.84" y="-351.22" font-family="Times,serif" font-size="14.00">DATE</text>
</g>
<!-- 44702&#45;&gt;44425 -->
<g id="edge35" class="edge">
<title>44702&#45;&gt;44425</title>
<path fill="none" stroke="black" d="M4135.71,-328.97C4142.08,-328.41 4148.4,-327.92 4154.59,-327.52 4168.3,-326.63 4182.47,-326.38 4196.71,-326.6"/>
<polygon fill="black" stroke="black" points="4196.55,-330.1 4206.63,-326.84 4196.72,-323.1 4196.55,-330.1"/>
<text text-anchor="middle" x="4171.84" y="-330.72" font-family="Times,serif" font-size="14.00">TIME</text>
</g>
<!-- 44350 -->
<g id="node11" class="node">
<title>44350</title>
<ellipse fill="none" stroke="black" cx="6578.44" cy="-348.02" rx="108.16" ry="108.16"/>
<text text-anchor="middle" x="6578.44" y="-342.97" font-family="Times,serif" font-size="14.00">Has an inquest been held?</text>
</g>
<!-- 44350&#45;&gt;END_NODE -->
<g id="edge15" class="edge">
<title>44350&#45;&gt;END_NODE</title>
<path fill="none" stroke="black" d="M6678.16,-390.87C6700.73,-398.81 6724.91,-405.89 6748.1,-410.02 6873.66,-432.37 6907.86,-419.34 7035.05,-410.02 7095.87,-405.56 7120.68,-424.76 7170.8,-390.02 7187.78,-378.26 7199.68,-358.92 7207.68,-341"/>
<polygon fill="black" stroke="black" points="7210.9,-342.37 7211.48,-331.79 7204.43,-339.7 7210.9,-342.37"/>
<text text-anchor="middle" x="6891.58" y="-425.56" font-family="Times,serif" font-size="14.00">NO</text>
</g>
<!-- 44350&#45;&gt;44237 -->
<g id="edge14" class="edge">
<title>44350&#45;&gt;44237</title>
<path fill="none" stroke="black" d="M6682.61,-318.18C6701.8,-312.62 6722.2,-306.72 6742.43,-300.87"/>
<polygon fill="black" stroke="black" points="6743.22,-304.29 6751.86,-298.15 6741.28,-297.56 6743.22,-304.29"/>
<text text-anchor="middle" x="6717.35" y="-314.28" font-family="Times,serif" font-size="14.00">YES</text>
</g>
<!-- 44382 -->
<g id="node12" class="node">
<title>44382</title>
<ellipse fill="none" stroke="black" cx="5000.05" cy="-348.02" rx="218.71" ry="218.71"/>
<text text-anchor="middle" x="5000.05" y="-342.97" font-family="Times,serif" font-size="14.00">Is the death subject to a health and safety investigation?</text>
</g>
<!-- 44382&#45;&gt;44130 -->
<g id="edge16" class="edge">
<title>44382&#45;&gt;44130</title>
<path fill="none" stroke="black" d="M5219.19,-348.02C5236.53,-348.02 5253.36,-348.02 5268.98,-348.02"/>
<polygon fill="black" stroke="black" points="5268.61,-351.52 5278.61,-348.02 5268.61,-344.52 5268.61,-351.52"/>
<text text-anchor="middle" x="5249.52" y="-351.22" font-family="Times,serif" font-size="14.00">YES</text>
</g>
<!-- 44382&#45;&gt;44130 -->
<g id="edge17" class="edge">
<title>44382&#45;&gt;44130</title>
<path fill="none" stroke="black" d="M5217.79,-324.91C5232.85,-325.18 5247.79,-326 5262.27,-327.52 5264.96,-327.8 5267.69,-328.13 5270.44,-328.49"/>
<polygon fill="black" stroke="black" points="5269.93,-331.95 5280.33,-329.96 5270.95,-325.03 5269.93,-331.95"/>
<text text-anchor="middle" x="5249.52" y="-330.72" font-family="Times,serif" font-size="14.00">NO</text>
</g>
<!-- 44397 -->
<g id="node16" class="node">
<title>44397</title>
<ellipse fill="none" stroke="black" cx="6291.91" cy="-348.02" rx="116.86" ry="116.86"/>
<text text-anchor="middle" x="6291.91" y="-342.97" font-family="Times,serif" font-size="14.00">Has coroner been informed?</text>
</g>
<!-- 44645&#45;&gt;44397 -->
<g id="edge32" class="edge">
<title>44645&#45;&gt;44397</title>
<path fill="none" stroke="black" d="M6113.82,-348.02C6130.25,-348.02 6147.02,-348.02 6163.36,-348.02"/>
<polygon fill="black" stroke="black" points="6163.08,-351.52 6173.08,-348.02 6163.08,-344.52 6163.08,-351.52"/>
<text text-anchor="middle" x="6144.3" y="-351.22" font-family="Times,serif" font-size="14.00">YES</text>
</g>
<!-- 44645&#45;&gt;44397 -->
<g id="edge33" class="edge">
<title>44645&#45;&gt;44397</title>
<path fill="none" stroke="black" d="M6112.41,-327.14C6127.45,-326.41 6142.57,-326.42 6157.05,-327.52 6159.72,-327.72 6162.42,-327.95 6165.13,-328.19"/>
<polygon fill="black" stroke="black" points="6164.59,-331.66 6174.89,-329.16 6165.28,-324.69 6164.59,-331.66"/>
<text text-anchor="middle" x="6144.3" y="-330.72" font-family="Times,serif" font-size="14.00">NO</text>
</g>
<!-- 45031 -->
<g id="node15" class="node">
<title>45031</title>
<ellipse fill="none" stroke="black" cx="3204.99" cy="-348.02" rx="176.74" ry="176.74"/>
<text text-anchor="middle" x="3204.99" y="-342.97" font-family="Times,serif" font-size="14.00">Was the person taken to an outside hospital?</text>
</g>
<!-- 44395&#45;&gt;45031 -->
<g id="edge22" class="edge">
<title>44395&#45;&gt;45031</title>
<path fill="none" stroke="black" d="M2966.91,-348.02C2983,-348.02 2999.82,-348.02 3016.74,-348.02"/>
<polygon fill="black" stroke="black" points="3016.36,-351.52 3026.36,-348.02 3016.36,-344.52 3016.36,-351.52"/>
<text text-anchor="middle" x="2997.5" y="-351.22" font-family="Times,serif" font-size="14.00">YES</text>
</g>
<!-- 44395&#45;&gt;45031 -->
<g id="edge23" class="edge">
<title>44395&#45;&gt;45031</title>
<path fill="none" stroke="black" d="M2965.7,-329.23C2972.13,-328.57 2978.51,-327.98 2984.75,-327.52 2995.61,-326.71 3006.78,-326.34 3018.04,-326.31"/>
<polygon fill="black" stroke="black" points="3017.78,-329.81 3027.81,-326.38 3017.83,-322.81 3017.78,-329.81"/>
<text text-anchor="middle" x="2997.5" y="-330.72" font-family="Times,serif" font-size="14.00">NO</text>
</g>
<!-- 45031&#45;&gt;44248 -->
<g id="edge41" class="edge">
<title>45031&#45;&gt;44248</title>
<path fill="none" stroke="black" d="M3382.06,-348.02C3398.85,-348.02 3415.55,-348.02 3431.5,-348.02"/>
<polygon fill="black" stroke="black" points="3431.46,-351.52 3441.46,-348.02 3431.46,-344.52 3431.46,-351.52"/>
<text text-anchor="middle" x="3412.49" y="-351.22" font-family="Times,serif" font-size="14.00">YES</text>
</g>
<!-- 45031&#45;&gt;44248 -->
<g id="edge42" class="edge">
<title>45031&#45;&gt;44248</title>
<path fill="none" stroke="black" d="M3380.69,-326.05C3395.75,-325.86 3410.76,-326.28 3425.24,-327.52 3427.92,-327.75 3430.64,-328.01 3433.38,-328.29"/>
<polygon fill="black" stroke="black" points="3432.9,-331.76 3443.23,-329.42 3433.69,-324.8 3432.9,-331.76"/>
<text text-anchor="middle" x="3412.49" y="-330.72" font-family="Times,serif" font-size="14.00">NO</text>
</g>
<!-- 44397&#45;&gt;44350 -->
<g id="edge24" class="edge">
<title>44397&#45;&gt;44350</title>
<path fill="none" stroke="black" d="M6409.05,-348.02C6425.4,-348.02 6442.24,-348.02 6458.64,-348.02"/>
<polygon fill="black" stroke="black" points="6458.4,-351.52 6468.4,-348.02 6458.4,-344.52 6458.4,-351.52"/>
<text text-anchor="middle" x="6439.52" y="-351.22" font-family="Times,serif" font-size="14.00">YES</text>
</g>
<!-- 44397&#45;&gt;44350 -->
<g id="edge25" class="edge">
<title>44397&#45;&gt;44350</title>
<path fill="none" stroke="black" d="M6407.24,-327.5C6422.37,-326.49 6437.68,-326.33 6452.27,-327.52 6454.81,-327.73 6457.38,-327.96 6459.97,-328.21"/>
<polygon fill="black" stroke="black" points="6459.58,-331.69 6469.9,-329.27 6460.33,-324.73 6459.58,-331.69"/>
<text text-anchor="middle" x="6439.52" y="-330.72" font-family="Times,serif" font-size="14.00">NO</text>
</g>
<!-- 44425&#45;&gt;44382 -->
<g id="edge26" class="edge">
<title>44425&#45;&gt;44382</title>
<path fill="none" stroke="black" d="M4547.09,-383.54C4554.26,-384.49 4561.36,-385.32 4568.34,-386.02 4654.58,-394.62 4676.95,-392.94 4763.34,-386.02 4766.43,-385.77 4769.54,-385.51 4772.67,-385.23"/>
<polygon fill="black" stroke="black" points="4772.93,-388.72 4782.55,-384.28 4772.26,-381.75 4772.93,-388.72"/>
<text text-anchor="middle" x="4665.84" y="-395.06" font-family="Times,serif" font-size="14.00">APPARENT SELF INFLICTED</text>
</g>
<!-- 44425&#45;&gt;44382 -->
<g id="edge27" class="edge">
<title>44425&#45;&gt;44382</title>
<path fill="none" stroke="black" d="M4550.59,-348.02C4618.36,-348.02 4697.32,-348.02 4769.93,-348.02"/>
<polygon fill="black" stroke="black" points="4769.54,-351.52 4779.54,-348.02 4769.54,-344.52 4769.54,-351.52"/>
<text text-anchor="middle" x="4665.84" y="-351.22" font-family="Times,serif" font-size="14.00">APPARENT NATURAL CAUSES</text>
</g>
<!-- 44425&#45;&gt;44382 -->
<g id="edge28" class="edge">
<title>44425&#45;&gt;44382</title>
<path fill="none" stroke="black" d="M4549.56,-328.69C4555.9,-328.25 4562.17,-327.85 4568.34,-327.52 4654.88,-322.83 4676.76,-323.76 4763.34,-327.52 4765.71,-327.62 4768.08,-327.73 4770.47,-327.84"/>
<polygon fill="black" stroke="black" points="4770.05,-331.33 4780.21,-328.34 4770.4,-324.34 4770.05,-331.33"/>
<text text-anchor="middle" x="4665.84" y="-330.72" font-family="Times,serif" font-size="14.00">ACCIDENTAL</text>
</g>
<!-- 44425&#45;&gt;44382 -->
<g id="edge29" class="edge">
<title>44425&#45;&gt;44382</title>
<path fill="none" stroke="black" d="M4545.71,-306.63C4553.34,-305.44 4560.9,-304.39 4568.34,-303.52 4654.43,-293.5 4677.05,-295.45 4763.34,-303.52 4766.81,-303.84 4770.29,-304.19 4773.8,-304.57"/>
<polygon fill="black" stroke="black" points="4773.24,-308.03 4783.57,-305.67 4774.02,-301.07 4773.24,-308.03"/>
<text text-anchor="middle" x="4665.84" y="-306.72" font-family="Times,serif" font-size="14.00">SUSPICIOUS CIRCUMSTANCES</text>
</g>
<!-- 44434&#45;&gt;44839 -->
<g id="edge30" class="edge">
<title>44434&#45;&gt;44839</title>
<path fill="none" stroke="black" d="M912.97,-371.09C929.87,-369.66 947.01,-368.22 964.06,-366.78"/>
<polygon fill="black" stroke="black" points="964.06,-370.29 973.73,-365.96 963.48,-363.31 964.06,-370.29"/>
<text text-anchor="middle" x="944.21" y="-372.42" font-family="Times,serif" font-size="14.00">YES</text>
</g>
<!-- 44434&#45;&gt;44839 -->
<g id="edge31" class="edge">
<title>44434&#45;&gt;44839</title>
<path fill="none" stroke="black" d="M910.07,-349.78C917.27,-348.92 924.42,-348.16 931.46,-347.52 941.85,-346.57 952.49,-345.8 963.25,-345.18"/>
<polygon fill="black" stroke="black" points="963.17,-348.69 972.98,-344.67 962.81,-341.7 963.17,-348.69"/>
<text text-anchor="middle" x="944.21" y="-350.72" font-family="Times,serif" font-size="14.00">NO</text>
</g>
<!-- 44748 -->
<g id="node20" class="node">
<title>44748</title>
<ellipse fill="none" stroke="black" cx="1633.23" cy="-348.02" rx="171.63" ry="171.63"/>
<text text-anchor="middle" x="1633.23" y="-342.97" font-family="Times,serif" font-size="14.00">Is there any media interest in this incident?</text>
</g>
<!-- 44839&#45;&gt;44748 -->
<g id="edge39" class="edge">
<title>44839&#45;&gt;44748</title>
<path fill="none" stroke="black" d="M1400.31,-348.02C1416.89,-348.02 1433.54,-348.02 1449.9,-348.02"/>
<polygon fill="black" stroke="black" points="1449.66,-351.52 1459.66,-348.02 1449.66,-344.52 1449.66,-351.52"/>
<text text-anchor="middle" x="1430.85" y="-351.22" font-family="Times,serif" font-size="14.00">YES</text>
</g>
<!-- 44839&#45;&gt;44748 -->
<g id="edge40" class="edge">
<title>44839&#45;&gt;44748</title>
<path fill="none" stroke="black" d="M1399.35,-326.64C1414.32,-326.49 1429.18,-326.74 1443.6,-327.52 1446.11,-327.66 1448.63,-327.8 1451.17,-327.96"/>
<polygon fill="black" stroke="black" points="1450.66,-331.43 1460.87,-328.6 1451.12,-324.45 1450.66,-331.43"/>
<text text-anchor="middle" x="1430.85" y="-330.72" font-family="Times,serif" font-size="14.00">NO</text>
</g>
<!-- 44748&#45;&gt;44142 -->
<g id="edge36" class="edge">
<title>44748&#45;&gt;44142</title>
<path fill="none" stroke="black" d="M1805.15,-348.02C1821.38,-348.02 1837.96,-348.02 1854.5,-348.02"/>
<polygon fill="black" stroke="black" points="1854.43,-351.52 1864.43,-348.02 1854.43,-344.52 1854.43,-351.52"/>
<text text-anchor="middle" x="1835.6" y="-351.22" font-family="Times,serif" font-size="14.00">YES</text>
</g>
<!-- 44748&#45;&gt;44142 -->
<g id="edge37" class="edge">
<title>44748&#45;&gt;44142</title>
<path fill="none" stroke="black" d="M1804.08,-328.69C1810.41,-328.25 1816.69,-327.85 1822.85,-327.52 1833.68,-326.93 1844.78,-326.67 1855.97,-326.67"/>
<polygon fill="black" stroke="black" points="1855.66,-330.17 1865.69,-326.75 1855.71,-323.17 1855.66,-330.17"/>
<text text-anchor="middle" x="1835.6" y="-330.72" font-family="Times,serif" font-size="14.00">NO</text>
</g>
</g>
</svg>
