<?xml version="1.0" encoding="UTF-8" standalone="no"?>
<!DOCTYPE svg PUBLIC "-//W3C//DTD SVG 1.1//EN"
 "http://www.w3.org/Graphics/SVG/1.1/DTD/svg11.dtd">
<!-- Generated by graphviz version 12.1.1 (20240910.0053)
 -->
<!-- Title: DEATH_OTHER Pages: 1 -->
<svg width="6992pt" height="598pt"
 viewBox="0.00 0.00 6992.26 598.35" xmlns="http://www.w3.org/2000/svg" xmlns:xlink="http://www.w3.org/1999/xlink">
<g id="graph0" class="graph" transform="scale(1 1) rotate(0) translate(4 594.35)">
<title>DEATH_OTHER</title>
<polygon fill="white" stroke="none" points="-4,4 -4,-594.35 6988.26,-594.35 6988.26,4 -4,4"/>
<!-- START_NODE -->
<g id="node1" class="node">
<title>START_NODE</title>
</g>
<!-- 45054 -->
<g id="node2" class="node">
<title>45054</title>
<ellipse fill="none" stroke="black" cx="280.27" cy="-167.02" rx="167.02" ry="167.02"/>
<text text-anchor="middle" x="280.27" y="-161.97" font-family="Times,serif" font-size="14.00">Were the police informed of the incident?</text>
</g>
<!-- START_NODE&#45;&gt;45054 -->
<g id="edge1" class="edge">
<title>START_NODE&#45;&gt;45054</title>
<path fill="none" stroke="black" d="M53.94,-167.02C66.67,-167.02 83.21,-167.02 101.55,-167.02"/>
<polygon fill="black" stroke="black" points="101.34,-170.52 111.34,-167.02 101.34,-163.52 101.34,-170.52"/>
<text text-anchor="middle" x="83.62" y="-170.22" font-family="Times,serif" font-size="14.00">start</text>
</g>
<!-- 44434 -->
<g id="node18" class="node">
<title>44434</title>
<ellipse fill="none" stroke="black" cx="705.87" cy="-388.02" rx="202.33" ry="202.33"/>
<text text-anchor="middle" x="705.87" y="-382.97" font-family="Times,serif" font-size="14.00">Is the incident the subject of a police investigation?</text>
</g>
<!-- 45054&#45;&gt;44434 -->
<g id="edge43" class="edge">
<title>45054&#45;&gt;44434</title>
<path fill="none" stroke="black" d="M428.83,-244C457.04,-258.72 486.93,-274.32 516.22,-289.6"/>
<polygon fill="black" stroke="black" points="514.3,-292.54 524.79,-294.07 517.54,-286.34 514.3,-292.54"/>
<text text-anchor="middle" x="475.42" y="-274.09" font-family="Times,serif" font-size="14.00">Yes</text>
</g>
<!-- 44839 -->
<g id="node19" class="node">
<title>44839</title>
<ellipse fill="none" stroke="black" cx="1177.03" cy="-348.02" rx="212.57" ry="212.57"/>
<text text-anchor="middle" x="1177.03" y="-342.97" font-family="Times,serif" font-size="14.00">Is the incident the subject of an internal investigation?</text>
</g>
<!-- 45054&#45;&gt;44839 -->
<g id="edge44" class="edge">
<title>45054&#45;&gt;44839</title>
<path fill="none" stroke="black" d="M445.1,-137.98C574.04,-121.57 756.64,-112.74 908.21,-160.52 941.18,-170.91 973.62,-186.98 1003.92,-205.42"/>
<polygon fill="black" stroke="black" points="1002.06,-208.38 1012.4,-210.69 1005.75,-202.44 1002.06,-208.38"/>
<text text-anchor="middle" x="705.87" y="-163.72" font-family="Times,serif" font-size="14.00">No</text>
</g>
<!-- END_NODE -->
<g id="node3" class="node">
<title>END_NODE</title>
<ellipse fill="none" stroke="black" cx="6950.41" cy="-298.02" rx="29.86" ry="29.86"/>
<ellipse fill="none" stroke="black" cx="6950.41" cy="-298.02" rx="33.86" ry="33.86"/>
<text text-anchor="middle" x="6950.41" y="-292.97" font-family="Times,serif" font-size="14.00">END</text>
</g>
<!-- 44130 -->
<g id="node4" class="node">
<title>44130</title>
<ellipse fill="none" stroke="black" cx="5193.27" cy="-348.02" rx="79.5" ry="79.5"/>
<text text-anchor="middle" x="5193.27" y="-342.97" font-family="Times,serif" font-size="14.00">Name of deceased</text>
</g>
<!-- 44392 -->
<g id="node5" class="node">
<title>44392</title>
<ellipse fill="none" stroke="black" cx="5421.27" cy="-348.02" rx="79.5" ry="79.5"/>
<text text-anchor="middle" x="5421.27" y="-342.97" font-family="Times,serif" font-size="14.00">Status of deceased</text>
</g>
<!-- 44130&#45;&gt;44392 -->
<g id="edge2" class="edge">
<title>44130&#45;&gt;44392</title>
<path fill="none" stroke="black" d="M5272.99,-348.02C5291.44,-348.02 5311.23,-348.02 5330.12,-348.02"/>
<polygon fill="black" stroke="black" points="5329.93,-351.52 5339.93,-348.02 5329.93,-344.52 5329.93,-351.52"/>
<text text-anchor="middle" x="5307.27" y="-351.22" font-family="Times,serif" font-size="14.00">Name</text>
</g>
<!-- 44645 -->
<g id="node13" class="node">
<title>44645</title>
<ellipse fill="none" stroke="black" cx="5761.03" cy="-348.02" rx="134.26" ry="134.26"/>
<text text-anchor="middle" x="5761.03" y="-342.97" font-family="Times,serif" font-size="14.00">Have next of kin been informed?</text>
</g>
<!-- 44392&#45;&gt;44645 -->
<g id="edge18" class="edge">
<title>44392&#45;&gt;44645</title>
<path fill="none" stroke="black" d="M5494.65,-379.83C5502.67,-382.36 5510.81,-384.51 5518.77,-386.02 5551.52,-392.24 5586.91,-391.05 5620.22,-386.42"/>
<polygon fill="black" stroke="black" points="5620.57,-389.91 5629.94,-384.95 5619.53,-382.99 5620.57,-389.91"/>
<text text-anchor="middle" x="5563.77" y="-393.48" font-family="Times,serif" font-size="14.00">Officer</text>
</g>
<!-- 44392&#45;&gt;44645 -->
<g id="edge19" class="edge">
<title>44392&#45;&gt;44645</title>
<path fill="none" stroke="black" d="M5501.03,-348.02C5535.08,-348.02 5576.04,-348.02 5615.24,-348.02"/>
<polygon fill="black" stroke="black" points="5615,-351.52 5625,-348.02 5615,-344.52 5615,-351.52"/>
<text text-anchor="middle" x="5563.77" y="-351.22" font-family="Times,serif" font-size="14.00">Civilian staff</text>
</g>
<!-- 44392&#45;&gt;44645 -->
<g id="edge20" class="edge">
<title>44392&#45;&gt;44645</title>
<path fill="none" stroke="black" d="M5499.2,-330.18C5505.79,-329.11 5512.38,-328.19 5518.77,-327.52 5550.37,-324.2 5584.34,-324.63 5616.53,-326.88"/>
<polygon fill="black" stroke="black" points="5616.09,-330.36 5626.33,-327.63 5616.63,-323.38 5616.09,-330.36"/>
<text text-anchor="middle" x="5563.77" y="-330.72" font-family="Times,serif" font-size="14.00">External civilian</text>
</g>
<!-- 44392&#45;&gt;44645 -->
<g id="edge21" class="edge">
<title>44392&#45;&gt;44645</title>
<path fill="none" stroke="black" d="M5492.78,-312.21C5501.36,-309.06 5510.15,-306.37 5518.77,-304.52 5552.09,-297.36 5588.18,-298.93 5622.03,-304.48"/>
<polygon fill="black" stroke="black" points="5620.99,-307.85 5631.45,-306.15 5622.22,-300.96 5620.99,-307.85"/>
<text text-anchor="middle" x="5563.77" y="-307.72" font-family="Times,serif" font-size="14.00">Other</text>
</g>
<!-- 44142 -->
<g id="node6" class="node">
<title>44142</title>
<ellipse fill="none" stroke="black" cx="2045.13" cy="-348.02" rx="199.78" ry="199.78"/>
<text text-anchor="middle" x="2045.13" y="-342.97" font-family="Times,serif" font-size="14.00">Has the prison service press office been informed?</text>
</g>
<!-- 44751 -->
<g id="node7" class="node">
<title>44751</title>
<ellipse fill="none" stroke="black" cx="2455.89" cy="-348.02" rx="154.74" ry="154.74"/>
<text text-anchor="middle" x="2455.89" y="-342.97" font-family="Times,serif" font-size="14.00">What was the location of the incident?</text>
</g>
<!-- 44142&#45;&gt;44751 -->
<g id="edge3" class="edge">
<title>44142&#45;&gt;44751</title>
<path fill="none" stroke="black" d="M2245.12,-348.02C2260.01,-348.02 2274.93,-348.02 2289.58,-348.02"/>
<polygon fill="black" stroke="black" points="2289.2,-351.52 2299.2,-348.02 2289.2,-344.52 2289.2,-351.52"/>
<text text-anchor="middle" x="2273.03" y="-351.22" font-family="Times,serif" font-size="14.00">Yes</text>
</g>
<!-- 44142&#45;&gt;44751 -->
<g id="edge4" class="edge">
<title>44142&#45;&gt;44751</title>
<path fill="none" stroke="black" d="M2243.95,-326.59C2257.21,-326.48 2270.37,-326.76 2283.16,-327.52 2285.56,-327.66 2287.97,-327.82 2290.41,-327.98"/>
<polygon fill="black" stroke="black" points="2290.14,-331.47 2300.37,-328.71 2290.66,-324.49 2290.14,-331.47"/>
<text text-anchor="middle" x="2273.03" y="-330.72" font-family="Times,serif" font-size="14.00">No</text>
</g>
<!-- 44395 -->
<g id="node14" class="node">
<title>44395</title>
<ellipse fill="none" stroke="black" cx="2807.81" cy="-348.02" rx="119.93" ry="119.93"/>
<text text-anchor="middle" x="2807.81" y="-342.97" font-family="Times,serif" font-size="14.00">Was resuscitation attempted?</text>
</g>
<!-- 44751&#45;&gt;44395 -->
<g id="edge38" class="edge">
<title>44751&#45;&gt;44395</title>
<path fill="none" stroke="black" d="M2610.88,-348.02C2632.64,-348.02 2654.84,-348.02 2676.1,-348.02"/>
<polygon fill="black" stroke="black" points="2675.96,-351.52 2685.96,-348.02 2675.96,-344.52 2675.96,-351.52"/>
<text text-anchor="middle" x="2649.25" y="-351.22" font-family="Times,serif" font-size="14.00">Specify</text>
</g>
<!-- 44237 -->
<g id="node8" class="node">
<title>44237</title>
<ellipse fill="none" stroke="black" cx="6657.58" cy="-258.02" rx="143.48" ry="143.48"/>
<text text-anchor="middle" x="6657.58" y="-252.97" font-family="Times,serif" font-size="14.00">What verdict did the inquest reach?</text>
</g>
<!-- 44237&#45;&gt;END_NODE -->
<g id="edge5" class="edge">
<title>44237&#45;&gt;END_NODE</title>
<path fill="none" stroke="black" d="M6776.19,-339.46C6790.15,-346.19 6804.6,-351.96 6819.05,-356.02 6853.07,-365.58 6866.37,-370.6 6898.55,-356.02 6908.6,-351.47 6917.45,-343.84 6924.83,-335.58"/>
<polygon fill="black" stroke="black" points="6927.39,-337.98 6931.02,-328.03 6921.97,-333.55 6927.39,-337.98"/>
<text text-anchor="middle" x="6858.8" y="-368.37" font-family="Times,serif" font-size="14.00">Natural causes</text>
</g>
<!-- 44237&#45;&gt;END_NODE -->
<g id="edge6" class="edge">
<title>44237&#45;&gt;END_NODE</title>
<path fill="none" stroke="black" d="M6791.6,-310C6800.8,-312.38 6810.01,-314.44 6819.05,-316.02 6853.86,-322.12 6863.73,-322 6898.55,-316.02 6901.56,-315.5 6904.63,-314.83 6907.7,-314.04"/>
<polygon fill="black" stroke="black" points="6908.62,-317.41 6917.21,-311.21 6906.62,-310.7 6908.62,-317.41"/>
<text text-anchor="middle" x="6858.8" y="-323.75" font-family="Times,serif" font-size="14.00">Suicide</text>
</g>
<!-- 44237&#45;&gt;END_NODE -->
<g id="edge7" class="edge">
<title>44237&#45;&gt;END_NODE</title>
<path fill="none" stroke="black" d="M6800.16,-277.49C6838.37,-282.75 6876.94,-288.05 6905.3,-291.95"/>
<polygon fill="black" stroke="black" points="6904.53,-295.38 6914.91,-293.28 6905.48,-288.45 6904.53,-295.38"/>
<text text-anchor="middle" x="6858.8" y="-293.57" font-family="Times,serif" font-size="14.00">Accidental</text>
</g>
<!-- 44237&#45;&gt;END_NODE -->
<g id="edge8" class="edge">
<title>44237&#45;&gt;END_NODE</title>
<path fill="none" stroke="black" d="M6800.66,-244.04C6833.48,-244.86 6867.78,-249.08 6898.55,-259.52 6904.73,-261.62 6910.76,-264.79 6916.38,-268.43"/>
<polygon fill="black" stroke="black" points="6914.01,-271.04 6924.18,-274.01 6918.09,-265.35 6914.01,-271.04"/>
<text text-anchor="middle" x="6858.8" y="-262.72" font-family="Times,serif" font-size="14.00">Misadventure</text>
</g>
<!-- 44237&#45;&gt;END_NODE -->
<g id="edge9" class="edge">
<title>44237&#45;&gt;END_NODE</title>
<path fill="none" stroke="black" d="M6793.42,-211.06C6829.13,-206.01 6866.6,-207.77 6898.55,-224.52 6912.13,-231.64 6922.81,-244.21 6930.79,-256.97"/>
<polygon fill="black" stroke="black" points="6927.6,-258.44 6935.63,-265.36 6933.67,-254.95 6927.6,-258.44"/>
<text text-anchor="middle" x="6858.8" y="-227.72" font-family="Times,serif" font-size="14.00">Open verdict</text>
</g>
<!-- 44237&#45;&gt;END_NODE -->
<g id="edge10" class="edge">
<title>44237&#45;&gt;END_NODE</title>
<path fill="none" stroke="black" d="M6781.18,-184.37C6820.71,-170.32 6863.36,-166.06 6898.55,-188.52 6920.97,-202.83 6933.66,-229.86 6940.76,-253.48"/>
<polygon fill="black" stroke="black" points="6937.33,-254.2 6943.33,-262.93 6944.08,-252.36 6937.33,-254.2"/>
<text text-anchor="middle" x="6858.8" y="-191.72" font-family="Times,serif" font-size="14.00">Other</text>
</g>
<!-- 44248 -->
<g id="node9" class="node">
<title>44248</title>
<ellipse fill="none" stroke="black" cx="3495.76" cy="-348.02" rx="102.02" ry="102.02"/>
<text text-anchor="middle" x="3495.76" y="-342.97" font-family="Times,serif" font-size="14.00">Who pronounced death?</text>
</g>
<!-- 44702 -->
<g id="node10" class="node">
<title>44702</title>
<ellipse fill="none" stroke="black" cx="3895.68" cy="-348.02" rx="140.41" ry="140.41"/>
<text text-anchor="middle" x="3895.68" y="-342.97" font-family="Times,serif" font-size="14.00">What time was death pronounced?</text>
</g>
<!-- 44248&#45;&gt;44702 -->
<g id="edge11" class="edge">
<title>44248&#45;&gt;44702</title>
<path fill="none" stroke="black" d="M3596.96,-364.27C3603.32,-364.96 3609.63,-365.56 3615.78,-366.02 3669.62,-370.07 3683.36,-369.09 3737.28,-366.02 3739.79,-365.88 3742.32,-365.72 3744.87,-365.55"/>
<polygon fill="black" stroke="black" points="3744.9,-369.06 3754.62,-364.86 3744.4,-362.08 3744.9,-369.06"/>
<text text-anchor="middle" x="3676.53" y="-371.9" font-family="Times,serif" font-size="14.00">Prison medical officer</text>
</g>
<!-- 44248&#45;&gt;44702 -->
<g id="edge12" class="edge">
<title>44248&#45;&gt;44702</title>
<path fill="none" stroke="black" d="M3598.05,-345.75C3604.04,-345.66 3609.99,-345.58 3615.78,-345.52 3669.77,-344.95 3683.28,-345.09 3737.28,-345.52 3739.48,-345.54 3741.7,-345.56 3743.94,-345.58"/>
<polygon fill="black" stroke="black" points="3743.66,-349.07 3753.7,-345.67 3743.73,-342.07 3743.66,-349.07"/>
<text text-anchor="middle" x="3676.53" y="-348.72" font-family="Times,serif" font-size="14.00">Hospital doctor</text>
</g>
<!-- 44248&#45;&gt;44702 -->
<g id="edge13" class="edge">
<title>44248&#45;&gt;44702</title>
<path fill="none" stroke="black" d="M3595.9,-326.94C3602.61,-325.98 3609.28,-325.16 3615.78,-324.52 3669.52,-319.27 3683.42,-320.52 3737.28,-324.52 3739.95,-324.72 3742.65,-324.94 3745.36,-325.17"/>
<polygon fill="black" stroke="black" points="3744.82,-328.63 3755.1,-326.08 3745.47,-321.66 3744.82,-328.63"/>
<text text-anchor="middle" x="3676.53" y="-327.72" font-family="Times,serif" font-size="14.00">Other</text>
</g>
<!-- 44425 -->
<g id="node17" class="node">
<title>44425</title>
<ellipse fill="none" stroke="black" cx="4272.96" cy="-348.02" rx="171.63" ry="171.63"/>
<text text-anchor="middle" x="4272.96" y="-342.97" font-family="Times,serif" font-size="14.00">What were the circumstances of the death?</text>
</g>
<!-- 44702&#45;&gt;44425 -->
<g id="edge34" class="edge">
<title>44702&#45;&gt;44425</title>
<path fill="none" stroke="black" d="M4036.42,-348.02C4053.77,-348.02 4071.7,-348.02 4089.57,-348.02"/>
<polygon fill="black" stroke="black" points="4089.48,-351.52 4099.48,-348.02 4089.48,-344.52 4089.48,-351.52"/>
<text text-anchor="middle" x="4068.71" y="-351.22" font-family="Times,serif" font-size="14.00">Date</text>
</g>
<!-- 44702&#45;&gt;44425 -->
<g id="edge35" class="edge">
<title>44702&#45;&gt;44425</title>
<path fill="none" stroke="black" d="M4035.21,-328.97C4041.58,-328.41 4047.9,-327.92 4054.09,-327.52 4066.06,-326.74 4078.4,-326.47 4090.82,-326.59"/>
<polygon fill="black" stroke="black" points="4090.67,-330.09 4100.74,-326.78 4090.81,-323.09 4090.67,-330.09"/>
<text text-anchor="middle" x="4068.71" y="-330.72" font-family="Times,serif" font-size="14.00">Time</text>
</g>
<!-- 44350 -->
<g id="node11" class="node">
<title>44350</title>
<ellipse fill="none" stroke="black" cx="6349.69" cy="-348.02" rx="108.16" ry="108.16"/>
<text text-anchor="middle" x="6349.69" y="-342.97" font-family="Times,serif" font-size="14.00">Has an inquest been held?</text>
</g>
<!-- 44350&#45;&gt;END_NODE -->
<g id="edge15" class="edge">
<title>44350&#45;&gt;END_NODE</title>
<path fill="none" stroke="black" d="M6448.85,-391.8C6469.97,-399.36 6492.46,-406.05 6514.1,-410.02 6639.54,-433.02 6674.44,-425.37 6801.05,-410.02 6845.35,-404.65 6862.87,-412.82 6898.55,-386.02 6913.98,-374.44 6925.5,-356.7 6933.64,-340.18"/>
<polygon fill="black" stroke="black" points="6936.64,-342.04 6937.65,-331.49 6930.28,-339.11 6936.64,-342.04"/>
<text text-anchor="middle" x="6657.58" y="-427.74" font-family="Times,serif" font-size="14.00">No</text>
</g>
<!-- 44350&#45;&gt;44237 -->
<g id="edge14" class="edge">
<title>44350&#45;&gt;44237</title>
<path fill="none" stroke="black" d="M6453.82,-317.68C6471.44,-312.49 6490.04,-307.02 6508.55,-301.57"/>
<polygon fill="black" stroke="black" points="6509.37,-304.98 6517.98,-298.8 6507.4,-298.26 6509.37,-304.98"/>
<text text-anchor="middle" x="6485.97" y="-314.28" font-family="Times,serif" font-size="14.00">Yes</text>
</g>
<!-- 44382 -->
<g id="node12" class="node">
<title>44382</title>
<ellipse fill="none" stroke="black" cx="4838.8" cy="-348.02" rx="218.71" ry="218.71"/>
<text text-anchor="middle" x="4838.8" y="-342.97" font-family="Times,serif" font-size="14.00">Is the death subject to a health and safety investigation?</text>
</g>
<!-- 44382&#45;&gt;44130 -->
<g id="edge16" class="edge">
<title>44382&#45;&gt;44130</title>
<path fill="none" stroke="black" d="M5058.01,-348.02C5073.3,-348.02 5088.15,-348.02 5102.05,-348.02"/>
<polygon fill="black" stroke="black" points="5101.98,-351.52 5111.98,-348.02 5101.98,-344.52 5101.98,-351.52"/>
<text text-anchor="middle" x="5085.64" y="-351.22" font-family="Times,serif" font-size="14.00">Yes</text>
</g>
<!-- 44382&#45;&gt;44130 -->
<g id="edge17" class="edge">
<title>44382&#45;&gt;44130</title>
<path fill="none" stroke="black" d="M5056.67,-325.07C5069.91,-325.4 5083.02,-326.18 5095.77,-327.52 5098.46,-327.8 5101.19,-328.13 5103.94,-328.49"/>
<polygon fill="black" stroke="black" points="5103.43,-331.95 5113.83,-329.96 5104.45,-325.03 5103.43,-331.95"/>
<text text-anchor="middle" x="5085.64" y="-330.72" font-family="Times,serif" font-size="14.00">No</text>
</g>
<!-- 44397 -->
<g id="node16" class="node">
<title>44397</title>
<ellipse fill="none" stroke="black" cx="6068.41" cy="-348.02" rx="116.86" ry="116.86"/>
<text text-anchor="middle" x="6068.41" y="-342.97" font-family="Times,serif" font-size="14.00">Has coroner been informed?</text>
</g>
<!-- 44645&#45;&gt;44397 -->
<g id="edge32" class="edge">
<title>44645&#45;&gt;44397</title>
<path fill="none" stroke="black" d="M5895.53,-348.02C5910.37,-348.02 5925.45,-348.02 5940.2,-348.02"/>
<polygon fill="black" stroke="black" points="5939.9,-351.52 5949.9,-348.02 5939.9,-344.52 5939.9,-351.52"/>
<text text-anchor="middle" x="5923.42" y="-351.22" font-family="Times,serif" font-size="14.00">Yes</text>
</g>
<!-- 44645&#45;&gt;44397 -->
<g id="edge33" class="edge">
<title>44645&#45;&gt;44397</title>
<path fill="none" stroke="black" d="M5893.95,-327.03C5907.31,-326.47 5920.69,-326.54 5933.55,-327.52 5936.22,-327.72 5938.92,-327.95 5941.63,-328.19"/>
<polygon fill="black" stroke="black" points="5941.09,-331.66 5951.39,-329.16 5941.78,-324.69 5941.09,-331.66"/>
<text text-anchor="middle" x="5923.42" y="-330.72" font-family="Times,serif" font-size="14.00">No</text>
</g>
<!-- 45031 -->
<g id="node15" class="node">
<title>45031</title>
<ellipse fill="none" stroke="black" cx="3160.74" cy="-348.02" rx="176.74" ry="176.74"/>
<text text-anchor="middle" x="3160.74" y="-342.97" font-family="Times,serif" font-size="14.00">Was the person taken to an outside hospital?</text>
</g>
<!-- 44395&#45;&gt;45031 -->
<g id="edge22" class="edge">
<title>44395&#45;&gt;45031</title>
<path fill="none" stroke="black" d="M2928.11,-348.02C2942.36,-348.02 2957.16,-348.02 2972.09,-348.02"/>
<polygon fill="black" stroke="black" points="2972,-351.52 2982,-348.02 2972,-344.52 2972,-351.52"/>
<text text-anchor="middle" x="2955.87" y="-351.22" font-family="Times,serif" font-size="14.00">Yes</text>
</g>
<!-- 44395&#45;&gt;45031 -->
<g id="edge23" class="edge">
<title>44395&#45;&gt;45031</title>
<path fill="none" stroke="black" d="M2926.7,-329.23C2933.13,-328.57 2939.51,-327.98 2945.75,-327.52 2954.81,-326.85 2964.08,-326.48 2973.45,-326.38"/>
<polygon fill="black" stroke="black" points="2973.39,-329.88 2983.39,-326.39 2973.39,-322.88 2973.39,-329.88"/>
<text text-anchor="middle" x="2955.87" y="-330.72" font-family="Times,serif" font-size="14.00">No</text>
</g>
<!-- 45031&#45;&gt;44248 -->
<g id="edge41" class="edge">
<title>45031&#45;&gt;44248</title>
<path fill="none" stroke="black" d="M3337.51,-348.02C3352.56,-348.02 3367.51,-348.02 3381.87,-348.02"/>
<polygon fill="black" stroke="black" points="3381.73,-351.52 3391.73,-348.02 3381.73,-344.52 3381.73,-351.52"/>
<text text-anchor="middle" x="3365.61" y="-351.22" font-family="Times,serif" font-size="14.00">Yes</text>
</g>
<!-- 45031&#45;&gt;44248 -->
<g id="edge42" class="edge">
<title>45031&#45;&gt;44248</title>
<path fill="none" stroke="black" d="M3336.6,-326.07C3349.84,-326 3363,-326.43 3375.74,-327.52 3378.42,-327.75 3381.14,-328.01 3383.88,-328.29"/>
<polygon fill="black" stroke="black" points="3383.4,-331.76 3393.73,-329.42 3384.19,-324.8 3383.4,-331.76"/>
<text text-anchor="middle" x="3365.61" y="-330.72" font-family="Times,serif" font-size="14.00">No</text>
</g>
<!-- 44397&#45;&gt;44350 -->
<g id="edge24" class="edge">
<title>44397&#45;&gt;44350</title>
<path fill="none" stroke="black" d="M6185.42,-348.02C6200.11,-348.02 6215.16,-348.02 6229.89,-348.02"/>
<polygon fill="black" stroke="black" points="6229.57,-351.52 6239.57,-348.02 6229.57,-344.52 6229.57,-351.52"/>
<text text-anchor="middle" x="6213.4" y="-351.22" font-family="Times,serif" font-size="14.00">Yes</text>
</g>
<!-- 44397&#45;&gt;44350 -->
<g id="edge25" class="edge">
<title>44397&#45;&gt;44350</title>
<path fill="none" stroke="black" d="M6183.73,-327.33C6197.12,-326.53 6210.61,-326.47 6223.52,-327.52 6226.06,-327.73 6228.63,-327.96 6231.22,-328.21"/>
<polygon fill="black" stroke="black" points="6230.83,-331.69 6241.15,-329.27 6231.58,-324.73 6230.83,-331.69"/>
<text text-anchor="middle" x="6213.4" y="-330.72" font-family="Times,serif" font-size="14.00">No</text>
</g>
<!-- 44425&#45;&gt;44382 -->
<g id="edge26" class="edge">
<title>44425&#45;&gt;44382</title>
<path fill="none" stroke="black" d="M4441.34,-383.54C4448.51,-384.49 4455.61,-385.32 4462.59,-386.02 4510.79,-390.83 4562.48,-389.68 4611.6,-385.62"/>
<polygon fill="black" stroke="black" points="4611.86,-389.11 4621.52,-384.75 4611.25,-382.14 4611.86,-389.11"/>
<text text-anchor="middle" x="4532.34" y="-392.36" font-family="Times,serif" font-size="14.00">Apparent self inflicted</text>
</g>
<!-- 44425&#45;&gt;44382 -->
<g id="edge27" class="edge">
<title>44425&#45;&gt;44382</title>
<path fill="none" stroke="black" d="M4445.05,-348.02C4496.51,-348.02 4553.84,-348.02 4608.43,-348.02"/>
<polygon fill="black" stroke="black" points="4608.16,-351.52 4618.16,-348.02 4608.16,-344.52 4608.16,-351.52"/>
<text text-anchor="middle" x="4532.34" y="-351.22" font-family="Times,serif" font-size="14.00">Apparent natural causes</text>
</g>
<!-- 44425&#45;&gt;44382 -->
<g id="edge28" class="edge">
<title>44425&#45;&gt;44382</title>
<path fill="none" stroke="black" d="M4443.81,-328.69C4450.15,-328.25 4456.42,-327.85 4462.59,-327.52 4510.03,-324.95 4560.85,-325.5 4609.28,-327.61"/>
<polygon fill="black" stroke="black" points="4608.89,-331.09 4619.04,-328.06 4609.21,-324.1 4608.89,-331.09"/>
<text text-anchor="middle" x="4532.34" y="-330.72" font-family="Times,serif" font-size="14.00">Accidental</text>
</g>
<!-- 44425&#45;&gt;44382 -->
<g id="edge29" class="edge">
<title>44425&#45;&gt;44382</title>
<path fill="none" stroke="black" d="M4440.25,-308.45C4447.78,-307.33 4455.25,-306.34 4462.59,-305.52 4511.05,-300.13 4563.02,-301.46 4612.38,-306.06"/>
<polygon fill="black" stroke="black" points="4611.72,-309.51 4622.02,-307.01 4612.41,-302.54 4611.72,-309.51"/>
<text text-anchor="middle" x="4532.34" y="-308.72" font-family="Times,serif" font-size="14.00">Suspicious circumstances</text>
</g>
<!-- 44434&#45;&gt;44839 -->
<g id="edge30" class="edge">
<title>44434&#45;&gt;44839</title>
<path fill="none" stroke="black" d="M907.88,-370.88C923.09,-369.59 938.49,-368.27 953.82,-366.97"/>
<polygon fill="black" stroke="black" points="953.8,-370.48 963.46,-366.14 953.2,-363.51 953.8,-370.48"/>
<text text-anchor="middle" x="936.33" y="-372.42" font-family="Times,serif" font-size="14.00">Yes</text>
</g>
<!-- 44434&#45;&gt;44839 -->
<g id="edge31" class="edge">
<title>44434&#45;&gt;44839</title>
<path fill="none" stroke="black" d="M904.82,-349.78C912.02,-348.92 919.17,-348.16 926.21,-347.52 934.94,-346.72 943.85,-346.05 952.86,-345.49"/>
<polygon fill="black" stroke="black" points="953.01,-348.99 962.8,-344.94 952.62,-342 953.01,-348.99"/>
<text text-anchor="middle" x="936.33" y="-350.72" font-family="Times,serif" font-size="14.00">No</text>
</g>
<!-- 44748 -->
<g id="node20" class="node">
<title>44748</title>
<ellipse fill="none" stroke="black" cx="1617.48" cy="-348.02" rx="171.63" ry="171.63"/>
<text text-anchor="middle" x="1617.48" y="-342.97" font-family="Times,serif" font-size="14.00">Is there any media interest in this incident?</text>
</g>
<!-- 44839&#45;&gt;44748 -->
<g id="edge39" class="edge">
<title>44839&#45;&gt;44748</title>
<path fill="none" stroke="black" d="M1389.87,-348.02C1404.78,-348.02 1419.73,-348.02 1434.45,-348.02"/>
<polygon fill="black" stroke="black" points="1434.14,-351.52 1444.14,-348.02 1434.14,-344.52 1434.14,-351.52"/>
<text text-anchor="middle" x="1417.73" y="-351.22" font-family="Times,serif" font-size="14.00">Yes</text>
</g>
<!-- 44839&#45;&gt;44748 -->
<g id="edge40" class="edge">
<title>44839&#45;&gt;44748</title>
<path fill="none" stroke="black" d="M1388.9,-326.64C1402.07,-326.57 1415.14,-326.83 1427.85,-327.52 1430.36,-327.66 1432.88,-327.8 1435.42,-327.96"/>
<polygon fill="black" stroke="black" points="1434.91,-331.43 1445.12,-328.6 1435.37,-324.45 1434.91,-331.43"/>
<text text-anchor="middle" x="1417.73" y="-330.72" font-family="Times,serif" font-size="14.00">No</text>
</g>
<!-- 44748&#45;&gt;44142 -->
<g id="edge36" class="edge">
<title>44748&#45;&gt;44142</title>
<path fill="none" stroke="black" d="M1789.46,-348.02C1804.01,-348.02 1818.84,-348.02 1833.64,-348.02"/>
<polygon fill="black" stroke="black" points="1833.45,-351.52 1843.45,-348.02 1833.45,-344.52 1833.45,-351.52"/>
<text text-anchor="middle" x="1817.23" y="-351.22" font-family="Times,serif" font-size="14.00">Yes</text>
</g>
<!-- 44748&#45;&gt;44142 -->
<g id="edge37" class="edge">
<title>44748&#45;&gt;44142</title>
<path fill="none" stroke="black" d="M1788.33,-328.69C1794.66,-328.25 1800.94,-327.85 1807.1,-327.52 1816.12,-327.03 1825.33,-326.78 1834.62,-326.72"/>
<polygon fill="black" stroke="black" points="1834.48,-330.22 1844.48,-326.74 1834.49,-323.22 1834.48,-330.22"/>
<text text-anchor="middle" x="1817.23" y="-330.72" font-family="Times,serif" font-size="14.00">No</text>
</g>
</g>
</svg>
