<?xml version="1.0" encoding="UTF-8" standalone="no"?>
<!DOCTYPE svg PUBLIC "-//W3C//DTD SVG 1.1//EN"
 "http://www.w3.org/Graphics/SVG/1.1/DTD/svg11.dtd">
<!-- Generated by graphviz version 12.1.1 (20240910.0053)
 -->
<!-- Title: DEATH_OTHER Pages: 1 -->
<svg width="9131pt" height="801pt"
 viewBox="0.00 0.00 9130.57 801.35" xmlns="http://www.w3.org/2000/svg" xmlns:xlink="http://www.w3.org/1999/xlink">
<g id="graph0" class="graph" transform="scale(1 1) rotate(0) translate(4 797.35)">
<title>DEATH_OTHER</title>
<polygon fill="white" stroke="none" points="-4,4 -4,-797.35 9126.57,-797.35 9126.57,4 -4,4"/>
<!-- START_NODE -->
<g id="node1" class="node">
<title>START_NODE</title>
</g>
<!-- 45054 -->
<g id="node2" class="node">
<title>45054</title>
<ellipse fill="none" stroke="black" cx="337.08" cy="-223.83" rx="223.83" ry="223.83"/>
<text text-anchor="middle" x="337.08" y="-218.78" font-family="Times,serif" font-size="14.00">WERE THE POLICE INFORMED OF THE INCIDENT</text>
</g>
<!-- START_NODE&#45;&gt;45054 -->
<g id="edge1" class="edge">
<title>START_NODE&#45;&gt;45054</title>
<path fill="none" stroke="black" d="M53.74,-223.83C66.37,-223.83 82.91,-223.83 101.66,-223.83"/>
<polygon fill="black" stroke="black" points="101.43,-227.33 111.43,-223.83 101.43,-220.33 101.43,-227.33"/>
<text text-anchor="middle" x="83.62" y="-227.03" font-family="Times,serif" font-size="14.00">start</text>
</g>
<!-- 44434 -->
<g id="node18" class="node">
<title>44434</title>
<ellipse fill="none" stroke="black" cx="897.93" cy="-517.83" rx="275.52" ry="275.52"/>
<text text-anchor="middle" x="897.93" y="-512.78" font-family="Times,serif" font-size="14.00">IS THE INCIDENT THE SUBJECT OF A POLICE INVESTIGATION</text>
</g>
<!-- 45054&#45;&gt;44434 -->
<g id="edge43" class="edge">
<title>45054&#45;&gt;44434</title>
<path fill="none" stroke="black" d="M535.5,-327.69C570.39,-346.04 607.15,-365.38 643.32,-384.41"/>
<polygon fill="black" stroke="black" points="641.69,-387.51 652.17,-389.07 644.95,-381.31 641.69,-387.51"/>
<text text-anchor="middle" x="591.66" y="-365.22" font-family="Times,serif" font-size="14.00">YES</text>
</g>
<!-- 44839 -->
<g id="node19" class="node">
<title>44839</title>
<ellipse fill="none" stroke="black" cx="1531.47" cy="-477.83" rx="296.51" ry="296.51"/>
<text text-anchor="middle" x="1531.47" y="-472.78" font-family="Times,serif" font-size="14.00">IS THE INCIDENT THE SUBJECT OF AN INTERNAL INVESTIGATION</text>
</g>
<!-- 45054&#45;&gt;44839 -->
<g id="edge44" class="edge">
<title>45054&#45;&gt;44839</title>
<path fill="none" stroke="black" d="M557.65,-184.29C729.62,-162.16 972.54,-150.62 1173.46,-216.33 1216.56,-230.43 1258.76,-251.92 1298.18,-276.65"/>
<polygon fill="black" stroke="black" points="1296.02,-279.43 1306.33,-281.85 1299.78,-273.52 1296.02,-279.43"/>
<text text-anchor="middle" x="897.93" y="-219.53" font-family="Times,serif" font-size="14.00">NO</text>
</g>
<!-- END_NODE -->
<g id="node3" class="node">
<title>END_NODE</title>
<ellipse fill="none" stroke="black" cx="9088.71" cy="-402.83" rx="29.86" ry="29.86"/>
<ellipse fill="none" stroke="black" cx="9088.71" cy="-402.83" rx="33.86" ry="33.86"/>
<text text-anchor="middle" x="9088.71" y="-397.78" font-family="Times,serif" font-size="14.00">END</text>
</g>
<!-- 44130 -->
<g id="node4" class="node">
<title>44130</title>
<ellipse fill="none" stroke="black" cx="6826.1" cy="-477.83" rx="103.56" ry="103.56"/>
<text text-anchor="middle" x="6826.1" y="-472.78" font-family="Times,serif" font-size="14.00">NAME OF DECEASED</text>
</g>
<!-- 44392 -->
<g id="node5" class="node">
<title>44392</title>
<ellipse fill="none" stroke="black" cx="7115.85" cy="-477.83" rx="109.7" ry="109.7"/>
<text text-anchor="middle" x="7115.85" y="-472.78" font-family="Times,serif" font-size="14.00">STATUS OF DECEASED</text>
</g>
<!-- 44130&#45;&gt;44392 -->
<g id="edge2" class="edge">
<title>44130&#45;&gt;44392</title>
<path fill="none" stroke="black" d="M6929.76,-477.83C6950.7,-477.83 6972.9,-477.83 6994.39,-477.83"/>
<polygon fill="black" stroke="black" points="6994.38,-481.33 7004.38,-477.83 6994.38,-474.33 6994.38,-481.33"/>
<text text-anchor="middle" x="6967.9" y="-481.03" font-family="Times,serif" font-size="14.00">NAME</text>
</g>
<!-- 44645 -->
<g id="node13" class="node">
<title>44645</title>
<ellipse fill="none" stroke="black" cx="7568.96" cy="-477.83" rx="173.16" ry="173.16"/>
<text text-anchor="middle" x="7568.96" y="-472.78" font-family="Times,serif" font-size="14.00">HAVE NEXT OF KIN BEEN INFORMED</text>
</g>
<!-- 44392&#45;&gt;44645 -->
<g id="edge18" class="edge">
<title>44392&#45;&gt;44645</title>
<path fill="none" stroke="black" d="M7220.71,-511.59C7228.38,-513.28 7236.05,-514.73 7243.55,-515.83 7290.3,-522.69 7340.98,-521.06 7388.08,-515.74"/>
<polygon fill="black" stroke="black" points="7388.32,-519.23 7397.84,-514.57 7387.49,-512.28 7388.32,-519.23"/>
<text text-anchor="middle" x="7310.67" y="-523.56" font-family="Times,serif" font-size="14.00">OFFICER</text>
</g>
<!-- 44392&#45;&gt;44645 -->
<g id="edge19" class="edge">
<title>44392&#45;&gt;44645</title>
<path fill="none" stroke="black" d="M7225.76,-477.83C7273.23,-477.83 7330.21,-477.83 7383.93,-477.83"/>
<polygon fill="black" stroke="black" points="7383.82,-481.33 7393.82,-477.83 7383.82,-474.33 7383.82,-481.33"/>
<text text-anchor="middle" x="7310.67" y="-481.03" font-family="Times,serif" font-size="14.00">CIVILIAN STAFF</text>
</g>
<!-- 44392&#45;&gt;44645 -->
<g id="edge20" class="edge">
<title>44392&#45;&gt;44645</title>
<path fill="none" stroke="black" d="M7224.19,-459.24C7230.73,-458.49 7237.22,-457.84 7243.55,-457.33 7289.41,-453.64 7338.96,-454.39 7385.2,-457.11"/>
<polygon fill="black" stroke="black" points="7384.86,-460.59 7395.06,-457.72 7385.3,-453.61 7384.86,-460.59"/>
<text text-anchor="middle" x="7310.67" y="-460.53" font-family="Times,serif" font-size="14.00">EXTERNAL CIVILIAN</text>
</g>
<!-- 44392&#45;&gt;44645 -->
<g id="edge21" class="edge">
<title>44392&#45;&gt;44645</title>
<path fill="none" stroke="black" d="M7219.14,-439.54C7227.32,-437.46 7235.52,-435.67 7243.55,-434.33 7290.64,-426.47 7341.76,-428.46 7389.2,-434.67"/>
<polygon fill="black" stroke="black" points="7388.65,-438.13 7399.03,-436.03 7389.61,-431.19 7388.65,-438.13"/>
<text text-anchor="middle" x="7310.67" y="-437.53" font-family="Times,serif" font-size="14.00">OTHER</text>
</g>
<!-- 44142 -->
<g id="node6" class="node">
<title>44142</title>
<ellipse fill="none" stroke="black" cx="2681.32" cy="-477.83" rx="267.33" ry="267.33"/>
<text text-anchor="middle" x="2681.32" y="-472.78" font-family="Times,serif" font-size="14.00">HAS THE PRISON SERVICE PRESS OFFICE BEEN INFORMED</text>
</g>
<!-- 44751 -->
<g id="node7" class="node">
<title>44751</title>
<ellipse fill="none" stroke="black" cx="3218.63" cy="-477.83" rx="208.48" ry="208.48"/>
<text text-anchor="middle" x="3218.63" y="-472.78" font-family="Times,serif" font-size="14.00">WHAT WAS THE LOCATION OF THE INCIDENT</text>
</g>
<!-- 44142&#45;&gt;44751 -->
<g id="edge3" class="edge">
<title>44142&#45;&gt;44751</title>
<path fill="none" stroke="black" d="M2948.8,-477.83C2965.42,-477.83 2982.04,-477.83 2998.41,-477.83"/>
<polygon fill="black" stroke="black" points="2998.18,-481.33 3008.18,-477.83 2998.18,-474.33 2998.18,-481.33"/>
<text text-anchor="middle" x="2979.41" y="-481.03" font-family="Times,serif" font-size="14.00">YES</text>
</g>
<!-- 44142&#45;&gt;44751 -->
<g id="edge4" class="edge">
<title>44142&#45;&gt;44751</title>
<path fill="none" stroke="black" d="M2948.06,-456.38C2962.97,-456.38 2977.75,-456.68 2992.16,-457.33 2994.54,-457.44 2996.93,-457.55 2999.33,-457.67"/>
<polygon fill="black" stroke="black" points="2998.97,-461.16 3009.14,-458.2 2999.34,-454.17 2998.97,-461.16"/>
<text text-anchor="middle" x="2979.41" y="-460.53" font-family="Times,serif" font-size="14.00">NO</text>
</g>
<!-- 44395 -->
<g id="node14" class="node">
<title>44395</title>
<ellipse fill="none" stroke="black" cx="3677.99" cy="-477.83" rx="160.88" ry="160.88"/>
<text text-anchor="middle" x="3677.99" y="-472.78" font-family="Times,serif" font-size="14.00">WAS RESUSCITATION ATTEMPTED</text>
</g>
<!-- 44751&#45;&gt;44395 -->
<g id="edge38" class="edge">
<title>44751&#45;&gt;44395</title>
<path fill="none" stroke="black" d="M3427.57,-477.83C3453.67,-477.83 3480.14,-477.83 3505.6,-477.83"/>
<polygon fill="black" stroke="black" points="3505.32,-481.33 3515.32,-477.83 3505.32,-474.33 3505.32,-481.33"/>
<text text-anchor="middle" x="3472.11" y="-481.03" font-family="Times,serif" font-size="14.00">SPECIFY</text>
</g>
<!-- 44237 -->
<g id="node8" class="node">
<title>44237</title>
<ellipse fill="none" stroke="black" cx="8707.47" cy="-362.83" rx="193.63" ry="193.63"/>
<text text-anchor="middle" x="8707.47" y="-357.78" font-family="Times,serif" font-size="14.00">WHAT VERDICT DID THE INQUEST REACH</text>
</g>
<!-- 44237&#45;&gt;END_NODE -->
<g id="edge5" class="edge">
<title>44237&#45;&gt;END_NODE</title>
<path fill="none" stroke="black" d="M8880.81,-450.12C8893.56,-454.36 8906.4,-458.02 8919.1,-460.83 8970.2,-472.14 8989.19,-482.43 9036.85,-460.83 9046.9,-456.28 9055.75,-448.65 9063.13,-440.39"/>
<polygon fill="black" stroke="black" points="9065.69,-442.79 9069.32,-432.84 9060.27,-438.36 9065.69,-442.79"/>
<text text-anchor="middle" x="8977.98" y="-476.66" font-family="Times,serif" font-size="14.00">NATURAL CAUSES</text>
</g>
<!-- 44237&#45;&gt;END_NODE -->
<g id="edge6" class="edge">
<title>44237&#45;&gt;END_NODE</title>
<path fill="none" stroke="black" d="M8893.38,-418.07C8940.18,-425.84 8990.35,-428.82 9036.85,-420.83 9039.87,-420.31 9042.94,-419.64 9046,-418.85"/>
<polygon fill="black" stroke="black" points="9046.92,-422.22 9055.51,-416.02 9044.93,-415.51 9046.92,-422.22"/>
<text text-anchor="middle" x="8977.98" y="-428.73" font-family="Times,serif" font-size="14.00">SUICIDE</text>
</g>
<!-- 44237&#45;&gt;END_NODE -->
<g id="edge7" class="edge">
<title>44237&#45;&gt;END_NODE</title>
<path fill="none" stroke="black" d="M8900.31,-383.07C8954.02,-388.73 9007.5,-394.37 9043.49,-398.17"/>
<polygon fill="black" stroke="black" points="9042.73,-401.61 9053.04,-399.17 9043.46,-394.64 9042.73,-401.61"/>
<text text-anchor="middle" x="8977.98" y="-400.22" font-family="Times,serif" font-size="14.00">ACCIDENTAL</text>
</g>
<!-- 44237&#45;&gt;END_NODE -->
<g id="edge8" class="edge">
<title>44237&#45;&gt;END_NODE</title>
<path fill="none" stroke="black" d="M8900.29,-343.27C8945.98,-344.15 8993.92,-349.8 9036.85,-364.33 9043.04,-366.42 9049.07,-369.59 9054.69,-373.23"/>
<polygon fill="black" stroke="black" points="9052.32,-375.84 9062.49,-378.81 9056.39,-370.15 9052.32,-375.84"/>
<text text-anchor="middle" x="8977.98" y="-367.53" font-family="Times,serif" font-size="14.00">MISADVENTURE</text>
</g>
<!-- 44237&#45;&gt;END_NODE -->
<g id="edge9" class="edge">
<title>44237&#45;&gt;END_NODE</title>
<path fill="none" stroke="black" d="M8896.75,-321.48C8955.5,-312.59 9011.54,-309.48 9036.85,-323.33 9051.92,-331.58 9063.17,-346.4 9071.21,-361.03"/>
<polygon fill="black" stroke="black" points="9067.95,-362.34 9075.59,-369.69 9074.2,-359.18 9067.95,-362.34"/>
<text text-anchor="middle" x="8977.98" y="-326.53" font-family="Times,serif" font-size="14.00">OPEN VERDICT</text>
</g>
<!-- 44237&#45;&gt;END_NODE -->
<g id="edge10" class="edge">
<title>44237&#45;&gt;END_NODE</title>
<path fill="none" stroke="black" d="M8882.34,-278.83C8935.04,-265.38 8991.05,-264.1 9036.85,-293.33 9059.28,-307.64 9071.97,-334.67 9079.06,-358.29"/>
<polygon fill="black" stroke="black" points="9075.63,-359.01 9081.63,-367.74 9082.38,-357.17 9075.63,-359.01"/>
<text text-anchor="middle" x="8977.98" y="-296.53" font-family="Times,serif" font-size="14.00">OTHER</text>
</g>
<!-- 44248 -->
<g id="node9" class="node">
<title>44248</title>
<ellipse fill="none" stroke="black" cx="4573.99" cy="-477.83" rx="131.71" ry="131.71"/>
<text text-anchor="middle" x="4573.99" y="-472.78" font-family="Times,serif" font-size="14.00">WHO PRONOUNCED DEATH</text>
</g>
<!-- 44702 -->
<g id="node10" class="node">
<title>44702</title>
<ellipse fill="none" stroke="black" cx="5097.08" cy="-477.83" rx="182.89" ry="182.89"/>
<text text-anchor="middle" x="5097.08" y="-472.78" font-family="Times,serif" font-size="14.00">WHAT TIME WAS DEATH PRONOUNCED</text>
</g>
<!-- 44248&#45;&gt;44702 -->
<g id="edge11" class="edge">
<title>44248&#45;&gt;44702</title>
<path fill="none" stroke="black" d="M4705.07,-494.49C4711.36,-495.01 4717.6,-495.46 4723.7,-495.83 4800.22,-500.45 4819.61,-499.27 4896.2,-495.83 4898.57,-495.72 4900.97,-495.61 4903.38,-495.49"/>
<polygon fill="black" stroke="black" points="4903.42,-498.99 4913.22,-494.96 4903.05,-492 4903.42,-498.99"/>
<text text-anchor="middle" x="4809.95" y="-502.07" font-family="Times,serif" font-size="14.00">PRISON MEDICAL OFFICER</text>
</g>
<!-- 44248&#45;&gt;44702 -->
<g id="edge12" class="edge">
<title>44248&#45;&gt;44702</title>
<path fill="none" stroke="black" d="M4705.95,-475.51C4711.95,-475.44 4717.89,-475.38 4723.7,-475.33 4800.36,-474.69 4819.53,-474.85 4896.2,-475.33 4898.28,-475.34 4900.39,-475.36 4902.5,-475.37"/>
<polygon fill="black" stroke="black" points="4902.34,-478.87 4912.37,-475.45 4902.39,-471.87 4902.34,-478.87"/>
<text text-anchor="middle" x="4809.95" y="-478.53" font-family="Times,serif" font-size="14.00">HOSPITAL DOCTOR</text>
</g>
<!-- 44248&#45;&gt;44702 -->
<g id="edge13" class="edge">
<title>44248&#45;&gt;44702</title>
<path fill="none" stroke="black" d="M4704.21,-456.17C4710.79,-455.45 4717.31,-454.83 4723.7,-454.33 4800.13,-448.33 4819.66,-449.85 4896.2,-454.33 4898.75,-454.48 4901.31,-454.64 4903.9,-454.81"/>
<polygon fill="black" stroke="black" points="4903.57,-458.3 4913.79,-455.51 4904.06,-451.31 4903.57,-458.3"/>
<text text-anchor="middle" x="4809.95" y="-457.53" font-family="Times,serif" font-size="14.00">OTHER</text>
</g>
<!-- 44425 -->
<g id="node17" class="node">
<title>44425</title>
<ellipse fill="none" stroke="black" cx="5584.02" cy="-477.83" rx="233.56" ry="233.56"/>
<text text-anchor="middle" x="5584.02" y="-472.78" font-family="Times,serif" font-size="14.00">WHAT WERE THE CIRCUMSTANCES OF THE DEATH</text>
</g>
<!-- 44702&#45;&gt;44425 -->
<g id="edge34" class="edge">
<title>44702&#45;&gt;44425</title>
<path fill="none" stroke="black" d="M5280.38,-477.83C5299.56,-477.83 5319.27,-477.83 5338.99,-477.83"/>
<polygon fill="black" stroke="black" points="5338.76,-481.33 5348.76,-477.83 5338.76,-474.33 5338.76,-481.33"/>
<text text-anchor="middle" x="5315.22" y="-481.03" font-family="Times,serif" font-size="14.00">DATE</text>
</g>
<!-- 44702&#45;&gt;44425 -->
<g id="edge35" class="edge">
<title>44702&#45;&gt;44425</title>
<path fill="none" stroke="black" d="M5279.42,-458.42C5285.67,-458.01 5291.87,-457.64 5297.97,-457.33 5311.65,-456.63 5325.7,-456.32 5339.88,-456.32"/>
<polygon fill="black" stroke="black" points="5339.74,-459.82 5349.76,-456.38 5339.78,-452.82 5339.74,-459.82"/>
<text text-anchor="middle" x="5315.22" y="-460.53" font-family="Times,serif" font-size="14.00">TIME</text>
</g>
<!-- 44350 -->
<g id="node11" class="node">
<title>44350</title>
<ellipse fill="none" stroke="black" cx="8312.44" cy="-477.83" rx="139.89" ry="139.89"/>
<text text-anchor="middle" x="8312.44" y="-472.78" font-family="Times,serif" font-size="14.00">HAS AN INQUEST BEEN HELD</text>
</g>
<!-- 44350&#45;&gt;END_NODE -->
<g id="edge15" class="edge">
<title>44350&#45;&gt;END_NODE</title>
<path fill="none" stroke="black" d="M8437.21,-541.59C8461.98,-551.63 8488.27,-560.46 8513.84,-565.83 8682.28,-601.19 8734.08,-607.38 8901.1,-565.83 8967.38,-549.34 8988.04,-541.59 9036.85,-493.83 9051,-480 9062.33,-461.38 9070.68,-444.6"/>
<polygon fill="black" stroke="black" points="9073.73,-446.34 9074.85,-435.81 9067.4,-443.35 9073.73,-446.34"/>
<text text-anchor="middle" x="8707.47" y="-597.92" font-family="Times,serif" font-size="14.00">NO</text>
</g>
<!-- 44350&#45;&gt;44237 -->
<g id="edge14" class="edge">
<title>44350&#45;&gt;44237</title>
<path fill="none" stroke="black" d="M8447.05,-438.74C8467.52,-432.75 8489,-426.46 8510.47,-420.18"/>
<polygon fill="black" stroke="black" points="8511.29,-423.59 8519.9,-417.42 8509.32,-416.87 8511.29,-423.59"/>
<text text-anchor="middle" x="8483.09" y="-433.83" font-family="Times,serif" font-size="14.00">YES</text>
</g>
<!-- 44382 -->
<g id="node12" class="node">
<title>44382</title>
<ellipse fill="none" stroke="black" cx="6354.81" cy="-477.83" rx="306.23" ry="306.23"/>
<text text-anchor="middle" x="6354.81" y="-472.78" font-family="Times,serif" font-size="14.00">IS THE DEATH SUBJECT TO A HEALTH AND SAFETY INVESTIGATION</text>
</g>
<!-- 44382&#45;&gt;44130 -->
<g id="edge16" class="edge">
<title>44382&#45;&gt;44130</title>
<path fill="none" stroke="black" d="M6661.29,-477.83C6678.59,-477.83 6695.32,-477.83 6711.06,-477.83"/>
<polygon fill="black" stroke="black" points="6710.83,-481.33 6720.83,-477.83 6710.83,-474.33 6710.83,-481.33"/>
<text text-anchor="middle" x="6691.79" y="-481.03" font-family="Times,serif" font-size="14.00">YES</text>
</g>
<!-- 44382&#45;&gt;44130 -->
<g id="edge17" class="edge">
<title>44382&#45;&gt;44130</title>
<path fill="none" stroke="black" d="M6660.65,-454.84C6675.5,-455.31 6690.19,-456.12 6704.54,-457.33 6707.22,-457.56 6709.93,-457.81 6712.65,-458.09"/>
<polygon fill="black" stroke="black" points="6712.13,-461.55 6722.45,-459.19 6712.91,-454.6 6712.13,-461.55"/>
<text text-anchor="middle" x="6691.79" y="-460.53" font-family="Times,serif" font-size="14.00">NO</text>
</g>
<!-- 44397 -->
<g id="node16" class="node">
<title>44397</title>
<ellipse fill="none" stroke="black" cx="7957.33" cy="-477.83" rx="153.71" ry="153.71"/>
<text text-anchor="middle" x="7957.33" y="-472.78" font-family="Times,serif" font-size="14.00">HAS CORONER BEEN INFORMED</text>
</g>
<!-- 44645&#45;&gt;44397 -->
<g id="edge32" class="edge">
<title>44645&#45;&gt;44397</title>
<path fill="none" stroke="black" d="M7742.52,-477.83C7758.94,-477.83 7775.56,-477.83 7791.9,-477.83"/>
<polygon fill="black" stroke="black" points="7791.65,-481.33 7801.65,-477.83 7791.65,-474.33 7791.65,-481.33"/>
<text text-anchor="middle" x="7772.87" y="-481.03" font-family="Times,serif" font-size="14.00">YES</text>
</g>
<!-- 44645&#45;&gt;44397 -->
<g id="edge33" class="edge">
<title>44645&#45;&gt;44397</title>
<path fill="none" stroke="black" d="M7741.16,-456.71C7756.18,-456.33 7771.17,-456.47 7785.62,-457.33 7788.16,-457.48 7790.73,-457.65 7793.3,-457.82"/>
<polygon fill="black" stroke="black" points="7792.96,-461.31 7803.19,-458.56 7793.47,-454.33 7792.96,-461.31"/>
<text text-anchor="middle" x="7772.87" y="-460.53" font-family="Times,serif" font-size="14.00">NO</text>
</g>
<!-- 45031 -->
<g id="node15" class="node">
<title>45031</title>
<ellipse fill="none" stroke="black" cx="4140.58" cy="-477.83" rx="240.21" ry="240.21"/>
<text text-anchor="middle" x="4140.58" y="-472.78" font-family="Times,serif" font-size="14.00">WAS THE PERSON TAKEN TO AN OUTSIDE HOSPITAL</text>
</g>
<!-- 44395&#45;&gt;45031 -->
<g id="edge22" class="edge">
<title>44395&#45;&gt;45031</title>
<path fill="none" stroke="black" d="M3839.11,-477.83C3855.3,-477.83 3872.01,-477.83 3888.86,-477.83"/>
<polygon fill="black" stroke="black" points="3888.43,-481.33 3898.43,-477.83 3888.43,-474.33 3888.43,-481.33"/>
<text text-anchor="middle" x="3869.62" y="-481.03" font-family="Times,serif" font-size="14.00">YES</text>
</g>
<!-- 44395&#45;&gt;45031 -->
<g id="edge23" class="edge">
<title>44395&#45;&gt;45031</title>
<path fill="none" stroke="black" d="M3837.96,-458.6C3844.34,-458.11 3850.66,-457.69 3856.87,-457.33 3867.53,-456.72 3878.42,-456.36 3889.42,-456.21"/>
<polygon fill="black" stroke="black" points="3889.43,-459.71 3899.4,-456.14 3889.38,-452.71 3889.43,-459.71"/>
<text text-anchor="middle" x="3869.62" y="-460.53" font-family="Times,serif" font-size="14.00">NO</text>
</g>
<!-- 45031&#45;&gt;44248 -->
<g id="edge41" class="edge">
<title>45031&#45;&gt;44248</title>
<path fill="none" stroke="black" d="M4381.25,-477.83C4397.95,-477.83 4414.46,-477.83 4430.36,-477.83"/>
<polygon fill="black" stroke="black" points="4430.32,-481.33 4440.32,-477.83 4430.32,-474.33 4430.32,-481.33"/>
<text text-anchor="middle" x="4411.53" y="-481.03" font-family="Times,serif" font-size="14.00">YES</text>
</g>
<!-- 45031&#45;&gt;44248 -->
<g id="edge42" class="edge">
<title>45031&#45;&gt;44248</title>
<path fill="none" stroke="black" d="M4380.26,-455.75C4395.16,-455.85 4409.92,-456.35 4424.28,-457.33 4426.82,-457.5 4429.38,-457.7 4431.95,-457.9"/>
<polygon fill="black" stroke="black" points="4431.56,-461.38 4441.83,-458.76 4432.17,-454.41 4431.56,-461.38"/>
<text text-anchor="middle" x="4411.53" y="-460.53" font-family="Times,serif" font-size="14.00">NO</text>
</g>
<!-- 44397&#45;&gt;44350 -->
<g id="edge24" class="edge">
<title>44397&#45;&gt;44350</title>
<path fill="none" stroke="black" d="M8111.42,-477.83C8127.84,-477.83 8144.53,-477.83 8160.92,-477.83"/>
<polygon fill="black" stroke="black" points="8160.7,-481.33 8170.7,-477.83 8160.7,-474.33 8160.7,-481.33"/>
<text text-anchor="middle" x="8141.8" y="-481.03" font-family="Times,serif" font-size="14.00">YES</text>
</g>
<!-- 44397&#45;&gt;44350 -->
<g id="edge25" class="edge">
<title>44397&#45;&gt;44350</title>
<path fill="none" stroke="black" d="M8110.08,-456.86C8125.09,-456.32 8140.11,-456.39 8154.55,-457.33 8157.05,-457.49 8159.58,-457.67 8162.12,-457.86"/>
<polygon fill="black" stroke="black" points="8161.6,-461.33 8171.86,-458.66 8162.17,-454.35 8161.6,-461.33"/>
<text text-anchor="middle" x="8141.8" y="-460.53" font-family="Times,serif" font-size="14.00">NO</text>
</g>
<!-- 44425&#45;&gt;44382 -->
<g id="edge26" class="edge">
<title>44425&#45;&gt;44382</title>
<path fill="none" stroke="black" d="M5814.93,-514.07C5821.88,-514.73 5828.78,-515.32 5835.58,-515.83 5901.51,-520.8 5972.17,-519.81 6039.45,-515.87"/>
<polygon fill="black" stroke="black" points="6039.37,-519.38 6049.14,-515.27 6038.94,-512.39 6039.37,-519.38"/>
<text text-anchor="middle" x="5933.08" y="-522.4" font-family="Times,serif" font-size="14.00">APPARENT SELF INFLICTED</text>
</g>
<!-- 44425&#45;&gt;44382 -->
<g id="edge27" class="edge">
<title>44425&#45;&gt;44382</title>
<path fill="none" stroke="black" d="M5818.03,-477.83C5886.96,-477.83 5963.63,-477.83 6036.91,-477.83"/>
<polygon fill="black" stroke="black" points="6036.65,-481.33 6046.65,-477.83 6036.65,-474.33 6036.65,-481.33"/>
<text text-anchor="middle" x="5933.08" y="-481.03" font-family="Times,serif" font-size="14.00">APPARENT NATURAL CAUSES</text>
</g>
<!-- 44425&#45;&gt;44382 -->
<g id="edge28" class="edge">
<title>44425&#45;&gt;44382</title>
<path fill="none" stroke="black" d="M5817.04,-458.18C5823.29,-457.86 5829.47,-457.58 5835.58,-457.33 5900.99,-454.66 5971.04,-455.16 6037.82,-457.24"/>
<polygon fill="black" stroke="black" points="6037.33,-460.73 6047.43,-457.56 6037.55,-453.73 6037.33,-460.73"/>
<text text-anchor="middle" x="5933.08" y="-460.53" font-family="Times,serif" font-size="14.00">ACCIDENTAL</text>
</g>
<!-- 44425&#45;&gt;44382 -->
<g id="edge29" class="edge">
<title>44425&#45;&gt;44382</title>
<path fill="none" stroke="black" d="M5814.22,-437.37C5821.41,-436.61 5828.54,-435.92 5835.58,-435.33 5901.62,-429.77 5972.4,-430.89 6039.77,-435.32"/>
<polygon fill="black" stroke="black" points="6039.26,-438.8 6049.48,-435.99 6039.74,-431.81 6039.26,-438.8"/>
<text text-anchor="middle" x="5933.08" y="-438.53" font-family="Times,serif" font-size="14.00">SUSPICIOUS CIRCUMSTANCES</text>
</g>
<!-- 44434&#45;&gt;44839 -->
<g id="edge30" class="edge">
<title>44434&#45;&gt;44839</title>
<path fill="none" stroke="black" d="M1173.18,-500.46C1190.04,-499.39 1207.06,-498.31 1224.05,-497.24"/>
<polygon fill="black" stroke="black" points="1223.93,-500.75 1233.69,-496.63 1223.49,-493.77 1223.93,-500.75"/>
<text text-anchor="middle" x="1204.21" y="-502.23" font-family="Times,serif" font-size="14.00">YES</text>
</g>
<!-- 44434&#45;&gt;44839 -->
<g id="edge31" class="edge">
<title>44434&#45;&gt;44839</title>
<path fill="none" stroke="black" d="M1170.91,-478.9C1177.82,-478.32 1184.68,-477.8 1191.46,-477.33 1201.92,-476.61 1212.56,-475.99 1223.32,-475.47"/>
<polygon fill="black" stroke="black" points="1223.22,-478.97 1233.05,-475.02 1222.9,-471.98 1223.22,-478.97"/>
<text text-anchor="middle" x="1204.21" y="-480.53" font-family="Times,serif" font-size="14.00">NO</text>
</g>
<!-- 44748 -->
<g id="node20" class="node">
<title>44748</title>
<ellipse fill="none" stroke="black" cx="2120.98" cy="-477.83" rx="231.51" ry="231.51"/>
<text text-anchor="middle" x="2120.98" y="-472.78" font-family="Times,serif" font-size="14.00">IS THERE ANY MEDIA INTEREST IN THIS INCIDENT</text>
</g>
<!-- 44839&#45;&gt;44748 -->
<g id="edge39" class="edge">
<title>44839&#45;&gt;44748</title>
<path fill="none" stroke="black" d="M1828.37,-477.83C1844.96,-477.83 1861.53,-477.83 1877.89,-477.83"/>
<polygon fill="black" stroke="black" points="1877.66,-481.33 1887.66,-477.83 1877.66,-474.33 1877.66,-481.33"/>
<text text-anchor="middle" x="1858.72" y="-481.03" font-family="Times,serif" font-size="14.00">YES</text>
</g>
<!-- 44839&#45;&gt;44748 -->
<g id="edge40" class="edge">
<title>44839&#45;&gt;44748</title>
<path fill="none" stroke="black" d="M1827.34,-456.4C1842.26,-456.44 1857.04,-456.74 1871.47,-457.33 1873.84,-457.43 1876.22,-457.53 1878.6,-457.64"/>
<polygon fill="black" stroke="black" points="1878.19,-461.12 1888.34,-458.1 1878.52,-454.13 1878.19,-461.12"/>
<text text-anchor="middle" x="1858.72" y="-460.53" font-family="Times,serif" font-size="14.00">NO</text>
</g>
<!-- 44748&#45;&gt;44142 -->
<g id="edge36" class="edge">
<title>44748&#45;&gt;44142</title>
<path fill="none" stroke="black" d="M2352.71,-477.83C2369.05,-477.83 2385.62,-477.83 2402.19,-477.83"/>
<polygon fill="black" stroke="black" points="2402.14,-481.33 2412.14,-477.83 2402.14,-474.33 2402.14,-481.33"/>
<text text-anchor="middle" x="2383.24" y="-481.03" font-family="Times,serif" font-size="14.00">YES</text>
</g>
<!-- 44748&#45;&gt;44142 -->
<g id="edge37" class="edge">
<title>44748&#45;&gt;44142</title>
<path fill="none" stroke="black" d="M2352.11,-458.18C2358.3,-457.86 2364.43,-457.58 2370.49,-457.33 2381.18,-456.89 2392.08,-456.64 2403.09,-456.56"/>
<polygon fill="black" stroke="black" points="2403.09,-460.06 2413.08,-456.53 2403.07,-453.06 2403.09,-460.06"/>
<text text-anchor="middle" x="2383.24" y="-460.53" font-family="Times,serif" font-size="14.00">NO</text>
</g>
</g>
</svg>
