<?xml version="1.0" encoding="UTF-8" standalone="no"?>
<!DOCTYPE svg PUBLIC "-//W3C//DTD SVG 1.1//EN"
 "http://www.w3.org/Graphics/SVG/1.1/DTD/svg11.dtd">
<!-- Generated by graphviz version 12.2.1 (20241206.2353)
 -->
<!-- Title: DEATH_OTHER_1 Pages: 1 -->
<svg width="9158pt" height="697pt"
 viewBox="0.00 0.00 9158.34 697.38" xmlns="http://www.w3.org/2000/svg" xmlns:xlink="http://www.w3.org/1999/xlink">
<g id="graph0" class="graph" transform="scale(1 1) rotate(0) translate(4 693.38)">
<title>DEATH_OTHER_1</title>
<polygon fill="white" stroke="none" points="-4,4 -4,-693.38 9154.34,-693.38 9154.34,4 -4,4"/>
<!-- START_NODE -->
<g id="node1" class="node">
<title>START_NODE</title>
</g>
<!-- 45054 -->
<g id="node2" class="node">
<title>45054</title>
<ellipse fill="none" stroke="black" cx="313.03" cy="-199.78" rx="199.78" ry="199.78"/>
<text text-anchor="start" x="174.65" y="-195.73" font-family="Times,serif" font-size="14.00"> </text>
<text text-anchor="start" x="178.4" y="-195.73" font-family="Times,serif" font-size="14.00" fill="royalblue">45054 </text>
<text text-anchor="start" x="215.9" y="-195.73" font-family="Times,serif" font-size="14.00"> Were the police informed of the incident? </text>
</g>
<!-- START_NODE&#45;&gt;45054 -->
<g id="edge1" class="edge">
<title>START_NODE&#45;&gt;45054</title>
<path fill="none" stroke="black" d="M53.96,-199.78C66.61,-199.78 83.09,-199.78 101.61,-199.78"/>
<polygon fill="black" stroke="black" points="101.55,-203.28 111.55,-199.78 101.55,-196.28 101.55,-203.28"/>
<text text-anchor="middle" x="83.62" y="-202.98" font-family="Times,serif" font-size="14.00">start</text>
</g>
<!-- 44434 -->
<g id="node18" class="node">
<title>44434</title>
<ellipse fill="none" stroke="black" cx="858.65" cy="-453.78" rx="235.6" ry="235.6"/>
<text text-anchor="start" x="694.03" y="-449.73" font-family="Times,serif" font-size="14.00"> </text>
<text text-anchor="start" x="697.78" y="-449.73" font-family="Times,serif" font-size="14.00" fill="royalblue">44434 </text>
<text text-anchor="start" x="735.28" y="-449.73" font-family="Times,serif" font-size="14.00"> Is the incident the subject of a police investigation? </text>
</g>
<!-- 45054&#45;&gt;44434 -->
<g id="edge43" class="edge">
<title>45054&#45;&gt;44434</title>
<path fill="none" stroke="black" d="M494.29,-284C539.21,-304.99 587.91,-327.74 634.62,-349.57"/>
<polygon fill="black" stroke="black" points="632.95,-352.65 643.49,-353.71 635.91,-346.31 632.95,-352.65"/>
<text text-anchor="start" x="530.8" y="-338.59" font-family="Times,serif" font-size="14.00"> </text>
<text text-anchor="start" x="534.55" y="-338.59" font-family="Times,serif" font-size="14.00" fill="royalblue">182204 </text>
<text text-anchor="start" x="578.8" y="-338.59" font-family="Times,serif" font-size="14.00"> Yes </text>
</g>
<!-- 44839 -->
<g id="node19" class="node">
<title>44839</title>
<ellipse fill="none" stroke="black" cx="1450.34" cy="-413.78" rx="245.84" ry="245.84"/>
<text text-anchor="start" x="1278.22" y="-409.73" font-family="Times,serif" font-size="14.00"> </text>
<text text-anchor="start" x="1281.97" y="-409.73" font-family="Times,serif" font-size="14.00" fill="royalblue">44839 </text>
<text text-anchor="start" x="1319.47" y="-409.73" font-family="Times,serif" font-size="14.00"> Is the incident the subject of an internal investigation? </text>
</g>
<!-- 45054&#45;&gt;44839 -->
<g id="edge44" class="edge">
<title>45054&#45;&gt;44839</title>
<path fill="none" stroke="black" d="M510.54,-167.43C670.86,-148.22 901.52,-137.09 1094.26,-192.28 1145.88,-207.06 1197.3,-231.77 1244.32,-259.44"/>
<polygon fill="black" stroke="black" points="1242.29,-262.3 1252.67,-264.42 1245.87,-256.29 1242.29,-262.3"/>
<text text-anchor="start" x="822.65" y="-196.48" font-family="Times,serif" font-size="14.00"> </text>
<text text-anchor="start" x="826.4" y="-196.48" font-family="Times,serif" font-size="14.00" fill="royalblue">182205 </text>
<text text-anchor="start" x="870.65" y="-196.48" font-family="Times,serif" font-size="14.00"> No </text>
</g>
<!-- END_NODE -->
<g id="node3" class="node">
<title>END_NODE</title>
<ellipse fill="none" stroke="black" cx="9116.48" cy="-347.78" rx="29.86" ry="29.86"/>
<ellipse fill="none" stroke="black" cx="9116.48" cy="-347.78" rx="33.86" ry="33.86"/>
<text text-anchor="middle" x="9116.48" y="-342.73" font-family="Times,serif" font-size="14.00">END</text>
</g>
<!-- 44130 -->
<g id="node4" class="node">
<title>44130</title>
<ellipse fill="none" stroke="black" cx="6666.95" cy="-413.78" rx="112.77" ry="112.77"/>
<text text-anchor="start" x="6592.32" y="-409.73" font-family="Times,serif" font-size="14.00"> </text>
<text text-anchor="start" x="6596.07" y="-409.73" font-family="Times,serif" font-size="14.00" fill="royalblue">44130 </text>
<text text-anchor="start" x="6633.57" y="-409.73" font-family="Times,serif" font-size="14.00"> Name of deceased </text>
</g>
<!-- 44392 -->
<g id="node5" class="node">
<title>44392</title>
<ellipse fill="none" stroke="black" cx="7016.98" cy="-413.78" rx="112.77" ry="112.77"/>
<text text-anchor="start" x="6942.36" y="-409.73" font-family="Times,serif" font-size="14.00"> </text>
<text text-anchor="start" x="6946.11" y="-409.73" font-family="Times,serif" font-size="14.00" fill="royalblue">44392 </text>
<text text-anchor="start" x="6983.61" y="-409.73" font-family="Times,serif" font-size="14.00"> Status of deceased </text>
</g>
<!-- 44130&#45;&gt;44392 -->
<g id="edge2" class="edge">
<title>44130&#45;&gt;44392</title>
<path fill="none" stroke="black" d="M6779.98,-413.78C6815.91,-413.78 6855.89,-413.78 6892.58,-413.78"/>
<polygon fill="black" stroke="black" points="6892.34,-417.28 6902.34,-413.78 6892.34,-410.28 6892.34,-417.28"/>
<text text-anchor="start" x="6797.71" y="-417.98" font-family="Times,serif" font-size="14.00"> </text>
<text text-anchor="start" x="6801.46" y="-417.98" font-family="Times,serif" font-size="14.00" fill="royalblue">178925 </text>
<text text-anchor="start" x="6845.71" y="-417.98" font-family="Times,serif" font-size="14.00"> Name </text>
</g>
<!-- 44645 -->
<g id="node13" class="node">
<title>44645</title>
<ellipse fill="none" stroke="black" cx="7478.78" cy="-413.78" rx="167.53" ry="167.53"/>
<text text-anchor="start" x="7364.03" y="-409.73" font-family="Times,serif" font-size="14.00"> </text>
<text text-anchor="start" x="7367.78" y="-409.73" font-family="Times,serif" font-size="14.00" fill="royalblue">44645 </text>
<text text-anchor="start" x="7405.28" y="-409.73" font-family="Times,serif" font-size="14.00"> Have next of kin been informed? </text>
</g>
<!-- 44392&#45;&gt;44645 -->
<g id="edge18" class="edge">
<title>44392&#45;&gt;44645</title>
<path fill="none" stroke="black" d="M7124.74,-447.62C7132.47,-449.27 7140.2,-450.69 7147.75,-451.78 7198.17,-459.01 7253.09,-456.73 7303.39,-450.63"/>
<polygon fill="black" stroke="black" points="7303.74,-454.12 7313.22,-449.38 7302.86,-447.17 7303.74,-454.12"/>
<text text-anchor="start" x="7173.25" y="-460.47" font-family="Times,serif" font-size="14.00"> </text>
<text text-anchor="start" x="7177" y="-460.47" font-family="Times,serif" font-size="14.00" fill="royalblue">179824 </text>
<text text-anchor="start" x="7221.25" y="-460.47" font-family="Times,serif" font-size="14.00"> Officer </text>
</g>
<!-- 44392&#45;&gt;44645 -->
<g id="edge19" class="edge">
<title>44392&#45;&gt;44645</title>
<path fill="none" stroke="black" d="M7130.17,-413.78C7181.14,-413.78 7242.67,-413.78 7299.72,-413.78"/>
<polygon fill="black" stroke="black" points="7299.55,-417.28 7309.55,-413.78 7299.55,-410.28 7299.55,-417.28"/>
<text text-anchor="start" x="7157.13" y="-417.98" font-family="Times,serif" font-size="14.00"> </text>
<text text-anchor="start" x="7160.88" y="-417.98" font-family="Times,serif" font-size="14.00" fill="royalblue">179822 </text>
<text text-anchor="start" x="7205.13" y="-417.98" font-family="Times,serif" font-size="14.00"> Civilian staff </text>
</g>
<!-- 44392&#45;&gt;44645 -->
<g id="edge20" class="edge">
<title>44392&#45;&gt;44645</title>
<path fill="none" stroke="black" d="M7128.63,-395.11C7135.09,-394.39 7141.5,-393.77 7147.75,-393.28 7197.26,-389.39 7251,-390.47 7300.45,-393.61"/>
<polygon fill="black" stroke="black" points="7300.21,-397.1 7310.42,-394.27 7300.67,-390.11 7300.21,-397.1"/>
<text text-anchor="start" x="7147.75" y="-397.48" font-family="Times,serif" font-size="14.00"> </text>
<text text-anchor="start" x="7151.5" y="-397.48" font-family="Times,serif" font-size="14.00" fill="royalblue">179823 </text>
<text text-anchor="start" x="7195.75" y="-397.48" font-family="Times,serif" font-size="14.00"> External civilian </text>
</g>
<!-- 44392&#45;&gt;44645 -->
<g id="edge21" class="edge">
<title>44392&#45;&gt;44645</title>
<path fill="none" stroke="black" d="M7123.5,-375.31C7131.63,-373.3 7139.78,-371.58 7147.75,-370.28 7211.57,-359.86 7229.02,-362.81 7293.25,-370.28 7297.09,-370.72 7300.96,-371.22 7304.85,-371.76"/>
<polygon fill="black" stroke="black" points="7303.98,-375.17 7314.39,-373.18 7305.01,-368.24 7303.98,-375.17"/>
<text text-anchor="start" x="7177.38" y="-374.48" font-family="Times,serif" font-size="14.00"> </text>
<text text-anchor="start" x="7181.13" y="-374.48" font-family="Times,serif" font-size="14.00" fill="royalblue">179825 </text>
<text text-anchor="start" x="7225.38" y="-374.48" font-family="Times,serif" font-size="14.00"> Other </text>
</g>
<!-- 44142 -->
<g id="node6" class="node">
<title>44142</title>
<ellipse fill="none" stroke="black" cx="2559.51" cy="-413.78" rx="233.04" ry="233.04"/>
<text text-anchor="start" x="2396.76" y="-409.73" font-family="Times,serif" font-size="14.00"> </text>
<text text-anchor="start" x="2400.51" y="-409.73" font-family="Times,serif" font-size="14.00" fill="royalblue">44142 </text>
<text text-anchor="start" x="2438.01" y="-409.73" font-family="Times,serif" font-size="14.00"> Has the prison service press office been informed? </text>
</g>
<!-- 44751 -->
<g id="node7" class="node">
<title>44751</title>
<ellipse fill="none" stroke="black" cx="3089.79" cy="-413.78" rx="186.98" ry="186.98"/>
<text text-anchor="start" x="2960.79" y="-409.73" font-family="Times,serif" font-size="14.00"> </text>
<text text-anchor="start" x="2964.54" y="-409.73" font-family="Times,serif" font-size="14.00" fill="royalblue">44751 </text>
<text text-anchor="start" x="3002.04" y="-409.73" font-family="Times,serif" font-size="14.00"> What was the location of the incident? </text>
</g>
<!-- 44142&#45;&gt;44751 -->
<g id="edge3" class="edge">
<title>44142&#45;&gt;44751</title>
<path fill="none" stroke="black" d="M2792.99,-413.78C2825.8,-413.78 2859.27,-413.78 2891.34,-413.78"/>
<polygon fill="black" stroke="black" points="2891.11,-417.28 2901.11,-413.78 2891.11,-410.28 2891.11,-417.28"/>
<text text-anchor="start" x="2810.56" y="-417.98" font-family="Times,serif" font-size="14.00"> </text>
<text text-anchor="start" x="2814.31" y="-417.98" font-family="Times,serif" font-size="14.00" fill="royalblue">178971 </text>
<text text-anchor="start" x="2858.56" y="-417.98" font-family="Times,serif" font-size="14.00"> Yes </text>
</g>
<!-- 44142&#45;&gt;44751 -->
<g id="edge4" class="edge">
<title>44142&#45;&gt;44751</title>
<path fill="none" stroke="black" d="M2792.09,-392.74C2823.25,-391.78 2854.81,-391.77 2884.81,-393.28 2887.2,-393.4 2889.61,-393.52 2892.04,-393.66"/>
<polygon fill="black" stroke="black" points="2891.76,-397.15 2901.95,-394.25 2892.18,-390.16 2891.76,-397.15"/>
<text text-anchor="start" x="2811.68" y="-397.48" font-family="Times,serif" font-size="14.00"> </text>
<text text-anchor="start" x="2815.43" y="-397.48" font-family="Times,serif" font-size="14.00" fill="royalblue">178970 </text>
<text text-anchor="start" x="2859.68" y="-397.48" font-family="Times,serif" font-size="14.00"> No </text>
</g>
<!-- 44395 -->
<g id="node14" class="node">
<title>44395</title>
<ellipse fill="none" stroke="black" cx="3562.21" cy="-413.78" rx="152.69" ry="152.69"/>
<text text-anchor="start" x="3458.33" y="-409.73" font-family="Times,serif" font-size="14.00"> </text>
<text text-anchor="start" x="3462.08" y="-409.73" font-family="Times,serif" font-size="14.00" fill="royalblue">44395 </text>
<text text-anchor="start" x="3499.58" y="-409.73" font-family="Times,serif" font-size="14.00"> Was resuscitation attempted? </text>
</g>
<!-- 44751&#45;&gt;44395 -->
<g id="edge38" class="edge">
<title>44751&#45;&gt;44395</title>
<path fill="none" stroke="black" d="M3277.05,-413.78C3317,-413.78 3358.91,-413.78 3397.91,-413.78"/>
<polygon fill="black" stroke="black" points="3397.86,-417.28 3407.86,-413.78 3397.86,-410.28 3397.86,-417.28"/>
<text text-anchor="start" x="3294.77" y="-417.98" font-family="Times,serif" font-size="14.00"> </text>
<text text-anchor="start" x="3298.52" y="-417.98" font-family="Times,serif" font-size="14.00" fill="royalblue">181107 </text>
<text text-anchor="start" x="3342.77" y="-417.98" font-family="Times,serif" font-size="14.00"> Specify </text>
</g>
<!-- 44237 -->
<g id="node8" class="node">
<title>44237</title>
<ellipse fill="none" stroke="black" cx="8735.91" cy="-307.78" rx="175.72" ry="175.72"/>
<text text-anchor="start" x="8615.16" y="-303.73" font-family="Times,serif" font-size="14.00"> </text>
<text text-anchor="start" x="8618.91" y="-303.73" font-family="Times,serif" font-size="14.00" fill="royalblue">44237 </text>
<text text-anchor="start" x="8656.41" y="-303.73" font-family="Times,serif" font-size="14.00"> What verdict did the inquest reach? </text>
</g>
<!-- 44237&#45;&gt;END_NODE -->
<g id="edge5" class="edge">
<title>44237&#45;&gt;END_NODE</title>
<path fill="none" stroke="black" d="M8889.88,-393.43C8903.04,-398.37 8916.39,-402.6 8929.63,-405.78 8987.97,-419.76 9009.98,-430.54 9064.63,-405.78 9074.67,-401.22 9083.52,-393.59 9090.9,-385.34"/>
<polygon fill="black" stroke="black" points="9093.46,-387.74 9097.09,-377.78 9088.05,-383.3 9093.46,-387.74"/>
<text text-anchor="start" x="8929.63" y="-424.78" font-family="Times,serif" font-size="14.00"> </text>
<text text-anchor="start" x="8933.38" y="-424.78" font-family="Times,serif" font-size="14.00" fill="royalblue">179279 </text>
<text text-anchor="start" x="8977.63" y="-424.78" font-family="Times,serif" font-size="14.00"> Natural causes </text>
</g>
<!-- 44237&#45;&gt;END_NODE -->
<g id="edge6" class="edge">
<title>44237&#45;&gt;END_NODE</title>
<path fill="none" stroke="black" d="M8903.63,-361.17C8912.37,-362.96 8921.07,-364.52 8929.63,-365.78 8988.99,-374.51 9005.49,-375.93 9064.63,-365.78 9067.64,-365.26 9070.71,-364.58 9073.77,-363.79"/>
<polygon fill="black" stroke="black" points="9074.69,-367.17 9083.28,-360.97 9072.7,-360.46 9074.69,-367.17"/>
<text text-anchor="start" x="8949.13" y="-377.07" font-family="Times,serif" font-size="14.00"> </text>
<text text-anchor="start" x="8952.88" y="-377.07" font-family="Times,serif" font-size="14.00" fill="royalblue">179282 </text>
<text text-anchor="start" x="8997.13" y="-377.07" font-family="Times,serif" font-size="14.00"> Suicide </text>
</g>
<!-- 44237&#45;&gt;END_NODE -->
<g id="edge7" class="edge">
<title>44237&#45;&gt;END_NODE</title>
<path fill="none" stroke="black" d="M8910.96,-326.17C8970.05,-332.41 9031.13,-338.86 9070.97,-343.07"/>
<polygon fill="black" stroke="black" points="9070.56,-346.55 9080.87,-344.12 9071.3,-339.59 9070.56,-346.55"/>
<text text-anchor="start" x="8940.5" y="-346.17" font-family="Times,serif" font-size="14.00"> </text>
<text text-anchor="start" x="8944.25" y="-346.17" font-family="Times,serif" font-size="14.00" fill="royalblue">179277 </text>
<text text-anchor="start" x="8988.5" y="-346.17" font-family="Times,serif" font-size="14.00"> Accidental </text>
</g>
<!-- 44237&#45;&gt;END_NODE -->
<g id="edge8" class="edge">
<title>44237&#45;&gt;END_NODE</title>
<path fill="none" stroke="black" d="M8910.5,-287.14C8961.32,-286.64 9016.2,-291.64 9064.63,-308.28 9070.92,-310.44 9077.05,-313.74 9082.73,-317.52"/>
<polygon fill="black" stroke="black" points="9080.5,-320.22 9090.62,-323.34 9084.65,-314.59 9080.5,-320.22"/>
<text text-anchor="start" x="8931.88" y="-312.48" font-family="Times,serif" font-size="14.00"> </text>
<text text-anchor="start" x="8935.63" y="-312.48" font-family="Times,serif" font-size="14.00" fill="royalblue">179278 </text>
<text text-anchor="start" x="8979.88" y="-312.48" font-family="Times,serif" font-size="14.00"> Misadventure </text>
</g>
<!-- 44237&#45;&gt;END_NODE -->
<g id="edge9" class="edge">
<title>44237&#45;&gt;END_NODE</title>
<path fill="none" stroke="black" d="M8907.28,-268.58C8972.03,-257.44 9036.89,-251.99 9064.63,-267.28 9079.92,-275.7 9091.25,-290.88 9099.28,-305.8"/>
<polygon fill="black" stroke="black" points="9096.09,-307.24 9103.66,-314.65 9102.36,-304.13 9096.09,-307.24"/>
<text text-anchor="start" x="8934.13" y="-271.48" font-family="Times,serif" font-size="14.00"> </text>
<text text-anchor="start" x="8937.88" y="-271.48" font-family="Times,serif" font-size="14.00" fill="royalblue">179280 </text>
<text text-anchor="start" x="8982.13" y="-271.48" font-family="Times,serif" font-size="14.00"> Open verdict </text>
</g>
<!-- 44237&#45;&gt;END_NODE -->
<g id="edge10" class="edge">
<title>44237&#45;&gt;END_NODE</title>
<path fill="none" stroke="black" d="M8892.83,-228.07C8950.32,-210.12 9013.78,-204.71 9064.63,-237.28 9087.27,-251.78 9099.97,-279.19 9107.01,-303.09"/>
<polygon fill="black" stroke="black" points="9103.61,-303.89 9109.56,-312.65 9110.37,-302.08 9103.61,-303.89"/>
<text text-anchor="start" x="8954" y="-241.48" font-family="Times,serif" font-size="14.00"> </text>
<text text-anchor="start" x="8957.75" y="-241.48" font-family="Times,serif" font-size="14.00" fill="royalblue">179281 </text>
<text text-anchor="start" x="9002" y="-241.48" font-family="Times,serif" font-size="14.00"> Other </text>
</g>
<!-- 44248 -->
<g id="node9" class="node">
<title>44248</title>
<ellipse fill="none" stroke="black" cx="4488.66" cy="-413.78" rx="134.26" ry="134.26"/>
<text text-anchor="start" x="4398.29" y="-409.73" font-family="Times,serif" font-size="14.00"> </text>
<text text-anchor="start" x="4402.04" y="-409.73" font-family="Times,serif" font-size="14.00" fill="royalblue">44248 </text>
<text text-anchor="start" x="4439.54" y="-409.73" font-family="Times,serif" font-size="14.00"> Who pronounced death? </text>
</g>
<!-- 44702 -->
<g id="node10" class="node">
<title>44702</title>
<ellipse fill="none" stroke="black" cx="5008.58" cy="-413.78" rx="172.65" ry="172.65"/>
<text text-anchor="start" x="4890.08" y="-409.73" font-family="Times,serif" font-size="14.00"> </text>
<text text-anchor="start" x="4893.83" y="-409.73" font-family="Times,serif" font-size="14.00" fill="royalblue">44702 </text>
<text text-anchor="start" x="4931.33" y="-409.73" font-family="Times,serif" font-size="14.00"> What time was death pronounced? </text>
</g>
<!-- 44248&#45;&gt;44702 -->
<g id="edge11" class="edge">
<title>44248&#45;&gt;44702</title>
<path fill="none" stroke="black" d="M4621.98,-430.44C4628.38,-430.96 4634.72,-431.41 4640.93,-431.78 4719.46,-436.43 4739.35,-435.5 4817.93,-431.78 4820.28,-431.66 4822.65,-431.54 4825.04,-431.42"/>
<polygon fill="black" stroke="black" points="4824.99,-434.93 4834.77,-430.86 4824.59,-427.94 4824.99,-434.93"/>
<text text-anchor="start" x="4640.93" y="-439.13" font-family="Times,serif" font-size="14.00"> </text>
<text text-anchor="start" x="4644.68" y="-439.13" font-family="Times,serif" font-size="14.00" fill="royalblue">179320 </text>
<text text-anchor="start" x="4688.93" y="-439.13" font-family="Times,serif" font-size="14.00"> Prison medical officer </text>
</g>
<!-- 44248&#45;&gt;44702 -->
<g id="edge12" class="edge">
<title>44248&#45;&gt;44702</title>
<path fill="none" stroke="black" d="M4623.28,-411.45C4629.25,-411.38 4635.15,-411.32 4640.93,-411.28 4719.59,-410.63 4739.26,-410.76 4817.93,-411.28 4820,-411.29 4822.08,-411.3 4824.18,-411.32"/>
<polygon fill="black" stroke="black" points="4823.93,-414.82 4833.95,-411.4 4823.98,-407.82 4823.93,-414.82"/>
<text text-anchor="start" x="4659.68" y="-415.48" font-family="Times,serif" font-size="14.00"> </text>
<text text-anchor="start" x="4663.43" y="-415.48" font-family="Times,serif" font-size="14.00" fill="royalblue">179318 </text>
<text text-anchor="start" x="4707.68" y="-415.48" font-family="Times,serif" font-size="14.00"> Hospital doctor </text>
</g>
<!-- 44248&#45;&gt;44702 -->
<g id="edge13" class="edge">
<title>44248&#45;&gt;44702</title>
<path fill="none" stroke="black" d="M4621.52,-392.07C4628.07,-391.37 4634.57,-390.77 4640.93,-390.28 4719.36,-384.22 4739.41,-385.43 4817.93,-390.28 4820.48,-390.43 4823.06,-390.6 4825.65,-390.78"/>
<polygon fill="black" stroke="black" points="4825.34,-394.27 4835.57,-391.53 4825.86,-387.29 4825.34,-394.27"/>
<text text-anchor="start" x="4686.3" y="-394.48" font-family="Times,serif" font-size="14.00"> </text>
<text text-anchor="start" x="4690.05" y="-394.48" font-family="Times,serif" font-size="14.00" fill="royalblue">179319 </text>
<text text-anchor="start" x="4734.3" y="-394.48" font-family="Times,serif" font-size="14.00"> Other </text>
</g>
<!-- 44425 -->
<g id="node17" class="node">
<title>44425</title>
<ellipse fill="none" stroke="black" cx="5505.1" cy="-413.78" rx="203.87" ry="203.87"/>
<text text-anchor="start" x="5363.72" y="-409.73" font-family="Times,serif" font-size="14.00"> </text>
<text text-anchor="start" x="5367.47" y="-409.73" font-family="Times,serif" font-size="14.00" fill="royalblue">44425 </text>
<text text-anchor="start" x="5404.97" y="-409.73" font-family="Times,serif" font-size="14.00"> What were the circumstances of the death? </text>
</g>
<!-- 44702&#45;&gt;44425 -->
<g id="edge34" class="edge">
<title>44702&#45;&gt;44425</title>
<path fill="none" stroke="black" d="M5181.49,-413.78C5216.37,-413.78 5253.45,-413.78 5289.59,-413.78"/>
<polygon fill="black" stroke="black" points="5289.26,-417.28 5299.26,-413.78 5289.26,-410.28 5289.26,-417.28"/>
<text text-anchor="start" x="5200.73" y="-417.98" font-family="Times,serif" font-size="14.00"> </text>
<text text-anchor="start" x="5204.48" y="-417.98" font-family="Times,serif" font-size="14.00" fill="royalblue">180957 </text>
<text text-anchor="start" x="5248.73" y="-417.98" font-family="Times,serif" font-size="14.00"> Date </text>
</g>
<!-- 44702&#45;&gt;44425 -->
<g id="edge35" class="edge">
<title>44702&#45;&gt;44425</title>
<path fill="none" stroke="black" d="M5180.6,-394.43C5186.88,-393.99 5193.11,-393.61 5199.23,-393.28 5228.83,-391.68 5260.04,-391.76 5290.74,-392.86"/>
<polygon fill="black" stroke="black" points="5290.38,-396.34 5300.51,-393.24 5290.66,-389.35 5290.38,-396.34"/>
<text text-anchor="start" x="5199.23" y="-397.48" font-family="Times,serif" font-size="14.00"> </text>
<text text-anchor="start" x="5202.98" y="-397.48" font-family="Times,serif" font-size="14.00" fill="royalblue">180958 </text>
<text text-anchor="start" x="5247.23" y="-397.48" font-family="Times,serif" font-size="14.00"> Time </text>
</g>
<!-- 44350 -->
<g id="node11" class="node">
<title>44350</title>
<ellipse fill="none" stroke="black" cx="8308.5" cy="-413.78" rx="141.43" ry="141.43"/>
<text text-anchor="start" x="8212.88" y="-409.73" font-family="Times,serif" font-size="14.00"> </text>
<text text-anchor="start" x="8216.63" y="-409.73" font-family="Times,serif" font-size="14.00" fill="royalblue">44350 </text>
<text text-anchor="start" x="8254.13" y="-409.73" font-family="Times,serif" font-size="14.00"> Has an inquest been held? </text>
</g>
<!-- 44350&#45;&gt;END_NODE -->
<g id="edge15" class="edge">
<title>44350&#45;&gt;END_NODE</title>
<path fill="none" stroke="black" d="M8441.38,-463.61C8479.19,-475.62 8520.83,-486.72 8560.18,-492.78 8714.56,-516.53 8757.52,-518.25 8911.63,-492.78 8982.48,-481.06 9009.65,-486.99 9064.63,-440.78 9080.52,-427.41 9092.29,-407.76 9100.47,-389.96"/>
<polygon fill="black" stroke="black" points="9103.53,-391.71 9104.28,-381.14 9097.1,-388.93 9103.53,-391.71"/>
<text text-anchor="start" x="8699.91" y="-515.44" font-family="Times,serif" font-size="14.00"> </text>
<text text-anchor="start" x="8703.66" y="-515.44" font-family="Times,serif" font-size="14.00" fill="royalblue">179678 </text>
<text text-anchor="start" x="8747.91" y="-515.44" font-family="Times,serif" font-size="14.00"> No </text>
</g>
<!-- 44350&#45;&gt;44237 -->
<g id="edge14" class="edge">
<title>44350&#45;&gt;44237</title>
<path fill="none" stroke="black" d="M8446.15,-379.73C8480.5,-371.17 8517.9,-361.85 8554.04,-352.84"/>
<polygon fill="black" stroke="black" points="8554.88,-356.24 8563.74,-350.43 8553.19,-349.45 8554.88,-356.24"/>
<text text-anchor="start" x="8467.93" y="-377.59" font-family="Times,serif" font-size="14.00"> </text>
<text text-anchor="start" x="8471.68" y="-377.59" font-family="Times,serif" font-size="14.00" fill="royalblue">179677 </text>
<text text-anchor="start" x="8515.93" y="-377.59" font-family="Times,serif" font-size="14.00"> Yes </text>
</g>
<!-- 44382 -->
<g id="node12" class="node">
<title>44382</title>
<ellipse fill="none" stroke="black" cx="6191.95" cy="-413.78" rx="251.98" ry="251.98"/>
<text text-anchor="start" x="6015.32" y="-409.73" font-family="Times,serif" font-size="14.00"> </text>
<text text-anchor="start" x="6019.07" y="-409.73" font-family="Times,serif" font-size="14.00" fill="royalblue">44382 </text>
<text text-anchor="start" x="6056.57" y="-409.73" font-family="Times,serif" font-size="14.00"> Is the death subject to a health and safety investigation? </text>
</g>
<!-- 44382&#45;&gt;44130 -->
<g id="edge16" class="edge">
<title>44382&#45;&gt;44130</title>
<path fill="none" stroke="black" d="M6444.33,-413.78C6478.31,-413.78 6511.88,-413.78 6542.22,-413.78"/>
<polygon fill="black" stroke="black" points="6542.17,-417.28 6552.17,-413.78 6542.17,-410.28 6542.17,-417.28"/>
<text text-anchor="start" x="6461.93" y="-417.98" font-family="Times,serif" font-size="14.00"> </text>
<text text-anchor="start" x="6465.68" y="-417.98" font-family="Times,serif" font-size="14.00" fill="royalblue">179795 </text>
<text text-anchor="start" x="6509.93" y="-417.98" font-family="Times,serif" font-size="14.00"> Yes </text>
</g>
<!-- 44382&#45;&gt;44130 -->
<g id="edge17" class="edge">
<title>44382&#45;&gt;44130</title>
<path fill="none" stroke="black" d="M6443.28,-390.79C6474.57,-390.29 6506.12,-390.92 6536.18,-393.28 6538.72,-393.48 6541.28,-393.7 6543.87,-393.94"/>
<polygon fill="black" stroke="black" points="6543.48,-397.42 6553.79,-394.95 6544.2,-390.45 6543.48,-397.42"/>
<text text-anchor="start" x="6463.05" y="-397.48" font-family="Times,serif" font-size="14.00"> </text>
<text text-anchor="start" x="6466.8" y="-397.48" font-family="Times,serif" font-size="14.00" fill="royalblue">179794 </text>
<text text-anchor="start" x="6511.05" y="-397.48" font-family="Times,serif" font-size="14.00"> No </text>
</g>
<!-- 44397 -->
<g id="node16" class="node">
<title>44397</title>
<ellipse fill="none" stroke="black" cx="7906.69" cy="-413.78" rx="150.13" ry="150.13"/>
<text text-anchor="start" x="7804.69" y="-409.73" font-family="Times,serif" font-size="14.00"> </text>
<text text-anchor="start" x="7808.44" y="-409.73" font-family="Times,serif" font-size="14.00" fill="royalblue">44397 </text>
<text text-anchor="start" x="7845.94" y="-409.73" font-family="Times,serif" font-size="14.00"> Has coroner been informed? </text>
</g>
<!-- 44645&#45;&gt;44397 -->
<g id="edge32" class="edge">
<title>44645&#45;&gt;44397</title>
<path fill="none" stroke="black" d="M7646.59,-413.78C7678.92,-413.78 7712.74,-413.78 7744.87,-413.78"/>
<polygon fill="black" stroke="black" points="7744.65,-417.28 7754.65,-413.78 7744.65,-410.28 7744.65,-417.28"/>
<text text-anchor="start" x="7664.31" y="-417.98" font-family="Times,serif" font-size="14.00"> </text>
<text text-anchor="start" x="7668.06" y="-417.98" font-family="Times,serif" font-size="14.00" fill="royalblue">180738 </text>
<text text-anchor="start" x="7712.31" y="-417.98" font-family="Times,serif" font-size="14.00"> Yes </text>
</g>
<!-- 44645&#45;&gt;44397 -->
<g id="edge33" class="edge">
<title>44645&#45;&gt;44397</title>
<path fill="none" stroke="black" d="M7645.38,-393.74C7676.34,-391.96 7708.42,-391.43 7738.56,-393.28 7741.11,-393.43 7743.68,-393.6 7746.27,-393.78"/>
<polygon fill="black" stroke="black" points="7745.95,-397.27 7756.19,-394.54 7746.48,-390.29 7745.95,-397.27"/>
<text text-anchor="start" x="7665.44" y="-397.48" font-family="Times,serif" font-size="14.00"> </text>
<text text-anchor="start" x="7669.19" y="-397.48" font-family="Times,serif" font-size="14.00" fill="royalblue">180737 </text>
<text text-anchor="start" x="7713.44" y="-397.48" font-family="Times,serif" font-size="14.00"> No </text>
</g>
<!-- 45031 -->
<g id="node15" class="node">
<title>45031</title>
<ellipse fill="none" stroke="black" cx="4034.65" cy="-413.78" rx="209.5" ry="209.5"/>
<text text-anchor="start" x="3889.15" y="-409.73" font-family="Times,serif" font-size="14.00"> </text>
<text text-anchor="start" x="3892.9" y="-409.73" font-family="Times,serif" font-size="14.00" fill="royalblue">45031 </text>
<text text-anchor="start" x="3930.4" y="-409.73" font-family="Times,serif" font-size="14.00"> Was the person taken to an outside hospital? </text>
</g>
<!-- 44395&#45;&gt;45031 -->
<g id="edge22" class="edge">
<title>44395&#45;&gt;45031</title>
<path fill="none" stroke="black" d="M3715.3,-413.78C3746.65,-413.78 3780.27,-413.78 3813.48,-413.78"/>
<polygon fill="black" stroke="black" points="3813.21,-417.28 3823.21,-413.78 3813.21,-410.28 3813.21,-417.28"/>
<text text-anchor="start" x="3732.9" y="-417.98" font-family="Times,serif" font-size="14.00"> </text>
<text text-anchor="start" x="3736.65" y="-417.98" font-family="Times,serif" font-size="14.00" fill="royalblue">179834 </text>
<text text-anchor="start" x="3780.9" y="-417.98" font-family="Times,serif" font-size="14.00"> Yes </text>
</g>
<!-- 44395&#45;&gt;45031 -->
<g id="edge23" class="edge">
<title>44395&#45;&gt;45031</title>
<path fill="none" stroke="black" d="M3713.93,-394.61C3720.34,-394.1 3726.68,-393.65 3732.9,-393.28 3759.3,-391.69 3787,-391.52 3814.45,-392.29"/>
<polygon fill="black" stroke="black" points="3814.16,-395.78 3824.27,-392.6 3814.38,-388.78 3814.16,-395.78"/>
<text text-anchor="start" x="3734.02" y="-397.48" font-family="Times,serif" font-size="14.00"> </text>
<text text-anchor="start" x="3737.77" y="-397.48" font-family="Times,serif" font-size="14.00" fill="royalblue">179833 </text>
<text text-anchor="start" x="3782.02" y="-397.48" font-family="Times,serif" font-size="14.00"> No </text>
</g>
<!-- 45031&#45;&gt;44248 -->
<g id="edge41" class="edge">
<title>45031&#45;&gt;44248</title>
<path fill="none" stroke="black" d="M4244.45,-413.78C4277.62,-413.78 4311.29,-413.78 4342.57,-413.78"/>
<polygon fill="black" stroke="black" points="4342.47,-417.28 4352.47,-413.78 4342.47,-410.28 4342.47,-417.28"/>
<text text-anchor="start" x="4262.15" y="-417.98" font-family="Times,serif" font-size="14.00"> </text>
<text text-anchor="start" x="4265.9" y="-417.98" font-family="Times,serif" font-size="14.00" fill="royalblue">182063 </text>
<text text-anchor="start" x="4310.15" y="-417.98" font-family="Times,serif" font-size="14.00"> Yes </text>
</g>
<!-- 45031&#45;&gt;44248 -->
<g id="edge42" class="edge">
<title>45031&#45;&gt;44248</title>
<path fill="none" stroke="black" d="M4243.54,-392.26C4274.66,-391.17 4306.37,-391.25 4336.4,-393.28 4338.92,-393.45 4341.47,-393.63 4344.03,-393.83"/>
<polygon fill="black" stroke="black" points="4343.59,-397.31 4353.86,-394.67 4344.19,-390.33 4343.59,-397.31"/>
<text text-anchor="start" x="4263.27" y="-397.48" font-family="Times,serif" font-size="14.00"> </text>
<text text-anchor="start" x="4267.02" y="-397.48" font-family="Times,serif" font-size="14.00" fill="royalblue">182062 </text>
<text text-anchor="start" x="4311.27" y="-397.48" font-family="Times,serif" font-size="14.00"> No </text>
</g>
<!-- 44397&#45;&gt;44350 -->
<g id="edge24" class="edge">
<title>44397&#45;&gt;44350</title>
<path fill="none" stroke="black" d="M8057.14,-413.78C8089.28,-413.78 8123.28,-413.78 8155.52,-413.78"/>
<polygon fill="black" stroke="black" points="8155.33,-417.28 8165.33,-413.78 8155.33,-410.28 8155.33,-417.28"/>
<text text-anchor="start" x="8074.83" y="-417.98" font-family="Times,serif" font-size="14.00"> </text>
<text text-anchor="start" x="8078.58" y="-417.98" font-family="Times,serif" font-size="14.00" fill="royalblue">179838 </text>
<text text-anchor="start" x="8122.83" y="-417.98" font-family="Times,serif" font-size="14.00"> Yes </text>
</g>
<!-- 44397&#45;&gt;44350 -->
<g id="edge25" class="edge">
<title>44397&#45;&gt;44350</title>
<path fill="none" stroke="black" d="M8056.02,-394.19C8086.77,-392.09 8118.96,-391.34 8149.08,-393.28 8151.6,-393.44 8154.16,-393.62 8156.72,-393.81"/>
<polygon fill="black" stroke="black" points="8156.32,-397.29 8166.57,-394.6 8156.88,-390.31 8156.32,-397.29"/>
<text text-anchor="start" x="8075.95" y="-397.48" font-family="Times,serif" font-size="14.00"> </text>
<text text-anchor="start" x="8079.7" y="-397.48" font-family="Times,serif" font-size="14.00" fill="royalblue">179837 </text>
<text text-anchor="start" x="8123.95" y="-397.48" font-family="Times,serif" font-size="14.00"> No </text>
</g>
<!-- 44425&#45;&gt;44382 -->
<g id="edge26" class="edge">
<title>44425&#45;&gt;44382</title>
<path fill="none" stroke="black" d="M5706.05,-449.73C5713.1,-450.5 5720.09,-451.19 5726.97,-451.78 5813.32,-459.15 5835.51,-457.85 5921.97,-451.78 5925,-451.56 5928.06,-451.34 5931.13,-451.1"/>
<polygon fill="black" stroke="black" points="5931.12,-454.61 5940.8,-450.3 5930.55,-447.63 5931.12,-454.61"/>
<text text-anchor="start" x="5735.97" y="-461.03" font-family="Times,serif" font-size="14.00"> </text>
<text text-anchor="start" x="5739.72" y="-461.03" font-family="Times,serif" font-size="14.00" fill="royalblue">179909 </text>
<text text-anchor="start" x="5783.97" y="-461.03" font-family="Times,serif" font-size="14.00"> Apparent self inflicted </text>
</g>
<!-- 44425&#45;&gt;44382 -->
<g id="edge27" class="edge">
<title>44425&#45;&gt;44382</title>
<path fill="none" stroke="black" d="M5709.26,-413.78C5777.99,-413.78 5855.76,-413.78 5928.43,-413.78"/>
<polygon fill="black" stroke="black" points="5928.07,-417.28 5938.07,-413.78 5928.07,-410.28 5928.07,-417.28"/>
<text text-anchor="start" x="5731.84" y="-417.98" font-family="Times,serif" font-size="14.00"> </text>
<text text-anchor="start" x="5735.59" y="-417.98" font-family="Times,serif" font-size="14.00" fill="royalblue">179908 </text>
<text text-anchor="start" x="5779.84" y="-417.98" font-family="Times,serif" font-size="14.00"> Apparent natural causes </text>
</g>
<!-- 44425&#45;&gt;44382 -->
<g id="edge28" class="edge">
<title>44425&#45;&gt;44382</title>
<path fill="none" stroke="black" d="M5708.26,-394.26C5714.56,-393.89 5720.81,-393.56 5726.97,-393.28 5813.54,-389.27 5835.36,-389.98 5921.97,-393.28 5924.34,-393.37 5926.73,-393.46 5929.13,-393.56"/>
<polygon fill="black" stroke="black" points="5928.77,-397.05 5938.91,-393.99 5929.07,-390.05 5928.77,-397.05"/>
<text text-anchor="start" x="5767.84" y="-397.48" font-family="Times,serif" font-size="14.00"> </text>
<text text-anchor="start" x="5771.59" y="-397.48" font-family="Times,serif" font-size="14.00" fill="royalblue">179907 </text>
<text text-anchor="start" x="5815.84" y="-397.48" font-family="Times,serif" font-size="14.00"> Accidental </text>
</g>
<!-- 44425&#45;&gt;44382 -->
<g id="edge29" class="edge">
<title>44425&#45;&gt;44382</title>
<path fill="none" stroke="black" d="M5705.09,-372.74C5712.46,-371.81 5719.77,-370.98 5726.97,-370.28 5813.22,-361.86 5835.58,-363.34 5921.97,-370.28 5925.23,-370.54 5928.51,-370.82 5931.8,-371.11"/>
<polygon fill="black" stroke="black" points="5931.28,-374.58 5941.57,-372.04 5931.94,-367.61 5931.28,-374.58"/>
<text text-anchor="start" x="5726.97" y="-374.48" font-family="Times,serif" font-size="14.00"> </text>
<text text-anchor="start" x="5730.72" y="-374.48" font-family="Times,serif" font-size="14.00" fill="royalblue">179910 </text>
<text text-anchor="start" x="5774.97" y="-374.48" font-family="Times,serif" font-size="14.00"> Suspicious circumstances </text>
</g>
<!-- 44434&#45;&gt;44839 -->
<g id="edge30" class="edge">
<title>44434&#45;&gt;44839</title>
<path fill="none" stroke="black" d="M1093.99,-438.04C1125.1,-435.94 1156.57,-433.81 1186.51,-431.78 1188.87,-431.62 1191.24,-431.45 1193.63,-431.29"/>
<polygon fill="black" stroke="black" points="1193.61,-434.8 1203.35,-430.63 1193.13,-427.82 1193.61,-434.8"/>
<text text-anchor="start" x="1112.26" y="-440.83" font-family="Times,serif" font-size="14.00"> </text>
<text text-anchor="start" x="1116.01" y="-440.83" font-family="Times,serif" font-size="14.00" fill="royalblue">179932 </text>
<text text-anchor="start" x="1160.26" y="-440.83" font-family="Times,serif" font-size="14.00"> Yes </text>
</g>
<!-- 44434&#45;&gt;44839 -->
<g id="edge31" class="edge">
<title>44434&#45;&gt;44839</title>
<path fill="none" stroke="black" d="M1091.06,-413.28C1098.2,-412.53 1105.28,-411.86 1112.26,-411.28 1138.4,-409.09 1165.72,-407.75 1193.01,-407.02"/>
<polygon fill="black" stroke="black" points="1192.85,-410.53 1202.77,-406.79 1192.69,-403.53 1192.85,-410.53"/>
<text text-anchor="start" x="1113.38" y="-415.48" font-family="Times,serif" font-size="14.00"> </text>
<text text-anchor="start" x="1117.13" y="-415.48" font-family="Times,serif" font-size="14.00" fill="royalblue">179931 </text>
<text text-anchor="start" x="1161.38" y="-415.48" font-family="Times,serif" font-size="14.00"> No </text>
</g>
<!-- 44748 -->
<g id="node20" class="node">
<title>44748</title>
<ellipse fill="none" stroke="black" cx="2011.33" cy="-413.78" rx="204.89" ry="204.89"/>
<text text-anchor="start" x="1869.2" y="-409.73" font-family="Times,serif" font-size="14.00"> </text>
<text text-anchor="start" x="1872.95" y="-409.73" font-family="Times,serif" font-size="14.00" fill="royalblue">44748 </text>
<text text-anchor="start" x="1910.45" y="-409.73" font-family="Times,serif" font-size="14.00"> Is there any media interest in this incident? </text>
</g>
<!-- 44839&#45;&gt;44748 -->
<g id="edge39" class="edge">
<title>44839&#45;&gt;44748</title>
<path fill="none" stroke="black" d="M1696.52,-413.78C1729.32,-413.78 1762.76,-413.78 1795,-413.78"/>
<polygon fill="black" stroke="black" points="1794.84,-417.28 1804.84,-413.78 1794.84,-410.28 1794.84,-417.28"/>
<text text-anchor="start" x="1714.18" y="-417.98" font-family="Times,serif" font-size="14.00"> </text>
<text text-anchor="start" x="1717.93" y="-417.98" font-family="Times,serif" font-size="14.00" fill="royalblue">181347 </text>
<text text-anchor="start" x="1762.18" y="-417.98" font-family="Times,serif" font-size="14.00"> Yes </text>
</g>
<!-- 44839&#45;&gt;44748 -->
<g id="edge40" class="edge">
<title>44839&#45;&gt;44748</title>
<path fill="none" stroke="black" d="M1695.71,-392.76C1726.91,-391.88 1758.42,-391.89 1788.43,-393.28 1790.81,-393.39 1793.2,-393.5 1795.61,-393.62"/>
<polygon fill="black" stroke="black" points="1795.25,-397.11 1805.42,-394.16 1795.63,-390.12 1795.25,-397.11"/>
<text text-anchor="start" x="1715.31" y="-397.48" font-family="Times,serif" font-size="14.00"> </text>
<text text-anchor="start" x="1719.06" y="-397.48" font-family="Times,serif" font-size="14.00" fill="royalblue">181346 </text>
<text text-anchor="start" x="1763.31" y="-397.48" font-family="Times,serif" font-size="14.00"> No </text>
</g>
<!-- 44748&#45;&gt;44142 -->
<g id="edge36" class="edge">
<title>44748&#45;&gt;44142</title>
<path fill="none" stroke="black" d="M2216.48,-413.78C2248.61,-413.78 2282.09,-413.78 2315,-413.78"/>
<polygon fill="black" stroke="black" points="2314.62,-417.28 2324.62,-413.78 2314.62,-410.28 2314.62,-417.28"/>
<text text-anchor="start" x="2234.22" y="-417.98" font-family="Times,serif" font-size="14.00"> </text>
<text text-anchor="start" x="2237.97" y="-417.98" font-family="Times,serif" font-size="14.00" fill="royalblue">181102 </text>
<text text-anchor="start" x="2282.22" y="-417.98" font-family="Times,serif" font-size="14.00"> Yes </text>
</g>
<!-- 44748&#45;&gt;44142 -->
<g id="edge37" class="edge">
<title>44748&#45;&gt;44142</title>
<path fill="none" stroke="black" d="M2215.72,-394.24C2221.96,-393.88 2228.13,-393.56 2234.22,-393.28 2260.6,-392.06 2288.17,-391.97 2315.61,-392.65"/>
<polygon fill="black" stroke="black" points="2315.34,-396.14 2325.43,-392.92 2315.54,-389.14 2315.34,-396.14"/>
<text text-anchor="start" x="2235.35" y="-397.48" font-family="Times,serif" font-size="14.00"> </text>
<text text-anchor="start" x="2239.1" y="-397.48" font-family="Times,serif" font-size="14.00" fill="royalblue">181101 </text>
<text text-anchor="start" x="2283.35" y="-397.48" font-family="Times,serif" font-size="14.00"> No </text>
</g>
</g>
</svg>
