<?xml version="1.0" encoding="UTF-8" standalone="no"?>
<!DOCTYPE svg PUBLIC "-//W3C//DTD SVG 1.1//EN"
 "http://www.w3.org/Graphics/SVG/1.1/DTD/svg11.dtd">
<!-- Generated by graphviz version 12.2.1 (20241206.2353)
 -->
<!-- Title: DIRTY_PROTEST_1 Pages: 1 -->
<svg width="817pt" height="391pt"
 viewBox="0.00 0.00 817.38 391.17" xmlns="http://www.w3.org/2000/svg" xmlns:xlink="http://www.w3.org/1999/xlink">
<g id="graph0" class="graph" transform="scale(1 1) rotate(0) translate(4 387.17)">
<title>DIRTY_PROTEST_1</title>
<polygon fill="white" stroke="none" points="-4,4 -4,-387.17 813.38,-387.17 813.38,4 -4,4"/>
<!-- START_NODE -->
<g id="node1" class="node">
<title>START_NODE</title>
</g>
<!-- 100000 -->
<g id="node2" class="node">
<title>100000</title>
<ellipse fill="none" stroke="black" cx="304.84" cy="-191.59" rx="191.59" ry="191.59"/>
<text text-anchor="start" x="172.46" y="-187.54" font-family="Times,serif" font-size="14.00"> </text>
<text text-anchor="start" x="176.21" y="-187.54" font-family="Times,serif" font-size="14.00" fill="royalblue">100000 </text>
<text text-anchor="start" x="220.46" y="-187.54" font-family="Times,serif" font-size="14.00"> What was the location of the incident? </text>
</g>
<!-- START_NODE&#45;&gt;100000 -->
<g id="edge1" class="edge">
<title>START_NODE&#45;&gt;100000</title>
<path fill="none" stroke="black" d="M53.95,-191.59C66.62,-191.59 83.11,-191.59 101.59,-191.59"/>
<polygon fill="black" stroke="black" points="101.5,-195.09 111.5,-191.59 101.5,-188.09 101.5,-195.09"/>
<text text-anchor="middle" x="83.62" y="-194.79" font-family="Times,serif" font-size="14.00">start</text>
</g>
<!-- END_NODE -->
<g id="node3" class="node">
<title>END_NODE</title>
<ellipse fill="none" stroke="black" cx="775.53" cy="-191.59" rx="29.86" ry="29.86"/>
<ellipse fill="none" stroke="black" cx="775.53" cy="-191.59" rx="33.86" ry="33.86"/>
<text text-anchor="middle" x="775.53" y="-186.54" font-family="Times,serif" font-size="14.00">END</text>
</g>
<!-- 100000&#45;&gt;END_NODE -->
<g id="edge2" class="edge">
<title>100000&#45;&gt;END_NODE</title>
<path fill="none" stroke="black" d="M475.88,-278.67C488.7,-283 501.63,-286.73 514.42,-289.59 605.19,-309.85 644.2,-337.88 723.67,-289.59 743.25,-277.69 755.63,-255.54 763.27,-235.3"/>
<polygon fill="black" stroke="black" points="766.5,-236.68 766.45,-226.08 759.88,-234.39 766.5,-236.68"/>
<text text-anchor="start" x="555.3" y="-320.49" font-family="Times,serif" font-size="14.00"> </text>
<text text-anchor="start" x="559.05" y="-320.49" font-family="Times,serif" font-size="14.00" fill="royalblue">100001 </text>
<text text-anchor="start" x="603.3" y="-320.49" font-family="Times,serif" font-size="14.00"> Ordinary cell </text>
</g>
<!-- 100000&#45;&gt;END_NODE -->
<g id="edge3" class="edge">
<title>100000&#45;&gt;END_NODE</title>
<path fill="none" stroke="black" d="M488.96,-245.47C497.53,-247.05 506.04,-248.44 514.42,-249.59 560.5,-255.87 681.32,-268.78 723.67,-249.59 733.72,-245.03 742.57,-237.4 749.95,-229.15"/>
<polygon fill="black" stroke="black" points="752.51,-231.55 756.14,-221.6 747.09,-227.11 752.51,-231.55"/>
<text text-anchor="start" x="541.05" y="-263.89" font-family="Times,serif" font-size="14.00"> </text>
<text text-anchor="start" x="544.8" y="-263.89" font-family="Times,serif" font-size="14.00" fill="royalblue">100002 </text>
<text text-anchor="start" x="589.05" y="-263.89" font-family="Times,serif" font-size="14.00"> Specialist cell/unit </text>
</g>
<!-- 100000&#45;&gt;END_NODE -->
<g id="edge4" class="edge">
<title>100000&#45;&gt;END_NODE</title>
<path fill="none" stroke="black" d="M495.16,-216.68C567.13,-221.8 649.61,-222.31 723.67,-209.59 726.69,-209.07 729.76,-208.39 732.82,-207.6"/>
<polygon fill="black" stroke="black" points="733.74,-210.98 742.33,-204.78 731.75,-204.27 733.74,-210.98"/>
<text text-anchor="start" x="527.55" y="-224.26" font-family="Times,serif" font-size="14.00"> </text>
<text text-anchor="start" x="531.3" y="-224.26" font-family="Times,serif" font-size="14.00" fill="royalblue">100003 </text>
<text text-anchor="start" x="575.55" y="-224.26" font-family="Times,serif" font-size="14.00"> Shower/changing room </text>
</g>
<!-- 100000&#45;&gt;END_NODE -->
<g id="edge5" class="edge">
<title>100000&#45;&gt;END_NODE</title>
<path fill="none" stroke="black" d="M496.71,-187.99C567.95,-187.3 649.52,-187.27 723.67,-189.09 725.74,-189.14 727.85,-189.2 729.98,-189.27"/>
<polygon fill="black" stroke="black" points="729.79,-192.77 739.92,-189.66 730.07,-185.77 729.79,-192.77"/>
<text text-anchor="start" x="514.42" y="-193.29" font-family="Times,serif" font-size="14.00"> </text>
<text text-anchor="start" x="518.17" y="-193.29" font-family="Times,serif" font-size="14.00" fill="royalblue">100004 </text>
<text text-anchor="start" x="562.42" y="-193.29" font-family="Times,serif" font-size="14.00"> Other location within prison </text>
</g>
<!-- 100000&#45;&gt;END_NODE -->
<g id="edge6" class="edge">
<title>100000&#45;&gt;END_NODE</title>
<path fill="none" stroke="black" d="M493.86,-158.24C566.43,-151.16 649.64,-150.18 723.67,-167.09 727.52,-167.96 731.41,-169.17 735.24,-170.58"/>
<polygon fill="black" stroke="black" points="733.8,-173.77 744.37,-174.41 736.5,-167.32 733.8,-173.77"/>
<text text-anchor="start" x="524.17" y="-171.29" font-family="Times,serif" font-size="14.00"> </text>
<text text-anchor="start" x="527.92" y="-171.29" font-family="Times,serif" font-size="14.00" fill="royalblue">100005 </text>
<text text-anchor="start" x="572.17" y="-171.29" font-family="Times,serif" font-size="14.00"> Crown/magistrates court </text>
</g>
<!-- 100000&#45;&gt;END_NODE -->
<g id="edge7" class="edge">
<title>100000&#45;&gt;END_NODE</title>
<path fill="none" stroke="black" d="M488.95,-137.24C497.52,-135.64 506.04,-134.24 514.42,-133.09 606.56,-120.41 639.05,-94.52 723.67,-133.09 733.85,-137.73 742.78,-145.52 750.2,-153.93"/>
<polygon fill="black" stroke="black" points="747.42,-156.06 756.43,-161.64 752.87,-151.66 747.42,-156.06"/>
<text text-anchor="start" x="564.3" y="-137.29" font-family="Times,serif" font-size="14.00"> </text>
<text text-anchor="start" x="568.05" y="-137.29" font-family="Times,serif" font-size="14.00" fill="royalblue">100006 </text>
<text text-anchor="start" x="612.3" y="-137.29" font-family="Times,serif" font-size="14.00"> Court cell </text>
</g>
<!-- 100000&#45;&gt;END_NODE -->
<g id="edge8" class="edge">
<title>100000&#45;&gt;END_NODE</title>
<path fill="none" stroke="black" d="M475.23,-103.37C488.26,-98.89 501.41,-95.03 514.42,-92.09 605.13,-71.56 644.35,-43.54 723.67,-92.09 743.59,-104.28 756.02,-127 763.6,-147.66"/>
<polygon fill="black" stroke="black" points="760.26,-148.71 766.76,-157.09 766.9,-146.49 760.26,-148.71"/>
<text text-anchor="start" x="571.42" y="-96.29" font-family="Times,serif" font-size="14.00"> </text>
<text text-anchor="start" x="575.17" y="-96.29" font-family="Times,serif" font-size="14.00" fill="royalblue">100007 </text>
<text text-anchor="start" x="619.42" y="-96.29" font-family="Times,serif" font-size="14.00"> Vehicle </text>
</g>
</g>
</svg>
