<?xml version="1.0" encoding="UTF-8" standalone="no"?>
<!DOCTYPE svg PUBLIC "-//W3C//DTD SVG 1.1//EN"
 "http://www.w3.org/Graphics/SVG/1.1/DTD/svg11.dtd">
<!-- Generated by graphviz version 12.1.1 (20240910.0053)
 -->
<!-- Title: DRONE_SIGHTING Pages: 1 -->
<svg width="8449pt" height="2357pt"
 viewBox="0.00 0.00 8449.06 2356.73" xmlns="http://www.w3.org/2000/svg" xmlns:xlink="http://www.w3.org/1999/xlink">
<g id="graph0" class="graph" transform="scale(1 1) rotate(0) translate(4 2352.73)">
<title>DRONE_SIGHTING</title>
<polygon fill="white" stroke="none" points="-4,4 -4,-2352.73 8445.06,-2352.73 8445.06,4 -4,4"/>
<!-- START_NODE -->
<g id="node1" class="node">
<title>START_NODE</title>
</g>
<!-- 69179 -->
<g id="node2" class="node">
<title>69179</title>
<ellipse fill="none" stroke="black" cx="254.17" cy="-2098.8" rx="140.92" ry="140.92"/>
<text text-anchor="middle" x="254.17" y="-2093.75" font-family="Times,serif" font-size="14.00">Was a drone sighted in mid&#45;flight?</text>
</g>
<!-- START_NODE&#45;&gt;69179 -->
<g id="edge1" class="edge">
<title>START_NODE&#45;&gt;69179</title>
<path fill="none" stroke="black" d="M53.83,-2098.8C66.65,-2098.8 83.27,-2098.8 101.45,-2098.8"/>
<polygon fill="black" stroke="black" points="101.44,-2102.3 111.44,-2098.8 101.44,-2095.3 101.44,-2102.3"/>
<text text-anchor="middle" x="83.62" y="-2102" font-family="Times,serif" font-size="14.00">start</text>
</g>
<!-- 69180 -->
<g id="node4" class="node">
<title>69180</title>
<ellipse fill="none" stroke="black" cx="559.5" cy="-2098.8" rx="108.16" ry="108.16"/>
<text text-anchor="middle" x="559.5" y="-2093.75" font-family="Times,serif" font-size="14.00">Number of drones sighted</text>
</g>
<!-- 69179&#45;&gt;69180 -->
<g id="edge2" class="edge">
<title>69179&#45;&gt;69180</title>
<path fill="none" stroke="black" d="M395.29,-2098.8C410.26,-2098.8 425.38,-2098.8 440.06,-2098.8"/>
<polygon fill="black" stroke="black" points="439.68,-2102.3 449.68,-2098.8 439.68,-2095.3 439.68,-2102.3"/>
<text text-anchor="middle" x="423.21" y="-2102" font-family="Times,serif" font-size="14.00">No</text>
</g>
<!-- 69179&#45;&gt;69180 -->
<g id="edge3" class="edge">
<title>69179&#45;&gt;69180</title>
<path fill="none" stroke="black" d="M393.68,-2077.53C407.07,-2077.08 420.46,-2077.25 433.34,-2078.3 435.88,-2078.51 438.44,-2078.74 441.03,-2078.99"/>
<polygon fill="black" stroke="black" points="440.64,-2082.47 450.96,-2080.05 441.39,-2075.51 440.64,-2082.47"/>
<text text-anchor="middle" x="423.21" y="-2081.5" font-family="Times,serif" font-size="14.00">Yes</text>
</g>
<!-- END_NODE -->
<g id="node3" class="node">
<title>END_NODE</title>
<ellipse fill="none" stroke="black" cx="8407.2" cy="-1231.8" rx="29.86" ry="29.86"/>
<ellipse fill="none" stroke="black" cx="8407.2" cy="-1231.8" rx="33.86" ry="33.86"/>
<text text-anchor="middle" x="8407.2" y="-1226.75" font-family="Times,serif" font-size="14.00">END</text>
</g>
<!-- 69181 -->
<g id="node5" class="node">
<title>69181</title>
<ellipse fill="none" stroke="black" cx="917.73" cy="-2098.8" rx="136.82" ry="136.82"/>
<text text-anchor="middle" x="917.73" y="-2093.75" font-family="Times,serif" font-size="14.00">Where were the drone(s) sighted?</text>
</g>
<!-- 69180&#45;&gt;69181 -->
<g id="edge4" class="edge">
<title>69180&#45;&gt;69181</title>
<path fill="none" stroke="black" d="M667.86,-2098.8C699.71,-2098.8 735.15,-2098.8 769.07,-2098.8"/>
<polygon fill="black" stroke="black" points="769,-2102.3 779,-2098.8 769,-2095.3 769,-2102.3"/>
<text text-anchor="middle" x="724.28" y="-2102" font-family="Times,serif" font-size="14.00">Please specify</text>
</g>
<!-- 69182 -->
<g id="node6" class="node">
<title>69182</title>
<ellipse fill="none" stroke="black" cx="1542.99" cy="-2098.8" rx="249.93" ry="249.93"/>
<text text-anchor="middle" x="1542.99" y="-2093.75" font-family="Times,serif" font-size="14.00">For drone(s) sighted beyond the perimeter how close to the wall</text>
</g>
<!-- 69181&#45;&gt;69182 -->
<g id="edge5" class="edge">
<title>69181&#45;&gt;69182</title>
<path fill="none" stroke="black" d="M1054.74,-2098.8C1121.14,-2098.8 1203.33,-2098.8 1281.18,-2098.8"/>
<polygon fill="black" stroke="black" points="1281.12,-2102.3 1291.12,-2098.8 1281.12,-2095.3 1281.12,-2102.3"/>
<text text-anchor="middle" x="1173.81" y="-2102" font-family="Times,serif" font-size="14.00">Please specify location of each drone</text>
</g>
<!-- 69183 -->
<g id="node7" class="node">
<title>69183</title>
<ellipse fill="none" stroke="black" cx="2147.4" cy="-2098.8" rx="241.23" ry="241.23"/>
<text text-anchor="middle" x="2147.4" y="-2093.75" font-family="Times,serif" font-size="14.00">What were the weather conditions at the time of the sighting?</text>
</g>
<!-- 69182&#45;&gt;69183 -->
<g id="edge6" class="edge">
<title>69182&#45;&gt;69183</title>
<path fill="none" stroke="black" d="M1793.36,-2098.8C1826.81,-2098.8 1861.13,-2098.8 1894.61,-2098.8"/>
<polygon fill="black" stroke="black" points="1894.42,-2102.3 1904.42,-2098.8 1894.42,-2095.3 1894.42,-2102.3"/>
<text text-anchor="middle" x="1849.55" y="-2102" font-family="Times,serif" font-size="14.00">Please specify</text>
</g>
<!-- 69184 -->
<g id="node8" class="node">
<title>69184</title>
<ellipse fill="none" stroke="black" cx="2619.26" cy="-2098.8" rx="117.37" ry="117.37"/>
<text text-anchor="middle" x="2619.26" y="-2093.75" font-family="Times,serif" font-size="14.00">Was the drone(s) recovered?</text>
</g>
<!-- 69183&#45;&gt;69184 -->
<g id="edge7" class="edge">
<title>69183&#45;&gt;69184</title>
<path fill="none" stroke="black" d="M2388.84,-2098.8C2423.83,-2098.8 2458.65,-2098.8 2490.21,-2098.8"/>
<polygon fill="black" stroke="black" points="2490.17,-2102.3 2500.17,-2098.8 2490.17,-2095.3 2490.17,-2102.3"/>
<text text-anchor="middle" x="2445.26" y="-2102" font-family="Times,serif" font-size="14.00">Please specify</text>
</g>
<!-- 69190 -->
<g id="node9" class="node">
<title>69190</title>
<ellipse fill="none" stroke="black" cx="3228.11" cy="-2098.8" rx="175.72" ry="175.72"/>
<text text-anchor="middle" x="3228.11" y="-2093.75" font-family="Times,serif" font-size="14.00">What was the drone(s) type/airframe shape?</text>
</g>
<!-- 69184&#45;&gt;69190 -->
<g id="edge8" class="edge">
<title>69184&#45;&gt;69190</title>
<path fill="none" stroke="black" d="M2736.91,-2098.8C2822.85,-2098.8 2941.52,-2098.8 3040.57,-2098.8"/>
<polygon fill="black" stroke="black" points="3040.41,-2102.3 3050.41,-2098.8 3040.41,-2095.3 3040.41,-2102.3"/>
<text text-anchor="middle" x="2894.51" y="-2102" font-family="Times,serif" font-size="14.00">No</text>
</g>
<!-- 69184&#45;&gt;69190 -->
<g id="edge9" class="edge">
<title>69184&#45;&gt;69190</title>
<path fill="none" stroke="black" d="M2735.58,-2080.05C2742.02,-2079.37 2748.4,-2078.77 2754.64,-2078.3 2878.61,-2068.9 2910.23,-2071.71 3034.39,-2078.3 3036.78,-2078.43 3039.19,-2078.56 3041.62,-2078.71"/>
<polygon fill="black" stroke="black" points="3041.34,-2082.2 3051.54,-2079.34 3041.79,-2075.21 3041.34,-2082.2"/>
<text text-anchor="middle" x="2894.51" y="-2081.5" font-family="Times,serif" font-size="14.00">Yes &#45; please additionally log a seprate find incident</text>
</g>
<!-- 69191 -->
<g id="node15" class="node">
<title>69191</title>
<ellipse fill="none" stroke="black" cx="3709.92" cy="-2098.8" rx="148.59" ry="148.59"/>
<text text-anchor="middle" x="3709.92" y="-2093.75" font-family="Times,serif" font-size="14.00">What was the drone(s) make/model?</text>
</g>
<!-- 69190&#45;&gt;69191 -->
<g id="edge15" class="edge">
<title>69190&#45;&gt;69191</title>
<path fill="none" stroke="black" d="M3395.83,-2152.19C3404.57,-2153.98 3413.27,-2155.54 3421.83,-2156.8 3475.25,-2164.66 3490.09,-2165.85 3543.33,-2156.8 3548.68,-2155.89 3554.08,-2154.83 3559.51,-2153.63"/>
<polygon fill="black" stroke="black" points="3560.27,-2157.05 3569.21,-2151.36 3558.67,-2150.24 3560.27,-2157.05"/>
<text text-anchor="middle" x="3482.58" y="-2166.35" font-family="Times,serif" font-size="14.00">Fixed wing / plane</text>
</g>
<!-- 69190&#45;&gt;69191 -->
<g id="edge16" class="edge">
<title>69190&#45;&gt;69191</title>
<path fill="none" stroke="black" d="M3403.44,-2115.82C3409.64,-2116.19 3415.79,-2116.52 3421.83,-2116.8 3475.77,-2119.31 3489.41,-2119.72 3543.33,-2116.8 3545.7,-2116.67 3548.08,-2116.53 3550.49,-2116.38"/>
<polygon fill="black" stroke="black" points="3550.56,-2119.89 3560.31,-2115.73 3550.1,-2112.9 3550.56,-2119.89"/>
<text text-anchor="middle" x="3482.58" y="-2122.04" font-family="Times,serif" font-size="14.00">Multi&#45;copter 4 motors</text>
</g>
<!-- 69190&#45;&gt;69191 -->
<g id="edge17" class="edge">
<title>69190&#45;&gt;69191</title>
<path fill="none" stroke="black" d="M3404.26,-2096.43C3410.19,-2096.38 3416.06,-2096.34 3421.83,-2096.3 3475.83,-2095.95 3489.33,-2095.89 3543.33,-2096.3 3545.39,-2096.32 3547.48,-2096.33 3549.57,-2096.35"/>
<polygon fill="black" stroke="black" points="3549.32,-2099.85 3559.35,-2096.44 3549.38,-2092.85 3549.32,-2099.85"/>
<text text-anchor="middle" x="3482.58" y="-2099.5" font-family="Times,serif" font-size="14.00">Multi&#45;copter 6 motors</text>
</g>
<!-- 69190&#45;&gt;69191 -->
<g id="edge18" class="edge">
<title>69190&#45;&gt;69191</title>
<path fill="none" stroke="black" d="M3402.88,-2076.63C3409.27,-2076.12 3415.6,-2075.68 3421.83,-2075.3 3475.73,-2072.03 3489.46,-2071.5 3543.33,-2075.3 3546.02,-2075.49 3548.73,-2075.7 3551.46,-2075.92"/>
<polygon fill="black" stroke="black" points="3550.98,-2079.39 3561.25,-2076.78 3551.6,-2072.42 3550.98,-2079.39"/>
<text text-anchor="middle" x="3482.58" y="-2078.5" font-family="Times,serif" font-size="14.00">Unknown</text>
</g>
<!-- 69190&#45;&gt;69191 -->
<g id="edge19" class="edge">
<title>69190&#45;&gt;69191</title>
<path fill="none" stroke="black" d="M3398.69,-2055.55C3406.48,-2054.3 3414.22,-2053.2 3421.83,-2052.3 3475.45,-2045.92 3489.83,-2044.93 3543.33,-2052.3 3547.49,-2052.87 3551.7,-2053.52 3555.93,-2054.24"/>
<polygon fill="black" stroke="black" points="3555.23,-2057.67 3565.7,-2056.02 3556.49,-2050.79 3555.23,-2057.67"/>
<text text-anchor="middle" x="3482.58" y="-2055.5" font-family="Times,serif" font-size="14.00">Other (please specify)</text>
</g>
<!-- 69185 -->
<g id="node10" class="node">
<title>69185</title>
<ellipse fill="#dddddd" stroke="#dddddd" cx="8079.31" cy="-1573.8" rx="175.72" ry="175.72"/>
<text text-anchor="middle" x="8079.31" y="-1568.75" font-family="Times,serif" font-size="14.00">What was the drone(s) type/airframe shape?</text>
</g>
<!-- 69185&#45;&gt;END_NODE -->
<g id="edge10" class="edge">
<title>69185&#45;&gt;END_NODE</title>
<path fill="none" stroke="black" d="M8223.73,-1473.12C8254.7,-1447.87 8285.9,-1419.46 8311.85,-1389.8 8343.31,-1353.85 8370.21,-1305.99 8387.14,-1272.4"/>
<polygon fill="black" stroke="black" points="8390.09,-1274.33 8391.4,-1263.82 8383.82,-1271.22 8390.09,-1274.33"/>
<text text-anchor="middle" x="8342.6" y="-1369.56" font-family="Times,serif" font-size="14.00">Junk</text>
</g>
<!-- 69186 -->
<g id="node11" class="node">
<title>69186</title>
<ellipse fill="#dddddd" stroke="#dddddd" cx="8079.31" cy="-1231.8" rx="148.59" ry="148.59"/>
<text text-anchor="middle" x="8079.31" y="-1226.75" font-family="Times,serif" font-size="14.00">What was the drone(s) make/model?</text>
</g>
<!-- 69186&#45;&gt;END_NODE -->
<g id="edge11" class="edge">
<title>69186&#45;&gt;END_NODE</title>
<path fill="none" stroke="black" d="M8228,-1231.8C8276.57,-1231.8 8326.96,-1231.8 8361.72,-1231.8"/>
<polygon fill="black" stroke="black" points="8361.36,-1235.3 8371.36,-1231.8 8361.36,-1228.3 8361.36,-1235.3"/>
<text text-anchor="middle" x="8342.6" y="-1235" font-family="Times,serif" font-size="14.00">Junk</text>
</g>
<!-- 69187 -->
<g id="node12" class="node">
<title>69187</title>
<ellipse fill="#dddddd" stroke="#dddddd" cx="8079.31" cy="-875.8" rx="189.54" ry="189.54"/>
<text text-anchor="middle" x="8079.31" y="-870.75" font-family="Times,serif" font-size="14.00">What was the approximate size of the drone(s)?</text>
</g>
<!-- 69187&#45;&gt;END_NODE -->
<g id="edge12" class="edge">
<title>69187&#45;&gt;END_NODE</title>
<path fill="none" stroke="#dddddd" d="M8230.06,-991.32C8258.84,-1016.89 8287.55,-1045 8311.85,-1073.8 8342.65,-1110.31 8369.66,-1158.08 8386.8,-1191.49"/>
<polygon fill="#dddddd" stroke="#dddddd" points="8383.48,-1192.68 8391.11,-1200.02 8389.73,-1189.52 8383.48,-1192.68"/>
<text text-anchor="middle" x="8342.6" y="-1134.45" font-family="Times,serif" font-size="14.00">Junk</text>
</g>
<!-- 69188 -->
<g id="node13" class="node">
<title>69188</title>
<ellipse fill="#dddddd" stroke="#dddddd" cx="8079.31" cy="-478.8" rx="189.54" ry="189.54"/>
<text text-anchor="middle" x="8079.31" y="-473.75" font-family="Times,serif" font-size="14.00">What modifications were made to the drone(s)?</text>
</g>
<!-- 69188&#45;&gt;END_NODE -->
<g id="edge13" class="edge">
<title>69188&#45;&gt;END_NODE</title>
<path fill="none" stroke="black" d="M8236.31,-585.65C8265.42,-612.26 8292.67,-642.98 8311.85,-676.8 8361.49,-764.34 8392.32,-1070.17 8402.48,-1186.45"/>
<polygon fill="black" stroke="black" points="8398.98,-1186.58 8403.33,-1196.24 8405.95,-1185.98 8398.98,-1186.58"/>
<text text-anchor="middle" x="8342.6" y="-819.53" font-family="Times,serif" font-size="14.00">Junk</text>
</g>
<!-- 69189 -->
<g id="node14" class="node">
<title>69189</title>
<ellipse fill="#dddddd" stroke="#dddddd" cx="8079.31" cy="-135.8" rx="135.8" ry="135.8"/>
<text text-anchor="middle" x="8079.31" y="-130.75" font-family="Times,serif" font-size="14.00">How was the drone(s) recovered?</text>
</g>
<!-- 69189&#45;&gt;END_NODE -->
<g id="edge14" class="edge">
<title>69189&#45;&gt;END_NODE</title>
<path fill="none" stroke="black" d="M8205.55,-186.31C8245.98,-208.88 8286.79,-239.64 8311.85,-279.8 8360.29,-357.45 8395.26,-1007.16 8404.05,-1186.25"/>
<polygon fill="black" stroke="black" points="8400.54,-1186.27 8404.53,-1196.08 8407.54,-1185.93 8400.54,-1186.27"/>
<text text-anchor="middle" x="8342.6" y="-504.39" font-family="Times,serif" font-size="14.00">Junk</text>
</g>
<!-- 69192 -->
<g id="node16" class="node">
<title>69192</title>
<ellipse fill="none" stroke="black" cx="4297.06" cy="-2098.8" rx="189.54" ry="189.54"/>
<text text-anchor="middle" x="4297.06" y="-2093.75" font-family="Times,serif" font-size="14.00">What was the approximate size of the drone(s)?</text>
</g>
<!-- 69191&#45;&gt;69192 -->
<g id="edge20" class="edge">
<title>69191&#45;&gt;69192</title>
<path fill="none" stroke="black" d="M3806.17,-2212.23C3827.3,-2230.43 3851.07,-2246.61 3876.52,-2256.8 3964.4,-2292 3999.85,-2287.16 4089.52,-2256.8 4108.82,-2250.26 4127.73,-2241.12 4145.8,-2230.5"/>
<polygon fill="black" stroke="black" points="4147.14,-2233.78 4153.87,-2225.6 4143.5,-2227.79 4147.14,-2233.78"/>
<text text-anchor="middle" x="3983.02" y="-2284.62" font-family="Times,serif" font-size="14.00">Da&#45;jiang innovations (DJI) &#45; phanthom</text>
</g>
<!-- 69191&#45;&gt;69192 -->
<g id="edge21" class="edge">
<title>69191&#45;&gt;69192</title>
<path fill="none" stroke="black" d="M3825.02,-2193.24C3841.49,-2202.86 3858.87,-2211.15 3876.52,-2216.8 3921.6,-2231.22 4043.77,-2228.95 4089.52,-2216.8 4101.71,-2213.56 4113.94,-2209.42 4126.01,-2204.63"/>
<polygon fill="black" stroke="black" points="4127.28,-2207.89 4135.18,-2200.84 4124.6,-2201.42 4127.28,-2207.89"/>
<text text-anchor="middle" x="3983.02" y="-2229.98" font-family="Times,serif" font-size="14.00">Da&#45;jiang innovations (DJI) &#45; inspire</text>
</g>
<!-- 69191&#45;&gt;69192 -->
<g id="edge22" class="edge">
<title>69191&#45;&gt;69192</title>
<path fill="none" stroke="black" d="M3842.41,-2166.91C3853.74,-2170.87 3865.2,-2174.27 3876.52,-2176.8 3968.9,-2197.47 3996.39,-2193.8 4089.52,-2176.8 4096.32,-2175.56 4103.19,-2174.1 4110.09,-2172.47"/>
<polygon fill="black" stroke="black" points="4110.61,-2175.95 4119.47,-2170.13 4108.92,-2169.16 4110.61,-2175.95"/>
<text text-anchor="middle" x="3983.02" y="-2194.16" font-family="Times,serif" font-size="14.00">Da&#45;jiang innovations (DJI) &#45; mavic</text>
</g>
<!-- 69191&#45;&gt;69192 -->
<g id="edge23" class="edge">
<title>69191&#45;&gt;69192</title>
<path fill="none" stroke="black" d="M3854.64,-2133.83C3862.01,-2134.98 3869.34,-2135.99 3876.52,-2136.8 3970.58,-2147.45 3995.24,-2145.4 4089.52,-2136.8 4092.75,-2136.5 4096.01,-2136.18 4099.29,-2135.84"/>
<polygon fill="black" stroke="black" points="4099.45,-2139.34 4109,-2134.75 4098.67,-2132.39 4099.45,-2139.34"/>
<text text-anchor="middle" x="3983.02" y="-2147.24" font-family="Times,serif" font-size="14.00">Da&#45;jiang innovations (DJI) &#45; mini</text>
</g>
<!-- 69191&#45;&gt;69192 -->
<g id="edge24" class="edge">
<title>69191&#45;&gt;69192</title>
<path fill="none" stroke="black" d="M3858.96,-2098.8C3930.76,-2098.8 4018.07,-2098.8 4095.72,-2098.8"/>
<polygon fill="black" stroke="black" points="4095.59,-2102.3 4105.59,-2098.8 4095.59,-2095.3 4095.59,-2102.3"/>
<text text-anchor="middle" x="3983.02" y="-2102" font-family="Times,serif" font-size="14.00">Autel evo</text>
</g>
<!-- 69191&#45;&gt;69192 -->
<g id="edge25" class="edge">
<title>69191&#45;&gt;69192</title>
<path fill="none" stroke="black" d="M3857.56,-2079.67C3863.96,-2079.15 3870.3,-2078.68 3876.52,-2078.3 3971,-2072.47 3994.97,-2073.62 4089.52,-2078.3 4091.91,-2078.42 4094.31,-2078.54 4096.73,-2078.68"/>
<polygon fill="black" stroke="black" points="4096.43,-2082.17 4106.62,-2079.26 4096.84,-2075.18 4096.43,-2082.17"/>
<text text-anchor="middle" x="3983.02" y="-2081.5" font-family="Times,serif" font-size="14.00">Parrott</text>
</g>
<!-- 69191&#45;&gt;69192 -->
<g id="edge26" class="edge">
<title>69191&#45;&gt;69192</title>
<path fill="none" stroke="black" d="M3853.16,-2058.04C3861.02,-2056.58 3868.84,-2055.31 3876.52,-2054.3 3970.37,-2041.91 3995.38,-2044.27 4089.52,-2054.3 4093.17,-2054.69 4096.84,-2055.11 4100.54,-2055.57"/>
<polygon fill="black" stroke="black" points="4099.83,-2059.01 4110.2,-2056.85 4100.75,-2052.07 4099.83,-2059.01"/>
<text text-anchor="middle" x="3983.02" y="-2057.5" font-family="Times,serif" font-size="14.00">Swellpro</text>
</g>
<!-- 69191&#45;&gt;69192 -->
<g id="edge27" class="edge">
<title>69191&#45;&gt;69192</title>
<path fill="none" stroke="black" d="M3844,-2034.15C3854.83,-2030.61 3865.75,-2027.58 3876.52,-2025.3 3969.13,-2005.67 3996.23,-2009.2 4089.52,-2025.3 4095.82,-2026.39 4102.19,-2027.65 4108.59,-2029.06"/>
<polygon fill="black" stroke="black" points="4107.37,-2032.37 4117.9,-2031.22 4108.95,-2025.55 4107.37,-2032.37"/>
<text text-anchor="middle" x="3983.02" y="-2028.5" font-family="Times,serif" font-size="14.00">Yuneec</text>
</g>
<!-- 69191&#45;&gt;69192 -->
<g id="edge28" class="edge">
<title>69191&#45;&gt;69192</title>
<path fill="none" stroke="black" d="M3829.99,-2010.47C3845.06,-2002.67 3860.74,-1995.97 3876.52,-1991.3 3967.29,-1964.42 3997.56,-1968.8 4089.52,-1991.3 4100.12,-1993.89 4110.78,-1997.14 4121.38,-2000.86"/>
<polygon fill="black" stroke="black" points="4119.93,-2004.06 4130.52,-2004.22 4122.34,-1997.49 4119.93,-2004.06"/>
<text text-anchor="middle" x="3983.02" y="-1994.5" font-family="Times,serif" font-size="14.00">Unknown</text>
</g>
<!-- 69191&#45;&gt;69192 -->
<g id="edge29" class="edge">
<title>69191&#45;&gt;69192</title>
<path fill="none" stroke="black" d="M3811.41,-1990.24C3831.37,-1974.72 3853.37,-1961.07 3876.52,-1952.3 3965.04,-1918.76 3999.32,-1923.56 4089.52,-1952.3 4106.51,-1957.72 4123.31,-1965.1 4139.55,-1973.68"/>
<polygon fill="black" stroke="black" points="4137.8,-1976.71 4148.25,-1978.45 4141.16,-1970.57 4137.8,-1976.71"/>
<text text-anchor="middle" x="3983.02" y="-1955.5" font-family="Times,serif" font-size="14.00">Other (please specify)</text>
</g>
<!-- 69193 -->
<g id="node17" class="node">
<title>69193</title>
<ellipse fill="none" stroke="black" cx="4838.14" cy="-2098.8" rx="189.54" ry="189.54"/>
<text text-anchor="middle" x="4838.14" y="-2093.75" font-family="Times,serif" font-size="14.00">What modifications were made to the drone(s)?</text>
</g>
<!-- 69192&#45;&gt;69193 -->
<g id="edge30" class="edge">
<title>69192&#45;&gt;69193</title>
<path fill="none" stroke="black" d="M4473.18,-2169.77C4483.7,-2172.52 4494.23,-2174.91 4504.6,-2176.8 4559.69,-2186.86 4575.51,-2186.86 4630.6,-2176.8 4637.4,-2175.56 4644.27,-2174.1 4651.17,-2172.47"/>
<polygon fill="black" stroke="black" points="4651.69,-2175.95 4660.55,-2170.13 4650,-2169.16 4651.69,-2175.95"/>
<text text-anchor="middle" x="4567.6" y="-2187.54" font-family="Times,serif" font-size="14.00">0 to less than 0.5m</text>
</g>
<!-- 69192&#45;&gt;69193 -->
<g id="edge31" class="edge">
<title>69192&#45;&gt;69193</title>
<path fill="none" stroke="black" d="M4483.61,-2134.58C4490.69,-2135.43 4497.7,-2136.17 4504.6,-2136.8 4560.37,-2141.89 4574.83,-2141.89 4630.6,-2136.8 4633.83,-2136.5 4637.09,-2136.18 4640.37,-2135.84"/>
<polygon fill="black" stroke="black" points="4640.53,-2139.34 4650.07,-2134.75 4639.75,-2132.39 4640.53,-2139.34"/>
<text text-anchor="middle" x="4567.6" y="-2143.82" font-family="Times,serif" font-size="14.00">0.5m to less than 1.0m</text>
</g>
<!-- 69192&#45;&gt;69193 -->
<g id="edge32" class="edge">
<title>69192&#45;&gt;69193</title>
<path fill="none" stroke="black" d="M4486.98,-2098.8C4535.55,-2098.8 4587.97,-2098.8 4637.08,-2098.8"/>
<polygon fill="black" stroke="black" points="4636.98,-2102.3 4646.98,-2098.8 4636.98,-2095.3 4636.98,-2102.3"/>
<text text-anchor="middle" x="4567.6" y="-2102" font-family="Times,serif" font-size="14.00">1.0m to less than 2.0m</text>
</g>
<!-- 69192&#45;&gt;69193 -->
<g id="edge33" class="edge">
<title>69192&#45;&gt;69193</title>
<path fill="none" stroke="black" d="M4485.99,-2079.35C4492.26,-2078.96 4498.48,-2078.6 4504.6,-2078.3 4560.53,-2075.53 4574.67,-2075.53 4630.6,-2078.3 4632.99,-2078.42 4635.39,-2078.54 4637.81,-2078.68"/>
<polygon fill="black" stroke="black" points="4637.51,-2082.17 4647.7,-2079.26 4637.92,-2075.18 4637.51,-2082.17"/>
<text text-anchor="middle" x="4567.6" y="-2081.5" font-family="Times,serif" font-size="14.00">2.0m to less than 3.0m</text>
</g>
<!-- 69192&#45;&gt;69193 -->
<g id="edge34" class="edge">
<title>69192&#45;&gt;69193</title>
<path fill="none" stroke="black" d="M4482.43,-2057.99C4489.9,-2056.97 4497.31,-2056.06 4504.6,-2055.3 4560.3,-2049.5 4574.9,-2049.5 4630.6,-2055.3 4634.24,-2055.68 4637.92,-2056.1 4641.61,-2056.55"/>
<polygon fill="black" stroke="black" points="4640.9,-2059.98 4651.27,-2057.8 4641.8,-2053.04 4640.9,-2059.98"/>
<text text-anchor="middle" x="4567.6" y="-2058.5" font-family="Times,serif" font-size="14.00">3.0m or longer</text>
</g>
<!-- 69192&#45;&gt;69193 -->
<g id="edge35" class="edge">
<title>69192&#45;&gt;69193</title>
<path fill="none" stroke="black" d="M4476.3,-2035.81C4485.8,-2033.67 4495.27,-2031.81 4504.6,-2030.3 4559.88,-2021.37 4575.31,-2021.37 4630.6,-2030.3 4636.28,-2031.22 4642.02,-2032.27 4647.78,-2033.43"/>
<polygon fill="black" stroke="black" points="4646.91,-2036.83 4657.42,-2035.49 4648.37,-2029.98 4646.91,-2036.83"/>
<text text-anchor="middle" x="4567.6" y="-2033.5" font-family="Times,serif" font-size="14.00">Unknown</text>
</g>
<!-- 69194 -->
<g id="node18" class="node">
<title>69194</title>
<ellipse fill="none" stroke="black" cx="5326.23" cy="-2098.8" rx="135.8" ry="135.8"/>
<text text-anchor="middle" x="5326.23" y="-2093.75" font-family="Times,serif" font-size="14.00">How was the drone(s) recovered?</text>
</g>
<!-- 69193&#45;&gt;69194 -->
<g id="edge36" class="edge">
<title>69193&#45;&gt;69194</title>
<path fill="none" stroke="black" d="M5006.54,-2186.45C5059.58,-2203.91 5118.46,-2212.62 5172.43,-2196.8 5183.77,-2193.47 5195.07,-2189.02 5206.1,-2183.84"/>
<polygon fill="black" stroke="black" points="5207.37,-2187.11 5214.79,-2179.55 5204.27,-2180.84 5207.37,-2187.11"/>
<text text-anchor="middle" x="5109.05" y="-2208.27" font-family="Times,serif" font-size="14.00">Added hook</text>
</g>
<!-- 69193&#45;&gt;69194 -->
<g id="edge37" class="edge">
<title>69193&#45;&gt;69194</title>
<path fill="none" stroke="black" d="M5020,-2153.77C5069.46,-2162.4 5123.03,-2165.86 5172.43,-2156.8 5178.04,-2155.77 5183.71,-2154.54 5189.4,-2153.16"/>
<polygon fill="black" stroke="black" points="5190.09,-2156.6 5198.89,-2150.69 5188.33,-2149.82 5190.09,-2156.6"/>
<text text-anchor="middle" x="5109.05" y="-2165.33" font-family="Times,serif" font-size="14.00">Covered lights</text>
</g>
<!-- 69193&#45;&gt;69194 -->
<g id="edge38" class="edge">
<title>69193&#45;&gt;69194</title>
<path fill="none" stroke="black" d="M5027.32,-2116.37C5074.69,-2118.75 5125.43,-2119.56 5172.43,-2116.8 5174.82,-2116.66 5177.24,-2116.51 5179.67,-2116.34"/>
<polygon fill="black" stroke="black" points="5179.92,-2119.83 5189.64,-2115.61 5179.41,-2112.85 5179.92,-2119.83"/>
<text text-anchor="middle" x="5109.05" y="-2121.74" font-family="Times,serif" font-size="14.00">Drop mechanism fitted</text>
</g>
<!-- 69193&#45;&gt;69194 -->
<g id="edge39" class="edge">
<title>69193&#45;&gt;69194</title>
<path fill="none" stroke="black" d="M5027.74,-2096.35C5074.98,-2096.03 5125.56,-2095.92 5172.43,-2096.3 5174.52,-2096.32 5176.64,-2096.34 5178.76,-2096.36"/>
<polygon fill="black" stroke="black" points="5178.7,-2099.85 5188.73,-2096.46 5178.77,-2092.85 5178.7,-2099.85"/>
<text text-anchor="middle" x="5109.05" y="-2099.5" font-family="Times,serif" font-size="14.00">None</text>
</g>
<!-- 69193&#45;&gt;69194 -->
<g id="edge40" class="edge">
<title>69193&#45;&gt;69194</title>
<path fill="none" stroke="black" d="M5026.45,-2075.93C5074.07,-2072.78 5125.14,-2071.69 5172.43,-2075.3 5175.14,-2075.51 5177.87,-2075.73 5180.62,-2075.98"/>
<polygon fill="black" stroke="black" points="5180.23,-2079.46 5190.52,-2076.94 5180.91,-2072.49 5180.23,-2079.46"/>
<text text-anchor="middle" x="5109.05" y="-2078.5" font-family="Times,serif" font-size="14.00">Painted black</text>
</g>
<!-- 69193&#45;&gt;69194 -->
<g id="edge41" class="edge">
<title>69193&#45;&gt;69194</title>
<path fill="none" stroke="black" d="M5022.59,-2054.25C5071.32,-2047.6 5123.89,-2045.08 5172.43,-2052.3 5176.78,-2052.95 5181.17,-2053.69 5185.6,-2054.52"/>
<polygon fill="black" stroke="black" points="5184.65,-2057.9 5195.14,-2056.45 5186.03,-2051.04 5184.65,-2057.9"/>
<text text-anchor="middle" x="5109.05" y="-2055.5" font-family="Times,serif" font-size="14.00">Tether attached</text>
</g>
<!-- 69193&#45;&gt;69194 -->
<g id="edge42" class="edge">
<title>69193&#45;&gt;69194</title>
<path fill="none" stroke="black" d="M5015.67,-2032.23C5066.32,-2020.91 5121.59,-2015.99 5172.43,-2027.3 5179.73,-2028.92 5187.09,-2030.93 5194.43,-2033.24"/>
<polygon fill="black" stroke="black" points="5193.13,-2036.49 5203.73,-2036.34 5195.35,-2029.85 5193.13,-2036.49"/>
<text text-anchor="middle" x="5109.05" y="-2030.5" font-family="Times,serif" font-size="14.00">Other (please specify)</text>
</g>
<!-- 69195 -->
<g id="node19" class="node">
<title>69195</title>
<ellipse fill="none" stroke="black" cx="5724.89" cy="-2098.8" rx="149.62" ry="149.62"/>
<text text-anchor="middle" x="5724.89" y="-2093.75" font-family="Times,serif" font-size="14.00">Did the drone(s) carry any packages?</text>
</g>
<!-- 69194&#45;&gt;69195 -->
<g id="edge43" class="edge">
<title>69194&#45;&gt;69195</title>
<path fill="none" stroke="black" d="M5461.31,-2115.5C5467.63,-2116 5473.89,-2116.44 5480.03,-2116.8 5507.43,-2118.41 5536.55,-2118.06 5564.77,-2116.63"/>
<polygon fill="black" stroke="black" points="5564.66,-2120.14 5574.45,-2116.09 5564.27,-2113.15 5564.66,-2120.14"/>
<text text-anchor="middle" x="5518.65" y="-2121.06" font-family="Times,serif" font-size="14.00">Crashed</text>
</g>
<!-- 69194&#45;&gt;69195 -->
<g id="edge44" class="edge">
<title>69194&#45;&gt;69195</title>
<path fill="none" stroke="black" d="M5462.2,-2096.47C5468.23,-2096.41 5474.19,-2096.35 5480.03,-2096.3 5507,-2096.08 5535.66,-2096.12 5563.49,-2096.31"/>
<polygon fill="black" stroke="black" points="5563.4,-2099.81 5573.43,-2096.39 5563.45,-2092.81 5563.4,-2099.81"/>
<text text-anchor="middle" x="5518.65" y="-2099.5" font-family="Times,serif" font-size="14.00">Intercepted</text>
</g>
<!-- 69194&#45;&gt;69195 -->
<g id="edge45" class="edge">
<title>69194&#45;&gt;69195</title>
<path fill="none" stroke="black" d="M5460.42,-2077.09C5467.04,-2076.4 5473.6,-2075.79 5480.03,-2075.3 5507.64,-2073.19 5536.98,-2073.67 5565.38,-2075.57"/>
<polygon fill="black" stroke="black" points="5564.9,-2079.04 5575.13,-2076.28 5565.41,-2072.06 5564.9,-2079.04"/>
<text text-anchor="middle" x="5518.65" y="-2078.5" font-family="Times,serif" font-size="14.00">Not recovered</text>
</g>
<!-- 69196 -->
<g id="node20" class="node">
<title>69196</title>
<ellipse fill="none" stroke="black" cx="6344.39" cy="-2098.8" rx="236.63" ry="236.63"/>
<text text-anchor="middle" x="6344.39" y="-2093.75" font-family="Times,serif" font-size="14.00">Were any photos or CCTV taken of the drone(s) or payload?</text>
</g>
<!-- 69195&#45;&gt;69196 -->
<g id="edge46" class="edge">
<title>69195&#45;&gt;69196</title>
<path fill="none" stroke="black" d="M5831.59,-2203.84C5850.56,-2217.33 5871.13,-2229.1 5892.51,-2236.8 5974.99,-2266.52 6004.8,-2258.42 6089.76,-2236.8 6103.18,-2233.39 6116.65,-2229.1 6130.01,-2224.18"/>
<polygon fill="black" stroke="black" points="6131.2,-2227.47 6139.29,-2220.63 6128.7,-2220.93 6131.2,-2227.47"/>
<text text-anchor="middle" x="5991.14" y="-2259.37" font-family="Times,serif" font-size="14.00">No package observed/recovered</text>
</g>
<!-- 69195&#45;&gt;69196 -->
<g id="edge47" class="edge">
<title>69195&#45;&gt;69196</title>
<path fill="none" stroke="black" d="M5850.13,-2181.13C5863.99,-2187.48 5878.27,-2192.92 5892.51,-2196.8 5964.01,-2216.27 6042.7,-2208.87 6114.06,-2191.48"/>
<polygon fill="black" stroke="black" points="6114.68,-2194.94 6123.52,-2189.1 6112.97,-2188.15 6114.68,-2194.94"/>
<text text-anchor="middle" x="5991.14" y="-2211.52" font-family="Times,serif" font-size="14.00">Yes &#45; unknown</text>
</g>
<!-- 69195&#45;&gt;69196 -->
<g id="edge48" class="edge">
<title>69195&#45;&gt;69196</title>
<path fill="none" stroke="black" d="M5865.46,-2151.13C5874.54,-2153.36 5883.6,-2155.29 5892.51,-2156.8 5960.51,-2168.3 6034.63,-2165.19 6102.75,-2156.1"/>
<polygon fill="black" stroke="black" points="6103.15,-2159.58 6112.58,-2154.74 6102.19,-2152.65 6103.15,-2159.58"/>
<text text-anchor="middle" x="5991.14" y="-2167.43" font-family="Times,serif" font-size="14.00">Yes 0 to 100g (more options below)</text>
</g>
<!-- 69195&#45;&gt;69196 -->
<g id="edge49" class="edge">
<title>69195&#45;&gt;69196</title>
<path fill="none" stroke="black" d="M5873.91,-2115.63C5880.19,-2116.08 5886.41,-2116.47 5892.51,-2116.8 5958.7,-2120.36 6030.38,-2119.61 6096.7,-2116.99"/>
<polygon fill="black" stroke="black" points="6096.79,-2120.49 6106.64,-2116.59 6096.51,-2113.5 6096.79,-2120.49"/>
<text text-anchor="middle" x="5991.14" y="-2122.42" font-family="Times,serif" font-size="14.00">Yes 101g to 200g</text>
</g>
<!-- 69195&#45;&gt;69196 -->
<g id="edge50" class="edge">
<title>69195&#45;&gt;69196</title>
<path fill="none" stroke="black" d="M5874.87,-2096.45C5880.83,-2096.4 5886.73,-2096.34 5892.51,-2096.3 5958.46,-2095.81 6029.84,-2095.91 6095.92,-2096.27"/>
<polygon fill="black" stroke="black" points="6095.8,-2099.77 6105.82,-2096.32 6095.84,-2092.77 6095.8,-2099.77"/>
<text text-anchor="middle" x="5991.14" y="-2099.5" font-family="Times,serif" font-size="14.00">Yes 201g to 300g</text>
</g>
<!-- 69195&#45;&gt;69196 -->
<g id="edge51" class="edge">
<title>69195&#45;&gt;69196</title>
<path fill="none" stroke="black" d="M5872.96,-2076.92C5879.56,-2076.3 5886.1,-2075.75 5892.51,-2075.3 5958.76,-2070.65 6030.54,-2071.65 6096.94,-2075.08"/>
<polygon fill="black" stroke="black" points="6096.72,-2078.57 6106.89,-2075.61 6097.1,-2071.58 6096.72,-2078.57"/>
<text text-anchor="middle" x="5991.14" y="-2078.5" font-family="Times,serif" font-size="14.00">Yes 301g to 400g</text>
</g>
<!-- 69195&#45;&gt;69196 -->
<g id="edge52" class="edge">
<title>69195&#45;&gt;69196</title>
<path fill="none" stroke="black" d="M5868.49,-2055.38C5876.57,-2053.79 5884.62,-2052.4 5892.51,-2051.3 5959.89,-2041.88 6033.18,-2044.24 6100.69,-2051.49"/>
<polygon fill="black" stroke="black" points="6100.08,-2054.95 6110.41,-2052.58 6100.86,-2047.99 6100.08,-2054.95"/>
<text text-anchor="middle" x="5991.14" y="-2054.5" font-family="Times,serif" font-size="14.00">Yes 401g to 500g</text>
</g>
<!-- 69195&#45;&gt;69196 -->
<g id="edge53" class="edge">
<title>69195&#45;&gt;69196</title>
<path fill="none" stroke="black" d="M5859.77,-2033.27C5870.67,-2029.69 5881.67,-2026.61 5892.51,-2024.3 5961.84,-2009.51 6037.69,-2014.11 6107.07,-2026.38"/>
<polygon fill="black" stroke="black" points="6106.19,-2029.78 6116.66,-2028.14 6107.46,-2022.89 6106.19,-2029.78"/>
<text text-anchor="middle" x="5991.14" y="-2027.5" font-family="Times,serif" font-size="14.00">Yes 501g to 1000g</text>
</g>
<!-- 69195&#45;&gt;69196 -->
<g id="edge54" class="edge">
<title>69195&#45;&gt;69196</title>
<path fill="none" stroke="black" d="M5847.36,-2012.21C5862.04,-2004.93 5877.25,-1998.69 5892.51,-1994.3 5976.76,-1970.07 6003.76,-1977.28 6089.76,-1994.3 6098.65,-1996.06 6107.61,-1998.13 6116.59,-2000.47"/>
<polygon fill="black" stroke="black" points="6115.53,-2003.8 6126.1,-2003.04 6117.36,-1997.05 6115.53,-2003.8"/>
<text text-anchor="middle" x="5991.14" y="-1997.5" font-family="Times,serif" font-size="14.00">Yes more than 1001g</text>
</g>
<!-- 69197 -->
<g id="node21" class="node">
<title>69197</title>
<ellipse fill="none" stroke="black" cx="6739.8" cy="-2098.8" rx="102.53" ry="102.53"/>
<text text-anchor="middle" x="6739.8" y="-2093.75" font-family="Times,serif" font-size="14.00">Was the pilot identified?</text>
</g>
<!-- 69196&#45;&gt;69197 -->
<g id="edge55" class="edge">
<title>69196&#45;&gt;69197</title>
<path fill="none" stroke="black" d="M6581.33,-2098.8C6596.55,-2098.8 6611.44,-2098.8 6625.62,-2098.8"/>
<polygon fill="black" stroke="black" points="6625.31,-2102.3 6635.31,-2098.8 6625.31,-2095.3 6625.31,-2102.3"/>
<text text-anchor="middle" x="6609.14" y="-2102" font-family="Times,serif" font-size="14.00">No</text>
</g>
<!-- 69196&#45;&gt;69197 -->
<g id="edge56" class="edge">
<title>69196&#45;&gt;69197</title>
<path fill="none" stroke="black" d="M6580.34,-2076.32C6593.51,-2076.59 6606.56,-2077.22 6619.26,-2078.3 6621.92,-2078.53 6624.6,-2078.78 6627.31,-2079.06"/>
<polygon fill="black" stroke="black" points="6626.68,-2082.51 6637.02,-2080.16 6627.47,-2075.55 6626.68,-2082.51"/>
<text text-anchor="middle" x="6609.14" y="-2081.5" font-family="Times,serif" font-size="14.00">Yes</text>
</g>
<!-- 69199 -->
<g id="node22" class="node">
<title>69199</title>
<ellipse fill="none" stroke="black" cx="7678.79" cy="-1999.8" rx="111.74" ry="111.74"/>
<text text-anchor="middle" x="7678.79" y="-1994.75" font-family="Times,serif" font-size="14.00">Were the police contacted?</text>
</g>
<!-- 69197&#45;&gt;69199 -->
<g id="edge57" class="edge">
<title>69197&#45;&gt;69199</title>
<path fill="none" stroke="black" d="M6817.13,-2166.52C6841.5,-2184.1 6869.68,-2200.65 6898.58,-2209.8 7103.01,-2274.51 7176.7,-2274.79 7381.04,-2209.8 7458.97,-2185.01 7534.03,-2131.52 7589.17,-2084.73"/>
<polygon fill="black" stroke="black" points="7591.38,-2087.44 7596.69,-2078.27 7586.82,-2082.13 7591.38,-2087.44"/>
<text text-anchor="middle" x="7139.81" y="-2261.64" font-family="Times,serif" font-size="14.00">No</text>
</g>
<!-- 69198 -->
<g id="node23" class="node">
<title>69198</title>
<ellipse fill="none" stroke="black" cx="7139.81" cy="-1959.8" rx="241.23" ry="241.23"/>
<text text-anchor="middle" x="7139.81" y="-1954.75" font-family="Times,serif" font-size="14.00">What was the distance of the pilot from the prison perimeter?</text>
</g>
<!-- 69197&#45;&gt;69198 -->
<g id="edge58" class="edge">
<title>69197&#45;&gt;69198</title>
<path fill="none" stroke="black" d="M6837.15,-2065.15C6857.01,-2058.22 6878.75,-2050.62 6901.17,-2042.79"/>
<polygon fill="black" stroke="black" points="6902.15,-2046.16 6910.44,-2039.56 6899.84,-2039.55 6902.15,-2046.16"/>
<text text-anchor="middle" x="6870.45" y="-2057.04" font-family="Times,serif" font-size="14.00">Yes</text>
</g>
<!-- 69200 -->
<g id="node24" class="node">
<title>69200</title>
<ellipse fill="none" stroke="black" cx="8079.31" cy="-1999.8" rx="232.53" ry="232.53"/>
<text text-anchor="middle" x="8079.31" y="-1994.75" font-family="Times,serif" font-size="14.00">To the extent of your knowledge was the pilot apprhended?</text>
</g>
<!-- 69199&#45;&gt;69200 -->
<g id="edge64" class="edge">
<title>69199&#45;&gt;69200</title>
<path fill="none" stroke="black" d="M7790.8,-1999.8C7804.98,-1999.8 7819.9,-1999.8 7835.19,-1999.8"/>
<polygon fill="black" stroke="black" points="7834.87,-2003.3 7844.87,-1999.8 7834.87,-1996.3 7834.87,-2003.3"/>
<text text-anchor="middle" x="7818.66" y="-2003" font-family="Times,serif" font-size="14.00">No</text>
</g>
<!-- 69199&#45;&gt;69200 -->
<g id="edge65" class="edge">
<title>69199&#45;&gt;69200</title>
<path fill="none" stroke="black" d="M7789.22,-1981.17C7795.74,-1980.44 7802.22,-1979.8 7808.53,-1979.3 7817.6,-1978.58 7826.85,-1978.09 7836.19,-1977.79"/>
<polygon fill="black" stroke="black" points="7836.19,-1981.3 7846.1,-1977.56 7836.03,-1974.3 7836.19,-1981.3"/>
<text text-anchor="middle" x="7818.66" y="-1982.5" font-family="Times,serif" font-size="14.00">Yes</text>
</g>
<!-- 69198&#45;&gt;69199 -->
<g id="edge59" class="edge">
<title>69198&#45;&gt;69199</title>
<path fill="none" stroke="black" d="M7370.23,-2032.82C7379.91,-2034.72 7389.55,-2036.4 7399.04,-2037.8 7464.99,-2047.54 7483.06,-2047.33 7549.04,-2037.8 7552.91,-2037.24 7556.82,-2036.59 7560.75,-2035.87"/>
<polygon fill="black" stroke="black" points="7561.28,-2039.33 7570.4,-2033.94 7559.91,-2032.47 7561.28,-2039.33"/>
<text text-anchor="middle" x="7474.04" y="-2048.23" font-family="Times,serif" font-size="14.00">0 to less than 10 metres</text>
</g>
<!-- 69198&#45;&gt;69199 -->
<g id="edge60" class="edge">
<title>69198&#45;&gt;69199</title>
<path fill="none" stroke="black" d="M7378.47,-1996.04C7385.4,-1996.69 7392.27,-1997.28 7399.04,-1997.8 7450.19,-2001.73 7506.77,-2002.75 7555.51,-2002.59"/>
<polygon fill="black" stroke="black" points="7555.26,-2006.09 7565.24,-2002.54 7555.22,-1999.09 7555.26,-2006.09"/>
<text text-anchor="middle" x="7474.04" y="-2005.8" font-family="Times,serif" font-size="14.00">10 to less than 100 metres</text>
</g>
<!-- 69198&#45;&gt;69199 -->
<g id="edge61" class="edge">
<title>69198&#45;&gt;69199</title>
<path fill="none" stroke="black" d="M7381.35,-1964.9C7436.55,-1967.51 7494.91,-1971.43 7549.04,-1977.3 7551.86,-1977.6 7554.7,-1977.93 7557.57,-1978.28"/>
<polygon fill="black" stroke="black" points="7556.84,-1981.72 7567.21,-1979.53 7557.74,-1974.78 7556.84,-1981.72"/>
<text text-anchor="middle" x="7474.04" y="-1980.5" font-family="Times,serif" font-size="14.00">100 to less than 200 metres</text>
</g>
<!-- 69198&#45;&gt;69199 -->
<g id="edge62" class="edge">
<title>69198&#45;&gt;69199</title>
<path fill="none" stroke="black" d="M7379.82,-1932.56C7435.76,-1931.35 7494.83,-1934.3 7549.04,-1945.3 7554.7,-1946.45 7560.41,-1947.85 7566.12,-1949.45"/>
<polygon fill="black" stroke="black" points="7565.06,-1952.79 7575.65,-1952.33 7567.08,-1946.09 7565.06,-1952.79"/>
<text text-anchor="middle" x="7474.04" y="-1948.5" font-family="Times,serif" font-size="14.00">200 metres or more</text>
</g>
<!-- 69198&#45;&gt;69199 -->
<g id="edge63" class="edge">
<title>69198&#45;&gt;69199</title>
<path fill="none" stroke="black" d="M7373.79,-1899.84C7431.9,-1893.8 7493.46,-1895.2 7549.04,-1912.3 7559.7,-1915.58 7570.26,-1920.07 7580.49,-1925.3"/>
<polygon fill="black" stroke="black" points="7578.8,-1928.37 7589.26,-1930.04 7582.13,-1922.21 7578.8,-1928.37"/>
<text text-anchor="middle" x="7474.04" y="-1915.5" font-family="Times,serif" font-size="14.00">Unknown</text>
</g>
<!-- 69200&#45;&gt;END_NODE -->
<g id="edge66" class="edge">
<title>69200&#45;&gt;END_NODE</title>
<path fill="none" stroke="black" d="M8283.95,-1888.95C8312.01,-1865.37 8337.34,-1837.99 8355.35,-1806.8 8381.61,-1761.3 8398.97,-1404.51 8404.39,-1276.95"/>
<polygon fill="black" stroke="black" points="8407.88,-1277.34 8404.8,-1267.2 8400.88,-1277.05 8407.88,-1277.34"/>
<text text-anchor="middle" x="8342.6" y="-1839.78" font-family="Times,serif" font-size="14.00">No</text>
</g>
<!-- 69200&#45;&gt;END_NODE -->
<g id="edge67" class="edge">
<title>69200&#45;&gt;END_NODE</title>
<path fill="none" stroke="black" d="M8253.3,-1845.14C8275.8,-1818.3 8296.37,-1789.17 8311.85,-1758.8 8394.81,-1595.99 8405.99,-1372.45 8406.72,-1277.47"/>
<polygon fill="black" stroke="black" points="8410.22,-1277.52 8406.75,-1267.51 8403.22,-1277.5 8410.22,-1277.52"/>
<text text-anchor="middle" x="8342.6" y="-1722.82" font-family="Times,serif" font-size="14.00">Yes</text>
</g>
</g>
</svg>
