<?xml version="1.0" encoding="UTF-8" standalone="no"?>
<!DOCTYPE svg PUBLIC "-//W3C//DTD SVG 1.1//EN"
 "http://www.w3.org/Graphics/SVG/1.1/DTD/svg11.dtd">
<!-- Generated by graphviz version 12.1.1 (20240910.0053)
 -->
<!-- Title: DRONE_SIGHTING Pages: 1 -->
<svg width="8896pt" height="2357pt"
 viewBox="0.00 0.00 8896.06 2356.73" xmlns="http://www.w3.org/2000/svg" xmlns:xlink="http://www.w3.org/1999/xlink">
<g id="graph0" class="graph" transform="scale(1 1) rotate(0) translate(4 2352.73)">
<title>DRONE_SIGHTING</title>
<polygon fill="white" stroke="none" points="-4,4 -4,-2352.73 8892.06,-2352.73 8892.06,4 -4,4"/>
<!-- START_NODE -->
<g id="node1" class="node">
<title>START_NODE</title>
</g>
<!-- 69179 -->
<g id="node2" class="node">
<title>69179</title>
<ellipse fill="none" stroke="black" cx="254.17" cy="-2098.8" rx="140.92" ry="140.92"/>
<text text-anchor="middle" x="254.17" y="-2093.75" font-family="Times,serif" font-size="14.00">Was a drone sighted in mid&#45;flight?</text>
</g>
<!-- START_NODE&#45;&gt;69179 -->
<g id="edge1" class="edge">
<title>START_NODE&#45;&gt;69179</title>
<path fill="none" stroke="black" d="M53.83,-2098.8C66.65,-2098.8 83.27,-2098.8 101.45,-2098.8"/>
<polygon fill="black" stroke="black" points="101.44,-2102.3 111.44,-2098.8 101.44,-2095.3 101.44,-2102.3"/>
<text text-anchor="middle" x="83.62" y="-2102" font-family="Times,serif" font-size="14.00">start</text>
</g>
<!-- 69180 -->
<g id="node4" class="node">
<title>69180</title>
<ellipse fill="none" stroke="black" cx="564.75" cy="-2098.8" rx="108.16" ry="108.16"/>
<text text-anchor="middle" x="564.75" y="-2093.75" font-family="Times,serif" font-size="14.00">Number of drones sighted</text>
</g>
<!-- 69179&#45;&gt;69180 -->
<g id="edge2" class="edge">
<title>69179&#45;&gt;69180</title>
<path fill="none" stroke="black" d="M395.46,-2098.8C412.02,-2098.8 428.79,-2098.8 445.02,-2098.8"/>
<polygon fill="black" stroke="black" points="444.63,-2102.3 454.63,-2098.8 444.63,-2095.3 444.63,-2102.3"/>
<text text-anchor="middle" x="425.84" y="-2102" font-family="Times,serif" font-size="14.00">NO</text>
</g>
<!-- 69179&#45;&gt;69180 -->
<g id="edge3" class="edge">
<title>69179&#45;&gt;69180</title>
<path fill="none" stroke="black" d="M393.79,-2077.61C408.89,-2077 424.05,-2077.12 438.59,-2078.3 441.13,-2078.51 443.69,-2078.74 446.28,-2078.99"/>
<polygon fill="black" stroke="black" points="445.89,-2082.47 456.21,-2080.05 446.64,-2075.51 445.89,-2082.47"/>
<text text-anchor="middle" x="425.84" y="-2081.5" font-family="Times,serif" font-size="14.00">YES</text>
</g>
<!-- END_NODE -->
<g id="node3" class="node">
<title>END_NODE</title>
<ellipse fill="none" stroke="black" cx="8854.2" cy="-1231.8" rx="29.86" ry="29.86"/>
<ellipse fill="none" stroke="black" cx="8854.2" cy="-1231.8" rx="33.86" ry="33.86"/>
<text text-anchor="middle" x="8854.2" y="-1226.75" font-family="Times,serif" font-size="14.00">END</text>
</g>
<!-- 69181 -->
<g id="node5" class="node">
<title>69181</title>
<ellipse fill="none" stroke="black" cx="925.23" cy="-2098.8" rx="136.82" ry="136.82"/>
<text text-anchor="middle" x="925.23" y="-2093.75" font-family="Times,serif" font-size="14.00">Where were the drone(s) sighted?</text>
</g>
<!-- 69180&#45;&gt;69181 -->
<g id="edge4" class="edge">
<title>69180&#45;&gt;69181</title>
<path fill="none" stroke="black" d="M673.31,-2098.8C705.87,-2098.8 742.22,-2098.8 776.92,-2098.8"/>
<polygon fill="black" stroke="black" points="776.6,-2102.3 786.6,-2098.8 776.6,-2095.3 776.6,-2102.3"/>
<text text-anchor="middle" x="730.66" y="-2102" font-family="Times,serif" font-size="14.00">Please Specify</text>
</g>
<!-- 69182 -->
<g id="node6" class="node">
<title>69182</title>
<ellipse fill="none" stroke="black" cx="1555.74" cy="-2098.8" rx="249.93" ry="249.93"/>
<text text-anchor="middle" x="1555.74" y="-2093.75" font-family="Times,serif" font-size="14.00">For drone(s) sighted beyond the perimeter how close to the wall</text>
</g>
<!-- 69181&#45;&gt;69182 -->
<g id="edge5" class="edge">
<title>69181&#45;&gt;69182</title>
<path fill="none" stroke="black" d="M1062.22,-2098.8C1130.14,-2098.8 1214.65,-2098.8 1294.38,-2098.8"/>
<polygon fill="black" stroke="black" points="1294.09,-2102.3 1304.09,-2098.8 1294.09,-2095.3 1294.09,-2102.3"/>
<text text-anchor="middle" x="1183.93" y="-2102" font-family="Times,serif" font-size="14.00">Please Specify location of each Drone</text>
</g>
<!-- 69183 -->
<g id="node7" class="node">
<title>69183</title>
<ellipse fill="none" stroke="black" cx="2162.4" cy="-2098.8" rx="241.23" ry="241.23"/>
<text text-anchor="middle" x="2162.4" y="-2093.75" font-family="Times,serif" font-size="14.00">What were the weather conditions at the time of the sighting?</text>
</g>
<!-- 69182&#45;&gt;69183 -->
<g id="edge6" class="edge">
<title>69182&#45;&gt;69183</title>
<path fill="none" stroke="black" d="M1806.17,-2098.8C1840.37,-2098.8 1875.5,-2098.8 1909.74,-2098.8"/>
<polygon fill="black" stroke="black" points="1909.31,-2102.3 1919.31,-2098.8 1909.31,-2095.3 1909.31,-2102.3"/>
<text text-anchor="middle" x="1863.42" y="-2102" font-family="Times,serif" font-size="14.00">Please Specify</text>
</g>
<!-- 69184 -->
<g id="node8" class="node">
<title>69184</title>
<ellipse fill="none" stroke="black" cx="2636.51" cy="-2098.8" rx="117.37" ry="117.37"/>
<text text-anchor="middle" x="2636.51" y="-2093.75" font-family="Times,serif" font-size="14.00">Was the drone(s) recovered?</text>
</g>
<!-- 69183&#45;&gt;69184 -->
<g id="edge7" class="edge">
<title>69183&#45;&gt;69184</title>
<path fill="none" stroke="black" d="M2403.95,-2098.8C2439.68,-2098.8 2475.26,-2098.8 2507.44,-2098.8"/>
<polygon fill="black" stroke="black" points="2507.16,-2102.3 2517.16,-2098.8 2507.16,-2095.3 2507.16,-2102.3"/>
<text text-anchor="middle" x="2461.39" y="-2102" font-family="Times,serif" font-size="14.00">Please Specify</text>
</g>
<!-- 69190 -->
<g id="node9" class="node">
<title>69190</title>
<ellipse fill="none" stroke="black" cx="3361.61" cy="-2098.8" rx="175.72" ry="175.72"/>
<text text-anchor="middle" x="3361.61" y="-2093.75" font-family="Times,serif" font-size="14.00">What was the drone(s) type/airframe shape?</text>
</g>
<!-- 69184&#45;&gt;69190 -->
<g id="edge8" class="edge">
<title>69184&#45;&gt;69190</title>
<path fill="none" stroke="black" d="M2754.09,-2098.8C2867.43,-2098.8 3041.41,-2098.8 3174.02,-2098.8"/>
<polygon fill="black" stroke="black" points="3173.99,-2102.3 3183.99,-2098.8 3173.99,-2095.3 3173.99,-2102.3"/>
<text text-anchor="middle" x="2969.89" y="-2102" font-family="Times,serif" font-size="14.00">NO</text>
</g>
<!-- 69184&#45;&gt;69190 -->
<g id="edge9" class="edge">
<title>69184&#45;&gt;69190</title>
<path fill="none" stroke="black" d="M2752.83,-2080.05C2759.27,-2079.37 2765.65,-2078.77 2771.89,-2078.3 2947.38,-2064.99 2992.13,-2068.98 3167.89,-2078.3 3170.28,-2078.43 3172.69,-2078.56 3175.12,-2078.71"/>
<polygon fill="black" stroke="black" points="3174.84,-2082.2 3185.04,-2079.34 3175.29,-2075.21 3174.84,-2082.2"/>
<text text-anchor="middle" x="2969.89" y="-2081.5" font-family="Times,serif" font-size="14.00">YES &#45; PLEASE ADDITIONALLY LOG A SEPRATE FIND INCIDENT</text>
</g>
<!-- 69191 -->
<g id="node15" class="node">
<title>69191</title>
<ellipse fill="none" stroke="black" cx="3892.92" cy="-2098.8" rx="148.59" ry="148.59"/>
<text text-anchor="middle" x="3892.92" y="-2093.75" font-family="Times,serif" font-size="14.00">What was the drone(s) make/model?</text>
</g>
<!-- 69190&#45;&gt;69191 -->
<g id="edge15" class="edge">
<title>69190&#45;&gt;69191</title>
<path fill="none" stroke="black" d="M3529.33,-2152.19C3538.07,-2153.98 3546.77,-2155.54 3555.33,-2156.8 3630.52,-2167.87 3651.4,-2169.54 3726.33,-2156.8 3731.68,-2155.89 3737.08,-2154.83 3742.51,-2153.63"/>
<polygon fill="black" stroke="black" points="3743.27,-2157.05 3752.21,-2151.36 3741.67,-2150.24 3743.27,-2157.05"/>
<text text-anchor="middle" x="3640.83" y="-2168.94" font-family="Times,serif" font-size="14.00">FIXED WING / PLANE</text>
</g>
<!-- 69190&#45;&gt;69191 -->
<g id="edge16" class="edge">
<title>69190&#45;&gt;69191</title>
<path fill="none" stroke="black" d="M3536.94,-2115.82C3543.14,-2116.19 3549.29,-2116.52 3555.33,-2116.8 3631.25,-2120.34 3650.44,-2120.91 3726.33,-2116.8 3728.7,-2116.67 3731.08,-2116.53 3733.49,-2116.38"/>
<polygon fill="black" stroke="black" points="3733.56,-2119.89 3743.31,-2115.73 3733.1,-2112.9 3733.56,-2119.89"/>
<text text-anchor="middle" x="3640.83" y="-2122.87" font-family="Times,serif" font-size="14.00">MULTI&#45;COPTER 4 MOTORS</text>
</g>
<!-- 69190&#45;&gt;69191 -->
<g id="edge17" class="edge">
<title>69190&#45;&gt;69191</title>
<path fill="none" stroke="black" d="M3537.76,-2096.43C3543.69,-2096.38 3549.56,-2096.34 3555.33,-2096.3 3631.33,-2095.81 3650.33,-2095.73 3726.33,-2096.3 3728.39,-2096.32 3730.48,-2096.33 3732.57,-2096.35"/>
<polygon fill="black" stroke="black" points="3732.32,-2099.85 3742.35,-2096.44 3732.38,-2092.85 3732.32,-2099.85"/>
<text text-anchor="middle" x="3640.83" y="-2099.5" font-family="Times,serif" font-size="14.00">MULTI&#45;COPTER 6 MOTORS</text>
</g>
<!-- 69190&#45;&gt;69191 -->
<g id="edge18" class="edge">
<title>69190&#45;&gt;69191</title>
<path fill="none" stroke="black" d="M3536.38,-2076.63C3542.77,-2076.12 3549.1,-2075.68 3555.33,-2075.3 3631.19,-2070.69 3650.52,-2069.95 3726.33,-2075.3 3729.02,-2075.49 3731.73,-2075.7 3734.46,-2075.92"/>
<polygon fill="black" stroke="black" points="3733.98,-2079.39 3744.25,-2076.78 3734.6,-2072.42 3733.98,-2079.39"/>
<text text-anchor="middle" x="3640.83" y="-2078.5" font-family="Times,serif" font-size="14.00">UNKNOWN</text>
</g>
<!-- 69190&#45;&gt;69191 -->
<g id="edge19" class="edge">
<title>69190&#45;&gt;69191</title>
<path fill="none" stroke="black" d="M3532.18,-2054.63C3539.97,-2053.35 3547.72,-2052.22 3555.33,-2051.3 3630.77,-2042.14 3651.07,-2040.72 3726.33,-2051.3 3730.7,-2051.91 3735.12,-2052.62 3739.57,-2053.39"/>
<polygon fill="black" stroke="black" points="3738.7,-2056.79 3749.17,-2055.19 3739.99,-2049.91 3738.7,-2056.79"/>
<text text-anchor="middle" x="3640.83" y="-2054.5" font-family="Times,serif" font-size="14.00">OTHER (PLEASE SPECIFY)</text>
</g>
<!-- 69185 -->
<g id="node10" class="node">
<title>69185</title>
<ellipse fill="#dddddd" stroke="#dddddd" cx="8526.31" cy="-1573.8" rx="175.72" ry="175.72"/>
<text text-anchor="middle" x="8526.31" y="-1568.75" font-family="Times,serif" font-size="14.00">What was the drone(s) type/airframe shape?</text>
</g>
<!-- 69185&#45;&gt;END_NODE -->
<g id="edge10" class="edge">
<title>69185&#45;&gt;END_NODE</title>
<path fill="none" stroke="black" d="M8670.73,-1473.12C8701.7,-1447.87 8732.9,-1419.46 8758.85,-1389.8 8790.31,-1353.85 8817.21,-1305.99 8834.14,-1272.4"/>
<polygon fill="black" stroke="black" points="8837.09,-1274.33 8838.4,-1263.82 8830.82,-1271.22 8837.09,-1274.33"/>
<text text-anchor="middle" x="8789.6" y="-1369.56" font-family="Times,serif" font-size="14.00">Junk</text>
</g>
<!-- 69186 -->
<g id="node11" class="node">
<title>69186</title>
<ellipse fill="#dddddd" stroke="#dddddd" cx="8526.31" cy="-1231.8" rx="148.59" ry="148.59"/>
<text text-anchor="middle" x="8526.31" y="-1226.75" font-family="Times,serif" font-size="14.00">What was the drone(s) make/model?</text>
</g>
<!-- 69186&#45;&gt;END_NODE -->
<g id="edge11" class="edge">
<title>69186&#45;&gt;END_NODE</title>
<path fill="none" stroke="black" d="M8675,-1231.8C8723.57,-1231.8 8773.96,-1231.8 8808.72,-1231.8"/>
<polygon fill="black" stroke="black" points="8808.36,-1235.3 8818.36,-1231.8 8808.36,-1228.3 8808.36,-1235.3"/>
<text text-anchor="middle" x="8789.6" y="-1235" font-family="Times,serif" font-size="14.00">Junk</text>
</g>
<!-- 69187 -->
<g id="node12" class="node">
<title>69187</title>
<ellipse fill="#dddddd" stroke="#dddddd" cx="8526.31" cy="-875.8" rx="189.54" ry="189.54"/>
<text text-anchor="middle" x="8526.31" y="-870.75" font-family="Times,serif" font-size="14.00">What was the approximate size of the drone(s)?</text>
</g>
<!-- 69187&#45;&gt;END_NODE -->
<g id="edge12" class="edge">
<title>69187&#45;&gt;END_NODE</title>
<path fill="none" stroke="#dddddd" d="M8677.06,-991.32C8705.84,-1016.89 8734.55,-1045 8758.85,-1073.8 8789.65,-1110.31 8816.66,-1158.08 8833.8,-1191.49"/>
<polygon fill="#dddddd" stroke="#dddddd" points="8830.48,-1192.68 8838.11,-1200.02 8836.73,-1189.52 8830.48,-1192.68"/>
<text text-anchor="middle" x="8789.6" y="-1134.45" font-family="Times,serif" font-size="14.00">Junk</text>
</g>
<!-- 69188 -->
<g id="node13" class="node">
<title>69188</title>
<ellipse fill="#dddddd" stroke="#dddddd" cx="8526.31" cy="-478.8" rx="189.54" ry="189.54"/>
<text text-anchor="middle" x="8526.31" y="-473.75" font-family="Times,serif" font-size="14.00">What modifications were made to the drone(s)?</text>
</g>
<!-- 69188&#45;&gt;END_NODE -->
<g id="edge13" class="edge">
<title>69188&#45;&gt;END_NODE</title>
<path fill="none" stroke="black" d="M8683.31,-585.65C8712.42,-612.26 8739.67,-642.98 8758.85,-676.8 8808.49,-764.34 8839.32,-1070.17 8849.48,-1186.45"/>
<polygon fill="black" stroke="black" points="8845.98,-1186.58 8850.33,-1196.24 8852.95,-1185.98 8845.98,-1186.58"/>
<text text-anchor="middle" x="8789.6" y="-819.53" font-family="Times,serif" font-size="14.00">junk</text>
</g>
<!-- 69189 -->
<g id="node14" class="node">
<title>69189</title>
<ellipse fill="#dddddd" stroke="#dddddd" cx="8526.31" cy="-135.8" rx="135.8" ry="135.8"/>
<text text-anchor="middle" x="8526.31" y="-130.75" font-family="Times,serif" font-size="14.00">How was the drone(s) recovered?</text>
</g>
<!-- 69189&#45;&gt;END_NODE -->
<g id="edge14" class="edge">
<title>69189&#45;&gt;END_NODE</title>
<path fill="none" stroke="black" d="M8652.55,-186.31C8692.98,-208.88 8733.79,-239.64 8758.85,-279.8 8807.29,-357.45 8842.26,-1007.16 8851.05,-1186.25"/>
<polygon fill="black" stroke="black" points="8847.54,-1186.27 8851.53,-1196.08 8854.54,-1185.93 8847.54,-1186.27"/>
<text text-anchor="middle" x="8789.6" y="-504.39" font-family="Times,serif" font-size="14.00">junk</text>
</g>
<!-- 69192 -->
<g id="node16" class="node">
<title>69192</title>
<ellipse fill="none" stroke="black" cx="4504.81" cy="-2098.8" rx="189.54" ry="189.54"/>
<text text-anchor="middle" x="4504.81" y="-2093.75" font-family="Times,serif" font-size="14.00">What was the approximate size of the drone(s)?</text>
</g>
<!-- 69191&#45;&gt;69192 -->
<g id="edge20" class="edge">
<title>69191&#45;&gt;69192</title>
<path fill="none" stroke="black" d="M3989.17,-2212.23C4010.3,-2230.43 4034.07,-2246.61 4059.52,-2256.8 4157.61,-2296.09 4197.18,-2290.69 4297.27,-2256.8 4316.57,-2250.26 4335.48,-2241.12 4353.55,-2230.5"/>
<polygon fill="black" stroke="black" points="4354.89,-2233.78 4361.62,-2225.6 4351.25,-2227.79 4354.89,-2233.78"/>
<text text-anchor="middle" x="4178.39" y="-2287.48" font-family="Times,serif" font-size="14.00">Da&#45;Jiang Innovations (DJI) &#45; PHANTHOM</text>
</g>
<!-- 69191&#45;&gt;69192 -->
<g id="edge21" class="edge">
<title>69191&#45;&gt;69192</title>
<path fill="none" stroke="black" d="M4008.02,-2193.24C4024.49,-2202.86 4041.87,-2211.15 4059.52,-2216.8 4109.84,-2232.89 4246.2,-2230.36 4297.27,-2216.8 4309.46,-2213.56 4321.69,-2209.42 4333.76,-2204.63"/>
<polygon fill="black" stroke="black" points="4335.03,-2207.89 4342.93,-2200.84 4332.35,-2201.42 4335.03,-2207.89"/>
<text text-anchor="middle" x="4178.39" y="-2231.14" font-family="Times,serif" font-size="14.00">Da&#45;Jiang Innovations (DJI) &#45; INSPIRE</text>
</g>
<!-- 69191&#45;&gt;69192 -->
<g id="edge22" class="edge">
<title>69191&#45;&gt;69192</title>
<path fill="none" stroke="black" d="M4025.41,-2166.91C4036.74,-2170.87 4048.2,-2174.27 4059.52,-2176.8 4162.64,-2199.87 4193.32,-2195.77 4297.27,-2176.8 4304.07,-2175.56 4310.94,-2174.1 4317.84,-2172.47"/>
<polygon fill="black" stroke="black" points="4318.36,-2175.95 4327.22,-2170.13 4316.67,-2169.16 4318.36,-2175.95"/>
<text text-anchor="middle" x="4178.39" y="-2195.8" font-family="Times,serif" font-size="14.00">Da&#45;Jiang Innovations (DJI) &#45; MAVIC</text>
</g>
<!-- 69191&#45;&gt;69192 -->
<g id="edge23" class="edge">
<title>69191&#45;&gt;69192</title>
<path fill="none" stroke="black" d="M4037.64,-2133.83C4045.01,-2134.98 4052.34,-2135.99 4059.52,-2136.8 4164.51,-2148.69 4192.04,-2146.4 4297.27,-2136.8 4300.5,-2136.5 4303.76,-2136.18 4307.04,-2135.84"/>
<polygon fill="black" stroke="black" points="4307.2,-2139.34 4316.75,-2134.75 4306.42,-2132.39 4307.2,-2139.34"/>
<text text-anchor="middle" x="4178.39" y="-2148.08" font-family="Times,serif" font-size="14.00">Da&#45;Jiang Innovations (DJI) &#45; MINI</text>
</g>
<!-- 69191&#45;&gt;69192 -->
<g id="edge24" class="edge">
<title>69191&#45;&gt;69192</title>
<path fill="none" stroke="black" d="M4041.95,-2098.8C4120.57,-2098.8 4218.31,-2098.8 4303.61,-2098.8"/>
<polygon fill="black" stroke="black" points="4303.5,-2102.3 4313.5,-2098.8 4303.5,-2095.3 4303.5,-2102.3"/>
<text text-anchor="middle" x="4178.39" y="-2102" font-family="Times,serif" font-size="14.00">AUTEL EVO</text>
</g>
<!-- 69191&#45;&gt;69192 -->
<g id="edge25" class="edge">
<title>69191&#45;&gt;69192</title>
<path fill="none" stroke="black" d="M4040.56,-2079.67C4046.96,-2079.15 4053.3,-2078.68 4059.52,-2078.3 4164.98,-2071.8 4191.73,-2073.08 4297.27,-2078.3 4299.66,-2078.42 4302.06,-2078.54 4304.48,-2078.68"/>
<polygon fill="black" stroke="black" points="4304.18,-2082.17 4314.37,-2079.26 4304.59,-2075.18 4304.18,-2082.17"/>
<text text-anchor="middle" x="4178.39" y="-2081.5" font-family="Times,serif" font-size="14.00">PARROTT</text>
</g>
<!-- 69191&#45;&gt;69192 -->
<g id="edge26" class="edge">
<title>69191&#45;&gt;69192</title>
<path fill="none" stroke="black" d="M4035.68,-2057.21C4043.7,-2055.68 4051.69,-2054.36 4059.52,-2053.3 4164.24,-2039.17 4192.22,-2041.87 4297.27,-2053.3 4300.96,-2053.7 4304.69,-2054.14 4308.44,-2054.62"/>
<polygon fill="black" stroke="black" points="4307.87,-2058.08 4318.25,-2055.95 4308.81,-2051.14 4307.87,-2058.08"/>
<text text-anchor="middle" x="4178.39" y="-2056.5" font-family="Times,serif" font-size="14.00">SWELLPRO</text>
</g>
<!-- 69191&#45;&gt;69192 -->
<g id="edge27" class="edge">
<title>69191&#45;&gt;69192</title>
<path fill="none" stroke="black" d="M4026.45,-2032.55C4037.45,-2028.85 4048.56,-2025.68 4059.52,-2023.3 4162.78,-2000.87 4193.22,-2004.88 4297.27,-2023.3 4303.71,-2024.44 4310.22,-2025.77 4316.75,-2027.25"/>
<polygon fill="black" stroke="black" points="4315.74,-2030.61 4326.28,-2029.53 4317.37,-2023.8 4315.74,-2030.61"/>
<text text-anchor="middle" x="4178.39" y="-2026.5" font-family="Times,serif" font-size="14.00">YUNEEC</text>
</g>
<!-- 69191&#45;&gt;69192 -->
<g id="edge28" class="edge">
<title>69191&#45;&gt;69192</title>
<path fill="none" stroke="black" d="M4010.84,-2008.23C4026.53,-1999.7 4042.94,-1992.36 4059.52,-1987.3 4160.58,-1956.45 4194.82,-1961.41 4297.27,-1987.3 4308.49,-1990.14 4319.77,-1993.72 4330.96,-1997.84"/>
<polygon fill="black" stroke="black" points="4329.64,-2001.09 4340.23,-2001.41 4332.16,-1994.55 4329.64,-2001.09"/>
<text text-anchor="middle" x="4178.39" y="-1990.5" font-family="Times,serif" font-size="14.00">UNKNOWN</text>
</g>
<!-- 69191&#45;&gt;69192 -->
<g id="edge29" class="edge">
<title>69191&#45;&gt;69192</title>
<path fill="none" stroke="black" d="M3991.44,-1987.02C4012.07,-1969.97 4035.07,-1954.89 4059.52,-1945.3 4157.89,-1906.72 4196.95,-1912.1 4297.27,-1945.3 4315.7,-1951.4 4333.82,-1959.85 4351.21,-1969.68"/>
<polygon fill="black" stroke="black" points="4349.09,-1972.49 4359.49,-1974.51 4352.62,-1966.45 4349.09,-1972.49"/>
<text text-anchor="middle" x="4178.39" y="-1948.5" font-family="Times,serif" font-size="14.00">OTHER (PLEASE SPECIFY)</text>
</g>
<!-- 69193 -->
<g id="node17" class="node">
<title>69193</title>
<ellipse fill="none" stroke="black" cx="5080.39" cy="-2098.8" rx="189.54" ry="189.54"/>
<text text-anchor="middle" x="5080.39" y="-2093.75" font-family="Times,serif" font-size="14.00">What modifications were made to the drone(s)?</text>
</g>
<!-- 69192&#45;&gt;69193 -->
<g id="edge30" class="edge">
<title>69192&#45;&gt;69193</title>
<path fill="none" stroke="black" d="M4680.93,-2169.77C4691.45,-2172.52 4701.98,-2174.91 4712.35,-2176.8 4782.52,-2189.61 4802.67,-2189.61 4872.85,-2176.8 4879.65,-2175.56 4886.52,-2174.1 4893.42,-2172.47"/>
<polygon fill="black" stroke="black" points="4893.94,-2175.95 4902.8,-2170.13 4892.25,-2169.16 4893.94,-2175.95"/>
<text text-anchor="middle" x="4792.6" y="-2189.61" font-family="Times,serif" font-size="14.00">0 TO LESS THAN 0.5M</text>
</g>
<!-- 69192&#45;&gt;69193 -->
<g id="edge31" class="edge">
<title>69192&#45;&gt;69193</title>
<path fill="none" stroke="black" d="M4691.36,-2134.58C4698.44,-2135.43 4705.45,-2136.17 4712.35,-2136.8 4783.39,-2143.28 4801.81,-2143.28 4872.85,-2136.8 4876.08,-2136.5 4879.34,-2136.18 4882.62,-2135.84"/>
<polygon fill="black" stroke="black" points="4882.78,-2139.34 4892.32,-2134.75 4882,-2132.39 4882.78,-2139.34"/>
<text text-anchor="middle" x="4792.6" y="-2144.86" font-family="Times,serif" font-size="14.00">0.5M TO LESS THAN 1.0M</text>
</g>
<!-- 69192&#45;&gt;69193 -->
<g id="edge32" class="edge">
<title>69192&#45;&gt;69193</title>
<path fill="none" stroke="black" d="M4694.81,-2098.8C4753.84,-2098.8 4819.15,-2098.8 4878.94,-2098.8"/>
<polygon fill="black" stroke="black" points="4878.91,-2102.3 4888.91,-2098.8 4878.91,-2095.3 4878.91,-2102.3"/>
<text text-anchor="middle" x="4792.6" y="-2102" font-family="Times,serif" font-size="14.00">1.0M TO LESS THAN 2.0M</text>
</g>
<!-- 69192&#45;&gt;69193 -->
<g id="edge33" class="edge">
<title>69192&#45;&gt;69193</title>
<path fill="none" stroke="black" d="M4693.74,-2079.35C4700.01,-2078.96 4706.23,-2078.6 4712.35,-2078.3 4783.59,-2074.77 4801.6,-2074.77 4872.85,-2078.3 4875.24,-2078.42 4877.64,-2078.54 4880.06,-2078.68"/>
<polygon fill="black" stroke="black" points="4879.76,-2082.17 4889.95,-2079.26 4880.17,-2075.18 4879.76,-2082.17"/>
<text text-anchor="middle" x="4792.6" y="-2081.5" font-family="Times,serif" font-size="14.00">2.0M TO LESS THAN 3.0M</text>
</g>
<!-- 69192&#45;&gt;69193 -->
<g id="edge34" class="edge">
<title>69192&#45;&gt;69193</title>
<path fill="none" stroke="black" d="M4690.18,-2057.99C4697.65,-2056.97 4705.06,-2056.06 4712.35,-2055.3 4783.3,-2047.91 4801.9,-2047.91 4872.85,-2055.3 4876.49,-2055.68 4880.17,-2056.1 4883.86,-2056.55"/>
<polygon fill="black" stroke="black" points="4883.15,-2059.98 4893.52,-2057.8 4884.05,-2053.04 4883.15,-2059.98"/>
<text text-anchor="middle" x="4792.6" y="-2058.5" font-family="Times,serif" font-size="14.00">3.0M OR LONGER</text>
</g>
<!-- 69192&#45;&gt;69193 -->
<g id="edge35" class="edge">
<title>69192&#45;&gt;69193</title>
<path fill="none" stroke="black" d="M4683.74,-2034.96C4693.34,-2032.76 4702.92,-2030.84 4712.35,-2029.3 4782.74,-2017.77 4802.45,-2017.77 4872.85,-2029.3 4878.59,-2030.24 4884.39,-2031.32 4890.22,-2032.52"/>
<polygon fill="black" stroke="black" points="4889.46,-2035.93 4899.98,-2034.64 4890.95,-2029.09 4889.46,-2035.93"/>
<text text-anchor="middle" x="4792.6" y="-2032.5" font-family="Times,serif" font-size="14.00">UNKNOWN</text>
</g>
<!-- 69194 -->
<g id="node18" class="node">
<title>69194</title>
<ellipse fill="none" stroke="black" cx="5614.98" cy="-2098.8" rx="135.8" ry="135.8"/>
<text text-anchor="middle" x="5614.98" y="-2093.75" font-family="Times,serif" font-size="14.00">How was the drone(s) recovered?</text>
</g>
<!-- 69193&#45;&gt;69194 -->
<g id="edge36" class="edge">
<title>69193&#45;&gt;69194</title>
<path fill="none" stroke="black" d="M5249.14,-2185.68C5262.04,-2190.1 5275.05,-2193.9 5287.93,-2196.8 5363.04,-2213.72 5387.29,-2218.46 5461.18,-2196.8 5472.52,-2193.47 5483.82,-2189.02 5494.85,-2183.84"/>
<polygon fill="black" stroke="black" points="5496.12,-2187.11 5503.54,-2179.55 5493.02,-2180.84 5496.12,-2187.11"/>
<text text-anchor="middle" x="5374.55" y="-2214.51" font-family="Times,serif" font-size="14.00">ADDED HOOK</text>
</g>
<!-- 69193&#45;&gt;69194 -->
<g id="edge37" class="edge">
<title>69193&#45;&gt;69194</title>
<path fill="none" stroke="black" d="M5262.42,-2152.63C5271,-2154.23 5279.53,-2155.64 5287.93,-2156.8 5364.21,-2167.31 5385.44,-2170.69 5461.18,-2156.8 5466.79,-2155.77 5472.46,-2154.54 5478.15,-2153.16"/>
<polygon fill="black" stroke="black" points="5478.84,-2156.6 5487.64,-2150.69 5477.08,-2149.82 5478.84,-2156.6"/>
<text text-anchor="middle" x="5374.55" y="-2169.19" font-family="Times,serif" font-size="14.00">COVERED LIGHTS</text>
</g>
<!-- 69193&#45;&gt;69194 -->
<g id="edge38" class="edge">
<title>69193&#45;&gt;69194</title>
<path fill="none" stroke="black" d="M5269.61,-2115.89C5275.78,-2116.23 5281.9,-2116.54 5287.93,-2116.8 5364.85,-2120.15 5384.31,-2121.31 5461.18,-2116.8 5463.57,-2116.66 5465.99,-2116.51 5468.42,-2116.34"/>
<polygon fill="black" stroke="black" points="5468.67,-2119.83 5478.39,-2115.61 5468.16,-2112.85 5468.67,-2119.83"/>
<text text-anchor="middle" x="5374.55" y="-2122.96" font-family="Times,serif" font-size="14.00">DROP MECHANISM FITTED</text>
</g>
<!-- 69193&#45;&gt;69194 -->
<g id="edge39" class="edge">
<title>69193&#45;&gt;69194</title>
<path fill="none" stroke="black" d="M5270.2,-2096.42C5276.18,-2096.38 5282.1,-2096.34 5287.93,-2096.3 5364.92,-2095.83 5384.18,-2095.67 5461.18,-2096.3 5463.27,-2096.32 5465.39,-2096.34 5467.51,-2096.36"/>
<polygon fill="black" stroke="black" points="5467.45,-2099.85 5477.48,-2096.46 5467.52,-2092.85 5467.45,-2099.85"/>
<text text-anchor="middle" x="5374.55" y="-2099.5" font-family="Times,serif" font-size="14.00">NONE</text>
</g>
<!-- 69193&#45;&gt;69194 -->
<g id="edge40" class="edge">
<title>69193&#45;&gt;69194</title>
<path fill="none" stroke="black" d="M5269.02,-2076.53C5275.4,-2076.06 5281.71,-2075.65 5287.93,-2075.3 5364.8,-2070.94 5384.4,-2069.43 5461.18,-2075.3 5463.89,-2075.51 5466.62,-2075.73 5469.37,-2075.98"/>
<polygon fill="black" stroke="black" points="5468.98,-2079.46 5479.27,-2076.94 5469.66,-2072.49 5468.98,-2079.46"/>
<text text-anchor="middle" x="5374.55" y="-2078.5" font-family="Times,serif" font-size="14.00">PAINTED BLACK</text>
</g>
<!-- 69193&#45;&gt;69194 -->
<g id="edge41" class="edge">
<title>69193&#45;&gt;69194</title>
<path fill="none" stroke="black" d="M5265.14,-2054.32C5272.81,-2053.17 5280.43,-2052.15 5287.93,-2051.3 5364.43,-2042.62 5385.05,-2039.74 5461.18,-2051.3 5465.61,-2051.97 5470.09,-2052.75 5474.59,-2053.61"/>
<polygon fill="black" stroke="black" points="5473.84,-2057.03 5484.34,-2055.63 5475.26,-2050.18 5473.84,-2057.03"/>
<text text-anchor="middle" x="5374.55" y="-2054.5" font-family="Times,serif" font-size="14.00">TETHER ATTACHED</text>
</g>
<!-- 69193&#45;&gt;69194 -->
<g id="edge42" class="edge">
<title>69193&#45;&gt;69194</title>
<path fill="none" stroke="black" d="M5257.44,-2029.88C5267.66,-2027.31 5277.87,-2025.08 5287.93,-2023.3 5363.75,-2009.88 5386.19,-2005.79 5461.18,-2023.3 5469,-2025.13 5476.89,-2027.42 5484.73,-2030.05"/>
<polygon fill="black" stroke="black" points="5483.37,-2033.28 5493.96,-2033.33 5485.71,-2026.69 5483.37,-2033.28"/>
<text text-anchor="middle" x="5374.55" y="-2026.5" font-family="Times,serif" font-size="14.00">OTHER (PLEASE SPECIFY)</text>
</g>
<!-- 69195 -->
<g id="node19" class="node">
<title>69195</title>
<ellipse fill="none" stroke="black" cx="6048.14" cy="-2098.8" rx="149.62" ry="149.62"/>
<text text-anchor="middle" x="6048.14" y="-2093.75" font-family="Times,serif" font-size="14.00">Did the drone(s) carry any packages?</text>
</g>
<!-- 69194&#45;&gt;69195 -->
<g id="edge43" class="edge">
<title>69194&#45;&gt;69195</title>
<path fill="none" stroke="black" d="M5750.06,-2115.5C5756.38,-2116 5762.64,-2116.44 5768.78,-2116.8 5818.36,-2119.71 5830.93,-2119.47 5880.53,-2116.8 5882.91,-2116.67 5885.31,-2116.53 5887.73,-2116.38"/>
<polygon fill="black" stroke="black" points="5887.87,-2119.88 5897.62,-2115.73 5887.41,-2112.9 5887.87,-2119.88"/>
<text text-anchor="middle" x="5824.65" y="-2122.09" font-family="Times,serif" font-size="14.00">CRASHED</text>
</g>
<!-- 69194&#45;&gt;69195 -->
<g id="edge44" class="edge">
<title>69194&#45;&gt;69195</title>
<path fill="none" stroke="black" d="M5750.95,-2096.47C5756.98,-2096.41 5762.94,-2096.35 5768.78,-2096.3 5818.44,-2095.89 5830.86,-2095.93 5880.53,-2096.3 5882.6,-2096.32 5884.7,-2096.33 5886.8,-2096.35"/>
<polygon fill="black" stroke="black" points="5886.62,-2099.85 5896.66,-2096.44 5886.69,-2092.85 5886.62,-2099.85"/>
<text text-anchor="middle" x="5824.65" y="-2099.5" font-family="Times,serif" font-size="14.00">INTERCEPTED</text>
</g>
<!-- 69194&#45;&gt;69195 -->
<g id="edge45" class="edge">
<title>69194&#45;&gt;69195</title>
<path fill="none" stroke="black" d="M5749.17,-2077.09C5755.79,-2076.4 5762.35,-2075.79 5768.78,-2075.3 5818.3,-2071.51 5830.98,-2071.82 5880.53,-2075.3 5883.23,-2075.49 5885.96,-2075.7 5888.7,-2075.92"/>
<polygon fill="black" stroke="black" points="5888.3,-2079.4 5898.57,-2076.79 5888.91,-2072.42 5888.3,-2079.4"/>
<text text-anchor="middle" x="5824.65" y="-2078.5" font-family="Times,serif" font-size="14.00">NOT RECOVERED</text>
</g>
<!-- 69196 -->
<g id="node20" class="node">
<title>69196</title>
<ellipse fill="none" stroke="black" cx="6726.89" cy="-2098.8" rx="236.63" ry="236.63"/>
<text text-anchor="middle" x="6726.89" y="-2093.75" font-family="Times,serif" font-size="14.00">Were any photos or CCTV taken of the drone(s) or payload?</text>
</g>
<!-- 69195&#45;&gt;69196 -->
<g id="edge46" class="edge">
<title>69195&#45;&gt;69196</title>
<path fill="none" stroke="black" d="M6154.84,-2203.84C6173.81,-2217.33 6194.38,-2229.1 6215.76,-2236.8 6323.01,-2275.45 6361.78,-2264.91 6472.26,-2236.8 6485.68,-2233.39 6499.15,-2229.1 6512.51,-2224.18"/>
<polygon fill="black" stroke="black" points="6513.7,-2227.47 6521.79,-2220.63 6511.2,-2220.93 6513.7,-2227.47"/>
<text text-anchor="middle" x="6344.01" y="-2265.19" font-family="Times,serif" font-size="14.00">NO PACKAGE OBSERVED/RECOVERED</text>
</g>
<!-- 69195&#45;&gt;69196 -->
<g id="edge47" class="edge">
<title>69195&#45;&gt;69196</title>
<path fill="none" stroke="black" d="M6173.38,-2181.13C6187.24,-2187.48 6201.52,-2192.92 6215.76,-2196.8 6325.76,-2226.75 6360.19,-2217.7 6472.26,-2196.8 6480.32,-2195.3 6488.45,-2193.55 6496.6,-2191.59"/>
<polygon fill="black" stroke="black" points="6497.42,-2195 6506.27,-2189.17 6495.72,-2188.21 6497.42,-2195"/>
<text text-anchor="middle" x="6344.01" y="-2219.22" font-family="Times,serif" font-size="14.00">YES &#45; UNKNOWN</text>
</g>
<!-- 69195&#45;&gt;69196 -->
<g id="edge48" class="edge">
<title>69195&#45;&gt;69196</title>
<path fill="none" stroke="black" d="M6188.71,-2151.13C6197.79,-2153.36 6206.85,-2155.29 6215.76,-2156.8 6328.17,-2175.8 6358.98,-2169.59 6472.26,-2156.8 6476.5,-2156.32 6480.76,-2155.8 6485.05,-2155.24"/>
<polygon fill="black" stroke="black" points="6485.53,-2158.71 6494.95,-2153.87 6484.57,-2151.77 6485.53,-2158.71"/>
<text text-anchor="middle" x="6344.01" y="-2172.03" font-family="Times,serif" font-size="14.00">YES 0 TO 100G (MORE OPTIONS BELOW)</text>
</g>
<!-- 69195&#45;&gt;69196 -->
<g id="edge49" class="edge">
<title>69195&#45;&gt;69196</title>
<path fill="none" stroke="black" d="M6197.16,-2115.63C6203.44,-2116.08 6209.66,-2116.47 6215.76,-2116.8 6329.6,-2122.93 6358.33,-2120.84 6472.26,-2116.8 6474.63,-2116.72 6477.01,-2116.63 6479.41,-2116.53"/>
<polygon fill="black" stroke="black" points="6479.31,-2120.04 6489.16,-2116.13 6479.03,-2113.05 6479.31,-2120.04"/>
<text text-anchor="middle" x="6344.01" y="-2123.85" font-family="Times,serif" font-size="14.00">YES 101G TO 200G</text>
</g>
<!-- 69195&#45;&gt;69196 -->
<g id="edge50" class="edge">
<title>69195&#45;&gt;69196</title>
<path fill="none" stroke="black" d="M6198.12,-2096.45C6204.08,-2096.4 6209.98,-2096.34 6215.76,-2096.3 6329.76,-2095.44 6358.26,-2095.74 6472.26,-2096.3 6474.36,-2096.31 6476.47,-2096.32 6478.58,-2096.33"/>
<polygon fill="black" stroke="black" points="6478.44,-2099.83 6488.46,-2096.39 6478.48,-2092.83 6478.44,-2099.83"/>
<text text-anchor="middle" x="6344.01" y="-2099.5" font-family="Times,serif" font-size="14.00">YES 201G TO 300G</text>
</g>
<!-- 69195&#45;&gt;69196 -->
<g id="edge51" class="edge">
<title>69195&#45;&gt;69196</title>
<path fill="none" stroke="black" d="M6196.21,-2076.92C6202.81,-2076.3 6209.35,-2075.75 6215.76,-2075.3 6329.48,-2067.32 6358.38,-2070.04 6472.26,-2075.3 6474.68,-2075.41 6477.11,-2075.53 6479.55,-2075.65"/>
<polygon fill="black" stroke="black" points="6479.35,-2079.15 6489.52,-2076.19 6479.73,-2072.16 6479.35,-2079.15"/>
<text text-anchor="middle" x="6344.01" y="-2078.5" font-family="Times,serif" font-size="14.00">YES 301G TO 400G</text>
</g>
<!-- 69195&#45;&gt;69196 -->
<g id="edge52" class="edge">
<title>69195&#45;&gt;69196</title>
<path fill="none" stroke="black" d="M6191.24,-2053.65C6199.48,-2051.95 6207.7,-2050.47 6215.76,-2049.3 6328.58,-2032.9 6358.79,-2038.33 6472.26,-2049.3 6475.95,-2049.66 6479.66,-2050.04 6483.39,-2050.45"/>
<polygon fill="black" stroke="black" points="6482.79,-2053.91 6493.13,-2051.59 6483.6,-2046.95 6482.79,-2053.91"/>
<text text-anchor="middle" x="6344.01" y="-2052.5" font-family="Times,serif" font-size="14.00">YES 401G TO 500G</text>
</g>
<!-- 69195&#45;&gt;69196 -->
<g id="edge53" class="edge">
<title>69195&#45;&gt;69196</title>
<path fill="none" stroke="black" d="M6180.42,-2028.85C6192.14,-2024.62 6204.02,-2020.99 6215.76,-2018.3 6326.89,-1992.86 6359.61,-2000.85 6472.26,-2018.3 6478.4,-2019.25 6484.59,-2020.32 6490.81,-2021.5"/>
<polygon fill="black" stroke="black" points="6490.06,-2024.92 6500.55,-2023.44 6491.43,-2018.06 6490.06,-2024.92"/>
<text text-anchor="middle" x="6344.01" y="-2021.5" font-family="Times,serif" font-size="14.00">YES 501G TO 1000G</text>
</g>
<!-- 69195&#45;&gt;69196 -->
<g id="edge54" class="edge">
<title>69195&#45;&gt;69196</title>
<path fill="none" stroke="black" d="M6164.51,-2004.47C6180.93,-1995.02 6198.22,-1986.86 6215.76,-1981.3 6324.43,-1946.84 6360.93,-1956.76 6472.26,-1981.3 6482.73,-1983.61 6493.27,-1986.39 6503.81,-1989.55"/>
<polygon fill="black" stroke="black" points="6502.75,-1992.88 6513.33,-1992.52 6504.83,-1986.2 6502.75,-1992.88"/>
<text text-anchor="middle" x="6344.01" y="-1984.5" font-family="Times,serif" font-size="14.00">YES MORE THAN 1001G</text>
</g>
<!-- 69197 -->
<g id="node21" class="node">
<title>69197</title>
<ellipse fill="none" stroke="black" cx="7127.55" cy="-2098.8" rx="102.53" ry="102.53"/>
<text text-anchor="middle" x="7127.55" y="-2093.75" font-family="Times,serif" font-size="14.00">Was the pilot identified?</text>
</g>
<!-- 69196&#45;&gt;69197 -->
<g id="edge55" class="edge">
<title>69196&#45;&gt;69197</title>
<path fill="none" stroke="black" d="M6963.82,-2098.8C6980.87,-2098.8 6997.54,-2098.8 7013.33,-2098.8"/>
<polygon fill="black" stroke="black" points="7013.14,-2102.3 7023.14,-2098.8 7013.14,-2095.3 7013.14,-2102.3"/>
<text text-anchor="middle" x="6994.26" y="-2102" font-family="Times,serif" font-size="14.00">NO</text>
</g>
<!-- 69196&#45;&gt;69197 -->
<g id="edge56" class="edge">
<title>69196&#45;&gt;69197</title>
<path fill="none" stroke="black" d="M6962.83,-2076.19C6977.79,-2076.41 6992.61,-2077.07 7007.01,-2078.3 7009.67,-2078.53 7012.35,-2078.78 7015.06,-2079.06"/>
<polygon fill="black" stroke="black" points="7014.43,-2082.51 7024.77,-2080.16 7015.22,-2075.55 7014.43,-2082.51"/>
<text text-anchor="middle" x="6994.26" y="-2081.5" font-family="Times,serif" font-size="14.00">YES</text>
</g>
<!-- 69199 -->
<g id="node22" class="node">
<title>69199</title>
<ellipse fill="none" stroke="black" cx="8120.54" cy="-1999.8" rx="111.74" ry="111.74"/>
<text text-anchor="middle" x="8120.54" y="-1994.75" font-family="Times,serif" font-size="14.00">Were the police contacted?</text>
</g>
<!-- 69197&#45;&gt;69199 -->
<g id="edge57" class="edge">
<title>69197&#45;&gt;69199</title>
<path fill="none" stroke="black" d="M7206.06,-2165.38C7231.63,-2183.4 7261.31,-2200.47 7291.58,-2209.8 7496.5,-2272.94 7567.56,-2267.63 7774.04,-2209.8 7866.36,-2183.95 7958.51,-2125.91 8024.4,-2077.38"/>
<polygon fill="black" stroke="black" points="8026.36,-2080.28 8032.3,-2071.51 8022.19,-2074.66 8026.36,-2080.28"/>
<text text-anchor="middle" x="7532.81" y="-2258.38" font-family="Times,serif" font-size="14.00">NO</text>
</g>
<!-- 69198 -->
<g id="node23" class="node">
<title>69198</title>
<ellipse fill="none" stroke="black" cx="7532.81" cy="-1959.8" rx="241.23" ry="241.23"/>
<text text-anchor="middle" x="7532.81" y="-1954.75" font-family="Times,serif" font-size="14.00">What was the distance of the pilot from the prison perimeter?</text>
</g>
<!-- 69197&#45;&gt;69198 -->
<g id="edge58" class="edge">
<title>69197&#45;&gt;69198</title>
<path fill="none" stroke="black" d="M7224.88,-2065.59C7246.09,-2058.28 7269.46,-2050.23 7293.55,-2041.92"/>
<polygon fill="black" stroke="black" points="7294.55,-2045.28 7302.86,-2038.72 7292.26,-2038.67 7294.55,-2045.28"/>
<text text-anchor="middle" x="7260.83" y="-2057.04" font-family="Times,serif" font-size="14.00">YES</text>
</g>
<!-- 69200 -->
<g id="node24" class="node">
<title>69200</title>
<ellipse fill="none" stroke="black" cx="8526.31" cy="-1999.8" rx="232.53" ry="232.53"/>
<text text-anchor="middle" x="8526.31" y="-1994.75" font-family="Times,serif" font-size="14.00">To the extent of your knowledge was the pilot apprhended?</text>
</g>
<!-- 69199&#45;&gt;69200 -->
<g id="edge64" class="edge">
<title>69199&#45;&gt;69200</title>
<path fill="none" stroke="black" d="M8232.67,-1999.8C8248.38,-1999.8 8265,-1999.8 8282.04,-1999.8"/>
<polygon fill="black" stroke="black" points="8281.78,-2003.3 8291.78,-1999.8 8281.78,-1996.3 8281.78,-2003.3"/>
<text text-anchor="middle" x="8263.03" y="-2003" font-family="Times,serif" font-size="14.00">NO</text>
</g>
<!-- 69199&#45;&gt;69200 -->
<g id="edge65" class="edge">
<title>69199&#45;&gt;69200</title>
<path fill="none" stroke="black" d="M8230.97,-1981.17C8237.49,-1980.44 8243.97,-1979.8 8250.28,-1979.3 8261.11,-1978.44 8272.18,-1977.9 8283.36,-1977.62"/>
<polygon fill="black" stroke="black" points="8283.13,-1981.12 8293.07,-1977.45 8283.01,-1974.13 8283.13,-1981.12"/>
<text text-anchor="middle" x="8263.03" y="-1982.5" font-family="Times,serif" font-size="14.00">YES</text>
</g>
<!-- 69198&#45;&gt;69199 -->
<g id="edge59" class="edge">
<title>69198&#45;&gt;69199</title>
<path fill="none" stroke="black" d="M7763.23,-2032.82C7772.91,-2034.72 7782.55,-2036.4 7792.04,-2037.8 7879.43,-2050.71 7903.37,-2050.43 7990.79,-2037.8 7994.66,-2037.24 7998.57,-2036.59 8002.5,-2035.87"/>
<polygon fill="black" stroke="black" points="8003.03,-2039.33 8012.15,-2033.94 8001.66,-2032.47 8003.03,-2039.33"/>
<text text-anchor="middle" x="7891.42" y="-2050.58" font-family="Times,serif" font-size="14.00">0 TO LESS THAN 10 METRES</text>
</g>
<!-- 69198&#45;&gt;69199 -->
<g id="edge60" class="edge">
<title>69198&#45;&gt;69199</title>
<path fill="none" stroke="black" d="M7771.47,-1996.05C7778.4,-1996.7 7785.27,-1997.28 7792.04,-1997.8 7859.69,-2002.96 7935.43,-2003.74 7997.01,-2003.11"/>
<polygon fill="black" stroke="black" points="7996.87,-2006.61 8006.83,-2002.99 7996.79,-1999.61 7996.87,-2006.61"/>
<text text-anchor="middle" x="7891.42" y="-2006.5" font-family="Times,serif" font-size="14.00">10 TO LESS THAN 100 METRES</text>
</g>
<!-- 69198&#45;&gt;69199 -->
<g id="edge61" class="edge">
<title>69198&#45;&gt;69199</title>
<path fill="none" stroke="black" d="M7774.38,-1962.93C7844.31,-1965.49 7920.72,-1969.87 7990.79,-1977.3 7993.61,-1977.6 7996.45,-1977.92 7999.32,-1978.26"/>
<polygon fill="black" stroke="black" points="7998.6,-1981.7 8008.96,-1979.5 7999.48,-1974.76 7998.6,-1981.7"/>
<text text-anchor="middle" x="7891.42" y="-1980.5" font-family="Times,serif" font-size="14.00">100 TO LESS THAN 200 METRES</text>
</g>
<!-- 69198&#45;&gt;69199 -->
<g id="edge62" class="edge">
<title>69198&#45;&gt;69199</title>
<path fill="none" stroke="black" d="M7772.56,-1929.49C7843.41,-1926.31 7920.77,-1928.61 7990.79,-1943.3 7996.77,-1944.55 8002.8,-1946.1 8008.83,-1947.87"/>
<polygon fill="black" stroke="black" points="8007.62,-1951.16 8018.21,-1950.83 8009.72,-1944.48 8007.62,-1951.16"/>
<text text-anchor="middle" x="7891.42" y="-1946.5" font-family="Times,serif" font-size="14.00">200 METRES OR MORE</text>
</g>
<!-- 69198&#45;&gt;69199 -->
<g id="edge63" class="edge">
<title>69198&#45;&gt;69199</title>
<path fill="none" stroke="black" d="M7765.65,-1895.65C7838.96,-1885.26 7919.43,-1884.32 7990.79,-1907.3 8002.33,-1911.01 8013.7,-1916.19 8024.63,-1922.2"/>
<polygon fill="black" stroke="black" points="8022.82,-1925.2 8033.22,-1927.19 8026.33,-1919.14 8022.82,-1925.2"/>
<text text-anchor="middle" x="7891.42" y="-1910.5" font-family="Times,serif" font-size="14.00">UNKNOWN</text>
</g>
<!-- 69200&#45;&gt;END_NODE -->
<g id="edge66" class="edge">
<title>69200&#45;&gt;END_NODE</title>
<path fill="none" stroke="black" d="M8730.95,-1888.95C8759.01,-1865.37 8784.34,-1837.99 8802.35,-1806.8 8828.61,-1761.3 8845.97,-1404.51 8851.39,-1276.95"/>
<polygon fill="black" stroke="black" points="8854.88,-1277.34 8851.8,-1267.2 8847.88,-1277.05 8854.88,-1277.34"/>
<text text-anchor="middle" x="8789.6" y="-1839.78" font-family="Times,serif" font-size="14.00">NO</text>
</g>
<!-- 69200&#45;&gt;END_NODE -->
<g id="edge67" class="edge">
<title>69200&#45;&gt;END_NODE</title>
<path fill="none" stroke="black" d="M8700.3,-1845.14C8722.8,-1818.3 8743.37,-1789.17 8758.85,-1758.8 8841.81,-1595.99 8852.99,-1372.45 8853.72,-1277.47"/>
<polygon fill="black" stroke="black" points="8857.22,-1277.52 8853.75,-1267.51 8850.22,-1277.5 8857.22,-1277.52"/>
<text text-anchor="middle" x="8789.6" y="-1722.82" font-family="Times,serif" font-size="14.00">YES</text>
</g>
</g>
</svg>
