<?xml version="1.0" encoding="UTF-8" standalone="no"?>
<!DOCTYPE svg PUBLIC "-//W3C//DTD SVG 1.1//EN"
 "http://www.w3.org/Graphics/SVG/1.1/DTD/svg11.dtd">
<!-- Generated by graphviz version 12.1.1 (20240910.0053)
 -->
<!-- Title: DRONE_SIGHTING Pages: 1 -->
<svg width="8444pt" height="2357pt"
 viewBox="0.00 0.00 8443.81 2356.73" xmlns="http://www.w3.org/2000/svg" xmlns:xlink="http://www.w3.org/1999/xlink">
<g id="graph0" class="graph" transform="scale(1 1) rotate(0) translate(4 2352.73)">
<title>DRONE_SIGHTING</title>
<polygon fill="white" stroke="none" points="-4,4 -4,-2352.73 8439.81,-2352.73 8439.81,4 -4,4"/>
<!-- START_NODE -->
<g id="node1" class="node">
<title>START_NODE</title>
</g>
<!-- 69179 -->
<g id="node2" class="node">
<title>69179</title>
<ellipse fill="none" stroke="black" cx="254.17" cy="-2098.8" rx="140.92" ry="140.92"/>
<text text-anchor="middle" x="254.17" y="-2093.75" font-family="Times,serif" font-size="14.00">Was a drone sighted in mid&#45;flight?</text>
</g>
<!-- START_NODE&#45;&gt;69179 -->
<g id="edge1" class="edge">
<title>START_NODE&#45;&gt;69179</title>
<path fill="none" stroke="black" d="M53.83,-2098.8C66.65,-2098.8 83.27,-2098.8 101.45,-2098.8"/>
<polygon fill="black" stroke="black" points="101.44,-2102.3 111.44,-2098.8 101.44,-2095.3 101.44,-2102.3"/>
<text text-anchor="middle" x="83.62" y="-2102" font-family="Times,serif" font-size="14.00">start</text>
</g>
<!-- 69180 -->
<g id="node4" class="node">
<title>69180</title>
<ellipse fill="none" stroke="black" cx="559.5" cy="-2098.8" rx="108.16" ry="108.16"/>
<text text-anchor="middle" x="559.5" y="-2093.75" font-family="Times,serif" font-size="14.00">Number of drones sighted</text>
</g>
<!-- 69179&#45;&gt;69180 -->
<g id="edge2" class="edge">
<title>69179&#45;&gt;69180</title>
<path fill="none" stroke="black" d="M395.29,-2098.8C410.26,-2098.8 425.38,-2098.8 440.06,-2098.8"/>
<polygon fill="black" stroke="black" points="439.68,-2102.3 449.68,-2098.8 439.68,-2095.3 439.68,-2102.3"/>
<text text-anchor="middle" x="423.21" y="-2102" font-family="Times,serif" font-size="14.00">No</text>
</g>
<!-- 69179&#45;&gt;69180 -->
<g id="edge3" class="edge">
<title>69179&#45;&gt;69180</title>
<path fill="none" stroke="black" d="M393.68,-2077.53C407.07,-2077.08 420.46,-2077.25 433.34,-2078.3 435.88,-2078.51 438.44,-2078.74 441.03,-2078.99"/>
<polygon fill="black" stroke="black" points="440.64,-2082.47 450.96,-2080.05 441.39,-2075.51 440.64,-2082.47"/>
<text text-anchor="middle" x="423.21" y="-2081.5" font-family="Times,serif" font-size="14.00">Yes</text>
</g>
<!-- END_NODE -->
<g id="node3" class="node">
<title>END_NODE</title>
<ellipse fill="none" stroke="black" cx="8401.95" cy="-1231.8" rx="29.86" ry="29.86"/>
<ellipse fill="none" stroke="black" cx="8401.95" cy="-1231.8" rx="33.86" ry="33.86"/>
<text text-anchor="middle" x="8401.95" y="-1226.75" font-family="Times,serif" font-size="14.00">END</text>
</g>
<!-- 69181 -->
<g id="node5" class="node">
<title>69181</title>
<ellipse fill="none" stroke="black" cx="917.73" cy="-2098.8" rx="136.82" ry="136.82"/>
<text text-anchor="middle" x="917.73" y="-2093.75" font-family="Times,serif" font-size="14.00">Where were the drone(s) sighted?</text>
</g>
<!-- 69180&#45;&gt;69181 -->
<g id="edge4" class="edge">
<title>69180&#45;&gt;69181</title>
<path fill="none" stroke="black" d="M667.86,-2098.8C699.71,-2098.8 735.15,-2098.8 769.07,-2098.8"/>
<polygon fill="black" stroke="black" points="769,-2102.3 779,-2098.8 769,-2095.3 769,-2102.3"/>
<text text-anchor="middle" x="724.28" y="-2102" font-family="Times,serif" font-size="14.00">Please specify</text>
</g>
<!-- 69182 -->
<g id="node6" class="node">
<title>69182</title>
<ellipse fill="none" stroke="black" cx="1542.99" cy="-2098.8" rx="249.93" ry="249.93"/>
<text text-anchor="middle" x="1542.99" y="-2093.75" font-family="Times,serif" font-size="14.00">For drone(s) sighted beyond the perimeter how close to the wall</text>
</g>
<!-- 69181&#45;&gt;69182 -->
<g id="edge5" class="edge">
<title>69181&#45;&gt;69182</title>
<path fill="none" stroke="black" d="M1054.74,-2098.8C1121.14,-2098.8 1203.33,-2098.8 1281.18,-2098.8"/>
<polygon fill="black" stroke="black" points="1281.12,-2102.3 1291.12,-2098.8 1281.12,-2095.3 1281.12,-2102.3"/>
<text text-anchor="middle" x="1173.81" y="-2102" font-family="Times,serif" font-size="14.00">Please specify location of each drone</text>
</g>
<!-- 69183 -->
<g id="node7" class="node">
<title>69183</title>
<ellipse fill="none" stroke="black" cx="2147.4" cy="-2098.8" rx="241.23" ry="241.23"/>
<text text-anchor="middle" x="2147.4" y="-2093.75" font-family="Times,serif" font-size="14.00">What were the weather conditions at the time of the sighting?</text>
</g>
<!-- 69182&#45;&gt;69183 -->
<g id="edge6" class="edge">
<title>69182&#45;&gt;69183</title>
<path fill="none" stroke="black" d="M1793.36,-2098.8C1826.81,-2098.8 1861.13,-2098.8 1894.61,-2098.8"/>
<polygon fill="black" stroke="black" points="1894.42,-2102.3 1904.42,-2098.8 1894.42,-2095.3 1894.42,-2102.3"/>
<text text-anchor="middle" x="1849.55" y="-2102" font-family="Times,serif" font-size="14.00">Please specify</text>
</g>
<!-- 69184 -->
<g id="node8" class="node">
<title>69184</title>
<ellipse fill="none" stroke="black" cx="2619.26" cy="-2098.8" rx="117.37" ry="117.37"/>
<text text-anchor="middle" x="2619.26" y="-2093.75" font-family="Times,serif" font-size="14.00">Was the drone(s) recovered?</text>
</g>
<!-- 69183&#45;&gt;69184 -->
<g id="edge7" class="edge">
<title>69183&#45;&gt;69184</title>
<path fill="none" stroke="black" d="M2388.84,-2098.8C2423.83,-2098.8 2458.65,-2098.8 2490.21,-2098.8"/>
<polygon fill="black" stroke="black" points="2490.17,-2102.3 2500.17,-2098.8 2490.17,-2095.3 2490.17,-2102.3"/>
<text text-anchor="middle" x="2445.26" y="-2102" font-family="Times,serif" font-size="14.00">Please specify</text>
</g>
<!-- 69190 -->
<g id="node9" class="node">
<title>69190</title>
<ellipse fill="none" stroke="black" cx="3228.11" cy="-2098.8" rx="175.72" ry="175.72"/>
<text text-anchor="middle" x="3228.11" y="-2093.75" font-family="Times,serif" font-size="14.00">What was the drone(s) type/airframe shape?</text>
</g>
<!-- 69184&#45;&gt;69190 -->
<g id="edge8" class="edge">
<title>69184&#45;&gt;69190</title>
<path fill="none" stroke="black" d="M2736.91,-2098.8C2822.85,-2098.8 2941.52,-2098.8 3040.57,-2098.8"/>
<polygon fill="black" stroke="black" points="3040.41,-2102.3 3050.41,-2098.8 3040.41,-2095.3 3040.41,-2102.3"/>
<text text-anchor="middle" x="2894.51" y="-2102" font-family="Times,serif" font-size="14.00">No</text>
</g>
<!-- 69184&#45;&gt;69190 -->
<g id="edge9" class="edge">
<title>69184&#45;&gt;69190</title>
<path fill="none" stroke="black" d="M2735.58,-2080.05C2742.02,-2079.37 2748.4,-2078.77 2754.64,-2078.3 2878.61,-2068.9 2910.23,-2071.71 3034.39,-2078.3 3036.78,-2078.43 3039.19,-2078.56 3041.62,-2078.71"/>
<polygon fill="black" stroke="black" points="3041.34,-2082.2 3051.54,-2079.34 3041.79,-2075.21 3041.34,-2082.2"/>
<text text-anchor="middle" x="2894.51" y="-2081.5" font-family="Times,serif" font-size="14.00">Yes &#45; please additionally log a seprate find incident</text>
</g>
<!-- 69191 -->
<g id="node15" class="node">
<title>69191</title>
<ellipse fill="none" stroke="black" cx="3709.92" cy="-2098.8" rx="148.59" ry="148.59"/>
<text text-anchor="middle" x="3709.92" y="-2093.75" font-family="Times,serif" font-size="14.00">What was the drone(s) make/model?</text>
</g>
<!-- 69190&#45;&gt;69191 -->
<g id="edge15" class="edge">
<title>69190&#45;&gt;69191</title>
<path fill="none" stroke="black" d="M3395.83,-2152.19C3404.57,-2153.98 3413.27,-2155.54 3421.83,-2156.8 3475.25,-2164.66 3490.09,-2165.85 3543.33,-2156.8 3548.68,-2155.89 3554.08,-2154.83 3559.51,-2153.63"/>
<polygon fill="black" stroke="black" points="3560.27,-2157.05 3569.21,-2151.36 3558.67,-2150.24 3560.27,-2157.05"/>
<text text-anchor="middle" x="3482.58" y="-2166.35" font-family="Times,serif" font-size="14.00">Fixed wing / plane</text>
</g>
<!-- 69190&#45;&gt;69191 -->
<g id="edge16" class="edge">
<title>69190&#45;&gt;69191</title>
<path fill="none" stroke="black" d="M3403.44,-2115.82C3409.64,-2116.19 3415.79,-2116.52 3421.83,-2116.8 3475.77,-2119.31 3489.41,-2119.72 3543.33,-2116.8 3545.7,-2116.67 3548.08,-2116.53 3550.49,-2116.38"/>
<polygon fill="black" stroke="black" points="3550.56,-2119.89 3560.31,-2115.73 3550.1,-2112.9 3550.56,-2119.89"/>
<text text-anchor="middle" x="3482.58" y="-2122.04" font-family="Times,serif" font-size="14.00">Multi&#45;copter 4 motors</text>
</g>
<!-- 69190&#45;&gt;69191 -->
<g id="edge17" class="edge">
<title>69190&#45;&gt;69191</title>
<path fill="none" stroke="black" d="M3404.26,-2096.43C3410.19,-2096.38 3416.06,-2096.34 3421.83,-2096.3 3475.83,-2095.95 3489.33,-2095.89 3543.33,-2096.3 3545.39,-2096.32 3547.48,-2096.33 3549.57,-2096.35"/>
<polygon fill="black" stroke="black" points="3549.32,-2099.85 3559.35,-2096.44 3549.38,-2092.85 3549.32,-2099.85"/>
<text text-anchor="middle" x="3482.58" y="-2099.5" font-family="Times,serif" font-size="14.00">Multi&#45;copter 6 motors</text>
</g>
<!-- 69190&#45;&gt;69191 -->
<g id="edge18" class="edge">
<title>69190&#45;&gt;69191</title>
<path fill="none" stroke="black" d="M3402.88,-2076.63C3409.27,-2076.12 3415.6,-2075.68 3421.83,-2075.3 3475.73,-2072.03 3489.46,-2071.5 3543.33,-2075.3 3546.02,-2075.49 3548.73,-2075.7 3551.46,-2075.92"/>
<polygon fill="black" stroke="black" points="3550.98,-2079.39 3561.25,-2076.78 3551.6,-2072.42 3550.98,-2079.39"/>
<text text-anchor="middle" x="3482.58" y="-2078.5" font-family="Times,serif" font-size="14.00">Unknown</text>
</g>
<!-- 69190&#45;&gt;69191 -->
<g id="edge19" class="edge">
<title>69190&#45;&gt;69191</title>
<path fill="none" stroke="black" d="M3398.69,-2055.55C3406.48,-2054.3 3414.22,-2053.2 3421.83,-2052.3 3475.45,-2045.92 3489.83,-2044.93 3543.33,-2052.3 3547.49,-2052.87 3551.7,-2053.52 3555.93,-2054.24"/>
<polygon fill="black" stroke="black" points="3555.23,-2057.67 3565.7,-2056.02 3556.49,-2050.79 3555.23,-2057.67"/>
<text text-anchor="middle" x="3482.58" y="-2055.5" font-family="Times,serif" font-size="14.00">Other (please specify)</text>
</g>
<!-- 69185 -->
<g id="node10" class="node">
<title>69185</title>
<ellipse fill="#dddddd" stroke="#dddddd" cx="8074.06" cy="-1573.8" rx="175.72" ry="175.72"/>
<text text-anchor="middle" x="8074.06" y="-1568.75" font-family="Times,serif" font-size="14.00">What was the drone(s) type/airframe shape?</text>
</g>
<!-- 69185&#45;&gt;END_NODE -->
<g id="edge10" class="edge">
<title>69185&#45;&gt;END_NODE</title>
<path fill="none" stroke="black" d="M8218.48,-1473.12C8249.45,-1447.87 8280.65,-1419.46 8306.6,-1389.8 8338.06,-1353.85 8364.96,-1305.99 8381.89,-1272.4"/>
<polygon fill="black" stroke="black" points="8384.84,-1274.33 8386.15,-1263.82 8378.57,-1271.22 8384.84,-1274.33"/>
<text text-anchor="middle" x="8337.35" y="-1369.56" font-family="Times,serif" font-size="14.00">Junk</text>
</g>
<!-- 69186 -->
<g id="node11" class="node">
<title>69186</title>
<ellipse fill="#dddddd" stroke="#dddddd" cx="8074.06" cy="-1231.8" rx="148.59" ry="148.59"/>
<text text-anchor="middle" x="8074.06" y="-1226.75" font-family="Times,serif" font-size="14.00">What was the drone(s) make/model?</text>
</g>
<!-- 69186&#45;&gt;END_NODE -->
<g id="edge11" class="edge">
<title>69186&#45;&gt;END_NODE</title>
<path fill="none" stroke="black" d="M8222.75,-1231.8C8271.32,-1231.8 8321.71,-1231.8 8356.47,-1231.8"/>
<polygon fill="black" stroke="black" points="8356.11,-1235.3 8366.11,-1231.8 8356.11,-1228.3 8356.11,-1235.3"/>
<text text-anchor="middle" x="8337.35" y="-1235" font-family="Times,serif" font-size="14.00">Junk</text>
</g>
<!-- 69187 -->
<g id="node12" class="node">
<title>69187</title>
<ellipse fill="#dddddd" stroke="#dddddd" cx="8074.06" cy="-875.8" rx="189.54" ry="189.54"/>
<text text-anchor="middle" x="8074.06" y="-870.75" font-family="Times,serif" font-size="14.00">What was the approximate size of the drone(s)?</text>
</g>
<!-- 69187&#45;&gt;END_NODE -->
<g id="edge12" class="edge">
<title>69187&#45;&gt;END_NODE</title>
<path fill="none" stroke="#dddddd" d="M8224.81,-991.32C8253.59,-1016.89 8282.3,-1045 8306.6,-1073.8 8337.4,-1110.31 8364.41,-1158.08 8381.55,-1191.49"/>
<polygon fill="#dddddd" stroke="#dddddd" points="8378.23,-1192.68 8385.86,-1200.02 8384.48,-1189.52 8378.23,-1192.68"/>
<text text-anchor="middle" x="8337.35" y="-1134.45" font-family="Times,serif" font-size="14.00">Junk</text>
</g>
<!-- 69188 -->
<g id="node13" class="node">
<title>69188</title>
<ellipse fill="#dddddd" stroke="#dddddd" cx="8074.06" cy="-478.8" rx="189.54" ry="189.54"/>
<text text-anchor="middle" x="8074.06" y="-473.75" font-family="Times,serif" font-size="14.00">What modifications were made to the drone(s)?</text>
</g>
<!-- 69188&#45;&gt;END_NODE -->
<g id="edge13" class="edge">
<title>69188&#45;&gt;END_NODE</title>
<path fill="none" stroke="black" d="M8231.06,-585.65C8260.17,-612.26 8287.42,-642.98 8306.6,-676.8 8356.24,-764.34 8387.07,-1070.17 8397.23,-1186.45"/>
<polygon fill="black" stroke="black" points="8393.73,-1186.58 8398.08,-1196.24 8400.7,-1185.98 8393.73,-1186.58"/>
<text text-anchor="middle" x="8337.35" y="-819.53" font-family="Times,serif" font-size="14.00">Junk</text>
</g>
<!-- 69189 -->
<g id="node14" class="node">
<title>69189</title>
<ellipse fill="#dddddd" stroke="#dddddd" cx="8074.06" cy="-135.8" rx="135.8" ry="135.8"/>
<text text-anchor="middle" x="8074.06" y="-130.75" font-family="Times,serif" font-size="14.00">How was the drone(s) recovered?</text>
</g>
<!-- 69189&#45;&gt;END_NODE -->
<g id="edge14" class="edge">
<title>69189&#45;&gt;END_NODE</title>
<path fill="none" stroke="black" d="M8200.3,-186.31C8240.73,-208.88 8281.54,-239.64 8306.6,-279.8 8355.04,-357.45 8390.01,-1007.16 8398.8,-1186.25"/>
<polygon fill="black" stroke="black" points="8395.29,-1186.27 8399.28,-1196.08 8402.29,-1185.93 8395.29,-1186.27"/>
<text text-anchor="middle" x="8337.35" y="-504.39" font-family="Times,serif" font-size="14.00">Junk</text>
</g>
<!-- 69192 -->
<g id="node16" class="node">
<title>69192</title>
<ellipse fill="none" stroke="black" cx="4291.81" cy="-2098.8" rx="189.54" ry="189.54"/>
<text text-anchor="middle" x="4291.81" y="-2093.75" font-family="Times,serif" font-size="14.00">What was the approximate size of the drone(s)?</text>
</g>
<!-- 69191&#45;&gt;69192 -->
<g id="edge20" class="edge">
<title>69191&#45;&gt;69192</title>
<path fill="none" stroke="black" d="M3806.17,-2212.23C3827.3,-2230.43 3851.07,-2246.61 3876.52,-2256.8 3962.23,-2291.13 3996.81,-2286.41 4084.27,-2256.8 4103.57,-2250.26 4122.48,-2241.12 4140.55,-2230.5"/>
<polygon fill="black" stroke="black" points="4141.89,-2233.78 4148.62,-2225.6 4138.25,-2227.79 4141.89,-2233.78"/>
<text text-anchor="middle" x="3980.39" y="-2284.01" font-family="Times,serif" font-size="14.00">Da&#45;jiang innovations (dji) &#45; phanthom</text>
</g>
<!-- 69191&#45;&gt;69192 -->
<g id="edge21" class="edge">
<title>69191&#45;&gt;69192</title>
<path fill="none" stroke="black" d="M3825.02,-2193.24C3841.49,-2202.86 3858.87,-2211.15 3876.52,-2216.8 3964.46,-2244.93 3995.03,-2240.5 4084.27,-2216.8 4096.46,-2213.56 4108.69,-2209.42 4120.76,-2204.63"/>
<polygon fill="black" stroke="black" points="4122.03,-2207.89 4129.93,-2200.84 4119.35,-2201.42 4122.03,-2207.89"/>
<text text-anchor="middle" x="3980.39" y="-2239.47" font-family="Times,serif" font-size="14.00">Da&#45;jiang innovations (dji) &#45; inspire</text>
</g>
<!-- 69191&#45;&gt;69192 -->
<g id="edge22" class="edge">
<title>69191&#45;&gt;69192</title>
<path fill="none" stroke="black" d="M3842.41,-2166.91C3853.74,-2170.87 3865.2,-2174.27 3876.52,-2176.8 3966.62,-2196.96 3993.44,-2193.38 4084.27,-2176.8 4091.07,-2175.56 4097.94,-2174.1 4104.84,-2172.47"/>
<polygon fill="black" stroke="black" points="4105.36,-2175.95 4114.22,-2170.13 4103.67,-2169.16 4105.36,-2175.95"/>
<text text-anchor="middle" x="3980.39" y="-2193.81" font-family="Times,serif" font-size="14.00">Da&#45;jiang innovations (dji) &#45; mavic</text>
</g>
<!-- 69191&#45;&gt;69192 -->
<g id="edge23" class="edge">
<title>69191&#45;&gt;69192</title>
<path fill="none" stroke="black" d="M3854.64,-2133.83C3862.01,-2134.98 3869.34,-2135.99 3876.52,-2136.8 3968.26,-2147.19 3992.32,-2145.19 4084.27,-2136.8 4087.5,-2136.5 4090.76,-2136.18 4094.04,-2135.84"/>
<polygon fill="black" stroke="black" points="4094.2,-2139.34 4103.75,-2134.75 4093.42,-2132.39 4094.2,-2139.34"/>
<text text-anchor="middle" x="3980.39" y="-2147.06" font-family="Times,serif" font-size="14.00">Da&#45;jiang innovations (dji) &#45; mini</text>
</g>
<!-- 69191&#45;&gt;69192 -->
<g id="edge24" class="edge">
<title>69191&#45;&gt;69192</title>
<path fill="none" stroke="black" d="M3858.75,-2098.8C3929.19,-2098.8 4014.51,-2098.8 4090.65,-2098.8"/>
<polygon fill="black" stroke="black" points="4090.3,-2102.3 4100.3,-2098.8 4090.3,-2095.3 4090.3,-2102.3"/>
<text text-anchor="middle" x="3980.39" y="-2102" font-family="Times,serif" font-size="14.00">Autel evo</text>
</g>
<!-- 69191&#45;&gt;69192 -->
<g id="edge25" class="edge">
<title>69191&#45;&gt;69192</title>
<path fill="none" stroke="black" d="M3857.56,-2079.67C3863.96,-2079.15 3870.3,-2078.68 3876.52,-2078.3 3968.68,-2072.62 3992.05,-2073.73 4084.27,-2078.3 4086.66,-2078.42 4089.06,-2078.54 4091.48,-2078.68"/>
<polygon fill="black" stroke="black" points="4091.18,-2082.17 4101.37,-2079.26 4091.59,-2075.18 4091.18,-2082.17"/>
<text text-anchor="middle" x="3980.39" y="-2081.5" font-family="Times,serif" font-size="14.00">Parrott</text>
</g>
<!-- 69191&#45;&gt;69192 -->
<g id="edge26" class="edge">
<title>69191&#45;&gt;69192</title>
<path fill="none" stroke="black" d="M3853.16,-2058.04C3861.02,-2056.58 3868.84,-2055.31 3876.52,-2054.3 3968.06,-2042.21 3992.45,-2044.52 4084.27,-2054.3 4087.92,-2054.69 4091.59,-2055.11 4095.29,-2055.57"/>
<polygon fill="black" stroke="black" points="4094.58,-2059.01 4104.95,-2056.85 4095.5,-2052.07 4094.58,-2059.01"/>
<text text-anchor="middle" x="3980.39" y="-2057.5" font-family="Times,serif" font-size="14.00">Swellpro</text>
</g>
<!-- 69191&#45;&gt;69192 -->
<g id="edge27" class="edge">
<title>69191&#45;&gt;69192</title>
<path fill="none" stroke="black" d="M3844,-2034.15C3854.83,-2030.61 3865.75,-2027.58 3876.52,-2025.3 3966.84,-2006.15 3993.28,-2009.59 4084.27,-2025.3 4090.57,-2026.39 4096.94,-2027.65 4103.34,-2029.06"/>
<polygon fill="black" stroke="black" points="4102.12,-2032.37 4112.65,-2031.22 4103.7,-2025.55 4102.12,-2032.37"/>
<text text-anchor="middle" x="3980.39" y="-2028.5" font-family="Times,serif" font-size="14.00">Yuneec</text>
</g>
<!-- 69191&#45;&gt;69192 -->
<g id="edge28" class="edge">
<title>69191&#45;&gt;69192</title>
<path fill="none" stroke="black" d="M3829.99,-2010.47C3845.06,-2002.67 3860.74,-1995.97 3876.52,-1991.3 3965.05,-1965.08 3994.58,-1969.36 4084.27,-1991.3 4094.87,-1993.89 4105.53,-1997.14 4116.13,-2000.86"/>
<polygon fill="black" stroke="black" points="4114.68,-2004.06 4125.27,-2004.22 4117.09,-1997.49 4114.68,-2004.06"/>
<text text-anchor="middle" x="3980.39" y="-1994.5" font-family="Times,serif" font-size="14.00">Unknown</text>
</g>
<!-- 69191&#45;&gt;69192 -->
<g id="edge29" class="edge">
<title>69191&#45;&gt;69192</title>
<path fill="none" stroke="black" d="M3811.41,-1990.24C3831.37,-1974.72 3853.37,-1961.07 3876.52,-1952.3 3962.86,-1919.59 3996.29,-1924.27 4084.27,-1952.3 4101.26,-1957.72 4118.06,-1965.1 4134.3,-1973.68"/>
<polygon fill="black" stroke="black" points="4132.55,-1976.71 4143,-1978.45 4135.91,-1970.57 4132.55,-1976.71"/>
<text text-anchor="middle" x="3980.39" y="-1955.5" font-family="Times,serif" font-size="14.00">Other (please specify)</text>
</g>
<!-- 69193 -->
<g id="node17" class="node">
<title>69193</title>
<ellipse fill="none" stroke="black" cx="4832.89" cy="-2098.8" rx="189.54" ry="189.54"/>
<text text-anchor="middle" x="4832.89" y="-2093.75" font-family="Times,serif" font-size="14.00">What modifications were made to the drone(s)?</text>
</g>
<!-- 69192&#45;&gt;69193 -->
<g id="edge30" class="edge">
<title>69192&#45;&gt;69193</title>
<path fill="none" stroke="black" d="M4467.93,-2169.77C4478.45,-2172.52 4488.98,-2174.91 4499.35,-2176.8 4554.44,-2186.86 4570.26,-2186.86 4625.35,-2176.8 4632.15,-2175.56 4639.02,-2174.1 4645.92,-2172.47"/>
<polygon fill="black" stroke="black" points="4646.44,-2175.95 4655.3,-2170.13 4644.75,-2169.16 4646.44,-2175.95"/>
<text text-anchor="middle" x="4562.35" y="-2187.54" font-family="Times,serif" font-size="14.00">0 to less than 0.5m</text>
</g>
<!-- 69192&#45;&gt;69193 -->
<g id="edge31" class="edge">
<title>69192&#45;&gt;69193</title>
<path fill="none" stroke="black" d="M4478.36,-2134.58C4485.44,-2135.43 4492.45,-2136.17 4499.35,-2136.8 4555.12,-2141.89 4569.58,-2141.89 4625.35,-2136.8 4628.58,-2136.5 4631.84,-2136.18 4635.12,-2135.84"/>
<polygon fill="black" stroke="black" points="4635.28,-2139.34 4644.82,-2134.75 4634.5,-2132.39 4635.28,-2139.34"/>
<text text-anchor="middle" x="4562.35" y="-2143.82" font-family="Times,serif" font-size="14.00">0.5m to less than 1.0m</text>
</g>
<!-- 69192&#45;&gt;69193 -->
<g id="edge32" class="edge">
<title>69192&#45;&gt;69193</title>
<path fill="none" stroke="black" d="M4481.73,-2098.8C4530.3,-2098.8 4582.72,-2098.8 4631.83,-2098.8"/>
<polygon fill="black" stroke="black" points="4631.73,-2102.3 4641.73,-2098.8 4631.73,-2095.3 4631.73,-2102.3"/>
<text text-anchor="middle" x="4562.35" y="-2102" font-family="Times,serif" font-size="14.00">1.0m to less than 2.0m</text>
</g>
<!-- 69192&#45;&gt;69193 -->
<g id="edge33" class="edge">
<title>69192&#45;&gt;69193</title>
<path fill="none" stroke="black" d="M4480.74,-2079.35C4487.01,-2078.96 4493.23,-2078.6 4499.35,-2078.3 4555.28,-2075.53 4569.42,-2075.53 4625.35,-2078.3 4627.74,-2078.42 4630.14,-2078.54 4632.56,-2078.68"/>
<polygon fill="black" stroke="black" points="4632.26,-2082.17 4642.45,-2079.26 4632.67,-2075.18 4632.26,-2082.17"/>
<text text-anchor="middle" x="4562.35" y="-2081.5" font-family="Times,serif" font-size="14.00">2.0m to less than 3.0m</text>
</g>
<!-- 69192&#45;&gt;69193 -->
<g id="edge34" class="edge">
<title>69192&#45;&gt;69193</title>
<path fill="none" stroke="black" d="M4477.18,-2057.99C4484.65,-2056.97 4492.06,-2056.06 4499.35,-2055.3 4555.05,-2049.5 4569.65,-2049.5 4625.35,-2055.3 4628.99,-2055.68 4632.67,-2056.1 4636.36,-2056.55"/>
<polygon fill="black" stroke="black" points="4635.65,-2059.98 4646.02,-2057.8 4636.55,-2053.04 4635.65,-2059.98"/>
<text text-anchor="middle" x="4562.35" y="-2058.5" font-family="Times,serif" font-size="14.00">3.0m or longer</text>
</g>
<!-- 69192&#45;&gt;69193 -->
<g id="edge35" class="edge">
<title>69192&#45;&gt;69193</title>
<path fill="none" stroke="black" d="M4471.05,-2035.81C4480.55,-2033.67 4490.02,-2031.81 4499.35,-2030.3 4554.63,-2021.37 4570.06,-2021.37 4625.35,-2030.3 4631.03,-2031.22 4636.77,-2032.27 4642.53,-2033.43"/>
<polygon fill="black" stroke="black" points="4641.66,-2036.83 4652.17,-2035.49 4643.12,-2029.98 4641.66,-2036.83"/>
<text text-anchor="middle" x="4562.35" y="-2033.5" font-family="Times,serif" font-size="14.00">Unknown</text>
</g>
<!-- 69194 -->
<g id="node18" class="node">
<title>69194</title>
<ellipse fill="none" stroke="black" cx="5320.98" cy="-2098.8" rx="135.8" ry="135.8"/>
<text text-anchor="middle" x="5320.98" y="-2093.75" font-family="Times,serif" font-size="14.00">How was the drone(s) recovered?</text>
</g>
<!-- 69193&#45;&gt;69194 -->
<g id="edge36" class="edge">
<title>69193&#45;&gt;69194</title>
<path fill="none" stroke="black" d="M5001.29,-2186.45C5054.33,-2203.91 5113.21,-2212.62 5167.18,-2196.8 5178.52,-2193.47 5189.82,-2189.02 5200.85,-2183.84"/>
<polygon fill="black" stroke="black" points="5202.12,-2187.11 5209.54,-2179.55 5199.02,-2180.84 5202.12,-2187.11"/>
<text text-anchor="middle" x="5103.8" y="-2208.27" font-family="Times,serif" font-size="14.00">Added hook</text>
</g>
<!-- 69193&#45;&gt;69194 -->
<g id="edge37" class="edge">
<title>69193&#45;&gt;69194</title>
<path fill="none" stroke="black" d="M5014.75,-2153.77C5064.21,-2162.4 5117.78,-2165.86 5167.18,-2156.8 5172.79,-2155.77 5178.46,-2154.54 5184.15,-2153.16"/>
<polygon fill="black" stroke="black" points="5184.84,-2156.6 5193.64,-2150.69 5183.08,-2149.82 5184.84,-2156.6"/>
<text text-anchor="middle" x="5103.8" y="-2165.33" font-family="Times,serif" font-size="14.00">Covered lights</text>
</g>
<!-- 69193&#45;&gt;69194 -->
<g id="edge38" class="edge">
<title>69193&#45;&gt;69194</title>
<path fill="none" stroke="black" d="M5022.07,-2116.37C5069.44,-2118.75 5120.18,-2119.56 5167.18,-2116.8 5169.57,-2116.66 5171.99,-2116.51 5174.42,-2116.34"/>
<polygon fill="black" stroke="black" points="5174.67,-2119.83 5184.39,-2115.61 5174.16,-2112.85 5174.67,-2119.83"/>
<text text-anchor="middle" x="5103.8" y="-2121.74" font-family="Times,serif" font-size="14.00">Drop mechanism fitted</text>
</g>
<!-- 69193&#45;&gt;69194 -->
<g id="edge39" class="edge">
<title>69193&#45;&gt;69194</title>
<path fill="none" stroke="black" d="M5022.49,-2096.35C5069.73,-2096.03 5120.31,-2095.92 5167.18,-2096.3 5169.27,-2096.32 5171.39,-2096.34 5173.51,-2096.36"/>
<polygon fill="black" stroke="black" points="5173.45,-2099.85 5183.48,-2096.46 5173.52,-2092.85 5173.45,-2099.85"/>
<text text-anchor="middle" x="5103.8" y="-2099.5" font-family="Times,serif" font-size="14.00">None</text>
</g>
<!-- 69193&#45;&gt;69194 -->
<g id="edge40" class="edge">
<title>69193&#45;&gt;69194</title>
<path fill="none" stroke="black" d="M5021.2,-2075.93C5068.82,-2072.78 5119.89,-2071.69 5167.18,-2075.3 5169.89,-2075.51 5172.62,-2075.73 5175.37,-2075.98"/>
<polygon fill="black" stroke="black" points="5174.98,-2079.46 5185.27,-2076.94 5175.66,-2072.49 5174.98,-2079.46"/>
<text text-anchor="middle" x="5103.8" y="-2078.5" font-family="Times,serif" font-size="14.00">Painted black</text>
</g>
<!-- 69193&#45;&gt;69194 -->
<g id="edge41" class="edge">
<title>69193&#45;&gt;69194</title>
<path fill="none" stroke="black" d="M5017.34,-2054.25C5066.07,-2047.6 5118.64,-2045.08 5167.18,-2052.3 5171.53,-2052.95 5175.92,-2053.69 5180.35,-2054.52"/>
<polygon fill="black" stroke="black" points="5179.4,-2057.9 5189.89,-2056.45 5180.78,-2051.04 5179.4,-2057.9"/>
<text text-anchor="middle" x="5103.8" y="-2055.5" font-family="Times,serif" font-size="14.00">Tether attached</text>
</g>
<!-- 69193&#45;&gt;69194 -->
<g id="edge42" class="edge">
<title>69193&#45;&gt;69194</title>
<path fill="none" stroke="black" d="M5010.42,-2032.23C5061.07,-2020.91 5116.34,-2015.99 5167.18,-2027.3 5174.48,-2028.92 5181.84,-2030.93 5189.18,-2033.24"/>
<polygon fill="black" stroke="black" points="5187.88,-2036.49 5198.48,-2036.34 5190.1,-2029.85 5187.88,-2036.49"/>
<text text-anchor="middle" x="5103.8" y="-2030.5" font-family="Times,serif" font-size="14.00">Other (please specify)</text>
</g>
<!-- 69195 -->
<g id="node19" class="node">
<title>69195</title>
<ellipse fill="none" stroke="black" cx="5719.64" cy="-2098.8" rx="149.62" ry="149.62"/>
<text text-anchor="middle" x="5719.64" y="-2093.75" font-family="Times,serif" font-size="14.00">Did the drone(s) carry any packages?</text>
</g>
<!-- 69194&#45;&gt;69195 -->
<g id="edge43" class="edge">
<title>69194&#45;&gt;69195</title>
<path fill="none" stroke="black" d="M5456.06,-2115.5C5462.38,-2116 5468.64,-2116.44 5474.78,-2116.8 5502.18,-2118.41 5531.3,-2118.06 5559.52,-2116.63"/>
<polygon fill="black" stroke="black" points="5559.41,-2120.14 5569.2,-2116.09 5559.02,-2113.15 5559.41,-2120.14"/>
<text text-anchor="middle" x="5513.4" y="-2121.06" font-family="Times,serif" font-size="14.00">Crashed</text>
</g>
<!-- 69194&#45;&gt;69195 -->
<g id="edge44" class="edge">
<title>69194&#45;&gt;69195</title>
<path fill="none" stroke="black" d="M5456.95,-2096.47C5462.98,-2096.41 5468.94,-2096.35 5474.78,-2096.3 5501.75,-2096.08 5530.41,-2096.12 5558.24,-2096.31"/>
<polygon fill="black" stroke="black" points="5558.15,-2099.81 5568.18,-2096.39 5558.2,-2092.81 5558.15,-2099.81"/>
<text text-anchor="middle" x="5513.4" y="-2099.5" font-family="Times,serif" font-size="14.00">Intercepted</text>
</g>
<!-- 69194&#45;&gt;69195 -->
<g id="edge45" class="edge">
<title>69194&#45;&gt;69195</title>
<path fill="none" stroke="black" d="M5455.17,-2077.09C5461.79,-2076.4 5468.35,-2075.79 5474.78,-2075.3 5502.39,-2073.19 5531.73,-2073.67 5560.13,-2075.57"/>
<polygon fill="black" stroke="black" points="5559.65,-2079.04 5569.88,-2076.28 5560.16,-2072.06 5559.65,-2079.04"/>
<text text-anchor="middle" x="5513.4" y="-2078.5" font-family="Times,serif" font-size="14.00">Not recovered</text>
</g>
<!-- 69196 -->
<g id="node20" class="node">
<title>69196</title>
<ellipse fill="none" stroke="black" cx="6339.14" cy="-2098.8" rx="236.63" ry="236.63"/>
<text text-anchor="middle" x="6339.14" y="-2093.75" font-family="Times,serif" font-size="14.00">Were any photos or CCTV taken of the drone(s) or payload?</text>
</g>
<!-- 69195&#45;&gt;69196 -->
<g id="edge46" class="edge">
<title>69195&#45;&gt;69196</title>
<path fill="none" stroke="black" d="M5826.34,-2203.84C5845.31,-2217.33 5865.88,-2229.1 5887.26,-2236.8 5969.74,-2266.52 5999.55,-2258.42 6084.51,-2236.8 6097.93,-2233.39 6111.4,-2229.1 6124.76,-2224.18"/>
<polygon fill="black" stroke="black" points="6125.95,-2227.47 6134.04,-2220.63 6123.45,-2220.93 6125.95,-2227.47"/>
<text text-anchor="middle" x="5985.89" y="-2259.37" font-family="Times,serif" font-size="14.00">No package observed/recovered</text>
</g>
<!-- 69195&#45;&gt;69196 -->
<g id="edge47" class="edge">
<title>69195&#45;&gt;69196</title>
<path fill="none" stroke="black" d="M5844.88,-2181.13C5858.74,-2187.48 5873.02,-2192.92 5887.26,-2196.8 5958.76,-2216.27 6037.45,-2208.87 6108.81,-2191.48"/>
<polygon fill="black" stroke="black" points="6109.43,-2194.94 6118.27,-2189.1 6107.72,-2188.15 6109.43,-2194.94"/>
<text text-anchor="middle" x="5985.89" y="-2211.52" font-family="Times,serif" font-size="14.00">Yes &#45; unknown</text>
</g>
<!-- 69195&#45;&gt;69196 -->
<g id="edge48" class="edge">
<title>69195&#45;&gt;69196</title>
<path fill="none" stroke="black" d="M5860.21,-2151.13C5869.29,-2153.36 5878.35,-2155.29 5887.26,-2156.8 5955.26,-2168.3 6029.38,-2165.19 6097.5,-2156.1"/>
<polygon fill="black" stroke="black" points="6097.9,-2159.58 6107.33,-2154.74 6096.94,-2152.65 6097.9,-2159.58"/>
<text text-anchor="middle" x="5985.89" y="-2167.43" font-family="Times,serif" font-size="14.00">Yes 0 to 100g (more options below)</text>
</g>
<!-- 69195&#45;&gt;69196 -->
<g id="edge49" class="edge">
<title>69195&#45;&gt;69196</title>
<path fill="none" stroke="black" d="M5868.66,-2115.63C5874.94,-2116.08 5881.16,-2116.47 5887.26,-2116.8 5953.45,-2120.36 6025.13,-2119.61 6091.45,-2116.99"/>
<polygon fill="black" stroke="black" points="6091.54,-2120.49 6101.39,-2116.59 6091.26,-2113.5 6091.54,-2120.49"/>
<text text-anchor="middle" x="5985.89" y="-2122.42" font-family="Times,serif" font-size="14.00">Yes 101g to 200g</text>
</g>
<!-- 69195&#45;&gt;69196 -->
<g id="edge50" class="edge">
<title>69195&#45;&gt;69196</title>
<path fill="none" stroke="black" d="M5869.62,-2096.45C5875.58,-2096.4 5881.48,-2096.34 5887.26,-2096.3 5953.21,-2095.81 6024.59,-2095.91 6090.67,-2096.27"/>
<polygon fill="black" stroke="black" points="6090.55,-2099.77 6100.57,-2096.32 6090.59,-2092.77 6090.55,-2099.77"/>
<text text-anchor="middle" x="5985.89" y="-2099.5" font-family="Times,serif" font-size="14.00">Yes 201g to 300g</text>
</g>
<!-- 69195&#45;&gt;69196 -->
<g id="edge51" class="edge">
<title>69195&#45;&gt;69196</title>
<path fill="none" stroke="black" d="M5867.71,-2076.92C5874.31,-2076.3 5880.85,-2075.75 5887.26,-2075.3 5953.51,-2070.65 6025.29,-2071.65 6091.69,-2075.08"/>
<polygon fill="black" stroke="black" points="6091.47,-2078.57 6101.64,-2075.61 6091.85,-2071.58 6091.47,-2078.57"/>
<text text-anchor="middle" x="5985.89" y="-2078.5" font-family="Times,serif" font-size="14.00">Yes 301g to 400g</text>
</g>
<!-- 69195&#45;&gt;69196 -->
<g id="edge52" class="edge">
<title>69195&#45;&gt;69196</title>
<path fill="none" stroke="black" d="M5863.24,-2055.38C5871.32,-2053.79 5879.37,-2052.4 5887.26,-2051.3 5954.64,-2041.88 6027.93,-2044.24 6095.44,-2051.49"/>
<polygon fill="black" stroke="black" points="6094.83,-2054.95 6105.16,-2052.58 6095.61,-2047.99 6094.83,-2054.95"/>
<text text-anchor="middle" x="5985.89" y="-2054.5" font-family="Times,serif" font-size="14.00">Yes 401g to 500g</text>
</g>
<!-- 69195&#45;&gt;69196 -->
<g id="edge53" class="edge">
<title>69195&#45;&gt;69196</title>
<path fill="none" stroke="black" d="M5854.52,-2033.27C5865.42,-2029.69 5876.42,-2026.61 5887.26,-2024.3 5956.59,-2009.51 6032.44,-2014.11 6101.82,-2026.38"/>
<polygon fill="black" stroke="black" points="6100.94,-2029.78 6111.41,-2028.14 6102.21,-2022.89 6100.94,-2029.78"/>
<text text-anchor="middle" x="5985.89" y="-2027.5" font-family="Times,serif" font-size="14.00">Yes 501g to 1000g</text>
</g>
<!-- 69195&#45;&gt;69196 -->
<g id="edge54" class="edge">
<title>69195&#45;&gt;69196</title>
<path fill="none" stroke="black" d="M5842.11,-2012.21C5856.79,-2004.93 5872,-1998.69 5887.26,-1994.3 5971.51,-1970.07 5998.51,-1977.28 6084.51,-1994.3 6093.4,-1996.06 6102.36,-1998.13 6111.34,-2000.47"/>
<polygon fill="black" stroke="black" points="6110.28,-2003.8 6120.85,-2003.04 6112.11,-1997.05 6110.28,-2003.8"/>
<text text-anchor="middle" x="5985.89" y="-1997.5" font-family="Times,serif" font-size="14.00">Yes more than 1001g</text>
</g>
<!-- 69197 -->
<g id="node21" class="node">
<title>69197</title>
<ellipse fill="none" stroke="black" cx="6734.55" cy="-2098.8" rx="102.53" ry="102.53"/>
<text text-anchor="middle" x="6734.55" y="-2093.75" font-family="Times,serif" font-size="14.00">Was the pilot identified?</text>
</g>
<!-- 69196&#45;&gt;69197 -->
<g id="edge55" class="edge">
<title>69196&#45;&gt;69197</title>
<path fill="none" stroke="black" d="M6576.08,-2098.8C6591.3,-2098.8 6606.19,-2098.8 6620.37,-2098.8"/>
<polygon fill="black" stroke="black" points="6620.06,-2102.3 6630.06,-2098.8 6620.06,-2095.3 6620.06,-2102.3"/>
<text text-anchor="middle" x="6603.89" y="-2102" font-family="Times,serif" font-size="14.00">No</text>
</g>
<!-- 69196&#45;&gt;69197 -->
<g id="edge56" class="edge">
<title>69196&#45;&gt;69197</title>
<path fill="none" stroke="black" d="M6575.09,-2076.32C6588.26,-2076.59 6601.31,-2077.22 6614.01,-2078.3 6616.67,-2078.53 6619.35,-2078.78 6622.06,-2079.06"/>
<polygon fill="black" stroke="black" points="6621.43,-2082.51 6631.77,-2080.16 6622.22,-2075.55 6621.43,-2082.51"/>
<text text-anchor="middle" x="6603.89" y="-2081.5" font-family="Times,serif" font-size="14.00">Yes</text>
</g>
<!-- 69199 -->
<g id="node22" class="node">
<title>69199</title>
<ellipse fill="none" stroke="black" cx="7673.54" cy="-1999.8" rx="111.74" ry="111.74"/>
<text text-anchor="middle" x="7673.54" y="-1994.75" font-family="Times,serif" font-size="14.00">Were the police contacted?</text>
</g>
<!-- 69197&#45;&gt;69199 -->
<g id="edge57" class="edge">
<title>69197&#45;&gt;69199</title>
<path fill="none" stroke="black" d="M6811.88,-2166.52C6836.25,-2184.1 6864.43,-2200.65 6893.33,-2209.8 7097.76,-2274.51 7171.45,-2274.79 7375.79,-2209.8 7453.72,-2185.01 7528.78,-2131.52 7583.92,-2084.73"/>
<polygon fill="black" stroke="black" points="7586.13,-2087.44 7591.44,-2078.27 7581.57,-2082.13 7586.13,-2087.44"/>
<text text-anchor="middle" x="7134.56" y="-2261.64" font-family="Times,serif" font-size="14.00">No</text>
</g>
<!-- 69198 -->
<g id="node23" class="node">
<title>69198</title>
<ellipse fill="none" stroke="black" cx="7134.56" cy="-1959.8" rx="241.23" ry="241.23"/>
<text text-anchor="middle" x="7134.56" y="-1954.75" font-family="Times,serif" font-size="14.00">What was the distance of the pilot from the prison perimeter?</text>
</g>
<!-- 69197&#45;&gt;69198 -->
<g id="edge58" class="edge">
<title>69197&#45;&gt;69198</title>
<path fill="none" stroke="black" d="M6831.9,-2065.15C6851.76,-2058.22 6873.5,-2050.62 6895.92,-2042.79"/>
<polygon fill="black" stroke="black" points="6896.9,-2046.16 6905.19,-2039.56 6894.59,-2039.55 6896.9,-2046.16"/>
<text text-anchor="middle" x="6865.2" y="-2057.04" font-family="Times,serif" font-size="14.00">Yes</text>
</g>
<!-- 69200 -->
<g id="node24" class="node">
<title>69200</title>
<ellipse fill="none" stroke="black" cx="8074.06" cy="-1999.8" rx="232.53" ry="232.53"/>
<text text-anchor="middle" x="8074.06" y="-1994.75" font-family="Times,serif" font-size="14.00">To the extent of your knowledge was the pilot apprhended?</text>
</g>
<!-- 69199&#45;&gt;69200 -->
<g id="edge64" class="edge">
<title>69199&#45;&gt;69200</title>
<path fill="none" stroke="black" d="M7785.55,-1999.8C7799.73,-1999.8 7814.65,-1999.8 7829.94,-1999.8"/>
<polygon fill="black" stroke="black" points="7829.62,-2003.3 7839.62,-1999.8 7829.62,-1996.3 7829.62,-2003.3"/>
<text text-anchor="middle" x="7813.41" y="-2003" font-family="Times,serif" font-size="14.00">No</text>
</g>
<!-- 69199&#45;&gt;69200 -->
<g id="edge65" class="edge">
<title>69199&#45;&gt;69200</title>
<path fill="none" stroke="black" d="M7783.97,-1981.17C7790.49,-1980.44 7796.97,-1979.8 7803.28,-1979.3 7812.35,-1978.58 7821.6,-1978.09 7830.94,-1977.79"/>
<polygon fill="black" stroke="black" points="7830.94,-1981.3 7840.85,-1977.56 7830.78,-1974.3 7830.94,-1981.3"/>
<text text-anchor="middle" x="7813.41" y="-1982.5" font-family="Times,serif" font-size="14.00">Yes</text>
</g>
<!-- 69198&#45;&gt;69199 -->
<g id="edge59" class="edge">
<title>69198&#45;&gt;69199</title>
<path fill="none" stroke="black" d="M7364.98,-2032.82C7374.66,-2034.72 7384.3,-2036.4 7393.79,-2037.8 7459.74,-2047.54 7477.81,-2047.33 7543.79,-2037.8 7547.66,-2037.24 7551.57,-2036.59 7555.5,-2035.87"/>
<polygon fill="black" stroke="black" points="7556.03,-2039.33 7565.15,-2033.94 7554.66,-2032.47 7556.03,-2039.33"/>
<text text-anchor="middle" x="7468.79" y="-2048.23" font-family="Times,serif" font-size="14.00">0 to less than 10 metres</text>
</g>
<!-- 69198&#45;&gt;69199 -->
<g id="edge60" class="edge">
<title>69198&#45;&gt;69199</title>
<path fill="none" stroke="black" d="M7373.22,-1996.04C7380.15,-1996.69 7387.02,-1997.28 7393.79,-1997.8 7444.94,-2001.73 7501.52,-2002.75 7550.26,-2002.59"/>
<polygon fill="black" stroke="black" points="7550.01,-2006.09 7559.99,-2002.54 7549.97,-1999.09 7550.01,-2006.09"/>
<text text-anchor="middle" x="7468.79" y="-2005.8" font-family="Times,serif" font-size="14.00">10 to less than 100 metres</text>
</g>
<!-- 69198&#45;&gt;69199 -->
<g id="edge61" class="edge">
<title>69198&#45;&gt;69199</title>
<path fill="none" stroke="black" d="M7376.1,-1964.9C7431.3,-1967.51 7489.66,-1971.43 7543.79,-1977.3 7546.61,-1977.6 7549.45,-1977.93 7552.32,-1978.28"/>
<polygon fill="black" stroke="black" points="7551.59,-1981.72 7561.96,-1979.53 7552.49,-1974.78 7551.59,-1981.72"/>
<text text-anchor="middle" x="7468.79" y="-1980.5" font-family="Times,serif" font-size="14.00">100 to less than 200 metres</text>
</g>
<!-- 69198&#45;&gt;69199 -->
<g id="edge62" class="edge">
<title>69198&#45;&gt;69199</title>
<path fill="none" stroke="black" d="M7374.57,-1932.56C7430.51,-1931.35 7489.58,-1934.3 7543.79,-1945.3 7549.45,-1946.45 7555.16,-1947.85 7560.87,-1949.45"/>
<polygon fill="black" stroke="black" points="7559.81,-1952.79 7570.4,-1952.33 7561.83,-1946.09 7559.81,-1952.79"/>
<text text-anchor="middle" x="7468.79" y="-1948.5" font-family="Times,serif" font-size="14.00">200 metres or more</text>
</g>
<!-- 69198&#45;&gt;69199 -->
<g id="edge63" class="edge">
<title>69198&#45;&gt;69199</title>
<path fill="none" stroke="black" d="M7368.54,-1899.84C7426.65,-1893.8 7488.21,-1895.2 7543.79,-1912.3 7554.45,-1915.58 7565.01,-1920.07 7575.24,-1925.3"/>
<polygon fill="black" stroke="black" points="7573.55,-1928.37 7584.01,-1930.04 7576.88,-1922.21 7573.55,-1928.37"/>
<text text-anchor="middle" x="7468.79" y="-1915.5" font-family="Times,serif" font-size="14.00">Unknown</text>
</g>
<!-- 69200&#45;&gt;END_NODE -->
<g id="edge66" class="edge">
<title>69200&#45;&gt;END_NODE</title>
<path fill="none" stroke="black" d="M8278.7,-1888.95C8306.76,-1865.37 8332.09,-1837.99 8350.1,-1806.8 8376.36,-1761.3 8393.72,-1404.51 8399.14,-1276.95"/>
<polygon fill="black" stroke="black" points="8402.63,-1277.34 8399.55,-1267.2 8395.63,-1277.05 8402.63,-1277.34"/>
<text text-anchor="middle" x="8337.35" y="-1839.78" font-family="Times,serif" font-size="14.00">No</text>
</g>
<!-- 69200&#45;&gt;END_NODE -->
<g id="edge67" class="edge">
<title>69200&#45;&gt;END_NODE</title>
<path fill="none" stroke="black" d="M8248.05,-1845.14C8270.55,-1818.3 8291.12,-1789.17 8306.6,-1758.8 8389.56,-1595.99 8400.74,-1372.45 8401.47,-1277.47"/>
<polygon fill="black" stroke="black" points="8404.97,-1277.52 8401.5,-1267.51 8397.97,-1277.5 8404.97,-1277.52"/>
<text text-anchor="middle" x="8337.35" y="-1722.82" font-family="Times,serif" font-size="14.00">Yes</text>
</g>
</g>
</svg>
