<?xml version="1.0" encoding="UTF-8" standalone="no"?>
<!DOCTYPE svg PUBLIC "-//W3C//DTD SVG 1.1//EN"
 "http://www.w3.org/Graphics/SVG/1.1/DTD/svg11.dtd">
<!-- Generated by graphviz version 12.1.1 (20240910.0053)
 -->
<!-- Title: DRONE_SIGHTING Pages: 1 -->
<svg width="10873pt" height="3113pt"
 viewBox="0.00 0.00 10872.66 3112.99" xmlns="http://www.w3.org/2000/svg" xmlns:xlink="http://www.w3.org/1999/xlink">
<g id="graph0" class="graph" transform="scale(1 1) rotate(0) translate(4 3108.99)">
<title>DRONE_SIGHTING</title>
<polygon fill="white" stroke="none" points="-4,4 -4,-3108.99 10868.66,-3108.99 10868.66,4 -4,4"/>
<!-- START_NODE -->
<g id="node1" class="node">
<title>START_NODE</title>
</g>
<!-- 69179 -->
<g id="node2" class="node">
<title>69179</title>
<ellipse fill="none" stroke="black" cx="301.25" cy="-2755.77" rx="188" ry="188"/>
<text text-anchor="middle" x="301.25" y="-2750.72" font-family="Times,serif" font-size="14.00">WAS A DRONE SIGHTED IN MID&#45;FLIGHT?</text>
</g>
<!-- START_NODE&#45;&gt;69179 -->
<g id="edge1" class="edge">
<title>START_NODE&#45;&gt;69179</title>
<path fill="none" stroke="black" d="M53.61,-2755.77C66.28,-2755.77 82.82,-2755.77 101.36,-2755.77"/>
<polygon fill="black" stroke="black" points="101.3,-2759.27 111.3,-2755.77 101.3,-2752.27 101.3,-2759.27"/>
<text text-anchor="middle" x="83.62" y="-2758.97" font-family="Times,serif" font-size="14.00">start</text>
</g>
<!-- 69180 -->
<g id="node4" class="node">
<title>69180</title>
<ellipse fill="none" stroke="black" cx="697.31" cy="-2755.77" rx="146.55" ry="146.55"/>
<text text-anchor="middle" x="697.31" y="-2750.72" font-family="Times,serif" font-size="14.00">NUMBER OF DRONES SIGHTED</text>
</g>
<!-- 69179&#45;&gt;69180 -->
<g id="edge2" class="edge">
<title>69179&#45;&gt;69180</title>
<path fill="none" stroke="black" d="M489.47,-2755.77C506.09,-2755.77 522.8,-2755.77 539.13,-2755.77"/>
<polygon fill="black" stroke="black" points="538.86,-2759.27 548.86,-2755.77 538.86,-2752.27 538.86,-2759.27"/>
<text text-anchor="middle" x="520.01" y="-2758.97" font-family="Times,serif" font-size="14.00">NO</text>
</g>
<!-- 69179&#45;&gt;69180 -->
<g id="edge3" class="edge">
<title>69179&#45;&gt;69180</title>
<path fill="none" stroke="black" d="M488.38,-2734.37C503.39,-2734.12 518.32,-2734.37 532.76,-2735.27 535.31,-2735.43 537.88,-2735.6 540.47,-2735.79"/>
<polygon fill="black" stroke="black" points="540.17,-2739.27 550.41,-2736.56 540.72,-2732.29 540.17,-2739.27"/>
<text text-anchor="middle" x="520.01" y="-2738.47" font-family="Times,serif" font-size="14.00">YES</text>
</g>
<!-- END_NODE -->
<g id="node3" class="node">
<title>END_NODE</title>
<ellipse fill="none" stroke="black" cx="10830.8" cy="-1597.77" rx="29.86" ry="29.86"/>
<ellipse fill="none" stroke="black" cx="10830.8" cy="-1597.77" rx="33.86" ry="33.86"/>
<text text-anchor="middle" x="10830.8" y="-1592.72" font-family="Times,serif" font-size="14.00">END</text>
</g>
<!-- 69181 -->
<g id="node5" class="node">
<title>69181</title>
<ellipse fill="none" stroke="black" cx="1139.17" cy="-2755.77" rx="179.82" ry="179.82"/>
<text text-anchor="middle" x="1139.17" y="-2750.72" font-family="Times,serif" font-size="14.00">WHERE WERE THE DRONE(S) SIGHTED</text>
</g>
<!-- 69180&#45;&gt;69181 -->
<g id="edge4" class="edge">
<title>69180&#45;&gt;69181</title>
<path fill="none" stroke="black" d="M844.16,-2755.77C877.33,-2755.77 913.05,-2755.77 947.77,-2755.77"/>
<polygon fill="black" stroke="black" points="947.49,-2759.27 957.49,-2755.77 947.49,-2752.27 947.49,-2759.27"/>
<text text-anchor="middle" x="901.6" y="-2758.97" font-family="Times,serif" font-size="14.00">Please Specify</text>
</g>
<!-- 69182 -->
<g id="node6" class="node">
<title>69182</title>
<ellipse fill="none" stroke="black" cx="1911.96" cy="-2755.77" rx="349.22" ry="349.22"/>
<text text-anchor="middle" x="1911.96" y="-2750.72" font-family="Times,serif" font-size="14.00">FOR DRONE(S) SIGHTED BEYOND THE PERIMETER HOW CLOSE TO THE WALL</text>
</g>
<!-- 69181&#45;&gt;69182 -->
<g id="edge5" class="edge">
<title>69181&#45;&gt;69182</title>
<path fill="none" stroke="black" d="M1319.43,-2755.77C1388.78,-2755.77 1470.74,-2755.77 1551.21,-2755.77"/>
<polygon fill="black" stroke="black" points="1551.04,-2759.27 1561.04,-2755.77 1551.04,-2752.27 1551.04,-2759.27"/>
<text text-anchor="middle" x="1440.86" y="-2758.97" font-family="Times,serif" font-size="14.00">Please Specify location of each Drone</text>
</g>
<!-- 69183 -->
<g id="node7" class="node">
<title>69183</title>
<ellipse fill="none" stroke="black" cx="2706.46" cy="-2755.77" rx="329.78" ry="329.78"/>
<text text-anchor="middle" x="2706.46" y="-2750.72" font-family="Times,serif" font-size="14.00">WHAT WERE THE WEATHER CONDITIONS AT THE TIME OF THE SIGHTING</text>
</g>
<!-- 69182&#45;&gt;69183 -->
<g id="edge6" class="edge">
<title>69182&#45;&gt;69183</title>
<path fill="none" stroke="black" d="M2261.42,-2755.77C2295.91,-2755.77 2330.89,-2755.77 2365.29,-2755.77"/>
<polygon fill="black" stroke="black" points="2364.92,-2759.27 2374.92,-2755.77 2364.92,-2752.27 2364.92,-2759.27"/>
<text text-anchor="middle" x="2318.93" y="-2758.97" font-family="Times,serif" font-size="14.00">Please Specify</text>
</g>
<!-- 69184 -->
<g id="node8" class="node">
<title>69184</title>
<ellipse fill="none" stroke="black" cx="3305.96" cy="-2755.77" rx="154.22" ry="154.22"/>
<text text-anchor="middle" x="3305.96" y="-2750.72" font-family="Times,serif" font-size="14.00">WAS THE DRONE(S) RECOVERED</text>
</g>
<!-- 69183&#45;&gt;69184 -->
<g id="edge7" class="edge">
<title>69183&#45;&gt;69184</title>
<path fill="none" stroke="black" d="M3036.36,-2755.77C3072.22,-2755.77 3107.49,-2755.77 3140.08,-2755.77"/>
<polygon fill="black" stroke="black" points="3139.98,-2759.27 3149.98,-2755.77 3139.98,-2752.27 3139.98,-2759.27"/>
<text text-anchor="middle" x="3093.98" y="-2758.97" font-family="Times,serif" font-size="14.00">Please Specify</text>
</g>
<!-- 69190 -->
<g id="node9" class="node">
<title>69190</title>
<ellipse fill="none" stroke="black" cx="4124.71" cy="-2755.77" rx="232.53" ry="232.53"/>
<text text-anchor="middle" x="4124.71" y="-2750.72" font-family="Times,serif" font-size="14.00">WHAT WAS THE DRONE(S) TYPE/AIRFRAME SHAPE</text>
</g>
<!-- 69184&#45;&gt;69190 -->
<g id="edge8" class="edge">
<title>69184&#45;&gt;69190</title>
<path fill="none" stroke="black" d="M3460.58,-2755.77C3578.79,-2755.77 3744.41,-2755.77 3880.56,-2755.77"/>
<polygon fill="black" stroke="black" points="3880.46,-2759.27 3890.46,-2755.77 3880.46,-2752.27 3880.46,-2759.27"/>
<text text-anchor="middle" x="3676.18" y="-2758.97" font-family="Times,serif" font-size="14.00">NO</text>
</g>
<!-- 69184&#45;&gt;69190 -->
<g id="edge9" class="edge">
<title>69184&#45;&gt;69190</title>
<path fill="none" stroke="black" d="M3459.05,-2736.61C3465.51,-2736.09 3471.91,-2735.64 3478.18,-2735.27 3653.87,-2724.79 3698.33,-2728.06 3874.18,-2735.27 3876.56,-2735.37 3878.94,-2735.47 3881.34,-2735.58"/>
<polygon fill="black" stroke="black" points="3880.97,-2739.06 3891.13,-2736.04 3881.31,-2732.07 3880.97,-2739.06"/>
<text text-anchor="middle" x="3676.18" y="-2738.47" font-family="Times,serif" font-size="14.00">YES &#45; PLEASE ADDITIONALLY LOG A SEPRATE FIND INCIDENT</text>
</g>
<!-- 69191 -->
<g id="node15" class="node">
<title>69191</title>
<ellipse fill="none" stroke="black" cx="4755.32" cy="-2755.77" rx="191.08" ry="191.08"/>
<text text-anchor="middle" x="4755.32" y="-2750.72" font-family="Times,serif" font-size="14.00">WHAT WAS THE DRONE(S) MAKE/MODEL</text>
</g>
<!-- 69190&#45;&gt;69191 -->
<g id="edge15" class="edge">
<title>69190&#45;&gt;69191</title>
<path fill="none" stroke="black" d="M4351.09,-2810.58C4359.22,-2811.79 4367.29,-2812.86 4375.24,-2813.77 4450.75,-2822.43 4470.95,-2824.07 4546.24,-2813.77 4550.95,-2813.12 4555.69,-2812.4 4560.47,-2811.61"/>
<polygon fill="black" stroke="black" points="4560.91,-2815.09 4570.16,-2809.91 4559.7,-2808.19 4560.91,-2815.09"/>
<text text-anchor="middle" x="4460.74" y="-2824.09" font-family="Times,serif" font-size="14.00">FIXED WING / PLANE</text>
</g>
<!-- 69190&#45;&gt;69191 -->
<g id="edge16" class="edge">
<title>69190&#45;&gt;69191</title>
<path fill="none" stroke="black" d="M4356.8,-2773.03C4363.01,-2773.3 4369.17,-2773.55 4375.24,-2773.77 4451.2,-2776.5 4470.32,-2777.05 4546.24,-2773.77 4548.61,-2773.67 4551,-2773.56 4553.4,-2773.44"/>
<polygon fill="black" stroke="black" points="4553.38,-2776.95 4563.19,-2772.94 4553.02,-2769.96 4553.38,-2776.95"/>
<text text-anchor="middle" x="4460.74" y="-2779.23" font-family="Times,serif" font-size="14.00">MULTI&#45;COPTER 4 MOTORS</text>
</g>
<!-- 69190&#45;&gt;69191 -->
<g id="edge17" class="edge">
<title>69190&#45;&gt;69191</title>
<path fill="none" stroke="black" d="M4357.49,-2753.37C4363.47,-2753.33 4369.4,-2753.3 4375.24,-2753.27 4451.24,-2752.89 4470.25,-2752.81 4546.24,-2753.27 4548.32,-2753.28 4550.41,-2753.29 4552.51,-2753.31"/>
<polygon fill="black" stroke="black" points="4552.28,-2756.81 4562.31,-2753.38 4552.33,-2749.81 4552.28,-2756.81"/>
<text text-anchor="middle" x="4460.74" y="-2756.47" font-family="Times,serif" font-size="14.00">MULTI&#45;COPTER 6 MOTORS</text>
</g>
<!-- 69190&#45;&gt;69191 -->
<g id="edge18" class="edge">
<title>69190&#45;&gt;69191</title>
<path fill="none" stroke="black" d="M4356.44,-2733.26C4362.77,-2732.89 4369.05,-2732.56 4375.24,-2732.27 4451.16,-2728.7 4470.36,-2728 4546.24,-2732.27 4548.79,-2732.41 4551.35,-2732.56 4553.92,-2732.73"/>
<polygon fill="black" stroke="black" points="4553.57,-2736.21 4563.78,-2733.39 4554.04,-2729.23 4553.57,-2736.21"/>
<text text-anchor="middle" x="4460.74" y="-2735.47" font-family="Times,serif" font-size="14.00">UNKNOWN</text>
</g>
<!-- 69190&#45;&gt;69191 -->
<g id="edge19" class="edge">
<title>69190&#45;&gt;69191</title>
<path fill="none" stroke="black" d="M4353.26,-2711.58C4360.66,-2710.71 4368,-2709.94 4375.24,-2709.27 4450.92,-2702.28 4470.7,-2700.93 4546.24,-2709.27 4549.97,-2709.68 4553.73,-2710.13 4557.5,-2710.62"/>
<polygon fill="black" stroke="black" points="4557.02,-2714.08 4567.4,-2711.98 4557.97,-2707.15 4557.02,-2714.08"/>
<text text-anchor="middle" x="4460.74" y="-2712.47" font-family="Times,serif" font-size="14.00">OTHER (PLEASE SPECIFY)</text>
</g>
<!-- 69185 -->
<g id="node10" class="node">
<title>69185</title>
<ellipse fill="none" stroke="black" cx="10412.84" cy="-2039.77" rx="232.53" ry="232.53"/>
<text text-anchor="middle" x="10412.84" y="-2034.72" font-family="Times,serif" font-size="14.00">WHAT WAS THE DRONE(S) TYPE/AIRFRAME SHAPE</text>
</g>
<!-- 69185&#45;&gt;END_NODE -->
<g id="edge10" class="edge">
<title>69185&#45;&gt;END_NODE</title>
<path fill="none" stroke="black" d="M10609.98,-1916.01C10654.96,-1881.51 10699.94,-1841.39 10735.45,-1797.77 10774.25,-1750.11 10801.42,-1683.86 10816.33,-1640.9"/>
<polygon fill="black" stroke="black" points="10819.56,-1642.26 10819.46,-1631.67 10812.93,-1640.02 10819.56,-1642.26"/>
<text text-anchor="middle" x="10766.2" y="-1771.77" font-family="Times,serif" font-size="14.00">Junk</text>
</g>
<!-- 69186 -->
<g id="node11" class="node">
<title>69186</title>
<ellipse fill="none" stroke="black" cx="10412.84" cy="-1597.77" rx="191.08" ry="191.08"/>
<text text-anchor="middle" x="10412.84" y="-1592.72" font-family="Times,serif" font-size="14.00">WHAT WAS THE DRONE(S) MAKE/MODEL</text>
</g>
<!-- 69186&#45;&gt;END_NODE -->
<g id="edge11" class="edge">
<title>69186&#45;&gt;END_NODE</title>
<path fill="none" stroke="black" d="M10604.17,-1597.77C10671.58,-1597.77 10741.48,-1597.77 10785.27,-1597.77"/>
<polygon fill="black" stroke="black" points="10785.12,-1601.27 10795.12,-1597.77 10785.12,-1594.27 10785.12,-1601.27"/>
<text text-anchor="middle" x="10766.2" y="-1600.97" font-family="Times,serif" font-size="14.00">Junk</text>
</g>
<!-- 69187 -->
<g id="node12" class="node">
<title>69187</title>
<ellipse fill="none" stroke="black" cx="10412.84" cy="-1140.77" rx="248.4" ry="248.4"/>
<text text-anchor="middle" x="10412.84" y="-1135.72" font-family="Times,serif" font-size="14.00">WHAT WAS THE APPROXIMATE SIZE OF THE DRONE(S)</text>
</g>
<!-- 69187&#45;&gt;END_NODE -->
<g id="edge12" class="edge">
<title>69187&#45;&gt;END_NODE</title>
<path fill="none" stroke="black" d="M10618.13,-1280.75C10660.3,-1315.71 10701.99,-1355.43 10735.45,-1397.77 10773.55,-1445.99 10800.89,-1512.1 10816.04,-1554.87"/>
<polygon fill="black" stroke="black" points="10812.64,-1555.75 10819.22,-1564.06 10819.25,-1553.46 10812.64,-1555.75"/>
<text text-anchor="middle" x="10766.2" y="-1467.44" font-family="Times,serif" font-size="14.00">Junk</text>
</g>
<!-- 69188 -->
<g id="node13" class="node">
<title>69188</title>
<ellipse fill="none" stroke="black" cx="10412.84" cy="-623.77" rx="250.44" ry="250.44"/>
<text text-anchor="middle" x="10412.84" y="-618.72" font-family="Times,serif" font-size="14.00">WHAT MODIFICATIONS WERE MADE TO THE DRONE(S)</text>
</g>
<!-- 69188&#45;&gt;END_NODE -->
<g id="edge13" class="edge">
<title>69188&#45;&gt;END_NODE</title>
<path fill="none" stroke="black" d="M10625.58,-756.28C10668.27,-792.54 10708.32,-835.39 10735.45,-883.77 10800.31,-999.4 10822.46,-1413.43 10828.15,-1552.12"/>
<polygon fill="black" stroke="black" points="10824.65,-1552.17 10828.55,-1562.02 10831.65,-1551.89 10824.65,-1552.17"/>
<text text-anchor="middle" x="10766.2" y="-1031.49" font-family="Times,serif" font-size="14.00">junk</text>
</g>
<!-- 69189 -->
<g id="node14" class="node">
<title>69189</title>
<ellipse fill="none" stroke="black" cx="10412.84" cy="-177.77" rx="177.77" ry="177.77"/>
<text text-anchor="middle" x="10412.84" y="-172.72" font-family="Times,serif" font-size="14.00">HOW WAS THE DRONE(S) RECOVERED</text>
</g>
<!-- 69189&#45;&gt;END_NODE -->
<g id="edge14" class="edge">
<title>69189&#45;&gt;END_NODE</title>
<path fill="none" stroke="black" d="M10580.68,-236.7C10639.33,-265.98 10699.52,-307.63 10735.45,-364.77 10799.73,-467 10823.9,-1341.96 10828.82,-1552.39"/>
<polygon fill="black" stroke="black" points="10825.31,-1552.18 10829.04,-1562.09 10832.31,-1552.01 10825.31,-1552.18"/>
<text text-anchor="middle" x="10766.2" y="-567.45" font-family="Times,serif" font-size="14.00">junk</text>
</g>
<!-- 69192 -->
<g id="node16" class="node">
<title>69192</title>
<ellipse fill="none" stroke="black" cx="5468.54" cy="-2755.77" rx="248.4" ry="248.4"/>
<text text-anchor="middle" x="5468.54" y="-2750.72" font-family="Times,serif" font-size="14.00">WHAT WAS THE APPROXIMATE SIZE OF THE DRONE(S)</text>
</g>
<!-- 69191&#45;&gt;69192 -->
<g id="edge20" class="edge">
<title>69191&#45;&gt;69192</title>
<path fill="none" stroke="black" d="M4898.95,-2882.16C4919.76,-2895.04 4941.83,-2906.17 4964.39,-2913.77 5064.54,-2947.48 5100.26,-2941.8 5202.14,-2913.77 5218.26,-2909.33 5234.39,-2903.64 5250.28,-2897.05"/>
<polygon fill="black" stroke="black" points="5251.48,-2900.34 5259.3,-2893.19 5248.73,-2893.91 5251.48,-2900.34"/>
<text text-anchor="middle" x="5083.27" y="-2940.17" font-family="Times,serif" font-size="14.00">Da&#45;Jiang Innovations (DJI) &#45; PHANTHOM</text>
</g>
<!-- 69191&#45;&gt;69192 -->
<g id="edge21" class="edge">
<title>69191&#45;&gt;69192</title>
<path fill="none" stroke="black" d="M4917.62,-2857.48C4933.02,-2864.03 4948.73,-2869.64 4964.39,-2873.77 5066.57,-2900.72 5098.78,-2895.71 5202.14,-2873.77 5212.49,-2871.57 5222.91,-2868.95 5233.35,-2865.97"/>
<polygon fill="black" stroke="black" points="5234.17,-2869.38 5242.76,-2863.18 5232.18,-2862.67 5234.17,-2869.38"/>
<text text-anchor="middle" x="5083.27" y="-2895.35" font-family="Times,serif" font-size="14.00">Da&#45;Jiang Innovations (DJI) &#45; INSPIRE</text>
</g>
<!-- 69191&#45;&gt;69192 -->
<g id="edge22" class="edge">
<title>69191&#45;&gt;69192</title>
<path fill="none" stroke="black" d="M4933.05,-2826.81C4943.55,-2829.53 4954.05,-2831.89 4964.39,-2833.77 5068.37,-2852.62 5097.56,-2848.82 5202.14,-2833.77 5208.09,-2832.91 5214.08,-2831.96 5220.11,-2830.91"/>
<polygon fill="black" stroke="black" points="5220.29,-2834.43 5229.5,-2829.2 5219.04,-2827.55 5220.29,-2834.43"/>
<text text-anchor="middle" x="5083.27" y="-2849.72" font-family="Times,serif" font-size="14.00">Da&#45;Jiang Innovations (DJI) &#45; MAVIC</text>
</g>
<!-- 69191&#45;&gt;69192 -->
<g id="edge23" class="edge">
<title>69191&#45;&gt;69192</title>
<path fill="none" stroke="black" d="M4943.26,-2791.55C4950.38,-2792.39 4957.45,-2793.14 4964.39,-2793.77 5069.63,-2803.3 5096.74,-2801.28 5202.14,-2793.77 5205.19,-2793.55 5208.26,-2793.32 5211.35,-2793.08"/>
<polygon fill="black" stroke="black" points="5211.39,-2796.58 5221.07,-2792.26 5210.81,-2789.61 5211.39,-2796.58"/>
<text text-anchor="middle" x="5083.27" y="-2803.38" font-family="Times,serif" font-size="14.00">Da&#45;Jiang Innovations (DJI) &#45; MINI</text>
</g>
<!-- 69191&#45;&gt;69192 -->
<g id="edge24" class="edge">
<title>69191&#45;&gt;69192</title>
<path fill="none" stroke="black" d="M4946.45,-2755.77C5026.87,-2755.77 5121.81,-2755.77 5208.48,-2755.77"/>
<polygon fill="black" stroke="black" points="5208.32,-2759.27 5218.32,-2755.77 5208.32,-2752.27 5208.32,-2759.27"/>
<text text-anchor="middle" x="5083.27" y="-2758.97" font-family="Times,serif" font-size="14.00">AUTEL EVO</text>
</g>
<!-- 69191&#45;&gt;69192 -->
<g id="edge25" class="edge">
<title>69191&#45;&gt;69192</title>
<path fill="none" stroke="black" d="M4945.65,-2736.32C4951.97,-2735.92 4958.23,-2735.57 4964.39,-2735.27 5069.93,-2730.08 5096.56,-2731.2 5202.14,-2735.27 5204.53,-2735.36 5206.94,-2735.46 5209.35,-2735.56"/>
<polygon fill="black" stroke="black" points="5209.05,-2739.05 5219.2,-2736 5209.36,-2732.06 5209.05,-2739.05"/>
<text text-anchor="middle" x="5083.27" y="-2738.47" font-family="Times,serif" font-size="14.00">PARROTT</text>
</g>
<!-- 69191&#45;&gt;69192 -->
<g id="edge26" class="edge">
<title>69191&#45;&gt;69192</title>
<path fill="none" stroke="black" d="M4942.05,-2714.02C4949.58,-2712.97 4957.05,-2712.04 4964.39,-2711.27 5069.48,-2700.16 5096.84,-2702.5 5202.14,-2711.27 5205.42,-2711.54 5208.71,-2711.83 5212.02,-2712.14"/>
<polygon fill="black" stroke="black" points="5211.54,-2715.61 5221.83,-2713.11 5212.22,-2708.64 5211.54,-2715.61"/>
<text text-anchor="middle" x="5083.27" y="-2714.47" font-family="Times,serif" font-size="14.00">SWELLPRO</text>
</g>
<!-- 69191&#45;&gt;69192 -->
<g id="edge27" class="edge">
<title>69191&#45;&gt;69192</title>
<path fill="none" stroke="black" d="M4934.93,-2689.31C4944.82,-2686.96 4954.68,-2684.91 4964.39,-2683.27 5068.58,-2665.64 5097.42,-2669.22 5202.14,-2683.27 5207.49,-2683.98 5212.87,-2684.78 5218.29,-2685.64"/>
<polygon fill="black" stroke="black" points="5217.51,-2689.06 5227.95,-2687.26 5218.66,-2682.16 5217.51,-2689.06"/>
<text text-anchor="middle" x="5083.27" y="-2686.47" font-family="Times,serif" font-size="14.00">YUNEEC</text>
</g>
<!-- 69191&#45;&gt;69192 -->
<g id="edge28" class="edge">
<title>69191&#45;&gt;69192</title>
<path fill="none" stroke="black" d="M4923.3,-2663.78C4936.93,-2658.79 4950.73,-2654.51 4964.39,-2651.27 5067.21,-2626.9 5098.33,-2631.57 5202.14,-2651.27 5210.7,-2652.89 5219.33,-2654.78 5227.98,-2656.9"/>
<polygon fill="black" stroke="black" points="5226.93,-2660.25 5237.49,-2659.33 5228.66,-2653.46 5226.93,-2660.25"/>
<text text-anchor="middle" x="5083.27" y="-2654.47" font-family="Times,serif" font-size="14.00">UNKNOWN</text>
</g>
<!-- 69191&#45;&gt;69192 -->
<g id="edge29" class="edge">
<title>69191&#45;&gt;69192</title>
<path fill="none" stroke="black" d="M4906.99,-2638.74C4925.55,-2628.81 4944.88,-2620.28 4964.39,-2614.27 5065.39,-2583.18 5099.63,-2588.65 5202.14,-2614.27 5215.64,-2617.64 5229.19,-2621.84 5242.65,-2626.66"/>
<polygon fill="black" stroke="black" points="5241.41,-2629.94 5252.01,-2630.13 5243.85,-2623.37 5241.41,-2629.94"/>
<text text-anchor="middle" x="5083.27" y="-2617.47" font-family="Times,serif" font-size="14.00">OTHER (PLEASE SPECIFY)</text>
</g>
<!-- 69193 -->
<g id="node17" class="node">
<title>69193</title>
<ellipse fill="none" stroke="black" cx="6163.88" cy="-2755.77" rx="250.44" ry="250.44"/>
<text text-anchor="middle" x="6163.88" y="-2750.72" font-family="Times,serif" font-size="14.00">WHAT MODIFICATIONS WERE MADE TO THE DRONE(S)</text>
</g>
<!-- 69192&#45;&gt;69193 -->
<g id="edge30" class="edge">
<title>69192&#45;&gt;69193</title>
<path fill="none" stroke="black" d="M5706.09,-2828.93C5715.79,-2830.77 5725.43,-2832.4 5734.94,-2833.77 5805.55,-2843.93 5824.82,-2843.86 5895.44,-2833.77 5901.2,-2832.94 5907.01,-2832.03 5912.86,-2831.02"/>
<polygon fill="black" stroke="black" points="5913.42,-2834.48 5922.64,-2829.26 5912.18,-2827.59 5913.42,-2834.48"/>
<text text-anchor="middle" x="5815.19" y="-2844.56" font-family="Times,serif" font-size="14.00">0 TO LESS THAN 0.5M</text>
</g>
<!-- 69192&#45;&gt;69193 -->
<g id="edge31" class="edge">
<title>69192&#45;&gt;69193</title>
<path fill="none" stroke="black" d="M5714.51,-2792.14C5721.39,-2792.74 5728.21,-2793.29 5734.94,-2793.77 5806.09,-2798.84 5824.28,-2798.8 5895.44,-2793.77 5898.36,-2793.56 5901.29,-2793.34 5904.24,-2793.11"/>
<polygon fill="black" stroke="black" points="5904.48,-2796.6 5914.16,-2792.29 5903.9,-2789.63 5904.48,-2796.6"/>
<text text-anchor="middle" x="5815.19" y="-2800.75" font-family="Times,serif" font-size="14.00">0.5M TO LESS THAN 1.0M</text>
</g>
<!-- 69192&#45;&gt;69193 -->
<g id="edge32" class="edge">
<title>69192&#45;&gt;69193</title>
<path fill="none" stroke="black" d="M5717.41,-2755.77C5777.24,-2755.77 5841.36,-2755.77 5901.78,-2755.77"/>
<polygon fill="black" stroke="black" points="5901.5,-2759.27 5911.5,-2755.77 5901.5,-2752.27 5901.5,-2759.27"/>
<text text-anchor="middle" x="5815.19" y="-2758.97" font-family="Times,serif" font-size="14.00">1.0M TO LESS THAN 2.0M</text>
</g>
<!-- 69192&#45;&gt;69193 -->
<g id="edge33" class="edge">
<title>69192&#45;&gt;69193</title>
<path fill="none" stroke="black" d="M5716.38,-2736.06C5722.62,-2735.77 5728.82,-2735.5 5734.94,-2735.27 5806.22,-2732.52 5824.16,-2732.54 5895.44,-2735.27 5897.8,-2735.36 5900.18,-2735.45 5902.56,-2735.55"/>
<polygon fill="black" stroke="black" points="5902.13,-2739.04 5912.28,-2735.98 5902.44,-2732.04 5902.13,-2739.04"/>
<text text-anchor="middle" x="5815.19" y="-2738.47" font-family="Times,serif" font-size="14.00">2.0M TO LESS THAN 3.0M</text>
</g>
<!-- 69192&#45;&gt;69193 -->
<g id="edge34" class="edge">
<title>69192&#45;&gt;69193</title>
<path fill="none" stroke="black" d="M5713.75,-2714.21C5720.89,-2713.49 5727.96,-2712.84 5734.94,-2712.27 5806.04,-2706.48 5824.34,-2706.52 5895.44,-2712.27 5898.68,-2712.53 5901.94,-2712.81 5905.22,-2713.11"/>
<polygon fill="black" stroke="black" points="5904.63,-2716.57 5914.92,-2714.03 5905.3,-2709.6 5904.63,-2716.57"/>
<text text-anchor="middle" x="5815.19" y="-2715.47" font-family="Times,serif" font-size="14.00">3.0M OR LONGER</text>
</g>
<!-- 69192&#45;&gt;69193 -->
<g id="edge35" class="edge">
<title>69192&#45;&gt;69193</title>
<path fill="none" stroke="black" d="M5708.79,-2691.09C5717.59,-2689.65 5726.32,-2688.36 5734.94,-2687.27 5805.7,-2678.28 5824.67,-2678.35 5895.44,-2687.27 5900.46,-2687.9 5905.51,-2688.6 5910.6,-2689.35"/>
<polygon fill="black" stroke="black" points="5909.86,-2692.78 5920.28,-2690.86 5910.94,-2685.86 5909.86,-2692.78"/>
<text text-anchor="middle" x="5815.19" y="-2690.47" font-family="Times,serif" font-size="14.00">UNKNOWN</text>
</g>
<!-- 69194 -->
<g id="node18" class="node">
<title>69194</title>
<ellipse fill="none" stroke="black" cx="6801.35" cy="-2755.77" rx="177.77" ry="177.77"/>
<text text-anchor="middle" x="6801.35" y="-2750.72" font-family="Times,serif" font-size="14.00">HOW WAS THE DRONE(S) RECOVERED</text>
</g>
<!-- 69193&#45;&gt;69194 -->
<g id="edge36" class="edge">
<title>69193&#45;&gt;69194</title>
<path fill="none" stroke="black" d="M6397.31,-2847.31C6464.6,-2863.02 6538.09,-2869.79 6605.58,-2853.77 6615.15,-2851.5 6624.78,-2848.68 6634.36,-2845.45"/>
<polygon fill="black" stroke="black" points="6635.46,-2848.77 6643.72,-2842.13 6633.13,-2842.17 6635.46,-2848.77"/>
<text text-anchor="middle" x="6518.95" y="-2866.14" font-family="Times,serif" font-size="14.00">ADDED HOOK</text>
</g>
<!-- 69193&#45;&gt;69194 -->
<g id="edge37" class="edge">
<title>69193&#45;&gt;69194</title>
<path fill="none" stroke="black" d="M6408.37,-2811.9C6472.56,-2820.11 6541.72,-2823.07 6605.58,-2813.77 6610.47,-2813.05 6615.42,-2812.25 6620.39,-2811.35"/>
<polygon fill="black" stroke="black" points="6620.65,-2814.87 6629.82,-2809.56 6619.34,-2807.99 6620.65,-2814.87"/>
<text text-anchor="middle" x="6518.95" y="-2822.73" font-family="Times,serif" font-size="14.00">COVERED LIGHTS</text>
</g>
<!-- 69193&#45;&gt;69194 -->
<g id="edge38" class="edge">
<title>69193&#45;&gt;69194</title>
<path fill="none" stroke="black" d="M6413.99,-2773.5C6476.54,-2775.87 6543.52,-2776.63 6605.58,-2773.77 6607.93,-2773.66 6610.3,-2773.54 6612.68,-2773.42"/>
<polygon fill="black" stroke="black" points="6612.6,-2776.93 6622.39,-2772.88 6612.21,-2769.94 6612.6,-2776.93"/>
<text text-anchor="middle" x="6518.95" y="-2778.81" font-family="Times,serif" font-size="14.00">DROP MECHANISM FITTED</text>
</g>
<!-- 69193&#45;&gt;69194 -->
<g id="edge39" class="edge">
<title>69193&#45;&gt;69194</title>
<path fill="none" stroke="black" d="M6414.55,-2753.3C6476.94,-2752.97 6543.7,-2752.87 6605.58,-2753.27 6607.68,-2753.28 6609.78,-2753.3 6611.9,-2753.31"/>
<polygon fill="black" stroke="black" points="6611.79,-2756.81 6621.82,-2753.39 6611.85,-2749.81 6611.79,-2756.81"/>
<text text-anchor="middle" x="6518.95" y="-2756.47" font-family="Times,serif" font-size="14.00">NONE</text>
</g>
<!-- 69193&#45;&gt;69194 -->
<g id="edge40" class="edge">
<title>69193&#45;&gt;69194</title>
<path fill="none" stroke="black" d="M6413.72,-2732.65C6476.35,-2729.54 6543.44,-2728.53 6605.58,-2732.27 6608.13,-2732.42 6610.71,-2732.59 6613.29,-2732.76"/>
<polygon fill="black" stroke="black" points="6612.99,-2736.25 6623.21,-2733.48 6613.5,-2729.27 6612.99,-2736.25"/>
<text text-anchor="middle" x="6518.95" y="-2735.47" font-family="Times,serif" font-size="14.00">PAINTED BLACK</text>
</g>
<!-- 69193&#45;&gt;69194 -->
<g id="edge41" class="edge">
<title>69193&#45;&gt;69194</title>
<path fill="none" stroke="black" d="M6410.62,-2710.45C6474.16,-2704.05 6542.45,-2701.84 6605.58,-2709.27 6609.5,-2709.73 6613.45,-2710.24 6617.42,-2710.8"/>
<polygon fill="black" stroke="black" points="6616.78,-2714.24 6627.19,-2712.26 6617.82,-2707.32 6616.78,-2714.24"/>
<text text-anchor="middle" x="6518.95" y="-2712.47" font-family="Times,serif" font-size="14.00">TETHER ATTACHED</text>
</g>
<!-- 69193&#45;&gt;69194 -->
<g id="edge42" class="edge">
<title>69193&#45;&gt;69194</title>
<path fill="none" stroke="black" d="M6405.26,-2687.25C6470.34,-2676.75 6540.71,-2672.74 6605.58,-2684.27 6611.88,-2685.39 6618.25,-2686.7 6624.64,-2688.17"/>
<polygon fill="black" stroke="black" points="6623.4,-2691.47 6633.95,-2690.42 6625.05,-2684.66 6623.4,-2691.47"/>
<text text-anchor="middle" x="6518.95" y="-2687.47" font-family="Times,serif" font-size="14.00">OTHER (PLEASE SPECIFY)</text>
</g>
<!-- 69195 -->
<g id="node19" class="node">
<title>69195</title>
<ellipse fill="none" stroke="black" cx="7326.64" cy="-2755.77" rx="199.78" ry="199.78"/>
<text text-anchor="middle" x="7326.64" y="-2750.72" font-family="Times,serif" font-size="14.00">DID THE DRONE(S) CARRY ANY PACKAGES</text>
</g>
<!-- 69194&#45;&gt;69195 -->
<g id="edge43" class="edge">
<title>69194&#45;&gt;69195</title>
<path fill="none" stroke="black" d="M6978.79,-2772.8C6984.97,-2773.16 6991.09,-2773.49 6997.12,-2773.77 7035.5,-2775.54 7076.39,-2775.13 7115.83,-2773.58"/>
<polygon fill="black" stroke="black" points="7115.83,-2777.08 7125.67,-2773.16 7115.54,-2770.09 7115.83,-2777.08"/>
<text text-anchor="middle" x="7052.99" y="-2778.13" font-family="Times,serif" font-size="14.00">CRASHED</text>
</g>
<!-- 69194&#45;&gt;69195 -->
<g id="edge44" class="edge">
<title>69194&#45;&gt;69195</title>
<path fill="none" stroke="black" d="M6979.36,-2753.4C6985.35,-2753.35 6991.28,-2753.31 6997.12,-2753.27 7035.35,-2753.02 7076.09,-2753.08 7115.4,-2753.29"/>
<polygon fill="black" stroke="black" points="7115.19,-2756.79 7125.21,-2753.35 7115.23,-2749.79 7115.19,-2756.79"/>
<text text-anchor="middle" x="7052.99" y="-2756.47" font-family="Times,serif" font-size="14.00">INTERCEPTED</text>
</g>
<!-- 69194&#45;&gt;69195 -->
<g id="edge45" class="edge">
<title>69194&#45;&gt;69195</title>
<path fill="none" stroke="black" d="M6977.97,-2733.59C6984.43,-2733.09 6990.83,-2732.65 6997.12,-2732.27 7035.77,-2729.94 7076.97,-2730.49 7116.65,-2732.56"/>
<polygon fill="black" stroke="black" points="7116.39,-2736.05 7126.57,-2733.12 7116.78,-2729.06 7116.39,-2736.05"/>
<text text-anchor="middle" x="7052.99" y="-2735.47" font-family="Times,serif" font-size="14.00">NOT RECOVERED</text>
</g>
<!-- 69196 -->
<g id="node20" class="node">
<title>69196</title>
<ellipse fill="none" stroke="black" cx="8132.83" cy="-2755.77" rx="313.91" ry="313.91"/>
<text text-anchor="middle" x="8132.83" y="-2750.72" font-family="Times,serif" font-size="14.00">WERE ANY PHOTOS OR CCTV TAKEN OF THE DRONE(S) OR PAYLOAD</text>
</g>
<!-- 69195&#45;&gt;69196 -->
<g id="edge46" class="edge">
<title>69195&#45;&gt;69196</title>
<path fill="none" stroke="black" d="M7489.56,-2872.1C7507.44,-2880.86 7525.89,-2888.37 7544.42,-2893.77 7653.87,-2925.65 7689.13,-2916.14 7800.92,-2893.77 7812.13,-2891.52 7823.44,-2888.89 7834.78,-2885.93"/>
<polygon fill="black" stroke="black" points="7835.44,-2889.38 7844.19,-2883.4 7833.62,-2882.62 7835.44,-2889.38"/>
<text text-anchor="middle" x="7672.67" y="-2917.47" font-family="Times,serif" font-size="14.00">NO PACKAGE OBSERVED/RECOVERED</text>
</g>
<!-- 69195&#45;&gt;69196 -->
<g id="edge47" class="edge">
<title>69195&#45;&gt;69196</title>
<path fill="none" stroke="black" d="M7506.65,-2843.55C7519.24,-2847.59 7531.9,-2851.07 7544.42,-2853.77 7633.92,-2873.06 7731.79,-2867.28 7821.53,-2851.46"/>
<polygon fill="black" stroke="black" points="7822.01,-2854.93 7831.23,-2849.7 7820.76,-2848.04 7822.01,-2854.93"/>
<text text-anchor="middle" x="7672.67" y="-2869.13" font-family="Times,serif" font-size="14.00">YES &#45; UNKNOWN</text>
</g>
<!-- 69195&#45;&gt;69196 -->
<g id="edge48" class="edge">
<title>69195&#45;&gt;69196</title>
<path fill="none" stroke="black" d="M7519.18,-2809.86C7527.67,-2811.36 7536.11,-2812.68 7544.42,-2813.77 7631.17,-2825.17 7725.39,-2822.52 7812.46,-2813.91"/>
<polygon fill="black" stroke="black" points="7812.77,-2817.4 7822.36,-2812.9 7812.06,-2810.44 7812.77,-2817.4"/>
<text text-anchor="middle" x="7672.67" y="-2824.57" font-family="Times,serif" font-size="14.00">YES 0 TO 100G (MORE OPTIONS BELOW)</text>
</g>
<!-- 69195&#45;&gt;69196 -->
<g id="edge49" class="edge">
<title>69195&#45;&gt;69196</title>
<path fill="none" stroke="black" d="M7526.06,-2772.91C7532.25,-2773.23 7538.38,-2773.52 7544.42,-2773.77 7629.78,-2777.31 7722.15,-2776.6 7807.81,-2774.06"/>
<polygon fill="black" stroke="black" points="7807.91,-2777.55 7817.8,-2773.75 7807.69,-2770.56 7807.91,-2777.55"/>
<text text-anchor="middle" x="7672.67" y="-2779.4" font-family="Times,serif" font-size="14.00">YES 101G TO 200G</text>
</g>
<!-- 69195&#45;&gt;69196 -->
<g id="edge50" class="edge">
<title>69195&#45;&gt;69196</title>
<path fill="none" stroke="black" d="M7526.68,-2753.38C7532.66,-2753.34 7538.58,-2753.3 7544.42,-2753.27 7629.57,-2752.78 7721.67,-2752.87 7807.12,-2753.22"/>
<polygon fill="black" stroke="black" points="7807.06,-2756.72 7817.08,-2753.27 7807.09,-2749.72 7807.06,-2756.72"/>
<text text-anchor="middle" x="7672.67" y="-2756.47" font-family="Times,serif" font-size="14.00">YES 201G TO 300G</text>
</g>
<!-- 69195&#45;&gt;69196 -->
<g id="edge51" class="edge">
<title>69195&#45;&gt;69196</title>
<path fill="none" stroke="black" d="M7525.45,-2733.43C7531.85,-2733 7538.18,-2732.61 7544.42,-2732.27 7629.97,-2727.64 7722.58,-2728.58 7808.41,-2731.93"/>
<polygon fill="black" stroke="black" points="7808.01,-2735.41 7818.15,-2732.32 7808.3,-2728.42 7808.01,-2735.41"/>
<text text-anchor="middle" x="7672.67" y="-2735.47" font-family="Times,serif" font-size="14.00">YES 301G TO 400G</text>
</g>
<!-- 69195&#45;&gt;69196 -->
<g id="edge52" class="edge">
<title>69195&#45;&gt;69196</title>
<path fill="none" stroke="black" d="M7521.71,-2711.12C7529.36,-2710.04 7536.95,-2709.08 7544.42,-2708.27 7630.66,-2698.93 7724.2,-2700.99 7810.76,-2707.92"/>
<polygon fill="black" stroke="black" points="7810.34,-2711.39 7820.59,-2708.73 7810.91,-2704.42 7810.34,-2711.39"/>
<text text-anchor="middle" x="7672.67" y="-2711.47" font-family="Times,serif" font-size="14.00">YES 401G TO 500G</text>
</g>
<!-- 69195&#45;&gt;69196 -->
<g id="edge53" class="edge">
<title>69195&#45;&gt;69196</title>
<path fill="none" stroke="black" d="M7514.65,-2687.26C7524.64,-2684.94 7534.6,-2682.91 7544.42,-2681.27 7632.17,-2666.61 7727.73,-2670.38 7815.78,-2681.79"/>
<polygon fill="black" stroke="black" points="7815.16,-2685.24 7825.54,-2683.09 7816.09,-2678.3 7815.16,-2685.24"/>
<text text-anchor="middle" x="7672.67" y="-2684.47" font-family="Times,serif" font-size="14.00">YES 501G TO 1000G</text>
</g>
<!-- 69195&#45;&gt;69196 -->
<g id="edge54" class="edge">
<title>69195&#45;&gt;69196</title>
<path fill="none" stroke="black" d="M7503.94,-2663.02C7517.4,-2658.35 7530.98,-2654.34 7544.42,-2651.27 7634.57,-2630.67 7733.28,-2637.15 7823.62,-2654.32"/>
<polygon fill="black" stroke="black" points="7822.91,-2657.75 7833.39,-2656.24 7824.25,-2650.88 7822.91,-2657.75"/>
<text text-anchor="middle" x="7672.67" y="-2654.47" font-family="Times,serif" font-size="14.00">YES MORE THAN 1001G</text>
</g>
<!-- 69197 -->
<g id="node21" class="node">
<title>69197</title>
<ellipse fill="none" stroke="black" cx="8640.96" cy="-2755.77" rx="132.73" ry="132.73"/>
<text text-anchor="middle" x="8640.96" y="-2750.72" font-family="Times,serif" font-size="14.00">WAS THE PILOT IDENTIFIED</text>
</g>
<!-- 69196&#45;&gt;69197 -->
<g id="edge55" class="edge">
<title>69196&#45;&gt;69197</title>
<path fill="none" stroke="black" d="M8447.17,-2755.77C8464.1,-2755.77 8480.64,-2755.77 8496.47,-2755.77"/>
<polygon fill="black" stroke="black" points="8496.36,-2759.27 8506.36,-2755.77 8496.36,-2752.27 8496.36,-2759.27"/>
<text text-anchor="middle" x="8477.48" y="-2758.97" font-family="Times,serif" font-size="14.00">NO</text>
</g>
<!-- 69196&#45;&gt;69197 -->
<g id="edge56" class="edge">
<title>69196&#45;&gt;69197</title>
<path fill="none" stroke="black" d="M8446.3,-2733.32C8461.15,-2733.66 8475.86,-2734.29 8490.23,-2735.27 8492.79,-2735.44 8495.36,-2735.63 8497.95,-2735.84"/>
<polygon fill="black" stroke="black" points="8497.64,-2739.32 8507.91,-2736.7 8498.25,-2732.35 8497.64,-2739.32"/>
<text text-anchor="middle" x="8477.48" y="-2738.47" font-family="Times,serif" font-size="14.00">YES</text>
</g>
<!-- 69199 -->
<g id="node22" class="node">
<title>69199</title>
<ellipse fill="none" stroke="black" cx="9878.09" cy="-2612.77" rx="150.64" ry="150.64"/>
<text text-anchor="middle" x="9878.09" y="-2607.72" font-family="Times,serif" font-size="14.00">WERE THE POLICE CONTACTED</text>
</g>
<!-- 69197&#45;&gt;69199 -->
<g id="edge57" class="edge">
<title>69197&#45;&gt;69199</title>
<path fill="none" stroke="black" d="M8734.28,-2850.57C8763.95,-2874.96 8798.68,-2897.93 8835.19,-2910.77 9110.88,-3007.68 9216.21,-3005.39 9492.7,-2910.77 9597.51,-2874.9 9695.85,-2797.53 9766.82,-2730.62"/>
<polygon fill="black" stroke="black" points="9768.97,-2733.4 9773.8,-2723.97 9764.15,-2728.33 9768.97,-2733.4"/>
<text text-anchor="middle" x="9163.94" y="-2985.79" font-family="Times,serif" font-size="14.00">NO</text>
</g>
<!-- 69198 -->
<g id="node23" class="node">
<title>69198</title>
<ellipse fill="none" stroke="black" cx="9163.94" cy="-2572.77" rx="328.75" ry="328.75"/>
<text text-anchor="middle" x="9163.94" y="-2567.72" font-family="Times,serif" font-size="14.00">WHAT WAS THE DISTANCE OF THE PILOT FROM THE PRISON PERIMETER</text>
</g>
<!-- 69197&#45;&gt;69198 -->
<g id="edge58" class="edge">
<title>69197&#45;&gt;69198</title>
<path fill="none" stroke="black" d="M8766.75,-2711.93C8790.4,-2703.63 8816.13,-2694.59 8842.73,-2685.25"/>
<polygon fill="black" stroke="black" points="8843.66,-2688.63 8851.94,-2682.01 8841.34,-2682.02 8843.66,-2688.63"/>
<text text-anchor="middle" x="8804.44" y="-2704.89" font-family="Times,serif" font-size="14.00">YES</text>
</g>
<!-- 69200 -->
<g id="node24" class="node">
<title>69200</title>
<ellipse fill="none" stroke="black" cx="10412.84" cy="-2612.77" rx="322.61" ry="322.61"/>
<text text-anchor="middle" x="10412.84" y="-2607.72" font-family="Times,serif" font-size="14.00">TO THE EXTENT OF YOUR KNOWLEDGE WAS THE PILOT APPRHENDED?</text>
</g>
<!-- 69199&#45;&gt;69200 -->
<g id="edge64" class="edge">
<title>69199&#45;&gt;69200</title>
<path fill="none" stroke="black" d="M10028.91,-2612.77C10044.94,-2612.77 10061.67,-2612.77 10078.8,-2612.77"/>
<polygon fill="black" stroke="black" points="10078.59,-2616.27 10088.59,-2612.77 10078.59,-2609.27 10078.59,-2616.27"/>
<text text-anchor="middle" x="10059.48" y="-2615.97" font-family="Times,serif" font-size="14.00">NO</text>
</g>
<!-- 69199&#45;&gt;69200 -->
<g id="edge65" class="edge">
<title>69199&#45;&gt;69200</title>
<path fill="none" stroke="black" d="M10027.99,-2593.61C10034.32,-2593.09 10040.58,-2592.64 10046.73,-2592.27 10057.43,-2591.62 10068.31,-2591.14 10079.29,-2590.82"/>
<polygon fill="black" stroke="black" points="10079.35,-2594.32 10089.26,-2590.57 10079.18,-2587.32 10079.35,-2594.32"/>
<text text-anchor="middle" x="10059.48" y="-2595.47" font-family="Times,serif" font-size="14.00">YES</text>
</g>
<!-- 69198&#45;&gt;69199 -->
<g id="edge59" class="edge">
<title>69198&#45;&gt;69199</title>
<path fill="none" stroke="black" d="M9484.29,-2647.47C9493.16,-2648.69 9501.98,-2649.8 9510.7,-2650.77 9598.49,-2660.55 9621.66,-2660.59 9709.45,-2650.77 9712.89,-2650.38 9716.37,-2649.95 9719.88,-2649.49"/>
<polygon fill="black" stroke="black" points="9720.23,-2652.97 9729.63,-2648.08 9719.23,-2646.04 9720.23,-2652.97"/>
<text text-anchor="middle" x="9610.07" y="-2661.32" font-family="Times,serif" font-size="14.00">0 TO LESS THAN 10 METRES</text>
</g>
<!-- 69198&#45;&gt;69199 -->
<g id="edge60" class="edge">
<title>69198&#45;&gt;69199</title>
<path fill="none" stroke="black" d="M9491.07,-2609.55C9497.67,-2609.99 9504.21,-2610.4 9510.7,-2610.77 9577.79,-2614.63 9651.92,-2615.64 9715.84,-2615.5"/>
<polygon fill="black" stroke="black" points="9715.73,-2619 9725.72,-2615.47 9715.71,-2612 9715.73,-2619"/>
<text text-anchor="middle" x="9610.07" y="-2618.71" font-family="Times,serif" font-size="14.00">10 TO LESS THAN 100 METRES</text>
</g>
<!-- 69198&#45;&gt;69199 -->
<g id="edge61" class="edge">
<title>69198&#45;&gt;69199</title>
<path fill="none" stroke="black" d="M9493.13,-2577.94C9564.52,-2580.56 9639.58,-2584.47 9709.45,-2590.27 9712,-2590.48 9714.58,-2590.7 9717.17,-2590.94"/>
<polygon fill="black" stroke="black" points="9716.84,-2594.42 9727.13,-2591.89 9717.5,-2587.45 9716.84,-2594.42"/>
<text text-anchor="middle" x="9610.07" y="-2593.47" font-family="Times,serif" font-size="14.00">100 TO LESS THAN 200 METRES</text>
</g>
<!-- 69198&#45;&gt;69199 -->
<g id="edge62" class="edge">
<title>69198&#45;&gt;69199</title>
<path fill="none" stroke="black" d="M9491.93,-2544.62C9563.91,-2543.83 9639.51,-2547.19 9709.45,-2558.27 9714.43,-2559.06 9719.46,-2559.97 9724.52,-2560.99"/>
<polygon fill="black" stroke="black" points="9723.63,-2564.38 9734.15,-2563.06 9725.11,-2557.54 9723.63,-2564.38"/>
<text text-anchor="middle" x="9610.07" y="-2561.47" font-family="Times,serif" font-size="14.00">200 METRES OR MORE</text>
</g>
<!-- 69198&#45;&gt;69199 -->
<g id="edge63" class="edge">
<title>69198&#45;&gt;69199</title>
<path fill="none" stroke="black" d="M9486.9,-2509.04C9560.74,-2504.07 9638.4,-2506.67 9709.45,-2524.27 9718.63,-2526.54 9727.87,-2529.42 9737.03,-2532.75"/>
<polygon fill="black" stroke="black" points="9735.73,-2536 9746.32,-2536.3 9738.23,-2529.46 9735.73,-2536"/>
<text text-anchor="middle" x="9610.07" y="-2527.47" font-family="Times,serif" font-size="14.00">UNKNOWN</text>
</g>
<!-- 69200&#45;&gt;END_NODE -->
<g id="edge66" class="edge">
<title>69200&#45;&gt;END_NODE</title>
<path fill="none" stroke="black" d="M10692.66,-2451.46C10726.74,-2420.57 10757.16,-2385.32 10778.95,-2345.77 10812.81,-2284.31 10825.71,-1795.69 10828.94,-1643.12"/>
<polygon fill="black" stroke="black" points="10832.43,-1643.47 10829.14,-1633.4 10825.43,-1643.33 10832.43,-1643.47"/>
<text text-anchor="middle" x="10766.2" y="-2379.74" font-family="Times,serif" font-size="14.00">NO</text>
</g>
<!-- 69200&#45;&gt;END_NODE -->
<g id="edge67" class="edge">
<title>69200&#45;&gt;END_NODE</title>
<path fill="none" stroke="black" d="M10656.03,-2400.94C10686.93,-2364.05 10714.89,-2323.89 10735.45,-2281.77 10790.89,-2168.18 10819.02,-1777.57 10827.21,-1643.43"/>
<polygon fill="black" stroke="black" points="10830.7,-1643.7 10827.81,-1633.51 10823.71,-1643.28 10830.7,-1643.7"/>
<text text-anchor="middle" x="10766.2" y="-2232.31" font-family="Times,serif" font-size="14.00">YES</text>
</g>
</g>
</svg>
