<?xml version="1.0" encoding="UTF-8" standalone="no"?>
<!DOCTYPE svg PUBLIC "-//W3C//DTD SVG 1.1//EN"
 "http://www.w3.org/Graphics/SVG/1.1/DTD/svg11.dtd">
<!-- Generated by graphviz version 12.2.1 (20241206.2353)
 -->
<!-- Title: FOOD_REFUSAL_1 Pages: 1 -->
<svg width="5750pt" height="573pt"
 viewBox="0.00 0.00 5749.59 573.38" xmlns="http://www.w3.org/2000/svg" xmlns:xlink="http://www.w3.org/1999/xlink">
<g id="graph0" class="graph" transform="scale(1 1) rotate(0) translate(4 569.38)">
<title>FOOD_REFUSAL_1</title>
<polygon fill="white" stroke="none" points="-4,4 -4,-569.38 5745.59,-569.38 5745.59,4 -4,4"/>
<!-- START_NODE -->
<g id="node1" class="node">
<title>START_NODE</title>
</g>
<!-- 44990 -->
<g id="node2" class="node">
<title>44990</title>
<ellipse fill="none" stroke="black" cx="318.14" cy="-282.69" rx="204.89" ry="204.89"/>
<text text-anchor="start" x="176.02" y="-278.64" font-family="Times,serif" font-size="14.00"> </text>
<text text-anchor="start" x="179.77" y="-278.64" font-family="Times,serif" font-size="14.00" fill="royalblue">44990 </text>
<text text-anchor="start" x="217.27" y="-278.64" font-family="Times,serif" font-size="14.00"> Is there any media interest in this incident? </text>
</g>
<!-- START_NODE&#45;&gt;44990 -->
<g id="edge1" class="edge">
<title>START_NODE&#45;&gt;44990</title>
<path fill="none" stroke="black" d="M53.91,-282.69C66.54,-282.69 83.01,-282.69 101.56,-282.69"/>
<polygon fill="black" stroke="black" points="101.51,-286.19 111.51,-282.69 101.51,-279.19 101.51,-286.19"/>
<text text-anchor="middle" x="83.62" y="-285.89" font-family="Times,serif" font-size="14.00">start</text>
</g>
<!-- 44575 -->
<g id="node9" class="node">
<title>44575</title>
<ellipse fill="none" stroke="black" cx="866.33" cy="-282.69" rx="233.04" ry="233.04"/>
<text text-anchor="start" x="703.58" y="-278.64" font-family="Times,serif" font-size="14.00"> </text>
<text text-anchor="start" x="707.33" y="-278.64" font-family="Times,serif" font-size="14.00" fill="royalblue">44575 </text>
<text text-anchor="start" x="744.83" y="-278.64" font-family="Times,serif" font-size="14.00"> Has the prison service press office been informed? </text>
</g>
<!-- 44990&#45;&gt;44575 -->
<g id="edge31" class="edge">
<title>44990&#45;&gt;44575</title>
<path fill="none" stroke="black" d="M523.3,-282.69C555.42,-282.69 588.91,-282.69 621.81,-282.69"/>
<polygon fill="black" stroke="black" points="621.43,-286.19 631.43,-282.69 621.43,-279.19 621.43,-286.19"/>
<text text-anchor="start" x="541.04" y="-286.89" font-family="Times,serif" font-size="14.00"> </text>
<text text-anchor="start" x="544.79" y="-286.89" font-family="Times,serif" font-size="14.00" fill="royalblue">181928 </text>
<text text-anchor="start" x="589.04" y="-286.89" font-family="Times,serif" font-size="14.00"> Yes </text>
</g>
<!-- 44990&#45;&gt;44575 -->
<g id="edge32" class="edge">
<title>44990&#45;&gt;44575</title>
<path fill="none" stroke="black" d="M522.54,-263.15C528.77,-262.79 534.95,-262.47 541.04,-262.19 567.41,-260.97 594.98,-260.89 622.43,-261.56"/>
<polygon fill="black" stroke="black" points="622.15,-265.05 632.25,-261.84 622.35,-258.05 622.15,-265.05"/>
<text text-anchor="start" x="542.16" y="-266.39" font-family="Times,serif" font-size="14.00"> </text>
<text text-anchor="start" x="545.91" y="-266.39" font-family="Times,serif" font-size="14.00" fill="royalblue">181927 </text>
<text text-anchor="start" x="590.16" y="-266.39" font-family="Times,serif" font-size="14.00"> No </text>
</g>
<!-- END_NODE -->
<g id="node3" class="node">
<title>END_NODE</title>
<ellipse fill="none" stroke="black" cx="5707.73" cy="-282.69" rx="29.86" ry="29.86"/>
<ellipse fill="none" stroke="black" cx="5707.73" cy="-282.69" rx="33.86" ry="33.86"/>
<text text-anchor="middle" x="5707.73" y="-277.64" font-family="Times,serif" font-size="14.00">END</text>
</g>
<!-- 44199 -->
<g id="node4" class="node">
<title>44199</title>
<ellipse fill="none" stroke="black" cx="4689.25" cy="-282.69" rx="258.12" ry="258.12"/>
<text text-anchor="start" x="4508.12" y="-278.64" font-family="Times,serif" font-size="14.00"> </text>
<text text-anchor="start" x="4511.87" y="-278.64" font-family="Times,serif" font-size="14.00" fill="royalblue">44199 </text>
<text text-anchor="start" x="4549.37" y="-278.64" font-family="Times,serif" font-size="14.00"> Is the food refusal effecting any other medical condition? </text>
</g>
<!-- 44427 -->
<g id="node5" class="node">
<title>44427</title>
<ellipse fill="none" stroke="black" cx="5310.62" cy="-282.69" rx="253" ry="253"/>
<text text-anchor="start" x="5133.25" y="-278.64" font-family="Times,serif" font-size="14.00"> </text>
<text text-anchor="start" x="5137" y="-278.64" font-family="Times,serif" font-size="14.00" fill="royalblue">44427 </text>
<text text-anchor="start" x="5174.5" y="-278.64" font-family="Times,serif" font-size="14.00"> Is the food refusal currently considered life threatening? </text>
</g>
<!-- 44199&#45;&gt;44427 -->
<g id="edge2" class="edge">
<title>44199&#45;&gt;44427</title>
<path fill="none" stroke="black" d="M4947.54,-282.69C4980.24,-282.69 5013.74,-282.69 5046.53,-282.69"/>
<polygon fill="black" stroke="black" points="5046.1,-286.19 5056.1,-282.69 5046.1,-279.19 5046.1,-286.19"/>
<text text-anchor="start" x="4965.37" y="-286.89" font-family="Times,serif" font-size="14.00"> </text>
<text text-anchor="start" x="4969.12" y="-286.89" font-family="Times,serif" font-size="14.00" fill="royalblue">179164 </text>
<text text-anchor="start" x="5013.37" y="-286.89" font-family="Times,serif" font-size="14.00"> Yes </text>
</g>
<!-- 44199&#45;&gt;44427 -->
<g id="edge3" class="edge">
<title>44199&#45;&gt;44427</title>
<path fill="none" stroke="black" d="M4946.82,-261.97C4978.07,-261.12 5009.57,-261.05 5039.62,-262.19 5042.01,-262.28 5044.4,-262.37 5046.81,-262.47"/>
<polygon fill="black" stroke="black" points="5046.49,-265.96 5056.63,-262.9 5046.8,-258.97 5046.49,-265.96"/>
<text text-anchor="start" x="4966.5" y="-266.39" font-family="Times,serif" font-size="14.00"> </text>
<text text-anchor="start" x="4970.25" y="-266.39" font-family="Times,serif" font-size="14.00" fill="royalblue">179163 </text>
<text text-anchor="start" x="5014.5" y="-266.39" font-family="Times,serif" font-size="14.00"> No </text>
</g>
<!-- 44427&#45;&gt;END_NODE -->
<g id="edge11" class="edge">
<title>44427&#45;&gt;END_NODE</title>
<path fill="none" stroke="black" d="M5564.09,-282.69C5601.73,-282.69 5636.48,-282.69 5662.26,-282.69"/>
<polygon fill="black" stroke="black" points="5661.94,-286.19 5671.94,-282.69 5661.94,-279.19 5661.94,-286.19"/>
<text text-anchor="start" x="5581.63" y="-286.89" font-family="Times,serif" font-size="14.00"> </text>
<text text-anchor="start" x="5585.38" y="-286.89" font-family="Times,serif" font-size="14.00" fill="royalblue">179913 </text>
<text text-anchor="start" x="5629.63" y="-286.89" font-family="Times,serif" font-size="14.00"> Yes </text>
</g>
<!-- 44427&#45;&gt;END_NODE -->
<g id="edge12" class="edge">
<title>44427&#45;&gt;END_NODE</title>
<path fill="none" stroke="black" d="M5562.2,-253.11C5593.9,-253.66 5625.76,-256.35 5655.88,-262.19 5659.23,-262.84 5662.64,-263.71 5666.02,-264.72"/>
<polygon fill="black" stroke="black" points="5664.63,-267.95 5675.22,-267.88 5666.9,-261.32 5664.63,-267.95"/>
<text text-anchor="start" x="5582.75" y="-266.39" font-family="Times,serif" font-size="14.00"> </text>
<text text-anchor="start" x="5586.5" y="-266.39" font-family="Times,serif" font-size="14.00" fill="royalblue">179912 </text>
<text text-anchor="start" x="5630.75" y="-266.39" font-family="Times,serif" font-size="14.00"> No </text>
</g>
<!-- 44319 -->
<g id="node6" class="node">
<title>44319</title>
<ellipse fill="none" stroke="black" cx="2523.5" cy="-282.69" rx="192.61" ry="192.61"/>
<text text-anchor="start" x="2390.37" y="-278.64" font-family="Times,serif" font-size="14.00"> </text>
<text text-anchor="start" x="2394.12" y="-278.64" font-family="Times,serif" font-size="14.00" fill="royalblue">44319 </text>
<text text-anchor="start" x="2431.62" y="-278.64" font-family="Times,serif" font-size="14.00"> Where is the prisoner currently located? </text>
</g>
<!-- 44399 -->
<g id="node7" class="node">
<title>44399</title>
<ellipse fill="none" stroke="black" cx="3189.29" cy="-282.69" rx="282.69" ry="282.69"/>
<text text-anchor="start" x="2990.17" y="-278.64" font-family="Times,serif" font-size="14.00"> </text>
<text text-anchor="start" x="2993.92" y="-278.64" font-family="Times,serif" font-size="14.00" fill="royalblue">44399 </text>
<text text-anchor="start" x="3031.42" y="-278.64" font-family="Times,serif" font-size="14.00"> Is the prisoner thought to be obtaining food from other sources? </text>
</g>
<!-- 44319&#45;&gt;44399 -->
<g id="edge4" class="edge">
<title>44319&#45;&gt;44399</title>
<path fill="none" stroke="black" d="M2708.81,-336.62C2717.32,-338.19 2725.78,-339.56 2734.11,-340.69 2787.99,-348.01 2845.52,-347.27 2900.88,-342.26"/>
<polygon fill="black" stroke="black" points="2901.16,-345.75 2910.78,-341.31 2900.5,-338.79 2901.16,-345.75"/>
<text text-anchor="start" x="2738.98" y="-350.3" font-family="Times,serif" font-size="14.00"> </text>
<text text-anchor="start" x="2742.73" y="-350.3" font-family="Times,serif" font-size="14.00" fill="royalblue">179556 </text>
<text text-anchor="start" x="2786.98" y="-350.3" font-family="Times,serif" font-size="14.00"> Normal location </text>
</g>
<!-- 44319&#45;&gt;44399 -->
<g id="edge5" class="edge">
<title>44319&#45;&gt;44399</title>
<path fill="none" stroke="black" d="M2715.8,-299.8C2721.97,-300.13 2728.09,-300.43 2734.11,-300.69 2786.27,-302.92 2841.82,-302.8 2895.51,-301.39"/>
<polygon fill="black" stroke="black" points="2895.52,-304.89 2905.42,-301.11 2895.33,-297.89 2895.52,-304.89"/>
<text text-anchor="start" x="2738.98" y="-306.62" font-family="Times,serif" font-size="14.00"> </text>
<text text-anchor="start" x="2742.73" y="-306.62" font-family="Times,serif" font-size="14.00" fill="royalblue">179559 </text>
<text text-anchor="start" x="2786.98" y="-306.62" font-family="Times,serif" font-size="14.00"> Segregation unit </text>
</g>
<!-- 44319&#45;&gt;44399 -->
<g id="edge6" class="edge">
<title>44319&#45;&gt;44399</title>
<path fill="none" stroke="black" d="M2716.4,-280.31C2722.37,-280.26 2728.28,-280.22 2734.11,-280.19 2786.1,-279.88 2841.44,-279.89 2894.95,-280.09"/>
<polygon fill="black" stroke="black" points="2894.81,-283.59 2904.83,-280.13 2894.84,-276.59 2894.81,-283.59"/>
<text text-anchor="start" x="2734.11" y="-284.39" font-family="Times,serif" font-size="14.00"> </text>
<text text-anchor="start" x="2737.86" y="-284.39" font-family="Times,serif" font-size="14.00" fill="royalblue">179555 </text>
<text text-anchor="start" x="2782.11" y="-284.39" font-family="Times,serif" font-size="14.00"> Health care centre </text>
</g>
<!-- 44319&#45;&gt;44399 -->
<g id="edge7" class="edge">
<title>44319&#45;&gt;44399</title>
<path fill="none" stroke="black" d="M2715.2,-260.39C2721.58,-259.94 2727.89,-259.54 2734.11,-259.19 2786.36,-256.27 2842.01,-256.44 2895.78,-258.29"/>
<polygon fill="black" stroke="black" points="2895.59,-261.78 2905.72,-258.65 2895.85,-254.79 2895.59,-261.78"/>
<text text-anchor="start" x="2739.36" y="-263.39" font-family="Times,serif" font-size="14.00"> </text>
<text text-anchor="start" x="2743.11" y="-263.39" font-family="Times,serif" font-size="14.00" fill="royalblue">179558 </text>
<text text-anchor="start" x="2787.36" y="-263.39" font-family="Times,serif" font-size="14.00"> Outside hospital </text>
</g>
<!-- 44319&#45;&gt;44399 -->
<g id="edge8" class="edge">
<title>44319&#45;&gt;44399</title>
<path fill="none" stroke="black" d="M2711.57,-239.07C2719.16,-237.97 2726.7,-237 2734.11,-236.19 2787.36,-230.35 2844.16,-230.84 2898.92,-234.72"/>
<polygon fill="black" stroke="black" points="2898.46,-238.19 2908.69,-235.45 2898.99,-231.21 2898.46,-238.19"/>
<text text-anchor="start" x="2768.23" y="-240.39" font-family="Times,serif" font-size="14.00"> </text>
<text text-anchor="start" x="2771.98" y="-240.39" font-family="Times,serif" font-size="14.00" fill="royalblue">179557 </text>
<text text-anchor="start" x="2816.23" y="-240.39" font-family="Times,serif" font-size="14.00"> Other </text>
</g>
<!-- 44688 -->
<g id="node8" class="node">
<title>44688</title>
<ellipse fill="none" stroke="black" cx="3740.04" cy="-282.69" rx="157.81" ry="157.81"/>
<text text-anchor="start" x="3632.42" y="-278.64" font-family="Times,serif" font-size="14.00"> </text>
<text text-anchor="start" x="3636.17" y="-278.64" font-family="Times,serif" font-size="14.00" fill="royalblue">44688 </text>
<text text-anchor="start" x="3673.67" y="-278.64" font-family="Times,serif" font-size="14.00"> Is the food refusal continuing? </text>
</g>
<!-- 44399&#45;&gt;44688 -->
<g id="edge9" class="edge">
<title>44399&#45;&gt;44688</title>
<path fill="none" stroke="black" d="M3472.3,-282.69C3505.9,-282.69 3539.35,-282.69 3570.62,-282.69"/>
<polygon fill="black" stroke="black" points="3570.53,-286.19 3580.53,-282.69 3570.53,-279.19 3570.53,-286.19"/>
<text text-anchor="start" x="3489.98" y="-286.89" font-family="Times,serif" font-size="14.00"> </text>
<text text-anchor="start" x="3493.73" y="-286.89" font-family="Times,serif" font-size="14.00" fill="royalblue">179841 </text>
<text text-anchor="start" x="3537.98" y="-286.89" font-family="Times,serif" font-size="14.00"> Yes </text>
</g>
<!-- 44399&#45;&gt;44688 -->
<g id="edge10" class="edge">
<title>44399&#45;&gt;44688</title>
<path fill="none" stroke="black" d="M3471.57,-260.42C3502.84,-259.98 3534.21,-260.43 3564.23,-262.19 3566.77,-262.34 3569.33,-262.5 3571.91,-262.67"/>
<polygon fill="black" stroke="black" points="3571.56,-266.15 3581.78,-263.38 3572.06,-259.17 3571.56,-266.15"/>
<text text-anchor="start" x="3491.11" y="-266.39" font-family="Times,serif" font-size="14.00"> </text>
<text text-anchor="start" x="3494.86" y="-266.39" font-family="Times,serif" font-size="14.00" fill="royalblue">179840 </text>
<text text-anchor="start" x="3539.11" y="-266.39" font-family="Times,serif" font-size="14.00"> No </text>
</g>
<!-- 44989 -->
<g id="node11" class="node">
<title>44989</title>
<ellipse fill="none" stroke="black" cx="4142.36" cy="-282.69" rx="134.26" ry="134.26"/>
<text text-anchor="start" x="4051.99" y="-278.64" font-family="Times,serif" font-size="14.00"> </text>
<text text-anchor="start" x="4055.74" y="-278.64" font-family="Times,serif" font-size="14.00" fill="royalblue">44989 </text>
<text text-anchor="start" x="4093.24" y="-278.64" font-family="Times,serif" font-size="14.00"> Duration of food refusal </text>
</g>
<!-- 44688&#45;&gt;44989 -->
<g id="edge15" class="edge">
<title>44688&#45;&gt;44989</title>
<path fill="none" stroke="black" d="M3898.11,-282.69C3930.54,-282.69 3964.55,-282.69 3996.52,-282.69"/>
<polygon fill="black" stroke="black" points="3996.23,-286.19 4006.23,-282.69 3996.23,-279.19 3996.23,-286.19"/>
<text text-anchor="start" x="3915.85" y="-286.89" font-family="Times,serif" font-size="14.00"> </text>
<text text-anchor="start" x="3919.6" y="-286.89" font-family="Times,serif" font-size="14.00" fill="royalblue">180875 </text>
<text text-anchor="start" x="3963.85" y="-286.89" font-family="Times,serif" font-size="14.00"> Yes </text>
</g>
<!-- 44688&#45;&gt;44989 -->
<g id="edge16" class="edge">
<title>44688&#45;&gt;44989</title>
<path fill="none" stroke="black" d="M3896.76,-262.69C3927.68,-260.75 3959.91,-260.15 3990.1,-262.19 3992.62,-262.36 3995.17,-262.55 3997.73,-262.75"/>
<polygon fill="black" stroke="black" points="3997.29,-266.22 4007.56,-263.58 3997.89,-259.25 3997.29,-266.22"/>
<text text-anchor="start" x="3916.97" y="-266.39" font-family="Times,serif" font-size="14.00"> </text>
<text text-anchor="start" x="3920.72" y="-266.39" font-family="Times,serif" font-size="14.00" fill="royalblue">180874 </text>
<text text-anchor="start" x="3964.97" y="-266.39" font-family="Times,serif" font-size="14.00"> No </text>
</g>
<!-- 44887 -->
<g id="node10" class="node">
<title>44887</title>
<ellipse fill="none" stroke="black" cx="1402.75" cy="-282.69" rx="193.12" ry="193.12"/>
<text text-anchor="start" x="1269.25" y="-278.64" font-family="Times,serif" font-size="14.00"> </text>
<text text-anchor="start" x="1273" y="-278.64" font-family="Times,serif" font-size="14.00" fill="royalblue">44887 </text>
<text text-anchor="start" x="1310.5" y="-278.64" font-family="Times,serif" font-size="14.00"> What is the reason for this food refusal? </text>
</g>
<!-- 44575&#45;&gt;44887 -->
<g id="edge13" class="edge">
<title>44575&#45;&gt;44887</title>
<path fill="none" stroke="black" d="M1099.79,-282.69C1132.52,-282.69 1165.96,-282.69 1198.1,-282.69"/>
<polygon fill="black" stroke="black" points="1197.9,-286.19 1207.9,-282.69 1197.9,-279.19 1197.9,-286.19"/>
<text text-anchor="start" x="1117.37" y="-286.89" font-family="Times,serif" font-size="14.00"> </text>
<text text-anchor="start" x="1121.12" y="-286.89" font-family="Times,serif" font-size="14.00" fill="royalblue">180503 </text>
<text text-anchor="start" x="1165.37" y="-286.89" font-family="Times,serif" font-size="14.00"> Yes </text>
</g>
<!-- 44575&#45;&gt;44887 -->
<g id="edge14" class="edge">
<title>44575&#45;&gt;44887</title>
<path fill="none" stroke="black" d="M1098.91,-261.73C1130.07,-260.76 1161.62,-260.73 1191.62,-262.19 1194.02,-262.31 1196.43,-262.43 1198.85,-262.56"/>
<polygon fill="black" stroke="black" points="1198.58,-266.05 1208.76,-263.13 1198.98,-259.06 1198.58,-266.05"/>
<text text-anchor="start" x="1118.5" y="-266.39" font-family="Times,serif" font-size="14.00"> </text>
<text text-anchor="start" x="1122.25" y="-266.39" font-family="Times,serif" font-size="14.00" fill="royalblue">180502 </text>
<text text-anchor="start" x="1166.5" y="-266.39" font-family="Times,serif" font-size="14.00"> No </text>
</g>
<!-- 44768 -->
<g id="node12" class="node">
<title>44768</title>
<ellipse fill="none" stroke="black" cx="1964.13" cy="-282.69" rx="166.51" ry="166.51"/>
<text text-anchor="start" x="1850.13" y="-278.64" font-family="Times,serif" font-size="14.00"> </text>
<text text-anchor="start" x="1853.88" y="-278.64" font-family="Times,serif" font-size="14.00" fill="royalblue">44768 </text>
<text text-anchor="start" x="1891.38" y="-278.64" font-family="Times,serif" font-size="14.00"> Describe the type of food refusal </text>
</g>
<!-- 44887&#45;&gt;44768 -->
<g id="edge21" class="edge">
<title>44887&#45;&gt;44768</title>
<path fill="none" stroke="black" d="M1558.33,-397.93C1576.36,-407.15 1595.05,-415.06 1613.87,-420.69 1684.45,-441.79 1709.75,-444.03 1779.62,-420.69 1796.37,-415.09 1812.82,-407.3 1828.57,-398.24"/>
<polygon fill="black" stroke="black" points="1830.19,-401.35 1836.98,-393.22 1826.6,-395.34 1830.19,-401.35"/>
<text text-anchor="start" x="1644.24" y="-441.56" font-family="Times,serif" font-size="14.00"> </text>
<text text-anchor="start" x="1647.99" y="-441.56" font-family="Times,serif" font-size="14.00" fill="royalblue">181539 </text>
<text text-anchor="start" x="1692.24" y="-441.56" font-family="Times,serif" font-size="14.00"> Facilities </text>
</g>
<!-- 44887&#45;&gt;44768 -->
<g id="edge22" class="edge">
<title>44887&#45;&gt;44768</title>
<path fill="none" stroke="black" d="M1575.36,-369.88C1588.18,-374.16 1601.1,-377.86 1613.87,-380.69 1685.79,-396.64 1708.16,-398.58 1779.62,-380.69 1789.59,-378.19 1799.61,-375.04 1809.55,-371.41"/>
<polygon fill="black" stroke="black" points="1810.8,-374.68 1818.88,-367.83 1808.29,-368.14 1810.8,-374.68"/>
<text text-anchor="start" x="1655.12" y="-397.58" font-family="Times,serif" font-size="14.00"> </text>
<text text-anchor="start" x="1658.87" y="-397.58" font-family="Times,serif" font-size="14.00" fill="royalblue">181540 </text>
<text text-anchor="start" x="1703.12" y="-397.58" font-family="Times,serif" font-size="14.00"> Food </text>
</g>
<!-- 44887&#45;&gt;44768 -->
<g id="edge23" class="edge">
<title>44887&#45;&gt;44768</title>
<path fill="none" stroke="black" d="M1588.51,-336.62C1597.04,-338.19 1605.52,-339.56 1613.87,-340.69 1686.87,-350.58 1706.81,-351.92 1779.62,-340.69 1784.63,-339.92 1789.69,-339.03 1794.78,-338.05"/>
<polygon fill="black" stroke="black" points="1795.38,-341.5 1804.47,-336.06 1793.97,-334.64 1795.38,-341.5"/>
<text text-anchor="start" x="1658.87" y="-352.82" font-family="Times,serif" font-size="14.00"> </text>
<text text-anchor="start" x="1662.62" y="-352.82" font-family="Times,serif" font-size="14.00" fill="royalblue">181543 </text>
<text text-anchor="start" x="1706.87" y="-352.82" font-family="Times,serif" font-size="14.00"> Pay </text>
</g>
<!-- 44887&#45;&gt;44768 -->
<g id="edge24" class="edge">
<title>44887&#45;&gt;44768</title>
<path fill="none" stroke="black" d="M1595.51,-299.8C1601.7,-300.13 1607.83,-300.43 1613.87,-300.69 1687.47,-303.84 1706.04,-304.29 1779.62,-300.69 1781.99,-300.57 1784.38,-300.45 1786.78,-300.32"/>
<polygon fill="black" stroke="black" points="1786.84,-303.82 1796.61,-299.73 1786.42,-296.83 1786.84,-303.82"/>
<text text-anchor="start" x="1653.62" y="-307.42" font-family="Times,serif" font-size="14.00"> </text>
<text text-anchor="start" x="1657.37" y="-307.42" font-family="Times,serif" font-size="14.00" fill="royalblue">181546 </text>
<text text-anchor="start" x="1701.62" y="-307.42" font-family="Times,serif" font-size="14.00"> Visits </text>
</g>
<!-- 44887&#45;&gt;44768 -->
<g id="edge25" class="edge">
<title>44887&#45;&gt;44768</title>
<path fill="none" stroke="black" d="M1596.12,-280.31C1602.1,-280.26 1608.03,-280.22 1613.87,-280.19 1687.53,-279.75 1705.95,-279.69 1779.62,-280.19 1781.83,-280.2 1784.05,-280.22 1786.29,-280.24"/>
<polygon fill="black" stroke="black" points="1786.03,-283.73 1796.06,-280.32 1786.09,-276.73 1786.03,-283.73"/>
<text text-anchor="start" x="1625.12" y="-284.39" font-family="Times,serif" font-size="14.00"> </text>
<text text-anchor="start" x="1628.87" y="-284.39" font-family="Times,serif" font-size="14.00" fill="royalblue">181544 </text>
<text text-anchor="start" x="1673.12" y="-284.39" font-family="Times,serif" font-size="14.00"> Time out of cell </text>
</g>
<!-- 44887&#45;&gt;44768 -->
<g id="edge26" class="edge">
<title>44887&#45;&gt;44768</title>
<path fill="none" stroke="black" d="M1594.92,-260.39C1601.31,-259.94 1607.64,-259.54 1613.87,-259.19 1687.42,-255.09 1706.1,-254.5 1779.62,-259.19 1782.16,-259.35 1784.72,-259.53 1787.29,-259.71"/>
<polygon fill="black" stroke="black" points="1786.9,-263.19 1797.15,-260.48 1787.45,-256.21 1786.9,-263.19"/>
<text text-anchor="start" x="1644.99" y="-263.39" font-family="Times,serif" font-size="14.00"> </text>
<text text-anchor="start" x="1648.74" y="-263.39" font-family="Times,serif" font-size="14.00" fill="royalblue">181541 </text>
<text text-anchor="start" x="1692.99" y="-263.39" font-family="Times,serif" font-size="14.00"> Location </text>
</g>
<!-- 44887&#45;&gt;44768 -->
<g id="edge27" class="edge">
<title>44887&#45;&gt;44768</title>
<path fill="none" stroke="black" d="M1590.98,-238.17C1598.69,-237.03 1606.34,-236.03 1613.87,-235.19 1687.08,-227.02 1706.54,-225.88 1779.62,-235.19 1783.74,-235.71 1787.9,-236.3 1792.08,-236.95"/>
<polygon fill="black" stroke="black" points="1791.28,-240.36 1801.71,-238.53 1792.42,-233.45 1791.28,-240.36"/>
<text text-anchor="start" x="1646.49" y="-239.39" font-family="Times,serif" font-size="14.00"> </text>
<text text-anchor="start" x="1650.24" y="-239.39" font-family="Times,serif" font-size="14.00" fill="royalblue">181545 </text>
<text text-anchor="start" x="1694.49" y="-239.39" font-family="Times,serif" font-size="14.00"> Transfer </text>
</g>
<!-- 44887&#45;&gt;44768 -->
<g id="edge28" class="edge">
<title>44887&#45;&gt;44768</title>
<path fill="none" stroke="black" d="M1583.79,-214.47C1593.88,-212.02 1603.95,-209.89 1613.87,-208.19 1686.47,-195.7 1707.32,-194.07 1779.62,-208.19 1786.48,-209.53 1793.42,-211.13 1800.36,-212.93"/>
<polygon fill="black" stroke="black" points="1799.25,-216.26 1809.82,-215.53 1801.11,-209.51 1799.25,-216.26"/>
<text text-anchor="start" x="1613.87" y="-212.39" font-family="Times,serif" font-size="14.00"> </text>
<text text-anchor="start" x="1617.62" y="-212.39" font-family="Times,serif" font-size="14.00" fill="royalblue">181538 </text>
<text text-anchor="start" x="1661.87" y="-212.39" font-family="Times,serif" font-size="14.00"> Charges/convictions </text>
</g>
<!-- 44887&#45;&gt;44768 -->
<g id="edge29" class="edge">
<title>44887&#45;&gt;44768</title>
<path fill="none" stroke="black" d="M1572.72,-190.59C1586.37,-185.65 1600.19,-181.4 1613.87,-178.19 1685.58,-161.34 1708.41,-159.33 1779.62,-178.19 1790.63,-181.1 1801.67,-184.85 1812.58,-189.19"/>
<polygon fill="black" stroke="black" points="1811,-192.32 1821.58,-192.93 1813.69,-185.86 1811,-192.32"/>
<text text-anchor="start" x="1653.62" y="-182.39" font-family="Times,serif" font-size="14.00"> </text>
<text text-anchor="start" x="1657.37" y="-182.39" font-family="Times,serif" font-size="14.00" fill="royalblue">181542 </text>
<text text-anchor="start" x="1701.62" y="-182.39" font-family="Times,serif" font-size="14.00"> Other </text>
</g>
<!-- 44989&#45;&gt;44199 -->
<g id="edge30" class="edge">
<title>44989&#45;&gt;44199</title>
<path fill="none" stroke="black" d="M4277.01,-282.69C4320.29,-282.69 4369.94,-282.69 4419.44,-282.69"/>
<polygon fill="black" stroke="black" points="4419.15,-286.19 4429.15,-282.69 4419.15,-279.19 4419.15,-286.19"/>
<text text-anchor="start" x="4294.63" y="-286.89" font-family="Times,serif" font-size="14.00"> </text>
<text text-anchor="start" x="4298.38" y="-286.89" font-family="Times,serif" font-size="14.00" fill="royalblue">181926 </text>
<text text-anchor="start" x="4342.63" y="-286.89" font-family="Times,serif" font-size="14.00"> Enter hours </text>
</g>
<!-- 44768&#45;&gt;44319 -->
<g id="edge17" class="edge">
<title>44768&#45;&gt;44319</title>
<path fill="none" stroke="black" d="M2126.95,-318.07C2134.26,-319.07 2141.51,-319.96 2148.64,-320.69 2221.26,-328.13 2240.18,-327.23 2312.89,-320.69 2316.12,-320.4 2319.38,-320.08 2322.67,-319.74"/>
<polygon fill="black" stroke="black" points="2322.83,-323.25 2332.39,-318.67 2322.06,-316.29 2322.83,-323.25"/>
<text text-anchor="start" x="2148.64" y="-330.14" font-family="Times,serif" font-size="14.00"> </text>
<text text-anchor="start" x="2152.39" y="-330.14" font-family="Times,serif" font-size="14.00" fill="royalblue">181149 </text>
<text text-anchor="start" x="2196.64" y="-330.14" font-family="Times,serif" font-size="14.00"> All food and liquids </text>
</g>
<!-- 44768&#45;&gt;44319 -->
<g id="edge18" class="edge">
<title>44768&#45;&gt;44319</title>
<path fill="none" stroke="black" d="M2130.85,-282.69C2189.91,-282.69 2257.11,-282.69 2318.98,-282.69"/>
<polygon fill="black" stroke="black" points="2318.95,-286.19 2328.95,-282.69 2318.95,-279.19 2318.95,-286.19"/>
<text text-anchor="start" x="2175.26" y="-286.89" font-family="Times,serif" font-size="14.00"> </text>
<text text-anchor="start" x="2179.01" y="-286.89" font-family="Times,serif" font-size="14.00" fill="royalblue">181151 </text>
<text text-anchor="start" x="2223.26" y="-286.89" font-family="Times,serif" font-size="14.00"> Food only </text>
</g>
<!-- 44768&#45;&gt;44319 -->
<g id="edge19" class="edge">
<title>44768&#45;&gt;44319</title>
<path fill="none" stroke="black" d="M2129.62,-263.42C2136.04,-262.95 2142.39,-262.54 2148.64,-262.19 2221.52,-258.13 2239.97,-258.63 2312.89,-262.19 2315.27,-262.31 2317.68,-262.43 2320.1,-262.56"/>
<polygon fill="black" stroke="black" points="2319.79,-266.05 2329.98,-263.13 2320.2,-259.06 2319.79,-266.05"/>
<text text-anchor="start" x="2172.26" y="-266.39" font-family="Times,serif" font-size="14.00"> </text>
<text text-anchor="start" x="2176.01" y="-266.39" font-family="Times,serif" font-size="14.00" fill="royalblue">181150 </text>
<text text-anchor="start" x="2220.26" y="-266.39" font-family="Times,serif" font-size="14.00"> Fluids only </text>
</g>
<!-- 44768&#45;&gt;44319 -->
<g id="edge20" class="edge">
<title>44768&#45;&gt;44319</title>
<path fill="none" stroke="black" d="M2126.12,-242.31C2133.7,-241.11 2141.24,-240.05 2148.64,-239.19 2221.14,-230.71 2240.27,-231.73 2312.89,-239.19 2316.38,-239.55 2319.9,-239.94 2323.44,-240.36"/>
<polygon fill="black" stroke="black" points="2322.94,-243.83 2333.31,-241.61 2323.83,-236.88 2322.94,-243.83"/>
<text text-anchor="start" x="2187.64" y="-243.39" font-family="Times,serif" font-size="14.00"> </text>
<text text-anchor="start" x="2191.39" y="-243.39" font-family="Times,serif" font-size="14.00" fill="royalblue">181152 </text>
<text text-anchor="start" x="2235.64" y="-243.39" font-family="Times,serif" font-size="14.00"> Other </text>
</g>
</g>
</svg>
