<?xml version="1.0" encoding="UTF-8" standalone="no"?>
<!DOCTYPE svg PUBLIC "-//W3C//DTD SVG 1.1//EN"
 "http://www.w3.org/Graphics/SVG/1.1/DTD/svg11.dtd">
<!-- Generated by graphviz version 12.1.1 (20240910.0053)
 -->
<!-- Title: FOOD_REFUSAL Pages: 1 -->
<svg width="6103pt" height="706pt"
 viewBox="0.00 0.00 6103.30 706.45" xmlns="http://www.w3.org/2000/svg" xmlns:xlink="http://www.w3.org/1999/xlink">
<g id="graph0" class="graph" transform="scale(1 1) rotate(0) translate(4 702.45)">
<title>FOOD_REFUSAL</title>
<polygon fill="white" stroke="none" points="-4,4 -4,-702.45 6099.3,-702.45 6099.3,4 -4,4"/>
<!-- START_NODE -->
<g id="node1" class="node">
<title>START_NODE</title>
</g>
<!-- 44990 -->
<g id="node2" class="node">
<title>44990</title>
<ellipse fill="none" stroke="black" cx="344.76" cy="-349.22" rx="231.51" ry="231.51"/>
<text text-anchor="middle" x="344.76" y="-344.17" font-family="Times,serif" font-size="14.00">IS THERE ANY MEDIA INTEREST IN THIS INCIDENT</text>
</g>
<!-- START_NODE&#45;&gt;44990 -->
<g id="edge1" class="edge">
<title>START_NODE&#45;&gt;44990</title>
<path fill="none" stroke="black" d="M53.84,-349.22C66.46,-349.22 82.98,-349.22 101.73,-349.22"/>
<polygon fill="black" stroke="black" points="101.5,-352.72 111.5,-349.22 101.5,-345.72 101.5,-352.72"/>
<text text-anchor="middle" x="83.62" y="-352.42" font-family="Times,serif" font-size="14.00">start</text>
</g>
<!-- 44575 -->
<g id="node9" class="node">
<title>44575</title>
<ellipse fill="none" stroke="black" cx="905.1" cy="-349.22" rx="267.33" ry="267.33"/>
<text text-anchor="middle" x="905.1" y="-344.17" font-family="Times,serif" font-size="14.00">HAS THE PRISON SERVICE PRESS OFFICE BEEN INFORMED</text>
</g>
<!-- 44990&#45;&gt;44575 -->
<g id="edge31" class="edge">
<title>44990&#45;&gt;44575</title>
<path fill="none" stroke="black" d="M576.48,-349.22C592.83,-349.22 609.4,-349.22 625.96,-349.22"/>
<polygon fill="black" stroke="black" points="625.91,-352.72 635.91,-349.22 625.91,-345.72 625.91,-352.72"/>
<text text-anchor="middle" x="607.02" y="-352.42" font-family="Times,serif" font-size="14.00">YES</text>
</g>
<!-- 44990&#45;&gt;44575 -->
<g id="edge32" class="edge">
<title>44990&#45;&gt;44575</title>
<path fill="none" stroke="black" d="M575.88,-329.57C582.07,-329.26 588.21,-328.97 594.27,-328.72 604.96,-328.28 615.86,-328.03 626.87,-327.95"/>
<polygon fill="black" stroke="black" points="626.87,-331.45 636.86,-327.93 626.85,-324.45 626.87,-331.45"/>
<text text-anchor="middle" x="607.02" y="-331.92" font-family="Times,serif" font-size="14.00">NO</text>
</g>
<!-- END_NODE -->
<g id="node3" class="node">
<title>END_NODE</title>
<ellipse fill="none" stroke="black" cx="6061.45" cy="-349.22" rx="29.86" ry="29.86"/>
<ellipse fill="none" stroke="black" cx="6061.45" cy="-349.22" rx="33.86" ry="33.86"/>
<text text-anchor="middle" x="6061.45" y="-344.17" font-family="Times,serif" font-size="14.00">END</text>
</g>
<!-- 44199 -->
<g id="node4" class="node">
<title>44199</title>
<ellipse fill="none" stroke="black" cx="4959.8" cy="-349.22" rx="314.93" ry="314.93"/>
<text text-anchor="middle" x="4959.8" y="-344.17" font-family="Times,serif" font-size="14.00">IS THE FOOD REFUSAL EFFECTING ANY OTHER MEDICAL CONDITION</text>
</g>
<!-- 44427 -->
<g id="node5" class="node">
<title>44427</title>
<ellipse fill="none" stroke="black" cx="5651.16" cy="-349.22" rx="314.93" ry="314.93"/>
<text text-anchor="middle" x="5651.16" y="-344.17" font-family="Times,serif" font-size="14.00">IS THE FOOD REFUSAL CURRENTLY CONSIDERED LIFE THREATENING</text>
</g>
<!-- 44199&#45;&gt;44427 -->
<g id="edge2" class="edge">
<title>44199&#45;&gt;44427</title>
<path fill="none" stroke="black" d="M5275.22,-349.22C5291.59,-349.22 5308.06,-349.22 5324.47,-349.22"/>
<polygon fill="black" stroke="black" points="5324.3,-352.72 5334.3,-349.22 5324.3,-345.72 5324.3,-352.72"/>
<text text-anchor="middle" x="5305.48" y="-352.42" font-family="Times,serif" font-size="14.00">YES</text>
</g>
<!-- 44199&#45;&gt;44427 -->
<g id="edge3" class="edge">
<title>44199&#45;&gt;44427</title>
<path fill="none" stroke="black" d="M5274.1,-328.1C5289.01,-328.08 5303.78,-328.28 5318.23,-328.72 5320.5,-328.79 5322.78,-328.87 5325.07,-328.94"/>
<polygon fill="black" stroke="black" points="5324.95,-332.44 5335.06,-329.29 5325.19,-325.44 5324.95,-332.44"/>
<text text-anchor="middle" x="5305.48" y="-331.92" font-family="Times,serif" font-size="14.00">NO</text>
</g>
<!-- 44427&#45;&gt;END_NODE -->
<g id="edge11" class="edge">
<title>44427&#45;&gt;END_NODE</title>
<path fill="none" stroke="black" d="M5966.52,-349.22C5985.13,-349.22 6001.98,-349.22 6016.12,-349.22"/>
<polygon fill="black" stroke="black" points="6015.82,-352.72 6025.82,-349.22 6015.82,-345.72 6015.82,-352.72"/>
<text text-anchor="middle" x="5996.84" y="-352.42" font-family="Times,serif" font-size="14.00">YES</text>
</g>
<!-- 44427&#45;&gt;END_NODE -->
<g id="edge12" class="edge">
<title>44427&#45;&gt;END_NODE</title>
<path fill="none" stroke="black" d="M5965.75,-329.34C5971.91,-329.12 5978.03,-328.91 5984.09,-328.72 5995.42,-328.37 5998.47,-326.57 6009.59,-328.72 6012.94,-329.37 6016.35,-330.24 6019.74,-331.26"/>
<polygon fill="black" stroke="black" points="6018.34,-334.48 6028.94,-334.42 6020.62,-327.86 6018.34,-334.48"/>
<text text-anchor="middle" x="5996.84" y="-331.92" font-family="Times,serif" font-size="14.00">NO</text>
</g>
<!-- 44319 -->
<g id="node6" class="node">
<title>44319</title>
<ellipse fill="none" stroke="black" cx="2658.47" cy="-349.22" rx="222.81" ry="222.81"/>
<text text-anchor="middle" x="2658.47" y="-344.17" font-family="Times,serif" font-size="14.00">WHERE IS THE PRISONER CURRENTLY LOCATED</text>
</g>
<!-- 44399 -->
<g id="node7" class="node">
<title>44399</title>
<ellipse fill="none" stroke="black" cx="3416.5" cy="-349.22" rx="349.22" ry="349.22"/>
<text text-anchor="middle" x="3416.5" y="-344.17" font-family="Times,serif" font-size="14.00">IS THE PRISONER THOUGHT TO BE OBTAINING FOOD FROM OTHER SOURCES</text>
</g>
<!-- 44319&#45;&gt;44399 -->
<g id="edge4" class="edge">
<title>44319&#45;&gt;44399</title>
<path fill="none" stroke="black" d="M2874.73,-403.84C2883,-405.12 2891.2,-406.26 2899.28,-407.22 2951.54,-413.45 3006.79,-413.83 3060.97,-410.7"/>
<polygon fill="black" stroke="black" points="3060.87,-414.21 3070.64,-410.09 3060.44,-407.22 3060.87,-414.21"/>
<text text-anchor="middle" x="2974.28" y="-415.82" font-family="Times,serif" font-size="14.00">NORMAL LOCATION</text>
</g>
<!-- 44319&#45;&gt;44399 -->
<g id="edge5" class="edge">
<title>44319&#45;&gt;44399</title>
<path fill="none" stroke="black" d="M2880.91,-366.45C2887.1,-366.74 2893.23,-367 2899.28,-367.22 2950,-369.12 3003.53,-369.31 3056.14,-368.43"/>
<polygon fill="black" stroke="black" points="3055.9,-371.94 3065.84,-368.26 3055.78,-364.94 3055.9,-371.94"/>
<text text-anchor="middle" x="2974.28" y="-372.13" font-family="Times,serif" font-size="14.00">SEGREGATION UNIT</text>
</g>
<!-- 44319&#45;&gt;44399 -->
<g id="edge6" class="edge">
<title>44319&#45;&gt;44399</title>
<path fill="none" stroke="black" d="M2881.58,-346.83C2887.54,-346.79 2893.45,-346.75 2899.28,-346.72 2949.9,-346.46 3003.31,-346.43 3055.82,-346.55"/>
<polygon fill="black" stroke="black" points="3055.49,-350.05 3065.5,-346.58 3055.51,-343.05 3055.49,-350.05"/>
<text text-anchor="middle" x="2974.28" y="-349.92" font-family="Times,serif" font-size="14.00">HEALTH CARE CENTRE</text>
</g>
<!-- 44319&#45;&gt;44399 -->
<g id="edge7" class="edge">
<title>44319&#45;&gt;44399</title>
<path fill="none" stroke="black" d="M2880.56,-326.75C2886.87,-326.37 2893.12,-326.02 2899.28,-325.72 2950.1,-323.24 3003.74,-323.01 3056.46,-324.16"/>
<polygon fill="black" stroke="black" points="3056.1,-327.65 3066.18,-324.39 3056.26,-320.65 3056.1,-327.65"/>
<text text-anchor="middle" x="2974.28" y="-328.92" font-family="Times,serif" font-size="14.00">OUTSIDE HOSPITAL</text>
</g>
<!-- 44319&#45;&gt;44399 -->
<g id="edge8" class="edge">
<title>44319&#45;&gt;44399</title>
<path fill="none" stroke="black" d="M2877.16,-305.15C2884.61,-304.24 2892,-303.42 2899.28,-302.72 2950.92,-297.76 3005.48,-297.4 3059.02,-299.8"/>
<polygon fill="black" stroke="black" points="3058.76,-303.29 3068.92,-300.28 3059.1,-296.3 3058.76,-303.29"/>
<text text-anchor="middle" x="2974.28" y="-305.92" font-family="Times,serif" font-size="14.00">OTHER</text>
</g>
<!-- 44688 -->
<g id="node8" class="node">
<title>44688</title>
<ellipse fill="none" stroke="black" cx="3997.32" cy="-349.22" rx="170.09" ry="170.09"/>
<text text-anchor="middle" x="3997.32" y="-344.17" font-family="Times,serif" font-size="14.00">IS THE FOOD REFUSAL CONTINUING</text>
</g>
<!-- 44399&#45;&gt;44688 -->
<g id="edge9" class="edge">
<title>44399&#45;&gt;44688</title>
<path fill="none" stroke="black" d="M3765.89,-349.22C3782.91,-349.22 3799.65,-349.22 3815.85,-349.22"/>
<polygon fill="black" stroke="black" points="3815.47,-352.72 3825.47,-349.22 3815.47,-345.72 3815.47,-352.72"/>
<text text-anchor="middle" x="3796.48" y="-352.42" font-family="Times,serif" font-size="14.00">YES</text>
</g>
<!-- 44399&#45;&gt;44688 -->
<g id="edge10" class="edge">
<title>44399&#45;&gt;44688</title>
<path fill="none" stroke="black" d="M3765.39,-327.14C3780.2,-327.42 3794.86,-327.94 3809.23,-328.72 3811.62,-328.85 3814.02,-328.99 3816.44,-329.14"/>
<polygon fill="black" stroke="black" points="3816.13,-332.63 3826.34,-329.8 3816.6,-325.65 3816.13,-332.63"/>
<text text-anchor="middle" x="3796.48" y="-331.92" font-family="Times,serif" font-size="14.00">NO</text>
</g>
<!-- 44989 -->
<g id="node11" class="node">
<title>44989</title>
<ellipse fill="none" stroke="black" cx="4372.39" cy="-349.22" rx="143.48" ry="143.48"/>
<text text-anchor="middle" x="4372.39" y="-344.17" font-family="Times,serif" font-size="14.00">DURATION OF FOOD REFUSAL</text>
</g>
<!-- 44688&#45;&gt;44989 -->
<g id="edge15" class="edge">
<title>44688&#45;&gt;44989</title>
<path fill="none" stroke="black" d="M4167.66,-349.22C4184.17,-349.22 4200.87,-349.22 4217.22,-349.22"/>
<polygon fill="black" stroke="black" points="4216.96,-352.72 4226.96,-349.22 4216.96,-345.72 4216.96,-352.72"/>
<text text-anchor="middle" x="4198.16" y="-352.42" font-family="Times,serif" font-size="14.00">YES</text>
</g>
<!-- 44688&#45;&gt;44989 -->
<g id="edge16" class="edge">
<title>44688&#45;&gt;44989</title>
<path fill="none" stroke="black" d="M4166.5,-328.03C4181.51,-327.64 4196.48,-327.81 4210.91,-328.72 4213.41,-328.88 4215.94,-329.06 4218.48,-329.24"/>
<polygon fill="black" stroke="black" points="4217.96,-332.71 4228.21,-330.02 4218.52,-325.73 4217.96,-332.71"/>
<text text-anchor="middle" x="4198.16" y="-331.92" font-family="Times,serif" font-size="14.00">NO</text>
</g>
<!-- 44887 -->
<g id="node10" class="node">
<title>44887</title>
<ellipse fill="none" stroke="black" cx="1455.72" cy="-349.22" rx="221.78" ry="221.78"/>
<text text-anchor="middle" x="1455.72" y="-344.17" font-family="Times,serif" font-size="14.00">WHAT IS THE REASON FOR THIS FOOD REFUSAL</text>
</g>
<!-- 44575&#45;&gt;44887 -->
<g id="edge13" class="edge">
<title>44575&#45;&gt;44887</title>
<path fill="none" stroke="black" d="M1172.78,-349.22C1189.29,-349.22 1205.83,-349.22 1222.18,-349.22"/>
<polygon fill="black" stroke="black" points="1221.94,-352.72 1231.94,-349.22 1221.94,-345.72 1221.94,-352.72"/>
<text text-anchor="middle" x="1203.18" y="-352.42" font-family="Times,serif" font-size="14.00">YES</text>
</g>
<!-- 44575&#45;&gt;44887 -->
<g id="edge14" class="edge">
<title>44575&#45;&gt;44887</title>
<path fill="none" stroke="black" d="M1171.83,-327.86C1186.75,-327.84 1201.53,-328.11 1215.93,-328.72 1218.33,-328.83 1220.74,-328.93 1223.16,-329.05"/>
<polygon fill="black" stroke="black" points="1222.88,-332.54 1233.05,-329.54 1223.23,-325.55 1222.88,-332.54"/>
<text text-anchor="middle" x="1203.18" y="-331.92" font-family="Times,serif" font-size="14.00">NO</text>
</g>
<!-- 44768 -->
<g id="node12" class="node">
<title>44768</title>
<ellipse fill="none" stroke="black" cx="2057.71" cy="-349.22" rx="185.96" ry="185.96"/>
<text text-anchor="middle" x="2057.71" y="-344.17" font-family="Times,serif" font-size="14.00">DESCRIBE THE TYPE OF FOOD REFUSAL</text>
</g>
<!-- 44887&#45;&gt;44768 -->
<g id="edge21" class="edge">
<title>44887&#45;&gt;44768</title>
<path fill="none" stroke="black" d="M1643.05,-468.75C1660.31,-476.16 1677.93,-482.51 1695.5,-487.22 1763.43,-505.44 1786.53,-507.91 1853.75,-487.22 1869.54,-482.37 1885.19,-475.82 1900.4,-468.2"/>
<polygon fill="black" stroke="black" points="1901.72,-471.45 1908.98,-463.74 1898.49,-465.24 1901.72,-471.45"/>
<text text-anchor="middle" x="1774.63" y="-505.03" font-family="Times,serif" font-size="14.00">FACILITIES</text>
</g>
<!-- 44887&#45;&gt;44768 -->
<g id="edge22" class="edge">
<title>44887&#45;&gt;44768</title>
<path fill="none" stroke="black" d="M1659.26,-438.47C1671.39,-441.89 1683.52,-444.86 1695.5,-447.22 1764.51,-460.83 1785.19,-462.91 1853.75,-447.22 1863.17,-445.07 1872.67,-442.42 1882.13,-439.38"/>
<polygon fill="black" stroke="black" points="1883,-442.78 1891.36,-436.28 1880.77,-436.15 1883,-442.78"/>
<text text-anchor="middle" x="1774.63" y="-461.42" font-family="Times,serif" font-size="14.00">FOOD</text>
</g>
<!-- 44887&#45;&gt;44768 -->
<g id="edge23" class="edge">
<title>44887&#45;&gt;44768</title>
<path fill="none" stroke="black" d="M1671.06,-403.84C1679.28,-405.12 1687.45,-406.26 1695.5,-407.22 1765.34,-415.58 1784.1,-416.98 1853.75,-407.22 1858.5,-406.56 1863.29,-405.81 1868.11,-404.99"/>
<polygon fill="black" stroke="black" points="1868.69,-408.44 1877.9,-403.21 1867.44,-401.55 1868.69,-408.44"/>
<text text-anchor="middle" x="1774.63" y="-417.23" font-family="Times,serif" font-size="14.00">PAY</text>
</g>
<!-- 44887&#45;&gt;44768 -->
<g id="edge24" class="edge">
<title>44887&#45;&gt;44768</title>
<path fill="none" stroke="black" d="M1677.21,-366.45C1683.37,-366.74 1689.48,-367 1695.5,-367.22 1765.79,-369.87 1783.49,-370.33 1853.75,-367.22 1856.13,-367.12 1858.53,-367.01 1860.94,-366.89"/>
<polygon fill="black" stroke="black" points="1860.99,-370.39 1870.79,-366.37 1860.62,-363.4 1860.99,-370.39"/>
<text text-anchor="middle" x="1774.63" y="-372.59" font-family="Times,serif" font-size="14.00">VISITS</text>
</g>
<!-- 44887&#45;&gt;44768 -->
<g id="edge25" class="edge">
<title>44887&#45;&gt;44768</title>
<path fill="none" stroke="black" d="M1677.88,-346.83C1683.81,-346.79 1689.7,-346.75 1695.5,-346.72 1765.83,-346.36 1783.42,-346.29 1853.75,-346.72 1855.84,-346.74 1857.94,-346.75 1860.05,-346.76"/>
<polygon fill="black" stroke="black" points="1859.9,-350.26 1869.93,-346.84 1859.95,-343.26 1859.9,-350.26"/>
<text text-anchor="middle" x="1774.63" y="-349.92" font-family="Times,serif" font-size="14.00">TIME OUT OF CELL</text>
</g>
<!-- 44887&#45;&gt;44768 -->
<g id="edge26" class="edge">
<title>44887&#45;&gt;44768</title>
<path fill="none" stroke="black" d="M1676.55,-326.77C1682.93,-326.38 1689.26,-326.03 1695.5,-325.72 1765.75,-322.28 1783.54,-321.67 1853.75,-325.72 1856.27,-325.87 1858.8,-326.02 1861.35,-326.19"/>
<polygon fill="black" stroke="black" points="1860.88,-329.66 1871.09,-326.86 1861.36,-322.68 1860.88,-329.66"/>
<text text-anchor="middle" x="1774.63" y="-328.92" font-family="Times,serif" font-size="14.00">LOCATION</text>
</g>
<!-- 44887&#45;&gt;44768 -->
<g id="edge27" class="edge">
<title>44887&#45;&gt;44768</title>
<path fill="none" stroke="black" d="M1673.47,-305.15C1680.89,-304.24 1688.25,-303.42 1695.5,-302.72 1765.51,-295.97 1783.86,-294.82 1853.75,-302.72 1857.59,-303.16 1861.47,-303.64 1865.37,-304.16"/>
<polygon fill="black" stroke="black" points="1864.53,-307.57 1874.92,-305.51 1865.51,-300.64 1864.53,-307.57"/>
<text text-anchor="middle" x="1774.63" y="-305.92" font-family="Times,serif" font-size="14.00">TRANSFER</text>
</g>
<!-- 44887&#45;&gt;44768 -->
<g id="edge28" class="edge">
<title>44887&#45;&gt;44768</title>
<path fill="none" stroke="black" d="M1667.21,-281.68C1676.72,-279.78 1686.18,-278.11 1695.5,-276.72 1765.07,-266.39 1784.45,-264.72 1853.75,-276.72 1860.07,-277.82 1866.45,-279.09 1872.86,-280.51"/>
<polygon fill="black" stroke="black" points="1871.65,-283.83 1882.19,-282.7 1873.25,-277.01 1871.65,-283.83"/>
<text text-anchor="middle" x="1774.63" y="-279.92" font-family="Times,serif" font-size="14.00">CHARGES/CONVICTIONS</text>
</g>
<!-- 44887&#45;&gt;44768 -->
<g id="edge29" class="edge">
<title>44887&#45;&gt;44768</title>
<path fill="none" stroke="black" d="M1657.81,-257.19C1670.41,-253.48 1683.03,-250.26 1695.5,-247.72 1764.42,-233.68 1785.3,-231.56 1853.75,-247.72 1863.61,-250.05 1873.53,-252.93 1883.41,-256.24"/>
<polygon fill="black" stroke="black" points="1882.08,-259.48 1892.67,-259.48 1884.39,-252.87 1882.08,-259.48"/>
<text text-anchor="middle" x="1774.63" y="-250.92" font-family="Times,serif" font-size="14.00">OTHER</text>
</g>
<!-- 44989&#45;&gt;44199 -->
<g id="edge30" class="edge">
<title>44989&#45;&gt;44199</title>
<path fill="none" stroke="black" d="M4516.22,-349.22C4552.18,-349.22 4592.28,-349.22 4633.25,-349.22"/>
<polygon fill="black" stroke="black" points="4633.03,-352.72 4643.03,-349.22 4633.03,-345.72 4633.03,-352.72"/>
<text text-anchor="middle" x="4580.36" y="-352.42" font-family="Times,serif" font-size="14.00">ENTER HOURS</text>
</g>
<!-- 44768&#45;&gt;44319 -->
<g id="edge17" class="edge">
<title>44768&#45;&gt;44319</title>
<path fill="none" stroke="black" d="M2240.49,-384.94C2247.63,-385.81 2254.71,-386.58 2261.67,-387.22 2330.7,-393.63 2348.55,-392.67 2417.67,-387.22 2420.76,-386.98 2423.87,-386.72 2427.01,-386.44"/>
<polygon fill="black" stroke="black" points="2427.27,-389.93 2436.9,-385.51 2426.62,-382.96 2427.27,-389.93"/>
<text text-anchor="middle" x="2339.67" y="-394.87" font-family="Times,serif" font-size="14.00">ALL FOOD AND LIQUIDS</text>
</g>
<!-- 44768&#45;&gt;44319 -->
<g id="edge18" class="edge">
<title>44768&#45;&gt;44319</title>
<path fill="none" stroke="black" d="M2244.06,-349.22C2300.93,-349.22 2364.25,-349.22 2423.91,-349.22"/>
<polygon fill="black" stroke="black" points="2423.88,-352.72 2433.88,-349.22 2423.88,-345.72 2423.88,-352.72"/>
<text text-anchor="middle" x="2339.67" y="-352.42" font-family="Times,serif" font-size="14.00">FOOD ONLY</text>
</g>
<!-- 44768&#45;&gt;44319 -->
<g id="edge19" class="edge">
<title>44768&#45;&gt;44319</title>
<path fill="none" stroke="black" d="M2243.1,-329.79C2249.36,-329.39 2255.56,-329.03 2261.67,-328.72 2330.91,-325.24 2348.4,-325.77 2417.67,-328.72 2420.03,-328.82 2422.41,-328.93 2424.8,-329.04"/>
<polygon fill="black" stroke="black" points="2424.37,-332.53 2434.54,-329.53 2424.72,-325.53 2424.37,-332.53"/>
<text text-anchor="middle" x="2339.67" y="-331.92" font-family="Times,serif" font-size="14.00">FLUIDS ONLY</text>
</g>
<!-- 44768&#45;&gt;44319 -->
<g id="edge20" class="edge">
<title>44768&#45;&gt;44319</title>
<path fill="none" stroke="black" d="M2239.59,-308.45C2247.03,-307.41 2254.41,-306.49 2261.67,-305.72 2330.61,-298.42 2348.61,-299.51 2417.67,-305.72 2421.08,-306.03 2424.53,-306.36 2427.99,-306.72"/>
<polygon fill="black" stroke="black" points="2427.28,-310.16 2437.6,-307.76 2428.04,-303.2 2427.28,-310.16"/>
<text text-anchor="middle" x="2339.67" y="-308.92" font-family="Times,serif" font-size="14.00">OTHER</text>
</g>
</g>
</svg>
