<?xml version="1.0" encoding="UTF-8" standalone="no"?>
<!DOCTYPE svg PUBLIC "-//W3C//DTD SVG 1.1//EN"
 "http://www.w3.org/Graphics/SVG/1.1/DTD/svg11.dtd">
<!-- Generated by graphviz version 15.0.0 (20260523.1842)
 -->
<!-- Title: FOOD_REFUSAL_2 Pages: 1 -->
<svg width="1454pt" height="402pt"
 viewBox="0.00 0.00 1454.00 402.00" xmlns="http://www.w3.org/2000/svg" xmlns:xlink="http://www.w3.org/1999/xlink">
<g id="graph0" class="graph" transform="scale(1 1) rotate(0) translate(4 398.43)">
<title>FOOD_REFUSAL_2</title>
<polygon fill="white" stroke="none" points="-4,4 -4,-398.43 1450.23,-398.43 1450.23,4 -4,4"/>
<!-- START_NODE -->
<g id="node1" class="node">
<title>START_NODE</title>
</g>
<!-- 900001 -->
<g id="node2" class="node">
<title>900001</title>
<ellipse fill="none" stroke="black" cx="281.29" cy="-197.22" rx="168.04" ry="168.04"/>
<text xml:space="preserve" text-anchor="start" x="166.17" y="-193.17" font-family="Times,serif" font-size="14.00"> </text>
<text xml:space="preserve" text-anchor="start" x="169.92" y="-193.17" font-family="Times,serif" font-size="14.00" fill="royalblue">900001 </text>
<text xml:space="preserve" text-anchor="start" x="214.17" y="-193.17" font-family="Times,serif" font-size="14.00"> Which type of refusal occurred? </text>
</g>
<!-- START_NODE&#45;&gt;900001 -->
<g id="edge1" class="edge">
<title>START_NODE&#45;&gt;900001</title>
<path fill="none" stroke="black" d="M53.58,-197.22C66.35,-197.22 83.02,-197.22 101.53,-197.22"/>
<polygon fill="black" stroke="black" points="101.43,-200.72 111.43,-197.22 101.43,-193.72 101.43,-200.72"/>
<text xml:space="preserve" text-anchor="middle" x="83.62" y="-200.42" font-family="Times,serif" font-size="14.00">start</text>
</g>
<!-- 900002 -->
<g id="node4" class="node">
<title>900002</title>
<ellipse fill="none" stroke="black" cx="952.55" cy="-197.22" rx="197.22" ry="197.22"/>
<text xml:space="preserve" text-anchor="start" x="816.05" y="-193.17" font-family="Times,serif" font-size="14.00"> </text>
<text xml:space="preserve" text-anchor="start" x="819.8" y="-193.17" font-family="Times,serif" font-size="14.00" fill="royalblue">900002 </text>
<text xml:space="preserve" text-anchor="start" x="864.05" y="-193.17" font-family="Times,serif" font-size="14.00"> Where is the prisoner currently located? </text>
</g>
<!-- 900001&#45;&gt;900002 -->
<g id="edge2" class="edge">
<title>900001&#45;&gt;900002</title>
<path fill="none" stroke="black" d="M448.68,-214.17C454.98,-214.57 461.21,-214.92 467.34,-215.22 587.2,-221.03 617.44,-220.25 737.34,-215.22 739.7,-215.12 742.09,-215.01 744.48,-214.9"/>
<polygon fill="black" stroke="black" points="744.44,-218.41 754.25,-214.41 744.09,-211.42 744.44,-218.41"/>
<text xml:space="preserve" text-anchor="start" x="497.34" y="-223.49" font-family="Times,serif" font-size="14.00"> </text>
<text xml:space="preserve" text-anchor="start" x="501.09" y="-223.49" font-family="Times,serif" font-size="14.00" fill="royalblue">950001 </text>
<text xml:space="preserve" text-anchor="start" x="545.34" y="-223.49" font-family="Times,serif" font-size="14.00"> Food (for 72 hours or more) </text>
</g>
<!-- 900001&#45;&gt;900002 -->
<g id="edge3" class="edge">
<title>900001&#45;&gt;900002</title>
<path fill="none" stroke="black" d="M449.73,-194.85C455.67,-194.8 461.55,-194.76 467.34,-194.72 587.33,-193.91 617.34,-194.02 737.34,-194.72 739.41,-194.73 741.49,-194.74 743.58,-194.75"/>
<polygon fill="black" stroke="black" points="743.32,-198.25 753.35,-194.82 743.37,-191.25 743.32,-198.25"/>
<text xml:space="preserve" text-anchor="start" x="493.21" y="-198.92" font-family="Times,serif" font-size="14.00"> </text>
<text xml:space="preserve" text-anchor="start" x="496.96" y="-198.92" font-family="Times,serif" font-size="14.00" fill="royalblue">950002 </text>
<text xml:space="preserve" text-anchor="start" x="541.21" y="-198.92" font-family="Times,serif" font-size="14.00"> Liquid (for 24 hours or more) </text>
</g>
<!-- 900001&#45;&gt;900002 -->
<g id="edge4" class="edge">
<title>900001&#45;&gt;900002</title>
<path fill="none" stroke="black" d="M448.14,-175.13C454.62,-174.59 461.04,-174.12 467.34,-173.72 587.1,-166.14 617.52,-167.16 737.34,-173.72 739.88,-173.86 742.44,-174 745.01,-174.16"/>
<polygon fill="black" stroke="black" points="744.65,-177.64 754.85,-174.8 745.1,-170.66 744.65,-177.64"/>
<text xml:space="preserve" text-anchor="start" x="467.34" y="-177.92" font-family="Times,serif" font-size="14.00"> </text>
<text xml:space="preserve" text-anchor="start" x="471.09" y="-177.92" font-family="Times,serif" font-size="14.00" fill="royalblue">950003 </text>
<text xml:space="preserve" text-anchor="start" x="515.34" y="-177.92" font-family="Times,serif" font-size="14.00"> Liquid and food (for 24 hours or more) </text>
</g>
<!-- END_NODE -->
<g id="node3" class="node">
<title>END_NODE</title>
<ellipse fill="none" stroke="black" cx="1412.38" cy="-197.22" rx="29.86" ry="29.86"/>
<ellipse fill="none" stroke="black" cx="1412.38" cy="-197.22" rx="33.86" ry="33.86"/>
<text xml:space="preserve" text-anchor="middle" x="1412.38" y="-192.17" font-family="Times,serif" font-size="14.00">END</text>
</g>
<!-- 900002&#45;&gt;END_NODE -->
<g id="edge5" class="edge">
<title>900002&#45;&gt;END_NODE</title>
<path fill="none" stroke="black" d="M1136.75,-268.56C1147.15,-271.16 1157.54,-273.41 1167.77,-275.22 1252.14,-290.1 1285.2,-316.02 1360.52,-275.22 1375.16,-267.29 1386.25,-253.11 1394.28,-239"/>
<polygon fill="black" stroke="black" points="1397.37,-240.65 1398.89,-230.17 1391.16,-237.41 1397.37,-240.65"/>
<text xml:space="preserve" text-anchor="start" x="1191.77" y="-301.33" font-family="Times,serif" font-size="14.00"> </text>
<text xml:space="preserve" text-anchor="start" x="1195.52" y="-301.33" font-family="Times,serif" font-size="14.00" fill="royalblue">950004 </text>
<text xml:space="preserve" text-anchor="start" x="1239.77" y="-301.33" font-family="Times,serif" font-size="14.00"> Normal location </text>
</g>
<!-- 900002&#45;&gt;END_NODE -->
<g id="edge6" class="edge">
<title>900002&#45;&gt;END_NODE</title>
<path fill="none" stroke="black" d="M1143.87,-246.74C1213.47,-256.65 1291.92,-258.02 1360.52,-235.22 1366.47,-233.24 1372.28,-230.27 1377.73,-226.83"/>
<polygon fill="black" stroke="black" points="1379.67,-229.75 1385.85,-221.15 1375.65,-224.02 1379.67,-229.75"/>
<text xml:space="preserve" text-anchor="start" x="1191.77" y="-257.73" font-family="Times,serif" font-size="14.00"> </text>
<text xml:space="preserve" text-anchor="start" x="1195.52" y="-257.73" font-family="Times,serif" font-size="14.00" fill="royalblue">950005 </text>
<text xml:space="preserve" text-anchor="start" x="1239.77" y="-257.73" font-family="Times,serif" font-size="14.00"> Segregation unit </text>
</g>
<!-- 900002&#45;&gt;END_NODE -->
<g id="edge7" class="edge">
<title>900002&#45;&gt;END_NODE</title>
<path fill="none" stroke="black" d="M1150.04,-197.22C1230.42,-197.22 1316.24,-197.22 1366.78,-197.22"/>
<polygon fill="black" stroke="black" points="1366.72,-200.72 1376.72,-197.22 1366.72,-193.72 1366.72,-200.72"/>
<text xml:space="preserve" text-anchor="start" x="1167.77" y="-201.42" font-family="Times,serif" font-size="14.00"> </text>
<text xml:space="preserve" text-anchor="start" x="1171.52" y="-201.42" font-family="Times,serif" font-size="14.00" fill="royalblue">950006 </text>
<text xml:space="preserve" text-anchor="start" x="1215.77" y="-201.42" font-family="Times,serif" font-size="14.00"> Constant supervision cell </text>
</g>
<!-- 900002&#45;&gt;END_NODE -->
<g id="edge8" class="edge">
<title>900002&#45;&gt;END_NODE</title>
<path fill="none" stroke="black" d="M1147.94,-168.46C1215.71,-163.42 1291.94,-163.41 1360.52,-176.72 1363.87,-177.37 1367.28,-178.24 1370.66,-179.25"/>
<polygon fill="black" stroke="black" points="1369.27,-182.47 1379.87,-182.41 1371.54,-175.85 1369.27,-182.47"/>
<text xml:space="preserve" text-anchor="start" x="1186.9" y="-180.92" font-family="Times,serif" font-size="14.00"> </text>
<text xml:space="preserve" text-anchor="start" x="1190.65" y="-180.92" font-family="Times,serif" font-size="14.00" fill="royalblue">950007 </text>
<text xml:space="preserve" text-anchor="start" x="1234.9" y="-180.92" font-family="Times,serif" font-size="14.00"> Health care centre </text>
</g>
<!-- 900002&#45;&gt;END_NODE -->
<g id="edge9" class="edge">
<title>900002&#45;&gt;END_NODE</title>
<path fill="none" stroke="black" d="M1139.66,-133.47C1211,-119.12 1291.73,-115.58 1360.52,-144.72 1369.42,-148.49 1377.53,-154.66 1384.53,-161.48"/>
<polygon fill="black" stroke="black" points="1381.78,-163.67 1391.18,-168.57 1386.89,-158.88 1381.78,-163.67"/>
<text xml:space="preserve" text-anchor="start" x="1192.15" y="-148.92" font-family="Times,serif" font-size="14.00"> </text>
<text xml:space="preserve" text-anchor="start" x="1195.9" y="-148.92" font-family="Times,serif" font-size="14.00" fill="royalblue">950008 </text>
<text xml:space="preserve" text-anchor="start" x="1240.15" y="-148.92" font-family="Times,serif" font-size="14.00"> Outside hospital </text>
</g>
<!-- 900002&#45;&gt;END_NODE -->
<g id="edge10" class="edge">
<title>900002&#45;&gt;END_NODE</title>
<path fill="none" stroke="black" d="M1130.5,-111.67C1142.93,-107.74 1155.42,-104.34 1167.77,-101.72 1251.56,-83.89 1287.08,-57.62 1360.52,-101.72 1379.54,-113.14 1391.84,-134.35 1399.57,-153.89"/>
<polygon fill="black" stroke="black" points="1396.19,-154.86 1402.89,-163.08 1402.78,-152.48 1396.19,-154.86"/>
<text xml:space="preserve" text-anchor="start" x="1221.02" y="-105.92" font-family="Times,serif" font-size="14.00"> </text>
<text xml:space="preserve" text-anchor="start" x="1224.77" y="-105.92" font-family="Times,serif" font-size="14.00" fill="royalblue">950009 </text>
<text xml:space="preserve" text-anchor="start" x="1269.02" y="-105.92" font-family="Times,serif" font-size="14.00"> Other </text>
</g>
</g>
</svg>
