<?xml version="1.0" encoding="UTF-8" standalone="no"?>
<!DOCTYPE svg PUBLIC "-//W3C//DTD SVG 1.1//EN"
 "http://www.w3.org/Graphics/SVG/1.1/DTD/svg11.dtd">
<!-- Generated by graphviz version 12.1.1 (20240910.0053)
 -->
<!-- Title: FOOD_REFUSAL Pages: 1 -->
<svg width="4543pt" height="507pt"
 viewBox="0.00 0.00 4543.08 506.84" xmlns="http://www.w3.org/2000/svg" xmlns:xlink="http://www.w3.org/1999/xlink">
<g id="graph0" class="graph" transform="scale(1 1) rotate(0) translate(4 502.84)">
<title>FOOD_REFUSAL</title>
<polygon fill="white" stroke="none" points="-4,4 -4,-502.84 4539.08,-502.84 4539.08,4 -4,4"/>
<!-- START_NODE -->
<g id="node1" class="node">
<title>START_NODE</title>
</g>
<!-- 44990 -->
<g id="node2" class="node">
<title>44990</title>
<ellipse fill="none" stroke="black" cx="284.88" cy="-249.42" rx="171.63" ry="171.63"/>
<text text-anchor="middle" x="284.88" y="-244.37" font-family="Times,serif" font-size="14.00">Is there any media interest in this incident?</text>
</g>
<!-- START_NODE&#45;&gt;44990 -->
<g id="edge1" class="edge">
<title>START_NODE&#45;&gt;44990</title>
<path fill="none" stroke="black" d="M53.94,-249.42C66.68,-249.42 83.25,-249.42 101.65,-249.42"/>
<polygon fill="black" stroke="black" points="101.5,-252.92 111.5,-249.42 101.5,-245.92 101.5,-252.92"/>
<text text-anchor="middle" x="83.62" y="-252.62" font-family="Times,serif" font-size="14.00">start</text>
</g>
<!-- 44575 -->
<g id="node9" class="node">
<title>44575</title>
<ellipse fill="none" stroke="black" cx="712.53" cy="-249.42" rx="199.78" ry="199.78"/>
<text text-anchor="middle" x="712.53" y="-244.37" font-family="Times,serif" font-size="14.00">Has the prison service press office been informed?</text>
</g>
<!-- 44990&#45;&gt;44575 -->
<g id="edge31" class="edge">
<title>44990&#45;&gt;44575</title>
<path fill="none" stroke="black" d="M456.86,-249.42C471.41,-249.42 486.23,-249.42 501.04,-249.42"/>
<polygon fill="black" stroke="black" points="500.84,-252.92 510.84,-249.42 500.84,-245.92 500.84,-252.92"/>
<text text-anchor="middle" x="484.63" y="-252.62" font-family="Times,serif" font-size="14.00">Yes</text>
</g>
<!-- 44990&#45;&gt;44575 -->
<g id="edge32" class="edge">
<title>44990&#45;&gt;44575</title>
<path fill="none" stroke="black" d="M455.72,-230.1C462.06,-229.65 468.34,-229.26 474.5,-228.92 483.52,-228.43 492.72,-228.18 502.02,-228.12"/>
<polygon fill="black" stroke="black" points="501.88,-231.62 511.88,-228.14 501.89,-224.62 501.88,-231.62"/>
<text text-anchor="middle" x="484.63" y="-232.12" font-family="Times,serif" font-size="14.00">No</text>
</g>
<!-- END_NODE -->
<g id="node3" class="node">
<title>END_NODE</title>
<ellipse fill="none" stroke="black" cx="4501.23" cy="-249.42" rx="29.86" ry="29.86"/>
<ellipse fill="none" stroke="black" cx="4501.23" cy="-249.42" rx="33.86" ry="33.86"/>
<text text-anchor="middle" x="4501.23" y="-244.37" font-family="Times,serif" font-size="14.00">END</text>
</g>
<!-- 44199 -->
<g id="node4" class="node">
<title>44199</title>
<ellipse fill="none" stroke="black" cx="3690.55" cy="-249.42" rx="224.85" ry="224.85"/>
<text text-anchor="middle" x="3690.55" y="-244.37" font-family="Times,serif" font-size="14.00">Is the food refusal effecting any other medical condition?</text>
</g>
<!-- 44427 -->
<g id="node5" class="node">
<title>44427</title>
<ellipse fill="none" stroke="black" cx="4191.39" cy="-249.42" rx="219.74" ry="219.74"/>
<text text-anchor="middle" x="4191.39" y="-244.37" font-family="Times,serif" font-size="14.00">Is the food refusal currently considered life threatening?</text>
</g>
<!-- 44199&#45;&gt;44427 -->
<g id="edge2" class="edge">
<title>44199&#45;&gt;44427</title>
<path fill="none" stroke="black" d="M3915.79,-249.42C3930.54,-249.42 3945.4,-249.42 3960.18,-249.42"/>
<polygon fill="black" stroke="black" points="3959.94,-252.92 3969.94,-249.42 3959.94,-245.92 3959.94,-252.92"/>
<text text-anchor="middle" x="3943.52" y="-252.62" font-family="Times,serif" font-size="14.00">Yes</text>
</g>
<!-- 44199&#45;&gt;44427 -->
<g id="edge3" class="edge">
<title>44199&#45;&gt;44427</title>
<path fill="none" stroke="black" d="M3914.9,-228.29C3928.01,-228.19 3941,-228.37 3953.65,-228.92 3956.02,-229.02 3958.41,-229.13 3960.81,-229.25"/>
<polygon fill="black" stroke="black" points="3960.44,-232.73 3970.6,-229.74 3960.79,-225.74 3960.44,-232.73"/>
<text text-anchor="middle" x="3943.52" y="-232.12" font-family="Times,serif" font-size="14.00">No</text>
</g>
<!-- 44427&#45;&gt;END_NODE -->
<g id="edge11" class="edge">
<title>44427&#45;&gt;END_NODE</title>
<path fill="none" stroke="black" d="M4411.6,-249.42C4427.88,-249.42 4442.97,-249.42 4455.9,-249.42"/>
<polygon fill="black" stroke="black" points="4455.64,-252.92 4465.64,-249.42 4455.64,-245.92 4455.64,-252.92"/>
<text text-anchor="middle" x="4439.25" y="-252.62" font-family="Times,serif" font-size="14.00">Yes</text>
</g>
<!-- 44427&#45;&gt;END_NODE -->
<g id="edge12" class="edge">
<title>44427&#45;&gt;END_NODE</title>
<path fill="none" stroke="black" d="M4410.66,-229.82C4416.88,-229.48 4423.04,-229.18 4429.12,-228.92 4438.11,-228.53 4440.54,-227.21 4449.37,-228.92 4452.72,-229.57 4456.13,-230.44 4459.52,-231.46"/>
<polygon fill="black" stroke="black" points="4458.12,-234.68 4468.72,-234.61 4460.39,-228.06 4458.12,-234.68"/>
<text text-anchor="middle" x="4439.25" y="-232.12" font-family="Times,serif" font-size="14.00">No</text>
</g>
<!-- 44319 -->
<g id="node6" class="node">
<title>44319</title>
<ellipse fill="none" stroke="black" cx="2008.91" cy="-249.42" rx="160.37" ry="160.37"/>
<text text-anchor="middle" x="2008.91" y="-244.37" font-family="Times,serif" font-size="14.00">Where is the prisoner currently located?</text>
</g>
<!-- 44399 -->
<g id="node7" class="node">
<title>44399</title>
<ellipse fill="none" stroke="black" cx="2553.7" cy="-249.42" rx="249.42" ry="249.42"/>
<text text-anchor="middle" x="2553.7" y="-244.37" font-family="Times,serif" font-size="14.00">Is the prisoner thought to be obtaining food from other sources?</text>
</g>
<!-- 44319&#45;&gt;44399 -->
<g id="edge4" class="edge">
<title>44319&#45;&gt;44399</title>
<path fill="none" stroke="black" d="M2160.55,-302.21C2169.52,-304.25 2178.48,-306.02 2187.28,-307.42 2223.79,-313.24 2262.37,-313.51 2300.22,-310.43"/>
<polygon fill="black" stroke="black" points="2300.26,-313.94 2309.9,-309.56 2299.63,-306.97 2300.26,-313.94"/>
<text text-anchor="middle" x="2236.78" y="-315.57" font-family="Times,serif" font-size="14.00">Normal location</text>
</g>
<!-- 44319&#45;&gt;44399 -->
<g id="edge5" class="edge">
<title>44319&#45;&gt;44399</title>
<path fill="none" stroke="black" d="M2168.43,-266.31C2174.79,-266.73 2181.09,-267.11 2187.28,-267.42 2221.63,-269.16 2257.79,-269.36 2293.47,-268.59"/>
<polygon fill="black" stroke="black" points="2293.1,-272.1 2303.01,-268.36 2292.93,-265.1 2293.1,-272.1"/>
<text text-anchor="middle" x="2236.78" y="-272.21" font-family="Times,serif" font-size="14.00">Segregation unit</text>
</g>
<!-- 44319&#45;&gt;44399 -->
<g id="edge6" class="edge">
<title>44319&#45;&gt;44399</title>
<path fill="none" stroke="black" d="M2169.45,-247.07C2175.46,-247.01 2181.42,-246.96 2187.28,-246.92 2221.34,-246.68 2257.18,-246.65 2292.57,-246.76"/>
<polygon fill="black" stroke="black" points="2292.51,-250.25 2302.53,-246.79 2292.54,-243.25 2292.51,-250.25"/>
<text text-anchor="middle" x="2236.78" y="-250.12" font-family="Times,serif" font-size="14.00">Health care centre</text>
</g>
<!-- 44319&#45;&gt;44399 -->
<g id="edge7" class="edge">
<title>44319&#45;&gt;44399</title>
<path fill="none" stroke="black" d="M2167.91,-227.41C2174.45,-226.84 2180.92,-226.34 2187.28,-225.92 2221.77,-223.65 2258.09,-223.4 2293.92,-224.42"/>
<polygon fill="black" stroke="black" points="2293.4,-227.9 2303.5,-224.73 2293.62,-220.91 2293.4,-227.9"/>
<text text-anchor="middle" x="2236.78" y="-229.12" font-family="Times,serif" font-size="14.00">Outside hospital</text>
</g>
<!-- 44319&#45;&gt;44399 -->
<g id="edge8" class="edge">
<title>44319&#45;&gt;44399</title>
<path fill="none" stroke="black" d="M2163.74,-206.56C2171.66,-205.15 2179.54,-203.92 2187.28,-202.92 2222.91,-198.33 2260.51,-197.99 2297.49,-200.26"/>
<polygon fill="black" stroke="black" points="2297.22,-203.75 2307.44,-200.95 2297.7,-196.77 2297.22,-203.75"/>
<text text-anchor="middle" x="2236.78" y="-206.12" font-family="Times,serif" font-size="14.00">Other</text>
</g>
<!-- 44688 -->
<g id="node8" class="node">
<title>44688</title>
<ellipse fill="none" stroke="black" cx="2983.91" cy="-249.42" rx="124.54" ry="124.54"/>
<text text-anchor="middle" x="2983.91" y="-244.37" font-family="Times,serif" font-size="14.00">Is the food refusal continuing?</text>
</g>
<!-- 44399&#45;&gt;44688 -->
<g id="edge9" class="edge">
<title>44399&#45;&gt;44688</title>
<path fill="none" stroke="black" d="M2803.48,-249.42C2818.52,-249.42 2833.34,-249.42 2847.6,-249.42"/>
<polygon fill="black" stroke="black" points="2847.41,-252.92 2857.41,-249.42 2847.41,-245.92 2847.41,-252.92"/>
<text text-anchor="middle" x="2831.24" y="-252.62" font-family="Times,serif" font-size="14.00">Yes</text>
</g>
<!-- 44399&#45;&gt;44688 -->
<g id="edge10" class="edge">
<title>44399&#45;&gt;44688</title>
<path fill="none" stroke="black" d="M2802.54,-227.27C2815.67,-227.48 2828.68,-228.01 2841.37,-228.92 2844.03,-229.11 2846.72,-229.33 2849.43,-229.56"/>
<polygon fill="black" stroke="black" points="2848.87,-233.02 2859.15,-230.46 2849.52,-226.05 2848.87,-233.02"/>
<text text-anchor="middle" x="2831.24" y="-232.12" font-family="Times,serif" font-size="14.00">No</text>
</g>
<!-- 44989 -->
<g id="node11" class="node">
<title>44989</title>
<ellipse fill="none" stroke="black" cx="3265.69" cy="-249.42" rx="101" ry="101"/>
<text text-anchor="middle" x="3265.69" y="-244.37" font-family="Times,serif" font-size="14.00">Duration of food refusal</text>
</g>
<!-- 44688&#45;&gt;44989 -->
<g id="edge15" class="edge">
<title>44688&#45;&gt;44989</title>
<path fill="none" stroke="black" d="M3108.85,-249.42C3123.5,-249.42 3138.38,-249.42 3152.85,-249.42"/>
<polygon fill="black" stroke="black" points="3152.83,-252.92 3162.83,-249.42 3152.83,-245.92 3152.83,-252.92"/>
<text text-anchor="middle" x="3136.57" y="-252.62" font-family="Times,serif" font-size="14.00">Yes</text>
</g>
<!-- 44688&#45;&gt;44989 -->
<g id="edge16" class="edge">
<title>44688&#45;&gt;44989</title>
<path fill="none" stroke="black" d="M3107.15,-228.39C3120.48,-227.75 3133.86,-227.81 3146.7,-228.92 3149.36,-229.15 3152.06,-229.41 3154.77,-229.69"/>
<polygon fill="black" stroke="black" points="3154.19,-233.15 3164.53,-230.82 3154.99,-226.2 3154.19,-233.15"/>
<text text-anchor="middle" x="3136.57" y="-232.12" font-family="Times,serif" font-size="14.00">No</text>
</g>
<!-- 44887 -->
<g id="node10" class="node">
<title>44887</title>
<ellipse fill="none" stroke="black" cx="1129.43" cy="-249.42" rx="160.88" ry="160.88"/>
<text text-anchor="middle" x="1129.43" y="-244.37" font-family="Times,serif" font-size="14.00">What is the reason for this food refusal?</text>
</g>
<!-- 44575&#45;&gt;44887 -->
<g id="edge13" class="edge">
<title>44575&#45;&gt;44887</title>
<path fill="none" stroke="black" d="M912.78,-249.42C927.6,-249.42 942.47,-249.42 957.1,-249.42"/>
<polygon fill="black" stroke="black" points="956.72,-252.92 966.72,-249.42 956.72,-245.92 956.72,-252.92"/>
<text text-anchor="middle" x="940.43" y="-252.62" font-family="Times,serif" font-size="14.00">Yes</text>
</g>
<!-- 44575&#45;&gt;44887 -->
<g id="edge14" class="edge">
<title>44575&#45;&gt;44887</title>
<path fill="none" stroke="black" d="M911.34,-228.05C924.61,-227.93 937.77,-228.19 950.55,-228.92 953.08,-229.07 955.62,-229.22 958.17,-229.39"/>
<polygon fill="black" stroke="black" points="957.74,-232.87 967.96,-230.08 958.23,-225.88 957.74,-232.87"/>
<text text-anchor="middle" x="940.43" y="-232.12" font-family="Times,serif" font-size="14.00">No</text>
</g>
<!-- 44768 -->
<g id="node12" class="node">
<title>44768</title>
<ellipse fill="none" stroke="black" cx="1569.8" cy="-249.42" rx="133.24" ry="133.24"/>
<text text-anchor="middle" x="1569.8" y="-244.37" font-family="Times,serif" font-size="14.00">Describe the type of food refusal</text>
</g>
<!-- 44887&#45;&gt;44768 -->
<g id="edge21" class="edge">
<title>44887&#45;&gt;44768</title>
<path fill="none" stroke="black" d="M1248.84,-357.68C1267.62,-369.83 1287.7,-380.36 1308.31,-387.42 1354.67,-403.3 1372.9,-405.21 1418.56,-387.42 1437.67,-379.98 1455.82,-368.84 1472.47,-356.06"/>
<polygon fill="black" stroke="black" points="1474.21,-359.15 1479.85,-350.18 1469.85,-353.67 1474.21,-359.15"/>
<text text-anchor="middle" x="1363.44" y="-403.25" font-family="Times,serif" font-size="14.00">Facilities</text>
</g>
<!-- 44887&#45;&gt;44768 -->
<g id="edge22" class="edge">
<title>44887&#45;&gt;44768</title>
<path fill="none" stroke="black" d="M1267.22,-333.38C1280.75,-339.04 1294.57,-343.89 1308.31,-347.42 1355.77,-359.63 1371.59,-361.39 1418.56,-347.42 1429.99,-344.02 1441.36,-339.45 1452.43,-334.13"/>
<polygon fill="black" stroke="black" points="1453.81,-337.36 1461.16,-329.73 1450.65,-331.11 1453.81,-337.36"/>
<text text-anchor="middle" x="1363.44" y="-360.45" font-family="Times,serif" font-size="14.00">Food</text>
</g>
<!-- 44887&#45;&gt;44768 -->
<g id="edge23" class="edge">
<title>44887&#45;&gt;44768</title>
<path fill="none" stroke="black" d="M1281.51,-302.21C1290.51,-304.25 1299.49,-306.02 1308.31,-307.42 1356.7,-315.11 1370.39,-316.4 1418.56,-307.42 1424.17,-306.38 1429.84,-305.13 1435.53,-303.72"/>
<polygon fill="black" stroke="black" points="1436.24,-307.15 1445.01,-301.2 1434.45,-300.38 1436.24,-307.15"/>
<text text-anchor="middle" x="1363.44" y="-316.88" font-family="Times,serif" font-size="14.00">Pay</text>
</g>
<!-- 44887&#45;&gt;44768 -->
<g id="edge24" class="edge">
<title>44887&#45;&gt;44768</title>
<path fill="none" stroke="black" d="M1289.89,-266.34C1296.11,-266.75 1302.27,-267.12 1308.31,-267.42 1357.25,-269.89 1369.65,-270.34 1418.56,-267.42 1421.06,-267.27 1423.59,-267.11 1426.13,-266.93"/>
<polygon fill="black" stroke="black" points="1426.16,-270.44 1435.87,-266.2 1425.63,-263.46 1426.16,-270.44"/>
<text text-anchor="middle" x="1363.44" y="-272.65" font-family="Times,serif" font-size="14.00">Visits</text>
</g>
<!-- 44887&#45;&gt;44768 -->
<g id="edge25" class="edge">
<title>44887&#45;&gt;44768</title>
<path fill="none" stroke="black" d="M1290.43,-247.07C1296.47,-247.01 1302.44,-246.96 1308.31,-246.92 1357.31,-246.58 1369.56,-246.51 1418.56,-246.92 1420.62,-246.94 1422.7,-246.96 1424.79,-246.98"/>
<polygon fill="black" stroke="black" points="1424.53,-250.47 1434.57,-247.08 1424.61,-243.47 1424.53,-250.47"/>
<text text-anchor="middle" x="1363.44" y="-250.12" font-family="Times,serif" font-size="14.00">Time out of cell</text>
</g>
<!-- 44887&#45;&gt;44768 -->
<g id="edge26" class="edge">
<title>44887&#45;&gt;44768</title>
<path fill="none" stroke="black" d="M1288.89,-227.41C1295.45,-226.84 1301.94,-226.34 1308.31,-225.92 1357.21,-222.71 1369.71,-222.12 1418.56,-225.92 1421.23,-226.13 1423.92,-226.36 1426.62,-226.6"/>
<polygon fill="black" stroke="black" points="1426.04,-230.06 1436.33,-227.56 1426.73,-223.09 1426.04,-230.06"/>
<text text-anchor="middle" x="1363.44" y="-229.12" font-family="Times,serif" font-size="14.00">Location</text>
</g>
<!-- 44887&#45;&gt;44768 -->
<g id="edge27" class="edge">
<title>44887&#45;&gt;44768</title>
<path fill="none" stroke="black" d="M1284.71,-206.56C1292.65,-205.15 1300.55,-203.92 1308.31,-202.92 1356.91,-196.67 1370.11,-195.59 1418.56,-202.92 1422.99,-203.59 1427.47,-204.37 1431.97,-205.23"/>
<polygon fill="black" stroke="black" points="1431.22,-208.65 1441.72,-207.24 1432.64,-201.79 1431.22,-208.65"/>
<text text-anchor="middle" x="1363.44" y="-206.12" font-family="Times,serif" font-size="14.00">Transfer</text>
</g>
<!-- 44887&#45;&gt;44768 -->
<g id="edge28" class="edge">
<title>44887&#45;&gt;44768</title>
<path fill="none" stroke="black" d="M1277.11,-184.6C1287.54,-181.56 1298,-178.94 1308.31,-176.92 1356.4,-167.5 1370.79,-166 1418.56,-176.92 1425.96,-178.61 1433.42,-180.72 1440.84,-183.13"/>
<polygon fill="black" stroke="black" points="1439.67,-186.43 1450.26,-186.39 1441.96,-179.81 1439.67,-186.43"/>
<text text-anchor="middle" x="1363.44" y="-180.12" font-family="Times,serif" font-size="14.00">Charges/convictions</text>
</g>
<!-- 44887&#45;&gt;44768 -->
<g id="edge29" class="edge">
<title>44887&#45;&gt;44768</title>
<path fill="none" stroke="black" d="M1266.07,-163.76C1279.95,-157.77 1294.16,-152.64 1308.31,-148.92 1355.7,-136.46 1371.67,-134.69 1418.56,-148.92 1430.41,-152.52 1442.17,-157.39 1453.59,-163.06"/>
<polygon fill="black" stroke="black" points="1451.71,-166.03 1462.19,-167.54 1454.94,-159.82 1451.71,-166.03"/>
<text text-anchor="middle" x="1363.44" y="-152.12" font-family="Times,serif" font-size="14.00">Other</text>
</g>
<!-- 44989&#45;&gt;44199 -->
<g id="edge30" class="edge">
<title>44989&#45;&gt;44199</title>
<path fill="none" stroke="black" d="M3367.17,-249.42C3393.71,-249.42 3423.51,-249.42 3453.98,-249.42"/>
<polygon fill="black" stroke="black" points="3453.72,-252.92 3463.72,-249.42 3453.72,-245.92 3453.72,-252.92"/>
<text text-anchor="middle" x="3416.19" y="-252.62" font-family="Times,serif" font-size="14.00">Enter hours</text>
</g>
<!-- 44768&#45;&gt;44319 -->
<g id="edge17" class="edge">
<title>44768&#45;&gt;44319</title>
<path fill="none" stroke="black" d="M1698.67,-284.02C1706.2,-285.35 1713.7,-286.51 1721.04,-287.42 1769.34,-293.43 1782.15,-292.55 1830.54,-287.42 1833.96,-287.06 1837.4,-286.66 1840.87,-286.23"/>
<polygon fill="black" stroke="black" points="1841.05,-289.73 1850.5,-284.93 1840.12,-282.79 1841.05,-289.73"/>
<text text-anchor="middle" x="1775.79" y="-294.8" font-family="Times,serif" font-size="14.00">All food and liquids</text>
</g>
<!-- 44768&#45;&gt;44319 -->
<g id="edge18" class="edge">
<title>44768&#45;&gt;44319</title>
<path fill="none" stroke="black" d="M1703.43,-249.42C1745.38,-249.42 1792.34,-249.42 1836.6,-249.42"/>
<polygon fill="black" stroke="black" points="1836.57,-252.92 1846.57,-249.42 1836.57,-245.92 1836.57,-252.92"/>
<text text-anchor="middle" x="1775.79" y="-252.62" font-family="Times,serif" font-size="14.00">Food only</text>
</g>
<!-- 44768&#45;&gt;44319 -->
<g id="edge19" class="edge">
<title>44768&#45;&gt;44319</title>
<path fill="none" stroke="black" d="M1701.8,-230.48C1708.3,-229.88 1714.74,-229.35 1721.04,-228.92 1769.6,-225.62 1781.96,-226.12 1830.54,-228.92 1833.06,-229.07 1835.59,-229.22 1838.14,-229.39"/>
<polygon fill="black" stroke="black" points="1837.67,-232.86 1847.89,-230.08 1838.16,-225.88 1837.67,-232.86"/>
<text text-anchor="middle" x="1775.79" y="-232.12" font-family="Times,serif" font-size="14.00">Fluids only</text>
</g>
<!-- 44768&#45;&gt;44319 -->
<g id="edge20" class="edge">
<title>44768&#45;&gt;44319</title>
<path fill="none" stroke="black" d="M1697.3,-210.08C1705.29,-208.44 1713.25,-207.03 1721.04,-205.92 1769.23,-199.09 1782.23,-200.08 1830.54,-205.92 1834.44,-206.39 1838.37,-206.92 1842.33,-207.5"/>
<polygon fill="black" stroke="black" points="1841.62,-210.93 1852.04,-209.01 1842.7,-204.01 1841.62,-210.93"/>
<text text-anchor="middle" x="1775.79" y="-209.12" font-family="Times,serif" font-size="14.00">Other</text>
</g>
</g>
</svg>
