<?xml version="1.0" encoding="UTF-8" standalone="no"?>
<!DOCTYPE svg PUBLIC "-//W3C//DTD SVG 1.1//EN"
 "http://www.w3.org/Graphics/SVG/1.1/DTD/svg11.dtd">
<!-- Generated by graphviz version 15.0.0 (20260523.1842)
 -->
<!-- Title: FOOD_REFUSAL_2 Pages: 1 -->
<svg width="5851pt" height="583pt"
 viewBox="0.00 0.00 5851.00 583.00" xmlns="http://www.w3.org/2000/svg" xmlns:xlink="http://www.w3.org/1999/xlink">
<g id="graph0" class="graph" transform="scale(1 1) rotate(0) translate(4 578.59)">
<title>FOOD_REFUSAL_2</title>
<polygon fill="white" stroke="none" points="-4,4 -4,-578.59 5847.32,-578.59 5847.32,4 -4,4"/>
<!-- START_NODE -->
<g id="node1" class="node">
<title>START_NODE</title>
</g>
<!-- 900010 -->
<g id="node2" class="node">
<title>900010</title>
<ellipse fill="none" stroke="black" cx="322.75" cy="-287.29" rx="209.5" ry="209.5"/>
<text xml:space="preserve" text-anchor="start" x="177.25" y="-283.24" font-family="Times,serif" font-size="14.00"> </text>
<text xml:space="preserve" text-anchor="start" x="181" y="-283.24" font-family="Times,serif" font-size="14.00" fill="royalblue">900010 </text>
<text xml:space="preserve" text-anchor="start" x="225.25" y="-283.24" font-family="Times,serif" font-size="14.00"> Is there any media interest in this incident? </text>
</g>
<!-- START_NODE&#45;&gt;900010 -->
<g id="edge1" class="edge">
<title>START_NODE&#45;&gt;900010</title>
<path fill="none" stroke="black" d="M53.81,-287.29C66.39,-287.29 82.81,-287.29 101.33,-287.29"/>
<polygon fill="black" stroke="black" points="101.28,-290.8 111.28,-287.29 101.28,-283.8 101.28,-290.8"/>
<text xml:space="preserve" text-anchor="middle" x="83.62" y="-290.49" font-family="Times,serif" font-size="14.00">start</text>
</g>
<!-- 900005 -->
<g id="node9" class="node">
<title>900005</title>
<ellipse fill="none" stroke="black" cx="880.15" cy="-287.29" rx="237.65" ry="237.65"/>
<text xml:space="preserve" text-anchor="start" x="714.02" y="-283.24" font-family="Times,serif" font-size="14.00"> </text>
<text xml:space="preserve" text-anchor="start" x="717.77" y="-283.24" font-family="Times,serif" font-size="14.00" fill="royalblue">900005 </text>
<text xml:space="preserve" text-anchor="start" x="762.02" y="-283.24" font-family="Times,serif" font-size="14.00"> Has the prison service press office been informed? </text>
</g>
<!-- 900010&#45;&gt;900005 -->
<g id="edge31" class="edge">
<title>900010&#45;&gt;900005</title>
<path fill="none" stroke="black" d="M532.54,-287.29C564.74,-287.29 598.26,-287.29 631.21,-287.29"/>
<polygon fill="black" stroke="black" points="630.85,-290.8 640.85,-287.29 630.85,-283.8 630.85,-290.8"/>
<text xml:space="preserve" text-anchor="start" x="550.25" y="-291.49" font-family="Times,serif" font-size="14.00"> </text>
<text xml:space="preserve" text-anchor="start" x="554" y="-291.49" font-family="Times,serif" font-size="14.00" fill="royalblue">950030 </text>
<text xml:space="preserve" text-anchor="start" x="598.25" y="-291.49" font-family="Times,serif" font-size="14.00"> Yes </text>
</g>
<!-- 900010&#45;&gt;900005 -->
<g id="edge32" class="edge">
<title>900010&#45;&gt;900005</title>
<path fill="none" stroke="black" d="M531.67,-267.74C537.93,-267.39 544.14,-267.07 550.25,-266.79 576.62,-265.6 604.17,-265.51 631.62,-266.15"/>
<polygon fill="black" stroke="black" points="631.35,-269.65 641.44,-266.42 631.54,-262.65 631.35,-269.65"/>
<text xml:space="preserve" text-anchor="start" x="551.38" y="-270.99" font-family="Times,serif" font-size="14.00"> </text>
<text xml:space="preserve" text-anchor="start" x="555.13" y="-270.99" font-family="Times,serif" font-size="14.00" fill="royalblue">950031 </text>
<text xml:space="preserve" text-anchor="start" x="599.38" y="-270.99" font-family="Times,serif" font-size="14.00"> No </text>
</g>
<!-- END_NODE -->
<g id="node3" class="node">
<title>END_NODE</title>
<ellipse fill="none" stroke="black" cx="5809.47" cy="-287.29" rx="29.86" ry="29.86"/>
<ellipse fill="none" stroke="black" cx="5809.47" cy="-287.29" rx="33.86" ry="33.86"/>
<text xml:space="preserve" text-anchor="middle" x="5809.47" y="-282.24" font-family="Times,serif" font-size="14.00">END</text>
</g>
<!-- 900001 -->
<g id="node4" class="node">
<title>900001</title>
<ellipse fill="none" stroke="black" cx="4777.16" cy="-287.29" rx="262.73" ry="262.73"/>
<text xml:space="preserve" text-anchor="start" x="4592.66" y="-283.24" font-family="Times,serif" font-size="14.00"> </text>
<text xml:space="preserve" text-anchor="start" x="4596.41" y="-283.24" font-family="Times,serif" font-size="14.00" fill="royalblue">900001 </text>
<text xml:space="preserve" text-anchor="start" x="4640.66" y="-283.24" font-family="Times,serif" font-size="14.00"> Is the food refusal effecting any other medical condition? </text>
</g>
<!-- 900004 -->
<g id="node5" class="node">
<title>900004</title>
<ellipse fill="none" stroke="black" cx="5407.75" cy="-287.29" rx="257.61" ry="257.61"/>
<text xml:space="preserve" text-anchor="start" x="5227" y="-283.24" font-family="Times,serif" font-size="14.00"> </text>
<text xml:space="preserve" text-anchor="start" x="5230.75" y="-283.24" font-family="Times,serif" font-size="14.00" fill="royalblue">900004 </text>
<text xml:space="preserve" text-anchor="start" x="5275" y="-283.24" font-family="Times,serif" font-size="14.00"> Is the food refusal currently considered life threatening? </text>
</g>
<!-- 900001&#45;&gt;900004 -->
<g id="edge2" class="edge">
<title>900001&#45;&gt;900004</title>
<path fill="none" stroke="black" d="M5040.19,-287.29C5072.58,-287.29 5105.74,-287.29 5138.23,-287.29"/>
<polygon fill="black" stroke="black" points="5138.18,-290.8 5148.18,-287.29 5138.18,-283.8 5138.18,-290.8"/>
<text xml:space="preserve" text-anchor="start" x="5057.89" y="-291.49" font-family="Times,serif" font-size="14.00"> </text>
<text xml:space="preserve" text-anchor="start" x="5061.64" y="-291.49" font-family="Times,serif" font-size="14.00" fill="royalblue">950001 </text>
<text xml:space="preserve" text-anchor="start" x="5105.89" y="-291.49" font-family="Times,serif" font-size="14.00"> Yes </text>
</g>
<!-- 900001&#45;&gt;900004 -->
<g id="edge3" class="edge">
<title>900001&#45;&gt;900004</title>
<path fill="none" stroke="black" d="M5039.56,-266.54C5070.75,-265.73 5102.15,-265.68 5132.14,-266.79 5134.52,-266.88 5136.91,-266.98 5139.31,-267.07"/>
<polygon fill="black" stroke="black" points="5138.96,-270.56 5149.1,-267.49 5139.26,-263.57 5138.96,-270.56"/>
<text xml:space="preserve" text-anchor="start" x="5059.02" y="-270.99" font-family="Times,serif" font-size="14.00"> </text>
<text xml:space="preserve" text-anchor="start" x="5062.77" y="-270.99" font-family="Times,serif" font-size="14.00" fill="royalblue">950002 </text>
<text xml:space="preserve" text-anchor="start" x="5107.02" y="-270.99" font-family="Times,serif" font-size="14.00"> No </text>
</g>
<!-- 900004&#45;&gt;END_NODE -->
<g id="edge12" class="edge">
<title>900004&#45;&gt;END_NODE</title>
<path fill="none" stroke="black" d="M5665.85,-287.29C5703.57,-287.29 5738.32,-287.29 5764.07,-287.29"/>
<polygon fill="black" stroke="black" points="5763.74,-290.8 5773.74,-287.29 5763.74,-283.8 5763.74,-290.8"/>
<text xml:space="preserve" text-anchor="start" x="5683.36" y="-291.49" font-family="Times,serif" font-size="14.00"> </text>
<text xml:space="preserve" text-anchor="start" x="5687.11" y="-291.49" font-family="Times,serif" font-size="14.00" fill="royalblue">950011 </text>
<text xml:space="preserve" text-anchor="start" x="5731.36" y="-291.49" font-family="Times,serif" font-size="14.00"> Yes </text>
</g>
<!-- 900004&#45;&gt;END_NODE -->
<g id="edge13" class="edge">
<title>900004&#45;&gt;END_NODE</title>
<path fill="none" stroke="black" d="M5664.1,-257.6C5695.75,-258.23 5727.53,-260.96 5757.61,-266.79 5760.96,-267.44 5764.37,-268.31 5767.76,-269.33"/>
<polygon fill="black" stroke="black" points="5766.36,-272.55 5776.96,-272.49 5768.63,-265.93 5766.36,-272.55"/>
<text xml:space="preserve" text-anchor="start" x="5684.49" y="-270.99" font-family="Times,serif" font-size="14.00"> </text>
<text xml:space="preserve" text-anchor="start" x="5688.24" y="-270.99" font-family="Times,serif" font-size="14.00" fill="royalblue">950012 </text>
<text xml:space="preserve" text-anchor="start" x="5732.49" y="-270.99" font-family="Times,serif" font-size="14.00"> No </text>
</g>
<!-- 900002 -->
<g id="node6" class="node">
<title>900002</title>
<ellipse fill="none" stroke="black" cx="2536.31" cy="-287.29" rx="197.22" ry="197.22"/>
<text xml:space="preserve" text-anchor="start" x="2399.81" y="-283.24" font-family="Times,serif" font-size="14.00"> </text>
<text xml:space="preserve" text-anchor="start" x="2403.56" y="-283.24" font-family="Times,serif" font-size="14.00" fill="royalblue">900002 </text>
<text xml:space="preserve" text-anchor="start" x="2447.81" y="-283.24" font-family="Times,serif" font-size="14.00"> Where is the prisoner currently located? </text>
</g>
<!-- 900003 -->
<g id="node7" class="node">
<title>900003</title>
<ellipse fill="none" stroke="black" cx="3249.57" cy="-287.29" rx="287.29" ry="287.29"/>
<text xml:space="preserve" text-anchor="start" x="3047.07" y="-283.24" font-family="Times,serif" font-size="14.00"> </text>
<text xml:space="preserve" text-anchor="start" x="3050.82" y="-283.24" font-family="Times,serif" font-size="14.00" fill="royalblue">900003 </text>
<text xml:space="preserve" text-anchor="start" x="3095.07" y="-283.24" font-family="Times,serif" font-size="14.00"> Is the prisoner thought to be obtaining food from other sources? </text>
</g>
<!-- 900002&#45;&gt;900003 -->
<g id="edge4" class="edge">
<title>900002&#45;&gt;900003</title>
<path fill="none" stroke="black" d="M2720.51,-358.64C2730.91,-361.24 2741.3,-363.49 2751.53,-365.29 2819.3,-377.25 2892.43,-374.46 2961.21,-364.87"/>
<polygon fill="black" stroke="black" points="2961.32,-368.39 2970.71,-363.49 2960.31,-361.46 2961.32,-368.39"/>
<text xml:space="preserve" text-anchor="start" x="2775.53" y="-377.4" font-family="Times,serif" font-size="14.00"> </text>
<text xml:space="preserve" text-anchor="start" x="2779.28" y="-377.4" font-family="Times,serif" font-size="14.00" fill="royalblue">950003 </text>
<text xml:space="preserve" text-anchor="start" x="2823.53" y="-377.4" font-family="Times,serif" font-size="14.00"> Normal location </text>
</g>
<!-- 900002&#45;&gt;900003 -->
<g id="edge5" class="edge">
<title>900002&#45;&gt;900003</title>
<path fill="none" stroke="black" d="M2730.65,-323.18C2737.68,-323.98 2744.66,-324.69 2751.53,-325.29 2816.62,-331.02 2886.56,-330.07 2952.82,-325.87"/>
<polygon fill="black" stroke="black" points="2953.02,-329.37 2962.77,-325.21 2952.56,-322.38 2953.02,-329.37"/>
<text xml:space="preserve" text-anchor="start" x="2775.53" y="-333.5" font-family="Times,serif" font-size="14.00"> </text>
<text xml:space="preserve" text-anchor="start" x="2779.28" y="-333.5" font-family="Times,serif" font-size="14.00" fill="royalblue">950004 </text>
<text xml:space="preserve" text-anchor="start" x="2823.53" y="-333.5" font-family="Times,serif" font-size="14.00"> Segregation unit </text>
</g>
<!-- 900002&#45;&gt;900003 -->
<g id="edge6" class="edge">
<title>900002&#45;&gt;900003</title>
<path fill="none" stroke="black" d="M2734.02,-287.29C2801.09,-287.29 2877.65,-287.29 2950.85,-287.29"/>
<polygon fill="black" stroke="black" points="2950.59,-290.8 2960.59,-287.29 2950.59,-283.8 2950.59,-290.8"/>
<text xml:space="preserve" text-anchor="start" x="2751.53" y="-291.49" font-family="Times,serif" font-size="14.00"> </text>
<text xml:space="preserve" text-anchor="start" x="2755.28" y="-291.49" font-family="Times,serif" font-size="14.00" fill="royalblue">950005 </text>
<text xml:space="preserve" text-anchor="start" x="2799.53" y="-291.49" font-family="Times,serif" font-size="14.00"> Constant supervision cell </text>
</g>
<!-- 900002&#45;&gt;900003 -->
<g id="edge7" class="edge">
<title>900002&#45;&gt;900003</title>
<path fill="none" stroke="black" d="M2732.8,-267.81C2739.12,-267.43 2745.37,-267.09 2751.53,-266.79 2816.16,-263.71 2885.52,-264.19 2951.32,-266.4"/>
<polygon fill="black" stroke="black" points="2951.08,-269.9 2961.19,-266.75 2951.32,-262.9 2951.08,-269.9"/>
<text xml:space="preserve" text-anchor="start" x="2770.65" y="-270.99" font-family="Times,serif" font-size="14.00"> </text>
<text xml:space="preserve" text-anchor="start" x="2774.4" y="-270.99" font-family="Times,serif" font-size="14.00" fill="royalblue">950006 </text>
<text xml:space="preserve" text-anchor="start" x="2818.65" y="-270.99" font-family="Times,serif" font-size="14.00"> Health care centre </text>
</g>
<!-- 900002&#45;&gt;900003 -->
<g id="edge8" class="edge">
<title>900002&#45;&gt;900003</title>
<path fill="none" stroke="black" d="M2729.72,-246.33C2737.06,-245.37 2744.35,-244.52 2751.53,-243.79 2817.05,-237.21 2887.48,-238.37 2954.14,-243.26"/>
<polygon fill="black" stroke="black" points="2953.48,-246.72 2963.72,-243.99 2954.02,-239.74 2953.48,-246.72"/>
<text xml:space="preserve" text-anchor="start" x="2775.9" y="-247.99" font-family="Times,serif" font-size="14.00"> </text>
<text xml:space="preserve" text-anchor="start" x="2779.65" y="-247.99" font-family="Times,serif" font-size="14.00" fill="royalblue">950007 </text>
<text xml:space="preserve" text-anchor="start" x="2823.9" y="-247.99" font-family="Times,serif" font-size="14.00"> Outside hospital </text>
</g>
<!-- 900002&#45;&gt;900003 -->
<g id="edge9" class="edge">
<title>900002&#45;&gt;900003</title>
<path fill="none" stroke="black" d="M2723.42,-224.05C2732.86,-222.01 2742.27,-220.24 2751.53,-218.79 2818.48,-208.35 2890.64,-210.58 2958.67,-218.74"/>
<polygon fill="black" stroke="black" points="2958.13,-222.2 2968.48,-219.97 2959,-215.26 2958.13,-222.2"/>
<text xml:space="preserve" text-anchor="start" x="2804.78" y="-222.99" font-family="Times,serif" font-size="14.00"> </text>
<text xml:space="preserve" text-anchor="start" x="2808.53" y="-222.99" font-family="Times,serif" font-size="14.00" fill="royalblue">950008 </text>
<text xml:space="preserve" text-anchor="start" x="2852.78" y="-222.99" font-family="Times,serif" font-size="14.00"> Other </text>
</g>
<!-- 900006 -->
<g id="node8" class="node">
<title>900006</title>
<ellipse fill="none" stroke="black" cx="3809.53" cy="-287.29" rx="162.41" ry="162.41"/>
<text xml:space="preserve" text-anchor="start" x="3698.53" y="-283.24" font-family="Times,serif" font-size="14.00"> </text>
<text xml:space="preserve" text-anchor="start" x="3702.28" y="-283.24" font-family="Times,serif" font-size="14.00" fill="royalblue">900006 </text>
<text xml:space="preserve" text-anchor="start" x="3746.53" y="-283.24" font-family="Times,serif" font-size="14.00"> Is the food refusal continuing? </text>
</g>
<!-- 900003&#45;&gt;900006 -->
<g id="edge10" class="edge">
<title>900003&#45;&gt;900006</title>
<path fill="none" stroke="black" d="M3537.32,-287.29C3570.76,-287.29 3604.06,-287.29 3635.29,-287.29"/>
<polygon fill="black" stroke="black" points="3635.18,-290.8 3645.18,-287.29 3635.18,-283.8 3635.18,-290.8"/>
<text xml:space="preserve" text-anchor="start" x="3554.87" y="-291.49" font-family="Times,serif" font-size="14.00"> </text>
<text xml:space="preserve" text-anchor="start" x="3558.62" y="-291.49" font-family="Times,serif" font-size="14.00" fill="royalblue">950009 </text>
<text xml:space="preserve" text-anchor="start" x="3602.87" y="-291.49" font-family="Times,serif" font-size="14.00"> Yes </text>
</g>
<!-- 900003&#45;&gt;900006 -->
<g id="edge11" class="edge">
<title>900003&#45;&gt;900006</title>
<path fill="none" stroke="black" d="M3536.34,-265.06C3567.65,-264.64 3599.06,-265.08 3629.12,-266.79 3631.66,-266.94 3634.22,-267.1 3636.8,-267.26"/>
<polygon fill="black" stroke="black" points="3636.46,-270.75 3646.68,-267.95 3636.95,-263.76 3636.46,-270.75"/>
<text xml:space="preserve" text-anchor="start" x="3555.99" y="-270.99" font-family="Times,serif" font-size="14.00"> </text>
<text xml:space="preserve" text-anchor="start" x="3559.74" y="-270.99" font-family="Times,serif" font-size="14.00" fill="royalblue">950010 </text>
<text xml:space="preserve" text-anchor="start" x="3603.99" y="-270.99" font-family="Times,serif" font-size="14.00"> No </text>
</g>
<!-- 900009 -->
<g id="node11" class="node">
<title>900009</title>
<ellipse fill="none" stroke="black" cx="4221.07" cy="-287.29" rx="138.87" ry="138.87"/>
<text xml:space="preserve" text-anchor="start" x="4127.32" y="-283.24" font-family="Times,serif" font-size="14.00"> </text>
<text xml:space="preserve" text-anchor="start" x="4131.07" y="-283.24" font-family="Times,serif" font-size="14.00" fill="royalblue">900009 </text>
<text xml:space="preserve" text-anchor="start" x="4175.32" y="-283.24" font-family="Times,serif" font-size="14.00"> Duration of food refusal </text>
</g>
<!-- 900006&#45;&gt;900009 -->
<g id="edge16" class="edge">
<title>900006&#45;&gt;900009</title>
<path fill="none" stroke="black" d="M3972.39,-287.29C4004.79,-287.29 4038.69,-287.29 4070.65,-287.29"/>
<polygon fill="black" stroke="black" points="4070.35,-290.8 4080.35,-287.29 4070.35,-283.8 4070.35,-290.8"/>
<text xml:space="preserve" text-anchor="start" x="3989.94" y="-291.49" font-family="Times,serif" font-size="14.00"> </text>
<text xml:space="preserve" text-anchor="start" x="3993.69" y="-291.49" font-family="Times,serif" font-size="14.00" fill="royalblue">950015 </text>
<text xml:space="preserve" text-anchor="start" x="4037.94" y="-291.49" font-family="Times,serif" font-size="14.00"> Yes </text>
</g>
<!-- 900006&#45;&gt;900009 -->
<g id="edge17" class="edge">
<title>900006&#45;&gt;900009</title>
<path fill="none" stroke="black" d="M3971.17,-267.21C4002.03,-265.36 4034.1,-264.82 4064.19,-266.79 4066.74,-266.96 4069.31,-267.14 4071.89,-267.34"/>
<polygon fill="black" stroke="black" points="4071.55,-270.82 4081.8,-268.16 4072.12,-263.85 4071.55,-270.82"/>
<text xml:space="preserve" text-anchor="start" x="3991.07" y="-270.99" font-family="Times,serif" font-size="14.00"> </text>
<text xml:space="preserve" text-anchor="start" x="3994.82" y="-270.99" font-family="Times,serif" font-size="14.00" fill="royalblue">950016 </text>
<text xml:space="preserve" text-anchor="start" x="4039.07" y="-270.99" font-family="Times,serif" font-size="14.00"> No </text>
</g>
<!-- 900008 -->
<g id="node10" class="node">
<title>900008</title>
<ellipse fill="none" stroke="black" cx="1425.78" cy="-287.29" rx="197.73" ry="197.73"/>
<text xml:space="preserve" text-anchor="start" x="1288.9" y="-283.24" font-family="Times,serif" font-size="14.00"> </text>
<text xml:space="preserve" text-anchor="start" x="1292.65" y="-283.24" font-family="Times,serif" font-size="14.00" fill="royalblue">900008 </text>
<text xml:space="preserve" text-anchor="start" x="1336.9" y="-283.24" font-family="Times,serif" font-size="14.00"> What is the reason for this food refusal? </text>
</g>
<!-- 900005&#45;&gt;900008 -->
<g id="edge14" class="edge">
<title>900005&#45;&gt;900008</title>
<path fill="none" stroke="black" d="M1118.01,-287.29C1150.77,-287.29 1184.22,-287.29 1216.42,-287.29"/>
<polygon fill="black" stroke="black" points="1216.23,-290.8 1226.23,-287.29 1216.23,-283.8 1216.23,-290.8"/>
<text xml:space="preserve" text-anchor="start" x="1135.8" y="-291.49" font-family="Times,serif" font-size="14.00"> </text>
<text xml:space="preserve" text-anchor="start" x="1139.55" y="-291.49" font-family="Times,serif" font-size="14.00" fill="royalblue">950013 </text>
<text xml:space="preserve" text-anchor="start" x="1183.8" y="-291.49" font-family="Times,serif" font-size="14.00"> Yes </text>
</g>
<!-- 900005&#45;&gt;900008 -->
<g id="edge15" class="edge">
<title>900005&#45;&gt;900008</title>
<path fill="none" stroke="black" d="M1117.35,-266.32C1148.52,-265.39 1180.05,-265.37 1210.05,-266.79 1212.42,-266.91 1214.81,-267.03 1217.21,-267.15"/>
<polygon fill="black" stroke="black" points="1216.84,-270.64 1227.02,-267.71 1217.23,-263.65 1216.84,-270.64"/>
<text xml:space="preserve" text-anchor="start" x="1136.92" y="-270.99" font-family="Times,serif" font-size="14.00"> </text>
<text xml:space="preserve" text-anchor="start" x="1140.67" y="-270.99" font-family="Times,serif" font-size="14.00" fill="royalblue">950014 </text>
<text xml:space="preserve" text-anchor="start" x="1184.92" y="-270.99" font-family="Times,serif" font-size="14.00"> No </text>
</g>
<!-- 900007 -->
<g id="node12" class="node">
<title>900007</title>
<ellipse fill="none" stroke="black" cx="1993.3" cy="-287.29" rx="168.04" ry="168.04"/>
<text xml:space="preserve" text-anchor="start" x="1878.18" y="-283.24" font-family="Times,serif" font-size="14.00"> </text>
<text xml:space="preserve" text-anchor="start" x="1881.93" y="-283.24" font-family="Times,serif" font-size="14.00" fill="royalblue">900007 </text>
<text xml:space="preserve" text-anchor="start" x="1926.18" y="-283.24" font-family="Times,serif" font-size="14.00"> Which type of refusal occurred? </text>
</g>
<!-- 900008&#45;&gt;900007 -->
<g id="edge21" class="edge">
<title>900008&#45;&gt;900007</title>
<path fill="none" stroke="black" d="M1586.47,-403.32C1604.39,-412.21 1622.9,-419.83 1641.51,-425.29 1712.19,-446.05 1737.34,-448.5 1807.26,-425.29 1823.95,-419.76 1840.36,-412.06 1856.09,-403.11"/>
<polygon fill="black" stroke="black" points="1857.66,-406.25 1864.49,-398.15 1854.1,-400.22 1857.66,-406.25"/>
<text xml:space="preserve" text-anchor="start" x="1671.88" y="-445.99" font-family="Times,serif" font-size="14.00"> </text>
<text xml:space="preserve" text-anchor="start" x="1675.63" y="-445.99" font-family="Times,serif" font-size="14.00" fill="royalblue">950020 </text>
<text xml:space="preserve" text-anchor="start" x="1719.88" y="-445.99" font-family="Times,serif" font-size="14.00"> Facilities </text>
</g>
<!-- 900008&#45;&gt;900007 -->
<g id="edge22" class="edge">
<title>900008&#45;&gt;900007</title>
<path fill="none" stroke="black" d="M1603.45,-374.88C1616.13,-379 1628.89,-382.55 1641.51,-385.29 1713.49,-400.95 1735.76,-403.06 1807.26,-385.29 1817.17,-382.83 1827.13,-379.73 1837.02,-376.16"/>
<polygon fill="black" stroke="black" points="1838.18,-379.46 1846.29,-372.64 1835.7,-372.92 1838.18,-379.46"/>
<text xml:space="preserve" text-anchor="start" x="1682.76" y="-402.04" font-family="Times,serif" font-size="14.00"> </text>
<text xml:space="preserve" text-anchor="start" x="1686.51" y="-402.04" font-family="Times,serif" font-size="14.00" fill="royalblue">950021 </text>
<text xml:space="preserve" text-anchor="start" x="1730.76" y="-402.04" font-family="Times,serif" font-size="14.00"> Food </text>
</g>
<!-- 900008&#45;&gt;900007 -->
<g id="edge23" class="edge">
<title>900008&#45;&gt;900007</title>
<path fill="none" stroke="black" d="M1616.21,-341.34C1624.72,-342.85 1633.18,-344.19 1641.51,-345.29 1714.53,-354.98 1734.44,-356.44 1807.26,-345.29 1812.26,-344.53 1817.31,-343.65 1822.39,-342.68"/>
<polygon fill="black" stroke="black" points="1822.96,-346.14 1832.06,-340.72 1821.57,-339.28 1822.96,-346.14"/>
<text xml:space="preserve" text-anchor="start" x="1686.51" y="-357.32" font-family="Times,serif" font-size="14.00"> </text>
<text xml:space="preserve" text-anchor="start" x="1690.26" y="-357.32" font-family="Times,serif" font-size="14.00" fill="royalblue">950022 </text>
<text xml:space="preserve" text-anchor="start" x="1734.51" y="-357.32" font-family="Times,serif" font-size="14.00"> Pay </text>
</g>
<!-- 900008&#45;&gt;900007 -->
<g id="edge24" class="edge">
<title>900008&#45;&gt;900007</title>
<path fill="none" stroke="black" d="M1623.04,-304.42C1629.26,-304.75 1635.43,-305.04 1641.51,-305.29 1715.11,-308.37 1733.68,-308.87 1807.26,-305.29 1809.65,-305.18 1812.06,-305.05 1814.48,-304.92"/>
<polygon fill="black" stroke="black" points="1814.63,-308.42 1824.4,-304.34 1814.21,-301.43 1814.63,-308.42"/>
<text xml:space="preserve" text-anchor="start" x="1681.26" y="-311.99" font-family="Times,serif" font-size="14.00"> </text>
<text xml:space="preserve" text-anchor="start" x="1685.01" y="-311.99" font-family="Times,serif" font-size="14.00" fill="royalblue">950023 </text>
<text xml:space="preserve" text-anchor="start" x="1729.26" y="-311.99" font-family="Times,serif" font-size="14.00"> Visits </text>
</g>
<!-- 900008&#45;&gt;900007 -->
<g id="edge25" class="edge">
<title>900008&#45;&gt;900007</title>
<path fill="none" stroke="black" d="M1623.94,-284.91C1629.86,-284.87 1635.73,-284.83 1641.51,-284.79 1715.17,-284.37 1733.59,-284.3 1807.26,-284.79 1809.33,-284.81 1811.43,-284.82 1813.53,-284.84"/>
<polygon fill="black" stroke="black" points="1813.33,-288.34 1823.35,-284.92 1813.38,-281.34 1813.33,-288.34"/>
<text xml:space="preserve" text-anchor="start" x="1652.76" y="-288.99" font-family="Times,serif" font-size="14.00"> </text>
<text xml:space="preserve" text-anchor="start" x="1656.51" y="-288.99" font-family="Times,serif" font-size="14.00" fill="royalblue">950024 </text>
<text xml:space="preserve" text-anchor="start" x="1700.76" y="-288.99" font-family="Times,serif" font-size="14.00"> Time out of cell </text>
</g>
<!-- 900008&#45;&gt;900007 -->
<g id="edge26" class="edge">
<title>900008&#45;&gt;900007</title>
<path fill="none" stroke="black" d="M1622.72,-264.96C1629.05,-264.52 1635.33,-264.13 1641.51,-263.79 1715.06,-259.78 1733.74,-259.15 1807.26,-263.79 1809.82,-263.96 1812.4,-264.13 1814.99,-264.32"/>
<polygon fill="black" stroke="black" points="1814.7,-267.81 1824.94,-265.09 1815.24,-260.83 1814.7,-267.81"/>
<text xml:space="preserve" text-anchor="start" x="1672.63" y="-267.99" font-family="Times,serif" font-size="14.00"> </text>
<text xml:space="preserve" text-anchor="start" x="1676.38" y="-267.99" font-family="Times,serif" font-size="14.00" fill="royalblue">950025 </text>
<text xml:space="preserve" text-anchor="start" x="1720.63" y="-267.99" font-family="Times,serif" font-size="14.00"> Location </text>
</g>
<!-- 900008&#45;&gt;900007 -->
<g id="edge27" class="edge">
<title>900008&#45;&gt;900007</title>
<path fill="none" stroke="black" d="M1618.72,-242.69C1626.39,-241.59 1634.01,-240.61 1641.51,-239.79 1714.74,-231.79 1734.17,-230.56 1807.26,-239.79 1811.36,-240.31 1815.51,-240.9 1819.69,-241.53"/>
<polygon fill="black" stroke="black" points="1818.86,-244.94 1829.29,-243.1 1819.98,-238.03 1818.86,-244.94"/>
<text xml:space="preserve" text-anchor="start" x="1674.13" y="-243.99" font-family="Times,serif" font-size="14.00"> </text>
<text xml:space="preserve" text-anchor="start" x="1677.88" y="-243.99" font-family="Times,serif" font-size="14.00" fill="royalblue">950026 </text>
<text xml:space="preserve" text-anchor="start" x="1722.13" y="-243.99" font-family="Times,serif" font-size="14.00"> Transfer </text>
</g>
<!-- 900008&#45;&gt;900007 -->
<g id="edge28" class="edge">
<title>900008&#45;&gt;900007</title>
<path fill="none" stroke="black" d="M1611.7,-218.86C1621.71,-216.5 1631.68,-214.45 1641.51,-212.79 1714.15,-200.55 1734.93,-198.78 1807.26,-212.79 1814.06,-214.11 1820.93,-215.68 1827.82,-217.45"/>
<polygon fill="black" stroke="black" points="1826.62,-220.75 1837.19,-220 1828.46,-214 1826.62,-220.75"/>
<text xml:space="preserve" text-anchor="start" x="1641.51" y="-216.99" font-family="Times,serif" font-size="14.00"> </text>
<text xml:space="preserve" text-anchor="start" x="1645.26" y="-216.99" font-family="Times,serif" font-size="14.00" fill="royalblue">950027 </text>
<text xml:space="preserve" text-anchor="start" x="1689.51" y="-216.99" font-family="Times,serif" font-size="14.00"> Charges/convictions </text>
</g>
<!-- 900008&#45;&gt;900007 -->
<g id="edge29" class="edge">
<title>900008&#45;&gt;900007</title>
<path fill="none" stroke="black" d="M1600.77,-194.76C1614.3,-190.01 1627.97,-185.91 1641.51,-182.79 1713.29,-166.25 1736.01,-164.07 1807.26,-182.79 1818.28,-185.69 1829.33,-189.41 1840.25,-193.71"/>
<polygon fill="black" stroke="black" points="1838.69,-196.85 1849.27,-197.43 1841.36,-190.38 1838.69,-196.85"/>
<text xml:space="preserve" text-anchor="start" x="1681.26" y="-186.99" font-family="Times,serif" font-size="14.00"> </text>
<text xml:space="preserve" text-anchor="start" x="1685.01" y="-186.99" font-family="Times,serif" font-size="14.00" fill="royalblue">950028 </text>
<text xml:space="preserve" text-anchor="start" x="1729.26" y="-186.99" font-family="Times,serif" font-size="14.00"> Other </text>
</g>
<!-- 900009&#45;&gt;900001 -->
<g id="edge30" class="edge">
<title>900009&#45;&gt;900001</title>
<path fill="none" stroke="black" d="M4360.1,-287.29C4403.61,-287.29 4453.29,-287.29 4502.81,-287.29"/>
<polygon fill="black" stroke="black" points="4502.53,-290.8 4512.53,-287.29 4502.53,-283.8 4502.53,-290.8"/>
<text xml:space="preserve" text-anchor="start" x="4377.94" y="-291.49" font-family="Times,serif" font-size="14.00"> </text>
<text xml:space="preserve" text-anchor="start" x="4381.69" y="-291.49" font-family="Times,serif" font-size="14.00" fill="royalblue">950029 </text>
<text xml:space="preserve" text-anchor="start" x="4425.94" y="-291.49" font-family="Times,serif" font-size="14.00"> Enter hours </text>
</g>
<!-- 900007&#45;&gt;900002 -->
<g id="edge18" class="edge">
<title>900007&#45;&gt;900002</title>
<path fill="none" stroke="black" d="M2160.69,-304.25C2166.98,-304.65 2173.22,-305 2179.34,-305.29 2242.27,-308.35 2258.15,-307.93 2321.09,-305.29 2323.46,-305.2 2325.84,-305.09 2328.24,-304.98"/>
<polygon fill="black" stroke="black" points="2328.19,-308.49 2338.01,-304.49 2327.84,-301.49 2328.19,-308.49"/>
<text xml:space="preserve" text-anchor="start" x="2208.59" y="-311.63" font-family="Times,serif" font-size="14.00"> </text>
<text xml:space="preserve" text-anchor="start" x="2212.34" y="-311.63" font-family="Times,serif" font-size="14.00" fill="royalblue">950017 </text>
<text xml:space="preserve" text-anchor="start" x="2256.59" y="-311.63" font-family="Times,serif" font-size="14.00"> Food </text>
</g>
<!-- 900007&#45;&gt;900002 -->
<g id="edge19" class="edge">
<title>900007&#45;&gt;900002</title>
<path fill="none" stroke="black" d="M2161.73,-284.93C2167.68,-284.88 2173.56,-284.83 2179.34,-284.79 2242.34,-284.37 2258.09,-284.43 2321.09,-284.79 2323.17,-284.81 2325.25,-284.82 2327.34,-284.83"/>
<polygon fill="black" stroke="black" points="2327.08,-288.33 2337.1,-284.9 2327.13,-281.33 2327.08,-288.33"/>
<text xml:space="preserve" text-anchor="start" x="2204.47" y="-288.99" font-family="Times,serif" font-size="14.00"> </text>
<text xml:space="preserve" text-anchor="start" x="2208.22" y="-288.99" font-family="Times,serif" font-size="14.00" fill="royalblue">950018 </text>
<text xml:space="preserve" text-anchor="start" x="2252.47" y="-288.99" font-family="Times,serif" font-size="14.00"> Liquid </text>
</g>
<!-- 900007&#45;&gt;900002 -->
<g id="edge20" class="edge">
<title>900007&#45;&gt;900002</title>
<path fill="none" stroke="black" d="M2160.15,-265.2C2166.63,-264.67 2173.04,-264.19 2179.34,-263.79 2242.22,-259.82 2258.19,-260.35 2321.09,-263.79 2323.64,-263.93 2326.19,-264.08 2328.77,-264.24"/>
<polygon fill="black" stroke="black" points="2328.4,-267.72 2338.61,-264.88 2328.86,-260.74 2328.4,-267.72"/>
<text xml:space="preserve" text-anchor="start" x="2179.34" y="-267.99" font-family="Times,serif" font-size="14.00"> </text>
<text xml:space="preserve" text-anchor="start" x="2183.09" y="-267.99" font-family="Times,serif" font-size="14.00" fill="royalblue">950019 </text>
<text xml:space="preserve" text-anchor="start" x="2227.34" y="-267.99" font-family="Times,serif" font-size="14.00"> Food and liquid </text>
</g>
</g>
</svg>
