<?xml version="1.0" encoding="UTF-8" standalone="no"?>
<!DOCTYPE svg PUBLIC "-//W3C//DTD SVG 1.1//EN"
 "http://www.w3.org/Graphics/SVG/1.1/DTD/svg11.dtd">
<!-- Generated by graphviz version 12.1.1 (20240910.0053)
 -->
<!-- Title: FOOD_REFUSAL Pages: 1 -->
<svg width="4750pt" height="507pt"
 viewBox="0.00 0.00 4750.08 506.84" xmlns="http://www.w3.org/2000/svg" xmlns:xlink="http://www.w3.org/1999/xlink">
<g id="graph0" class="graph" transform="scale(1 1) rotate(0) translate(4 502.84)">
<title>FOOD_REFUSAL</title>
<polygon fill="white" stroke="none" points="-4,4 -4,-502.84 4746.08,-502.84 4746.08,4 -4,4"/>
<!-- START_NODE -->
<g id="node1" class="node">
<title>START_NODE</title>
</g>
<!-- 44990 -->
<g id="node2" class="node">
<title>44990</title>
<ellipse fill="none" stroke="black" cx="284.88" cy="-249.42" rx="171.63" ry="171.63"/>
<text text-anchor="middle" x="284.88" y="-244.37" font-family="Times,serif" font-size="14.00">Is there any media interest in this incident?</text>
</g>
<!-- START_NODE&#45;&gt;44990 -->
<g id="edge1" class="edge">
<title>START_NODE&#45;&gt;44990</title>
<path fill="none" stroke="black" d="M53.94,-249.42C66.68,-249.42 83.25,-249.42 101.65,-249.42"/>
<polygon fill="black" stroke="black" points="101.5,-252.92 111.5,-249.42 101.5,-245.92 101.5,-252.92"/>
<text text-anchor="middle" x="83.62" y="-252.62" font-family="Times,serif" font-size="14.00">start</text>
</g>
<!-- 44575 -->
<g id="node9" class="node">
<title>44575</title>
<ellipse fill="none" stroke="black" cx="717.78" cy="-249.42" rx="199.78" ry="199.78"/>
<text text-anchor="middle" x="717.78" y="-244.37" font-family="Times,serif" font-size="14.00">Has the prison service press office been informed?</text>
</g>
<!-- 44990&#45;&gt;44575 -->
<g id="edge31" class="edge">
<title>44990&#45;&gt;44575</title>
<path fill="none" stroke="black" d="M456.8,-249.42C473.03,-249.42 489.61,-249.42 506.15,-249.42"/>
<polygon fill="black" stroke="black" points="506.08,-252.92 516.08,-249.42 506.08,-245.92 506.08,-252.92"/>
<text text-anchor="middle" x="487.25" y="-252.62" font-family="Times,serif" font-size="14.00">YES</text>
</g>
<!-- 44990&#45;&gt;44575 -->
<g id="edge32" class="edge">
<title>44990&#45;&gt;44575</title>
<path fill="none" stroke="black" d="M455.72,-230.1C462.06,-229.65 468.34,-229.26 474.5,-228.92 485.33,-228.33 496.42,-228.07 507.62,-228.07"/>
<polygon fill="black" stroke="black" points="507.31,-231.57 517.33,-228.15 507.36,-224.57 507.31,-231.57"/>
<text text-anchor="middle" x="487.25" y="-232.12" font-family="Times,serif" font-size="14.00">NO</text>
</g>
<!-- END_NODE -->
<g id="node3" class="node">
<title>END_NODE</title>
<ellipse fill="none" stroke="black" cx="4708.23" cy="-249.42" rx="29.86" ry="29.86"/>
<ellipse fill="none" stroke="black" cx="4708.23" cy="-249.42" rx="33.86" ry="33.86"/>
<text text-anchor="middle" x="4708.23" y="-244.37" font-family="Times,serif" font-size="14.00">END</text>
</g>
<!-- 44199 -->
<g id="node4" class="node">
<title>44199</title>
<ellipse fill="none" stroke="black" cx="3887.05" cy="-249.42" rx="224.85" ry="224.85"/>
<text text-anchor="middle" x="3887.05" y="-244.37" font-family="Times,serif" font-size="14.00">Is the food refusal effecting any other medical condition?</text>
</g>
<!-- 44427 -->
<g id="node5" class="node">
<title>44427</title>
<ellipse fill="none" stroke="black" cx="4393.14" cy="-249.42" rx="219.74" ry="219.74"/>
<text text-anchor="middle" x="4393.14" y="-244.37" font-family="Times,serif" font-size="14.00">Is the food refusal currently considered life threatening?</text>
</g>
<!-- 44199&#45;&gt;44427 -->
<g id="edge2" class="edge">
<title>44199&#45;&gt;44427</title>
<path fill="none" stroke="black" d="M4112.08,-249.42C4128.53,-249.42 4145.15,-249.42 4161.63,-249.42"/>
<polygon fill="black" stroke="black" points="4161.51,-252.92 4171.51,-249.42 4161.51,-245.92 4161.51,-252.92"/>
<text text-anchor="middle" x="4142.65" y="-252.62" font-family="Times,serif" font-size="14.00">YES</text>
</g>
<!-- 44199&#45;&gt;44427 -->
<g id="edge3" class="edge">
<title>44199&#45;&gt;44427</title>
<path fill="none" stroke="black" d="M4111.18,-228.31C4126.14,-228.13 4140.98,-228.3 4155.4,-228.92 4157.77,-229.02 4160.16,-229.13 4162.56,-229.25"/>
<polygon fill="black" stroke="black" points="4162.19,-232.73 4172.35,-229.74 4162.54,-225.74 4162.19,-232.73"/>
<text text-anchor="middle" x="4142.65" y="-232.12" font-family="Times,serif" font-size="14.00">NO</text>
</g>
<!-- 44427&#45;&gt;END_NODE -->
<g id="edge11" class="edge">
<title>44427&#45;&gt;END_NODE</title>
<path fill="none" stroke="black" d="M4613.29,-249.42C4631.6,-249.42 4648.53,-249.42 4662.84,-249.42"/>
<polygon fill="black" stroke="black" points="4662.7,-252.92 4672.7,-249.42 4662.7,-245.92 4662.7,-252.92"/>
<text text-anchor="middle" x="4643.62" y="-252.62" font-family="Times,serif" font-size="14.00">YES</text>
</g>
<!-- 44427&#45;&gt;END_NODE -->
<g id="edge12" class="edge">
<title>44427&#45;&gt;END_NODE</title>
<path fill="none" stroke="black" d="M4612.41,-229.82C4618.63,-229.48 4624.79,-229.18 4630.87,-228.92 4642.2,-228.43 4645.25,-226.76 4656.37,-228.92 4659.72,-229.57 4663.13,-230.44 4666.52,-231.46"/>
<polygon fill="black" stroke="black" points="4665.12,-234.68 4675.72,-234.61 4667.39,-228.06 4665.12,-234.68"/>
<text text-anchor="middle" x="4643.62" y="-232.12" font-family="Times,serif" font-size="14.00">NO</text>
</g>
<!-- 44319 -->
<g id="node6" class="node">
<title>44319</title>
<ellipse fill="none" stroke="black" cx="2113.91" cy="-249.42" rx="160.37" ry="160.37"/>
<text text-anchor="middle" x="2113.91" y="-244.37" font-family="Times,serif" font-size="14.00">Where is the prisoner currently located?</text>
</g>
<!-- 44399 -->
<g id="node7" class="node">
<title>44399</title>
<ellipse fill="none" stroke="black" cx="2709.7" cy="-249.42" rx="249.42" ry="249.42"/>
<text text-anchor="middle" x="2709.7" y="-244.37" font-family="Times,serif" font-size="14.00">Is the prisoner thought to be obtaining food from other sources?</text>
</g>
<!-- 44319&#45;&gt;44399 -->
<g id="edge4" class="edge">
<title>44319&#45;&gt;44399</title>
<path fill="none" stroke="black" d="M2265.55,-302.21C2274.52,-304.25 2283.48,-306.02 2292.28,-307.42 2345.05,-315.83 2401.69,-314.69 2455.67,-308.77"/>
<polygon fill="black" stroke="black" points="2455.76,-312.28 2465.29,-307.65 2454.95,-305.33 2455.76,-312.28"/>
<text text-anchor="middle" x="2367.28" y="-316.66" font-family="Times,serif" font-size="14.00">NORMAL LOCATION</text>
</g>
<!-- 44319&#45;&gt;44399 -->
<g id="edge5" class="edge">
<title>44319&#45;&gt;44399</title>
<path fill="none" stroke="black" d="M2273.43,-266.31C2279.79,-266.73 2286.09,-267.11 2292.28,-267.42 2343.03,-269.99 2397.27,-269.79 2449.26,-268.16"/>
<polygon fill="black" stroke="black" points="2449.28,-271.66 2459.16,-267.83 2449.05,-264.66 2449.28,-271.66"/>
<text text-anchor="middle" x="2367.28" y="-272.57" font-family="Times,serif" font-size="14.00">SEGREGATION UNIT</text>
</g>
<!-- 44319&#45;&gt;44399 -->
<g id="edge6" class="edge">
<title>44319&#45;&gt;44399</title>
<path fill="none" stroke="black" d="M2274.45,-247.07C2280.46,-247.01 2286.42,-246.96 2292.28,-246.92 2342.79,-246.57 2396.75,-246.59 2448.52,-246.81"/>
<polygon fill="black" stroke="black" points="2448.34,-250.31 2458.36,-246.86 2448.38,-243.31 2448.34,-250.31"/>
<text text-anchor="middle" x="2367.28" y="-250.12" font-family="Times,serif" font-size="14.00">HEALTH CARE CENTRE</text>
</g>
<!-- 44319&#45;&gt;44399 -->
<g id="edge7" class="edge">
<title>44319&#45;&gt;44399</title>
<path fill="none" stroke="black" d="M2272.91,-227.41C2279.45,-226.84 2285.92,-226.34 2292.28,-225.92 2343.1,-222.57 2397.43,-222.83 2449.5,-224.98"/>
<polygon fill="black" stroke="black" points="2449.27,-228.47 2459.42,-225.41 2449.58,-221.48 2449.27,-228.47"/>
<text text-anchor="middle" x="2367.28" y="-229.12" font-family="Times,serif" font-size="14.00">OUTSIDE HOSPITAL</text>
</g>
<!-- 44319&#45;&gt;44399 -->
<g id="edge8" class="edge">
<title>44319&#45;&gt;44399</title>
<path fill="none" stroke="black" d="M2268.74,-206.56C2276.66,-205.15 2284.54,-203.92 2292.28,-202.92 2344.22,-196.22 2399.89,-196.97 2453.08,-201.51"/>
<polygon fill="black" stroke="black" points="2452.61,-204.98 2462.88,-202.4 2453.24,-198.01 2452.61,-204.98"/>
<text text-anchor="middle" x="2367.28" y="-206.12" font-family="Times,serif" font-size="14.00">OTHER</text>
</g>
<!-- 44688 -->
<g id="node8" class="node">
<title>44688</title>
<ellipse fill="none" stroke="black" cx="3145.16" cy="-249.42" rx="124.54" ry="124.54"/>
<text text-anchor="middle" x="3145.16" y="-244.37" font-family="Times,serif" font-size="14.00">Is the food refusal continuing?</text>
</g>
<!-- 44399&#45;&gt;44688 -->
<g id="edge9" class="edge">
<title>44399&#45;&gt;44688</title>
<path fill="none" stroke="black" d="M2959.39,-249.42C2976.26,-249.42 2992.87,-249.42 3008.8,-249.42"/>
<polygon fill="black" stroke="black" points="3008.75,-252.92 3018.75,-249.42 3008.75,-245.92 3008.75,-252.92"/>
<text text-anchor="middle" x="2989.87" y="-252.62" font-family="Times,serif" font-size="14.00">YES</text>
</g>
<!-- 44399&#45;&gt;44688 -->
<g id="edge10" class="edge">
<title>44399&#45;&gt;44688</title>
<path fill="none" stroke="black" d="M2958.35,-227.16C2973.33,-227.33 2988.18,-227.88 3002.62,-228.92 3005.28,-229.11 3007.97,-229.33 3010.68,-229.56"/>
<polygon fill="black" stroke="black" points="3010.12,-233.02 3020.4,-230.46 3010.77,-226.05 3010.12,-233.02"/>
<text text-anchor="middle" x="2989.87" y="-232.12" font-family="Times,serif" font-size="14.00">NO</text>
</g>
<!-- 44989 -->
<g id="node11" class="node">
<title>44989</title>
<ellipse fill="none" stroke="black" cx="3432.19" cy="-249.42" rx="101" ry="101"/>
<text text-anchor="middle" x="3432.19" y="-244.37" font-family="Times,serif" font-size="14.00">Duration of food refusal</text>
</g>
<!-- 44688&#45;&gt;44989 -->
<g id="edge15" class="edge">
<title>44688&#45;&gt;44989</title>
<path fill="none" stroke="black" d="M3269.94,-249.42C3286.54,-249.42 3303.48,-249.42 3319.85,-249.42"/>
<polygon fill="black" stroke="black" points="3319.57,-252.92 3329.57,-249.42 3319.57,-245.92 3319.57,-252.92"/>
<text text-anchor="middle" x="3300.45" y="-252.62" font-family="Times,serif" font-size="14.00">YES</text>
</g>
<!-- 44688&#45;&gt;44989 -->
<g id="edge16" class="edge">
<title>44688&#45;&gt;44989</title>
<path fill="none" stroke="black" d="M3268.3,-228.52C3283.4,-227.68 3298.64,-227.67 3313.2,-228.92 3315.86,-229.15 3318.56,-229.41 3321.27,-229.69"/>
<polygon fill="black" stroke="black" points="3320.69,-233.15 3331.03,-230.82 3321.49,-226.2 3320.69,-233.15"/>
<text text-anchor="middle" x="3300.45" y="-232.12" font-family="Times,serif" font-size="14.00">NO</text>
</g>
<!-- 44887 -->
<g id="node10" class="node">
<title>44887</title>
<ellipse fill="none" stroke="black" cx="1139.93" cy="-249.42" rx="160.88" ry="160.88"/>
<text text-anchor="middle" x="1139.93" y="-244.37" font-family="Times,serif" font-size="14.00">What is the reason for this food refusal?</text>
</g>
<!-- 44575&#45;&gt;44887 -->
<g id="edge13" class="edge">
<title>44575&#45;&gt;44887</title>
<path fill="none" stroke="black" d="M917.78,-249.42C934.41,-249.42 951.13,-249.42 967.53,-249.42"/>
<polygon fill="black" stroke="black" points="967.31,-252.92 977.31,-249.42 967.31,-245.92 967.31,-252.92"/>
<text text-anchor="middle" x="948.3" y="-252.62" font-family="Times,serif" font-size="14.00">YES</text>
</g>
<!-- 44575&#45;&gt;44887 -->
<g id="edge14" class="edge">
<title>44575&#45;&gt;44887</title>
<path fill="none" stroke="black" d="M916.71,-228.06C931.71,-227.85 946.62,-228.09 961.05,-228.92 963.58,-229.07 966.12,-229.22 968.67,-229.39"/>
<polygon fill="black" stroke="black" points="968.24,-232.87 978.46,-230.08 968.73,-225.88 968.24,-232.87"/>
<text text-anchor="middle" x="948.3" y="-232.12" font-family="Times,serif" font-size="14.00">NO</text>
</g>
<!-- 44768 -->
<g id="node12" class="node">
<title>44768</title>
<ellipse fill="none" stroke="black" cx="1628.3" cy="-249.42" rx="133.24" ry="133.24"/>
<text text-anchor="middle" x="1628.3" y="-244.37" font-family="Times,serif" font-size="14.00">Describe the type of food refusal</text>
</g>
<!-- 44887&#45;&gt;44768 -->
<g id="edge21" class="edge">
<title>44887&#45;&gt;44768</title>
<path fill="none" stroke="black" d="M1259.34,-357.68C1278.12,-369.83 1298.2,-380.36 1318.81,-387.42 1385.35,-410.21 1411.52,-412.95 1477.06,-387.42 1496.17,-379.98 1514.32,-368.84 1530.97,-356.06"/>
<polygon fill="black" stroke="black" points="1532.71,-359.15 1538.35,-350.18 1528.35,-353.67 1532.71,-359.15"/>
<text text-anchor="middle" x="1397.94" y="-408.75" font-family="Times,serif" font-size="14.00">FACILITIES</text>
</g>
<!-- 44887&#45;&gt;44768 -->
<g id="edge22" class="edge">
<title>44887&#45;&gt;44768</title>
<path fill="none" stroke="black" d="M1277.72,-333.38C1291.25,-339.04 1305.07,-343.89 1318.81,-347.42 1386.93,-364.94 1409.64,-367.47 1477.06,-347.42 1488.49,-344.02 1499.86,-339.45 1510.93,-334.13"/>
<polygon fill="black" stroke="black" points="1512.31,-337.36 1519.66,-329.73 1509.15,-331.11 1512.31,-337.36"/>
<text text-anchor="middle" x="1397.94" y="-364.72" font-family="Times,serif" font-size="14.00">FOOD</text>
</g>
<!-- 44887&#45;&gt;44768 -->
<g id="edge23" class="edge">
<title>44887&#45;&gt;44768</title>
<path fill="none" stroke="black" d="M1292.01,-302.21C1301.01,-304.25 1309.99,-306.02 1318.81,-307.42 1388.27,-318.46 1407.92,-320.3 1477.06,-307.42 1482.67,-306.38 1488.34,-305.13 1494.03,-303.72"/>
<polygon fill="black" stroke="black" points="1494.74,-307.15 1503.51,-301.2 1492.95,-300.38 1494.74,-307.15"/>
<text text-anchor="middle" x="1397.94" y="-319.6" font-family="Times,serif" font-size="14.00">PAY</text>
</g>
<!-- 44887&#45;&gt;44768 -->
<g id="edge24" class="edge">
<title>44887&#45;&gt;44768</title>
<path fill="none" stroke="black" d="M1300.39,-266.34C1306.61,-266.75 1312.77,-267.12 1318.81,-267.42 1389.05,-270.97 1406.85,-271.61 1477.06,-267.42 1479.56,-267.27 1482.09,-267.11 1484.63,-266.93"/>
<polygon fill="black" stroke="black" points="1484.66,-270.44 1494.37,-266.2 1484.13,-263.46 1484.66,-270.44"/>
<text text-anchor="middle" x="1397.94" y="-273.53" font-family="Times,serif" font-size="14.00">VISITS</text>
</g>
<!-- 44887&#45;&gt;44768 -->
<g id="edge25" class="edge">
<title>44887&#45;&gt;44768</title>
<path fill="none" stroke="black" d="M1300.93,-247.07C1306.97,-247.01 1312.94,-246.96 1318.81,-246.92 1389.14,-246.43 1406.73,-246.34 1477.06,-246.92 1479.12,-246.94 1481.2,-246.96 1483.29,-246.98"/>
<polygon fill="black" stroke="black" points="1483.03,-250.47 1493.07,-247.08 1483.11,-243.47 1483.03,-250.47"/>
<text text-anchor="middle" x="1397.94" y="-250.12" font-family="Times,serif" font-size="14.00">TIME OUT OF CELL</text>
</g>
<!-- 44887&#45;&gt;44768 -->
<g id="edge26" class="edge">
<title>44887&#45;&gt;44768</title>
<path fill="none" stroke="black" d="M1299.39,-227.41C1305.95,-226.84 1312.44,-226.34 1318.81,-225.92 1388.99,-221.31 1406.94,-220.47 1477.06,-225.92 1479.73,-226.13 1482.42,-226.36 1485.12,-226.6"/>
<polygon fill="black" stroke="black" points="1484.54,-230.06 1494.83,-227.56 1485.23,-223.09 1484.54,-230.06"/>
<text text-anchor="middle" x="1397.94" y="-229.12" font-family="Times,serif" font-size="14.00">LOCATION</text>
</g>
<!-- 44887&#45;&gt;44768 -->
<g id="edge27" class="edge">
<title>44887&#45;&gt;44768</title>
<path fill="none" stroke="black" d="M1295.19,-205.64C1303.14,-204.2 1311.05,-202.94 1318.81,-201.92 1388.55,-192.77 1407.55,-191.19 1477.06,-201.92 1481.5,-202.61 1485.98,-203.4 1490.49,-204.28"/>
<polygon fill="black" stroke="black" points="1489.74,-207.7 1500.25,-206.34 1491.19,-200.85 1489.74,-207.7"/>
<text text-anchor="middle" x="1397.94" y="-205.12" font-family="Times,serif" font-size="14.00">TRANSFER</text>
</g>
<!-- 44887&#45;&gt;44768 -->
<g id="edge28" class="edge">
<title>44887&#45;&gt;44768</title>
<path fill="none" stroke="black" d="M1286.51,-182.23C1297.29,-178.93 1308.13,-176.09 1318.81,-173.92 1387.73,-159.9 1408.63,-157.69 1477.06,-173.92 1484.97,-175.8 1492.94,-178.16 1500.85,-180.88"/>
<polygon fill="black" stroke="black" points="1499.59,-184.14 1510.18,-184.27 1501.99,-177.56 1499.59,-184.14"/>
<text text-anchor="middle" x="1397.94" y="-177.12" font-family="Times,serif" font-size="14.00">CHARGES/CONVICTIONS</text>
</g>
<!-- 44887&#45;&gt;44768 -->
<g id="edge29" class="edge">
<title>44887&#45;&gt;44768</title>
<path fill="none" stroke="black" d="M1273.39,-159.13C1288.23,-152.16 1303.52,-146.18 1318.81,-141.92 1386.56,-123.04 1410.09,-120.43 1477.06,-141.92 1490.19,-146.14 1503.15,-151.97 1515.63,-158.76"/>
<polygon fill="black" stroke="black" points="1513.79,-161.73 1524.21,-163.64 1517.25,-155.65 1513.79,-161.73"/>
<text text-anchor="middle" x="1397.94" y="-145.12" font-family="Times,serif" font-size="14.00">OTHER</text>
</g>
<!-- 44989&#45;&gt;44199 -->
<g id="edge30" class="edge">
<title>44989&#45;&gt;44199</title>
<path fill="none" stroke="black" d="M3533.42,-249.42C3568.38,-249.42 3609.24,-249.42 3650.5,-249.42"/>
<polygon fill="black" stroke="black" points="3650.34,-252.92 3660.34,-249.42 3650.34,-245.92 3650.34,-252.92"/>
<text text-anchor="middle" x="3597.69" y="-252.62" font-family="Times,serif" font-size="14.00">ENTER HOURS</text>
</g>
<!-- 44768&#45;&gt;44319 -->
<g id="edge17" class="edge">
<title>44768&#45;&gt;44319</title>
<path fill="none" stroke="black" d="M1757.17,-284.02C1764.7,-285.35 1772.2,-286.51 1779.54,-287.42 1848.34,-295.99 1866.59,-294.72 1935.54,-287.42 1938.96,-287.06 1942.4,-286.66 1945.87,-286.23"/>
<polygon fill="black" stroke="black" points="1946.05,-289.73 1955.5,-284.93 1945.12,-282.79 1946.05,-289.73"/>
<text text-anchor="middle" x="1857.54" y="-296.58" font-family="Times,serif" font-size="14.00">ALL FOOD AND LIQUIDS</text>
</g>
<!-- 44768&#45;&gt;44319 -->
<g id="edge18" class="edge">
<title>44768&#45;&gt;44319</title>
<path fill="none" stroke="black" d="M1761.77,-249.42C1817.33,-249.42 1882.65,-249.42 1941.79,-249.42"/>
<polygon fill="black" stroke="black" points="1941.63,-252.92 1951.63,-249.42 1941.63,-245.92 1941.63,-252.92"/>
<text text-anchor="middle" x="1857.54" y="-252.62" font-family="Times,serif" font-size="14.00">FOOD ONLY</text>
</g>
<!-- 44768&#45;&gt;44319 -->
<g id="edge19" class="edge">
<title>44768&#45;&gt;44319</title>
<path fill="none" stroke="black" d="M1760.3,-230.48C1766.8,-229.88 1773.24,-229.35 1779.54,-228.92 1848.72,-224.22 1866.32,-224.93 1935.54,-228.92 1938.06,-229.07 1940.59,-229.22 1943.14,-229.39"/>
<polygon fill="black" stroke="black" points="1942.67,-232.86 1952.89,-230.08 1943.16,-225.88 1942.67,-232.86"/>
<text text-anchor="middle" x="1857.54" y="-232.12" font-family="Times,serif" font-size="14.00">FLUIDS ONLY</text>
</g>
<!-- 44768&#45;&gt;44319 -->
<g id="edge20" class="edge">
<title>44768&#45;&gt;44319</title>
<path fill="none" stroke="black" d="M1755.78,-209.17C1763.77,-207.5 1771.73,-206.05 1779.54,-204.92 1848.16,-194.97 1866.73,-196.42 1935.54,-204.92 1939.44,-205.4 1943.38,-205.94 1947.34,-206.53"/>
<polygon fill="black" stroke="black" points="1946.64,-209.96 1957.06,-208.08 1947.74,-203.05 1946.64,-209.96"/>
<text text-anchor="middle" x="1857.54" y="-208.12" font-family="Times,serif" font-size="14.00">OTHER</text>
</g>
</g>
</svg>
