<?xml version="1.0" encoding="UTF-8" standalone="no"?>
<!DOCTYPE svg PUBLIC "-//W3C//DTD SVG 1.1//EN"
 "http://www.w3.org/Graphics/SVG/1.1/DTD/svg11.dtd">
<!-- Generated by graphviz version 15.0.0 (20260523.1842)
 -->
<!-- Title: FOOD_REFUSAL_2 Pages: 1 -->
<svg width="1326pt" height="402pt"
 viewBox="0.00 0.00 1326.00 402.00" xmlns="http://www.w3.org/2000/svg" xmlns:xlink="http://www.w3.org/1999/xlink">
<g id="graph0" class="graph" transform="scale(1 1) rotate(0) translate(4 398.43)">
<title>FOOD_REFUSAL_2</title>
<polygon fill="white" stroke="none" points="-4,4 -4,-398.43 1321.98,-398.43 1321.98,4 -4,4"/>
<!-- START_NODE -->
<g id="node1" class="node">
<title>START_NODE</title>
</g>
<!-- 900001 -->
<g id="node2" class="node">
<title>900001</title>
<ellipse fill="none" stroke="black" cx="281.29" cy="-197.22" rx="168.04" ry="168.04"/>
<text xml:space="preserve" text-anchor="start" x="166.17" y="-193.17" font-family="Times,serif" font-size="14.00"> </text>
<text xml:space="preserve" text-anchor="start" x="169.92" y="-193.17" font-family="Times,serif" font-size="14.00" fill="royalblue">900001 </text>
<text xml:space="preserve" text-anchor="start" x="214.17" y="-193.17" font-family="Times,serif" font-size="14.00"> Which type of refusal occurred? </text>
</g>
<!-- START_NODE&#45;&gt;900001 -->
<g id="edge1" class="edge">
<title>START_NODE&#45;&gt;900001</title>
<path fill="none" stroke="black" d="M53.58,-197.22C66.35,-197.22 83.02,-197.22 101.53,-197.22"/>
<polygon fill="black" stroke="black" points="101.43,-200.72 111.43,-197.22 101.43,-193.72 101.43,-200.72"/>
<text xml:space="preserve" text-anchor="middle" x="83.62" y="-200.42" font-family="Times,serif" font-size="14.00">start</text>
</g>
<!-- 900002 -->
<g id="node4" class="node">
<title>900002</title>
<ellipse fill="none" stroke="black" cx="824.3" cy="-197.22" rx="197.22" ry="197.22"/>
<text xml:space="preserve" text-anchor="start" x="687.8" y="-193.17" font-family="Times,serif" font-size="14.00"> </text>
<text xml:space="preserve" text-anchor="start" x="691.55" y="-193.17" font-family="Times,serif" font-size="14.00" fill="royalblue">900002 </text>
<text xml:space="preserve" text-anchor="start" x="735.8" y="-193.17" font-family="Times,serif" font-size="14.00"> Where is the prisoner currently located? </text>
</g>
<!-- 900001&#45;&gt;900002 -->
<g id="edge2" class="edge">
<title>900001&#45;&gt;900002</title>
<path fill="none" stroke="black" d="M448.68,-214.17C454.98,-214.57 461.21,-214.92 467.34,-215.22 530.26,-218.27 546.14,-217.86 609.09,-215.22 611.45,-215.12 613.84,-215.01 616.23,-214.9"/>
<polygon fill="black" stroke="black" points="616.19,-218.41 626,-214.41 615.84,-211.42 616.19,-218.41"/>
<text xml:space="preserve" text-anchor="start" x="496.59" y="-221.55" font-family="Times,serif" font-size="14.00"> </text>
<text xml:space="preserve" text-anchor="start" x="500.34" y="-221.55" font-family="Times,serif" font-size="14.00" fill="royalblue">950001 </text>
<text xml:space="preserve" text-anchor="start" x="544.59" y="-221.55" font-family="Times,serif" font-size="14.00"> Food </text>
</g>
<!-- 900001&#45;&gt;900002 -->
<g id="edge3" class="edge">
<title>900001&#45;&gt;900002</title>
<path fill="none" stroke="black" d="M449.73,-194.85C455.67,-194.8 461.55,-194.76 467.34,-194.72 530.34,-194.29 546.09,-194.35 609.09,-194.72 611.16,-194.73 613.24,-194.74 615.33,-194.75"/>
<polygon fill="black" stroke="black" points="615.07,-198.25 625.1,-194.82 615.12,-191.25 615.07,-198.25"/>
<text xml:space="preserve" text-anchor="start" x="492.46" y="-198.92" font-family="Times,serif" font-size="14.00"> </text>
<text xml:space="preserve" text-anchor="start" x="496.21" y="-198.92" font-family="Times,serif" font-size="14.00" fill="royalblue">950002 </text>
<text xml:space="preserve" text-anchor="start" x="540.46" y="-198.92" font-family="Times,serif" font-size="14.00"> Liquid </text>
</g>
<!-- 900001&#45;&gt;900002 -->
<g id="edge4" class="edge">
<title>900001&#45;&gt;900002</title>
<path fill="none" stroke="black" d="M448.14,-175.13C454.62,-174.59 461.04,-174.12 467.34,-173.72 530.21,-169.74 546.18,-170.28 609.09,-173.72 611.63,-173.86 614.19,-174 616.76,-174.16"/>
<polygon fill="black" stroke="black" points="616.4,-177.64 626.6,-174.8 616.85,-170.66 616.4,-177.64"/>
<text xml:space="preserve" text-anchor="start" x="467.34" y="-177.92" font-family="Times,serif" font-size="14.00"> </text>
<text xml:space="preserve" text-anchor="start" x="471.09" y="-177.92" font-family="Times,serif" font-size="14.00" fill="royalblue">950003 </text>
<text xml:space="preserve" text-anchor="start" x="515.34" y="-177.92" font-family="Times,serif" font-size="14.00"> Food and liquid </text>
</g>
<!-- END_NODE -->
<g id="node3" class="node">
<title>END_NODE</title>
<ellipse fill="none" stroke="black" cx="1284.13" cy="-197.22" rx="29.86" ry="29.86"/>
<ellipse fill="none" stroke="black" cx="1284.13" cy="-197.22" rx="33.86" ry="33.86"/>
<text xml:space="preserve" text-anchor="middle" x="1284.13" y="-192.17" font-family="Times,serif" font-size="14.00">END</text>
</g>
<!-- 900002&#45;&gt;END_NODE -->
<g id="edge5" class="edge">
<title>900002&#45;&gt;END_NODE</title>
<path fill="none" stroke="black" d="M1008.5,-268.56C1018.9,-271.16 1029.29,-273.41 1039.52,-275.22 1123.89,-290.1 1156.95,-316.02 1232.27,-275.22 1246.91,-267.29 1258,-253.11 1266.03,-239"/>
<polygon fill="black" stroke="black" points="1269.12,-240.65 1270.64,-230.17 1262.91,-237.41 1269.12,-240.65"/>
<text xml:space="preserve" text-anchor="start" x="1063.52" y="-301.33" font-family="Times,serif" font-size="14.00"> </text>
<text xml:space="preserve" text-anchor="start" x="1067.27" y="-301.33" font-family="Times,serif" font-size="14.00" fill="royalblue">950004 </text>
<text xml:space="preserve" text-anchor="start" x="1111.52" y="-301.33" font-family="Times,serif" font-size="14.00"> Normal location </text>
</g>
<!-- 900002&#45;&gt;END_NODE -->
<g id="edge6" class="edge">
<title>900002&#45;&gt;END_NODE</title>
<path fill="none" stroke="black" d="M1015.62,-246.74C1085.22,-256.65 1163.67,-258.02 1232.27,-235.22 1238.22,-233.24 1244.03,-230.27 1249.48,-226.83"/>
<polygon fill="black" stroke="black" points="1251.42,-229.75 1257.6,-221.15 1247.4,-224.02 1251.42,-229.75"/>
<text xml:space="preserve" text-anchor="start" x="1063.52" y="-257.73" font-family="Times,serif" font-size="14.00"> </text>
<text xml:space="preserve" text-anchor="start" x="1067.27" y="-257.73" font-family="Times,serif" font-size="14.00" fill="royalblue">950005 </text>
<text xml:space="preserve" text-anchor="start" x="1111.52" y="-257.73" font-family="Times,serif" font-size="14.00"> Segregation unit </text>
</g>
<!-- 900002&#45;&gt;END_NODE -->
<g id="edge7" class="edge">
<title>900002&#45;&gt;END_NODE</title>
<path fill="none" stroke="black" d="M1021.79,-197.22C1102.17,-197.22 1187.99,-197.22 1238.53,-197.22"/>
<polygon fill="black" stroke="black" points="1238.47,-200.72 1248.47,-197.22 1238.47,-193.72 1238.47,-200.72"/>
<text xml:space="preserve" text-anchor="start" x="1039.52" y="-201.42" font-family="Times,serif" font-size="14.00"> </text>
<text xml:space="preserve" text-anchor="start" x="1043.27" y="-201.42" font-family="Times,serif" font-size="14.00" fill="royalblue">950006 </text>
<text xml:space="preserve" text-anchor="start" x="1087.52" y="-201.42" font-family="Times,serif" font-size="14.00"> Constant supervision cell </text>
</g>
<!-- 900002&#45;&gt;END_NODE -->
<g id="edge8" class="edge">
<title>900002&#45;&gt;END_NODE</title>
<path fill="none" stroke="black" d="M1019.69,-168.46C1087.46,-163.42 1163.69,-163.41 1232.27,-176.72 1235.62,-177.37 1239.03,-178.24 1242.41,-179.25"/>
<polygon fill="black" stroke="black" points="1241.02,-182.47 1251.62,-182.41 1243.29,-175.85 1241.02,-182.47"/>
<text xml:space="preserve" text-anchor="start" x="1058.65" y="-180.92" font-family="Times,serif" font-size="14.00"> </text>
<text xml:space="preserve" text-anchor="start" x="1062.4" y="-180.92" font-family="Times,serif" font-size="14.00" fill="royalblue">950007 </text>
<text xml:space="preserve" text-anchor="start" x="1106.65" y="-180.92" font-family="Times,serif" font-size="14.00"> Health care centre </text>
</g>
<!-- 900002&#45;&gt;END_NODE -->
<g id="edge9" class="edge">
<title>900002&#45;&gt;END_NODE</title>
<path fill="none" stroke="black" d="M1011.41,-133.47C1082.75,-119.12 1163.48,-115.58 1232.27,-144.72 1241.17,-148.49 1249.28,-154.66 1256.28,-161.48"/>
<polygon fill="black" stroke="black" points="1253.53,-163.67 1262.93,-168.57 1258.64,-158.88 1253.53,-163.67"/>
<text xml:space="preserve" text-anchor="start" x="1063.9" y="-148.92" font-family="Times,serif" font-size="14.00"> </text>
<text xml:space="preserve" text-anchor="start" x="1067.65" y="-148.92" font-family="Times,serif" font-size="14.00" fill="royalblue">950008 </text>
<text xml:space="preserve" text-anchor="start" x="1111.9" y="-148.92" font-family="Times,serif" font-size="14.00"> Outside hospital </text>
</g>
<!-- 900002&#45;&gt;END_NODE -->
<g id="edge10" class="edge">
<title>900002&#45;&gt;END_NODE</title>
<path fill="none" stroke="black" d="M1002.25,-111.67C1014.68,-107.74 1027.17,-104.34 1039.52,-101.72 1123.31,-83.89 1158.83,-57.62 1232.27,-101.72 1251.29,-113.14 1263.59,-134.35 1271.32,-153.89"/>
<polygon fill="black" stroke="black" points="1267.94,-154.86 1274.64,-163.08 1274.53,-152.48 1267.94,-154.86"/>
<text xml:space="preserve" text-anchor="start" x="1092.77" y="-105.92" font-family="Times,serif" font-size="14.00"> </text>
<text xml:space="preserve" text-anchor="start" x="1096.52" y="-105.92" font-family="Times,serif" font-size="14.00" fill="royalblue">950009 </text>
<text xml:space="preserve" text-anchor="start" x="1140.77" y="-105.92" font-family="Times,serif" font-size="14.00"> Other </text>
</g>
</g>
</svg>
