<?xml version="1.0" encoding="UTF-8" standalone="no"?>
<!DOCTYPE svg PUBLIC "-//W3C//DTD SVG 1.1//EN"
 "http://www.w3.org/Graphics/SVG/1.1/DTD/svg11.dtd">
<!-- Generated by graphviz version 15.0.0 (20260523.1842)
 -->
<!-- Title: FOOD_REFUSAL_2 Pages: 1 -->
<svg width="1453pt" height="402pt"
 viewBox="0.00 0.00 1453.00 402.00" xmlns="http://www.w3.org/2000/svg" xmlns:xlink="http://www.w3.org/1999/xlink">
<g id="graph0" class="graph" transform="scale(1 1) rotate(0) translate(4 398.43)">
<title>FOOD_REFUSAL_2</title>
<polygon fill="white" stroke="none" points="-4,4 -4,-398.43 1448.73,-398.43 1448.73,4 -4,4"/>
<!-- START_NODE -->
<g id="node1" class="node">
<title>START_NODE</title>
</g>
<!-- 900001 -->
<g id="node2" class="node">
<title>900001</title>
<ellipse fill="none" stroke="black" cx="281.29" cy="-197.22" rx="168.04" ry="168.04"/>
<text xml:space="preserve" text-anchor="start" x="166.17" y="-193.17" font-family="Times,serif" font-size="14.00"> </text>
<text xml:space="preserve" text-anchor="start" x="169.92" y="-193.17" font-family="Times,serif" font-size="14.00" fill="royalblue">900001 </text>
<text xml:space="preserve" text-anchor="start" x="214.17" y="-193.17" font-family="Times,serif" font-size="14.00"> Which type of refusal occurred? </text>
</g>
<!-- START_NODE&#45;&gt;900001 -->
<g id="edge1" class="edge">
<title>START_NODE&#45;&gt;900001</title>
<path fill="none" stroke="black" d="M53.58,-197.22C66.35,-197.22 83.02,-197.22 101.53,-197.22"/>
<polygon fill="black" stroke="black" points="101.43,-200.72 111.43,-197.22 101.43,-193.72 101.43,-200.72"/>
<text xml:space="preserve" text-anchor="middle" x="83.62" y="-200.42" font-family="Times,serif" font-size="14.00">start</text>
</g>
<!-- 900002 -->
<g id="node4" class="node">
<title>900002</title>
<ellipse fill="none" stroke="black" cx="951.05" cy="-197.22" rx="197.22" ry="197.22"/>
<text xml:space="preserve" text-anchor="start" x="814.55" y="-193.17" font-family="Times,serif" font-size="14.00"> </text>
<text xml:space="preserve" text-anchor="start" x="818.3" y="-193.17" font-family="Times,serif" font-size="14.00" fill="royalblue">900002 </text>
<text xml:space="preserve" text-anchor="start" x="862.55" y="-193.17" font-family="Times,serif" font-size="14.00"> Where is the prisoner currently located? </text>
</g>
<!-- 900001&#45;&gt;900002 -->
<g id="edge2" class="edge">
<title>900001&#45;&gt;900002</title>
<path fill="none" stroke="black" d="M448.68,-214.17C454.98,-214.57 461.21,-214.92 467.34,-215.22 586.53,-221 616.61,-220.22 735.84,-215.22 738.2,-215.12 740.59,-215.01 742.98,-214.9"/>
<polygon fill="black" stroke="black" points="742.94,-218.41 752.75,-214.41 742.59,-211.42 742.94,-218.41"/>
<text xml:space="preserve" text-anchor="start" x="496.59" y="-223.47" font-family="Times,serif" font-size="14.00"> </text>
<text xml:space="preserve" text-anchor="start" x="500.34" y="-223.47" font-family="Times,serif" font-size="14.00" fill="royalblue">950001 </text>
<text xml:space="preserve" text-anchor="start" x="544.59" y="-223.47" font-family="Times,serif" font-size="14.00"> Food (for 72 hours or more) </text>
</g>
<!-- 900001&#45;&gt;900002 -->
<g id="edge3" class="edge">
<title>900001&#45;&gt;900002</title>
<path fill="none" stroke="black" d="M449.73,-194.85C455.67,-194.8 461.55,-194.76 467.34,-194.72 586.67,-193.91 616.51,-194.02 735.84,-194.72 737.91,-194.73 739.99,-194.74 742.08,-194.75"/>
<polygon fill="black" stroke="black" points="741.82,-198.25 751.85,-194.82 741.87,-191.25 741.82,-198.25"/>
<text xml:space="preserve" text-anchor="start" x="492.46" y="-198.92" font-family="Times,serif" font-size="14.00"> </text>
<text xml:space="preserve" text-anchor="start" x="496.21" y="-198.92" font-family="Times,serif" font-size="14.00" fill="royalblue">950002 </text>
<text xml:space="preserve" text-anchor="start" x="540.46" y="-198.92" font-family="Times,serif" font-size="14.00"> Liquid (for 24 hours or more) </text>
</g>
<!-- 900001&#45;&gt;900002 -->
<g id="edge4" class="edge">
<title>900001&#45;&gt;900002</title>
<path fill="none" stroke="black" d="M448.14,-175.13C454.62,-174.59 461.04,-174.12 467.34,-173.72 586.43,-166.18 616.68,-167.2 735.84,-173.72 738.38,-173.86 740.94,-174 743.51,-174.16"/>
<polygon fill="black" stroke="black" points="743.15,-177.64 753.35,-174.8 743.6,-170.66 743.15,-177.64"/>
<text xml:space="preserve" text-anchor="start" x="467.34" y="-177.92" font-family="Times,serif" font-size="14.00"> </text>
<text xml:space="preserve" text-anchor="start" x="471.09" y="-177.92" font-family="Times,serif" font-size="14.00" fill="royalblue">950003 </text>
<text xml:space="preserve" text-anchor="start" x="515.34" y="-177.92" font-family="Times,serif" font-size="14.00"> Food and liquid (for 24 hours or more) </text>
</g>
<!-- END_NODE -->
<g id="node3" class="node">
<title>END_NODE</title>
<ellipse fill="none" stroke="black" cx="1410.88" cy="-197.22" rx="29.86" ry="29.86"/>
<ellipse fill="none" stroke="black" cx="1410.88" cy="-197.22" rx="33.86" ry="33.86"/>
<text xml:space="preserve" text-anchor="middle" x="1410.88" y="-192.17" font-family="Times,serif" font-size="14.00">END</text>
</g>
<!-- 900002&#45;&gt;END_NODE -->
<g id="edge5" class="edge">
<title>900002&#45;&gt;END_NODE</title>
<path fill="none" stroke="black" d="M1135.25,-268.56C1145.65,-271.16 1156.04,-273.41 1166.27,-275.22 1250.64,-290.1 1283.7,-316.02 1359.02,-275.22 1373.66,-267.29 1384.75,-253.11 1392.78,-239"/>
<polygon fill="black" stroke="black" points="1395.87,-240.65 1397.39,-230.17 1389.66,-237.41 1395.87,-240.65"/>
<text xml:space="preserve" text-anchor="start" x="1190.27" y="-301.33" font-family="Times,serif" font-size="14.00"> </text>
<text xml:space="preserve" text-anchor="start" x="1194.02" y="-301.33" font-family="Times,serif" font-size="14.00" fill="royalblue">950004 </text>
<text xml:space="preserve" text-anchor="start" x="1238.27" y="-301.33" font-family="Times,serif" font-size="14.00"> Normal location </text>
</g>
<!-- 900002&#45;&gt;END_NODE -->
<g id="edge6" class="edge">
<title>900002&#45;&gt;END_NODE</title>
<path fill="none" stroke="black" d="M1142.37,-246.74C1211.97,-256.65 1290.42,-258.02 1359.02,-235.22 1364.97,-233.24 1370.78,-230.27 1376.23,-226.83"/>
<polygon fill="black" stroke="black" points="1378.17,-229.75 1384.35,-221.15 1374.15,-224.02 1378.17,-229.75"/>
<text xml:space="preserve" text-anchor="start" x="1190.27" y="-257.73" font-family="Times,serif" font-size="14.00"> </text>
<text xml:space="preserve" text-anchor="start" x="1194.02" y="-257.73" font-family="Times,serif" font-size="14.00" fill="royalblue">950005 </text>
<text xml:space="preserve" text-anchor="start" x="1238.27" y="-257.73" font-family="Times,serif" font-size="14.00"> Segregation unit </text>
</g>
<!-- 900002&#45;&gt;END_NODE -->
<g id="edge7" class="edge">
<title>900002&#45;&gt;END_NODE</title>
<path fill="none" stroke="black" d="M1148.54,-197.22C1228.92,-197.22 1314.74,-197.22 1365.28,-197.22"/>
<polygon fill="black" stroke="black" points="1365.22,-200.72 1375.22,-197.22 1365.22,-193.72 1365.22,-200.72"/>
<text xml:space="preserve" text-anchor="start" x="1166.27" y="-201.42" font-family="Times,serif" font-size="14.00"> </text>
<text xml:space="preserve" text-anchor="start" x="1170.02" y="-201.42" font-family="Times,serif" font-size="14.00" fill="royalblue">950006 </text>
<text xml:space="preserve" text-anchor="start" x="1214.27" y="-201.42" font-family="Times,serif" font-size="14.00"> Constant supervision cell </text>
</g>
<!-- 900002&#45;&gt;END_NODE -->
<g id="edge8" class="edge">
<title>900002&#45;&gt;END_NODE</title>
<path fill="none" stroke="black" d="M1146.44,-168.46C1214.21,-163.42 1290.44,-163.41 1359.02,-176.72 1362.37,-177.37 1365.78,-178.24 1369.16,-179.25"/>
<polygon fill="black" stroke="black" points="1367.77,-182.47 1378.37,-182.41 1370.04,-175.85 1367.77,-182.47"/>
<text xml:space="preserve" text-anchor="start" x="1185.4" y="-180.92" font-family="Times,serif" font-size="14.00"> </text>
<text xml:space="preserve" text-anchor="start" x="1189.15" y="-180.92" font-family="Times,serif" font-size="14.00" fill="royalblue">950007 </text>
<text xml:space="preserve" text-anchor="start" x="1233.4" y="-180.92" font-family="Times,serif" font-size="14.00"> Health care centre </text>
</g>
<!-- 900002&#45;&gt;END_NODE -->
<g id="edge9" class="edge">
<title>900002&#45;&gt;END_NODE</title>
<path fill="none" stroke="black" d="M1138.16,-133.47C1209.5,-119.12 1290.23,-115.58 1359.02,-144.72 1367.92,-148.49 1376.03,-154.66 1383.03,-161.48"/>
<polygon fill="black" stroke="black" points="1380.28,-163.67 1389.68,-168.57 1385.39,-158.88 1380.28,-163.67"/>
<text xml:space="preserve" text-anchor="start" x="1190.65" y="-148.92" font-family="Times,serif" font-size="14.00"> </text>
<text xml:space="preserve" text-anchor="start" x="1194.4" y="-148.92" font-family="Times,serif" font-size="14.00" fill="royalblue">950008 </text>
<text xml:space="preserve" text-anchor="start" x="1238.65" y="-148.92" font-family="Times,serif" font-size="14.00"> Outside hospital </text>
</g>
<!-- 900002&#45;&gt;END_NODE -->
<g id="edge10" class="edge">
<title>900002&#45;&gt;END_NODE</title>
<path fill="none" stroke="black" d="M1129,-111.67C1141.43,-107.74 1153.92,-104.34 1166.27,-101.72 1250.06,-83.89 1285.58,-57.62 1359.02,-101.72 1378.04,-113.14 1390.34,-134.35 1398.07,-153.89"/>
<polygon fill="black" stroke="black" points="1394.69,-154.86 1401.39,-163.08 1401.28,-152.48 1394.69,-154.86"/>
<text xml:space="preserve" text-anchor="start" x="1219.52" y="-105.92" font-family="Times,serif" font-size="14.00"> </text>
<text xml:space="preserve" text-anchor="start" x="1223.27" y="-105.92" font-family="Times,serif" font-size="14.00" fill="royalblue">950009 </text>
<text xml:space="preserve" text-anchor="start" x="1267.52" y="-105.92" font-family="Times,serif" font-size="14.00"> Other </text>
</g>
</g>
</svg>
