<?xml version="1.0" encoding="UTF-8" standalone="no"?>
<!DOCTYPE svg PUBLIC "-//W3C//DTD SVG 1.1//EN"
 "http://www.w3.org/Graphics/SVG/1.1/DTD/svg11.dtd">
<!-- Generated by graphviz version 12.1.1 (20240910.0053)
 -->
<!-- Title: FULL_CLOSE_DOWN_SEARCH Pages: 1 -->
<svg width="5982pt" height="869pt"
 viewBox="0.00 0.00 5981.62 869.09" xmlns="http://www.w3.org/2000/svg" xmlns:xlink="http://www.w3.org/1999/xlink">
<g id="graph0" class="graph" transform="scale(1 1) rotate(0) translate(4 865.09)">
<title>FULL_CLOSE_DOWN_SEARCH</title>
<polygon fill="white" stroke="none" points="-4,4 -4,-865.09 5977.62,-865.09 5977.62,4 -4,4"/>
<!-- START_NODE -->
<g id="node1" class="node">
<title>START_NODE</title>
</g>
<!-- 45067 -->
<g id="node2" class="node">
<title>45067</title>
<ellipse fill="none" stroke="black" cx="337.08" cy="-223.83" rx="223.83" ry="223.83"/>
<text text-anchor="middle" x="337.08" y="-218.78" font-family="Times,serif" font-size="14.00">WERE THE POLICE INFORMED OF THE INCIDENT</text>
</g>
<!-- START_NODE&#45;&gt;45067 -->
<g id="edge1" class="edge">
<title>START_NODE&#45;&gt;45067</title>
<path fill="none" stroke="black" d="M53.74,-223.83C66.37,-223.83 82.91,-223.83 101.66,-223.83"/>
<polygon fill="black" stroke="black" points="101.43,-227.33 111.43,-223.83 101.43,-220.33 101.43,-227.33"/>
<text text-anchor="middle" x="83.62" y="-227.03" font-family="Times,serif" font-size="14.00">start</text>
</g>
<!-- 44723 -->
<g id="node12" class="node">
<title>44723</title>
<ellipse fill="none" stroke="black" cx="897.93" cy="-517.83" rx="275.52" ry="275.52"/>
<text text-anchor="middle" x="897.93" y="-512.78" font-family="Times,serif" font-size="14.00">IS THE INCIDENT THE SUBJECT OF A POLICE INVESTIGATION</text>
</g>
<!-- 45067&#45;&gt;44723 -->
<g id="edge36" class="edge">
<title>45067&#45;&gt;44723</title>
<path fill="none" stroke="black" d="M535.5,-327.69C570.39,-346.04 607.15,-365.38 643.32,-384.41"/>
<polygon fill="black" stroke="black" points="641.69,-387.51 652.17,-389.07 644.95,-381.31 641.69,-387.51"/>
<text text-anchor="middle" x="591.66" y="-365.22" font-family="Times,serif" font-size="14.00">YES</text>
</g>
<!-- 45018 -->
<g id="node13" class="node">
<title>45018</title>
<ellipse fill="none" stroke="black" cx="1531.47" cy="-477.83" rx="296.51" ry="296.51"/>
<text text-anchor="middle" x="1531.47" y="-472.78" font-family="Times,serif" font-size="14.00">IS THE INCIDENT THE SUBJECT OF AN INTERNAL INVESTIGATION</text>
</g>
<!-- 45067&#45;&gt;45018 -->
<g id="edge37" class="edge">
<title>45067&#45;&gt;45018</title>
<path fill="none" stroke="black" d="M557.65,-184.29C729.62,-162.16 972.54,-150.62 1173.46,-216.33 1216.56,-230.43 1258.76,-251.92 1298.18,-276.65"/>
<polygon fill="black" stroke="black" points="1296.02,-279.43 1306.33,-281.85 1299.78,-273.52 1296.02,-279.43"/>
<text text-anchor="middle" x="897.93" y="-219.53" font-family="Times,serif" font-size="14.00">NO</text>
</g>
<!-- END_NODE -->
<g id="node3" class="node">
<title>END_NODE</title>
<ellipse fill="none" stroke="black" cx="5939.77" cy="-596.83" rx="29.86" ry="29.86"/>
<ellipse fill="none" stroke="black" cx="5939.77" cy="-596.83" rx="33.86" ry="33.86"/>
<text text-anchor="middle" x="5939.77" y="-591.78" font-family="Times,serif" font-size="14.00">END</text>
</g>
<!-- 44146 -->
<g id="node4" class="node">
<title>44146</title>
<ellipse fill="none" stroke="black" cx="2120.98" cy="-477.83" rx="231.51" ry="231.51"/>
<text text-anchor="middle" x="2120.98" y="-472.78" font-family="Times,serif" font-size="14.00">IS THERE ANY MEDIA INTEREST IN THIS INCIDENT</text>
</g>
<!-- 44677 -->
<g id="node5" class="node">
<title>44677</title>
<ellipse fill="none" stroke="black" cx="2681.32" cy="-477.83" rx="267.33" ry="267.33"/>
<text text-anchor="middle" x="2681.32" y="-472.78" font-family="Times,serif" font-size="14.00">HAS THE PRISON SERVICE PRESS OFFICE BEEN INFORMED</text>
</g>
<!-- 44146&#45;&gt;44677 -->
<g id="edge2" class="edge">
<title>44146&#45;&gt;44677</title>
<path fill="none" stroke="black" d="M2352.71,-477.83C2369.05,-477.83 2385.62,-477.83 2402.19,-477.83"/>
<polygon fill="black" stroke="black" points="2402.14,-481.33 2412.14,-477.83 2402.14,-474.33 2402.14,-481.33"/>
<text text-anchor="middle" x="2383.24" y="-481.03" font-family="Times,serif" font-size="14.00">YES</text>
</g>
<!-- 44146&#45;&gt;44677 -->
<g id="edge3" class="edge">
<title>44146&#45;&gt;44677</title>
<path fill="none" stroke="black" d="M2352.11,-458.18C2358.3,-457.86 2364.43,-457.58 2370.49,-457.33 2381.18,-456.89 2392.08,-456.64 2403.09,-456.56"/>
<polygon fill="black" stroke="black" points="2403.09,-460.06 2413.08,-456.53 2403.07,-453.06 2403.09,-460.06"/>
<text text-anchor="middle" x="2383.24" y="-460.53" font-family="Times,serif" font-size="14.00">NO</text>
</g>
<!-- 45062 -->
<g id="node11" class="node">
<title>45062</title>
<ellipse fill="none" stroke="black" cx="3168.48" cy="-477.83" rx="158.32" ry="158.32"/>
<text text-anchor="middle" x="3168.48" y="-472.78" font-family="Times,serif" font-size="14.00">WHY WAS SEARCH CARRIED OUT</text>
</g>
<!-- 44677&#45;&gt;45062 -->
<g id="edge17" class="edge">
<title>44677&#45;&gt;45062</title>
<path fill="none" stroke="black" d="M2949.03,-477.83C2965.84,-477.83 2982.5,-477.83 2998.68,-477.83"/>
<polygon fill="black" stroke="black" points="2998.29,-481.33 3008.29,-477.83 2998.29,-474.33 2998.29,-481.33"/>
<text text-anchor="middle" x="2979.41" y="-481.03" font-family="Times,serif" font-size="14.00">YES</text>
</g>
<!-- 44677&#45;&gt;45062 -->
<g id="edge18" class="edge">
<title>44677&#45;&gt;45062</title>
<path fill="none" stroke="black" d="M2948.08,-455.94C2962.99,-456.05 2977.76,-456.49 2992.16,-457.33 2994.71,-457.48 2997.27,-457.64 2999.86,-457.81"/>
<polygon fill="black" stroke="black" points="2999.54,-461.3 3009.76,-458.52 3000.04,-454.32 2999.54,-461.3"/>
<text text-anchor="middle" x="2979.41" y="-460.53" font-family="Times,serif" font-size="14.00">NO</text>
</g>
<!-- 44385 -->
<g id="node6" class="node">
<title>44385</title>
<ellipse fill="none" stroke="black" cx="4291.23" cy="-477.83" rx="158.32" ry="158.32"/>
<text text-anchor="middle" x="4291.23" y="-472.78" font-family="Times,serif" font-size="14.00">WERE ANY ILLICIT ITEMS FOUND</text>
</g>
<!-- 44969 -->
<g id="node7" class="node">
<title>44969</title>
<ellipse fill="none" stroke="black" cx="4651.45" cy="-636.83" rx="140.41" ry="140.41"/>
<text text-anchor="middle" x="4651.45" y="-631.78" font-family="Times,serif" font-size="14.00">DESCRIBE THE ILLICIT ITEMS</text>
</g>
<!-- 44385&#45;&gt;44969 -->
<g id="edge4" class="edge">
<title>44385&#45;&gt;44969</title>
<path fill="none" stroke="black" d="M4436.38,-541.81C4461.5,-552.96 4487.58,-564.54 4512.52,-575.61"/>
<polygon fill="black" stroke="black" points="4510.82,-578.68 4521.38,-579.54 4513.66,-572.28 4510.82,-578.68"/>
<text text-anchor="middle" x="4480.3" y="-570.05" font-family="Times,serif" font-size="14.00">YES</text>
</g>
<!-- 44803 -->
<g id="node8" class="node">
<title>44803</title>
<ellipse fill="none" stroke="black" cx="5109.37" cy="-596.83" rx="145.01" ry="145.01"/>
<text text-anchor="middle" x="5109.37" y="-591.78" font-family="Times,serif" font-size="14.00">WERE SPECIALIST DOGS USED</text>
</g>
<!-- 44385&#45;&gt;44803 -->
<g id="edge5" class="edge">
<title>44385&#45;&gt;44803</title>
<path fill="none" stroke="black" d="M4449.69,-472.59C4470.33,-472.07 4491.19,-471.63 4511.05,-471.33 4635.84,-469.48 4668.84,-450.27 4791.86,-471.33 4863.63,-483.62 4878.63,-499.09 4946.36,-525.83 4952.83,-528.38 4959.42,-531.04 4966.06,-533.76"/>
<polygon fill="black" stroke="black" points="4964.55,-536.93 4975.13,-537.51 4967.22,-530.46 4964.55,-536.93"/>
<text text-anchor="middle" x="4651.45" y="-474.53" font-family="Times,serif" font-size="14.00">NO</text>
</g>
<!-- 44969&#45;&gt;44803 -->
<g id="edge23" class="edge">
<title>44969&#45;&gt;44803</title>
<path fill="none" stroke="black" d="M4782.23,-688.49C4833.74,-702.24 4893.26,-709.64 4946.36,-694.83 4957.28,-691.79 4968.19,-687.78 4978.91,-683.14"/>
<polygon fill="black" stroke="black" points="4980.09,-686.45 4987.74,-679.12 4977.19,-680.07 4980.09,-686.45"/>
<text text-anchor="middle" x="4878.11" y="-706.17" font-family="Times,serif" font-size="14.00">WEAPONS</text>
</g>
<!-- 44969&#45;&gt;44803 -->
<g id="edge24" class="edge">
<title>44969&#45;&gt;44803</title>
<path fill="none" stroke="black" d="M4790.38,-658.45C4839.85,-662.74 4895.87,-663.6 4946.36,-654.83 4951.69,-653.91 4957.08,-652.82 4962.49,-651.6"/>
<polygon fill="black" stroke="black" points="4963.23,-655.02 4972.14,-649.28 4961.6,-648.22 4963.23,-655.02"/>
<text text-anchor="middle" x="4878.11" y="-664.79" font-family="Times,serif" font-size="14.00">HOOCH/ALCOHOL</text>
</g>
<!-- 44969&#45;&gt;44803 -->
<g id="edge25" class="edge">
<title>44969&#45;&gt;44803</title>
<path fill="none" stroke="black" d="M4791.95,-627.42C4840.82,-623.85 4896.05,-619.51 4946.36,-614.83 4948.73,-614.61 4951.11,-614.39 4953.51,-614.16"/>
<polygon fill="black" stroke="black" points="4953.73,-617.65 4963.34,-613.2 4953.05,-610.69 4953.73,-617.65"/>
<text text-anchor="middle" x="4878.11" y="-628.73" font-family="Times,serif" font-size="14.00">CASH</text>
</g>
<!-- 44969&#45;&gt;44803 -->
<g id="edge26" class="edge">
<title>44969&#45;&gt;44803</title>
<path fill="none" stroke="black" d="M4786.79,-598.06C4794.55,-596.6 4802.28,-595.34 4809.86,-594.33 4856.14,-588.19 4906.8,-586.68 4953.04,-587.31"/>
<polygon fill="black" stroke="black" points="4952.81,-590.8 4962.87,-587.48 4952.93,-583.8 4952.81,-590.8"/>
<text text-anchor="middle" x="4878.11" y="-597.53" font-family="Times,serif" font-size="14.00">MOBILE PHONE</text>
</g>
<!-- 44969&#45;&gt;44803 -->
<g id="edge27" class="edge">
<title>44969&#45;&gt;44803</title>
<path fill="none" stroke="black" d="M4778.04,-575.11C4788.63,-571.6 4799.32,-568.58 4809.86,-566.33 4857.02,-556.25 4909.11,-557.45 4956.4,-563.09"/>
<polygon fill="black" stroke="black" points="4955.81,-566.54 4966.17,-564.34 4956.7,-559.6 4955.81,-566.54"/>
<text text-anchor="middle" x="4878.11" y="-569.53" font-family="Times,serif" font-size="14.00">INCENDIARY DEVICE</text>
</g>
<!-- 44969&#45;&gt;44803 -->
<g id="edge28" class="edge">
<title>44969&#45;&gt;44803</title>
<path fill="none" stroke="black" d="M4766.32,-555.65C4780.47,-548.6 4795.14,-542.56 4809.86,-538.33 4859.17,-524.17 4914.05,-529.19 4963.17,-540.86"/>
<polygon fill="black" stroke="black" points="4962.19,-544.22 4972.74,-543.25 4963.88,-537.43 4962.19,-544.22"/>
<text text-anchor="middle" x="4878.11" y="-541.53" font-family="Times,serif" font-size="14.00">OTHER</text>
</g>
<!-- 44570 -->
<g id="node10" class="node">
<title>44570</title>
<ellipse fill="none" stroke="black" cx="5580.15" cy="-596.83" rx="264.26" ry="264.26"/>
<text text-anchor="middle" x="5580.15" y="-591.78" font-family="Times,serif" font-size="14.00">WERE SUPPORT STAFF FROM OTHER PRISONS DEPLOYED</text>
</g>
<!-- 44803&#45;&gt;44570 -->
<g id="edge21" class="edge">
<title>44803&#45;&gt;44570</title>
<path fill="none" stroke="black" d="M5254.85,-596.83C5270.84,-596.83 5287.5,-596.83 5304.45,-596.83"/>
<polygon fill="black" stroke="black" points="5304.11,-600.33 5314.11,-596.83 5304.11,-593.33 5304.11,-600.33"/>
<text text-anchor="middle" x="5285.13" y="-600.03" font-family="Times,serif" font-size="14.00">YES</text>
</g>
<!-- 44803&#45;&gt;44570 -->
<g id="edge22" class="edge">
<title>44803&#45;&gt;44570</title>
<path fill="none" stroke="black" d="M5253.4,-577.74C5259.81,-577.2 5266.16,-576.72 5272.38,-576.33 5283.06,-575.66 5293.94,-575.22 5304.94,-574.97"/>
<polygon fill="black" stroke="black" points="5304.97,-578.47 5314.92,-574.82 5304.86,-571.47 5304.97,-578.47"/>
<text text-anchor="middle" x="5285.13" y="-579.53" font-family="Times,serif" font-size="14.00">NO</text>
</g>
<!-- 44432 -->
<g id="node9" class="node">
<title>44432</title>
<ellipse fill="none" stroke="black" cx="3768.48" cy="-477.83" rx="195.68" ry="195.68"/>
<text text-anchor="middle" x="3768.48" y="-472.78" font-family="Times,serif" font-size="14.00">WHAT WAS THE PURPOSE OF THE SEARCH</text>
</g>
<!-- 44432&#45;&gt;44385 -->
<g id="edge6" class="edge">
<title>44432&#45;&gt;44385</title>
<path fill="none" stroke="black" d="M3926.66,-593.39C3944.7,-602.47 3963.38,-610.27 3982.16,-615.83 4038.73,-632.58 4059.16,-635.14 4114.91,-615.83 4132.35,-609.79 4149.37,-601.22 4165.53,-591.26"/>
<polygon fill="black" stroke="black" points="4167.12,-594.4 4173.66,-586.07 4163.35,-588.5 4167.12,-594.4"/>
<text text-anchor="middle" x="4048.53" y="-632.57" font-family="Times,serif" font-size="14.00">FIREARM</text>
</g>
<!-- 44432&#45;&gt;44385 -->
<g id="edge7" class="edge">
<title>44432&#45;&gt;44385</title>
<path fill="none" stroke="black" d="M3943.83,-565.22C3956.6,-569.42 3969.45,-573.04 3982.16,-575.83 4039.79,-588.47 4057.81,-590.7 4114.91,-575.83 4125.18,-573.16 4135.48,-569.73 4145.67,-565.78"/>
<polygon fill="black" stroke="black" points="4146.89,-569.06 4154.83,-562.04 4144.25,-562.57 4146.89,-569.06"/>
<text text-anchor="middle" x="4048.53" y="-589.37" font-family="Times,serif" font-size="14.00">AMMUNITION</text>
</g>
<!-- 44432&#45;&gt;44385 -->
<g id="edge8" class="edge">
<title>44432&#45;&gt;44385</title>
<path fill="none" stroke="black" d="M3956.8,-531.82C3965.33,-533.36 3973.81,-534.71 3982.16,-535.83 4040.64,-543.66 4056.66,-545.22 4114.91,-535.83 4120.17,-534.98 4125.49,-534 4130.83,-532.9"/>
<polygon fill="black" stroke="black" points="4131.33,-536.38 4140.35,-530.83 4129.84,-529.54 4131.33,-536.38"/>
<text text-anchor="middle" x="4048.53" y="-545.5" font-family="Times,serif" font-size="14.00">C.I SPRAY</text>
</g>
<!-- 44432&#45;&gt;44385 -->
<g id="edge9" class="edge">
<title>44432&#45;&gt;44385</title>
<path fill="none" stroke="black" d="M3963.87,-494.95C3970.03,-495.28 3976.14,-495.58 3982.16,-495.83 4041.11,-498.32 4055.99,-498.85 4114.91,-495.83 4117.3,-495.71 4119.7,-495.58 4122.12,-495.44"/>
<polygon fill="black" stroke="black" points="4122.26,-498.93 4132.02,-494.82 4121.82,-491.95 4122.26,-498.93"/>
<text text-anchor="middle" x="4048.53" y="-501.1" font-family="Times,serif" font-size="14.00">OTHER WEAPON</text>
</g>
<!-- 44432&#45;&gt;44385 -->
<g id="edge10" class="edge">
<title>44432&#45;&gt;44385</title>
<path fill="none" stroke="black" d="M3964.48,-475.45C3970.44,-475.4 3976.34,-475.36 3982.16,-475.33 4041.16,-474.98 4055.91,-474.91 4114.91,-475.33 4116.99,-475.35 4119.08,-475.36 4121.18,-475.38"/>
<polygon fill="black" stroke="black" points="4120.99,-478.88 4131.02,-475.46 4121.05,-471.88 4120.99,-478.88"/>
<text text-anchor="middle" x="4048.53" y="-478.53" font-family="Times,serif" font-size="14.00">EXPLOSIVES</text>
</g>
<!-- 44432&#45;&gt;44385 -->
<g id="edge11" class="edge">
<title>44432&#45;&gt;44385</title>
<path fill="none" stroke="black" d="M3963.27,-455.52C3969.64,-455.07 3975.95,-454.67 3982.16,-454.33 4041.07,-451.09 4056.04,-450.4 4114.91,-454.33 4117.46,-454.5 4120.03,-454.69 4122.62,-454.88"/>
<polygon fill="black" stroke="black" points="4122.29,-458.37 4132.54,-455.7 4122.86,-451.39 4122.29,-458.37"/>
<text text-anchor="middle" x="4048.53" y="-457.53" font-family="Times,serif" font-size="14.00">DRUGS</text>
</g>
<!-- 44432&#45;&gt;44385 -->
<g id="edge12" class="edge">
<title>44432&#45;&gt;44385</title>
<path fill="none" stroke="black" d="M3959.6,-434.17C3967.2,-433.09 3974.74,-432.13 3982.16,-431.33 4040.82,-424.99 4056.4,-423.7 4114.91,-431.33 4119.06,-431.87 4123.24,-432.48 4127.46,-433.15"/>
<polygon fill="black" stroke="black" points="4126.73,-436.58 4137.17,-434.81 4127.9,-429.68 4126.73,-436.58"/>
<text text-anchor="middle" x="4048.53" y="-434.53" font-family="Times,serif" font-size="14.00">ESCAPE EQUIPMENT</text>
</g>
<!-- 44432&#45;&gt;44385 -->
<g id="edge13" class="edge">
<title>44432&#45;&gt;44385</title>
<path fill="none" stroke="black" d="M3952.97,-411.17C3962.77,-408.9 3972.54,-406.93 3982.16,-405.33 4040.36,-395.68 4057.04,-393.84 4114.91,-405.33 4121.69,-406.68 4128.54,-408.29 4135.41,-410.12"/>
<polygon fill="black" stroke="black" points="4134.16,-413.4 4144.73,-412.75 4136.06,-406.67 4134.16,-413.4"/>
<text text-anchor="middle" x="4048.53" y="-408.53" font-family="Times,serif" font-size="14.00">GATHER EVIDENCE</text>
</g>
<!-- 44432&#45;&gt;44385 -->
<g id="edge14" class="edge">
<title>44432&#45;&gt;44385</title>
<path fill="none" stroke="black" d="M3942.83,-388.52C3955.92,-384.08 3969.11,-380.26 3982.16,-377.33 4039.73,-364.41 4057.9,-362.15 4114.91,-377.33 4125.59,-380.17 4136.29,-383.84 4146.86,-388.08"/>
<polygon fill="black" stroke="black" points="4145.4,-391.27 4155.97,-391.92 4148.11,-384.81 4145.4,-391.27"/>
<text text-anchor="middle" x="4048.53" y="-380.53" font-family="Times,serif" font-size="14.00">OTHER</text>
</g>
<!-- 44570&#45;&gt;END_NODE -->
<g id="edge15" class="edge">
<title>44570&#45;&gt;END_NODE</title>
<path fill="none" stroke="black" d="M5844.81,-596.83C5863.29,-596.83 5880.2,-596.83 5894.42,-596.83"/>
<polygon fill="black" stroke="black" points="5894.2,-600.33 5904.2,-596.83 5894.2,-593.33 5894.2,-600.33"/>
<text text-anchor="middle" x="5875.16" y="-600.03" font-family="Times,serif" font-size="14.00">YES</text>
</g>
<!-- 44570&#45;&gt;END_NODE -->
<g id="edge16" class="edge">
<title>44570&#45;&gt;END_NODE</title>
<path fill="none" stroke="black" d="M5843.87,-577.08C5850.11,-576.8 5856.3,-576.55 5862.41,-576.33 5873.74,-575.92 5876.79,-574.17 5887.91,-576.33 5891.26,-576.98 5894.67,-577.85 5898.06,-578.87"/>
<polygon fill="black" stroke="black" points="5896.66,-582.09 5907.26,-582.02 5898.93,-575.47 5896.66,-582.09"/>
<text text-anchor="middle" x="5875.16" y="-579.53" font-family="Times,serif" font-size="14.00">NO</text>
</g>
<!-- 45062&#45;&gt;44432 -->
<g id="edge31" class="edge">
<title>45062&#45;&gt;44432</title>
<path fill="none" stroke="black" d="M3317.87,-530.5C3326.91,-532.59 3335.93,-534.4 3344.8,-535.83 3436.94,-550.68 3462.29,-548.22 3554.8,-535.83 3559.49,-535.2 3564.23,-534.5 3568.99,-533.73"/>
<polygon fill="black" stroke="black" points="3569.4,-537.21 3578.66,-532.07 3568.22,-530.31 3569.4,-537.21"/>
<text text-anchor="middle" x="3449.8" y="-549.26" font-family="Times,serif" font-size="14.00">INFORMATION/INTELLIGENCE</text>
</g>
<!-- 45062&#45;&gt;44432 -->
<g id="edge32" class="edge">
<title>45062&#45;&gt;44432</title>
<path fill="none" stroke="black" d="M3326.17,-494.72C3332.46,-495.14 3338.68,-495.52 3344.8,-495.83 3438.01,-500.6 3461.55,-499.77 3554.8,-495.83 3557.05,-495.74 3559.32,-495.63 3561.6,-495.53"/>
<polygon fill="black" stroke="black" points="3561.76,-499.02 3571.58,-495.03 3561.41,-492.03 3561.76,-499.02"/>
<text text-anchor="middle" x="3449.8" y="-502.3" font-family="Times,serif" font-size="14.00">SPECIFIC FIND</text>
</g>
<!-- 45062&#45;&gt;44432 -->
<g id="edge33" class="edge">
<title>45062&#45;&gt;44432</title>
<path fill="none" stroke="black" d="M3327.17,-475.48C3333.12,-475.42 3339.01,-475.37 3344.8,-475.33 3438.13,-474.67 3461.46,-474.78 3554.8,-475.33 3556.89,-475.34 3558.99,-475.36 3561.1,-475.37"/>
<polygon fill="black" stroke="black" points="3560.94,-478.87 3570.97,-475.44 3560.99,-471.87 3560.94,-478.87"/>
<text text-anchor="middle" x="3449.8" y="-478.53" font-family="Times,serif" font-size="14.00">HEADQUARTERS INSTRUCTIONS</text>
</g>
<!-- 45062&#45;&gt;44432 -->
<g id="edge34" class="edge">
<title>45062&#45;&gt;44432</title>
<path fill="none" stroke="black" d="M3325.66,-455.82C3332.12,-455.25 3338.51,-454.75 3344.8,-454.33 3437.92,-448.12 3461.6,-449.2 3554.8,-454.33 3557.32,-454.47 3559.86,-454.62 3562.41,-454.77"/>
<polygon fill="black" stroke="black" points="3561.97,-458.25 3572.18,-455.42 3562.43,-451.27 3561.97,-458.25"/>
<text text-anchor="middle" x="3449.8" y="-457.53" font-family="Times,serif" font-size="14.00">ROUTINE REQUIREMENT</text>
</g>
<!-- 45062&#45;&gt;44432 -->
<g id="edge35" class="edge">
<title>45062&#45;&gt;44432</title>
<path fill="none" stroke="black" d="M3320.52,-433.31C3328.69,-431.76 3336.82,-430.41 3344.8,-429.33 3437.28,-416.77 3462.05,-418.89 3554.8,-429.33 3558.68,-429.77 3562.59,-430.25 3566.53,-430.77"/>
<polygon fill="black" stroke="black" points="3565.79,-434.2 3576.18,-432.12 3566.76,-427.27 3565.79,-434.2"/>
<text text-anchor="middle" x="3449.8" y="-432.53" font-family="Times,serif" font-size="14.00">OTHER</text>
</g>
<!-- 44723&#45;&gt;45018 -->
<g id="edge19" class="edge">
<title>44723&#45;&gt;45018</title>
<path fill="none" stroke="black" d="M1173.18,-500.46C1190.04,-499.39 1207.06,-498.31 1224.05,-497.24"/>
<polygon fill="black" stroke="black" points="1223.93,-500.75 1233.69,-496.63 1223.49,-493.77 1223.93,-500.75"/>
<text text-anchor="middle" x="1204.21" y="-502.23" font-family="Times,serif" font-size="14.00">YES</text>
</g>
<!-- 44723&#45;&gt;45018 -->
<g id="edge20" class="edge">
<title>44723&#45;&gt;45018</title>
<path fill="none" stroke="black" d="M1170.91,-478.9C1177.82,-478.32 1184.68,-477.8 1191.46,-477.33 1201.92,-476.61 1212.56,-475.99 1223.32,-475.47"/>
<polygon fill="black" stroke="black" points="1223.22,-478.97 1233.05,-475.02 1222.9,-471.98 1223.22,-478.97"/>
<text text-anchor="middle" x="1204.21" y="-480.53" font-family="Times,serif" font-size="14.00">NO</text>
</g>
<!-- 45018&#45;&gt;44146 -->
<g id="edge29" class="edge">
<title>45018&#45;&gt;44146</title>
<path fill="none" stroke="black" d="M1828.37,-477.83C1844.96,-477.83 1861.53,-477.83 1877.89,-477.83"/>
<polygon fill="black" stroke="black" points="1877.66,-481.33 1887.66,-477.83 1877.66,-474.33 1877.66,-481.33"/>
<text text-anchor="middle" x="1858.72" y="-481.03" font-family="Times,serif" font-size="14.00">YES</text>
</g>
<!-- 45018&#45;&gt;44146 -->
<g id="edge30" class="edge">
<title>45018&#45;&gt;44146</title>
<path fill="none" stroke="black" d="M1827.34,-456.4C1842.26,-456.44 1857.04,-456.74 1871.47,-457.33 1873.84,-457.43 1876.22,-457.53 1878.6,-457.64"/>
<polygon fill="black" stroke="black" points="1878.19,-461.12 1888.34,-458.1 1878.52,-454.13 1878.19,-461.12"/>
<text text-anchor="middle" x="1858.72" y="-460.53" font-family="Times,serif" font-size="14.00">NO</text>
</g>
</g>
</svg>
