<?xml version="1.0" encoding="UTF-8" standalone="no"?>
<!DOCTYPE svg PUBLIC "-//W3C//DTD SVG 1.1//EN"
 "http://www.w3.org/Graphics/SVG/1.1/DTD/svg11.dtd">
<!-- Generated by graphviz version 12.1.1 (20240910.0053)
 -->
<!-- Title: FULL_CLOSE_DOWN_SEARCH Pages: 1 -->
<svg width="4574pt" height="645pt"
 viewBox="0.00 0.00 4574.45 645.12" xmlns="http://www.w3.org/2000/svg" xmlns:xlink="http://www.w3.org/1999/xlink">
<g id="graph0" class="graph" transform="scale(1 1) rotate(0) translate(4 641.12)">
<title>FULL_CLOSE_DOWN_SEARCH</title>
<polygon fill="white" stroke="none" points="-4,4 -4,-641.12 4570.45,-641.12 4570.45,4 -4,4"/>
<!-- START_NODE -->
<g id="node1" class="node">
<title>START_NODE</title>
</g>
<!-- 45067 -->
<g id="node2" class="node">
<title>45067</title>
<ellipse fill="none" stroke="black" cx="280.27" cy="-167.02" rx="167.02" ry="167.02"/>
<text text-anchor="middle" x="280.27" y="-161.97" font-family="Times,serif" font-size="14.00">Were the police informed of the incident?</text>
</g>
<!-- START_NODE&#45;&gt;45067 -->
<g id="edge1" class="edge">
<title>START_NODE&#45;&gt;45067</title>
<path fill="none" stroke="black" d="M53.94,-167.02C66.67,-167.02 83.21,-167.02 101.55,-167.02"/>
<polygon fill="black" stroke="black" points="101.34,-170.52 111.34,-167.02 101.34,-163.52 101.34,-170.52"/>
<text text-anchor="middle" x="83.62" y="-170.22" font-family="Times,serif" font-size="14.00">start</text>
</g>
<!-- 44723 -->
<g id="node12" class="node">
<title>44723</title>
<ellipse fill="none" stroke="black" cx="705.87" cy="-388.02" rx="202.33" ry="202.33"/>
<text text-anchor="middle" x="705.87" y="-382.97" font-family="Times,serif" font-size="14.00">Is the incident the subject of a police investigation?</text>
</g>
<!-- 45067&#45;&gt;44723 -->
<g id="edge36" class="edge">
<title>45067&#45;&gt;44723</title>
<path fill="none" stroke="black" d="M428.83,-244C457.04,-258.72 486.93,-274.32 516.22,-289.6"/>
<polygon fill="black" stroke="black" points="514.3,-292.54 524.79,-294.07 517.54,-286.34 514.3,-292.54"/>
<text text-anchor="middle" x="475.42" y="-274.09" font-family="Times,serif" font-size="14.00">Yes</text>
</g>
<!-- 45018 -->
<g id="node13" class="node">
<title>45018</title>
<ellipse fill="none" stroke="black" cx="1177.03" cy="-348.02" rx="212.57" ry="212.57"/>
<text text-anchor="middle" x="1177.03" y="-342.97" font-family="Times,serif" font-size="14.00">Is the incident the subject of an internal investigation?</text>
</g>
<!-- 45067&#45;&gt;45018 -->
<g id="edge37" class="edge">
<title>45067&#45;&gt;45018</title>
<path fill="none" stroke="black" d="M445.1,-137.98C574.04,-121.57 756.64,-112.74 908.21,-160.52 941.18,-170.91 973.62,-186.98 1003.92,-205.42"/>
<polygon fill="black" stroke="black" points="1002.06,-208.38 1012.4,-210.69 1005.75,-202.44 1002.06,-208.38"/>
<text text-anchor="middle" x="705.87" y="-163.72" font-family="Times,serif" font-size="14.00">No</text>
</g>
<!-- END_NODE -->
<g id="node3" class="node">
<title>END_NODE</title>
<ellipse fill="none" stroke="black" cx="4532.59" cy="-445.02" rx="29.86" ry="29.86"/>
<ellipse fill="none" stroke="black" cx="4532.59" cy="-445.02" rx="33.86" ry="33.86"/>
<text text-anchor="middle" x="4532.59" y="-439.97" font-family="Times,serif" font-size="14.00">END</text>
</g>
<!-- 44146 -->
<g id="node4" class="node">
<title>44146</title>
<ellipse fill="none" stroke="black" cx="1617.48" cy="-348.02" rx="171.63" ry="171.63"/>
<text text-anchor="middle" x="1617.48" y="-342.97" font-family="Times,serif" font-size="14.00">Is there any media interest in this incident?</text>
</g>
<!-- 44677 -->
<g id="node5" class="node">
<title>44677</title>
<ellipse fill="none" stroke="black" cx="2045.13" cy="-348.02" rx="199.78" ry="199.78"/>
<text text-anchor="middle" x="2045.13" y="-342.97" font-family="Times,serif" font-size="14.00">Has the prison service press office been informed?</text>
</g>
<!-- 44146&#45;&gt;44677 -->
<g id="edge2" class="edge">
<title>44146&#45;&gt;44677</title>
<path fill="none" stroke="black" d="M1789.46,-348.02C1804.01,-348.02 1818.84,-348.02 1833.64,-348.02"/>
<polygon fill="black" stroke="black" points="1833.45,-351.52 1843.45,-348.02 1833.45,-344.52 1833.45,-351.52"/>
<text text-anchor="middle" x="1817.23" y="-351.22" font-family="Times,serif" font-size="14.00">Yes</text>
</g>
<!-- 44146&#45;&gt;44677 -->
<g id="edge3" class="edge">
<title>44146&#45;&gt;44677</title>
<path fill="none" stroke="black" d="M1788.33,-328.69C1794.66,-328.25 1800.94,-327.85 1807.1,-327.52 1816.12,-327.03 1825.33,-326.78 1834.62,-326.72"/>
<polygon fill="black" stroke="black" points="1834.48,-330.22 1844.48,-326.74 1834.49,-323.22 1834.48,-330.22"/>
<text text-anchor="middle" x="1817.23" y="-330.72" font-family="Times,serif" font-size="14.00">No</text>
</g>
<!-- 45062 -->
<g id="node11" class="node">
<title>45062</title>
<ellipse fill="none" stroke="black" cx="2420.07" cy="-348.02" rx="118.91" ry="118.91"/>
<text text-anchor="middle" x="2420.07" y="-342.97" font-family="Times,serif" font-size="14.00">Why was search carried out?</text>
</g>
<!-- 44677&#45;&gt;45062 -->
<g id="edge17" class="edge">
<title>44677&#45;&gt;45062</title>
<path fill="none" stroke="black" d="M2245.15,-348.02C2260.22,-348.02 2275.17,-348.02 2289.62,-348.02"/>
<polygon fill="black" stroke="black" points="2289.58,-351.52 2299.58,-348.02 2289.58,-344.52 2289.58,-351.52"/>
<text text-anchor="middle" x="2273.03" y="-351.22" font-family="Times,serif" font-size="14.00">Yes</text>
</g>
<!-- 44677&#45;&gt;45062 -->
<g id="edge18" class="edge">
<title>44677&#45;&gt;45062</title>
<path fill="none" stroke="black" d="M2243.98,-326.13C2257.24,-326.14 2270.39,-326.56 2283.16,-327.52 2285.82,-327.72 2288.5,-327.94 2291.21,-328.18"/>
<polygon fill="black" stroke="black" points="2290.63,-331.64 2300.92,-329.13 2291.31,-324.67 2290.63,-331.64"/>
<text text-anchor="middle" x="2273.03" y="-330.72" font-family="Times,serif" font-size="14.00">No</text>
</g>
<!-- 44385 -->
<g id="node6" class="node">
<title>44385</title>
<ellipse fill="none" stroke="black" cx="3265.58" cy="-348.02" rx="119.93" ry="119.93"/>
<text text-anchor="middle" x="3265.58" y="-342.97" font-family="Times,serif" font-size="14.00">Were any illicit items found?</text>
</g>
<!-- 44969 -->
<g id="node7" class="node">
<title>44969</title>
<ellipse fill="none" stroke="black" cx="3544.29" cy="-469.02" rx="102.53" ry="102.53"/>
<text text-anchor="middle" x="3544.29" y="-463.97" font-family="Times,serif" font-size="14.00">Describe the illicit items</text>
</g>
<!-- 44385&#45;&gt;44969 -->
<g id="edge4" class="edge">
<title>44385&#45;&gt;44969</title>
<path fill="none" stroke="black" d="M3375.94,-395.84C3396.88,-405 3418.74,-414.56 3439.5,-423.63"/>
<polygon fill="black" stroke="black" points="3437.96,-426.78 3448.52,-427.58 3440.76,-420.37 3437.96,-426.78"/>
<text text-anchor="middle" x="3413.63" y="-418.96" font-family="Times,serif" font-size="14.00">Yes</text>
</g>
<!-- 44803 -->
<g id="node8" class="node">
<title>44803</title>
<ellipse fill="none" stroke="black" cx="3890.81" cy="-445.02" rx="111.23" ry="111.23"/>
<text text-anchor="middle" x="3890.81" y="-439.97" font-family="Times,serif" font-size="14.00">Were specialist dogs used?</text>
</g>
<!-- 44385&#45;&gt;44803 -->
<g id="edge5" class="edge">
<title>44385&#45;&gt;44803</title>
<path fill="none" stroke="black" d="M3385.76,-342.23C3404.5,-341.52 3423.65,-340.91 3441.76,-340.52 3532.88,-338.57 3556.99,-325.13 3646.82,-340.52 3700.13,-349.65 3711.78,-359.9 3761.57,-381.02 3767.96,-383.73 3774.48,-386.61 3781.03,-389.59"/>
<polygon fill="black" stroke="black" points="3779.4,-392.69 3789.94,-393.71 3782.33,-386.34 3779.4,-392.69"/>
<text text-anchor="middle" x="3544.29" y="-343.72" font-family="Times,serif" font-size="14.00">No</text>
</g>
<!-- 44969&#45;&gt;44803 -->
<g id="edge23" class="edge">
<title>44969&#45;&gt;44803</title>
<path fill="none" stroke="black" d="M3628.44,-528.31C3640.2,-534.33 3652.5,-539.51 3664.82,-543.02 3706.18,-554.79 3720.84,-556.8 3761.57,-543.02 3774.12,-538.78 3786.4,-532.76 3798.09,-525.77"/>
<polygon fill="black" stroke="black" points="3799.89,-528.77 3806.49,-520.49 3796.16,-522.85 3799.89,-528.77"/>
<text text-anchor="middle" x="3713.2" y="-555.82" font-family="Times,serif" font-size="14.00">Weapons</text>
</g>
<!-- 44969&#45;&gt;44803 -->
<g id="edge24" class="edge">
<title>44969&#45;&gt;44803</title>
<path fill="none" stroke="black" d="M3642.62,-499.56C3679.99,-507.3 3722.93,-511.35 3761.57,-503.02 3767.62,-501.72 3773.72,-500.1 3779.82,-498.26"/>
<polygon fill="black" stroke="black" points="3780.89,-501.59 3789.31,-495.16 3778.72,-494.93 3780.89,-501.59"/>
<text text-anchor="middle" x="3713.2" y="-510.83" font-family="Times,serif" font-size="14.00">Hooch/alcohol</text>
</g>
<!-- 44969&#45;&gt;44803 -->
<g id="edge25" class="edge">
<title>44969&#45;&gt;44803</title>
<path fill="none" stroke="black" d="M3647.2,-468.53C3683.36,-467.74 3724.33,-466.14 3761.57,-463.02 3764.08,-462.81 3766.61,-462.58 3769.15,-462.34"/>
<polygon fill="black" stroke="black" points="3769.32,-465.85 3778.91,-461.36 3768.61,-458.88 3769.32,-465.85"/>
<text text-anchor="middle" x="3713.2" y="-471.23" font-family="Times,serif" font-size="14.00">Cash</text>
</g>
<!-- 44969&#45;&gt;44803 -->
<g id="edge26" class="edge">
<title>44969&#45;&gt;44803</title>
<path fill="none" stroke="black" d="M3644.48,-445.31C3651.34,-444.2 3658.17,-443.25 3664.82,-442.52 3698.23,-438.86 3734.59,-437.94 3768.14,-438.34"/>
<polygon fill="black" stroke="black" points="3767.84,-441.83 3777.89,-438.5 3767.95,-434.84 3767.84,-441.83"/>
<text text-anchor="middle" x="3713.2" y="-445.72" font-family="Times,serif" font-size="14.00">Mobile phone</text>
</g>
<!-- 44969&#45;&gt;44803 -->
<g id="edge27" class="edge">
<title>44969&#45;&gt;44803</title>
<path fill="none" stroke="black" d="M3637.41,-425.02C3646.52,-421.98 3655.75,-419.39 3664.82,-417.52 3699.16,-410.44 3736.86,-411.62 3771.41,-416.16"/>
<polygon fill="black" stroke="black" points="3770.61,-419.59 3781.01,-417.54 3771.6,-412.66 3770.61,-419.59"/>
<text text-anchor="middle" x="3713.2" y="-420.72" font-family="Times,serif" font-size="14.00">Incendiary device</text>
</g>
<!-- 44969&#45;&gt;44803 -->
<g id="edge28" class="edge">
<title>44969&#45;&gt;44803</title>
<path fill="none" stroke="black" d="M3626.85,-407.67C3639.06,-401.05 3651.9,-395.34 3664.82,-391.52 3701.53,-380.66 3742.1,-385.31 3778.56,-395.42"/>
<polygon fill="black" stroke="black" points="3777.2,-398.67 3787.78,-398.14 3779.18,-391.96 3777.2,-398.67"/>
<text text-anchor="middle" x="3713.2" y="-394.72" font-family="Times,serif" font-size="14.00">Other</text>
</g>
<!-- 44570 -->
<g id="node10" class="node">
<title>44570</title>
<ellipse fill="none" stroke="black" cx="4250.39" cy="-445.02" rx="192.1" ry="192.1"/>
<text text-anchor="middle" x="4250.39" y="-439.97" font-family="Times,serif" font-size="14.00">Were support staff from other prisons deployed?</text>
</g>
<!-- 44803&#45;&gt;44570 -->
<g id="edge21" class="edge">
<title>44803&#45;&gt;44570</title>
<path fill="none" stroke="black" d="M4002.5,-445.02C4016.78,-445.02 4031.73,-445.02 4046.92,-445.02"/>
<polygon fill="black" stroke="black" points="4046.51,-448.52 4056.51,-445.02 4046.51,-441.52 4046.51,-448.52"/>
<text text-anchor="middle" x="4030.17" y="-448.22" font-family="Times,serif" font-size="14.00">Yes</text>
</g>
<!-- 44803&#45;&gt;44570 -->
<g id="edge22" class="edge">
<title>44803&#45;&gt;44570</title>
<path fill="none" stroke="black" d="M4000.8,-426.39C4007.3,-425.66 4013.75,-425.02 4020.04,-424.52 4029.11,-423.8 4038.37,-423.37 4047.73,-423.18"/>
<polygon fill="black" stroke="black" points="4047.71,-426.68 4057.67,-423.09 4047.64,-419.68 4047.71,-426.68"/>
<text text-anchor="middle" x="4030.17" y="-427.72" font-family="Times,serif" font-size="14.00">No</text>
</g>
<!-- 44432 -->
<g id="node9" class="node">
<title>44432</title>
<ellipse fill="none" stroke="black" cx="2861.81" cy="-348.02" rx="148.08" ry="148.08"/>
<text text-anchor="middle" x="2861.81" y="-342.97" font-family="Times,serif" font-size="14.00">What was the purpose of the search?</text>
</g>
<!-- 44432&#45;&gt;44385 -->
<g id="edge6" class="edge">
<title>44432&#45;&gt;44385</title>
<path fill="none" stroke="black" d="M2966.96,-452.72C2985.89,-466.34 3006.47,-478.25 3027.89,-486.02 3069.57,-501.14 3086.72,-503.07 3127.64,-486.02 3147.86,-477.6 3166.62,-464.58 3183.37,-449.84"/>
<polygon fill="black" stroke="black" points="3185.29,-452.83 3190.31,-443.5 3180.57,-447.66 3185.29,-452.83"/>
<text text-anchor="middle" x="3077.77" y="-501.29" font-family="Times,serif" font-size="14.00">Firearm</text>
</g>
<!-- 44432&#45;&gt;44385 -->
<g id="edge7" class="edge">
<title>44432&#45;&gt;44385</title>
<path fill="none" stroke="black" d="M2985.37,-430.13C2999.27,-436.57 3013.59,-442.09 3027.89,-446.02 3070.64,-457.75 3085.43,-459.57 3127.64,-446.02 3139.7,-442.15 3151.59,-436.78 3163.04,-430.54"/>
<polygon fill="black" stroke="black" points="3164.73,-433.61 3171.66,-425.6 3161.25,-427.53 3164.73,-433.61"/>
<text text-anchor="middle" x="3077.77" y="-458.71" font-family="Times,serif" font-size="14.00">Ammunition</text>
</g>
<!-- 44432&#45;&gt;44385 -->
<g id="edge8" class="edge">
<title>44432&#45;&gt;44385</title>
<path fill="none" stroke="black" d="M3000.62,-400.23C3009.76,-402.52 3018.91,-404.49 3027.89,-406.02 3071.59,-413.47 3084.2,-414.84 3127.64,-406.02 3133.57,-404.82 3139.56,-403.35 3145.56,-401.67"/>
<polygon fill="black" stroke="black" points="3146.31,-405.1 3154.88,-398.88 3144.3,-398.39 3146.31,-405.1"/>
<text text-anchor="middle" x="3077.77" y="-415.33" font-family="Times,serif" font-size="14.00">C.I spray</text>
</g>
<!-- 44432&#45;&gt;44385 -->
<g id="edge9" class="edge">
<title>44432&#45;&gt;44385</title>
<path fill="none" stroke="black" d="M3009.19,-364.95C3047.72,-367.49 3089.24,-368.53 3127.64,-366.02 3130.03,-365.86 3132.43,-365.69 3134.85,-365.51"/>
<polygon fill="black" stroke="black" points="3135.11,-369 3144.78,-364.68 3134.52,-362.02 3135.11,-369"/>
<text text-anchor="middle" x="3077.77" y="-370.65" font-family="Times,serif" font-size="14.00">Other weapon</text>
</g>
<!-- 44432&#45;&gt;44385 -->
<g id="edge10" class="edge">
<title>44432&#45;&gt;44385</title>
<path fill="none" stroke="black" d="M3010.24,-345.66C3048.47,-345.31 3089.6,-345.17 3127.64,-345.52 3129.74,-345.54 3131.85,-345.56 3133.97,-345.58"/>
<polygon fill="black" stroke="black" points="3133.9,-349.08 3143.94,-345.7 3133.98,-342.08 3133.9,-349.08"/>
<text text-anchor="middle" x="3077.77" y="-348.72" font-family="Times,serif" font-size="14.00">Explosives</text>
</g>
<!-- 44432&#45;&gt;44385 -->
<g id="edge11" class="edge">
<title>44432&#45;&gt;44385</title>
<path fill="none" stroke="black" d="M3008.49,-325.99C3047.22,-322.63 3089.01,-321.23 3127.64,-324.52 3130.33,-324.75 3133.04,-325 3135.77,-325.28"/>
<polygon fill="black" stroke="black" points="3135.27,-328.74 3145.59,-326.36 3136.04,-321.79 3135.27,-328.74"/>
<text text-anchor="middle" x="3077.77" y="-327.72" font-family="Times,serif" font-size="14.00">Drugs</text>
</g>
<!-- 44432&#45;&gt;44385 -->
<g id="edge12" class="edge">
<title>44432&#45;&gt;44385</title>
<path fill="none" stroke="black" d="M3004.13,-306.43C3012.13,-304.9 3020.09,-303.58 3027.89,-302.52 3071.83,-296.58 3083.88,-295.44 3127.64,-302.52 3132.23,-303.26 3136.88,-304.14 3141.54,-305.12"/>
<polygon fill="black" stroke="black" points="3140.46,-308.46 3150.98,-307.26 3142.01,-301.64 3140.46,-308.46"/>
<text text-anchor="middle" x="3077.77" y="-305.72" font-family="Times,serif" font-size="14.00">Escape equipment</text>
</g>
<!-- 44432&#45;&gt;44385 -->
<g id="edge13" class="edge">
<title>44432&#45;&gt;44385</title>
<path fill="none" stroke="black" d="M2996.51,-285.71C3006.98,-282.45 3017.51,-279.64 3027.89,-277.52 3071.33,-268.63 3084.56,-267.08 3127.64,-277.52 3135.24,-279.36 3142.88,-281.7 3150.47,-284.4"/>
<polygon fill="black" stroke="black" points="3149.14,-287.64 3159.73,-287.91 3151.61,-281.09 3149.14,-287.64"/>
<text text-anchor="middle" x="3077.77" y="-280.72" font-family="Times,serif" font-size="14.00">Gather evidence</text>
</g>
<!-- 44432&#45;&gt;44385 -->
<g id="edge14" class="edge">
<title>44432&#45;&gt;44385</title>
<path fill="none" stroke="black" d="M2985.34,-265.5C2999.25,-259.02 3013.57,-253.47 3027.89,-249.52 3070.63,-237.74 3085.45,-235.92 3127.64,-249.52 3139.95,-253.49 3152.08,-259.01 3163.73,-265.44"/>
<polygon fill="black" stroke="black" points="3161.68,-268.3 3172.09,-270.28 3165.19,-262.24 3161.68,-268.3"/>
<text text-anchor="middle" x="3077.77" y="-252.72" font-family="Times,serif" font-size="14.00">Other</text>
</g>
<!-- 44570&#45;&gt;END_NODE -->
<g id="edge15" class="edge">
<title>44570&#45;&gt;END_NODE</title>
<path fill="none" stroke="black" d="M4442.93,-445.02C4459.14,-445.02 4474.28,-445.02 4487.3,-445.02"/>
<polygon fill="black" stroke="black" points="4487.11,-448.52 4497.11,-445.02 4487.11,-441.52 4487.11,-448.52"/>
<text text-anchor="middle" x="4470.61" y="-448.22" font-family="Times,serif" font-size="14.00">Yes</text>
</g>
<!-- 44570&#45;&gt;END_NODE -->
<g id="edge16" class="edge">
<title>44570&#45;&gt;END_NODE</title>
<path fill="none" stroke="black" d="M4441.11,-419.75C4454.57,-420.51 4467.88,-422.03 4480.74,-424.52 4484.09,-425.17 4487.5,-426.04 4490.88,-427.05"/>
<polygon fill="black" stroke="black" points="4489.49,-430.28 4500.08,-430.21 4491.76,-423.66 4489.49,-430.28"/>
<text text-anchor="middle" x="4470.61" y="-427.72" font-family="Times,serif" font-size="14.00">No</text>
</g>
<!-- 45062&#45;&gt;44432 -->
<g id="edge31" class="edge">
<title>45062&#45;&gt;44432</title>
<path fill="none" stroke="black" d="M2528.1,-398.32C2537.71,-401.42 2547.42,-404.07 2556.98,-406.02 2617.39,-418.37 2634.94,-416.39 2695.73,-406.02 2701.06,-405.11 2706.45,-404.05 2711.87,-402.85"/>
<polygon fill="black" stroke="black" points="2712.59,-406.28 2721.53,-400.58 2710.99,-399.46 2712.59,-406.28"/>
<text text-anchor="middle" x="2626.35" y="-417.76" font-family="Times,serif" font-size="14.00">Information/intelligence</text>
</g>
<!-- 45062&#45;&gt;44432 -->
<g id="edge32" class="edge">
<title>45062&#45;&gt;44432</title>
<path fill="none" stroke="black" d="M2538.1,-364.51C2544.48,-365.1 2550.8,-365.61 2556.98,-366.02 2618.51,-370.08 2634.15,-369.37 2695.73,-366.02 2698.24,-365.88 2700.78,-365.74 2703.33,-365.58"/>
<polygon fill="black" stroke="black" points="2703.35,-369.08 2713.09,-364.92 2702.88,-362.1 2703.35,-369.08"/>
<text text-anchor="middle" x="2626.35" y="-372" font-family="Times,serif" font-size="14.00">Specific find</text>
</g>
<!-- 45062&#45;&gt;44432 -->
<g id="edge33" class="edge">
<title>45062&#45;&gt;44432</title>
<path fill="none" stroke="black" d="M2539.3,-345.71C2545.27,-345.64 2551.19,-345.57 2556.98,-345.52 2618.64,-344.95 2634.06,-345.05 2695.73,-345.52 2697.93,-345.54 2700.15,-345.55 2702.38,-345.57"/>
<polygon fill="black" stroke="black" points="2702.1,-349.07 2712.14,-345.66 2702.17,-342.07 2702.1,-349.07"/>
<text text-anchor="middle" x="2626.35" y="-348.72" font-family="Times,serif" font-size="14.00">Headquarters instructions</text>
</g>
<!-- 45062&#45;&gt;44432 -->
<g id="edge34" class="edge">
<title>45062&#45;&gt;44432</title>
<path fill="none" stroke="black" d="M2537.3,-326.58C2543.94,-325.77 2550.53,-325.07 2556.98,-324.52 2618.42,-319.25 2634.21,-320.16 2695.73,-324.52 2698.41,-324.71 2701.11,-324.92 2703.83,-325.14"/>
<polygon fill="black" stroke="black" points="2703.32,-328.61 2713.59,-326 2703.94,-321.64 2703.32,-328.61"/>
<text text-anchor="middle" x="2626.35" y="-327.72" font-family="Times,serif" font-size="14.00">Routine requirement</text>
</g>
<!-- 45062&#45;&gt;44432 -->
<g id="edge35" class="edge">
<title>45062&#45;&gt;44432</title>
<path fill="none" stroke="black" d="M2531.52,-306.02C2540.05,-303.82 2548.6,-301.94 2556.98,-300.52 2617.77,-290.2 2634.66,-291.91 2695.73,-300.52 2700.09,-301.13 2704.49,-301.84 2708.93,-302.61"/>
<polygon fill="black" stroke="black" points="2708.03,-306.01 2718.5,-304.41 2709.32,-299.13 2708.03,-306.01"/>
<text text-anchor="middle" x="2626.35" y="-303.72" font-family="Times,serif" font-size="14.00">Other</text>
</g>
<!-- 44723&#45;&gt;45018 -->
<g id="edge19" class="edge">
<title>44723&#45;&gt;45018</title>
<path fill="none" stroke="black" d="M907.88,-370.88C923.09,-369.59 938.49,-368.27 953.82,-366.97"/>
<polygon fill="black" stroke="black" points="953.8,-370.48 963.46,-366.14 953.2,-363.51 953.8,-370.48"/>
<text text-anchor="middle" x="936.33" y="-372.42" font-family="Times,serif" font-size="14.00">Yes</text>
</g>
<!-- 44723&#45;&gt;45018 -->
<g id="edge20" class="edge">
<title>44723&#45;&gt;45018</title>
<path fill="none" stroke="black" d="M904.82,-349.78C912.02,-348.92 919.17,-348.16 926.21,-347.52 934.94,-346.72 943.85,-346.05 952.86,-345.49"/>
<polygon fill="black" stroke="black" points="953.01,-348.99 962.8,-344.94 952.62,-342 953.01,-348.99"/>
<text text-anchor="middle" x="936.33" y="-350.72" font-family="Times,serif" font-size="14.00">No</text>
</g>
<!-- 45018&#45;&gt;44146 -->
<g id="edge29" class="edge">
<title>45018&#45;&gt;44146</title>
<path fill="none" stroke="black" d="M1389.87,-348.02C1404.78,-348.02 1419.73,-348.02 1434.45,-348.02"/>
<polygon fill="black" stroke="black" points="1434.14,-351.52 1444.14,-348.02 1434.14,-344.52 1434.14,-351.52"/>
<text text-anchor="middle" x="1417.73" y="-351.22" font-family="Times,serif" font-size="14.00">Yes</text>
</g>
<!-- 45018&#45;&gt;44146 -->
<g id="edge30" class="edge">
<title>45018&#45;&gt;44146</title>
<path fill="none" stroke="black" d="M1388.9,-326.64C1402.07,-326.57 1415.14,-326.83 1427.85,-327.52 1430.36,-327.66 1432.88,-327.8 1435.42,-327.96"/>
<polygon fill="black" stroke="black" points="1434.91,-331.43 1445.12,-328.6 1435.37,-324.45 1434.91,-331.43"/>
<text text-anchor="middle" x="1417.73" y="-330.72" font-family="Times,serif" font-size="14.00">No</text>
</g>
</g>
</svg>
