<?xml version="1.0" encoding="UTF-8" standalone="no"?>
<!DOCTYPE svg PUBLIC "-//W3C//DTD SVG 1.1//EN"
 "http://www.w3.org/Graphics/SVG/1.1/DTD/svg11.dtd">
<!-- Generated by graphviz version 12.2.1 (20241206.2353)
 -->
<!-- Title: FULL_CLOSE_DOWN_SEARCH Pages: 1 -->
<svg width="5897pt" height="761pt"
 viewBox="0.00 0.00 5896.64 760.63" xmlns="http://www.w3.org/2000/svg" xmlns:xlink="http://www.w3.org/1999/xlink">
<g id="graph0" class="graph" transform="scale(1 1) rotate(0) translate(4 756.63)">
<title>FULL_CLOSE_DOWN_SEARCH</title>
<polygon fill="white" stroke="none" points="-4,4 -4,-756.63 5892.64,-756.63 5892.64,4 -4,4"/>
<!-- START_NODE -->
<g id="node1" class="node">
<title>START_NODE</title>
</g>
<!-- 45067 -->
<g id="node2" class="node">
<title>45067</title>
<ellipse fill="none" stroke="black" cx="313.03" cy="-199.78" rx="199.78" ry="199.78"/>
<text text-anchor="start" x="174.65" y="-195.73" font-family="Times,serif" font-size="14.00"> </text>
<text text-anchor="start" x="178.4" y="-195.73" font-family="Times,serif" font-size="14.00" fill="royalblue">45067 </text>
<text text-anchor="start" x="215.9" y="-195.73" font-family="Times,serif" font-size="14.00"> Were the police informed of the incident? </text>
</g>
<!-- START_NODE&#45;&gt;45067 -->
<g id="edge1" class="edge">
<title>START_NODE&#45;&gt;45067</title>
<path fill="none" stroke="black" d="M53.96,-199.78C66.61,-199.78 83.09,-199.78 101.61,-199.78"/>
<polygon fill="black" stroke="black" points="101.55,-203.28 111.55,-199.78 101.55,-196.28 101.55,-203.28"/>
<text text-anchor="middle" x="83.62" y="-202.98" font-family="Times,serif" font-size="14.00">start</text>
</g>
<!-- 44723 -->
<g id="node12" class="node">
<title>44723</title>
<ellipse fill="none" stroke="black" cx="858.65" cy="-453.78" rx="235.6" ry="235.6"/>
<text text-anchor="start" x="694.03" y="-449.73" font-family="Times,serif" font-size="14.00"> </text>
<text text-anchor="start" x="697.78" y="-449.73" font-family="Times,serif" font-size="14.00" fill="royalblue">44723 </text>
<text text-anchor="start" x="735.28" y="-449.73" font-family="Times,serif" font-size="14.00"> Is the incident the subject of a police investigation? </text>
</g>
<!-- 45067&#45;&gt;44723 -->
<g id="edge36" class="edge">
<title>45067&#45;&gt;44723</title>
<path fill="none" stroke="black" d="M494.29,-284C539.21,-304.99 587.91,-327.74 634.62,-349.57"/>
<polygon fill="black" stroke="black" points="632.95,-352.65 643.49,-353.71 635.91,-346.31 632.95,-352.65"/>
<text text-anchor="start" x="530.8" y="-338.59" font-family="Times,serif" font-size="14.00"> </text>
<text text-anchor="start" x="534.55" y="-338.59" font-family="Times,serif" font-size="14.00" fill="royalblue">182249 </text>
<text text-anchor="start" x="578.8" y="-338.59" font-family="Times,serif" font-size="14.00"> Yes </text>
</g>
<!-- 45018 -->
<g id="node13" class="node">
<title>45018</title>
<ellipse fill="none" stroke="black" cx="1450.34" cy="-413.78" rx="245.84" ry="245.84"/>
<text text-anchor="start" x="1278.22" y="-409.73" font-family="Times,serif" font-size="14.00"> </text>
<text text-anchor="start" x="1281.97" y="-409.73" font-family="Times,serif" font-size="14.00" fill="royalblue">45018 </text>
<text text-anchor="start" x="1319.47" y="-409.73" font-family="Times,serif" font-size="14.00"> Is the incident the subject of an internal investigation? </text>
</g>
<!-- 45067&#45;&gt;45018 -->
<g id="edge37" class="edge">
<title>45067&#45;&gt;45018</title>
<path fill="none" stroke="black" d="M510.54,-167.43C670.86,-148.22 901.52,-137.09 1094.26,-192.28 1145.88,-207.06 1197.3,-231.77 1244.32,-259.44"/>
<polygon fill="black" stroke="black" points="1242.29,-262.3 1252.67,-264.42 1245.87,-256.29 1242.29,-262.3"/>
<text text-anchor="start" x="822.65" y="-196.48" font-family="Times,serif" font-size="14.00"> </text>
<text text-anchor="start" x="826.4" y="-196.48" font-family="Times,serif" font-size="14.00" fill="royalblue">182250 </text>
<text text-anchor="start" x="870.65" y="-196.48" font-family="Times,serif" font-size="14.00"> No </text>
</g>
<!-- END_NODE -->
<g id="node3" class="node">
<title>END_NODE</title>
<ellipse fill="none" stroke="black" cx="5854.79" cy="-527.78" rx="29.86" ry="29.86"/>
<ellipse fill="none" stroke="black" cx="5854.79" cy="-527.78" rx="33.86" ry="33.86"/>
<text text-anchor="middle" x="5854.79" y="-522.73" font-family="Times,serif" font-size="14.00">END</text>
</g>
<!-- 44146 -->
<g id="node4" class="node">
<title>44146</title>
<ellipse fill="none" stroke="black" cx="2011.33" cy="-413.78" rx="204.89" ry="204.89"/>
<text text-anchor="start" x="1869.2" y="-409.73" font-family="Times,serif" font-size="14.00"> </text>
<text text-anchor="start" x="1872.95" y="-409.73" font-family="Times,serif" font-size="14.00" fill="royalblue">44146 </text>
<text text-anchor="start" x="1910.45" y="-409.73" font-family="Times,serif" font-size="14.00"> Is there any media interest in this incident? </text>
</g>
<!-- 44677 -->
<g id="node5" class="node">
<title>44677</title>
<ellipse fill="none" stroke="black" cx="2559.51" cy="-413.78" rx="233.04" ry="233.04"/>
<text text-anchor="start" x="2396.76" y="-409.73" font-family="Times,serif" font-size="14.00"> </text>
<text text-anchor="start" x="2400.51" y="-409.73" font-family="Times,serif" font-size="14.00" fill="royalblue">44677 </text>
<text text-anchor="start" x="2438.01" y="-409.73" font-family="Times,serif" font-size="14.00"> Has the prison service press office been informed? </text>
</g>
<!-- 44146&#45;&gt;44677 -->
<g id="edge2" class="edge">
<title>44146&#45;&gt;44677</title>
<path fill="none" stroke="black" d="M2216.48,-413.78C2248.61,-413.78 2282.09,-413.78 2315,-413.78"/>
<polygon fill="black" stroke="black" points="2314.62,-417.28 2324.62,-413.78 2314.62,-410.28 2314.62,-417.28"/>
<text text-anchor="start" x="2234.22" y="-417.98" font-family="Times,serif" font-size="14.00"> </text>
<text text-anchor="start" x="2237.97" y="-417.98" font-family="Times,serif" font-size="14.00" fill="royalblue">178989 </text>
<text text-anchor="start" x="2282.22" y="-417.98" font-family="Times,serif" font-size="14.00"> Yes </text>
</g>
<!-- 44146&#45;&gt;44677 -->
<g id="edge3" class="edge">
<title>44146&#45;&gt;44677</title>
<path fill="none" stroke="black" d="M2215.72,-394.24C2221.96,-393.88 2228.13,-393.56 2234.22,-393.28 2260.6,-392.06 2288.17,-391.97 2315.61,-392.65"/>
<polygon fill="black" stroke="black" points="2315.34,-396.14 2325.43,-392.92 2315.54,-389.14 2315.34,-396.14"/>
<text text-anchor="start" x="2235.35" y="-397.48" font-family="Times,serif" font-size="14.00"> </text>
<text text-anchor="start" x="2239.1" y="-397.48" font-family="Times,serif" font-size="14.00" fill="royalblue">178988 </text>
<text text-anchor="start" x="2283.35" y="-397.48" font-family="Times,serif" font-size="14.00"> No </text>
</g>
<!-- 45062 -->
<g id="node11" class="node">
<title>45062</title>
<ellipse fill="none" stroke="black" cx="3053.96" cy="-413.78" rx="151.15" ry="151.15"/>
<text text-anchor="start" x="2951.21" y="-409.73" font-family="Times,serif" font-size="14.00"> </text>
<text text-anchor="start" x="2954.96" y="-409.73" font-family="Times,serif" font-size="14.00" fill="royalblue">45062 </text>
<text text-anchor="start" x="2992.46" y="-409.73" font-family="Times,serif" font-size="14.00"> Why was search carried out? </text>
</g>
<!-- 44677&#45;&gt;45062 -->
<g id="edge17" class="edge">
<title>44677&#45;&gt;45062</title>
<path fill="none" stroke="black" d="M2793.04,-413.78C2826.2,-413.78 2859.69,-413.78 2891.09,-413.78"/>
<polygon fill="black" stroke="black" points="2891.05,-417.28 2901.05,-413.78 2891.05,-410.28 2891.05,-417.28"/>
<text text-anchor="start" x="2810.56" y="-417.98" font-family="Times,serif" font-size="14.00"> </text>
<text text-anchor="start" x="2814.31" y="-417.98" font-family="Times,serif" font-size="14.00" fill="royalblue">180841 </text>
<text text-anchor="start" x="2858.56" y="-417.98" font-family="Times,serif" font-size="14.00"> Yes </text>
</g>
<!-- 44677&#45;&gt;45062 -->
<g id="edge18" class="edge">
<title>44677&#45;&gt;45062</title>
<path fill="none" stroke="black" d="M2791.69,-392.15C2822.98,-391.28 2854.68,-391.45 2884.81,-393.28 2887.31,-393.43 2889.84,-393.59 2892.38,-393.77"/>
<polygon fill="black" stroke="black" points="2891.86,-397.24 2902.09,-394.5 2892.38,-390.26 2891.86,-397.24"/>
<text text-anchor="start" x="2811.68" y="-397.48" font-family="Times,serif" font-size="14.00"> </text>
<text text-anchor="start" x="2815.43" y="-397.48" font-family="Times,serif" font-size="14.00" fill="royalblue">180840 </text>
<text text-anchor="start" x="2859.68" y="-397.48" font-family="Times,serif" font-size="14.00"> No </text>
</g>
<!-- 44385 -->
<g id="node6" class="node">
<title>44385</title>
<ellipse fill="none" stroke="black" cx="4139.96" cy="-413.78" rx="152.69" ry="152.69"/>
<text text-anchor="start" x="4036.08" y="-409.73" font-family="Times,serif" font-size="14.00"> </text>
<text text-anchor="start" x="4039.83" y="-409.73" font-family="Times,serif" font-size="14.00" fill="royalblue">44385 </text>
<text text-anchor="start" x="4077.33" y="-409.73" font-family="Times,serif" font-size="14.00"> Were any illicit items found? </text>
</g>
<!-- 44969 -->
<g id="node7" class="node">
<title>44969</title>
<ellipse fill="none" stroke="black" cx="4538.7" cy="-567.78" rx="135.8" ry="135.8"/>
<text text-anchor="start" x="4447.2" y="-563.73" font-family="Times,serif" font-size="14.00"> </text>
<text text-anchor="start" x="4450.95" y="-563.73" font-family="Times,serif" font-size="14.00" fill="royalblue">44969 </text>
<text text-anchor="start" x="4488.45" y="-563.73" font-family="Times,serif" font-size="14.00"> Describe the illicit items </text>
</g>
<!-- 44385&#45;&gt;44969 -->
<g id="edge4" class="edge">
<title>44385&#45;&gt;44969</title>
<path fill="none" stroke="black" d="M4282.79,-468.83C4321.22,-483.75 4362.74,-499.86 4400.88,-514.67"/>
<polygon fill="black" stroke="black" points="4399.55,-517.9 4410.14,-518.26 4402.08,-511.38 4399.55,-517.9"/>
<text text-anchor="start" x="4310.65" y="-508.77" font-family="Times,serif" font-size="14.00"> </text>
<text text-anchor="start" x="4314.4" y="-508.77" font-family="Times,serif" font-size="14.00" fill="royalblue">179804 </text>
<text text-anchor="start" x="4358.65" y="-508.77" font-family="Times,serif" font-size="14.00"> Yes </text>
</g>
<!-- 44803 -->
<g id="node8" class="node">
<title>44803</title>
<ellipse fill="none" stroke="black" cx="5006.74" cy="-527.78" rx="143.99" ry="143.99"/>
<text text-anchor="start" x="4909.24" y="-523.73" font-family="Times,serif" font-size="14.00"> </text>
<text text-anchor="start" x="4912.99" y="-523.73" font-family="Times,serif" font-size="14.00" fill="royalblue">44803 </text>
<text text-anchor="start" x="4950.49" y="-523.73" font-family="Times,serif" font-size="14.00"> Were specialist dogs used? </text>
</g>
<!-- 44385&#45;&gt;44803 -->
<g id="edge5" class="edge">
<title>44385&#45;&gt;44803</title>
<path fill="none" stroke="black" d="M4292.96,-408.69C4328.99,-407.68 4367.3,-406.79 4402.9,-406.28 4523.6,-404.55 4554.95,-389.58 4674.5,-406.28 4752.42,-417.16 4770.88,-427.68 4844.75,-454.78 4851.62,-457.3 4858.61,-459.98 4865.63,-462.78"/>
<polygon fill="black" stroke="black" points="4863.95,-465.87 4874.54,-466.38 4866.58,-459.39 4863.95,-465.87"/>
<text text-anchor="start" x="4502.7" y="-410.48" font-family="Times,serif" font-size="14.00"> </text>
<text text-anchor="start" x="4506.45" y="-410.48" font-family="Times,serif" font-size="14.00" fill="royalblue">179805 </text>
<text text-anchor="start" x="4550.7" y="-410.48" font-family="Times,serif" font-size="14.00"> No </text>
</g>
<!-- 44969&#45;&gt;44803 -->
<g id="edge23" class="edge">
<title>44969&#45;&gt;44803</title>
<path fill="none" stroke="black" d="M4664.57,-619.29C4673.91,-621.87 4683.29,-624.09 4692.5,-625.78 4759.05,-637.98 4779.59,-644.05 4844.75,-625.78 4855.73,-622.7 4866.71,-618.64 4877.48,-613.92"/>
<polygon fill="black" stroke="black" points="4878.73,-617.2 4886.35,-609.85 4875.81,-610.84 4878.73,-617.2"/>
<text text-anchor="start" x="4716.12" y="-641.51" font-family="Times,serif" font-size="14.00"> </text>
<text text-anchor="start" x="4719.87" y="-641.51" font-family="Times,serif" font-size="14.00" fill="royalblue">181851 </text>
<text text-anchor="start" x="4764.12" y="-641.51" font-family="Times,serif" font-size="14.00"> Weapons </text>
</g>
<!-- 44969&#45;&gt;44803 -->
<g id="edge24" class="edge">
<title>44969&#45;&gt;44803</title>
<path fill="none" stroke="black" d="M4672.97,-588.93C4726.65,-594.01 4788.96,-595.52 4844.75,-585.78 4850.28,-584.81 4855.87,-583.67 4861.48,-582.39"/>
<polygon fill="black" stroke="black" points="4861.92,-585.88 4870.81,-580.12 4860.27,-579.08 4861.92,-585.88"/>
<text text-anchor="start" x="4701.12" y="-597.13" font-family="Times,serif" font-size="14.00"> </text>
<text text-anchor="start" x="4704.87" y="-597.13" font-family="Times,serif" font-size="14.00" fill="royalblue">181847 </text>
<text text-anchor="start" x="4749.12" y="-597.13" font-family="Times,serif" font-size="14.00"> Hooch/alcohol </text>
</g>
<!-- 44969&#45;&gt;44803 -->
<g id="edge25" class="edge">
<title>44969&#45;&gt;44803</title>
<path fill="none" stroke="black" d="M4674.57,-559.2C4727.64,-555.52 4789.1,-550.89 4844.75,-545.78 4847.25,-545.55 4849.78,-545.31 4852.32,-545.07"/>
<polygon fill="black" stroke="black" points="4852.43,-548.57 4862.05,-544.13 4851.76,-541.61 4852.43,-548.57"/>
<text text-anchor="start" x="4727.37" y="-561.98" font-family="Times,serif" font-size="14.00"> </text>
<text text-anchor="start" x="4731.12" y="-561.98" font-family="Times,serif" font-size="14.00" fill="royalblue">181846 </text>
<text text-anchor="start" x="4775.37" y="-561.98" font-family="Times,serif" font-size="14.00"> Cash </text>
</g>
<!-- 44969&#45;&gt;44803 -->
<g id="edge26" class="edge">
<title>44969&#45;&gt;44803</title>
<path fill="none" stroke="black" d="M4669.24,-529.17C4677.06,-527.64 4684.86,-526.32 4692.5,-525.28 4743.97,-518.25 4800.64,-516.82 4851.47,-517.78"/>
<polygon fill="black" stroke="black" points="4851.31,-521.28 4861.38,-518 4851.47,-514.28 4851.31,-521.28"/>
<text text-anchor="start" x="4702.62" y="-529.48" font-family="Times,serif" font-size="14.00"> </text>
<text text-anchor="start" x="4706.37" y="-529.48" font-family="Times,serif" font-size="14.00" fill="royalblue">181849 </text>
<text text-anchor="start" x="4750.62" y="-529.48" font-family="Times,serif" font-size="14.00"> Mobile phone </text>
</g>
<!-- 44969&#45;&gt;44803 -->
<g id="edge27" class="edge">
<title>44969&#45;&gt;44803</title>
<path fill="none" stroke="black" d="M4660.24,-506.51C4670.95,-502.8 4681.8,-499.63 4692.5,-497.28 4744.83,-485.79 4803.03,-487.57 4854.92,-494.15"/>
<polygon fill="black" stroke="black" points="4854.36,-497.61 4864.73,-495.47 4855.29,-490.67 4854.36,-497.61"/>
<text text-anchor="start" x="4692.5" y="-501.48" font-family="Times,serif" font-size="14.00"> </text>
<text text-anchor="start" x="4696.25" y="-501.48" font-family="Times,serif" font-size="14.00" fill="royalblue">181848 </text>
<text text-anchor="start" x="4740.5" y="-501.48" font-family="Times,serif" font-size="14.00"> Incendiary device </text>
</g>
<!-- 44969&#45;&gt;44803 -->
<g id="edge28" class="edge">
<title>44969&#45;&gt;44803</title>
<path fill="none" stroke="black" d="M4648.25,-486.7C4662.55,-479.19 4677.48,-472.74 4692.5,-468.28 4746.86,-452.14 4807.87,-458.44 4861.51,-471.81"/>
<polygon fill="black" stroke="black" points="4860.46,-475.16 4871.02,-474.29 4862.23,-468.38 4860.46,-475.16"/>
<text text-anchor="start" x="4725.5" y="-472.48" font-family="Times,serif" font-size="14.00"> </text>
<text text-anchor="start" x="4729.25" y="-472.48" font-family="Times,serif" font-size="14.00" fill="royalblue">181850 </text>
<text text-anchor="start" x="4773.5" y="-472.48" font-family="Times,serif" font-size="14.00"> Other </text>
</g>
<!-- 44570 -->
<g id="node10" class="node">
<title>44570</title>
<ellipse fill="none" stroke="black" cx="5485.83" cy="-527.78" rx="224.85" ry="224.85"/>
<text text-anchor="start" x="5329.08" y="-523.73" font-family="Times,serif" font-size="14.00"> </text>
<text text-anchor="start" x="5332.83" y="-523.73" font-family="Times,serif" font-size="14.00" fill="royalblue">44570 </text>
<text text-anchor="start" x="5370.33" y="-523.73" font-family="Times,serif" font-size="14.00"> Were support staff from other prisons deployed? </text>
</g>
<!-- 44803&#45;&gt;44570 -->
<g id="edge21" class="edge">
<title>44803&#45;&gt;44570</title>
<path fill="none" stroke="black" d="M5151.2,-527.78C5182.27,-527.78 5215.91,-527.78 5249.46,-527.78"/>
<polygon fill="black" stroke="black" points="5249.32,-531.28 5259.32,-527.78 5249.32,-524.28 5249.32,-531.28"/>
<text text-anchor="start" x="5168.73" y="-531.98" font-family="Times,serif" font-size="14.00"> </text>
<text text-anchor="start" x="5172.48" y="-531.98" font-family="Times,serif" font-size="14.00" fill="royalblue">181265 </text>
<text text-anchor="start" x="5216.73" y="-531.98" font-family="Times,serif" font-size="14.00"> Yes </text>
</g>
<!-- 44803&#45;&gt;44570 -->
<g id="edge22" class="edge">
<title>44803&#45;&gt;44570</title>
<path fill="none" stroke="black" d="M5149.86,-508.69C5156.23,-508.14 5162.54,-507.67 5168.73,-507.28 5195.14,-505.6 5222.79,-505.28 5250.28,-505.86"/>
<polygon fill="black" stroke="black" points="5250.03,-509.36 5260.11,-506.12 5250.21,-502.36 5250.03,-509.36"/>
<text text-anchor="start" x="5169.85" y="-511.48" font-family="Times,serif" font-size="14.00"> </text>
<text text-anchor="start" x="5173.6" y="-511.48" font-family="Times,serif" font-size="14.00" fill="royalblue">181264 </text>
<text text-anchor="start" x="5217.85" y="-511.48" font-family="Times,serif" font-size="14.00"> No </text>
</g>
<!-- 44432 -->
<g id="node9" class="node">
<title>44432</title>
<ellipse fill="none" stroke="black" cx="3615.69" cy="-413.78" rx="180.33" ry="180.33"/>
<text text-anchor="start" x="3491.57" y="-409.73" font-family="Times,serif" font-size="14.00"> </text>
<text text-anchor="start" x="3495.32" y="-409.73" font-family="Times,serif" font-size="14.00" fill="royalblue">44432 </text>
<text text-anchor="start" x="3532.82" y="-409.73" font-family="Times,serif" font-size="14.00"> What was the purpose of the search? </text>
</g>
<!-- 44432&#45;&gt;44385 -->
<g id="edge6" class="edge">
<title>44432&#45;&gt;44385</title>
<path fill="none" stroke="black" d="M3756.78,-526.47C3775.19,-536.77 3794.48,-545.62 3814.02,-551.78 3879.83,-572.51 3904.25,-574.88 3969.27,-551.78 3986.92,-545.51 4004.06,-536.53 4020.25,-526.12"/>
<polygon fill="black" stroke="black" points="4022.03,-529.14 4028.4,-520.68 4018.14,-523.32 4022.03,-529.14"/>
<text text-anchor="start" x="3842.14" y="-572.42" font-family="Times,serif" font-size="14.00"> </text>
<text text-anchor="start" x="3845.89" y="-572.42" font-family="Times,serif" font-size="14.00" fill="royalblue">179926 </text>
<text text-anchor="start" x="3890.14" y="-572.42" font-family="Times,serif" font-size="14.00"> Firearm </text>
</g>
<!-- 44432&#45;&gt;44385 -->
<g id="edge7" class="edge">
<title>44432&#45;&gt;44385</title>
<path fill="none" stroke="black" d="M3774.54,-499.84C3787.64,-504.61 3800.89,-508.7 3814.02,-511.78 3881.2,-527.54 3902.62,-529.64 3969.27,-511.78 3979.87,-508.94 3990.49,-505.26 4000.96,-500.99"/>
<polygon fill="black" stroke="black" points="4002.16,-504.29 4009.98,-497.14 3999.41,-497.85 4002.16,-504.29"/>
<text text-anchor="start" x="3829.02" y="-528.6" font-family="Times,serif" font-size="14.00"> </text>
<text text-anchor="start" x="3832.77" y="-528.6" font-family="Times,serif" font-size="14.00" fill="royalblue">179921 </text>
<text text-anchor="start" x="3877.02" y="-528.6" font-family="Times,serif" font-size="14.00"> Ammunition </text>
</g>
<!-- 44432&#45;&gt;44385 -->
<g id="edge8" class="edge">
<title>44432&#45;&gt;44385</title>
<path fill="none" stroke="black" d="M3788.24,-467.33C3796.91,-469.05 3805.54,-470.55 3814.02,-471.78 3882.32,-481.6 3901.2,-483.09 3969.27,-471.78 3974.56,-470.9 3979.9,-469.87 3985.27,-468.73"/>
<polygon fill="black" stroke="black" points="3985.87,-472.18 3994.84,-466.56 3984.31,-465.36 3985.87,-472.18"/>
<text text-anchor="start" x="3839.14" y="-483.91" font-family="Times,serif" font-size="14.00"> </text>
<text text-anchor="start" x="3842.89" y="-483.91" font-family="Times,serif" font-size="14.00" fill="royalblue">179922 </text>
<text text-anchor="start" x="3887.14" y="-483.91" font-family="Times,serif" font-size="14.00"> C.i spray </text>
</g>
<!-- 44432&#45;&gt;44385 -->
<g id="edge9" class="edge">
<title>44432&#45;&gt;44385</title>
<path fill="none" stroke="black" d="M3795.46,-430.81C3801.72,-431.17 3807.92,-431.5 3814.02,-431.78 3882.95,-434.91 3900.37,-435.42 3969.27,-431.78 3971.64,-431.65 3974.03,-431.52 3976.43,-431.37"/>
<polygon fill="black" stroke="black" points="3976.49,-434.87 3986.25,-430.73 3976.04,-427.89 3976.49,-434.87"/>
<text text-anchor="start" x="3825.64" y="-438.52" font-family="Times,serif" font-size="14.00"> </text>
<text text-anchor="start" x="3829.39" y="-438.52" font-family="Times,serif" font-size="14.00" fill="royalblue">179929 </text>
<text text-anchor="start" x="3873.64" y="-438.52" font-family="Times,serif" font-size="14.00"> Other weapon </text>
</g>
<!-- 44432&#45;&gt;44385 -->
<g id="edge10" class="edge">
<title>44432&#45;&gt;44385</title>
<path fill="none" stroke="black" d="M3796.3,-411.4C3802.27,-411.36 3808.2,-411.31 3814.02,-411.28 3883.02,-410.84 3900.27,-410.77 3969.27,-411.28 3971.48,-411.29 3973.71,-411.31 3975.94,-411.33"/>
<polygon fill="black" stroke="black" points="3975.69,-414.83 3985.72,-411.42 3975.76,-407.83 3975.69,-414.83"/>
<text text-anchor="start" x="3834.27" y="-415.48" font-family="Times,serif" font-size="14.00"> </text>
<text text-anchor="start" x="3838.02" y="-415.48" font-family="Times,serif" font-size="14.00" fill="royalblue">179925 </text>
<text text-anchor="start" x="3882.27" y="-415.48" font-family="Times,serif" font-size="14.00"> Explosives </text>
</g>
<!-- 44432&#45;&gt;44385 -->
<g id="edge11" class="edge">
<title>44432&#45;&gt;44385</title>
<path fill="none" stroke="black" d="M3794.89,-391.58C3801.34,-391.09 3807.73,-390.65 3814.02,-390.28 3882.9,-386.19 3900.43,-385.53 3969.27,-390.28 3971.96,-390.46 3974.67,-390.66 3977.41,-390.88"/>
<polygon fill="black" stroke="black" points="3976.95,-394.35 3987.21,-391.72 3977.55,-387.38 3976.95,-394.35"/>
<text text-anchor="start" x="3847.39" y="-394.48" font-family="Times,serif" font-size="14.00"> </text>
<text text-anchor="start" x="3851.14" y="-394.48" font-family="Times,serif" font-size="14.00" fill="royalblue">179923 </text>
<text text-anchor="start" x="3895.39" y="-394.48" font-family="Times,serif" font-size="14.00"> Drugs </text>
</g>
<!-- 44432&#45;&gt;44385 -->
<g id="edge12" class="edge">
<title>44432&#45;&gt;44385</title>
<path fill="none" stroke="black" d="M3790.87,-369.51C3798.67,-368.27 3806.41,-367.18 3814.02,-366.28 3882.54,-358.15 3900.91,-356.89 3969.27,-366.28 3973.46,-366.85 3977.68,-367.5 3981.94,-368.22"/>
<polygon fill="black" stroke="black" points="3981.29,-371.66 3991.76,-370 3982.54,-364.77 3981.29,-371.66"/>
<text text-anchor="start" x="3814.02" y="-370.48" font-family="Times,serif" font-size="14.00"> </text>
<text text-anchor="start" x="3817.77" y="-370.48" font-family="Times,serif" font-size="14.00" fill="royalblue">179924 </text>
<text text-anchor="start" x="3862.02" y="-370.48" font-family="Times,serif" font-size="14.00"> Escape equipment </text>
</g>
<!-- 44432&#45;&gt;44385 -->
<g id="edge13" class="edge">
<title>44432&#45;&gt;44385</title>
<path fill="none" stroke="black" d="M3783.18,-346.21C3793.51,-343.49 3803.84,-341.13 3814.02,-339.28 3881.9,-326.89 3901.74,-325.1 3969.27,-339.28 3976.57,-340.81 3983.94,-342.67 3991.3,-344.8"/>
<polygon fill="black" stroke="black" points="3990.05,-348.07 4000.64,-347.65 3992.09,-341.38 3990.05,-348.07"/>
<text text-anchor="start" x="3819.64" y="-343.48" font-family="Times,serif" font-size="14.00"> </text>
<text text-anchor="start" x="3823.39" y="-343.48" font-family="Times,serif" font-size="14.00" fill="royalblue">179927 </text>
<text text-anchor="start" x="3867.64" y="-343.48" font-family="Times,serif" font-size="14.00"> Gather evidence </text>
</g>
<!-- 44432&#45;&gt;44385 -->
<g id="edge14" class="edge">
<title>44432&#45;&gt;44385</title>
<path fill="none" stroke="black" d="M3772,-322.9C3785.89,-317.44 3800.01,-312.76 3814.02,-309.28 3880.98,-292.64 3902.88,-290.47 3969.27,-309.28 3980.87,-312.56 3992.45,-316.89 4003.81,-321.91"/>
<polygon fill="black" stroke="black" points="4002.25,-325.04 4012.79,-326.07 4005.19,-318.69 4002.25,-325.04"/>
<text text-anchor="start" x="3848.52" y="-313.48" font-family="Times,serif" font-size="14.00"> </text>
<text text-anchor="start" x="3852.27" y="-313.48" font-family="Times,serif" font-size="14.00" fill="royalblue">179928 </text>
<text text-anchor="start" x="3896.52" y="-313.48" font-family="Times,serif" font-size="14.00"> Other </text>
</g>
<!-- 44570&#45;&gt;END_NODE -->
<g id="edge15" class="edge">
<title>44570&#45;&gt;END_NODE</title>
<path fill="none" stroke="black" d="M5711.13,-527.78C5748.47,-527.78 5783.44,-527.78 5809.41,-527.78"/>
<polygon fill="black" stroke="black" points="5809.17,-531.28 5819.17,-527.78 5809.17,-524.28 5809.17,-531.28"/>
<text text-anchor="start" x="5728.68" y="-531.98" font-family="Times,serif" font-size="14.00"> </text>
<text text-anchor="start" x="5732.43" y="-531.98" font-family="Times,serif" font-size="14.00" fill="royalblue">180488 </text>
<text text-anchor="start" x="5776.68" y="-531.98" font-family="Times,serif" font-size="14.00"> Yes </text>
</g>
<!-- 44570&#45;&gt;END_NODE -->
<g id="edge16" class="edge">
<title>44570&#45;&gt;END_NODE</title>
<path fill="none" stroke="black" d="M5709.24,-499.05C5740.86,-499.11 5772.84,-501.44 5802.93,-507.28 5806.28,-507.93 5809.69,-508.8 5813.08,-509.81"/>
<polygon fill="black" stroke="black" points="5811.68,-513.03 5822.28,-512.97 5813.96,-506.41 5811.68,-513.03"/>
<text text-anchor="start" x="5729.81" y="-511.48" font-family="Times,serif" font-size="14.00"> </text>
<text text-anchor="start" x="5733.56" y="-511.48" font-family="Times,serif" font-size="14.00" fill="royalblue">180487 </text>
<text text-anchor="start" x="5777.81" y="-511.48" font-family="Times,serif" font-size="14.00"> No </text>
</g>
<!-- 45062&#45;&gt;44432 -->
<g id="edge31" class="edge">
<title>45062&#45;&gt;44432</title>
<path fill="none" stroke="black" d="M3195.83,-466.11C3204.98,-468.34 3214.13,-470.27 3223.12,-471.78 3308.26,-486.05 3331.91,-484.07 3417.37,-471.78 3422.27,-471.07 3427.22,-470.27 3432.2,-469.39"/>
<polygon fill="black" stroke="black" points="3432.47,-472.9 3441.66,-467.61 3431.18,-466.02 3432.47,-472.9"/>
<text text-anchor="start" x="3226.49" y="-485.95" font-family="Times,serif" font-size="14.00"> </text>
<text text-anchor="start" x="3230.24" y="-485.95" font-family="Times,serif" font-size="14.00" fill="royalblue">182234 </text>
<text text-anchor="start" x="3274.49" y="-485.95" font-family="Times,serif" font-size="14.00"> Information/intelligence </text>
</g>
<!-- 45062&#45;&gt;44432 -->
<g id="edge32" class="edge">
<title>45062&#45;&gt;44432</title>
<path fill="none" stroke="black" d="M3204.34,-430.6C3210.68,-431.05 3216.96,-431.45 3223.12,-431.78 3309.33,-436.38 3331.12,-435.7 3417.37,-431.78 3419.75,-431.67 3422.15,-431.55 3424.56,-431.43"/>
<polygon fill="black" stroke="black" points="3424.62,-434.93 3434.42,-430.89 3424.24,-427.94 3424.62,-434.93"/>
<text text-anchor="start" x="3257.62" y="-439.18" font-family="Times,serif" font-size="14.00"> </text>
<text text-anchor="start" x="3261.37" y="-439.18" font-family="Times,serif" font-size="14.00" fill="royalblue">182237 </text>
<text text-anchor="start" x="3305.62" y="-439.18" font-family="Times,serif" font-size="14.00"> Specific find </text>
</g>
<!-- 45062&#45;&gt;44432 -->
<g id="edge33" class="edge">
<title>45062&#45;&gt;44432</title>
<path fill="none" stroke="black" d="M3205.31,-411.43C3211.32,-411.37 3217.28,-411.32 3223.12,-411.28 3309.45,-410.63 3331.03,-410.73 3417.37,-411.28 3419.46,-411.29 3421.56,-411.3 3423.68,-411.32"/>
<polygon fill="black" stroke="black" points="3423.55,-414.82 3433.58,-411.39 3423.6,-407.82 3423.55,-414.82"/>
<text text-anchor="start" x="3223.12" y="-415.48" font-family="Times,serif" font-size="14.00"> </text>
<text text-anchor="start" x="3226.87" y="-415.48" font-family="Times,serif" font-size="14.00" fill="royalblue">182233 </text>
<text text-anchor="start" x="3271.12" y="-415.48" font-family="Times,serif" font-size="14.00"> Headquarters instructions </text>
</g>
<!-- 45062&#45;&gt;44432 -->
<g id="edge34" class="edge">
<title>45062&#45;&gt;44432</title>
<path fill="none" stroke="black" d="M3203.84,-391.85C3210.35,-391.25 3216.79,-390.72 3223.12,-390.28 3309.24,-384.29 3331.18,-385.16 3417.37,-390.28 3419.92,-390.43 3422.49,-390.59 3425.08,-390.76"/>
<polygon fill="black" stroke="black" points="3424.76,-394.25 3434.98,-391.47 3425.26,-387.27 3424.76,-394.25"/>
<text text-anchor="start" x="3236.24" y="-394.48" font-family="Times,serif" font-size="14.00"> </text>
<text text-anchor="start" x="3239.99" y="-394.48" font-family="Times,serif" font-size="14.00" fill="royalblue">182236 </text>
<text text-anchor="start" x="3284.24" y="-394.48" font-family="Times,serif" font-size="14.00"> Routine requirement </text>
</g>
<!-- 45062&#45;&gt;44432 -->
<g id="edge35" class="edge">
<title>45062&#45;&gt;44432</title>
<path fill="none" stroke="black" d="M3198.86,-369.44C3207.02,-367.82 3215.14,-366.4 3223.12,-365.28 3308.6,-353.19 3331.66,-354.9 3417.37,-365.28 3421.46,-365.77 3425.59,-366.32 3429.75,-366.92"/>
<polygon fill="black" stroke="black" points="3428.89,-370.33 3439.3,-368.4 3429.95,-363.41 3428.89,-370.33"/>
<text text-anchor="start" x="3277.12" y="-369.48" font-family="Times,serif" font-size="14.00"> </text>
<text text-anchor="start" x="3280.87" y="-369.48" font-family="Times,serif" font-size="14.00" fill="royalblue">182235 </text>
<text text-anchor="start" x="3325.12" y="-369.48" font-family="Times,serif" font-size="14.00"> Other </text>
</g>
<!-- 44723&#45;&gt;45018 -->
<g id="edge19" class="edge">
<title>44723&#45;&gt;45018</title>
<path fill="none" stroke="black" d="M1093.99,-438.04C1125.1,-435.94 1156.57,-433.81 1186.51,-431.78 1188.87,-431.62 1191.24,-431.45 1193.63,-431.29"/>
<polygon fill="black" stroke="black" points="1193.61,-434.8 1203.35,-430.63 1193.13,-427.82 1193.61,-434.8"/>
<text text-anchor="start" x="1112.26" y="-440.83" font-family="Times,serif" font-size="14.00"> </text>
<text text-anchor="start" x="1116.01" y="-440.83" font-family="Times,serif" font-size="14.00" fill="royalblue">181020 </text>
<text text-anchor="start" x="1160.26" y="-440.83" font-family="Times,serif" font-size="14.00"> Yes </text>
</g>
<!-- 44723&#45;&gt;45018 -->
<g id="edge20" class="edge">
<title>44723&#45;&gt;45018</title>
<path fill="none" stroke="black" d="M1091.06,-413.28C1098.2,-412.53 1105.28,-411.86 1112.26,-411.28 1138.4,-409.09 1165.72,-407.75 1193.01,-407.02"/>
<polygon fill="black" stroke="black" points="1192.85,-410.53 1202.77,-406.79 1192.69,-403.53 1192.85,-410.53"/>
<text text-anchor="start" x="1113.38" y="-415.48" font-family="Times,serif" font-size="14.00"> </text>
<text text-anchor="start" x="1117.13" y="-415.48" font-family="Times,serif" font-size="14.00" fill="royalblue">181019 </text>
<text text-anchor="start" x="1161.38" y="-415.48" font-family="Times,serif" font-size="14.00"> No </text>
</g>
<!-- 45018&#45;&gt;44146 -->
<g id="edge29" class="edge">
<title>45018&#45;&gt;44146</title>
<path fill="none" stroke="black" d="M1696.52,-413.78C1729.32,-413.78 1762.76,-413.78 1795,-413.78"/>
<polygon fill="black" stroke="black" points="1794.84,-417.28 1804.84,-413.78 1794.84,-410.28 1794.84,-417.28"/>
<text text-anchor="start" x="1714.18" y="-417.98" font-family="Times,serif" font-size="14.00"> </text>
<text text-anchor="start" x="1717.93" y="-417.98" font-family="Times,serif" font-size="14.00" fill="royalblue">182011 </text>
<text text-anchor="start" x="1762.18" y="-417.98" font-family="Times,serif" font-size="14.00"> Yes </text>
</g>
<!-- 45018&#45;&gt;44146 -->
<g id="edge30" class="edge">
<title>45018&#45;&gt;44146</title>
<path fill="none" stroke="black" d="M1695.71,-392.76C1726.91,-391.88 1758.42,-391.89 1788.43,-393.28 1790.81,-393.39 1793.2,-393.5 1795.61,-393.62"/>
<polygon fill="black" stroke="black" points="1795.25,-397.11 1805.42,-394.16 1795.63,-390.12 1795.25,-397.11"/>
<text text-anchor="start" x="1715.31" y="-397.48" font-family="Times,serif" font-size="14.00"> </text>
<text text-anchor="start" x="1719.06" y="-397.48" font-family="Times,serif" font-size="14.00" fill="royalblue">182010 </text>
<text text-anchor="start" x="1763.31" y="-397.48" font-family="Times,serif" font-size="14.00"> No </text>
</g>
</g>
</svg>
