<?xml version="1.0" encoding="UTF-8" standalone="no"?>
<!DOCTYPE svg PUBLIC "-//W3C//DTD SVG 1.1//EN"
 "http://www.w3.org/Graphics/SVG/1.1/DTD/svg11.dtd">
<!-- Generated by graphviz version 12.1.1 (20240910.0053)
 -->
<!-- Title: FULL_CLOSE_DOWN_SEARCH Pages: 1 -->
<svg width="4760pt" height="645pt"
 viewBox="0.00 0.00 4760.45 645.12" xmlns="http://www.w3.org/2000/svg" xmlns:xlink="http://www.w3.org/1999/xlink">
<g id="graph0" class="graph" transform="scale(1 1) rotate(0) translate(4 641.12)">
<title>FULL_CLOSE_DOWN_SEARCH</title>
<polygon fill="white" stroke="none" points="-4,4 -4,-641.12 4756.45,-641.12 4756.45,4 -4,4"/>
<!-- START_NODE -->
<g id="node1" class="node">
<title>START_NODE</title>
</g>
<!-- 45067 -->
<g id="node2" class="node">
<title>45067</title>
<ellipse fill="none" stroke="black" cx="280.27" cy="-167.02" rx="167.02" ry="167.02"/>
<text text-anchor="middle" x="280.27" y="-161.97" font-family="Times,serif" font-size="14.00">Were the police informed of the incident?</text>
</g>
<!-- START_NODE&#45;&gt;45067 -->
<g id="edge1" class="edge">
<title>START_NODE&#45;&gt;45067</title>
<path fill="none" stroke="black" d="M53.94,-167.02C66.67,-167.02 83.21,-167.02 101.55,-167.02"/>
<polygon fill="black" stroke="black" points="101.34,-170.52 111.34,-167.02 101.34,-163.52 101.34,-170.52"/>
<text text-anchor="middle" x="83.62" y="-170.22" font-family="Times,serif" font-size="14.00">start</text>
</g>
<!-- 44723 -->
<g id="node12" class="node">
<title>44723</title>
<ellipse fill="none" stroke="black" cx="711.12" cy="-388.02" rx="202.33" ry="202.33"/>
<text text-anchor="middle" x="711.12" y="-382.97" font-family="Times,serif" font-size="14.00">Is the incident the subject of a police investigation?</text>
</g>
<!-- 45067&#45;&gt;44723 -->
<g id="edge36" class="edge">
<title>45067&#45;&gt;44723</title>
<path fill="none" stroke="black" d="M429.16,-243.23C458.66,-258.43 490.03,-274.6 520.71,-290.41"/>
<polygon fill="black" stroke="black" points="518.8,-293.36 529.29,-294.83 522.01,-287.14 518.8,-293.36"/>
<text text-anchor="middle" x="478.04" y="-274.09" font-family="Times,serif" font-size="14.00">YES</text>
</g>
<!-- 45018 -->
<g id="node13" class="node">
<title>45018</title>
<ellipse fill="none" stroke="black" cx="1187.53" cy="-348.02" rx="212.57" ry="212.57"/>
<text text-anchor="middle" x="1187.53" y="-342.97" font-family="Times,serif" font-size="14.00">Is the incident the subject of an internal investigation?</text>
</g>
<!-- 45067&#45;&gt;45018 -->
<g id="edge37" class="edge">
<title>45067&#45;&gt;45018</title>
<path fill="none" stroke="black" d="M445.02,-138.32C575.04,-121.89 759.88,-112.87 913.46,-160.52 947.81,-171.18 981.66,-187.81 1013.23,-206.87"/>
<polygon fill="black" stroke="black" points="1011.31,-209.8 1021.66,-212.07 1014.98,-203.84 1011.31,-209.8"/>
<text text-anchor="middle" x="711.12" y="-163.72" font-family="Times,serif" font-size="14.00">NO</text>
</g>
<!-- END_NODE -->
<g id="node3" class="node">
<title>END_NODE</title>
<ellipse fill="none" stroke="black" cx="4718.59" cy="-445.02" rx="29.86" ry="29.86"/>
<ellipse fill="none" stroke="black" cx="4718.59" cy="-445.02" rx="33.86" ry="33.86"/>
<text text-anchor="middle" x="4718.59" y="-439.97" font-family="Times,serif" font-size="14.00">END</text>
</g>
<!-- 44146 -->
<g id="node4" class="node">
<title>44146</title>
<ellipse fill="none" stroke="black" cx="1633.23" cy="-348.02" rx="171.63" ry="171.63"/>
<text text-anchor="middle" x="1633.23" y="-342.97" font-family="Times,serif" font-size="14.00">Is there any media interest in this incident?</text>
</g>
<!-- 44677 -->
<g id="node5" class="node">
<title>44677</title>
<ellipse fill="none" stroke="black" cx="2066.13" cy="-348.02" rx="199.78" ry="199.78"/>
<text text-anchor="middle" x="2066.13" y="-342.97" font-family="Times,serif" font-size="14.00">Has the prison service press office been informed?</text>
</g>
<!-- 44146&#45;&gt;44677 -->
<g id="edge2" class="edge">
<title>44146&#45;&gt;44677</title>
<path fill="none" stroke="black" d="M1805.15,-348.02C1821.38,-348.02 1837.96,-348.02 1854.5,-348.02"/>
<polygon fill="black" stroke="black" points="1854.43,-351.52 1864.43,-348.02 1854.43,-344.52 1854.43,-351.52"/>
<text text-anchor="middle" x="1835.6" y="-351.22" font-family="Times,serif" font-size="14.00">YES</text>
</g>
<!-- 44146&#45;&gt;44677 -->
<g id="edge3" class="edge">
<title>44146&#45;&gt;44677</title>
<path fill="none" stroke="black" d="M1804.08,-328.69C1810.41,-328.25 1816.69,-327.85 1822.85,-327.52 1833.68,-326.93 1844.78,-326.67 1855.97,-326.67"/>
<polygon fill="black" stroke="black" points="1855.66,-330.17 1865.69,-326.75 1855.71,-323.17 1855.66,-330.17"/>
<text text-anchor="middle" x="1835.6" y="-330.72" font-family="Times,serif" font-size="14.00">NO</text>
</g>
<!-- 45062 -->
<g id="node11" class="node">
<title>45062</title>
<ellipse fill="none" stroke="black" cx="2446.32" cy="-348.02" rx="118.91" ry="118.91"/>
<text text-anchor="middle" x="2446.32" y="-342.97" font-family="Times,serif" font-size="14.00">Why was search carried out?</text>
</g>
<!-- 44677&#45;&gt;45062 -->
<g id="edge17" class="edge">
<title>44677&#45;&gt;45062</title>
<path fill="none" stroke="black" d="M2266.19,-348.02C2283.11,-348.02 2299.92,-348.02 2316.08,-348.02"/>
<polygon fill="black" stroke="black" points="2315.64,-351.52 2325.64,-348.02 2315.64,-344.52 2315.64,-351.52"/>
<text text-anchor="middle" x="2296.66" y="-351.22" font-family="Times,serif" font-size="14.00">YES</text>
</g>
<!-- 44677&#45;&gt;45062 -->
<g id="edge18" class="edge">
<title>44677&#45;&gt;45062</title>
<path fill="none" stroke="black" d="M2265.1,-326.09C2280.09,-326.01 2294.99,-326.44 2309.41,-327.52 2312.07,-327.72 2314.75,-327.94 2317.46,-328.18"/>
<polygon fill="black" stroke="black" points="2316.88,-331.64 2327.17,-329.13 2317.56,-324.67 2316.88,-331.64"/>
<text text-anchor="middle" x="2296.66" y="-330.72" font-family="Times,serif" font-size="14.00">NO</text>
</g>
<!-- 44385 -->
<g id="node6" class="node">
<title>44385</title>
<ellipse fill="none" stroke="black" cx="3396.08" cy="-348.02" rx="119.93" ry="119.93"/>
<text text-anchor="middle" x="3396.08" y="-342.97" font-family="Times,serif" font-size="14.00">Were any illicit items found?</text>
</g>
<!-- 44969 -->
<g id="node7" class="node">
<title>44969</title>
<ellipse fill="none" stroke="black" cx="3680.04" cy="-469.02" rx="102.53" ry="102.53"/>
<text text-anchor="middle" x="3680.04" y="-463.97" font-family="Times,serif" font-size="14.00">Describe the illicit items</text>
</g>
<!-- 44385&#45;&gt;44969 -->
<g id="edge4" class="edge">
<title>44385&#45;&gt;44969</title>
<path fill="none" stroke="black" d="M3506.9,-395.15C3529.33,-404.77 3552.86,-414.87 3575.07,-424.4"/>
<polygon fill="black" stroke="black" points="3573.56,-427.56 3584.13,-428.29 3576.32,-421.13 3573.56,-427.56"/>
<text text-anchor="middle" x="3546.76" y="-418.96" font-family="Times,serif" font-size="14.00">YES</text>
</g>
<!-- 44803 -->
<g id="node8" class="node">
<title>44803</title>
<ellipse fill="none" stroke="black" cx="4066.31" cy="-445.02" rx="111.23" ry="111.23"/>
<text text-anchor="middle" x="4066.31" y="-439.97" font-family="Times,serif" font-size="14.00">Were specialist dogs used?</text>
</g>
<!-- 44385&#45;&gt;44803 -->
<g id="edge5" class="edge">
<title>44385&#45;&gt;44803</title>
<path fill="none" stroke="black" d="M3515.54,-333.37C3627.84,-324.13 3799.36,-322.25 3937.07,-374.02 3944.61,-376.85 3952.24,-380.07 3959.82,-383.53"/>
<polygon fill="black" stroke="black" points="3958.22,-386.64 3968.76,-387.74 3961.21,-380.31 3958.22,-386.64"/>
<text text-anchor="middle" x="3680.04" y="-339.84" font-family="Times,serif" font-size="14.00">NO</text>
</g>
<!-- 44969&#45;&gt;44803 -->
<g id="edge23" class="edge">
<title>44969&#45;&gt;44803</title>
<path fill="none" stroke="black" d="M3764.19,-528.31C3775.95,-534.33 3788.25,-539.51 3800.57,-543.02 3858.93,-559.62 3879.61,-562.46 3937.07,-543.02 3949.62,-538.78 3961.9,-532.76 3973.59,-525.77"/>
<polygon fill="black" stroke="black" points="3975.39,-528.77 3981.99,-520.49 3971.66,-522.85 3975.39,-528.77"/>
<text text-anchor="middle" x="3868.82" y="-559.76" font-family="Times,serif" font-size="14.00">WEAPONS</text>
</g>
<!-- 44969&#45;&gt;44803 -->
<g id="edge24" class="edge">
<title>44969&#45;&gt;44803</title>
<path fill="none" stroke="black" d="M3778.42,-499.09C3785.86,-500.66 3793.31,-502.01 3800.57,-503.02 3860.66,-511.4 3877.77,-515.81 3937.07,-503.02 3943.12,-501.72 3949.22,-500.1 3955.32,-498.26"/>
<polygon fill="black" stroke="black" points="3956.39,-501.59 3964.81,-495.16 3954.22,-494.93 3956.39,-501.59"/>
<text text-anchor="middle" x="3868.82" y="-514.24" font-family="Times,serif" font-size="14.00">HOOCH/ALCOHOL</text>
</g>
<!-- 44969&#45;&gt;44803 -->
<g id="edge25" class="edge">
<title>44969&#45;&gt;44803</title>
<path fill="none" stroke="black" d="M3783.04,-469.34C3830.01,-468.79 3886.44,-467.15 3937.07,-463.02 3939.58,-462.82 3942.11,-462.59 3944.65,-462.36"/>
<polygon fill="black" stroke="black" points="3944.81,-465.86 3954.42,-461.39 3944.12,-458.9 3944.81,-465.86"/>
<text text-anchor="middle" x="3868.82" y="-472.22" font-family="Times,serif" font-size="14.00">CASH</text>
</g>
<!-- 44969&#45;&gt;44803 -->
<g id="edge26" class="edge">
<title>44969&#45;&gt;44803</title>
<path fill="none" stroke="black" d="M3780.23,-445.31C3787.09,-444.2 3793.92,-443.25 3800.57,-442.52 3847.12,-437.42 3898.54,-436.78 3943.58,-437.85"/>
<polygon fill="black" stroke="black" points="3943.29,-441.34 3953.38,-438.12 3943.48,-434.34 3943.29,-441.34"/>
<text text-anchor="middle" x="3868.82" y="-445.72" font-family="Times,serif" font-size="14.00">MOBILE PHONE</text>
</g>
<!-- 44969&#45;&gt;44803 -->
<g id="edge27" class="edge">
<title>44969&#45;&gt;44803</title>
<path fill="none" stroke="black" d="M3772.78,-424.28C3782.01,-421.14 3791.37,-418.45 3800.57,-416.52 3847.91,-406.58 3900.77,-409.53 3946.73,-416.49"/>
<polygon fill="black" stroke="black" points="3946.03,-419.92 3956.46,-418.05 3947.14,-413.01 3946.03,-419.92"/>
<text text-anchor="middle" x="3868.82" y="-419.72" font-family="Times,serif" font-size="14.00">INCENDIARY DEVICE</text>
</g>
<!-- 44969&#45;&gt;44803 -->
<g id="edge28" class="edge">
<title>44969&#45;&gt;44803</title>
<path fill="none" stroke="black" d="M3761.79,-406.47C3774.22,-399.52 3787.33,-393.52 3800.57,-389.52 3858.65,-371.97 3877.67,-377.22 3937.07,-389.52 3942.94,-390.73 3948.86,-392.23 3954.79,-393.94"/>
<polygon fill="black" stroke="black" points="3953.39,-397.18 3963.98,-396.8 3955.46,-390.49 3953.39,-397.18"/>
<text text-anchor="middle" x="3868.82" y="-392.72" font-family="Times,serif" font-size="14.00">OTHER</text>
</g>
<!-- 44570 -->
<g id="node10" class="node">
<title>44570</title>
<ellipse fill="none" stroke="black" cx="4431.14" cy="-445.02" rx="192.1" ry="192.1"/>
<text text-anchor="middle" x="4431.14" y="-439.97" font-family="Times,serif" font-size="14.00">Were support staff from other prisons deployed?</text>
</g>
<!-- 44803&#45;&gt;44570 -->
<g id="edge21" class="edge">
<title>44803&#45;&gt;44570</title>
<path fill="none" stroke="black" d="M4177.65,-445.02C4193.55,-445.02 4210.32,-445.02 4227.35,-445.02"/>
<polygon fill="black" stroke="black" points="4227.05,-448.52 4237.05,-445.02 4227.05,-441.52 4227.05,-448.52"/>
<text text-anchor="middle" x="4208.29" y="-448.22" font-family="Times,serif" font-size="14.00">YES</text>
</g>
<!-- 44803&#45;&gt;44570 -->
<g id="edge22" class="edge">
<title>44803&#45;&gt;44570</title>
<path fill="none" stroke="black" d="M4176.3,-426.39C4182.8,-425.66 4189.25,-425.02 4195.54,-424.52 4206.39,-423.66 4217.52,-423.2 4228.76,-423.06"/>
<polygon fill="black" stroke="black" points="4228.52,-426.56 4238.51,-423.04 4228.5,-419.56 4228.52,-426.56"/>
<text text-anchor="middle" x="4208.29" y="-427.72" font-family="Times,serif" font-size="14.00">NO</text>
</g>
<!-- 44432 -->
<g id="node9" class="node">
<title>44432</title>
<ellipse fill="none" stroke="black" cx="2959.31" cy="-348.02" rx="148.08" ry="148.08"/>
<text text-anchor="middle" x="2959.31" y="-342.97" font-family="Times,serif" font-size="14.00">What was the purpose of the search?</text>
</g>
<!-- 44432&#45;&gt;44385 -->
<g id="edge6" class="edge">
<title>44432&#45;&gt;44385</title>
<path fill="none" stroke="black" d="M3064.46,-452.72C3083.39,-466.34 3103.97,-478.25 3125.39,-486.02 3180.85,-506.15 3203.68,-508.7 3258.14,-486.02 3278.36,-477.6 3297.12,-464.58 3313.87,-449.84"/>
<polygon fill="black" stroke="black" points="3315.79,-452.83 3320.81,-443.5 3311.07,-447.66 3315.79,-452.83"/>
<text text-anchor="middle" x="3191.77" y="-505.29" font-family="Times,serif" font-size="14.00">FIREARM</text>
</g>
<!-- 44432&#45;&gt;44385 -->
<g id="edge7" class="edge">
<title>44432&#45;&gt;44385</title>
<path fill="none" stroke="black" d="M3082.87,-430.13C3096.77,-436.57 3111.09,-442.09 3125.39,-446.02 3182.29,-461.64 3201.97,-464.05 3258.14,-446.02 3270.2,-442.15 3282.09,-436.78 3293.54,-430.54"/>
<polygon fill="black" stroke="black" points="3295.23,-433.61 3302.16,-425.6 3291.75,-427.53 3295.23,-433.61"/>
<text text-anchor="middle" x="3191.77" y="-461.85" font-family="Times,serif" font-size="14.00">AMMUNITION</text>
</g>
<!-- 44432&#45;&gt;44385 -->
<g id="edge8" class="edge">
<title>44432&#45;&gt;44385</title>
<path fill="none" stroke="black" d="M3098.12,-400.23C3107.26,-402.52 3116.41,-404.49 3125.39,-406.02 3183.55,-415.94 3200.32,-417.76 3258.14,-406.02 3264.07,-404.82 3270.06,-403.35 3276.06,-401.67"/>
<polygon fill="black" stroke="black" points="3276.81,-405.1 3285.38,-398.88 3274.8,-398.39 3276.81,-405.1"/>
<text text-anchor="middle" x="3191.77" y="-417.36" font-family="Times,serif" font-size="14.00">C.I SPRAY</text>
</g>
<!-- 44432&#45;&gt;44385 -->
<g id="edge9" class="edge">
<title>44432&#45;&gt;44385</title>
<path fill="none" stroke="black" d="M3106.51,-364.81C3112.89,-365.28 3119.2,-365.68 3125.39,-366.02 3184.31,-369.22 3199.27,-369.87 3258.14,-366.02 3260.53,-365.86 3262.93,-365.69 3265.35,-365.51"/>
<polygon fill="black" stroke="black" points="3265.61,-369 3275.28,-364.68 3265.02,-362.02 3265.61,-369"/>
<text text-anchor="middle" x="3191.77" y="-371.87" font-family="Times,serif" font-size="14.00">OTHER WEAPON</text>
</g>
<!-- 44432&#45;&gt;44385 -->
<g id="edge10" class="edge">
<title>44432&#45;&gt;44385</title>
<path fill="none" stroke="black" d="M3107.47,-345.68C3113.52,-345.62 3119.52,-345.56 3125.39,-345.52 3184.39,-345.07 3199.14,-344.98 3258.14,-345.52 3260.24,-345.54 3262.35,-345.56 3264.47,-345.58"/>
<polygon fill="black" stroke="black" points="3264.4,-349.08 3274.44,-345.7 3264.48,-342.08 3264.4,-349.08"/>
<text text-anchor="middle" x="3191.77" y="-348.72" font-family="Times,serif" font-size="14.00">EXPLOSIVES</text>
</g>
<!-- 44432&#45;&gt;44385 -->
<g id="edge11" class="edge">
<title>44432&#45;&gt;44385</title>
<path fill="none" stroke="black" d="M3106.02,-326.14C3112.56,-325.52 3119.04,-324.97 3125.39,-324.52 3184.24,-320.35 3199.36,-319.51 3258.14,-324.52 3260.83,-324.75 3263.54,-325 3266.27,-325.28"/>
<polygon fill="black" stroke="black" points="3265.77,-328.74 3276.09,-326.36 3266.54,-321.79 3265.77,-328.74"/>
<text text-anchor="middle" x="3191.77" y="-327.72" font-family="Times,serif" font-size="14.00">DRUGS</text>
</g>
<!-- 44432&#45;&gt;44385 -->
<g id="edge12" class="edge">
<title>44432&#45;&gt;44385</title>
<path fill="none" stroke="black" d="M3101.13,-304.69C3109.29,-303.06 3117.42,-301.64 3125.39,-300.52 3183.81,-292.28 3199.96,-290.72 3258.14,-300.52 3262.82,-301.31 3267.55,-302.24 3272.3,-303.28"/>
<polygon fill="black" stroke="black" points="3271.39,-306.66 3281.93,-305.57 3273.01,-299.85 3271.39,-306.66"/>
<text text-anchor="middle" x="3191.77" y="-303.72" font-family="Times,serif" font-size="14.00">ESCAPE EQUIPMENT</text>
</g>
<!-- 44432&#45;&gt;44385 -->
<g id="edge13" class="edge">
<title>44432&#45;&gt;44385</title>
<path fill="none" stroke="black" d="M3092.46,-282.65C3103.42,-279 3114.48,-275.87 3125.39,-273.52 3183.07,-261.11 3200.96,-258.97 3258.14,-273.52 3266.35,-275.61 3274.59,-278.3 3282.75,-281.41"/>
<polygon fill="black" stroke="black" points="3281.42,-284.65 3292,-285.17 3284.05,-278.16 3281.42,-284.65"/>
<text text-anchor="middle" x="3191.77" y="-276.72" font-family="Times,serif" font-size="14.00">GATHER EVIDENCE</text>
</g>
<!-- 44432&#45;&gt;44385 -->
<g id="edge14" class="edge">
<title>44432&#45;&gt;44385</title>
<path fill="none" stroke="black" d="M3079.59,-261.09C3094.45,-253.53 3109.88,-247.05 3125.39,-242.52 3182.02,-225.97 3202.29,-223.5 3258.14,-242.52 3271.73,-247.15 3285.01,-253.72 3297.64,-261.36"/>
<polygon fill="black" stroke="black" points="3295.56,-264.19 3305.88,-266.59 3299.31,-258.28 3295.56,-264.19"/>
<text text-anchor="middle" x="3191.77" y="-245.72" font-family="Times,serif" font-size="14.00">OTHER</text>
</g>
<!-- 44570&#45;&gt;END_NODE -->
<g id="edge15" class="edge">
<title>44570&#45;&gt;END_NODE</title>
<path fill="none" stroke="black" d="M4623.73,-445.02C4641.76,-445.02 4658.6,-445.02 4672.9,-445.02"/>
<polygon fill="black" stroke="black" points="4672.78,-448.52 4682.78,-445.02 4672.78,-441.52 4672.78,-448.52"/>
<text text-anchor="middle" x="4653.99" y="-448.22" font-family="Times,serif" font-size="14.00">YES</text>
</g>
<!-- 44570&#45;&gt;END_NODE -->
<g id="edge16" class="edge">
<title>44570&#45;&gt;END_NODE</title>
<path fill="none" stroke="black" d="M4621.8,-419.4C4637.06,-420.09 4652.19,-421.7 4666.74,-424.52 4670.09,-425.17 4673.5,-426.04 4676.88,-427.05"/>
<polygon fill="black" stroke="black" points="4675.49,-430.28 4686.08,-430.21 4677.76,-423.66 4675.49,-430.28"/>
<text text-anchor="middle" x="4653.99" y="-427.72" font-family="Times,serif" font-size="14.00">NO</text>
</g>
<!-- 45062&#45;&gt;44432 -->
<g id="edge31" class="edge">
<title>45062&#45;&gt;44432</title>
<path fill="none" stroke="black" d="M2554.35,-398.32C2563.96,-401.42 2573.67,-404.07 2583.23,-406.02 2674.67,-424.72 2701.22,-421.71 2793.23,-406.02 2798.56,-405.11 2803.95,-404.05 2809.37,-402.85"/>
<polygon fill="black" stroke="black" points="2810.09,-406.28 2819.03,-400.58 2808.49,-399.46 2810.09,-406.28"/>
<text text-anchor="middle" x="2688.23" y="-422.14" font-family="Times,serif" font-size="14.00">INFORMATION/INTELLIGENCE</text>
</g>
<!-- 45062&#45;&gt;44432 -->
<g id="edge32" class="edge">
<title>45062&#45;&gt;44432</title>
<path fill="none" stroke="black" d="M2564.35,-364.51C2570.73,-365.1 2577.05,-365.61 2583.23,-366.02 2676.36,-372.16 2700.03,-371.09 2793.23,-366.02 2795.74,-365.88 2798.28,-365.74 2800.83,-365.58"/>
<polygon fill="black" stroke="black" points="2800.85,-369.08 2810.59,-364.92 2800.38,-362.1 2800.85,-369.08"/>
<text text-anchor="middle" x="2688.23" y="-373.43" font-family="Times,serif" font-size="14.00">SPECIFIC FIND</text>
</g>
<!-- 45062&#45;&gt;44432 -->
<g id="edge33" class="edge">
<title>45062&#45;&gt;44432</title>
<path fill="none" stroke="black" d="M2565.55,-345.71C2571.52,-345.64 2577.44,-345.57 2583.23,-345.52 2676.56,-344.66 2699.9,-344.81 2793.23,-345.52 2795.43,-345.54 2797.65,-345.55 2799.88,-345.57"/>
<polygon fill="black" stroke="black" points="2799.6,-349.07 2809.64,-345.66 2799.67,-342.07 2799.6,-349.07"/>
<text text-anchor="middle" x="2688.23" y="-348.72" font-family="Times,serif" font-size="14.00">HEADQUARTERS INSTRUCTIONS</text>
</g>
<!-- 45062&#45;&gt;44432 -->
<g id="edge34" class="edge">
<title>45062&#45;&gt;44432</title>
<path fill="none" stroke="black" d="M2563.55,-326.58C2570.19,-325.77 2576.78,-325.07 2583.23,-324.52 2676.22,-316.54 2700.13,-317.93 2793.23,-324.52 2795.91,-324.71 2798.61,-324.92 2801.33,-325.14"/>
<polygon fill="black" stroke="black" points="2800.82,-328.61 2811.09,-326 2801.44,-321.64 2800.82,-328.61"/>
<text text-anchor="middle" x="2688.23" y="-327.72" font-family="Times,serif" font-size="14.00">ROUTINE REQUIREMENT</text>
</g>
<!-- 45062&#45;&gt;44432 -->
<g id="edge35" class="edge">
<title>45062&#45;&gt;44432</title>
<path fill="none" stroke="black" d="M2557.32,-304.36C2565.99,-302.02 2574.69,-300.03 2583.23,-298.52 2675.14,-282.3 2700.88,-284.97 2793.23,-298.52 2797.68,-299.17 2802.18,-299.92 2806.7,-300.75"/>
<polygon fill="black" stroke="black" points="2806.02,-304.18 2816.5,-302.67 2807.37,-297.31 2806.02,-304.18"/>
<text text-anchor="middle" x="2688.23" y="-301.72" font-family="Times,serif" font-size="14.00">OTHER</text>
</g>
<!-- 44723&#45;&gt;45018 -->
<g id="edge19" class="edge">
<title>44723&#45;&gt;45018</title>
<path fill="none" stroke="black" d="M912.97,-371.09C929.87,-369.66 947.01,-368.22 964.06,-366.78"/>
<polygon fill="black" stroke="black" points="964.06,-370.29 973.73,-365.96 963.48,-363.31 964.06,-370.29"/>
<text text-anchor="middle" x="944.21" y="-372.42" font-family="Times,serif" font-size="14.00">YES</text>
</g>
<!-- 44723&#45;&gt;45018 -->
<g id="edge20" class="edge">
<title>44723&#45;&gt;45018</title>
<path fill="none" stroke="black" d="M910.07,-349.78C917.27,-348.92 924.42,-348.16 931.46,-347.52 941.85,-346.57 952.49,-345.8 963.25,-345.18"/>
<polygon fill="black" stroke="black" points="963.17,-348.69 972.98,-344.67 962.81,-341.7 963.17,-348.69"/>
<text text-anchor="middle" x="944.21" y="-350.72" font-family="Times,serif" font-size="14.00">NO</text>
</g>
<!-- 45018&#45;&gt;44146 -->
<g id="edge29" class="edge">
<title>45018&#45;&gt;44146</title>
<path fill="none" stroke="black" d="M1400.31,-348.02C1416.89,-348.02 1433.54,-348.02 1449.9,-348.02"/>
<polygon fill="black" stroke="black" points="1449.66,-351.52 1459.66,-348.02 1449.66,-344.52 1449.66,-351.52"/>
<text text-anchor="middle" x="1430.85" y="-351.22" font-family="Times,serif" font-size="14.00">YES</text>
</g>
<!-- 45018&#45;&gt;44146 -->
<g id="edge30" class="edge">
<title>45018&#45;&gt;44146</title>
<path fill="none" stroke="black" d="M1399.35,-326.64C1414.32,-326.49 1429.18,-326.74 1443.6,-327.52 1446.11,-327.66 1448.63,-327.8 1451.17,-327.96"/>
<polygon fill="black" stroke="black" points="1450.66,-331.43 1460.87,-328.6 1451.12,-324.45 1450.66,-331.43"/>
<text text-anchor="middle" x="1430.85" y="-330.72" font-family="Times,serif" font-size="14.00">NO</text>
</g>
</g>
</svg>
