<?xml version="1.0" encoding="UTF-8" standalone="no"?>
<!DOCTYPE svg PUBLIC "-//W3C//DTD SVG 1.1//EN"
 "http://www.w3.org/Graphics/SVG/1.1/DTD/svg11.dtd">
<!-- Generated by graphviz version 12.1.1 (20240910.0053)
 -->
<!-- Title: KEY_LOCK_INCIDENT Pages: 1 -->
<svg width="6171pt" height="3673pt"
 viewBox="0.00 0.00 6171.47 3672.60" xmlns="http://www.w3.org/2000/svg" xmlns:xlink="http://www.w3.org/1999/xlink">
<g id="graph0" class="graph" transform="scale(1 1) rotate(0) translate(4 3668.6)">
<title>KEY_LOCK_INCIDENT</title>
<polygon fill="white" stroke="none" points="-4,4 -4,-3668.6 6167.47,-3668.6 6167.47,4 -4,4"/>
<!-- START_NODE -->
<g id="node1" class="node">
<title>START_NODE</title>
</g>
<!-- 45196 -->
<g id="node2" class="node">
<title>45196</title>
<ellipse fill="none" stroke="black" cx="252.63" cy="-2884.94" rx="139.38" ry="139.38"/>
<text text-anchor="middle" x="252.63" y="-2879.89" font-family="Times,serif" font-size="14.00">Describe the nature of the incident</text>
</g>
<!-- START_NODE&#45;&gt;45196 -->
<g id="edge1" class="edge">
<title>START_NODE&#45;&gt;45196</title>
<path fill="none" stroke="black" d="M53.65,-2884.94C66.54,-2884.94 83.3,-2884.94 101.62,-2884.94"/>
<polygon fill="black" stroke="black" points="101.37,-2888.44 111.37,-2884.94 101.37,-2881.44 101.37,-2888.44"/>
<text text-anchor="middle" x="83.62" y="-2888.14" font-family="Times,serif" font-size="14.00">start</text>
</g>
<!-- END_NODE -->
<g id="node3" class="node">
<title>END_NODE</title>
<ellipse fill="none" stroke="black" cx="6129.62" cy="-1959.94" rx="29.86" ry="29.86"/>
<ellipse fill="none" stroke="black" cx="6129.62" cy="-1959.94" rx="33.86" ry="33.86"/>
<text text-anchor="middle" x="6129.62" y="-1954.89" font-family="Times,serif" font-size="14.00">END</text>
</g>
<!-- 45196&#45;&gt;END_NODE -->
<g id="edge2" class="edge">
<title>45196&#45;&gt;END_NODE</title>
<path fill="none" stroke="#dddddd" d="M264.75,-3024.25C282.67,-3209.18 324.88,-3520.85 410.01,-3592.94 580.15,-3737.01 688.01,-3618.94 910.95,-3618.94 910.95,-3618.94 910.95,-3618.94 5774.09,-3618.94 5909.55,-3618.94 5984.61,-3691.29 6077.76,-3592.94 6133.83,-3533.74 6130.2,-2263.15 6128.89,-2005.34"/>
<polygon fill="#dddddd" stroke="#dddddd" points="6132.39,-2005.67 6128.84,-1995.69 6125.39,-2005.71 6132.39,-2005.67"/>
<text text-anchor="middle" x="3208.05" y="-3622.14" font-family="Times,serif" font-size="14.00">Keys taken out of the establishment</text>
</g>
<!-- 45196&#45;&gt;END_NODE -->
<g id="edge3" class="edge">
<title>45196&#45;&gt;END_NODE</title>
<path fill="none" stroke="#dddddd" d="M266.76,-3023.92C286.46,-3199.3 330.17,-3486.19 410.01,-3552.94 452.77,-3588.69 855.21,-3578.94 910.95,-3578.94 910.95,-3578.94 910.95,-3578.94 5774.09,-3578.94 5841.82,-3578.94 6031.17,-3602.1 6077.76,-3552.94 6132.4,-3495.3 6129.94,-2259.61 6128.85,-2005.41"/>
<polygon fill="#dddddd" stroke="#dddddd" points="6132.35,-2005.56 6128.81,-1995.57 6125.35,-2005.59 6132.35,-2005.56"/>
<text text-anchor="middle" x="3208.05" y="-3582.14" font-family="Times,serif" font-size="14.00">Keys lost</text>
</g>
<!-- 45196&#45;&gt;END_NODE -->
<g id="edge4" class="edge">
<title>45196&#45;&gt;END_NODE</title>
<path fill="none" stroke="#dddddd" d="M269.01,-3023.56C290.49,-3189.12 335.45,-3451.49 410.01,-3512.94 453.02,-3548.39 855.21,-3538.94 910.95,-3538.94 910.95,-3538.94 910.95,-3538.94 5774.09,-3538.94 5841.82,-3538.94 6031.15,-3562.08 6077.76,-3512.94 6130.96,-3456.86 6129.66,-2255.96 6128.81,-2005.48"/>
<polygon fill="#dddddd" stroke="#dddddd" points="6132.31,-2005.78 6128.78,-1995.79 6125.31,-2005.8 6132.31,-2005.78"/>
<text text-anchor="middle" x="3208.05" y="-3542.14" font-family="Times,serif" font-size="14.00">Key left unattended in prison</text>
</g>
<!-- 45196&#45;&gt;END_NODE -->
<g id="edge5" class="edge">
<title>45196&#45;&gt;END_NODE</title>
<path fill="none" stroke="#dddddd" d="M271.57,-3023.38C294.81,-3178.83 340.74,-3416.76 410.01,-3472.94 496.59,-3543.15 799.48,-3498.94 910.95,-3498.94 910.95,-3498.94 910.95,-3498.94 5774.09,-3498.94 5841.82,-3498.94 6031.13,-3522.06 6077.76,-3472.94 6129.54,-3418.41 6129.38,-2252.01 6128.77,-2005.46"/>
<polygon fill="#dddddd" stroke="#dddddd" points="6132.27,-2005.6 6128.74,-1995.61 6125.27,-2005.62 6132.27,-2005.6"/>
<text text-anchor="middle" x="3208.05" y="-3502.14" font-family="Times,serif" font-size="14.00">Key issued to wrong person</text>
</g>
<!-- 45196&#45;&gt;END_NODE -->
<g id="edge6" class="edge">
<title>45196&#45;&gt;END_NODE</title>
<path fill="none" stroke="#dddddd" d="M274.43,-3022.86C299.37,-3167.86 345.96,-3381.95 410.01,-3432.94 497.22,-3502.37 799.48,-3458.94 910.95,-3458.94 910.95,-3458.94 910.95,-3458.94 5774.09,-3458.94 5841.82,-3458.94 6031.1,-3482.04 6077.76,-3432.94 6128.11,-3379.96 6129.1,-2247.95 6128.73,-2005.42"/>
<polygon fill="#dddddd" stroke="#dddddd" points="6132.23,-2005.74 6128.71,-1995.75 6125.23,-2005.75 6132.23,-2005.74"/>
<text text-anchor="middle" x="3208.05" y="-3462.14" font-family="Times,serif" font-size="14.00">Doors/Gates/Cell door left unlocked</text>
</g>
<!-- 45196&#45;&gt;END_NODE -->
<g id="edge7" class="edge">
<title>45196&#45;&gt;END_NODE</title>
<path fill="none" stroke="#dddddd" d="M277.74,-3022.47C304.31,-3156.66 351.19,-3347.1 410.01,-3392.94 497.94,-3461.46 799.48,-3418.94 910.95,-3418.94 910.95,-3418.94 910.95,-3418.94 5774.09,-3418.94 5841.82,-3418.94 6031.08,-3442.01 6077.76,-3392.94 6126.69,-3341.5 6128.8,-2243.59 6128.68,-2005.31"/>
<polygon fill="#dddddd" stroke="#dddddd" points="6132.18,-2005.5 6128.67,-1995.5 6125.18,-2005.5 6132.18,-2005.5"/>
<text text-anchor="middle" x="3208.05" y="-3422.14" font-family="Times,serif" font-size="14.00">Loss of handcuffs</text>
</g>
<!-- 45196&#45;&gt;END_NODE -->
<g id="edge8" class="edge">
<title>45196&#45;&gt;END_NODE</title>
<path fill="none" stroke="#dddddd" d="M259.86,-3024.39C272.78,-3132.51 309.34,-3276.4 410.01,-3352.94 498.75,-3420.41 799.48,-3378.94 910.95,-3378.94 910.95,-3378.94 910.95,-3378.94 5774.09,-3378.94 5841.82,-3378.94 6031.06,-3401.99 6077.76,-3352.94 6125.25,-3303.07 6128.5,-2240.19 6128.63,-2005.52"/>
<polygon fill="#dddddd" stroke="#dddddd" points="6132.13,-2005.56 6128.64,-1995.56 6125.13,-2005.56 6132.13,-2005.56"/>
<text text-anchor="middle" x="3208.05" y="-3382.14" font-family="Times,serif" font-size="14.00">Loss of escort chain</text>
</g>
<!-- 45196&#45;&gt;END_NODE -->
<g id="edge9" class="edge">
<title>45196&#45;&gt;END_NODE</title>
<path fill="none" stroke="#dddddd" d="M265.25,-3024.01C281.35,-3121.6 319.57,-3246.14 410.01,-3312.94 499.68,-3379.17 799.48,-3338.94 910.95,-3338.94 910.95,-3338.94 910.95,-3338.94 5774.09,-3338.94 5841.82,-3338.94 6031.03,-3361.97 6077.76,-3312.94 6123.84,-3264.6 6128.19,-2235.48 6128.58,-2005.33"/>
<polygon fill="#dddddd" stroke="#dddddd" points="6132.08,-2005.58 6128.6,-1995.57 6125.08,-2005.57 6132.08,-2005.58"/>
<text text-anchor="middle" x="3208.05" y="-3342.14" font-family="Times,serif" font-size="14.00">Other handcuff key/lock issues</text>
</g>
<!-- 45196&#45;&gt;END_NODE -->
<g id="edge10" class="edge">
<title>45196&#45;&gt;END_NODE</title>
<path fill="none" stroke="#dddddd" d="M271.61,-3023.44C290.65,-3110.04 329.76,-3215.68 410.01,-3272.94 500.75,-3337.69 799.48,-3298.94 910.95,-3298.94 910.95,-3298.94 910.95,-3298.94 5774.09,-3298.94 5841.82,-3298.94 6031,-3321.94 6077.76,-3272.94 6122.42,-3226.15 6127.86,-2231.57 6128.53,-2005.42"/>
<polygon fill="#dddddd" stroke="#dddddd" points="6132.03,-2005.55 6128.55,-1995.54 6125.03,-2005.53 6132.03,-2005.55"/>
<text text-anchor="middle" x="3208.05" y="-3302.14" font-family="Times,serif" font-size="14.00">Broken/Damaged keys</text>
</g>
<!-- 45196&#45;&gt;END_NODE -->
<g id="edge11" class="edge">
<title>45196&#45;&gt;END_NODE</title>
<path fill="none" stroke="#dddddd" d="M279.1,-3022.15C300.65,-3097.38 339.77,-3184.87 410.01,-3232.94 502,-3295.9 799.48,-3258.94 910.95,-3258.94 910.95,-3258.94 910.95,-3258.94 5774.09,-3258.94 5841.82,-3258.94 6030.97,-3281.91 6077.76,-3232.94 6120.99,-3187.7 6127.53,-2227.47 6128.47,-2005.47"/>
<polygon fill="#dddddd" stroke="#dddddd" points="6131.97,-2005.8 6128.51,-1995.78 6124.97,-2005.77 6131.97,-2005.8"/>
<text text-anchor="middle" x="3208.05" y="-3262.14" font-family="Times,serif" font-size="14.00">Worn locks (not malicious)</text>
</g>
<!-- 45196&#45;&gt;END_NODE -->
<g id="edge12" class="edge">
<title>45196&#45;&gt;END_NODE</title>
<path fill="none" stroke="#dddddd" d="M288.06,-3020.15C311.55,-3083.59 349.68,-3153.72 410.01,-3192.94 503.47,-3253.69 799.48,-3218.94 910.95,-3218.94 910.95,-3218.94 910.95,-3218.94 5774.09,-3218.94 5841.82,-3218.94 6030.94,-3241.88 6077.76,-3192.94 6119.57,-3149.24 6127.19,-2223.02 6128.41,-2005.42"/>
<polygon fill="#dddddd" stroke="#dddddd" points="6131.91,-2005.67 6128.46,-1995.65 6124.91,-2005.63 6131.91,-2005.67"/>
<text text-anchor="middle" x="3208.05" y="-3222.14" font-family="Times,serif" font-size="14.00">Malicious damage to/blockage of locks</text>
</g>
<!-- 45196&#45;&gt;END_NODE -->
<g id="edge13" class="edge">
<title>45196&#45;&gt;END_NODE</title>
<path fill="none" stroke="#dddddd" d="M298.83,-3016.94C323.42,-3068.29 359.41,-3122.11 410.01,-3152.94 505.21,-3210.94 799.48,-3178.94 910.95,-3178.94 910.95,-3178.94 910.95,-3178.94 5774.09,-3178.94 5841.82,-3178.94 6030.91,-3201.85 6077.76,-3152.94 6118.14,-3110.8 6126.83,-2219.27 6128.34,-2005.64"/>
<polygon fill="#dddddd" stroke="#dddddd" points="6131.84,-2005.8 6128.41,-1995.78 6124.84,-2005.75 6131.84,-2005.8"/>
<text text-anchor="middle" x="3208.05" y="-3182.14" font-family="Times,serif" font-size="14.00">Lock picked</text>
</g>
<!-- 45196&#45;&gt;END_NODE -->
<g id="edge14" class="edge">
<title>45196&#45;&gt;END_NODE</title>
<path fill="none" stroke="#dddddd" d="M311.73,-3011.71C336.28,-3050.95 368.87,-3089.89 410.01,-3112.94 507.26,-3167.43 799.48,-3138.94 910.95,-3138.94 910.95,-3138.94 910.95,-3138.94 5774.09,-3138.94 5841.79,-3138.94 6030.74,-3163.63 6077.76,-3114.94 6116.94,-3074.38 6126.52,-2214.72 6128.28,-2005.53"/>
<polygon fill="#dddddd" stroke="#dddddd" points="6131.78,-2005.63 6128.36,-1995.6 6124.78,-2005.57 6131.78,-2005.63"/>
<text text-anchor="middle" x="3208.05" y="-3142.14" font-family="Times,serif" font-size="14.00">Part of lock removed</text>
</g>
<!-- 45196&#45;&gt;END_NODE -->
<g id="edge15" class="edge">
<title>45196&#45;&gt;END_NODE</title>
<path fill="none" stroke="#dddddd" d="M326.96,-3003.38C350,-3030.93 377.94,-3056.87 410.01,-3072.94 509.68,-3122.87 799.48,-3098.94 910.95,-3098.94 910.95,-3098.94 910.95,-3098.94 2874.53,-3098.94 3241.44,-3098.94 3333.17,-3100.94 3700.08,-3100.94 3700.08,-3100.94 3700.08,-3100.94 5774.09,-3100.94 5841.79,-3100.94 6030.7,-3125.6 6077.76,-3076.94 6115.58,-3037.84 6126.16,-2210.79 6128.21,-2005.67"/>
<polygon fill="#dddddd" stroke="#dddddd" points="6131.71,-2005.71 6128.31,-1995.67 6124.71,-2005.64 6131.71,-2005.71"/>
<text text-anchor="middle" x="3208.05" y="-3103.52" font-family="Times,serif" font-size="14.00">Complete lock removed</text>
</g>
<!-- 45196&#45;&gt;END_NODE -->
<g id="edge16" class="edge">
<title>45196&#45;&gt;END_NODE</title>
<path fill="none" stroke="#dddddd" d="M344.11,-2990.22C364.02,-3007.35 386.31,-3022.78 410.01,-3032.94 512.47,-3076.85 799.48,-3058.94 910.95,-3058.94 910.95,-3058.94 910.95,-3058.94 2874.53,-3058.94 3241.45,-3058.94 3333.17,-3062.94 3700.08,-3062.94 3700.08,-3062.94 3700.08,-3062.94 5774.09,-3062.94 5841.79,-3062.94 6030.66,-3087.56 6077.76,-3038.94 6114.24,-3001.28 6125.8,-2205.76 6128.13,-2005.42"/>
<polygon fill="#dddddd" stroke="#dddddd" points="6131.63,-2005.72 6128.25,-1995.68 6124.63,-2005.64 6131.63,-2005.72"/>
<text text-anchor="middle" x="3208.05" y="-3064.9" font-family="Times,serif" font-size="14.00">Electronics overcome (electronic door)</text>
</g>
<!-- 45196&#45;&gt;END_NODE -->
<g id="edge17" class="edge">
<title>45196&#45;&gt;END_NODE</title>
<path fill="none" stroke="#dddddd" d="M362.78,-2971.1C377.99,-2979.82 393.93,-2987.47 410.01,-2992.94 515.54,-3028.86 799.48,-3018.94 910.95,-3018.94 910.95,-3018.94 910.95,-3018.94 2874.53,-3018.94 3241.45,-3018.94 3333.16,-3024.94 3700.08,-3024.94 3700.08,-3024.94 3700.08,-3024.94 5774.09,-3024.94 5841.79,-3024.94 6030.62,-3049.52 6077.76,-3000.94 6112.9,-2964.73 6125.41,-2201.23 6128.05,-2005.39"/>
<polygon fill="#dddddd" stroke="#dddddd" points="6131.55,-2005.67 6128.18,-1995.63 6124.55,-2005.58 6131.55,-2005.67"/>
<text text-anchor="middle" x="3208.05" y="-3026.27" font-family="Times,serif" font-size="14.00">Electronics failure (electronic door)</text>
</g>
<!-- 45196&#45;&gt;END_NODE -->
<g id="edge18" class="edge">
<title>45196&#45;&gt;END_NODE</title>
<path fill="none" stroke="#dddddd" d="M379.06,-2944.03C389.38,-2947.49 399.78,-2950.54 410.01,-2952.94 627.03,-3003.99 688.01,-2978.94 910.95,-2978.94 910.95,-2978.94 910.95,-2978.94 2874.53,-2978.94 3241.46,-2978.94 3333.15,-2986.94 3700.08,-2986.94 3700.08,-2986.94 3700.08,-2986.94 5774.09,-2986.94 5841.79,-2986.94 6030.58,-3011.48 6077.76,-2962.94 6111.56,-2928.18 6125.02,-2196.39 6127.97,-2005.27"/>
<polygon fill="#dddddd" stroke="#dddddd" points="6131.46,-2005.56 6128.12,-1995.5 6124.46,-2005.45 6131.46,-2005.56"/>
<text text-anchor="middle" x="3208.05" y="-2987.65" font-family="Times,serif" font-size="14.00">Replica key found/used</text>
</g>
<!-- 45196&#45;&gt;END_NODE -->
<g id="edge19" class="edge">
<title>45196&#45;&gt;END_NODE</title>
<path fill="none" stroke="#dddddd" d="M389.49,-2912.2C396.42,-2913.22 403.29,-2914.14 410.01,-2914.94 631.34,-2941.34 688.05,-2938.94 910.95,-2938.94 910.95,-2938.94 910.95,-2938.94 2874.53,-2938.94 3241.47,-2938.94 3333.14,-2948.94 3700.08,-2948.94 3700.08,-2948.94 3700.08,-2948.94 5774.09,-2948.94 5841.79,-2948.94 6030.53,-2973.43 6077.76,-2924.94 6110.21,-2891.63 6124.6,-2192 6127.87,-2005.36"/>
<polygon fill="#dddddd" stroke="#dddddd" points="6131.37,-2005.65 6128.04,-1995.59 6124.37,-2005.53 6131.37,-2005.65"/>
<text text-anchor="middle" x="3208.05" y="-2949.03" font-family="Times,serif" font-size="14.00">Key viewed by prisoner</text>
</g>
<!-- 45196&#45;&gt;END_NODE -->
<g id="edge20" class="edge">
<title>45196&#45;&gt;END_NODE</title>
<path fill="none" stroke="#dddddd" d="M392.1,-2890.27C525.11,-2894.92 731.73,-2900.94 910.95,-2900.94 910.95,-2900.94 910.95,-2900.94 2705.01,-2900.94 3147.29,-2900.94 3257.81,-2910.94 3700.08,-2910.94 3700.08,-2910.94 3700.08,-2910.94 5774.09,-2910.94 5910.4,-2910.94 5985.54,-2968.32 6077.76,-2867.94 6107.21,-2835.89 6123.66,-2185.15 6127.66,-2005.52"/>
<polygon fill="#dddddd" stroke="#dddddd" points="6131.15,-2005.73 6127.87,-1995.65 6124.15,-2005.57 6131.15,-2005.73"/>
<text text-anchor="middle" x="3208.05" y="-2912.12" font-family="Times,serif" font-size="14.00">Other: (anything else including prisoner grabbing key chain, etc)</text>
</g>
<!-- 45197 -->
<g id="node4" class="node">
<title>45197</title>
<ellipse fill="none" stroke="black" cx="911.95" cy="-2228.94" rx="130.68" ry="130.68"/>
<text text-anchor="middle" x="911.95" y="-2223.89" font-family="Times,serif" font-size="14.00">Describe the type of key or lock</text>
</g>
<!-- 45196&#45;&gt;45197 -->
<g id="edge21" class="edge">
<title>45196&#45;&gt;45197</title>
<path fill="none" stroke="black" d="M391.76,-2871.94C397.93,-2871.42 404.04,-2870.92 410.01,-2870.44 449.23,-2867.32 733.21,-2872.32 763.26,-2846.94 834.99,-2786.37 876.62,-2533.13 896.47,-2370.22"/>
<polygon fill="black" stroke="black" points="899.91,-2370.98 897.63,-2360.64 892.96,-2370.15 899.91,-2370.98"/>
<text text-anchor="middle" x="586.64" y="-2873.64" font-family="Times,serif" font-size="14.00">Keys taken out of the establishment</text>
</g>
<!-- 45196&#45;&gt;45197 -->
<g id="edge22" class="edge">
<title>45196&#45;&gt;45197</title>
<path fill="none" stroke="black" d="M382.44,-2833.33C391.68,-2830.69 400.94,-2828.34 410.01,-2826.44 448.49,-2818.38 732.89,-2831.9 763.26,-2806.94 830.06,-2752.05 872.54,-2522.94 894.02,-2370.18"/>
<polygon fill="black" stroke="black" points="897.47,-2370.75 895.38,-2360.36 890.54,-2369.78 897.47,-2370.75"/>
<text text-anchor="middle" x="586.64" y="-2829.64" font-family="Times,serif" font-size="14.00">Keys lost</text>
</g>
<!-- 45196&#45;&gt;45197 -->
<g id="edge23" class="edge">
<title>45196&#45;&gt;45197</title>
<path fill="none" stroke="black" d="M366.96,-2804.57C380.98,-2797.37 395.49,-2791.07 410.01,-2786.44 447.47,-2774.5 732.67,-2791.63 763.26,-2766.94 824.88,-2717.22 868.03,-2511.58 891.17,-2369.45"/>
<polygon fill="black" stroke="black" points="894.56,-2370.4 892.69,-2359.97 887.65,-2369.29 894.56,-2370.4"/>
<text text-anchor="middle" x="586.64" y="-2789.64" font-family="Times,serif" font-size="14.00">Key left unattended in prison</text>
</g>
<!-- 45196&#45;&gt;45197 -->
<g id="edge24" class="edge">
<title>45196&#45;&gt;45197</title>
<path fill="none" stroke="black" d="M348.48,-2783.66C367.4,-2768.74 388.21,-2755.4 410.01,-2746.44 446.37,-2731.5 732.42,-2751.32 763.26,-2726.94 819.65,-2682.38 863.07,-2500.25 887.82,-2369.13"/>
<polygon fill="black" stroke="black" points="891.18,-2370.16 889.58,-2359.69 884.3,-2368.88 891.18,-2370.16"/>
<text text-anchor="middle" x="586.64" y="-2749.64" font-family="Times,serif" font-size="14.00">Key issued to wrong person</text>
</g>
<!-- 45196&#45;&gt;45197 -->
<g id="edge25" class="edge">
<title>45196&#45;&gt;45197</title>
<path fill="none" stroke="black" d="M330.89,-2769.23C353.34,-2744.29 380.01,-2721.06 410.01,-2706.44 480.7,-2672.02 701.01,-2734.96 763.26,-2686.94 859.09,-2613.03 893.75,-2476.14 905.79,-2371.19"/>
<polygon fill="black" stroke="black" points="909.26,-2371.68 906.86,-2361.36 902.3,-2370.92 909.26,-2371.68"/>
<text text-anchor="middle" x="586.64" y="-2709.64" font-family="Times,serif" font-size="14.00">Doors/Gates/cell door left unlocked</text>
</g>
<!-- 45196&#45;&gt;45197 -->
<g id="edge26" class="edge">
<title>45196&#45;&gt;45197</title>
<path fill="none" stroke="black" d="M315.11,-2759.99C339.46,-2723.56 371.07,-2687.84 410.01,-2666.44 478.92,-2628.59 700.35,-2694.09 763.26,-2646.94 848.93,-2582.74 885.1,-2464.9 900.28,-2370.67"/>
<polygon fill="black" stroke="black" points="903.73,-2371.21 901.79,-2360.79 896.82,-2370.15 903.73,-2371.21"/>
<text text-anchor="middle" x="586.64" y="-2669.64" font-family="Times,serif" font-size="14.00">Loss of handcuffs</text>
</g>
<!-- 45196&#45;&gt;45197 -->
<g id="edge27" class="edge">
<title>45196&#45;&gt;45197</title>
<path fill="none" stroke="black" d="M301.65,-2754.22C326.36,-2705.71 361.68,-2655.48 410.01,-2626.44 477.41,-2585.96 699.59,-2653.05 763.26,-2606.94 838.77,-2552.27 875.67,-2453.14 893.71,-2370.11"/>
<polygon fill="black" stroke="black" points="897.1,-2371.02 895.72,-2360.51 890.25,-2369.58 897.1,-2371.02"/>
<text text-anchor="middle" x="586.64" y="-2629.64" font-family="Times,serif" font-size="14.00">Loss of escort chain</text>
</g>
<!-- 45196&#45;&gt;45197 -->
<g id="edge28" class="edge">
<title>45196&#45;&gt;45197</title>
<path fill="none" stroke="black" d="M290.51,-2750.41C314.36,-2689.85 352.08,-2623.71 410.01,-2586.44 476.13,-2543.91 698.69,-2611.79 763.26,-2566.94 828.8,-2521.43 865.53,-2440.14 885.96,-2368.7"/>
<polygon fill="black" stroke="black" points="889.29,-2369.81 888.58,-2359.23 882.54,-2367.94 889.29,-2369.81"/>
<text text-anchor="middle" x="586.64" y="-2589.64" font-family="Times,serif" font-size="14.00">Other handcuff key/lock issues</text>
</g>
<!-- 45196&#45;&gt;45197 -->
<g id="edge29" class="edge">
<title>45196&#45;&gt;45197</title>
<path fill="none" stroke="black" d="M281.19,-2748.04C303.29,-2675.64 342.27,-2592.45 410.01,-2546.44 475.05,-2502.27 697.63,-2570.22 763.26,-2526.94 818.86,-2490.29 854.33,-2426.18 876.53,-2366.79"/>
<polygon fill="black" stroke="black" points="879.76,-2368.17 879.88,-2357.58 873.18,-2365.79 879.76,-2368.17"/>
<text text-anchor="middle" x="586.64" y="-2549.64" font-family="Times,serif" font-size="14.00">Broken/Damaged keys</text>
</g>
<!-- 45196&#45;&gt;45197 -->
<g id="edge30" class="edge">
<title>45196&#45;&gt;45197</title>
<path fill="none" stroke="black" d="M273.28,-2747.02C292.96,-2663.07 332.17,-2561.67 410.01,-2506.44 474.14,-2460.95 696.36,-2528.24 763.26,-2486.94 809.09,-2458.66 842.09,-2410.57 865.11,-2363.51"/>
<polygon fill="black" stroke="black" points="868.24,-2365.08 869.37,-2354.55 861.92,-2362.08 868.24,-2365.08"/>
<text text-anchor="middle" x="586.64" y="-2509.64" font-family="Times,serif" font-size="14.00">Worn locks (not malicious)</text>
</g>
<!-- 45196&#45;&gt;45197 -->
<g id="edge31" class="edge">
<title>45196&#45;&gt;45197</title>
<path fill="none" stroke="black" d="M266.75,-2745.93C283.63,-2650.98 322.15,-2531.07 410.01,-2466.44 473.35,-2419.86 694.85,-2485.68 763.26,-2446.94 799.78,-2426.26 829.1,-2392.38 851.68,-2357.43"/>
<polygon fill="black" stroke="black" points="854.42,-2359.65 856.77,-2349.32 848.49,-2355.93 854.42,-2359.65"/>
<text text-anchor="middle" x="586.64" y="-2469.64" font-family="Times,serif" font-size="14.00">Malicious damage to/blockage of locks</text>
</g>
<!-- 45196&#45;&gt;45197 -->
<g id="edge32" class="edge">
<title>45196&#45;&gt;45197</title>
<path fill="none" stroke="black" d="M261.17,-2745.36C274.93,-2639.79 311.99,-2500.75 410.01,-2426.44 472.67,-2378.95 693.05,-2442.32 763.26,-2406.94 790.57,-2393.18 814.7,-2371.86 835.13,-2348.69"/>
<polygon fill="black" stroke="black" points="837.66,-2351.11 841.5,-2341.23 832.34,-2346.56 837.66,-2351.11"/>
<text text-anchor="middle" x="586.64" y="-2429.64" font-family="Times,serif" font-size="14.00">Lock picked</text>
</g>
<!-- 45196&#45;&gt;45197 -->
<g id="edge33" class="edge">
<title>45196&#45;&gt;45197</title>
<path fill="none" stroke="black" d="M278.63,-2747.54C305.6,-2616.01 352.51,-2431.16 410.01,-2386.44 441.05,-2362.31 727.11,-2382.37 763.26,-2366.94 782.23,-2358.85 800.27,-2347.2 816.81,-2334.06"/>
<polygon fill="black" stroke="black" points="818.65,-2337.08 824.15,-2328.02 814.2,-2331.67 818.65,-2337.08"/>
<text text-anchor="middle" x="586.64" y="-2389.64" font-family="Times,serif" font-size="14.00">Part of lock removed</text>
</g>
<!-- 45196&#45;&gt;45197 -->
<g id="edge34" class="edge">
<title>45196&#45;&gt;45197</title>
<path fill="none" stroke="black" d="M275.21,-2747.16C300.57,-2604.73 347.29,-2396.31 410.01,-2346.44 440.79,-2321.98 725.96,-2339.33 763.26,-2326.94 774.67,-2323.16 786.03,-2318.25 797.09,-2312.64"/>
<polygon fill="black" stroke="black" points="798.63,-2315.79 805.83,-2308.02 795.35,-2309.6 798.63,-2315.79"/>
<text text-anchor="middle" x="586.64" y="-2349.64" font-family="Times,serif" font-size="14.00">Complete lock removed</text>
</g>
<!-- 45196&#45;&gt;45197 -->
<g id="edge35" class="edge">
<title>45196&#45;&gt;45197</title>
<path fill="none" stroke="black" d="M272.24,-2746.71C295.92,-2593.75 342.06,-2361.5 410.01,-2306.44 440.56,-2281.69 724.86,-2295.32 763.26,-2286.94 768.84,-2285.73 774.48,-2284.33 780.14,-2282.78"/>
<polygon fill="black" stroke="black" points="780.94,-2286.2 789.58,-2280.06 779,-2279.47 780.94,-2286.2"/>
<text text-anchor="middle" x="586.64" y="-2309.64" font-family="Times,serif" font-size="14.00">Electronics overcome (electronic door)</text>
</g>
<!-- 45196&#45;&gt;45197 -->
<g id="edge36" class="edge">
<title>45196&#45;&gt;45197</title>
<path fill="none" stroke="black" d="M269.64,-2746.29C291.57,-2583.14 336.82,-2326.75 410.01,-2266.44 440.35,-2241.45 724.11,-2250.41 763.26,-2246.94 765.77,-2246.72 768.31,-2246.49 770.85,-2246.25"/>
<polygon fill="black" stroke="black" points="771.01,-2249.75 780.62,-2245.3 770.33,-2242.78 771.01,-2249.75"/>
<text text-anchor="middle" x="586.64" y="-2269.64" font-family="Times,serif" font-size="14.00">Electronics failure (electronic door)</text>
</g>
<!-- 45196&#45;&gt;45197 -->
<g id="edge37" class="edge">
<title>45196&#45;&gt;45197</title>
<path fill="none" stroke="black" d="M266.72,-2745.8C286.27,-2572.07 329.7,-2289.92 410.01,-2226.44 437.71,-2204.55 631.75,-2211.43 770.01,-2219.4"/>
<polygon fill="black" stroke="black" points="769.42,-2222.87 779.6,-2219.96 769.82,-2215.88 769.42,-2222.87"/>
<text text-anchor="middle" x="586.64" y="-2229.64" font-family="Times,serif" font-size="14.00">Replica key found/used</text>
</g>
<!-- 45196&#45;&gt;45197 -->
<g id="edge38" class="edge">
<title>45196&#45;&gt;45197</title>
<path fill="none" stroke="black" d="M264.86,-2745.91C282.78,-2563.77 324.89,-2259.51 410.01,-2191.44 471.32,-2142.42 685.37,-2181.71 763.26,-2191.44 766.94,-2191.9 770.65,-2192.42 774.39,-2193"/>
<polygon fill="black" stroke="black" points="773.74,-2196.44 784.17,-2194.63 774.89,-2189.53 773.74,-2196.44"/>
<text text-anchor="middle" x="586.64" y="-2194.64" font-family="Times,serif" font-size="14.00">Key viewed by prisoner</text>
</g>
<!-- 45196&#45;&gt;45197 -->
<g id="edge39" class="edge">
<title>45196&#45;&gt;45197</title>
<path fill="none" stroke="black" d="M262.77,-2745.55C278.63,-2552.85 318.76,-2220.4 410.01,-2146.44 531.99,-2047.59 611.33,-2106.88 763.26,-2146.44 772.25,-2148.78 781.27,-2151.8 790.18,-2155.3"/>
<polygon fill="black" stroke="black" points="788.61,-2158.44 799.18,-2159.03 791.29,-2151.97 788.61,-2158.44"/>
<text text-anchor="middle" x="586.64" y="-2149.64" font-family="Times,serif" font-size="14.00">Other &#160;(anything else including prisoner grabbing key chain, etc)</text>
</g>
<!-- 45197&#45;&gt;END_NODE -->
<g id="edge40" class="edge">
<title>45197&#45;&gt;END_NODE</title>
<path fill="none" stroke="#dddddd" d="M912.8,-2098.15C915.72,-1625.39 957.09,-32.94 1382.03,-32.94 1382.03,-32.94 1382.03,-32.94 5774.09,-32.94 5909.2,-32.94 5983.16,49.52 6077.76,-46.94 6111.53,-81.38 6125.89,-1628.25 6128.26,-1914.6"/>
<polygon fill="#dddddd" stroke="#dddddd" points="6124.76,-1914.29 6128.34,-1924.26 6131.76,-1914.23 6124.76,-1914.29"/>
<text text-anchor="middle" x="3526.19" y="-36.14" font-family="Times,serif" font-size="14.00">Class 1 pass key</text>
</g>
<!-- 45197&#45;&gt;END_NODE -->
<g id="edge41" class="edge">
<title>45197&#45;&gt;END_NODE</title>
<path fill="none" stroke="#dddddd" d="M927.7,-2358.89C948.34,-2515.74 991.29,-2766.12 1060.63,-2826.94 1168.68,-2921.73 1238.29,-2862.94 1382.03,-2862.94 1382.03,-2862.94 1382.03,-2862.94 2705.01,-2862.94 3147.27,-2862.94 3257.83,-2865.94 3700.08,-2865.94 3700.08,-2865.94 3700.08,-2865.94 5774.09,-2865.94 5910.17,-2865.94 5984.93,-2926.43 6077.76,-2826.94 6106.01,-2796.67 6123.23,-2179.79 6127.54,-2005.46"/>
<polygon fill="#dddddd" stroke="#dddddd" points="6131.04,-2005.76 6127.78,-1995.67 6124.04,-2005.59 6131.04,-2005.76"/>
<text text-anchor="middle" x="3526.19" y="-2869.12" font-family="Times,serif" font-size="14.00">Class 2 pass key</text>
</g>
<!-- 45197&#45;&gt;END_NODE -->
<g id="edge42" class="edge">
<title>45197&#45;&gt;END_NODE</title>
<path fill="none" stroke="#dddddd" d="M931.18,-2358.44C954.16,-2501.86 998.32,-2720.01 1060.63,-2773.94 1115.03,-2821.03 1310.08,-2812.94 1382.03,-2812.94 1382.03,-2812.94 1382.03,-2812.94 5774.09,-2812.94 5842.13,-2812.94 6031.25,-2823.6 6077.76,-2773.94 6130.46,-2717.68 6130.3,-2168.09 6129.08,-2005.21"/>
<polygon fill="#dddddd" stroke="#dddddd" points="6132.58,-2005.65 6129,-1995.67 6125.58,-2005.7 6132.58,-2005.65"/>
<text text-anchor="middle" x="3526.19" y="-2816.14" font-family="Times,serif" font-size="14.00">Cell key</text>
</g>
<!-- 45197&#45;&gt;END_NODE -->
<g id="edge43" class="edge">
<title>45197&#45;&gt;END_NODE</title>
<path fill="none" stroke="#dddddd" d="M935.25,-2358.02C960.37,-2487.46 1005.04,-2674.12 1060.63,-2720.94 1115.66,-2767.29 1310.08,-2759.94 1382.03,-2759.94 1382.03,-2759.94 1382.03,-2759.94 5774.09,-2759.94 5842.13,-2759.94 6031.14,-2770.5 6077.76,-2720.94 6126.84,-2668.78 6129.29,-2161.2 6128.87,-2005.27"/>
<polygon fill="#dddddd" stroke="#dddddd" points="6132.37,-2005.32 6128.83,-1995.33 6125.37,-2005.34 6132.37,-2005.32"/>
<text text-anchor="middle" x="3526.19" y="-2763.14" font-family="Times,serif" font-size="14.00">Class 3 A1 Suite key</text>
</g>
<!-- 45197&#45;&gt;END_NODE -->
<g id="edge44" class="edge">
<title>45197&#45;&gt;END_NODE</title>
<path fill="none" stroke="#dddddd" d="M920.65,-2359.58C933.95,-2459.85 969.05,-2593.36 1060.63,-2667.94 1116.41,-2713.38 1310.08,-2706.94 1382.03,-2706.94 1382.03,-2706.94 1382.03,-2706.94 5774.09,-2706.94 5842.13,-2706.94 6031.02,-2717.38 6077.76,-2667.94 6123.2,-2619.88 6128.19,-2154.51 6128.62,-2005.55"/>
<polygon fill="#dddddd" stroke="#dddddd" points="6132.12,-2005.68 6128.64,-1995.68 6125.12,-2005.67 6132.12,-2005.68"/>
<text text-anchor="middle" x="3526.19" y="-2710.14" font-family="Times,serif" font-size="14.00">Class 3 Accountable key</text>
</g>
<!-- 45197&#45;&gt;END_NODE -->
<g id="edge45" class="edge">
<title>45197&#45;&gt;END_NODE</title>
<path fill="none" stroke="#dddddd" d="M928.04,-2358.66C945.24,-2445.03 982.03,-2553.55 1060.63,-2614.94 1174.03,-2703.51 1238.14,-2653.94 1382.03,-2653.94 1382.03,-2653.94 1382.03,-2653.94 5774.09,-2653.94 5842.13,-2653.94 6030.88,-2664.24 6077.76,-2614.94 6119.62,-2570.93 6127.03,-2146.67 6128.34,-2005.42"/>
<polygon fill="#dddddd" stroke="#dddddd" points="6131.84,-2005.74 6128.42,-1995.71 6124.84,-2005.68 6131.84,-2005.74"/>
<text text-anchor="middle" x="3526.19" y="-2657.14" font-family="Times,serif" font-size="14.00">Handcuff key</text>
</g>
<!-- 45197&#45;&gt;END_NODE -->
<g id="edge46" class="edge">
<title>45197&#45;&gt;END_NODE</title>
<path fill="none" stroke="#dddddd" d="M937.38,-2357.24C957.92,-2428.91 994.92,-2513.32 1060.63,-2561.94 1176.3,-2647.53 1238.14,-2600.94 1382.03,-2600.94 1382.03,-2600.94 1382.03,-2600.94 5774.09,-2600.94 5842.13,-2600.94 6030.71,-2611.08 6077.76,-2561.94 6116.05,-2521.95 6125.77,-2138.47 6128.01,-2005.26"/>
<polygon fill="#dddddd" stroke="#dddddd" points="6131.5,-2005.47 6128.16,-1995.41 6124.5,-2005.35 6131.5,-2005.47"/>
<text text-anchor="middle" x="3526.19" y="-2604.14" font-family="Times,serif" font-size="14.00">Escort Chain key</text>
</g>
<!-- 45197&#45;&gt;END_NODE -->
<g id="edge47" class="edge">
<title>45197&#45;&gt;END_NODE</title>
<path fill="none" stroke="#dddddd" d="M949.3,-2354.33C972.12,-2410.59 1007.56,-2472.39 1060.63,-2508.94 1179.14,-2590.56 1238.14,-2547.94 1382.03,-2547.94 1382.03,-2547.94 1382.03,-2547.94 5774.09,-2547.94 5842.13,-2547.94 6030.51,-2557.89 6077.76,-2508.94 6112.46,-2473 6124.39,-2130.58 6127.61,-2005.44"/>
<polygon fill="#dddddd" stroke="#dddddd" points="6131.1,-2005.63 6127.85,-1995.54 6124.1,-2005.45 6131.1,-2005.63"/>
<text text-anchor="middle" x="3526.19" y="-2551.14" font-family="Times,serif" font-size="14.00">Class 1 Lock</text>
</g>
<!-- 45197&#45;&gt;END_NODE -->
<g id="edge48" class="edge">
<title>45197&#45;&gt;END_NODE</title>
<path fill="none" stroke="#dddddd" d="M964.62,-2348.71C988.06,-2389.18 1019.83,-2430.51 1060.63,-2455.94 1182.74,-2532.06 1238.14,-2494.94 1382.03,-2494.94 1382.03,-2494.94 1382.03,-2494.94 5774.09,-2494.94 5842.13,-2494.94 6030.27,-2504.66 6077.76,-2455.94 6108.9,-2423.99 6122.87,-2121.8 6127.13,-2005.37"/>
<polygon fill="#dddddd" stroke="#dddddd" points="6130.62,-2005.68 6127.48,-1995.57 6123.62,-2005.43 6130.62,-2005.68"/>
<text text-anchor="middle" x="3526.19" y="-2498.14" font-family="Times,serif" font-size="14.00">Class 2 Lock</text>
</g>
<!-- 45197&#45;&gt;END_NODE -->
<g id="edge49" class="edge">
<title>45197&#45;&gt;END_NODE</title>
<path fill="none" stroke="#dddddd" d="M984.06,-2338.12C1005.66,-2363.29 1031.5,-2387.26 1060.63,-2402.94 1187.33,-2471.16 1238.14,-2441.94 1382.03,-2441.94 1382.03,-2441.94 1382.03,-2441.94 5774.09,-2441.94 5842.13,-2441.94 6029.98,-2451.37 6077.76,-2402.94 6105.34,-2374.99 6121.15,-2113.08 6126.52,-2005.62"/>
<polygon fill="#dddddd" stroke="#dddddd" points="6130.01,-2005.87 6127.01,-1995.71 6123.02,-2005.53 6130.01,-2005.87"/>
<text text-anchor="middle" x="3526.19" y="-2445.14" font-family="Times,serif" font-size="14.00">Cell Lock</text>
</g>
<!-- 45197&#45;&gt;END_NODE -->
<g id="edge50" class="edge">
<title>45197&#45;&gt;END_NODE</title>
<path fill="none" stroke="#dddddd" d="M1007.1,-2318.78C1023.92,-2330.98 1042.03,-2342 1060.63,-2349.94 1192.96,-2406.45 1238.14,-2388.94 1382.03,-2388.94 1382.03,-2388.94 1382.03,-2388.94 5774.09,-2388.94 5910.17,-2388.94 5981.45,-2446.07 6077.76,-2349.94 6125.28,-2302.52 6129.8,-2097.86 6129.35,-2005.49"/>
<polygon fill="#dddddd" stroke="#dddddd" points="6132.85,-2005.5 6129.27,-1995.52 6125.85,-2005.55 6132.85,-2005.5"/>
<text text-anchor="middle" x="3526.19" y="-2392.14" font-family="Times,serif" font-size="14.00">Class 3 A1 Suite Lock</text>
</g>
<!-- 45197&#45;&gt;END_NODE -->
<g id="edge51" class="edge">
<title>45197&#45;&gt;END_NODE</title>
<path fill="none" stroke="#dddddd" d="M1029.38,-2286.53C1039.8,-2290.46 1050.31,-2294.02 1060.63,-2296.94 1199.07,-2336.17 1238.14,-2335.94 1382.03,-2335.94 1382.03,-2335.94 1382.03,-2335.94 5774.09,-2335.94 5910.17,-2335.94 5980.49,-2392.09 6077.76,-2296.94 6118.32,-2257.27 6126.65,-2087.92 6128.28,-2005.44"/>
<polygon fill="#dddddd" stroke="#dddddd" points="6131.77,-2005.74 6128.44,-1995.68 6124.78,-2005.62 6131.77,-2005.74"/>
<text text-anchor="middle" x="3526.19" y="-2339.14" font-family="Times,serif" font-size="14.00">Class 3 Accountable Lock</text>
</g>
<!-- 45197&#45;&gt;END_NODE -->
<g id="edge52" class="edge">
<title>45197&#45;&gt;END_NODE</title>
<path fill="none" stroke="#dddddd" d="M1040.91,-2251.69C1134.96,-2266.44 1266.03,-2282.94 1382.03,-2282.94 1382.03,-2282.94 1382.03,-2282.94 5774.09,-2282.94 5841.79,-2282.94 6027.8,-2304.62 6077.76,-2258.94 6114.19,-2225.64 6124.54,-2080.77 6127.47,-2005.59"/>
<polygon fill="#dddddd" stroke="#dddddd" points="6130.96,-2005.78 6127.82,-1995.66 6123.97,-2005.53 6130.96,-2005.78"/>
<text text-anchor="middle" x="3526.19" y="-2286.14" font-family="Times,serif" font-size="14.00">Handcuffs</text>
</g>
<!-- 45197&#45;&gt;END_NODE -->
<g id="edge53" class="edge">
<title>45197&#45;&gt;END_NODE</title>
<path fill="none" stroke="#dddddd" d="M1043.12,-2229.37C1137.26,-2229.64 1267.51,-2229.94 1382.03,-2229.94 1382.03,-2229.94 1382.03,-2229.94 3209.05,-2229.94 3988,-2229.94 4182.67,-2244.94 4961.62,-2244.94 4961.62,-2244.94 4961.62,-2244.94 5774.09,-2244.94 5841.79,-2244.94 6027.26,-2266.01 6077.76,-2220.94 6109.2,-2192.89 6121.66,-2072.14 6126.22,-2005.15"/>
<polygon fill="#dddddd" stroke="#dddddd" points="6129.71,-2005.41 6126.87,-1995.21 6122.73,-2004.96 6129.71,-2005.41"/>
<text text-anchor="middle" x="3526.19" y="-2234.96" font-family="Times,serif" font-size="14.00">Escort chain</text>
</g>
<!-- 45197&#45;&gt;END_NODE -->
<g id="edge54" class="edge">
<title>45197&#45;&gt;END_NODE</title>
<path fill="none" stroke="#dddddd" d="M1043.04,-2225.71C1174.25,-2222.59 1382.64,-2218.05 1562.93,-2215.94 3073.36,-2198.24 3451.09,-2206.94 4961.62,-2206.94 4961.62,-2206.94 4961.62,-2206.94 5774.09,-2206.94 5841.79,-2206.94 6026.55,-2227.21 6077.76,-2182.94 6104.17,-2160.12 6118.29,-2063.5 6124.54,-2005.19"/>
<polygon fill="#dddddd" stroke="#dddddd" points="6127.99,-2005.88 6125.54,-1995.57 6121.03,-2005.16 6127.99,-2005.88"/>
<text text-anchor="middle" x="3526.19" y="-2208.36" font-family="Times,serif" font-size="14.00">Electronic Lock System</text>
</g>
<!-- 45197&#45;&gt;END_NODE -->
<g id="edge55" class="edge">
<title>45197&#45;&gt;END_NODE</title>
<path fill="none" stroke="#dddddd" d="M1042.59,-2219.01C1048.69,-2218.63 1054.72,-2218.27 1060.63,-2217.94 1131.9,-2213.96 1149.77,-2213.73 1221.13,-2211.94 2883.16,-2170.41 3299.07,-2168.94 4961.62,-2168.94 4961.62,-2168.94 4961.62,-2168.94 5774.09,-2168.94 5841.79,-2168.94 6025.58,-2188.07 6077.76,-2144.94 6099.21,-2127.21 6114.33,-2053.8 6122.24,-2004.96"/>
<polygon fill="#dddddd" stroke="#dddddd" points="6125.67,-2005.64 6123.77,-1995.22 6118.76,-2004.56 6125.67,-2005.64"/>
<text text-anchor="middle" x="3526.19" y="-2175.32" font-family="Times,serif" font-size="14.00">Magnetic Keys</text>
</g>
<!-- 45197&#45;&gt;END_NODE -->
<g id="edge56" class="edge">
<title>45197&#45;&gt;END_NODE</title>
<path fill="none" stroke="#dddddd" d="M1041.73,-2209.92C1048.12,-2209.2 1054.44,-2208.53 1060.63,-2207.94 1131.72,-2201.13 1149.75,-2202.53 1221.13,-2199.94 2882.76,-2139.69 3298.9,-2130.94 4961.62,-2130.94 4961.62,-2130.94 4961.62,-2130.94 5774.09,-2130.94 5841.79,-2130.94 6024.21,-2148.35 6077.76,-2106.94 6108.72,-2083 6120.92,-2039.06 6125.69,-2005.43"/>
<polygon fill="#dddddd" stroke="#dddddd" points="6129.16,-2005.87 6126.9,-1995.52 6122.21,-2005.02 6129.16,-2005.87"/>
<text text-anchor="middle" x="3526.19" y="-2141.08" font-family="Times,serif" font-size="14.00">Magnetic Lock</text>
</g>
<!-- 45197&#45;&gt;END_NODE -->
<g id="edge57" class="edge">
<title>45197&#45;&gt;END_NODE</title>
<path fill="none" stroke="#dddddd" d="M1039.62,-2200.31C1046.71,-2199.07 1053.75,-2197.94 1060.63,-2196.94 1211.39,-2175.08 1618.65,-2171.89 1647.68,-2170.94 3120.18,-2123.07 3488.35,-2092.94 4961.62,-2092.94 4961.62,-2092.94 4961.62,-2092.94 5774.09,-2092.94 5841.79,-2092.94 6022.14,-2107.53 6077.76,-2068.94 6099.29,-2054.01 6111.93,-2027.53 6119.23,-2004.41"/>
<polygon fill="#dddddd" stroke="#dddddd" points="6122.57,-2005.43 6121.97,-1994.85 6115.85,-2003.49 6122.57,-2005.43"/>
<text text-anchor="middle" x="3526.19" y="-2114.37" font-family="Times,serif" font-size="14.00">Cell Door</text>
</g>
<!-- 45197&#45;&gt;END_NODE -->
<g id="edge58" class="edge">
<title>45197&#45;&gt;END_NODE</title>
<path fill="none" stroke="#dddddd" d="M1035.61,-2185.67C1044.02,-2183.5 1052.41,-2181.56 1060.63,-2179.94 1130.78,-2166.13 1149.73,-2172.77 1221.13,-2168.94 2881.96,-2079.88 3298.41,-2054.94 4961.62,-2054.94 4961.62,-2054.94 4961.62,-2054.94 5774.09,-2054.94 5909.48,-2054.94 5959.87,-2097.51 6077.76,-2030.94 6090.47,-2023.76 6100.81,-2011.95 6108.77,-1999.99"/>
<polygon fill="#dddddd" stroke="#dddddd" points="6111.58,-2002.1 6113.85,-1991.75 6105.62,-1998.43 6111.58,-2002.1"/>
<text text-anchor="middle" x="3526.19" y="-2072.62" font-family="Times,serif" font-size="14.00">Brent Keys</text>
</g>
<!-- 45197&#45;&gt;END_NODE -->
<g id="edge59" class="edge">
<title>45197&#45;&gt;END_NODE</title>
<path fill="none" stroke="#dddddd" d="M1031.19,-2174.99C1041.03,-2171.58 1050.92,-2168.5 1060.63,-2165.94 1130.04,-2147.67 1149.58,-2153.74 1221.13,-2147.94 1566.64,-2119.95 1653.86,-2125.69 2000.1,-2108.94 3315.43,-2045.3 3644.76,-2016.94 4961.62,-2016.94 4961.62,-2016.94 4961.62,-2016.94 5774.09,-2016.94 5909.95,-2016.94 5946.52,-2017.07 6077.76,-1981.94 6081.25,-1981.01 6084.8,-1979.88 6088.33,-1978.63"/>
<polygon fill="#dddddd" stroke="#dddddd" points="6089.28,-1982.01 6097.34,-1975.13 6086.75,-1975.48 6089.28,-1982.01"/>
<text text-anchor="middle" x="3526.19" y="-2045.15" font-family="Times,serif" font-size="14.00">Other: Specify</text>
</g>
<!-- 45198 -->
<g id="node5" class="node">
<title>45198</title>
<ellipse fill="none" stroke="black" cx="1383.03" cy="-1619.94" rx="161.9" ry="161.9"/>
<text text-anchor="middle" x="1383.03" y="-1614.89" font-family="Times,serif" font-size="14.00">Incident level: 1&#45;5. 1 high risk, 5 no risk</text>
</g>
<!-- 45197&#45;&gt;45198 -->
<g id="edge60" class="edge">
<title>45197&#45;&gt;45198</title>
<path fill="none" stroke="black" d="M915.43,-2097.88C922.65,-1879.07 950.82,-1454.14 1060.63,-1361.44 1084.83,-1341.02 1175.08,-1346.74 1203.13,-1361.44 1246.52,-1384.18 1281.48,-1422.75 1308.58,-1463.26"/>
<polygon fill="black" stroke="black" points="1305.55,-1465.02 1313.94,-1471.49 1311.41,-1461.2 1305.55,-1465.02"/>
<text text-anchor="middle" x="1131.88" y="-1364.64" font-family="Times,serif" font-size="14.00">Class 1 pass key</text>
</g>
<!-- 45197&#45;&gt;45198 -->
<g id="edge61" class="edge">
<title>45197&#45;&gt;45198</title>
<path fill="none" stroke="black" d="M914.47,-2098.19C920.17,-1872.55 946.03,-1424.8 1060.63,-1327.44 1108.9,-1286.44 1147.88,-1296.47 1203.13,-1327.44 1254.84,-1356.43 1293.39,-1407.12 1321.19,-1458.25"/>
<polygon fill="black" stroke="black" points="1317.95,-1459.61 1325.72,-1466.8 1324.13,-1456.33 1317.95,-1459.61"/>
<text text-anchor="middle" x="1131.88" y="-1330.64" font-family="Times,serif" font-size="14.00">Class 2 pass key</text>
</g>
<!-- 45197&#45;&gt;45198 -->
<g id="edge62" class="edge">
<title>45197&#45;&gt;45198</title>
<path fill="none" stroke="black" d="M913.25,-2097.82C916.88,-1862.49 939.39,-1383.28 1060.63,-1279.44 1108.73,-1238.24 1148.92,-1246.69 1203.13,-1279.44 1266.6,-1317.79 1308.67,-1386.95 1335.97,-1452.97"/>
<polygon fill="black" stroke="black" points="1332.67,-1454.16 1339.65,-1462.13 1339.17,-1451.55 1332.67,-1454.16"/>
<text text-anchor="middle" x="1131.88" y="-1282.64" font-family="Times,serif" font-size="14.00">Cell key</text>
</g>
<!-- 45197&#45;&gt;45198 -->
<g id="edge63" class="edge">
<title>45197&#45;&gt;45198</title>
<path fill="none" stroke="black" d="M979.71,-2116.64C1001.97,-2087.94 1029.23,-2059.99 1060.63,-2041.44 1115.9,-2008.8 1153.67,-2058.85 1203.13,-2017.94 1221.01,-2003.15 1212.26,-1990.38 1221.13,-1968.94 1247.51,-1905.12 1278.87,-1835.85 1306.86,-1775.97"/>
<polygon fill="black" stroke="black" points="1309.97,-1777.59 1311.04,-1767.05 1303.63,-1774.62 1309.97,-1777.59"/>
<text text-anchor="middle" x="1131.88" y="-2044.64" font-family="Times,serif" font-size="14.00">Class 3 A1 Suite key</text>
</g>
<!-- 45197&#45;&gt;45198 -->
<g id="edge64" class="edge">
<title>45197&#45;&gt;45198</title>
<path fill="none" stroke="black" d="M963.66,-2108.39C987.14,-2066.77 1019.17,-2023.98 1060.63,-1997.44 1114.46,-1962.98 1151.16,-2015.17 1203.13,-1977.94 1267.06,-1932.14 1309.43,-1856.85 1336.81,-1787.11"/>
<polygon fill="black" stroke="black" points="1340.05,-1788.42 1340.37,-1777.83 1333.52,-1785.91 1340.05,-1788.42"/>
<text text-anchor="middle" x="1131.88" y="-2000.64" font-family="Times,serif" font-size="14.00">Class 3 Accountable key</text>
</g>
<!-- 45197&#45;&gt;45198 -->
<g id="edge65" class="edge">
<title>45197&#45;&gt;45198</title>
<path fill="none" stroke="black" d="M951.94,-2104.14C975.04,-2050.6 1009.96,-1992.43 1060.63,-1957.44 1113.23,-1921.12 1150.27,-1973.89 1203.13,-1937.94 1257.73,-1900.81 1297.53,-1841.19 1325.53,-1783.56"/>
<polygon fill="black" stroke="black" points="1328.67,-1785.11 1329.79,-1774.57 1322.34,-1782.1 1328.67,-1785.11"/>
<text text-anchor="middle" x="1131.88" y="-1960.64" font-family="Times,serif" font-size="14.00">Handcuff key</text>
</g>
<!-- 45197&#45;&gt;45198 -->
<g id="edge66" class="edge">
<title>45197&#45;&gt;45198</title>
<path fill="none" stroke="black" d="M942.23,-2101.65C963.94,-2036.34 1000.51,-1961.46 1060.63,-1917.44 1112.2,-1879.68 1149.22,-1932.3 1203.13,-1897.94 1248.54,-1869 1284.69,-1823.92 1312.28,-1778.44"/>
<polygon fill="black" stroke="black" points="1315.17,-1780.42 1317.26,-1770.03 1309.15,-1776.85 1315.17,-1780.42"/>
<text text-anchor="middle" x="1131.88" y="-1920.64" font-family="Times,serif" font-size="14.00">Escort Chain key</text>
</g>
<!-- 45197&#45;&gt;45198 -->
<g id="edge67" class="edge">
<title>45197&#45;&gt;45198</title>
<path fill="none" stroke="black" d="M934.32,-2099.73C953.93,-2023.12 991.05,-1930.83 1060.63,-1877.44 1111.34,-1838.53 1148.01,-1890.32 1203.13,-1857.94 1239.64,-1836.49 1271.11,-1804.4 1297.02,-1770.66"/>
<polygon fill="black" stroke="black" points="1299.72,-1772.9 1302.92,-1762.8 1294.12,-1768.69 1299.72,-1772.9"/>
<text text-anchor="middle" x="1131.88" y="-1880.64" font-family="Times,serif" font-size="14.00">Class 1 Lock</text>
</g>
<!-- 45197&#45;&gt;45198 -->
<g id="edge68" class="edge">
<title>45197&#45;&gt;45198</title>
<path fill="none" stroke="black" d="M927.63,-2098.75C944.66,-2011.19 981.39,-1900.61 1060.63,-1837.44 1110.61,-1797.59 1146.61,-1847.8 1203.13,-1817.94 1231.16,-1803.13 1256.99,-1782.09 1279.79,-1759.21"/>
<polygon fill="black" stroke="black" points="1282.21,-1761.74 1286.67,-1752.13 1277.19,-1756.86 1282.21,-1761.74"/>
<text text-anchor="middle" x="1131.88" y="-1840.64" font-family="Times,serif" font-size="14.00">Class 2 Lock</text>
</g>
<!-- 45197&#45;&gt;45198 -->
<g id="edge69" class="edge">
<title>45197&#45;&gt;45198</title>
<path fill="none" stroke="black" d="M921.98,-2098.33C936.06,-2000.25 971.59,-1870.71 1060.63,-1797.44 1109.99,-1756.83 1145.02,-1804.57 1203.13,-1777.94 1223.2,-1768.74 1242.67,-1756.53 1260.91,-1742.95"/>
<polygon fill="black" stroke="black" points="1262.74,-1745.96 1268.56,-1737.11 1258.49,-1740.4 1262.74,-1745.96"/>
<text text-anchor="middle" x="1131.88" y="-1800.64" font-family="Times,serif" font-size="14.00">Cell Lock</text>
</g>
<!-- 45197&#45;&gt;45198 -->
<g id="edge70" class="edge">
<title>45197&#45;&gt;45198</title>
<path fill="none" stroke="black" d="M917.2,-2097.98C928.15,-1989.82 961.78,-1840.98 1060.63,-1757.44 1109.45,-1716.18 1143.29,-1760.43 1203.13,-1737.94 1216.04,-1733.09 1228.97,-1727.16 1241.64,-1720.58"/>
<polygon fill="black" stroke="black" points="1243.24,-1723.69 1250.4,-1715.88 1239.93,-1717.52 1243.24,-1723.69"/>
<text text-anchor="middle" x="1131.88" y="-1760.64" font-family="Times,serif" font-size="14.00">Class 3 A1 Suite Lock</text>
</g>
<!-- 45197&#45;&gt;45198 -->
<g id="edge71" class="edge">
<title>45197&#45;&gt;45198</title>
<path fill="none" stroke="black" d="M933.79,-2099.9C958.27,-1965.38 1002.94,-1767.31 1060.63,-1717.44 1084.81,-1696.54 1172.35,-1706.58 1203.13,-1697.94 1210.36,-1695.91 1217.68,-1693.65 1225.03,-1691.21"/>
<polygon fill="black" stroke="black" points="1226.04,-1694.56 1234.36,-1688 1223.76,-1687.94 1226.04,-1694.56"/>
<text text-anchor="middle" x="1131.88" y="-1720.64" font-family="Times,serif" font-size="14.00">Class 3 Accountable Lock</text>
</g>
<!-- 45197&#45;&gt;45198 -->
<g id="edge72" class="edge">
<title>45197&#45;&gt;45198</title>
<path fill="none" stroke="black" d="M930.91,-2099.38C953.76,-1954.45 997.94,-1732.71 1060.63,-1677.44 1084.6,-1656.31 1171.64,-1663.43 1203.13,-1657.94 1206.54,-1657.35 1209.98,-1656.73 1213.45,-1656.11"/>
<polygon fill="black" stroke="black" points="1213.91,-1659.58 1223.11,-1654.32 1212.64,-1652.7 1213.91,-1659.58"/>
<text text-anchor="middle" x="1131.88" y="-1680.64" font-family="Times,serif" font-size="14.00">Handcuffs</text>
</g>
<!-- 45197&#45;&gt;45198 -->
<g id="edge73" class="edge">
<title>45197&#45;&gt;45198</title>
<path fill="none" stroke="black" d="M927.5,-2098.74C947.84,-1942.85 990.39,-1695.44 1060.63,-1637.44 1073.1,-1627.14 1140.06,-1622.58 1209.66,-1620.67"/>
<polygon fill="black" stroke="black" points="1209.42,-1624.18 1219.33,-1620.42 1209.24,-1617.18 1209.42,-1624.18"/>
<text text-anchor="middle" x="1131.88" y="-1640.64" font-family="Times,serif" font-size="14.00">Escort chain</text>
</g>
<!-- 45197&#45;&gt;45198 -->
<g id="edge74" class="edge">
<title>45197&#45;&gt;45198</title>
<path fill="none" stroke="black" d="M924.82,-2098.64C942.91,-1933.07 983.7,-1661.39 1060.63,-1600.44 1084.86,-1581.24 1148.14,-1582.28 1212.22,-1589.64"/>
<polygon fill="black" stroke="black" points="1211.49,-1593.08 1221.83,-1590.8 1212.32,-1586.13 1211.49,-1593.08"/>
<text text-anchor="middle" x="1131.88" y="-1603.64" font-family="Times,serif" font-size="14.00">Electronic Lock System</text>
</g>
<!-- 45197&#45;&gt;45198 -->
<g id="edge75" class="edge">
<title>45197&#45;&gt;45198</title>
<path fill="none" stroke="black" d="M923.01,-2098.33C939.46,-1924.15 978.81,-1630.07 1060.63,-1564.44 1110.03,-1524.81 1140.51,-1554.95 1203.13,-1564.44 1208.05,-1565.19 1213.03,-1566.04 1218.04,-1566.99"/>
<polygon fill="black" stroke="black" points="1217.05,-1570.36 1227.54,-1568.92 1218.43,-1563.5 1217.05,-1570.36"/>
<text text-anchor="middle" x="1131.88" y="-1567.64" font-family="Times,serif" font-size="14.00">Magnetic Keys</text>
</g>
<!-- 45197&#45;&gt;45198 -->
<g id="edge76" class="edge">
<title>45197&#45;&gt;45198</title>
<path fill="none" stroke="black" d="M921.18,-2098.28C935.78,-1914.83 973.32,-1595.34 1060.63,-1524.44 1111.03,-1483.51 1178.53,-1496.38 1238.66,-1523.94"/>
<polygon fill="black" stroke="black" points="1237.12,-1527.08 1247.65,-1528.21 1240.12,-1520.76 1237.12,-1527.08"/>
<text text-anchor="middle" x="1131.88" y="-1527.64" font-family="Times,serif" font-size="14.00">Magnetic Lock</text>
</g>
<!-- 45197&#45;&gt;45198 -->
<g id="edge77" class="edge">
<title>45197&#45;&gt;45198</title>
<path fill="none" stroke="black" d="M919.28,-2098.13C931.72,-1904.1 966.86,-1554.57 1060.63,-1477.44 1085.08,-1457.32 1173.24,-1466.99 1203.13,-1477.44 1220.99,-1483.69 1238.4,-1492.54 1254.91,-1502.82"/>
<polygon fill="black" stroke="black" points="1252.95,-1505.72 1263.25,-1508.21 1256.74,-1499.84 1252.95,-1505.72"/>
<text text-anchor="middle" x="1131.88" y="-1480.64" font-family="Times,serif" font-size="14.00">Cell Door</text>
</g>
<!-- 45197&#45;&gt;45198 -->
<g id="edge78" class="edge">
<title>45197&#45;&gt;45198</title>
<path fill="none" stroke="black" d="M918.11,-2097.98C929.1,-1896.92 962.46,-1526.83 1060.63,-1445.44 1109.38,-1405.02 1144.47,-1421.57 1203.13,-1445.44 1227.68,-1455.43 1250.7,-1470.59 1271.52,-1487.88"/>
<polygon fill="black" stroke="black" points="1268.97,-1490.31 1278.85,-1494.15 1273.53,-1484.99 1268.97,-1490.31"/>
<text text-anchor="middle" x="1131.88" y="-1448.64" font-family="Times,serif" font-size="14.00">Brent Keys</text>
</g>
<!-- 45197&#45;&gt;45198 -->
<g id="edge79" class="edge">
<title>45197&#45;&gt;45198</title>
<path fill="none" stroke="black" d="M916.6,-2098.25C925.54,-1887.65 956.18,-1487.92 1060.63,-1400.44 1084.91,-1380.11 1174.52,-1386.85 1203.13,-1400.44 1237.38,-1416.71 1267.23,-1443.11 1292.23,-1472.05"/>
<polygon fill="black" stroke="black" points="1289.4,-1474.12 1298.52,-1479.52 1294.76,-1469.62 1289.4,-1474.12"/>
<text text-anchor="middle" x="1131.88" y="-1403.64" font-family="Times,serif" font-size="14.00">Other : &#160;Specify</text>
</g>
<!-- 45198&#45;&gt;END_NODE -->
<g id="edge80" class="edge">
<title>45198&#45;&gt;END_NODE</title>
<path fill="none" stroke="#dddddd" d="M1392.82,-1457.84C1418.69,-1061.93 1511.49,-77.94 1794.77,-77.94 1794.77,-77.94 1794.77,-77.94 5774.09,-77.94 5909.29,-77.94 5983.7,1.17 6077.76,-95.94 6110.41,-129.65 6125.64,-1632.09 6128.22,-1914.46"/>
<polygon fill="#dddddd" stroke="#dddddd" points="6124.72,-1914.38 6128.31,-1924.35 6131.72,-1914.32 6124.72,-1914.38"/>
<text text-anchor="middle" x="3701.08" y="-81.14" font-family="Times,serif" font-size="14.00">Enter Value:</text>
</g>
<!-- 45199 -->
<g id="node6" class="node">
<title>45199</title>
<ellipse fill="none" stroke="black" cx="1795.77" cy="-529.94" rx="148.08" ry="148.08"/>
<text text-anchor="middle" x="1795.77" y="-524.89" font-family="Times,serif" font-size="14.00">Has any remedial action been taken?</text>
</g>
<!-- 45198&#45;&gt;45199 -->
<g id="edge81" class="edge">
<title>45198&#45;&gt;45199</title>
<path fill="none" stroke="black" d="M1441.14,-1468.38C1519.73,-1259.81 1660.36,-886.63 1738.5,-679.25"/>
<polygon fill="black" stroke="black" points="1741.74,-680.6 1741.99,-670 1735.19,-678.13 1741.74,-680.6"/>
<text text-anchor="middle" x="1596.31" y="-1143.4" font-family="Times,serif" font-size="14.00">Enter Value:</text>
</g>
<!-- 45199&#45;&gt;END_NODE -->
<g id="edge82" class="edge">
<title>45199&#45;&gt;END_NODE</title>
<path fill="none" stroke="#dddddd" d="M1859.93,-395.98C1917.32,-296.12 2012.44,-176.94 2139.5,-176.94 2139.5,-176.94 2139.5,-176.94 5774.09,-176.94 5909.59,-176.94 5984.85,-105.31 6077.76,-203.94 6107.98,-236.02 6125.09,-1642.27 6128.13,-1914.56"/>
<polygon fill="#dddddd" stroke="#dddddd" points="6124.63,-1914.47 6128.24,-1924.43 6131.63,-1914.39 6124.63,-1914.47"/>
<text text-anchor="middle" x="3924.08" y="-180.14" font-family="Times,serif" font-size="14.00">Yes</text>
</g>
<!-- 45199&#45;&gt;END_NODE -->
<g id="edge83" class="edge">
<title>45199&#45;&gt;END_NODE</title>
<path fill="none" stroke="#dddddd" d="M1847.84,-390.93C1881.17,-317.22 1931.38,-230.3 2000.1,-172.94 2050.52,-130.86 2073.83,-123.94 2139.5,-123.94 2139.5,-123.94 2139.5,-123.94 5774.09,-123.94 5909.55,-123.94 5984.76,-51.45 6077.76,-149.94 6109,-183.02 6125.33,-1637.02 6128.17,-1914.47"/>
<polygon fill="#dddddd" stroke="#dddddd" points="6124.67,-1914.21 6128.27,-1924.17 6131.67,-1914.14 6124.67,-1914.21"/>
<text text-anchor="middle" x="3924.08" y="-127.14" font-family="Times,serif" font-size="14.00">No</text>
</g>
<!-- 45200 -->
<g id="node7" class="node">
<title>45200</title>
<ellipse fill="none" stroke="black" cx="2140.5" cy="-529.94" rx="140.41" ry="140.41"/>
<text text-anchor="middle" x="2140.5" y="-524.89" font-family="Times,serif" font-size="14.00">Describe the remedial action taken</text>
</g>
<!-- 45199&#45;&gt;45200 -->
<g id="edge84" class="edge">
<title>45199&#45;&gt;45200</title>
<path fill="none" stroke="black" d="M1944.11,-529.94C1958.78,-529.94 1973.7,-529.94 1988.41,-529.94"/>
<polygon fill="black" stroke="black" points="1988.1,-533.44 1998.1,-529.94 1988.1,-526.44 1988.1,-533.44"/>
<text text-anchor="middle" x="1971.97" y="-533.14" font-family="Times,serif" font-size="14.00">Yes</text>
</g>
<!-- 45199&#45;&gt;45200 -->
<g id="edge85" class="edge">
<title>45199&#45;&gt;45200</title>
<path fill="none" stroke="#dddddd" d="M1942.84,-508.98C1956.1,-508.53 1969.34,-508.61 1982.1,-509.44 1984.61,-509.6 1987.15,-509.78 1989.7,-509.97"/>
<polygon fill="#dddddd" stroke="#dddddd" points="1989.22,-513.45 1999.47,-510.77 1989.78,-506.47 1989.22,-513.45"/>
<text text-anchor="middle" x="1971.97" y="-512.64" font-family="Times,serif" font-size="14.00">No</text>
</g>
<!-- 45202 -->
<g id="node8" class="node">
<title>45202</title>
<ellipse fill="none" stroke="black" cx="2873.53" cy="-725.94" rx="139.89" ry="139.89"/>
<text text-anchor="middle" x="2873.53" y="-720.89" font-family="Times,serif" font-size="14.00">Have the lost item (s) been found?</text>
</g>
<!-- 45199&#45;&gt;45202 -->
<g id="edge86" class="edge">
<title>45199&#45;&gt;45202</title>
<path fill="none" stroke="#dddddd" d="M1877.26,-653.57C1901.06,-680.28 1929.53,-704.98 1961.85,-719.94 2210.18,-834.94 2539.02,-797.17 2725.98,-760.65"/>
<polygon fill="#dddddd" stroke="#dddddd" points="2726.64,-764.08 2735.77,-758.71 2725.28,-757.22 2726.64,-764.08"/>
<text text-anchor="middle" x="2360.79" y="-800.32" font-family="Times,serif" font-size="14.00">No</text>
</g>
<!-- 45199&#45;&gt;45202 -->
<g id="edge88" class="edge">
<title>45199&#45;&gt;45202</title>
<path fill="none" stroke="black" d="M1907,-628.26C1935.51,-648.55 1967.44,-667.27 2000.1,-678.94 2128.76,-724.91 2508.39,-729.45 2722.04,-728.11"/>
<polygon fill="black" stroke="black" points="2721.86,-731.62 2731.83,-728.05 2721.81,-724.62 2721.86,-731.62"/>
<text text-anchor="middle" x="2360.79" y="-727.85" font-family="Times,serif" font-size="14.00">No</text>
</g>
<!-- 45208 -->
<g id="node9" class="node">
<title>45208</title>
<ellipse fill="none" stroke="black" cx="5773.09" cy="-1527.94" rx="195.17" ry="195.17"/>
<text text-anchor="middle" x="5773.09" y="-1522.89" font-family="Times,serif" font-size="14.00">Has the key lock incident been reported to NOU?</text>
</g>
<!-- 45199&#45;&gt;45208 -->
<g id="edge87" class="edge">
<title>45199&#45;&gt;45208</title>
<path fill="none" stroke="#dddddd" d="M1906.02,-430.75C1934.69,-410.35 1966.93,-391.79 2000.1,-380.94 2285.84,-287.46 2379.03,-378.79 2674.39,-434.94 3112.73,-518.27 3350.12,-342.28 3649.71,-672.94 3687.98,-715.19 3636.02,-752.55 3667.71,-799.94 3692.01,-836.3 3710.6,-837.27 3752.46,-849.94 3834.03,-874.63 4455.98,-833.84 4518.32,-891.94 4541.75,-913.78 4529.47,-1003.66 4536.32,-1034.94 4548.39,-1090.04 4536.78,-1114.08 4574.57,-1155.94 4674.33,-1266.45 4746.49,-1227.3 4882,-1288.94 4954.29,-1321.83 4969.82,-1335.68 5043.25,-1365.94 5210.05,-1434.69 5306.92,-1364.78 5426.42,-1499.94 5451.42,-1528.22 5415.04,-1559.25 5444.42,-1582.94 5483.46,-1614.42 5533.76,-1618.18 5583.18,-1609.41"/>
<polygon fill="#dddddd" stroke="#dddddd" points="5583.75,-1612.87 5592.89,-1607.51 5582.4,-1606 5583.75,-1612.87"/>
<text text-anchor="middle" x="3701.08" y="-847.86" font-family="Times,serif" font-size="14.00">No</text>
</g>
<!-- 45200&#45;&gt;END_NODE -->
<g id="edge89" class="edge">
<title>45200&#45;&gt;END_NODE</title>
<path fill="none" stroke="#dddddd" d="M2262.58,-460.17C2343.19,-420.21 2452.93,-377.94 2556.52,-377.94 2556.52,-377.94 2556.52,-377.94 3925.08,-377.94 4200.81,-377.94 4269.72,-371.94 4545.45,-371.94 4545.45,-371.94 4545.45,-371.94 5774.09,-371.94 5910.6,-371.94 5987.07,-315.92 6077.76,-417.94 6128.73,-475.28 6129.2,-1665.19 6128.74,-1914.42"/>
<polygon fill="#dddddd" stroke="#dddddd" points="6125.24,-1914.37 6128.72,-1924.38 6132.24,-1914.39 6125.24,-1914.37"/>
<text text-anchor="middle" x="4176.33" y="-379.95" font-family="Times,serif" font-size="14.00">Complete relock</text>
</g>
<!-- 45200&#45;&gt;END_NODE -->
<g id="edge90" class="edge">
<title>45200&#45;&gt;END_NODE</title>
<path fill="none" stroke="#dddddd" d="M2241.83,-432.51C2259.82,-418.67 2279.17,-405.81 2298.91,-395.94 2403.9,-343.49 2439.16,-337.94 2556.52,-337.94 2556.52,-337.94 2556.52,-337.94 3925.08,-337.94 4200.81,-337.94 4269.72,-333.94 4545.45,-333.94 4545.45,-333.94 4545.45,-333.94 5774.09,-333.94 5841.75,-333.94 6030.9,-307.14 6077.76,-355.94 6133.17,-413.65 6130.09,-1659.46 6128.87,-1914.55"/>
<polygon fill="#dddddd" stroke="#dddddd" points="6125.37,-1914.41 6128.82,-1924.43 6132.37,-1914.45 6125.37,-1914.41"/>
<text text-anchor="middle" x="4176.33" y="-340.35" font-family="Times,serif" font-size="14.00">Partial relock</text>
</g>
<!-- 45200&#45;&gt;END_NODE -->
<g id="edge91" class="edge">
<title>45200&#45;&gt;END_NODE</title>
<path fill="none" stroke="#dddddd" d="M2218.73,-413.45C2241.57,-386.87 2268.67,-361.36 2298.91,-343.94 2399.69,-285.89 2440.22,-297.94 2556.52,-297.94 2556.52,-297.94 2556.52,-297.94 3925.08,-297.94 4200.8,-297.94 4269.73,-295.94 4545.45,-295.94 4545.45,-295.94 4545.45,-295.94 5774.09,-295.94 5841.86,-295.94 6031.32,-274.59 6077.76,-323.94 6133.74,-383.43 6130.18,-1656.21 6128.88,-1914.47"/>
<polygon fill="#dddddd" stroke="#dddddd" points="6125.39,-1914.12 6128.83,-1924.14 6132.39,-1914.15 6125.39,-1914.12"/>
<text text-anchor="middle" x="4176.33" y="-300.75" font-family="Times,serif" font-size="14.00">Complete replacement</text>
</g>
<!-- 45200&#45;&gt;END_NODE -->
<g id="edge92" class="edge">
<title>45200&#45;&gt;END_NODE</title>
<path fill="none" stroke="#dddddd" d="M2199.96,-402.23C2224.78,-361.65 2257.67,-320.68 2298.91,-294.94 2396.94,-233.78 2440.98,-259.94 2556.52,-259.94 2556.52,-259.94 2556.52,-259.94 3702.08,-259.94 4006.33,-259.94 4082.39,-257.94 4386.64,-257.94 4386.64,-257.94 4386.64,-257.94 5774.09,-257.94 5909.85,-257.94 5985.57,-191.29 6077.76,-290.94 6134.41,-352.18 6130.3,-1652.96 6128.9,-1914.41"/>
<polygon fill="#dddddd" stroke="#dddddd" points="6125.4,-1914.19 6128.84,-1924.21 6132.4,-1914.23 6125.4,-1914.19"/>
<text text-anchor="middle" x="4176.33" y="-261.76" font-family="Times,serif" font-size="14.00">Partial replacement</text>
</g>
<!-- 45200&#45;&gt;END_NODE -->
<g id="edge93" class="edge">
<title>45200&#45;&gt;END_NODE</title>
<path fill="none" stroke="#dddddd" d="M2185.75,-396.69C2210.51,-342.76 2247.08,-285.24 2298.91,-250.94 2394.99,-187.36 2441.31,-221.94 2556.52,-221.94 2556.52,-221.94 2556.52,-221.94 3702.08,-221.94 4006.34,-221.94 4082.39,-217.94 4386.64,-217.94 4386.64,-217.94 4386.64,-217.94 5774.09,-217.94 5841.67,-217.94 6030.54,-185.61 6077.76,-233.94 6108,-264.89 6125.07,-1644.64 6128.12,-1914.46"/>
<polygon fill="#dddddd" stroke="#dddddd" points="6124.62,-1914.27 6128.23,-1924.23 6131.62,-1914.19 6124.62,-1914.27"/>
<text text-anchor="middle" x="4176.33" y="-222.39" font-family="Times,serif" font-size="14.00">Forensic testing</text>
</g>
<!-- 45201 -->
<g id="node10" class="node">
<title>45201</title>
<ellipse fill="none" stroke="black" cx="2557.52" cy="-560.94" rx="116.86" ry="116.86"/>
<text text-anchor="middle" x="2557.52" y="-555.89" font-family="Times,serif" font-size="14.00">Estimated cost of this action</text>
</g>
<!-- 45200&#45;&gt;45201 -->
<g id="edge94" class="edge">
<title>45200&#45;&gt;45201</title>
<path fill="none" stroke="black" d="M2272.97,-577.66C2281.68,-579.74 2290.37,-581.54 2298.91,-582.94 2341.71,-589.95 2388.89,-588.54 2431.06,-584.06"/>
<polygon fill="black" stroke="black" points="2431.19,-587.57 2440.74,-582.96 2430.4,-580.61 2431.19,-587.57"/>
<text text-anchor="middle" x="2360.79" y="-591.01" font-family="Times,serif" font-size="14.00">Complete relock</text>
</g>
<!-- 45200&#45;&gt;45201 -->
<g id="edge95" class="edge">
<title>45200&#45;&gt;45201</title>
<path fill="none" stroke="black" d="M2280.55,-541.52C2286.75,-542.01 2292.9,-542.48 2298.91,-542.94 2341.29,-546.17 2387.62,-549.48 2429.15,-552.36"/>
<polygon fill="black" stroke="black" points="2428.72,-555.84 2438.93,-553.04 2429.2,-548.86 2428.72,-555.84"/>
<text text-anchor="middle" x="2360.79" y="-554.85" font-family="Times,serif" font-size="14.00">Partial relock</text>
</g>
<!-- 45200&#45;&gt;45201 -->
<g id="edge96" class="edge">
<title>45200&#45;&gt;45201</title>
<path fill="none" stroke="black" d="M2280.74,-517.09C2326.17,-515.33 2376.73,-515.97 2422.66,-522.44 2426.55,-522.99 2430.48,-523.62 2434.44,-524.33"/>
<polygon fill="black" stroke="black" points="2433.68,-527.75 2444.16,-526.21 2435.01,-520.87 2433.68,-527.75"/>
<text text-anchor="middle" x="2360.79" y="-525.64" font-family="Times,serif" font-size="14.00">Complete replacement</text>
</g>
<!-- 45200&#45;&gt;45201 -->
<g id="edge97" class="edge">
<title>45200&#45;&gt;45201</title>
<path fill="none" stroke="black" d="M2276.59,-494.37C2323.24,-487.09 2375.59,-484.54 2422.66,-495.44 2429.77,-497.09 2436.94,-499.17 2444.07,-501.57"/>
<polygon fill="black" stroke="black" points="2442.46,-504.71 2453.06,-504.78 2444.82,-498.12 2442.46,-504.71"/>
<text text-anchor="middle" x="2360.79" y="-498.64" font-family="Times,serif" font-size="14.00">Partial replacement</text>
</g>
<!-- 45200&#45;&gt;45201 -->
<g id="edge98" class="edge">
<title>45200&#45;&gt;45201</title>
<path fill="none" stroke="black" d="M2269.4,-473.29C2317.89,-459.15 2373.29,-451.91 2422.66,-467.44 2434.15,-471.06 2445.51,-476.05 2456.48,-481.86"/>
<polygon fill="black" stroke="black" points="2454.67,-484.86 2465.1,-486.67 2458.08,-478.74 2454.67,-484.86"/>
<text text-anchor="middle" x="2360.79" y="-470.64" font-family="Times,serif" font-size="14.00">Forensic testing</text>
</g>
<!-- 45200&#45;&gt;45201 -->
<g id="edge99" class="edge">
<title>45200&#45;&gt;45201</title>
<path fill="none" stroke="black" d="M2264.1,-597.22C2275.62,-601.53 2287.33,-605.23 2298.91,-607.94 2352.46,-620.48 2368.44,-617.18 2422.66,-607.94 2427.37,-607.14 2432.14,-606.19 2436.93,-605.11"/>
<polygon fill="black" stroke="black" points="2437.75,-608.52 2446.64,-602.76 2436.1,-601.71 2437.75,-608.52"/>
<text text-anchor="middle" x="2360.79" y="-619.36" font-family="Times,serif" font-size="14.00">Other</text>
</g>
<!-- 45202&#45;&gt;END_NODE -->
<g id="edge103" class="edge">
<title>45202&#45;&gt;END_NODE</title>
<path fill="none" stroke="#dddddd" d="M2989.96,-647.75C3115.83,-570.22 3325.98,-462.94 3525.19,-462.94 3525.19,-462.94 3525.19,-462.94 4388.64,-462.94 5090.7,-462.94 5270.77,-388.99 5968.26,-468.94 6017.86,-474.63 6045.97,-455.46 6077.76,-493.94 6124.07,-549.99 6128.23,-1672.91 6128.59,-1914.43"/>
<polygon fill="#dddddd" stroke="#dddddd" points="6125.09,-1914.39 6128.6,-1924.39 6132.09,-1914.38 6125.09,-1914.39"/>
<text text-anchor="middle" x="4546.45" y="-464.95" font-family="Times,serif" font-size="14.00">Yes</text>
</g>
<!-- 45202&#45;&gt;END_NODE -->
<g id="edge104" class="edge">
<title>45202&#45;&gt;END_NODE</title>
<path fill="none" stroke="#dddddd" d="M2958.39,-837.45C3108.54,-1040.09 3428.3,-1485.24 3649.71,-1889.94 3659.26,-1907.4 3652.63,-1917.95 3667.71,-1930.94 3716.75,-1973.18 3874.66,-1978.94 4961.62,-1978.94 4961.62,-1978.94 4961.62,-1978.94 5774.09,-1978.94 5909.2,-1978.94 5943,-1974.67 6077.76,-1964.94 6079.83,-1964.79 6081.94,-1964.63 6084.08,-1964.46"/>
<polygon fill="#dddddd" stroke="#dddddd" points="6084.38,-1967.94 6094.03,-1963.58 6083.76,-1960.97 6084.38,-1967.94"/>
<text text-anchor="middle" x="4546.45" y="-1981.7" font-family="Times,serif" font-size="14.00">No</text>
</g>
<!-- 45203 -->
<g id="node11" class="node">
<title>45203</title>
<ellipse fill="none" stroke="black" cx="3526.19" cy="-805.94" rx="123.52" ry="123.52"/>
<text text-anchor="middle" x="3526.19" y="-800.89" font-family="Times,serif" font-size="14.00">Has a replica key been found?</text>
</g>
<!-- 45202&#45;&gt;45203 -->
<g id="edge105" class="edge">
<title>45202&#45;&gt;45203</title>
<path fill="none" stroke="black" d="M3003.76,-777.22C3013.03,-779.82 3022.32,-782.1 3031.42,-783.94 3151.39,-808.17 3290.95,-812.23 3391.03,-811.08"/>
<polygon fill="black" stroke="black" points="3390.96,-814.58 3400.91,-810.94 3390.86,-807.58 3390.96,-814.58"/>
<text text-anchor="middle" x="3208.05" y="-814.45" font-family="Times,serif" font-size="14.00">Yes</text>
</g>
<!-- 45202&#45;&gt;45203 -->
<g id="edge106" class="edge">
<title>45202&#45;&gt;45203</title>
<path fill="none" stroke="black" d="M3012.66,-742.25C3019,-742.85 3025.28,-743.42 3031.42,-743.94 3188.1,-757.24 3229.82,-736.15 3384.67,-763.44 3388.81,-764.17 3392.99,-764.98 3397.2,-765.86"/>
<polygon fill="black" stroke="black" points="3396.39,-769.27 3406.91,-768.01 3397.9,-762.43 3396.39,-769.27"/>
<text text-anchor="middle" x="3208.05" y="-766.64" font-family="Times,serif" font-size="14.00">No</text>
</g>
<!-- 45202&#45;&gt;45203 -->
<g id="edge107" class="edge">
<title>45202&#45;&gt;45203</title>
<path fill="none" stroke="black" d="M3012.17,-705.63C3116.34,-694.93 3261.92,-690.07 3384.67,-723.44 3394,-725.98 3403.33,-729.3 3412.51,-733.16"/>
<polygon fill="black" stroke="black" points="3410.86,-736.26 3421.42,-737.12 3413.7,-729.86 3410.86,-736.26"/>
<text text-anchor="middle" x="3208.05" y="-726.64" font-family="Times,serif" font-size="14.00">N/A</text>
</g>
<!-- 45208&#45;&gt;END_NODE -->
<g id="edge161" class="edge">
<title>45208&#45;&gt;END_NODE</title>
<path fill="none" stroke="black" d="M5961.65,-1579.67C6005.62,-1600.09 6048.2,-1628.14 6077.76,-1666.44 6107.15,-1704.53 6120.68,-1842.27 6125.88,-1914.7"/>
<polygon fill="black" stroke="black" points="6122.36,-1914.5 6126.54,-1924.23 6129.34,-1914.02 6122.36,-1914.5"/>
<text text-anchor="middle" x="6032.01" y="-1669.64" font-family="Times,serif" font-size="14.00">Yes: Date</text>
</g>
<!-- 45208&#45;&gt;END_NODE -->
<g id="edge162" class="edge">
<title>45208&#45;&gt;END_NODE</title>
<path fill="none" stroke="black" d="M5968.46,-1519.7C6009.26,-1527.24 6048.69,-1542.93 6077.76,-1572.44 6124.52,-1619.91 6129.47,-1822.6 6129.23,-1914.42"/>
<polygon fill="black" stroke="black" points="6125.74,-1914.3 6129.19,-1924.32 6132.74,-1914.34 6125.74,-1914.3"/>
<text text-anchor="middle" x="6032.01" y="-1575.64" font-family="Times,serif" font-size="14.00">No</text>
</g>
<!-- 45208&#45;&gt;END_NODE -->
<g id="edge163" class="edge">
<title>45208&#45;&gt;END_NODE</title>
<path fill="none" stroke="black" d="M5928.24,-1647.07C5947.34,-1659.87 5966.95,-1672.14 5986.26,-1682.94 6024.62,-1704.39 6049.6,-1686.7 6077.76,-1720.44 6102.01,-1749.49 6117.13,-1853.96 6124.09,-1914.9"/>
<polygon fill="black" stroke="black" points="6120.58,-1915.06 6125.16,-1924.61 6127.54,-1914.28 6120.58,-1915.06"/>
<text text-anchor="middle" x="6032.01" y="-1723.64" font-family="Times,serif" font-size="14.00">Incident Ref No:</text>
</g>
<!-- 45201&#45;&gt;END_NODE -->
<g id="edge100" class="edge">
<title>45201&#45;&gt;END_NODE</title>
<path fill="none" stroke="#dddddd" d="M2652.86,-492.58C2712.75,-455.82 2793.61,-417.94 2872.53,-417.94 2872.53,-417.94 2872.53,-417.94 4177.33,-417.94 4791.83,-417.94 4945.45,-421.96 5559.92,-427.94 5675.29,-429.07 6007.01,-373.82 6077.76,-464.94 6123.28,-523.56 6128.06,-1669.9 6128.56,-1914.34"/>
<polygon fill="#dddddd" stroke="#dddddd" points="6125.06,-1914.11 6128.58,-1924.1 6132.06,-1914.1 6125.06,-1914.11"/>
<text text-anchor="middle" x="4387.64" y="-421.66" font-family="Times,serif" font-size="14.00"></text>
</g>
<!-- 45201&#45;&gt;45202 -->
<g id="edge101" class="edge">
<title>45201&#45;&gt;45202</title>
<path fill="none" stroke="black" d="M2669.06,-597.41C2684.97,-603.8 2700.92,-610.86 2715.64,-618.44 2727.1,-624.35 2738.72,-630.96 2750.18,-637.91"/>
<polygon fill="black" stroke="black" points="2748.13,-640.76 2758.47,-643.04 2751.81,-634.8 2748.13,-640.76"/>
<text text-anchor="middle" x="2704.01" y="-621.64" font-family="Times,serif" font-size="14.00"></text>
</g>
<!-- 45201&#45;&gt;45202 -->
<g id="edge102" class="edge">
<title>45201&#45;&gt;45202</title>
<path fill="none" stroke="black" d="M2659.9,-617.5C2670.84,-623.45 2681.82,-629.36 2692.39,-634.94 2707.12,-642.73 2722.61,-650.77 2738.05,-658.7"/>
<polygon fill="black" stroke="black" points="2736.34,-661.75 2746.83,-663.2 2739.53,-655.52 2736.34,-661.75"/>
<text text-anchor="middle" x="2704.01" y="-648.31" font-family="Times,serif" font-size="14.00">N/A</text>
</g>
<!-- 45203&#45;&gt;END_NODE -->
<g id="edge108" class="edge">
<title>45203&#45;&gt;END_NODE</title>
<path fill="none" stroke="#dddddd" d="M3539.1,-929.1C3566.49,-1206.86 3634.18,-1860.63 3667.71,-1894.94 3747.95,-1977.07 3808.27,-1933.94 3923.08,-1933.94 3923.08,-1933.94 3923.08,-1933.94 4547.45,-1933.94 5156.57,-1933.94 5897.52,-1953.47 6084.27,-1958.68"/>
<polygon fill="#dddddd" stroke="#dddddd" points="6083.91,-1962.17 6094,-1958.95 6084.1,-1955.17 6083.91,-1962.17"/>
<text text-anchor="middle" x="4728.29" y="-1938.79" font-family="Times,serif" font-size="14.00">Yes</text>
</g>
<!-- 45203&#45;&gt;END_NODE -->
<g id="edge109" class="edge">
<title>45203&#45;&gt;END_NODE</title>
<path fill="none" stroke="#dddddd" d="M3545.62,-928.21C3591.53,-1209.97 3721.96,-1880.94 3923.08,-1880.94 3923.08,-1880.94 3923.08,-1880.94 4547.45,-1880.94 5179.52,-1880.94 5337.43,-1903.27 5968.26,-1942.94 6017,-1946.01 6029.28,-1946.14 6077.76,-1951.94 6079.96,-1952.2 6082.21,-1952.49 6084.47,-1952.79"/>
<polygon fill="#dddddd" stroke="#dddddd" points="6083.95,-1956.25 6094.34,-1954.21 6084.94,-1949.33 6083.95,-1956.25"/>
<text text-anchor="middle" x="4728.29" y="-1886.78" font-family="Times,serif" font-size="14.00">No</text>
</g>
<!-- 45204 -->
<g id="node12" class="node">
<title>45204</title>
<ellipse fill="none" stroke="black" cx="3924.08" cy="-668.94" rx="171.63" ry="171.63"/>
<text text-anchor="middle" x="3924.08" y="-663.89" font-family="Times,serif" font-size="14.00">What action was taken to find these items?</text>
</g>
<!-- 45203&#45;&gt;45204 -->
<g id="edge110" class="edge">
<title>45203&#45;&gt;45204</title>
<path fill="none" stroke="black" d="M3639.47,-756.24C3648.97,-752.45 3658.47,-748.8 3667.71,-745.44 3693.34,-736.12 3720.7,-727.04 3747.64,-718.58"/>
<polygon fill="black" stroke="black" points="3748.39,-722.01 3756.89,-715.69 3746.31,-715.33 3748.39,-722.01"/>
<text text-anchor="middle" x="3701.08" y="-748.64" font-family="Times,serif" font-size="14.00">Yes</text>
</g>
<!-- 45203&#45;&gt;45204 -->
<g id="edge111" class="edge">
<title>45203&#45;&gt;45204</title>
<path fill="none" stroke="#dddddd" d="M3648.32,-785.51C3676.94,-779.24 3707.09,-771.43 3734.46,-761.94 3743.2,-758.91 3752.06,-755.57 3760.92,-752.01"/>
<polygon fill="#dddddd" stroke="#dddddd" points="3762.01,-755.35 3769.93,-748.31 3759.35,-748.87 3762.01,-755.35"/>
<text text-anchor="middle" x="3701.08" y="-782.98" font-family="Times,serif" font-size="14.00">No</text>
</g>
<!-- 45205 -->
<g id="node13" class="node">
<title>45205</title>
<ellipse fill="none" stroke="black" cx="4387.64" cy="-1031.94" rx="130.68" ry="130.68"/>
<text text-anchor="middle" x="4387.64" y="-1026.89" font-family="Times,serif" font-size="14.00">Were tools used in the incident?</text>
</g>
<!-- 45203&#45;&gt;45205 -->
<g id="edge112" class="edge">
<title>45203&#45;&gt;45205</title>
<path fill="none" stroke="black" d="M3573.11,-920.61C3595.42,-961.42 3626.5,-1003.32 3667.71,-1027.94 3846.37,-1134.7 4097.31,-1104.08 4250.57,-1069.75"/>
<polygon fill="black" stroke="black" points="4250.98,-1073.25 4259.95,-1067.61 4249.43,-1066.42 4250.98,-1073.25"/>
<text text-anchor="middle" x="3924.08" y="-1105.02" font-family="Times,serif" font-size="14.00">No</text>
</g>
<!-- 45203&#45;&gt;45205 -->
<g id="edge113" class="edge">
<title>45203&#45;&gt;45205</title>
<path fill="none" stroke="black" d="M3636.84,-861.26C3647.18,-865.79 3657.57,-870.09 3667.71,-873.94 3860.26,-947.09 3911.67,-959.82 4113.71,-999.94 4156.34,-1008.41 4203.2,-1014.9 4245.88,-1019.75"/>
<polygon fill="black" stroke="black" points="4245.38,-1023.22 4255.71,-1020.85 4246.15,-1016.26 4245.38,-1023.22"/>
<text text-anchor="middle" x="3924.08" y="-999.22" font-family="Times,serif" font-size="14.00">N/A</text>
</g>
<!-- 45204&#45;&gt;END_NODE -->
<g id="edge114" class="edge">
<title>45204&#45;&gt;END_NODE</title>
<path fill="none" stroke="#dddddd" d="M4095.12,-650.91C4581.5,-601.33 5951.74,-476.28 6077.76,-626.94 6119.91,-677.33 6127.3,-1685.92 6128.43,-1914.26"/>
<polygon fill="#dddddd" stroke="#dddddd" points="6124.93,-1914.26 6128.48,-1924.24 6131.93,-1914.22 6124.93,-1914.26"/>
<text text-anchor="middle" x="4962.62" y="-584.26" font-family="Times,serif" font-size="14.00">Full close down search</text>
</g>
<!-- 45204&#45;&gt;END_NODE -->
<g id="edge115" class="edge">
<title>45204&#45;&gt;END_NODE</title>
<path fill="none" stroke="#dddddd" d="M4092.95,-636.76C4099.96,-635.46 4106.9,-634.19 4113.71,-632.94 4177.29,-621.33 4192.88,-616.34 4256.96,-607.94 4397.47,-589.52 4433.35,-591.7 4574.57,-579.94 4741.02,-566.08 5974.03,-450.04 6077.76,-580.94 6120.06,-634.32 6127.34,-1681.15 6128.44,-1914.22"/>
<polygon fill="#dddddd" stroke="#dddddd" points="6124.94,-1914.13 6128.48,-1924.11 6131.94,-1914.1 6124.94,-1914.13"/>
<text text-anchor="middle" x="4962.62" y="-556.25" font-family="Times,serif" font-size="14.00">Partial search</text>
</g>
<!-- 45204&#45;&gt;END_NODE -->
<g id="edge116" class="edge">
<title>45204&#45;&gt;END_NODE</title>
<path fill="none" stroke="#dddddd" d="M4087.25,-614.14C4096.17,-611.6 4105.03,-609.18 4113.71,-606.94 4176.45,-590.79 4192.79,-588.9 4256.96,-579.94 4457.38,-551.97 5947.43,-383.13 6077.76,-537.94 6123.11,-591.81 6128.02,-1677.92 6128.55,-1914.64"/>
<polygon fill="#dddddd" stroke="#dddddd" points="6125.05,-1914.39 6128.57,-1924.38 6132.05,-1914.37 6125.05,-1914.39"/>
<text text-anchor="middle" x="4962.62" y="-515.53" font-family="Times,serif" font-size="14.00">Other: Specify</text>
</g>
<!-- 45204&#45;&gt;45205 -->
<g id="edge117" class="edge">
<title>45204&#45;&gt;45205</title>
<path fill="none" stroke="black" d="M4063.9,-769.21C4119.09,-809.96 4182.71,-858.06 4238.96,-903.44 4252.65,-914.49 4266.84,-926.32 4280.77,-938.17"/>
<polygon fill="black" stroke="black" points="4278.38,-940.72 4288.25,-944.56 4282.92,-935.4 4278.38,-940.72"/>
<text text-anchor="middle" x="4176.33" y="-906.64" font-family="Times,serif" font-size="14.00">Full close down search</text>
</g>
<!-- 45204&#45;&gt;45205 -->
<g id="edge118" class="edge">
<title>45204&#45;&gt;45205</title>
<path fill="none" stroke="black" d="M3995.04,-825.59C4024.78,-875.71 4064.2,-926.75 4113.71,-959.94 4160.75,-991.48 4184.1,-969.35 4238.96,-983.44 4243.52,-984.61 4248.14,-985.85 4252.8,-987.14"/>
<polygon fill="black" stroke="black" points="4251.68,-990.46 4262.25,-989.81 4253.59,-983.72 4251.68,-990.46"/>
<text text-anchor="middle" x="4176.33" y="-986.64" font-family="Times,serif" font-size="14.00">Partial search</text>
</g>
<!-- 45204&#45;&gt;45205 -->
<g id="edge119" class="edge">
<title>45204&#45;&gt;45205</title>
<path fill="none" stroke="black" d="M4008.54,-818.82C4037.03,-857.47 4072.34,-895.12 4113.71,-919.94 4162.02,-948.93 4186.17,-919.75 4238.96,-939.44 4249.16,-943.25 4259.42,-947.81 4269.51,-952.85"/>
<polygon fill="black" stroke="black" points="4267.7,-955.85 4278.19,-957.33 4270.91,-949.63 4267.7,-955.85"/>
<text text-anchor="middle" x="4176.33" y="-942.64" font-family="Times,serif" font-size="14.00">Other: Please specify</text>
</g>
<!-- 45205&#45;&gt;END_NODE -->
<g id="edge120" class="edge">
<title>45205&#45;&gt;END_NODE</title>
<path fill="none" stroke="#dddddd" d="M4394.49,-1162.8C4406.38,-1362.2 4440.93,-1727.78 4536.32,-1810.94 4600.96,-1867.29 6002.51,-1847.84 6077.76,-1888.94 6090.57,-1895.94 6100.94,-1907.71 6108.89,-1919.68"/>
<polygon fill="#dddddd" stroke="#dddddd" points="6105.74,-1921.25 6113.96,-1927.95 6111.71,-1917.59 6105.74,-1921.25"/>
<text text-anchor="middle" x="5234.84" y="-1861.14" font-family="Times,serif" font-size="14.00">Yes</text>
</g>
<!-- 45205&#45;&gt;END_NODE -->
<g id="edge121" class="edge">
<title>45205&#45;&gt;END_NODE</title>
<path fill="none" stroke="#dddddd" d="M4433.45,-1154.77C4503.38,-1326.25 4656.29,-1631.26 4900,-1763.94 4956.41,-1794.65 4979.38,-1776.16 5043.25,-1782.94 5453.37,-1826.52 5558.23,-1812.49 5968.26,-1856.94 6017.1,-1862.24 6036.99,-1844.55 6077.76,-1871.94 6093.9,-1882.78 6105.56,-1900.58 6113.61,-1917.35"/>
<polygon fill="#dddddd" stroke="#dddddd" points="6110.29,-1918.49 6117.56,-1926.2 6116.69,-1915.64 6110.29,-1918.49"/>
<text text-anchor="middle" x="5234.84" y="-1817.93" font-family="Times,serif" font-size="14.00">No</text>
</g>
<!-- 45205&#45;&gt;45208 -->
<g id="edge124" class="edge">
<title>45205&#45;&gt;45208</title>
<path fill="none" stroke="black" d="M4452.51,-1145.8C4484.27,-1194.71 4526.23,-1249.54 4574.57,-1288.94 4751.66,-1433.25 4828.39,-1422.37 5043.25,-1499.94 5264.16,-1579.7 5329.12,-1654.48 5559.92,-1610.94 5567.09,-1609.59 5574.32,-1608 5581.57,-1606.22"/>
<polygon fill="black" stroke="black" points="5582.31,-1609.65 5591.12,-1603.75 5580.56,-1602.87 5582.31,-1609.65"/>
<text text-anchor="middle" x="4962.62" y="-1496.23" font-family="Times,serif" font-size="14.00">No</text>
</g>
<!-- 45206 -->
<g id="node14" class="node">
<title>45206</title>
<ellipse fill="none" stroke="black" cx="4728.29" cy="-992.94" rx="153.71" ry="153.71"/>
<text text-anchor="middle" x="4728.29" y="-987.89" font-family="Times,serif" font-size="14.00">What tools/foreign objects were used?</text>
</g>
<!-- 45205&#45;&gt;45206 -->
<g id="edge122" class="edge">
<title>45205&#45;&gt;45206</title>
<path fill="none" stroke="black" d="M4513.93,-997.94C4521.47,-996.58 4528.98,-995.39 4536.32,-994.44 4544.94,-993.33 4553.78,-992.43 4562.73,-991.71"/>
<polygon fill="black" stroke="black" points="4562.87,-995.21 4572.6,-991 4562.37,-988.23 4562.87,-995.21"/>
<text text-anchor="middle" x="4546.45" y="-997.64" font-family="Times,serif" font-size="14.00">Yes</text>
</g>
<!-- 45205&#45;&gt;45206 -->
<g id="edge123" class="edge">
<title>45205&#45;&gt;45206</title>
<path fill="none" stroke="#dddddd" d="M4517.63,-1017.09C4532.75,-1015.35 4548.32,-1013.55 4563.83,-1011.77"/>
<polygon fill="#dddddd" stroke="#dddddd" points="4564.06,-1015.26 4573.6,-1010.64 4563.26,-1008.31 4564.06,-1015.26"/>
<text text-anchor="middle" x="4546.45" y="-1017.98" font-family="Times,serif" font-size="14.00">No</text>
</g>
<!-- 45206&#45;&gt;END_NODE -->
<g id="edge125" class="edge">
<title>45206&#45;&gt;END_NODE</title>
<path fill="none" stroke="#dddddd" d="M4860.63,-914.29C4873.63,-908.69 4886.87,-903.75 4900,-899.94 5128.18,-833.7 5735.9,-805.32 5968.26,-854.94 6020.4,-866.08 6047.7,-859.91 6077.76,-903.94 6106.64,-946.23 6123.82,-1717.45 6127.75,-1914.44"/>
<polygon fill="#dddddd" stroke="#dddddd" points="6124.25,-1914.34 6127.94,-1924.27 6131.24,-1914.2 6124.25,-1914.34"/>
<text text-anchor="middle" x="5502.17" y="-836.39" font-family="Times,serif" font-size="14.00">Hacksaw blade</text>
</g>
<!-- 45206&#45;&gt;END_NODE -->
<g id="edge126" class="edge">
<title>45206&#45;&gt;END_NODE</title>
<path fill="none" stroke="#dddddd" d="M4849.6,-898.48C4866,-887.95 4883.05,-878.1 4900,-869.94 4959.57,-841.29 4978.01,-840.58 5043.25,-829.94 5156.73,-811.43 6005.18,-764.77 6077.76,-853.94 6111.74,-895.69 6125.2,-1711.43 6128.03,-1914.48"/>
<polygon fill="#dddddd" stroke="#dddddd" points="6124.52,-1914.41 6128.16,-1924.36 6131.52,-1914.31 6124.52,-1914.41"/>
<text text-anchor="middle" x="5502.17" y="-807.58" font-family="Times,serif" font-size="14.00">Other Blade</text>
</g>
<!-- 45206&#45;&gt;END_NODE -->
<g id="edge127" class="edge">
<title>45206&#45;&gt;END_NODE</title>
<path fill="none" stroke="#dddddd" d="M4830.61,-877.94C4851.88,-859.18 4875.38,-841.73 4900,-828.94 4957.56,-799.03 4978.85,-808.76 5043.25,-800.94 5157.37,-787.09 6002.19,-730.31 6077.76,-816.94 6114.43,-858.97 6125.9,-1707.35 6128.17,-1914.58"/>
<polygon fill="#dddddd" stroke="#dddddd" points="6124.66,-1914.44 6128.27,-1924.4 6131.66,-1914.36 6124.66,-1914.44"/>
<text text-anchor="middle" x="5502.17" y="-778.42" font-family="Times,serif" font-size="14.00">Wire cutters</text>
</g>
<!-- 45206&#45;&gt;END_NODE -->
<g id="edge128" class="edge">
<title>45206&#45;&gt;END_NODE</title>
<path fill="none" stroke="#dddddd" d="M4817.78,-867.37C4841.69,-841.19 4869.49,-816.32 4900,-798.94 5013.72,-734.17 5989.62,-684.19 6077.76,-780.94 6116.59,-823.56 6126.46,-1702.94 6128.27,-1914.47"/>
<polygon fill="#dddddd" stroke="#dddddd" points="6124.77,-1914.26 6128.35,-1924.23 6131.77,-1914.2 6124.77,-1914.26"/>
<text text-anchor="middle" x="5502.17" y="-734.37" font-family="Times,serif" font-size="14.00">Bolt cutters</text>
</g>
<!-- 45206&#45;&gt;END_NODE -->
<g id="edge129" class="edge">
<title>45206&#45;&gt;END_NODE</title>
<path fill="none" stroke="#dddddd" d="M4805.14,-859.59C4831.11,-823.96 4863.08,-788.57 4900,-763.94 5008.88,-691.32 5992.29,-644.82 6077.76,-743.94 6116.65,-789.05 6126.49,-1698.1 6128.28,-1914.16"/>
<polygon fill="#dddddd" stroke="#dddddd" points="6124.78,-1914.17 6128.36,-1924.14 6131.78,-1914.12 6124.78,-1914.17"/>
<text text-anchor="middle" x="5502.17" y="-694.51" font-family="Times,serif" font-size="14.00">Digging tool</text>
</g>
<!-- 45206&#45;&gt;END_NODE -->
<g id="edge130" class="edge">
<title>45206&#45;&gt;END_NODE</title>
<path fill="none" stroke="#dddddd" d="M4792.5,-852.82C4819.61,-806.46 4855.45,-758.46 4900,-725.94 5005.71,-648.77 5992.79,-605.39 6077.76,-704.94 6117.77,-751.82 6126.78,-1694.77 6128.34,-1914.47"/>
<polygon fill="#dddddd" stroke="#dddddd" points="6124.83,-1914.36 6128.4,-1924.34 6131.83,-1914.32 6124.83,-1914.36"/>
<text text-anchor="middle" x="5502.17" y="-654.1" font-family="Times,serif" font-size="14.00">Crow bar</text>
</g>
<!-- 45206&#45;&gt;END_NODE -->
<g id="edge131" class="edge">
<title>45206&#45;&gt;END_NODE</title>
<path fill="none" stroke="#dddddd" d="M4780.5,-848.27C4807.74,-790.18 4846.82,-727.33 4900,-685.94 5003.29,-605.56 5993.29,-565.97 6077.76,-665.94 6118.86,-714.58 6127.05,-1690.72 6128.38,-1914.5"/>
<polygon fill="#dddddd" stroke="#dddddd" points="6124.88,-1914.29 6128.44,-1924.27 6131.88,-1914.25 6124.88,-1914.29"/>
<text text-anchor="middle" x="5502.17" y="-613.14" font-family="Times,serif" font-size="14.00">Improvised tool</text>
</g>
<!-- 45206&#45;&gt;END_NODE -->
<g id="edge132" class="edge">
<title>45206&#45;&gt;END_NODE</title>
<path fill="none" stroke="#dddddd" d="M4743.3,-1146.26C4764.5,-1340.75 4811.94,-1659.95 4900,-1734.94 4999.85,-1819.97 5973.51,-1733.37 6077.76,-1812.94 6109.01,-1836.79 6121.16,-1881.04 6125.83,-1914.78"/>
<polygon fill="#dddddd" stroke="#dddddd" points="6122.31,-1914.76 6126.97,-1924.27 6129.26,-1913.93 6122.31,-1914.76"/>
<text text-anchor="middle" x="5502.17" y="-1779.33" font-family="Times,serif" font-size="14.00">Other: Specify</text>
</g>
<!-- 45206&#45;&gt;END_NODE -->
<g id="edge133" class="edge">
<title>45206&#45;&gt;END_NODE</title>
<path fill="none" stroke="#dddddd" d="M4742.45,-1146.36C4760.22,-1261.87 4801.97,-1416.45 4900,-1513.94 5124.41,-1737.12 5268.16,-1667.01 5577.92,-1731.94 5687.25,-1754.86 5992.55,-1712.72 6077.76,-1784.94 6115.11,-1816.59 6125.89,-1873.91 6128.57,-1914.31"/>
<polygon fill="#dddddd" stroke="#dddddd" points="6125.07,-1914.41 6129.07,-1924.23 6132.06,-1914.06 6125.07,-1914.41"/>
<text text-anchor="middle" x="5502.17" y="-1730.86" font-family="Times,serif" font-size="14.00">Not Known</text>
</g>
<!-- 45207 -->
<g id="node15" class="node">
<title>45207</title>
<ellipse fill="none" stroke="black" cx="5234.84" cy="-1164.94" rx="191.59" ry="191.59"/>
<text text-anchor="middle" x="5234.84" y="-1159.89" font-family="Times,serif" font-size="14.00">What was the source of the tools/foreign object?</text>
</g>
<!-- 45206&#45;&gt;45207 -->
<g id="edge134" class="edge">
<title>45206&#45;&gt;45207</title>
<path fill="none" stroke="black" d="M4881.21,-1012C4946.31,-1020.68 5010.8,-1030.18 5025.25,-1035.44 5038.73,-1040.35 5052.28,-1046.21 5065.64,-1052.68"/>
<polygon fill="black" stroke="black" points="5063.94,-1055.75 5074.46,-1057.07 5067.06,-1049.48 5063.94,-1055.75"/>
<text text-anchor="middle" x="4962.62" y="-1038.64" font-family="Times,serif" font-size="14.00">Hacksaw blade</text>
</g>
<!-- 45206&#45;&gt;45207 -->
<g id="edge135" class="edge">
<title>45206&#45;&gt;45207</title>
<path fill="none" stroke="black" d="M4881.38,-975.02C4928.65,-974.48 4980.16,-979.22 5025.25,-995.44 5046.38,-1003.05 5066.94,-1013.78 5086.39,-1026.2"/>
<polygon fill="black" stroke="black" points="5084.31,-1029.02 5094.58,-1031.59 5088.15,-1023.17 5084.31,-1029.02"/>
<text text-anchor="middle" x="4962.62" y="-998.64" font-family="Times,serif" font-size="14.00">Other blade</text>
</g>
<!-- 45206&#45;&gt;45207 -->
<g id="edge136" class="edge">
<title>45206&#45;&gt;45207</title>
<path fill="none" stroke="black" d="M4874.4,-944.79C4923.75,-935.97 4978.26,-934.85 5025.25,-954.44 5054.9,-966.8 5082.5,-985.66 5107.28,-1007.1"/>
<polygon fill="black" stroke="black" points="5104.64,-1009.44 5114.44,-1013.46 5109.29,-1004.21 5104.64,-1009.44"/>
<text text-anchor="middle" x="4962.62" y="-957.64" font-family="Times,serif" font-size="14.00">Wire cutters</text>
</g>
<!-- 45206&#45;&gt;45207 -->
<g id="edge137" class="edge">
<title>45206&#45;&gt;45207</title>
<path fill="none" stroke="black" d="M4864.42,-921.2C4916.2,-903.32 4974.9,-895.09 5025.25,-918.44 5062.83,-935.87 5096.1,-963.78 5124.41,-994.66"/>
<polygon fill="black" stroke="black" points="5121.59,-996.76 5130.87,-1001.88 5126.8,-992.09 5121.59,-996.76"/>
<text text-anchor="middle" x="4962.62" y="-921.64" font-family="Times,serif" font-size="14.00">Bolt cutters</text>
</g>
<!-- 45206&#45;&gt;45207 -->
<g id="edge138" class="edge">
<title>45206&#45;&gt;45207</title>
<path fill="none" stroke="black" d="M4803.66,-1127.47C4829.43,-1161.27 4861.66,-1193.22 4900,-1211.94 4943.67,-1233.27 4994.13,-1235.82 5042.38,-1229.53"/>
<polygon fill="black" stroke="black" points="5042.72,-1233.01 5052.11,-1228.12 5041.72,-1226.09 5042.72,-1233.01"/>
<text text-anchor="middle" x="4962.62" y="-1235.72" font-family="Times,serif" font-size="14.00">Digging tool</text>
</g>
<!-- 45206&#45;&gt;45207 -->
<g id="edge139" class="edge">
<title>45206&#45;&gt;45207</title>
<path fill="none" stroke="black" d="M4820.69,-1116.3C4843.84,-1138.93 4870.59,-1159.35 4900,-1171.94 4925.05,-1182.67 4976.73,-1184.57 5032.11,-1182.69"/>
<polygon fill="black" stroke="black" points="5032.22,-1186.18 5042.08,-1182.3 5031.95,-1179.19 5032.22,-1186.18"/>
<text text-anchor="middle" x="4962.62" y="-1186.52" font-family="Times,serif" font-size="14.00">Crow bar</text>
</g>
<!-- 45206&#45;&gt;45207 -->
<g id="edge140" class="edge">
<title>45206&#45;&gt;45207</title>
<path fill="none" stroke="black" d="M4840.42,-1098.27C4859.19,-1111.54 4879.33,-1123.42 4900,-1131.94 4913.78,-1137.62 4969.9,-1144.03 5032.31,-1149.69"/>
<polygon fill="black" stroke="black" points="5031.84,-1153.16 5042.11,-1150.56 5032.46,-1146.19 5031.84,-1153.16"/>
<text text-anchor="middle" x="4962.62" y="-1152.04" font-family="Times,serif" font-size="14.00">Improvised tool</text>
</g>
<!-- 45206&#45;&gt;45207 -->
<g id="edge141" class="edge">
<title>45206&#45;&gt;45207</title>
<path fill="none" stroke="black" d="M4858.8,-1074.53C4872.4,-1081.11 4886.27,-1087.09 4900,-1091.94 4953.11,-1110.73 4970.07,-1100.1 5025.25,-1111.44 5029.38,-1112.29 5033.56,-1113.17 5037.76,-1114.07"/>
<polygon fill="black" stroke="black" points="5036.96,-1117.48 5047.47,-1116.2 5038.45,-1110.64 5036.96,-1117.48"/>
<text text-anchor="middle" x="4962.62" y="-1114.64" font-family="Times,serif" font-size="14.00">Other: Please specify</text>
</g>
<!-- 45206&#45;&gt;45207 -->
<g id="edge142" class="edge">
<title>45206&#45;&gt;45207</title>
<path fill="none" stroke="black" d="M4873.11,-1044.67C4882.16,-1047.29 4891.17,-1049.75 4900,-1051.94 4954.67,-1065.53 4971.23,-1055.44 5025.25,-1071.44 5033.54,-1073.9 5041.94,-1076.61 5050.35,-1079.53"/>
<polygon fill="black" stroke="black" points="5049,-1082.76 5059.59,-1082.81 5051.34,-1076.16 5049,-1082.76"/>
<text text-anchor="middle" x="4962.62" y="-1074.64" font-family="Times,serif" font-size="14.00">Not Known</text>
</g>
<!-- 45207&#45;&gt;END_NODE -->
<g id="edge143" class="edge">
<title>45207&#45;&gt;END_NODE</title>
<path fill="none" stroke="#dddddd" d="M5423.88,-1198.64C5491.82,-1211.45 5553.59,-1224.12 5559.92,-1228.94 5574.15,-1239.78 5563.24,-1254.73 5577.92,-1264.94 5721.18,-1364.6 5824.59,-1208.39 5968.26,-1307.44 6056.38,-1368.2 6046.77,-1419.49 6077.76,-1521.94 6119.76,-1660.74 6127.45,-1833.96 6128.61,-1914.65"/>
<polygon fill="#dddddd" stroke="#dddddd" points="6125.11,-1914.4 6128.72,-1924.36 6132.1,-1914.32 6125.11,-1914.4"/>
<text text-anchor="middle" x="5773.09" y="-1310.64" font-family="Times,serif" font-size="14.00">Works Department</text>
</g>
<!-- 45207&#45;&gt;END_NODE -->
<g id="edge144" class="edge">
<title>45207&#45;&gt;END_NODE</title>
<path fill="none" stroke="#dddddd" d="M5426.19,-1178.25C5470.58,-1183.98 5517.31,-1192.19 5559.92,-1203.94 5568.36,-1206.27 5569.44,-1209.77 5577.92,-1211.94 5746.57,-1255.12 5803.98,-1186.86 5968.26,-1244.44 6023.58,-1263.83 6048.16,-1267.35 6077.76,-1317.94 6107.73,-1369.17 6122.97,-1777 6127.3,-1914.71"/>
<polygon fill="#dddddd" stroke="#dddddd" points="6123.79,-1914.64 6127.6,-1924.53 6130.79,-1914.43 6123.79,-1914.64"/>
<text text-anchor="middle" x="5773.09" y="-1247.64" font-family="Times,serif" font-size="14.00">Contractors</text>
</g>
<!-- 45207&#45;&gt;END_NODE -->
<g id="edge145" class="edge">
<title>45207&#45;&gt;END_NODE</title>
<path fill="none" stroke="#dddddd" d="M5426.85,-1162.59C5609.05,-1162.02 5869.85,-1166.04 5968.26,-1191.44 6021.09,-1205.08 6047.57,-1201.5 6077.76,-1246.94 6114.62,-1302.42 6125.42,-1766.29 6127.95,-1914.56"/>
<polygon fill="#dddddd" stroke="#dddddd" points="6124.45,-1914.44 6128.11,-1924.39 6131.45,-1914.33 6124.45,-1914.44"/>
<text text-anchor="middle" x="5773.09" y="-1194.64" font-family="Times,serif" font-size="14.00">Education</text>
</g>
<!-- 45207&#45;&gt;END_NODE -->
<g id="edge146" class="edge">
<title>45207&#45;&gt;END_NODE</title>
<path fill="none" stroke="#dddddd" d="M5425.02,-1138.46C5650.42,-1112.1 6005.71,-1088.85 6077.76,-1191.94 6119.12,-1251.12 6126.89,-1757.74 6128.31,-1914.14"/>
<polygon fill="#dddddd" stroke="#dddddd" points="6124.81,-1914.16 6128.4,-1924.13 6131.81,-1914.1 6124.81,-1914.16"/>
<text text-anchor="middle" x="5773.09" y="-1135.41" font-family="Times,serif" font-size="14.00">Heathcare Centre</text>
</g>
<!-- 45207&#45;&gt;END_NODE -->
<g id="edge147" class="edge">
<title>45207&#45;&gt;END_NODE</title>
<path fill="none" stroke="#dddddd" d="M5422.88,-1126.31C5430.16,-1124.83 5437.36,-1123.37 5444.42,-1121.94 5672.91,-1075.71 5738.63,-1055.29 5968.26,-1095.44 6019.23,-1104.35 6046.74,-1093.54 6077.76,-1134.94 6124.66,-1197.53 6128.56,-1751.87 6128.69,-1914.98"/>
<polygon fill="#dddddd" stroke="#dddddd" points="6125.19,-1914.52 6128.69,-1924.52 6132.19,-1914.52 6125.19,-1914.52"/>
<text text-anchor="middle" x="5773.09" y="-1098.64" font-family="Times,serif" font-size="14.00">Farms and Gardens</text>
</g>
<!-- 45207&#45;&gt;END_NODE -->
<g id="edge148" class="edge">
<title>45207&#45;&gt;END_NODE</title>
<path fill="none" stroke="#dddddd" d="M5416.93,-1103.9C5426.22,-1100.85 5435.43,-1097.85 5444.42,-1094.94 5503.55,-1075.83 5516.49,-1062.77 5577.92,-1053.44 5749.44,-1027.4 5797.49,-1022.87 5968.26,-1053.44 6019.34,-1062.58 6046.87,-1052.25 6077.76,-1093.94 6126.76,-1160.09 6129.16,-1744.86 6128.82,-1914.19"/>
<polygon fill="#dddddd" stroke="#dddddd" points="6125.32,-1914.13 6128.79,-1924.14 6132.32,-1914.15 6125.32,-1914.13"/>
<text text-anchor="middle" x="5773.09" y="-1056.64" font-family="Times,serif" font-size="14.00">Staff</text>
</g>
<!-- 45207&#45;&gt;END_NODE -->
<g id="edge149" class="edge">
<title>45207&#45;&gt;END_NODE</title>
<path fill="none" stroke="#dddddd" d="M5402.69,-1071.78C5416.65,-1065.08 5430.68,-1058.7 5444.42,-1052.94 5659.8,-962.62 5738.37,-970.29 5968.26,-1011.44 6019.34,-1020.58 6046.93,-1010.21 6077.76,-1051.94 6129.29,-1121.69 6129.83,-1740.49 6128.95,-1914.56"/>
<polygon fill="#dddddd" stroke="#dddddd" points="6125.45,-1914.31 6128.89,-1924.33 6132.45,-1914.35 6125.45,-1914.31"/>
<text text-anchor="middle" x="5773.09" y="-1014.64" font-family="Times,serif" font-size="14.00">Visitor</text>
</g>
<!-- 45207&#45;&gt;END_NODE -->
<g id="edge150" class="edge">
<title>45207&#45;&gt;END_NODE</title>
<path fill="none" stroke="#dddddd" d="M5383.4,-1043.25C5403.27,-1029.64 5423.9,-1016.8 5444.42,-1005.94 5650.97,-896.69 5739.67,-913.08 5968.26,-961.44 6020.34,-972.46 6047.55,-966.12 6077.76,-1009.94 6129.43,-1084.87 6129.83,-1735.07 6128.94,-1914.34"/>
<polygon fill="#dddddd" stroke="#dddddd" points="6125.44,-1914.17 6128.88,-1924.18 6132.44,-1914.2 6125.44,-1914.17"/>
<text text-anchor="middle" x="5773.09" y="-964.64" font-family="Times,serif" font-size="14.00">Other: Specify</text>
</g>
<!-- 45207&#45;&gt;END_NODE -->
<g id="edge151" class="edge">
<title>45207&#45;&gt;END_NODE</title>
<path fill="none" stroke="#dddddd" d="M5359.75,-1019.3C5385.87,-994.18 5414.61,-970.05 5444.42,-950.94 5641.23,-824.79 5741.29,-847.47 5968.26,-903.44 6021.63,-916.6 6048.14,-914.64 6077.76,-960.94 6129.53,-1041.87 6129.8,-1729.21 6128.92,-1914.23"/>
<polygon fill="#dddddd" stroke="#dddddd" points="6125.42,-1914.15 6128.87,-1924.17 6132.42,-1914.19 6125.42,-1914.15"/>
<text text-anchor="middle" x="5773.09" y="-906.64" font-family="Times,serif" font-size="14.00">Not Known</text>
</g>
<!-- 45207&#45;&gt;45208 -->
<g id="edge152" class="edge">
<title>45207&#45;&gt;45208</title>
<path fill="none" stroke="black" d="M5321.27,-1336.08C5353.52,-1384.95 5394.7,-1433.66 5444.42,-1465.94 5447.64,-1468.03 5504.47,-1479.04 5569.92,-1491.21"/>
<polygon fill="black" stroke="black" points="5568.97,-1494.59 5579.44,-1492.98 5570.24,-1487.71 5568.97,-1494.59"/>
<text text-anchor="middle" x="5502.17" y="-1491.41" font-family="Times,serif" font-size="14.00">Works Department</text>
</g>
<!-- 45207&#45;&gt;45208 -->
<g id="edge153" class="edge">
<title>45207&#45;&gt;45208</title>
<path fill="none" stroke="black" d="M5336.02,-1327.97C5366.42,-1365.5 5402.93,-1401.52 5444.42,-1425.94 5489.29,-1452.35 5509.74,-1431.6 5559.92,-1445.44 5566.88,-1447.36 5573.93,-1449.43 5581.01,-1451.61"/>
<polygon fill="black" stroke="black" points="5579.75,-1454.88 5590.34,-1454.54 5581.85,-1448.2 5579.75,-1454.88"/>
<text text-anchor="middle" x="5502.17" y="-1448.64" font-family="Times,serif" font-size="14.00">Contractors</text>
</g>
<!-- 45207&#45;&gt;45208 -->
<g id="edge154" class="edge">
<title>45207&#45;&gt;45208</title>
<path fill="none" stroke="black" d="M5352.86,-1316.15C5380.2,-1343.08 5411.15,-1368.16 5444.42,-1385.94 5490.34,-1410.48 5510.94,-1387.81 5559.92,-1405.44 5572.12,-1409.83 5584.41,-1414.91 5596.62,-1420.45"/>
<polygon fill="black" stroke="black" points="5594.92,-1423.53 5605.47,-1424.57 5597.88,-1417.18 5594.92,-1423.53"/>
<text text-anchor="middle" x="5502.17" y="-1408.64" font-family="Times,serif" font-size="14.00">Education</text>
</g>
<!-- 45207&#45;&gt;45208 -->
<g id="edge155" class="edge">
<title>45207&#45;&gt;45208</title>
<path fill="none" stroke="black" d="M5370.84,-1300.08C5393.97,-1317.75 5418.84,-1333.87 5444.42,-1345.94 5491.5,-1368.16 5512.19,-1344.67 5559.92,-1365.44 5578.67,-1373.6 5597.25,-1383.76 5615.17,-1395"/>
<polygon fill="black" stroke="black" points="5612.89,-1397.7 5623.2,-1400.16 5616.67,-1391.81 5612.89,-1397.7"/>
<text text-anchor="middle" x="5502.17" y="-1368.64" font-family="Times,serif" font-size="14.00">Health Care Centre</text>
</g>
<!-- 45207&#45;&gt;45208 -->
<g id="edge156" class="edge">
<title>45207&#45;&gt;45208</title>
<path fill="none" stroke="black" d="M5389.25,-1279C5407.27,-1289.23 5425.86,-1298.51 5444.42,-1305.94 5492.75,-1325.29 5513.38,-1302.11 5559.92,-1325.44 5585.96,-1338.49 5610.95,-1355.82 5634.06,-1374.86"/>
<polygon fill="black" stroke="black" points="5631.77,-1377.5 5641.67,-1381.26 5636.27,-1372.14 5631.77,-1377.5"/>
<text text-anchor="middle" x="5502.17" y="-1328.64" font-family="Times,serif" font-size="14.00">Farms and Gardens</text>
</g>
<!-- 45207&#45;&gt;45208 -->
<g id="edge157" class="edge">
<title>45207&#45;&gt;45208</title>
<path fill="none" stroke="black" d="M5405.83,-1252.03C5418.73,-1257.16 5431.68,-1261.87 5444.42,-1265.94 5494.02,-1281.78 5517.44,-1255.36 5559.92,-1285.44 5573.4,-1294.98 5568.25,-1304.56 5577.92,-1317.94 5593.2,-1339.07 5610.38,-1360.37 5628.04,-1380.88"/>
<polygon fill="black" stroke="black" points="5625.17,-1382.91 5634.37,-1388.17 5630.46,-1378.32 5625.17,-1382.91"/>
<text text-anchor="middle" x="5502.17" y="-1288.64" font-family="Times,serif" font-size="14.00">Staff</text>
</g>
<!-- 45207&#45;&gt;45208 -->
<g id="edge158" class="edge">
<title>45207&#45;&gt;45208</title>
<path fill="none" stroke="black" d="M5418.66,-1219.72C5427.34,-1221.91 5435.97,-1224 5444.42,-1225.94 5495.16,-1237.6 5521.74,-1210.06 5559.92,-1245.44 5584.28,-1268.01 5562.16,-1288.72 5577.92,-1317.94 5590.51,-1341.27 5606.3,-1364.01 5623.4,-1385.38"/>
<polygon fill="black" stroke="black" points="5620.55,-1387.42 5629.58,-1392.96 5625.97,-1383 5620.55,-1387.42"/>
<text text-anchor="middle" x="5502.17" y="-1248.64" font-family="Times,serif" font-size="14.00">Visitor</text>
</g>
<!-- 45207&#45;&gt;45208 -->
<g id="edge159" class="edge">
<title>45207&#45;&gt;45208</title>
<path fill="none" stroke="black" d="M5346.02,-1321.09C5375.38,-1367.96 5404.89,-1420.6 5426.42,-1471.94 5439.51,-1503.16 5417.81,-1525.03 5444.42,-1545.94 5465.38,-1562.41 5514.78,-1564.44 5569.03,-1560.38"/>
<polygon fill="black" stroke="black" points="5569.12,-1563.88 5578.8,-1559.58 5568.55,-1556.91 5569.12,-1563.88"/>
<text text-anchor="middle" x="5502.17" y="-1565.37" font-family="Times,serif" font-size="14.00">Other: Please specify</text>
</g>
<!-- 45207&#45;&gt;45208 -->
<g id="edge160" class="edge">
<title>45207&#45;&gt;45208</title>
<path fill="none" stroke="black" d="M5338.83,-1326.2C5367.82,-1372.83 5398.93,-1424.07 5426.42,-1471.94 5434.94,-1486.77 5430.08,-1496.64 5444.42,-1505.94 5456.22,-1513.59 5507.57,-1518.62 5566.25,-1521.9"/>
<polygon fill="black" stroke="black" points="5566,-1525.39 5576.17,-1522.43 5566.37,-1518.4 5566,-1525.39"/>
<text text-anchor="middle" x="5502.17" y="-1524.43" font-family="Times,serif" font-size="14.00">Not Known</text>
</g>
</g>
</svg>
