<?xml version="1.0" encoding="UTF-8" standalone="no"?>
<!DOCTYPE svg PUBLIC "-//W3C//DTD SVG 1.1//EN"
 "http://www.w3.org/Graphics/SVG/1.1/DTD/svg11.dtd">
<!-- Generated by graphviz version 12.1.1 (20240910.0053)
 -->
<!-- Title: KEY_LOCK_INCIDENT Pages: 1 -->
<svg width="6147pt" height="3662pt"
 viewBox="0.00 0.00 6146.72 3661.57" xmlns="http://www.w3.org/2000/svg" xmlns:xlink="http://www.w3.org/1999/xlink">
<g id="graph0" class="graph" transform="scale(1 1) rotate(0) translate(4 3657.57)">
<title>KEY_LOCK_INCIDENT</title>
<polygon fill="white" stroke="none" points="-4,4 -4,-3657.57 6142.72,-3657.57 6142.72,4 -4,4"/>
<!-- START_NODE -->
<g id="node1" class="node">
<title>START_NODE</title>
</g>
<!-- 45196 -->
<g id="node2" class="node">
<title>45196</title>
<ellipse fill="none" stroke="black" cx="252.63" cy="-2874.36" rx="139.38" ry="139.38"/>
<text text-anchor="middle" x="252.63" y="-2869.31" font-family="Times,serif" font-size="14.00">Describe the nature of the incident</text>
</g>
<!-- START_NODE&#45;&gt;45196 -->
<g id="edge1" class="edge">
<title>START_NODE&#45;&gt;45196</title>
<path fill="none" stroke="black" d="M53.65,-2874.36C66.54,-2874.36 83.3,-2874.36 101.62,-2874.36"/>
<polygon fill="black" stroke="black" points="101.37,-2877.86 111.37,-2874.36 101.37,-2870.86 101.37,-2877.86"/>
<text text-anchor="middle" x="83.62" y="-2877.56" font-family="Times,serif" font-size="14.00">start</text>
</g>
<!-- END_NODE -->
<g id="node3" class="node">
<title>END_NODE</title>
<ellipse fill="none" stroke="black" cx="6104.87" cy="-1949.36" rx="29.86" ry="29.86"/>
<ellipse fill="none" stroke="black" cx="6104.87" cy="-1949.36" rx="33.86" ry="33.86"/>
<text text-anchor="middle" x="6104.87" y="-1944.31" font-family="Times,serif" font-size="14.00">END</text>
</g>
<!-- 45196&#45;&gt;END_NODE -->
<g id="edge2" class="edge">
<title>45196&#45;&gt;END_NODE</title>
<path fill="none" stroke="#dddddd" d="M264.76,-3013.67C282.68,-3198.59 324.89,-3510.25 410.01,-3582.36 578.85,-3725.39 685.92,-3608.36 907.2,-3608.36 907.2,-3608.36 907.2,-3608.36 5756.84,-3608.36 5888.98,-3608.36 5962.25,-3678.4 6053.01,-3582.36 6109.02,-3523.11 6105.44,-2252.57 6104.13,-1994.76"/>
<polygon fill="#dddddd" stroke="#dddddd" points="6107.64,-1995.09 6104.08,-1985.11 6100.64,-1995.13 6107.64,-1995.09"/>
<text text-anchor="middle" x="3192.3" y="-3611.56" font-family="Times,serif" font-size="14.00">Keys taken out of the establishment</text>
</g>
<!-- 45196&#45;&gt;END_NODE -->
<g id="edge3" class="edge">
<title>45196&#45;&gt;END_NODE</title>
<path fill="none" stroke="#dddddd" d="M266.77,-3013.34C286.47,-3188.72 330.19,-3475.6 410.01,-3542.36 452.45,-3577.85 851.88,-3568.36 907.2,-3568.36 907.2,-3568.36 907.2,-3568.36 5756.84,-3568.36 5822.91,-3568.36 6007.61,-3590.36 6053.01,-3542.36 6107.58,-3484.67 6105.17,-2249.02 6104.1,-1994.84"/>
<polygon fill="#dddddd" stroke="#dddddd" points="6107.6,-1994.98 6104.05,-1985 6100.6,-1995.01 6107.6,-1994.98"/>
<text text-anchor="middle" x="3192.3" y="-3571.56" font-family="Times,serif" font-size="14.00">Keys lost</text>
</g>
<!-- 45196&#45;&gt;END_NODE -->
<g id="edge4" class="edge">
<title>45196&#45;&gt;END_NODE</title>
<path fill="none" stroke="#dddddd" d="M269.01,-3012.98C290.49,-3178.54 335.46,-3440.9 410.01,-3502.36 495.38,-3572.75 796.56,-3528.36 907.2,-3528.36 907.2,-3528.36 907.2,-3528.36 5756.84,-3528.36 5822.91,-3528.36 6007.59,-3550.35 6053.01,-3502.36 6106.15,-3446.23 6104.9,-2245.37 6104.06,-1994.9"/>
<polygon fill="#dddddd" stroke="#dddddd" points="6107.56,-1995.2 6104.02,-1985.21 6100.56,-1995.22 6107.56,-1995.2"/>
<text text-anchor="middle" x="3192.3" y="-3531.56" font-family="Times,serif" font-size="14.00">Key left unattended in prison</text>
</g>
<!-- 45196&#45;&gt;END_NODE -->
<g id="edge5" class="edge">
<title>45196&#45;&gt;END_NODE</title>
<path fill="none" stroke="#dddddd" d="M271.57,-3012.8C294.82,-3168.24 340.75,-3406.17 410.01,-3462.36 495.93,-3532.07 796.56,-3488.36 907.2,-3488.36 907.2,-3488.36 907.2,-3488.36 5756.84,-3488.36 5822.91,-3488.36 6007.57,-3510.33 6053.01,-3462.36 6104.73,-3407.78 6104.62,-2241.42 6104.02,-1994.88"/>
<polygon fill="#dddddd" stroke="#dddddd" points="6107.52,-1995.02 6103.99,-1985.03 6100.52,-1995.04 6107.52,-1995.02"/>
<text text-anchor="middle" x="3192.3" y="-3491.56" font-family="Times,serif" font-size="14.00">Key issued to wrong person</text>
</g>
<!-- 45196&#45;&gt;END_NODE -->
<g id="edge6" class="edge">
<title>45196&#45;&gt;END_NODE</title>
<path fill="none" stroke="#dddddd" d="M274.43,-3012.28C299.38,-3157.27 345.97,-3371.36 410.01,-3422.36 496.56,-3491.29 796.56,-3448.36 907.2,-3448.36 907.2,-3448.36 907.2,-3448.36 5756.84,-3448.36 5822.91,-3448.36 6007.55,-3470.3 6053.01,-3422.36 6103.3,-3369.33 6104.33,-2237.36 6103.97,-1994.85"/>
<polygon fill="#dddddd" stroke="#dddddd" points="6107.47,-1995.16 6103.96,-1985.17 6100.47,-1995.17 6107.47,-1995.16"/>
<text text-anchor="middle" x="3192.3" y="-3451.56" font-family="Times,serif" font-size="14.00">Doors/gates/cell door left unlocked</text>
</g>
<!-- 45196&#45;&gt;END_NODE -->
<g id="edge7" class="edge">
<title>45196&#45;&gt;END_NODE</title>
<path fill="none" stroke="#dddddd" d="M277.74,-3011.89C304.32,-3146.07 351.2,-3336.51 410.01,-3382.36 497.27,-3450.39 796.56,-3408.36 907.2,-3408.36 907.2,-3408.36 907.2,-3408.36 5756.84,-3408.36 5822.91,-3408.36 6007.53,-3430.28 6053.01,-3382.36 6101.89,-3330.87 6104.04,-2233.01 6103.93,-1994.73"/>
<polygon fill="#dddddd" stroke="#dddddd" points="6107.43,-1994.92 6103.92,-1984.92 6100.43,-1994.92 6107.43,-1994.92"/>
<text text-anchor="middle" x="3192.3" y="-3411.56" font-family="Times,serif" font-size="14.00">Loss of handcuffs</text>
</g>
<!-- 45196&#45;&gt;END_NODE -->
<g id="edge8" class="edge">
<title>45196&#45;&gt;END_NODE</title>
<path fill="none" stroke="#dddddd" d="M259.86,-3013.81C272.79,-3121.91 309.36,-3265.8 410.01,-3342.36 498.07,-3409.34 796.56,-3368.36 907.2,-3368.36 907.2,-3368.36 907.2,-3368.36 5756.84,-3368.36 5822.91,-3368.36 6007.5,-3390.26 6053.01,-3342.36 6100.45,-3292.44 6103.73,-2229.6 6103.88,-1994.94"/>
<polygon fill="#dddddd" stroke="#dddddd" points="6107.38,-1994.98 6103.88,-1984.98 6100.38,-1994.98 6107.38,-1994.98"/>
<text text-anchor="middle" x="3192.3" y="-3371.56" font-family="Times,serif" font-size="14.00">Loss of escort chain</text>
</g>
<!-- 45196&#45;&gt;END_NODE -->
<g id="edge9" class="edge">
<title>45196&#45;&gt;END_NODE</title>
<path fill="none" stroke="#dddddd" d="M265.26,-3013.42C281.37,-3111 319.59,-3235.55 410.01,-3302.36 498.99,-3368.11 796.56,-3328.36 907.2,-3328.36 907.2,-3328.36 907.2,-3328.36 5756.84,-3328.36 5822.91,-3328.36 6007.48,-3350.24 6053.01,-3302.36 6099.04,-3253.97 6103.42,-2224.9 6103.83,-1994.75"/>
<polygon fill="#dddddd" stroke="#dddddd" points="6107.33,-1995 6103.84,-1984.99 6100.33,-1994.99 6107.33,-1995"/>
<text text-anchor="middle" x="3192.3" y="-3331.56" font-family="Times,serif" font-size="14.00">Other handcuff key/lock issues</text>
</g>
<!-- 45196&#45;&gt;END_NODE -->
<g id="edge10" class="edge">
<title>45196&#45;&gt;END_NODE</title>
<path fill="none" stroke="#dddddd" d="M271.62,-3012.85C290.66,-3099.45 329.77,-3205.08 410.01,-3262.36 500.06,-3326.64 796.56,-3288.36 907.2,-3288.36 907.2,-3288.36 907.2,-3288.36 5756.84,-3288.36 5822.91,-3288.36 6007.45,-3310.21 6053.01,-3262.36 6097.62,-3215.53 6103.1,-2220.98 6103.77,-1994.84"/>
<polygon fill="#dddddd" stroke="#dddddd" points="6107.27,-1994.97 6103.8,-1984.96 6100.27,-1994.95 6107.27,-1994.97"/>
<text text-anchor="middle" x="3192.3" y="-3291.56" font-family="Times,serif" font-size="14.00">Broken/damaged keys</text>
</g>
<!-- 45196&#45;&gt;END_NODE -->
<g id="edge11" class="edge">
<title>45196&#45;&gt;END_NODE</title>
<path fill="none" stroke="#dddddd" d="M279.1,-3011.56C300.66,-3086.79 339.78,-3174.28 410.01,-3222.36 501.3,-3284.87 796.56,-3248.36 907.2,-3248.36 907.2,-3248.36 907.2,-3248.36 5756.84,-3248.36 5822.91,-3248.36 6007.42,-3270.18 6053.01,-3222.36 6096.19,-3177.08 6102.77,-2216.88 6103.72,-1994.89"/>
<polygon fill="#dddddd" stroke="#dddddd" points="6107.22,-1995.22 6103.76,-1985.2 6100.22,-1995.19 6107.22,-1995.22"/>
<text text-anchor="middle" x="3192.3" y="-3251.56" font-family="Times,serif" font-size="14.00">Worn locks (not malicious)</text>
</g>
<!-- 45196&#45;&gt;END_NODE -->
<g id="edge12" class="edge">
<title>45196&#45;&gt;END_NODE</title>
<path fill="none" stroke="#dddddd" d="M288.07,-3009.56C311.55,-3073 349.69,-3143.13 410.01,-3182.36 502.76,-3242.68 796.56,-3208.36 907.2,-3208.36 907.2,-3208.36 907.2,-3208.36 5756.84,-3208.36 5822.91,-3208.36 6007.39,-3230.15 6053.01,-3182.36 6094.78,-3138.62 6102.43,-2212.43 6103.66,-1994.84"/>
<polygon fill="#dddddd" stroke="#dddddd" points="6107.15,-1995.09 6103.71,-1985.07 6100.15,-1995.05 6107.15,-1995.09"/>
<text text-anchor="middle" x="3192.3" y="-3211.56" font-family="Times,serif" font-size="14.00">Malicious damage to/blockage of locks</text>
</g>
<!-- 45196&#45;&gt;END_NODE -->
<g id="edge13" class="edge">
<title>45196&#45;&gt;END_NODE</title>
<path fill="none" stroke="#dddddd" d="M298.84,-3006.35C323.43,-3057.7 359.42,-3111.52 410.01,-3142.36 504.48,-3199.95 796.56,-3168.36 907.2,-3168.36 907.2,-3168.36 907.2,-3168.36 5756.84,-3168.36 5822.91,-3168.36 6007.36,-3190.12 6053.01,-3142.36 6093.35,-3100.18 6102.07,-2208.68 6103.59,-1995.07"/>
<polygon fill="#dddddd" stroke="#dddddd" points="6107.09,-1995.22 6103.66,-1985.2 6100.09,-1995.18 6107.09,-1995.22"/>
<text text-anchor="middle" x="3192.3" y="-3171.56" font-family="Times,serif" font-size="14.00">Lock picked</text>
</g>
<!-- 45196&#45;&gt;END_NODE -->
<g id="edge14" class="edge">
<title>45196&#45;&gt;END_NODE</title>
<path fill="none" stroke="#dddddd" d="M311.73,-3001.12C336.28,-3040.36 368.88,-3079.3 410.01,-3102.36 506.52,-3156.46 796.56,-3128.36 907.2,-3128.36 907.2,-3128.36 907.2,-3128.36 5756.84,-3128.36 5822.87,-3128.36 6007.19,-3151.91 6053.01,-3104.36 6092.15,-3063.76 6101.76,-2204.13 6103.53,-1994.95"/>
<polygon fill="#dddddd" stroke="#dddddd" points="6107.03,-1995.05 6103.61,-1985.02 6100.03,-1995 6107.03,-1995.05"/>
<text text-anchor="middle" x="3192.3" y="-3131.56" font-family="Times,serif" font-size="14.00">Part of lock removed</text>
</g>
<!-- 45196&#45;&gt;END_NODE -->
<g id="edge15" class="edge">
<title>45196&#45;&gt;END_NODE</title>
<path fill="none" stroke="#dddddd" d="M326.97,-2992.8C350.01,-3020.35 377.94,-3046.29 410.01,-3062.36 508.92,-3111.94 796.56,-3088.36 907.2,-3088.36 907.2,-3088.36 907.2,-3088.36 2858.78,-3088.36 3225.53,-3088.36 3317.21,-3090.36 3683.96,-3090.36 3683.96,-3090.36 3683.96,-3090.36 5756.84,-3090.36 5822.87,-3090.36 6007.15,-3113.87 6053.01,-3066.36 6090.79,-3027.23 6101.4,-2200.21 6103.46,-1995.09"/>
<polygon fill="#dddddd" stroke="#dddddd" points="6106.96,-1995.13 6103.55,-1985.1 6099.96,-1995.06 6106.96,-1995.13"/>
<text text-anchor="middle" x="3192.3" y="-3092.94" font-family="Times,serif" font-size="14.00">Complete lock removed</text>
</g>
<!-- 45196&#45;&gt;END_NODE -->
<g id="edge16" class="edge">
<title>45196&#45;&gt;END_NODE</title>
<path fill="none" stroke="#dddddd" d="M344.11,-2979.64C364.02,-2996.76 386.31,-3012.2 410.01,-3022.36 511.7,-3065.96 796.56,-3048.36 907.2,-3048.36 907.2,-3048.36 907.2,-3048.36 2858.78,-3048.36 3225.53,-3048.36 3317.21,-3052.36 3683.96,-3052.36 3683.96,-3052.36 3683.96,-3052.36 5756.84,-3052.36 5822.87,-3052.36 6007.12,-3075.84 6053.01,-3028.36 6089.46,-2990.67 6101.04,-2195.17 6103.38,-1994.84"/>
<polygon fill="#dddddd" stroke="#dddddd" points="6106.88,-1995.14 6103.49,-1985.1 6099.88,-1995.06 6106.88,-1995.14"/>
<text text-anchor="middle" x="3192.3" y="-3054.32" font-family="Times,serif" font-size="14.00">Electronics overcome (electronic door)</text>
</g>
<!-- 45196&#45;&gt;END_NODE -->
<g id="edge17" class="edge">
<title>45196&#45;&gt;END_NODE</title>
<path fill="none" stroke="#dddddd" d="M362.78,-2960.52C377.99,-2969.24 393.93,-2976.89 410.01,-2982.36 514.74,-3018.04 796.56,-3008.36 907.2,-3008.36 907.2,-3008.36 907.2,-3008.36 2858.78,-3008.36 3225.54,-3008.36 3317.2,-3014.36 3683.96,-3014.36 3683.96,-3014.36 3683.96,-3014.36 5756.84,-3014.36 5822.87,-3014.36 6007.07,-3037.8 6053.01,-2990.36 6088.11,-2954.12 6100.66,-2190.64 6103.3,-1994.81"/>
<polygon fill="#dddddd" stroke="#dddddd" points="6106.8,-1995.09 6103.43,-1985.05 6099.8,-1995 6106.8,-1995.09"/>
<text text-anchor="middle" x="3192.3" y="-3015.7" font-family="Times,serif" font-size="14.00">Electronics failure (electronic door)</text>
</g>
<!-- 45196&#45;&gt;END_NODE -->
<g id="edge18" class="edge">
<title>45196&#45;&gt;END_NODE</title>
<path fill="none" stroke="#dddddd" d="M379.06,-2933.44C389.38,-2936.91 399.78,-2939.96 410.01,-2942.36 625.4,-2993.07 685.92,-2968.36 907.2,-2968.36 907.2,-2968.36 907.2,-2968.36 2858.78,-2968.36 3225.54,-2968.36 3317.19,-2976.36 3683.96,-2976.36 3683.96,-2976.36 3683.96,-2976.36 5756.84,-2976.36 5822.87,-2976.36 6007.03,-2999.76 6053.01,-2952.36 6086.77,-2917.57 6100.26,-2185.8 6103.22,-1994.69"/>
<polygon fill="#dddddd" stroke="#dddddd" points="6106.71,-1994.98 6103.36,-1984.92 6099.71,-1994.87 6106.71,-1994.98"/>
<text text-anchor="middle" x="3192.3" y="-2977.07" font-family="Times,serif" font-size="14.00">Replica key found/used</text>
</g>
<!-- 45196&#45;&gt;END_NODE -->
<g id="edge19" class="edge">
<title>45196&#45;&gt;END_NODE</title>
<path fill="none" stroke="#dddddd" d="M389.49,-2901.62C396.42,-2902.64 403.29,-2903.56 410.01,-2904.36 629.68,-2930.6 685.97,-2928.36 907.2,-2928.36 907.2,-2928.36 907.2,-2928.36 2858.78,-2928.36 3225.55,-2928.36 3317.19,-2938.36 3683.96,-2938.36 3683.96,-2938.36 3683.96,-2938.36 5756.84,-2938.36 5822.87,-2938.36 6006.98,-2961.71 6053.01,-2914.36 6085.43,-2881.02 6099.84,-2181.42 6103.12,-1994.79"/>
<polygon fill="#dddddd" stroke="#dddddd" points="6106.62,-1995.07 6103.29,-1985.01 6099.62,-1994.95 6106.62,-1995.07"/>
<text text-anchor="middle" x="3192.3" y="-2938.45" font-family="Times,serif" font-size="14.00">Key viewed by prisoner</text>
</g>
<!-- 45196&#45;&gt;END_NODE -->
<g id="edge20" class="edge">
<title>45196&#45;&gt;END_NODE</title>
<path fill="none" stroke="#dddddd" d="M392.26,-2879.73C524.54,-2884.38 729.43,-2890.36 907.2,-2890.36 907.2,-2890.36 907.2,-2890.36 2691.14,-2890.36 3132.41,-2890.36 3242.68,-2900.36 3683.96,-2900.36 3683.96,-2900.36 3683.96,-2900.36 5756.84,-2900.36 5889.92,-2900.36 5963.31,-2954.67 6053.01,-2856.36 6082.32,-2824.25 6098.87,-2174.3 6102.9,-1994.89"/>
<polygon fill="#dddddd" stroke="#dddddd" points="6106.39,-1995.11 6103.12,-1985.03 6099.4,-1994.95 6106.39,-1995.11"/>
<text text-anchor="middle" x="3192.3" y="-2901.54" font-family="Times,serif" font-size="14.00">Other: (anything else including prisoner grabbing key chain, etc)</text>
</g>
<!-- 45197 -->
<g id="node4" class="node">
<title>45197</title>
<ellipse fill="none" stroke="black" cx="908.2" cy="-2218.36" rx="130.68" ry="130.68"/>
<text text-anchor="middle" x="908.2" y="-2213.31" font-family="Times,serif" font-size="14.00">Describe the type of key or lock</text>
</g>
<!-- 45196&#45;&gt;45197 -->
<g id="edge21" class="edge">
<title>45196&#45;&gt;45197</title>
<path fill="none" stroke="black" d="M391.76,-2861.37C397.93,-2860.85 404.04,-2860.34 410.01,-2859.86 448.81,-2856.76 729.79,-2861.49 759.51,-2836.36 831.22,-2775.76 872.86,-2522.54 892.72,-2359.63"/>
<polygon fill="black" stroke="black" points="896.15,-2360.4 893.87,-2350.05 889.2,-2359.56 896.15,-2360.4"/>
<text text-anchor="middle" x="584.76" y="-2863.06" font-family="Times,serif" font-size="14.00">Keys taken out of the establishment</text>
</g>
<!-- 45196&#45;&gt;45197 -->
<g id="edge22" class="edge">
<title>45196&#45;&gt;45197</title>
<path fill="none" stroke="black" d="M382.44,-2822.75C391.68,-2820.11 400.94,-2817.77 410.01,-2815.86 448.08,-2807.88 729.47,-2821.07 759.51,-2796.36 826.29,-2741.45 868.78,-2512.35 890.26,-2359.6"/>
<polygon fill="black" stroke="black" points="893.71,-2360.16 891.62,-2349.78 886.78,-2359.2 893.71,-2360.16"/>
<text text-anchor="middle" x="584.76" y="-2819.06" font-family="Times,serif" font-size="14.00">Keys lost</text>
</g>
<!-- 45196&#45;&gt;45197 -->
<g id="edge23" class="edge">
<title>45196&#45;&gt;45197</title>
<path fill="none" stroke="black" d="M366.97,-2794C380.98,-2786.8 395.5,-2780.5 410.01,-2775.86 447.07,-2764.04 729.26,-2780.8 759.51,-2756.36 821.11,-2706.62 864.27,-2500.99 887.41,-2358.87"/>
<polygon fill="black" stroke="black" points="890.8,-2359.81 888.94,-2349.39 883.89,-2358.7 890.8,-2359.81"/>
<text text-anchor="middle" x="584.76" y="-2779.06" font-family="Times,serif" font-size="14.00">Key left unattended in prison</text>
</g>
<!-- 45196&#45;&gt;45197 -->
<g id="edge24" class="edge">
<title>45196&#45;&gt;45197</title>
<path fill="none" stroke="black" d="M348.48,-2773.09C367.4,-2758.18 388.21,-2744.83 410.01,-2735.86 445.98,-2721.07 729.01,-2740.49 759.51,-2716.36 815.89,-2671.78 859.31,-2489.66 884.06,-2358.55"/>
<polygon fill="black" stroke="black" points="887.43,-2359.58 885.83,-2349.1 880.55,-2358.29 887.43,-2359.58"/>
<text text-anchor="middle" x="584.76" y="-2739.06" font-family="Times,serif" font-size="14.00">Key issued to wrong person</text>
</g>
<!-- 45196&#45;&gt;45197 -->
<g id="edge25" class="edge">
<title>45196&#45;&gt;45197</title>
<path fill="none" stroke="black" d="M330.9,-2758.67C353.35,-2733.73 380.02,-2710.49 410.01,-2695.86 479.94,-2661.78 697.94,-2723.89 759.51,-2676.36 855.31,-2602.43 889.98,-2465.53 902.03,-2360.6"/>
<polygon fill="black" stroke="black" points="905.5,-2361.08 903.1,-2350.76 898.54,-2360.33 905.5,-2361.08"/>
<text text-anchor="middle" x="584.76" y="-2699.06" font-family="Times,serif" font-size="14.00">Doors/gates/cell door left unlocked</text>
</g>
<!-- 45196&#45;&gt;45197 -->
<g id="edge26" class="edge">
<title>45196&#45;&gt;45197</title>
<path fill="none" stroke="black" d="M315.12,-2749.42C339.47,-2713 371.08,-2677.27 410.01,-2655.86 478.18,-2618.39 697.28,-2683.03 759.51,-2636.36 845.16,-2572.13 881.34,-2454.3 896.51,-2360.07"/>
<polygon fill="black" stroke="black" points="899.97,-2360.62 898.03,-2350.2 893.05,-2359.55 899.97,-2360.62"/>
<text text-anchor="middle" x="584.76" y="-2659.06" font-family="Times,serif" font-size="14.00">Loss of handcuffs</text>
</g>
<!-- 45196&#45;&gt;45197 -->
<g id="edge27" class="edge">
<title>45196&#45;&gt;45197</title>
<path fill="none" stroke="black" d="M301.66,-2743.65C326.37,-2695.15 361.69,-2644.91 410.01,-2615.86 476.68,-2575.79 696.52,-2642.01 759.51,-2596.36 835,-2541.67 871.91,-2442.54 889.95,-2359.52"/>
<polygon fill="black" stroke="black" points="893.34,-2360.42 891.96,-2349.92 886.48,-2358.99 893.34,-2360.42"/>
<text text-anchor="middle" x="584.76" y="-2619.06" font-family="Times,serif" font-size="14.00">Loss of escort chain</text>
</g>
<!-- 45196&#45;&gt;45197 -->
<g id="edge28" class="edge">
<title>45196&#45;&gt;45197</title>
<path fill="none" stroke="black" d="M290.52,-2739.85C314.37,-2679.29 352.09,-2613.15 410.01,-2575.86 475.42,-2533.76 695.64,-2600.75 759.51,-2556.36 825.04,-2510.83 861.77,-2429.55 882.2,-2358.1"/>
<polygon fill="black" stroke="black" points="885.53,-2359.21 884.82,-2348.64 878.78,-2357.35 885.53,-2359.21"/>
<text text-anchor="middle" x="584.76" y="-2579.06" font-family="Times,serif" font-size="14.00">Other handcuff key/lock issues</text>
</g>
<!-- 45196&#45;&gt;45197 -->
<g id="edge29" class="edge">
<title>45196&#45;&gt;45197</title>
<path fill="none" stroke="black" d="M281.2,-2737.47C303.31,-2665.09 342.28,-2581.89 410.01,-2535.86 474.35,-2492.14 694.59,-2559.2 759.51,-2516.36 815.1,-2479.69 850.57,-2415.59 872.78,-2356.2"/>
<polygon fill="black" stroke="black" points="876,-2357.58 876.12,-2346.99 869.42,-2355.2 876,-2357.58"/>
<text text-anchor="middle" x="584.76" y="-2539.06" font-family="Times,serif" font-size="14.00">Broken/damaged keys</text>
</g>
<!-- 45196&#45;&gt;45197 -->
<g id="edge30" class="edge">
<title>45196&#45;&gt;45197</title>
<path fill="none" stroke="black" d="M273.29,-2736.46C292.98,-2652.51 332.18,-2551.12 410.01,-2495.86 473.44,-2450.83 693.33,-2517.24 759.51,-2476.36 805.33,-2448.06 838.33,-2399.97 861.36,-2352.92"/>
<polygon fill="black" stroke="black" points="864.49,-2354.49 865.61,-2343.96 858.16,-2351.49 864.49,-2354.49"/>
<text text-anchor="middle" x="584.76" y="-2499.06" font-family="Times,serif" font-size="14.00">Worn locks (not malicious)</text>
</g>
<!-- 45196&#45;&gt;45197 -->
<g id="edge31" class="edge">
<title>45196&#45;&gt;45197</title>
<path fill="none" stroke="black" d="M266.76,-2735.37C283.64,-2640.42 322.17,-2520.52 410.01,-2455.86 472.66,-2409.76 691.84,-2474.72 759.51,-2436.36 796.02,-2415.68 825.34,-2381.79 847.93,-2346.84"/>
<polygon fill="black" stroke="black" points="850.66,-2349.06 853.02,-2338.73 844.73,-2345.34 850.66,-2349.06"/>
<text text-anchor="middle" x="584.76" y="-2459.06" font-family="Times,serif" font-size="14.00">Malicious damage to/blockage of locks</text>
</g>
<!-- 45196&#45;&gt;45197 -->
<g id="edge32" class="edge">
<title>45196&#45;&gt;45197</title>
<path fill="none" stroke="black" d="M261.18,-2734.8C274.95,-2629.24 312.01,-2490.2 410.01,-2415.86 471.99,-2368.86 690.06,-2431.38 759.51,-2396.36 786.82,-2382.6 810.94,-2361.27 831.37,-2338.1"/>
<polygon fill="black" stroke="black" points="833.91,-2340.52 837.74,-2330.65 828.59,-2335.97 833.91,-2340.52"/>
<text text-anchor="middle" x="584.76" y="-2419.06" font-family="Times,serif" font-size="14.00">Lock picked</text>
</g>
<!-- 45196&#45;&gt;45197 -->
<g id="edge33" class="edge">
<title>45196&#45;&gt;45197</title>
<path fill="none" stroke="black" d="M278.64,-2736.97C305.61,-2605.45 352.52,-2420.6 410.01,-2375.86 440.71,-2351.98 723.75,-2371.64 759.51,-2356.36 778.48,-2348.27 796.51,-2336.62 813.05,-2323.47"/>
<polygon fill="black" stroke="black" points="814.89,-2326.49 820.39,-2317.43 810.45,-2321.08 814.89,-2326.49"/>
<text text-anchor="middle" x="584.76" y="-2379.06" font-family="Times,serif" font-size="14.00">Part of lock removed</text>
</g>
<!-- 45196&#45;&gt;45197 -->
<g id="edge34" class="edge">
<title>45196&#45;&gt;45197</title>
<path fill="none" stroke="black" d="M275.21,-2736.59C300.58,-2594.16 347.3,-2385.75 410.01,-2335.86 440.45,-2311.65 722.61,-2328.63 759.51,-2316.36 770.92,-2312.58 782.28,-2307.66 793.34,-2302.06"/>
<polygon fill="black" stroke="black" points="794.87,-2305.21 802.07,-2297.43 791.6,-2299.02 794.87,-2305.21"/>
<text text-anchor="middle" x="584.76" y="-2339.06" font-family="Times,serif" font-size="14.00">Complete lock removed</text>
</g>
<!-- 45196&#45;&gt;45197 -->
<g id="edge35" class="edge">
<title>45196&#45;&gt;45197</title>
<path fill="none" stroke="black" d="M272.25,-2736.14C295.93,-2583.19 342.08,-2350.94 410.01,-2295.86 440.23,-2271.37 721.52,-2284.66 759.51,-2276.36 765.09,-2275.15 770.73,-2273.75 776.39,-2272.2"/>
<polygon fill="black" stroke="black" points="777.19,-2275.61 785.83,-2269.48 775.25,-2268.89 777.19,-2275.61"/>
<text text-anchor="middle" x="584.76" y="-2299.06" font-family="Times,serif" font-size="14.00">Electronics overcome (electronic door)</text>
</g>
<!-- 45196&#45;&gt;45197 -->
<g id="edge36" class="edge">
<title>45196&#45;&gt;45197</title>
<path fill="none" stroke="black" d="M269.64,-2735.72C291.59,-2572.58 336.84,-2316.19 410.01,-2255.86 440.03,-2231.12 720.77,-2239.8 759.51,-2236.36 762.02,-2236.14 764.55,-2235.91 767.1,-2235.67"/>
<polygon fill="black" stroke="black" points="767.26,-2239.17 776.87,-2234.72 766.58,-2232.21 767.26,-2239.17"/>
<text text-anchor="middle" x="584.76" y="-2259.06" font-family="Times,serif" font-size="14.00">Electronics failure (electronic door)</text>
</g>
<!-- 45196&#45;&gt;45197 -->
<g id="edge37" class="edge">
<title>45196&#45;&gt;45197</title>
<path fill="none" stroke="black" d="M266.72,-2735.22C286.27,-2561.49 329.7,-2279.34 410.01,-2215.86 437.41,-2194.21 628.84,-2200.93 765.97,-2208.81"/>
<polygon fill="black" stroke="black" points="765.71,-2212.3 775.9,-2209.39 766.12,-2205.31 765.71,-2212.3"/>
<text text-anchor="middle" x="584.76" y="-2219.06" font-family="Times,serif" font-size="14.00">Replica key found/used</text>
</g>
<!-- 45196&#45;&gt;45197 -->
<g id="edge38" class="edge">
<title>45196&#45;&gt;45197</title>
<path fill="none" stroke="black" d="M264.86,-2735.33C282.78,-2553.2 324.89,-2248.93 410.01,-2180.86 470.67,-2132.36 682.45,-2171.23 759.51,-2180.86 763.19,-2181.32 766.9,-2181.85 770.64,-2182.42"/>
<polygon fill="black" stroke="black" points="769.99,-2185.86 780.42,-2184.05 771.14,-2178.95 769.99,-2185.86"/>
<text text-anchor="middle" x="584.76" y="-2184.06" font-family="Times,serif" font-size="14.00">Key viewed by prisoner</text>
</g>
<!-- 45196&#45;&gt;45197 -->
<g id="edge39" class="edge">
<title>45196&#45;&gt;45197</title>
<path fill="none" stroke="black" d="M262.8,-2735.16C278.69,-2542.72 318.87,-2210.71 410.01,-2136.86 530.71,-2039.08 609.09,-2098.11 759.51,-2136.86 768.48,-2139.18 777.49,-2142.16 786.39,-2145.61"/>
<polygon fill="black" stroke="black" points="784.79,-2148.74 795.37,-2149.3 787.45,-2142.27 784.79,-2148.74"/>
<text text-anchor="middle" x="584.76" y="-2140.06" font-family="Times,serif" font-size="14.00">Other (anything else including prisoner grabbing key chain, etc)</text>
</g>
<!-- 45197&#45;&gt;END_NODE -->
<g id="edge40" class="edge">
<title>45197&#45;&gt;END_NODE</title>
<path fill="none" stroke="#dddddd" d="M908.62,-2087.57C909.99,-1614.81 946.14,-22.36 1370.78,-22.36 1370.78,-22.36 1370.78,-22.36 5756.84,-22.36 5889.19,-22.36 5963.12,43.77 6053.01,-53.36 6085.46,-88.43 6100.88,-1619.17 6103.47,-1904"/>
<polygon fill="#dddddd" stroke="#dddddd" points="6099.97,-1903.64 6103.56,-1913.61 6106.97,-1903.57 6099.97,-1903.64"/>
<text text-anchor="middle" x="3510.44" y="-25.56" font-family="Times,serif" font-size="14.00">Class 1 pass key</text>
</g>
<!-- 45197&#45;&gt;END_NODE -->
<g id="edge41" class="edge">
<title>45197&#45;&gt;END_NODE</title>
<path fill="none" stroke="#dddddd" d="M923.98,-2348.28C944.65,-2505.11 987.62,-2755.45 1056.88,-2816.36 1162.32,-2909.11 1230.35,-2852.36 1370.78,-2852.36 1370.78,-2852.36 1370.78,-2852.36 2691.14,-2852.36 3132.39,-2852.36 3242.7,-2855.36 3683.96,-2855.36 3683.96,-2855.36 3683.96,-2855.36 5756.84,-2855.36 5889.61,-2855.36 5962.59,-2913.58 6053.01,-2816.36 6081.21,-2786.05 6098.47,-2169.2 6102.79,-1994.88"/>
<polygon fill="#dddddd" stroke="#dddddd" points="6106.28,-1995.18 6103.03,-1985.1 6099.29,-1995.01 6106.28,-1995.18"/>
<text text-anchor="middle" x="3510.44" y="-2858.55" font-family="Times,serif" font-size="14.00">Class 2 pass key</text>
</g>
<!-- 45197&#45;&gt;END_NODE -->
<g id="edge42" class="edge">
<title>45197&#45;&gt;END_NODE</title>
<path fill="none" stroke="#dddddd" d="M927.46,-2347.83C950.46,-2491.22 994.65,-2709.34 1056.88,-2763.36 1109.96,-2809.44 1300.49,-2802.36 1370.78,-2802.36 1370.78,-2802.36 1370.78,-2802.36 5756.84,-2802.36 5889.61,-2802.36 5962.4,-2860.41 6053.01,-2763.36 6105.62,-2707.02 6105.53,-2157.48 6104.32,-1994.63"/>
<polygon fill="#dddddd" stroke="#dddddd" points="6107.83,-1995.06 6104.25,-1985.09 6100.83,-1995.12 6107.83,-1995.06"/>
<text text-anchor="middle" x="3510.44" y="-2805.56" font-family="Times,serif" font-size="14.00">Cell key</text>
</g>
<!-- 45197&#45;&gt;END_NODE -->
<g id="edge43" class="edge">
<title>45197&#45;&gt;END_NODE</title>
<path fill="none" stroke="#dddddd" d="M931.52,-2347.41C956.66,-2476.83 1001.35,-2663.46 1056.88,-2710.36 1110.58,-2755.72 1300.49,-2749.36 1370.78,-2749.36 1370.78,-2749.36 1370.78,-2749.36 5756.84,-2749.36 5889.61,-2749.36 5962.19,-2807.21 6053.01,-2710.36 6101.95,-2658.18 6104.5,-2151.74 6104.11,-1995.22"/>
<polygon fill="#dddddd" stroke="#dddddd" points="6107.61,-1995.21 6104.08,-1985.22 6100.61,-1995.23 6107.61,-1995.21"/>
<text text-anchor="middle" x="3510.44" y="-2752.56" font-family="Times,serif" font-size="14.00">Class 3 A1 suite key</text>
</g>
<!-- 45197&#45;&gt;END_NODE -->
<g id="edge44" class="edge">
<title>45197&#45;&gt;END_NODE</title>
<path fill="none" stroke="#dddddd" d="M917,-2349.19C930.35,-2449.39 965.49,-2582.71 1056.88,-2657.36 1165.75,-2746.3 1230.2,-2696.36 1370.78,-2696.36 1370.78,-2696.36 1370.78,-2696.36 5756.84,-2696.36 5889.61,-2696.36 5961.95,-2753.98 6053.01,-2657.36 6098.38,-2609.23 6103.42,-2143.91 6103.87,-1994.97"/>
<polygon fill="#dddddd" stroke="#dddddd" points="6107.37,-1995.1 6103.89,-1985.09 6100.37,-1995.09 6107.37,-1995.1"/>
<text text-anchor="middle" x="3510.44" y="-2699.56" font-family="Times,serif" font-size="14.00">Class 3 accountable key</text>
</g>
<!-- 45197&#45;&gt;END_NODE -->
<g id="edge45" class="edge">
<title>45197&#45;&gt;END_NODE</title>
<path fill="none" stroke="#dddddd" d="M924.44,-2348.47C941.71,-2434.74 978.51,-2542.97 1056.88,-2604.36 1167.55,-2691.06 1230.2,-2643.36 1370.78,-2643.36 1370.78,-2643.36 1370.78,-2643.36 5756.84,-2643.36 5889.61,-2643.36 5961.67,-2700.72 6053.01,-2604.36 6094.8,-2560.28 6102.26,-2136.07 6103.58,-1994.84"/>
<polygon fill="#dddddd" stroke="#dddddd" points="6107.08,-1995.16 6103.67,-1985.13 6100.08,-1995.1 6107.08,-1995.16"/>
<text text-anchor="middle" x="3510.44" y="-2646.56" font-family="Times,serif" font-size="14.00">Handcuff key</text>
</g>
<!-- 45197&#45;&gt;END_NODE -->
<g id="edge46" class="edge">
<title>45197&#45;&gt;END_NODE</title>
<path fill="none" stroke="#dddddd" d="M933.8,-2347.01C954.38,-2418.57 991.37,-2502.74 1056.88,-2551.36 1169.77,-2635.15 1230.2,-2590.36 1370.78,-2590.36 1370.78,-2590.36 1370.78,-2590.36 5756.84,-2590.36 5889.61,-2590.36 5961.35,-2647.41 6053.01,-2551.36 6091.23,-2511.32 6101,-2127.87 6103.25,-1994.68"/>
<polygon fill="#dddddd" stroke="#dddddd" points="6106.75,-1994.89 6103.41,-1984.83 6099.75,-1994.77 6106.75,-1994.89"/>
<text text-anchor="middle" x="3510.44" y="-2593.56" font-family="Times,serif" font-size="14.00">Escort chain key</text>
</g>
<!-- 45197&#45;&gt;END_NODE -->
<g id="edge47" class="edge">
<title>45197&#45;&gt;END_NODE</title>
<path fill="none" stroke="#dddddd" d="M945.74,-2344.04C968.58,-2400.19 1003.97,-2461.82 1056.88,-2498.36 1172.55,-2578.27 1230.2,-2537.36 1370.78,-2537.36 1370.78,-2537.36 1370.78,-2537.36 5756.84,-2537.36 5889.61,-2537.36 5960.96,-2594.04 6053.01,-2498.36 6087.65,-2462.36 6099.61,-2119.98 6102.85,-1994.86"/>
<polygon fill="#dddddd" stroke="#dddddd" points="6106.35,-1995.05 6103.1,-1984.96 6099.35,-1994.87 6106.35,-1995.05"/>
<text text-anchor="middle" x="3510.44" y="-2540.56" font-family="Times,serif" font-size="14.00">Class 1 lock</text>
</g>
<!-- 45197&#45;&gt;END_NODE -->
<g id="edge48" class="edge">
<title>45197&#45;&gt;END_NODE</title>
<path fill="none" stroke="#dddddd" d="M961.08,-2338.37C984.51,-2378.74 1016.22,-2419.94 1056.88,-2445.36 1176.08,-2519.9 1230.2,-2484.36 1370.78,-2484.36 1370.78,-2484.36 1370.78,-2484.36 5756.84,-2484.36 5889.61,-2484.36 5960.49,-2540.59 6053.01,-2445.36 6084.1,-2413.37 6098.1,-2111.21 6102.37,-1994.79"/>
<polygon fill="#dddddd" stroke="#dddddd" points="6105.86,-1995.1 6102.72,-1984.98 6098.87,-1994.85 6105.86,-1995.1"/>
<text text-anchor="middle" x="3510.44" y="-2487.56" font-family="Times,serif" font-size="14.00">Class 2 lock</text>
</g>
<!-- 45197&#45;&gt;END_NODE -->
<g id="edge49" class="edge">
<title>45197&#45;&gt;END_NODE</title>
<path fill="none" stroke="#dddddd" d="M980.34,-2327.49C1001.94,-2352.66 1027.77,-2376.64 1056.88,-2392.36 1180.57,-2459.19 1230.2,-2431.36 1370.78,-2431.36 1370.78,-2431.36 1370.78,-2431.36 5756.84,-2431.36 5889.61,-2431.36 5959.92,-2487.02 6053.01,-2392.36 6080.55,-2364.37 6096.38,-2102.48 6101.76,-1995.03"/>
<polygon fill="#dddddd" stroke="#dddddd" points="6105.26,-1995.29 6102.25,-1985.13 6098.26,-1994.95 6105.26,-1995.29"/>
<text text-anchor="middle" x="3510.44" y="-2434.56" font-family="Times,serif" font-size="14.00">Cell lock</text>
</g>
<!-- 45197&#45;&gt;END_NODE -->
<g id="edge50" class="edge">
<title>45197&#45;&gt;END_NODE</title>
<path fill="none" stroke="#dddddd" d="M1003.37,-2308.16C1020.18,-2320.36 1038.29,-2331.4 1056.88,-2339.36 1186.09,-2394.76 1230.2,-2378.36 1370.78,-2378.36 1370.78,-2378.36 1370.78,-2378.36 5756.84,-2378.36 5889.61,-2378.36 5959.19,-2433.3 6053.01,-2339.36 6100.45,-2291.87 6105.02,-2087.25 6104.58,-1994.9"/>
<polygon fill="#dddddd" stroke="#dddddd" points="6108.09,-1994.91 6104.51,-1984.94 6101.09,-1994.96 6108.09,-1994.91"/>
<text text-anchor="middle" x="3510.44" y="-2381.56" font-family="Times,serif" font-size="14.00">Class 3 A1 suite lock</text>
</g>
<!-- 45197&#45;&gt;END_NODE -->
<g id="edge51" class="edge">
<title>45197&#45;&gt;END_NODE</title>
<path fill="none" stroke="#dddddd" d="M1025.64,-2275.92C1036.06,-2279.86 1046.56,-2283.43 1056.88,-2286.36 1192.08,-2324.89 1230.2,-2325.36 1370.78,-2325.36 1370.78,-2325.36 1370.78,-2325.36 5756.84,-2325.36 5889.61,-2325.36 5958.25,-2379.36 6053.01,-2286.36 6093.51,-2246.63 6101.87,-2077.31 6103.52,-1994.85"/>
<polygon fill="#dddddd" stroke="#dddddd" points="6107.01,-1995.15 6103.69,-1985.09 6100.01,-1995.03 6107.01,-1995.15"/>
<text text-anchor="middle" x="3510.44" y="-2328.56" font-family="Times,serif" font-size="14.00">Class 3 accountable lock</text>
</g>
<!-- 45197&#45;&gt;END_NODE -->
<g id="edge52" class="edge">
<title>45197&#45;&gt;END_NODE</title>
<path fill="none" stroke="#dddddd" d="M1037.06,-2241.42C1129.46,-2256.1 1257.42,-2272.36 1370.78,-2272.36 1370.78,-2272.36 1370.78,-2272.36 5756.84,-2272.36 5822.87,-2272.36 6004.32,-2292.97 6053.01,-2248.36 6089.41,-2215.03 6099.77,-2070.17 6102.71,-1995"/>
<polygon fill="#dddddd" stroke="#dddddd" points="6106.21,-1995.2 6103.07,-1985.08 6099.21,-1994.95 6106.21,-1995.2"/>
<text text-anchor="middle" x="3510.44" y="-2275.56" font-family="Times,serif" font-size="14.00">Handcuffs</text>
</g>
<!-- 45197&#45;&gt;END_NODE -->
<g id="edge53" class="edge">
<title>45197&#45;&gt;END_NODE</title>
<path fill="none" stroke="#dddddd" d="M1039.02,-2218.8C1131.52,-2219.07 1258.79,-2219.36 1370.78,-2219.36 1370.78,-2219.36 1370.78,-2219.36 3193.3,-2219.36 3971.92,-2219.36 4166.51,-2234.36 4945.12,-2234.36 4945.12,-2234.36 4945.12,-2234.36 5756.84,-2234.36 5822.87,-2234.36 6003.79,-2254.38 6053.01,-2210.36 6084.34,-2182.35 6096.83,-2062.17 6101.43,-1995.09"/>
<polygon fill="#dddddd" stroke="#dddddd" points="6104.92,-1995.33 6102.08,-1985.12 6097.94,-1994.87 6104.92,-1995.33"/>
<text text-anchor="middle" x="3510.44" y="-2224.39" font-family="Times,serif" font-size="14.00">Escort chain</text>
</g>
<!-- 45197&#45;&gt;END_NODE -->
<g id="edge54" class="edge">
<title>45197&#45;&gt;END_NODE</title>
<path fill="none" stroke="#dddddd" d="M1039.32,-2215.09C1169.1,-2211.98 1374.17,-2207.47 1551.68,-2205.36 3059.78,-2187.46 3436.92,-2196.36 4945.12,-2196.36 4945.12,-2196.36 4945.12,-2196.36 5756.84,-2196.36 5822.87,-2196.36 6003.1,-2215.59 6053.01,-2172.36 6079.39,-2149.52 6093.52,-2052.91 6099.79,-1994.6"/>
<polygon fill="#dddddd" stroke="#dddddd" points="6103.23,-1995.3 6100.78,-1984.99 6096.27,-1994.58 6103.23,-1995.3"/>
<text text-anchor="middle" x="3510.44" y="-2197.73" font-family="Times,serif" font-size="14.00">Electronic lock system</text>
</g>
<!-- 45197&#45;&gt;END_NODE -->
<g id="edge55" class="edge">
<title>45197&#45;&gt;END_NODE</title>
<path fill="none" stroke="#dddddd" d="M1038.84,-2208.45C1044.94,-2208.06 1050.97,-2207.7 1056.88,-2207.36 1124.82,-2203.5 1141.85,-2203.13 1209.88,-2201.36 2869.54,-2158.35 3284.9,-2158.36 4945.12,-2158.36 4945.12,-2158.36 4945.12,-2158.36 5756.84,-2158.36 5822.87,-2158.36 6002.16,-2176.48 6053.01,-2134.36 6074.45,-2116.61 6089.57,-2043.21 6097.48,-1994.37"/>
<polygon fill="#dddddd" stroke="#dddddd" points="6100.92,-1995.06 6099.01,-1984.64 6094,-1993.97 6100.92,-1995.06"/>
<text text-anchor="middle" x="3510.44" y="-2164.31" font-family="Times,serif" font-size="14.00">Magnetic keys</text>
</g>
<!-- 45197&#45;&gt;END_NODE -->
<g id="edge56" class="edge">
<title>45197&#45;&gt;END_NODE</title>
<path fill="none" stroke="#dddddd" d="M1037.99,-2199.36C1044.37,-2198.64 1050.69,-2197.97 1056.88,-2197.36 1210.79,-2182.43 1606.72,-2180.04 1635.68,-2179.36 3106.38,-2145.09 3474.03,-2120.36 4945.12,-2120.36 4945.12,-2120.36 4945.12,-2120.36 5756.84,-2120.36 5822.87,-2120.36 6000.82,-2136.81 6053.01,-2096.36 6083.94,-2072.39 6096.15,-2028.46 6100.92,-1994.84"/>
<polygon fill="#dddddd" stroke="#dddddd" points="6104.4,-1995.28 6102.14,-1984.93 6097.45,-1994.43 6104.4,-1995.28"/>
<text text-anchor="middle" x="3510.44" y="-2138.02" font-family="Times,serif" font-size="14.00">Magnetic lock</text>
</g>
<!-- 45197&#45;&gt;END_NODE -->
<g id="edge57" class="edge">
<title>45197&#45;&gt;END_NODE</title>
<path fill="none" stroke="#dddddd" d="M1035.84,-2188.68C1042.93,-2187.45 1049.98,-2186.33 1056.88,-2185.36 1124.34,-2175.91 1141.83,-2179.4 1209.88,-2176.36 2868.86,-2102.25 3284.49,-2082.36 4945.12,-2082.36 4945.12,-2082.36 4945.12,-2082.36 5756.84,-2082.36 5888.9,-2082.36 5944.58,-2133.75 6053.01,-2058.36 6074.52,-2043.41 6087.17,-2016.93 6094.46,-1993.82"/>
<polygon fill="#dddddd" stroke="#dddddd" points="6097.81,-1994.84 6097.21,-1984.26 6091.08,-1992.9 6097.81,-1994.84"/>
<text text-anchor="middle" x="3510.44" y="-2097.31" font-family="Times,serif" font-size="14.00">Cell door</text>
</g>
<!-- 45197&#45;&gt;END_NODE -->
<g id="edge58" class="edge">
<title>45197&#45;&gt;END_NODE</title>
<path fill="none" stroke="#dddddd" d="M1032.83,-2178.75C1040.93,-2176.76 1048.99,-2174.94 1056.88,-2173.36 1196.4,-2145.55 1570.34,-2143.06 1635.68,-2140.36 3105.91,-2079.7 3473.64,-2044.36 4945.12,-2044.36 4945.12,-2044.36 4945.12,-2044.36 5756.84,-2044.36 5888.9,-2044.36 5938.08,-2085.42 6053.01,-2020.36 6065.71,-2013.18 6076.05,-2001.35 6084.01,-1989.4"/>
<polygon fill="#dddddd" stroke="#dddddd" points="6086.83,-1991.51 6089.09,-1981.16 6080.87,-1987.84 6086.83,-1991.51"/>
<text text-anchor="middle" x="3510.44" y="-2069.4" font-family="Times,serif" font-size="14.00">Brent keys</text>
</g>
<!-- 45197&#45;&gt;END_NODE -->
<g id="edge59" class="edge">
<title>45197&#45;&gt;END_NODE</title>
<path fill="none" stroke="#dddddd" d="M1026.91,-2162.67C1036.91,-2159.13 1046.99,-2155.96 1056.88,-2153.36 1122.97,-2136.05 1141.73,-2143.26 1209.88,-2138.36 2866.76,-2019.36 3283.98,-2006.36 4945.12,-2006.36 4945.12,-2006.36 4945.12,-2006.36 5756.84,-2006.36 5889.39,-2006.36 5925.02,-2005.82 6053.01,-1971.36 6056.5,-1970.43 6060.05,-1969.29 6063.58,-1968.04"/>
<polygon fill="#dddddd" stroke="#dddddd" points="6064.53,-1971.42 6072.59,-1964.54 6062,-1964.9 6064.53,-1971.42"/>
<text text-anchor="middle" x="3510.44" y="-2021.76" font-family="Times,serif" font-size="14.00">Other: specify</text>
</g>
<!-- 45198 -->
<g id="node5" class="node">
<title>45198</title>
<ellipse fill="none" stroke="black" cx="1371.78" cy="-1609.36" rx="161.9" ry="161.9"/>
<text text-anchor="middle" x="1371.78" y="-1604.31" font-family="Times,serif" font-size="14.00">Incident level: 1&#45;5. 1 high risk, 5 no risk</text>
</g>
<!-- 45197&#45;&gt;45198 -->
<g id="edge60" class="edge">
<title>45197&#45;&gt;45198</title>
<path fill="none" stroke="black" d="M911.68,-2087.3C918.9,-1868.49 947.07,-1443.56 1056.88,-1350.86 1079.8,-1331.51 1165.31,-1336.94 1191.88,-1350.86 1235.27,-1373.6 1270.23,-1412.18 1297.33,-1452.68"/>
<polygon fill="black" stroke="black" points="1294.3,-1454.44 1302.69,-1460.91 1300.16,-1450.62 1294.3,-1454.44"/>
<text text-anchor="middle" x="1124.38" y="-1354.06" font-family="Times,serif" font-size="14.00">Class 1 pass key</text>
</g>
<!-- 45197&#45;&gt;45198 -->
<g id="edge61" class="edge">
<title>45197&#45;&gt;45198</title>
<path fill="none" stroke="black" d="M910.75,-2087.31C916.52,-1861.78 942.47,-1415.04 1056.88,-1317.86 1102.61,-1279.02 1139.52,-1288.57 1191.88,-1317.86 1243.25,-1346.61 1281.66,-1396.81 1309.45,-1447.54"/>
<polygon fill="black" stroke="black" points="1306.36,-1449.17 1314.15,-1456.35 1312.53,-1445.88 1306.36,-1449.17"/>
<text text-anchor="middle" x="1124.38" y="-1321.06" font-family="Times,serif" font-size="14.00">Class 2 pass key</text>
</g>
<!-- 45197&#45;&gt;45198 -->
<g id="edge62" class="edge">
<title>45197&#45;&gt;45198</title>
<path fill="none" stroke="black" d="M909.57,-2087.19C913.34,-1852.44 936.07,-1375.29 1056.88,-1271.86 1102.46,-1232.85 1140.47,-1240.93 1191.88,-1271.86 1254.58,-1309.59 1296.47,-1377.5 1323.83,-1442.57"/>
<polygon fill="black" stroke="black" points="1320.5,-1443.65 1327.53,-1451.58 1326.97,-1441 1320.5,-1443.65"/>
<text text-anchor="middle" x="1124.38" y="-1275.06" font-family="Times,serif" font-size="14.00">Cell key</text>
</g>
<!-- 45197&#45;&gt;45198 -->
<g id="edge63" class="edge">
<title>45197&#45;&gt;45198</title>
<path fill="none" stroke="black" d="M976.07,-2106.24C998.33,-2077.54 1025.56,-2049.55 1056.88,-2030.86 1109.18,-1999.66 1145.12,-2046.39 1191.88,-2007.36 1209.69,-1992.5 1201.01,-1979.81 1209.88,-1958.36 1236.26,-1894.54 1267.62,-1825.27 1295.61,-1765.4"/>
<polygon fill="black" stroke="black" points="1298.72,-1767.01 1299.79,-1756.47 1292.38,-1764.04 1298.72,-1767.01"/>
<text text-anchor="middle" x="1124.38" y="-2034.06" font-family="Times,serif" font-size="14.00">Class 3 A1 suite key</text>
</g>
<!-- 45197&#45;&gt;45198 -->
<g id="edge64" class="edge">
<title>45197&#45;&gt;45198</title>
<path fill="none" stroke="black" d="M960.02,-2097.97C983.5,-2056.38 1015.52,-2013.56 1056.88,-1986.86 1107.81,-1953.99 1142.73,-2002.86 1191.88,-1967.36 1255.5,-1921.42 1297.81,-1846.33 1325.23,-1776.75"/>
<polygon fill="black" stroke="black" points="1328.46,-1778.08 1328.79,-1767.49 1321.93,-1775.57 1328.46,-1778.08"/>
<text text-anchor="middle" x="1124.38" y="-1990.06" font-family="Times,serif" font-size="14.00">Class 3 accountable key</text>
</g>
<!-- 45197&#45;&gt;45198 -->
<g id="edge65" class="edge">
<title>45197&#45;&gt;45198</title>
<path fill="none" stroke="black" d="M948.31,-2093.74C971.44,-2040.23 1006.34,-1982.04 1056.88,-1946.86 1106.64,-1912.23 1141.87,-1961.64 1191.88,-1927.36 1246.22,-1890.12 1285.94,-1830.65 1313.94,-1773.16"/>
<polygon fill="black" stroke="black" points="1317.07,-1774.73 1318.21,-1764.2 1310.75,-1771.72 1317.07,-1774.73"/>
<text text-anchor="middle" x="1124.38" y="-1950.06" font-family="Times,serif" font-size="14.00">Handcuff key</text>
</g>
<!-- 45197&#45;&gt;45198 -->
<g id="edge66" class="edge">
<title>45197&#45;&gt;45198</title>
<path fill="none" stroke="black" d="M938.74,-2090.86C960.5,-2025.69 997.04,-1951.02 1056.88,-1906.86 1105.66,-1870.87 1140.88,-1920.14 1191.88,-1887.36 1237.18,-1858.25 1273.31,-1813.13 1300.9,-1767.66"/>
<polygon fill="black" stroke="black" points="1303.79,-1769.64 1305.88,-1759.25 1297.77,-1766.07 1303.79,-1769.64"/>
<text text-anchor="middle" x="1124.38" y="-1910.06" font-family="Times,serif" font-size="14.00">Escort chain key</text>
</g>
<!-- 45197&#45;&gt;45198 -->
<g id="edge67" class="edge">
<title>45197&#45;&gt;45198</title>
<path fill="none" stroke="black" d="M930.7,-2089.34C950.38,-2012.79 987.5,-1920.52 1056.88,-1866.86 1104.83,-1829.78 1139.72,-1878.26 1191.88,-1847.36 1228.31,-1825.78 1259.75,-1793.63 1285.66,-1759.9"/>
<polygon fill="black" stroke="black" points="1288.36,-1762.13 1291.56,-1752.03 1282.76,-1757.93 1288.36,-1762.13"/>
<text text-anchor="middle" x="1124.38" y="-1870.06" font-family="Times,serif" font-size="14.00">Class 1 lock</text>
</g>
<!-- 45197&#45;&gt;45198 -->
<g id="edge68" class="edge">
<title>45197&#45;&gt;45198</title>
<path fill="none" stroke="black" d="M924.03,-2088.35C941.12,-2000.88 977.87,-1890.33 1056.88,-1826.86 1104.14,-1788.9 1138.38,-1835.88 1191.88,-1807.36 1219.76,-1792.5 1245.49,-1771.5 1268.23,-1748.69"/>
<polygon fill="black" stroke="black" points="1270.62,-1751.25 1275.09,-1741.64 1265.61,-1746.37 1270.62,-1751.25"/>
<text text-anchor="middle" x="1124.38" y="-1830.06" font-family="Times,serif" font-size="14.00">Class 2 lock</text>
</g>
<!-- 45197&#45;&gt;45198 -->
<g id="edge69" class="edge">
<title>45197&#45;&gt;45198</title>
<path fill="none" stroke="black" d="M918.42,-2087.68C932.61,-1989.73 968.19,-1860.4 1056.88,-1786.86 1103.55,-1748.17 1136.86,-1792.83 1191.88,-1767.36 1211.92,-1758.09 1231.36,-1745.83 1249.59,-1732.24"/>
<polygon fill="black" stroke="black" points="1251.43,-1735.24 1257.24,-1726.38 1247.18,-1729.68 1251.43,-1735.24"/>
<text text-anchor="middle" x="1124.38" y="-1790.06" font-family="Times,serif" font-size="14.00">Cell lock</text>
</g>
<!-- 45197&#45;&gt;45198 -->
<g id="edge70" class="edge">
<title>45197&#45;&gt;45198</title>
<path fill="none" stroke="black" d="M913.63,-2087.32C924.71,-1979.3 958.42,-1830.7 1056.88,-1746.86 1103.04,-1707.56 1135.21,-1748.91 1191.88,-1727.36 1204.78,-1722.46 1217.69,-1716.5 1230.35,-1709.9"/>
<polygon fill="black" stroke="black" points="1231.96,-1713.01 1239.11,-1705.19 1228.64,-1706.84 1231.96,-1713.01"/>
<text text-anchor="middle" x="1124.38" y="-1750.06" font-family="Times,serif" font-size="14.00">Class 3 A1 suite lock</text>
</g>
<!-- 45197&#45;&gt;45198 -->
<g id="edge71" class="edge">
<title>45197&#45;&gt;45198</title>
<path fill="none" stroke="black" d="M930.17,-2089.1C954.72,-1954.66 999.42,-1756.91 1056.88,-1706.86 1102.59,-1667.05 1133.57,-1703.96 1191.88,-1687.36 1199.1,-1685.31 1206.42,-1683.02 1213.76,-1680.56"/>
<polygon fill="black" stroke="black" points="1214.77,-1683.91 1223.08,-1677.34 1212.49,-1677.3 1214.77,-1683.91"/>
<text text-anchor="middle" x="1124.38" y="-1710.06" font-family="Times,serif" font-size="14.00">Class 3 accountable lock</text>
</g>
<!-- 45197&#45;&gt;45198 -->
<g id="edge72" class="edge">
<title>45197&#45;&gt;45198</title>
<path fill="none" stroke="black" d="M927.23,-2088.88C950.15,-1944.03 994.4,-1722.36 1056.88,-1666.86 1079.54,-1646.73 1162.04,-1652.68 1191.88,-1647.36 1195.28,-1646.76 1198.73,-1646.13 1202.19,-1645.49"/>
<polygon fill="black" stroke="black" points="1202.66,-1648.97 1211.85,-1643.69 1201.37,-1642.09 1202.66,-1648.97"/>
<text text-anchor="middle" x="1124.38" y="-1670.06" font-family="Times,serif" font-size="14.00">Handcuffs</text>
</g>
<!-- 45197&#45;&gt;45198 -->
<g id="edge73" class="edge">
<title>45197&#45;&gt;45198</title>
<path fill="none" stroke="black" d="M923.76,-2088.18C944.11,-1932.3 986.68,-1684.91 1056.88,-1626.86 1068.83,-1616.98 1132.06,-1612.42 1198.67,-1610.41"/>
<polygon fill="black" stroke="black" points="1198.41,-1613.92 1208.31,-1610.14 1198.21,-1606.92 1198.41,-1613.92"/>
<text text-anchor="middle" x="1124.38" y="-1630.06" font-family="Times,serif" font-size="14.00">Escort chain</text>
</g>
<!-- 45197&#45;&gt;45198 -->
<g id="edge74" class="edge">
<title>45197&#45;&gt;45198</title>
<path fill="none" stroke="black" d="M921.07,-2088.07C939.16,-1922.49 979.95,-1650.81 1056.88,-1589.86 1080.09,-1571.47 1140,-1572.17 1201.34,-1579.08"/>
<polygon fill="black" stroke="black" points="1200.55,-1582.51 1210.89,-1580.21 1201.37,-1575.56 1200.55,-1582.51"/>
<text text-anchor="middle" x="1124.38" y="-1593.06" font-family="Times,serif" font-size="14.00">Electronic lock system</text>
</g>
<!-- 45197&#45;&gt;45198 -->
<g id="edge75" class="edge">
<title>45197&#45;&gt;45198</title>
<path fill="none" stroke="black" d="M919.26,-2087.75C935.71,-1913.57 975.06,-1619.49 1056.88,-1553.86 1103.68,-1516.32 1132.56,-1544.87 1191.88,-1553.86 1196.8,-1554.61 1201.78,-1555.47 1206.79,-1556.42"/>
<polygon fill="black" stroke="black" points="1205.8,-1559.79 1216.29,-1558.34 1207.18,-1552.93 1205.8,-1559.79"/>
<text text-anchor="middle" x="1124.38" y="-1557.06" font-family="Times,serif" font-size="14.00">Magnetic keys</text>
</g>
<!-- 45197&#45;&gt;45198 -->
<g id="edge76" class="edge">
<title>45197&#45;&gt;45198</title>
<path fill="none" stroke="black" d="M917.46,-2087.89C932.09,-1904.7 969.68,-1585.66 1056.88,-1514.86 1105.23,-1475.61 1169.6,-1487.18 1227.46,-1513.3"/>
<polygon fill="black" stroke="black" points="1225.9,-1516.43 1236.44,-1517.51 1228.87,-1510.1 1225.9,-1516.43"/>
<text text-anchor="middle" x="1124.38" y="-1518.06" font-family="Times,serif" font-size="14.00">Magnetic lock</text>
</g>
<!-- 45197&#45;&gt;45198 -->
<g id="edge77" class="edge">
<title>45197&#45;&gt;45198</title>
<path fill="none" stroke="black" d="M915.61,-2087.5C928.15,-1893.9 963.4,-1545.72 1056.88,-1468.86 1080.05,-1449.81 1163.52,-1459.06 1191.88,-1468.86 1209.43,-1474.93 1226.57,-1483.51 1242.85,-1493.47"/>
<polygon fill="black" stroke="black" points="1240.74,-1496.28 1251.06,-1498.68 1244.49,-1490.37 1240.74,-1496.28"/>
<text text-anchor="middle" x="1124.38" y="-1472.06" font-family="Times,serif" font-size="14.00">Cell door</text>
</g>
<!-- 45197&#45;&gt;45198 -->
<g id="edge78" class="edge">
<title>45197&#45;&gt;45198</title>
<path fill="none" stroke="black" d="M914.42,-2087.74C925.48,-1887.19 958.94,-1518.03 1056.88,-1436.86 1116.79,-1387.21 1193.13,-1427.32 1255.52,-1481.29"/>
<polygon fill="black" stroke="black" points="1252.9,-1483.64 1262.71,-1487.64 1257.53,-1478.39 1252.9,-1483.64"/>
<text text-anchor="middle" x="1124.38" y="-1440.06" font-family="Times,serif" font-size="14.00">Brent keys</text>
</g>
<!-- 45197&#45;&gt;45198 -->
<g id="edge79" class="edge">
<title>45197&#45;&gt;45198</title>
<path fill="none" stroke="black" d="M912.98,-2087.45C922.11,-1877.64 953.02,-1480.77 1056.88,-1393.86 1102.89,-1355.36 1137.57,-1368.36 1191.88,-1393.86 1225.19,-1409.5 1254.43,-1434.73 1279.11,-1462.5"/>
<polygon fill="black" stroke="black" points="1276.45,-1464.77 1285.63,-1470.05 1281.74,-1460.19 1276.45,-1464.77"/>
<text text-anchor="middle" x="1124.38" y="-1397.06" font-family="Times,serif" font-size="14.00">Other : specify</text>
</g>
<!-- 45198&#45;&gt;END_NODE -->
<g id="edge80" class="edge">
<title>45198&#45;&gt;END_NODE</title>
<path fill="none" stroke="#dddddd" d="M1381.49,-1447.26C1407.18,-1051.36 1499.52,-67.36 1782.77,-67.36 1782.77,-67.36 1782.77,-67.36 5756.84,-67.36 5822.74,-67.36 6006.96,-35.23 6053.01,-82.36 6085.86,-115.98 6100.93,-1620.96 6103.47,-1903.8"/>
<polygon fill="#dddddd" stroke="#dddddd" points="6099.97,-1903.75 6103.56,-1913.71 6106.97,-1903.68 6099.97,-1903.75"/>
<text text-anchor="middle" x="3684.96" y="-70.56" font-family="Times,serif" font-size="14.00">Enter value:</text>
</g>
<!-- 45199 -->
<g id="node6" class="node">
<title>45199</title>
<ellipse fill="none" stroke="black" cx="1783.77" cy="-519.36" rx="148.08" ry="148.08"/>
<text text-anchor="middle" x="1783.77" y="-514.31" font-family="Times,serif" font-size="14.00">Has any remedial action been taken?</text>
</g>
<!-- 45198&#45;&gt;45199 -->
<g id="edge81" class="edge">
<title>45198&#45;&gt;45199</title>
<path fill="none" stroke="black" d="M1429.79,-1457.8C1508.24,-1249.24 1648.6,-876.05 1726.6,-668.68"/>
<polygon fill="black" stroke="black" points="1729.84,-670.02 1730.08,-659.43 1723.29,-667.55 1729.84,-670.02"/>
<text text-anchor="middle" x="1584.68" y="-1132.83" font-family="Times,serif" font-size="14.00">Enter value:</text>
</g>
<!-- 45199&#45;&gt;END_NODE -->
<g id="edge82" class="edge">
<title>45199&#45;&gt;END_NODE</title>
<path fill="none" stroke="#dddddd" d="M1847.93,-385.41C1905.32,-285.55 2000.44,-166.36 2127.5,-166.36 2127.5,-166.36 2127.5,-166.36 5756.84,-166.36 5888.64,-166.36 5960.84,-87.16 6053.01,-181.36 6084.04,-213.08 6100.5,-1629.41 6103.4,-1903.65"/>
<polygon fill="#dddddd" stroke="#dddddd" points="6099.9,-1903.64 6103.51,-1913.61 6106.9,-1903.57 6099.9,-1903.64"/>
<text text-anchor="middle" x="3907.58" y="-169.56" font-family="Times,serif" font-size="14.00">Yes</text>
</g>
<!-- 45199&#45;&gt;END_NODE -->
<g id="edge83" class="edge">
<title>45199&#45;&gt;END_NODE</title>
<path fill="none" stroke="#dddddd" d="M1835.84,-380.35C1869.17,-306.64 1919.38,-219.73 1988.1,-162.36 2038.52,-120.28 2061.83,-113.36 2127.5,-113.36 2127.5,-113.36 2127.5,-113.36 5756.84,-113.36 5888.74,-113.36 5961.44,-37.43 6053.01,-132.36 6084.73,-165.25 6100.69,-1626.69 6103.44,-1904.15"/>
<polygon fill="#dddddd" stroke="#dddddd" points="6099.93,-1903.89 6103.53,-1913.85 6106.93,-1903.82 6099.93,-1903.89"/>
<text text-anchor="middle" x="3907.58" y="-116.56" font-family="Times,serif" font-size="14.00">No</text>
</g>
<!-- 45200 -->
<g id="node7" class="node">
<title>45200</title>
<ellipse fill="none" stroke="black" cx="2128.5" cy="-519.36" rx="140.41" ry="140.41"/>
<text text-anchor="middle" x="2128.5" y="-514.31" font-family="Times,serif" font-size="14.00">Describe the remedial action taken</text>
</g>
<!-- 45199&#45;&gt;45200 -->
<g id="edge84" class="edge">
<title>45199&#45;&gt;45200</title>
<path fill="none" stroke="black" d="M1932.11,-519.36C1946.78,-519.36 1961.7,-519.36 1976.41,-519.36"/>
<polygon fill="black" stroke="black" points="1976.1,-522.86 1986.1,-519.36 1976.1,-515.86 1976.1,-522.86"/>
<text text-anchor="middle" x="1959.97" y="-522.56" font-family="Times,serif" font-size="14.00">Yes</text>
</g>
<!-- 45199&#45;&gt;45200 -->
<g id="edge85" class="edge">
<title>45199&#45;&gt;45200</title>
<path fill="none" stroke="#dddddd" d="M1930.84,-498.4C1944.1,-497.95 1957.34,-498.04 1970.1,-498.86 1972.61,-499.03 1975.15,-499.21 1977.7,-499.4"/>
<polygon fill="#dddddd" stroke="#dddddd" points="1977.22,-502.87 1987.47,-500.19 1977.78,-495.89 1977.22,-502.87"/>
<text text-anchor="middle" x="1959.97" y="-502.06" font-family="Times,serif" font-size="14.00">No</text>
</g>
<!-- 45202 -->
<g id="node8" class="node">
<title>45202</title>
<ellipse fill="none" stroke="black" cx="2857.78" cy="-715.36" rx="139.89" ry="139.89"/>
<text text-anchor="middle" x="2857.78" y="-710.31" font-family="Times,serif" font-size="14.00">Have the lost item (s) been found?</text>
</g>
<!-- 45199&#45;&gt;45202 -->
<g id="edge86" class="edge">
<title>45199&#45;&gt;45202</title>
<path fill="none" stroke="#dddddd" d="M1865.26,-643C1889.06,-669.71 1917.53,-694.4 1949.85,-709.36 2196.81,-823.72 2523.72,-786.39 2710.04,-750.08"/>
<polygon fill="#dddddd" stroke="#dddddd" points="2710.67,-753.52 2719.8,-748.15 2709.31,-746.65 2710.67,-753.52"/>
<text text-anchor="middle" x="2348.79" y="-789.43" font-family="Times,serif" font-size="14.00">No</text>
</g>
<!-- 45199&#45;&gt;45202 -->
<g id="edge88" class="edge">
<title>45199&#45;&gt;45202</title>
<path fill="none" stroke="black" d="M1895,-617.68C1923.51,-637.97 1955.44,-656.69 1988.1,-668.36 2116.12,-714.12 2493.68,-718.76 2706.5,-717.49"/>
<polygon fill="black" stroke="black" points="2706.27,-720.99 2716.25,-717.43 2706.23,-713.99 2706.27,-720.99"/>
<text text-anchor="middle" x="2348.79" y="-717.46" font-family="Times,serif" font-size="14.00">No</text>
</g>
<!-- 45208 -->
<g id="node9" class="node">
<title>45208</title>
<ellipse fill="none" stroke="black" cx="5755.84" cy="-1517.36" rx="195.17" ry="195.17"/>
<text text-anchor="middle" x="5755.84" y="-1512.31" font-family="Times,serif" font-size="14.00">Has the key lock incident been reported to NOU?</text>
</g>
<!-- 45199&#45;&gt;45208 -->
<g id="edge87" class="edge">
<title>45199&#45;&gt;45208</title>
<path fill="none" stroke="#dddddd" d="M1894.02,-420.17C1922.69,-399.77 1954.93,-381.22 1988.1,-370.36 2273.84,-276.88 2367.06,-368.08 2662.39,-424.36 3099.1,-507.59 3335.61,-332.77 3633.96,-662.36 3672.22,-704.63 3620.37,-741.91 3651.96,-789.36 3676.03,-825.53 3694.4,-826.7 3735.96,-839.36 3817.48,-864.21 4439.48,-823.26 4501.82,-881.36 4525.25,-903.2 4512.97,-993.08 4519.82,-1024.36 4531.89,-1079.46 4520.28,-1103.5 4558.07,-1145.36 4657.83,-1255.87 4729.99,-1216.72 4865.5,-1278.36 4937.79,-1311.25 4953.32,-1325.1 5026.75,-1355.36 5193.55,-1424.12 5290.42,-1354.2 5409.92,-1489.36 5434.92,-1517.64 5398.54,-1548.67 5427.92,-1572.36 5466.76,-1603.69 5516.79,-1607.49 5565.97,-1598.81"/>
<polygon fill="#dddddd" stroke="#dddddd" points="5566.48,-1602.28 5575.62,-1596.93 5565.14,-1595.41 5566.48,-1602.28"/>
<text text-anchor="middle" x="3684.96" y="-837.19" font-family="Times,serif" font-size="14.00">No</text>
</g>
<!-- 45200&#45;&gt;END_NODE -->
<g id="edge89" class="edge">
<title>45200&#45;&gt;END_NODE</title>
<path fill="none" stroke="#dddddd" d="M2250.58,-449.59C2331.19,-409.63 2440.93,-367.36 2544.52,-367.36 2544.52,-367.36 2544.52,-367.36 3908.58,-367.36 4184.31,-367.36 4253.22,-361.36 4528.95,-361.36 4528.95,-361.36 4528.95,-361.36 5756.84,-361.36 5890.05,-361.36 5964.69,-307.64 6053.01,-407.36 6103.87,-464.79 6104.43,-1654.63 6103.99,-1903.84"/>
<polygon fill="#dddddd" stroke="#dddddd" points="6100.49,-1903.8 6103.97,-1913.81 6107.49,-1903.81 6100.49,-1903.8"/>
<text text-anchor="middle" x="4159.83" y="-369.38" font-family="Times,serif" font-size="14.00">Complete relock</text>
</g>
<!-- 45200&#45;&gt;END_NODE -->
<g id="edge90" class="edge">
<title>45200&#45;&gt;END_NODE</title>
<path fill="none" stroke="#dddddd" d="M2229.83,-421.93C2247.82,-408.09 2267.17,-395.23 2286.91,-385.36 2391.9,-332.91 2427.16,-327.36 2544.52,-327.36 2544.52,-327.36 2544.52,-327.36 3908.58,-327.36 4184.31,-327.36 4253.22,-323.36 4528.95,-323.36 4528.95,-323.36 4528.95,-323.36 5756.84,-323.36 5822.89,-323.36 6007.55,-300.45 6053.01,-348.36 6107.95,-406.26 6105.25,-1648.19 6104.11,-1903.66"/>
<polygon fill="#dddddd" stroke="#dddddd" points="6100.61,-1903.54 6104.06,-1913.56 6107.61,-1903.58 6100.61,-1903.54"/>
<text text-anchor="middle" x="4159.83" y="-329.77" font-family="Times,serif" font-size="14.00">Partial relock</text>
</g>
<!-- 45200&#45;&gt;END_NODE -->
<g id="edge91" class="edge">
<title>45200&#45;&gt;END_NODE</title>
<path fill="none" stroke="#dddddd" d="M2206.73,-402.87C2229.57,-376.29 2256.67,-350.78 2286.91,-333.36 2387.69,-275.31 2428.22,-287.36 2544.52,-287.36 2544.52,-287.36 2544.52,-287.36 3908.58,-287.36 4184.3,-287.36 4253.23,-285.36 4528.95,-285.36 4528.95,-285.36 4528.95,-285.36 5756.84,-285.36 5889.24,-285.36 5963.04,-220.24 6053.01,-317.36 6108.39,-377.14 6105.31,-1646.46 6104.11,-1904.02"/>
<polygon fill="#dddddd" stroke="#dddddd" points="6100.62,-1903.64 6104.07,-1913.65 6107.62,-1903.67 6100.62,-1903.64"/>
<text text-anchor="middle" x="4159.83" y="-290.17" font-family="Times,serif" font-size="14.00">Complete replacement</text>
</g>
<!-- 45200&#45;&gt;END_NODE -->
<g id="edge92" class="edge">
<title>45200&#45;&gt;END_NODE</title>
<path fill="none" stroke="#dddddd" d="M2187.96,-391.65C2212.78,-351.07 2245.67,-310.1 2286.91,-284.36 2384.94,-223.2 2428.98,-249.36 2544.52,-249.36 2544.52,-249.36 2544.52,-249.36 3685.96,-249.36 3990.04,-249.36 4066.06,-247.36 4370.14,-247.36 4370.14,-247.36 4370.14,-247.36 5756.84,-247.36 5822.74,-247.36 6006.89,-215.29 6053.01,-262.36 6082.58,-292.54 6100.16,-1638.31 6103.34,-1904.06"/>
<polygon fill="#dddddd" stroke="#dddddd" points="6099.84,-1903.72 6103.46,-1913.67 6106.84,-1903.63 6099.84,-1903.72"/>
<text text-anchor="middle" x="4159.83" y="-251.19" font-family="Times,serif" font-size="14.00">Partial replacement</text>
</g>
<!-- 45200&#45;&gt;END_NODE -->
<g id="edge93" class="edge">
<title>45200&#45;&gt;END_NODE</title>
<path fill="none" stroke="#dddddd" d="M2173.75,-386.11C2198.51,-332.18 2235.08,-274.66 2286.91,-240.36 2382.99,-176.78 2429.31,-211.36 2544.52,-211.36 2544.52,-211.36 2544.52,-211.36 3685.96,-211.36 3990.04,-211.36 4066.05,-207.36 4370.14,-207.36 4370.14,-207.36 4370.14,-207.36 5756.84,-207.36 5888.98,-207.36 5962.32,-137.26 6053.01,-233.36 6082.54,-264.65 6100.18,-1635.99 6103.35,-1904.16"/>
<polygon fill="#dddddd" stroke="#dddddd" points="6099.85,-1903.91 6103.46,-1913.87 6106.85,-1903.83 6099.85,-1903.91"/>
<text text-anchor="middle" x="4159.83" y="-211.81" font-family="Times,serif" font-size="14.00">Forensic testing</text>
</g>
<!-- 45201 -->
<g id="node10" class="node">
<title>45201</title>
<ellipse fill="none" stroke="black" cx="2545.52" cy="-550.36" rx="116.86" ry="116.86"/>
<text text-anchor="middle" x="2545.52" y="-545.31" font-family="Times,serif" font-size="14.00">Estimated cost of this action</text>
</g>
<!-- 45200&#45;&gt;45201 -->
<g id="edge94" class="edge">
<title>45200&#45;&gt;45201</title>
<path fill="none" stroke="black" d="M2260.97,-567.08C2269.68,-569.17 2278.37,-570.97 2286.91,-572.36 2329.71,-579.38 2376.89,-577.96 2419.06,-573.48"/>
<polygon fill="black" stroke="black" points="2419.19,-576.99 2428.74,-572.38 2418.4,-570.04 2419.19,-576.99"/>
<text text-anchor="middle" x="2348.79" y="-580.43" font-family="Times,serif" font-size="14.00">Complete relock</text>
</g>
<!-- 45200&#45;&gt;45201 -->
<g id="edge95" class="edge">
<title>45200&#45;&gt;45201</title>
<path fill="none" stroke="black" d="M2268.55,-530.94C2274.75,-531.43 2280.9,-531.91 2286.91,-532.36 2329.29,-535.6 2375.62,-538.9 2417.15,-541.79"/>
<polygon fill="black" stroke="black" points="2416.72,-545.26 2426.93,-542.46 2417.2,-538.28 2416.72,-545.26"/>
<text text-anchor="middle" x="2348.79" y="-544.27" font-family="Times,serif" font-size="14.00">Partial relock</text>
</g>
<!-- 45200&#45;&gt;45201 -->
<g id="edge96" class="edge">
<title>45200&#45;&gt;45201</title>
<path fill="none" stroke="black" d="M2268.74,-506.51C2314.17,-504.75 2364.73,-505.39 2410.66,-511.86 2414.55,-512.41 2418.48,-513.05 2422.44,-513.75"/>
<polygon fill="black" stroke="black" points="2421.68,-517.17 2432.16,-515.63 2423.01,-510.3 2421.68,-517.17"/>
<text text-anchor="middle" x="2348.79" y="-515.06" font-family="Times,serif" font-size="14.00">Complete replacement</text>
</g>
<!-- 45200&#45;&gt;45201 -->
<g id="edge97" class="edge">
<title>45200&#45;&gt;45201</title>
<path fill="none" stroke="black" d="M2264.59,-483.79C2311.24,-476.51 2363.59,-473.97 2410.66,-484.86 2417.77,-486.51 2424.94,-488.59 2432.07,-490.99"/>
<polygon fill="black" stroke="black" points="2430.46,-494.13 2441.06,-494.2 2432.82,-487.54 2430.46,-494.13"/>
<text text-anchor="middle" x="2348.79" y="-488.06" font-family="Times,serif" font-size="14.00">Partial replacement</text>
</g>
<!-- 45200&#45;&gt;45201 -->
<g id="edge98" class="edge">
<title>45200&#45;&gt;45201</title>
<path fill="none" stroke="black" d="M2257.4,-462.71C2305.89,-448.57 2361.29,-441.33 2410.66,-456.86 2422.15,-460.48 2433.51,-465.47 2444.48,-471.28"/>
<polygon fill="black" stroke="black" points="2442.67,-474.28 2453.1,-476.1 2446.08,-468.17 2442.67,-474.28"/>
<text text-anchor="middle" x="2348.79" y="-460.06" font-family="Times,serif" font-size="14.00">Forensic testing</text>
</g>
<!-- 45200&#45;&gt;45201 -->
<g id="edge99" class="edge">
<title>45200&#45;&gt;45201</title>
<path fill="none" stroke="black" d="M2252.1,-586.64C2263.62,-590.96 2275.33,-594.65 2286.91,-597.36 2340.46,-609.91 2356.44,-606.61 2410.66,-597.36 2415.37,-596.56 2420.14,-595.61 2424.93,-594.54"/>
<polygon fill="black" stroke="black" points="2425.75,-597.94 2434.64,-592.18 2424.1,-591.14 2425.75,-597.94"/>
<text text-anchor="middle" x="2348.79" y="-608.78" font-family="Times,serif" font-size="14.00">Other</text>
</g>
<!-- 45202&#45;&gt;END_NODE -->
<g id="edge103" class="edge">
<title>45202&#45;&gt;END_NODE</title>
<path fill="none" stroke="#dddddd" d="M2974.21,-637.17C3100.08,-559.64 3310.23,-452.36 3509.44,-452.36 3509.44,-452.36 3509.44,-452.36 4372.14,-452.36 5073.87,-452.36 5255.3,-365.72 5951.01,-457.36 5997.51,-463.49 6023.77,-447.71 6053.01,-484.36 6098.32,-541.16 6103.26,-1662.69 6103.8,-1903.91"/>
<polygon fill="#dddddd" stroke="#dddddd" points="6100.3,-1903.86 6103.82,-1913.85 6107.3,-1903.85 6100.3,-1903.86"/>
<text text-anchor="middle" x="4529.95" y="-454.16" font-family="Times,serif" font-size="14.00">Yes</text>
</g>
<!-- 45202&#45;&gt;END_NODE -->
<g id="edge104" class="edge">
<title>45202&#45;&gt;END_NODE</title>
<path fill="none" stroke="#dddddd" d="M2942.64,-826.88C3092.79,-1029.51 3412.55,-1474.66 3633.96,-1879.36 3643.51,-1896.82 3636.89,-1907.36 3651.96,-1920.36 3701.23,-1962.91 3853.43,-1968.36 4945.12,-1968.36 4945.12,-1968.36 4945.12,-1968.36 5756.84,-1968.36 5888.62,-1968.36 5921.58,-1963.93 6053.01,-1954.36 6055.08,-1954.21 6057.19,-1954.05 6059.33,-1953.87"/>
<polygon fill="#dddddd" stroke="#dddddd" points="6059.63,-1957.36 6069.28,-1953 6059.01,-1950.39 6059.63,-1957.36"/>
<text text-anchor="middle" x="4529.95" y="-1971.14" font-family="Times,serif" font-size="14.00">No</text>
</g>
<!-- 45203 -->
<g id="node11" class="node">
<title>45203</title>
<ellipse fill="none" stroke="black" cx="3510.44" cy="-795.36" rx="123.52" ry="123.52"/>
<text text-anchor="middle" x="3510.44" y="-790.31" font-family="Times,serif" font-size="14.00">Has a replica key been found?</text>
</g>
<!-- 45202&#45;&gt;45203 -->
<g id="edge105" class="edge">
<title>45202&#45;&gt;45203</title>
<path fill="none" stroke="black" d="M2988.01,-766.65C2997.28,-769.24 3006.57,-771.52 3015.67,-773.36 3135.64,-797.6 3275.2,-801.66 3375.28,-800.5"/>
<polygon fill="black" stroke="black" points="3375.21,-804 3385.16,-800.36 3375.11,-797 3375.21,-804"/>
<text text-anchor="middle" x="3192.3" y="-803.87" font-family="Times,serif" font-size="14.00">Yes</text>
</g>
<!-- 45202&#45;&gt;45203 -->
<g id="edge106" class="edge">
<title>45202&#45;&gt;45203</title>
<path fill="none" stroke="black" d="M2996.91,-731.67C3003.25,-732.27 3009.53,-732.84 3015.67,-733.36 3172.35,-746.66 3214.07,-725.58 3368.92,-752.86 3373.06,-753.59 3377.24,-754.4 3381.45,-755.28"/>
<polygon fill="black" stroke="black" points="3380.64,-758.69 3391.16,-757.43 3382.15,-751.85 3380.64,-758.69"/>
<text text-anchor="middle" x="3192.3" y="-756.06" font-family="Times,serif" font-size="14.00">No</text>
</g>
<!-- 45202&#45;&gt;45203 -->
<g id="edge107" class="edge">
<title>45202&#45;&gt;45203</title>
<path fill="none" stroke="black" d="M2996.42,-695.05C3100.59,-684.35 3246.17,-679.49 3368.92,-712.86 3378.25,-715.4 3387.58,-718.73 3396.76,-722.59"/>
<polygon fill="black" stroke="black" points="3395.11,-725.68 3405.67,-726.55 3397.95,-719.29 3395.11,-725.68"/>
<text text-anchor="middle" x="3192.3" y="-716.06" font-family="Times,serif" font-size="14.00">N/a</text>
</g>
<!-- 45208&#45;&gt;END_NODE -->
<g id="edge161" class="edge">
<title>45208&#45;&gt;END_NODE</title>
<path fill="none" stroke="black" d="M5943.69,-1571.83C5985.2,-1592.05 6025.1,-1619.33 6053.01,-1655.86 6082.16,-1694.01 6095.78,-1831.2 6101.06,-1903.71"/>
<polygon fill="black" stroke="black" points="6097.57,-1903.95 6101.76,-1913.68 6104.55,-1903.46 6097.57,-1903.95"/>
<text text-anchor="middle" x="6011.01" y="-1659.06" font-family="Times,serif" font-size="14.00">Yes: date</text>
</g>
<!-- 45208&#45;&gt;END_NODE -->
<g id="edge162" class="edge">
<title>45208&#45;&gt;END_NODE</title>
<path fill="none" stroke="black" d="M5951.27,-1514.54C5989.4,-1522.98 6025.92,-1538.85 6053.01,-1566.86 6098.63,-1614.04 6104.21,-1813.02 6104.32,-1903.84"/>
<polygon fill="black" stroke="black" points="6100.82,-1903.61 6104.3,-1913.62 6107.82,-1903.62 6100.82,-1903.61"/>
<text text-anchor="middle" x="6011.01" y="-1570.06" font-family="Times,serif" font-size="14.00">No</text>
</g>
<!-- 45208&#45;&gt;END_NODE -->
<g id="edge163" class="edge">
<title>45208&#45;&gt;END_NODE</title>
<path fill="none" stroke="black" d="M5911.33,-1635.91C5930.37,-1648.81 5949.87,-1661.27 5969.01,-1672.36 6004.38,-1692.87 6027.3,-1678.08 6053.01,-1709.86 6076.81,-1739.28 6092.1,-1843.61 6099.21,-1904.43"/>
<polygon fill="black" stroke="black" points="6095.7,-1904.57 6100.31,-1914.11 6102.66,-1903.78 6095.7,-1904.57"/>
<text text-anchor="middle" x="6011.01" y="-1713.06" font-family="Times,serif" font-size="14.00">Incident ref no:</text>
</g>
<!-- 45201&#45;&gt;END_NODE -->
<g id="edge100" class="edge">
<title>45201&#45;&gt;END_NODE</title>
<path fill="none" stroke="#dddddd" d="M2640.29,-481.59C2699.36,-444.95 2778.94,-407.36 2856.78,-407.36 2856.78,-407.36 2856.78,-407.36 4160.83,-407.36 4774.99,-407.36 4928.53,-409.78 5542.67,-413.36 5656.45,-414.03 5986.53,-362.04 6053.01,-454.36 6096.38,-514.59 6102.85,-1659.67 6103.74,-1903.82"/>
<polygon fill="#dddddd" stroke="#dddddd" points="6100.23,-1903.58 6103.77,-1913.57 6107.23,-1903.56 6100.23,-1903.58"/>
<text text-anchor="middle" x="4371.14" y="-410.87" font-family="Times,serif" font-size="14.00"></text>
</g>
<!-- 45201&#45;&gt;45202 -->
<g id="edge101" class="edge">
<title>45201&#45;&gt;45202</title>
<path fill="none" stroke="black" d="M2656.44,-587.86C2671.29,-594 2686.14,-600.71 2699.89,-607.86 2711.33,-613.82 2722.93,-620.46 2734.38,-627.43"/>
<polygon fill="black" stroke="black" points="2732.32,-630.28 2742.67,-632.57 2736.01,-624.33 2732.32,-630.28"/>
<text text-anchor="middle" x="2690.14" y="-611.06" font-family="Times,serif" font-size="14.00"></text>
</g>
<!-- 45201&#45;&gt;45202 -->
<g id="edge102" class="edge">
<title>45201&#45;&gt;45202</title>
<path fill="none" stroke="black" d="M2647.95,-606.83C2658.88,-612.8 2669.85,-618.73 2680.39,-624.36 2694.09,-631.69 2708.44,-639.25 2722.79,-646.75"/>
<polygon fill="black" stroke="black" points="2720.88,-649.7 2731.36,-651.22 2724.12,-643.5 2720.88,-649.7"/>
<text text-anchor="middle" x="2690.14" y="-637.66" font-family="Times,serif" font-size="14.00">N/a</text>
</g>
<!-- 45203&#45;&gt;END_NODE -->
<g id="edge108" class="edge">
<title>45203&#45;&gt;END_NODE</title>
<path fill="none" stroke="#dddddd" d="M3523.35,-918.52C3550.74,-1196.28 3618.44,-1850.05 3651.96,-1884.36 3731.95,-1966.27 3792.1,-1923.36 3906.58,-1923.36 3906.58,-1923.36 3906.58,-1923.36 4530.95,-1923.36 5136.26,-1923.36 5872.42,-1942.85 6059.17,-1948.08"/>
<polygon fill="#dddddd" stroke="#dddddd" points="6059.06,-1951.58 6069.15,-1948.37 6059.25,-1944.59 6059.06,-1951.58"/>
<text text-anchor="middle" x="4711.79" y="-1928.21" font-family="Times,serif" font-size="14.00">Yes</text>
</g>
<!-- 45203&#45;&gt;END_NODE -->
<g id="edge109" class="edge">
<title>45203&#45;&gt;END_NODE</title>
<path fill="none" stroke="#dddddd" d="M3529.79,-917.63C3575.51,-1199.39 3705.51,-1870.36 3906.58,-1870.36 3906.58,-1870.36 3906.58,-1870.36 4530.95,-1870.36 5162.69,-1870.36 5320.64,-1890.81 5951.01,-1932.36 5996.42,-1935.36 6007.84,-1935.83 6053.01,-1941.36 6055.21,-1941.63 6057.45,-1941.93 6059.72,-1942.23"/>
<polygon fill="#dddddd" stroke="#dddddd" points="6059.19,-1945.69 6069.59,-1943.66 6060.19,-1938.76 6059.19,-1945.69"/>
<text text-anchor="middle" x="4711.79" y="-1876.02" font-family="Times,serif" font-size="14.00">No</text>
</g>
<!-- 45204 -->
<g id="node12" class="node">
<title>45204</title>
<ellipse fill="none" stroke="black" cx="3907.58" cy="-658.36" rx="171.63" ry="171.63"/>
<text text-anchor="middle" x="3907.58" y="-653.31" font-family="Times,serif" font-size="14.00">What action was taken to find these items?</text>
</g>
<!-- 45203&#45;&gt;45204 -->
<g id="edge110" class="edge">
<title>45203&#45;&gt;45204</title>
<path fill="none" stroke="black" d="M3623.73,-745.67C3633.22,-741.88 3642.72,-738.23 3651.96,-734.86 3677.31,-725.63 3704.35,-716.63 3731,-708.23"/>
<polygon fill="black" stroke="black" points="3732.04,-711.57 3740.54,-705.25 3729.95,-704.89 3732.04,-711.57"/>
<text text-anchor="middle" x="3684.96" y="-738.06" font-family="Times,serif" font-size="14.00">Yes</text>
</g>
<!-- 45203&#45;&gt;45204 -->
<g id="edge111" class="edge">
<title>45203&#45;&gt;45204</title>
<path fill="none" stroke="#dddddd" d="M3632.67,-774.78C3661.03,-768.53 3690.86,-760.77 3717.96,-751.36 3726.7,-748.33 3735.55,-744.99 3744.42,-741.43"/>
<polygon fill="#dddddd" stroke="#dddddd" points="3745.51,-744.76 3753.43,-737.72 3742.85,-738.29 3745.51,-744.76"/>
<text text-anchor="middle" x="3684.96" y="-772.37" font-family="Times,serif" font-size="14.00">No</text>
</g>
<!-- 45205 -->
<g id="node13" class="node">
<title>45205</title>
<ellipse fill="none" stroke="black" cx="4371.14" cy="-1021.36" rx="130.68" ry="130.68"/>
<text text-anchor="middle" x="4371.14" y="-1016.31" font-family="Times,serif" font-size="14.00">Were tools used in the incident?</text>
</g>
<!-- 45203&#45;&gt;45205 -->
<g id="edge112" class="edge">
<title>45203&#45;&gt;45205</title>
<path fill="none" stroke="black" d="M3557.37,-910.02C3579.68,-950.82 3610.75,-992.73 3651.96,-1017.36 3830.4,-1124.06 4081.09,-1093.46 4234.2,-1059.15"/>
<polygon fill="black" stroke="black" points="4234.6,-1062.65 4243.57,-1057.01 4233.04,-1055.83 4234.6,-1062.65"/>
<text text-anchor="middle" x="3907.58" y="-1094.41" font-family="Times,serif" font-size="14.00">No</text>
</g>
<!-- 45203&#45;&gt;45205 -->
<g id="edge113" class="edge">
<title>45203&#45;&gt;45205</title>
<path fill="none" stroke="black" d="M3621.1,-850.68C3631.43,-855.2 3641.82,-859.51 3651.96,-863.36 3844.2,-936.44 3895.5,-949.26 4097.21,-989.36 4139.84,-997.84 4186.7,-1004.34 4229.37,-1009.19"/>
<polygon fill="black" stroke="black" points="4228.88,-1012.65 4239.2,-1010.28 4229.65,-1005.7 4228.88,-1012.65"/>
<text text-anchor="middle" x="3907.58" y="-988.64" font-family="Times,serif" font-size="14.00">N/a</text>
</g>
<!-- 45204&#45;&gt;END_NODE -->
<g id="edge114" class="edge">
<title>45204&#45;&gt;END_NODE</title>
<path fill="none" stroke="#dddddd" d="M4078.35,-639.83C4563.91,-588.83 5931.43,-460.05 6053.01,-613.36 6093.92,-664.96 6102.27,-1674.97 6103.63,-1903.62"/>
<polygon fill="#dddddd" stroke="#dddddd" points="6100.13,-1903.64 6103.69,-1913.62 6107.13,-1903.6 6100.13,-1903.64"/>
<text text-anchor="middle" x="4946.12" y="-571.04" font-family="Times,serif" font-size="14.00">Full close down search</text>
</g>
<!-- 45204&#45;&gt;END_NODE -->
<g id="edge115" class="edge">
<title>45204&#45;&gt;END_NODE</title>
<path fill="none" stroke="#dddddd" d="M4076.45,-625.31C4083.46,-623.97 4090.41,-622.65 4097.21,-621.36 4160.79,-609.36 4176.33,-603.99 4240.46,-595.36 4380.9,-576.47 4416.87,-579.34 4558.07,-567.36 4723.58,-553.33 5952.25,-436.31 6053.01,-568.36 6094.41,-622.62 6102.39,-1671.47 6103.66,-1903.98"/>
<polygon fill="#dddddd" stroke="#dddddd" points="6100.16,-1903.86 6103.71,-1913.84 6107.16,-1903.82 6100.16,-1903.86"/>
<text text-anchor="middle" x="4946.12" y="-543.42" font-family="Times,serif" font-size="14.00">Partial search</text>
</g>
<!-- 45204&#45;&gt;END_NODE -->
<g id="edge116" class="edge">
<title>45204&#45;&gt;END_NODE</title>
<path fill="none" stroke="#dddddd" d="M4069.94,-601.97C4079.13,-599.27 4088.26,-596.71 4097.21,-594.36 4159.87,-577.92 4176.29,-576.32 4240.46,-567.36 4439.97,-539.52 5925.86,-371.12 6053.01,-527.36 6097.46,-581.98 6103.07,-1667.5 6103.77,-1904.09"/>
<polygon fill="#dddddd" stroke="#dddddd" points="6100.27,-1903.84 6103.8,-1913.83 6107.27,-1903.82 6100.27,-1903.84"/>
<text text-anchor="middle" x="4946.12" y="-502.31" font-family="Times,serif" font-size="14.00">Other: specify</text>
</g>
<!-- 45204&#45;&gt;45205 -->
<g id="edge117" class="edge">
<title>45204&#45;&gt;45205</title>
<path fill="none" stroke="black" d="M4047.4,-758.63C4102.59,-799.38 4166.21,-847.48 4222.46,-892.86 4236.15,-903.91 4250.34,-915.74 4264.27,-927.59"/>
<polygon fill="black" stroke="black" points="4261.88,-930.15 4271.75,-933.98 4266.42,-924.82 4261.88,-930.15"/>
<text text-anchor="middle" x="4159.83" y="-896.06" font-family="Times,serif" font-size="14.00">Full close down search</text>
</g>
<!-- 45204&#45;&gt;45205 -->
<g id="edge118" class="edge">
<title>45204&#45;&gt;45205</title>
<path fill="none" stroke="black" d="M3978.54,-815.02C4008.28,-865.14 4047.7,-916.17 4097.21,-949.36 4144.25,-980.9 4167.6,-958.78 4222.46,-972.86 4227.02,-974.04 4231.64,-975.27 4236.3,-976.56"/>
<polygon fill="black" stroke="black" points="4235.18,-979.88 4245.75,-979.24 4237.09,-973.14 4235.18,-979.88"/>
<text text-anchor="middle" x="4159.83" y="-976.06" font-family="Times,serif" font-size="14.00">Partial search</text>
</g>
<!-- 45204&#45;&gt;45205 -->
<g id="edge119" class="edge">
<title>45204&#45;&gt;45205</title>
<path fill="none" stroke="black" d="M3992.04,-808.24C4020.53,-846.89 4055.84,-884.55 4097.21,-909.36 4145.52,-938.35 4169.67,-909.18 4222.46,-928.86 4232.66,-932.67 4242.92,-937.24 4253.01,-942.27"/>
<polygon fill="black" stroke="black" points="4251.2,-945.28 4261.69,-946.76 4254.41,-939.06 4251.2,-945.28"/>
<text text-anchor="middle" x="4159.83" y="-932.06" font-family="Times,serif" font-size="14.00">Other: please specify</text>
</g>
<!-- 45205&#45;&gt;END_NODE -->
<g id="edge120" class="edge">
<title>45205&#45;&gt;END_NODE</title>
<path fill="none" stroke="#dddddd" d="M4377.99,-1152.22C4389.89,-1351.61 4424.44,-1717.19 4519.82,-1800.36 4584.1,-1856.42 5978.17,-1837.47 6053.01,-1878.36 6065.82,-1885.36 6076.19,-1897.14 6084.14,-1909.11"/>
<polygon fill="#dddddd" stroke="#dddddd" points="6080.99,-1910.67 6089.2,-1917.37 6086.96,-1907.02 6080.99,-1910.67"/>
<text text-anchor="middle" x="5218.34" y="-1850.55" font-family="Times,serif" font-size="14.00">Yes</text>
</g>
<!-- 45205&#45;&gt;END_NODE -->
<g id="edge121" class="edge">
<title>45205&#45;&gt;END_NODE</title>
<path fill="none" stroke="#dddddd" d="M4416.95,-1144.19C4486.88,-1315.67 4639.79,-1620.69 4883.5,-1753.36 4939.91,-1784.07 4962.88,-1765.58 5026.75,-1772.36 5436.54,-1815.92 5541.54,-1799.92 5951.01,-1846.36 5996.54,-1851.53 6015.1,-1835.63 6053.01,-1861.36 6069.09,-1872.28 6080.75,-1890.09 6088.81,-1906.85"/>
<polygon fill="#dddddd" stroke="#dddddd" points="6085.49,-1907.98 6092.76,-1915.69 6091.88,-1905.13 6085.49,-1907.98"/>
<text text-anchor="middle" x="5218.34" y="-1806.78" font-family="Times,serif" font-size="14.00">No</text>
</g>
<!-- 45205&#45;&gt;45208 -->
<g id="edge124" class="edge">
<title>45205&#45;&gt;45208</title>
<path fill="none" stroke="black" d="M4436.01,-1135.23C4467.77,-1184.13 4509.73,-1238.97 4558.07,-1278.36 4735.16,-1422.67 4811.89,-1411.79 5026.75,-1489.36 5247.36,-1569.01 5312.19,-1643.84 5542.67,-1600.36 5549.84,-1599.01 5557.07,-1597.43 5564.32,-1595.65"/>
<polygon fill="black" stroke="black" points="5565.06,-1599.07 5573.87,-1593.18 5563.31,-1592.29 5565.06,-1599.07"/>
<text text-anchor="middle" x="4946.12" y="-1485.65" font-family="Times,serif" font-size="14.00">No</text>
</g>
<!-- 45206 -->
<g id="node14" class="node">
<title>45206</title>
<ellipse fill="none" stroke="black" cx="4711.79" cy="-982.36" rx="153.71" ry="153.71"/>
<text text-anchor="middle" x="4711.79" y="-977.31" font-family="Times,serif" font-size="14.00">What tools/foreign objects were used?</text>
</g>
<!-- 45205&#45;&gt;45206 -->
<g id="edge122" class="edge">
<title>45205&#45;&gt;45206</title>
<path fill="none" stroke="black" d="M4497.43,-987.37C4504.97,-986 4512.48,-984.81 4519.82,-983.86 4528.44,-982.75 4537.28,-981.85 4546.23,-981.14"/>
<polygon fill="black" stroke="black" points="4546.37,-984.63 4556.1,-980.43 4545.87,-977.65 4546.37,-984.63"/>
<text text-anchor="middle" x="4529.95" y="-987.06" font-family="Times,serif" font-size="14.00">Yes</text>
</g>
<!-- 45205&#45;&gt;45206 -->
<g id="edge123" class="edge">
<title>45205&#45;&gt;45206</title>
<path fill="none" stroke="#dddddd" d="M4501.13,-1006.51C4516.25,-1004.77 4531.82,-1002.98 4547.33,-1001.19"/>
<polygon fill="#dddddd" stroke="#dddddd" points="4547.56,-1004.69 4557.1,-1000.06 4546.76,-997.73 4547.56,-1004.69"/>
<text text-anchor="middle" x="4529.95" y="-1007.4" font-family="Times,serif" font-size="14.00">No</text>
</g>
<!-- 45206&#45;&gt;END_NODE -->
<g id="edge125" class="edge">
<title>45206&#45;&gt;END_NODE</title>
<path fill="none" stroke="#dddddd" d="M4844.19,-903.94C4857.18,-898.29 4870.4,-893.28 4883.5,-889.36 5111.09,-821.28 5720.25,-776.99 5951.01,-833.36 6000.64,-845.49 6025.46,-843.35 6053.01,-886.36 6080.83,-929.79 6098.81,-1706.33 6102.95,-1903.92"/>
<polygon fill="#dddddd" stroke="#dddddd" points="6099.45,-1903.86 6103.16,-1913.78 6106.45,-1903.71 6099.45,-1903.86"/>
<text text-anchor="middle" x="5485.3" y="-816.78" font-family="Times,serif" font-size="14.00">Hacksaw blade</text>
</g>
<!-- 45206&#45;&gt;END_NODE -->
<g id="edge126" class="edge">
<title>45206&#45;&gt;END_NODE</title>
<path fill="none" stroke="#dddddd" d="M4832.81,-887.27C4849.33,-876.35 4866.48,-866.04 4883.5,-857.36 4943.08,-827 4961,-823.56 5026.75,-811.36 5138.89,-790.57 5982.62,-743.62 6053.01,-833.36 6086.55,-876.12 6100.35,-1699.66 6103.26,-1903.85"/>
<polygon fill="#dddddd" stroke="#dddddd" points="6099.76,-1903.84 6103.4,-1913.79 6106.76,-1903.74 6099.76,-1903.84"/>
<text text-anchor="middle" x="5485.3" y="-786.78" font-family="Times,serif" font-size="14.00">Other blade</text>
</g>
<!-- 45206&#45;&gt;END_NODE -->
<g id="edge127" class="edge">
<title>45206&#45;&gt;END_NODE</title>
<path fill="none" stroke="#dddddd" d="M4810.74,-864.62C4832.78,-843.93 4857.44,-824.53 4883.5,-810.36 4940.65,-779.3 4962.23,-788.64 5026.75,-780.36 5139.87,-765.86 5979.03,-710.58 6053.01,-797.36 6089.48,-840.14 6101.11,-1694.89 6103.41,-1903.66"/>
<polygon fill="#dddddd" stroke="#dddddd" points="6099.91,-1903.6 6103.51,-1913.57 6106.91,-1903.53 6099.91,-1903.6"/>
<text text-anchor="middle" x="5485.3" y="-757.49" font-family="Times,serif" font-size="14.00">Wire cutters</text>
</g>
<!-- 45206&#45;&gt;END_NODE -->
<g id="edge128" class="edge">
<title>45206&#45;&gt;END_NODE</title>
<path fill="none" stroke="#dddddd" d="M4797.12,-854.02C4821.75,-825.16 4850.93,-797.46 4883.5,-778.36 4995.62,-712.65 5966.91,-665.03 6053.01,-762.36 6091.49,-805.86 6101.63,-1691.72 6103.51,-1903.96"/>
<polygon fill="#dddddd" stroke="#dddddd" points="6100.01,-1903.78 6103.59,-1913.75 6107.01,-1903.72 6100.01,-1903.78"/>
<text text-anchor="middle" x="5485.3" y="-714.12" font-family="Times,serif" font-size="14.00">Bolt cutters</text>
</g>
<!-- 45206&#45;&gt;END_NODE -->
<g id="edge129" class="edge">
<title>45206&#45;&gt;END_NODE</title>
<path fill="none" stroke="#dddddd" d="M4784.95,-846.78C4811.32,-808.34 4844.44,-769.81 4883.5,-743.36 4991.12,-670.51 5969.76,-626.57 6053.01,-726.36 6091.42,-772.41 6101.64,-1688.07 6103.51,-1904.02"/>
<polygon fill="#dddddd" stroke="#dddddd" points="6100.01,-1903.74 6103.6,-1913.71 6107.01,-1903.68 6100.01,-1903.74"/>
<text text-anchor="middle" x="5485.3" y="-674.51" font-family="Times,serif" font-size="14.00">Digging tool</text>
</g>
<!-- 45206&#45;&gt;END_NODE -->
<g id="edge130" class="edge">
<title>45206&#45;&gt;END_NODE</title>
<path fill="none" stroke="#dddddd" d="M4772.66,-840.82C4799.9,-791.5 4836.68,-739.91 4883.5,-705.36 4988.08,-628.21 5970.75,-588.75 6053.01,-689.36 6092.18,-737.26 6101.83,-1683.33 6103.55,-1903.75"/>
<polygon fill="#dddddd" stroke="#dddddd" points="6100.05,-1903.68 6103.63,-1913.65 6107.05,-1903.63 6100.05,-1903.68"/>
<text text-anchor="middle" x="5485.3" y="-635" font-family="Times,serif" font-size="14.00">Crow bar</text>
</g>
<!-- 45206&#45;&gt;END_NODE -->
<g id="edge131" class="edge">
<title>45206&#45;&gt;END_NODE</title>
<path fill="none" stroke="#dddddd" d="M4761.5,-836.56C4788.6,-775.86 4828.26,-709.6 4883.5,-666.36 4985.83,-586.26 5971.28,-550.33 6053.01,-651.36 6093.18,-701.02 6102.08,-1679.51 6103.6,-1903.82"/>
<polygon fill="#dddddd" stroke="#dddddd" points="6100.1,-1903.63 6103.66,-1913.61 6107.1,-1903.59 6100.1,-1903.63"/>
<text text-anchor="middle" x="5485.3" y="-595.16" font-family="Times,serif" font-size="14.00">Improvised tool</text>
</g>
<!-- 45206&#45;&gt;END_NODE -->
<g id="edge132" class="edge">
<title>45206&#45;&gt;END_NODE</title>
<path fill="none" stroke="#dddddd" d="M4726.8,-1135.68C4748.01,-1330.16 4795.46,-1649.36 4883.5,-1724.36 4982.63,-1808.82 5949.51,-1723.32 6053.01,-1802.36 6084.25,-1826.22 6096.41,-1870.47 6101.08,-1904.21"/>
<polygon fill="#dddddd" stroke="#dddddd" points="6097.55,-1904.18 6102.22,-1913.7 6104.5,-1903.35 6097.55,-1904.18"/>
<text text-anchor="middle" x="5485.3" y="-1768.72" font-family="Times,serif" font-size="14.00">Other: specify</text>
</g>
<!-- 45206&#45;&gt;END_NODE -->
<g id="edge133" class="edge">
<title>45206&#45;&gt;END_NODE</title>
<path fill="none" stroke="#dddddd" d="M4725.96,-1135.78C4743.74,-1251.28 4785.49,-1405.86 4883.5,-1503.36 5107.65,-1726.35 5251.23,-1656.45 5560.67,-1721.36 5668.39,-1743.96 5969.65,-1703.5 6053.01,-1775.36 6089.79,-1807.07 6100.71,-1863.75 6103.58,-1903.79"/>
<polygon fill="#dddddd" stroke="#dddddd" points="6100.08,-1903.82 6104.13,-1913.61 6107.06,-1903.43 6100.08,-1903.82"/>
<text text-anchor="middle" x="5485.3" y="-1720.28" font-family="Times,serif" font-size="14.00">Not known</text>
</g>
<!-- 45207 -->
<g id="node15" class="node">
<title>45207</title>
<ellipse fill="none" stroke="black" cx="5218.34" cy="-1154.36" rx="191.59" ry="191.59"/>
<text text-anchor="middle" x="5218.34" y="-1149.31" font-family="Times,serif" font-size="14.00">What was the source of the tools/foreign object?</text>
</g>
<!-- 45206&#45;&gt;45207 -->
<g id="edge134" class="edge">
<title>45206&#45;&gt;45207</title>
<path fill="none" stroke="black" d="M4864.71,-1001.42C4929.81,-1010.11 4994.3,-1019.6 5008.75,-1024.86 5022.23,-1029.77 5035.78,-1035.63 5049.14,-1042.1"/>
<polygon fill="black" stroke="black" points="5047.44,-1045.17 5057.96,-1046.49 5050.56,-1038.9 5047.44,-1045.17"/>
<text text-anchor="middle" x="4946.12" y="-1028.06" font-family="Times,serif" font-size="14.00">Hacksaw blade</text>
</g>
<!-- 45206&#45;&gt;45207 -->
<g id="edge135" class="edge">
<title>45206&#45;&gt;45207</title>
<path fill="none" stroke="black" d="M4864.88,-964.44C4912.15,-963.9 4963.66,-968.64 5008.75,-984.86 5029.88,-992.47 5050.44,-1003.2 5069.89,-1015.62"/>
<polygon fill="black" stroke="black" points="5067.81,-1018.44 5078.08,-1021.02 5071.65,-1012.59 5067.81,-1018.44"/>
<text text-anchor="middle" x="4946.12" y="-988.06" font-family="Times,serif" font-size="14.00">Other blade</text>
</g>
<!-- 45206&#45;&gt;45207 -->
<g id="edge136" class="edge">
<title>45206&#45;&gt;45207</title>
<path fill="none" stroke="black" d="M4857.9,-934.21C4907.25,-925.39 4961.76,-924.28 5008.75,-943.86 5038.4,-956.23 5066,-975.08 5090.78,-996.53"/>
<polygon fill="black" stroke="black" points="5088.14,-998.86 5097.94,-1002.89 5092.79,-993.63 5088.14,-998.86"/>
<text text-anchor="middle" x="4946.12" y="-947.06" font-family="Times,serif" font-size="14.00">Wire cutters</text>
</g>
<!-- 45206&#45;&gt;45207 -->
<g id="edge137" class="edge">
<title>45206&#45;&gt;45207</title>
<path fill="none" stroke="black" d="M4847.92,-910.62C4899.7,-892.74 4958.4,-884.51 5008.75,-907.86 5046.33,-925.29 5079.6,-953.2 5107.91,-984.08"/>
<polygon fill="black" stroke="black" points="5105.09,-986.18 5114.37,-991.3 5110.3,-981.52 5105.09,-986.18"/>
<text text-anchor="middle" x="4946.12" y="-911.06" font-family="Times,serif" font-size="14.00">Bolt cutters</text>
</g>
<!-- 45206&#45;&gt;45207 -->
<g id="edge138" class="edge">
<title>45206&#45;&gt;45207</title>
<path fill="none" stroke="black" d="M4787.16,-1116.9C4812.93,-1150.69 4845.16,-1182.64 4883.5,-1201.36 4927.17,-1222.69 4977.63,-1225.24 5025.88,-1218.95"/>
<polygon fill="black" stroke="black" points="5026.22,-1222.44 5035.61,-1217.54 5025.22,-1215.51 5026.22,-1222.44"/>
<text text-anchor="middle" x="4946.12" y="-1225.15" font-family="Times,serif" font-size="14.00">Digging tool</text>
</g>
<!-- 45206&#45;&gt;45207 -->
<g id="edge139" class="edge">
<title>45206&#45;&gt;45207</title>
<path fill="none" stroke="black" d="M4804.19,-1105.72C4827.34,-1128.35 4854.09,-1148.77 4883.5,-1161.36 4908.55,-1172.09 4960.23,-1173.99 5015.61,-1172.11"/>
<polygon fill="black" stroke="black" points="5015.72,-1175.61 5025.58,-1171.72 5015.45,-1168.61 5015.72,-1175.61"/>
<text text-anchor="middle" x="4946.12" y="-1175.94" font-family="Times,serif" font-size="14.00">Crow bar</text>
</g>
<!-- 45206&#45;&gt;45207 -->
<g id="edge140" class="edge">
<title>45206&#45;&gt;45207</title>
<path fill="none" stroke="black" d="M4823.92,-1087.69C4842.69,-1100.96 4862.83,-1112.84 4883.5,-1121.36 4897.28,-1127.04 4953.4,-1133.46 5015.81,-1139.11"/>
<polygon fill="black" stroke="black" points="5015.34,-1142.58 5025.61,-1139.98 5015.96,-1135.61 5015.34,-1142.58"/>
<text text-anchor="middle" x="4946.12" y="-1141.46" font-family="Times,serif" font-size="14.00">Improvised tool</text>
</g>
<!-- 45206&#45;&gt;45207 -->
<g id="edge141" class="edge">
<title>45206&#45;&gt;45207</title>
<path fill="none" stroke="black" d="M4842.3,-1063.95C4855.9,-1070.54 4869.77,-1076.51 4883.5,-1081.36 4936.61,-1100.15 4953.57,-1089.52 5008.75,-1100.86 5012.88,-1101.71 5017.06,-1102.59 5021.26,-1103.5"/>
<polygon fill="black" stroke="black" points="5020.46,-1106.9 5030.97,-1105.62 5021.95,-1100.07 5020.46,-1106.9"/>
<text text-anchor="middle" x="4946.12" y="-1104.06" font-family="Times,serif" font-size="14.00">Other: please specify</text>
</g>
<!-- 45206&#45;&gt;45207 -->
<g id="edge142" class="edge">
<title>45206&#45;&gt;45207</title>
<path fill="none" stroke="black" d="M4856.61,-1034.09C4865.66,-1036.72 4874.67,-1039.17 4883.5,-1041.36 4938.17,-1054.95 4954.73,-1044.87 5008.75,-1060.86 5017.04,-1063.32 5025.44,-1066.04 5033.85,-1068.95"/>
<polygon fill="black" stroke="black" points="5032.5,-1072.18 5043.09,-1072.23 5034.84,-1065.59 5032.5,-1072.18"/>
<text text-anchor="middle" x="4946.12" y="-1064.06" font-family="Times,serif" font-size="14.00">Not known</text>
</g>
<!-- 45207&#45;&gt;END_NODE -->
<g id="edge143" class="edge">
<title>45207&#45;&gt;END_NODE</title>
<path fill="none" stroke="#dddddd" d="M5407.4,-1188.16C5475.01,-1200.94 5536.37,-1213.56 5542.67,-1218.36 5556.9,-1229.21 5545.99,-1244.15 5560.67,-1254.36 5703.93,-1354.02 5809.11,-1195.29 5951.01,-1296.86 6038.16,-1359.24 6023.73,-1412.27 6053.01,-1515.36 6092.17,-1653.26 6101.23,-1824.04 6103.29,-1904.03"/>
<polygon fill="#dddddd" stroke="#dddddd" points="6099.78,-1903.73 6103.51,-1913.65 6106.78,-1903.57 6099.78,-1903.73"/>
<text text-anchor="middle" x="5755.84" y="-1300.06" font-family="Times,serif" font-size="14.00">Works department</text>
</g>
<!-- 45207&#45;&gt;END_NODE -->
<g id="edge144" class="edge">
<title>45207&#45;&gt;END_NODE</title>
<path fill="none" stroke="#dddddd" d="M5409.68,-1167.76C5453.83,-1173.49 5500.29,-1181.68 5542.67,-1193.36 5551.11,-1195.69 5552.19,-1199.19 5560.67,-1201.36 5729.32,-1244.54 5787.71,-1173.56 5951.01,-1233.86 6003.43,-1253.22 6025.6,-1258.67 6053.01,-1307.36 6082.12,-1359.08 6097.93,-1766.59 6102.47,-1904.17"/>
<polygon fill="#dddddd" stroke="#dddddd" points="6098.97,-1904.11 6102.79,-1913.99 6105.97,-1903.88 6098.97,-1904.11"/>
<text text-anchor="middle" x="5755.84" y="-1237.06" font-family="Times,serif" font-size="14.00">Contractors</text>
</g>
<!-- 45207&#45;&gt;END_NODE -->
<g id="edge145" class="edge">
<title>45207&#45;&gt;END_NODE</title>
<path fill="none" stroke="#dddddd" d="M5410.36,-1151.26C5592.54,-1150.11 5853.19,-1153.68 5951.01,-1180.86 6000.94,-1194.74 6025.13,-1193.68 6053.01,-1237.36 6088.8,-1293.43 6100.33,-1756.2 6103.12,-1904.1"/>
<polygon fill="#dddddd" stroke="#dddddd" points="6099.61,-1903.96 6103.3,-1913.9 6106.61,-1903.83 6099.61,-1903.96"/>
<text text-anchor="middle" x="5755.84" y="-1184.06" font-family="Times,serif" font-size="14.00">Education</text>
</g>
<!-- 45207&#45;&gt;END_NODE -->
<g id="edge146" class="edge">
<title>45207&#45;&gt;END_NODE</title>
<path fill="none" stroke="#dddddd" d="M5408.35,-1127.61C5632.33,-1101.13 5983.97,-1077.93 6053.01,-1181.36 6093.1,-1241.41 6101.75,-1747.43 6103.47,-1903.63"/>
<polygon fill="#dddddd" stroke="#dddddd" points="6099.97,-1903.64 6103.57,-1913.6 6106.97,-1903.56 6099.97,-1903.64"/>
<text text-anchor="middle" x="5755.84" y="-1126.72" font-family="Times,serif" font-size="14.00">Heathcare centre</text>
</g>
<!-- 45207&#45;&gt;END_NODE -->
<g id="edge147" class="edge">
<title>45207&#45;&gt;END_NODE</title>
<path fill="none" stroke="#dddddd" d="M5406.38,-1115.75C5413.66,-1114.26 5420.86,-1112.8 5427.92,-1111.36 5656.06,-1065.08 5722.75,-1039.21 5951.01,-1084.86 5999.17,-1094.5 6024.52,-1087.36 6053.01,-1127.36 6098.17,-1190.77 6103.3,-1741.14 6103.83,-1904.09"/>
<polygon fill="#dddddd" stroke="#dddddd" points="6100.32,-1903.64 6103.85,-1913.63 6107.32,-1903.62 6100.32,-1903.64"/>
<text text-anchor="middle" x="5755.84" y="-1088.06" font-family="Times,serif" font-size="14.00">Farms and gardens</text>
</g>
<!-- 45207&#45;&gt;END_NODE -->
<g id="edge148" class="edge">
<title>45207&#45;&gt;END_NODE</title>
<path fill="none" stroke="#dddddd" d="M5400.16,-1092.59C5409.55,-1089.45 5418.84,-1086.36 5427.92,-1083.36 5486.75,-1063.94 5499.47,-1050.42 5560.67,-1040.86 5732.08,-1014.1 5781.04,-1006.13 5951.01,-1040.86 5999.3,-1050.73 6024.65,-1044.06 6053.01,-1084.36 6100.33,-1151.61 6103.92,-1734.88 6103.96,-1903.74"/>
<polygon fill="#dddddd" stroke="#dddddd" points="6100.46,-1903.66 6103.96,-1913.66 6107.46,-1903.66 6100.46,-1903.66"/>
<text text-anchor="middle" x="5755.84" y="-1044.06" font-family="Times,serif" font-size="14.00">Staff</text>
</g>
<!-- 45207&#45;&gt;END_NODE -->
<g id="edge149" class="edge">
<title>45207&#45;&gt;END_NODE</title>
<path fill="none" stroke="#dddddd" d="M5385.63,-1059.99C5399.78,-1053.03 5414,-1046.39 5427.92,-1040.36 5642.02,-947.71 5722.45,-950.16 5951.01,-996.86 5999.3,-1006.73 6024.71,-1000.02 6053.01,-1040.36 6102.84,-1111.39 6104.61,-1729.33 6104.1,-1903.72"/>
<polygon fill="#dddddd" stroke="#dddddd" points="6100.6,-1903.5 6104.07,-1913.51 6107.6,-1903.52 6100.6,-1903.5"/>
<text text-anchor="middle" x="5755.84" y="-1000.06" font-family="Times,serif" font-size="14.00">Visitor</text>
</g>
<!-- 45207&#45;&gt;END_NODE -->
<g id="edge150" class="edge">
<title>45207&#45;&gt;END_NODE</title>
<path fill="none" stroke="#dddddd" d="M5365.36,-1030.85C5385.69,-1016.48 5406.85,-1002.88 5427.92,-991.36 5632.74,-879.44 5723.96,-890.8 5951.01,-944.86 6000.41,-956.63 6025.25,-953.84 6053.01,-996.36 6102.92,-1072.82 6104.59,-1724.14 6104.09,-1903.69"/>
<polygon fill="#dddddd" stroke="#dddddd" points="6100.59,-1903.54 6104.05,-1913.56 6107.59,-1903.57 6100.59,-1903.54"/>
<text text-anchor="middle" x="5755.84" y="-948.06" font-family="Times,serif" font-size="14.00">Other: specify</text>
</g>
<!-- 45207&#45;&gt;END_NODE -->
<g id="edge151" class="edge">
<title>45207&#45;&gt;END_NODE</title>
<path fill="none" stroke="#dddddd" d="M5341,-1006.91C5367.68,-980.35 5397.2,-954.69 5427.92,-934.36 5622.68,-805.52 5725.81,-823.1 5951.01,-884.86 6001.84,-898.81 6025.78,-900.24 6053.01,-945.36 6102.93,-1028.07 6104.54,-1718.6 6104.07,-1903.81"/>
<polygon fill="#dddddd" stroke="#dddddd" points="6100.57,-1903.74 6104.04,-1913.75 6107.57,-1903.76 6100.57,-1903.74"/>
<text text-anchor="middle" x="5755.84" y="-888.06" font-family="Times,serif" font-size="14.00">Not known</text>
</g>
<!-- 45207&#45;&gt;45208 -->
<g id="edge152" class="edge">
<title>45207&#45;&gt;45208</title>
<path fill="none" stroke="black" d="M5304.78,-1325.49C5337.03,-1374.36 5378.21,-1423.07 5427.92,-1455.36 5431.13,-1457.45 5487.58,-1468.41 5552.7,-1480.55"/>
<polygon fill="black" stroke="black" points="5551.69,-1483.92 5562.16,-1482.31 5552.97,-1477.04 5551.69,-1483.92"/>
<text text-anchor="middle" x="5485.3" y="-1480.83" font-family="Times,serif" font-size="14.00">Works department</text>
</g>
<!-- 45207&#45;&gt;45208 -->
<g id="edge153" class="edge">
<title>45207&#45;&gt;45208</title>
<path fill="none" stroke="black" d="M5319.53,-1317.36C5349.93,-1354.9 5386.44,-1390.92 5427.92,-1415.36 5472.49,-1441.63 5492.81,-1421.09 5542.67,-1434.86 5549.71,-1436.81 5556.84,-1438.9 5564.01,-1441.11"/>
<polygon fill="black" stroke="black" points="5562.5,-1444.31 5573.09,-1443.98 5564.6,-1437.63 5562.5,-1444.31"/>
<text text-anchor="middle" x="5485.3" y="-1438.06" font-family="Times,serif" font-size="14.00">Contractors</text>
</g>
<!-- 45207&#45;&gt;45208 -->
<g id="edge154" class="edge">
<title>45207&#45;&gt;45208</title>
<path fill="none" stroke="black" d="M5336.37,-1305.54C5363.71,-1332.47 5394.66,-1357.57 5427.92,-1375.36 5473.54,-1399.77 5494.01,-1377.32 5542.67,-1394.86 5554.86,-1399.26 5567.16,-1404.34 5579.36,-1409.89"/>
<polygon fill="black" stroke="black" points="5577.67,-1412.96 5588.21,-1414.01 5580.63,-1406.62 5577.67,-1412.96"/>
<text text-anchor="middle" x="5485.3" y="-1398.06" font-family="Times,serif" font-size="14.00">Education</text>
</g>
<!-- 45207&#45;&gt;45208 -->
<g id="edge155" class="edge">
<title>45207&#45;&gt;45208</title>
<path fill="none" stroke="black" d="M5354.36,-1289.48C5377.48,-1307.15 5402.35,-1323.28 5427.92,-1335.36 5474.69,-1357.47 5495.25,-1334.2 5542.67,-1354.86 5561.42,-1363.03 5580,-1373.2 5597.91,-1384.45"/>
<polygon fill="black" stroke="black" points="5595.63,-1387.15 5605.94,-1389.6 5599.41,-1381.25 5595.63,-1387.15"/>
<text text-anchor="middle" x="5485.3" y="-1358.06" font-family="Times,serif" font-size="14.00">Health care centre</text>
</g>
<!-- 45207&#45;&gt;45208 -->
<g id="edge156" class="edge">
<title>45207&#45;&gt;45208</title>
<path fill="none" stroke="black" d="M5372.76,-1268.4C5390.77,-1278.64 5409.36,-1287.92 5427.92,-1295.36 5475.94,-1314.62 5496.44,-1291.66 5542.67,-1314.86 5568.7,-1327.93 5593.69,-1345.26 5616.8,-1364.31"/>
<polygon fill="black" stroke="black" points="5614.5,-1366.95 5624.41,-1370.71 5619.01,-1361.59 5614.5,-1366.95"/>
<text text-anchor="middle" x="5485.3" y="-1318.06" font-family="Times,serif" font-size="14.00">Farms and gardens</text>
</g>
<!-- 45207&#45;&gt;45208 -->
<g id="edge157" class="edge">
<title>45207&#45;&gt;45208</title>
<path fill="none" stroke="black" d="M5389.34,-1241.44C5402.23,-1246.57 5415.18,-1251.29 5427.92,-1255.36 5477.19,-1271.13 5500.47,-1244.95 5542.67,-1274.86 5556.14,-1284.41 5551,-1293.98 5560.67,-1307.36 5575.95,-1328.5 5593.13,-1349.79 5610.79,-1370.3"/>
<polygon fill="black" stroke="black" points="5607.92,-1372.34 5617.12,-1377.59 5613.21,-1367.74 5607.92,-1372.34"/>
<text text-anchor="middle" x="5485.3" y="-1278.06" font-family="Times,serif" font-size="14.00">Staff</text>
</g>
<!-- 45207&#45;&gt;45208 -->
<g id="edge158" class="edge">
<title>45207&#45;&gt;45208</title>
<path fill="none" stroke="black" d="M5402.16,-1209.13C5410.85,-1211.33 5419.47,-1213.42 5427.92,-1215.36 5478.33,-1226.98 5504.75,-1199.68 5542.67,-1234.86 5567.01,-1257.44 5544.91,-1278.15 5560.67,-1307.36 5573.26,-1330.7 5589.05,-1353.43 5606.15,-1374.8"/>
<polygon fill="black" stroke="black" points="5603.3,-1376.85 5612.33,-1382.38 5608.72,-1372.42 5603.3,-1376.85"/>
<text text-anchor="middle" x="5485.3" y="-1238.06" font-family="Times,serif" font-size="14.00">Visitor</text>
</g>
<!-- 45207&#45;&gt;45208 -->
<g id="edge159" class="edge">
<title>45207&#45;&gt;45208</title>
<path fill="none" stroke="black" d="M5329.52,-1310.51C5358.88,-1357.38 5388.39,-1410.02 5409.92,-1461.36 5423.01,-1492.58 5401.31,-1514.45 5427.92,-1535.36 5448.78,-1551.75 5497.87,-1553.8 5551.84,-1549.79"/>
<polygon fill="black" stroke="black" points="5551.87,-1553.3 5561.55,-1549 5551.3,-1546.32 5551.87,-1553.3"/>
<text text-anchor="middle" x="5485.3" y="-1554.75" font-family="Times,serif" font-size="14.00">Other: please specify</text>
</g>
<!-- 45207&#45;&gt;45208 -->
<g id="edge160" class="edge">
<title>45207&#45;&gt;45208</title>
<path fill="none" stroke="black" d="M5322.33,-1315.62C5351.32,-1362.25 5382.43,-1413.49 5409.92,-1461.36 5418.44,-1476.19 5413.58,-1486.06 5427.92,-1495.36 5439.66,-1502.98 5490.69,-1507.99 5549.05,-1511.28"/>
<polygon fill="black" stroke="black" points="5548.74,-1514.77 5558.91,-1511.81 5549.11,-1507.78 5548.74,-1514.77"/>
<text text-anchor="middle" x="5485.3" y="-1513.83" font-family="Times,serif" font-size="14.00">Not known</text>
</g>
</g>
</svg>
