<?xml version="1.0" encoding="UTF-8" standalone="no"?>
<!DOCTYPE svg PUBLIC "-//W3C//DTD SVG 1.1//EN"
 "http://www.w3.org/Graphics/SVG/1.1/DTD/svg11.dtd">
<!-- Generated by graphviz version 9.0.0 (20230911.1827)
 -->
<!-- Title: KEY_LOCK_INCIDENT Pages: 1 -->
<svg width="6150pt" height="3669pt"
 viewBox="0.00 0.00 6150.47 3669.25" xmlns="http://www.w3.org/2000/svg" xmlns:xlink="http://www.w3.org/1999/xlink">
<g id="graph0" class="graph" transform="scale(1 1) rotate(0) translate(4 3665.25)">
<title>KEY_LOCK_INCIDENT</title>
<polygon fill="white" stroke="none" points="-4,4 -4,-3665.25 6146.47,-3665.25 6146.47,4 -4,4"/>
<!-- START_NODE -->
<g id="node1" class="node">
<title>START_NODE</title>
</g>
<!-- 45196 -->
<g id="node2" class="node">
<title>45196</title>
<ellipse fill="none" stroke="black" cx="252.63" cy="-2882.05" rx="139.38" ry="139.38"/>
<text text-anchor="middle" x="252.63" y="-2877" font-family="Times,serif" font-size="14.00">Describe the nature of the incident</text>
</g>
<!-- START_NODE&#45;&gt;45196 -->
<g id="edge1" class="edge">
<title>START_NODE&#45;&gt;45196</title>
<path fill="none" stroke="black" d="M53.65,-2882.05C66.54,-2882.05 83.3,-2882.05 101.62,-2882.05"/>
<polygon fill="black" stroke="black" points="101.37,-2885.55 111.37,-2882.05 101.37,-2878.55 101.37,-2885.55"/>
<text text-anchor="middle" x="83.62" y="-2885.25" font-family="Times,serif" font-size="14.00">start</text>
</g>
<!-- END_NODE -->
<g id="node3" class="node">
<title>END_NODE</title>
<ellipse fill="none" stroke="black" cx="6108.62" cy="-1957.05" rx="29.86" ry="29.86"/>
<ellipse fill="none" stroke="black" cx="6108.62" cy="-1957.05" rx="33.86" ry="33.86"/>
<text text-anchor="middle" x="6108.62" y="-1952" font-family="Times,serif" font-size="14.00">END</text>
</g>
<!-- 45196&#45;&gt;END_NODE -->
<g id="edge2" class="edge">
<title>45196&#45;&gt;END_NODE</title>
<path fill="none" stroke="#dddddd" d="M264.76,-3021.35C282.68,-3206.27 324.89,-3517.94 410.01,-3590.05 578.85,-3733.07 685.92,-3616.05 907.2,-3616.05 907.2,-3616.05 907.2,-3616.05 5760.59,-3616.05 5892.73,-3616.05 5966,-3686.08 6056.76,-3590.05 6112.77,-3530.79 6109.19,-2260.25 6107.88,-2002.44"/>
<polygon fill="#dddddd" stroke="#dddddd" points="6111.39,-2002.77 6107.83,-1992.79 6104.39,-2002.81 6111.39,-2002.77"/>
<text text-anchor="middle" x="3196.05" y="-3619.25" font-family="Times,serif" font-size="14.00">Keys taken out of the establishment</text>
</g>
<!-- 45196&#45;&gt;END_NODE -->
<g id="edge3" class="edge">
<title>45196&#45;&gt;END_NODE</title>
<path fill="none" stroke="#dddddd" d="M266.77,-3021.02C286.47,-3196.4 330.19,-3483.28 410.01,-3550.05 452.45,-3585.54 851.88,-3576.05 907.2,-3576.05 907.2,-3576.05 907.2,-3576.05 5760.59,-3576.05 5826.66,-3576.05 6011.36,-3598.04 6056.76,-3550.05 6111.33,-3492.35 6108.92,-2256.7 6107.85,-2002.52"/>
<polygon fill="#dddddd" stroke="#dddddd" points="6111.35,-2002.66 6107.8,-1992.68 6104.35,-2002.69 6111.35,-2002.66"/>
<text text-anchor="middle" x="3196.05" y="-3579.25" font-family="Times,serif" font-size="14.00">Keys lost</text>
</g>
<!-- 45196&#45;&gt;END_NODE -->
<g id="edge4" class="edge">
<title>45196&#45;&gt;END_NODE</title>
<path fill="none" stroke="#dddddd" d="M269.01,-3020.66C290.49,-3186.22 335.46,-3448.58 410.01,-3510.05 495.38,-3580.43 796.56,-3536.05 907.2,-3536.05 907.2,-3536.05 907.2,-3536.05 5760.59,-3536.05 5826.66,-3536.05 6011.34,-3558.03 6056.76,-3510.05 6109.9,-3453.91 6108.65,-2253.05 6107.81,-2002.58"/>
<polygon fill="#dddddd" stroke="#dddddd" points="6111.31,-2002.88 6107.77,-1992.89 6104.31,-2002.9 6111.31,-2002.88"/>
<text text-anchor="middle" x="3196.05" y="-3539.25" font-family="Times,serif" font-size="14.00">Key left unattended in prison</text>
</g>
<!-- 45196&#45;&gt;END_NODE -->
<g id="edge5" class="edge">
<title>45196&#45;&gt;END_NODE</title>
<path fill="none" stroke="#dddddd" d="M271.57,-3020.48C294.82,-3175.92 340.75,-3413.85 410.01,-3470.05 495.93,-3539.75 796.56,-3496.05 907.2,-3496.05 907.2,-3496.05 907.2,-3496.05 5760.59,-3496.05 5826.66,-3496.05 6011.32,-3518.01 6056.76,-3470.05 6108.48,-3415.46 6108.37,-2249.1 6107.77,-2002.56"/>
<polygon fill="#dddddd" stroke="#dddddd" points="6111.27,-2002.7 6107.74,-1992.71 6104.27,-2002.72 6111.27,-2002.7"/>
<text text-anchor="middle" x="3196.05" y="-3499.25" font-family="Times,serif" font-size="14.00">Key issued to wrong person</text>
</g>
<!-- 45196&#45;&gt;END_NODE -->
<g id="edge6" class="edge">
<title>45196&#45;&gt;END_NODE</title>
<path fill="none" stroke="#dddddd" d="M274.43,-3019.96C299.38,-3164.95 345.97,-3379.04 410.01,-3430.05 496.56,-3498.97 796.56,-3456.05 907.2,-3456.05 907.2,-3456.05 907.2,-3456.05 5760.59,-3456.05 5826.66,-3456.05 6011.3,-3477.99 6056.76,-3430.05 6107.05,-3377.01 6108.08,-2245.04 6107.72,-2002.53"/>
<polygon fill="#dddddd" stroke="#dddddd" points="6111.22,-2002.84 6107.71,-1992.85 6104.22,-2002.85 6111.22,-2002.84"/>
<text text-anchor="middle" x="3196.05" y="-3459.25" font-family="Times,serif" font-size="14.00">Doors/gates/cell door left unlocked</text>
</g>
<!-- 45196&#45;&gt;END_NODE -->
<g id="edge7" class="edge">
<title>45196&#45;&gt;END_NODE</title>
<path fill="none" stroke="#dddddd" d="M277.74,-3019.57C304.32,-3153.75 351.2,-3344.19 410.01,-3390.05 497.27,-3458.07 796.56,-3416.05 907.2,-3416.05 907.2,-3416.05 907.2,-3416.05 5760.59,-3416.05 5826.66,-3416.05 6011.28,-3437.96 6056.76,-3390.05 6105.64,-3338.55 6107.79,-2240.69 6107.68,-2002.41"/>
<polygon fill="#dddddd" stroke="#dddddd" points="6111.18,-2002.6 6107.67,-1992.6 6104.18,-2002.6 6111.18,-2002.6"/>
<text text-anchor="middle" x="3196.05" y="-3419.25" font-family="Times,serif" font-size="14.00">Loss of handcuffs</text>
</g>
<!-- 45196&#45;&gt;END_NODE -->
<g id="edge8" class="edge">
<title>45196&#45;&gt;END_NODE</title>
<path fill="none" stroke="#dddddd" d="M259.86,-3021.49C272.79,-3129.59 309.36,-3273.48 410.01,-3350.05 498.07,-3417.03 796.56,-3376.05 907.2,-3376.05 907.2,-3376.05 907.2,-3376.05 5760.59,-3376.05 5826.66,-3376.05 6011.25,-3397.94 6056.76,-3350.05 6104.2,-3300.12 6107.48,-2237.28 6107.63,-2002.62"/>
<polygon fill="#dddddd" stroke="#dddddd" points="6111.13,-2002.66 6107.63,-1992.66 6104.13,-2002.66 6111.13,-2002.66"/>
<text text-anchor="middle" x="3196.05" y="-3379.25" font-family="Times,serif" font-size="14.00">Loss of escort chain</text>
</g>
<!-- 45196&#45;&gt;END_NODE -->
<g id="edge9" class="edge">
<title>45196&#45;&gt;END_NODE</title>
<path fill="none" stroke="#dddddd" d="M265.26,-3021.1C281.37,-3118.68 319.59,-3243.23 410.01,-3310.05 498.99,-3375.79 796.56,-3336.05 907.2,-3336.05 907.2,-3336.05 907.2,-3336.05 5760.59,-3336.05 5826.66,-3336.05 6011.23,-3357.92 6056.76,-3310.05 6102.79,-3261.65 6107.17,-2232.58 6107.58,-2002.43"/>
<polygon fill="#dddddd" stroke="#dddddd" points="6111.08,-2002.68 6107.59,-1992.67 6104.08,-2002.67 6111.08,-2002.68"/>
<text text-anchor="middle" x="3196.05" y="-3339.25" font-family="Times,serif" font-size="14.00">Other handcuff key/lock issues</text>
</g>
<!-- 45196&#45;&gt;END_NODE -->
<g id="edge10" class="edge">
<title>45196&#45;&gt;END_NODE</title>
<path fill="none" stroke="#dddddd" d="M271.62,-3020.53C290.66,-3107.13 329.77,-3212.76 410.01,-3270.05 500.06,-3334.32 796.56,-3296.05 907.2,-3296.05 907.2,-3296.05 907.2,-3296.05 5760.59,-3296.05 5826.66,-3296.05 6011.2,-3317.89 6056.76,-3270.05 6101.37,-3223.21 6106.85,-2228.66 6107.52,-2002.52"/>
<polygon fill="#dddddd" stroke="#dddddd" points="6111.02,-2002.65 6107.55,-1992.64 6104.02,-2002.63 6111.02,-2002.65"/>
<text text-anchor="middle" x="3196.05" y="-3299.25" font-family="Times,serif" font-size="14.00">Broken/damaged keys</text>
</g>
<!-- 45196&#45;&gt;END_NODE -->
<g id="edge11" class="edge">
<title>45196&#45;&gt;END_NODE</title>
<path fill="none" stroke="#dddddd" d="M279.1,-3019.24C300.66,-3094.47 339.78,-3181.96 410.01,-3230.05 501.3,-3292.55 796.56,-3256.05 907.2,-3256.05 907.2,-3256.05 907.2,-3256.05 5760.59,-3256.05 5826.66,-3256.05 6011.17,-3277.86 6056.76,-3230.05 6099.94,-3184.76 6106.52,-2224.56 6107.47,-2002.57"/>
<polygon fill="#dddddd" stroke="#dddddd" points="6110.97,-2002.9 6107.51,-1992.88 6103.97,-2002.87 6110.97,-2002.9"/>
<text text-anchor="middle" x="3196.05" y="-3259.25" font-family="Times,serif" font-size="14.00">Worn locks (not malicious)</text>
</g>
<!-- 45196&#45;&gt;END_NODE -->
<g id="edge12" class="edge">
<title>45196&#45;&gt;END_NODE</title>
<path fill="none" stroke="#dddddd" d="M288.07,-3017.25C311.55,-3080.68 349.69,-3150.81 410.01,-3190.05 502.76,-3250.36 796.56,-3216.05 907.2,-3216.05 907.2,-3216.05 907.2,-3216.05 5760.59,-3216.05 5826.66,-3216.05 6011.14,-3237.83 6056.76,-3190.05 6098.53,-3146.3 6106.18,-2220.11 6107.41,-2002.52"/>
<polygon fill="#dddddd" stroke="#dddddd" points="6110.9,-2002.77 6107.46,-1992.75 6103.9,-2002.73 6110.9,-2002.77"/>
<text text-anchor="middle" x="3196.05" y="-3219.25" font-family="Times,serif" font-size="14.00">Malicious damage to/blockage of locks</text>
</g>
<!-- 45196&#45;&gt;END_NODE -->
<g id="edge13" class="edge">
<title>45196&#45;&gt;END_NODE</title>
<path fill="none" stroke="#dddddd" d="M298.84,-3014.03C323.43,-3065.38 359.42,-3119.2 410.01,-3150.05 504.48,-3207.63 796.56,-3176.05 907.2,-3176.05 907.2,-3176.05 907.2,-3176.05 5760.59,-3176.05 5826.66,-3176.05 6011.11,-3197.8 6056.76,-3150.05 6097.1,-3107.86 6105.82,-2216.36 6107.34,-2002.75"/>
<polygon fill="#dddddd" stroke="#dddddd" points="6110.84,-2002.91 6107.41,-1992.88 6103.84,-2002.86 6110.84,-2002.91"/>
<text text-anchor="middle" x="3196.05" y="-3179.25" font-family="Times,serif" font-size="14.00">Lock picked</text>
</g>
<!-- 45196&#45;&gt;END_NODE -->
<g id="edge14" class="edge">
<title>45196&#45;&gt;END_NODE</title>
<path fill="none" stroke="#dddddd" d="M311.73,-3008.8C336.28,-3048.04 368.88,-3086.99 410.01,-3110.05 506.52,-3164.14 796.56,-3136.05 907.2,-3136.05 907.2,-3136.05 907.2,-3136.05 5760.59,-3136.05 5826.62,-3136.05 6010.94,-3159.59 6056.76,-3112.05 6095.9,-3071.44 6105.51,-2211.81 6107.28,-2002.63"/>
<polygon fill="#dddddd" stroke="#dddddd" points="6110.78,-2002.73 6107.36,-1992.71 6103.78,-2002.68 6110.78,-2002.73"/>
<text text-anchor="middle" x="3196.05" y="-3139.25" font-family="Times,serif" font-size="14.00">Part of lock removed</text>
</g>
<!-- 45196&#45;&gt;END_NODE -->
<g id="edge15" class="edge">
<title>45196&#45;&gt;END_NODE</title>
<path fill="none" stroke="#dddddd" d="M326.97,-3000.48C350.01,-3028.03 377.94,-3053.97 410.01,-3070.05 508.92,-3119.62 796.56,-3096.05 907.2,-3096.05 907.2,-3096.05 907.2,-3096.05 2862.53,-3096.05 3229.28,-3096.05 3320.96,-3098.05 3687.71,-3098.05 3687.71,-3098.05 3687.71,-3098.05 5760.59,-3098.05 5826.62,-3098.05 6010.9,-3121.55 6056.76,-3074.05 6094.54,-3034.91 6105.15,-2207.89 6107.21,-2002.77"/>
<polygon fill="#dddddd" stroke="#dddddd" points="6110.71,-2002.81 6107.3,-1992.78 6103.71,-2002.74 6110.71,-2002.81"/>
<text text-anchor="middle" x="3196.05" y="-3100.25" font-family="Times,serif" font-size="14.00">Complete lock removed</text>
</g>
<!-- 45196&#45;&gt;END_NODE -->
<g id="edge16" class="edge">
<title>45196&#45;&gt;END_NODE</title>
<path fill="none" stroke="#dddddd" d="M344.11,-2987.32C364.02,-3004.44 386.31,-3019.88 410.01,-3030.05 511.7,-3073.64 796.56,-3056.05 907.2,-3056.05 907.2,-3056.05 907.2,-3056.05 2862.53,-3056.05 3229.28,-3056.05 3320.96,-3060.05 3687.71,-3060.05 3687.71,-3060.05 3687.71,-3060.05 5760.59,-3060.05 5826.62,-3060.05 6010.87,-3083.52 6056.76,-3036.05 6093.21,-2998.35 6104.79,-2202.85 6107.13,-2002.52"/>
<polygon fill="#dddddd" stroke="#dddddd" points="6110.63,-2002.82 6107.24,-1992.78 6103.63,-2002.74 6110.63,-2002.82"/>
<text text-anchor="middle" x="3196.05" y="-3061.25" font-family="Times,serif" font-size="14.00">Electronics overcome (electronic door)</text>
</g>
<!-- 45196&#45;&gt;END_NODE -->
<g id="edge17" class="edge">
<title>45196&#45;&gt;END_NODE</title>
<path fill="none" stroke="#dddddd" d="M362.78,-2968.2C377.99,-2976.92 393.93,-2984.57 410.01,-2990.05 514.74,-3025.72 796.56,-3016.05 907.2,-3016.05 907.2,-3016.05 907.2,-3016.05 2862.53,-3016.05 3229.29,-3016.05 3320.95,-3022.05 3687.71,-3022.05 3687.71,-3022.05 3687.71,-3022.05 5760.59,-3022.05 5826.62,-3022.05 6010.82,-3045.48 6056.76,-2998.05 6091.86,-2961.8 6104.41,-2198.32 6107.05,-2002.49"/>
<polygon fill="#dddddd" stroke="#dddddd" points="6110.55,-2002.77 6107.18,-1992.73 6103.55,-2002.68 6110.55,-2002.77"/>
<text text-anchor="middle" x="3196.05" y="-3023.25" font-family="Times,serif" font-size="14.00">Electronics failure (electronic door)</text>
</g>
<!-- 45196&#45;&gt;END_NODE -->
<g id="edge18" class="edge">
<title>45196&#45;&gt;END_NODE</title>
<path fill="none" stroke="#dddddd" d="M379.06,-2941.12C389.38,-2944.59 399.78,-2947.64 410.01,-2950.05 625.4,-3000.75 685.92,-2976.05 907.2,-2976.05 907.2,-2976.05 907.2,-2976.05 2862.53,-2976.05 3229.29,-2976.05 3320.94,-2984.05 3687.71,-2984.05 3687.71,-2984.05 3687.71,-2984.05 5760.59,-2984.05 5826.62,-2984.05 6010.78,-3007.44 6056.76,-2960.05 6090.52,-2925.25 6104.01,-2193.48 6106.97,-2002.37"/>
<polygon fill="#dddddd" stroke="#dddddd" points="6110.46,-2002.66 6107.11,-1992.61 6103.46,-2002.55 6110.46,-2002.66"/>
<text text-anchor="middle" x="3196.05" y="-2984.25" font-family="Times,serif" font-size="14.00">Replica key found/used</text>
</g>
<!-- 45196&#45;&gt;END_NODE -->
<g id="edge19" class="edge">
<title>45196&#45;&gt;END_NODE</title>
<path fill="none" stroke="#dddddd" d="M389.49,-2909.3C396.42,-2910.32 403.29,-2911.24 410.01,-2912.05 629.68,-2938.28 685.97,-2936.05 907.2,-2936.05 907.2,-2936.05 907.2,-2936.05 2862.53,-2936.05 3229.3,-2936.05 3320.94,-2946.05 3687.71,-2946.05 3687.71,-2946.05 3687.71,-2946.05 5760.59,-2946.05 5826.62,-2946.05 6010.73,-2969.39 6056.76,-2922.05 6089.18,-2888.7 6103.59,-2189.1 6106.87,-2002.47"/>
<polygon fill="#dddddd" stroke="#dddddd" points="6110.37,-2002.75 6107.04,-1992.69 6103.37,-2002.63 6110.37,-2002.75"/>
<text text-anchor="middle" x="3196.05" y="-2945.25" font-family="Times,serif" font-size="14.00">Key viewed by prisoner</text>
</g>
<!-- 45196&#45;&gt;END_NODE -->
<g id="edge20" class="edge">
<title>45196&#45;&gt;END_NODE</title>
<path fill="none" stroke="#dddddd" d="M392.26,-2887.41C524.54,-2892.06 729.43,-2898.05 907.2,-2898.05 907.2,-2898.05 907.2,-2898.05 2693.01,-2898.05 3135.12,-2898.05 3245.6,-2908.05 3687.71,-2908.05 3687.71,-2908.05 3687.71,-2908.05 5760.59,-2908.05 5893.67,-2908.05 5967.06,-2962.35 6056.76,-2864.05 6086.07,-2831.93 6102.62,-2181.98 6106.65,-2002.57"/>
<polygon fill="#dddddd" stroke="#dddddd" points="6110.14,-2002.79 6106.87,-1992.72 6103.15,-2002.64 6110.14,-2002.79"/>
<text text-anchor="middle" x="3196.05" y="-2908.25" font-family="Times,serif" font-size="14.00">Other: (anything else including prisoner grabbing key chain, etc)</text>
</g>
<!-- 45197 -->
<g id="node4" class="node">
<title>45197</title>
<ellipse fill="none" stroke="black" cx="908.2" cy="-2226.05" rx="130.68" ry="130.68"/>
<text text-anchor="middle" x="908.2" y="-2221" font-family="Times,serif" font-size="14.00">Describe the type of key or lock</text>
</g>
<!-- 45196&#45;&gt;45197 -->
<g id="edge21" class="edge">
<title>45196&#45;&gt;45197</title>
<path fill="none" stroke="black" d="M391.76,-2869.05C397.93,-2868.53 404.04,-2868.02 410.01,-2867.55 448.81,-2864.44 729.79,-2869.17 759.51,-2844.05 831.22,-2783.44 872.86,-2530.22 892.72,-2367.31"/>
<polygon fill="black" stroke="black" points="896.15,-2368.08 893.87,-2357.73 889.2,-2367.24 896.15,-2368.08"/>
<text text-anchor="middle" x="584.76" y="-2870.25" font-family="Times,serif" font-size="14.00">Keys taken out of the establishment</text>
</g>
<!-- 45196&#45;&gt;45197 -->
<g id="edge22" class="edge">
<title>45196&#45;&gt;45197</title>
<path fill="none" stroke="black" d="M382.44,-2830.43C391.68,-2827.79 400.94,-2825.45 410.01,-2823.55 448.08,-2815.56 729.47,-2828.75 759.51,-2804.05 826.29,-2749.13 868.78,-2520.03 890.26,-2367.28"/>
<polygon fill="black" stroke="black" points="893.71,-2367.84 891.62,-2357.46 886.78,-2366.88 893.71,-2367.84"/>
<text text-anchor="middle" x="584.76" y="-2826.25" font-family="Times,serif" font-size="14.00">Keys lost</text>
</g>
<!-- 45196&#45;&gt;45197 -->
<g id="edge23" class="edge">
<title>45196&#45;&gt;45197</title>
<path fill="none" stroke="black" d="M366.97,-2801.68C380.98,-2794.48 395.5,-2788.18 410.01,-2783.55 447.07,-2771.72 729.26,-2788.48 759.51,-2764.05 821.11,-2714.3 864.27,-2508.67 887.41,-2366.55"/>
<polygon fill="black" stroke="black" points="890.8,-2367.5 888.94,-2357.07 883.89,-2366.38 890.8,-2367.5"/>
<text text-anchor="middle" x="584.76" y="-2786.25" font-family="Times,serif" font-size="14.00">Key left unattended in prison</text>
</g>
<!-- 45196&#45;&gt;45197 -->
<g id="edge24" class="edge">
<title>45196&#45;&gt;45197</title>
<path fill="none" stroke="black" d="M348.48,-2780.77C367.4,-2765.86 388.21,-2752.51 410.01,-2743.55 445.98,-2728.75 729.01,-2748.17 759.51,-2724.05 815.89,-2679.46 859.31,-2497.34 884.06,-2366.23"/>
<polygon fill="black" stroke="black" points="887.43,-2367.26 885.83,-2356.79 880.55,-2365.97 887.43,-2367.26"/>
<text text-anchor="middle" x="584.76" y="-2746.25" font-family="Times,serif" font-size="14.00">Key issued to wrong person</text>
</g>
<!-- 45196&#45;&gt;45197 -->
<g id="edge25" class="edge">
<title>45196&#45;&gt;45197</title>
<path fill="none" stroke="black" d="M330.9,-2766.35C353.35,-2741.41 380.02,-2718.17 410.01,-2703.55 479.94,-2669.46 697.94,-2731.57 759.51,-2684.05 855.31,-2610.11 889.98,-2473.22 902.03,-2368.28"/>
<polygon fill="black" stroke="black" points="905.5,-2368.76 903.1,-2358.45 898.54,-2368.01 905.5,-2368.76"/>
<text text-anchor="middle" x="584.76" y="-2706.25" font-family="Times,serif" font-size="14.00">Doors/gates/cell door left unlocked</text>
</g>
<!-- 45196&#45;&gt;45197 -->
<g id="edge26" class="edge">
<title>45196&#45;&gt;45197</title>
<path fill="none" stroke="black" d="M315.12,-2757.1C339.47,-2720.68 371.08,-2684.95 410.01,-2663.55 478.18,-2626.07 697.28,-2690.72 759.51,-2644.05 845.16,-2579.82 881.34,-2461.98 896.51,-2367.76"/>
<polygon fill="black" stroke="black" points="899.97,-2368.3 898.03,-2357.88 893.05,-2367.23 899.97,-2368.3"/>
<text text-anchor="middle" x="584.76" y="-2666.25" font-family="Times,serif" font-size="14.00">Loss of handcuffs</text>
</g>
<!-- 45196&#45;&gt;45197 -->
<g id="edge27" class="edge">
<title>45196&#45;&gt;45197</title>
<path fill="none" stroke="black" d="M301.66,-2751.34C326.37,-2702.83 361.69,-2652.6 410.01,-2623.55 476.68,-2583.47 696.52,-2649.69 759.51,-2604.05 835,-2549.35 871.91,-2450.22 889.95,-2367.2"/>
<polygon fill="black" stroke="black" points="893.34,-2368.1 891.96,-2357.6 886.48,-2366.67 893.34,-2368.1"/>
<text text-anchor="middle" x="584.76" y="-2626.25" font-family="Times,serif" font-size="14.00">Loss of escort chain</text>
</g>
<!-- 45196&#45;&gt;45197 -->
<g id="edge28" class="edge">
<title>45196&#45;&gt;45197</title>
<path fill="none" stroke="black" d="M290.52,-2747.53C314.37,-2686.97 352.09,-2620.83 410.01,-2583.55 475.42,-2541.44 695.64,-2608.44 759.51,-2564.05 825.04,-2518.51 861.77,-2437.23 882.2,-2365.78"/>
<polygon fill="black" stroke="black" points="885.53,-2366.89 884.82,-2356.32 878.78,-2365.03 885.53,-2366.89"/>
<text text-anchor="middle" x="584.76" y="-2586.25" font-family="Times,serif" font-size="14.00">Other handcuff key/lock issues</text>
</g>
<!-- 45196&#45;&gt;45197 -->
<g id="edge29" class="edge">
<title>45196&#45;&gt;45197</title>
<path fill="none" stroke="black" d="M281.2,-2745.16C303.31,-2672.77 342.28,-2589.57 410.01,-2543.55 474.35,-2499.82 694.59,-2566.88 759.51,-2524.05 815.1,-2487.37 850.57,-2423.27 872.78,-2363.88"/>
<polygon fill="black" stroke="black" points="876,-2365.26 876.12,-2354.67 869.42,-2362.88 876,-2365.26"/>
<text text-anchor="middle" x="584.76" y="-2546.25" font-family="Times,serif" font-size="14.00">Broken/damaged keys</text>
</g>
<!-- 45196&#45;&gt;45197 -->
<g id="edge30" class="edge">
<title>45196&#45;&gt;45197</title>
<path fill="none" stroke="black" d="M273.29,-2744.14C292.98,-2660.19 332.18,-2558.8 410.01,-2503.55 473.44,-2458.52 693.33,-2524.92 759.51,-2484.05 805.33,-2455.74 838.33,-2407.65 861.36,-2360.6"/>
<polygon fill="black" stroke="black" points="864.49,-2362.17 865.61,-2351.64 858.16,-2359.17 864.49,-2362.17"/>
<text text-anchor="middle" x="584.76" y="-2506.25" font-family="Times,serif" font-size="14.00">Worn locks (not malicious)</text>
</g>
<!-- 45196&#45;&gt;45197 -->
<g id="edge31" class="edge">
<title>45196&#45;&gt;45197</title>
<path fill="none" stroke="black" d="M266.76,-2743.05C283.64,-2648.1 322.17,-2528.2 410.01,-2463.55 472.66,-2417.44 691.84,-2482.4 759.51,-2444.05 796.02,-2423.36 825.34,-2389.47 847.93,-2354.52"/>
<polygon fill="black" stroke="black" points="850.66,-2356.75 853.02,-2346.41 844.73,-2353.02 850.66,-2356.75"/>
<text text-anchor="middle" x="584.76" y="-2466.25" font-family="Times,serif" font-size="14.00">Malicious damage to/blockage of locks</text>
</g>
<!-- 45196&#45;&gt;45197 -->
<g id="edge32" class="edge">
<title>45196&#45;&gt;45197</title>
<path fill="none" stroke="black" d="M261.18,-2742.48C274.95,-2636.92 312.01,-2497.88 410.01,-2423.55 471.99,-2376.54 690.06,-2439.06 759.51,-2404.05 786.82,-2390.28 810.94,-2368.95 831.37,-2345.78"/>
<polygon fill="black" stroke="black" points="833.91,-2348.2 837.74,-2338.33 828.59,-2343.65 833.91,-2348.2"/>
<text text-anchor="middle" x="584.76" y="-2426.25" font-family="Times,serif" font-size="14.00">Lock picked</text>
</g>
<!-- 45196&#45;&gt;45197 -->
<g id="edge33" class="edge">
<title>45196&#45;&gt;45197</title>
<path fill="none" stroke="black" d="M278.64,-2744.65C305.61,-2613.13 352.52,-2428.28 410.01,-2383.55 440.71,-2359.66 723.75,-2379.32 759.51,-2364.05 778.48,-2355.95 796.51,-2344.3 813.05,-2331.15"/>
<polygon fill="black" stroke="black" points="814.89,-2334.17 820.39,-2325.11 810.45,-2328.76 814.89,-2334.17"/>
<text text-anchor="middle" x="584.76" y="-2386.25" font-family="Times,serif" font-size="14.00">Part of lock removed</text>
</g>
<!-- 45196&#45;&gt;45197 -->
<g id="edge34" class="edge">
<title>45196&#45;&gt;45197</title>
<path fill="none" stroke="black" d="M275.21,-2744.27C300.58,-2601.84 347.3,-2393.43 410.01,-2343.55 440.45,-2319.33 722.61,-2336.31 759.51,-2324.05 770.92,-2320.26 782.28,-2315.34 793.34,-2309.74"/>
<polygon fill="black" stroke="black" points="794.87,-2312.89 802.07,-2305.12 791.6,-2306.7 794.87,-2312.89"/>
<text text-anchor="middle" x="584.76" y="-2346.25" font-family="Times,serif" font-size="14.00">Complete lock removed</text>
</g>
<!-- 45196&#45;&gt;45197 -->
<g id="edge35" class="edge">
<title>45196&#45;&gt;45197</title>
<path fill="none" stroke="black" d="M272.25,-2743.82C295.93,-2590.87 342.08,-2358.62 410.01,-2303.55 440.23,-2279.05 721.52,-2292.34 759.51,-2284.05 765.09,-2282.83 770.73,-2281.43 776.39,-2279.88"/>
<polygon fill="black" stroke="black" points="777.19,-2283.29 785.83,-2277.16 775.25,-2276.57 777.19,-2283.29"/>
<text text-anchor="middle" x="584.76" y="-2306.25" font-family="Times,serif" font-size="14.00">Electronics overcome (electronic door)</text>
</g>
<!-- 45196&#45;&gt;45197 -->
<g id="edge36" class="edge">
<title>45196&#45;&gt;45197</title>
<path fill="none" stroke="black" d="M269.64,-2743.4C291.59,-2580.26 336.84,-2323.87 410.01,-2263.55 440.03,-2238.8 720.77,-2247.48 759.51,-2244.05 762.02,-2243.82 764.55,-2243.59 767.1,-2243.35"/>
<polygon fill="black" stroke="black" points="767.26,-2246.85 776.87,-2242.4 766.58,-2239.89 767.26,-2246.85"/>
<text text-anchor="middle" x="584.76" y="-2267.25" font-family="Times,serif" font-size="14.00">Electronics failure (electronic door)</text>
</g>
<!-- 45196&#45;&gt;45197 -->
<g id="edge37" class="edge">
<title>45196&#45;&gt;45197</title>
<path fill="none" stroke="black" d="M266.72,-2742.9C286.27,-2569.17 329.7,-2287.02 410.01,-2223.55 437.41,-2201.89 628.84,-2208.61 765.97,-2216.49"/>
<polygon fill="black" stroke="black" points="765.71,-2219.98 775.9,-2217.07 766.12,-2212.99 765.71,-2219.98"/>
<text text-anchor="middle" x="584.76" y="-2227.25" font-family="Times,serif" font-size="14.00">Replica key found/used</text>
</g>
<!-- 45196&#45;&gt;45197 -->
<g id="edge38" class="edge">
<title>45196&#45;&gt;45197</title>
<path fill="none" stroke="black" d="M264.86,-2743.01C282.78,-2560.88 324.89,-2256.62 410.01,-2188.55 470.67,-2140.04 682.45,-2178.91 759.51,-2188.55 763.19,-2189 766.9,-2189.53 770.64,-2190.1"/>
<polygon fill="black" stroke="black" points="769.99,-2193.54 780.42,-2191.73 771.14,-2186.63 769.99,-2193.54"/>
<text text-anchor="middle" x="584.76" y="-2192.25" font-family="Times,serif" font-size="14.00">Key viewed by prisoner</text>
</g>
<!-- 45196&#45;&gt;45197 -->
<g id="edge39" class="edge">
<title>45196&#45;&gt;45197</title>
<path fill="none" stroke="black" d="M262.8,-2742.84C278.69,-2550.4 318.87,-2218.39 410.01,-2144.55 530.71,-2046.76 609.09,-2105.79 759.51,-2144.55 768.48,-2146.86 777.49,-2149.84 786.39,-2153.29"/>
<polygon fill="black" stroke="black" points="784.79,-2156.42 795.37,-2156.98 787.45,-2149.95 784.79,-2156.42"/>
<text text-anchor="middle" x="584.76" y="-2148.25" font-family="Times,serif" font-size="14.00">Other (anything else including prisoner grabbing key chain, etc)</text>
</g>
<!-- 45197&#45;&gt;END_NODE -->
<g id="edge40" class="edge">
<title>45197&#45;&gt;END_NODE</title>
<path fill="none" stroke="#dddddd" d="M908.62,-2095.25C909.99,-1622.49 946.14,-30.05 1370.78,-30.05 1370.78,-30.05 1370.78,-30.05 5760.59,-30.05 5892.44,-30.05 5964.97,47.61 6056.76,-47.05 6090.29,-81.62 6104.84,-1625.91 6107.25,-1911.78"/>
<polygon fill="#dddddd" stroke="#dddddd" points="6103.75,-1911.45 6107.33,-1921.42 6110.75,-1911.4 6103.75,-1911.45"/>
<text text-anchor="middle" x="3514.19" y="-33.25" font-family="Times,serif" font-size="14.00">Class 1 pass key</text>
</g>
<!-- 45197&#45;&gt;END_NODE -->
<g id="edge41" class="edge">
<title>45197&#45;&gt;END_NODE</title>
<path fill="none" stroke="#dddddd" d="M923.98,-2355.96C944.65,-2512.79 987.62,-2763.13 1056.88,-2824.05 1162.32,-2916.79 1230.35,-2860.05 1370.78,-2860.05 1370.78,-2860.05 1370.78,-2860.05 2693.01,-2860.05 3135.1,-2860.05 3245.62,-2863.05 3687.71,-2863.05 3687.71,-2863.05 3687.71,-2863.05 5760.59,-2863.05 5893.36,-2863.05 5966.34,-2921.26 6056.76,-2824.05 6084.96,-2793.73 6102.22,-2176.88 6106.54,-2002.56"/>
<polygon fill="#dddddd" stroke="#dddddd" points="6110.03,-2002.86 6106.78,-1992.78 6103.04,-2002.69 6110.03,-2002.86"/>
<text text-anchor="middle" x="3514.19" y="-2865.25" font-family="Times,serif" font-size="14.00">Class 2 pass key</text>
</g>
<!-- 45197&#45;&gt;END_NODE -->
<g id="edge42" class="edge">
<title>45197&#45;&gt;END_NODE</title>
<path fill="none" stroke="#dddddd" d="M927.46,-2355.51C950.46,-2498.9 994.65,-2717.02 1056.88,-2771.05 1109.96,-2817.12 1300.49,-2810.05 1370.78,-2810.05 1370.78,-2810.05 1370.78,-2810.05 5760.59,-2810.05 5893.36,-2810.05 5966.15,-2868.09 6056.76,-2771.05 6109.37,-2714.7 6109.28,-2165.17 6108.07,-2002.31"/>
<polygon fill="#dddddd" stroke="#dddddd" points="6111.58,-2002.75 6108,-1992.77 6104.58,-2002.8 6111.58,-2002.75"/>
<text text-anchor="middle" x="3514.19" y="-2813.25" font-family="Times,serif" font-size="14.00">Cell key</text>
</g>
<!-- 45197&#45;&gt;END_NODE -->
<g id="edge43" class="edge">
<title>45197&#45;&gt;END_NODE</title>
<path fill="none" stroke="#dddddd" d="M931.52,-2355.09C956.66,-2484.51 1001.35,-2671.14 1056.88,-2718.05 1110.58,-2763.4 1300.49,-2757.05 1370.78,-2757.05 1370.78,-2757.05 1370.78,-2757.05 5760.59,-2757.05 5893.36,-2757.05 5965.94,-2814.89 6056.76,-2718.05 6105.7,-2665.86 6108.25,-2159.42 6107.86,-2002.9"/>
<polygon fill="#dddddd" stroke="#dddddd" points="6111.36,-2002.89 6107.83,-1992.9 6104.36,-2002.91 6111.36,-2002.89"/>
<text text-anchor="middle" x="3514.19" y="-2760.25" font-family="Times,serif" font-size="14.00">Class 3 A1 suite key</text>
</g>
<!-- 45197&#45;&gt;END_NODE -->
<g id="edge44" class="edge">
<title>45197&#45;&gt;END_NODE</title>
<path fill="none" stroke="#dddddd" d="M917,-2356.87C930.35,-2457.07 965.49,-2590.39 1056.88,-2665.05 1165.75,-2753.98 1230.2,-2704.05 1370.78,-2704.05 1370.78,-2704.05 1370.78,-2704.05 5760.59,-2704.05 5893.36,-2704.05 5965.7,-2761.66 6056.76,-2665.05 6102.13,-2616.91 6107.17,-2151.59 6107.62,-2002.65"/>
<polygon fill="#dddddd" stroke="#dddddd" points="6111.12,-2002.78 6107.64,-1992.78 6104.12,-2002.77 6111.12,-2002.78"/>
<text text-anchor="middle" x="3514.19" y="-2707.25" font-family="Times,serif" font-size="14.00">Class 3 accountable key</text>
</g>
<!-- 45197&#45;&gt;END_NODE -->
<g id="edge45" class="edge">
<title>45197&#45;&gt;END_NODE</title>
<path fill="none" stroke="#dddddd" d="M924.44,-2356.15C941.71,-2442.42 978.51,-2550.65 1056.88,-2612.05 1167.55,-2698.74 1230.2,-2651.05 1370.78,-2651.05 1370.78,-2651.05 1370.78,-2651.05 5760.59,-2651.05 5893.36,-2651.05 5965.42,-2708.4 6056.76,-2612.05 6098.55,-2567.96 6106.01,-2143.75 6107.33,-2002.52"/>
<polygon fill="#dddddd" stroke="#dddddd" points="6110.83,-2002.84 6107.42,-1992.81 6103.83,-2002.78 6110.83,-2002.84"/>
<text text-anchor="middle" x="3514.19" y="-2654.25" font-family="Times,serif" font-size="14.00">Handcuff key</text>
</g>
<!-- 45197&#45;&gt;END_NODE -->
<g id="edge46" class="edge">
<title>45197&#45;&gt;END_NODE</title>
<path fill="none" stroke="#dddddd" d="M933.8,-2354.7C954.38,-2426.25 991.37,-2510.42 1056.88,-2559.05 1169.77,-2642.83 1230.2,-2598.05 1370.78,-2598.05 1370.78,-2598.05 1370.78,-2598.05 5760.59,-2598.05 5893.36,-2598.05 5965.1,-2655.09 6056.76,-2559.05 6094.98,-2519 6104.75,-2135.55 6107,-2002.36"/>
<polygon fill="#dddddd" stroke="#dddddd" points="6110.5,-2002.57 6107.16,-1992.51 6103.5,-2002.45 6110.5,-2002.57"/>
<text text-anchor="middle" x="3514.19" y="-2601.25" font-family="Times,serif" font-size="14.00">Escort chain key</text>
</g>
<!-- 45197&#45;&gt;END_NODE -->
<g id="edge47" class="edge">
<title>45197&#45;&gt;END_NODE</title>
<path fill="none" stroke="#dddddd" d="M945.74,-2351.72C968.58,-2407.87 1003.97,-2469.5 1056.88,-2506.05 1172.55,-2585.95 1230.2,-2545.05 1370.78,-2545.05 1370.78,-2545.05 1370.78,-2545.05 5760.59,-2545.05 5893.36,-2545.05 5964.71,-2601.72 6056.76,-2506.05 6091.4,-2470.05 6103.36,-2127.66 6106.6,-2002.54"/>
<polygon fill="#dddddd" stroke="#dddddd" points="6110.1,-2002.73 6106.85,-1992.64 6103.1,-2002.55 6110.1,-2002.73"/>
<text text-anchor="middle" x="3514.19" y="-2548.25" font-family="Times,serif" font-size="14.00">Class 1 lock</text>
</g>
<!-- 45197&#45;&gt;END_NODE -->
<g id="edge48" class="edge">
<title>45197&#45;&gt;END_NODE</title>
<path fill="none" stroke="#dddddd" d="M961.08,-2346.05C984.51,-2386.42 1016.22,-2427.62 1056.88,-2453.05 1176.08,-2527.58 1230.2,-2492.05 1370.78,-2492.05 1370.78,-2492.05 1370.78,-2492.05 5760.59,-2492.05 5893.36,-2492.05 5964.24,-2548.27 6056.76,-2453.05 6087.85,-2421.05 6101.85,-2118.89 6106.12,-2002.47"/>
<polygon fill="#dddddd" stroke="#dddddd" points="6109.61,-2002.78 6106.47,-1992.66 6102.62,-2002.53 6109.61,-2002.78"/>
<text text-anchor="middle" x="3514.19" y="-2495.25" font-family="Times,serif" font-size="14.00">Class 2 lock</text>
</g>
<!-- 45197&#45;&gt;END_NODE -->
<g id="edge49" class="edge">
<title>45197&#45;&gt;END_NODE</title>
<path fill="none" stroke="#dddddd" d="M980.34,-2335.17C1001.94,-2360.34 1027.77,-2384.32 1056.88,-2400.05 1180.57,-2466.87 1230.2,-2439.05 1370.78,-2439.05 1370.78,-2439.05 1370.78,-2439.05 5760.59,-2439.05 5893.36,-2439.05 5963.67,-2494.7 6056.76,-2400.05 6084.3,-2372.05 6100.13,-2110.16 6105.51,-2002.71"/>
<polygon fill="#dddddd" stroke="#dddddd" points="6109.01,-2002.97 6106,-1992.81 6102.01,-2002.63 6109.01,-2002.97"/>
<text text-anchor="middle" x="3514.19" y="-2442.25" font-family="Times,serif" font-size="14.00">Cell lock</text>
</g>
<!-- 45197&#45;&gt;END_NODE -->
<g id="edge50" class="edge">
<title>45197&#45;&gt;END_NODE</title>
<path fill="none" stroke="#dddddd" d="M1003.37,-2315.84C1020.18,-2328.04 1038.29,-2339.08 1056.88,-2347.05 1186.09,-2402.44 1230.2,-2386.05 1370.78,-2386.05 1370.78,-2386.05 1370.78,-2386.05 5760.59,-2386.05 5893.36,-2386.05 5962.94,-2440.99 6056.76,-2347.05 6104.2,-2299.55 6108.77,-2094.93 6108.33,-2002.58"/>
<polygon fill="#dddddd" stroke="#dddddd" points="6111.84,-2002.59 6108.26,-1992.62 6104.84,-2002.64 6111.84,-2002.59"/>
<text text-anchor="middle" x="3514.19" y="-2389.25" font-family="Times,serif" font-size="14.00">Class 3 A1 suite lock</text>
</g>
<!-- 45197&#45;&gt;END_NODE -->
<g id="edge51" class="edge">
<title>45197&#45;&gt;END_NODE</title>
<path fill="none" stroke="#dddddd" d="M1025.64,-2283.6C1036.06,-2287.54 1046.56,-2291.11 1056.88,-2294.05 1192.08,-2332.57 1230.2,-2333.05 1370.78,-2333.05 1370.78,-2333.05 1370.78,-2333.05 5760.59,-2333.05 5893.36,-2333.05 5962,-2387.04 6056.76,-2294.05 6097.26,-2254.31 6105.62,-2084.99 6107.27,-2002.53"/>
<polygon fill="#dddddd" stroke="#dddddd" points="6110.76,-2002.83 6107.44,-1992.77 6103.76,-2002.71 6110.76,-2002.83"/>
<text text-anchor="middle" x="3514.19" y="-2336.25" font-family="Times,serif" font-size="14.00">Class 3 accountable lock</text>
</g>
<!-- 45197&#45;&gt;END_NODE -->
<g id="edge52" class="edge">
<title>45197&#45;&gt;END_NODE</title>
<path fill="none" stroke="#dddddd" d="M1037.06,-2249.1C1129.46,-2263.78 1257.42,-2280.05 1370.78,-2280.05 1370.78,-2280.05 1370.78,-2280.05 5760.59,-2280.05 5826.62,-2280.05 6008.07,-2300.65 6056.76,-2256.05 6093.16,-2222.71 6103.52,-2077.85 6106.46,-2002.69"/>
<polygon fill="#dddddd" stroke="#dddddd" points="6109.96,-2002.88 6106.82,-1992.76 6102.96,-2002.63 6109.96,-2002.88"/>
<text text-anchor="middle" x="3514.19" y="-2283.25" font-family="Times,serif" font-size="14.00">Handcuffs</text>
</g>
<!-- 45197&#45;&gt;END_NODE -->
<g id="edge53" class="edge">
<title>45197&#45;&gt;END_NODE</title>
<path fill="none" stroke="#dddddd" d="M1039.02,-2226.48C1131.52,-2226.75 1258.79,-2227.05 1370.78,-2227.05 1370.78,-2227.05 1370.78,-2227.05 3197.05,-2227.05 3626.23,-2227.05 3733.41,-2242.05 4162.58,-2242.05 4162.58,-2242.05 4162.58,-2242.05 5760.59,-2242.05 5826.62,-2242.05 6007.54,-2262.06 6056.76,-2218.05 6088.09,-2190.03 6100.58,-2069.85 6105.18,-2002.77"/>
<polygon fill="#dddddd" stroke="#dddddd" points="6108.67,-2003.01 6105.83,-1992.8 6101.69,-2002.55 6108.67,-2003.01"/>
<text text-anchor="middle" x="3514.19" y="-2237.25" font-family="Times,serif" font-size="14.00">Escort chain</text>
</g>
<!-- 45197&#45;&gt;END_NODE -->
<g id="edge54" class="edge">
<title>45197&#45;&gt;END_NODE</title>
<path fill="none" stroke="#dddddd" d="M1039.32,-2222.77C1169.1,-2219.66 1374.17,-2215.15 1551.68,-2213.05 2712.01,-2199.32 3002.18,-2204.05 4162.58,-2204.05 4162.58,-2204.05 4162.58,-2204.05 5760.59,-2204.05 5826.62,-2204.05 6006.85,-2223.27 6056.76,-2180.05 6083.14,-2157.2 6097.27,-2060.59 6103.54,-2002.28"/>
<polygon fill="#dddddd" stroke="#dddddd" points="6106.98,-2002.98 6104.53,-1992.67 6100.02,-2002.26 6106.98,-2002.98"/>
<text text-anchor="middle" x="3514.19" y="-2207.25" font-family="Times,serif" font-size="14.00">Electronic lock system</text>
</g>
<!-- 45197&#45;&gt;END_NODE -->
<g id="edge55" class="edge">
<title>45197&#45;&gt;END_NODE</title>
<path fill="none" stroke="#dddddd" d="M1038.85,-2217.06C1044.94,-2216.7 1050.98,-2216.36 1056.88,-2216.05 1124.83,-2212.41 1141.85,-2211.83 1209.88,-2210.05 2686.31,-2171.33 3055.76,-2166.05 4532.7,-2166.05 4532.7,-2166.05 4532.7,-2166.05 5760.59,-2166.05 5826.62,-2166.05 6005.91,-2184.16 6056.76,-2142.05 6078.2,-2124.29 6093.32,-2050.89 6101.23,-2002.05"/>
<polygon fill="#dddddd" stroke="#dddddd" points="6104.67,-2002.74 6102.76,-1992.32 6097.75,-2001.65 6104.67,-2002.74"/>
<text text-anchor="middle" x="3514.19" y="-2172.25" font-family="Times,serif" font-size="14.00">Magnetic keys</text>
</g>
<!-- 45197&#45;&gt;END_NODE -->
<g id="edge56" class="edge">
<title>45197&#45;&gt;END_NODE</title>
<path fill="none" stroke="#dddddd" d="M1038.01,-2208.94C1044.38,-2208.26 1050.7,-2207.62 1056.88,-2207.05 1313.14,-2183.05 1378.37,-2194.04 1635.68,-2188.05 2923.17,-2158.07 3244.86,-2128.05 4532.7,-2128.05 4532.7,-2128.05 4532.7,-2128.05 5760.59,-2128.05 5826.62,-2128.05 6004.57,-2144.49 6056.76,-2104.05 6087.69,-2080.07 6099.9,-2036.14 6104.67,-2002.52"/>
<polygon fill="#dddddd" stroke="#dddddd" points="6108.15,-2002.96 6105.89,-1992.61 6101.2,-2002.11 6108.15,-2002.96"/>
<text text-anchor="middle" x="3514.19" y="-2143.25" font-family="Times,serif" font-size="14.00">Magnetic lock</text>
</g>
<!-- 45197&#45;&gt;END_NODE -->
<g id="edge57" class="edge">
<title>45197&#45;&gt;END_NODE</title>
<path fill="none" stroke="#dddddd" d="M1035.82,-2196.26C1042.92,-2195.05 1049.98,-2193.97 1056.88,-2193.05 1124.35,-2184.03 1141.86,-2188.72 1209.88,-2186.05 2686.17,-2128.08 3055.27,-2090.05 4532.7,-2090.05 4532.7,-2090.05 4532.7,-2090.05 5760.59,-2090.05 5892.65,-2090.05 5948.33,-2141.43 6056.76,-2066.05 6078.27,-2051.09 6090.92,-2024.61 6098.21,-2001.5"/>
<polygon fill="#dddddd" stroke="#dddddd" points="6101.56,-2002.52 6100.96,-1991.94 6094.83,-2000.58 6101.56,-2002.52"/>
<text text-anchor="middle" x="3514.19" y="-2104.25" font-family="Times,serif" font-size="14.00">Cell door</text>
</g>
<!-- 45197&#45;&gt;END_NODE -->
<g id="edge58" class="edge">
<title>45197&#45;&gt;END_NODE</title>
<path fill="none" stroke="#dddddd" d="M1033.67,-2187.98C1041.49,-2186.15 1049.27,-2184.49 1056.88,-2183.05 1123.97,-2170.33 1141.75,-2173.6 1209.88,-2169.05 2764.89,-2064.98 3156.04,-2052.05 4714.54,-2052.05 4714.54,-2052.05 4714.54,-2052.05 5760.59,-2052.05 5892.65,-2052.05 5941.83,-2093.1 6056.76,-2028.05 6069.46,-2020.86 6079.8,-2009.03 6087.76,-1997.08"/>
<polygon fill="#dddddd" stroke="#dddddd" points="6090.58,-1999.19 6092.84,-1988.84 6084.62,-1995.52 6090.58,-1999.19"/>
<text text-anchor="middle" x="3514.19" y="-2064.25" font-family="Times,serif" font-size="14.00">Brent keys</text>
</g>
<!-- 45197&#45;&gt;END_NODE -->
<g id="edge59" class="edge">
<title>45197&#45;&gt;END_NODE</title>
<path fill="none" stroke="#dddddd" d="M1028.91,-2175.57C1038.29,-2172.43 1047.68,-2169.54 1056.88,-2167.05 1123.25,-2149.06 1141.49,-2151.18 1209.88,-2144.05 1554.44,-2108.11 1642.1,-2117.23 1988.1,-2100.05 3302.93,-2034.76 3632.42,-2014.05 4948.87,-2014.05 4948.87,-2014.05 4948.87,-2014.05 5760.59,-2014.05 5893.09,-2014.05 5929.05,-2015.32 6056.76,-1980.05 6060.31,-1979.06 6063.93,-1977.87 6067.51,-1976.54"/>
<polygon fill="#dddddd" stroke="#dddddd" points="6068.72,-1979.83 6076.67,-1972.83 6066.09,-1973.34 6068.72,-1979.83"/>
<text text-anchor="middle" x="3514.19" y="-2039.25" font-family="Times,serif" font-size="14.00">Other: specify</text>
</g>
<!-- 45198 -->
<g id="node5" class="node">
<title>45198</title>
<ellipse fill="none" stroke="black" cx="1371.78" cy="-1618.05" rx="161.9" ry="161.9"/>
<text text-anchor="middle" x="1371.78" y="-1613" font-family="Times,serif" font-size="14.00">Incident level: 1&#45;5. 1 high risk, 5 no risk</text>
</g>
<!-- 45197&#45;&gt;45198 -->
<g id="edge60" class="edge">
<title>45197&#45;&gt;45198</title>
<path fill="none" stroke="black" d="M911.7,-2095.13C918.96,-1876.57 947.18,-1452.13 1056.88,-1359.55 1079.8,-1340.2 1165.31,-1345.62 1191.88,-1359.55 1235.27,-1382.28 1270.23,-1420.86 1297.33,-1461.36"/>
<polygon fill="black" stroke="black" points="1294.3,-1463.12 1302.69,-1469.59 1300.16,-1459.3 1294.3,-1463.12"/>
<text text-anchor="middle" x="1124.38" y="-1363.25" font-family="Times,serif" font-size="14.00">Class 1 pass key</text>
</g>
<!-- 45197&#45;&gt;45198 -->
<g id="edge61" class="edge">
<title>45197&#45;&gt;45198</title>
<path fill="none" stroke="black" d="M910.78,-2095.14C916.58,-1869.85 942.58,-1423.6 1056.88,-1326.55 1102.61,-1287.71 1139.52,-1297.25 1191.88,-1326.55 1243.25,-1355.29 1281.66,-1405.49 1309.45,-1456.22"/>
<polygon fill="black" stroke="black" points="1306.36,-1457.85 1314.15,-1465.03 1312.53,-1454.56 1306.36,-1457.85"/>
<text text-anchor="middle" x="1124.38" y="-1330.25" font-family="Times,serif" font-size="14.00">Class 2 pass key</text>
</g>
<!-- 45197&#45;&gt;45198 -->
<g id="edge62" class="edge">
<title>45197&#45;&gt;45198</title>
<path fill="none" stroke="black" d="M909.6,-2095.01C913.4,-1860.5 936.18,-1383.85 1056.88,-1280.55 1102.46,-1241.53 1140.47,-1249.61 1191.88,-1280.55 1254.58,-1318.27 1296.47,-1386.18 1323.83,-1451.25"/>
<polygon fill="black" stroke="black" points="1320.5,-1452.33 1327.53,-1460.26 1326.97,-1449.68 1320.5,-1452.33"/>
<text text-anchor="middle" x="1124.38" y="-1284.25" font-family="Times,serif" font-size="14.00">Cell key</text>
</g>
<!-- 45197&#45;&gt;45198 -->
<g id="edge63" class="edge">
<title>45197&#45;&gt;45198</title>
<path fill="none" stroke="black" d="M976.17,-2114.52C998.43,-2085.97 1025.64,-2058.13 1056.88,-2039.55 1109.22,-2008.41 1144.57,-2054.4 1191.88,-2016.05 1208.61,-2002.48 1201.41,-1990.85 1209.88,-1971.05 1237.53,-1906.37 1269.4,-1835.72 1297.45,-1774.73"/>
<polygon fill="black" stroke="black" points="1300.46,-1776.55 1301.46,-1766.01 1294.1,-1773.63 1300.46,-1776.55"/>
<text text-anchor="middle" x="1124.38" y="-2043.25" font-family="Times,serif" font-size="14.00">Class 3 A1 suite key</text>
</g>
<!-- 45197&#45;&gt;45198 -->
<g id="edge64" class="edge">
<title>45197&#45;&gt;45198</title>
<path fill="none" stroke="black" d="M960.3,-2105.87C983.78,-2064.54 1015.72,-2022.05 1056.88,-1995.55 1107.84,-1962.72 1142.73,-2011.54 1191.88,-1976.05 1255.5,-1930.1 1297.81,-1855.01 1325.23,-1785.43"/>
<polygon fill="black" stroke="black" points="1328.46,-1786.76 1328.79,-1776.17 1321.93,-1784.25 1328.46,-1786.76"/>
<text text-anchor="middle" x="1124.38" y="-1999.25" font-family="Times,serif" font-size="14.00">Class 3 accountable key</text>
</g>
<!-- 45197&#45;&gt;45198 -->
<g id="edge65" class="edge">
<title>45197&#45;&gt;45198</title>
<path fill="none" stroke="black" d="M948.56,-2101.52C971.72,-2048.3 1006.57,-1990.5 1056.88,-1955.55 1106.66,-1920.95 1141.87,-1970.32 1191.88,-1936.05 1246.22,-1898.8 1285.94,-1839.33 1313.94,-1781.84"/>
<polygon fill="black" stroke="black" points="1317.07,-1783.41 1318.21,-1772.88 1310.75,-1780.4 1317.07,-1783.41"/>
<text text-anchor="middle" x="1124.38" y="-1959.25" font-family="Times,serif" font-size="14.00">Handcuff key</text>
</g>
<!-- 45197&#45;&gt;45198 -->
<g id="edge66" class="edge">
<title>45197&#45;&gt;45198</title>
<path fill="none" stroke="black" d="M938.97,-2098.55C960.78,-2033.68 997.29,-1959.46 1056.88,-1915.55 1105.68,-1879.58 1140.88,-1928.82 1191.88,-1896.05 1237.18,-1866.93 1273.31,-1821.81 1300.9,-1776.34"/>
<polygon fill="black" stroke="black" points="1303.79,-1778.32 1305.88,-1767.93 1297.77,-1774.75 1303.79,-1778.32"/>
<text text-anchor="middle" x="1124.38" y="-1919.25" font-family="Times,serif" font-size="14.00">Escort chain key</text>
</g>
<!-- 45197&#45;&gt;45198 -->
<g id="edge67" class="edge">
<title>45197&#45;&gt;45198</title>
<path fill="none" stroke="black" d="M930.91,-2096.94C950.65,-2020.7 987.77,-1928.93 1056.88,-1875.55 1104.85,-1838.49 1139.72,-1886.94 1191.88,-1856.05 1228.31,-1834.46 1259.75,-1802.31 1285.66,-1768.58"/>
<polygon fill="black" stroke="black" points="1288.36,-1770.81 1291.56,-1760.71 1282.76,-1766.61 1288.36,-1770.81"/>
<text text-anchor="middle" x="1124.38" y="-1879.25" font-family="Times,serif" font-size="14.00">Class 1 lock</text>
</g>
<!-- 45197&#45;&gt;45198 -->
<g id="edge68" class="edge">
<title>45197&#45;&gt;45198</title>
<path fill="none" stroke="black" d="M924.21,-2095.89C941.39,-2008.71 978.17,-1898.72 1056.88,-1835.55 1104.16,-1797.6 1138.38,-1844.56 1191.88,-1816.05 1219.76,-1801.18 1245.49,-1780.18 1268.23,-1757.37"/>
<polygon fill="black" stroke="black" points="1270.62,-1759.93 1275.09,-1750.32 1265.61,-1755.05 1270.62,-1759.93"/>
<text text-anchor="middle" x="1124.38" y="-1839.25" font-family="Times,serif" font-size="14.00">Class 2 lock</text>
</g>
<!-- 45197&#45;&gt;45198 -->
<g id="edge69" class="edge">
<title>45197&#45;&gt;45198</title>
<path fill="none" stroke="black" d="M918.54,-2095.41C932.81,-1997.71 968.43,-1868.83 1056.88,-1795.55 1103.56,-1756.87 1136.86,-1801.51 1191.88,-1776.05 1211.92,-1766.77 1231.36,-1754.52 1249.59,-1740.92"/>
<polygon fill="black" stroke="black" points="1251.43,-1743.92 1257.24,-1735.06 1247.18,-1738.36 1251.43,-1743.92"/>
<text text-anchor="middle" x="1124.38" y="-1799.25" font-family="Times,serif" font-size="14.00">Cell lock</text>
</g>
<!-- 45197&#45;&gt;45198 -->
<g id="edge70" class="edge">
<title>45197&#45;&gt;45198</title>
<path fill="none" stroke="black" d="M913.74,-2095C924.9,-1987.23 958.67,-1839.12 1056.88,-1755.55 1103.05,-1716.26 1135.21,-1757.59 1191.88,-1736.05 1204.78,-1731.14 1217.69,-1725.18 1230.35,-1718.58"/>
<polygon fill="black" stroke="black" points="1231.96,-1721.69 1239.11,-1713.87 1228.64,-1715.52 1231.96,-1721.69"/>
<text text-anchor="middle" x="1124.38" y="-1759.25" font-family="Times,serif" font-size="14.00">Class 3 A1 suite lock</text>
</g>
<!-- 45197&#45;&gt;45198 -->
<g id="edge71" class="edge">
<title>45197&#45;&gt;45198</title>
<path fill="none" stroke="black" d="M930.21,-2097.03C954.78,-1962.85 999.51,-1765.49 1056.88,-1715.55 1102.6,-1675.74 1133.57,-1712.64 1191.88,-1696.05 1199.1,-1693.99 1206.42,-1691.7 1213.76,-1689.24"/>
<polygon fill="black" stroke="black" points="1214.77,-1692.6 1223.08,-1686.02 1212.49,-1685.98 1214.77,-1692.6"/>
<text text-anchor="middle" x="1124.38" y="-1719.25" font-family="Times,serif" font-size="14.00">Class 3 accountable lock</text>
</g>
<!-- 45197&#45;&gt;45198 -->
<g id="edge72" class="edge">
<title>45197&#45;&gt;45198</title>
<path fill="none" stroke="black" d="M927.31,-2096.47C950.28,-1951.88 994.54,-1730.9 1056.88,-1675.55 1079.54,-1655.42 1162.04,-1661.36 1191.88,-1656.05 1195.28,-1655.44 1198.73,-1654.81 1202.19,-1654.17"/>
<polygon fill="black" stroke="black" points="1202.66,-1657.65 1211.85,-1652.37 1201.37,-1650.77 1202.66,-1657.65"/>
<text text-anchor="middle" x="1124.38" y="-1679.25" font-family="Times,serif" font-size="14.00">Handcuffs</text>
</g>
<!-- 45197&#45;&gt;45198 -->
<g id="edge73" class="edge">
<title>45197&#45;&gt;45198</title>
<path fill="none" stroke="black" d="M923.79,-2096.08C944.18,-1940.46 986.78,-1693.49 1056.88,-1635.55 1068.83,-1625.66 1132.06,-1621.11 1198.67,-1619.1"/>
<polygon fill="black" stroke="black" points="1198.41,-1622.6 1208.31,-1618.82 1198.21,-1615.61 1198.41,-1622.6"/>
<text text-anchor="middle" x="1124.38" y="-1639.25" font-family="Times,serif" font-size="14.00">Escort chain</text>
</g>
<!-- 45197&#45;&gt;45198 -->
<g id="edge74" class="edge">
<title>45197&#45;&gt;45198</title>
<path fill="none" stroke="black" d="M921.17,-2095.8C939.35,-1930.72 980.21,-1660.24 1056.88,-1599.55 1080,-1581.24 1139.5,-1581.68 1200.56,-1588.3"/>
<polygon fill="black" stroke="black" points="1200.14,-1591.78 1210.47,-1589.44 1200.93,-1584.82 1200.14,-1591.78"/>
<text text-anchor="middle" x="1124.38" y="-1603.25" font-family="Times,serif" font-size="14.00">Electronic lock system</text>
</g>
<!-- 45197&#45;&gt;45198 -->
<g id="edge75" class="edge">
<title>45197&#45;&gt;45198</title>
<path fill="none" stroke="black" d="M919.39,-2095.65C935.96,-1922.2 975.44,-1629.81 1056.88,-1564.55 1080.84,-1545.35 1143.1,-1552.88 1205.91,-1567.56"/>
<polygon fill="black" stroke="black" points="1204.8,-1570.89 1215.34,-1569.82 1206.44,-1564.09 1204.8,-1570.89"/>
<text text-anchor="middle" x="1124.38" y="-1568.25" font-family="Times,serif" font-size="14.00">Magnetic keys</text>
</g>
<!-- 45197&#45;&gt;45198 -->
<g id="edge76" class="edge">
<title>45197&#45;&gt;45198</title>
<path fill="none" stroke="black" d="M917.97,-2095.32C933.12,-1914.62 971.23,-1602.85 1056.88,-1533.55 1103.96,-1495.44 1166.73,-1504.14 1223.77,-1527.09"/>
<polygon fill="black" stroke="black" points="1222.38,-1530.3 1232.95,-1530.95 1225.09,-1523.85 1222.38,-1530.3"/>
<text text-anchor="middle" x="1124.38" y="-1537.25" font-family="Times,serif" font-size="14.00">Magnetic lock</text>
</g>
<!-- 45197&#45;&gt;45198 -->
<g id="edge77" class="edge">
<title>45197&#45;&gt;45198</title>
<path fill="none" stroke="black" d="M916.04,-2095.11C929.09,-1903.95 964.93,-1562.93 1056.88,-1487.55 1110.06,-1443.95 1179.86,-1467.07 1240.13,-1505.21"/>
<polygon fill="black" stroke="black" points="1238.16,-1508.1 1248.45,-1510.63 1241.98,-1502.24 1238.16,-1508.1"/>
<text text-anchor="middle" x="1124.38" y="-1491.25" font-family="Times,serif" font-size="14.00">Cell door</text>
</g>
<!-- 45197&#45;&gt;45198 -->
<g id="edge78" class="edge">
<title>45197&#45;&gt;45198</title>
<path fill="none" stroke="black" d="M914.39,-2095.25C925.41,-1894.45 958.82,-1524.83 1056.88,-1443.55 1117.06,-1393.66 1193.58,-1434.49 1256,-1489.14"/>
<polygon fill="black" stroke="black" points="1253.41,-1491.51 1263.2,-1495.57 1258.07,-1486.3 1253.41,-1491.51"/>
<text text-anchor="middle" x="1124.38" y="-1447.25" font-family="Times,serif" font-size="14.00">Brent keys</text>
</g>
<!-- 45197&#45;&gt;45198 -->
<g id="edge79" class="edge">
<title>45197&#45;&gt;45198</title>
<path fill="none" stroke="black" d="M912.96,-2094.98C922.05,-1884.91 952.91,-1487.57 1056.88,-1400.55 1102.89,-1362.04 1137.62,-1374.92 1191.88,-1400.55 1225.78,-1416.56 1255.42,-1442.49 1280.32,-1470.97"/>
<polygon fill="black" stroke="black" points="1277.42,-1472.96 1286.57,-1478.31 1282.75,-1468.43 1277.42,-1472.96"/>
<text text-anchor="middle" x="1124.38" y="-1404.25" font-family="Times,serif" font-size="14.00">Other : specify</text>
</g>
<!-- 45198&#45;&gt;END_NODE -->
<g id="edge80" class="edge">
<title>45198&#45;&gt;END_NODE</title>
<path fill="none" stroke="#dddddd" d="M1381.45,-1456.2C1407.06,-1060.28 1499.27,-75.05 1782.77,-75.05 1782.77,-75.05 1782.77,-75.05 5760.59,-75.05 5892.59,-75.05 5965.64,-1.55 6056.76,-97.05 6089.09,-130.92 6104.58,-1629.95 6107.21,-1911.67"/>
<polygon fill="#dddddd" stroke="#dddddd" points="6103.71,-1911.56 6107.3,-1921.53 6110.71,-1911.5 6103.71,-1911.56"/>
<text text-anchor="middle" x="3688.71" y="-78.25" font-family="Times,serif" font-size="14.00">Enter value:</text>
</g>
<!-- 45199 -->
<g id="node6" class="node">
<title>45199</title>
<ellipse fill="none" stroke="black" cx="1783.77" cy="-529.05" rx="148.08" ry="148.08"/>
<text text-anchor="middle" x="1783.77" y="-524" font-family="Times,serif" font-size="14.00">Has any remedial action been taken?</text>
</g>
<!-- 45198&#45;&gt;45199 -->
<g id="edge81" class="edge">
<title>45198&#45;&gt;45199</title>
<path fill="none" stroke="black" d="M1429.79,-1466.62C1508.24,-1258.25 1648.6,-885.41 1726.6,-678.22"/>
<polygon fill="black" stroke="black" points="1729.83,-679.57 1730.08,-668.98 1723.28,-677.11 1729.83,-679.57"/>
<text text-anchor="middle" x="1584.68" y="-1142.25" font-family="Times,serif" font-size="14.00">Enter value:</text>
</g>
<!-- 45199&#45;&gt;END_NODE -->
<g id="edge82" class="edge">
<title>45199&#45;&gt;END_NODE</title>
<path fill="none" stroke="#dddddd" d="M1847.44,-394.84C1904.69,-294.31 1999.86,-174.05 2127.5,-174.05 2127.5,-174.05 2127.5,-174.05 5760.59,-174.05 5892.77,-174.05 5966.24,-104.73 6056.76,-201.05 6086.94,-233.16 6104.09,-1639.38 6107.13,-1911.66"/>
<polygon fill="#dddddd" stroke="#dddddd" points="6103.63,-1911.57 6107.24,-1921.53 6110.63,-1911.49 6103.63,-1911.57"/>
<text text-anchor="middle" x="3911.33" y="-177.25" font-family="Times,serif" font-size="14.00">Yes</text>
</g>
<!-- 45199&#45;&gt;END_NODE -->
<g id="edge83" class="edge">
<title>45199&#45;&gt;END_NODE</title>
<path fill="none" stroke="#dddddd" d="M1835.27,-390.14C1868.54,-315.83 1918.88,-227.96 1988.1,-170.05 2038.47,-127.9 2061.83,-121.05 2127.5,-121.05 2127.5,-121.05 2127.5,-121.05 5760.59,-121.05 5892.81,-121.05 5966.41,-52.51 6056.76,-149.05 6087.82,-182.22 6104.3,-1634.51 6107.16,-1911.62"/>
<polygon fill="#dddddd" stroke="#dddddd" points="6103.66,-1911.35 6107.26,-1921.32 6110.66,-1911.28 6103.66,-1911.35"/>
<text text-anchor="middle" x="3911.33" y="-124.25" font-family="Times,serif" font-size="14.00">No</text>
</g>
<!-- 45200 -->
<g id="node7" class="node">
<title>45200</title>
<ellipse fill="none" stroke="black" cx="2128.5" cy="-529.05" rx="140.41" ry="140.41"/>
<text text-anchor="middle" x="2128.5" y="-524" font-family="Times,serif" font-size="14.00">Describe the remedial action taken</text>
</g>
<!-- 45199&#45;&gt;45200 -->
<g id="edge84" class="edge">
<title>45199&#45;&gt;45200</title>
<path fill="none" stroke="black" d="M1932.11,-529.05C1946.78,-529.05 1961.7,-529.05 1976.41,-529.05"/>
<polygon fill="black" stroke="black" points="1976.1,-532.55 1986.1,-529.05 1976.1,-525.55 1976.1,-532.55"/>
<text text-anchor="middle" x="1959.97" y="-532.25" font-family="Times,serif" font-size="14.00">Yes</text>
</g>
<!-- 45199&#45;&gt;45200 -->
<g id="edge85" class="edge">
<title>45199&#45;&gt;45200</title>
<path fill="none" stroke="#dddddd" d="M1930.84,-508.08C1944.1,-507.63 1957.34,-507.72 1970.1,-508.55 1972.61,-508.71 1975.15,-508.89 1977.7,-509.08"/>
<polygon fill="#dddddd" stroke="#dddddd" points="1977.22,-512.55 1987.47,-509.87 1977.78,-505.57 1977.22,-512.55"/>
<text text-anchor="middle" x="1959.97" y="-512.25" font-family="Times,serif" font-size="14.00">No</text>
</g>
<!-- 45202 -->
<g id="node8" class="node">
<title>45202</title>
<ellipse fill="none" stroke="black" cx="2861.53" cy="-726.05" rx="139.89" ry="139.89"/>
<text text-anchor="middle" x="2861.53" y="-721" font-family="Times,serif" font-size="14.00">Have the lost item (s) been found?</text>
</g>
<!-- 45199&#45;&gt;45202 -->
<g id="edge86" class="edge">
<title>45199&#45;&gt;45202</title>
<path fill="none" stroke="#dddddd" d="M1866.35,-652.37C1889.97,-678.42 1918.08,-702.44 1949.85,-717.05 2198.31,-831.31 2526.76,-795.28 2713.68,-759.88"/>
<polygon fill="#dddddd" stroke="#dddddd" points="2714.31,-763.32 2723.47,-758 2712.99,-756.45 2714.31,-763.32"/>
<text text-anchor="middle" x="2348.79" y="-798.25" font-family="Times,serif" font-size="14.00">No</text>
</g>
<!-- 45199&#45;&gt;45202 -->
<g id="edge88" class="edge">
<title>45199&#45;&gt;45202</title>
<path fill="none" stroke="black" d="M1895.01,-627.34C1923.52,-647.63 1955.44,-666.36 1988.1,-678.05 2116.75,-724.09 2496.37,-729.1 2710.04,-728.03"/>
<polygon fill="black" stroke="black" points="2709.85,-731.53 2719.83,-727.97 2709.81,-724.53 2709.85,-731.53"/>
<text text-anchor="middle" x="2348.79" y="-728.25" font-family="Times,serif" font-size="14.00">No</text>
</g>
<!-- 45208 -->
<g id="node9" class="node">
<title>45208</title>
<ellipse fill="none" stroke="black" cx="5759.59" cy="-1525.05" rx="195.17" ry="195.17"/>
<text text-anchor="middle" x="5759.59" y="-1520" font-family="Times,serif" font-size="14.00">Has the key lock incident been reported to NOU?</text>
</g>
<!-- 45199&#45;&gt;45208 -->
<g id="edge87" class="edge">
<title>45199&#45;&gt;45208</title>
<path fill="none" stroke="#dddddd" d="M1894.02,-429.85C1922.69,-409.45 1954.93,-390.9 1988.1,-380.05 2273.77,-286.58 2367.04,-376.22 2662.39,-432.05 3101.13,-514.98 3338.21,-341.88 3637.71,-673.05 3675.65,-715 3624.95,-751.57 3655.71,-799.05 3679.71,-836.09 3697.7,-838.49 3739.71,-852.05 3901.98,-904.4 4381.26,-782.34 4505.57,-899.05 4529.08,-921.12 4516.68,-1011.54 4523.57,-1043.05 4535.62,-1098.14 4524.79,-1121.51 4561.82,-1164.05 4842.97,-1486.95 5014.04,-1483.73 5431.67,-1578.05 5473.12,-1587.41 5517.88,-1586.95 5560.58,-1581.55"/>
<polygon fill="#dddddd" stroke="#dddddd" points="5561.04,-1585.02 5570.48,-1580.2 5560.1,-1578.09 5561.04,-1585.02"/>
<text text-anchor="middle" x="3688.71" y="-850.25" font-family="Times,serif" font-size="14.00">No</text>
</g>
<!-- 45200&#45;&gt;END_NODE -->
<g id="edge89" class="edge">
<title>45200&#45;&gt;END_NODE</title>
<path fill="none" stroke="#dddddd" d="M2250.03,-458.58C2330.63,-418.03 2440.58,-375.05 2544.52,-375.05 2544.52,-375.05 2544.52,-375.05 3912.33,-375.05 4188.06,-375.05 4256.97,-369.05 4532.7,-369.05 4532.7,-369.05 4532.7,-369.05 5760.59,-369.05 5894.16,-369.05 5970.19,-318.33 6056.76,-420.05 6106.3,-478.25 6107.9,-1662.2 6107.69,-1911.3"/>
<polygon fill="#dddddd" stroke="#dddddd" points="6104.19,-1911.26 6107.68,-1921.27 6111.19,-1911.27 6104.19,-1911.26"/>
<text text-anchor="middle" x="4163.58" y="-377.25" font-family="Times,serif" font-size="14.00">Complete relock</text>
</g>
<!-- 45200&#45;&gt;END_NODE -->
<g id="edge90" class="edge">
<title>45200&#45;&gt;END_NODE</title>
<path fill="none" stroke="#dddddd" d="M2229.35,-431.28C2247.47,-417.2 2266.98,-404.1 2286.91,-394.05 2391.79,-341.16 2427.06,-335.05 2544.52,-335.05 2544.52,-335.05 2544.52,-335.05 3912.33,-335.05 4188.06,-335.05 4256.97,-331.05 4532.7,-331.05 4532.7,-331.05 4532.7,-331.05 5760.59,-331.05 5892.81,-331.05 5966.23,-262.68 6056.76,-359.05 6111.31,-417.11 6108.92,-1656.49 6107.85,-1911.44"/>
<polygon fill="#dddddd" stroke="#dddddd" points="6104.35,-1911.3 6107.8,-1921.31 6111.35,-1911.33 6104.35,-1911.3"/>
<text text-anchor="middle" x="4163.58" y="-338.25" font-family="Times,serif" font-size="14.00">Partial relock</text>
</g>
<!-- 45200&#45;&gt;END_NODE -->
<g id="edge91" class="edge">
<title>45200&#45;&gt;END_NODE</title>
<path fill="none" stroke="#dddddd" d="M2206.68,-412C2229.52,-385.28 2256.63,-359.62 2286.91,-342.05 2387.57,-283.63 2428.14,-295.05 2544.52,-295.05 2544.52,-295.05 2544.52,-295.05 3912.33,-295.05 4188.05,-295.05 4256.98,-293.05 4532.7,-293.05 4532.7,-293.05 4532.7,-293.05 5760.59,-293.05 5826.48,-293.05 6010.56,-260.07 6056.76,-307.05 6085.7,-336.46 6103.73,-1648.69 6107.06,-1911.51"/>
<polygon fill="#dddddd" stroke="#dddddd" points="6103.56,-1911.4 6107.18,-1921.36 6110.56,-1911.31 6103.56,-1911.4"/>
<text text-anchor="middle" x="4163.58" y="-298.25" font-family="Times,serif" font-size="14.00">Complete replacement</text>
</g>
<!-- 45200&#45;&gt;END_NODE -->
<g id="edge92" class="edge">
<title>45200&#45;&gt;END_NODE</title>
<path fill="none" stroke="#dddddd" d="M2187.72,-401.19C2212.56,-360.35 2245.52,-319.04 2286.91,-293.05 2384.82,-231.57 2428.92,-257.05 2544.52,-257.05 2544.52,-257.05 2544.52,-257.05 3689.71,-257.05 3993.79,-257.05 4069.81,-255.05 4373.89,-255.05 4373.89,-255.05 4373.89,-255.05 5760.59,-255.05 5892.65,-255.05 5965.77,-183.33 6056.76,-279.05 6085.7,-309.49 6103.77,-1646.41 6107.07,-1911.6"/>
<polygon fill="#dddddd" stroke="#dddddd" points="6103.57,-1911.59 6107.19,-1921.55 6110.57,-1911.5 6103.57,-1911.59"/>
<text text-anchor="middle" x="4163.58" y="-259.25" font-family="Times,serif" font-size="14.00">Partial replacement</text>
</g>
<!-- 45200&#45;&gt;END_NODE -->
<g id="edge93" class="edge">
<title>45200&#45;&gt;END_NODE</title>
<path fill="none" stroke="#dddddd" d="M2173.2,-395.59C2197.92,-341.06 2234.62,-282.77 2286.91,-248.05 2382.9,-184.31 2429.31,-219.05 2544.52,-219.05 2544.52,-219.05 2544.52,-219.05 3689.71,-219.05 3993.79,-219.05 4069.8,-215.05 4373.89,-215.05 4373.89,-215.05 4373.89,-215.05 5760.59,-215.05 5826.48,-215.05 6010.59,-182.04 6056.76,-229.05 6087.12,-259.95 6104.09,-1641.37 6107.12,-1911.51"/>
<polygon fill="#dddddd" stroke="#dddddd" points="6103.62,-1911.34 6107.23,-1921.3 6110.62,-1911.26 6103.62,-1911.34"/>
<text text-anchor="middle" x="4163.58" y="-220.25" font-family="Times,serif" font-size="14.00">Forensic testing</text>
</g>
<!-- 45201 -->
<g id="node10" class="node">
<title>45201</title>
<ellipse fill="none" stroke="black" cx="2545.52" cy="-558.05" rx="116.86" ry="116.86"/>
<text text-anchor="middle" x="2545.52" y="-553" font-family="Times,serif" font-size="14.00">Estimated cost of this action</text>
</g>
<!-- 45200&#45;&gt;45201 -->
<g id="edge94" class="edge">
<title>45200&#45;&gt;45201</title>
<path fill="none" stroke="black" d="M2261.46,-575.06C2270.01,-577.03 2278.54,-578.72 2286.91,-580.05 2329.75,-586.81 2376.94,-585.34 2419.11,-580.88"/>
<polygon fill="black" stroke="black" points="2419.24,-584.39 2428.78,-579.79 2418.45,-577.43 2419.24,-584.39"/>
<text text-anchor="middle" x="2348.79" y="-588.25" font-family="Times,serif" font-size="14.00">Complete relock</text>
</g>
<!-- 45200&#45;&gt;45201 -->
<g id="edge95" class="edge">
<title>45200&#45;&gt;45201</title>
<path fill="none" stroke="black" d="M2268.85,-538.78C2316.82,-542.13 2370.26,-545.87 2417.22,-549.15"/>
<polygon fill="black" stroke="black" points="2416.96,-552.64 2427.18,-549.85 2417.45,-545.66 2416.96,-552.64"/>
<text text-anchor="middle" x="2348.79" y="-552.25" font-family="Times,serif" font-size="14.00">Partial relock</text>
</g>
<!-- 45200&#45;&gt;45201 -->
<g id="edge96" class="edge">
<title>45200&#45;&gt;45201</title>
<path fill="none" stroke="black" d="M2268.71,-515.69C2314.13,-513.77 2364.7,-514.23 2410.66,-520.55 2414.48,-521.07 2418.35,-521.68 2422.24,-522.35"/>
<polygon fill="black" stroke="black" points="2421.29,-525.73 2431.76,-524.14 2422.58,-518.85 2421.29,-525.73"/>
<text text-anchor="middle" x="2348.79" y="-524.25" font-family="Times,serif" font-size="14.00">Complete replacement</text>
</g>
<!-- 45200&#45;&gt;45201 -->
<g id="edge97" class="edge">
<title>45200&#45;&gt;45201</title>
<path fill="none" stroke="black" d="M2264.87,-493.74C2311.42,-486.53 2363.64,-483.96 2410.66,-494.55 2417.41,-496.07 2424.22,-497.97 2431.01,-500.15"/>
<polygon fill="black" stroke="black" points="2429.61,-503.37 2440.2,-503.32 2431.88,-496.76 2429.61,-503.37"/>
<text text-anchor="middle" x="2348.79" y="-498.25" font-family="Times,serif" font-size="14.00">Partial replacement</text>
</g>
<!-- 45200&#45;&gt;45201 -->
<g id="edge98" class="edge">
<title>45200&#45;&gt;45201</title>
<path fill="none" stroke="black" d="M2257.66,-473.35C2306.06,-459.52 2361.33,-452.44 2410.66,-467.55 2421.64,-470.91 2432.52,-475.51 2443.07,-480.86"/>
<polygon fill="black" stroke="black" points="2441.27,-483.87 2451.74,-485.5 2444.57,-477.7 2441.27,-483.87"/>
<text text-anchor="middle" x="2348.79" y="-471.25" font-family="Times,serif" font-size="14.00">Forensic testing</text>
</g>
<!-- 45200&#45;&gt;45201 -->
<g id="edge99" class="edge">
<title>45200&#45;&gt;45201</title>
<path fill="none" stroke="black" d="M2252.64,-594.76C2264,-598.9 2275.52,-602.44 2286.91,-605.05 2340.53,-617.31 2356.44,-614.29 2410.66,-605.05 2415.37,-604.24 2420.14,-603.29 2424.93,-602.22"/>
<polygon fill="black" stroke="black" points="2425.75,-605.62 2434.64,-599.86 2424.1,-598.82 2425.75,-605.62"/>
<text text-anchor="middle" x="2348.79" y="-617.25" font-family="Times,serif" font-size="14.00">Other</text>
</g>
<!-- 45202&#45;&gt;END_NODE -->
<g id="edge103" class="edge">
<title>45202&#45;&gt;END_NODE</title>
<path fill="none" stroke="#dddddd" d="M2977.55,-647.14C3103.27,-568.71 3313.51,-460.05 3513.19,-460.05 3513.19,-460.05 3513.19,-460.05 4164.58,-460.05 4960.25,-460.05 5166.19,-369.08 5954.76,-475.05 6001.24,-481.29 6027.51,-465.39 6056.76,-502.05 6101.75,-558.42 6106.94,-1671.13 6107.54,-1911.52"/>
<polygon fill="#dddddd" stroke="#dddddd" points="6104.04,-1911.43 6107.56,-1921.42 6111.04,-1911.41 6104.04,-1911.43"/>
<text text-anchor="middle" x="4533.7" y="-457.25" font-family="Times,serif" font-size="14.00">Yes</text>
</g>
<!-- 45202&#45;&gt;END_NODE -->
<g id="edge104" class="edge">
<title>45202&#45;&gt;END_NODE</title>
<path fill="none" stroke="#dddddd" d="M2946.71,-837.63C3097.04,-1039.87 3416.6,-1483.46 3637.71,-1887.05 3647.27,-1904.5 3640.64,-1915.04 3655.71,-1928.05 3704.98,-1970.59 3857.18,-1976.05 4948.87,-1976.05 4948.87,-1976.05 4948.87,-1976.05 5760.59,-1976.05 5892.37,-1976.05 5925.33,-1971.61 6056.76,-1962.05 6058.83,-1961.9 6060.94,-1961.73 6063.08,-1961.56"/>
<polygon fill="#dddddd" stroke="#dddddd" points="6063.38,-1965.04 6073.03,-1960.68 6062.76,-1958.07 6063.38,-1965.04"/>
<text text-anchor="middle" x="4533.7" y="-1979.25" font-family="Times,serif" font-size="14.00">No</text>
</g>
<!-- 45203 -->
<g id="node11" class="node">
<title>45203</title>
<ellipse fill="none" stroke="black" cx="3514.19" cy="-806.05" rx="123.52" ry="123.52"/>
<text text-anchor="middle" x="3514.19" y="-801" font-family="Times,serif" font-size="14.00">Has a replica key been found?</text>
</g>
<!-- 45202&#45;&gt;45203 -->
<g id="edge105" class="edge">
<title>45202&#45;&gt;45203</title>
<path fill="none" stroke="black" d="M2991.76,-777.33C3001.03,-779.92 3010.32,-782.21 3019.42,-784.05 3139.39,-808.28 3278.95,-812.34 3379.03,-811.18"/>
<polygon fill="black" stroke="black" points="3378.96,-814.68 3388.91,-811.04 3378.86,-807.68 3378.96,-814.68"/>
<text text-anchor="middle" x="3196.05" y="-815.25" font-family="Times,serif" font-size="14.00">Yes</text>
</g>
<!-- 45202&#45;&gt;45203 -->
<g id="edge106" class="edge">
<title>45202&#45;&gt;45203</title>
<path fill="none" stroke="black" d="M3000.66,-742.35C3007,-742.95 3013.28,-743.52 3019.42,-744.05 3176.1,-757.35 3217.82,-736.26 3372.67,-763.55 3376.81,-764.27 3380.99,-765.08 3385.2,-765.96"/>
<polygon fill="black" stroke="black" points="3384.39,-769.37 3394.91,-768.11 3385.9,-762.53 3384.39,-769.37"/>
<text text-anchor="middle" x="3196.05" y="-767.25" font-family="Times,serif" font-size="14.00">No</text>
</g>
<!-- 45202&#45;&gt;45203 -->
<g id="edge107" class="edge">
<title>45202&#45;&gt;45203</title>
<path fill="none" stroke="black" d="M3000.17,-705.73C3104.34,-695.03 3249.92,-690.17 3372.67,-723.55 3382,-726.08 3391.33,-729.41 3400.51,-733.27"/>
<polygon fill="black" stroke="black" points="3398.86,-736.36 3409.42,-737.23 3401.7,-729.97 3398.86,-736.36"/>
<text text-anchor="middle" x="3196.05" y="-727.25" font-family="Times,serif" font-size="14.00">N/A</text>
</g>
<!-- 45208&#45;&gt;END_NODE -->
<g id="edge161" class="edge">
<title>45208&#45;&gt;END_NODE</title>
<path fill="none" stroke="black" d="M5947.44,-1579.51C5988.95,-1599.73 6028.85,-1627.01 6056.76,-1663.55 6085.91,-1701.69 6099.53,-1838.88 6104.81,-1911.39"/>
<polygon fill="black" stroke="black" points="6101.32,-1911.63 6105.51,-1921.36 6108.3,-1911.14 6101.32,-1911.63"/>
<text text-anchor="middle" x="6014.76" y="-1667.25" font-family="Times,serif" font-size="14.00">Yes: date</text>
</g>
<!-- 45208&#45;&gt;END_NODE -->
<g id="edge162" class="edge">
<title>45208&#45;&gt;END_NODE</title>
<path fill="none" stroke="black" d="M5955.05,-1522.94C5993.19,-1531.5 6029.7,-1547.48 6056.76,-1575.55 6102.2,-1622.66 6107.87,-1821.09 6108.04,-1911.65"/>
<polygon fill="black" stroke="black" points="6104.54,-1911.39 6108.03,-1921.4 6111.54,-1911.4 6104.54,-1911.39"/>
<text text-anchor="middle" x="6014.76" y="-1579.25" font-family="Times,serif" font-size="14.00">No</text>
</g>
<!-- 45208&#45;&gt;END_NODE -->
<g id="edge163" class="edge">
<title>45208&#45;&gt;END_NODE</title>
<path fill="none" stroke="black" d="M5915.08,-1643.59C5934.12,-1656.49 5953.62,-1668.95 5972.76,-1680.05 6008.13,-1700.55 6031.05,-1685.76 6056.76,-1717.55 6080.56,-1746.96 6095.85,-1851.29 6102.96,-1912.11"/>
<polygon fill="black" stroke="black" points="6099.45,-1912.25 6104.06,-1921.79 6106.41,-1911.46 6099.45,-1912.25"/>
<text text-anchor="middle" x="6014.76" y="-1721.25" font-family="Times,serif" font-size="14.00">Incident ref no:</text>
</g>
<!-- 45201&#45;&gt;END_NODE -->
<g id="edge100" class="edge">
<title>45201&#45;&gt;END_NODE</title>
<path fill="none" stroke="#dddddd" d="M2640.86,-489.69C2700.75,-452.92 2781.61,-415.05 2860.53,-415.05 2860.53,-415.05 2860.53,-415.05 4164.58,-415.05 4719.74,-415.05 4858.55,-414.58 5413.67,-421.05 5557.04,-422.71 5974.95,-355.3 6056.76,-473.05 6098.8,-533.55 6106.31,-1669.63 6107.44,-1911.86"/>
<polygon fill="#dddddd" stroke="#dddddd" points="6103.94,-1911.54 6107.48,-1921.52 6110.94,-1911.5 6103.94,-1911.54"/>
<text text-anchor="middle" x="4374.89" y="-419.25" font-family="Times,serif" font-size="14.00"></text>
</g>
<!-- 45201&#45;&gt;45202 -->
<g id="edge101" class="edge">
<title>45201&#45;&gt;45202</title>
<path fill="none" stroke="black" d="M2657.19,-593.52C2673.08,-599.85 2688.99,-606.89 2703.64,-614.55 2715.79,-620.9 2728.08,-628.07 2740.14,-635.65"/>
<polygon fill="black" stroke="black" points="2738.18,-638.55 2748.49,-640.99 2741.95,-632.66 2738.18,-638.55"/>
<text text-anchor="middle" x="2692.01" y="-618.25" font-family="Times,serif" font-size="14.00"></text>
</g>
<!-- 45201&#45;&gt;45202 -->
<g id="edge102" class="edge">
<title>45201&#45;&gt;45202</title>
<path fill="none" stroke="black" d="M2648.4,-613.79C2659.19,-619.64 2670.01,-625.48 2680.39,-631.05 2695.61,-639.21 2711.59,-647.72 2727.47,-656.14"/>
<polygon fill="black" stroke="black" points="2725.53,-659.08 2736,-660.66 2728.81,-652.89 2725.53,-659.08"/>
<text text-anchor="middle" x="2692.01" y="-645.25" font-family="Times,serif" font-size="14.00">N/A</text>
</g>
<!-- 45203&#45;&gt;END_NODE -->
<g id="edge108" class="edge">
<title>45203&#45;&gt;END_NODE</title>
<path fill="none" stroke="#dddddd" d="M3527.16,-929.38C3554.61,-1206.66 3622.3,-1857.85 3655.71,-1892.05 3735.71,-1973.94 3795.85,-1931.05 3910.33,-1931.05 3910.33,-1931.05 3910.33,-1931.05 4534.7,-1931.05 5140.01,-1931.05 5876.17,-1950.53 6062.92,-1955.77"/>
<polygon fill="#dddddd" stroke="#dddddd" points="6062.81,-1959.26 6072.9,-1956.05 6063,-1952.27 6062.81,-1959.26"/>
<text text-anchor="middle" x="4715.54" y="-1936.25" font-family="Times,serif" font-size="14.00">Yes</text>
</g>
<!-- 45203&#45;&gt;END_NODE -->
<g id="edge109" class="edge">
<title>45203&#45;&gt;END_NODE</title>
<path fill="none" stroke="#dddddd" d="M3533.69,-928.5C3579.63,-1209.77 3709.87,-1878.05 3910.33,-1878.05 3910.33,-1878.05 3910.33,-1878.05 4534.7,-1878.05 5166.44,-1878.05 5324.6,-1895.43 5954.76,-1940.05 6000.2,-1943.26 6011.52,-1944.72 6056.76,-1950.05 6058.95,-1950.3 6061.2,-1950.58 6063.46,-1950.86"/>
<polygon fill="#dddddd" stroke="#dddddd" points="6062.94,-1954.32 6073.31,-1952.14 6063.85,-1947.38 6062.94,-1954.32"/>
<text text-anchor="middle" x="4715.54" y="-1884.25" font-family="Times,serif" font-size="14.00">No</text>
</g>
<!-- 45204 -->
<g id="node12" class="node">
<title>45204</title>
<ellipse fill="none" stroke="black" cx="3911.33" cy="-671.05" rx="171.63" ry="171.63"/>
<text text-anchor="middle" x="3911.33" y="-666" font-family="Times,serif" font-size="14.00">What action was taken to find these items?</text>
</g>
<!-- 45203&#45;&gt;45204 -->
<g id="edge110" class="edge">
<title>45203&#45;&gt;45204</title>
<path fill="none" stroke="black" d="M3627.02,-755.54C3636.66,-751.66 3646.32,-747.94 3655.71,-744.55 3680.9,-735.44 3707.81,-726.67 3734.35,-718.56"/>
<polygon fill="black" stroke="black" points="3735.28,-721.94 3743.84,-715.69 3733.25,-715.24 3735.28,-721.94"/>
<text text-anchor="middle" x="3688.71" y="-748.25" font-family="Times,serif" font-size="14.00">Yes</text>
</g>
<!-- 45203&#45;&gt;45204 -->
<g id="edge111" class="edge">
<title>45203&#45;&gt;45204</title>
<path fill="none" stroke="#dddddd" d="M3636.33,-784.54C3664.69,-778.17 3694.54,-770.35 3721.71,-761.05 3729.97,-758.22 3738.35,-755.12 3746.75,-751.84"/>
<polygon fill="#dddddd" stroke="#dddddd" points="3748.01,-755.11 3755.99,-748.14 3745.41,-748.61 3748.01,-755.11"/>
<text text-anchor="middle" x="3688.71" y="-782.25" font-family="Times,serif" font-size="14.00">No</text>
</g>
<!-- 45205 -->
<g id="node13" class="node">
<title>45205</title>
<ellipse fill="none" stroke="black" cx="4374.89" cy="-1039.05" rx="130.68" ry="130.68"/>
<text text-anchor="middle" x="4374.89" y="-1034" font-family="Times,serif" font-size="14.00">Were tools used in the incident?</text>
</g>
<!-- 45203&#45;&gt;45205 -->
<g id="edge112" class="edge">
<title>45203&#45;&gt;45205</title>
<path fill="none" stroke="black" d="M3560.42,-920.83C3582.73,-962.28 3613.99,-1004.99 3655.71,-1030.05 3833.82,-1137.03 4084.33,-1108.56 4237.53,-1075.64"/>
<polygon fill="black" stroke="black" points="4237.89,-1079.14 4246.92,-1073.59 4236.4,-1072.31 4237.89,-1079.14"/>
<text text-anchor="middle" x="3911.33" y="-1109.25" font-family="Times,serif" font-size="14.00">No</text>
</g>
<!-- 45203&#45;&gt;45205 -->
<g id="edge113" class="edge">
<title>45203&#45;&gt;45205</title>
<path fill="none" stroke="black" d="M3624.43,-862.01C3634.89,-866.67 3645.43,-871.09 3655.71,-875.05 3847.77,-948.91 3899.54,-959.89 4100.96,-1002.05 4143.6,-1010.97 4190.46,-1018.23 4233.14,-1023.88"/>
<polygon fill="black" stroke="black" points="4232.6,-1027.34 4242.97,-1025.16 4233.5,-1020.39 4232.6,-1027.34"/>
<text text-anchor="middle" x="3911.33" y="-1001.25" font-family="Times,serif" font-size="14.00">N/A</text>
</g>
<!-- 45204&#45;&gt;END_NODE -->
<g id="edge114" class="edge">
<title>45204&#45;&gt;END_NODE</title>
<path fill="none" stroke="#dddddd" d="M4082.46,-652.86C4568.21,-602.94 5934.5,-477.35 6056.76,-630.05 6097.64,-681.1 6106.01,-1684.46 6107.38,-1911.6"/>
<polygon fill="#dddddd" stroke="#dddddd" points="6103.88,-1911.55 6107.44,-1921.52 6110.88,-1911.5 6103.88,-1911.55"/>
<text text-anchor="middle" x="4949.87" y="-586.25" font-family="Times,serif" font-size="14.00">Full close down search</text>
</g>
<!-- 45204&#45;&gt;END_NODE -->
<g id="edge115" class="edge">
<title>45204&#45;&gt;END_NODE</title>
<path fill="none" stroke="#dddddd" d="M4080.2,-638.87C4087.21,-637.57 4094.15,-636.29 4100.96,-635.05 4164.54,-623.43 4180.13,-618.45 4244.21,-610.05 4384.72,-591.63 4420.6,-593.8 4561.82,-582.05 4727.36,-568.26 5956.57,-453.56 6056.76,-586.05 6097.6,-640.05 6106.02,-1680.08 6107.38,-1911.62"/>
<polygon fill="#dddddd" stroke="#dddddd" points="6103.88,-1911.46 6107.44,-1921.44 6110.88,-1911.42 6103.88,-1911.46"/>
<text text-anchor="middle" x="4949.87" y="-559.25" font-family="Times,serif" font-size="14.00">Partial search</text>
</g>
<!-- 45204&#45;&gt;END_NODE -->
<g id="edge116" class="edge">
<title>45204&#45;&gt;END_NODE</title>
<path fill="none" stroke="#dddddd" d="M4074.22,-616.25C4083.23,-613.69 4092.19,-611.27 4100.96,-609.05 4163.68,-593.13 4180.09,-591.77 4244.21,-583.05 4443.81,-555.87 5930.32,-388.24 6056.76,-545.05 6100.63,-599.44 6106.7,-1676.05 6107.5,-1911.72"/>
<polygon fill="#dddddd" stroke="#dddddd" points="6104,-1911.42 6107.53,-1921.41 6111,-1911.4 6104,-1911.42"/>
<text text-anchor="middle" x="4949.87" y="-519.25" font-family="Times,serif" font-size="14.00">Other: specify</text>
</g>
<!-- 45204&#45;&gt;45205 -->
<g id="edge117" class="edge">
<title>45204&#45;&gt;45205</title>
<path fill="none" stroke="black" d="M4051.59,-770.76C4106.84,-811.44 4170.39,-859.63 4226.21,-905.55 4240.6,-917.38 4255.48,-930.16 4270.01,-942.95"/>
<polygon fill="black" stroke="black" points="4267.57,-945.46 4277.38,-949.47 4272.21,-940.22 4267.57,-945.46"/>
<text text-anchor="middle" x="4163.58" y="-909.25" font-family="Times,serif" font-size="14.00">Full close down search</text>
</g>
<!-- 45204&#45;&gt;45205 -->
<g id="edge118" class="edge">
<title>45204&#45;&gt;45205</title>
<path fill="none" stroke="black" d="M3982.29,-827.7C4012.03,-877.82 4051.45,-928.86 4100.96,-962.05 4148,-993.58 4171.57,-970.63 4226.21,-985.55 4231.29,-986.93 4236.44,-988.41 4241.62,-989.97"/>
<polygon fill="black" stroke="black" points="4240.26,-993.21 4250.85,-992.81 4242.32,-986.52 4240.26,-993.21"/>
<text text-anchor="middle" x="4163.58" y="-989.25" font-family="Times,serif" font-size="14.00">Partial search</text>
</g>
<!-- 45204&#45;&gt;45205 -->
<g id="edge119" class="edge">
<title>45204&#45;&gt;45205</title>
<path fill="none" stroke="black" d="M3995.79,-820.92C4024.28,-859.57 4059.59,-897.23 4100.96,-922.05 4149.27,-951.03 4173.66,-921.23 4226.21,-941.55 4237.18,-945.79 4248.17,-950.94 4258.93,-956.64"/>
<polygon fill="black" stroke="black" points="4256.96,-959.55 4267.41,-961.29 4260.33,-953.41 4256.96,-959.55"/>
<text text-anchor="middle" x="4163.58" y="-945.25" font-family="Times,serif" font-size="14.00">Other: please specify</text>
</g>
<!-- 45205&#45;&gt;END_NODE -->
<g id="edge120" class="edge">
<title>45205&#45;&gt;END_NODE</title>
<path fill="none" stroke="#dddddd" d="M4382.1,-1169.85C4394.44,-1367.06 4429.53,-1726.24 4523.57,-1808.05 4587.92,-1864.02 5981.92,-1845.15 6056.76,-1886.05 6069.57,-1893.04 6079.94,-1904.82 6087.89,-1916.79"/>
<polygon fill="#dddddd" stroke="#dddddd" points="6084.74,-1918.36 6092.95,-1925.05 6090.71,-1914.7 6084.74,-1918.36"/>
<text text-anchor="middle" x="5222.09" y="-1858.25" font-family="Times,serif" font-size="14.00">Yes</text>
</g>
<!-- 45205&#45;&gt;END_NODE -->
<g id="edge121" class="edge">
<title>45205&#45;&gt;END_NODE</title>
<path fill="none" stroke="#dddddd" d="M4401.9,-1167.15C4428.36,-1273.3 4477.72,-1423.78 4561.82,-1532.05 4670.47,-1671.91 4722.13,-1697.98 4887.25,-1762.05 4947.07,-1785.26 4966.67,-1773.45 5030.5,-1780.05 5440.45,-1822.41 5545.28,-1808.37 5954.76,-1855.05 6000.29,-1860.23 6018.79,-1844.4 6056.76,-1870.05 6072.73,-1880.83 6084.37,-1898.44 6092.46,-1915"/>
<polygon fill="#dddddd" stroke="#dddddd" points="6089.1,-1916.07 6096.41,-1923.73 6095.47,-1913.18 6089.1,-1916.07"/>
<text text-anchor="middle" x="5222.09" y="-1814.25" font-family="Times,serif" font-size="14.00">No</text>
</g>
<!-- 45205&#45;&gt;45208 -->
<g id="edge124" class="edge">
<title>45205&#45;&gt;45208</title>
<path fill="none" stroke="black" d="M4402.01,-1166.91C4427.35,-1257.78 4475.14,-1375.29 4561.82,-1443.05 4871.84,-1685.38 5039.91,-1571.22 5431.67,-1608.05 5482.45,-1612.82 5496.31,-1617.5 5546.42,-1608.05 5553.59,-1606.69 5560.82,-1605.11 5568.07,-1603.33"/>
<polygon fill="black" stroke="black" points="5568.81,-1606.75 5577.62,-1600.86 5567.06,-1599.97 5568.81,-1606.75"/>
<text text-anchor="middle" x="4949.87" y="-1607.25" font-family="Times,serif" font-size="14.00">No</text>
</g>
<!-- 45206 -->
<g id="node14" class="node">
<title>45206</title>
<ellipse fill="none" stroke="black" cx="4715.54" cy="-1001.05" rx="153.71" ry="153.71"/>
<text text-anchor="middle" x="4715.54" y="-996" font-family="Times,serif" font-size="14.00">What tools/foreign objects were used?</text>
</g>
<!-- 45205&#45;&gt;45206 -->
<g id="edge122" class="edge">
<title>45205&#45;&gt;45206</title>
<path fill="none" stroke="black" d="M4501.17,-1005C4508.72,-1003.65 4516.22,-1002.47 4523.57,-1001.55 4532.19,-1000.46 4541.04,-999.59 4549.99,-998.9"/>
<polygon fill="black" stroke="black" points="4550.11,-1002.4 4559.85,-998.23 4549.64,-995.42 4550.11,-1002.4"/>
<text text-anchor="middle" x="4533.7" y="-1005.25" font-family="Times,serif" font-size="14.00">Yes</text>
</g>
<!-- 45205&#45;&gt;45206 -->
<g id="edge123" class="edge">
<title>45205&#45;&gt;45206</title>
<path fill="none" stroke="#dddddd" d="M4504.88,-1024.57C4520,-1022.87 4535.57,-1021.13 4551.08,-1019.39"/>
<polygon fill="#dddddd" stroke="#dddddd" points="4551.3,-1022.88 4560.85,-1018.29 4550.52,-1015.93 4551.3,-1022.88"/>
<text text-anchor="middle" x="4533.7" y="-1026.25" font-family="Times,serif" font-size="14.00">No</text>
</g>
<!-- 45206&#45;&gt;END_NODE -->
<g id="edge125" class="edge">
<title>45206&#45;&gt;END_NODE</title>
<path fill="none" stroke="#dddddd" d="M4847.97,-922.72C4860.95,-917.05 4874.17,-912.01 4887.25,-908.05 5114.64,-839.11 5723.51,-792.45 5954.76,-847.05 6004.09,-858.69 6029.09,-855.58 6056.76,-898.05 6084.8,-941.07 6102.6,-1714.02 6106.71,-1911.44"/>
<polygon fill="#dddddd" stroke="#dddddd" points="6103.2,-1911.37 6106.91,-1921.29 6110.2,-1911.22 6103.2,-1911.37"/>
<text text-anchor="middle" x="5489.05" y="-833.25" font-family="Times,serif" font-size="14.00">Hacksaw blade</text>
</g>
<!-- 45206&#45;&gt;END_NODE -->
<g id="edge126" class="edge">
<title>45206&#45;&gt;END_NODE</title>
<path fill="none" stroke="#dddddd" d="M4836.66,-906.15C4853.17,-895.2 4870.29,-884.83 4887.25,-876.05 4946.88,-845.18 4964.56,-840.7 5030.5,-828.05 5142.5,-806.54 5985.15,-758.29 6056.76,-847.05 6090.69,-889.09 6104.18,-1707.67 6107.02,-1911.42"/>
<polygon fill="#dddddd" stroke="#dddddd" points="6103.52,-1911.39 6107.16,-1921.34 6110.52,-1911.29 6103.52,-1911.39"/>
<text text-anchor="middle" x="5489.05" y="-803.25" font-family="Times,serif" font-size="14.00">Other blade</text>
</g>
<!-- 45206&#45;&gt;END_NODE -->
<g id="edge127" class="edge">
<title>45206&#45;&gt;END_NODE</title>
<path fill="none" stroke="#dddddd" d="M4814.01,-883.19C4836.17,-862.21 4861,-842.48 4887.25,-828.05 4944.33,-796.67 4965.93,-805.62 5030.5,-797.05 5143.55,-782.03 5982.36,-725.62 6056.76,-812.05 6093.22,-854.39 6104.85,-1704.07 6107.16,-1911.61"/>
<polygon fill="#dddddd" stroke="#dddddd" points="6103.65,-1911.49 6107.26,-1921.45 6110.65,-1911.41 6103.65,-1911.49"/>
<text text-anchor="middle" x="5489.05" y="-774.25" font-family="Times,serif" font-size="14.00">Wire cutters</text>
</g>
<!-- 45206&#45;&gt;END_NODE -->
<g id="edge128" class="edge">
<title>45206&#45;&gt;END_NODE</title>
<path fill="none" stroke="#dddddd" d="M4800.64,-872.49C4825.31,-843.39 4854.57,-815.4 4887.25,-796.05 4999.07,-729.82 5970.18,-681.13 6056.76,-778.05 6095.17,-821.04 6105.35,-1700.13 6107.25,-1911.59"/>
<polygon fill="#dddddd" stroke="#dddddd" points="6103.75,-1911.38 6107.34,-1921.35 6110.75,-1911.32 6103.75,-1911.38"/>
<text text-anchor="middle" x="5489.05" y="-731.25" font-family="Times,serif" font-size="14.00">Bolt cutters</text>
</g>
<!-- 45206&#45;&gt;END_NODE -->
<g id="edge129" class="edge">
<title>45206&#45;&gt;END_NODE</title>
<path fill="none" stroke="#dddddd" d="M4788.49,-865.37C4814.9,-826.67 4848.09,-787.8 4887.25,-761.05 4994.56,-687.73 5973.03,-642.65 6056.76,-742.05 6095.1,-787.55 6105.36,-1695.52 6107.26,-1911.32"/>
<polygon fill="#dddddd" stroke="#dddddd" points="6103.76,-1911.32 6107.34,-1921.29 6110.76,-1911.26 6103.76,-1911.32"/>
<text text-anchor="middle" x="5489.05" y="-691.25" font-family="Times,serif" font-size="14.00">Digging tool</text>
</g>
<!-- 45206&#45;&gt;END_NODE -->
<g id="edge130" class="edge">
<title>45206&#45;&gt;END_NODE</title>
<path fill="none" stroke="#dddddd" d="M4776.11,-859.35C4803.36,-809.74 4840.22,-757.8 4887.25,-723.05 4991.77,-645.81 5974.02,-604.83 6056.76,-705.05 6095.88,-752.43 6105.56,-1691.64 6107.3,-1911.35"/>
<polygon fill="#dddddd" stroke="#dddddd" points="6103.8,-1911.25 6107.37,-1921.23 6110.8,-1911.2 6103.8,-1911.25"/>
<text text-anchor="middle" x="5489.05" y="-652.25" font-family="Times,serif" font-size="14.00">Crow bar</text>
</g>
<!-- 45206&#45;&gt;END_NODE -->
<g id="edge131" class="edge">
<title>45206&#45;&gt;END_NODE</title>
<path fill="none" stroke="#dddddd" d="M4764.97,-855.19C4792.06,-794.19 4831.78,-727.52 4887.25,-684.05 4989.53,-603.88 5975.01,-567.02 6056.76,-668.05 6096.64,-717.33 6105.76,-1688 6107.34,-1911.45"/>
<polygon fill="#dddddd" stroke="#dddddd" points="6103.83,-1911.23 6107.4,-1921.2 6110.83,-1911.18 6103.83,-1911.23"/>
<text text-anchor="middle" x="5489.05" y="-613.25" font-family="Times,serif" font-size="14.00">Improvised tool</text>
</g>
<!-- 45206&#45;&gt;END_NODE -->
<g id="edge132" class="edge">
<title>45206&#45;&gt;END_NODE</title>
<path fill="none" stroke="#dddddd" d="M4731.12,-1154.17C4752.81,-1345.98 4800.64,-1658.5 4887.25,-1732.05 4986.52,-1816.34 5953.26,-1731.01 6056.76,-1810.05 6088,-1833.9 6100.16,-1878.15 6104.83,-1911.89"/>
<polygon fill="#dddddd" stroke="#dddddd" points="6101.3,-1911.86 6105.97,-1921.38 6108.25,-1911.03 6101.3,-1911.86"/>
<text text-anchor="middle" x="5489.05" y="-1777.25" font-family="Times,serif" font-size="14.00">Other: specify</text>
</g>
<!-- 45206&#45;&gt;END_NODE -->
<g id="edge133" class="edge">
<title>45206&#45;&gt;END_NODE</title>
<path fill="none" stroke="#dddddd" d="M4739,-1153.45C4766.33,-1317.05 4817.59,-1561.88 4887.25,-1624.05 5065.87,-1783.44 5717.06,-1740.56 5954.76,-1769.05 6000.2,-1774.49 6022.1,-1753.17 6056.76,-1783.05 6093.54,-1814.75 6104.46,-1871.43 6107.33,-1911.47"/>
<polygon fill="#dddddd" stroke="#dddddd" points="6103.83,-1911.5 6107.88,-1921.29 6110.81,-1911.11 6103.83,-1911.5"/>
<text text-anchor="middle" x="5489.05" y="-1755.25" font-family="Times,serif" font-size="14.00">Not known</text>
</g>
<!-- 45207 -->
<g id="node15" class="node">
<title>45207</title>
<ellipse fill="none" stroke="black" cx="5222.09" cy="-1162.05" rx="191.59" ry="191.59"/>
<text text-anchor="middle" x="5222.09" y="-1157" font-family="Times,serif" font-size="14.00">What was the source of the tools/foreign object?</text>
</g>
<!-- 45206&#45;&gt;45207 -->
<g id="edge134" class="edge">
<title>45206&#45;&gt;45207</title>
<path fill="none" stroke="black" d="M4868.79,-1017.08C4926.79,-1024.3 4985.44,-1033.28 5012.5,-1042.55 5024.41,-1046.62 5036.41,-1051.4 5048.31,-1056.65"/>
<polygon fill="black" stroke="black" points="5046.81,-1059.81 5057.36,-1060.76 5049.7,-1053.44 5046.81,-1059.81"/>
<text text-anchor="middle" x="4949.87" y="-1046.25" font-family="Times,serif" font-size="14.00">Hacksaw blade</text>
</g>
<!-- 45206&#45;&gt;45207 -->
<g id="edge135" class="edge">
<title>45206&#45;&gt;45207</title>
<path fill="none" stroke="black" d="M4868.35,-981.12C4915.61,-979.95 4967.18,-983.98 5012.5,-999.55 5032.37,-1006.37 5051.8,-1015.95 5070.32,-1027.08"/>
<polygon fill="black" stroke="black" points="5068.29,-1029.94 5078.63,-1032.24 5071.98,-1023.99 5068.29,-1029.94"/>
<text text-anchor="middle" x="4949.87" y="-1003.25" font-family="Times,serif" font-size="14.00">Other blade</text>
</g>
<!-- 45206&#45;&gt;45207 -->
<g id="edge136" class="edge">
<title>45206&#45;&gt;45207</title>
<path fill="none" stroke="black" d="M4861.74,-952.04C4910.96,-942.97 4965.38,-941.5 5012.5,-960.55 5040.25,-971.76 5066.36,-988.63 5090.1,-1007.93"/>
<polygon fill="black" stroke="black" points="5087.66,-1010.45 5097.57,-1014.18 5092.14,-1005.08 5087.66,-1010.45"/>
<text text-anchor="middle" x="4949.87" y="-964.25" font-family="Times,serif" font-size="14.00">Wire cutters</text>
</g>
<!-- 45206&#45;&gt;45207 -->
<g id="edge137" class="edge">
<title>45206&#45;&gt;45207</title>
<path fill="none" stroke="black" d="M4851.75,-929.06C4903.4,-911.14 4961.99,-902.75 5012.5,-925.55 5047.85,-941.5 5079.6,-966.74 5107.05,-994.89"/>
<polygon fill="black" stroke="black" points="5104.21,-996.98 5113.64,-1001.81 5109.28,-992.15 5104.21,-996.98"/>
<text text-anchor="middle" x="4949.87" y="-929.25" font-family="Times,serif" font-size="14.00">Bolt cutters</text>
</g>
<!-- 45206&#45;&gt;45207 -->
<g id="edge138" class="edge">
<title>45206&#45;&gt;45207</title>
<path fill="none" stroke="black" d="M4791.25,-1135.26C4816.98,-1168.8 4849.11,-1200.47 4887.25,-1219.05 4931.85,-1240.77 4983.31,-1241.98 5032.27,-1233.84"/>
<polygon fill="black" stroke="black" points="5032.62,-1237.34 5041.84,-1232.11 5031.37,-1230.45 5032.62,-1237.34"/>
<text text-anchor="middle" x="4949.87" y="-1242.25" font-family="Times,serif" font-size="14.00">Digging tool</text>
</g>
<!-- 45206&#45;&gt;45207 -->
<g id="edge139" class="edge">
<title>45206&#45;&gt;45207</title>
<path fill="none" stroke="black" d="M4808.04,-1123.72C4831.19,-1146.23 4857.91,-1166.53 4887.25,-1179.05 4912.52,-1189.82 4964.77,-1190.3 5020.58,-1186.63"/>
<polygon fill="black" stroke="black" points="5020.54,-1190.14 5030.27,-1185.95 5020.05,-1183.16 5020.54,-1190.14"/>
<text text-anchor="middle" x="4949.87" y="-1192.25" font-family="Times,serif" font-size="14.00">Crow bar</text>
</g>
<!-- 45206&#45;&gt;45207 -->
<g id="edge140" class="edge">
<title>45206&#45;&gt;45207</title>
<path fill="none" stroke="black" d="M4828.01,-1106.5C4846.66,-1119.46 4866.68,-1130.96 4887.25,-1139.05 4912.54,-1148.98 4963.93,-1154.73 5018.97,-1158.02"/>
<polygon fill="black" stroke="black" points="5018.7,-1161.51 5028.88,-1158.58 5019.09,-1154.52 5018.7,-1161.51"/>
<text text-anchor="middle" x="4949.87" y="-1161.25" font-family="Times,serif" font-size="14.00">Improvised tool</text>
</g>
<!-- 45206&#45;&gt;45207 -->
<g id="edge141" class="edge">
<title>45206&#45;&gt;45207</title>
<path fill="none" stroke="black" d="M4846.58,-1082.03C4860.01,-1088.46 4873.71,-1094.29 4887.25,-1099.05 4940.4,-1117.72 4957.07,-1108.46 5012.5,-1118.55 5015.94,-1119.17 5019.4,-1119.81 5022.9,-1120.46"/>
<polygon fill="black" stroke="black" points="5022.15,-1123.88 5032.63,-1122.29 5023.45,-1117 5022.15,-1123.88"/>
<text text-anchor="middle" x="4949.87" y="-1122.25" font-family="Times,serif" font-size="14.00">Other: please specify</text>
</g>
<!-- 45206&#45;&gt;45207 -->
<g id="edge142" class="edge">
<title>45206&#45;&gt;45207</title>
<path fill="none" stroke="black" d="M4860.85,-1052C4869.74,-1054.54 4878.59,-1056.92 4887.25,-1059.05 4941.96,-1072.49 4958.17,-1063.65 5012.5,-1078.55 5019.56,-1080.48 5026.7,-1082.58 5033.88,-1084.81"/>
<polygon fill="black" stroke="black" points="5032.76,-1088.13 5043.35,-1087.83 5034.89,-1081.46 5032.76,-1088.13"/>
<text text-anchor="middle" x="4949.87" y="-1082.25" font-family="Times,serif" font-size="14.00">Not known</text>
</g>
<!-- 45207&#45;&gt;END_NODE -->
<g id="edge143" class="edge">
<title>45207&#45;&gt;END_NODE</title>
<path fill="none" stroke="#dddddd" d="M5411.15,-1195.84C5478.76,-1208.62 5540.12,-1221.24 5546.42,-1226.05 5560.65,-1236.89 5549.74,-1251.83 5564.42,-1262.05 5707.68,-1361.7 5813.04,-1202.73 5954.76,-1304.55 6042.45,-1367.55 6027.42,-1421.13 6056.76,-1525.05 6095.49,-1662.2 6104.76,-1831.9 6106.95,-1911.63"/>
<polygon fill="#dddddd" stroke="#dddddd" points="6103.44,-1911.3 6107.19,-1921.21 6110.44,-1911.13 6103.44,-1911.3"/>
<text text-anchor="middle" x="5759.59" y="-1308.25" font-family="Times,serif" font-size="14.00">Works department</text>
</g>
<!-- 45207&#45;&gt;END_NODE -->
<g id="edge144" class="edge">
<title>45207&#45;&gt;END_NODE</title>
<path fill="none" stroke="#dddddd" d="M5413.43,-1175.44C5457.58,-1181.17 5504.04,-1189.36 5546.42,-1201.05 5554.86,-1203.37 5555.94,-1206.87 5564.42,-1209.05 5733.07,-1252.22 5791.65,-1180.72 5954.76,-1241.55 6007.36,-1261.16 6029.38,-1267.04 6056.76,-1316.05 6085.63,-1367.71 6101.57,-1773.66 6106.19,-1911.46"/>
<polygon fill="#dddddd" stroke="#dddddd" points="6102.69,-1911.42 6106.51,-1921.3 6109.68,-1911.19 6102.69,-1911.42"/>
<text text-anchor="middle" x="5759.59" y="-1245.25" font-family="Times,serif" font-size="14.00">Contractors</text>
</g>
<!-- 45207&#45;&gt;END_NODE -->
<g id="edge145" class="edge">
<title>45207&#45;&gt;END_NODE</title>
<path fill="none" stroke="#dddddd" d="M5414.11,-1158.94C5596.29,-1157.79 5856.94,-1161.36 5954.76,-1188.55 6004.69,-1202.42 6028.88,-1201.36 6056.76,-1245.05 6092.55,-1301.11 6104.08,-1763.88 6106.87,-1911.78"/>
<polygon fill="#dddddd" stroke="#dddddd" points="6103.36,-1911.64 6107.05,-1921.58 6110.36,-1911.51 6103.36,-1911.64"/>
<text text-anchor="middle" x="5759.59" y="-1192.25" font-family="Times,serif" font-size="14.00">Education</text>
</g>
<!-- 45207&#45;&gt;END_NODE -->
<g id="edge146" class="edge">
<title>45207&#45;&gt;END_NODE</title>
<path fill="none" stroke="#dddddd" d="M5412.1,-1135.54C5636.07,-1109.36 5987.71,-1086.61 6056.76,-1190.05 6096.8,-1250.01 6105.48,-1755.37 6107.21,-1911.37"/>
<polygon fill="#dddddd" stroke="#dddddd" points="6103.71,-1911.36 6107.32,-1921.32 6110.71,-1911.29 6103.71,-1911.36"/>
<text text-anchor="middle" x="5759.59" y="-1136.25" font-family="Times,serif" font-size="14.00">Heathcare centre</text>
</g>
<!-- 45207&#45;&gt;END_NODE -->
<g id="edge147" class="edge">
<title>45207&#45;&gt;END_NODE</title>
<path fill="none" stroke="#dddddd" d="M5410.12,-1123.36C5417.4,-1121.9 5424.6,-1120.45 5431.67,-1119.05 5659.95,-1073.59 5726.52,-1047.9 5954.76,-1093.55 6002.92,-1103.18 6028.27,-1096.04 6056.76,-1136.05 6101.87,-1199.37 6107.03,-1749.08 6107.57,-1911.83"/>
<polygon fill="#dddddd" stroke="#dddddd" points="6104.07,-1911.36 6107.6,-1921.35 6111.07,-1911.34 6104.07,-1911.36"/>
<text text-anchor="middle" x="5759.59" y="-1097.25" font-family="Times,serif" font-size="14.00">Farms and gardens</text>
</g>
<!-- 45207&#45;&gt;END_NODE -->
<g id="edge148" class="edge">
<title>45207&#45;&gt;END_NODE</title>
<path fill="none" stroke="#dddddd" d="M5404.21,-1101.09C5413.49,-1098.02 5422.69,-1094.99 5431.67,-1092.05 5490.54,-1072.75 5503.22,-1059.1 5564.42,-1049.55 5735.83,-1022.78 5784.79,-1014.81 5954.76,-1049.55 6003.05,-1059.41 6028.4,-1052.74 6056.76,-1093.05 6104.03,-1160.21 6107.65,-1742.81 6107.7,-1911.48"/>
<polygon fill="#dddddd" stroke="#dddddd" points="6104.2,-1911.38 6107.7,-1921.38 6111.2,-1911.38 6104.2,-1911.38"/>
<text text-anchor="middle" x="5759.59" y="-1053.25" font-family="Times,serif" font-size="14.00">Staff</text>
</g>
<!-- 45207&#45;&gt;END_NODE -->
<g id="edge149" class="edge">
<title>45207&#45;&gt;END_NODE</title>
<path fill="none" stroke="#dddddd" d="M5389.66,-1068.29C5403.72,-1061.46 5417.85,-1054.94 5431.67,-1049.05 5646.22,-957.54 5726.04,-960.8 5954.76,-1006.55 6002.92,-1016.18 6028.39,-1008.96 6056.76,-1049.05 6106.84,-1119.79 6108.42,-1737.2 6107.86,-1911.44"/>
<polygon fill="#dddddd" stroke="#dddddd" points="6104.36,-1911.21 6107.83,-1921.22 6111.36,-1911.23 6104.36,-1911.21"/>
<text text-anchor="middle" x="5759.59" y="-1010.25" font-family="Times,serif" font-size="14.00">Visitor</text>
</g>
<!-- 45207&#45;&gt;END_NODE -->
<g id="edge150" class="edge">
<title>45207&#45;&gt;END_NODE</title>
<path fill="none" stroke="#dddddd" d="M5370.88,-1040.78C5390.71,-1027.1 5411.27,-1014.13 5431.67,-1003.05 5636.82,-891.65 5727.46,-902.36 5954.76,-955.55 6004.02,-967.07 6028.94,-963.8 6056.76,-1006.05 6106.86,-1082.14 6108.39,-1732.24 6107.85,-1911.46"/>
<polygon fill="#dddddd" stroke="#dddddd" points="6104.35,-1911.29 6107.81,-1921.3 6111.35,-1911.31 6104.35,-1911.29"/>
<text text-anchor="middle" x="5759.59" y="-959.25" font-family="Times,serif" font-size="14.00">Other: specify</text>
</g>
<!-- 45207&#45;&gt;END_NODE -->
<g id="edge151" class="edge">
<title>45207&#45;&gt;END_NODE</title>
<path fill="none" stroke="#dddddd" d="M5346.97,-1016.5C5373.15,-991.13 5401.91,-966.63 5431.67,-947.05 5626.78,-818.65 5729.29,-835.59 5954.76,-896.55 6005.43,-910.24 6029.48,-911.21 6056.76,-956.05 6106.81,-1038.27 6108.33,-1726.16 6107.83,-1911.31"/>
<polygon fill="#dddddd" stroke="#dddddd" points="6104.33,-1911.24 6107.8,-1921.25 6111.33,-1911.26 6104.33,-1911.24"/>
<text text-anchor="middle" x="5759.59" y="-900.25" font-family="Times,serif" font-size="14.00">Not known</text>
</g>
<!-- 45207&#45;&gt;45208 -->
<g id="edge152" class="edge">
<title>45207&#45;&gt;45208</title>
<path fill="none" stroke="black" d="M5308.53,-1333.17C5340.78,-1382.04 5381.96,-1430.75 5431.67,-1463.05 5434.88,-1465.13 5491.33,-1476.09 5556.45,-1488.23"/>
<polygon fill="black" stroke="black" points="5555.44,-1491.6 5565.91,-1489.99 5556.72,-1484.72 5555.44,-1491.6"/>
<text text-anchor="middle" x="5489.05" y="-1489.25" font-family="Times,serif" font-size="14.00">Works department</text>
</g>
<!-- 45207&#45;&gt;45208 -->
<g id="edge153" class="edge">
<title>45207&#45;&gt;45208</title>
<path fill="none" stroke="black" d="M5323.28,-1325.04C5353.68,-1362.58 5390.19,-1398.61 5431.67,-1423.05 5476.24,-1449.31 5496.56,-1428.77 5546.42,-1442.55 5553.46,-1444.49 5560.59,-1446.58 5567.76,-1448.8"/>
<polygon fill="black" stroke="black" points="5566.25,-1451.99 5576.84,-1451.66 5568.35,-1445.31 5566.25,-1451.99"/>
<text text-anchor="middle" x="5489.05" y="-1446.25" font-family="Times,serif" font-size="14.00">Contractors</text>
</g>
<!-- 45207&#45;&gt;45208 -->
<g id="edge154" class="edge">
<title>45207&#45;&gt;45208</title>
<path fill="none" stroke="black" d="M5340.12,-1313.23C5367.46,-1340.15 5398.41,-1365.25 5431.67,-1383.05 5477.29,-1407.45 5497.76,-1385 5546.42,-1402.55 5558.61,-1406.94 5570.91,-1412.02 5583.11,-1417.57"/>
<polygon fill="black" stroke="black" points="5581.42,-1420.64 5591.96,-1421.69 5584.38,-1414.3 5581.42,-1420.64"/>
<text text-anchor="middle" x="5489.05" y="-1406.25" font-family="Times,serif" font-size="14.00">Education</text>
</g>
<!-- 45207&#45;&gt;45208 -->
<g id="edge155" class="edge">
<title>45207&#45;&gt;45208</title>
<path fill="none" stroke="black" d="M5358.11,-1297.16C5381.23,-1314.83 5406.1,-1330.96 5431.67,-1343.05 5478.44,-1365.15 5499,-1341.88 5546.42,-1362.55 5565.17,-1370.71 5583.75,-1380.89 5601.66,-1392.13"/>
<polygon fill="black" stroke="black" points="5599.38,-1394.83 5609.69,-1397.28 5603.16,-1388.94 5599.38,-1394.83"/>
<text text-anchor="middle" x="5489.05" y="-1366.25" font-family="Times,serif" font-size="14.00">Health care centre</text>
</g>
<!-- 45207&#45;&gt;45208 -->
<g id="edge156" class="edge">
<title>45207&#45;&gt;45208</title>
<path fill="none" stroke="black" d="M5376.51,-1276.08C5394.52,-1286.32 5413.11,-1295.6 5431.67,-1303.05 5479.69,-1322.3 5500.19,-1299.34 5546.42,-1322.55 5572.45,-1335.61 5597.44,-1352.94 5620.55,-1371.99"/>
<polygon fill="black" stroke="black" points="5618.25,-1374.63 5628.16,-1378.39 5622.76,-1369.27 5618.25,-1374.63"/>
<text text-anchor="middle" x="5489.05" y="-1326.25" font-family="Times,serif" font-size="14.00">Farms and gardens</text>
</g>
<!-- 45207&#45;&gt;45208 -->
<g id="edge157" class="edge">
<title>45207&#45;&gt;45208</title>
<path fill="none" stroke="black" d="M5393.09,-1249.12C5405.98,-1254.25 5418.93,-1258.97 5431.67,-1263.05 5480.94,-1278.81 5504.22,-1252.63 5546.42,-1282.55 5559.89,-1292.09 5554.75,-1301.66 5564.42,-1315.05 5579.7,-1336.18 5596.88,-1357.47 5614.54,-1377.98"/>
<polygon fill="black" stroke="black" points="5611.67,-1380.02 5620.87,-1385.27 5616.96,-1375.43 5611.67,-1380.02"/>
<text text-anchor="middle" x="5489.05" y="-1286.25" font-family="Times,serif" font-size="14.00">Staff</text>
</g>
<!-- 45207&#45;&gt;45208 -->
<g id="edge158" class="edge">
<title>45207&#45;&gt;45208</title>
<path fill="none" stroke="black" d="M5405.91,-1216.82C5414.6,-1219.01 5423.22,-1221.1 5431.67,-1223.05 5482.08,-1234.66 5508.5,-1207.36 5546.42,-1242.55 5570.76,-1265.12 5548.66,-1285.83 5564.42,-1315.05 5577.01,-1338.38 5592.8,-1361.11 5609.9,-1382.48"/>
<polygon fill="black" stroke="black" points="5607.05,-1384.53 5616.08,-1390.07 5612.47,-1380.1 5607.05,-1384.53"/>
<text text-anchor="middle" x="5489.05" y="-1246.25" font-family="Times,serif" font-size="14.00">Visitor</text>
</g>
<!-- 45207&#45;&gt;45208 -->
<g id="edge159" class="edge">
<title>45207&#45;&gt;45208</title>
<path fill="none" stroke="black" d="M5324.21,-1324.42C5354.98,-1377.16 5387.53,-1436.64 5413.67,-1493.05 5423.6,-1514.47 5412.35,-1529.46 5431.67,-1543.05 5453.16,-1558.15 5501.75,-1560 5555.07,-1556.2"/>
<polygon fill="black" stroke="black" points="5555.3,-1559.69 5565,-1555.43 5554.76,-1552.72 5555.3,-1559.69"/>
<text text-anchor="middle" x="5489.05" y="-1561.25" font-family="Times,serif" font-size="14.00">Other: please specify</text>
</g>
<!-- 45207&#45;&gt;45208 -->
<g id="edge160" class="edge">
<title>45207&#45;&gt;45208</title>
<path fill="none" stroke="black" d="M5291.31,-1340.84C5324.16,-1402.67 5370.08,-1465.75 5431.67,-1503.05 5443.64,-1510.29 5494.72,-1515.22 5553.07,-1518.54"/>
<polygon fill="black" stroke="black" points="5552.74,-1522.03 5562.92,-1519.08 5553.13,-1515.04 5552.74,-1522.03"/>
<text text-anchor="middle" x="5489.05" y="-1521.25" font-family="Times,serif" font-size="14.00">Not known</text>
</g>
</g>
</svg>
