<?xml version="1.0" encoding="UTF-8" standalone="no"?>
<!DOCTYPE svg PUBLIC "-//W3C//DTD SVG 1.1//EN"
 "http://www.w3.org/Graphics/SVG/1.1/DTD/svg11.dtd">
<!-- Generated by graphviz version 12.1.1 (20240910.0053)
 -->
<!-- Title: KEY_LOCK_INCIDENT Pages: 1 -->
<svg width="6150pt" height="3662pt"
 viewBox="0.00 0.00 6150.47 3661.57" xmlns="http://www.w3.org/2000/svg" xmlns:xlink="http://www.w3.org/1999/xlink">
<g id="graph0" class="graph" transform="scale(1 1) rotate(0) translate(4 3657.57)">
<title>KEY_LOCK_INCIDENT</title>
<polygon fill="white" stroke="none" points="-4,4 -4,-3657.57 6146.47,-3657.57 6146.47,4 -4,4"/>
<!-- START_NODE -->
<g id="node1" class="node">
<title>START_NODE</title>
</g>
<!-- 45196 -->
<g id="node2" class="node">
<title>45196</title>
<ellipse fill="none" stroke="black" cx="252.63" cy="-2874.36" rx="139.38" ry="139.38"/>
<text text-anchor="middle" x="252.63" y="-2869.31" font-family="Times,serif" font-size="14.00">Describe the nature of the incident</text>
</g>
<!-- START_NODE&#45;&gt;45196 -->
<g id="edge1" class="edge">
<title>START_NODE&#45;&gt;45196</title>
<path fill="none" stroke="black" d="M53.65,-2874.36C66.54,-2874.36 83.3,-2874.36 101.62,-2874.36"/>
<polygon fill="black" stroke="black" points="101.37,-2877.86 111.37,-2874.36 101.37,-2870.86 101.37,-2877.86"/>
<text text-anchor="middle" x="83.62" y="-2877.56" font-family="Times,serif" font-size="14.00">start</text>
</g>
<!-- END_NODE -->
<g id="node3" class="node">
<title>END_NODE</title>
<ellipse fill="none" stroke="black" cx="6108.62" cy="-1949.36" rx="29.86" ry="29.86"/>
<ellipse fill="none" stroke="black" cx="6108.62" cy="-1949.36" rx="33.86" ry="33.86"/>
<text text-anchor="middle" x="6108.62" y="-1944.31" font-family="Times,serif" font-size="14.00">END</text>
</g>
<!-- 45196&#45;&gt;END_NODE -->
<g id="edge2" class="edge">
<title>45196&#45;&gt;END_NODE</title>
<path fill="none" stroke="#dddddd" d="M264.76,-3013.67C282.68,-3198.59 324.89,-3510.25 410.01,-3582.36 578.85,-3725.39 685.92,-3608.36 907.2,-3608.36 907.2,-3608.36 907.2,-3608.36 5760.59,-3608.36 5892.73,-3608.36 5966,-3678.4 6056.76,-3582.36 6112.77,-3523.11 6109.19,-2252.57 6107.88,-1994.76"/>
<polygon fill="#dddddd" stroke="#dddddd" points="6111.39,-1995.09 6107.83,-1985.11 6104.39,-1995.13 6111.39,-1995.09"/>
<text text-anchor="middle" x="3196.05" y="-3611.56" font-family="Times,serif" font-size="14.00">Keys taken out of the establishment</text>
</g>
<!-- 45196&#45;&gt;END_NODE -->
<g id="edge3" class="edge">
<title>45196&#45;&gt;END_NODE</title>
<path fill="none" stroke="#dddddd" d="M266.77,-3013.34C286.47,-3188.72 330.19,-3475.6 410.01,-3542.36 452.45,-3577.85 851.88,-3568.36 907.2,-3568.36 907.2,-3568.36 907.2,-3568.36 5760.59,-3568.36 5826.66,-3568.36 6011.36,-3590.36 6056.76,-3542.36 6111.33,-3484.67 6108.92,-2249.02 6107.85,-1994.84"/>
<polygon fill="#dddddd" stroke="#dddddd" points="6111.35,-1994.98 6107.8,-1985 6104.35,-1995.01 6111.35,-1994.98"/>
<text text-anchor="middle" x="3196.05" y="-3571.56" font-family="Times,serif" font-size="14.00">Keys lost</text>
</g>
<!-- 45196&#45;&gt;END_NODE -->
<g id="edge4" class="edge">
<title>45196&#45;&gt;END_NODE</title>
<path fill="none" stroke="#dddddd" d="M269.01,-3012.98C290.49,-3178.54 335.46,-3440.9 410.01,-3502.36 495.38,-3572.75 796.56,-3528.36 907.2,-3528.36 907.2,-3528.36 907.2,-3528.36 5760.59,-3528.36 5826.66,-3528.36 6011.34,-3550.35 6056.76,-3502.36 6109.9,-3446.23 6108.65,-2245.37 6107.81,-1994.9"/>
<polygon fill="#dddddd" stroke="#dddddd" points="6111.31,-1995.2 6107.77,-1985.21 6104.31,-1995.22 6111.31,-1995.2"/>
<text text-anchor="middle" x="3196.05" y="-3531.56" font-family="Times,serif" font-size="14.00">Key left unattended in prison</text>
</g>
<!-- 45196&#45;&gt;END_NODE -->
<g id="edge5" class="edge">
<title>45196&#45;&gt;END_NODE</title>
<path fill="none" stroke="#dddddd" d="M271.57,-3012.8C294.82,-3168.24 340.75,-3406.17 410.01,-3462.36 495.93,-3532.07 796.56,-3488.36 907.2,-3488.36 907.2,-3488.36 907.2,-3488.36 5760.59,-3488.36 5826.66,-3488.36 6011.32,-3510.33 6056.76,-3462.36 6108.48,-3407.78 6108.37,-2241.42 6107.77,-1994.88"/>
<polygon fill="#dddddd" stroke="#dddddd" points="6111.27,-1995.02 6107.74,-1985.03 6104.27,-1995.04 6111.27,-1995.02"/>
<text text-anchor="middle" x="3196.05" y="-3491.56" font-family="Times,serif" font-size="14.00">Key issued to wrong person</text>
</g>
<!-- 45196&#45;&gt;END_NODE -->
<g id="edge6" class="edge">
<title>45196&#45;&gt;END_NODE</title>
<path fill="none" stroke="#dddddd" d="M274.43,-3012.28C299.38,-3157.27 345.97,-3371.36 410.01,-3422.36 496.56,-3491.29 796.56,-3448.36 907.2,-3448.36 907.2,-3448.36 907.2,-3448.36 5760.59,-3448.36 5826.66,-3448.36 6011.3,-3470.3 6056.76,-3422.36 6107.05,-3369.33 6108.08,-2237.36 6107.72,-1994.85"/>
<polygon fill="#dddddd" stroke="#dddddd" points="6111.22,-1995.16 6107.71,-1985.17 6104.22,-1995.17 6111.22,-1995.16"/>
<text text-anchor="middle" x="3196.05" y="-3451.56" font-family="Times,serif" font-size="14.00">Doors/gates/cell door left unlocked</text>
</g>
<!-- 45196&#45;&gt;END_NODE -->
<g id="edge7" class="edge">
<title>45196&#45;&gt;END_NODE</title>
<path fill="none" stroke="#dddddd" d="M277.74,-3011.89C304.32,-3146.07 351.2,-3336.51 410.01,-3382.36 497.27,-3450.39 796.56,-3408.36 907.2,-3408.36 907.2,-3408.36 907.2,-3408.36 5760.59,-3408.36 5826.66,-3408.36 6011.28,-3430.28 6056.76,-3382.36 6105.64,-3330.87 6107.79,-2233.01 6107.68,-1994.73"/>
<polygon fill="#dddddd" stroke="#dddddd" points="6111.18,-1994.92 6107.67,-1984.92 6104.18,-1994.92 6111.18,-1994.92"/>
<text text-anchor="middle" x="3196.05" y="-3411.56" font-family="Times,serif" font-size="14.00">Loss of handcuffs</text>
</g>
<!-- 45196&#45;&gt;END_NODE -->
<g id="edge8" class="edge">
<title>45196&#45;&gt;END_NODE</title>
<path fill="none" stroke="#dddddd" d="M259.86,-3013.81C272.79,-3121.91 309.36,-3265.8 410.01,-3342.36 498.07,-3409.34 796.56,-3368.36 907.2,-3368.36 907.2,-3368.36 907.2,-3368.36 5760.59,-3368.36 5826.66,-3368.36 6011.25,-3390.26 6056.76,-3342.36 6104.2,-3292.44 6107.48,-2229.6 6107.63,-1994.94"/>
<polygon fill="#dddddd" stroke="#dddddd" points="6111.13,-1994.98 6107.63,-1984.98 6104.13,-1994.98 6111.13,-1994.98"/>
<text text-anchor="middle" x="3196.05" y="-3371.56" font-family="Times,serif" font-size="14.00">Loss of escort chain</text>
</g>
<!-- 45196&#45;&gt;END_NODE -->
<g id="edge9" class="edge">
<title>45196&#45;&gt;END_NODE</title>
<path fill="none" stroke="#dddddd" d="M265.26,-3013.42C281.37,-3111 319.59,-3235.55 410.01,-3302.36 498.99,-3368.11 796.56,-3328.36 907.2,-3328.36 907.2,-3328.36 907.2,-3328.36 5760.59,-3328.36 5826.66,-3328.36 6011.23,-3350.24 6056.76,-3302.36 6102.79,-3253.97 6107.17,-2224.9 6107.58,-1994.75"/>
<polygon fill="#dddddd" stroke="#dddddd" points="6111.08,-1995 6107.59,-1984.99 6104.08,-1994.99 6111.08,-1995"/>
<text text-anchor="middle" x="3196.05" y="-3331.56" font-family="Times,serif" font-size="14.00">Other handcuff key/lock issues</text>
</g>
<!-- 45196&#45;&gt;END_NODE -->
<g id="edge10" class="edge">
<title>45196&#45;&gt;END_NODE</title>
<path fill="none" stroke="#dddddd" d="M271.62,-3012.85C290.66,-3099.45 329.77,-3205.08 410.01,-3262.36 500.06,-3326.64 796.56,-3288.36 907.2,-3288.36 907.2,-3288.36 907.2,-3288.36 5760.59,-3288.36 5826.66,-3288.36 6011.2,-3310.21 6056.76,-3262.36 6101.37,-3215.53 6106.85,-2220.98 6107.52,-1994.84"/>
<polygon fill="#dddddd" stroke="#dddddd" points="6111.02,-1994.97 6107.55,-1984.96 6104.02,-1994.95 6111.02,-1994.97"/>
<text text-anchor="middle" x="3196.05" y="-3291.56" font-family="Times,serif" font-size="14.00">Broken/damaged keys</text>
</g>
<!-- 45196&#45;&gt;END_NODE -->
<g id="edge11" class="edge">
<title>45196&#45;&gt;END_NODE</title>
<path fill="none" stroke="#dddddd" d="M279.1,-3011.56C300.66,-3086.79 339.78,-3174.28 410.01,-3222.36 501.3,-3284.87 796.56,-3248.36 907.2,-3248.36 907.2,-3248.36 907.2,-3248.36 5760.59,-3248.36 5826.66,-3248.36 6011.17,-3270.18 6056.76,-3222.36 6099.94,-3177.08 6106.52,-2216.88 6107.47,-1994.89"/>
<polygon fill="#dddddd" stroke="#dddddd" points="6110.97,-1995.22 6107.51,-1985.2 6103.97,-1995.19 6110.97,-1995.22"/>
<text text-anchor="middle" x="3196.05" y="-3251.56" font-family="Times,serif" font-size="14.00">Worn locks (not malicious)</text>
</g>
<!-- 45196&#45;&gt;END_NODE -->
<g id="edge12" class="edge">
<title>45196&#45;&gt;END_NODE</title>
<path fill="none" stroke="#dddddd" d="M288.07,-3009.56C311.55,-3073 349.69,-3143.13 410.01,-3182.36 502.76,-3242.68 796.56,-3208.36 907.2,-3208.36 907.2,-3208.36 907.2,-3208.36 5760.59,-3208.36 5826.66,-3208.36 6011.14,-3230.15 6056.76,-3182.36 6098.53,-3138.62 6106.18,-2212.43 6107.41,-1994.84"/>
<polygon fill="#dddddd" stroke="#dddddd" points="6110.9,-1995.09 6107.46,-1985.07 6103.9,-1995.05 6110.9,-1995.09"/>
<text text-anchor="middle" x="3196.05" y="-3211.56" font-family="Times,serif" font-size="14.00">Malicious damage to/blockage of locks</text>
</g>
<!-- 45196&#45;&gt;END_NODE -->
<g id="edge13" class="edge">
<title>45196&#45;&gt;END_NODE</title>
<path fill="none" stroke="#dddddd" d="M298.84,-3006.35C323.43,-3057.7 359.42,-3111.52 410.01,-3142.36 504.48,-3199.95 796.56,-3168.36 907.2,-3168.36 907.2,-3168.36 907.2,-3168.36 5760.59,-3168.36 5826.66,-3168.36 6011.11,-3190.12 6056.76,-3142.36 6097.1,-3100.18 6105.82,-2208.68 6107.34,-1995.07"/>
<polygon fill="#dddddd" stroke="#dddddd" points="6110.84,-1995.22 6107.41,-1985.2 6103.84,-1995.18 6110.84,-1995.22"/>
<text text-anchor="middle" x="3196.05" y="-3171.56" font-family="Times,serif" font-size="14.00">Lock picked</text>
</g>
<!-- 45196&#45;&gt;END_NODE -->
<g id="edge14" class="edge">
<title>45196&#45;&gt;END_NODE</title>
<path fill="none" stroke="#dddddd" d="M311.73,-3001.12C336.28,-3040.36 368.88,-3079.3 410.01,-3102.36 506.52,-3156.46 796.56,-3128.36 907.2,-3128.36 907.2,-3128.36 907.2,-3128.36 5760.59,-3128.36 5826.62,-3128.36 6010.94,-3151.91 6056.76,-3104.36 6095.9,-3063.76 6105.51,-2204.13 6107.28,-1994.95"/>
<polygon fill="#dddddd" stroke="#dddddd" points="6110.78,-1995.05 6107.36,-1985.02 6103.78,-1995 6110.78,-1995.05"/>
<text text-anchor="middle" x="3196.05" y="-3131.56" font-family="Times,serif" font-size="14.00">Part of lock removed</text>
</g>
<!-- 45196&#45;&gt;END_NODE -->
<g id="edge15" class="edge">
<title>45196&#45;&gt;END_NODE</title>
<path fill="none" stroke="#dddddd" d="M326.97,-2992.8C350.01,-3020.35 377.94,-3046.29 410.01,-3062.36 508.92,-3111.94 796.56,-3088.36 907.2,-3088.36 907.2,-3088.36 907.2,-3088.36 2862.53,-3088.36 3229.28,-3088.36 3320.96,-3090.36 3687.71,-3090.36 3687.71,-3090.36 3687.71,-3090.36 5760.59,-3090.36 5826.62,-3090.36 6010.9,-3113.87 6056.76,-3066.36 6094.54,-3027.23 6105.15,-2200.21 6107.21,-1995.09"/>
<polygon fill="#dddddd" stroke="#dddddd" points="6110.71,-1995.13 6107.3,-1985.1 6103.71,-1995.06 6110.71,-1995.13"/>
<text text-anchor="middle" x="3196.05" y="-3092.94" font-family="Times,serif" font-size="14.00">Complete lock removed</text>
</g>
<!-- 45196&#45;&gt;END_NODE -->
<g id="edge16" class="edge">
<title>45196&#45;&gt;END_NODE</title>
<path fill="none" stroke="#dddddd" d="M344.11,-2979.64C364.02,-2996.76 386.31,-3012.2 410.01,-3022.36 511.7,-3065.96 796.56,-3048.36 907.2,-3048.36 907.2,-3048.36 907.2,-3048.36 2862.53,-3048.36 3229.28,-3048.36 3320.96,-3052.36 3687.71,-3052.36 3687.71,-3052.36 3687.71,-3052.36 5760.59,-3052.36 5826.62,-3052.36 6010.87,-3075.84 6056.76,-3028.36 6093.21,-2990.67 6104.79,-2195.17 6107.13,-1994.84"/>
<polygon fill="#dddddd" stroke="#dddddd" points="6110.63,-1995.14 6107.24,-1985.1 6103.63,-1995.06 6110.63,-1995.14"/>
<text text-anchor="middle" x="3196.05" y="-3054.32" font-family="Times,serif" font-size="14.00">Electronics overcome (electronic door)</text>
</g>
<!-- 45196&#45;&gt;END_NODE -->
<g id="edge17" class="edge">
<title>45196&#45;&gt;END_NODE</title>
<path fill="none" stroke="#dddddd" d="M362.78,-2960.52C377.99,-2969.24 393.93,-2976.89 410.01,-2982.36 514.74,-3018.04 796.56,-3008.36 907.2,-3008.36 907.2,-3008.36 907.2,-3008.36 2862.53,-3008.36 3229.29,-3008.36 3320.95,-3014.36 3687.71,-3014.36 3687.71,-3014.36 3687.71,-3014.36 5760.59,-3014.36 5826.62,-3014.36 6010.82,-3037.8 6056.76,-2990.36 6091.86,-2954.12 6104.41,-2190.64 6107.05,-1994.81"/>
<polygon fill="#dddddd" stroke="#dddddd" points="6110.55,-1995.09 6107.18,-1985.05 6103.55,-1995 6110.55,-1995.09"/>
<text text-anchor="middle" x="3196.05" y="-3015.7" font-family="Times,serif" font-size="14.00">Electronics failure (electronic door)</text>
</g>
<!-- 45196&#45;&gt;END_NODE -->
<g id="edge18" class="edge">
<title>45196&#45;&gt;END_NODE</title>
<path fill="none" stroke="#dddddd" d="M379.06,-2933.44C389.38,-2936.91 399.78,-2939.96 410.01,-2942.36 625.4,-2993.07 685.92,-2968.36 907.2,-2968.36 907.2,-2968.36 907.2,-2968.36 2862.53,-2968.36 3229.29,-2968.36 3320.94,-2976.36 3687.71,-2976.36 3687.71,-2976.36 3687.71,-2976.36 5760.59,-2976.36 5826.62,-2976.36 6010.78,-2999.76 6056.76,-2952.36 6090.52,-2917.57 6104.01,-2185.8 6106.97,-1994.69"/>
<polygon fill="#dddddd" stroke="#dddddd" points="6110.46,-1994.98 6107.11,-1984.92 6103.46,-1994.87 6110.46,-1994.98"/>
<text text-anchor="middle" x="3196.05" y="-2977.07" font-family="Times,serif" font-size="14.00">Replica key found/used</text>
</g>
<!-- 45196&#45;&gt;END_NODE -->
<g id="edge19" class="edge">
<title>45196&#45;&gt;END_NODE</title>
<path fill="none" stroke="#dddddd" d="M389.49,-2901.62C396.42,-2902.64 403.29,-2903.56 410.01,-2904.36 629.68,-2930.6 685.97,-2928.36 907.2,-2928.36 907.2,-2928.36 907.2,-2928.36 2862.53,-2928.36 3229.3,-2928.36 3320.94,-2938.36 3687.71,-2938.36 3687.71,-2938.36 3687.71,-2938.36 5760.59,-2938.36 5826.62,-2938.36 6010.73,-2961.71 6056.76,-2914.36 6089.18,-2881.02 6103.59,-2181.42 6106.87,-1994.79"/>
<polygon fill="#dddddd" stroke="#dddddd" points="6110.37,-1995.07 6107.04,-1985.01 6103.37,-1994.95 6110.37,-1995.07"/>
<text text-anchor="middle" x="3196.05" y="-2938.45" font-family="Times,serif" font-size="14.00">Key viewed by prisoner</text>
</g>
<!-- 45196&#45;&gt;END_NODE -->
<g id="edge20" class="edge">
<title>45196&#45;&gt;END_NODE</title>
<path fill="none" stroke="#dddddd" d="M392.26,-2879.73C524.54,-2884.38 729.43,-2890.36 907.2,-2890.36 907.2,-2890.36 907.2,-2890.36 2693.01,-2890.36 3135.12,-2890.36 3245.6,-2900.36 3687.71,-2900.36 3687.71,-2900.36 3687.71,-2900.36 5760.59,-2900.36 5893.67,-2900.36 5967.06,-2954.67 6056.76,-2856.36 6086.07,-2824.25 6102.62,-2174.3 6106.65,-1994.89"/>
<polygon fill="#dddddd" stroke="#dddddd" points="6110.14,-1995.11 6106.87,-1985.03 6103.15,-1994.95 6110.14,-1995.11"/>
<text text-anchor="middle" x="3196.05" y="-2901.54" font-family="Times,serif" font-size="14.00">Other: (anything else including prisoner grabbing key chain, etc)</text>
</g>
<!-- 45197 -->
<g id="node4" class="node">
<title>45197</title>
<ellipse fill="none" stroke="black" cx="908.2" cy="-2218.36" rx="130.68" ry="130.68"/>
<text text-anchor="middle" x="908.2" y="-2213.31" font-family="Times,serif" font-size="14.00">Describe the type of key or lock</text>
</g>
<!-- 45196&#45;&gt;45197 -->
<g id="edge21" class="edge">
<title>45196&#45;&gt;45197</title>
<path fill="none" stroke="black" d="M391.76,-2861.37C397.93,-2860.85 404.04,-2860.34 410.01,-2859.86 448.81,-2856.76 729.79,-2861.49 759.51,-2836.36 831.22,-2775.76 872.86,-2522.54 892.72,-2359.63"/>
<polygon fill="black" stroke="black" points="896.15,-2360.4 893.87,-2350.05 889.2,-2359.56 896.15,-2360.4"/>
<text text-anchor="middle" x="584.76" y="-2863.06" font-family="Times,serif" font-size="14.00">Keys taken out of the establishment</text>
</g>
<!-- 45196&#45;&gt;45197 -->
<g id="edge22" class="edge">
<title>45196&#45;&gt;45197</title>
<path fill="none" stroke="black" d="M382.44,-2822.75C391.68,-2820.11 400.94,-2817.77 410.01,-2815.86 448.08,-2807.88 729.47,-2821.07 759.51,-2796.36 826.29,-2741.45 868.78,-2512.35 890.26,-2359.6"/>
<polygon fill="black" stroke="black" points="893.71,-2360.16 891.62,-2349.78 886.78,-2359.2 893.71,-2360.16"/>
<text text-anchor="middle" x="584.76" y="-2819.06" font-family="Times,serif" font-size="14.00">Keys lost</text>
</g>
<!-- 45196&#45;&gt;45197 -->
<g id="edge23" class="edge">
<title>45196&#45;&gt;45197</title>
<path fill="none" stroke="black" d="M366.97,-2794C380.98,-2786.8 395.5,-2780.5 410.01,-2775.86 447.07,-2764.04 729.26,-2780.8 759.51,-2756.36 821.11,-2706.62 864.27,-2500.99 887.41,-2358.87"/>
<polygon fill="black" stroke="black" points="890.8,-2359.81 888.94,-2349.39 883.89,-2358.7 890.8,-2359.81"/>
<text text-anchor="middle" x="584.76" y="-2779.06" font-family="Times,serif" font-size="14.00">Key left unattended in prison</text>
</g>
<!-- 45196&#45;&gt;45197 -->
<g id="edge24" class="edge">
<title>45196&#45;&gt;45197</title>
<path fill="none" stroke="black" d="M348.48,-2773.09C367.4,-2758.18 388.21,-2744.83 410.01,-2735.86 445.98,-2721.07 729.01,-2740.49 759.51,-2716.36 815.89,-2671.78 859.31,-2489.66 884.06,-2358.55"/>
<polygon fill="black" stroke="black" points="887.43,-2359.58 885.83,-2349.1 880.55,-2358.29 887.43,-2359.58"/>
<text text-anchor="middle" x="584.76" y="-2739.06" font-family="Times,serif" font-size="14.00">Key issued to wrong person</text>
</g>
<!-- 45196&#45;&gt;45197 -->
<g id="edge25" class="edge">
<title>45196&#45;&gt;45197</title>
<path fill="none" stroke="black" d="M330.9,-2758.67C353.35,-2733.73 380.02,-2710.49 410.01,-2695.86 479.94,-2661.78 697.94,-2723.89 759.51,-2676.36 855.31,-2602.43 889.98,-2465.53 902.03,-2360.6"/>
<polygon fill="black" stroke="black" points="905.5,-2361.08 903.1,-2350.76 898.54,-2360.33 905.5,-2361.08"/>
<text text-anchor="middle" x="584.76" y="-2699.06" font-family="Times,serif" font-size="14.00">Doors/gates/cell door left unlocked</text>
</g>
<!-- 45196&#45;&gt;45197 -->
<g id="edge26" class="edge">
<title>45196&#45;&gt;45197</title>
<path fill="none" stroke="black" d="M315.12,-2749.42C339.47,-2713 371.08,-2677.27 410.01,-2655.86 478.18,-2618.39 697.28,-2683.03 759.51,-2636.36 845.16,-2572.13 881.34,-2454.3 896.51,-2360.07"/>
<polygon fill="black" stroke="black" points="899.97,-2360.62 898.03,-2350.2 893.05,-2359.55 899.97,-2360.62"/>
<text text-anchor="middle" x="584.76" y="-2659.06" font-family="Times,serif" font-size="14.00">Loss of handcuffs</text>
</g>
<!-- 45196&#45;&gt;45197 -->
<g id="edge27" class="edge">
<title>45196&#45;&gt;45197</title>
<path fill="none" stroke="black" d="M301.66,-2743.65C326.37,-2695.15 361.69,-2644.91 410.01,-2615.86 476.68,-2575.79 696.52,-2642.01 759.51,-2596.36 835,-2541.67 871.91,-2442.54 889.95,-2359.52"/>
<polygon fill="black" stroke="black" points="893.34,-2360.42 891.96,-2349.92 886.48,-2358.99 893.34,-2360.42"/>
<text text-anchor="middle" x="584.76" y="-2619.06" font-family="Times,serif" font-size="14.00">Loss of escort chain</text>
</g>
<!-- 45196&#45;&gt;45197 -->
<g id="edge28" class="edge">
<title>45196&#45;&gt;45197</title>
<path fill="none" stroke="black" d="M290.52,-2739.85C314.37,-2679.29 352.09,-2613.15 410.01,-2575.86 475.42,-2533.76 695.64,-2600.75 759.51,-2556.36 825.04,-2510.83 861.77,-2429.55 882.2,-2358.1"/>
<polygon fill="black" stroke="black" points="885.53,-2359.21 884.82,-2348.64 878.78,-2357.35 885.53,-2359.21"/>
<text text-anchor="middle" x="584.76" y="-2579.06" font-family="Times,serif" font-size="14.00">Other handcuff key/lock issues</text>
</g>
<!-- 45196&#45;&gt;45197 -->
<g id="edge29" class="edge">
<title>45196&#45;&gt;45197</title>
<path fill="none" stroke="black" d="M281.2,-2737.47C303.31,-2665.09 342.28,-2581.89 410.01,-2535.86 474.35,-2492.14 694.59,-2559.2 759.51,-2516.36 815.1,-2479.69 850.57,-2415.59 872.78,-2356.2"/>
<polygon fill="black" stroke="black" points="876,-2357.58 876.12,-2346.99 869.42,-2355.2 876,-2357.58"/>
<text text-anchor="middle" x="584.76" y="-2539.06" font-family="Times,serif" font-size="14.00">Broken/damaged keys</text>
</g>
<!-- 45196&#45;&gt;45197 -->
<g id="edge30" class="edge">
<title>45196&#45;&gt;45197</title>
<path fill="none" stroke="black" d="M273.29,-2736.46C292.98,-2652.51 332.18,-2551.12 410.01,-2495.86 473.44,-2450.83 693.33,-2517.24 759.51,-2476.36 805.33,-2448.06 838.33,-2399.97 861.36,-2352.92"/>
<polygon fill="black" stroke="black" points="864.49,-2354.49 865.61,-2343.96 858.16,-2351.49 864.49,-2354.49"/>
<text text-anchor="middle" x="584.76" y="-2499.06" font-family="Times,serif" font-size="14.00">Worn locks (not malicious)</text>
</g>
<!-- 45196&#45;&gt;45197 -->
<g id="edge31" class="edge">
<title>45196&#45;&gt;45197</title>
<path fill="none" stroke="black" d="M266.76,-2735.37C283.64,-2640.42 322.17,-2520.52 410.01,-2455.86 472.66,-2409.76 691.84,-2474.72 759.51,-2436.36 796.02,-2415.68 825.34,-2381.79 847.93,-2346.84"/>
<polygon fill="black" stroke="black" points="850.66,-2349.06 853.02,-2338.73 844.73,-2345.34 850.66,-2349.06"/>
<text text-anchor="middle" x="584.76" y="-2459.06" font-family="Times,serif" font-size="14.00">Malicious damage to/blockage of locks</text>
</g>
<!-- 45196&#45;&gt;45197 -->
<g id="edge32" class="edge">
<title>45196&#45;&gt;45197</title>
<path fill="none" stroke="black" d="M261.18,-2734.8C274.95,-2629.24 312.01,-2490.2 410.01,-2415.86 471.99,-2368.86 690.06,-2431.38 759.51,-2396.36 786.82,-2382.6 810.94,-2361.27 831.37,-2338.1"/>
<polygon fill="black" stroke="black" points="833.91,-2340.52 837.74,-2330.65 828.59,-2335.97 833.91,-2340.52"/>
<text text-anchor="middle" x="584.76" y="-2419.06" font-family="Times,serif" font-size="14.00">Lock picked</text>
</g>
<!-- 45196&#45;&gt;45197 -->
<g id="edge33" class="edge">
<title>45196&#45;&gt;45197</title>
<path fill="none" stroke="black" d="M278.64,-2736.97C305.61,-2605.45 352.52,-2420.6 410.01,-2375.86 440.71,-2351.98 723.75,-2371.64 759.51,-2356.36 778.48,-2348.27 796.51,-2336.62 813.05,-2323.47"/>
<polygon fill="black" stroke="black" points="814.89,-2326.49 820.39,-2317.43 810.45,-2321.08 814.89,-2326.49"/>
<text text-anchor="middle" x="584.76" y="-2379.06" font-family="Times,serif" font-size="14.00">Part of lock removed</text>
</g>
<!-- 45196&#45;&gt;45197 -->
<g id="edge34" class="edge">
<title>45196&#45;&gt;45197</title>
<path fill="none" stroke="black" d="M275.21,-2736.59C300.58,-2594.16 347.3,-2385.75 410.01,-2335.86 440.45,-2311.65 722.61,-2328.63 759.51,-2316.36 770.92,-2312.58 782.28,-2307.66 793.34,-2302.06"/>
<polygon fill="black" stroke="black" points="794.87,-2305.21 802.07,-2297.43 791.6,-2299.02 794.87,-2305.21"/>
<text text-anchor="middle" x="584.76" y="-2339.06" font-family="Times,serif" font-size="14.00">Complete lock removed</text>
</g>
<!-- 45196&#45;&gt;45197 -->
<g id="edge35" class="edge">
<title>45196&#45;&gt;45197</title>
<path fill="none" stroke="black" d="M272.25,-2736.14C295.93,-2583.19 342.08,-2350.94 410.01,-2295.86 440.23,-2271.37 721.52,-2284.66 759.51,-2276.36 765.09,-2275.15 770.73,-2273.75 776.39,-2272.2"/>
<polygon fill="black" stroke="black" points="777.19,-2275.61 785.83,-2269.48 775.25,-2268.89 777.19,-2275.61"/>
<text text-anchor="middle" x="584.76" y="-2299.06" font-family="Times,serif" font-size="14.00">Electronics overcome (electronic door)</text>
</g>
<!-- 45196&#45;&gt;45197 -->
<g id="edge36" class="edge">
<title>45196&#45;&gt;45197</title>
<path fill="none" stroke="black" d="M269.64,-2735.72C291.59,-2572.58 336.84,-2316.19 410.01,-2255.86 440.03,-2231.12 720.77,-2239.8 759.51,-2236.36 762.02,-2236.14 764.55,-2235.91 767.1,-2235.67"/>
<polygon fill="black" stroke="black" points="767.26,-2239.17 776.87,-2234.72 766.58,-2232.21 767.26,-2239.17"/>
<text text-anchor="middle" x="584.76" y="-2259.06" font-family="Times,serif" font-size="14.00">Electronics failure (electronic door)</text>
</g>
<!-- 45196&#45;&gt;45197 -->
<g id="edge37" class="edge">
<title>45196&#45;&gt;45197</title>
<path fill="none" stroke="black" d="M266.72,-2735.22C286.27,-2561.49 329.7,-2279.34 410.01,-2215.86 437.41,-2194.21 628.84,-2200.93 765.97,-2208.81"/>
<polygon fill="black" stroke="black" points="765.71,-2212.3 775.9,-2209.39 766.12,-2205.31 765.71,-2212.3"/>
<text text-anchor="middle" x="584.76" y="-2219.06" font-family="Times,serif" font-size="14.00">Replica key found/used</text>
</g>
<!-- 45196&#45;&gt;45197 -->
<g id="edge38" class="edge">
<title>45196&#45;&gt;45197</title>
<path fill="none" stroke="black" d="M264.86,-2735.33C282.78,-2553.2 324.89,-2248.93 410.01,-2180.86 470.67,-2132.36 682.45,-2171.23 759.51,-2180.86 763.19,-2181.32 766.9,-2181.85 770.64,-2182.42"/>
<polygon fill="black" stroke="black" points="769.99,-2185.86 780.42,-2184.05 771.14,-2178.95 769.99,-2185.86"/>
<text text-anchor="middle" x="584.76" y="-2184.06" font-family="Times,serif" font-size="14.00">Key viewed by prisoner</text>
</g>
<!-- 45196&#45;&gt;45197 -->
<g id="edge39" class="edge">
<title>45196&#45;&gt;45197</title>
<path fill="none" stroke="black" d="M262.8,-2735.16C278.69,-2542.72 318.87,-2210.71 410.01,-2136.86 530.71,-2039.08 609.09,-2098.11 759.51,-2136.86 768.48,-2139.18 777.49,-2142.16 786.39,-2145.61"/>
<polygon fill="black" stroke="black" points="784.79,-2148.74 795.37,-2149.3 787.45,-2142.27 784.79,-2148.74"/>
<text text-anchor="middle" x="584.76" y="-2140.06" font-family="Times,serif" font-size="14.00">Other (anything else including prisoner grabbing key chain, etc)</text>
</g>
<!-- 45197&#45;&gt;END_NODE -->
<g id="edge40" class="edge">
<title>45197&#45;&gt;END_NODE</title>
<path fill="none" stroke="#dddddd" d="M908.62,-2087.57C909.99,-1614.81 946.14,-22.36 1370.78,-22.36 1370.78,-22.36 1370.78,-22.36 5760.59,-22.36 5892.94,-22.36 5966.87,43.77 6056.76,-53.36 6089.21,-88.43 6104.63,-1619.17 6107.22,-1904"/>
<polygon fill="#dddddd" stroke="#dddddd" points="6103.72,-1903.64 6107.31,-1913.61 6110.72,-1903.57 6103.72,-1903.64"/>
<text text-anchor="middle" x="3514.19" y="-25.56" font-family="Times,serif" font-size="14.00">Class 1 pass key</text>
</g>
<!-- 45197&#45;&gt;END_NODE -->
<g id="edge41" class="edge">
<title>45197&#45;&gt;END_NODE</title>
<path fill="none" stroke="#dddddd" d="M923.98,-2348.28C944.65,-2505.11 987.62,-2755.45 1056.88,-2816.36 1162.32,-2909.11 1230.35,-2852.36 1370.78,-2852.36 1370.78,-2852.36 1370.78,-2852.36 2693.01,-2852.36 3135.1,-2852.36 3245.62,-2855.36 3687.71,-2855.36 3687.71,-2855.36 3687.71,-2855.36 5760.59,-2855.36 5893.36,-2855.36 5966.34,-2913.58 6056.76,-2816.36 6084.96,-2786.05 6102.22,-2169.2 6106.54,-1994.88"/>
<polygon fill="#dddddd" stroke="#dddddd" points="6110.03,-1995.18 6106.78,-1985.1 6103.04,-1995.01 6110.03,-1995.18"/>
<text text-anchor="middle" x="3514.19" y="-2858.55" font-family="Times,serif" font-size="14.00">Class 2 pass key</text>
</g>
<!-- 45197&#45;&gt;END_NODE -->
<g id="edge42" class="edge">
<title>45197&#45;&gt;END_NODE</title>
<path fill="none" stroke="#dddddd" d="M927.46,-2347.83C950.46,-2491.22 994.65,-2709.34 1056.88,-2763.36 1109.96,-2809.44 1300.49,-2802.36 1370.78,-2802.36 1370.78,-2802.36 1370.78,-2802.36 5760.59,-2802.36 5893.36,-2802.36 5966.15,-2860.41 6056.76,-2763.36 6109.37,-2707.02 6109.28,-2157.48 6108.07,-1994.63"/>
<polygon fill="#dddddd" stroke="#dddddd" points="6111.58,-1995.06 6108,-1985.09 6104.58,-1995.12 6111.58,-1995.06"/>
<text text-anchor="middle" x="3514.19" y="-2805.56" font-family="Times,serif" font-size="14.00">Cell key</text>
</g>
<!-- 45197&#45;&gt;END_NODE -->
<g id="edge43" class="edge">
<title>45197&#45;&gt;END_NODE</title>
<path fill="none" stroke="#dddddd" d="M931.52,-2347.41C956.66,-2476.83 1001.35,-2663.46 1056.88,-2710.36 1110.58,-2755.72 1300.49,-2749.36 1370.78,-2749.36 1370.78,-2749.36 1370.78,-2749.36 5760.59,-2749.36 5893.36,-2749.36 5965.94,-2807.21 6056.76,-2710.36 6105.7,-2658.18 6108.25,-2151.74 6107.86,-1995.22"/>
<polygon fill="#dddddd" stroke="#dddddd" points="6111.36,-1995.21 6107.83,-1985.22 6104.36,-1995.23 6111.36,-1995.21"/>
<text text-anchor="middle" x="3514.19" y="-2752.56" font-family="Times,serif" font-size="14.00">Class 3 A1 suite key</text>
</g>
<!-- 45197&#45;&gt;END_NODE -->
<g id="edge44" class="edge">
<title>45197&#45;&gt;END_NODE</title>
<path fill="none" stroke="#dddddd" d="M917,-2349.19C930.35,-2449.39 965.49,-2582.71 1056.88,-2657.36 1165.75,-2746.3 1230.2,-2696.36 1370.78,-2696.36 1370.78,-2696.36 1370.78,-2696.36 5760.59,-2696.36 5893.36,-2696.36 5965.7,-2753.98 6056.76,-2657.36 6102.13,-2609.23 6107.17,-2143.91 6107.62,-1994.97"/>
<polygon fill="#dddddd" stroke="#dddddd" points="6111.12,-1995.1 6107.64,-1985.09 6104.12,-1995.09 6111.12,-1995.1"/>
<text text-anchor="middle" x="3514.19" y="-2699.56" font-family="Times,serif" font-size="14.00">Class 3 accountable key</text>
</g>
<!-- 45197&#45;&gt;END_NODE -->
<g id="edge45" class="edge">
<title>45197&#45;&gt;END_NODE</title>
<path fill="none" stroke="#dddddd" d="M924.44,-2348.47C941.71,-2434.74 978.51,-2542.97 1056.88,-2604.36 1167.55,-2691.06 1230.2,-2643.36 1370.78,-2643.36 1370.78,-2643.36 1370.78,-2643.36 5760.59,-2643.36 5893.36,-2643.36 5965.42,-2700.72 6056.76,-2604.36 6098.55,-2560.28 6106.01,-2136.07 6107.33,-1994.84"/>
<polygon fill="#dddddd" stroke="#dddddd" points="6110.83,-1995.16 6107.42,-1985.13 6103.83,-1995.1 6110.83,-1995.16"/>
<text text-anchor="middle" x="3514.19" y="-2646.56" font-family="Times,serif" font-size="14.00">Handcuff key</text>
</g>
<!-- 45197&#45;&gt;END_NODE -->
<g id="edge46" class="edge">
<title>45197&#45;&gt;END_NODE</title>
<path fill="none" stroke="#dddddd" d="M933.8,-2347.01C954.38,-2418.57 991.37,-2502.74 1056.88,-2551.36 1169.77,-2635.15 1230.2,-2590.36 1370.78,-2590.36 1370.78,-2590.36 1370.78,-2590.36 5760.59,-2590.36 5893.36,-2590.36 5965.1,-2647.41 6056.76,-2551.36 6094.98,-2511.32 6104.75,-2127.87 6107,-1994.68"/>
<polygon fill="#dddddd" stroke="#dddddd" points="6110.5,-1994.89 6107.16,-1984.83 6103.5,-1994.77 6110.5,-1994.89"/>
<text text-anchor="middle" x="3514.19" y="-2593.56" font-family="Times,serif" font-size="14.00">Escort chain key</text>
</g>
<!-- 45197&#45;&gt;END_NODE -->
<g id="edge47" class="edge">
<title>45197&#45;&gt;END_NODE</title>
<path fill="none" stroke="#dddddd" d="M945.74,-2344.04C968.58,-2400.19 1003.97,-2461.82 1056.88,-2498.36 1172.55,-2578.27 1230.2,-2537.36 1370.78,-2537.36 1370.78,-2537.36 1370.78,-2537.36 5760.59,-2537.36 5893.36,-2537.36 5964.71,-2594.04 6056.76,-2498.36 6091.4,-2462.36 6103.36,-2119.98 6106.6,-1994.86"/>
<polygon fill="#dddddd" stroke="#dddddd" points="6110.1,-1995.05 6106.85,-1984.96 6103.1,-1994.87 6110.1,-1995.05"/>
<text text-anchor="middle" x="3514.19" y="-2540.56" font-family="Times,serif" font-size="14.00">Class 1 lock</text>
</g>
<!-- 45197&#45;&gt;END_NODE -->
<g id="edge48" class="edge">
<title>45197&#45;&gt;END_NODE</title>
<path fill="none" stroke="#dddddd" d="M961.08,-2338.37C984.51,-2378.74 1016.22,-2419.94 1056.88,-2445.36 1176.08,-2519.9 1230.2,-2484.36 1370.78,-2484.36 1370.78,-2484.36 1370.78,-2484.36 5760.59,-2484.36 5893.36,-2484.36 5964.24,-2540.59 6056.76,-2445.36 6087.85,-2413.37 6101.85,-2111.21 6106.12,-1994.79"/>
<polygon fill="#dddddd" stroke="#dddddd" points="6109.61,-1995.1 6106.47,-1984.98 6102.62,-1994.85 6109.61,-1995.1"/>
<text text-anchor="middle" x="3514.19" y="-2487.56" font-family="Times,serif" font-size="14.00">Class 2 lock</text>
</g>
<!-- 45197&#45;&gt;END_NODE -->
<g id="edge49" class="edge">
<title>45197&#45;&gt;END_NODE</title>
<path fill="none" stroke="#dddddd" d="M980.34,-2327.49C1001.94,-2352.66 1027.77,-2376.64 1056.88,-2392.36 1180.57,-2459.19 1230.2,-2431.36 1370.78,-2431.36 1370.78,-2431.36 1370.78,-2431.36 5760.59,-2431.36 5893.36,-2431.36 5963.67,-2487.02 6056.76,-2392.36 6084.3,-2364.37 6100.13,-2102.48 6105.51,-1995.03"/>
<polygon fill="#dddddd" stroke="#dddddd" points="6109.01,-1995.29 6106,-1985.13 6102.01,-1994.95 6109.01,-1995.29"/>
<text text-anchor="middle" x="3514.19" y="-2434.56" font-family="Times,serif" font-size="14.00">Cell lock</text>
</g>
<!-- 45197&#45;&gt;END_NODE -->
<g id="edge50" class="edge">
<title>45197&#45;&gt;END_NODE</title>
<path fill="none" stroke="#dddddd" d="M1003.37,-2308.16C1020.18,-2320.36 1038.29,-2331.4 1056.88,-2339.36 1186.09,-2394.76 1230.2,-2378.36 1370.78,-2378.36 1370.78,-2378.36 1370.78,-2378.36 5760.59,-2378.36 5893.36,-2378.36 5962.94,-2433.3 6056.76,-2339.36 6104.2,-2291.87 6108.77,-2087.25 6108.33,-1994.9"/>
<polygon fill="#dddddd" stroke="#dddddd" points="6111.84,-1994.91 6108.26,-1984.94 6104.84,-1994.96 6111.84,-1994.91"/>
<text text-anchor="middle" x="3514.19" y="-2381.56" font-family="Times,serif" font-size="14.00">Class 3 A1 suite lock</text>
</g>
<!-- 45197&#45;&gt;END_NODE -->
<g id="edge51" class="edge">
<title>45197&#45;&gt;END_NODE</title>
<path fill="none" stroke="#dddddd" d="M1025.64,-2275.92C1036.06,-2279.86 1046.56,-2283.43 1056.88,-2286.36 1192.08,-2324.89 1230.2,-2325.36 1370.78,-2325.36 1370.78,-2325.36 1370.78,-2325.36 5760.59,-2325.36 5893.36,-2325.36 5962,-2379.36 6056.76,-2286.36 6097.26,-2246.63 6105.62,-2077.31 6107.27,-1994.85"/>
<polygon fill="#dddddd" stroke="#dddddd" points="6110.76,-1995.15 6107.44,-1985.09 6103.76,-1995.03 6110.76,-1995.15"/>
<text text-anchor="middle" x="3514.19" y="-2328.56" font-family="Times,serif" font-size="14.00">Class 3 accountable lock</text>
</g>
<!-- 45197&#45;&gt;END_NODE -->
<g id="edge52" class="edge">
<title>45197&#45;&gt;END_NODE</title>
<path fill="none" stroke="#dddddd" d="M1037.06,-2241.42C1129.46,-2256.1 1257.42,-2272.36 1370.78,-2272.36 1370.78,-2272.36 1370.78,-2272.36 5760.59,-2272.36 5826.62,-2272.36 6008.07,-2292.97 6056.76,-2248.36 6093.16,-2215.03 6103.52,-2070.17 6106.46,-1995"/>
<polygon fill="#dddddd" stroke="#dddddd" points="6109.96,-1995.2 6106.82,-1985.08 6102.96,-1994.95 6109.96,-1995.2"/>
<text text-anchor="middle" x="3514.19" y="-2275.56" font-family="Times,serif" font-size="14.00">Handcuffs</text>
</g>
<!-- 45197&#45;&gt;END_NODE -->
<g id="edge53" class="edge">
<title>45197&#45;&gt;END_NODE</title>
<path fill="none" stroke="#dddddd" d="M1039.02,-2218.8C1131.52,-2219.07 1258.79,-2219.36 1370.78,-2219.36 1370.78,-2219.36 1370.78,-2219.36 3197.05,-2219.36 3975.67,-2219.36 4170.26,-2234.36 4948.87,-2234.36 4948.87,-2234.36 4948.87,-2234.36 5760.59,-2234.36 5826.62,-2234.36 6007.54,-2254.38 6056.76,-2210.36 6088.09,-2182.35 6100.58,-2062.17 6105.18,-1995.09"/>
<polygon fill="#dddddd" stroke="#dddddd" points="6108.67,-1995.33 6105.83,-1985.12 6101.69,-1994.87 6108.67,-1995.33"/>
<text text-anchor="middle" x="3514.19" y="-2224.39" font-family="Times,serif" font-size="14.00">Escort chain</text>
</g>
<!-- 45197&#45;&gt;END_NODE -->
<g id="edge54" class="edge">
<title>45197&#45;&gt;END_NODE</title>
<path fill="none" stroke="#dddddd" d="M1039.32,-2215.09C1169.1,-2211.98 1374.17,-2207.47 1551.68,-2205.36 3061.44,-2187.44 3439.01,-2196.36 4948.87,-2196.36 4948.87,-2196.36 4948.87,-2196.36 5760.59,-2196.36 5826.62,-2196.36 6006.85,-2215.59 6056.76,-2172.36 6083.14,-2149.52 6097.27,-2052.91 6103.54,-1994.6"/>
<polygon fill="#dddddd" stroke="#dddddd" points="6106.98,-1995.3 6104.53,-1984.99 6100.02,-1994.58 6106.98,-1995.3"/>
<text text-anchor="middle" x="3514.19" y="-2197.73" font-family="Times,serif" font-size="14.00">Electronic lock system</text>
</g>
<!-- 45197&#45;&gt;END_NODE -->
<g id="edge55" class="edge">
<title>45197&#45;&gt;END_NODE</title>
<path fill="none" stroke="#dddddd" d="M1038.84,-2208.45C1044.94,-2208.06 1050.97,-2207.7 1056.88,-2207.36 1124.82,-2203.5 1141.85,-2203.13 1209.88,-2201.36 2871.21,-2158.32 3286.99,-2158.36 4948.87,-2158.36 4948.87,-2158.36 4948.87,-2158.36 5760.59,-2158.36 5826.62,-2158.36 6005.91,-2176.48 6056.76,-2134.36 6078.2,-2116.61 6093.32,-2043.21 6101.23,-1994.37"/>
<polygon fill="#dddddd" stroke="#dddddd" points="6104.67,-1995.06 6102.76,-1984.64 6097.75,-1993.97 6104.67,-1995.06"/>
<text text-anchor="middle" x="3514.19" y="-2164.3" font-family="Times,serif" font-size="14.00">Magnetic keys</text>
</g>
<!-- 45197&#45;&gt;END_NODE -->
<g id="edge56" class="edge">
<title>45197&#45;&gt;END_NODE</title>
<path fill="none" stroke="#dddddd" d="M1037.99,-2199.36C1044.37,-2198.64 1050.69,-2197.97 1056.88,-2197.36 1210.8,-2182.43 1606.73,-2180.04 1635.68,-2179.36 3108.05,-2145.09 3476.11,-2120.36 4948.87,-2120.36 4948.87,-2120.36 4948.87,-2120.36 5760.59,-2120.36 5826.62,-2120.36 6004.57,-2136.81 6056.76,-2096.36 6087.69,-2072.39 6099.9,-2028.46 6104.67,-1994.84"/>
<polygon fill="#dddddd" stroke="#dddddd" points="6108.15,-1995.28 6105.89,-1984.93 6101.2,-1994.43 6108.15,-1995.28"/>
<text text-anchor="middle" x="3514.19" y="-2138.02" font-family="Times,serif" font-size="14.00">Magnetic lock</text>
</g>
<!-- 45197&#45;&gt;END_NODE -->
<g id="edge57" class="edge">
<title>45197&#45;&gt;END_NODE</title>
<path fill="none" stroke="#dddddd" d="M1035.84,-2188.68C1042.93,-2187.45 1049.98,-2186.33 1056.88,-2185.36 1124.34,-2175.91 1141.83,-2179.4 1209.88,-2176.36 2870.52,-2102.22 3286.57,-2082.36 4948.87,-2082.36 4948.87,-2082.36 4948.87,-2082.36 5760.59,-2082.36 5892.65,-2082.36 5948.33,-2133.75 6056.76,-2058.36 6078.27,-2043.41 6090.92,-2016.93 6098.21,-1993.82"/>
<polygon fill="#dddddd" stroke="#dddddd" points="6101.56,-1994.84 6100.96,-1984.26 6094.83,-1992.9 6101.56,-1994.84"/>
<text text-anchor="middle" x="3514.19" y="-2097.3" font-family="Times,serif" font-size="14.00">Cell door</text>
</g>
<!-- 45197&#45;&gt;END_NODE -->
<g id="edge58" class="edge">
<title>45197&#45;&gt;END_NODE</title>
<path fill="none" stroke="#dddddd" d="M1032.83,-2178.75C1040.93,-2176.76 1048.99,-2174.94 1056.88,-2173.36 1196.41,-2145.55 1570.36,-2143.06 1635.68,-2140.36 3107.58,-2079.69 3475.73,-2044.36 4948.87,-2044.36 4948.87,-2044.36 4948.87,-2044.36 5760.59,-2044.36 5892.65,-2044.36 5941.83,-2085.42 6056.76,-2020.36 6069.46,-2013.18 6079.8,-2001.35 6087.76,-1989.4"/>
<polygon fill="#dddddd" stroke="#dddddd" points="6090.58,-1991.51 6092.84,-1981.16 6084.62,-1987.84 6090.58,-1991.51"/>
<text text-anchor="middle" x="3514.19" y="-2069.39" font-family="Times,serif" font-size="14.00">Brent keys</text>
</g>
<!-- 45197&#45;&gt;END_NODE -->
<g id="edge59" class="edge">
<title>45197&#45;&gt;END_NODE</title>
<path fill="none" stroke="#dddddd" d="M1026.91,-2162.67C1036.91,-2159.13 1046.99,-2155.96 1056.88,-2153.36 1122.97,-2136.05 1141.73,-2143.26 1209.88,-2138.36 2868.42,-2019.31 3286.06,-2006.36 4948.87,-2006.36 4948.87,-2006.36 4948.87,-2006.36 5760.59,-2006.36 5893.14,-2006.36 5928.77,-2005.82 6056.76,-1971.36 6060.25,-1970.43 6063.8,-1969.29 6067.33,-1968.04"/>
<polygon fill="#dddddd" stroke="#dddddd" points="6068.28,-1971.42 6076.34,-1964.54 6065.75,-1964.9 6068.28,-1971.42"/>
<text text-anchor="middle" x="3514.19" y="-2021.74" font-family="Times,serif" font-size="14.00">Other: specify</text>
</g>
<!-- 45198 -->
<g id="node5" class="node">
<title>45198</title>
<ellipse fill="none" stroke="black" cx="1371.78" cy="-1609.36" rx="161.9" ry="161.9"/>
<text text-anchor="middle" x="1371.78" y="-1604.31" font-family="Times,serif" font-size="14.00">Incident level: 1&#45;5. 1 high risk, 5 no risk</text>
</g>
<!-- 45197&#45;&gt;45198 -->
<g id="edge60" class="edge">
<title>45197&#45;&gt;45198</title>
<path fill="none" stroke="black" d="M911.68,-2087.3C918.9,-1868.49 947.07,-1443.56 1056.88,-1350.86 1079.8,-1331.51 1165.31,-1336.94 1191.88,-1350.86 1235.27,-1373.6 1270.23,-1412.18 1297.33,-1452.68"/>
<polygon fill="black" stroke="black" points="1294.3,-1454.44 1302.69,-1460.91 1300.16,-1450.62 1294.3,-1454.44"/>
<text text-anchor="middle" x="1124.38" y="-1354.06" font-family="Times,serif" font-size="14.00">Class 1 pass key</text>
</g>
<!-- 45197&#45;&gt;45198 -->
<g id="edge61" class="edge">
<title>45197&#45;&gt;45198</title>
<path fill="none" stroke="black" d="M910.75,-2087.31C916.52,-1861.78 942.47,-1415.04 1056.88,-1317.86 1102.61,-1279.02 1139.52,-1288.57 1191.88,-1317.86 1243.25,-1346.61 1281.66,-1396.81 1309.45,-1447.54"/>
<polygon fill="black" stroke="black" points="1306.36,-1449.17 1314.15,-1456.35 1312.53,-1445.88 1306.36,-1449.17"/>
<text text-anchor="middle" x="1124.38" y="-1321.06" font-family="Times,serif" font-size="14.00">Class 2 pass key</text>
</g>
<!-- 45197&#45;&gt;45198 -->
<g id="edge62" class="edge">
<title>45197&#45;&gt;45198</title>
<path fill="none" stroke="black" d="M909.57,-2087.19C913.34,-1852.44 936.07,-1375.29 1056.88,-1271.86 1102.46,-1232.85 1140.47,-1240.93 1191.88,-1271.86 1254.58,-1309.59 1296.47,-1377.5 1323.83,-1442.57"/>
<polygon fill="black" stroke="black" points="1320.5,-1443.65 1327.53,-1451.58 1326.97,-1441 1320.5,-1443.65"/>
<text text-anchor="middle" x="1124.38" y="-1275.06" font-family="Times,serif" font-size="14.00">Cell key</text>
</g>
<!-- 45197&#45;&gt;45198 -->
<g id="edge63" class="edge">
<title>45197&#45;&gt;45198</title>
<path fill="none" stroke="black" d="M976.07,-2106.24C998.33,-2077.54 1025.56,-2049.55 1056.88,-2030.86 1109.18,-1999.66 1145.12,-2046.39 1191.88,-2007.36 1209.69,-1992.5 1201.01,-1979.81 1209.88,-1958.36 1236.26,-1894.54 1267.62,-1825.27 1295.61,-1765.4"/>
<polygon fill="black" stroke="black" points="1298.72,-1767.01 1299.79,-1756.47 1292.38,-1764.04 1298.72,-1767.01"/>
<text text-anchor="middle" x="1124.38" y="-2034.06" font-family="Times,serif" font-size="14.00">Class 3 A1 suite key</text>
</g>
<!-- 45197&#45;&gt;45198 -->
<g id="edge64" class="edge">
<title>45197&#45;&gt;45198</title>
<path fill="none" stroke="black" d="M960.02,-2097.97C983.5,-2056.38 1015.52,-2013.56 1056.88,-1986.86 1107.81,-1953.99 1142.73,-2002.86 1191.88,-1967.36 1255.5,-1921.42 1297.81,-1846.33 1325.23,-1776.75"/>
<polygon fill="black" stroke="black" points="1328.46,-1778.08 1328.79,-1767.49 1321.93,-1775.57 1328.46,-1778.08"/>
<text text-anchor="middle" x="1124.38" y="-1990.06" font-family="Times,serif" font-size="14.00">Class 3 accountable key</text>
</g>
<!-- 45197&#45;&gt;45198 -->
<g id="edge65" class="edge">
<title>45197&#45;&gt;45198</title>
<path fill="none" stroke="black" d="M948.31,-2093.74C971.44,-2040.23 1006.34,-1982.04 1056.88,-1946.86 1106.64,-1912.23 1141.87,-1961.64 1191.88,-1927.36 1246.22,-1890.12 1285.94,-1830.65 1313.94,-1773.16"/>
<polygon fill="black" stroke="black" points="1317.07,-1774.73 1318.21,-1764.2 1310.75,-1771.72 1317.07,-1774.73"/>
<text text-anchor="middle" x="1124.38" y="-1950.06" font-family="Times,serif" font-size="14.00">Handcuff key</text>
</g>
<!-- 45197&#45;&gt;45198 -->
<g id="edge66" class="edge">
<title>45197&#45;&gt;45198</title>
<path fill="none" stroke="black" d="M938.74,-2090.86C960.5,-2025.69 997.04,-1951.02 1056.88,-1906.86 1105.66,-1870.87 1140.88,-1920.14 1191.88,-1887.36 1237.18,-1858.25 1273.31,-1813.13 1300.9,-1767.66"/>
<polygon fill="black" stroke="black" points="1303.79,-1769.64 1305.88,-1759.25 1297.77,-1766.07 1303.79,-1769.64"/>
<text text-anchor="middle" x="1124.38" y="-1910.06" font-family="Times,serif" font-size="14.00">Escort chain key</text>
</g>
<!-- 45197&#45;&gt;45198 -->
<g id="edge67" class="edge">
<title>45197&#45;&gt;45198</title>
<path fill="none" stroke="black" d="M930.7,-2089.34C950.38,-2012.79 987.5,-1920.52 1056.88,-1866.86 1104.83,-1829.78 1139.72,-1878.26 1191.88,-1847.36 1228.31,-1825.78 1259.75,-1793.63 1285.66,-1759.9"/>
<polygon fill="black" stroke="black" points="1288.36,-1762.13 1291.56,-1752.03 1282.76,-1757.93 1288.36,-1762.13"/>
<text text-anchor="middle" x="1124.38" y="-1870.06" font-family="Times,serif" font-size="14.00">Class 1 lock</text>
</g>
<!-- 45197&#45;&gt;45198 -->
<g id="edge68" class="edge">
<title>45197&#45;&gt;45198</title>
<path fill="none" stroke="black" d="M924.03,-2088.35C941.12,-2000.88 977.87,-1890.33 1056.88,-1826.86 1104.14,-1788.9 1138.38,-1835.88 1191.88,-1807.36 1219.76,-1792.5 1245.49,-1771.5 1268.23,-1748.69"/>
<polygon fill="black" stroke="black" points="1270.62,-1751.25 1275.09,-1741.64 1265.61,-1746.37 1270.62,-1751.25"/>
<text text-anchor="middle" x="1124.38" y="-1830.06" font-family="Times,serif" font-size="14.00">Class 2 lock</text>
</g>
<!-- 45197&#45;&gt;45198 -->
<g id="edge69" class="edge">
<title>45197&#45;&gt;45198</title>
<path fill="none" stroke="black" d="M918.42,-2087.68C932.61,-1989.73 968.19,-1860.4 1056.88,-1786.86 1103.55,-1748.17 1136.86,-1792.83 1191.88,-1767.36 1211.92,-1758.09 1231.36,-1745.83 1249.59,-1732.24"/>
<polygon fill="black" stroke="black" points="1251.43,-1735.24 1257.24,-1726.38 1247.18,-1729.68 1251.43,-1735.24"/>
<text text-anchor="middle" x="1124.38" y="-1790.06" font-family="Times,serif" font-size="14.00">Cell lock</text>
</g>
<!-- 45197&#45;&gt;45198 -->
<g id="edge70" class="edge">
<title>45197&#45;&gt;45198</title>
<path fill="none" stroke="black" d="M913.63,-2087.32C924.71,-1979.3 958.42,-1830.7 1056.88,-1746.86 1103.04,-1707.56 1135.21,-1748.91 1191.88,-1727.36 1204.78,-1722.46 1217.69,-1716.5 1230.35,-1709.9"/>
<polygon fill="black" stroke="black" points="1231.96,-1713.01 1239.11,-1705.19 1228.64,-1706.84 1231.96,-1713.01"/>
<text text-anchor="middle" x="1124.38" y="-1750.06" font-family="Times,serif" font-size="14.00">Class 3 A1 suite lock</text>
</g>
<!-- 45197&#45;&gt;45198 -->
<g id="edge71" class="edge">
<title>45197&#45;&gt;45198</title>
<path fill="none" stroke="black" d="M930.17,-2089.1C954.72,-1954.66 999.42,-1756.91 1056.88,-1706.86 1102.59,-1667.05 1133.57,-1703.96 1191.88,-1687.36 1199.1,-1685.31 1206.42,-1683.02 1213.76,-1680.56"/>
<polygon fill="black" stroke="black" points="1214.77,-1683.91 1223.08,-1677.34 1212.49,-1677.3 1214.77,-1683.91"/>
<text text-anchor="middle" x="1124.38" y="-1710.06" font-family="Times,serif" font-size="14.00">Class 3 accountable lock</text>
</g>
<!-- 45197&#45;&gt;45198 -->
<g id="edge72" class="edge">
<title>45197&#45;&gt;45198</title>
<path fill="none" stroke="black" d="M927.23,-2088.88C950.15,-1944.03 994.4,-1722.36 1056.88,-1666.86 1079.54,-1646.73 1162.04,-1652.68 1191.88,-1647.36 1195.28,-1646.76 1198.73,-1646.13 1202.19,-1645.49"/>
<polygon fill="black" stroke="black" points="1202.66,-1648.97 1211.85,-1643.69 1201.37,-1642.09 1202.66,-1648.97"/>
<text text-anchor="middle" x="1124.38" y="-1670.06" font-family="Times,serif" font-size="14.00">Handcuffs</text>
</g>
<!-- 45197&#45;&gt;45198 -->
<g id="edge73" class="edge">
<title>45197&#45;&gt;45198</title>
<path fill="none" stroke="black" d="M923.76,-2088.18C944.11,-1932.3 986.68,-1684.91 1056.88,-1626.86 1068.83,-1616.98 1132.06,-1612.42 1198.67,-1610.41"/>
<polygon fill="black" stroke="black" points="1198.41,-1613.92 1208.31,-1610.14 1198.21,-1606.92 1198.41,-1613.92"/>
<text text-anchor="middle" x="1124.38" y="-1630.06" font-family="Times,serif" font-size="14.00">Escort chain</text>
</g>
<!-- 45197&#45;&gt;45198 -->
<g id="edge74" class="edge">
<title>45197&#45;&gt;45198</title>
<path fill="none" stroke="black" d="M921.07,-2088.07C939.16,-1922.49 979.95,-1650.81 1056.88,-1589.86 1080.09,-1571.47 1140,-1572.17 1201.34,-1579.08"/>
<polygon fill="black" stroke="black" points="1200.55,-1582.51 1210.89,-1580.21 1201.37,-1575.56 1200.55,-1582.51"/>
<text text-anchor="middle" x="1124.38" y="-1593.06" font-family="Times,serif" font-size="14.00">Electronic lock system</text>
</g>
<!-- 45197&#45;&gt;45198 -->
<g id="edge75" class="edge">
<title>45197&#45;&gt;45198</title>
<path fill="none" stroke="black" d="M919.26,-2087.75C935.71,-1913.57 975.06,-1619.49 1056.88,-1553.86 1103.68,-1516.32 1132.56,-1544.87 1191.88,-1553.86 1196.8,-1554.61 1201.78,-1555.47 1206.79,-1556.42"/>
<polygon fill="black" stroke="black" points="1205.8,-1559.79 1216.29,-1558.34 1207.18,-1552.93 1205.8,-1559.79"/>
<text text-anchor="middle" x="1124.38" y="-1557.06" font-family="Times,serif" font-size="14.00">Magnetic keys</text>
</g>
<!-- 45197&#45;&gt;45198 -->
<g id="edge76" class="edge">
<title>45197&#45;&gt;45198</title>
<path fill="none" stroke="black" d="M917.46,-2087.89C932.09,-1904.7 969.68,-1585.66 1056.88,-1514.86 1105.23,-1475.61 1169.6,-1487.18 1227.46,-1513.3"/>
<polygon fill="black" stroke="black" points="1225.9,-1516.43 1236.44,-1517.51 1228.87,-1510.1 1225.9,-1516.43"/>
<text text-anchor="middle" x="1124.38" y="-1518.06" font-family="Times,serif" font-size="14.00">Magnetic lock</text>
</g>
<!-- 45197&#45;&gt;45198 -->
<g id="edge77" class="edge">
<title>45197&#45;&gt;45198</title>
<path fill="none" stroke="black" d="M915.61,-2087.5C928.15,-1893.9 963.4,-1545.72 1056.88,-1468.86 1080.05,-1449.81 1163.52,-1459.06 1191.88,-1468.86 1209.43,-1474.93 1226.57,-1483.51 1242.85,-1493.47"/>
<polygon fill="black" stroke="black" points="1240.74,-1496.28 1251.06,-1498.68 1244.49,-1490.37 1240.74,-1496.28"/>
<text text-anchor="middle" x="1124.38" y="-1472.06" font-family="Times,serif" font-size="14.00">Cell door</text>
</g>
<!-- 45197&#45;&gt;45198 -->
<g id="edge78" class="edge">
<title>45197&#45;&gt;45198</title>
<path fill="none" stroke="black" d="M914.42,-2087.74C925.48,-1887.19 958.94,-1518.03 1056.88,-1436.86 1116.79,-1387.21 1193.13,-1427.32 1255.52,-1481.29"/>
<polygon fill="black" stroke="black" points="1252.9,-1483.64 1262.71,-1487.64 1257.53,-1478.39 1252.9,-1483.64"/>
<text text-anchor="middle" x="1124.38" y="-1440.06" font-family="Times,serif" font-size="14.00">Brent keys</text>
</g>
<!-- 45197&#45;&gt;45198 -->
<g id="edge79" class="edge">
<title>45197&#45;&gt;45198</title>
<path fill="none" stroke="black" d="M912.98,-2087.45C922.11,-1877.64 953.02,-1480.77 1056.88,-1393.86 1102.89,-1355.36 1137.57,-1368.36 1191.88,-1393.86 1225.19,-1409.5 1254.43,-1434.73 1279.11,-1462.5"/>
<polygon fill="black" stroke="black" points="1276.45,-1464.77 1285.63,-1470.05 1281.74,-1460.19 1276.45,-1464.77"/>
<text text-anchor="middle" x="1124.38" y="-1397.06" font-family="Times,serif" font-size="14.00">Other : specify</text>
</g>
<!-- 45198&#45;&gt;END_NODE -->
<g id="edge80" class="edge">
<title>45198&#45;&gt;END_NODE</title>
<path fill="none" stroke="#dddddd" d="M1381.49,-1447.26C1407.18,-1051.36 1499.52,-67.36 1782.77,-67.36 1782.77,-67.36 1782.77,-67.36 5760.59,-67.36 5826.49,-67.36 6010.71,-35.23 6056.76,-82.36 6089.61,-115.98 6104.68,-1620.96 6107.22,-1903.8"/>
<polygon fill="#dddddd" stroke="#dddddd" points="6103.72,-1903.75 6107.31,-1913.71 6110.72,-1903.68 6103.72,-1903.75"/>
<text text-anchor="middle" x="3688.71" y="-70.56" font-family="Times,serif" font-size="14.00">Enter value:</text>
</g>
<!-- 45199 -->
<g id="node6" class="node">
<title>45199</title>
<ellipse fill="none" stroke="black" cx="1783.77" cy="-519.36" rx="148.08" ry="148.08"/>
<text text-anchor="middle" x="1783.77" y="-514.31" font-family="Times,serif" font-size="14.00">Has any remedial action been taken?</text>
</g>
<!-- 45198&#45;&gt;45199 -->
<g id="edge81" class="edge">
<title>45198&#45;&gt;45199</title>
<path fill="none" stroke="black" d="M1429.79,-1457.8C1508.24,-1249.24 1648.6,-876.05 1726.6,-668.68"/>
<polygon fill="black" stroke="black" points="1729.84,-670.02 1730.08,-659.43 1723.29,-667.55 1729.84,-670.02"/>
<text text-anchor="middle" x="1584.68" y="-1132.83" font-family="Times,serif" font-size="14.00">Enter value:</text>
</g>
<!-- 45199&#45;&gt;END_NODE -->
<g id="edge82" class="edge">
<title>45199&#45;&gt;END_NODE</title>
<path fill="none" stroke="#dddddd" d="M1847.93,-385.41C1905.32,-285.55 2000.44,-166.36 2127.5,-166.36 2127.5,-166.36 2127.5,-166.36 5760.59,-166.36 5892.39,-166.36 5964.59,-87.16 6056.76,-181.36 6087.79,-213.08 6104.25,-1629.41 6107.15,-1903.65"/>
<polygon fill="#dddddd" stroke="#dddddd" points="6103.65,-1903.64 6107.26,-1913.61 6110.65,-1903.57 6103.65,-1903.64"/>
<text text-anchor="middle" x="3911.33" y="-169.56" font-family="Times,serif" font-size="14.00">Yes</text>
</g>
<!-- 45199&#45;&gt;END_NODE -->
<g id="edge83" class="edge">
<title>45199&#45;&gt;END_NODE</title>
<path fill="none" stroke="#dddddd" d="M1835.84,-380.35C1869.17,-306.64 1919.38,-219.73 1988.1,-162.36 2038.52,-120.28 2061.83,-113.36 2127.5,-113.36 2127.5,-113.36 2127.5,-113.36 5760.59,-113.36 5892.49,-113.36 5965.19,-37.43 6056.76,-132.36 6088.48,-165.25 6104.44,-1626.69 6107.19,-1904.15"/>
<polygon fill="#dddddd" stroke="#dddddd" points="6103.68,-1903.89 6107.28,-1913.85 6110.68,-1903.82 6103.68,-1903.89"/>
<text text-anchor="middle" x="3911.33" y="-116.56" font-family="Times,serif" font-size="14.00">No</text>
</g>
<!-- 45200 -->
<g id="node7" class="node">
<title>45200</title>
<ellipse fill="none" stroke="black" cx="2128.5" cy="-519.36" rx="140.41" ry="140.41"/>
<text text-anchor="middle" x="2128.5" y="-514.31" font-family="Times,serif" font-size="14.00">Describe the remedial action taken</text>
</g>
<!-- 45199&#45;&gt;45200 -->
<g id="edge84" class="edge">
<title>45199&#45;&gt;45200</title>
<path fill="none" stroke="black" d="M1932.11,-519.36C1946.78,-519.36 1961.7,-519.36 1976.41,-519.36"/>
<polygon fill="black" stroke="black" points="1976.1,-522.86 1986.1,-519.36 1976.1,-515.86 1976.1,-522.86"/>
<text text-anchor="middle" x="1959.97" y="-522.56" font-family="Times,serif" font-size="14.00">Yes</text>
</g>
<!-- 45199&#45;&gt;45200 -->
<g id="edge85" class="edge">
<title>45199&#45;&gt;45200</title>
<path fill="none" stroke="#dddddd" d="M1930.84,-498.4C1944.1,-497.95 1957.34,-498.04 1970.1,-498.86 1972.61,-499.03 1975.15,-499.21 1977.7,-499.4"/>
<polygon fill="#dddddd" stroke="#dddddd" points="1977.22,-502.87 1987.47,-500.19 1977.78,-495.89 1977.22,-502.87"/>
<text text-anchor="middle" x="1959.97" y="-502.06" font-family="Times,serif" font-size="14.00">No</text>
</g>
<!-- 45202 -->
<g id="node8" class="node">
<title>45202</title>
<ellipse fill="none" stroke="black" cx="2861.53" cy="-715.36" rx="139.89" ry="139.89"/>
<text text-anchor="middle" x="2861.53" y="-710.31" font-family="Times,serif" font-size="14.00">Have the lost item (s) been found?</text>
</g>
<!-- 45199&#45;&gt;45202 -->
<g id="edge86" class="edge">
<title>45199&#45;&gt;45202</title>
<path fill="none" stroke="#dddddd" d="M1865.26,-643C1889.06,-669.71 1917.53,-694.4 1949.85,-709.36 2198.18,-824.36 2527.02,-786.59 2713.98,-750.07"/>
<polygon fill="#dddddd" stroke="#dddddd" points="2714.64,-753.51 2723.77,-748.13 2713.28,-746.64 2714.64,-753.51"/>
<text text-anchor="middle" x="2348.79" y="-789.74" font-family="Times,serif" font-size="14.00">No</text>
</g>
<!-- 45199&#45;&gt;45202 -->
<g id="edge88" class="edge">
<title>45199&#45;&gt;45202</title>
<path fill="none" stroke="black" d="M1895,-617.68C1923.51,-637.97 1955.44,-656.7 1988.1,-668.36 2116.76,-714.33 2496.39,-718.88 2710.04,-717.54"/>
<polygon fill="black" stroke="black" points="2709.86,-721.04 2719.83,-717.47 2709.81,-714.04 2709.86,-721.04"/>
<text text-anchor="middle" x="2348.79" y="-717.28" font-family="Times,serif" font-size="14.00">No</text>
</g>
<!-- 45208 -->
<g id="node9" class="node">
<title>45208</title>
<ellipse fill="none" stroke="black" cx="5759.59" cy="-1517.36" rx="195.17" ry="195.17"/>
<text text-anchor="middle" x="5759.59" y="-1512.31" font-family="Times,serif" font-size="14.00">Has the key lock incident been reported to NOU?</text>
</g>
<!-- 45199&#45;&gt;45208 -->
<g id="edge87" class="edge">
<title>45199&#45;&gt;45208</title>
<path fill="none" stroke="#dddddd" d="M1894.02,-420.17C1922.69,-399.77 1954.93,-381.22 1988.1,-370.36 2273.84,-276.88 2367.03,-368.22 2662.39,-424.36 3100.73,-507.7 3338.12,-331.7 3637.71,-662.36 3675.98,-704.61 3624.12,-741.91 3655.71,-789.36 3679.78,-825.53 3698.15,-826.7 3739.71,-839.36 3821.23,-864.21 4443.23,-823.26 4505.57,-881.36 4529,-903.2 4516.72,-993.08 4523.57,-1024.36 4535.64,-1079.46 4524.03,-1103.5 4561.82,-1145.36 4661.58,-1255.87 4733.74,-1216.72 4869.25,-1278.36 4941.54,-1311.25 4957.07,-1325.1 5030.5,-1355.36 5197.3,-1424.12 5294.17,-1354.2 5413.67,-1489.36 5438.67,-1517.64 5402.29,-1548.67 5431.67,-1572.36 5470.51,-1603.69 5520.54,-1607.49 5569.72,-1598.81"/>
<polygon fill="#dddddd" stroke="#dddddd" points="5570.23,-1602.28 5579.37,-1596.93 5568.89,-1595.41 5570.23,-1602.28"/>
<text text-anchor="middle" x="3688.71" y="-837.19" font-family="Times,serif" font-size="14.00">No</text>
</g>
<!-- 45200&#45;&gt;END_NODE -->
<g id="edge89" class="edge">
<title>45200&#45;&gt;END_NODE</title>
<path fill="none" stroke="#dddddd" d="M2250.58,-449.59C2331.19,-409.63 2440.93,-367.36 2544.52,-367.36 2544.52,-367.36 2544.52,-367.36 3912.33,-367.36 4188.06,-367.36 4256.97,-361.36 4532.7,-361.36 4532.7,-361.36 4532.7,-361.36 5760.59,-361.36 5893.8,-361.36 5968.44,-307.64 6056.76,-407.36 6107.62,-464.79 6108.18,-1654.63 6107.74,-1903.84"/>
<polygon fill="#dddddd" stroke="#dddddd" points="6104.24,-1903.8 6107.72,-1913.81 6111.24,-1903.81 6104.24,-1903.8"/>
<text text-anchor="middle" x="4163.58" y="-369.38" font-family="Times,serif" font-size="14.00">Complete relock</text>
</g>
<!-- 45200&#45;&gt;END_NODE -->
<g id="edge90" class="edge">
<title>45200&#45;&gt;END_NODE</title>
<path fill="none" stroke="#dddddd" d="M2229.83,-421.93C2247.82,-408.09 2267.17,-395.23 2286.91,-385.36 2391.9,-332.91 2427.16,-327.36 2544.52,-327.36 2544.52,-327.36 2544.52,-327.36 3912.33,-327.36 4188.06,-327.36 4256.97,-323.36 4532.7,-323.36 4532.7,-323.36 4532.7,-323.36 5760.59,-323.36 5826.64,-323.36 6011.3,-300.45 6056.76,-348.36 6111.7,-406.26 6109,-1648.19 6107.86,-1903.66"/>
<polygon fill="#dddddd" stroke="#dddddd" points="6104.36,-1903.54 6107.81,-1913.56 6111.36,-1903.58 6104.36,-1903.54"/>
<text text-anchor="middle" x="4163.58" y="-329.77" font-family="Times,serif" font-size="14.00">Partial relock</text>
</g>
<!-- 45200&#45;&gt;END_NODE -->
<g id="edge91" class="edge">
<title>45200&#45;&gt;END_NODE</title>
<path fill="none" stroke="#dddddd" d="M2206.73,-402.87C2229.57,-376.29 2256.67,-350.78 2286.91,-333.36 2387.69,-275.31 2428.22,-287.36 2544.52,-287.36 2544.52,-287.36 2544.52,-287.36 3912.33,-287.36 4188.05,-287.36 4256.98,-285.36 4532.7,-285.36 4532.7,-285.36 4532.7,-285.36 5760.59,-285.36 5892.99,-285.36 5966.79,-220.24 6056.76,-317.36 6112.14,-377.14 6109.06,-1646.46 6107.86,-1904.02"/>
<polygon fill="#dddddd" stroke="#dddddd" points="6104.37,-1903.64 6107.82,-1913.65 6111.37,-1903.67 6104.37,-1903.64"/>
<text text-anchor="middle" x="4163.58" y="-290.17" font-family="Times,serif" font-size="14.00">Complete replacement</text>
</g>
<!-- 45200&#45;&gt;END_NODE -->
<g id="edge92" class="edge">
<title>45200&#45;&gt;END_NODE</title>
<path fill="none" stroke="#dddddd" d="M2187.96,-391.65C2212.78,-351.07 2245.67,-310.1 2286.91,-284.36 2384.94,-223.2 2428.98,-249.36 2544.52,-249.36 2544.52,-249.36 2544.52,-249.36 3689.71,-249.36 3993.79,-249.36 4069.81,-247.36 4373.89,-247.36 4373.89,-247.36 4373.89,-247.36 5760.59,-247.36 5826.49,-247.36 6010.64,-215.29 6056.76,-262.36 6086.33,-292.54 6103.91,-1638.31 6107.09,-1904.06"/>
<polygon fill="#dddddd" stroke="#dddddd" points="6103.59,-1903.72 6107.21,-1913.67 6110.59,-1903.63 6103.59,-1903.72"/>
<text text-anchor="middle" x="4163.58" y="-251.19" font-family="Times,serif" font-size="14.00">Partial replacement</text>
</g>
<!-- 45200&#45;&gt;END_NODE -->
<g id="edge93" class="edge">
<title>45200&#45;&gt;END_NODE</title>
<path fill="none" stroke="#dddddd" d="M2173.75,-386.11C2198.51,-332.18 2235.08,-274.66 2286.91,-240.36 2382.99,-176.78 2429.31,-211.36 2544.52,-211.36 2544.52,-211.36 2544.52,-211.36 3689.71,-211.36 3993.79,-211.36 4069.8,-207.36 4373.89,-207.36 4373.89,-207.36 4373.89,-207.36 5760.59,-207.36 5892.73,-207.36 5966.07,-137.26 6056.76,-233.36 6086.29,-264.65 6103.93,-1635.99 6107.1,-1904.16"/>
<polygon fill="#dddddd" stroke="#dddddd" points="6103.6,-1903.91 6107.21,-1913.87 6110.6,-1903.83 6103.6,-1903.91"/>
<text text-anchor="middle" x="4163.58" y="-211.81" font-family="Times,serif" font-size="14.00">Forensic testing</text>
</g>
<!-- 45201 -->
<g id="node10" class="node">
<title>45201</title>
<ellipse fill="none" stroke="black" cx="2545.52" cy="-550.36" rx="116.86" ry="116.86"/>
<text text-anchor="middle" x="2545.52" y="-545.31" font-family="Times,serif" font-size="14.00">Estimated cost of this action</text>
</g>
<!-- 45200&#45;&gt;45201 -->
<g id="edge94" class="edge">
<title>45200&#45;&gt;45201</title>
<path fill="none" stroke="black" d="M2260.97,-567.08C2269.68,-569.17 2278.37,-570.97 2286.91,-572.36 2329.71,-579.38 2376.89,-577.96 2419.06,-573.48"/>
<polygon fill="black" stroke="black" points="2419.19,-576.99 2428.74,-572.38 2418.4,-570.04 2419.19,-576.99"/>
<text text-anchor="middle" x="2348.79" y="-580.43" font-family="Times,serif" font-size="14.00">Complete relock</text>
</g>
<!-- 45200&#45;&gt;45201 -->
<g id="edge95" class="edge">
<title>45200&#45;&gt;45201</title>
<path fill="none" stroke="black" d="M2268.55,-530.94C2274.75,-531.43 2280.9,-531.91 2286.91,-532.36 2329.29,-535.6 2375.62,-538.9 2417.15,-541.79"/>
<polygon fill="black" stroke="black" points="2416.72,-545.26 2426.93,-542.46 2417.2,-538.28 2416.72,-545.26"/>
<text text-anchor="middle" x="2348.79" y="-544.27" font-family="Times,serif" font-size="14.00">Partial relock</text>
</g>
<!-- 45200&#45;&gt;45201 -->
<g id="edge96" class="edge">
<title>45200&#45;&gt;45201</title>
<path fill="none" stroke="black" d="M2268.74,-506.51C2314.17,-504.75 2364.73,-505.39 2410.66,-511.86 2414.55,-512.41 2418.48,-513.05 2422.44,-513.75"/>
<polygon fill="black" stroke="black" points="2421.68,-517.17 2432.16,-515.63 2423.01,-510.3 2421.68,-517.17"/>
<text text-anchor="middle" x="2348.79" y="-515.06" font-family="Times,serif" font-size="14.00">Complete replacement</text>
</g>
<!-- 45200&#45;&gt;45201 -->
<g id="edge97" class="edge">
<title>45200&#45;&gt;45201</title>
<path fill="none" stroke="black" d="M2264.59,-483.79C2311.24,-476.51 2363.59,-473.97 2410.66,-484.86 2417.77,-486.51 2424.94,-488.59 2432.07,-490.99"/>
<polygon fill="black" stroke="black" points="2430.46,-494.13 2441.06,-494.2 2432.82,-487.54 2430.46,-494.13"/>
<text text-anchor="middle" x="2348.79" y="-488.06" font-family="Times,serif" font-size="14.00">Partial replacement</text>
</g>
<!-- 45200&#45;&gt;45201 -->
<g id="edge98" class="edge">
<title>45200&#45;&gt;45201</title>
<path fill="none" stroke="black" d="M2257.4,-462.71C2305.89,-448.57 2361.29,-441.33 2410.66,-456.86 2422.15,-460.48 2433.51,-465.47 2444.48,-471.28"/>
<polygon fill="black" stroke="black" points="2442.67,-474.28 2453.1,-476.1 2446.08,-468.17 2442.67,-474.28"/>
<text text-anchor="middle" x="2348.79" y="-460.06" font-family="Times,serif" font-size="14.00">Forensic testing</text>
</g>
<!-- 45200&#45;&gt;45201 -->
<g id="edge99" class="edge">
<title>45200&#45;&gt;45201</title>
<path fill="none" stroke="black" d="M2252.1,-586.64C2263.62,-590.96 2275.33,-594.65 2286.91,-597.36 2340.46,-609.91 2356.44,-606.61 2410.66,-597.36 2415.37,-596.56 2420.14,-595.61 2424.93,-594.54"/>
<polygon fill="black" stroke="black" points="2425.75,-597.94 2434.64,-592.18 2424.1,-591.14 2425.75,-597.94"/>
<text text-anchor="middle" x="2348.79" y="-608.78" font-family="Times,serif" font-size="14.00">Other</text>
</g>
<!-- 45202&#45;&gt;END_NODE -->
<g id="edge103" class="edge">
<title>45202&#45;&gt;END_NODE</title>
<path fill="none" stroke="#dddddd" d="M2977.96,-637.17C3103.83,-559.64 3313.98,-452.36 3513.19,-452.36 3513.19,-452.36 3513.19,-452.36 4375.89,-452.36 5077.62,-452.36 5259.05,-365.72 5954.76,-457.36 6001.26,-463.49 6027.52,-447.71 6056.76,-484.36 6102.07,-541.16 6107.01,-1662.69 6107.55,-1903.91"/>
<polygon fill="#dddddd" stroke="#dddddd" points="6104.05,-1903.86 6107.57,-1913.85 6111.05,-1903.85 6104.05,-1903.86"/>
<text text-anchor="middle" x="4533.7" y="-454.16" font-family="Times,serif" font-size="14.00">Yes</text>
</g>
<!-- 45202&#45;&gt;END_NODE -->
<g id="edge104" class="edge">
<title>45202&#45;&gt;END_NODE</title>
<path fill="none" stroke="#dddddd" d="M2946.39,-826.88C3096.54,-1029.51 3416.3,-1474.66 3637.71,-1879.36 3647.26,-1896.82 3640.64,-1907.36 3655.71,-1920.36 3704.98,-1962.91 3857.18,-1968.36 4948.87,-1968.36 4948.87,-1968.36 4948.87,-1968.36 5760.59,-1968.36 5892.37,-1968.36 5925.33,-1963.93 6056.76,-1954.36 6058.83,-1954.21 6060.94,-1954.05 6063.08,-1953.87"/>
<polygon fill="#dddddd" stroke="#dddddd" points="6063.38,-1957.36 6073.03,-1953 6062.76,-1950.39 6063.38,-1957.36"/>
<text text-anchor="middle" x="4533.7" y="-1971.14" font-family="Times,serif" font-size="14.00">No</text>
</g>
<!-- 45203 -->
<g id="node11" class="node">
<title>45203</title>
<ellipse fill="none" stroke="black" cx="3514.19" cy="-795.36" rx="123.52" ry="123.52"/>
<text text-anchor="middle" x="3514.19" y="-790.31" font-family="Times,serif" font-size="14.00">Has a replica key been found?</text>
</g>
<!-- 45202&#45;&gt;45203 -->
<g id="edge105" class="edge">
<title>45202&#45;&gt;45203</title>
<path fill="none" stroke="black" d="M2991.76,-766.65C3001.03,-769.24 3010.32,-771.52 3019.42,-773.36 3139.39,-797.6 3278.95,-801.66 3379.03,-800.5"/>
<polygon fill="black" stroke="black" points="3378.96,-804 3388.91,-800.36 3378.86,-797 3378.96,-804"/>
<text text-anchor="middle" x="3196.05" y="-803.87" font-family="Times,serif" font-size="14.00">Yes</text>
</g>
<!-- 45202&#45;&gt;45203 -->
<g id="edge106" class="edge">
<title>45202&#45;&gt;45203</title>
<path fill="none" stroke="black" d="M3000.66,-731.67C3007,-732.27 3013.28,-732.84 3019.42,-733.36 3176.1,-746.66 3217.82,-725.58 3372.67,-752.86 3376.81,-753.59 3380.99,-754.4 3385.2,-755.28"/>
<polygon fill="black" stroke="black" points="3384.39,-758.69 3394.91,-757.43 3385.9,-751.85 3384.39,-758.69"/>
<text text-anchor="middle" x="3196.05" y="-756.06" font-family="Times,serif" font-size="14.00">No</text>
</g>
<!-- 45202&#45;&gt;45203 -->
<g id="edge107" class="edge">
<title>45202&#45;&gt;45203</title>
<path fill="none" stroke="black" d="M3000.17,-695.05C3104.34,-684.35 3249.92,-679.49 3372.67,-712.86 3382,-715.4 3391.33,-718.73 3400.51,-722.59"/>
<polygon fill="black" stroke="black" points="3398.86,-725.68 3409.42,-726.55 3401.7,-719.29 3398.86,-725.68"/>
<text text-anchor="middle" x="3196.05" y="-716.06" font-family="Times,serif" font-size="14.00">N/A</text>
</g>
<!-- 45208&#45;&gt;END_NODE -->
<g id="edge161" class="edge">
<title>45208&#45;&gt;END_NODE</title>
<path fill="none" stroke="black" d="M5947.44,-1571.83C5988.95,-1592.05 6028.85,-1619.33 6056.76,-1655.86 6085.91,-1694.01 6099.53,-1831.2 6104.81,-1903.71"/>
<polygon fill="black" stroke="black" points="6101.32,-1903.95 6105.51,-1913.68 6108.3,-1903.46 6101.32,-1903.95"/>
<text text-anchor="middle" x="6014.76" y="-1659.06" font-family="Times,serif" font-size="14.00">Yes: date</text>
</g>
<!-- 45208&#45;&gt;END_NODE -->
<g id="edge162" class="edge">
<title>45208&#45;&gt;END_NODE</title>
<path fill="none" stroke="black" d="M5955.02,-1514.54C5993.15,-1522.98 6029.67,-1538.85 6056.76,-1566.86 6102.38,-1614.04 6107.96,-1813.02 6108.07,-1903.84"/>
<polygon fill="black" stroke="black" points="6104.57,-1903.61 6108.05,-1913.62 6111.57,-1903.62 6104.57,-1903.61"/>
<text text-anchor="middle" x="6014.76" y="-1570.06" font-family="Times,serif" font-size="14.00">No</text>
</g>
<!-- 45208&#45;&gt;END_NODE -->
<g id="edge163" class="edge">
<title>45208&#45;&gt;END_NODE</title>
<path fill="none" stroke="black" d="M5915.08,-1635.91C5934.12,-1648.81 5953.62,-1661.27 5972.76,-1672.36 6008.13,-1692.87 6031.05,-1678.08 6056.76,-1709.86 6080.56,-1739.28 6095.85,-1843.61 6102.96,-1904.43"/>
<polygon fill="black" stroke="black" points="6099.45,-1904.57 6104.06,-1914.11 6106.41,-1903.78 6099.45,-1904.57"/>
<text text-anchor="middle" x="6014.76" y="-1713.06" font-family="Times,serif" font-size="14.00">Incident ref no:</text>
</g>
<!-- 45201&#45;&gt;END_NODE -->
<g id="edge100" class="edge">
<title>45201&#45;&gt;END_NODE</title>
<path fill="none" stroke="#dddddd" d="M2640.86,-482.01C2700.75,-445.24 2781.61,-407.36 2860.53,-407.36 2860.53,-407.36 2860.53,-407.36 4164.58,-407.36 4778.74,-407.36 4932.28,-409.78 5546.42,-413.36 5660.2,-414.03 5990.28,-362.04 6056.76,-454.36 6100.13,-514.59 6106.6,-1659.67 6107.49,-1903.82"/>
<polygon fill="#dddddd" stroke="#dddddd" points="6103.98,-1903.58 6107.52,-1913.57 6110.98,-1903.56 6103.98,-1903.58"/>
<text text-anchor="middle" x="4374.89" y="-410.87" font-family="Times,serif" font-size="14.00"></text>
</g>
<!-- 45201&#45;&gt;45202 -->
<g id="edge101" class="edge">
<title>45201&#45;&gt;45202</title>
<path fill="none" stroke="black" d="M2657.06,-586.84C2672.97,-593.22 2688.92,-600.28 2703.64,-607.86 2715.1,-613.77 2726.72,-620.38 2738.18,-627.34"/>
<polygon fill="black" stroke="black" points="2736.13,-630.18 2746.47,-632.46 2739.81,-624.23 2736.13,-630.18"/>
<text text-anchor="middle" x="2692.01" y="-611.06" font-family="Times,serif" font-size="14.00"></text>
</g>
<!-- 45201&#45;&gt;45202 -->
<g id="edge102" class="edge">
<title>45201&#45;&gt;45202</title>
<path fill="none" stroke="black" d="M2647.9,-606.93C2658.84,-612.87 2669.82,-618.78 2680.39,-624.36 2695.12,-632.16 2710.61,-640.2 2726.05,-648.12"/>
<polygon fill="black" stroke="black" points="2724.34,-651.18 2734.83,-652.62 2727.53,-644.95 2724.34,-651.18"/>
<text text-anchor="middle" x="2692.01" y="-637.74" font-family="Times,serif" font-size="14.00">N/A</text>
</g>
<!-- 45203&#45;&gt;END_NODE -->
<g id="edge108" class="edge">
<title>45203&#45;&gt;END_NODE</title>
<path fill="none" stroke="#dddddd" d="M3527.1,-918.52C3554.49,-1196.28 3622.19,-1850.05 3655.71,-1884.36 3735.7,-1966.27 3795.85,-1923.36 3910.33,-1923.36 3910.33,-1923.36 3910.33,-1923.36 4534.7,-1923.36 5140.01,-1923.36 5876.17,-1942.85 6062.92,-1948.08"/>
<polygon fill="#dddddd" stroke="#dddddd" points="6062.81,-1951.58 6072.9,-1948.37 6063,-1944.59 6062.81,-1951.58"/>
<text text-anchor="middle" x="4715.54" y="-1928.21" font-family="Times,serif" font-size="14.00">Yes</text>
</g>
<!-- 45203&#45;&gt;END_NODE -->
<g id="edge109" class="edge">
<title>45203&#45;&gt;END_NODE</title>
<path fill="none" stroke="#dddddd" d="M3533.54,-917.63C3579.26,-1199.39 3709.26,-1870.36 3910.33,-1870.36 3910.33,-1870.36 3910.33,-1870.36 4534.7,-1870.36 5166.44,-1870.36 5324.39,-1890.81 5954.76,-1932.36 6000.17,-1935.36 6011.59,-1935.83 6056.76,-1941.36 6058.96,-1941.63 6061.2,-1941.93 6063.47,-1942.23"/>
<polygon fill="#dddddd" stroke="#dddddd" points="6062.94,-1945.69 6073.34,-1943.66 6063.94,-1938.76 6062.94,-1945.69"/>
<text text-anchor="middle" x="4715.54" y="-1876.02" font-family="Times,serif" font-size="14.00">No</text>
</g>
<!-- 45204 -->
<g id="node12" class="node">
<title>45204</title>
<ellipse fill="none" stroke="black" cx="3911.33" cy="-658.36" rx="171.63" ry="171.63"/>
<text text-anchor="middle" x="3911.33" y="-653.31" font-family="Times,serif" font-size="14.00">What action was taken to find these items?</text>
</g>
<!-- 45203&#45;&gt;45204 -->
<g id="edge110" class="edge">
<title>45203&#45;&gt;45204</title>
<path fill="none" stroke="black" d="M3627.48,-745.67C3636.97,-741.88 3646.47,-738.23 3655.71,-734.86 3681.06,-725.63 3708.1,-716.63 3734.75,-708.23"/>
<polygon fill="black" stroke="black" points="3735.79,-711.57 3744.29,-705.25 3733.7,-704.89 3735.79,-711.57"/>
<text text-anchor="middle" x="3688.71" y="-738.06" font-family="Times,serif" font-size="14.00">Yes</text>
</g>
<!-- 45203&#45;&gt;45204 -->
<g id="edge111" class="edge">
<title>45203&#45;&gt;45204</title>
<path fill="none" stroke="#dddddd" d="M3636.42,-774.78C3664.78,-768.53 3694.61,-760.77 3721.71,-751.36 3730.45,-748.33 3739.3,-744.99 3748.17,-741.43"/>
<polygon fill="#dddddd" stroke="#dddddd" points="3749.26,-744.76 3757.18,-737.72 3746.6,-738.29 3749.26,-744.76"/>
<text text-anchor="middle" x="3688.71" y="-772.37" font-family="Times,serif" font-size="14.00">No</text>
</g>
<!-- 45205 -->
<g id="node13" class="node">
<title>45205</title>
<ellipse fill="none" stroke="black" cx="4374.89" cy="-1021.36" rx="130.68" ry="130.68"/>
<text text-anchor="middle" x="4374.89" y="-1016.31" font-family="Times,serif" font-size="14.00">Were tools used in the incident?</text>
</g>
<!-- 45203&#45;&gt;45205 -->
<g id="edge112" class="edge">
<title>45203&#45;&gt;45205</title>
<path fill="none" stroke="black" d="M3561.12,-910.02C3583.43,-950.82 3614.5,-992.73 3655.71,-1017.36 3834.15,-1124.06 4084.84,-1093.46 4237.95,-1059.15"/>
<polygon fill="black" stroke="black" points="4238.35,-1062.65 4247.32,-1057.01 4236.79,-1055.83 4238.35,-1062.65"/>
<text text-anchor="middle" x="3911.33" y="-1094.41" font-family="Times,serif" font-size="14.00">No</text>
</g>
<!-- 45203&#45;&gt;45205 -->
<g id="edge113" class="edge">
<title>45203&#45;&gt;45205</title>
<path fill="none" stroke="black" d="M3624.85,-850.68C3635.18,-855.2 3645.57,-859.51 3655.71,-863.36 3847.95,-936.44 3899.25,-949.26 4100.96,-989.36 4143.59,-997.84 4190.45,-1004.34 4233.12,-1009.19"/>
<polygon fill="black" stroke="black" points="4232.63,-1012.65 4242.95,-1010.28 4233.4,-1005.7 4232.63,-1012.65"/>
<text text-anchor="middle" x="3911.33" y="-988.64" font-family="Times,serif" font-size="14.00">N/A</text>
</g>
<!-- 45204&#45;&gt;END_NODE -->
<g id="edge114" class="edge">
<title>45204&#45;&gt;END_NODE</title>
<path fill="none" stroke="#dddddd" d="M4082.1,-639.83C4567.66,-588.83 5935.18,-460.05 6056.76,-613.36 6097.67,-664.96 6106.02,-1674.97 6107.38,-1903.62"/>
<polygon fill="#dddddd" stroke="#dddddd" points="6103.88,-1903.64 6107.44,-1913.62 6110.88,-1903.6 6103.88,-1903.64"/>
<text text-anchor="middle" x="4949.87" y="-571.04" font-family="Times,serif" font-size="14.00">Full close down search</text>
</g>
<!-- 45204&#45;&gt;END_NODE -->
<g id="edge115" class="edge">
<title>45204&#45;&gt;END_NODE</title>
<path fill="none" stroke="#dddddd" d="M4080.2,-625.31C4087.21,-623.97 4094.16,-622.65 4100.96,-621.36 4164.54,-609.36 4180.08,-603.99 4244.21,-595.36 4384.65,-576.47 4420.62,-579.34 4561.82,-567.36 4727.33,-553.33 5956,-436.31 6056.76,-568.36 6098.16,-622.62 6106.14,-1671.47 6107.41,-1903.98"/>
<polygon fill="#dddddd" stroke="#dddddd" points="6103.91,-1903.86 6107.46,-1913.84 6110.91,-1903.82 6103.91,-1903.86"/>
<text text-anchor="middle" x="4949.87" y="-543.42" font-family="Times,serif" font-size="14.00">Partial search</text>
</g>
<!-- 45204&#45;&gt;END_NODE -->
<g id="edge116" class="edge">
<title>45204&#45;&gt;END_NODE</title>
<path fill="none" stroke="#dddddd" d="M4073.69,-601.97C4082.88,-599.27 4092.01,-596.71 4100.96,-594.36 4163.62,-577.92 4180.04,-576.32 4244.21,-567.36 4443.72,-539.52 5929.61,-371.12 6056.76,-527.36 6101.21,-581.98 6106.82,-1667.5 6107.52,-1904.09"/>
<polygon fill="#dddddd" stroke="#dddddd" points="6104.02,-1903.84 6107.55,-1913.83 6111.02,-1903.82 6104.02,-1903.84"/>
<text text-anchor="middle" x="4949.87" y="-502.31" font-family="Times,serif" font-size="14.00">Other: specify</text>
</g>
<!-- 45204&#45;&gt;45205 -->
<g id="edge117" class="edge">
<title>45204&#45;&gt;45205</title>
<path fill="none" stroke="black" d="M4051.15,-758.63C4106.34,-799.38 4169.96,-847.48 4226.21,-892.86 4239.9,-903.91 4254.09,-915.74 4268.02,-927.59"/>
<polygon fill="black" stroke="black" points="4265.63,-930.15 4275.5,-933.98 4270.17,-924.82 4265.63,-930.15"/>
<text text-anchor="middle" x="4163.58" y="-896.06" font-family="Times,serif" font-size="14.00">Full close down search</text>
</g>
<!-- 45204&#45;&gt;45205 -->
<g id="edge118" class="edge">
<title>45204&#45;&gt;45205</title>
<path fill="none" stroke="black" d="M3982.29,-815.02C4012.03,-865.14 4051.45,-916.17 4100.96,-949.36 4148,-980.9 4171.35,-958.78 4226.21,-972.86 4230.77,-974.04 4235.39,-975.27 4240.05,-976.56"/>
<polygon fill="black" stroke="black" points="4238.93,-979.88 4249.5,-979.24 4240.84,-973.14 4238.93,-979.88"/>
<text text-anchor="middle" x="4163.58" y="-976.06" font-family="Times,serif" font-size="14.00">Partial search</text>
</g>
<!-- 45204&#45;&gt;45205 -->
<g id="edge119" class="edge">
<title>45204&#45;&gt;45205</title>
<path fill="none" stroke="black" d="M3995.79,-808.24C4024.28,-846.89 4059.59,-884.55 4100.96,-909.36 4149.27,-938.35 4173.42,-909.18 4226.21,-928.86 4236.41,-932.67 4246.67,-937.24 4256.76,-942.27"/>
<polygon fill="black" stroke="black" points="4254.95,-945.28 4265.44,-946.76 4258.16,-939.06 4254.95,-945.28"/>
<text text-anchor="middle" x="4163.58" y="-932.06" font-family="Times,serif" font-size="14.00">Other: please specify</text>
</g>
<!-- 45205&#45;&gt;END_NODE -->
<g id="edge120" class="edge">
<title>45205&#45;&gt;END_NODE</title>
<path fill="none" stroke="#dddddd" d="M4381.74,-1152.22C4393.64,-1351.61 4428.19,-1717.19 4523.57,-1800.36 4587.85,-1856.42 5981.92,-1837.47 6056.76,-1878.36 6069.57,-1885.36 6079.94,-1897.14 6087.89,-1909.11"/>
<polygon fill="#dddddd" stroke="#dddddd" points="6084.74,-1910.67 6092.95,-1917.37 6090.71,-1907.02 6084.74,-1910.67"/>
<text text-anchor="middle" x="5222.09" y="-1850.55" font-family="Times,serif" font-size="14.00">Yes</text>
</g>
<!-- 45205&#45;&gt;END_NODE -->
<g id="edge121" class="edge">
<title>45205&#45;&gt;END_NODE</title>
<path fill="none" stroke="#dddddd" d="M4420.7,-1144.19C4490.63,-1315.67 4643.54,-1620.69 4887.25,-1753.36 4943.66,-1784.07 4966.63,-1765.58 5030.5,-1772.36 5440.29,-1815.92 5545.29,-1799.92 5954.76,-1846.36 6000.29,-1851.53 6018.85,-1835.63 6056.76,-1861.36 6072.84,-1872.28 6084.5,-1890.09 6092.56,-1906.85"/>
<polygon fill="#dddddd" stroke="#dddddd" points="6089.24,-1907.98 6096.51,-1915.69 6095.63,-1905.13 6089.24,-1907.98"/>
<text text-anchor="middle" x="5222.09" y="-1806.78" font-family="Times,serif" font-size="14.00">No</text>
</g>
<!-- 45205&#45;&gt;45208 -->
<g id="edge124" class="edge">
<title>45205&#45;&gt;45208</title>
<path fill="none" stroke="black" d="M4439.76,-1135.23C4471.52,-1184.13 4513.48,-1238.97 4561.82,-1278.36 4738.91,-1422.67 4815.64,-1411.79 5030.5,-1489.36 5251.11,-1569.01 5315.94,-1643.84 5546.42,-1600.36 5553.59,-1599.01 5560.82,-1597.43 5568.07,-1595.65"/>
<polygon fill="black" stroke="black" points="5568.81,-1599.07 5577.62,-1593.18 5567.06,-1592.29 5568.81,-1599.07"/>
<text text-anchor="middle" x="4949.87" y="-1485.65" font-family="Times,serif" font-size="14.00">No</text>
</g>
<!-- 45206 -->
<g id="node14" class="node">
<title>45206</title>
<ellipse fill="none" stroke="black" cx="4715.54" cy="-982.36" rx="153.71" ry="153.71"/>
<text text-anchor="middle" x="4715.54" y="-977.31" font-family="Times,serif" font-size="14.00">What tools/foreign objects were used?</text>
</g>
<!-- 45205&#45;&gt;45206 -->
<g id="edge122" class="edge">
<title>45205&#45;&gt;45206</title>
<path fill="none" stroke="black" d="M4501.18,-987.37C4508.72,-986 4516.23,-984.81 4523.57,-983.86 4532.19,-982.75 4541.03,-981.85 4549.98,-981.14"/>
<polygon fill="black" stroke="black" points="4550.12,-984.63 4559.85,-980.43 4549.62,-977.65 4550.12,-984.63"/>
<text text-anchor="middle" x="4533.7" y="-987.06" font-family="Times,serif" font-size="14.00">Yes</text>
</g>
<!-- 45205&#45;&gt;45206 -->
<g id="edge123" class="edge">
<title>45205&#45;&gt;45206</title>
<path fill="none" stroke="#dddddd" d="M4504.88,-1006.51C4520,-1004.77 4535.57,-1002.98 4551.08,-1001.19"/>
<polygon fill="#dddddd" stroke="#dddddd" points="4551.31,-1004.69 4560.85,-1000.06 4550.51,-997.73 4551.31,-1004.69"/>
<text text-anchor="middle" x="4533.7" y="-1007.4" font-family="Times,serif" font-size="14.00">No</text>
</g>
<!-- 45206&#45;&gt;END_NODE -->
<g id="edge125" class="edge">
<title>45206&#45;&gt;END_NODE</title>
<path fill="none" stroke="#dddddd" d="M4847.94,-903.94C4860.93,-898.29 4874.15,-893.28 4887.25,-889.36 5114.84,-821.28 5724,-776.99 5954.76,-833.36 6004.39,-845.49 6029.21,-843.35 6056.76,-886.36 6084.58,-929.79 6102.56,-1706.33 6106.7,-1903.92"/>
<polygon fill="#dddddd" stroke="#dddddd" points="6103.2,-1903.86 6106.91,-1913.78 6110.2,-1903.71 6103.2,-1903.86"/>
<text text-anchor="middle" x="5489.05" y="-816.78" font-family="Times,serif" font-size="14.00">Hacksaw blade</text>
</g>
<!-- 45206&#45;&gt;END_NODE -->
<g id="edge126" class="edge">
<title>45206&#45;&gt;END_NODE</title>
<path fill="none" stroke="#dddddd" d="M4836.56,-887.27C4853.08,-876.35 4870.23,-866.04 4887.25,-857.36 4946.83,-827 4964.75,-823.56 5030.5,-811.36 5142.64,-790.57 5986.37,-743.62 6056.76,-833.36 6090.3,-876.12 6104.1,-1699.66 6107.01,-1903.85"/>
<polygon fill="#dddddd" stroke="#dddddd" points="6103.51,-1903.84 6107.15,-1913.79 6110.51,-1903.74 6103.51,-1903.84"/>
<text text-anchor="middle" x="5489.05" y="-786.78" font-family="Times,serif" font-size="14.00">Other blade</text>
</g>
<!-- 45206&#45;&gt;END_NODE -->
<g id="edge127" class="edge">
<title>45206&#45;&gt;END_NODE</title>
<path fill="none" stroke="#dddddd" d="M4814.49,-864.62C4836.53,-843.93 4861.19,-824.53 4887.25,-810.36 4944.4,-779.3 4965.98,-788.64 5030.5,-780.36 5143.62,-765.86 5982.78,-710.58 6056.76,-797.36 6093.23,-840.14 6104.86,-1694.89 6107.16,-1903.66"/>
<polygon fill="#dddddd" stroke="#dddddd" points="6103.66,-1903.6 6107.26,-1913.57 6110.66,-1903.53 6103.66,-1903.6"/>
<text text-anchor="middle" x="5489.05" y="-757.49" font-family="Times,serif" font-size="14.00">Wire cutters</text>
</g>
<!-- 45206&#45;&gt;END_NODE -->
<g id="edge128" class="edge">
<title>45206&#45;&gt;END_NODE</title>
<path fill="none" stroke="#dddddd" d="M4800.87,-854.02C4825.5,-825.16 4854.68,-797.46 4887.25,-778.36 4999.37,-712.65 5970.66,-665.03 6056.76,-762.36 6095.24,-805.86 6105.38,-1691.72 6107.26,-1903.96"/>
<polygon fill="#dddddd" stroke="#dddddd" points="6103.76,-1903.78 6107.34,-1913.75 6110.76,-1903.72 6103.76,-1903.78"/>
<text text-anchor="middle" x="5489.05" y="-714.12" font-family="Times,serif" font-size="14.00">Bolt cutters</text>
</g>
<!-- 45206&#45;&gt;END_NODE -->
<g id="edge129" class="edge">
<title>45206&#45;&gt;END_NODE</title>
<path fill="none" stroke="#dddddd" d="M4788.7,-846.78C4815.07,-808.34 4848.19,-769.81 4887.25,-743.36 4994.87,-670.51 5973.51,-626.57 6056.76,-726.36 6095.17,-772.41 6105.39,-1688.07 6107.26,-1904.02"/>
<polygon fill="#dddddd" stroke="#dddddd" points="6103.76,-1903.74 6107.35,-1913.71 6110.76,-1903.68 6103.76,-1903.74"/>
<text text-anchor="middle" x="5489.05" y="-674.51" font-family="Times,serif" font-size="14.00">Digging tool</text>
</g>
<!-- 45206&#45;&gt;END_NODE -->
<g id="edge130" class="edge">
<title>45206&#45;&gt;END_NODE</title>
<path fill="none" stroke="#dddddd" d="M4776.41,-840.82C4803.65,-791.5 4840.43,-739.91 4887.25,-705.36 4991.83,-628.21 5974.5,-588.75 6056.76,-689.36 6095.93,-737.26 6105.58,-1683.33 6107.3,-1903.75"/>
<polygon fill="#dddddd" stroke="#dddddd" points="6103.8,-1903.68 6107.38,-1913.65 6110.8,-1903.63 6103.8,-1903.68"/>
<text text-anchor="middle" x="5489.05" y="-635" font-family="Times,serif" font-size="14.00">Crow bar</text>
</g>
<!-- 45206&#45;&gt;END_NODE -->
<g id="edge131" class="edge">
<title>45206&#45;&gt;END_NODE</title>
<path fill="none" stroke="#dddddd" d="M4765.25,-836.56C4792.35,-775.86 4832.01,-709.6 4887.25,-666.36 4989.58,-586.26 5975.03,-550.33 6056.76,-651.36 6096.93,-701.02 6105.83,-1679.51 6107.35,-1903.82"/>
<polygon fill="#dddddd" stroke="#dddddd" points="6103.85,-1903.63 6107.41,-1913.61 6110.85,-1903.59 6103.85,-1903.63"/>
<text text-anchor="middle" x="5489.05" y="-595.16" font-family="Times,serif" font-size="14.00">Improvised tool</text>
</g>
<!-- 45206&#45;&gt;END_NODE -->
<g id="edge132" class="edge">
<title>45206&#45;&gt;END_NODE</title>
<path fill="none" stroke="#dddddd" d="M4730.55,-1135.68C4751.76,-1330.16 4799.21,-1649.36 4887.25,-1724.36 4986.38,-1808.82 5953.26,-1723.32 6056.76,-1802.36 6088,-1826.22 6100.16,-1870.47 6104.83,-1904.21"/>
<polygon fill="#dddddd" stroke="#dddddd" points="6101.3,-1904.18 6105.97,-1913.7 6108.25,-1903.35 6101.3,-1904.18"/>
<text text-anchor="middle" x="5489.05" y="-1768.72" font-family="Times,serif" font-size="14.00">Other: specify</text>
</g>
<!-- 45206&#45;&gt;END_NODE -->
<g id="edge133" class="edge">
<title>45206&#45;&gt;END_NODE</title>
<path fill="none" stroke="#dddddd" d="M4729.71,-1135.78C4747.49,-1251.28 4789.24,-1405.86 4887.25,-1503.36 5111.4,-1726.35 5254.98,-1656.45 5564.42,-1721.36 5672.14,-1743.96 5973.4,-1703.5 6056.76,-1775.36 6093.54,-1807.07 6104.46,-1863.75 6107.33,-1903.79"/>
<polygon fill="#dddddd" stroke="#dddddd" points="6103.83,-1903.82 6107.88,-1913.61 6110.81,-1903.43 6103.83,-1903.82"/>
<text text-anchor="middle" x="5489.05" y="-1720.28" font-family="Times,serif" font-size="14.00">Not known</text>
</g>
<!-- 45207 -->
<g id="node15" class="node">
<title>45207</title>
<ellipse fill="none" stroke="black" cx="5222.09" cy="-1154.36" rx="191.59" ry="191.59"/>
<text text-anchor="middle" x="5222.09" y="-1149.31" font-family="Times,serif" font-size="14.00">What was the source of the tools/foreign object?</text>
</g>
<!-- 45206&#45;&gt;45207 -->
<g id="edge134" class="edge">
<title>45206&#45;&gt;45207</title>
<path fill="none" stroke="black" d="M4868.46,-1001.42C4933.56,-1010.11 4998.05,-1019.6 5012.5,-1024.86 5025.98,-1029.77 5039.53,-1035.63 5052.89,-1042.1"/>
<polygon fill="black" stroke="black" points="5051.19,-1045.17 5061.71,-1046.49 5054.31,-1038.9 5051.19,-1045.17"/>
<text text-anchor="middle" x="4949.87" y="-1028.06" font-family="Times,serif" font-size="14.00">Hacksaw blade</text>
</g>
<!-- 45206&#45;&gt;45207 -->
<g id="edge135" class="edge">
<title>45206&#45;&gt;45207</title>
<path fill="none" stroke="black" d="M4868.63,-964.44C4915.9,-963.9 4967.41,-968.64 5012.5,-984.86 5033.63,-992.47 5054.19,-1003.2 5073.64,-1015.62"/>
<polygon fill="black" stroke="black" points="5071.56,-1018.44 5081.83,-1021.02 5075.4,-1012.59 5071.56,-1018.44"/>
<text text-anchor="middle" x="4949.87" y="-988.06" font-family="Times,serif" font-size="14.00">Other blade</text>
</g>
<!-- 45206&#45;&gt;45207 -->
<g id="edge136" class="edge">
<title>45206&#45;&gt;45207</title>
<path fill="none" stroke="black" d="M4861.65,-934.21C4911,-925.39 4965.51,-924.28 5012.5,-943.86 5042.15,-956.23 5069.75,-975.08 5094.53,-996.53"/>
<polygon fill="black" stroke="black" points="5091.89,-998.86 5101.69,-1002.89 5096.54,-993.63 5091.89,-998.86"/>
<text text-anchor="middle" x="4949.87" y="-947.06" font-family="Times,serif" font-size="14.00">Wire cutters</text>
</g>
<!-- 45206&#45;&gt;45207 -->
<g id="edge137" class="edge">
<title>45206&#45;&gt;45207</title>
<path fill="none" stroke="black" d="M4851.67,-910.62C4903.45,-892.74 4962.15,-884.51 5012.5,-907.86 5050.08,-925.29 5083.35,-953.2 5111.66,-984.08"/>
<polygon fill="black" stroke="black" points="5108.84,-986.18 5118.12,-991.3 5114.05,-981.52 5108.84,-986.18"/>
<text text-anchor="middle" x="4949.87" y="-911.06" font-family="Times,serif" font-size="14.00">Bolt cutters</text>
</g>
<!-- 45206&#45;&gt;45207 -->
<g id="edge138" class="edge">
<title>45206&#45;&gt;45207</title>
<path fill="none" stroke="black" d="M4790.91,-1116.9C4816.68,-1150.69 4848.91,-1182.64 4887.25,-1201.36 4930.92,-1222.69 4981.38,-1225.24 5029.63,-1218.95"/>
<polygon fill="black" stroke="black" points="5029.97,-1222.44 5039.36,-1217.54 5028.97,-1215.51 5029.97,-1222.44"/>
<text text-anchor="middle" x="4949.87" y="-1225.15" font-family="Times,serif" font-size="14.00">Digging tool</text>
</g>
<!-- 45206&#45;&gt;45207 -->
<g id="edge139" class="edge">
<title>45206&#45;&gt;45207</title>
<path fill="none" stroke="black" d="M4807.94,-1105.72C4831.09,-1128.35 4857.84,-1148.77 4887.25,-1161.36 4912.3,-1172.09 4963.98,-1173.99 5019.36,-1172.11"/>
<polygon fill="black" stroke="black" points="5019.47,-1175.61 5029.33,-1171.72 5019.2,-1168.61 5019.47,-1175.61"/>
<text text-anchor="middle" x="4949.87" y="-1175.94" font-family="Times,serif" font-size="14.00">Crow bar</text>
</g>
<!-- 45206&#45;&gt;45207 -->
<g id="edge140" class="edge">
<title>45206&#45;&gt;45207</title>
<path fill="none" stroke="black" d="M4827.67,-1087.69C4846.44,-1100.96 4866.58,-1112.84 4887.25,-1121.36 4901.03,-1127.04 4957.15,-1133.46 5019.56,-1139.11"/>
<polygon fill="black" stroke="black" points="5019.09,-1142.58 5029.36,-1139.98 5019.71,-1135.61 5019.09,-1142.58"/>
<text text-anchor="middle" x="4949.87" y="-1141.46" font-family="Times,serif" font-size="14.00">Improvised tool</text>
</g>
<!-- 45206&#45;&gt;45207 -->
<g id="edge141" class="edge">
<title>45206&#45;&gt;45207</title>
<path fill="none" stroke="black" d="M4846.05,-1063.95C4859.65,-1070.54 4873.52,-1076.51 4887.25,-1081.36 4940.36,-1100.15 4957.32,-1089.52 5012.5,-1100.86 5016.63,-1101.71 5020.81,-1102.59 5025.01,-1103.5"/>
<polygon fill="black" stroke="black" points="5024.21,-1106.9 5034.72,-1105.62 5025.7,-1100.07 5024.21,-1106.9"/>
<text text-anchor="middle" x="4949.87" y="-1104.06" font-family="Times,serif" font-size="14.00">Other: please specify</text>
</g>
<!-- 45206&#45;&gt;45207 -->
<g id="edge142" class="edge">
<title>45206&#45;&gt;45207</title>
<path fill="none" stroke="black" d="M4860.36,-1034.09C4869.41,-1036.72 4878.42,-1039.17 4887.25,-1041.36 4941.92,-1054.95 4958.48,-1044.87 5012.5,-1060.86 5020.79,-1063.32 5029.19,-1066.04 5037.6,-1068.95"/>
<polygon fill="black" stroke="black" points="5036.25,-1072.18 5046.84,-1072.23 5038.59,-1065.59 5036.25,-1072.18"/>
<text text-anchor="middle" x="4949.87" y="-1064.06" font-family="Times,serif" font-size="14.00">Not known</text>
</g>
<!-- 45207&#45;&gt;END_NODE -->
<g id="edge143" class="edge">
<title>45207&#45;&gt;END_NODE</title>
<path fill="none" stroke="#dddddd" d="M5411.15,-1188.16C5478.76,-1200.94 5540.12,-1213.56 5546.42,-1218.36 5560.65,-1229.21 5549.74,-1244.15 5564.42,-1254.36 5707.68,-1354.02 5812.86,-1195.29 5954.76,-1296.86 6041.91,-1359.24 6027.48,-1412.27 6056.76,-1515.36 6095.92,-1653.26 6104.98,-1824.04 6107.04,-1904.03"/>
<polygon fill="#dddddd" stroke="#dddddd" points="6103.53,-1903.73 6107.26,-1913.65 6110.53,-1903.57 6103.53,-1903.73"/>
<text text-anchor="middle" x="5759.59" y="-1300.06" font-family="Times,serif" font-size="14.00">Works department</text>
</g>
<!-- 45207&#45;&gt;END_NODE -->
<g id="edge144" class="edge">
<title>45207&#45;&gt;END_NODE</title>
<path fill="none" stroke="#dddddd" d="M5413.43,-1167.76C5457.58,-1173.49 5504.04,-1181.68 5546.42,-1193.36 5554.86,-1195.69 5555.94,-1199.19 5564.42,-1201.36 5733.07,-1244.54 5791.46,-1173.56 5954.76,-1233.86 6007.18,-1253.22 6029.35,-1258.67 6056.76,-1307.36 6085.87,-1359.08 6101.68,-1766.59 6106.22,-1904.17"/>
<polygon fill="#dddddd" stroke="#dddddd" points="6102.72,-1904.11 6106.54,-1913.99 6109.72,-1903.88 6102.72,-1904.11"/>
<text text-anchor="middle" x="5759.59" y="-1237.06" font-family="Times,serif" font-size="14.00">Contractors</text>
</g>
<!-- 45207&#45;&gt;END_NODE -->
<g id="edge145" class="edge">
<title>45207&#45;&gt;END_NODE</title>
<path fill="none" stroke="#dddddd" d="M5414.11,-1151.26C5596.29,-1150.11 5856.94,-1153.68 5954.76,-1180.86 6004.69,-1194.74 6028.88,-1193.68 6056.76,-1237.36 6092.55,-1293.43 6104.08,-1756.2 6106.87,-1904.1"/>
<polygon fill="#dddddd" stroke="#dddddd" points="6103.36,-1903.96 6107.05,-1913.9 6110.36,-1903.83 6103.36,-1903.96"/>
<text text-anchor="middle" x="5759.59" y="-1184.06" font-family="Times,serif" font-size="14.00">Education</text>
</g>
<!-- 45207&#45;&gt;END_NODE -->
<g id="edge146" class="edge">
<title>45207&#45;&gt;END_NODE</title>
<path fill="none" stroke="#dddddd" d="M5412.1,-1127.61C5636.08,-1101.13 5987.72,-1077.93 6056.76,-1181.36 6096.85,-1241.41 6105.5,-1747.43 6107.22,-1903.63"/>
<polygon fill="#dddddd" stroke="#dddddd" points="6103.72,-1903.64 6107.32,-1913.6 6110.72,-1903.56 6103.72,-1903.64"/>
<text text-anchor="middle" x="5759.59" y="-1126.72" font-family="Times,serif" font-size="14.00">Heathcare centre</text>
</g>
<!-- 45207&#45;&gt;END_NODE -->
<g id="edge147" class="edge">
<title>45207&#45;&gt;END_NODE</title>
<path fill="none" stroke="#dddddd" d="M5410.13,-1115.75C5417.41,-1114.26 5424.61,-1112.8 5431.67,-1111.36 5659.81,-1065.08 5726.5,-1039.21 5954.76,-1084.86 6002.92,-1094.5 6028.27,-1087.36 6056.76,-1127.36 6101.92,-1190.77 6107.05,-1741.14 6107.58,-1904.09"/>
<polygon fill="#dddddd" stroke="#dddddd" points="6104.07,-1903.64 6107.6,-1913.63 6111.07,-1903.62 6104.07,-1903.64"/>
<text text-anchor="middle" x="5759.59" y="-1088.06" font-family="Times,serif" font-size="14.00">Farms and gardens</text>
</g>
<!-- 45207&#45;&gt;END_NODE -->
<g id="edge148" class="edge">
<title>45207&#45;&gt;END_NODE</title>
<path fill="none" stroke="#dddddd" d="M5403.91,-1092.59C5413.3,-1089.45 5422.59,-1086.36 5431.67,-1083.36 5490.5,-1063.94 5503.22,-1050.42 5564.42,-1040.86 5735.83,-1014.1 5784.79,-1006.13 5954.76,-1040.86 6003.05,-1050.73 6028.4,-1044.06 6056.76,-1084.36 6104.08,-1151.61 6107.67,-1734.88 6107.71,-1903.74"/>
<polygon fill="#dddddd" stroke="#dddddd" points="6104.21,-1903.66 6107.71,-1913.66 6111.21,-1903.66 6104.21,-1903.66"/>
<text text-anchor="middle" x="5759.59" y="-1044.06" font-family="Times,serif" font-size="14.00">Staff</text>
</g>
<!-- 45207&#45;&gt;END_NODE -->
<g id="edge149" class="edge">
<title>45207&#45;&gt;END_NODE</title>
<path fill="none" stroke="#dddddd" d="M5389.38,-1059.99C5403.53,-1053.03 5417.75,-1046.39 5431.67,-1040.36 5645.77,-947.71 5726.2,-950.16 5954.76,-996.86 6003.05,-1006.73 6028.46,-1000.02 6056.76,-1040.36 6106.59,-1111.39 6108.36,-1729.33 6107.85,-1903.72"/>
<polygon fill="#dddddd" stroke="#dddddd" points="6104.35,-1903.5 6107.82,-1913.51 6111.35,-1903.52 6104.35,-1903.5"/>
<text text-anchor="middle" x="5759.59" y="-1000.06" font-family="Times,serif" font-size="14.00">Visitor</text>
</g>
<!-- 45207&#45;&gt;END_NODE -->
<g id="edge150" class="edge">
<title>45207&#45;&gt;END_NODE</title>
<path fill="none" stroke="#dddddd" d="M5369.11,-1030.85C5389.44,-1016.48 5410.6,-1002.88 5431.67,-991.36 5636.49,-879.44 5727.71,-890.8 5954.76,-944.86 6004.16,-956.63 6029,-953.84 6056.76,-996.36 6106.67,-1072.82 6108.34,-1724.14 6107.84,-1903.69"/>
<polygon fill="#dddddd" stroke="#dddddd" points="6104.34,-1903.54 6107.8,-1913.56 6111.34,-1903.57 6104.34,-1903.54"/>
<text text-anchor="middle" x="5759.59" y="-948.06" font-family="Times,serif" font-size="14.00">Other: specify</text>
</g>
<!-- 45207&#45;&gt;END_NODE -->
<g id="edge151" class="edge">
<title>45207&#45;&gt;END_NODE</title>
<path fill="none" stroke="#dddddd" d="M5344.75,-1006.91C5371.43,-980.35 5400.95,-954.69 5431.67,-934.36 5626.43,-805.52 5729.56,-823.1 5954.76,-884.86 6005.59,-898.81 6029.53,-900.24 6056.76,-945.36 6106.68,-1028.07 6108.29,-1718.6 6107.82,-1903.81"/>
<polygon fill="#dddddd" stroke="#dddddd" points="6104.32,-1903.74 6107.79,-1913.75 6111.32,-1903.76 6104.32,-1903.74"/>
<text text-anchor="middle" x="5759.59" y="-888.06" font-family="Times,serif" font-size="14.00">Not known</text>
</g>
<!-- 45207&#45;&gt;45208 -->
<g id="edge152" class="edge">
<title>45207&#45;&gt;45208</title>
<path fill="none" stroke="black" d="M5308.53,-1325.49C5340.78,-1374.36 5381.96,-1423.07 5431.67,-1455.36 5434.88,-1457.45 5491.33,-1468.41 5556.45,-1480.55"/>
<polygon fill="black" stroke="black" points="5555.44,-1483.92 5565.91,-1482.31 5556.72,-1477.04 5555.44,-1483.92"/>
<text text-anchor="middle" x="5489.05" y="-1480.83" font-family="Times,serif" font-size="14.00">Works department</text>
</g>
<!-- 45207&#45;&gt;45208 -->
<g id="edge153" class="edge">
<title>45207&#45;&gt;45208</title>
<path fill="none" stroke="black" d="M5323.28,-1317.36C5353.68,-1354.9 5390.19,-1390.92 5431.67,-1415.36 5476.24,-1441.63 5496.56,-1421.09 5546.42,-1434.86 5553.46,-1436.81 5560.59,-1438.9 5567.76,-1441.11"/>
<polygon fill="black" stroke="black" points="5566.25,-1444.31 5576.84,-1443.98 5568.35,-1437.63 5566.25,-1444.31"/>
<text text-anchor="middle" x="5489.05" y="-1438.06" font-family="Times,serif" font-size="14.00">Contractors</text>
</g>
<!-- 45207&#45;&gt;45208 -->
<g id="edge154" class="edge">
<title>45207&#45;&gt;45208</title>
<path fill="none" stroke="black" d="M5340.12,-1305.54C5367.46,-1332.47 5398.41,-1357.57 5431.67,-1375.36 5477.29,-1399.77 5497.76,-1377.32 5546.42,-1394.86 5558.61,-1399.26 5570.91,-1404.34 5583.11,-1409.89"/>
<polygon fill="black" stroke="black" points="5581.42,-1412.96 5591.96,-1414.01 5584.38,-1406.62 5581.42,-1412.96"/>
<text text-anchor="middle" x="5489.05" y="-1398.06" font-family="Times,serif" font-size="14.00">Education</text>
</g>
<!-- 45207&#45;&gt;45208 -->
<g id="edge155" class="edge">
<title>45207&#45;&gt;45208</title>
<path fill="none" stroke="black" d="M5358.11,-1289.48C5381.23,-1307.15 5406.1,-1323.28 5431.67,-1335.36 5478.44,-1357.47 5499,-1334.2 5546.42,-1354.86 5565.17,-1363.03 5583.75,-1373.2 5601.66,-1384.45"/>
<polygon fill="black" stroke="black" points="5599.38,-1387.15 5609.69,-1389.6 5603.16,-1381.25 5599.38,-1387.15"/>
<text text-anchor="middle" x="5489.05" y="-1358.06" font-family="Times,serif" font-size="14.00">Health care centre</text>
</g>
<!-- 45207&#45;&gt;45208 -->
<g id="edge156" class="edge">
<title>45207&#45;&gt;45208</title>
<path fill="none" stroke="black" d="M5376.51,-1268.4C5394.52,-1278.64 5413.11,-1287.92 5431.67,-1295.36 5479.69,-1314.62 5500.19,-1291.66 5546.42,-1314.86 5572.45,-1327.93 5597.44,-1345.26 5620.55,-1364.31"/>
<polygon fill="black" stroke="black" points="5618.25,-1366.95 5628.16,-1370.71 5622.76,-1361.59 5618.25,-1366.95"/>
<text text-anchor="middle" x="5489.05" y="-1318.06" font-family="Times,serif" font-size="14.00">Farms and gardens</text>
</g>
<!-- 45207&#45;&gt;45208 -->
<g id="edge157" class="edge">
<title>45207&#45;&gt;45208</title>
<path fill="none" stroke="black" d="M5393.09,-1241.44C5405.98,-1246.57 5418.93,-1251.29 5431.67,-1255.36 5480.94,-1271.13 5504.22,-1244.95 5546.42,-1274.86 5559.89,-1284.41 5554.75,-1293.98 5564.42,-1307.36 5579.7,-1328.5 5596.88,-1349.79 5614.54,-1370.3"/>
<polygon fill="black" stroke="black" points="5611.67,-1372.34 5620.87,-1377.59 5616.96,-1367.74 5611.67,-1372.34"/>
<text text-anchor="middle" x="5489.05" y="-1278.06" font-family="Times,serif" font-size="14.00">Staff</text>
</g>
<!-- 45207&#45;&gt;45208 -->
<g id="edge158" class="edge">
<title>45207&#45;&gt;45208</title>
<path fill="none" stroke="black" d="M5405.91,-1209.13C5414.6,-1211.33 5423.22,-1213.42 5431.67,-1215.36 5482.08,-1226.98 5508.5,-1199.68 5546.42,-1234.86 5570.76,-1257.44 5548.66,-1278.15 5564.42,-1307.36 5577.01,-1330.7 5592.8,-1353.43 5609.9,-1374.8"/>
<polygon fill="black" stroke="black" points="5607.05,-1376.85 5616.08,-1382.38 5612.47,-1372.42 5607.05,-1376.85"/>
<text text-anchor="middle" x="5489.05" y="-1238.06" font-family="Times,serif" font-size="14.00">Visitor</text>
</g>
<!-- 45207&#45;&gt;45208 -->
<g id="edge159" class="edge">
<title>45207&#45;&gt;45208</title>
<path fill="none" stroke="black" d="M5333.27,-1310.51C5362.63,-1357.38 5392.14,-1410.02 5413.67,-1461.36 5426.76,-1492.58 5405.06,-1514.45 5431.67,-1535.36 5452.53,-1551.75 5501.62,-1553.8 5555.59,-1549.79"/>
<polygon fill="black" stroke="black" points="5555.62,-1553.3 5565.3,-1549 5555.05,-1546.32 5555.62,-1553.3"/>
<text text-anchor="middle" x="5489.05" y="-1554.75" font-family="Times,serif" font-size="14.00">Other: please specify</text>
</g>
<!-- 45207&#45;&gt;45208 -->
<g id="edge160" class="edge">
<title>45207&#45;&gt;45208</title>
<path fill="none" stroke="black" d="M5326.08,-1315.62C5355.07,-1362.25 5386.18,-1413.49 5413.67,-1461.36 5422.19,-1476.19 5417.33,-1486.06 5431.67,-1495.36 5443.41,-1502.98 5494.44,-1507.99 5552.8,-1511.28"/>
<polygon fill="black" stroke="black" points="5552.49,-1514.77 5562.66,-1511.81 5552.86,-1507.78 5552.49,-1514.77"/>
<text text-anchor="middle" x="5489.05" y="-1513.83" font-family="Times,serif" font-size="14.00">Not known</text>
</g>
</g>
</svg>
