<?xml version="1.0" encoding="UTF-8" standalone="no"?>
<!DOCTYPE svg PUBLIC "-//W3C//DTD SVG 1.1//EN"
 "http://www.w3.org/Graphics/SVG/1.1/DTD/svg11.dtd">
<!-- Generated by graphviz version 12.1.1 (20240910.0053)
 -->
<!-- Title: KEY_LOCK_INCIDENT Pages: 1 -->
<svg width="6211pt" height="3676pt"
 viewBox="0.00 0.00 6211.39 3675.83" xmlns="http://www.w3.org/2000/svg" xmlns:xlink="http://www.w3.org/1999/xlink">
<g id="graph0" class="graph" transform="scale(1 1) rotate(0) translate(4 3671.83)">
<title>KEY_LOCK_INCIDENT</title>
<polygon fill="white" stroke="none" points="-4,4 -4,-3671.83 6207.39,-3671.83 6207.39,4 -4,4"/>
<!-- START_NODE -->
<g id="node1" class="node">
<title>START_NODE</title>
</g>
<!-- 45196 -->
<g id="node2" class="node">
<title>45196</title>
<ellipse fill="none" stroke="black" cx="253.14" cy="-2888.2" rx="139.89" ry="139.89"/>
<text text-anchor="middle" x="253.14" y="-2883.15" font-family="Times,serif" font-size="14.00">Describe the nature of the Incident</text>
</g>
<!-- START_NODE&#45;&gt;45196 -->
<g id="edge1" class="edge">
<title>START_NODE&#45;&gt;45196</title>
<path fill="none" stroke="black" d="M53.71,-2888.2C66.52,-2888.2 83.15,-2888.2 101.32,-2888.2"/>
<polygon fill="black" stroke="black" points="101.31,-2891.7 111.31,-2888.2 101.31,-2884.7 101.31,-2891.7"/>
<text text-anchor="middle" x="83.62" y="-2891.4" font-family="Times,serif" font-size="14.00">start</text>
</g>
<!-- END_NODE -->
<g id="node3" class="node">
<title>END_NODE</title>
<ellipse fill="none" stroke="black" cx="6169.54" cy="-1963.2" rx="29.86" ry="29.86"/>
<ellipse fill="none" stroke="black" cx="6169.54" cy="-1963.2" rx="33.86" ry="33.86"/>
<text text-anchor="middle" x="6169.54" y="-1958.15" font-family="Times,serif" font-size="14.00">END</text>
</g>
<!-- 45196&#45;&gt;END_NODE -->
<g id="edge2" class="edge">
<title>45196&#45;&gt;END_NODE</title>
<path fill="none" stroke="#dddddd" d="M265.41,-3027.91C283.48,-3212.89 325.92,-3524.18 411.04,-3596.2 581.22,-3740.21 689.03,-3622.2 911.97,-3622.2 911.97,-3622.2 911.97,-3622.2 5808.38,-3622.2 5946.33,-3622.2 6022.74,-3696.29 6117.68,-3596.2 6173.8,-3537.05 6170.13,-2266.43 6168.81,-2008.6"/>
<polygon fill="#dddddd" stroke="#dddddd" points="6172.31,-2008.93 6168.76,-1998.95 6165.31,-2008.97 6172.31,-2008.93"/>
<text text-anchor="middle" x="3235.69" y="-3625.4" font-family="Times,serif" font-size="14.00">Keys taken out of the establishment</text>
</g>
<!-- 45196&#45;&gt;END_NODE -->
<g id="edge3" class="edge">
<title>45196&#45;&gt;END_NODE</title>
<path fill="none" stroke="#dddddd" d="M267.43,-3027.57C287.29,-3202.99 331.22,-3489.52 411.04,-3556.2 453.81,-3591.94 856.24,-3582.2 911.97,-3582.2 911.97,-3582.2 911.97,-3582.2 5808.38,-3582.2 5877.36,-3582.2 6070.19,-3606.23 6117.68,-3556.2 6172.36,-3498.61 6169.87,-2262.88 6168.77,-2008.68"/>
<polygon fill="#dddddd" stroke="#dddddd" points="6172.27,-2008.82 6168.73,-1998.84 6165.27,-2008.85 6172.27,-2008.82"/>
<text text-anchor="middle" x="3235.69" y="-3585.4" font-family="Times,serif" font-size="14.00">Keys lost</text>
</g>
<!-- 45196&#45;&gt;END_NODE -->
<g id="edge4" class="edge">
<title>45196&#45;&gt;END_NODE</title>
<path fill="none" stroke="#dddddd" d="M269.73,-3027.55C291.39,-3193.16 336.54,-3454.86 411.04,-3516.2 454.06,-3551.63 856.24,-3542.2 911.97,-3542.2 911.97,-3542.2 911.97,-3542.2 5808.38,-3542.2 5877.36,-3542.2 6070.17,-3566.21 6117.68,-3516.2 6170.93,-3460.17 6169.59,-2259.23 6168.73,-2008.74"/>
<polygon fill="#dddddd" stroke="#dddddd" points="6172.23,-2009.04 6168.7,-1999.05 6165.23,-2009.06 6172.23,-2009.04"/>
<text text-anchor="middle" x="3235.69" y="-3545.4" font-family="Times,serif" font-size="14.00">Key left unattended in prison</text>
</g>
<!-- 45196&#45;&gt;END_NODE -->
<g id="edge5" class="edge">
<title>45196&#45;&gt;END_NODE</title>
<path fill="none" stroke="#dddddd" d="M272.26,-3026.99C295.65,-3182.45 341.77,-3420.08 411.04,-3476.2 497.65,-3546.38 800.5,-3502.2 911.97,-3502.2 911.97,-3502.2 911.97,-3502.2 5808.38,-3502.2 5877.36,-3502.2 6070.15,-3526.19 6117.68,-3476.2 6169.5,-3421.72 6169.31,-2255.28 6168.69,-2008.72"/>
<polygon fill="#dddddd" stroke="#dddddd" points="6172.19,-2008.86 6168.67,-1998.87 6165.19,-2008.88 6172.19,-2008.86"/>
<text text-anchor="middle" x="3235.69" y="-3505.4" font-family="Times,serif" font-size="14.00">Key issued to wrong person</text>
</g>
<!-- 45196&#45;&gt;END_NODE -->
<g id="edge6" class="edge">
<title>45196&#45;&gt;END_NODE</title>
<path fill="none" stroke="#dddddd" d="M275.19,-3026.78C300.29,-3171.78 347.04,-3385.31 411.04,-3436.2 498.28,-3505.59 800.5,-3462.2 911.97,-3462.2 911.97,-3462.2 911.97,-3462.2 5808.38,-3462.2 5877.36,-3462.2 6070.13,-3486.17 6117.68,-3436.2 6168.07,-3383.26 6169.03,-2251.22 6168.65,-2008.69"/>
<polygon fill="#dddddd" stroke="#dddddd" points="6172.15,-2009 6168.63,-1999.01 6165.15,-2009.02 6172.15,-2009"/>
<text text-anchor="middle" x="3235.69" y="-3465.4" font-family="Times,serif" font-size="14.00">Doors/Gates/Cell door left unlocked</text>
</g>
<!-- 45196&#45;&gt;END_NODE -->
<g id="edge7" class="edge">
<title>45196&#45;&gt;END_NODE</title>
<path fill="none" stroke="#dddddd" d="M278.46,-3026.05C305.18,-3160.22 352.23,-3350.41 411.04,-3396.2 498.99,-3464.68 800.5,-3422.2 911.97,-3422.2 911.97,-3422.2 911.97,-3422.2 5808.38,-3422.2 5877.36,-3422.2 6070.1,-3446.14 6117.68,-3396.2 6166.65,-3344.8 6168.73,-2246.87 6168.6,-2008.57"/>
<polygon fill="#dddddd" stroke="#dddddd" points="6172.1,-2008.76 6168.6,-1998.76 6165.1,-2008.76 6172.1,-2008.76"/>
<text text-anchor="middle" x="3235.69" y="-3425.4" font-family="Times,serif" font-size="14.00">Loss of handcuffs</text>
</g>
<!-- 45196&#45;&gt;END_NODE -->
<g id="edge8" class="edge">
<title>45196&#45;&gt;END_NODE</title>
<path fill="none" stroke="#dddddd" d="M260.59,-3028.22C273.69,-3136.28 310.47,-3279.81 411.04,-3356.2 499.8,-3423.63 800.5,-3382.2 911.97,-3382.2 911.97,-3382.2 911.97,-3382.2 5808.38,-3382.2 5877.36,-3382.2 6070.08,-3406.12 6117.68,-3356.2 6165.21,-3306.37 6168.43,-2243.46 6168.55,-2008.79"/>
<polygon fill="#dddddd" stroke="#dddddd" points="6172.05,-2008.82 6168.56,-1998.82 6165.05,-2008.82 6172.05,-2008.82"/>
<text text-anchor="middle" x="3235.69" y="-3385.4" font-family="Times,serif" font-size="14.00">Loss of escort chain</text>
</g>
<!-- 45196&#45;&gt;END_NODE -->
<g id="edge9" class="edge">
<title>45196&#45;&gt;END_NODE</title>
<path fill="none" stroke="#dddddd" d="M266.02,-3027.8C282.29,-3125.31 320.69,-3249.54 411.04,-3316.2 500.74,-3382.38 800.5,-3342.2 911.97,-3342.2 911.97,-3342.2 911.97,-3342.2 5808.38,-3342.2 5877.36,-3342.2 6070.05,-3366.09 6117.68,-3316.2 6163.8,-3267.9 6168.12,-2238.75 6168.5,-2008.59"/>
<polygon fill="#dddddd" stroke="#dddddd" points="6172,-2008.84 6168.52,-1998.83 6165,-2008.83 6172,-2008.84"/>
<text text-anchor="middle" x="3235.69" y="-3345.4" font-family="Times,serif" font-size="14.00">Other handcuff key/lock issues</text>
</g>
<!-- 45196&#45;&gt;END_NODE -->
<g id="edge10" class="edge">
<title>45196&#45;&gt;END_NODE</title>
<path fill="none" stroke="#dddddd" d="M272.41,-3027.19C291.61,-3113.71 330.86,-3219.06 411.04,-3276.2 501.81,-3340.9 800.5,-3302.2 911.97,-3302.2 911.97,-3302.2 911.97,-3302.2 5808.38,-3302.2 5877.36,-3302.2 6070.02,-3326.07 6117.68,-3276.2 6162.37,-3229.45 6167.79,-2234.84 6168.45,-2008.68"/>
<polygon fill="#dddddd" stroke="#dddddd" points="6171.95,-2008.81 6168.48,-1998.8 6164.95,-2008.79 6171.95,-2008.81"/>
<text text-anchor="middle" x="3235.69" y="-3305.4" font-family="Times,serif" font-size="14.00">Broken/Damaged keys</text>
</g>
<!-- 45196&#45;&gt;END_NODE -->
<g id="edge11" class="edge">
<title>45196&#45;&gt;END_NODE</title>
<path fill="none" stroke="#dddddd" d="M279.94,-3025.86C301.63,-3101 340.87,-3188.24 411.04,-3236.2 503.07,-3299.1 800.5,-3262.2 911.97,-3262.2 911.97,-3262.2 911.97,-3262.2 5808.38,-3262.2 5877.36,-3262.2 6069.99,-3286.04 6117.68,-3236.2 6160.95,-3191 6167.46,-2230.74 6168.39,-2008.73"/>
<polygon fill="#dddddd" stroke="#dddddd" points="6171.89,-2009.06 6168.43,-1999.05 6164.89,-2009.03 6171.89,-2009.06"/>
<text text-anchor="middle" x="3235.69" y="-3265.4" font-family="Times,serif" font-size="14.00">Worn locks (not malicious)</text>
</g>
<!-- 45196&#45;&gt;END_NODE -->
<g id="edge12" class="edge">
<title>45196&#45;&gt;END_NODE</title>
<path fill="none" stroke="#dddddd" d="M288.94,-3023.82C312.55,-3087.16 350.76,-3157.08 411.04,-3196.2 504.54,-3256.89 800.5,-3222.2 911.97,-3222.2 911.97,-3222.2 911.97,-3222.2 5808.38,-3222.2 5877.36,-3222.2 6069.96,-3246.01 6117.68,-3196.2 6159.53,-3152.53 6167.12,-2226.29 6168.33,-2008.68"/>
<polygon fill="#dddddd" stroke="#dddddd" points="6171.83,-2008.93 6168.38,-1998.91 6164.83,-2008.89 6171.83,-2008.93"/>
<text text-anchor="middle" x="3235.69" y="-3225.4" font-family="Times,serif" font-size="14.00">Malicious damage to/blockage of locks</text>
</g>
<!-- 45196&#45;&gt;END_NODE -->
<g id="edge13" class="edge">
<title>45196&#45;&gt;END_NODE</title>
<path fill="none" stroke="#dddddd" d="M299.76,-3020.56C324.44,-3071.81 360.49,-3125.45 411.04,-3156.2 506.27,-3214.13 800.5,-3182.2 911.97,-3182.2 911.97,-3182.2 911.97,-3182.2 5808.38,-3182.2 5877.36,-3182.2 6069.93,-3205.97 6117.68,-3156.2 6158.09,-3114.09 6166.76,-2222.54 6168.26,-2008.91"/>
<polygon fill="#dddddd" stroke="#dddddd" points="6171.76,-2009.07 6168.33,-1999.04 6164.76,-2009.02 6171.76,-2009.07"/>
<text text-anchor="middle" x="3235.69" y="-3185.4" font-family="Times,serif" font-size="14.00">Lock picked</text>
</g>
<!-- 45196&#45;&gt;END_NODE -->
<g id="edge14" class="edge">
<title>45196&#45;&gt;END_NODE</title>
<path fill="none" stroke="#dddddd" d="M312.7,-3015.28C337.32,-3054.42 369.94,-3093.22 411.04,-3116.2 508.32,-3170.62 800.5,-3142.2 911.97,-3142.2 911.97,-3142.2 911.97,-3142.2 5808.38,-3142.2 5877.32,-3142.2 6069.76,-3167.76 6117.68,-3118.2 6156.89,-3077.67 6166.45,-2217.99 6168.2,-2008.79"/>
<polygon fill="#dddddd" stroke="#dddddd" points="6171.7,-2008.89 6168.28,-1998.87 6164.7,-2008.84 6171.7,-2008.89"/>
<text text-anchor="middle" x="3235.69" y="-3145.4" font-family="Times,serif" font-size="14.00">Part of lock removed</text>
</g>
<!-- 45196&#45;&gt;END_NODE -->
<g id="edge15" class="edge">
<title>45196&#45;&gt;END_NODE</title>
<path fill="none" stroke="#dddddd" d="M327.78,-3006.65C350.89,-3034.2 378.91,-3060.14 411.04,-3076.2 510.74,-3126.05 800.5,-3102.2 911.97,-3102.2 911.97,-3102.2 911.97,-3102.2 2902.17,-3102.2 3269.08,-3102.2 3360.81,-3104.2 3727.72,-3104.2 3727.72,-3104.2 3727.72,-3104.2 5808.38,-3104.2 5877.32,-3104.2 6069.72,-3129.72 6117.68,-3080.2 6155.53,-3041.13 6166.09,-2214.06 6168.13,-2008.93"/>
<polygon fill="#dddddd" stroke="#dddddd" points="6171.63,-2008.97 6168.23,-1998.94 6164.63,-2008.9 6171.63,-2008.97"/>
<text text-anchor="middle" x="3235.69" y="-3106.78" font-family="Times,serif" font-size="14.00">Complete lock removed</text>
</g>
<!-- 45196&#45;&gt;END_NODE -->
<g id="edge16" class="edge">
<title>45196&#45;&gt;END_NODE</title>
<path fill="none" stroke="#dddddd" d="M345.39,-2993.86C365.26,-3010.84 387.45,-3026.12 411.04,-3036.2 513.53,-3080.03 800.5,-3062.2 911.97,-3062.2 911.97,-3062.2 911.97,-3062.2 2902.17,-3062.2 3269.08,-3062.2 3360.8,-3066.2 3727.72,-3066.2 3727.72,-3066.2 3727.72,-3066.2 5808.38,-3066.2 5877.32,-3066.2 6069.68,-3091.69 6117.68,-3042.2 6154.19,-3004.57 6165.73,-2209.03 6168.06,-2008.68"/>
<polygon fill="#dddddd" stroke="#dddddd" points="6171.55,-2008.98 6168.17,-1998.94 6164.55,-2008.9 6171.55,-2008.98"/>
<text text-anchor="middle" x="3235.69" y="-3068.16" font-family="Times,serif" font-size="14.00">Electronics overcome (electronic door)</text>
</g>
<!-- 45196&#45;&gt;END_NODE -->
<g id="edge17" class="edge">
<title>45196&#45;&gt;END_NODE</title>
<path fill="none" stroke="#dddddd" d="M363.67,-2974.37C378.93,-2983.08 394.91,-2990.73 411.04,-2996.2 516.59,-3032.05 800.5,-3022.2 911.97,-3022.2 911.97,-3022.2 911.97,-3022.2 2902.17,-3022.2 3269.09,-3022.2 3360.8,-3028.2 3727.72,-3028.2 3727.72,-3028.2 3727.72,-3028.2 5808.38,-3028.2 5877.32,-3028.2 6069.64,-3053.64 6117.68,-3004.2 6152.84,-2968.02 6165.34,-2204.5 6167.98,-2008.66"/>
<polygon fill="#dddddd" stroke="#dddddd" points="6171.47,-2008.93 6168.11,-1998.89 6164.47,-2008.84 6171.47,-2008.93"/>
<text text-anchor="middle" x="3235.69" y="-3029.54" font-family="Times,serif" font-size="14.00">Electronics failure (electronic door)</text>
</g>
<!-- 45196&#45;&gt;END_NODE -->
<g id="edge18" class="edge">
<title>45196&#45;&gt;END_NODE</title>
<path fill="none" stroke="#dddddd" d="M380.43,-2947.43C390.64,-2950.84 400.92,-2953.83 411.04,-2956.2 628.08,-3007.12 689.03,-2982.2 911.97,-2982.2 911.97,-2982.2 911.97,-2982.2 2902.17,-2982.2 3269.1,-2982.2 3360.79,-2990.2 3727.72,-2990.2 3727.72,-2990.2 3727.72,-2990.2 5808.38,-2990.2 5877.32,-2990.2 6069.59,-3015.6 6117.68,-2966.2 6151.51,-2931.46 6164.95,-2199.65 6167.89,-2008.53"/>
<polygon fill="#dddddd" stroke="#dddddd" points="6171.39,-2008.82 6168.04,-1998.77 6164.39,-2008.71 6171.39,-2008.82"/>
<text text-anchor="middle" x="3235.69" y="-2990.91" font-family="Times,serif" font-size="14.00">Replica key found/used</text>
</g>
<!-- 45196&#45;&gt;END_NODE -->
<g id="edge19" class="edge">
<title>45196&#45;&gt;END_NODE</title>
<path fill="none" stroke="#dddddd" d="M390.45,-2915.46C397.4,-2916.48 404.29,-2917.4 411.04,-2918.2 632.37,-2944.53 689.08,-2942.2 911.97,-2942.2 911.97,-2942.2 911.97,-2942.2 2902.17,-2942.2 3269.11,-2942.2 3360.78,-2952.2 3727.72,-2952.2 3727.72,-2952.2 3727.72,-2952.2 5808.38,-2952.2 5877.32,-2952.2 6069.54,-2977.55 6117.68,-2928.2 6150.15,-2894.92 6164.53,-2195.27 6167.79,-2008.63"/>
<polygon fill="#dddddd" stroke="#dddddd" points="6171.29,-2008.91 6167.96,-1998.85 6164.29,-2008.79 6171.29,-2008.91"/>
<text text-anchor="middle" x="3235.69" y="-2952.29" font-family="Times,serif" font-size="14.00">Key viewed by prisoner</text>
</g>
<!-- 45196&#45;&gt;END_NODE -->
<g id="edge20" class="edge">
<title>45196&#45;&gt;END_NODE</title>
<path fill="none" stroke="#dddddd" d="M393.36,-2893.55C526.49,-2898.21 732.9,-2904.2 911.97,-2904.2 911.97,-2904.2 911.97,-2904.2 2732.65,-2904.2 3174.92,-2904.2 3285.44,-2914.2 3727.72,-2914.2 3727.72,-2914.2 3727.72,-2914.2 5808.38,-2914.2 5947.17,-2914.2 6023.66,-2973.29 6117.68,-2871.2 6147.17,-2839.19 6163.6,-2188.43 6167.58,-2008.79"/>
<polygon fill="#dddddd" stroke="#dddddd" points="6171.08,-2008.99 6167.8,-1998.92 6164.08,-2008.84 6171.08,-2008.99"/>
<text text-anchor="middle" x="3235.69" y="-2915.38" font-family="Times,serif" font-size="14.00">Other: (anything else including prisoner grabbing key chain, etc)</text>
</g>
<!-- 45197 -->
<g id="node4" class="node">
<title>45197</title>
<ellipse fill="none" stroke="black" cx="912.97" cy="-2232.2" rx="130.68" ry="130.68"/>
<text text-anchor="middle" x="912.97" y="-2227.15" font-family="Times,serif" font-size="14.00">Describe the type of key or lock</text>
</g>
<!-- 45196&#45;&gt;45197 -->
<g id="edge21" class="edge">
<title>45196&#45;&gt;45197</title>
<path fill="none" stroke="black" d="M392.72,-2875.2C398.91,-2874.68 405.04,-2874.18 411.04,-2873.7 450.25,-2870.59 734.24,-2875.59 764.29,-2850.2 836.01,-2789.63 877.65,-2536.39 897.5,-2373.48"/>
<polygon fill="black" stroke="black" points="900.93,-2374.24 898.65,-2363.9 893.98,-2373.41 900.93,-2374.24"/>
<text text-anchor="middle" x="587.66" y="-2876.9" font-family="Times,serif" font-size="14.00">Keys taken out of the establishment</text>
</g>
<!-- 45196&#45;&gt;45197 -->
<g id="edge22" class="edge">
<title>45196&#45;&gt;45197</title>
<path fill="none" stroke="black" d="M383.38,-2836.59C392.65,-2833.95 401.93,-2831.61 411.04,-2829.7 449.52,-2821.66 733.92,-2835.16 764.29,-2810.2 831.08,-2755.31 873.56,-2526.2 895.04,-2373.44"/>
<polygon fill="black" stroke="black" points="898.49,-2374.01 896.4,-2363.62 891.56,-2373.05 898.49,-2374.01"/>
<text text-anchor="middle" x="587.66" y="-2832.9" font-family="Times,serif" font-size="14.00">Keys lost</text>
</g>
<!-- 45196&#45;&gt;45197 -->
<g id="edge23" class="edge">
<title>45196&#45;&gt;45197</title>
<path fill="none" stroke="black" d="M367.87,-2807.83C381.92,-2800.64 396.48,-2794.33 411.04,-2789.7 448.5,-2777.79 733.7,-2794.89 764.29,-2770.2 825.9,-2720.48 869.05,-2514.84 892.19,-2372.71"/>
<polygon fill="black" stroke="black" points="895.58,-2373.66 893.72,-2363.23 888.67,-2372.55 895.58,-2373.66"/>
<text text-anchor="middle" x="587.66" y="-2792.9" font-family="Times,serif" font-size="14.00">Key left unattended in prison</text>
</g>
<!-- 45196&#45;&gt;45197 -->
<g id="edge24" class="edge">
<title>45196&#45;&gt;45197</title>
<path fill="none" stroke="black" d="M349.78,-2786.58C368.64,-2771.8 389.36,-2758.6 411.04,-2749.7 447.41,-2734.79 733.45,-2754.58 764.29,-2730.2 820.67,-2685.64 864.1,-2503.51 888.84,-2372.4"/>
<polygon fill="black" stroke="black" points="892.21,-2373.42 890.6,-2362.95 885.33,-2372.14 892.21,-2373.42"/>
<text text-anchor="middle" x="587.66" y="-2752.9" font-family="Times,serif" font-size="14.00">Key issued to wrong person</text>
</g>
<!-- 45196&#45;&gt;45197 -->
<g id="edge25" class="edge">
<title>45196&#45;&gt;45197</title>
<path fill="none" stroke="black" d="M331.72,-2772.49C354.24,-2747.55 380.98,-2724.31 411.04,-2709.7 481.75,-2675.33 702.04,-2738.22 764.29,-2690.2 860.11,-2616.29 894.78,-2479.4 906.82,-2374.45"/>
<polygon fill="black" stroke="black" points="910.28,-2374.94 907.88,-2364.62 903.32,-2374.18 910.28,-2374.94"/>
<text text-anchor="middle" x="587.66" y="-2712.9" font-family="Times,serif" font-size="14.00">Doors/Gates/cell door left unlocked</text>
</g>
<!-- 45196&#45;&gt;45197 -->
<g id="edge26" class="edge">
<title>45196&#45;&gt;45197</title>
<path fill="none" stroke="black" d="M316.1,-2762.95C340.5,-2726.63 372.14,-2691.04 411.04,-2669.7 479.97,-2631.9 701.38,-2697.35 764.29,-2650.2 849.95,-2586 886.13,-2468.16 901.3,-2373.93"/>
<polygon fill="black" stroke="black" points="904.76,-2374.47 902.82,-2364.06 897.84,-2373.41 904.76,-2374.47"/>
<text text-anchor="middle" x="587.66" y="-2672.9" font-family="Times,serif" font-size="14.00">Loss of handcuffs</text>
</g>
<!-- 45196&#45;&gt;45197 -->
<g id="edge27" class="edge">
<title>45196&#45;&gt;45197</title>
<path fill="none" stroke="black" d="M302.59,-2757.13C327.39,-2708.73 362.75,-2658.66 411.04,-2629.7 478.46,-2589.27 700.61,-2656.31 764.29,-2610.2 839.79,-2555.53 876.7,-2456.4 894.74,-2373.37"/>
<polygon fill="black" stroke="black" points="898.12,-2374.28 896.74,-2363.77 891.27,-2372.84 898.12,-2374.28"/>
<text text-anchor="middle" x="587.66" y="-2632.9" font-family="Times,serif" font-size="14.00">Loss of escort chain</text>
</g>
<!-- 45196&#45;&gt;45197 -->
<g id="edge28" class="edge">
<title>45196&#45;&gt;45197</title>
<path fill="none" stroke="black" d="M291.4,-2753.28C315.36,-2692.82 353.16,-2626.88 411.04,-2589.7 477.19,-2547.21 699.71,-2615.05 764.29,-2570.2 829.83,-2524.69 866.55,-2443.41 886.99,-2371.96"/>
<polygon fill="black" stroke="black" points="890.31,-2373.07 889.6,-2362.5 883.57,-2371.2 890.31,-2373.07"/>
<text text-anchor="middle" x="587.66" y="-2592.9" font-family="Times,serif" font-size="14.00">Other handcuff key/lock issues</text>
</g>
<!-- 45196&#45;&gt;45197 -->
<g id="edge29" class="edge">
<title>45196&#45;&gt;45197</title>
<path fill="none" stroke="black" d="M282.04,-2750.86C304.28,-2678.56 343.36,-2595.6 411.04,-2549.7 476.1,-2505.57 698.65,-2573.48 764.29,-2530.2 819.88,-2493.55 855.36,-2429.44 877.56,-2370.06"/>
<polygon fill="black" stroke="black" points="880.78,-2371.44 880.9,-2360.84 874.2,-2369.05 880.78,-2371.44"/>
<text text-anchor="middle" x="587.66" y="-2552.9" font-family="Times,serif" font-size="14.00">Broken/Damaged keys</text>
</g>
<!-- 45196&#45;&gt;45197 -->
<g id="edge30" class="edge">
<title>45196&#45;&gt;45197</title>
<path fill="none" stroke="black" d="M274.09,-2749.8C293.93,-2665.94 333.27,-2564.82 411.04,-2509.7 475.18,-2464.25 697.39,-2531.5 764.29,-2490.2 810.11,-2461.92 843.12,-2413.83 866.14,-2366.78"/>
<polygon fill="black" stroke="black" points="869.27,-2368.35 870.4,-2357.81 862.94,-2365.34 869.27,-2368.35"/>
<text text-anchor="middle" x="587.66" y="-2512.9" font-family="Times,serif" font-size="14.00">Worn locks (not malicious)</text>
</g>
<!-- 45196&#45;&gt;45197 -->
<g id="edge31" class="edge">
<title>45196&#45;&gt;45197</title>
<path fill="none" stroke="black" d="M267.53,-2748.67C284.57,-2653.79 323.26,-2534.19 411.04,-2469.7 474.4,-2423.16 695.88,-2488.94 764.29,-2450.2 800.8,-2429.53 830.12,-2395.65 852.71,-2360.69"/>
<polygon fill="black" stroke="black" points="855.44,-2362.92 857.8,-2352.59 849.51,-2359.19 855.44,-2362.92"/>
<text text-anchor="middle" x="587.66" y="-2472.9" font-family="Times,serif" font-size="14.00">Malicious damage to/blockage of locks</text>
</g>
<!-- 45196&#45;&gt;45197 -->
<g id="edge32" class="edge">
<title>45196&#45;&gt;45197</title>
<path fill="none" stroke="black" d="M261.88,-2748.34C275.79,-2642.8 313.03,-2503.92 411.04,-2429.7 473.72,-2382.24 694.08,-2445.58 764.29,-2410.2 791.6,-2396.45 815.72,-2375.12 836.15,-2351.95"/>
<polygon fill="black" stroke="black" points="838.69,-2354.37 842.52,-2344.5 833.36,-2349.83 838.69,-2354.37"/>
<text text-anchor="middle" x="587.66" y="-2432.9" font-family="Times,serif" font-size="14.00">Lock picked</text>
</g>
<!-- 45196&#45;&gt;45197 -->
<g id="edge33" class="edge">
<title>45196&#45;&gt;45197</title>
<path fill="none" stroke="black" d="M279.35,-2750.49C306.47,-2618.98 353.54,-2434.38 411.04,-2389.7 442.08,-2365.59 728.13,-2385.63 764.29,-2370.2 783.25,-2362.11 801.29,-2350.46 817.83,-2337.32"/>
<polygon fill="black" stroke="black" points="819.67,-2340.34 825.17,-2331.28 815.22,-2334.93 819.67,-2340.34"/>
<text text-anchor="middle" x="587.66" y="-2392.9" font-family="Times,serif" font-size="14.00">Part of lock removed</text>
</g>
<!-- 45196&#45;&gt;45197 -->
<g id="edge34" class="edge">
<title>45196&#45;&gt;45197</title>
<path fill="none" stroke="black" d="M275.97,-2749.77C301.49,-2607.35 348.37,-2399.48 411.04,-2349.7 441.82,-2325.26 726.98,-2342.59 764.29,-2330.2 775.69,-2326.42 787.05,-2321.51 798.12,-2315.9"/>
<polygon fill="black" stroke="black" points="799.65,-2319.05 806.85,-2311.28 796.38,-2312.87 799.65,-2319.05"/>
<text text-anchor="middle" x="587.66" y="-2352.9" font-family="Times,serif" font-size="14.00">Complete lock removed</text>
</g>
<!-- 45196&#45;&gt;45197 -->
<g id="edge35" class="edge">
<title>45196&#45;&gt;45197</title>
<path fill="none" stroke="black" d="M272.99,-2749.28C296.83,-2596.31 343.15,-2364.66 411.04,-2309.7 441.59,-2284.97 725.88,-2298.58 764.29,-2290.2 769.86,-2288.99 775.51,-2287.59 781.16,-2286.04"/>
<polygon fill="black" stroke="black" points="781.96,-2289.46 790.6,-2283.32 780.02,-2282.73 781.96,-2289.46"/>
<text text-anchor="middle" x="587.66" y="-2312.9" font-family="Times,serif" font-size="14.00">Electronics overcome (electronic door)</text>
</g>
<!-- 45196&#45;&gt;45197 -->
<g id="edge36" class="edge">
<title>45196&#45;&gt;45197</title>
<path fill="none" stroke="black" d="M270.32,-2749.19C292.41,-2586.02 337.86,-2329.95 411.04,-2269.7 441.39,-2244.72 725.13,-2253.67 764.29,-2250.2 766.8,-2249.98 769.33,-2249.75 771.88,-2249.51"/>
<polygon fill="black" stroke="black" points="772.03,-2253.01 781.65,-2248.56 771.35,-2246.05 772.03,-2253.01"/>
<text text-anchor="middle" x="587.66" y="-2272.9" font-family="Times,serif" font-size="14.00">Electronics failure (electronic door)</text>
</g>
<!-- 45196&#45;&gt;45197 -->
<g id="edge37" class="edge">
<title>45196&#45;&gt;45197</title>
<path fill="none" stroke="black" d="M267.38,-2748.68C287.09,-2574.91 330.74,-2293.12 411.04,-2229.7 438.74,-2207.83 632.78,-2214.7 771.04,-2222.66"/>
<polygon fill="black" stroke="black" points="770.44,-2226.13 780.63,-2223.22 770.85,-2219.15 770.44,-2226.13"/>
<text text-anchor="middle" x="587.66" y="-2232.9" font-family="Times,serif" font-size="14.00">Replica key found/used</text>
</g>
<!-- 45196&#45;&gt;45197 -->
<g id="edge38" class="edge">
<title>45196&#45;&gt;45197</title>
<path fill="none" stroke="black" d="M265.55,-2748.39C283.66,-2566.16 325.99,-2262.66 411.04,-2194.7 472.37,-2145.7 686.39,-2184.97 764.29,-2194.7 767.96,-2195.16 771.68,-2195.68 775.42,-2196.26"/>
<polygon fill="black" stroke="black" points="774.76,-2199.7 785.2,-2197.89 775.91,-2192.79 774.76,-2199.7"/>
<text text-anchor="middle" x="587.66" y="-2197.9" font-family="Times,serif" font-size="14.00">Key viewed by prisoner</text>
</g>
<!-- 45196&#45;&gt;45197 -->
<g id="edge39" class="edge">
<title>45196&#45;&gt;45197</title>
<path fill="none" stroke="black" d="M263.41,-2748.4C279.43,-2555.64 319.81,-2223.59 411.04,-2149.7 533.05,-2050.89 612.35,-2110.14 764.29,-2149.7 773.28,-2152.04 782.3,-2155.07 791.21,-2158.56"/>
<polygon fill="black" stroke="black" points="789.63,-2161.7 800.21,-2162.3 792.31,-2155.23 789.63,-2161.7"/>
<text text-anchor="middle" x="587.66" y="-2152.9" font-family="Times,serif" font-size="14.00">Other &#160;(anything else including prisoner grabbing key chain, etc)</text>
</g>
<!-- 45197&#45;&gt;END_NODE -->
<g id="edge40" class="edge">
<title>45197&#45;&gt;END_NODE</title>
<path fill="none" stroke="#dddddd" d="M914.44,-2101.16C919.61,-1626.55 968.73,-25.2 1396.36,-25.2 1396.36,-25.2 1396.36,-25.2 5808.38,-25.2 5946.45,-25.2 6023.37,46.63 6117.68,-54.2 6150.56,-89.36 6165.64,-1632.35 6168.16,-1917.98"/>
<polygon fill="#dddddd" stroke="#dddddd" points="6164.65,-1917.64 6168.24,-1927.61 6171.65,-1917.58 6164.65,-1917.64"/>
<text text-anchor="middle" x="3553.83" y="-28.4" font-family="Times,serif" font-size="14.00">Class 1 pass key</text>
</g>
<!-- 45197&#45;&gt;END_NODE -->
<g id="edge41" class="edge">
<title>45197&#45;&gt;END_NODE</title>
<path fill="none" stroke="#dddddd" d="M928.68,-2362.2C949.28,-2519.11 992.18,-2769.53 1061.65,-2830.2 1174.34,-2928.62 1246.74,-2866.2 1396.36,-2866.2 1396.36,-2866.2 1396.36,-2866.2 2732.65,-2866.2 3174.9,-2866.2 3285.46,-2869.2 3727.72,-2869.2 3727.72,-2869.2 3727.72,-2869.2 5808.38,-2869.2 5946.94,-2869.2 6023.04,-2931.4 6117.68,-2830.2 6145.97,-2799.96 6163.16,-2183.06 6167.47,-2008.73"/>
<polygon fill="#dddddd" stroke="#dddddd" points="6170.96,-2009.02 6167.71,-1998.94 6163.96,-2008.85 6170.96,-2009.02"/>
<text text-anchor="middle" x="3553.83" y="-2872.39" font-family="Times,serif" font-size="14.00">Class 2 pass key</text>
</g>
<!-- 45197&#45;&gt;END_NODE -->
<g id="edge42" class="edge">
<title>45197&#45;&gt;END_NODE</title>
<path fill="none" stroke="#dddddd" d="M932.16,-2361.76C955.09,-2505.22 999.22,-2723.42 1061.65,-2777.2 1118.39,-2826.08 1321.48,-2816.2 1396.36,-2816.2 1396.36,-2816.2 1396.36,-2816.2 5808.38,-2816.2 5877.66,-2816.2 6070.26,-2827.71 6117.68,-2777.2 6170.45,-2721 6170.24,-2171.37 6169,-2008.47"/>
<polygon fill="#dddddd" stroke="#dddddd" points="6172.51,-2008.91 6168.93,-1998.94 6165.51,-2008.97 6172.51,-2008.91"/>
<text text-anchor="middle" x="3553.83" y="-2819.4" font-family="Times,serif" font-size="14.00">Cell key</text>
</g>
<!-- 45197&#45;&gt;END_NODE -->
<g id="edge43" class="edge">
<title>45197&#45;&gt;END_NODE</title>
<path fill="none" stroke="#dddddd" d="M936.17,-2361.04C961.24,-2490.53 1005.91,-2677.48 1061.65,-2724.2 1119.04,-2772.31 1321.48,-2763.2 1396.36,-2763.2 1396.36,-2763.2 1396.36,-2763.2 5808.38,-2763.2 5877.66,-2763.2 6070.16,-2774.61 6117.68,-2724.2 6166.82,-2672.09 6169.23,-2164.48 6168.79,-2008.54"/>
<polygon fill="#dddddd" stroke="#dddddd" points="6172.29,-2008.58 6168.76,-1998.59 6165.29,-2008.6 6172.29,-2008.58"/>
<text text-anchor="middle" x="3553.83" y="-2766.4" font-family="Times,serif" font-size="14.00">Class 3 A1 Suite key</text>
</g>
<!-- 45197&#45;&gt;END_NODE -->
<g id="edge44" class="edge">
<title>45197&#45;&gt;END_NODE</title>
<path fill="none" stroke="#dddddd" d="M921.58,-2362.96C934.82,-2463.3 969.9,-2596.84 1061.65,-2671.2 1119.83,-2718.36 1321.48,-2710.2 1396.36,-2710.2 1396.36,-2710.2 1396.36,-2710.2 5808.38,-2710.2 5877.66,-2710.2 6070.03,-2721.49 6117.68,-2671.2 6163.18,-2623.2 6168.13,-2157.79 6168.55,-2008.82"/>
<polygon fill="#dddddd" stroke="#dddddd" points="6172.05,-2008.95 6168.57,-1998.94 6165.05,-2008.93 6172.05,-2008.95"/>
<text text-anchor="middle" x="3553.83" y="-2713.4" font-family="Times,serif" font-size="14.00">Class 3 Accountable key</text>
</g>
<!-- 45197&#45;&gt;END_NODE -->
<g id="edge45" class="edge">
<title>45197&#45;&gt;END_NODE</title>
<path fill="none" stroke="#dddddd" d="M928.97,-2362.03C946.13,-2448.46 982.9,-2557 1061.65,-2618.2 1120.78,-2664.16 1321.48,-2657.2 1396.36,-2657.2 1396.36,-2657.2 1396.36,-2657.2 5808.38,-2657.2 5877.66,-2657.2 6069.88,-2668.35 6117.68,-2618.2 6159.59,-2574.24 6166.97,-2149.95 6168.26,-2008.69"/>
<polygon fill="#dddddd" stroke="#dddddd" points="6171.76,-2009.01 6168.35,-1998.98 6164.76,-2008.95 6171.76,-2009.01"/>
<text text-anchor="middle" x="3553.83" y="-2660.4" font-family="Times,serif" font-size="14.00">Handcuff key</text>
</g>
<!-- 45197&#45;&gt;END_NODE -->
<g id="edge46" class="edge">
<title>45197&#45;&gt;END_NODE</title>
<path fill="none" stroke="#dddddd" d="M938.32,-2360.62C958.83,-2432.33 995.83,-2516.74 1061.65,-2565.2 1182.25,-2654 1246.59,-2604.2 1396.36,-2604.2 1396.36,-2604.2 1396.36,-2604.2 5808.38,-2604.2 5877.66,-2604.2 6069.71,-2615.19 6117.68,-2565.2 6156.02,-2525.26 6165.71,-2141.74 6167.93,-2008.53"/>
<polygon fill="#dddddd" stroke="#dddddd" points="6171.43,-2008.73 6168.09,-1998.68 6164.43,-2008.62 6171.43,-2008.73"/>
<text text-anchor="middle" x="3553.83" y="-2607.4" font-family="Times,serif" font-size="14.00">Escort Chain key</text>
</g>
<!-- 45197&#45;&gt;END_NODE -->
<g id="edge47" class="edge">
<title>45197&#45;&gt;END_NODE</title>
<path fill="none" stroke="#dddddd" d="M950.25,-2357.7C973.05,-2413.99 1008.49,-2475.78 1061.65,-2512.2 1185.2,-2596.86 1246.59,-2551.2 1396.36,-2551.2 1396.36,-2551.2 1396.36,-2551.2 5808.38,-2551.2 5877.66,-2551.2 6069.51,-2561.99 6117.68,-2512.2 6152.42,-2476.3 6164.32,-2133.86 6167.53,-2008.71"/>
<polygon fill="#dddddd" stroke="#dddddd" points="6171.03,-2008.89 6167.78,-1998.81 6164.03,-2008.72 6171.03,-2008.89"/>
<text text-anchor="middle" x="3553.83" y="-2554.4" font-family="Times,serif" font-size="14.00">Class 1 Lock</text>
</g>
<!-- 45197&#45;&gt;END_NODE -->
<g id="edge48" class="edge">
<title>45197&#45;&gt;END_NODE</title>
<path fill="none" stroke="#dddddd" d="M965.58,-2352.08C989.01,-2392.56 1020.79,-2433.87 1061.65,-2459.2 1188.94,-2538.12 1246.59,-2498.2 1396.36,-2498.2 1396.36,-2498.2 1396.36,-2498.2 5808.38,-2498.2 5877.66,-2498.2 6069.27,-2508.76 6117.68,-2459.2 6148.86,-2427.29 6162.81,-2125.08 6167.05,-2008.64"/>
<polygon fill="#dddddd" stroke="#dddddd" points="6170.54,-2008.95 6167.4,-1998.83 6163.55,-2008.7 6170.54,-2008.95"/>
<text text-anchor="middle" x="3553.83" y="-2501.4" font-family="Times,serif" font-size="14.00">Class 2 Lock</text>
</g>
<!-- 45197&#45;&gt;END_NODE -->
<g id="edge49" class="edge">
<title>45197&#45;&gt;END_NODE</title>
<path fill="none" stroke="#dddddd" d="M985.04,-2341.48C1006.63,-2366.65 1032.48,-2390.59 1061.65,-2406.2 1193.69,-2476.89 1246.59,-2445.2 1396.36,-2445.2 1396.36,-2445.2 1396.36,-2445.2 5808.38,-2445.2 5877.66,-2445.2 6068.97,-2455.46 6117.68,-2406.2 6145.33,-2378.25 6161.12,-2115.73 6166.46,-2008.5"/>
<polygon fill="#dddddd" stroke="#dddddd" points="6169.95,-2008.79 6166.95,-1998.63 6162.96,-2008.44 6169.95,-2008.79"/>
<text text-anchor="middle" x="3553.83" y="-2448.4" font-family="Times,serif" font-size="14.00">Cell Lock</text>
</g>
<!-- 45197&#45;&gt;END_NODE -->
<g id="edge50" class="edge">
<title>45197&#45;&gt;END_NODE</title>
<path fill="none" stroke="#dddddd" d="M1008.09,-2322.12C1024.91,-2334.3 1043.04,-2345.31 1061.65,-2353.2 1199.52,-2411.69 1246.59,-2392.2 1396.36,-2392.2 1396.36,-2392.2 1396.36,-2392.2 5808.38,-2392.2 5877.66,-2392.2 6068.59,-2402.09 6117.68,-2353.2 6165.25,-2305.84 6169.75,-2101.15 6169.28,-2008.76"/>
<polygon fill="#dddddd" stroke="#dddddd" points="6172.78,-2008.76 6169.2,-1998.79 6165.78,-2008.82 6172.78,-2008.76"/>
<text text-anchor="middle" x="3553.83" y="-2395.4" font-family="Times,serif" font-size="14.00">Class 3 A1 Suite Lock</text>
</g>
<!-- 45197&#45;&gt;END_NODE -->
<g id="edge51" class="edge">
<title>45197&#45;&gt;END_NODE</title>
<path fill="none" stroke="#dddddd" d="M1030.39,-2289.85C1040.81,-2293.77 1051.33,-2297.3 1061.65,-2300.2 1205.84,-2340.69 1246.59,-2339.2 1396.36,-2339.2 1396.36,-2339.2 1396.36,-2339.2 5808.38,-2339.2 5946.94,-2339.2 6018.52,-2396.98 6117.68,-2300.2 6158.29,-2260.58 6166.6,-2091.2 6168.21,-2008.71"/>
<polygon fill="#dddddd" stroke="#dddddd" points="6171.7,-2009 6168.37,-1998.95 6164.71,-2008.89 6171.7,-2009"/>
<text text-anchor="middle" x="3553.83" y="-2342.4" font-family="Times,serif" font-size="14.00">Class 3 Accountable Lock</text>
</g>
<!-- 45197&#45;&gt;END_NODE -->
<g id="edge52" class="edge">
<title>45197&#45;&gt;END_NODE</title>
<path fill="none" stroke="#dddddd" d="M1042.01,-2254.4C1138.98,-2269.3 1275.64,-2286.2 1396.36,-2286.2 1396.36,-2286.2 1396.36,-2286.2 5808.38,-2286.2 5877.32,-2286.2 6066.77,-2308.68 6117.68,-2262.2 6154.14,-2228.93 6164.47,-2084.04 6167.39,-2008.86"/>
<polygon fill="#dddddd" stroke="#dddddd" points="6170.89,-2009.05 6167.75,-1998.93 6163.89,-2008.8 6170.89,-2009.05"/>
<text text-anchor="middle" x="3553.83" y="-2289.4" font-family="Times,serif" font-size="14.00">Handcuffs</text>
</g>
<!-- 45197&#45;&gt;END_NODE -->
<g id="edge53" class="edge">
<title>45197&#45;&gt;END_NODE</title>
<path fill="none" stroke="#dddddd" d="M1043.98,-2232.62C1141.07,-2232.89 1277.02,-2233.2 1396.36,-2233.2 1396.36,-2233.2 1396.36,-2233.2 3236.69,-2233.2 3666.2,-2233.2 3773.46,-2248.2 4202.97,-2248.2 4202.97,-2248.2 4202.97,-2248.2 5808.38,-2248.2 5877.32,-2248.2 6066.21,-2270.07 6117.68,-2224.2 6149.14,-2196.17 6161.59,-2075.41 6166.15,-2008.42"/>
<polygon fill="#dddddd" stroke="#dddddd" points="6169.64,-2008.68 6166.79,-1998.48 6162.65,-2008.23 6169.64,-2008.68"/>
<text text-anchor="middle" x="3553.83" y="-2242.66" font-family="Times,serif" font-size="14.00">Escort chain</text>
</g>
<!-- 45197&#45;&gt;END_NODE -->
<g id="edge54" class="edge">
<title>45197&#45;&gt;END_NODE</title>
<path fill="none" stroke="#dddddd" d="M1044.03,-2228.61C1049.99,-2228.47 1055.88,-2228.33 1061.65,-2228.2 1296.7,-2223.02 1355.47,-2221.56 1590.57,-2219.2 2916.53,-2205.92 3248.09,-2210.2 4574.11,-2210.2 4574.11,-2210.2 4574.11,-2210.2 5808.38,-2210.2 5877.32,-2210.2 6065.49,-2231.25 6117.68,-2186.2 6144.1,-2163.4 6158.22,-2066.77 6164.47,-2008.45"/>
<polygon fill="#dddddd" stroke="#dddddd" points="6167.92,-2009.15 6165.46,-1998.84 6160.95,-2008.43 6167.92,-2009.15"/>
<text text-anchor="middle" x="3553.83" y="-2212.89" font-family="Times,serif" font-size="14.00">Electronic Lock System</text>
</g>
<!-- 45197&#45;&gt;END_NODE -->
<g id="edge55" class="edge">
<title>45197&#45;&gt;END_NODE</title>
<path fill="none" stroke="#dddddd" d="M1043.62,-2222.27C1049.71,-2221.89 1055.75,-2221.53 1061.65,-2221.2 1132.92,-2217.22 1150.79,-2216.97 1222.15,-2215.2 2896.48,-2173.87 3315.45,-2172.2 4990.29,-2172.2 4990.29,-2172.2 4990.29,-2172.2 5808.38,-2172.2 5877.32,-2172.2 6064.51,-2192.09 6117.68,-2148.2 6139.15,-2130.49 6154.26,-2057.08 6162.17,-2008.23"/>
<polygon fill="#dddddd" stroke="#dddddd" points="6165.6,-2008.91 6163.69,-1998.49 6158.69,-2007.82 6165.6,-2008.91"/>
<text text-anchor="middle" x="3553.83" y="-2178.58" font-family="Times,serif" font-size="14.00">Magnetic Keys</text>
</g>
<!-- 45197&#45;&gt;END_NODE -->
<g id="edge56" class="edge">
<title>45197&#45;&gt;END_NODE</title>
<path fill="none" stroke="#dddddd" d="M1042.76,-2213.18C1049.14,-2212.46 1055.46,-2211.8 1061.65,-2211.2 1132.75,-2204.39 1150.78,-2205.78 1222.15,-2203.2 2896.07,-2142.74 3315.28,-2134.2 4990.29,-2134.2 4990.29,-2134.2 4990.29,-2134.2 5808.38,-2134.2 5877.32,-2134.2 6063.12,-2152.34 6117.68,-2110.2 6148.66,-2086.28 6160.86,-2042.34 6165.62,-2008.71"/>
<polygon fill="#dddddd" stroke="#dddddd" points="6169.09,-2009.14 6166.83,-1998.79 6162.14,-2008.3 6169.09,-2009.14"/>
<text text-anchor="middle" x="3553.83" y="-2144.17" font-family="Times,serif" font-size="14.00">Magnetic Lock</text>
</g>
<!-- 45197&#45;&gt;END_NODE -->
<g id="edge57" class="edge">
<title>45197&#45;&gt;END_NODE</title>
<path fill="none" stroke="#dddddd" d="M1040.65,-2203.62C1047.74,-2202.37 1054.77,-2201.22 1061.65,-2200.2 1132.45,-2189.71 1150.7,-2191.22 1222.15,-2187.2 2894.73,-2093.2 3315.07,-2096.2 4990.29,-2096.2 4990.29,-2096.2 4990.29,-2096.2 5808.38,-2096.2 5877.32,-2096.2 6061.01,-2111.46 6117.68,-2072.2 6139.22,-2057.28 6151.86,-2030.81 6159.15,-2007.68"/>
<polygon fill="#dddddd" stroke="#dddddd" points="6162.5,-2008.7 6161.9,-1998.12 6155.78,-2006.77 6162.5,-2008.7"/>
<text text-anchor="middle" x="3553.83" y="-2104.16" font-family="Times,serif" font-size="14.00">Cell Door</text>
</g>
<!-- 45197&#45;&gt;END_NODE -->
<g id="edge58" class="edge">
<title>45197&#45;&gt;END_NODE</title>
<path fill="none" stroke="#dddddd" d="M1037.18,-2190.25C1045.42,-2188.03 1053.63,-2185.99 1061.65,-2184.2 1131.82,-2168.58 1150.52,-2170.26 1222.15,-2164.2 1579.27,-2134.02 1669.63,-2142.65 2027.74,-2128.2 3343.72,-2075.11 3673.23,-2058.2 4990.29,-2058.2 4990.29,-2058.2 4990.29,-2058.2 5808.38,-2058.2 5946.26,-2058.2 5997.57,-2101.91 6117.68,-2034.2 6130.4,-2027.04 6140.74,-2015.22 6148.7,-2003.26"/>
<polygon fill="#dddddd" stroke="#dddddd" points="6151.51,-2005.37 6153.78,-1995.02 6145.55,-2001.7 6151.51,-2005.37"/>
<text text-anchor="middle" x="3553.83" y="-2078.57" font-family="Times,serif" font-size="14.00">Brent Keys</text>
</g>
<!-- 45197&#45;&gt;END_NODE -->
<g id="edge59" class="edge">
<title>45197&#45;&gt;END_NODE</title>
<path fill="none" stroke="#dddddd" d="M1029.53,-2172.6C1040.23,-2168.32 1051.04,-2164.43 1061.65,-2161.2 1130.6,-2140.24 1150.39,-2144.78 1222.15,-2138.2 2890.7,-1985.24 3314.74,-2020.2 4990.29,-2020.2 4990.29,-2020.2 4990.29,-2020.2 5808.38,-2020.2 5946.73,-2020.2 5984.01,-2020.83 6117.68,-1985.2 6121.17,-1984.27 6124.72,-1983.15 6128.25,-1981.9"/>
<polygon fill="#dddddd" stroke="#dddddd" points="6129.2,-1985.28 6137.26,-1978.41 6126.67,-1978.75 6129.2,-1985.28"/>
<text text-anchor="middle" x="3553.83" y="-2020.77" font-family="Times,serif" font-size="14.00">Other: Specify</text>
</g>
<!-- 45198 -->
<g id="node5" class="node">
<title>45198</title>
<ellipse fill="none" stroke="black" cx="1397.36" cy="-1625.2" rx="175.21" ry="175.21"/>
<text text-anchor="middle" x="1397.36" y="-1620.15" font-family="Times,serif" font-size="14.00">Incident Level: 1&#45;5. 1 High Risk, 5 No Risk</text>
</g>
<!-- 45197&#45;&gt;45198 -->
<g id="edge60" class="edge">
<title>45197&#45;&gt;45198</title>
<path fill="none" stroke="black" d="M916.5,-2101.44C923.79,-1883.13 952.07,-1459.17 1061.65,-1366.7 1085.85,-1346.28 1175.86,-1352.48 1204.15,-1366.7 1246.13,-1387.8 1281.26,-1422.9 1309.51,-1460.52"/>
<polygon fill="black" stroke="black" points="1306.55,-1462.4 1315.28,-1468.39 1312.19,-1458.26 1306.55,-1462.4"/>
<text text-anchor="middle" x="1132.9" y="-1369.9" font-family="Times,serif" font-size="14.00">Class 1 pass key</text>
</g>
<!-- 45197&#45;&gt;45198 -->
<g id="edge61" class="edge">
<title>45197&#45;&gt;45198</title>
<path fill="none" stroke="black" d="M915.55,-2101.3C921.35,-1876.01 947.36,-1429.76 1061.65,-1332.7 1109.93,-1291.71 1148.41,-1302.63 1204.15,-1332.7 1254.29,-1359.75 1293.48,-1406.21 1323.02,-1454.25"/>
<polygon fill="black" stroke="black" points="1319.87,-1455.8 1328.02,-1462.57 1325.87,-1452.2 1319.87,-1455.8"/>
<text text-anchor="middle" x="1132.9" y="-1335.9" font-family="Times,serif" font-size="14.00">Class 2 pass key</text>
</g>
<!-- 45197&#45;&gt;45198 -->
<g id="edge62" class="edge">
<title>45197&#45;&gt;45198</title>
<path fill="none" stroke="black" d="M914.35,-2101.03C918.11,-1866.28 940.84,-1389.13 1061.65,-1285.7 1109.76,-1244.52 1149.44,-1253.81 1204.15,-1285.7 1265.68,-1321.57 1309.09,-1385.25 1338.88,-1447.84"/>
<polygon fill="black" stroke="black" points="1335.71,-1449.31 1343.1,-1456.91 1342.06,-1446.36 1335.71,-1449.31"/>
<text text-anchor="middle" x="1132.9" y="-1288.9" font-family="Times,serif" font-size="14.00">Cell key</text>
</g>
<!-- 45197&#45;&gt;45198 -->
<g id="edge63" class="edge">
<title>45197&#45;&gt;45198</title>
<path fill="none" stroke="black" d="M981.32,-2120.61C1003.51,-2092.38 1030.59,-2064.94 1061.65,-2046.7 1117,-2014.2 1156.14,-2065.81 1204.15,-2023.2 1225.61,-2004.16 1211.5,-1987.85 1222.15,-1961.2 1245.47,-1902.91 1275.65,-1841.32 1304.32,-1787.02"/>
<polygon fill="black" stroke="black" points="1307.35,-1788.78 1308.94,-1778.3 1301.16,-1785.49 1307.35,-1788.78"/>
<text text-anchor="middle" x="1132.9" y="-2049.9" font-family="Times,serif" font-size="14.00">Class 3 A1 Suite key</text>
</g>
<!-- 45197&#45;&gt;45198 -->
<g id="edge64" class="edge">
<title>45197&#45;&gt;45198</title>
<path fill="none" stroke="black" d="M965.24,-2112.07C988.71,-2071.01 1020.6,-2028.87 1061.65,-2002.7 1115.56,-1968.34 1151.65,-2019.67 1204.15,-1983.2 1213.71,-1976.57 1264.46,-1881.69 1311.41,-1791.29"/>
<polygon fill="black" stroke="black" points="1314.48,-1792.98 1315.98,-1782.49 1308.27,-1789.75 1314.48,-1792.98"/>
<text text-anchor="middle" x="1132.9" y="-2005.9" font-family="Times,serif" font-size="14.00">Class 3 Accountable key</text>
</g>
<!-- 45197&#45;&gt;45198 -->
<g id="edge65" class="edge">
<title>45197&#45;&gt;45198</title>
<path fill="none" stroke="black" d="M953.48,-2107.61C976.63,-2054.65 1011.44,-1997.26 1061.65,-1962.7 1114.31,-1926.46 1150.74,-1978.32 1204.15,-1943.2 1257.29,-1908.27 1298.01,-1853.08 1327.99,-1798.43"/>
<polygon fill="black" stroke="black" points="1330.91,-1800.39 1332.56,-1789.92 1324.74,-1797.08 1330.91,-1800.39"/>
<text text-anchor="middle" x="1132.9" y="-1965.9" font-family="Times,serif" font-size="14.00">Handcuff key</text>
</g>
<!-- 45197&#45;&gt;45198 -->
<g id="edge66" class="edge">
<title>45197&#45;&gt;45198</title>
<path fill="none" stroke="black" d="M943.72,-2104.93C965.52,-2040.22 1002.03,-1966.24 1061.65,-1922.7 1113.27,-1885 1149.69,-1936.67 1204.15,-1903.2 1248.28,-1876.09 1284.83,-1834.62 1313.78,-1791.92"/>
<polygon fill="black" stroke="black" points="1316.58,-1794.03 1319.2,-1783.77 1310.75,-1790.16 1316.58,-1794.03"/>
<text text-anchor="middle" x="1132.9" y="-1925.9" font-family="Times,serif" font-size="14.00">Escort Chain key</text>
</g>
<!-- 45197&#45;&gt;45198 -->
<g id="edge67" class="edge">
<title>45197&#45;&gt;45198</title>
<path fill="none" stroke="black" d="M935.65,-2103.28C955.37,-2027.18 992.49,-1935.67 1061.65,-1882.7 1112.4,-1843.84 1148.48,-1894.62 1204.15,-1863.2 1239.46,-1843.28 1270.79,-1814.09 1297.39,-1782.91"/>
<polygon fill="black" stroke="black" points="1300.08,-1785.16 1303.8,-1775.24 1294.7,-1780.67 1300.08,-1785.16"/>
<text text-anchor="middle" x="1132.9" y="-1885.9" font-family="Times,serif" font-size="14.00">Class 1 Lock</text>
</g>
<!-- 45197&#45;&gt;45198 -->
<g id="edge68" class="edge">
<title>45197&#45;&gt;45198</title>
<path fill="none" stroke="black" d="M928.94,-2102.19C946.08,-2015.14 982.85,-1905.41 1061.65,-1842.7 1111.67,-1802.9 1147.11,-1852.05 1204.15,-1823.2 1231.09,-1809.58 1256.41,-1790.67 1279.28,-1769.9"/>
<polygon fill="black" stroke="black" points="1281.55,-1772.57 1286.49,-1763.2 1276.78,-1767.45 1281.55,-1772.57"/>
<text text-anchor="middle" x="1132.9" y="-1845.9" font-family="Times,serif" font-size="14.00">Class 2 Lock</text>
</g>
<!-- 45197&#45;&gt;45198 -->
<g id="edge69" class="edge">
<title>45197&#45;&gt;45198</title>
<path fill="none" stroke="black" d="M923.25,-2101.68C937.48,-2004.1 973.08,-1875.48 1061.65,-1802.7 1111.04,-1762.12 1145.58,-1808.8 1204.15,-1783.2 1223.36,-1774.81 1242.2,-1763.91 1260.11,-1751.77"/>
<polygon fill="black" stroke="black" points="1261.94,-1754.77 1268.15,-1746.18 1257.94,-1749.02 1261.94,-1754.77"/>
<text text-anchor="middle" x="1132.9" y="-1805.9" font-family="Times,serif" font-size="14.00">Cell Lock</text>
</g>
<!-- 45197&#45;&gt;45198 -->
<g id="edge70" class="edge">
<title>45197&#45;&gt;45198</title>
<path fill="none" stroke="black" d="M918.44,-2101.24C929.56,-1993.58 963.3,-1845.72 1061.65,-1762.7 1110.5,-1721.47 1143.96,-1764.72 1204.15,-1743.2 1216.47,-1738.8 1228.84,-1733.54 1241.05,-1727.72"/>
<polygon fill="black" stroke="black" points="1242.46,-1730.92 1249.9,-1723.37 1239.38,-1724.64 1242.46,-1730.92"/>
<text text-anchor="middle" x="1132.9" y="-1765.9" font-family="Times,serif" font-size="14.00">Class 3 A1 Suite Lock</text>
</g>
<!-- 45197&#45;&gt;45198 -->
<g id="edge71" class="edge">
<title>45197&#45;&gt;45198</title>
<path fill="none" stroke="black" d="M935,-2103.05C959.56,-1969.07 1004.24,-1772.29 1061.65,-1722.7 1085.84,-1701.81 1173.27,-1711.44 1204.15,-1703.2 1211,-1701.38 1217.94,-1699.37 1224.9,-1697.22"/>
<polygon fill="black" stroke="black" points="1225.95,-1700.56 1234.42,-1694.19 1223.83,-1693.89 1225.95,-1700.56"/>
<text text-anchor="middle" x="1132.9" y="-1725.9" font-family="Times,serif" font-size="14.00">Class 3 Accountable Lock</text>
</g>
<!-- 45197&#45;&gt;45198 -->
<g id="edge72" class="edge">
<title>45197&#45;&gt;45198</title>
<path fill="none" stroke="black" d="M932.1,-2102.46C955.04,-1958.04 999.24,-1737.67 1061.65,-1682.7 1085.64,-1661.58 1172.63,-1668.47 1204.15,-1663.2 1207.38,-1662.67 1210.63,-1662.11 1213.9,-1661.55"/>
<polygon fill="black" stroke="black" points="1214.37,-1665.02 1223.62,-1659.85 1213.17,-1658.13 1214.37,-1665.02"/>
<text text-anchor="middle" x="1132.9" y="-1685.9" font-family="Times,serif" font-size="14.00">Handcuffs</text>
</g>
<!-- 45197&#45;&gt;45198 -->
<g id="edge73" class="edge">
<title>45197&#45;&gt;45198</title>
<path fill="none" stroke="black" d="M928.61,-2102.08C949.02,-1946.66 991.6,-1700.38 1061.65,-1642.7 1074.28,-1632.3 1140.43,-1627.66 1210.63,-1625.73"/>
<polygon fill="black" stroke="black" points="1210.51,-1629.24 1220.41,-1625.48 1210.33,-1622.24 1210.51,-1629.24"/>
<text text-anchor="middle" x="1132.9" y="-1645.9" font-family="Times,serif" font-size="14.00">Escort chain</text>
</g>
<!-- 45197&#45;&gt;45198 -->
<g id="edge74" class="edge">
<title>45197&#45;&gt;45198</title>
<path fill="none" stroke="black" d="M925.94,-2101.96C944.13,-1936.87 984.99,-1666.4 1061.65,-1605.7 1086.13,-1586.32 1148.89,-1586.61 1213.53,-1593.49"/>
<polygon fill="black" stroke="black" points="1212.93,-1596.94 1223.26,-1594.58 1213.71,-1589.99 1212.93,-1596.94"/>
<text text-anchor="middle" x="1132.9" y="-1608.9" font-family="Times,serif" font-size="14.00">Electronic Lock System</text>
</g>
<!-- 45197&#45;&gt;45198 -->
<g id="edge75" class="edge">
<title>45197&#45;&gt;45198</title>
<path fill="none" stroke="black" d="M924.06,-2101.78C940.54,-1927.86 979.94,-1634.22 1061.65,-1568.7 1086.91,-1548.45 1152.15,-1555.99 1218.4,-1571.2"/>
<polygon fill="black" stroke="black" points="1217.46,-1574.57 1227.99,-1573.46 1219.06,-1567.76 1217.46,-1574.57"/>
<text text-anchor="middle" x="1132.9" y="-1571.9" font-family="Times,serif" font-size="14.00">Magnetic Keys</text>
</g>
<!-- 45197&#45;&gt;45198 -->
<g id="edge76" class="edge">
<title>45197&#45;&gt;45198</title>
<path fill="none" stroke="black" d="M922.56,-2101.5C937.53,-1919.87 975.45,-1605.54 1061.65,-1535.7 1111.35,-1495.43 1177.52,-1504.07 1237.9,-1527.92"/>
<polygon fill="black" stroke="black" points="1236.34,-1531.06 1246.92,-1531.63 1239,-1524.59 1236.34,-1531.06"/>
<text text-anchor="middle" x="1132.9" y="-1538.9" font-family="Times,serif" font-size="14.00">Magnetic Lock</text>
</g>
<!-- 45197&#45;&gt;45198 -->
<g id="edge77" class="edge">
<title>45197&#45;&gt;45198</title>
<path fill="none" stroke="black" d="M920.57,-2101.41C933.33,-1908.94 968.85,-1563.9 1061.65,-1487.7 1110.6,-1447.51 1143.85,-1468.35 1204.15,-1487.7 1220.34,-1492.9 1236.31,-1500.01 1251.73,-1508.28"/>
<polygon fill="black" stroke="black" points="1250.02,-1511.34 1260.46,-1513.15 1253.42,-1505.22 1250.02,-1511.34"/>
<text text-anchor="middle" x="1132.9" y="-1490.9" font-family="Times,serif" font-size="14.00">Cell Door</text>
</g>
<!-- 45197&#45;&gt;45198 -->
<g id="edge78" class="edge">
<title>45197&#45;&gt;45198</title>
<path fill="none" stroke="black" d="M918.99,-2101.41C929.79,-1899.52 962.91,-1526.65 1061.65,-1444.7 1086.02,-1424.48 1174.71,-1433.05 1204.15,-1444.7 1228.75,-1454.44 1252.03,-1468.98 1273.35,-1485.66"/>
<polygon fill="black" stroke="black" points="1270.88,-1488.17 1280.86,-1491.72 1275.27,-1482.72 1270.88,-1488.17"/>
<text text-anchor="middle" x="1132.9" y="-1447.9" font-family="Times,serif" font-size="14.00">Brent Keys</text>
</g>
<!-- 45197&#45;&gt;45198 -->
<g id="edge79" class="edge">
<title>45197&#45;&gt;45198</title>
<path fill="none" stroke="black" d="M917.88,-2101.5C927.18,-1892.59 958.32,-1498.1 1061.65,-1411.7 1110.24,-1371.08 1146.29,-1385.94 1204.15,-1411.7 1235.81,-1425.8 1264.44,-1447.97 1289.36,-1472.8"/>
<polygon fill="black" stroke="black" points="1286.76,-1475.15 1296.26,-1479.86 1291.77,-1470.26 1286.76,-1475.15"/>
<text text-anchor="middle" x="1132.9" y="-1414.9" font-family="Times,serif" font-size="14.00">Other : &#160;Specify</text>
</g>
<!-- 45198&#45;&gt;END_NODE -->
<g id="edge80" class="edge">
<title>45198&#45;&gt;END_NODE</title>
<path fill="none" stroke="#dddddd" d="M1409.03,-1450.22C1438.6,-1043.78 1538.99,-70.2 1822.4,-70.2 1822.4,-70.2 1822.4,-70.2 5808.38,-70.2 5877.19,-70.2 6069.48,-35.11 6117.68,-84.2 6150.84,-117.97 6165.67,-1634.29 6168.16,-1917.8"/>
<polygon fill="#dddddd" stroke="#dddddd" points="6164.66,-1917.76 6168.24,-1927.73 6171.66,-1917.7 6164.66,-1917.76"/>
<text text-anchor="middle" x="3728.72" y="-73.4" font-family="Times,serif" font-size="14.00">Enter Value:</text>
</g>
<!-- 45199 -->
<g id="node6" class="node">
<title>45199</title>
<ellipse fill="none" stroke="black" cx="1823.4" cy="-525.2" rx="148.08" ry="148.08"/>
<text text-anchor="middle" x="1823.4" y="-520.15" font-family="Times,serif" font-size="14.00">Has any remedial action been taken?</text>
</g>
<!-- 45198&#45;&gt;45199 -->
<g id="edge81" class="edge">
<title>45198&#45;&gt;45199</title>
<path fill="none" stroke="black" d="M1461.39,-1461.71C1543.48,-1248.76 1685.82,-879.5 1765.03,-674.03"/>
<polygon fill="black" stroke="black" points="1768.23,-675.46 1768.56,-664.87 1761.7,-672.95 1768.23,-675.46"/>
<text text-anchor="middle" x="1623.94" y="-1111.39" font-family="Times,serif" font-size="14.00">Enter Value:</text>
</g>
<!-- 45199&#45;&gt;END_NODE -->
<g id="edge82" class="edge">
<title>45199&#45;&gt;END_NODE</title>
<path fill="none" stroke="#dddddd" d="M1886.84,-390.87C1944.02,-290 2039.2,-169.2 2167.14,-169.2 2167.14,-169.2 2167.14,-169.2 5808.38,-169.2 5946.01,-169.2 6021.34,-85.92 6117.68,-184.2 6148.95,-216.1 6165.23,-1642.77 6168.08,-1917.65"/>
<polygon fill="#dddddd" stroke="#dddddd" points="6164.58,-1917.66 6168.19,-1927.62 6171.58,-1917.59 6164.58,-1917.66"/>
<text text-anchor="middle" x="3951.72" y="-172.4" font-family="Times,serif" font-size="14.00">Yes</text>
</g>
<!-- 45199&#45;&gt;END_NODE -->
<g id="edge83" class="edge">
<title>45199&#45;&gt;END_NODE</title>
<path fill="none" stroke="#dddddd" d="M1874.82,-385.92C1908.07,-311.4 1958.41,-223.28 2027.74,-165.2 2078.08,-123.03 2101.47,-116.2 2167.14,-116.2 2167.14,-116.2 2167.14,-116.2 5808.38,-116.2 5946.06,-116.2 6021.66,-34.54 6117.68,-133.2 6149.78,-166.18 6165.43,-1638.19 6168.12,-1917.66"/>
<polygon fill="#dddddd" stroke="#dddddd" points="6164.62,-1917.48 6168.21,-1927.44 6171.62,-1917.41 6164.62,-1917.48"/>
<text text-anchor="middle" x="3951.72" y="-119.4" font-family="Times,serif" font-size="14.00">No</text>
</g>
<!-- 45200 -->
<g id="node7" class="node">
<title>45200</title>
<ellipse fill="none" stroke="black" cx="2168.14" cy="-525.2" rx="140.41" ry="140.41"/>
<text text-anchor="middle" x="2168.14" y="-520.15" font-family="Times,serif" font-size="14.00">Describe the remedial action taken</text>
</g>
<!-- 45199&#45;&gt;45200 -->
<g id="edge84" class="edge">
<title>45199&#45;&gt;45200</title>
<path fill="none" stroke="black" d="M1971.74,-525.2C1986.42,-525.2 2001.33,-525.2 2016.05,-525.2"/>
<polygon fill="black" stroke="black" points="2015.74,-528.7 2025.74,-525.2 2015.74,-521.7 2015.74,-528.7"/>
<text text-anchor="middle" x="1999.61" y="-528.4" font-family="Times,serif" font-size="14.00">Yes</text>
</g>
<!-- 45199&#45;&gt;45200 -->
<g id="edge85" class="edge">
<title>45199&#45;&gt;45200</title>
<path fill="none" stroke="#dddddd" d="M1970.48,-504.24C1983.74,-503.79 1996.98,-503.88 2009.74,-504.7 2012.25,-504.87 2014.78,-505.04 2017.34,-505.24"/>
<polygon fill="#dddddd" stroke="#dddddd" points="2016.85,-508.71 2027.1,-506.03 2017.42,-501.73 2016.85,-508.71"/>
<text text-anchor="middle" x="1999.61" y="-507.9" font-family="Times,serif" font-size="14.00">No</text>
</g>
<!-- 45202 -->
<g id="node8" class="node">
<title>45202</title>
<ellipse fill="none" stroke="black" cx="2901.17" cy="-718.2" rx="139.89" ry="139.89"/>
<text text-anchor="middle" x="2901.17" y="-713.15" font-family="Times,serif" font-size="14.00">Have the lost item (s) been found?</text>
</g>
<!-- 45199&#45;&gt;45202 -->
<g id="edge86" class="edge">
<title>45199&#45;&gt;45202</title>
<path fill="none" stroke="#dddddd" d="M1906.1,-647.88C1929.71,-673.8 1957.79,-697.68 1989.49,-712.2 2238.1,-826.14 2566.49,-788.85 2753.36,-752.68"/>
<polygon fill="#dddddd" stroke="#dddddd" points="2754.01,-756.12 2763.15,-750.76 2752.66,-749.25 2754.01,-756.12"/>
<text text-anchor="middle" x="2388.42" y="-791.93" font-family="Times,serif" font-size="14.00">No</text>
</g>
<!-- 45199&#45;&gt;45202 -->
<g id="edge88" class="edge">
<title>45199&#45;&gt;45202</title>
<path fill="none" stroke="black" d="M1934.6,-623.6C1963.12,-643.89 1995.05,-662.59 2027.74,-674.2 2156.46,-719.94 2536.06,-723.09 2749.69,-720.95"/>
<polygon fill="black" stroke="black" points="2749.52,-724.45 2759.49,-720.85 2749.45,-717.45 2749.52,-724.45"/>
<text text-anchor="middle" x="2388.42" y="-721.82" font-family="Times,serif" font-size="14.00">No</text>
</g>
<!-- 45208 -->
<g id="node9" class="node">
<title>45208</title>
<ellipse fill="none" stroke="black" cx="5807.38" cy="-1525.2" rx="200.8" ry="200.8"/>
<text text-anchor="middle" x="5807.38" y="-1520.15" font-family="Times,serif" font-size="14.00">Has the Key Lock Incident been reported to NOU?</text>
</g>
<!-- 45199&#45;&gt;45208 -->
<g id="edge87" class="edge">
<title>45199&#45;&gt;45208</title>
<path fill="none" stroke="#dddddd" d="M1933.66,-426.01C1962.33,-405.61 1994.56,-387.06 2027.74,-376.2 2313.38,-282.75 2406.56,-372.18 2702.02,-427.2 3140.68,-508.89 3377.58,-334.7 3677.34,-665.2 3715.35,-707.1 3664.29,-743.92 3695.34,-791.2 3719.61,-828.14 3737.91,-830.04 3780.09,-843.2 3943.02,-894.05 4422.17,-768.79 4546.98,-885.2 4570.57,-907.2 4558.1,-997.7 4564.98,-1029.2 4577.03,-1084.3 4566.46,-1107.44 4603.23,-1150.2 4884.06,-1476.72 5053.58,-1479.79 5473.08,-1577.2 5514.8,-1586.89 5559.89,-1586.8 5603.01,-1581.73"/>
<polygon fill="#dddddd" stroke="#dddddd" points="5603.25,-1585.23 5612.72,-1580.48 5602.36,-1578.28 5603.25,-1585.23"/>
<text text-anchor="middle" x="3728.72" y="-840.86" font-family="Times,serif" font-size="14.00">No</text>
</g>
<!-- 45200&#45;&gt;END_NODE -->
<g id="edge89" class="edge">
<title>45200&#45;&gt;END_NODE</title>
<path fill="none" stroke="#dddddd" d="M2289.61,-454.28C2370.19,-413.47 2480.14,-370.2 2584.16,-370.2 2584.16,-370.2 2584.16,-370.2 3952.72,-370.2 4228.91,-370.2 4297.92,-364.2 4574.11,-364.2 4574.11,-364.2 4574.11,-364.2 5808.38,-364.2 5948.5,-364.2 6027.59,-317.89 6117.68,-425.2 6166.86,-483.77 6168.75,-1668.24 6168.6,-1917.44"/>
<polygon fill="#dddddd" stroke="#dddddd" points="6165.1,-1917.41 6168.59,-1927.41 6172.1,-1917.41 6165.1,-1917.41"/>
<text text-anchor="middle" x="4203.97" y="-372.21" font-family="Times,serif" font-size="14.00">Complete relock</text>
</g>
<!-- 45200&#45;&gt;END_NODE -->
<g id="edge90" class="edge">
<title>45200&#45;&gt;END_NODE</title>
<path fill="none" stroke="#dddddd" d="M2268.36,-426.25C2286.63,-411.84 2306.35,-398.43 2326.55,-388.2 2431.25,-335.18 2466.8,-330.2 2584.16,-330.2 2584.16,-330.2 2584.16,-330.2 3952.72,-330.2 4228.9,-330.2 4297.93,-326.2 4574.11,-326.2 4574.11,-326.2 4574.11,-326.2 5808.38,-326.2 5946.54,-326.2 6023.38,-256.24 6117.68,-357.2 6172.36,-415.75 6169.86,-1662.51 6168.77,-1917.78"/>
<polygon fill="#dddddd" stroke="#dddddd" points="6165.27,-1917.65 6168.73,-1927.67 6172.27,-1917.68 6165.27,-1917.65"/>
<text text-anchor="middle" x="4203.97" y="-332.61" font-family="Times,serif" font-size="14.00">Partial relock</text>
</g>
<!-- 45200&#45;&gt;END_NODE -->
<g id="edge91" class="edge">
<title>45200&#45;&gt;END_NODE</title>
<path fill="none" stroke="#dddddd" d="M2245.24,-407.82C2268.26,-380.46 2295.72,-354.12 2326.55,-336.2 2427.1,-277.76 2467.86,-290.2 2584.16,-290.2 2584.16,-290.2 2584.16,-290.2 3952.72,-290.2 4228.9,-290.2 4297.94,-288.2 4574.11,-288.2 4574.11,-288.2 4574.11,-288.2 5808.38,-288.2 5877.19,-288.2 6069.39,-253.2 6117.68,-302.2 6146.85,-331.8 6164.72,-1654.2 6167.99,-1917.78"/>
<polygon fill="#dddddd" stroke="#dddddd" points="6164.49,-1917.71 6168.11,-1927.66 6171.49,-1917.62 6164.49,-1917.71"/>
<text text-anchor="middle" x="4203.97" y="-293.01" font-family="Times,serif" font-size="14.00">Complete replacement</text>
</g>
<!-- 45200&#45;&gt;END_NODE -->
<g id="edge92" class="edge">
<title>45200&#45;&gt;END_NODE</title>
<path fill="none" stroke="#dddddd" d="M2226.52,-397.13C2251.4,-355.63 2284.6,-313.55 2326.55,-287.2 2424.4,-225.75 2468.61,-252.2 2584.16,-252.2 2584.16,-252.2 2584.16,-252.2 3729.72,-252.2 4034.2,-252.2 4110.31,-250.2 4414.79,-250.2 4414.79,-250.2 4414.79,-250.2 5808.38,-250.2 5877.29,-250.2 6069.97,-222.49 6117.68,-272.2 6147.01,-302.76 6164.78,-1651.47 6168.01,-1917.8"/>
<polygon fill="#dddddd" stroke="#dddddd" points="6164.5,-1917.48 6168.12,-1927.44 6171.5,-1917.4 6164.5,-1917.48"/>
<text text-anchor="middle" x="4203.97" y="-254.03" font-family="Times,serif" font-size="14.00">Partial replacement</text>
</g>
<!-- 45200&#45;&gt;END_NODE -->
<g id="edge93" class="edge">
<title>45200&#45;&gt;END_NODE</title>
<path fill="none" stroke="#dddddd" d="M2212.22,-391.45C2236.9,-336.32 2273.73,-277.25 2326.55,-242.2 2422.52,-178.54 2468.99,-214.2 2584.16,-214.2 2584.16,-214.2 2584.16,-214.2 3729.72,-214.2 4034.2,-214.2 4110.31,-210.2 4414.79,-210.2 4414.79,-210.2 4414.79,-210.2 5808.38,-210.2 5946.5,-210.2 6023.36,-139.32 6117.68,-240.2 6147.18,-271.76 6164.85,-1648.58 6168.02,-1917.82"/>
<polygon fill="#dddddd" stroke="#dddddd" points="6164.52,-1917.61 6168.13,-1927.57 6171.52,-1917.53 6164.52,-1917.61"/>
<text text-anchor="middle" x="4203.97" y="-214.65" font-family="Times,serif" font-size="14.00">Forensic testing</text>
</g>
<!-- 45201 -->
<g id="node10" class="node">
<title>45201</title>
<ellipse fill="none" stroke="black" cx="2585.16" cy="-553.2" rx="116.86" ry="116.86"/>
<text text-anchor="middle" x="2585.16" y="-548.15" font-family="Times,serif" font-size="14.00">Estimated cost of this action</text>
</g>
<!-- 45200&#45;&gt;45201 -->
<g id="edge94" class="edge">
<title>45200&#45;&gt;45201</title>
<path fill="none" stroke="black" d="M2301.56,-570.42C2309.96,-572.3 2318.33,-573.93 2326.55,-575.2 2380.9,-583.63 2395.48,-579.68 2450.3,-575.2 2452.97,-574.99 2455.67,-574.74 2458.39,-574.48"/>
<polygon fill="black" stroke="black" points="2458.59,-577.98 2468.16,-573.44 2457.85,-571.02 2458.59,-577.98"/>
<text text-anchor="middle" x="2388.42" y="-583.35" font-family="Times,serif" font-size="14.00">Complete relock</text>
</g>
<!-- 45200&#45;&gt;45201 -->
<g id="edge95" class="edge">
<title>45200&#45;&gt;45201</title>
<path fill="none" stroke="black" d="M2308.49,-534.61C2356.46,-537.84 2409.9,-541.45 2456.86,-544.61"/>
<polygon fill="black" stroke="black" points="2456.61,-548.11 2466.82,-545.29 2457.08,-541.12 2456.61,-548.11"/>
<text text-anchor="middle" x="2388.42" y="-547.35" font-family="Times,serif" font-size="14.00">Partial relock</text>
</g>
<!-- 45200&#45;&gt;45201 -->
<g id="edge96" class="edge">
<title>45200&#45;&gt;45201</title>
<path fill="none" stroke="black" d="M2308.34,-511.16C2353.76,-509.07 2404.33,-509.39 2450.3,-515.7 2454.12,-516.23 2457.99,-516.83 2461.88,-517.51"/>
<polygon fill="black" stroke="black" points="2460.93,-520.89 2471.4,-519.3 2462.22,-514.01 2460.93,-520.89"/>
<text text-anchor="middle" x="2388.42" y="-518.9" font-family="Times,serif" font-size="14.00">Complete replacement</text>
</g>
<!-- 45200&#45;&gt;45201 -->
<g id="edge97" class="edge">
<title>45200&#45;&gt;45201</title>
<path fill="none" stroke="black" d="M2304.13,-489.28C2350.77,-481.85 2403.14,-479.09 2450.3,-489.7 2457.05,-491.22 2463.86,-493.13 2470.64,-495.31"/>
<polygon fill="black" stroke="black" points="2469.24,-498.53 2479.84,-498.48 2471.52,-491.91 2469.24,-498.53"/>
<text text-anchor="middle" x="2388.42" y="-492.9" font-family="Times,serif" font-size="14.00">Partial replacement</text>
</g>
<!-- 45200&#45;&gt;45201 -->
<g id="edge98" class="edge">
<title>45200&#45;&gt;45201</title>
<path fill="none" stroke="black" d="M2296.91,-468.17C2345.39,-453.86 2400.82,-446.41 2450.3,-461.7 2461.41,-465.14 2472.41,-469.84 2483.06,-475.33"/>
<polygon fill="black" stroke="black" points="2481.37,-478.39 2491.83,-480.08 2484.71,-472.23 2481.37,-478.39"/>
<text text-anchor="middle" x="2388.42" y="-464.9" font-family="Times,serif" font-size="14.00">Forensic testing</text>
</g>
<!-- 45200&#45;&gt;45201 -->
<g id="edge99" class="edge">
<title>45200&#45;&gt;45201</title>
<path fill="none" stroke="black" d="M2292.76,-590.22C2303.97,-594.23 2315.33,-597.67 2326.55,-600.2 2380.19,-612.33 2396.08,-609.45 2450.3,-600.2 2455.01,-599.4 2459.78,-598.45 2464.56,-597.38"/>
<polygon fill="black" stroke="black" points="2465.38,-600.78 2474.28,-595.02 2463.74,-593.98 2465.38,-600.78"/>
<text text-anchor="middle" x="2388.42" y="-611.45" font-family="Times,serif" font-size="14.00">Other</text>
</g>
<!-- 45202&#45;&gt;END_NODE -->
<g id="edge103" class="edge">
<title>45202&#45;&gt;END_NODE</title>
<path fill="none" stroke="#dddddd" d="M3017.6,-640.01C3143.46,-562.48 3353.62,-455.2 3552.83,-455.2 3552.83,-455.2 3552.83,-455.2 4416.79,-455.2 4511.29,-455.2 6057.19,-405.6 6117.68,-478.2 6164.87,-534.84 6168.34,-1674.76 6168.54,-1917.85"/>
<polygon fill="#dddddd" stroke="#dddddd" points="6165.04,-1917.56 6168.54,-1927.55 6172.04,-1917.55 6165.04,-1917.56"/>
<text text-anchor="middle" x="4575.11" y="-455.13" font-family="Times,serif" font-size="14.00">Yes</text>
</g>
<!-- 45202&#45;&gt;END_NODE -->
<g id="edge104" class="edge">
<title>45202&#45;&gt;END_NODE</title>
<path fill="none" stroke="#dddddd" d="M2985.32,-830.1C3135.05,-1034.49 3455.08,-1484.83 3677.34,-1893.2 3686.86,-1910.68 3680.27,-1921.22 3695.34,-1934.2 3744.42,-1976.48 3901.36,-1982.2 4990.29,-1982.2 4990.29,-1982.2 4990.29,-1982.2 5808.38,-1982.2 5945.99,-1982.2 5980.43,-1978.05 6117.68,-1968.2 6119.75,-1968.06 6121.86,-1967.89 6124,-1967.72"/>
<polygon fill="#dddddd" stroke="#dddddd" points="6124.3,-1971.21 6133.95,-1966.84 6123.68,-1964.23 6124.3,-1971.21"/>
<text text-anchor="middle" x="4575.11" y="-1984.97" font-family="Times,serif" font-size="14.00">No</text>
</g>
<!-- 45203 -->
<g id="node11" class="node">
<title>45203</title>
<ellipse fill="none" stroke="black" cx="3553.83" cy="-798.2" rx="123.52" ry="123.52"/>
<text text-anchor="middle" x="3553.83" y="-793.15" font-family="Times,serif" font-size="14.00">Has a replica key been found?</text>
</g>
<!-- 45202&#45;&gt;45203 -->
<g id="edge105" class="edge">
<title>45202&#45;&gt;45203</title>
<path fill="none" stroke="black" d="M3031.4,-769.49C3040.67,-772.08 3049.95,-774.36 3059.06,-776.2 3179.03,-800.44 3318.58,-804.5 3418.67,-803.34"/>
<polygon fill="black" stroke="black" points="3418.59,-806.84 3428.54,-803.2 3418.5,-799.84 3418.59,-806.84"/>
<text text-anchor="middle" x="3235.69" y="-806.71" font-family="Times,serif" font-size="14.00">Yes</text>
</g>
<!-- 45202&#45;&gt;45203 -->
<g id="edge106" class="edge">
<title>45202&#45;&gt;45203</title>
<path fill="none" stroke="black" d="M3040.3,-734.51C3046.64,-735.11 3052.92,-735.68 3059.06,-736.2 3215.74,-749.5 3257.46,-728.42 3412.31,-755.7 3416.45,-756.43 3420.63,-757.24 3424.84,-758.12"/>
<polygon fill="black" stroke="black" points="3424.03,-761.53 3434.55,-760.27 3425.54,-754.69 3424.03,-761.53"/>
<text text-anchor="middle" x="3235.69" y="-758.9" font-family="Times,serif" font-size="14.00">No</text>
</g>
<!-- 45202&#45;&gt;45203 -->
<g id="edge107" class="edge">
<title>45202&#45;&gt;45203</title>
<path fill="none" stroke="black" d="M3039.81,-697.89C3143.97,-687.19 3289.56,-682.33 3412.31,-715.7 3421.63,-718.24 3430.97,-721.56 3440.15,-725.43"/>
<polygon fill="black" stroke="black" points="3438.49,-728.52 3449.05,-729.38 3441.34,-722.12 3438.49,-728.52"/>
<text text-anchor="middle" x="3235.69" y="-718.9" font-family="Times,serif" font-size="14.00">N/A</text>
</g>
<!-- 45208&#45;&gt;END_NODE -->
<g id="edge161" class="edge">
<title>45208&#45;&gt;END_NODE</title>
<path fill="none" stroke="black" d="M6000.69,-1579.99C6045.05,-1601.08 6087.89,-1629.82 6117.68,-1668.7 6147.07,-1707.07 6160.62,-1845.54 6165.82,-1918.11"/>
<polygon fill="black" stroke="black" points="6162.3,-1917.92 6166.48,-1927.66 6169.28,-1917.44 6162.3,-1917.92"/>
<text text-anchor="middle" x="6071.93" y="-1671.9" font-family="Times,serif" font-size="14.00">Yes: Date</text>
</g>
<!-- 45208&#45;&gt;END_NODE -->
<g id="edge162" class="edge">
<title>45208&#45;&gt;END_NODE</title>
<path fill="none" stroke="black" d="M6008.48,-1518.68C6049.33,-1526.78 6088.63,-1542.98 6117.68,-1572.7 6164.61,-1620.71 6169.47,-1824.88 6169.18,-1917.36"/>
<polygon fill="black" stroke="black" points="6165.68,-1917.32 6169.13,-1927.34 6172.68,-1917.36 6165.68,-1917.32"/>
<text text-anchor="middle" x="6071.93" y="-1575.9" font-family="Times,serif" font-size="14.00">No</text>
</g>
<!-- 45208&#45;&gt;END_NODE -->
<g id="edge163" class="edge">
<title>45208&#45;&gt;END_NODE</title>
<path fill="none" stroke="black" d="M5966.68,-1648.02C5986.28,-1661.26 6006.39,-1673.98 6026.18,-1685.2 6064.56,-1706.97 6089.57,-1689.7 6117.68,-1723.7 6141.79,-1752.86 6156.96,-1857.29 6163.97,-1918.2"/>
<polygon fill="black" stroke="black" points="6160.46,-1918.35 6165.05,-1927.9 6167.42,-1917.57 6160.46,-1918.35"/>
<text text-anchor="middle" x="6071.93" y="-1726.9" font-family="Times,serif" font-size="14.00">Incident Ref No:</text>
</g>
<!-- 45201&#45;&gt;END_NODE -->
<g id="edge100" class="edge">
<title>45201&#45;&gt;END_NODE</title>
<path fill="none" stroke="#dddddd" d="M2680.49,-484.85C2740.39,-448.08 2821.25,-410.2 2900.17,-410.2 2900.17,-410.2 2900.17,-410.2 4204.97,-410.2 4311.26,-410.2 6047.18,-372.66 6117.68,-452.2 6167.49,-508.4 6168.89,-1671.89 6168.62,-1917.81"/>
<polygon fill="#dddddd" stroke="#dddddd" points="6165.12,-1917.62 6168.61,-1927.63 6172.12,-1917.63 6165.12,-1917.62"/>
<text text-anchor="middle" x="4415.79" y="-412.34" font-family="Times,serif" font-size="14.00"></text>
</g>
<!-- 45201&#45;&gt;45202 -->
<g id="edge101" class="edge">
<title>45201&#45;&gt;45202</title>
<path fill="none" stroke="black" d="M2696.74,-588.85C2712.64,-595.15 2728.58,-602.15 2743.27,-609.7 2754.89,-615.68 2766.66,-622.39 2778.24,-629.47"/>
<polygon fill="black" stroke="black" points="2776.31,-632.39 2786.65,-634.69 2780,-626.44 2776.31,-632.39"/>
<text text-anchor="middle" x="2731.65" y="-612.9" font-family="Times,serif" font-size="14.00"></text>
</g>
<!-- 45201&#45;&gt;45202 -->
<g id="edge102" class="edge">
<title>45201&#45;&gt;45202</title>
<path fill="none" stroke="black" d="M2687.96,-609.09C2698.77,-614.91 2709.61,-620.7 2720.02,-626.2 2734.8,-634 2750.31,-642.08 2765.76,-650.07"/>
<polygon fill="black" stroke="black" points="2764.06,-653.13 2774.55,-654.6 2767.27,-646.91 2764.06,-653.13"/>
<text text-anchor="middle" x="2731.65" y="-639.6" font-family="Times,serif" font-size="14.00">N/A</text>
</g>
<!-- 45203&#45;&gt;END_NODE -->
<g id="edge108" class="edge">
<title>45203&#45;&gt;END_NODE</title>
<path fill="none" stroke="#dddddd" d="M3566.59,-921.56C3593.83,-1201.52 3661.47,-1863.49 3695.34,-1898.2 3775.53,-1980.38 3835.9,-1937.2 3950.72,-1937.2 3950.72,-1937.2 3950.72,-1937.2 4576.11,-1937.2 5189.57,-1937.2 5935.79,-1956.73 6123.88,-1961.94"/>
<polygon fill="#dddddd" stroke="#dddddd" points="6123.59,-1965.43 6133.69,-1962.21 6123.79,-1958.44 6123.59,-1965.43"/>
<text text-anchor="middle" x="4756.95" y="-1942.05" font-family="Times,serif" font-size="14.00">Yes</text>
</g>
<!-- 45203&#45;&gt;END_NODE -->
<g id="edge109" class="edge">
<title>45203&#45;&gt;END_NODE</title>
<path fill="none" stroke="#dddddd" d="M3572.85,-920.67C3618.08,-1204.69 3747.53,-1884.2 3950.72,-1884.2 3950.72,-1884.2 3950.72,-1884.2 4576.11,-1884.2 5213.16,-1884.2 5372.55,-1902.67 6008.18,-1945.2 6056.94,-1948.47 6069.19,-1949.18 6117.68,-1955.2 6119.88,-1955.48 6122.12,-1955.77 6124.39,-1956.08"/>
<polygon fill="#dddddd" stroke="#dddddd" points="6123.86,-1959.54 6134.26,-1957.51 6124.86,-1952.61 6123.86,-1959.54"/>
<text text-anchor="middle" x="4756.95" y="-1889.66" font-family="Times,serif" font-size="14.00">No</text>
</g>
<!-- 45204 -->
<g id="node12" class="node">
<title>45204</title>
<ellipse fill="none" stroke="black" cx="3951.72" cy="-662.2" rx="171.63" ry="171.63"/>
<text text-anchor="middle" x="3951.72" y="-657.15" font-family="Times,serif" font-size="14.00">What action was taken to find these items?</text>
</g>
<!-- 45203&#45;&gt;45204 -->
<g id="edge110" class="edge">
<title>45203&#45;&gt;45204</title>
<path fill="none" stroke="black" d="M3666.67,-747.72C3676.31,-743.84 3685.96,-740.11 3695.34,-736.7 3720.83,-727.45 3748.06,-718.53 3774.89,-710.26"/>
<polygon fill="black" stroke="black" points="3775.56,-713.72 3784.1,-707.45 3773.51,-707.02 3775.56,-713.72"/>
<text text-anchor="middle" x="3728.72" y="-739.9" font-family="Times,serif" font-size="14.00">Yes</text>
</g>
<!-- 45203&#45;&gt;45204 -->
<g id="edge111" class="edge">
<title>45203&#45;&gt;45204</title>
<path fill="none" stroke="#dddddd" d="M3675.89,-776.94C3704.52,-770.54 3734.68,-762.65 3762.09,-753.2 3770.53,-750.3 3779.07,-747.12 3787.64,-743.74"/>
<polygon fill="#dddddd" stroke="#dddddd" points="3788.72,-747.07 3796.68,-740.08 3786.1,-740.58 3788.72,-747.07"/>
<text text-anchor="middle" x="3728.72" y="-774.3" font-family="Times,serif" font-size="14.00">No</text>
</g>
<!-- 45205 -->
<g id="node13" class="node">
<title>45205</title>
<ellipse fill="none" stroke="black" cx="4415.79" cy="-1025.2" rx="131.19" ry="131.19"/>
<text text-anchor="middle" x="4415.79" y="-1020.15" font-family="Times,serif" font-size="14.00">Were tools used in the Incident?</text>
</g>
<!-- 45203&#45;&gt;45205 -->
<g id="edge112" class="edge">
<title>45203&#45;&gt;45205</title>
<path fill="none" stroke="black" d="M3600.48,-913.08C3622.78,-954.17 3653.93,-996.4 3695.34,-1021.2 3873.9,-1128.14 4124.81,-1097.56 4278.24,-1063.18"/>
<polygon fill="black" stroke="black" points="4278.67,-1066.67 4287.64,-1061.04 4277.11,-1059.85 4278.67,-1066.67"/>
<text text-anchor="middle" x="3951.72" y="-1098.46" font-family="Times,serif" font-size="14.00">No</text>
</g>
<!-- 45203&#45;&gt;45205 -->
<g id="edge113" class="edge">
<title>45203&#45;&gt;45205</title>
<path fill="none" stroke="black" d="M3664.49,-853.5C3674.82,-858.03 3685.21,-862.34 3695.34,-866.2 3887.94,-939.59 3939.23,-952.87 4141.35,-993.2 4183.94,-1001.7 4230.76,-1008.2 4273.43,-1013.05"/>
<polygon fill="black" stroke="black" points="4272.93,-1016.51 4283.26,-1014.14 4273.7,-1009.56 4272.93,-1016.51"/>
<text text-anchor="middle" x="3951.72" y="-992.46" font-family="Times,serif" font-size="14.00">N/A</text>
</g>
<!-- 45204&#45;&gt;END_NODE -->
<g id="edge114" class="edge">
<title>45204&#45;&gt;END_NODE</title>
<path fill="none" stroke="#dddddd" d="M4122.42,-643.38C4610.44,-591.24 5990.86,-458.5 6117.68,-610.2 6160.52,-661.44 6167.38,-1688.31 6168.38,-1917.93"/>
<polygon fill="#dddddd" stroke="#dddddd" points="6164.88,-1917.67 6168.42,-1927.66 6171.88,-1917.64 6164.88,-1917.67"/>
<text text-anchor="middle" x="4991.29" y="-573.32" font-family="Times,serif" font-size="14.00">Full close down search</text>
</g>
<!-- 45204&#45;&gt;END_NODE -->
<g id="edge115" class="edge">
<title>45204&#45;&gt;END_NODE</title>
<path fill="none" stroke="#dddddd" d="M4120.34,-628.32C4127.44,-626.92 4134.46,-625.55 4141.35,-624.2 4204.94,-611.81 4220.43,-606.15 4284.6,-597.2 4425.44,-577.57 4461.56,-580.42 4603.23,-568.2 4770.89,-553.75 6012.08,-433.19 6117.68,-564.2 6161.09,-618.06 6167.51,-1682.59 6168.4,-1917.56"/>
<polygon fill="#dddddd" stroke="#dddddd" points="6164.9,-1917.56 6168.44,-1927.55 6171.9,-1917.53 6164.9,-1917.56"/>
<text text-anchor="middle" x="4991.29" y="-543.33" font-family="Times,serif" font-size="14.00">Partial search</text>
</g>
<!-- 45204&#45;&gt;END_NODE -->
<g id="edge116" class="edge">
<title>45204&#45;&gt;END_NODE</title>
<path fill="none" stroke="#dddddd" d="M4113.51,-604.14C4122.89,-601.32 4132.21,-598.65 4141.35,-596.2 4203.93,-579.46 4220.46,-578.35 4284.6,-569.2 4486.3,-540.44 5985.82,-366.89 6117.68,-522.2 6163.89,-576.63 6168.13,-1678.55 6168.5,-1917.68"/>
<polygon fill="#dddddd" stroke="#dddddd" points="6165,-1917.53 6168.52,-1927.53 6172,-1917.52 6165,-1917.53"/>
<text text-anchor="middle" x="4991.29" y="-502.68" font-family="Times,serif" font-size="14.00">Other: Specify</text>
</g>
<!-- 45204&#45;&gt;45205 -->
<g id="edge117" class="edge">
<title>45204&#45;&gt;45205</title>
<path fill="none" stroke="black" d="M4091.49,-762.52C4146.68,-803.27 4210.31,-851.37 4266.6,-896.7 4280.21,-907.67 4294.33,-919.41 4308.2,-931.16"/>
<polygon fill="black" stroke="black" points="4305.76,-933.68 4315.64,-937.5 4310.29,-928.35 4305.76,-933.68"/>
<text text-anchor="middle" x="4203.97" y="-899.9" font-family="Times,serif" font-size="14.00">Full close down search</text>
</g>
<!-- 45204&#45;&gt;45205 -->
<g id="edge118" class="edge">
<title>45204&#45;&gt;45205</title>
<path fill="none" stroke="black" d="M4022.68,-818.86C4052.41,-868.97 4091.84,-920.01 4141.35,-953.2 4188.39,-984.74 4211.73,-962.64 4266.6,-976.7 4271.1,-977.86 4275.66,-979.07 4280.25,-980.34"/>
<polygon fill="black" stroke="black" points="4278.99,-983.62 4289.57,-982.97 4280.89,-976.88 4278.99,-983.62"/>
<text text-anchor="middle" x="4203.97" y="-979.9" font-family="Times,serif" font-size="14.00">Partial search</text>
</g>
<!-- 45204&#45;&gt;45205 -->
<g id="edge119" class="edge">
<title>45204&#45;&gt;45205</title>
<path fill="none" stroke="black" d="M4036.18,-812.08C4064.67,-850.73 4099.98,-888.39 4141.35,-913.2 4189.66,-942.19 4213.8,-913.06 4266.6,-932.7 4276.83,-936.51 4287.12,-941.08 4297.24,-946.11"/>
<polygon fill="black" stroke="black" points="4295.46,-949.13 4305.95,-950.6 4298.66,-942.91 4295.46,-949.13"/>
<text text-anchor="middle" x="4203.97" y="-935.9" font-family="Times,serif" font-size="14.00">Other: Please specify</text>
</g>
<!-- 45205&#45;&gt;END_NODE -->
<g id="edge120" class="edge">
<title>45205&#45;&gt;END_NODE</title>
<path fill="none" stroke="#dddddd" d="M4422.39,-1156.5C4434,-1358.17 4468.26,-1729.77 4564.98,-1814.2 4630.05,-1871 6041.87,-1850.82 6117.68,-1892.2 6130.49,-1899.2 6140.86,-1910.97 6148.81,-1922.94"/>
<polygon fill="#dddddd" stroke="#dddddd" points="6145.67,-1924.51 6153.88,-1931.2 6151.63,-1920.85 6145.67,-1924.51"/>
<text text-anchor="middle" x="5263.5" y="-1864.44" font-family="Times,serif" font-size="14.00">Yes</text>
</g>
<!-- 45205&#45;&gt;END_NODE -->
<g id="edge121" class="edge">
<title>45205&#45;&gt;END_NODE</title>
<path fill="none" stroke="#dddddd" d="M4440.36,-1154.38C4465.74,-1265.76 4514.94,-1426.31 4603.23,-1541.2 4710.54,-1680.82 4764.45,-1703.62 4928.66,-1767.2 4988.55,-1790.39 5008.04,-1779.45 5071.91,-1786.2 5487.01,-1830.11 5593.17,-1815.42 6008.18,-1860.2 6057.02,-1865.47 6076.91,-1847.82 6117.68,-1875.2 6133.82,-1886.04 6145.48,-1903.84 6153.54,-1920.61"/>
<polygon fill="#dddddd" stroke="#dddddd" points="6150.21,-1921.75 6157.48,-1929.46 6156.61,-1918.9 6150.21,-1921.75"/>
<text text-anchor="middle" x="5263.5" y="-1820.95" font-family="Times,serif" font-size="14.00">No</text>
</g>
<!-- 45205&#45;&gt;45208 -->
<g id="edge124" class="edge">
<title>45205&#45;&gt;45208</title>
<path fill="none" stroke="black" d="M4444.58,-1153.56C4470.83,-1245.91 4519.11,-1367.11 4603.23,-1443.2 4895.06,-1707.17 5079.62,-1603.3 5473.08,-1608.2 5524.41,-1608.84 5538.1,-1617.5 5588.58,-1608.2 5595.72,-1606.89 5602.92,-1605.35 5610.15,-1603.63"/>
<polygon fill="black" stroke="black" points="5610.82,-1607.07 5619.67,-1601.25 5609.12,-1600.28 5610.82,-1607.07"/>
<text text-anchor="middle" x="4991.29" y="-1627.51" font-family="Times,serif" font-size="14.00">No</text>
</g>
<!-- 45206 -->
<g id="node14" class="node">
<title>45206</title>
<ellipse fill="none" stroke="black" cx="4756.95" cy="-987.2" rx="153.71" ry="153.71"/>
<text text-anchor="middle" x="4756.95" y="-982.15" font-family="Times,serif" font-size="14.00">What tools/foreign objects were used?</text>
</g>
<!-- 45205&#45;&gt;45206 -->
<g id="edge122" class="edge">
<title>45205&#45;&gt;45206</title>
<path fill="none" stroke="black" d="M4542.94,-992.04C4550.37,-990.74 4557.75,-989.61 4564.98,-988.7 4573.6,-987.62 4582.45,-986.75 4591.4,-986.05"/>
<polygon fill="black" stroke="black" points="4591.54,-989.55 4601.27,-985.36 4591.05,-982.57 4591.54,-989.55"/>
<text text-anchor="middle" x="4575.11" y="-991.9" font-family="Times,serif" font-size="14.00">Yes</text>
</g>
<!-- 45205&#45;&gt;45206 -->
<g id="edge123" class="edge">
<title>45205&#45;&gt;45206</title>
<path fill="none" stroke="#dddddd" d="M4546.46,-1010.68C4561.59,-1008.98 4577.16,-1007.24 4592.66,-1005.5"/>
<polygon fill="#dddddd" stroke="#dddddd" points="4592.88,-1009 4602.42,-1004.41 4592.1,-1002.04 4592.88,-1009"/>
<text text-anchor="middle" x="4575.11" y="-1011.68" font-family="Times,serif" font-size="14.00">No</text>
</g>
<!-- 45206&#45;&gt;END_NODE -->
<g id="edge125" class="edge">
<title>45206&#45;&gt;END_NODE</title>
<path fill="none" stroke="#dddddd" d="M4889.35,-908.78C4902.34,-903.13 4915.56,-898.12 4928.66,-894.2 5158.8,-825.37 5773.84,-785.39 6008.18,-838.2 6060.74,-850.05 6087.83,-845.36 6117.68,-890.2 6146.55,-933.56 6163.77,-1718.61 6167.68,-1917.64"/>
<polygon fill="#dddddd" stroke="#dddddd" points="6164.18,-1917.65 6167.87,-1927.58 6171.18,-1917.51 6164.18,-1917.65"/>
<text text-anchor="middle" x="5530.83" y="-823.24" font-family="Times,serif" font-size="14.00">Hacksaw blade</text>
</g>
<!-- 45206&#45;&gt;END_NODE -->
<g id="edge126" class="edge">
<title>45206&#45;&gt;END_NODE</title>
<path fill="none" stroke="#dddddd" d="M4877.87,-891.9C4894.41,-881.01 4911.59,-870.77 4928.66,-862.2 4988.19,-832.34 5006.36,-830.01 5071.91,-818.2 5186.29,-797.6 6044.35,-748.04 6117.68,-838.2 6152.29,-880.75 6165.3,-1713.07 6167.99,-1917.94"/>
<polygon fill="#dddddd" stroke="#dddddd" points="6164.48,-1917.68 6168.11,-1927.64 6171.48,-1917.59 6164.48,-1917.68"/>
<text text-anchor="middle" x="5530.83" y="-793.19" font-family="Times,serif" font-size="14.00">Other Blade</text>
</g>
<!-- 45206&#45;&gt;END_NODE -->
<g id="edge127" class="edge">
<title>45206&#45;&gt;END_NODE</title>
<path fill="none" stroke="#dddddd" d="M4857.01,-869.97C4878.8,-849.85 4903.08,-831.01 4928.66,-817.2 4985.9,-786.31 5007.4,-795.56 5071.91,-787.2 5187.16,-772.28 6040.94,-713.94 6117.68,-801.2 6155.15,-843.8 6166.03,-1707.32 6168.13,-1917.42"/>
<polygon fill="#dddddd" stroke="#dddddd" points="6164.63,-1917.43 6168.22,-1927.4 6171.62,-1917.36 6164.63,-1917.43"/>
<text text-anchor="middle" x="5530.83" y="-763.31" font-family="Times,serif" font-size="14.00">Wire cutters</text>
</g>
<!-- 45206&#45;&gt;END_NODE -->
<g id="edge128" class="edge">
<title>45206&#45;&gt;END_NODE</title>
<path fill="none" stroke="#dddddd" d="M4843.25,-859.48C4867.73,-831.18 4896.59,-804.04 4928.66,-785.2 5042.59,-718.28 6029.17,-668.1 6117.68,-766.2 6156.94,-809.71 6166.49,-1704.27 6168.21,-1917.75"/>
<polygon fill="#dddddd" stroke="#dddddd" points="6164.71,-1917.63 6168.29,-1927.6 6171.71,-1917.58 6164.71,-1917.63"/>
<text text-anchor="middle" x="5530.83" y="-718.85" font-family="Times,serif" font-size="14.00">Bolt cutters</text>
</g>
<!-- 45206&#45;&gt;END_NODE -->
<g id="edge129" class="edge">
<title>45206&#45;&gt;END_NODE</title>
<path fill="none" stroke="#dddddd" d="M4830.53,-852.03C4856.88,-813.86 4889.88,-775.59 4928.66,-749.2 5037.91,-674.88 6031.43,-628.1 6117.68,-728.2 6157.23,-774.1 6166.58,-1700.2 6168.23,-1917.74"/>
<polygon fill="#dddddd" stroke="#dddddd" points="6164.73,-1917.53 6168.31,-1927.51 6171.73,-1917.48 6164.73,-1917.53"/>
<text text-anchor="middle" x="5530.83" y="-678.3" font-family="Times,serif" font-size="14.00">Digging tool</text>
</g>
<!-- 45206&#45;&gt;END_NODE -->
<g id="edge130" class="edge">
<title>45206&#45;&gt;END_NODE</title>
<path fill="none" stroke="#dddddd" d="M4817.82,-845.66C4845.06,-796.33 4881.84,-744.75 4928.66,-710.2 5034.99,-631.76 6031.93,-588.67 6117.68,-689.2 6158.32,-736.85 6166.85,-1696.01 6168.29,-1917.74"/>
<polygon fill="#dddddd" stroke="#dddddd" points="6164.78,-1917.43 6168.35,-1927.41 6171.78,-1917.39 6164.78,-1917.43"/>
<text text-anchor="middle" x="5530.83" y="-637.52" font-family="Times,serif" font-size="14.00">Crow bar</text>
</g>
<!-- 45206&#45;&gt;END_NODE -->
<g id="edge131" class="edge">
<title>45206&#45;&gt;END_NODE</title>
<path fill="none" stroke="#dddddd" d="M4806.51,-841.52C4833.63,-780.55 4873.33,-713.86 4928.66,-670.2 5032.39,-588.35 6032.88,-548.88 6117.68,-650.2 6159.17,-699.78 6167.06,-1691.14 6168.32,-1917.47"/>
<polygon fill="#dddddd" stroke="#dddddd" points="6164.82,-1917.38 6168.38,-1927.36 6171.82,-1917.34 6164.82,-1917.38"/>
<text text-anchor="middle" x="5530.83" y="-596.34" font-family="Times,serif" font-size="14.00">Improvised tool</text>
</g>
<!-- 45206&#45;&gt;END_NODE -->
<g id="edge132" class="edge">
<title>45206&#45;&gt;END_NODE</title>
<path fill="none" stroke="#dddddd" d="M4771.5,-1140.69C4792.3,-1337.36 4839.41,-1662.05 4928.66,-1738.2 5029.38,-1824.14 6012.41,-1735.91 6117.68,-1816.2 6148.93,-1840.04 6161.09,-1884.29 6165.76,-1918.04"/>
<polygon fill="#dddddd" stroke="#dddddd" points="6162.23,-1918.01 6166.89,-1927.53 6169.18,-1917.18 6162.23,-1918.01"/>
<text text-anchor="middle" x="5530.83" y="-1782.69" font-family="Times,serif" font-size="14.00">Other: Specify</text>
</g>
<!-- 45206&#45;&gt;END_NODE -->
<g id="edge133" class="edge">
<title>45206&#45;&gt;END_NODE</title>
<path fill="none" stroke="#dddddd" d="M4777.71,-1139.87C4803.35,-1312.74 4853.87,-1579.01 4928.66,-1645.2 5019.13,-1725.27 5888.02,-1762.64 6008.18,-1775.2 6056.88,-1780.3 6080.22,-1755.69 6117.68,-1787.2 6155.54,-1819.04 6166.17,-1877.15 6168.68,-1917.86"/>
<polygon fill="#dddddd" stroke="#dddddd" points="6165.17,-1917.76 6169.13,-1927.59 6172.16,-1917.44 6165.17,-1917.76"/>
<text text-anchor="middle" x="5530.83" y="-1748.62" font-family="Times,serif" font-size="14.00">Not Known</text>
</g>
<!-- 45207 -->
<g id="node15" class="node">
<title>45207</title>
<ellipse fill="none" stroke="black" cx="5263.5" cy="-1162.2" rx="191.59" ry="191.59"/>
<text text-anchor="middle" x="5263.5" y="-1157.15" font-family="Times,serif" font-size="14.00">What was the source of the tools/foreign object?</text>
</g>
<!-- 45206&#45;&gt;45207 -->
<g id="edge134" class="edge">
<title>45206&#45;&gt;45207</title>
<path fill="none" stroke="black" d="M4909.89,-1006.2C4975,-1014.87 5039.49,-1024.37 5053.91,-1029.7 5067.83,-1034.85 5081.8,-1041.03 5095.55,-1047.87"/>
<polygon fill="black" stroke="black" points="5093.68,-1050.84 5104.17,-1052.27 5096.86,-1044.6 5093.68,-1050.84"/>
<text text-anchor="middle" x="4991.29" y="-1032.9" font-family="Times,serif" font-size="14.00">Hacksaw blade</text>
</g>
<!-- 45206&#45;&gt;45207 -->
<g id="edge135" class="edge">
<title>45206&#45;&gt;45207</title>
<path fill="none" stroke="black" d="M4909.75,-969.05C4957.13,-968.47 5008.77,-973.24 5053.91,-989.7 5075.63,-997.63 5096.71,-1008.88 5116.59,-1021.88"/>
<polygon fill="black" stroke="black" points="5114.44,-1024.65 5124.69,-1027.34 5118.36,-1018.85 5114.44,-1024.65"/>
<text text-anchor="middle" x="4991.29" y="-992.9" font-family="Times,serif" font-size="14.00">Other blade</text>
</g>
<!-- 45206&#45;&gt;45207 -->
<g id="edge136" class="edge">
<title>45206&#45;&gt;45207</title>
<path fill="none" stroke="black" d="M4903.14,-938.86C4952.49,-930.03 5006.99,-928.95 5053.91,-948.7 5084.16,-961.44 5112.21,-980.94 5137.3,-1003.09"/>
<polygon fill="black" stroke="black" points="5134.81,-1005.56 5144.57,-1009.68 5139.51,-1000.37 5134.81,-1005.56"/>
<text text-anchor="middle" x="4991.29" y="-951.9" font-family="Times,serif" font-size="14.00">Wire cutters</text>
</g>
<!-- 45206&#45;&gt;45207 -->
<g id="edge137" class="edge">
<title>45206&#45;&gt;45207</title>
<path fill="none" stroke="black" d="M4893.15,-915.31C4944.94,-897.41 5003.63,-889.2 5053.91,-912.7 5092.18,-930.59 5125.89,-959.33 5154.45,-991.05"/>
<polygon fill="black" stroke="black" points="5151.75,-993.29 5160.98,-998.49 5157.01,-988.67 5151.75,-993.29"/>
<text text-anchor="middle" x="4991.29" y="-915.9" font-family="Times,serif" font-size="14.00">Bolt cutters</text>
</g>
<!-- 45206&#45;&gt;45207 -->
<g id="edge138" class="edge">
<title>45206&#45;&gt;45207</title>
<path fill="none" stroke="black" d="M4832.33,-1121.73C4858.09,-1155.53 4890.32,-1187.48 4928.66,-1206.2 4972.03,-1227.39 5022.15,-1230.33 5070.16,-1224.59"/>
<polygon fill="black" stroke="black" points="5070.39,-1228.09 5079.84,-1223.3 5069.46,-1221.15 5070.39,-1228.09"/>
<text text-anchor="middle" x="4991.29" y="-1230.33" font-family="Times,serif" font-size="14.00">Digging tool</text>
</g>
<!-- 45206&#45;&gt;45207 -->
<g id="edge139" class="edge">
<title>45206&#45;&gt;45207</title>
<path fill="none" stroke="black" d="M4849.35,-1110.56C4872.5,-1133.19 4899.25,-1153.61 4928.66,-1166.2 4953.71,-1176.93 5005.39,-1179.24 5060.76,-1177.86"/>
<polygon fill="black" stroke="black" points="5060.84,-1181.36 5070.74,-1177.57 5060.64,-1174.36 5060.84,-1181.36"/>
<text text-anchor="middle" x="4991.29" y="-1181.42" font-family="Times,serif" font-size="14.00">Crow bar</text>
</g>
<!-- 45206&#45;&gt;45207 -->
<g id="edge140" class="edge">
<title>45206&#45;&gt;45207</title>
<path fill="none" stroke="black" d="M4869.15,-1092.37C4887.91,-1105.66 4908.03,-1117.59 4928.66,-1126.2 4942.43,-1131.95 4998.55,-1138.86 5060.96,-1145.08"/>
<polygon fill="black" stroke="black" points="5060.46,-1148.54 5070.76,-1146.04 5061.15,-1141.58 5060.46,-1148.54"/>
<text text-anchor="middle" x="4991.29" y="-1147.35" font-family="Times,serif" font-size="14.00">Improvised tool</text>
</g>
<!-- 45206&#45;&gt;45207 -->
<g id="edge141" class="edge">
<title>45206&#45;&gt;45207</title>
<path fill="none" stroke="black" d="M4887.46,-1068.79C4901.06,-1075.38 4914.93,-1081.35 4928.66,-1086.2 4981.77,-1104.99 4998.8,-1093.99 5053.91,-1105.7 5058.33,-1106.64 5062.79,-1107.62 5067.28,-1108.62"/>
<polygon fill="black" stroke="black" points="5066.5,-1112.04 5077.03,-1110.85 5068.06,-1105.21 5066.5,-1112.04"/>
<text text-anchor="middle" x="4991.29" y="-1108.9" font-family="Times,serif" font-size="14.00">Other: Please specify</text>
</g>
<!-- 45206&#45;&gt;45207 -->
<g id="edge142" class="edge">
<title>45206&#45;&gt;45207</title>
<path fill="none" stroke="black" d="M4901.77,-1038.93C4910.82,-1041.56 4919.84,-1044.01 4928.66,-1046.2 4983.33,-1059.79 4999.99,-1049.38 5053.91,-1065.7 5062.6,-1068.33 5071.39,-1071.26 5080.2,-1074.4"/>
<polygon fill="black" stroke="black" points="5078.93,-1077.67 5089.52,-1077.82 5081.34,-1071.09 5078.93,-1077.67"/>
<text text-anchor="middle" x="4991.29" y="-1068.9" font-family="Times,serif" font-size="14.00">Not Known</text>
</g>
<!-- 45207&#45;&gt;END_NODE -->
<g id="edge143" class="edge">
<title>45207&#45;&gt;END_NODE</title>
<path fill="none" stroke="#dddddd" d="M5452.4,-1196.09C5520.32,-1208.94 5582.11,-1221.58 5588.58,-1226.2 5601.55,-1235.46 5593.2,-1248.55 5606.58,-1257.2 5757.28,-1354.62 5860.83,-1196.3 6008.18,-1298.7 6098.36,-1361.37 6086.63,-1414.87 6117.68,-1520.2 6159.21,-1661.04 6167.12,-1836.37 6168.43,-1917.76"/>
<polygon fill="#dddddd" stroke="#dddddd" points="6164.93,-1917.61 6168.56,-1927.56 6171.93,-1917.52 6164.93,-1917.61"/>
<text text-anchor="middle" x="5807.38" y="-1301.9" font-family="Times,serif" font-size="14.00">Works Department</text>
</g>
<!-- 45207&#45;&gt;END_NODE -->
<g id="edge144" class="edge">
<title>45207&#45;&gt;END_NODE</title>
<path fill="none" stroke="#dddddd" d="M5454.05,-1183.55C5498.25,-1188.93 5545.11,-1194.97 5588.58,-1201.2 5596.61,-1202.36 5598.54,-1203.21 5606.58,-1204.2 5784.3,-1226.17 5838.94,-1178.2 6008.18,-1236.7 6063.35,-1255.77 6088.09,-1258.9 6117.68,-1309.2 6148.37,-1361.36 6163.16,-1777.77 6167.29,-1917.6"/>
<polygon fill="#dddddd" stroke="#dddddd" points="6163.79,-1917.7 6167.58,-1927.59 6170.79,-1917.49 6163.79,-1917.7"/>
<text text-anchor="middle" x="5807.38" y="-1239.9" font-family="Times,serif" font-size="14.00">Contractors</text>
</g>
<!-- 45207&#45;&gt;END_NODE -->
<g id="edge145" class="edge">
<title>45207&#45;&gt;END_NODE</title>
<path fill="none" stroke="#dddddd" d="M5455.39,-1158.29C5640.5,-1156.19 5907.65,-1158.14 6008.18,-1183.7 6061.06,-1197.15 6087.51,-1193.74 6117.68,-1239.2 6155.12,-1295.62 6165.54,-1767.63 6167.92,-1917.64"/>
<polygon fill="#dddddd" stroke="#dddddd" points="6164.42,-1917.64 6168.08,-1927.59 6171.42,-1917.53 6164.42,-1917.64"/>
<text text-anchor="middle" x="5807.38" y="-1186.9" font-family="Times,serif" font-size="14.00">Education</text>
</g>
<!-- 45207&#45;&gt;END_NODE -->
<g id="edge146" class="edge">
<title>45207&#45;&gt;END_NODE</title>
<path fill="none" stroke="#dddddd" d="M5453.49,-1134.5C5681.52,-1106.27 6043.67,-1079.91 6117.68,-1184.2 6160.15,-1244.05 6167.16,-1760.2 6168.31,-1917.74"/>
<polygon fill="#dddddd" stroke="#dddddd" points="6164.81,-1917.39 6168.38,-1927.36 6171.81,-1917.34 6164.81,-1917.39"/>
<text text-anchor="middle" x="5807.38" y="-1129.8" font-family="Times,serif" font-size="14.00">Heathcare Centre</text>
</g>
<!-- 45207&#45;&gt;END_NODE -->
<g id="edge147" class="edge">
<title>45207&#45;&gt;END_NODE</title>
<path fill="none" stroke="#dddddd" d="M5450.97,-1120.95C5458.44,-1119.34 5465.83,-1117.75 5473.08,-1116.2 5705.98,-1066.54 5773.94,-1045.8 6008.18,-1088.7 6059.38,-1098.08 6086.82,-1088.3 6117.68,-1130.2 6164.51,-1193.79 6168.46,-1753.23 6168.6,-1917.83"/>
<polygon fill="#dddddd" stroke="#dddddd" points="6165.1,-1917.48 6168.61,-1927.48 6172.1,-1917.48 6165.1,-1917.48"/>
<text text-anchor="middle" x="5807.38" y="-1091.9" font-family="Times,serif" font-size="14.00">Farms and Gardens</text>
</g>
<!-- 45207&#45;&gt;END_NODE -->
<g id="edge148" class="edge">
<title>45207&#45;&gt;END_NODE</title>
<path fill="none" stroke="#dddddd" d="M5444.45,-1098.03C5454.12,-1094.69 5463.72,-1091.39 5473.08,-1088.2 5532.16,-1068.1 5544.95,-1054.49 5606.58,-1044.7 5782.86,-1016.71 5832.74,-1011.85 6008.18,-1044.7 6059.49,-1054.31 6086.96,-1045 6117.68,-1087.2 6166.77,-1154.63 6169.09,-1747.68 6168.73,-1917.78"/>
<polygon fill="#dddddd" stroke="#dddddd" points="6165.24,-1917.53 6168.71,-1927.54 6172.24,-1917.55 6165.24,-1917.53"/>
<text text-anchor="middle" x="5807.38" y="-1047.9" font-family="Times,serif" font-size="14.00">Staff</text>
</g>
<!-- 45207&#45;&gt;END_NODE -->
<g id="edge149" class="edge">
<title>45207&#45;&gt;END_NODE</title>
<path fill="none" stroke="#dddddd" d="M5429.14,-1064.99C5443.81,-1057.57 5458.59,-1050.53 5473.08,-1044.2 5691.74,-948.78 5773.69,-957.79 6008.18,-1001.7 6059.49,-1011.31 6087.02,-1001.96 6117.68,-1044.2 6169.27,-1115.27 6169.76,-1741.91 6168.87,-1917.59"/>
<polygon fill="#dddddd" stroke="#dddddd" points="6165.37,-1917.44 6168.81,-1927.46 6172.37,-1917.48 6165.37,-1917.44"/>
<text text-anchor="middle" x="5807.38" y="-1004.9" font-family="Times,serif" font-size="14.00">Visitor</text>
</g>
<!-- 45207&#45;&gt;END_NODE -->
<g id="edge150" class="edge">
<title>45207&#45;&gt;END_NODE</title>
<path fill="none" stroke="#dddddd" d="M5409.58,-1037.85C5430.19,-1023.07 5451.67,-1009.06 5473.08,-997.2 5681.98,-881.58 5774.98,-898.52 6008.18,-949.7 6060.53,-961.19 6087.61,-955.84 6117.68,-1000.2 6169.51,-1076.65 6169.77,-1736.83 6168.86,-1917.6"/>
<polygon fill="#dddddd" stroke="#dddddd" points="6165.36,-1917.52 6168.81,-1927.54 6172.36,-1917.56 6165.36,-1917.52"/>
<text text-anchor="middle" x="5807.38" y="-952.9" font-family="Times,serif" font-size="14.00">Other: Specify</text>
</g>
<!-- 45207&#45;&gt;END_NODE -->
<g id="edge151" class="edge">
<title>45207&#45;&gt;END_NODE</title>
<path fill="none" stroke="#dddddd" d="M5385.04,-1013.52C5411.96,-986.3 5441.86,-959.97 5473.08,-939.2 5671.95,-806.93 5776.7,-830.88 6008.18,-889.7 6061.86,-903.35 6088.19,-902.32 6117.68,-949.2 6169.69,-1031.86 6169.76,-1731.35 6168.85,-1917.73"/>
<polygon fill="#dddddd" stroke="#dddddd" points="6165.35,-1917.47 6168.8,-1927.49 6172.35,-1917.51 6165.35,-1917.47"/>
<text text-anchor="middle" x="5807.38" y="-892.9" font-family="Times,serif" font-size="14.00">Not Known</text>
</g>
<!-- 45207&#45;&gt;45208 -->
<g id="edge152" class="edge">
<title>45207&#45;&gt;45208</title>
<path fill="none" stroke="black" d="M5349.87,-1333.43C5382.12,-1382.31 5423.31,-1430.99 5473.08,-1463.2 5476.32,-1465.3 5532.88,-1476.09 5598.52,-1488.1"/>
<polygon fill="black" stroke="black" points="5597.6,-1491.49 5608.06,-1489.84 5598.86,-1484.6 5597.6,-1491.49"/>
<text text-anchor="middle" x="5530.83" y="-1488.7" font-family="Times,serif" font-size="14.00">Works Department</text>
</g>
<!-- 45207&#45;&gt;45208 -->
<g id="edge153" class="edge">
<title>45207&#45;&gt;45208</title>
<path fill="none" stroke="black" d="M5364.68,-1325.23C5395.08,-1362.77 5431.59,-1398.79 5473.08,-1423.2 5517.95,-1449.61 5538.34,-1429.09 5588.58,-1442.7 5595.37,-1444.54 5602.24,-1446.51 5609.15,-1448.59"/>
<polygon fill="black" stroke="black" points="5608,-1451.9 5618.59,-1451.49 5610.06,-1445.21 5608,-1451.9"/>
<text text-anchor="middle" x="5530.83" y="-1445.9" font-family="Times,serif" font-size="14.00">Contractors</text>
</g>
<!-- 45207&#45;&gt;45208 -->
<g id="edge154" class="edge">
<title>45207&#45;&gt;45208</title>
<path fill="none" stroke="black" d="M5381.52,-1313.41C5408.86,-1340.34 5439.81,-1365.43 5473.08,-1383.2 5519,-1407.74 5539.5,-1385.35 5588.58,-1402.7 5600.45,-1406.9 5612.42,-1411.71 5624.32,-1416.96"/>
<polygon fill="black" stroke="black" points="5622.82,-1420.12 5633.38,-1421.05 5625.7,-1413.74 5622.82,-1420.12"/>
<text text-anchor="middle" x="5530.83" y="-1405.9" font-family="Times,serif" font-size="14.00">Education</text>
</g>
<!-- 45207&#45;&gt;45208 -->
<g id="edge155" class="edge">
<title>45207&#45;&gt;45208</title>
<path fill="none" stroke="black" d="M5399.51,-1297.34C5422.63,-1315.01 5447.5,-1331.13 5473.08,-1343.2 5520.16,-1365.42 5540.72,-1342.23 5588.58,-1362.7 5606.88,-1370.53 5625.07,-1380.19 5642.67,-1390.87"/>
<polygon fill="black" stroke="black" points="5640.77,-1393.8 5651.11,-1396.1 5644.46,-1387.85 5640.77,-1393.8"/>
<text text-anchor="middle" x="5530.83" y="-1365.9" font-family="Times,serif" font-size="14.00">Health Care Centre</text>
</g>
<!-- 45207&#45;&gt;45208 -->
<g id="edge156" class="edge">
<title>45207&#45;&gt;45208</title>
<path fill="none" stroke="black" d="M5417.91,-1276.26C5435.93,-1286.49 5454.52,-1295.77 5473.08,-1303.2 5521.41,-1322.55 5541.89,-1299.68 5588.58,-1322.7 5614.25,-1335.36 5639.01,-1352.03 5662.05,-1370.37"/>
<polygon fill="black" stroke="black" points="5659.65,-1372.94 5669.62,-1376.53 5664.07,-1367.5 5659.65,-1372.94"/>
<text text-anchor="middle" x="5530.83" y="-1325.9" font-family="Times,serif" font-size="14.00">Farms and Gardens</text>
</g>
<!-- 45207&#45;&gt;45208 -->
<g id="edge157" class="edge">
<title>45207&#45;&gt;45208</title>
<path fill="none" stroke="black" d="M5434.5,-1249.29C5447.39,-1254.42 5460.34,-1259.13 5473.08,-1263.2 5522.68,-1279.04 5545.02,-1254.21 5588.58,-1282.7 5600.81,-1290.7 5597.58,-1298.7 5606.58,-1310.2 5622.94,-1331.1 5640.91,-1352.39 5659.16,-1373.05"/>
<polygon fill="black" stroke="black" points="5656.45,-1375.27 5665.71,-1380.42 5661.68,-1370.62 5656.45,-1375.27"/>
<text text-anchor="middle" x="5530.83" y="-1285.9" font-family="Times,serif" font-size="14.00">Staff</text>
</g>
<!-- 45207&#45;&gt;45208 -->
<g id="edge158" class="edge">
<title>45207&#45;&gt;45208</title>
<path fill="none" stroke="black" d="M5447.32,-1216.99C5456.01,-1219.17 5464.63,-1221.26 5473.08,-1223.2 5523.82,-1234.86 5550.09,-1207.65 5588.58,-1242.7 5611.54,-1263.61 5591.57,-1283.03 5606.58,-1310.2 5619.63,-1333.82 5635.83,-1356.87 5653.32,-1378.57"/>
<polygon fill="black" stroke="black" points="5650.6,-1380.78 5659.65,-1386.29 5656.02,-1376.34 5650.6,-1380.78"/>
<text text-anchor="middle" x="5530.83" y="-1245.9" font-family="Times,serif" font-size="14.00">Visitor</text>
</g>
<!-- 45207&#45;&gt;45208 -->
<g id="edge159" class="edge">
<title>45207&#45;&gt;45208</title>
<path fill="none" stroke="black" d="M5318.63,-1345.87C5350.76,-1420.79 5399.94,-1499.86 5473.08,-1543.2 5495.66,-1556.58 5543.97,-1558.24 5596.98,-1554.8"/>
<polygon fill="black" stroke="black" points="5597.12,-1558.3 5606.85,-1554.1 5596.63,-1551.32 5597.12,-1558.3"/>
<text text-anchor="middle" x="5530.83" y="-1559.54" font-family="Times,serif" font-size="14.00">Other: Please specify</text>
</g>
<!-- 45207&#45;&gt;45208 -->
<g id="edge160" class="edge">
<title>45207&#45;&gt;45208</title>
<path fill="none" stroke="black" d="M5332.7,-1341.04C5365.54,-1402.88 5411.47,-1465.95 5473.08,-1503.2 5485.18,-1510.52 5536.38,-1515.45 5595.15,-1518.75"/>
<polygon fill="black" stroke="black" points="5594.91,-1522.25 5605.09,-1519.29 5595.29,-1515.26 5594.91,-1522.25"/>
<text text-anchor="middle" x="5530.83" y="-1521.4" font-family="Times,serif" font-size="14.00">Not Known</text>
</g>
</g>
</svg>
