<?xml version="1.0" encoding="UTF-8" standalone="no"?>
<!DOCTYPE svg PUBLIC "-//W3C//DTD SVG 1.1//EN"
 "http://www.w3.org/Graphics/SVG/1.1/DTD/svg11.dtd">
<!-- Generated by graphviz version 12.1.1 (20240910.0053)
 -->
<!-- Title: MISCELLANEOUS Pages: 1 -->
<svg width="10068pt" height="740pt"
 viewBox="0.00 0.00 10067.62 740.20" xmlns="http://www.w3.org/2000/svg" xmlns:xlink="http://www.w3.org/1999/xlink">
<g id="graph0" class="graph" transform="scale(1 1) rotate(0) translate(4 736.2)">
<title>MISCELLANEOUS</title>
<polygon fill="white" stroke="none" points="-4,4 -4,-736.2 10063.62,-736.2 10063.62,4 -4,4"/>
<!-- START_NODE -->
<g id="node1" class="node">
<title>START_NODE</title>
</g>
<!-- 44290 -->
<g id="node2" class="node">
<title>44290</title>
<ellipse fill="none" stroke="black" cx="280.27" cy="-478.63" rx="167.02" ry="167.02"/>
<text text-anchor="middle" x="280.27" y="-473.58" font-family="Times,serif" font-size="14.00">Were the police informed of the incident?</text>
</g>
<!-- START_NODE&#45;&gt;44290 -->
<g id="edge1" class="edge">
<title>START_NODE&#45;&gt;44290</title>
<path fill="none" stroke="black" d="M53.94,-478.63C66.67,-478.63 83.21,-478.63 101.55,-478.63"/>
<polygon fill="black" stroke="black" points="101.34,-482.13 111.34,-478.63 101.34,-475.13 101.34,-482.13"/>
<text text-anchor="middle" x="83.62" y="-481.83" font-family="Times,serif" font-size="14.00">start</text>
</g>
<!-- 44133 -->
<g id="node7" class="node">
<title>44133</title>
<ellipse fill="none" stroke="black" cx="1653.7" cy="-519.63" rx="212.57" ry="212.57"/>
<text text-anchor="middle" x="1653.7" y="-514.58" font-family="Times,serif" font-size="14.00">Is the incident the subject of an internal investigation?</text>
</g>
<!-- 44290&#45;&gt;44133 -->
<g id="edge14" class="edge">
<title>44290&#45;&gt;44133</title>
<path fill="none" stroke="black" d="M430.98,-551.48C456.42,-561.02 482.96,-569.32 508.79,-574.63 887.9,-652.61 994.7,-618.06 1379.63,-577.63 1397.78,-575.73 1416.49,-573.13 1435.22,-570.08"/>
<polygon fill="black" stroke="black" points="1435.78,-573.53 1445.06,-568.43 1434.62,-566.63 1435.78,-573.53"/>
<text text-anchor="middle" x="944.21" y="-623.91" font-family="Times,serif" font-size="14.00">NO</text>
</g>
<!-- 44607 -->
<g id="node12" class="node">
<title>44607</title>
<ellipse fill="none" stroke="black" cx="711.12" cy="-363.63" rx="202.33" ry="202.33"/>
<text text-anchor="middle" x="711.12" y="-358.58" font-family="Times,serif" font-size="14.00">Is the incident the subject of a police investigation?</text>
</g>
<!-- 44290&#45;&gt;44607 -->
<g id="edge13" class="edge">
<title>44290&#45;&gt;44607</title>
<path fill="none" stroke="black" d="M441.87,-435.57C462.33,-430.08 483.48,-424.41 504.51,-418.77"/>
<polygon fill="black" stroke="black" points="505.29,-422.19 514.04,-416.22 503.47,-415.42 505.29,-422.19"/>
<text text-anchor="middle" x="478.04" y="-431.22" font-family="Times,serif" font-size="14.00">YES</text>
</g>
<!-- END_NODE -->
<g id="node3" class="node">
<title>END_NODE</title>
<ellipse fill="none" stroke="black" cx="10025.76" cy="-385.63" rx="29.86" ry="29.86"/>
<ellipse fill="none" stroke="black" cx="10025.76" cy="-385.63" rx="33.86" ry="33.86"/>
<text text-anchor="middle" x="10025.76" y="-380.58" font-family="Times,serif" font-size="14.00">END</text>
</g>
<!-- 44129 -->
<g id="node4" class="node">
<title>44129</title>
<ellipse fill="none" stroke="black" cx="6708.14" cy="-258.63" rx="258.63" ry="258.63"/>
<text text-anchor="middle" x="6708.14" y="-253.58" font-family="Times,serif" font-size="14.00">Did injuries result in detention in outside hospital as an in&#45;patient?</text>
</g>
<!-- 44503 -->
<g id="node5" class="node">
<title>44503</title>
<ellipse fill="none" stroke="black" cx="7183.01" cy="-394.63" rx="154.74" ry="154.74"/>
<text text-anchor="middle" x="7183.01" y="-389.58" font-family="Times,serif" font-size="14.00">Who was detained in outside hospital?</text>
</g>
<!-- 44129&#45;&gt;44503 -->
<g id="edge2" class="edge">
<title>44129&#45;&gt;44503</title>
<path fill="none" stroke="black" d="M6957,-329.92C6979.33,-336.34 7001.53,-342.73 7022.79,-348.84"/>
<polygon fill="black" stroke="black" points="7021.79,-352.2 7032.37,-351.6 7023.73,-345.47 7021.79,-352.2"/>
<text text-anchor="middle" x="6997.52" y="-346.01" font-family="Times,serif" font-size="14.00">YES</text>
</g>
<!-- 44588 -->
<g id="node6" class="node">
<title>44588</title>
<ellipse fill="none" stroke="black" cx="7749.05" cy="-394.63" rx="233.56" ry="233.56"/>
<text text-anchor="middle" x="7749.05" y="-389.58" font-family="Times,serif" font-size="14.00">Are there any staff now off duty as a result of this incident?</text>
</g>
<!-- 44129&#45;&gt;44588 -->
<g id="edge3" class="edge">
<title>44129&#45;&gt;44588</title>
<path fill="none" stroke="black" d="M6962.14,-209.06C7077.68,-194.49 7215.69,-188.47 7337.74,-214.13 7403.39,-227.94 7471.35,-252.91 7532.62,-279.96"/>
<polygon fill="black" stroke="black" points="7530.85,-283.01 7541.41,-283.88 7533.7,-276.61 7530.85,-283.01"/>
<text text-anchor="middle" x="7183.01" y="-217.33" font-family="Times,serif" font-size="14.00">NO</text>
</g>
<!-- 44503&#45;&gt;44588 -->
<g id="edge17" class="edge">
<title>44503&#45;&gt;44588</title>
<path fill="none" stroke="black" d="M7328.86,-447.19C7337.89,-449.33 7346.89,-451.18 7355.74,-452.63 7405.9,-460.88 7459.76,-459.54 7511.01,-453.46"/>
<polygon fill="black" stroke="black" points="7511.26,-456.96 7520.75,-452.24 7510.39,-450.01 7511.26,-456.96"/>
<text text-anchor="middle" x="7426.62" y="-461.62" font-family="Times,serif" font-size="14.00">STAFF</text>
</g>
<!-- 44503&#45;&gt;44588 -->
<g id="edge18" class="edge">
<title>44503&#45;&gt;44588</title>
<path fill="none" stroke="black" d="M7337.03,-411.49C7343.35,-411.93 7349.61,-412.31 7355.74,-412.63 7403.83,-415.15 7455.24,-414.9 7504.48,-413.23"/>
<polygon fill="black" stroke="black" points="7504.57,-416.73 7514.44,-412.87 7504.32,-409.74 7504.57,-416.73"/>
<text text-anchor="middle" x="7426.62" y="-417.7" font-family="Times,serif" font-size="14.00">PRISONERS</text>
</g>
<!-- 44503&#45;&gt;44588 -->
<g id="edge19" class="edge">
<title>44503&#45;&gt;44588</title>
<path fill="none" stroke="black" d="M7338.02,-392.28C7344,-392.23 7349.93,-392.18 7355.74,-392.13 7403.61,-391.79 7454.76,-391.82 7503.78,-392.05"/>
<polygon fill="black" stroke="black" points="7503.66,-395.54 7513.68,-392.09 7503.7,-388.54 7503.66,-395.54"/>
<text text-anchor="middle" x="7426.62" y="-395.33" font-family="Times,serif" font-size="14.00">CIVILIAN GRADES</text>
</g>
<!-- 44503&#45;&gt;44588 -->
<g id="edge20" class="edge">
<title>44503&#45;&gt;44588</title>
<path fill="none" stroke="black" d="M7336.53,-372.67C7343.01,-372.08 7349.44,-371.56 7355.74,-371.13 7403.98,-367.85 7455.56,-368.18 7504.95,-370.38"/>
<polygon fill="black" stroke="black" points="7504.78,-373.88 7514.94,-370.86 7505.12,-366.89 7504.78,-373.88"/>
<text text-anchor="middle" x="7426.62" y="-374.33" font-family="Times,serif" font-size="14.00">POLICE</text>
</g>
<!-- 44503&#45;&gt;44588 -->
<g id="edge21" class="edge">
<title>44503&#45;&gt;44588</title>
<path fill="none" stroke="black" d="M7331.98,-351.95C7339.98,-350.46 7347.94,-349.17 7355.74,-348.13 7405.04,-341.58 7457.89,-342.47 7508.32,-347.11"/>
<polygon fill="black" stroke="black" points="7507.92,-350.59 7518.22,-348.08 7508.6,-343.62 7507.92,-350.59"/>
<text text-anchor="middle" x="7426.62" y="-351.33" font-family="Times,serif" font-size="14.00">EXTERNAL CIVILIANS</text>
</g>
<!-- 44541 -->
<g id="node16" class="node">
<title>44541</title>
<ellipse fill="none" stroke="black" cx="8257.19" cy="-394.63" rx="213.08" ry="213.08"/>
<text text-anchor="middle" x="8257.19" y="-389.58" font-family="Times,serif" font-size="14.00">Are any staff on sick leave as a result of this incident?</text>
</g>
<!-- 44588&#45;&gt;44541 -->
<g id="edge24" class="edge">
<title>44588&#45;&gt;44541</title>
<path fill="none" stroke="black" d="M7982.75,-394.63C7999.31,-394.63 8015.99,-394.63 8032.5,-394.63"/>
<polygon fill="black" stroke="black" points="8032.38,-398.13 8042.38,-394.63 8032.38,-391.13 8032.38,-398.13"/>
<text text-anchor="middle" x="8013.35" y="-397.83" font-family="Times,serif" font-size="14.00">YES</text>
</g>
<!-- 44588&#45;&gt;44541 -->
<g id="edge25" class="edge">
<title>44588&#45;&gt;44541</title>
<path fill="none" stroke="black" d="M7981.94,-373.42C7996.88,-373.28 8011.7,-373.49 8026.1,-374.13 8028.49,-374.24 8030.89,-374.35 8033.3,-374.47"/>
<polygon fill="black" stroke="black" points="8032.99,-377.96 8043.15,-374.99 8033.35,-370.97 8032.99,-377.96"/>
<text text-anchor="middle" x="8013.35" y="-377.33" font-family="Times,serif" font-size="14.00">NO</text>
</g>
<!-- 45122 -->
<g id="node8" class="node">
<title>45122</title>
<ellipse fill="none" stroke="black" cx="2129.59" cy="-519.63" rx="201.82" ry="201.82"/>
<text text-anchor="middle" x="2129.59" y="-514.58" font-family="Times,serif" font-size="14.00">Is the incident subject to a governor&#39;s adjudication?</text>
</g>
<!-- 44133&#45;&gt;45122 -->
<g id="edge4" class="edge">
<title>44133&#45;&gt;45122</title>
<path fill="none" stroke="black" d="M1866.7,-519.63C1883.12,-519.63 1899.7,-519.63 1916.12,-519.63"/>
<polygon fill="black" stroke="black" points="1915.95,-523.13 1925.95,-519.63 1915.95,-516.13 1915.95,-523.13"/>
<text text-anchor="middle" x="1897.02" y="-522.83" font-family="Times,serif" font-size="14.00">YES</text>
</g>
<!-- 44133&#45;&gt;45122 -->
<g id="edge5" class="edge">
<title>44133&#45;&gt;45122</title>
<path fill="none" stroke="black" d="M1865.5,-498.5C1880.48,-498.29 1895.35,-498.46 1909.77,-499.13 1912.15,-499.25 1914.55,-499.36 1916.96,-499.49"/>
<polygon fill="black" stroke="black" points="1916.62,-502.97 1926.8,-500.03 1917.01,-495.98 1916.62,-502.97"/>
<text text-anchor="middle" x="1897.02" y="-502.33" font-family="Times,serif" font-size="14.00">NO</text>
</g>
<!-- 45139 -->
<g id="node23" class="node">
<title>45139</title>
<ellipse fill="none" stroke="black" cx="2595.76" cy="-519.63" rx="202.85" ry="202.85"/>
<text text-anchor="middle" x="2595.76" y="-514.58" font-family="Times,serif" font-size="14.00">Is any member of staff facing disciplinary charges?</text>
</g>
<!-- 45122&#45;&gt;45139 -->
<g id="edge53" class="edge">
<title>45122&#45;&gt;45139</title>
<path fill="none" stroke="black" d="M2331.82,-519.63C2348.24,-519.63 2364.86,-519.63 2381.35,-519.63"/>
<polygon fill="black" stroke="black" points="2381.23,-523.13 2391.23,-519.63 2381.23,-516.13 2381.23,-523.13"/>
<text text-anchor="middle" x="2362.17" y="-522.83" font-family="Times,serif" font-size="14.00">YES</text>
</g>
<!-- 45122&#45;&gt;45139 -->
<g id="edge54" class="edge">
<title>45122&#45;&gt;45139</title>
<path fill="none" stroke="black" d="M2330.88,-500.12C2337.13,-499.75 2343.32,-499.42 2349.42,-499.13 2360.22,-498.63 2371.29,-498.42 2382.47,-498.46"/>
<polygon fill="black" stroke="black" points="2382.12,-501.96 2392.16,-498.57 2382.19,-494.96 2382.12,-501.96"/>
<text text-anchor="middle" x="2362.17" y="-502.33" font-family="Times,serif" font-size="14.00">NO</text>
</g>
<!-- 44144 -->
<g id="node9" class="node">
<title>44144</title>
<ellipse fill="none" stroke="black" cx="5544.3" cy="-320.63" rx="152.69" ry="152.69"/>
<text text-anchor="middle" x="5544.3" y="-315.58" font-family="Times,serif" font-size="14.00">Which minor injuries were sustained?</text>
</g>
<!-- 44730 -->
<g id="node10" class="node">
<title>44730</title>
<ellipse fill="none" stroke="black" cx="6121.62" cy="-258.63" rx="150.13" ry="150.13"/>
<text text-anchor="middle" x="6121.62" y="-253.58" font-family="Times,serif" font-size="14.00">Enter description of person(s) injured</text>
</g>
<!-- 44144&#45;&gt;44730 -->
<g id="edge6" class="edge">
<title>44144&#45;&gt;44730</title>
<path fill="none" stroke="black" d="M5694.91,-347.48C5772.91,-356.59 5869.35,-360.16 5953.49,-340.63 5961.7,-338.73 5969.97,-336.36 5978.21,-333.64"/>
<polygon fill="black" stroke="black" points="5979.28,-336.98 5987.57,-330.38 5976.98,-330.37 5979.28,-336.98"/>
<text text-anchor="middle" x="5834.24" y="-358.02" font-family="Times,serif" font-size="14.00">GRAZES, SCRATCHES OR ABRASIONS</text>
</g>
<!-- 44144&#45;&gt;44730 -->
<g id="edge7" class="edge">
<title>44144&#45;&gt;44730</title>
<path fill="none" stroke="black" d="M5697.2,-320.3C5774.32,-318.33 5869.28,-313.15 5953.49,-300.63 5957.31,-300.07 5961.16,-299.45 5965.04,-298.79"/>
<polygon fill="black" stroke="black" points="5965.32,-302.3 5974.54,-297.09 5964.08,-295.41 5965.32,-302.3"/>
<text text-anchor="middle" x="5834.24" y="-322.77" font-family="Times,serif" font-size="14.00">MINOR BRUISES</text>
</g>
<!-- 44144&#45;&gt;44730 -->
<g id="edge8" class="edge">
<title>44144&#45;&gt;44730</title>
<path fill="none" stroke="black" d="M5692.61,-283.78C5700.16,-282.43 5707.65,-281.2 5714.99,-280.13 5795.15,-268.54 5885.03,-263.02 5959.78,-260.46"/>
<polygon fill="black" stroke="black" points="5959.77,-263.96 5969.65,-260.14 5959.54,-256.97 5959.77,-263.96"/>
<text text-anchor="middle" x="5834.24" y="-283.33" font-family="Times,serif" font-size="14.00">SWELLINGS</text>
</g>
<!-- 44144&#45;&gt;44730 -->
<g id="edge9" class="edge">
<title>44144&#45;&gt;44730</title>
<path fill="none" stroke="black" d="M5680.02,-250.34C5691.63,-246.25 5703.38,-242.75 5714.99,-240.13 5795.29,-222.05 5886.72,-224.31 5962.42,-232.12"/>
<polygon fill="black" stroke="black" points="5961.65,-235.56 5971.97,-233.15 5962.4,-228.6 5961.65,-235.56"/>
<text text-anchor="middle" x="5834.24" y="-243.33" font-family="Times,serif" font-size="14.00">SUPERFICIAL CUTS</text>
</g>
<!-- 44144&#45;&gt;44730 -->
<g id="edge10" class="edge">
<title>44144&#45;&gt;44730</title>
<path fill="none" stroke="black" d="M5665.57,-227.36C5681.51,-218.71 5698.17,-211.28 5714.99,-206.13 5796.55,-181.19 5890.86,-191.21 5968.01,-208.87"/>
<polygon fill="black" stroke="black" points="5966.76,-212.17 5977.3,-211.06 5968.37,-205.36 5966.76,-212.17"/>
<text text-anchor="middle" x="5834.24" y="-209.33" font-family="Times,serif" font-size="14.00">OTHER</text>
</g>
<!-- 44730&#45;&gt;44129 -->
<g id="edge43" class="edge">
<title>44730&#45;&gt;44129</title>
<path fill="none" stroke="black" d="M6262.62,-310.96C6271.72,-313.2 6280.82,-315.13 6289.75,-316.63 6339.82,-325.07 6393.42,-324.68 6444.96,-319.61"/>
<polygon fill="black" stroke="black" points="6445.19,-323.1 6454.76,-318.58 6444.45,-316.14 6445.19,-323.1"/>
<text text-anchor="middle" x="6360.63" y="-326.41" font-family="Times,serif" font-size="14.00">STAFF</text>
</g>
<!-- 44730&#45;&gt;44129 -->
<g id="edge44" class="edge">
<title>44730&#45;&gt;44129</title>
<path fill="none" stroke="black" d="M6271.09,-275.46C6277.39,-275.91 6283.63,-276.31 6289.75,-276.63 6337.9,-279.22 6389.18,-279.25 6438.72,-277.87"/>
<polygon fill="black" stroke="black" points="6438.53,-281.38 6448.42,-277.58 6438.32,-274.38 6438.53,-281.38"/>
<text text-anchor="middle" x="6360.63" y="-281.97" font-family="Times,serif" font-size="14.00">PRISONERS</text>
</g>
<!-- 44730&#45;&gt;44129 -->
<g id="edge45" class="edge">
<title>44730&#45;&gt;44129</title>
<path fill="none" stroke="black" d="M6272.06,-256.29C6278.03,-256.23 6283.95,-256.18 6289.75,-256.13 6337.57,-255.78 6388.46,-255.77 6437.67,-255.96"/>
<polygon fill="black" stroke="black" points="6437.61,-259.46 6447.63,-256 6437.64,-252.46 6437.61,-259.46"/>
<text text-anchor="middle" x="6360.63" y="-259.33" font-family="Times,serif" font-size="14.00">CIVILIAN GRADES</text>
</g>
<!-- 44730&#45;&gt;44129 -->
<g id="edge46" class="edge">
<title>44730&#45;&gt;44129</title>
<path fill="none" stroke="black" d="M6270.59,-236.71C6277.06,-236.1 6283.47,-235.57 6289.75,-235.13 6337.96,-231.76 6389.33,-231.73 6438.96,-233.54"/>
<polygon fill="black" stroke="black" points="6438.54,-237.02 6448.67,-233.92 6438.82,-230.03 6438.54,-237.02"/>
<text text-anchor="middle" x="6360.63" y="-238.33" font-family="Times,serif" font-size="14.00">POLICE</text>
</g>
<!-- 44730&#45;&gt;44129 -->
<g id="edge47" class="edge">
<title>44730&#45;&gt;44129</title>
<path fill="none" stroke="black" d="M6265.68,-216.13C6273.78,-214.57 6281.84,-213.21 6289.75,-212.13 6338.95,-205.42 6391.51,-205.57 6442.16,-209.4"/>
<polygon fill="black" stroke="black" points="6441.85,-212.89 6452.1,-210.21 6442.42,-205.91 6441.85,-212.89"/>
<text text-anchor="middle" x="6360.63" y="-215.33" font-family="Times,serif" font-size="14.00">EXTERNAL CIVILIANS</text>
</g>
<!-- 44223 -->
<g id="node11" class="node">
<title>44223</title>
<ellipse fill="none" stroke="black" cx="1177.29" cy="-310.63" rx="202.33" ry="202.33"/>
<text text-anchor="middle" x="1177.29" y="-305.58" font-family="Times,serif" font-size="14.00">Has any prosecution taken place or is any pending?</text>
</g>
<!-- 44223&#45;&gt;44133 -->
<g id="edge11" class="edge">
<title>44223&#45;&gt;44133</title>
<path fill="none" stroke="black" d="M1360.18,-397.77C1372.82,-403.55 1385.39,-409.22 1397.63,-414.63 1413.31,-421.57 1429.6,-428.63 1446.02,-435.63"/>
<polygon fill="black" stroke="black" points="1444.29,-438.7 1454.86,-439.39 1447.03,-432.25 1444.29,-438.7"/>
<text text-anchor="middle" x="1410.38" y="-426.81" font-family="Times,serif" font-size="14.00">YES</text>
</g>
<!-- 44223&#45;&gt;44133 -->
<g id="edge12" class="edge">
<title>44223&#45;&gt;44133</title>
<path fill="none" stroke="black" d="M1370.31,-372.58C1388.32,-379.45 1406.17,-386.67 1423.13,-394.13 1434.63,-399.19 1446.32,-404.62 1458.03,-410.28"/>
<polygon fill="black" stroke="black" points="1456.44,-413.4 1466.96,-414.65 1459.51,-407.11 1456.44,-413.4"/>
<text text-anchor="middle" x="1410.38" y="-397.33" font-family="Times,serif" font-size="14.00">NO</text>
</g>
<!-- 44607&#45;&gt;44133 -->
<g id="edge31" class="edge">
<title>44607&#45;&gt;44133</title>
<path fill="none" stroke="black" d="M876.68,-480.6C908,-497.53 941.48,-512.35 974.96,-521.63 1123.43,-562.82 1297.33,-561.35 1431.8,-550.09"/>
<polygon fill="black" stroke="black" points="1431.88,-553.59 1441.54,-549.24 1431.28,-546.62 1431.88,-553.59"/>
<text text-anchor="middle" x="1177.29" y="-560.1" font-family="Times,serif" font-size="14.00">NO</text>
</g>
<!-- 44607&#45;&gt;44223 -->
<g id="edge30" class="edge">
<title>44607&#45;&gt;44223</title>
<path fill="none" stroke="black" d="M912.34,-340.77C929.65,-338.8 947.2,-336.79 964.6,-334.81"/>
<polygon fill="black" stroke="black" points="964.96,-338.29 974.5,-333.67 964.17,-331.33 964.96,-338.29"/>
<text text-anchor="middle" x="944.21" y="-340.33" font-family="Times,serif" font-size="14.00">YES</text>
</g>
<!-- 44456 -->
<g id="node13" class="node">
<title>44456</title>
<ellipse fill="none" stroke="black" cx="4294.62" cy="-345.63" rx="128.12" ry="128.12"/>
<text text-anchor="middle" x="4294.62" y="-340.58" font-family="Times,serif" font-size="14.00">Was a serious injury sustained?</text>
</g>
<!-- 44667 -->
<g id="node14" class="node">
<title>44667</title>
<ellipse fill="none" stroke="black" cx="4640.51" cy="-345.63" rx="156.27" ry="156.27"/>
<text text-anchor="middle" x="4640.51" y="-340.58" font-family="Times,serif" font-size="14.00">Which serious injuries were sustained?</text>
</g>
<!-- 44456&#45;&gt;44667 -->
<g id="edge15" class="edge">
<title>44456&#45;&gt;44667</title>
<path fill="none" stroke="black" d="M4423.18,-345.63C4439.26,-345.63 4455.89,-345.63 4472.46,-345.63"/>
<polygon fill="black" stroke="black" points="4472.4,-349.13 4482.4,-345.63 4472.4,-342.13 4472.4,-349.13"/>
<text text-anchor="middle" x="4453.49" y="-348.83" font-family="Times,serif" font-size="14.00">YES</text>
</g>
<!-- 45161 -->
<g id="node15" class="node">
<title>45161</title>
<ellipse fill="none" stroke="black" cx="5205.57" cy="-313.63" rx="124.54" ry="124.54"/>
<text text-anchor="middle" x="5205.57" y="-308.58" font-family="Times,serif" font-size="14.00">Was a minor injury sustained?</text>
</g>
<!-- 44456&#45;&gt;45161 -->
<g id="edge16" class="edge">
<title>44456&#45;&gt;45161</title>
<path fill="none" stroke="black" d="M4375.3,-245.76C4405.88,-214.31 4443.35,-182.91 4484.24,-164.13 4618.34,-102.54 4667.38,-139.64 4814.78,-132.63 4924.99,-127.39 4963.86,-84.29 5063.03,-132.63 5092.22,-146.86 5117.16,-170.34 5137.6,-195.75"/>
<polygon fill="black" stroke="black" points="5134.81,-197.87 5143.71,-203.61 5140.33,-193.57 5134.81,-197.87"/>
<text text-anchor="middle" x="4640.51" y="-167.33" font-family="Times,serif" font-size="14.00">NO</text>
</g>
<!-- 44667&#45;&gt;45161 -->
<g id="edge32" class="edge">
<title>44667&#45;&gt;45161</title>
<path fill="none" stroke="black" d="M4736.09,-469.7C4759.23,-491.66 4785.78,-511.39 4814.78,-523.63 4865.61,-545.09 5014.33,-549.54 5063.03,-523.63 5099.05,-504.48 5127.55,-471.62 5149.25,-437.52"/>
<polygon fill="black" stroke="black" points="5152.13,-439.51 5154.4,-429.16 5146.17,-435.84 5152.13,-439.51"/>
<text text-anchor="middle" x="4938.91" y="-544.63" font-family="Times,serif" font-size="14.00">FRACTURE</text>
</g>
<!-- 44667&#45;&gt;45161 -->
<g id="edge33" class="edge">
<title>44667&#45;&gt;45161</title>
<path fill="none" stroke="black" d="M4754.84,-452.71C4773.67,-465.36 4793.91,-476.34 4814.78,-483.63 4866.86,-501.84 5013.08,-507.04 5063.03,-483.63 5089.71,-471.13 5113.1,-450.86 5132.79,-428.6"/>
<polygon fill="black" stroke="black" points="5135.33,-431.01 5139.17,-421.13 5130.01,-426.46 5135.33,-431.01"/>
<text text-anchor="middle" x="4938.91" y="-502.49" font-family="Times,serif" font-size="14.00">SCALD OR BURN</text>
</g>
<!-- 44667&#45;&gt;45161 -->
<g id="edge34" class="edge">
<title>44667&#45;&gt;45161</title>
<path fill="none" stroke="black" d="M4772.89,-428.84C4786.65,-434.82 4800.75,-439.94 4814.78,-443.63 4868.13,-457.68 5011.63,-463.66 5063.03,-443.63 5081.13,-436.58 5098.32,-426.02 5114.07,-413.9"/>
<polygon fill="black" stroke="black" points="5115.87,-416.94 5121.49,-407.96 5111.5,-411.47 5115.87,-416.94"/>
<text text-anchor="middle" x="4938.91" y="-459.71" font-family="Times,serif" font-size="14.00">STABBING</text>
</g>
<!-- 44667&#45;&gt;45161 -->
<g id="edge35" class="edge">
<title>44667&#45;&gt;45161</title>
<path fill="none" stroke="black" d="M4788.16,-398.31C4797.09,-400.4 4806.02,-402.21 4814.78,-403.63 4923.68,-421.38 4957.09,-434.46 5063.03,-403.63 5073.52,-400.58 5083.97,-396.49 5094.17,-391.74"/>
<polygon fill="black" stroke="black" points="5095.49,-394.99 5102.92,-387.44 5092.4,-388.71 5095.49,-394.99"/>
<text text-anchor="middle" x="4938.91" y="-425.37" font-family="Times,serif" font-size="14.00">CRUSHING</text>
</g>
<!-- 44667&#45;&gt;45161 -->
<g id="edge36" class="edge">
<title>44667&#45;&gt;45161</title>
<path fill="none" stroke="black" d="M4795.67,-367.77C4875.91,-375.38 4975.32,-378.67 5063.03,-363.63 5067.93,-362.79 5072.89,-361.8 5077.87,-360.68"/>
<polygon fill="black" stroke="black" points="5078.41,-364.15 5087.31,-358.4 5076.77,-357.35 5078.41,-364.15"/>
<text text-anchor="middle" x="4938.91" y="-377.4" font-family="Times,serif" font-size="14.00">EXTENSIVE OR MULTIPLE BRUISING</text>
</g>
<!-- 44667&#45;&gt;45161 -->
<g id="edge37" class="edge">
<title>44667&#45;&gt;45161</title>
<path fill="none" stroke="black" d="M4796.7,-338.22C4876.34,-334.24 4974.9,-329.05 5063.03,-323.63 5065.25,-323.5 5067.48,-323.36 5069.73,-323.22"/>
<polygon fill="black" stroke="black" points="5069.8,-326.72 5079.56,-322.59 5069.36,-319.73 5069.8,-326.72"/>
<text text-anchor="middle" x="4938.91" y="-340.09" font-family="Times,serif" font-size="14.00">BLACK EYE</text>
</g>
<!-- 44667&#45;&gt;45161 -->
<g id="edge38" class="edge">
<title>44667&#45;&gt;45161</title>
<path fill="none" stroke="black" d="M4791.84,-306.46C4799.57,-305.17 4807.25,-304.04 4814.78,-303.13 4924.32,-289.9 4952.78,-299.05 5063.03,-303.13 5065.25,-303.22 5067.48,-303.31 5069.73,-303.4"/>
<polygon fill="black" stroke="black" points="5069.43,-306.89 5079.58,-303.86 5069.76,-299.9 5069.43,-306.89"/>
<text text-anchor="middle" x="4938.91" y="-306.33" font-family="Times,serif" font-size="14.00">BROKEN NOSE</text>
</g>
<!-- 44667&#45;&gt;45161 -->
<g id="edge39" class="edge">
<title>44667&#45;&gt;45161</title>
<path fill="none" stroke="black" d="M4784.43,-283.5C4794.58,-280.58 4804.76,-278.07 4814.78,-276.13 4923.12,-255.22 4953.62,-261.89 5063.03,-276.13 5066.69,-276.61 5070.38,-277.15 5074.1,-277.75"/>
<polygon fill="black" stroke="black" points="5073.37,-281.18 5083.82,-279.45 5074.58,-274.28 5073.37,-281.18"/>
<text text-anchor="middle" x="4938.91" y="-279.33" font-family="Times,serif" font-size="14.00">BROKEN TEETH</text>
</g>
<!-- 44667&#45;&gt;45161 -->
<g id="edge40" class="edge">
<title>44667&#45;&gt;45161</title>
<path fill="none" stroke="black" d="M4770.61,-258.69C4785.05,-251.98 4799.92,-246.23 4814.78,-242.13 4921.14,-212.79 4955.7,-216.56 5063.03,-242.13 5070.59,-243.93 5078.2,-246.2 5085.75,-248.82"/>
<polygon fill="black" stroke="black" points="5084.38,-252.05 5094.97,-252.22 5086.8,-245.48 5084.38,-252.05"/>
<text text-anchor="middle" x="4938.91" y="-245.33" font-family="Times,serif" font-size="14.00">CUTS REQUIRING SUTURING</text>
</g>
<!-- 44667&#45;&gt;45161 -->
<g id="edge41" class="edge">
<title>44667&#45;&gt;45161</title>
<path fill="none" stroke="black" d="M4751.83,-235.3C4771.43,-221.33 4792.69,-209.14 4814.78,-201.13 4918.52,-163.55 4958.86,-164.78 5063.03,-201.13 5077.72,-206.26 5092.03,-213.62 5105.55,-222.15"/>
<polygon fill="black" stroke="black" points="5103.24,-224.82 5113.52,-227.4 5107.09,-218.98 5103.24,-224.82"/>
<text text-anchor="middle" x="4938.91" y="-204.33" font-family="Times,serif" font-size="14.00">BITES</text>
</g>
<!-- 44667&#45;&gt;45161 -->
<g id="edge42" class="edge">
<title>44667&#45;&gt;45161</title>
<path fill="none" stroke="black" d="M4729.39,-217.04C4753.78,-191.15 4782.54,-167.49 4814.78,-153.13 4865.18,-130.69 5012.75,-130.44 5063.03,-153.13 5087.59,-164.22 5109.59,-181.9 5128.51,-201.55"/>
<polygon fill="black" stroke="black" points="5125.75,-203.72 5135.12,-208.67 5130.88,-198.96 5125.75,-203.72"/>
<text text-anchor="middle" x="4938.91" y="-156.33" font-family="Times,serif" font-size="14.00">TEMPORARY/PERMANENT BLINDNESS</text>
</g>
<!-- 45161&#45;&gt;44144 -->
<g id="edge65" class="edge">
<title>45161&#45;&gt;44144</title>
<path fill="none" stroke="black" d="M5330.52,-316.21C5346.6,-316.54 5363.25,-316.89 5379.85,-317.24"/>
<polygon fill="black" stroke="black" points="5379.73,-320.73 5389.8,-317.44 5379.88,-313.74 5379.73,-320.73"/>
<text text-anchor="middle" x="5360.86" y="-320.12" font-family="Times,serif" font-size="14.00">YES</text>
</g>
<!-- 45161&#45;&gt;44730 -->
<g id="edge66" class="edge">
<title>45161&#45;&gt;44730</title>
<path fill="none" stroke="black" d="M5284.45,-217.1C5314.42,-187.2 5351.24,-157.96 5391.61,-142.13 5584.03,-66.68 5823.29,-132.51 5974.04,-191.57"/>
<polygon fill="black" stroke="black" points="5972.74,-194.82 5983.33,-195.25 5975.32,-188.31 5972.74,-194.82"/>
<text text-anchor="middle" x="5544.3" y="-145.33" font-family="Times,serif" font-size="14.00">NO</text>
</g>
<!-- 44601 -->
<g id="node17" class="node">
<title>44601</title>
<ellipse fill="none" stroke="black" cx="8691.62" cy="-394.63" rx="159.85" ry="159.85"/>
<text text-anchor="middle" x="8691.62" y="-389.58" font-family="Times,serif" font-size="14.00">Was damage caused to prison property?</text>
</g>
<!-- 44541&#45;&gt;44601 -->
<g id="edge22" class="edge">
<title>44541&#45;&gt;44601</title>
<path fill="none" stroke="black" d="M8470.6,-394.63C8487.27,-394.63 8503.96,-394.63 8520.28,-394.63"/>
<polygon fill="black" stroke="black" points="8520.01,-398.13 8530.01,-394.63 8520.01,-391.13 8520.01,-398.13"/>
<text text-anchor="middle" x="8501.02" y="-397.83" font-family="Times,serif" font-size="14.00">YES</text>
</g>
<!-- 44541&#45;&gt;44601 -->
<g id="edge23" class="edge">
<title>44541&#45;&gt;44601</title>
<path fill="none" stroke="black" d="M8469.43,-373.13C8484.43,-373.01 8499.33,-373.3 8513.77,-374.13 8516.28,-374.28 8518.8,-374.43 8521.34,-374.6"/>
<polygon fill="black" stroke="black" points="8520.84,-378.07 8531.06,-375.29 8521.34,-371.09 8520.84,-378.07"/>
<text text-anchor="middle" x="8501.02" y="-377.33" font-family="Times,serif" font-size="14.00">NO</text>
</g>
<!-- 44601&#45;&gt;END_NODE -->
<g id="edge29" class="edge">
<title>44601&#45;&gt;END_NODE</title>
<path fill="none" stroke="black" d="M8846.27,-435.85C8895.25,-445.81 8949.91,-453.63 9000.69,-453.63 9000.69,-453.63 9000.69,-453.63 9606.26,-453.63 9745.06,-453.63 9906.45,-416.74 9981.84,-397.3"/>
<polygon fill="black" stroke="black" points="9982.5,-400.75 9991.29,-394.84 9980.73,-393.97 9982.5,-400.75"/>
<text text-anchor="middle" x="9298.13" y="-456.83" font-family="Times,serif" font-size="14.00">NO</text>
</g>
<!-- 45159 -->
<g id="node20" class="node">
<title>45159</title>
<ellipse fill="none" stroke="black" cx="9001.69" cy="-335.63" rx="88.71" ry="88.71"/>
<text text-anchor="middle" x="9001.69" y="-330.58" font-family="Times,serif" font-size="14.00">What was damaged?</text>
</g>
<!-- 44601&#45;&gt;45159 -->
<g id="edge28" class="edge">
<title>44601&#45;&gt;45159</title>
<path fill="none" stroke="black" d="M8848.91,-364.7C8867.36,-361.17 8885.77,-357.64 8903.07,-354.33"/>
<polygon fill="black" stroke="black" points="8903.62,-357.79 8912.79,-352.47 8902.31,-350.91 8903.62,-357.79"/>
<text text-anchor="middle" x="8882.23" y="-363.05" font-family="Times,serif" font-size="14.00">YES</text>
</g>
<!-- 44591 -->
<g id="node18" class="node">
<title>44591</title>
<ellipse fill="none" stroke="black" cx="3031.74" cy="-519.63" rx="171.63" ry="171.63"/>
<text text-anchor="middle" x="3031.74" y="-514.58" font-family="Times,serif" font-size="14.00">Is there any media interest in this incident?</text>
</g>
<!-- 44995 -->
<g id="node19" class="node">
<title>44995</title>
<ellipse fill="none" stroke="black" cx="3464.64" cy="-519.63" rx="199.78" ry="199.78"/>
<text text-anchor="middle" x="3464.64" y="-514.58" font-family="Times,serif" font-size="14.00">Has the prison service press office been informed?</text>
</g>
<!-- 44591&#45;&gt;44995 -->
<g id="edge26" class="edge">
<title>44591&#45;&gt;44995</title>
<path fill="none" stroke="black" d="M3203.66,-519.63C3219.89,-519.63 3236.47,-519.63 3253.01,-519.63"/>
<polygon fill="black" stroke="black" points="3252.94,-523.13 3262.94,-519.63 3252.94,-516.13 3252.94,-523.13"/>
<text text-anchor="middle" x="3234.11" y="-522.83" font-family="Times,serif" font-size="14.00">YES</text>
</g>
<!-- 44591&#45;&gt;44995 -->
<g id="edge27" class="edge">
<title>44591&#45;&gt;44995</title>
<path fill="none" stroke="black" d="M3202.58,-500.31C3208.92,-499.86 3215.2,-499.47 3221.36,-499.13 3232.19,-498.55 3243.28,-498.28 3254.48,-498.29"/>
<polygon fill="black" stroke="black" points="3254.17,-501.78 3264.2,-498.36 3254.22,-494.78 3254.17,-501.78"/>
<text text-anchor="middle" x="3234.11" y="-502.33" font-family="Times,serif" font-size="14.00">NO</text>
</g>
<!-- 44857 -->
<g id="node21" class="node">
<title>44857</title>
<ellipse fill="none" stroke="black" cx="3915.45" cy="-519.63" rx="189.54" ry="189.54"/>
<text text-anchor="middle" x="3915.45" y="-514.58" font-family="Times,serif" font-size="14.00">Were any injuries received during this incident?</text>
</g>
<!-- 44995&#45;&gt;44857 -->
<g id="edge50" class="edge">
<title>44995&#45;&gt;44857</title>
<path fill="none" stroke="black" d="M3664.78,-519.63C3681.25,-519.63 3697.9,-519.63 3714.37,-519.63"/>
<polygon fill="black" stroke="black" points="3714.23,-523.13 3724.23,-519.63 3714.23,-516.13 3714.23,-523.13"/>
<text text-anchor="middle" x="3695.16" y="-522.83" font-family="Times,serif" font-size="14.00">YES</text>
</g>
<!-- 44995&#45;&gt;44857 -->
<g id="edge51" class="edge">
<title>44995&#45;&gt;44857</title>
<path fill="none" stroke="black" d="M3663.56,-498.53C3678.56,-498.26 3693.47,-498.42 3707.91,-499.13 3710.3,-499.25 3712.71,-499.38 3715.13,-499.51"/>
<polygon fill="black" stroke="black" points="3714.82,-503 3725.01,-500.1 3715.24,-496.01 3714.82,-503"/>
<text text-anchor="middle" x="3695.16" y="-502.33" font-family="Times,serif" font-size="14.00">NO</text>
</g>
<!-- 45125 -->
<g id="node24" class="node">
<title>45125</title>
<ellipse fill="none" stroke="black" cx="9298.13" cy="-324.63" rx="89.23" ry="89.23"/>
<text text-anchor="middle" x="9298.13" y="-319.58" font-family="Times,serif" font-size="14.00">Describe the damage</text>
</g>
<!-- 45159&#45;&gt;45125 -->
<g id="edge60" class="edge">
<title>45159&#45;&gt;45125</title>
<path fill="none" stroke="black" d="M9080.75,-376.3C9089.88,-379.7 9099.22,-382.61 9108.41,-384.63 9144.21,-392.53 9155.44,-393.96 9190.91,-384.63 9198.06,-382.75 9205.24,-380.27 9212.31,-377.38"/>
<polygon fill="black" stroke="black" points="9213.43,-380.71 9221.18,-373.49 9210.62,-374.3 9213.43,-380.71"/>
<text text-anchor="middle" x="9149.66" y="-394.3" font-family="Times,serif" font-size="14.00">FURNITURE</text>
</g>
<!-- 45159&#45;&gt;45125 -->
<g id="edge61" class="edge">
<title>45159&#45;&gt;45125</title>
<path fill="none" stroke="black" d="M9089.95,-344.91C9121.77,-346.95 9158.01,-347.7 9190.91,-344.63 9193.59,-344.38 9196.3,-344.1 9199.03,-343.78"/>
<polygon fill="black" stroke="black" points="9199.39,-347.27 9208.86,-342.52 9198.5,-340.32 9199.39,-347.27"/>
<text text-anchor="middle" x="9149.66" y="-349.89" font-family="Times,serif" font-size="14.00">FITTINGS</text>
</g>
<!-- 45159&#45;&gt;45125 -->
<g id="edge62" class="edge">
<title>45159&#45;&gt;45125</title>
<path fill="none" stroke="black" d="M9090.03,-325.39C9096.24,-324.89 9102.41,-324.46 9108.41,-324.13 9137.29,-322.57 9168.69,-322.14 9197.45,-322.25"/>
<polygon fill="black" stroke="black" points="9197.21,-325.75 9207.23,-322.32 9197.26,-318.75 9197.21,-325.75"/>
<text text-anchor="middle" x="9149.66" y="-327.33" font-family="Times,serif" font-size="14.00">MACHINERY</text>
</g>
<!-- 45159&#45;&gt;45125 -->
<g id="edge63" class="edge">
<title>45159&#45;&gt;45125</title>
<path fill="none" stroke="black" d="M9085.8,-306.7C9093.37,-304.86 9100.99,-303.28 9108.41,-302.13 9138.04,-297.55 9170.43,-299.06 9199.87,-302.91"/>
<polygon fill="black" stroke="black" points="9199.1,-306.33 9209.5,-304.28 9200.09,-299.4 9199.1,-306.33"/>
<text text-anchor="middle" x="9149.66" y="-305.33" font-family="Times,serif" font-size="14.00">EQUIPMENT</text>
</g>
<!-- 45159&#45;&gt;45125 -->
<g id="edge64" class="edge">
<title>45159&#45;&gt;45125</title>
<path fill="none" stroke="black" d="M9077.98,-289.8C9087.93,-285.43 9098.21,-281.69 9108.41,-279.13 9143.97,-270.23 9154.99,-271.76 9190.91,-279.13 9196.04,-280.19 9201.23,-281.5 9206.42,-283.01"/>
<polygon fill="black" stroke="black" points="9205,-286.23 9215.59,-285.9 9207.1,-279.55 9205,-286.23"/>
<text text-anchor="middle" x="9149.66" y="-282.33" font-family="Times,serif" font-size="14.00">OTHER</text>
</g>
<!-- 44857&#45;&gt;44588 -->
<g id="edge49" class="edge">
<title>44857&#45;&gt;44588</title>
<path fill="none" stroke="black" d="M4101.19,-559.52C4162.16,-569.6 4230.51,-577.63 4293.62,-577.63 4293.62,-577.63 4293.62,-577.63 7184.01,-577.63 7301.33,-577.63 7425.97,-541.37 7528.17,-501.13"/>
<polygon fill="black" stroke="black" points="7529.21,-504.48 7537.21,-497.53 7526.62,-497.97 7529.21,-504.48"/>
<text text-anchor="middle" x="5544.3" y="-580.83" font-family="Times,serif" font-size="14.00">NO</text>
</g>
<!-- 44857&#45;&gt;44456 -->
<g id="edge48" class="edge">
<title>44857&#45;&gt;44456</title>
<path fill="none" stroke="black" d="M4087.93,-440.53C4114.7,-428.18 4141.93,-415.61 4167.44,-403.84"/>
<polygon fill="black" stroke="black" points="4168.89,-407.03 4176.51,-399.66 4165.96,-400.67 4168.89,-407.03"/>
<text text-anchor="middle" x="4135.74" y="-425.42" font-family="Times,serif" font-size="14.00">YES</text>
</g>
<!-- 45106 -->
<g id="node22" class="node">
<title>45106</title>
<ellipse fill="none" stroke="black" cx="9605.26" cy="-317.63" rx="107.65" ry="107.65"/>
<text text-anchor="middle" x="9605.26" y="-312.58" font-family="Times,serif" font-size="14.00">Estimated cost of damage</text>
</g>
<!-- 45106&#45;&gt;END_NODE -->
<g id="edge52" class="edge">
<title>45106&#45;&gt;END_NODE</title>
<path fill="none" stroke="black" d="M9711.86,-334.79C9798.71,-348.9 9917.44,-368.2 9980.75,-378.48"/>
<polygon fill="black" stroke="black" points="9979.99,-381.9 9990.42,-380.05 9981.11,-374.99 9979.99,-381.9"/>
<text text-anchor="middle" x="9852.41" y="-380.41" font-family="Times,serif" font-size="14.00">ENTER AMOUNT IN POUND STERLING</text>
</g>
<!-- 45139&#45;&gt;44591 -->
<g id="edge58" class="edge">
<title>45139&#45;&gt;44591</title>
<path fill="none" stroke="black" d="M2798.82,-519.63C2815.35,-519.63 2832,-519.63 2848.38,-519.63"/>
<polygon fill="black" stroke="black" points="2848.16,-523.13 2858.16,-519.63 2848.16,-516.13 2848.16,-523.13"/>
<text text-anchor="middle" x="2829.36" y="-522.83" font-family="Times,serif" font-size="14.00">YES</text>
</g>
<!-- 45139&#45;&gt;44591 -->
<g id="edge59" class="edge">
<title>45139&#45;&gt;44591</title>
<path fill="none" stroke="black" d="M2797.87,-498.34C2812.83,-498.13 2827.71,-498.35 2842.11,-499.13 2844.62,-499.27 2847.14,-499.42 2849.68,-499.57"/>
<polygon fill="black" stroke="black" points="2849.17,-503.04 2859.38,-500.21 2849.63,-496.06 2849.17,-503.04"/>
<text text-anchor="middle" x="2829.36" y="-502.33" font-family="Times,serif" font-size="14.00">NO</text>
</g>
<!-- 45125&#45;&gt;45106 -->
<g id="edge55" class="edge">
<title>45125&#45;&gt;45106</title>
<path fill="none" stroke="black" d="M9386.87,-336.22C9393.12,-336.78 9399.33,-337.27 9405.36,-337.63 9438.29,-339.64 9446.71,-340.26 9479.61,-337.63 9482.14,-337.43 9484.69,-337.21 9487.27,-336.96"/>
<polygon fill="black" stroke="black" points="9487.56,-340.45 9497.14,-335.93 9486.83,-333.49 9487.56,-340.45"/>
<text text-anchor="middle" x="9442.48" y="-342.58" font-family="Times,serif" font-size="14.00">MINOR</text>
</g>
<!-- 45125&#45;&gt;45106 -->
<g id="edge56" class="edge">
<title>45125&#45;&gt;45106</title>
<path fill="none" stroke="black" d="M9387.5,-317.92C9393.54,-317.61 9399.54,-317.34 9405.36,-317.13 9431.4,-316.22 9459.37,-315.88 9485.88,-315.87"/>
<polygon fill="black" stroke="black" points="9485.62,-319.37 9495.62,-315.88 9485.63,-312.37 9485.62,-319.37"/>
<text text-anchor="middle" x="9442.48" y="-320.33" font-family="Times,serif" font-size="14.00">SERIOUS</text>
</g>
<!-- 45125&#45;&gt;45106 -->
<g id="edge57" class="edge">
<title>45125&#45;&gt;45106</title>
<path fill="none" stroke="black" d="M9383.94,-298.9C9391.13,-297.39 9398.34,-296.09 9405.36,-295.13 9432.14,-291.48 9461.01,-292.13 9488.23,-294.8"/>
<polygon fill="black" stroke="black" points="9487.55,-298.24 9497.87,-295.84 9488.3,-291.28 9487.55,-298.24"/>
<text text-anchor="middle" x="9442.48" y="-298.33" font-family="Times,serif" font-size="14.00">EXTENSIVE</text>
</g>
</g>
</svg>
