<?xml version="1.0" encoding="UTF-8" standalone="no"?>
<!DOCTYPE svg PUBLIC "-//W3C//DTD SVG 1.1//EN"
 "http://www.w3.org/Graphics/SVG/1.1/DTD/svg11.dtd">
<!-- Generated by graphviz version 12.1.1 (20240910.0053)
 -->
<!-- Title: MISCELLANEOUS Pages: 1 -->
<svg width="12715pt" height="981pt"
 viewBox="0.00 0.00 12714.69 980.90" xmlns="http://www.w3.org/2000/svg" xmlns:xlink="http://www.w3.org/1999/xlink">
<g id="graph0" class="graph" transform="scale(1 1) rotate(0) translate(4 976.9)">
<title>MISCELLANEOUS</title>
<polygon fill="white" stroke="none" points="-4,4 -4,-976.9 12710.69,-976.9 12710.69,4 -4,4"/>
<!-- START_NODE -->
<g id="node1" class="node">
<title>START_NODE</title>
</g>
<!-- 44290 -->
<g id="node2" class="node">
<title>44290</title>
<ellipse fill="none" stroke="black" cx="337.08" cy="-607.39" rx="223.83" ry="223.83"/>
<text text-anchor="middle" x="337.08" y="-602.34" font-family="Times,serif" font-size="14.00">WERE THE POLICE INFORMED OF THE INCIDENT</text>
</g>
<!-- START_NODE&#45;&gt;44290 -->
<g id="edge1" class="edge">
<title>START_NODE&#45;&gt;44290</title>
<path fill="none" stroke="black" d="M53.74,-607.39C66.37,-607.39 82.91,-607.39 101.66,-607.39"/>
<polygon fill="black" stroke="black" points="101.43,-610.89 111.43,-607.39 101.43,-603.89 101.43,-610.89"/>
<text text-anchor="middle" x="83.62" y="-610.59" font-family="Times,serif" font-size="14.00">start</text>
</g>
<!-- 44133 -->
<g id="node7" class="node">
<title>44133</title>
<ellipse fill="none" stroke="black" cx="2136.85" cy="-676.39" rx="296.51" ry="296.51"/>
<text text-anchor="middle" x="2136.85" y="-671.34" font-family="Times,serif" font-size="14.00">IS THE INCIDENT THE SUBJECT OF AN INTERNAL INVESTIGATION</text>
</g>
<!-- 44290&#45;&gt;44133 -->
<g id="edge14" class="edge">
<title>44290&#45;&gt;44133</title>
<path fill="none" stroke="black" d="M534.96,-712.74C563.61,-724.12 593.29,-733.91 622.41,-740.39 1034.8,-832.07 1525.56,-783.49 1833.96,-734.58"/>
<polygon fill="black" stroke="black" points="1834.5,-738.04 1843.82,-733 1833.39,-731.13 1834.5,-738.04"/>
<text text-anchor="middle" x="1204.21" y="-795.05" font-family="Times,serif" font-size="14.00">NO</text>
</g>
<!-- 44607 -->
<g id="node12" class="node">
<title>44607</title>
<ellipse fill="none" stroke="black" cx="897.93" cy="-455.39" rx="275.52" ry="275.52"/>
<text text-anchor="middle" x="897.93" y="-450.34" font-family="Times,serif" font-size="14.00">IS THE INCIDENT THE SUBJECT OF A POLICE INVESTIGATION</text>
</g>
<!-- 44290&#45;&gt;44607 -->
<g id="edge13" class="edge">
<title>44290&#45;&gt;44607</title>
<path fill="none" stroke="black" d="M553.35,-548.84C575.41,-542.84 598.04,-536.68 620.64,-530.54"/>
<polygon fill="black" stroke="black" points="621.54,-533.92 630.27,-527.92 619.7,-527.16 621.54,-533.92"/>
<text text-anchor="middle" x="591.66" y="-543.69" font-family="Times,serif" font-size="14.00">YES</text>
</g>
<!-- END_NODE -->
<g id="node3" class="node">
<title>END_NODE</title>
<ellipse fill="none" stroke="black" cx="12672.83" cy="-490.39" rx="29.86" ry="29.86"/>
<ellipse fill="none" stroke="black" cx="12672.83" cy="-490.39" rx="33.86" ry="33.86"/>
<text text-anchor="middle" x="12672.83" y="-485.34" font-family="Times,serif" font-size="14.00">END</text>
</g>
<!-- 44129 -->
<g id="node4" class="node">
<title>44129</title>
<ellipse fill="none" stroke="black" cx="8528.64" cy="-356.39" rx="356.39" ry="356.39"/>
<text text-anchor="middle" x="8528.64" y="-351.34" font-family="Times,serif" font-size="14.00">DID INJURIES RESULT IN DETENTION IN OUTSIDE HOSPITAL AS AN IN&#45;PATIENT</text>
</g>
<!-- 44503 -->
<g id="node5" class="node">
<title>44503</title>
<ellipse fill="none" stroke="black" cx="9151.93" cy="-507.39" rx="205.41" ry="205.41"/>
<text text-anchor="middle" x="9151.93" y="-502.34" font-family="Times,serif" font-size="14.00">WHO WAS DETAINED IN OUTSIDE HOSPITAL</text>
</g>
<!-- 44129&#45;&gt;44503 -->
<g id="edge2" class="edge">
<title>44129&#45;&gt;44503</title>
<path fill="none" stroke="black" d="M8875.26,-440.39C8897.59,-445.82 8919.68,-451.18 8941.05,-456.38"/>
<polygon fill="black" stroke="black" points="8940.14,-459.76 8950.69,-458.72 8941.8,-452.96 8940.14,-459.76"/>
<text text-anchor="middle" x="8915.78" y="-453.05" font-family="Times,serif" font-size="14.00">YES</text>
</g>
<!-- 44588 -->
<g id="node6" class="node">
<title>44588</title>
<ellipse fill="none" stroke="black" cx="9860.26" cy="-507.39" rx="325.17" ry="325.17"/>
<text text-anchor="middle" x="9860.26" y="-502.34" font-family="Times,serif" font-size="14.00">ARE THERE ANY STAFF NOW OFF DUTY AS A RESULT OF THIS INCIDENT</text>
</g>
<!-- 44129&#45;&gt;44588 -->
<g id="edge3" class="edge">
<title>44129&#45;&gt;44588</title>
<path fill="none" stroke="black" d="M8876.05,-275.63C9025.39,-253.01 9201.24,-242.76 9357.34,-276.89 9426.84,-292.08 9498.21,-317.83 9564.53,-346.74"/>
<polygon fill="black" stroke="black" points="9562.76,-349.78 9573.32,-350.61 9565.58,-343.37 9562.76,-349.78"/>
<text text-anchor="middle" x="9151.93" y="-280.09" font-family="Times,serif" font-size="14.00">NO</text>
</g>
<!-- 44503&#45;&gt;44588 -->
<g id="edge17" class="edge">
<title>44503&#45;&gt;44588</title>
<path fill="none" stroke="black" d="M9350.39,-561.64C9358.78,-563.07 9367.13,-564.34 9375.34,-565.39 9424.99,-571.76 9477.53,-572.08 9528.99,-568.82"/>
<polygon fill="black" stroke="black" points="9529.05,-572.33 9538.78,-568.15 9528.57,-565.34 9529.05,-572.33"/>
<text text-anchor="middle" x="9446.21" y="-574.06" font-family="Times,serif" font-size="14.00">STAFF</text>
</g>
<!-- 44503&#45;&gt;44588 -->
<g id="edge18" class="edge">
<title>44503&#45;&gt;44588</title>
<path fill="none" stroke="black" d="M9357.11,-524.56C9363.25,-524.87 9369.34,-525.15 9375.34,-525.39 9423.37,-527.33 9474.08,-527.51 9523.89,-526.61"/>
<polygon fill="black" stroke="black" points="9523.73,-530.11 9533.66,-526.42 9523.59,-523.11 9523.73,-530.11"/>
<text text-anchor="middle" x="9446.21" y="-530.33" font-family="Times,serif" font-size="14.00">PRISONERS</text>
</g>
<!-- 44503&#45;&gt;44588 -->
<g id="edge19" class="edge">
<title>44503&#45;&gt;44588</title>
<path fill="none" stroke="black" d="M9357.74,-505C9363.67,-504.96 9369.55,-504.92 9375.34,-504.89 9423.28,-504.62 9473.88,-504.59 9523.59,-504.72"/>
<polygon fill="black" stroke="black" points="9523.33,-508.22 9533.34,-504.74 9523.35,-501.22 9523.33,-508.22"/>
<text text-anchor="middle" x="9446.21" y="-508.09" font-family="Times,serif" font-size="14.00">CIVILIAN GRADES</text>
</g>
<!-- 44503&#45;&gt;44588 -->
<g id="edge20" class="edge">
<title>44503&#45;&gt;44588</title>
<path fill="none" stroke="black" d="M9356.48,-485.01C9362.84,-484.59 9369.13,-484.22 9375.34,-483.89 9423.56,-481.35 9474.49,-481.13 9524.49,-482.32"/>
<polygon fill="black" stroke="black" points="9524.21,-485.81 9534.3,-482.57 9524.39,-478.81 9524.21,-485.81"/>
<text text-anchor="middle" x="9446.21" y="-487.09" font-family="Times,serif" font-size="14.00">POLICE</text>
</g>
<!-- 44503&#45;&gt;44588 -->
<g id="edge21" class="edge">
<title>44503&#45;&gt;44588</title>
<path fill="none" stroke="black" d="M9352.98,-463.56C9360.51,-462.55 9367.98,-461.65 9375.34,-460.89 9424.42,-455.81 9476.32,-455.48 9527.19,-457.99"/>
<polygon fill="black" stroke="black" points="9526.69,-461.47 9536.86,-458.51 9527.06,-454.48 9526.69,-461.47"/>
<text text-anchor="middle" x="9446.21" y="-464.09" font-family="Times,serif" font-size="14.00">EXTERNAL CIVILIANS</text>
</g>
<!-- 44541 -->
<g id="node16" class="node">
<title>44541</title>
<ellipse fill="none" stroke="black" cx="10539.85" cy="-507.39" rx="292.92" ry="292.92"/>
<text text-anchor="middle" x="10539.85" y="-502.34" font-family="Times,serif" font-size="14.00">ARE ANY STAFF ON SICK LEAVE AS A RESULT OF THIS INCIDENT</text>
</g>
<!-- 44588&#45;&gt;44541 -->
<g id="edge24" class="edge">
<title>44588&#45;&gt;44541</title>
<path fill="none" stroke="black" d="M10185.67,-507.39C10202.17,-507.39 10218.72,-507.39 10235.16,-507.39"/>
<polygon fill="black" stroke="black" points="10235,-510.89 10245,-507.39 10235,-503.89 10235,-510.89"/>
<text text-anchor="middle" x="10216.18" y="-510.59" font-family="Times,serif" font-size="14.00">YES</text>
</g>
<!-- 44588&#45;&gt;44541 -->
<g id="edge25" class="edge">
<title>44588&#45;&gt;44541</title>
<path fill="none" stroke="black" d="M10185.02,-486.15C10199.86,-486.18 10214.55,-486.41 10228.93,-486.89 10231.29,-486.97 10233.67,-487.05 10236.06,-487.13"/>
<polygon fill="black" stroke="black" points="10235.66,-490.62 10245.78,-487.5 10235.92,-483.63 10235.66,-490.62"/>
<text text-anchor="middle" x="10216.18" y="-490.09" font-family="Times,serif" font-size="14.00">NO</text>
</g>
<!-- 45122 -->
<g id="node8" class="node">
<title>45122</title>
<ellipse fill="none" stroke="black" cx="2772.43" cy="-676.39" rx="277.57" ry="277.57"/>
<text text-anchor="middle" x="2772.43" y="-671.34" font-family="Times,serif" font-size="14.00">IS THE INCIDENT SUBJECT TO A GOVERNOR&#39;S ADJUDICATION</text>
</g>
<!-- 44133&#45;&gt;45122 -->
<g id="edge4" class="edge">
<title>44133&#45;&gt;45122</title>
<path fill="none" stroke="black" d="M2433.77,-676.39C2450.27,-676.39 2466.84,-676.39 2483.31,-676.39"/>
<polygon fill="black" stroke="black" points="2483.18,-679.89 2493.18,-676.39 2483.18,-672.89 2483.18,-679.89"/>
<text text-anchor="middle" x="2464.1" y="-679.59" font-family="Times,serif" font-size="14.00">YES</text>
</g>
<!-- 44133&#45;&gt;45122 -->
<g id="edge5" class="edge">
<title>44133&#45;&gt;45122</title>
<path fill="none" stroke="black" d="M2432.72,-655.19C2447.64,-655.17 2462.42,-655.39 2476.85,-655.89 2479.11,-655.97 2481.38,-656.05 2483.65,-656.13"/>
<polygon fill="black" stroke="black" points="2483.46,-659.63 2493.59,-656.53 2483.73,-652.63 2483.46,-659.63"/>
<text text-anchor="middle" x="2464.1" y="-659.09" font-family="Times,serif" font-size="14.00">NO</text>
</g>
<!-- 45139 -->
<g id="node23" class="node">
<title>45139</title>
<ellipse fill="none" stroke="black" cx="3388.55" cy="-676.39" rx="277.06" ry="277.06"/>
<text text-anchor="middle" x="3388.55" y="-671.34" font-family="Times,serif" font-size="14.00">IS ANY MEMBER OF STAFF FACING DISCIPLINARY CHARGES</text>
</g>
<!-- 45122&#45;&gt;45139 -->
<g id="edge53" class="edge">
<title>45122&#45;&gt;45139</title>
<path fill="none" stroke="black" d="M3050.4,-676.39C3066.81,-676.39 3083.34,-676.39 3099.79,-676.39"/>
<polygon fill="black" stroke="black" points="3099.66,-679.89 3109.66,-676.39 3099.66,-672.89 3099.66,-679.89"/>
<text text-anchor="middle" x="3080.75" y="-679.59" font-family="Times,serif" font-size="14.00">YES</text>
</g>
<!-- 45122&#45;&gt;45139 -->
<g id="edge54" class="edge">
<title>45122&#45;&gt;45139</title>
<path fill="none" stroke="black" d="M3049.66,-655.26C3064.48,-655.2 3079.17,-655.39 3093.5,-655.89 3095.75,-655.97 3098.01,-656.05 3100.28,-656.13"/>
<polygon fill="black" stroke="black" points="3100.07,-659.63 3110.2,-656.53 3100.34,-652.63 3100.07,-659.63"/>
<text text-anchor="middle" x="3080.75" y="-659.09" font-family="Times,serif" font-size="14.00">NO</text>
</g>
<!-- 44144 -->
<g id="node9" class="node">
<title>44144</title>
<ellipse fill="none" stroke="black" cx="7104.29" cy="-450.39" rx="200.8" ry="200.8"/>
<text text-anchor="middle" x="7104.29" y="-445.34" font-family="Times,serif" font-size="14.00">WHICH MINOR INJURIES WERE SUSTAINED</text>
</g>
<!-- 44730 -->
<g id="node10" class="node">
<title>44730</title>
<ellipse fill="none" stroke="black" cx="7787.05" cy="-370.39" rx="207.45" ry="207.45"/>
<text text-anchor="middle" x="7787.05" y="-365.34" font-family="Times,serif" font-size="14.00">ENTER DESCRIPTION OF PERSON(S) INJURED</text>
</g>
<!-- 44144&#45;&gt;44730 -->
<g id="edge6" class="edge">
<title>44144&#45;&gt;44730</title>
<path fill="none" stroke="black" d="M7303.29,-479.09C7384.13,-485.42 7478.07,-485.83 7561.59,-468.39 7570.4,-466.55 7579.28,-464.35 7588.16,-461.85"/>
<polygon fill="black" stroke="black" points="7588.94,-465.27 7597.55,-459.09 7586.96,-458.56 7588.94,-465.27"/>
<text text-anchor="middle" x="7442.34" y="-486.29" font-family="Times,serif" font-size="14.00">GRAZES, SCRATCHES OR ABRASIONS</text>
</g>
<!-- 44144&#45;&gt;44730 -->
<g id="edge7" class="edge">
<title>44144&#45;&gt;44730</title>
<path fill="none" stroke="black" d="M7305.36,-444.75C7404.4,-441.15 7512.98,-435.76 7561.59,-428.39 7566.05,-427.71 7570.56,-426.98 7575.08,-426.21"/>
<polygon fill="black" stroke="black" points="7575.67,-429.66 7584.9,-424.46 7574.44,-422.77 7575.67,-429.66"/>
<text text-anchor="middle" x="7442.34" y="-446.92" font-family="Times,serif" font-size="14.00">MINOR BRUISES</text>
</g>
<!-- 44144&#45;&gt;44730 -->
<g id="edge8" class="edge">
<title>44144&#45;&gt;44730</title>
<path fill="none" stroke="black" d="M7301.61,-411.03C7308.85,-409.91 7316.03,-408.86 7323.09,-407.89 7326.39,-407.43 7449.81,-397.44 7568.37,-387.89"/>
<polygon fill="black" stroke="black" points="7568.63,-391.38 7578.31,-387.09 7568.06,-384.4 7568.63,-391.38"/>
<text text-anchor="middle" x="7442.34" y="-411.09" font-family="Times,serif" font-size="14.00">SWELLINGS</text>
</g>
<!-- 44144&#45;&gt;44730 -->
<g id="edge9" class="edge">
<title>44144&#45;&gt;44730</title>
<path fill="none" stroke="black" d="M7290.86,-375.09C7301.66,-372.28 7312.45,-369.84 7323.09,-367.89 7402.4,-353.37 7490.65,-350.62 7568.64,-352.63"/>
<polygon fill="black" stroke="black" points="7568.46,-356.13 7578.56,-352.92 7568.67,-349.13 7568.46,-356.13"/>
<text text-anchor="middle" x="7442.34" y="-371.09" font-family="Times,serif" font-size="14.00">SUPERFICIAL CUTS</text>
</g>
<!-- 44144&#45;&gt;44730 -->
<g id="edge10" class="edge">
<title>44144&#45;&gt;44730</title>
<path fill="none" stroke="black" d="M7276.87,-347.22C7292.13,-341.08 7307.66,-335.82 7323.09,-331.89 7403.34,-311.47 7493.69,-313.62 7573.12,-323.53"/>
<polygon fill="black" stroke="black" points="7572.39,-326.96 7582.75,-324.78 7573.29,-320.02 7572.39,-326.96"/>
<text text-anchor="middle" x="7442.34" y="-335.09" font-family="Times,serif" font-size="14.00">OTHER</text>
</g>
<!-- 44730&#45;&gt;44129 -->
<g id="edge43" class="edge">
<title>44730&#45;&gt;44129</title>
<path fill="none" stroke="black" d="M7989.6,-416.53C7997.31,-417.61 8004.96,-418.58 8012.5,-419.39 8062.36,-424.77 8114.9,-424.83 8166.59,-421.63"/>
<polygon fill="black" stroke="black" points="8166.7,-425.13 8176.44,-420.98 8166.23,-418.15 8166.7,-425.13"/>
<text text-anchor="middle" x="8083.37" y="-426.98" font-family="Times,serif" font-size="14.00">STAFF</text>
</g>
<!-- 44730&#45;&gt;44129 -->
<g id="edge44" class="edge">
<title>44730&#45;&gt;44129</title>
<path fill="none" stroke="black" d="M7994.73,-378.99C8000.72,-379.14 8006.65,-379.27 8012.5,-379.39 8075.49,-380.65 8091.28,-381.33 8154.25,-379.39 8156.66,-379.31 8159.08,-379.24 8161.5,-379.16"/>
<polygon fill="black" stroke="black" points="8161.52,-382.66 8171.39,-378.82 8161.28,-375.66 8161.52,-382.66"/>
<text text-anchor="middle" x="8083.37" y="-383.8" font-family="Times,serif" font-size="14.00">PRISONERS</text>
</g>
<!-- 44730&#45;&gt;44129 -->
<g id="edge45" class="edge">
<title>44730&#45;&gt;44129</title>
<path fill="none" stroke="black" d="M7994.42,-359.45C8000.52,-359.24 8006.55,-359.06 8012.5,-358.89 8060.39,-357.55 8110.8,-356.66 8160.58,-356.09"/>
<polygon fill="black" stroke="black" points="8160.38,-359.59 8170.34,-355.98 8160.3,-352.59 8160.38,-359.59"/>
<text text-anchor="middle" x="8083.37" y="-362.09" font-family="Times,serif" font-size="14.00">CIVILIAN GRADES</text>
</g>
<!-- 44730&#45;&gt;44129 -->
<g id="edge46" class="edge">
<title>44730&#45;&gt;44129</title>
<path fill="none" stroke="black" d="M7992.19,-337.66C7999.03,-336.99 8005.82,-336.4 8012.5,-335.89 8060.62,-332.21 8111.33,-330.99 8161.39,-331.36"/>
<polygon fill="black" stroke="black" points="8161.19,-334.86 8171.22,-331.46 8161.26,-327.86 8161.19,-334.86"/>
<text text-anchor="middle" x="8083.37" y="-339.09" font-family="Times,serif" font-size="14.00">POLICE</text>
</g>
<!-- 44730&#45;&gt;44129 -->
<g id="edge47" class="edge">
<title>44730&#45;&gt;44129</title>
<path fill="none" stroke="black" d="M7987.3,-314.74C7995.78,-313.27 8004.2,-311.97 8012.5,-310.89 8061.54,-304.5 8113.33,-302.97 8164.41,-304.49"/>
<polygon fill="black" stroke="black" points="8164.01,-307.98 8174.12,-304.83 8164.25,-300.99 8164.01,-307.98"/>
<text text-anchor="middle" x="8083.37" y="-314.09" font-family="Times,serif" font-size="14.00">EXTERNAL CIVILIANS</text>
</g>
<!-- 44223 -->
<g id="node11" class="node">
<title>44223</title>
<ellipse fill="none" stroke="black" cx="1506.9" cy="-406.39" rx="271.94" ry="271.94"/>
<text text-anchor="middle" x="1506.9" y="-401.34" font-family="Times,serif" font-size="14.00">HAS ANY PROSECUTION TAKEN PLACE OR IS ANY PENDING</text>
</g>
<!-- 44223&#45;&gt;44133 -->
<g id="edge11" class="edge">
<title>44223&#45;&gt;44133</title>
<path fill="none" stroke="black" d="M1751.61,-525.31C1766.86,-532.23 1782.03,-538.98 1796.84,-545.39 1813.78,-552.72 1831.28,-560.09 1848.98,-567.39"/>
<polygon fill="black" stroke="black" points="1847.45,-570.55 1858.03,-571.11 1850.11,-564.07 1847.45,-570.55"/>
<text text-anchor="middle" x="1809.59" y="-556.3" font-family="Times,serif" font-size="14.00">YES</text>
</g>
<!-- 44223&#45;&gt;44133 -->
<g id="edge12" class="edge">
<title>44223&#45;&gt;44133</title>
<path fill="none" stroke="black" d="M1762.67,-500.17C1782.95,-508.31 1803.04,-516.61 1822.34,-524.89 1834.72,-530.2 1847.33,-535.74 1860.02,-541.42"/>
<polygon fill="black" stroke="black" points="1858.28,-544.47 1868.83,-545.38 1861.15,-538.09 1858.28,-544.47"/>
<text text-anchor="middle" x="1809.59" y="-528.09" font-family="Times,serif" font-size="14.00">NO</text>
</g>
<!-- 44607&#45;&gt;44133 -->
<g id="edge31" class="edge">
<title>44607&#45;&gt;44133</title>
<path fill="none" stroke="black" d="M1111.69,-629.78C1150.65,-653.47 1192.49,-674.15 1234.96,-687.39 1342.24,-720.83 1612.91,-713.26 1829.75,-700.19"/>
<polygon fill="black" stroke="black" points="1829.74,-703.7 1839.5,-699.6 1829.31,-696.71 1829.74,-703.7"/>
<text text-anchor="middle" x="1506.9" y="-714.49" font-family="Times,serif" font-size="14.00">NO</text>
</g>
<!-- 44607&#45;&gt;44223 -->
<g id="edge30" class="edge">
<title>44607&#45;&gt;44223</title>
<path fill="none" stroke="black" d="M1172.67,-433.29C1189.83,-431.91 1207.1,-430.51 1224.29,-429.12"/>
<polygon fill="black" stroke="black" points="1224.37,-432.63 1234.06,-428.33 1223.81,-425.65 1224.37,-432.63"/>
<text text-anchor="middle" x="1204.21" y="-434.09" font-family="Times,serif" font-size="14.00">YES</text>
</g>
<!-- 44456 -->
<g id="node13" class="node">
<title>44456</title>
<ellipse fill="none" stroke="black" cx="5590.51" cy="-499.39" rx="168.04" ry="168.04"/>
<text text-anchor="middle" x="5590.51" y="-494.34" font-family="Times,serif" font-size="14.00">WAS A SERIOUS INJURY SUSTAINED</text>
</g>
<!-- 44667 -->
<g id="node14" class="node">
<title>44667</title>
<ellipse fill="none" stroke="black" cx="6028.02" cy="-499.39" rx="207.96" ry="207.96"/>
<text text-anchor="middle" x="6028.02" y="-494.34" font-family="Times,serif" font-size="14.00">WHICH SERIOUS INJURIES WERE SUSTAINED</text>
</g>
<!-- 44456&#45;&gt;44667 -->
<g id="edge15" class="edge">
<title>44456&#45;&gt;44667</title>
<path fill="none" stroke="black" d="M5758.96,-499.39C5775.13,-499.39 5791.69,-499.39 5808.25,-499.39"/>
<polygon fill="black" stroke="black" points="5808.21,-502.89 5818.21,-499.39 5808.21,-495.89 5808.21,-502.89"/>
<text text-anchor="middle" x="5789.31" y="-502.59" font-family="Times,serif" font-size="14.00">YES</text>
</g>
<!-- 45161 -->
<g id="node15" class="node">
<title>45161</title>
<ellipse fill="none" stroke="black" cx="6681.12" cy="-450.39" rx="160.88" ry="160.88"/>
<text text-anchor="middle" x="6681.12" y="-445.34" font-family="Times,serif" font-size="14.00">WAS A MINOR INJURY SUSTAINED</text>
</g>
<!-- 44456&#45;&gt;45161 -->
<g id="edge16" class="edge">
<title>44456&#45;&gt;45161</title>
<path fill="none" stroke="black" d="M5689.77,-363.58C5725.87,-324.52 5770.25,-286.83 5820.06,-265.89 6099.63,-148.33 6224.02,-161.67 6502.24,-282.39 6524.98,-292.26 6546.6,-306.36 6566.42,-322.25"/>
<polygon fill="black" stroke="black" points="6564,-324.78 6573.94,-328.45 6568.45,-319.38 6564,-324.78"/>
<text text-anchor="middle" x="6028.02" y="-269.09" font-family="Times,serif" font-size="14.00">NO</text>
</g>
<!-- 44667&#45;&gt;45161 -->
<g id="edge32" class="edge">
<title>44667&#45;&gt;45161</title>
<path fill="none" stroke="black" d="M6185.3,-635.77C6207.21,-649.05 6230.36,-660.5 6253.99,-668.39 6358.65,-703.32 6402.56,-715.7 6502.24,-668.39 6536.28,-652.23 6565.95,-626.02 6590.8,-597.28"/>
<polygon fill="black" stroke="black" points="6593.29,-599.76 6597.05,-589.86 6587.93,-595.26 6593.29,-599.76"/>
<text text-anchor="middle" x="6378.11" y="-702.6" font-family="Times,serif" font-size="14.00">FRACTURE</text>
</g>
<!-- 44667&#45;&gt;45161 -->
<g id="edge33" class="edge">
<title>44667&#45;&gt;45161</title>
<path fill="none" stroke="black" d="M6203.98,-610.85C6220.44,-617.89 6237.24,-623.93 6253.99,-628.39 6307.3,-642.59 6451.27,-649.51 6502.24,-628.39 6527.42,-617.95 6550.9,-602.03 6572,-583.91"/>
<polygon fill="black" stroke="black" points="6574.29,-586.56 6579.46,-577.31 6569.65,-581.32 6574.29,-586.56"/>
<text text-anchor="middle" x="6378.11" y="-644.96" font-family="Times,serif" font-size="14.00">SCALD OR BURN</text>
</g>
<!-- 44667&#45;&gt;45161 -->
<g id="edge34" class="edge">
<title>44667&#45;&gt;45161</title>
<path fill="none" stroke="black" d="M6220.21,-579.41C6307.69,-604.9 6411.78,-619.36 6502.24,-588.39 6519.47,-582.49 6536.32,-574.16 6552.37,-564.49"/>
<polygon fill="black" stroke="black" points="6553.8,-567.72 6560.43,-559.45 6550.09,-561.78 6553.8,-567.72"/>
<text text-anchor="middle" x="6378.11" y="-609.15" font-family="Times,serif" font-size="14.00">STABBING</text>
</g>
<!-- 44667&#45;&gt;45161 -->
<g id="edge35" class="edge">
<title>44667&#45;&gt;45161</title>
<path fill="none" stroke="black" d="M6229.93,-551.2C6314.96,-565.19 6414.45,-570.97 6502.24,-548.39 6512.44,-545.77 6522.68,-542.42 6532.82,-538.56"/>
<polygon fill="black" stroke="black" points="6533.94,-541.87 6541.93,-534.91 6531.34,-535.37 6533.94,-541.87"/>
<text text-anchor="middle" x="6378.11" y="-566.72" font-family="Times,serif" font-size="14.00">CRUSHING</text>
</g>
<!-- 44667&#45;&gt;45161 -->
<g id="edge36" class="edge">
<title>44667&#45;&gt;45161</title>
<path fill="none" stroke="black" d="M6235.38,-519.02C6318.72,-522.88 6415.51,-522.17 6502.24,-508.39 6507.48,-507.56 6512.77,-506.59 6518.09,-505.52"/>
<polygon fill="black" stroke="black" points="6518.52,-509.01 6527.56,-503.49 6517.05,-502.17 6518.52,-509.01"/>
<text text-anchor="middle" x="6378.11" y="-524.24" font-family="Times,serif" font-size="14.00">EXTENSIVE OR MULTIPLE BRUISING</text>
</g>
<!-- 44667&#45;&gt;45161 -->
<g id="edge37" class="edge">
<title>44667&#45;&gt;45161</title>
<path fill="none" stroke="black" d="M6235.87,-487.43C6318.73,-482.23 6415.06,-475.65 6502.24,-468.39 6504.59,-468.19 6506.97,-467.99 6509.35,-467.79"/>
<polygon fill="black" stroke="black" points="6509.45,-471.29 6519.11,-466.94 6508.85,-464.32 6509.45,-471.29"/>
<text text-anchor="middle" x="6378.11" y="-489.29" font-family="Times,serif" font-size="14.00">BLACK EYE</text>
</g>
<!-- 44667&#45;&gt;45161 -->
<g id="edge38" class="edge">
<title>44667&#45;&gt;45161</title>
<path fill="none" stroke="black" d="M6230.7,-450.94C6238.54,-449.78 6246.32,-448.76 6253.99,-447.89 6363.62,-435.5 6391.91,-447.11 6502.24,-447.89 6504.44,-447.9 6506.65,-447.92 6508.88,-447.94"/>
<polygon fill="black" stroke="black" points="6508.58,-451.44 6518.61,-448.02 6508.64,-444.44 6508.58,-451.44"/>
<text text-anchor="middle" x="6378.11" y="-451.09" font-family="Times,serif" font-size="14.00">BROKEN NOSE</text>
</g>
<!-- 44667&#45;&gt;45161 -->
<g id="edge39" class="edge">
<title>44667&#45;&gt;45161</title>
<path fill="none" stroke="black" d="M6223.71,-427.98C6233.87,-425.62 6244.01,-423.56 6253.99,-421.89 6338.15,-407.8 6432.76,-412.14 6511.42,-421.18"/>
<polygon fill="black" stroke="black" points="6510.56,-424.61 6520.91,-422.31 6511.39,-417.65 6510.56,-424.61"/>
<text text-anchor="middle" x="6378.11" y="-425.09" font-family="Times,serif" font-size="14.00">BROKEN TEETH</text>
</g>
<!-- 44667&#45;&gt;45161 -->
<g id="edge40" class="edge">
<title>44667&#45;&gt;45161</title>
<path fill="none" stroke="black" d="M6212.98,-403.65C6226.62,-398.99 6240.37,-394.97 6253.99,-391.89 6361.59,-367.5 6393.29,-374.43 6502.24,-391.89 6507.48,-392.73 6512.78,-393.7 6518.1,-394.78"/>
<polygon fill="black" stroke="black" points="6517.06,-398.14 6527.57,-396.83 6518.54,-391.3 6517.06,-398.14"/>
<text text-anchor="middle" x="6378.11" y="-395.09" font-family="Times,serif" font-size="14.00">CUTS REQUIRING SUTURING</text>
</g>
<!-- 44667&#45;&gt;45161 -->
<g id="edge41" class="edge">
<title>44667&#45;&gt;45161</title>
<path fill="none" stroke="black" d="M6197.36,-378.26C6215.82,-369.22 6234.87,-361.47 6253.99,-355.89 6359.9,-324.98 6395.18,-329.22 6502.24,-355.89 6511.96,-358.31 6521.73,-361.37 6531.42,-364.9"/>
<polygon fill="black" stroke="black" points="6529.89,-368.06 6540.48,-368.37 6532.39,-361.53 6529.89,-368.06"/>
<text text-anchor="middle" x="6378.11" y="-359.09" font-family="Times,serif" font-size="14.00">BITES</text>
</g>
<!-- 44667&#45;&gt;45161 -->
<g id="edge42" class="edge">
<title>44667&#45;&gt;45161</title>
<path fill="none" stroke="black" d="M6177.55,-354.18C6201.54,-337.74 6227.31,-323.47 6253.99,-313.89 6357.83,-276.6 6397.76,-278.42 6502.24,-313.89 6519.03,-319.59 6535.47,-327.58 6551.16,-336.87"/>
<polygon fill="black" stroke="black" points="6549.19,-339.77 6559.55,-342.02 6552.86,-333.8 6549.19,-339.77"/>
<text text-anchor="middle" x="6378.11" y="-317.09" font-family="Times,serif" font-size="14.00">TEMPORARY/PERMANENT BLINDNESS</text>
</g>
<!-- 45161&#45;&gt;44144 -->
<g id="edge65" class="edge">
<title>45161&#45;&gt;44144</title>
<path fill="none" stroke="black" d="M6842.25,-450.39C6858.4,-450.39 6874.98,-450.39 6891.57,-450.39"/>
<polygon fill="black" stroke="black" points="6891.54,-453.89 6901.54,-450.39 6891.54,-446.89 6891.54,-453.89"/>
<text text-anchor="middle" x="6872.74" y="-453.59" font-family="Times,serif" font-size="14.00">YES</text>
</g>
<!-- 45161&#45;&gt;44730 -->
<g id="edge66" class="edge">
<title>45161&#45;&gt;44730</title>
<path fill="none" stroke="black" d="M6775.89,-320.15C6811.1,-281.72 6854.59,-244.47 6903.49,-223.89 7126.42,-130.05 7404.71,-204.59 7588.51,-277.38"/>
<polygon fill="black" stroke="black" points="7587.12,-280.59 7597.71,-281.05 7589.72,-274.09 7587.12,-280.59"/>
<text text-anchor="middle" x="7104.29" y="-227.09" font-family="Times,serif" font-size="14.00">NO</text>
</g>
<!-- 44601 -->
<g id="node17" class="node">
<title>44601</title>
<ellipse fill="none" stroke="black" cx="11107.36" cy="-507.39" rx="213.08" ry="213.08"/>
<text text-anchor="middle" x="11107.36" y="-502.34" font-family="Times,serif" font-size="14.00">WAS DAMAGE CAUSED TO PRISON PROPERTY</text>
</g>
<!-- 44541&#45;&gt;44601 -->
<g id="edge22" class="edge">
<title>44541&#45;&gt;44601</title>
<path fill="none" stroke="black" d="M10833.13,-507.39C10849.79,-507.39 10866.4,-507.39 10882.74,-507.39"/>
<polygon fill="black" stroke="black" points="10882.49,-510.89 10892.49,-507.39 10882.49,-503.89 10882.49,-510.89"/>
<text text-anchor="middle" x="10863.53" y="-510.59" font-family="Times,serif" font-size="14.00">YES</text>
</g>
<!-- 44541&#45;&gt;44601 -->
<g id="edge23" class="edge">
<title>44541&#45;&gt;44601</title>
<path fill="none" stroke="black" d="M10832.16,-485.86C10847.08,-485.92 10861.85,-486.25 10876.28,-486.89 10878.66,-487 10881.06,-487.11 10883.47,-487.23"/>
<polygon fill="black" stroke="black" points="10883.16,-490.71 10893.33,-487.74 10883.52,-483.72 10883.16,-490.71"/>
<text text-anchor="middle" x="10863.53" y="-490.09" font-family="Times,serif" font-size="14.00">NO</text>
</g>
<!-- 44601&#45;&gt;END_NODE -->
<g id="edge29" class="edge">
<title>44601&#45;&gt;END_NODE</title>
<path fill="none" stroke="black" d="M11314.43,-559.18C11371.15,-569.58 11432.95,-577.39 11490.64,-577.39 11490.64,-577.39 11490.64,-577.39 12214.94,-577.39 12369.95,-577.39 12549.41,-528.47 12629.48,-503.99"/>
<polygon fill="black" stroke="black" points="12630.14,-507.45 12638.66,-501.16 12628.07,-500.77 12630.14,-507.45"/>
<text text-anchor="middle" x="11838.75" y="-580.59" font-family="Times,serif" font-size="14.00">NO</text>
</g>
<!-- 45159 -->
<g id="node20" class="node">
<title>45159</title>
<ellipse fill="none" stroke="black" cx="11491.64" cy="-437.39" rx="109.7" ry="109.7"/>
<text text-anchor="middle" x="11491.64" y="-432.34" font-family="Times,serif" font-size="14.00">WHAT WAS DAMAGED</text>
</g>
<!-- 44601&#45;&gt;45159 -->
<g id="edge28" class="edge">
<title>44601&#45;&gt;45159</title>
<path fill="none" stroke="black" d="M11317.39,-469.11C11336.22,-465.67 11354.8,-462.26 11372.42,-459.04"/>
<polygon fill="black" stroke="black" points="11372.85,-462.52 11382.06,-457.27 11371.59,-455.63 11372.85,-462.52"/>
<text text-anchor="middle" x="11351.19" y="-467.26" font-family="Times,serif" font-size="14.00">YES</text>
</g>
<!-- 44591 -->
<g id="node18" class="node">
<title>44591</title>
<ellipse fill="none" stroke="black" cx="3958.62" cy="-676.39" rx="231.51" ry="231.51"/>
<text text-anchor="middle" x="3958.62" y="-671.34" font-family="Times,serif" font-size="14.00">IS THERE ANY MEDIA INTEREST IN THIS INCIDENT</text>
</g>
<!-- 44995 -->
<g id="node19" class="node">
<title>44995</title>
<ellipse fill="none" stroke="black" cx="4518.96" cy="-676.39" rx="267.33" ry="267.33"/>
<text text-anchor="middle" x="4518.96" y="-671.34" font-family="Times,serif" font-size="14.00">HAS THE PRISON SERVICE PRESS OFFICE BEEN INFORMED</text>
</g>
<!-- 44591&#45;&gt;44995 -->
<g id="edge26" class="edge">
<title>44591&#45;&gt;44995</title>
<path fill="none" stroke="black" d="M4190.35,-676.39C4206.69,-676.39 4223.26,-676.39 4239.83,-676.39"/>
<polygon fill="black" stroke="black" points="4239.78,-679.89 4249.78,-676.39 4239.78,-672.89 4239.78,-679.89"/>
<text text-anchor="middle" x="4220.88" y="-679.59" font-family="Times,serif" font-size="14.00">YES</text>
</g>
<!-- 44591&#45;&gt;44995 -->
<g id="edge27" class="edge">
<title>44591&#45;&gt;44995</title>
<path fill="none" stroke="black" d="M4189.75,-656.73C4195.94,-656.42 4202.07,-656.14 4208.13,-655.89 4218.82,-655.45 4229.72,-655.2 4240.73,-655.12"/>
<polygon fill="black" stroke="black" points="4240.73,-658.62 4250.72,-655.09 4240.71,-651.62 4240.73,-658.62"/>
<text text-anchor="middle" x="4220.88" y="-659.09" font-family="Times,serif" font-size="14.00">NO</text>
</g>
<!-- 44857 -->
<g id="node21" class="node">
<title>44857</title>
<ellipse fill="none" stroke="black" cx="5104.38" cy="-676.39" rx="256.59" ry="256.59"/>
<text text-anchor="middle" x="5104.38" y="-671.34" font-family="Times,serif" font-size="14.00">WERE ANY INJURIES RECEIVED DURING THIS INCIDENT</text>
</g>
<!-- 44995&#45;&gt;44857 -->
<g id="edge50" class="edge">
<title>44995&#45;&gt;44857</title>
<path fill="none" stroke="black" d="M4786.49,-676.39C4802.96,-676.39 4819.54,-676.39 4836.01,-676.39"/>
<polygon fill="black" stroke="black" points="4835.88,-679.89 4845.88,-676.39 4835.88,-672.89 4835.88,-679.89"/>
<text text-anchor="middle" x="4817.05" y="-679.59" font-family="Times,serif" font-size="14.00">YES</text>
</g>
<!-- 44995&#45;&gt;44857 -->
<g id="edge51" class="edge">
<title>44995&#45;&gt;44857</title>
<path fill="none" stroke="black" d="M4785.69,-655.22C4800.61,-655.15 4815.39,-655.35 4829.8,-655.89 4832.17,-655.98 4834.55,-656.07 4836.94,-656.17"/>
<polygon fill="black" stroke="black" points="4836.55,-659.65 4846.69,-656.59 4836.85,-652.66 4836.55,-659.65"/>
<text text-anchor="middle" x="4817.05" y="-659.09" font-family="Times,serif" font-size="14.00">NO</text>
</g>
<!-- 45125 -->
<g id="node24" class="node">
<title>45125</title>
<ellipse fill="none" stroke="black" cx="11838.75" cy="-416.39" rx="118.91" ry="118.91"/>
<text text-anchor="middle" x="11838.75" y="-411.34" font-family="Times,serif" font-size="14.00">DESCRIBE THE DAMAGE</text>
</g>
<!-- 45159&#45;&gt;45125 -->
<g id="edge60" class="edge">
<title>45159&#45;&gt;45125</title>
<path fill="none" stroke="black" d="M11595.5,-473.56C11629.43,-481.09 11667.31,-484.78 11701.84,-477.39 11708.15,-476.04 11714.53,-474.37 11720.9,-472.45"/>
<polygon fill="black" stroke="black" points="11721.71,-475.87 11730.16,-469.48 11719.57,-469.21 11721.71,-475.87"/>
<text text-anchor="middle" x="11660.59" y="-484.61" font-family="Times,serif" font-size="14.00">FURNITURE</text>
</g>
<!-- 45159&#45;&gt;45125 -->
<g id="edge61" class="edge">
<title>45159&#45;&gt;45125</title>
<path fill="none" stroke="black" d="M11601.61,-440.55C11633.91,-440.63 11669.34,-439.89 11701.84,-437.39 11704.5,-437.18 11707.19,-436.96 11709.89,-436.71"/>
<polygon fill="black" stroke="black" points="11710,-440.22 11719.61,-435.74 11709.31,-433.25 11710,-440.22"/>
<text text-anchor="middle" x="11660.59" y="-443.69" font-family="Times,serif" font-size="14.00">FITTINGS</text>
</g>
<!-- 45159&#45;&gt;45125 -->
<g id="edge62" class="edge">
<title>45159&#45;&gt;45125</title>
<path fill="none" stroke="black" d="M11599.98,-418.82C11606.52,-418.06 11613.01,-417.41 11619.34,-416.89 11648.07,-414.55 11679.01,-413.55 11708.3,-413.31"/>
<polygon fill="black" stroke="black" points="11707.94,-416.81 11717.92,-413.26 11707.9,-409.81 11707.94,-416.81"/>
<text text-anchor="middle" x="11660.59" y="-420.09" font-family="Times,serif" font-size="14.00">MACHINERY</text>
</g>
<!-- 45159&#45;&gt;45125 -->
<g id="edge63" class="edge">
<title>45159&#45;&gt;45125</title>
<path fill="none" stroke="black" d="M11594.54,-398.32C11602.85,-396.14 11611.18,-394.28 11619.34,-392.89 11648.76,-387.87 11680.6,-388.12 11710.63,-390.88"/>
<polygon fill="black" stroke="black" points="11710.23,-394.36 11720.54,-391.9 11710.95,-387.39 11710.23,-394.36"/>
<text text-anchor="middle" x="11660.59" y="-396.09" font-family="Times,serif" font-size="14.00">EQUIPMENT</text>
</g>
<!-- 45159&#45;&gt;45125 -->
<g id="edge64" class="edge">
<title>45159&#45;&gt;45125</title>
<path fill="none" stroke="black" d="M11585.67,-380.58C11596.71,-375.82 11608.06,-371.74 11619.34,-368.89 11650.8,-360.93 11685.02,-363.24 11716.83,-369.96"/>
<polygon fill="black" stroke="black" points="11715.97,-373.35 11726.5,-372.17 11717.53,-366.53 11715.97,-373.35"/>
<text text-anchor="middle" x="11660.59" y="-372.09" font-family="Times,serif" font-size="14.00">OTHER</text>
</g>
<!-- 44857&#45;&gt;44588 -->
<g id="edge49" class="edge">
<title>44857&#45;&gt;44588</title>
<path fill="none" stroke="black" d="M5357.08,-722.39C5431.64,-732.57 5513.64,-740.39 5589.51,-740.39 5589.51,-740.39 5589.51,-740.39 9152.93,-740.39 9244.17,-740.39 9268.89,-743.77 9357.34,-721.39 9423.7,-704.6 9492.58,-680.23 9557.28,-653.91"/>
<polygon fill="black" stroke="black" points="9558.3,-657.28 9566.23,-650.25 9555.65,-650.8 9558.3,-657.28"/>
<text text-anchor="middle" x="7104.29" y="-743.59" font-family="Times,serif" font-size="14.00">NO</text>
</g>
<!-- 44857&#45;&gt;44456 -->
<g id="edge48" class="edge">
<title>44857&#45;&gt;44456</title>
<path fill="none" stroke="black" d="M5345.68,-588.54C5371.45,-579.11 5397.25,-569.68 5421.91,-560.67"/>
<polygon fill="black" stroke="black" points="5422.79,-564.07 5430.98,-557.35 5420.39,-557.5 5422.79,-564.07"/>
<text text-anchor="middle" x="5391.72" y="-575.24" font-family="Times,serif" font-size="14.00">YES</text>
</g>
<!-- 45106 -->
<g id="node22" class="node">
<title>45106</title>
<ellipse fill="none" stroke="black" cx="12213.94" cy="-403.39" rx="146.04" ry="146.04"/>
<text text-anchor="middle" x="12213.94" y="-398.34" font-family="Times,serif" font-size="14.00">ESTIMATED COST OF DAMAGE</text>
</g>
<!-- 45106&#45;&gt;END_NODE -->
<g id="edge52" class="edge">
<title>45106&#45;&gt;END_NODE</title>
<path fill="none" stroke="black" d="M12357.63,-430.56C12450.85,-448.31 12566.37,-470.31 12628.09,-482.06"/>
<polygon fill="black" stroke="black" points="12627.37,-485.48 12637.84,-483.92 12628.68,-478.61 12627.37,-485.48"/>
<text text-anchor="middle" x="12499.48" y="-482.81" font-family="Times,serif" font-size="14.00">ENTER AMOUNT IN POUND STERLING</text>
</g>
<!-- 45139&#45;&gt;44591 -->
<g id="edge58" class="edge">
<title>45139&#45;&gt;44591</title>
<path fill="none" stroke="black" d="M3666.1,-676.39C3682.61,-676.39 3699.15,-676.39 3715.5,-676.39"/>
<polygon fill="black" stroke="black" points="3715.27,-679.89 3725.27,-676.39 3715.27,-672.89 3715.27,-679.89"/>
<text text-anchor="middle" x="3696.36" y="-679.59" font-family="Times,serif" font-size="14.00">YES</text>
</g>
<!-- 45139&#45;&gt;44591 -->
<g id="edge59" class="edge">
<title>45139&#45;&gt;44591</title>
<path fill="none" stroke="black" d="M3664.92,-655.04C3679.87,-655.03 3694.67,-655.29 3709.11,-655.89 3711.48,-655.99 3713.86,-656.09 3716.25,-656.2"/>
<polygon fill="black" stroke="black" points="3715.83,-659.68 3725.98,-656.66 3716.16,-652.69 3715.83,-659.68"/>
<text text-anchor="middle" x="3696.36" y="-659.09" font-family="Times,serif" font-size="14.00">NO</text>
</g>
<!-- 45125&#45;&gt;45106 -->
<g id="edge55" class="edge">
<title>45125&#45;&gt;45106</title>
<path fill="none" stroke="black" d="M11957.59,-424.67C11963.7,-424.95 11969.75,-425.19 11975.66,-425.39 12008.64,-426.48 12016.98,-427.6 12049.91,-425.39 12052.45,-425.22 12055.02,-425.03 12057.61,-424.83"/>
<polygon fill="black" stroke="black" points="12057.85,-428.32 12067.52,-424 12057.26,-421.35 12057.85,-428.32"/>
<text text-anchor="middle" x="12012.78" y="-429.86" font-family="Times,serif" font-size="14.00">MINOR</text>
</g>
<!-- 45125&#45;&gt;45106 -->
<g id="edge56" class="edge">
<title>45125&#45;&gt;45106</title>
<path fill="none" stroke="black" d="M11957.58,-405.85C11963.69,-405.48 11969.74,-405.16 11975.66,-404.89 12001.67,-403.71 12029.31,-403.02 12056.18,-402.65"/>
<polygon fill="black" stroke="black" points="12056.17,-406.15 12066.13,-402.53 12056.09,-399.15 12056.17,-406.15"/>
<text text-anchor="middle" x="12012.78" y="-408.09" font-family="Times,serif" font-size="14.00">SERIOUS</text>
</g>
<!-- 45125&#45;&gt;45106 -->
<g id="edge57" class="edge">
<title>45125&#45;&gt;45106</title>
<path fill="none" stroke="black" d="M11953.92,-385.25C11961.24,-383.92 11968.53,-382.78 11975.66,-381.89 12002.26,-378.56 12030.61,-378.3 12058.1,-379.76"/>
<polygon fill="black" stroke="black" points="12057.71,-383.25 12067.9,-380.37 12058.14,-376.26 12057.71,-383.25"/>
<text text-anchor="middle" x="12012.78" y="-385.09" font-family="Times,serif" font-size="14.00">EXTENSIVE</text>
</g>
</g>
</svg>
