<?xml version="1.0" encoding="UTF-8" standalone="no"?>
<!DOCTYPE svg PUBLIC "-//W3C//DTD SVG 1.1//EN"
 "http://www.w3.org/Graphics/SVG/1.1/DTD/svg11.dtd">
<!-- Generated by graphviz version 12.1.1 (20240910.0053)
 -->
<!-- Title: MISCELLANEOUS Pages: 1 -->
<svg width="9634pt" height="740pt"
 viewBox="0.00 0.00 9634.12 740.20" xmlns="http://www.w3.org/2000/svg" xmlns:xlink="http://www.w3.org/1999/xlink">
<g id="graph0" class="graph" transform="scale(1 1) rotate(0) translate(4 736.2)">
<title>MISCELLANEOUS</title>
<polygon fill="white" stroke="none" points="-4,4 -4,-736.2 9630.12,-736.2 9630.12,4 -4,4"/>
<!-- START_NODE -->
<g id="node1" class="node">
<title>START_NODE</title>
</g>
<!-- 44290 -->
<g id="node2" class="node">
<title>44290</title>
<ellipse fill="none" stroke="black" cx="280.27" cy="-478.63" rx="167.02" ry="167.02"/>
<text text-anchor="middle" x="280.27" y="-473.58" font-family="Times,serif" font-size="14.00">Were the police informed of the incident?</text>
</g>
<!-- START_NODE&#45;&gt;44290 -->
<g id="edge1" class="edge">
<title>START_NODE&#45;&gt;44290</title>
<path fill="none" stroke="black" d="M53.94,-478.63C66.67,-478.63 83.21,-478.63 101.55,-478.63"/>
<polygon fill="black" stroke="black" points="101.34,-482.13 111.34,-478.63 101.34,-475.13 101.34,-482.13"/>
<text text-anchor="middle" x="83.62" y="-481.83" font-family="Times,serif" font-size="14.00">start</text>
</g>
<!-- 44133 -->
<g id="node7" class="node">
<title>44133</title>
<ellipse fill="none" stroke="black" cx="1637.95" cy="-519.63" rx="212.57" ry="212.57"/>
<text text-anchor="middle" x="1637.95" y="-514.58" font-family="Times,serif" font-size="14.00">Is the incident the subject of an internal investigation?</text>
</g>
<!-- 44290&#45;&gt;44133 -->
<g id="edge14" class="edge">
<title>44290&#45;&gt;44133</title>
<path fill="none" stroke="black" d="M430.45,-552.63C454.38,-561.69 479.27,-569.53 503.54,-574.63 880.03,-653.74 986.61,-618.58 1369.13,-577.63 1385.62,-575.87 1402.59,-573.51 1419.6,-570.75"/>
<polygon fill="black" stroke="black" points="1419.99,-574.23 1429.28,-569.13 1418.84,-567.33 1419.99,-574.23"/>
<text text-anchor="middle" x="936.33" y="-624.53" font-family="Times,serif" font-size="14.00">No</text>
</g>
<!-- 44607 -->
<g id="node12" class="node">
<title>44607</title>
<ellipse fill="none" stroke="black" cx="705.87" cy="-363.63" rx="202.33" ry="202.33"/>
<text text-anchor="middle" x="705.87" y="-358.58" font-family="Times,serif" font-size="14.00">Is the incident the subject of a police investigation?</text>
</g>
<!-- 44290&#45;&gt;44607 -->
<g id="edge13" class="edge">
<title>44290&#45;&gt;44607</title>
<path fill="none" stroke="black" d="M441.72,-435.08C460.5,-429.98 479.86,-424.72 499.14,-419.49"/>
<polygon fill="black" stroke="black" points="499.97,-422.89 508.71,-416.89 498.14,-416.13 499.97,-422.89"/>
<text text-anchor="middle" x="475.42" y="-431.22" font-family="Times,serif" font-size="14.00">Yes</text>
</g>
<!-- END_NODE -->
<g id="node3" class="node">
<title>END_NODE</title>
<ellipse fill="none" stroke="black" cx="9592.26" cy="-385.63" rx="29.86" ry="29.86"/>
<ellipse fill="none" stroke="black" cx="9592.26" cy="-385.63" rx="33.86" ry="33.86"/>
<text text-anchor="middle" x="9592.26" y="-380.58" font-family="Times,serif" font-size="14.00">END</text>
</g>
<!-- 44129 -->
<g id="node4" class="node">
<title>44129</title>
<ellipse fill="none" stroke="black" cx="6458.39" cy="-258.63" rx="258.63" ry="258.63"/>
<text text-anchor="middle" x="6458.39" y="-253.58" font-family="Times,serif" font-size="14.00">Did injuries result in detention in outside hospital as an in&#45;patient?</text>
</g>
<!-- 44503 -->
<g id="node5" class="node">
<title>44503</title>
<ellipse fill="none" stroke="black" cx="6928.01" cy="-394.63" rx="154.74" ry="154.74"/>
<text text-anchor="middle" x="6928.01" y="-389.58" font-family="Times,serif" font-size="14.00">Who was detained in outside hospital?</text>
</g>
<!-- 44129&#45;&gt;44503 -->
<g id="edge2" class="edge">
<title>44129&#45;&gt;44503</title>
<path fill="none" stroke="black" d="M6707.23,-330.72C6727.91,-336.73 6748.44,-342.7 6768.18,-348.44"/>
<polygon fill="black" stroke="black" points="6767.03,-351.75 6777.61,-351.18 6768.98,-345.03 6767.03,-351.75"/>
<text text-anchor="middle" x="6745.15" y="-346.01" font-family="Times,serif" font-size="14.00">Yes</text>
</g>
<!-- 44588 -->
<g id="node6" class="node">
<title>44588</title>
<ellipse fill="none" stroke="black" cx="7447.55" cy="-394.63" rx="233.56" ry="233.56"/>
<text text-anchor="middle" x="7447.55" y="-389.58" font-family="Times,serif" font-size="14.00">Are there any staff now off duty as a result of this incident?</text>
</g>
<!-- 44129&#45;&gt;44588 -->
<g id="edge3" class="edge">
<title>44129&#45;&gt;44588</title>
<path fill="none" stroke="black" d="M6711.97,-206.54C6826.44,-191.6 6962.72,-186 7082.74,-214.13 7134.49,-226.27 7187.31,-246.91 7236.09,-269.99"/>
<polygon fill="black" stroke="black" points="7234.54,-273.13 7245.07,-274.3 7237.56,-266.82 7234.54,-273.13"/>
<text text-anchor="middle" x="6928.01" y="-217.33" font-family="Times,serif" font-size="14.00">No</text>
</g>
<!-- 44503&#45;&gt;44588 -->
<g id="edge17" class="edge">
<title>44503&#45;&gt;44588</title>
<path fill="none" stroke="black" d="M7073.86,-447.19C7082.89,-449.33 7091.89,-451.18 7100.74,-452.63 7136.13,-458.45 7173.54,-458.51 7210.17,-455.17"/>
<polygon fill="black" stroke="black" points="7210.4,-458.67 7220,-454.18 7209.7,-451.7 7210.4,-458.67"/>
<text text-anchor="middle" x="7148.37" y="-460.59" font-family="Times,serif" font-size="14.00">Staff</text>
</g>
<!-- 44503&#45;&gt;44588 -->
<g id="edge18" class="edge">
<title>44503&#45;&gt;44588</title>
<path fill="none" stroke="black" d="M7082.03,-411.49C7088.35,-411.93 7094.61,-412.31 7100.74,-412.63 7133.92,-414.37 7168.9,-414.51 7203.34,-413.68"/>
<polygon fill="black" stroke="black" points="7203.09,-417.19 7212.99,-413.41 7202.89,-410.19 7203.09,-417.19"/>
<text text-anchor="middle" x="7148.37" y="-417.37" font-family="Times,serif" font-size="14.00">Prisoners</text>
</g>
<!-- 44503&#45;&gt;44588 -->
<g id="edge19" class="edge">
<title>44503&#45;&gt;44588</title>
<path fill="none" stroke="black" d="M7083.02,-392.28C7089,-392.23 7094.93,-392.18 7100.74,-392.13 7133.65,-391.89 7168.33,-391.87 7202.5,-391.98"/>
<polygon fill="black" stroke="black" points="7202.04,-395.48 7212.06,-392.02 7202.07,-388.48 7202.04,-395.48"/>
<text text-anchor="middle" x="7148.37" y="-395.33" font-family="Times,serif" font-size="14.00">Civilian grades</text>
</g>
<!-- 44503&#45;&gt;44588 -->
<g id="edge20" class="edge">
<title>44503&#45;&gt;44588</title>
<path fill="none" stroke="black" d="M7081.53,-372.67C7088.01,-372.08 7094.44,-371.56 7100.74,-371.13 7134.06,-368.86 7169.18,-368.68 7203.76,-369.79"/>
<polygon fill="black" stroke="black" points="7203.33,-373.28 7213.45,-370.14 7203.58,-366.28 7203.33,-373.28"/>
<text text-anchor="middle" x="7148.37" y="-374.33" font-family="Times,serif" font-size="14.00">Police</text>
</g>
<!-- 44503&#45;&gt;44588 -->
<g id="edge21" class="edge">
<title>44503&#45;&gt;44588</title>
<path fill="none" stroke="black" d="M7077.47,-352.78C7085.31,-351.36 7093.1,-350.13 7100.74,-349.13 7135.3,-344.63 7171.79,-344.46 7207.61,-346.89"/>
<polygon fill="black" stroke="black" points="7206.95,-350.35 7217.19,-347.61 7207.48,-343.37 7206.95,-350.35"/>
<text text-anchor="middle" x="7148.37" y="-352.33" font-family="Times,serif" font-size="14.00">External civilians</text>
</g>
<!-- 44541 -->
<g id="node16" class="node">
<title>44541</title>
<ellipse fill="none" stroke="black" cx="7950.44" cy="-394.63" rx="213.08" ry="213.08"/>
<text text-anchor="middle" x="7950.44" y="-389.58" font-family="Times,serif" font-size="14.00">Are any staff on sick leave as a result of this incident?</text>
</g>
<!-- 44588&#45;&gt;44541 -->
<g id="edge24" class="edge">
<title>44588&#45;&gt;44541</title>
<path fill="none" stroke="black" d="M7681.4,-394.63C7696.16,-394.63 7711,-394.63 7725.71,-394.63"/>
<polygon fill="black" stroke="black" points="7725.43,-398.13 7735.43,-394.63 7725.43,-391.13 7725.43,-398.13"/>
<text text-anchor="middle" x="7709.23" y="-397.83" font-family="Times,serif" font-size="14.00">Yes</text>
</g>
<!-- 44588&#45;&gt;44541 -->
<g id="edge25" class="edge">
<title>44588&#45;&gt;44541</title>
<path fill="none" stroke="black" d="M7680.42,-373.41C7693.59,-373.35 7706.64,-373.57 7719.35,-374.13 7721.74,-374.24 7724.14,-374.35 7726.55,-374.47"/>
<polygon fill="black" stroke="black" points="7726.24,-377.96 7736.4,-374.99 7726.6,-370.97 7726.24,-377.96"/>
<text text-anchor="middle" x="7709.23" y="-377.33" font-family="Times,serif" font-size="14.00">No</text>
</g>
<!-- 45122 -->
<g id="node8" class="node">
<title>45122</title>
<ellipse fill="none" stroke="black" cx="2108.59" cy="-519.63" rx="201.82" ry="201.82"/>
<text text-anchor="middle" x="2108.59" y="-514.58" font-family="Times,serif" font-size="14.00">Is the incident subject to a governor&#39;s adjudication?</text>
</g>
<!-- 44133&#45;&gt;45122 -->
<g id="edge4" class="edge">
<title>44133&#45;&gt;45122</title>
<path fill="none" stroke="black" d="M1850.99,-519.63C1865.67,-519.63 1880.47,-519.63 1895.15,-519.63"/>
<polygon fill="black" stroke="black" points="1894.83,-523.13 1904.83,-519.63 1894.83,-516.13 1894.83,-523.13"/>
<text text-anchor="middle" x="1878.65" y="-522.83" font-family="Times,serif" font-size="14.00">Yes</text>
</g>
<!-- 44133&#45;&gt;45122 -->
<g id="edge5" class="edge">
<title>44133&#45;&gt;45122</title>
<path fill="none" stroke="black" d="M1849.81,-498.48C1862.99,-498.35 1876.06,-498.54 1888.77,-499.13 1891.15,-499.25 1893.55,-499.36 1895.96,-499.49"/>
<polygon fill="black" stroke="black" points="1895.62,-502.97 1905.8,-500.03 1896.01,-495.98 1895.62,-502.97"/>
<text text-anchor="middle" x="1878.65" y="-502.33" font-family="Times,serif" font-size="14.00">No</text>
</g>
<!-- 45139 -->
<g id="node23" class="node">
<title>45139</title>
<ellipse fill="none" stroke="black" cx="2569.51" cy="-519.63" rx="202.85" ry="202.85"/>
<text text-anchor="middle" x="2569.51" y="-514.58" font-family="Times,serif" font-size="14.00">Is any member of staff facing disciplinary charges?</text>
</g>
<!-- 45122&#45;&gt;45139 -->
<g id="edge53" class="edge">
<title>45122&#45;&gt;45139</title>
<path fill="none" stroke="black" d="M2310.88,-519.63C2325.56,-519.63 2340.4,-519.63 2355.15,-519.63"/>
<polygon fill="black" stroke="black" points="2354.89,-523.13 2364.89,-519.63 2354.89,-516.13 2354.89,-523.13"/>
<text text-anchor="middle" x="2338.54" y="-522.83" font-family="Times,serif" font-size="14.00">Yes</text>
</g>
<!-- 45122&#45;&gt;45139 -->
<g id="edge54" class="edge">
<title>45122&#45;&gt;45139</title>
<path fill="none" stroke="black" d="M2309.88,-500.12C2316.13,-499.75 2322.32,-499.42 2328.42,-499.13 2337.48,-498.71 2346.73,-498.51 2356.07,-498.49"/>
<polygon fill="black" stroke="black" points="2355.96,-501.98 2365.98,-498.54 2356,-494.99 2355.96,-501.98"/>
<text text-anchor="middle" x="2338.54" y="-502.33" font-family="Times,serif" font-size="14.00">No</text>
</g>
<!-- 44144 -->
<g id="node9" class="node">
<title>44144</title>
<ellipse fill="none" stroke="black" cx="5415.3" cy="-320.63" rx="152.69" ry="152.69"/>
<text text-anchor="middle" x="5415.3" y="-315.58" font-family="Times,serif" font-size="14.00">Which minor injuries were sustained?</text>
</g>
<!-- 44730 -->
<g id="node10" class="node">
<title>44730</title>
<ellipse fill="none" stroke="black" cx="5918.37" cy="-258.63" rx="150.13" ry="150.13"/>
<text text-anchor="middle" x="5918.37" y="-253.58" font-family="Times,serif" font-size="14.00">Enter description of person(s) injured</text>
</g>
<!-- 44144&#45;&gt;44730 -->
<g id="edge6" class="edge">
<title>44144&#45;&gt;44730</title>
<path fill="none" stroke="black" d="M5565.79,-347.69C5623.99,-353.53 5690.84,-354.42 5750.24,-340.63 5758.45,-338.73 5766.72,-336.36 5774.96,-333.64"/>
<polygon fill="black" stroke="black" points="5776.03,-336.98 5784.32,-330.38 5773.73,-330.37 5776.03,-336.98"/>
<text text-anchor="middle" x="5668.12" y="-354.91" font-family="Times,serif" font-size="14.00">Grazes, scratches or abrasions</text>
</g>
<!-- 44144&#45;&gt;44730 -->
<g id="edge7" class="edge">
<title>44144&#45;&gt;44730</title>
<path fill="none" stroke="black" d="M5568.21,-317.51C5625.51,-314.77 5691.12,-309.75 5750.24,-300.63 5754.05,-300.05 5757.91,-299.41 5761.78,-298.73"/>
<polygon fill="black" stroke="black" points="5762.07,-302.24 5771.28,-297 5760.81,-295.35 5762.07,-302.24"/>
<text text-anchor="middle" x="5668.12" y="-319.77" font-family="Times,serif" font-size="14.00">Minor bruises</text>
</g>
<!-- 44144&#45;&gt;44730 -->
<g id="edge8" class="edge">
<title>44144&#45;&gt;44730</title>
<path fill="none" stroke="black" d="M5563.63,-283.89C5571.17,-282.5 5578.65,-281.24 5585.99,-280.13 5641.21,-271.81 5702.08,-266.71 5756.43,-263.58"/>
<polygon fill="black" stroke="black" points="5756.62,-267.08 5766.41,-263.03 5756.23,-260.09 5756.62,-267.08"/>
<text text-anchor="middle" x="5668.12" y="-283.33" font-family="Times,serif" font-size="14.00">Swellings</text>
</g>
<!-- 44144&#45;&gt;44730 -->
<g id="edge9" class="edge">
<title>44144&#45;&gt;44730</title>
<path fill="none" stroke="black" d="M5552.1,-252.63C5563.38,-248.83 5574.76,-245.58 5585.99,-243.13 5641.41,-231.08 5703.22,-230.59 5758.31,-234.55"/>
<polygon fill="black" stroke="black" points="5757.84,-238.03 5768.08,-235.32 5758.39,-231.05 5757.84,-238.03"/>
<text text-anchor="middle" x="5668.12" y="-246.33" font-family="Times,serif" font-size="14.00">Superficial cuts</text>
</g>
<!-- 44144&#45;&gt;44730 -->
<g id="edge10" class="edge">
<title>44144&#45;&gt;44730</title>
<path fill="none" stroke="black" d="M5539.39,-230.98C5554.52,-223.32 5570.22,-216.75 5585.99,-212.13 5642.97,-195.47 5707.26,-199.52 5763.95,-210.4"/>
<polygon fill="black" stroke="black" points="5763.2,-213.82 5773.7,-212.37 5764.59,-206.96 5763.2,-213.82"/>
<text text-anchor="middle" x="5668.12" y="-215.33" font-family="Times,serif" font-size="14.00">Other</text>
</g>
<!-- 44730&#45;&gt;44129 -->
<g id="edge43" class="edge">
<title>44730&#45;&gt;44129</title>
<path fill="none" stroke="black" d="M6059.37,-310.96C6068.47,-313.2 6077.57,-315.13 6086.5,-316.63 6121.74,-322.57 6158.89,-323.31 6195.53,-320.8"/>
<polygon fill="black" stroke="black" points="6195.67,-324.3 6205.37,-320.03 6195.13,-317.32 6195.67,-324.3"/>
<text text-anchor="middle" x="6134.13" y="-325.36" font-family="Times,serif" font-size="14.00">Staff</text>
</g>
<!-- 44730&#45;&gt;44129 -->
<g id="edge44" class="edge">
<title>44730&#45;&gt;44129</title>
<path fill="none" stroke="black" d="M6067.84,-275.46C6074.14,-275.91 6080.38,-276.31 6086.5,-276.63 6119.61,-278.41 6154.39,-278.75 6188.82,-278.15"/>
<polygon fill="black" stroke="black" points="6188.55,-281.66 6198.48,-277.96 6188.41,-274.66 6188.55,-281.66"/>
<text text-anchor="middle" x="6134.13" y="-281.62" font-family="Times,serif" font-size="14.00">Prisoners</text>
</g>
<!-- 44730&#45;&gt;44129 -->
<g id="edge45" class="edge">
<title>44730&#45;&gt;44129</title>
<path fill="none" stroke="black" d="M6068.81,-256.29C6074.78,-256.23 6080.7,-256.18 6086.5,-256.13 6119.48,-255.89 6154.1,-255.84 6188.39,-255.92"/>
<polygon fill="black" stroke="black" points="6187.98,-259.42 6197.99,-255.95 6188,-252.42 6187.98,-259.42"/>
<text text-anchor="middle" x="6134.13" y="-259.33" font-family="Times,serif" font-size="14.00">Civilian grades</text>
</g>
<!-- 44730&#45;&gt;44129 -->
<g id="edge46" class="edge">
<title>44730&#45;&gt;44129</title>
<path fill="none" stroke="black" d="M6067.34,-236.71C6073.81,-236.1 6080.22,-235.57 6086.5,-235.13 6119.75,-232.81 6154.68,-232.38 6189.27,-233.17"/>
<polygon fill="black" stroke="black" points="6188.88,-236.66 6198.97,-233.43 6189.06,-229.67 6188.88,-236.66"/>
<text text-anchor="middle" x="6134.13" y="-238.33" font-family="Times,serif" font-size="14.00">Police</text>
</g>
<!-- 44730&#45;&gt;44129 -->
<g id="edge47" class="edge">
<title>44730&#45;&gt;44129</title>
<path fill="none" stroke="black" d="M6062.43,-216.13C6070.53,-214.57 6078.59,-213.21 6086.5,-212.13 6121.03,-207.42 6157.39,-206.73 6193.29,-208.58"/>
<polygon fill="black" stroke="black" points="6192.72,-212.05 6202.9,-209.15 6193.13,-205.07 6192.72,-212.05"/>
<text text-anchor="middle" x="6134.13" y="-215.33" font-family="Times,serif" font-size="14.00">External civilians</text>
</g>
<!-- 44223 -->
<g id="node11" class="node">
<title>44223</title>
<ellipse fill="none" stroke="black" cx="1166.79" cy="-310.63" rx="202.33" ry="202.33"/>
<text text-anchor="middle" x="1166.79" y="-305.58" font-family="Times,serif" font-size="14.00">Has any prosecution taken place or is any pending?</text>
</g>
<!-- 44223&#45;&gt;44133 -->
<g id="edge11" class="edge">
<title>44223&#45;&gt;44133</title>
<path fill="none" stroke="black" d="M1349.72,-397.66C1362.35,-403.47 1374.91,-409.17 1387.13,-414.63 1401.35,-420.99 1416.07,-427.46 1430.93,-433.9"/>
<polygon fill="black" stroke="black" points="1429.27,-437 1439.84,-437.76 1432.05,-430.58 1429.27,-437"/>
<text text-anchor="middle" x="1397.25" y="-426.74" font-family="Times,serif" font-size="14.00">Yes</text>
</g>
<!-- 44223&#45;&gt;44133 -->
<g id="edge12" class="edge">
<title>44223&#45;&gt;44133</title>
<path fill="none" stroke="black" d="M1359.19,-374.13C1375.62,-380.55 1391.88,-387.25 1407.38,-394.13 1418.78,-399.19 1430.37,-404.61 1441.99,-410.26"/>
<polygon fill="black" stroke="black" points="1440.32,-413.34 1450.84,-414.6 1443.41,-407.05 1440.32,-413.34"/>
<text text-anchor="middle" x="1397.25" y="-397.33" font-family="Times,serif" font-size="14.00">No</text>
</g>
<!-- 44607&#45;&gt;44133 -->
<g id="edge31" class="edge">
<title>44607&#45;&gt;44133</title>
<path fill="none" stroke="black" d="M870.39,-481.94C900.39,-498.3 932.4,-512.58 964.46,-521.63 1111.04,-563.01 1282.87,-561.7 1416.14,-550.46"/>
<polygon fill="black" stroke="black" points="1416.13,-553.97 1425.78,-549.62 1415.52,-547 1416.13,-553.97"/>
<text text-anchor="middle" x="1166.79" y="-560.4" font-family="Times,serif" font-size="14.00">No</text>
</g>
<!-- 44607&#45;&gt;44223 -->
<g id="edge30" class="edge">
<title>44607&#45;&gt;44223</title>
<path fill="none" stroke="black" d="M907.16,-340.5C922.7,-338.71 938.42,-336.89 954.03,-335.09"/>
<polygon fill="black" stroke="black" points="954.34,-338.58 963.87,-333.95 953.53,-331.62 954.34,-338.58"/>
<text text-anchor="middle" x="936.33" y="-340.33" font-family="Times,serif" font-size="14.00">Yes</text>
</g>
<!-- 44456 -->
<g id="node13" class="node">
<title>44456</title>
<ellipse fill="none" stroke="black" cx="4247.37" cy="-345.63" rx="128.12" ry="128.12"/>
<text text-anchor="middle" x="4247.37" y="-340.58" font-family="Times,serif" font-size="14.00">Was a serious injury sustained?</text>
</g>
<!-- 44667 -->
<g id="node14" class="node">
<title>44667</title>
<ellipse fill="none" stroke="black" cx="4588.01" cy="-345.63" rx="156.27" ry="156.27"/>
<text text-anchor="middle" x="4588.01" y="-340.58" font-family="Times,serif" font-size="14.00">Which serious injuries were sustained?</text>
</g>
<!-- 44456&#45;&gt;44667 -->
<g id="edge15" class="edge">
<title>44456&#45;&gt;44667</title>
<path fill="none" stroke="black" d="M4375.91,-345.63C4390.33,-345.63 4405.18,-345.63 4420,-345.63"/>
<polygon fill="black" stroke="black" points="4419.81,-349.13 4429.81,-345.63 4419.81,-342.13 4419.81,-349.13"/>
<text text-anchor="middle" x="4403.61" y="-348.83" font-family="Times,serif" font-size="14.00">Yes</text>
</g>
<!-- 45161 -->
<g id="node15" class="node">
<title>45161</title>
<ellipse fill="none" stroke="black" cx="5081.82" cy="-313.63" rx="124.54" ry="124.54"/>
<text text-anchor="middle" x="5081.82" y="-308.58" font-family="Times,serif" font-size="14.00">Was a minor injury sustained?</text>
</g>
<!-- 44456&#45;&gt;45161 -->
<g id="edge16" class="edge">
<title>44456&#45;&gt;45161</title>
<path fill="none" stroke="black" d="M4325.76,-243.72C4355.25,-212.51 4391.54,-181.77 4431.74,-164.13 4638.39,-73.44 4734.23,-54.37 4939.28,-148.63 4964.86,-160.39 4987.55,-179.31 5006.87,-200.21"/>
<polygon fill="black" stroke="black" points="5004.1,-202.37 5013.37,-207.5 5009.33,-197.71 5004.1,-202.37"/>
<text text-anchor="middle" x="4588.01" y="-167.33" font-family="Times,serif" font-size="14.00">No</text>
</g>
<!-- 44667&#45;&gt;45161 -->
<g id="edge32" class="edge">
<title>44667&#45;&gt;45161</title>
<path fill="none" stroke="black" d="M4683.59,-469.7C4706.73,-491.66 4733.28,-511.39 4762.28,-523.63 4798.52,-538.93 4904.56,-542.11 4939.28,-523.63 4975.3,-504.48 5003.8,-471.62 5025.5,-437.52"/>
<polygon fill="black" stroke="black" points="5028.38,-439.51 5030.65,-429.16 5022.42,-435.84 5028.38,-439.51"/>
<text text-anchor="middle" x="4850.78" y="-539.52" font-family="Times,serif" font-size="14.00">Fracture</text>
</g>
<!-- 44667&#45;&gt;45161 -->
<g id="edge33" class="edge">
<title>44667&#45;&gt;45161</title>
<path fill="none" stroke="black" d="M4702.34,-452.71C4721.17,-465.36 4741.41,-476.34 4762.28,-483.63 4799.41,-496.61 4903.67,-500.32 4939.28,-483.63 4965.96,-471.13 4989.35,-450.86 5009.04,-428.6"/>
<polygon fill="black" stroke="black" points="5011.58,-431.01 5015.42,-421.13 5006.26,-426.46 5011.58,-431.01"/>
<text text-anchor="middle" x="4850.78" y="-498" font-family="Times,serif" font-size="14.00">Scald or burn</text>
</g>
<!-- 44667&#45;&gt;45161 -->
<g id="edge34" class="edge">
<title>44667&#45;&gt;45161</title>
<path fill="none" stroke="black" d="M4720.39,-428.84C4734.15,-434.82 4748.25,-439.94 4762.28,-443.63 4838.36,-463.66 4865.98,-472.19 4939.28,-443.63 4957.38,-436.58 4974.57,-426.02 4990.32,-413.9"/>
<polygon fill="black" stroke="black" points="4992.12,-416.94 4997.74,-407.96 4987.75,-411.47 4992.12,-416.94"/>
<text text-anchor="middle" x="4850.78" y="-465.19" font-family="Times,serif" font-size="14.00">Stabbing</text>
</g>
<!-- 44667&#45;&gt;45161 -->
<g id="edge35" class="edge">
<title>44667&#45;&gt;45161</title>
<path fill="none" stroke="black" d="M4735.18,-398.67C4798.68,-414.35 4873.44,-422.79 4939.28,-403.63 4949.77,-400.58 4960.22,-396.49 4970.42,-391.74"/>
<polygon fill="black" stroke="black" points="4971.74,-394.99 4979.17,-387.44 4968.65,-388.71 4971.74,-394.99"/>
<text text-anchor="middle" x="4850.78" y="-417.88" font-family="Times,serif" font-size="14.00">Crushing</text>
</g>
<!-- 44667&#45;&gt;45161 -->
<g id="edge36" class="edge">
<title>44667&#45;&gt;45161</title>
<path fill="none" stroke="black" d="M4742.9,-368.13C4804.34,-373.32 4875.52,-374.57 4939.28,-363.63 4944.18,-362.79 4949.14,-361.8 4954.12,-360.68"/>
<polygon fill="black" stroke="black" points="4954.66,-364.15 4963.56,-358.4 4953.02,-357.35 4954.66,-364.15"/>
<text text-anchor="middle" x="4850.78" y="-375.18" font-family="Times,serif" font-size="14.00">Extensive or multiple bruising</text>
</g>
<!-- 44667&#45;&gt;45161 -->
<g id="edge37" class="edge">
<title>44667&#45;&gt;45161</title>
<path fill="none" stroke="black" d="M4744.22,-336.15C4805.05,-332.36 4875.45,-327.89 4939.28,-323.63 4941.5,-323.49 4943.73,-323.34 4945.97,-323.19"/>
<polygon fill="black" stroke="black" points="4946.07,-326.69 4955.81,-322.52 4945.59,-319.7 4946.07,-326.69"/>
<text text-anchor="middle" x="4850.78" y="-337.93" font-family="Times,serif" font-size="14.00">Black eye</text>
</g>
<!-- 44667&#45;&gt;45161 -->
<g id="edge38" class="edge">
<title>44667&#45;&gt;45161</title>
<path fill="none" stroke="black" d="M4739.34,-306.46C4747.07,-305.17 4754.75,-304.04 4762.28,-303.13 4840.38,-293.7 4860.67,-300.22 4939.28,-303.13 4941.5,-303.22 4943.73,-303.31 4945.98,-303.4"/>
<polygon fill="black" stroke="black" points="4945.68,-306.89 4955.83,-303.86 4946.01,-299.9 4945.68,-306.89"/>
<text text-anchor="middle" x="4850.78" y="-306.33" font-family="Times,serif" font-size="14.00">Broken nose</text>
</g>
<!-- 44667&#45;&gt;45161 -->
<g id="edge39" class="edge">
<title>44667&#45;&gt;45161</title>
<path fill="none" stroke="black" d="M4732.48,-285.15C4742.45,-282.37 4752.45,-279.98 4762.28,-278.13 4839.6,-263.61 4861.21,-268.49 4939.28,-278.13 4942.75,-278.56 4946.26,-279.05 4949.79,-279.58"/>
<polygon fill="black" stroke="black" points="4949.2,-283.03 4959.64,-281.21 4950.34,-276.13 4949.2,-283.03"/>
<text text-anchor="middle" x="4850.78" y="-281.33" font-family="Times,serif" font-size="14.00">Broken teeth</text>
</g>
<!-- 44667&#45;&gt;45161 -->
<g id="edge40" class="edge">
<title>44667&#45;&gt;45161</title>
<path fill="none" stroke="black" d="M4720.91,-262.64C4734.51,-256.78 4748.43,-251.76 4762.28,-248.13 4838.38,-228.19 4862.46,-231.22 4939.28,-248.13 4946.05,-249.62 4952.88,-251.47 4959.69,-253.59"/>
<polygon fill="black" stroke="black" points="4958.34,-256.83 4968.93,-256.65 4960.54,-250.18 4958.34,-256.83"/>
<text text-anchor="middle" x="4850.78" y="-251.33" font-family="Times,serif" font-size="14.00">Cuts requiring suturing</text>
</g>
<!-- 44667&#45;&gt;45161 -->
<g id="edge41" class="edge">
<title>44667&#45;&gt;45161</title>
<path fill="none" stroke="black" d="M4705.32,-241.99C4723.37,-230.61 4742.6,-220.76 4762.28,-214.13 4836.84,-189.05 4864.28,-190.41 4939.28,-214.13 4951.36,-217.95 4963.29,-223.21 4974.8,-229.33"/>
<polygon fill="black" stroke="black" points="4973.05,-232.36 4983.48,-234.18 4976.46,-226.25 4973.05,-232.36"/>
<text text-anchor="middle" x="4850.78" y="-217.33" font-family="Times,serif" font-size="14.00">Bites</text>
</g>
<!-- 44667&#45;&gt;45161 -->
<g id="edge42" class="edge">
<title>44667&#45;&gt;45161</title>
<path fill="none" stroke="black" d="M4686.73,-224.56C4709.24,-204.4 4734.75,-186.41 4762.28,-175.13 4835.08,-145.32 4866.44,-145.42 4939.28,-175.13 4959.07,-183.21 4977.6,-195.52 4994.3,-209.55"/>
<polygon fill="black" stroke="black" points="4991.9,-212.09 5001.73,-216.03 4996.5,-206.82 4991.9,-212.09"/>
<text text-anchor="middle" x="4850.78" y="-178.33" font-family="Times,serif" font-size="14.00">Temporary/permanent blindness</text>
</g>
<!-- 45161&#45;&gt;44144 -->
<g id="edge65" class="edge">
<title>45161&#45;&gt;44144</title>
<path fill="none" stroke="black" d="M5206.73,-316.25C5221.16,-316.56 5236.05,-316.87 5250.91,-317.18"/>
<polygon fill="black" stroke="black" points="5250.68,-320.68 5260.75,-317.39 5250.82,-313.68 5250.68,-320.68"/>
<text text-anchor="middle" x="5234.49" y="-320.12" font-family="Times,serif" font-size="14.00">Yes</text>
</g>
<!-- 45161&#45;&gt;44730 -->
<g id="edge66" class="edge">
<title>45161&#45;&gt;44730</title>
<path fill="none" stroke="black" d="M5159.34,-215.8C5188.19,-186.37 5223.57,-157.77 5262.61,-142.13 5429.88,-75.15 5636.54,-133.13 5772.4,-188.6"/>
<polygon fill="black" stroke="black" points="5770.89,-191.77 5781.47,-192.35 5773.57,-185.3 5770.89,-191.77"/>
<text text-anchor="middle" x="5415.3" y="-145.33" font-family="Times,serif" font-size="14.00">No</text>
</g>
<!-- 44601 -->
<g id="node17" class="node">
<title>44601</title>
<ellipse fill="none" stroke="black" cx="8379.62" cy="-394.63" rx="159.85" ry="159.85"/>
<text text-anchor="middle" x="8379.62" y="-389.58" font-family="Times,serif" font-size="14.00">Was damage caused to prison property?</text>
</g>
<!-- 44541&#45;&gt;44601 -->
<g id="edge22" class="edge">
<title>44541&#45;&gt;44601</title>
<path fill="none" stroke="black" d="M8163.78,-394.63C8178.71,-394.63 8193.66,-394.63 8208.31,-394.63"/>
<polygon fill="black" stroke="black" points="8207.95,-398.13 8217.95,-394.63 8207.95,-391.13 8207.95,-398.13"/>
<text text-anchor="middle" x="8191.64" y="-397.83" font-family="Times,serif" font-size="14.00">Yes</text>
</g>
<!-- 44541&#45;&gt;44601 -->
<g id="edge23" class="edge">
<title>44541&#45;&gt;44601</title>
<path fill="none" stroke="black" d="M8162.74,-373.14C8175.94,-373.1 8189.04,-373.4 8201.77,-374.13 8204.28,-374.28 8206.8,-374.43 8209.34,-374.6"/>
<polygon fill="black" stroke="black" points="8208.84,-378.07 8219.06,-375.29 8209.34,-371.09 8208.84,-378.07"/>
<text text-anchor="middle" x="8191.64" y="-377.33" font-family="Times,serif" font-size="14.00">No</text>
</g>
<!-- 44601&#45;&gt;END_NODE -->
<g id="edge29" class="edge">
<title>44601&#45;&gt;END_NODE</title>
<path fill="none" stroke="black" d="M8534.33,-436.41C8581.77,-446.1 8634.43,-453.63 8683.44,-453.63 8683.44,-453.63 8683.44,-453.63 9245.51,-453.63 9356.6,-453.63 9484.07,-419.42 9548.77,-399.53"/>
<polygon fill="black" stroke="black" points="9549.78,-402.88 9558.29,-396.56 9547.7,-396.2 9549.78,-402.88"/>
<text text-anchor="middle" x="8958.38" y="-456.83" font-family="Times,serif" font-size="14.00">No</text>
</g>
<!-- 45159 -->
<g id="node20" class="node">
<title>45159</title>
<ellipse fill="none" stroke="black" cx="8684.44" cy="-335.63" rx="88.71" ry="88.71"/>
<text text-anchor="middle" x="8684.44" y="-330.58" font-family="Times,serif" font-size="14.00">What was damaged?</text>
</g>
<!-- 44601&#45;&gt;45159 -->
<g id="edge28" class="edge">
<title>44601&#45;&gt;45159</title>
<path fill="none" stroke="black" d="M8536.91,-364.18C8553.55,-360.94 8570.12,-357.71 8585.79,-354.66"/>
<polygon fill="black" stroke="black" points="8586.41,-358.1 8595.56,-352.76 8585.07,-351.23 8586.41,-358.1"/>
<text text-anchor="middle" x="8567.6" y="-363.05" font-family="Times,serif" font-size="14.00">Yes</text>
</g>
<!-- 44591 -->
<g id="node18" class="node">
<title>44591</title>
<ellipse fill="none" stroke="black" cx="3000.24" cy="-519.63" rx="171.63" ry="171.63"/>
<text text-anchor="middle" x="3000.24" y="-514.58" font-family="Times,serif" font-size="14.00">Is there any media interest in this incident?</text>
</g>
<!-- 44995 -->
<g id="node19" class="node">
<title>44995</title>
<ellipse fill="none" stroke="black" cx="3427.89" cy="-519.63" rx="199.78" ry="199.78"/>
<text text-anchor="middle" x="3427.89" y="-514.58" font-family="Times,serif" font-size="14.00">Has the prison service press office been informed?</text>
</g>
<!-- 44591&#45;&gt;44995 -->
<g id="edge26" class="edge">
<title>44591&#45;&gt;44995</title>
<path fill="none" stroke="black" d="M3172.22,-519.63C3186.77,-519.63 3201.59,-519.63 3216.4,-519.63"/>
<polygon fill="black" stroke="black" points="3216.21,-523.13 3226.21,-519.63 3216.21,-516.13 3216.21,-523.13"/>
<text text-anchor="middle" x="3199.99" y="-522.83" font-family="Times,serif" font-size="14.00">Yes</text>
</g>
<!-- 44591&#45;&gt;44995 -->
<g id="edge27" class="edge">
<title>44591&#45;&gt;44995</title>
<path fill="none" stroke="black" d="M3171.08,-500.31C3177.42,-499.86 3183.7,-499.47 3189.86,-499.13 3198.88,-498.65 3208.08,-498.39 3217.38,-498.33"/>
<polygon fill="black" stroke="black" points="3217.24,-501.83 3227.24,-498.35 3217.25,-494.83 3217.24,-501.83"/>
<text text-anchor="middle" x="3199.99" y="-502.33" font-family="Times,serif" font-size="14.00">No</text>
</g>
<!-- 44857 -->
<g id="node21" class="node">
<title>44857</title>
<ellipse fill="none" stroke="black" cx="3873.45" cy="-519.63" rx="189.54" ry="189.54"/>
<text text-anchor="middle" x="3873.45" y="-514.58" font-family="Times,serif" font-size="14.00">Were any injuries received during this incident?</text>
</g>
<!-- 44995&#45;&gt;44857 -->
<g id="edge50" class="edge">
<title>44995&#45;&gt;44857</title>
<path fill="none" stroke="black" d="M3627.97,-519.63C3642.74,-519.63 3657.65,-519.63 3672.43,-519.63"/>
<polygon fill="black" stroke="black" points="3672.19,-523.13 3682.19,-519.63 3672.19,-516.13 3672.19,-523.13"/>
<text text-anchor="middle" x="3655.79" y="-522.83" font-family="Times,serif" font-size="14.00">Yes</text>
</g>
<!-- 44995&#45;&gt;44857 -->
<g id="edge51" class="edge">
<title>44995&#45;&gt;44857</title>
<path fill="none" stroke="black" d="M3627.01,-498.49C3640.17,-498.32 3653.23,-498.51 3665.91,-499.13 3668.3,-499.25 3670.71,-499.38 3673.13,-499.51"/>
<polygon fill="black" stroke="black" points="3672.82,-503 3683.01,-500.1 3673.24,-496.01 3672.82,-503"/>
<text text-anchor="middle" x="3655.79" y="-502.33" font-family="Times,serif" font-size="14.00">No</text>
</g>
<!-- 45125 -->
<g id="node24" class="node">
<title>45125</title>
<ellipse fill="none" stroke="black" cx="8958.38" cy="-324.63" rx="89.23" ry="89.23"/>
<text text-anchor="middle" x="8958.38" y="-319.58" font-family="Times,serif" font-size="14.00">Describe the damage</text>
</g>
<!-- 45159&#45;&gt;45125 -->
<g id="edge60" class="edge">
<title>45159&#45;&gt;45125</title>
<path fill="none" stroke="black" d="M8763.56,-376.84C8791.14,-386.57 8822.43,-392.19 8851.16,-384.63 8858.31,-382.75 8865.49,-380.27 8872.56,-377.38"/>
<polygon fill="black" stroke="black" points="8873.68,-380.71 8881.43,-373.49 8870.87,-374.3 8873.68,-380.71"/>
<text text-anchor="middle" x="8821.16" y="-391.33" font-family="Times,serif" font-size="14.00">Furniture</text>
</g>
<!-- 45159&#45;&gt;45125 -->
<g id="edge61" class="edge">
<title>45159&#45;&gt;45125</title>
<path fill="none" stroke="black" d="M8772.83,-345.19C8798.13,-346.66 8825.77,-347 8851.16,-344.63 8853.84,-344.38 8856.55,-344.1 8859.28,-343.78"/>
<polygon fill="black" stroke="black" points="8859.64,-347.27 8869.11,-342.52 8858.75,-340.32 8859.64,-347.27"/>
<text text-anchor="middle" x="8821.16" y="-349.55" font-family="Times,serif" font-size="14.00">Fittings</text>
</g>
<!-- 45159&#45;&gt;45125 -->
<g id="edge62" class="edge">
<title>45159&#45;&gt;45125</title>
<path fill="none" stroke="black" d="M8772.78,-325.39C8778.99,-324.89 8785.16,-324.46 8791.16,-324.13 8812.63,-322.97 8835.68,-322.53 8857.58,-322.48"/>
<polygon fill="black" stroke="black" points="8857.39,-325.98 8867.4,-322.49 8857.4,-318.98 8857.39,-325.98"/>
<text text-anchor="middle" x="8821.16" y="-327.33" font-family="Times,serif" font-size="14.00">Machinery</text>
</g>
<!-- 45159&#45;&gt;45125 -->
<g id="edge63" class="edge">
<title>45159&#45;&gt;45125</title>
<path fill="none" stroke="black" d="M8768.55,-306.7C8776.12,-304.86 8783.74,-303.28 8791.16,-302.13 8813.44,-298.69 8837.44,-299.38 8860.1,-302.03"/>
<polygon fill="black" stroke="black" points="8859.57,-305.49 8869.94,-303.33 8860.49,-298.55 8859.57,-305.49"/>
<text text-anchor="middle" x="8821.16" y="-305.33" font-family="Times,serif" font-size="14.00">Equipment</text>
</g>
<!-- 45159&#45;&gt;45125 -->
<g id="edge64" class="edge">
<title>45159&#45;&gt;45125</title>
<path fill="none" stroke="black" d="M8760.73,-289.8C8770.68,-285.43 8780.96,-281.69 8791.16,-279.13 8815.81,-272.96 8842.4,-275.89 8866.93,-282.56"/>
<polygon fill="black" stroke="black" points="8865.63,-285.83 8876.22,-285.32 8867.63,-279.12 8865.63,-285.83"/>
<text text-anchor="middle" x="8821.16" y="-282.33" font-family="Times,serif" font-size="14.00">Other</text>
</g>
<!-- 44857&#45;&gt;44588 -->
<g id="edge49" class="edge">
<title>44857&#45;&gt;44588</title>
<path fill="none" stroke="black" d="M4058.96,-559.92C4118.48,-569.81 4184.94,-577.63 4246.37,-577.63 4246.37,-577.63 4246.37,-577.63 6929.01,-577.63 6997.85,-577.63 7016.45,-577.21 7082.74,-558.63 7131.38,-545 7181.81,-525.84 7229.08,-505.39"/>
<polygon fill="black" stroke="black" points="7230.28,-508.69 7238.05,-501.48 7227.48,-502.27 7230.28,-508.69"/>
<text text-anchor="middle" x="5415.3" y="-580.83" font-family="Times,serif" font-size="14.00">No</text>
</g>
<!-- 44857&#45;&gt;44456 -->
<g id="edge48" class="edge">
<title>44857&#45;&gt;44456</title>
<path fill="none" stroke="black" d="M4045.71,-439.51C4070.9,-427.72 4096.45,-415.77 4120.5,-404.52"/>
<polygon fill="black" stroke="black" points="4121.77,-407.79 4129.34,-400.38 4118.8,-401.45 4121.77,-407.79"/>
<text text-anchor="middle" x="4091.12" y="-425.42" font-family="Times,serif" font-size="14.00">Yes</text>
</g>
<!-- 45106 -->
<g id="node22" class="node">
<title>45106</title>
<ellipse fill="none" stroke="black" cx="9244.51" cy="-317.63" rx="107.65" ry="107.65"/>
<text text-anchor="middle" x="9244.51" y="-312.58" font-family="Times,serif" font-size="14.00">Estimated cost of damage</text>
</g>
<!-- 45106&#45;&gt;END_NODE -->
<g id="edge52" class="edge">
<title>45106&#45;&gt;END_NODE</title>
<path fill="none" stroke="black" d="M9350.65,-338.31C9416.68,-351.3 9498.38,-367.37 9547.57,-377.04"/>
<polygon fill="black" stroke="black" points="9546.78,-380.45 9557.27,-378.95 9548.13,-373.58 9546.78,-380.45"/>
<text text-anchor="middle" x="9455.28" y="-377.43" font-family="Times,serif" font-size="14.00">Enter amount in pound sterling</text>
</g>
<!-- 45139&#45;&gt;44591 -->
<g id="edge58" class="edge">
<title>45139&#45;&gt;44591</title>
<path fill="none" stroke="black" d="M2772.64,-519.63C2787.51,-519.63 2802.46,-519.63 2817.2,-519.63"/>
<polygon fill="black" stroke="black" points="2816.91,-523.13 2826.91,-519.63 2816.91,-516.13 2816.91,-523.13"/>
<text text-anchor="middle" x="2800.49" y="-522.83" font-family="Times,serif" font-size="14.00">Yes</text>
</g>
<!-- 45139&#45;&gt;44591 -->
<g id="edge59" class="edge">
<title>45139&#45;&gt;44591</title>
<path fill="none" stroke="black" d="M2771.54,-498.33C2784.76,-498.21 2797.87,-498.44 2810.61,-499.13 2813.12,-499.27 2815.64,-499.42 2818.18,-499.57"/>
<polygon fill="black" stroke="black" points="2817.67,-503.04 2827.88,-500.21 2818.13,-496.06 2817.67,-503.04"/>
<text text-anchor="middle" x="2800.49" y="-502.33" font-family="Times,serif" font-size="14.00">No</text>
</g>
<!-- 45125&#45;&gt;45106 -->
<g id="edge55" class="edge">
<title>45125&#45;&gt;45106</title>
<path fill="none" stroke="black" d="M9047.12,-336.22C9053.37,-336.78 9059.58,-337.27 9065.61,-337.63 9089.23,-339.07 9095.26,-339.51 9118.86,-337.63 9121.39,-337.43 9123.94,-337.21 9126.52,-336.96"/>
<polygon fill="black" stroke="black" points="9126.81,-340.45 9136.39,-335.93 9126.08,-333.49 9126.81,-340.45"/>
<text text-anchor="middle" x="9092.23" y="-342.08" font-family="Times,serif" font-size="14.00">Minor</text>
</g>
<!-- 45125&#45;&gt;45106 -->
<g id="edge56" class="edge">
<title>45125&#45;&gt;45106</title>
<path fill="none" stroke="black" d="M9047.75,-317.92C9053.79,-317.61 9059.79,-317.34 9065.61,-317.13 9084.92,-316.45 9105.42,-316.13 9125.37,-316.04"/>
<polygon fill="black" stroke="black" points="9125.21,-319.54 9135.2,-316.02 9125.19,-312.54 9125.21,-319.54"/>
<text text-anchor="middle" x="9092.23" y="-320.33" font-family="Times,serif" font-size="14.00">Serious</text>
</g>
<!-- 45125&#45;&gt;45106 -->
<g id="edge57" class="edge">
<title>45125&#45;&gt;45106</title>
<path fill="none" stroke="black" d="M9044.19,-298.9C9051.38,-297.39 9058.59,-296.09 9065.61,-295.13 9085.65,-292.4 9106.97,-292.51 9127.64,-294.18"/>
<polygon fill="black" stroke="black" points="9127.25,-297.66 9137.54,-295.12 9127.91,-290.69 9127.25,-297.66"/>
<text text-anchor="middle" x="9092.23" y="-298.33" font-family="Times,serif" font-size="14.00">Extensive</text>
</g>
</g>
</svg>
