<?xml version="1.0" encoding="UTF-8" standalone="no"?>
<!DOCTYPE svg PUBLIC "-//W3C//DTD SVG 1.1//EN"
 "http://www.w3.org/Graphics/SVG/1.1/DTD/svg11.dtd">
<!-- Generated by graphviz version 12.2.1 (20241206.2353)
 -->
<!-- Title: OLD_ASSAULT1 Pages: 1 -->
<svg width="1841pt" height="13076pt"
 viewBox="0.00 0.00 1841.21 13075.81" xmlns="http://www.w3.org/2000/svg" xmlns:xlink="http://www.w3.org/1999/xlink">
<g id="graph0" class="graph" transform="scale(1 1) rotate(0) translate(4 13071.81)">
<title>OLD_ASSAULT1</title>
<polygon fill="white" stroke="none" points="-4,4 -4,-13071.81 1837.21,-13071.81 1837.21,4 -4,4"/>
<!-- START_NODE -->
<g id="node1" class="node">
<title>START_NODE</title>
</g>
<!-- 61179 -->
<g id="node2" class="node">
<title>61179</title>
<ellipse fill="#dddddd" stroke="#dddddd" cx="377" cy="-12804.06" rx="263.75" ry="263.75"/>
<text text-anchor="start" x="191.75" y="-12800.01" font-family="Times,serif" font-size="14.00"> </text>
<text text-anchor="start" x="195.5" y="-12800.01" font-family="Times,serif" font-size="14.00" fill="royalblue">61179 </text>
<text text-anchor="start" x="233" y="-12800.01" font-family="Times,serif" font-size="14.00"> What was the main management outcome of this incident? </text>
</g>
<!-- START_NODE&#45;&gt;61179 -->
<g id="edge1" class="edge">
<title>START_NODE&#45;&gt;61179</title>
<path fill="none" stroke="black" d="M53.87,-12804.06C66.38,-12804.06 82.76,-12804.06 101.51,-12804.06"/>
<polygon fill="black" stroke="black" points="101.29,-12807.56 111.29,-12804.06 101.29,-12800.56 101.29,-12807.56"/>
<text text-anchor="middle" x="83.62" y="-12807.26" font-family="Times,serif" font-size="14.00">start</text>
</g>
<!-- 61180 -->
<g id="node4" class="node">
<title>61180</title>
<ellipse fill="#dddddd" stroke="#dddddd" cx="1296.5" cy="-12804.06" rx="236.11" ry="236.11"/>
<text text-anchor="start" x="1131.5" y="-12800.01" font-family="Times,serif" font-size="14.00"> </text>
<text text-anchor="start" x="1135.25" y="-12800.01" font-family="Times,serif" font-size="14.00" fill="royalblue">61180 </text>
<text text-anchor="start" x="1172.75" y="-12800.01" font-family="Times,serif" font-size="14.00"> Is any member of staff facing disciplinary charges? </text>
</g>
<!-- 61179&#45;&gt;61180 -->
<g id="edge2" class="edge">
<title>61179&#45;&gt;61180</title>
<path fill="none" stroke="#dddddd" d="M638.66,-12840.55C645.42,-12841.11 652.13,-12841.61 658.75,-12842.06 788,-12850.77 932.08,-12843.58 1050.45,-12833.21"/>
<polygon fill="#dddddd" stroke="#dddddd" points="1050.67,-12836.71 1060.32,-12832.33 1050.05,-12829.73 1050.67,-12836.71"/>
<text text-anchor="start" x="713.5" y="-12850.15" font-family="Times,serif" font-size="14.00"> </text>
<text text-anchor="start" x="717.25" y="-12850.15" font-family="Times,serif" font-size="14.00" fill="royalblue">212684 </text>
<text text-anchor="start" x="761.5" y="-12850.15" font-family="Times,serif" font-size="14.00"> No further action </text>
</g>
<!-- 61179&#45;&gt;61180 -->
<g id="edge3" class="edge">
<title>61179&#45;&gt;61180</title>
<path fill="none" stroke="#dddddd" d="M641.23,-12804.06C769.47,-12804.06 922.78,-12804.06 1048.75,-12804.06"/>
<polygon fill="#dddddd" stroke="#dddddd" points="1048.57,-12807.56 1058.57,-12804.06 1048.57,-12800.56 1048.57,-12807.56"/>
<text text-anchor="start" x="721" y="-12808.26" font-family="Times,serif" font-size="14.00"> </text>
<text text-anchor="start" x="724.75" y="-12808.26" font-family="Times,serif" font-size="14.00" fill="royalblue">212685 </text>
<text text-anchor="start" x="769" y="-12808.26" font-family="Times,serif" font-size="14.00"> IEP regression </text>
</g>
<!-- 61179&#45;&gt;61180 -->
<g id="edge4" class="edge">
<title>61179&#45;&gt;61180</title>
<path fill="none" stroke="#dddddd" d="M640.24,-12784.31C646.47,-12784.03 652.65,-12783.78 658.75,-12783.56 787.65,-12778.86 931.24,-12782.7 1049.39,-12788.27"/>
<polygon fill="#dddddd" stroke="#dddddd" points="1049.07,-12791.75 1059.23,-12788.74 1049.41,-12784.76 1049.07,-12791.75"/>
<text text-anchor="start" x="658.75" y="-12787.76" font-family="Times,serif" font-size="14.00"> </text>
<text text-anchor="start" x="662.5" y="-12787.76" font-family="Times,serif" font-size="14.00" fill="royalblue">212686 </text>
<text text-anchor="start" x="706.75" y="-12787.76" font-family="Times,serif" font-size="14.00"> Placed on report/adjudication referral </text>
</g>
<!-- 61179&#45;&gt;61180 -->
<g id="edge5" class="edge">
<title>61179&#45;&gt;61180</title>
<path fill="none" stroke="#dddddd" d="M637.87,-12762.36C644.9,-12761.69 651.87,-12761.09 658.75,-12760.56 788.12,-12750.6 932.36,-12758.85 1050.8,-12770.74"/>
<polygon fill="#dddddd" stroke="#dddddd" points="1050.38,-12774.21 1060.68,-12771.75 1051.09,-12767.25 1050.38,-12774.21"/>
<text text-anchor="start" x="721.75" y="-12764.76" font-family="Times,serif" font-size="14.00"> </text>
<text text-anchor="start" x="725.5" y="-12764.76" font-family="Times,serif" font-size="14.00" fill="royalblue">212687 </text>
<text text-anchor="start" x="769.75" y="-12764.76" font-family="Times,serif" font-size="14.00"> Police referral </text>
</g>
<!-- END_NODE -->
<g id="node3" class="node">
<title>END_NODE</title>
<ellipse fill="none" stroke="black" cx="1799.35" cy="-6789.06" rx="29.86" ry="29.86"/>
<ellipse fill="none" stroke="black" cx="1799.35" cy="-6789.06" rx="33.86" ry="33.86"/>
<text text-anchor="middle" x="1799.35" y="-6784.01" font-family="Times,serif" font-size="14.00">END</text>
</g>
<!-- 61180&#45;&gt;END_NODE -->
<g id="edge6" class="edge">
<title>61180&#45;&gt;END_NODE</title>
<path fill="none" stroke="#dddddd" d="M1508.66,-12699.43C1564.71,-12662.26 1619.99,-12615.38 1657.49,-12559.06 1768.13,-12392.92 1726.44,-12317.55 1747.49,-12119.06 1806.35,-11564.09 1799.44,-7322.28 1798.45,-6834.69"/>
<polygon fill="#dddddd" stroke="#dddddd" points="1801.95,-6834.75 1798.43,-6824.75 1794.95,-6834.76 1801.95,-6834.75"/>
<text text-anchor="start" x="1675.49" y="-12534.29" font-family="Times,serif" font-size="14.00"> </text>
<text text-anchor="start" x="1679.24" y="-12534.29" font-family="Times,serif" font-size="14.00" fill="royalblue">213007 </text>
<text text-anchor="start" x="1723.49" y="-12534.29" font-family="Times,serif" font-size="14.00"> No </text>
</g>
<!-- 61181 -->
<g id="node5" class="node">
<title>61181</title>
<ellipse fill="#dddddd" stroke="#dddddd" cx="1296.5" cy="-12345.06" rx="204.89" ry="204.89"/>
<text text-anchor="start" x="1154.37" y="-12341.01" font-family="Times,serif" font-size="14.00"> </text>
<text text-anchor="start" x="1158.12" y="-12341.01" font-family="Times,serif" font-size="14.00" fill="royalblue">61181 </text>
<text text-anchor="start" x="1195.62" y="-12341.01" font-family="Times,serif" font-size="14.00"> Is there any media interest in this incident? </text>
</g>
<!-- 61181&#45;&gt;END_NODE -->
<g id="edge7" class="edge">
<title>61181&#45;&gt;END_NODE</title>
<path fill="none" stroke="#dddddd" d="M1487.56,-12271.06C1550.76,-12237.43 1615.63,-12191.39 1657.49,-12131.06 1785.72,-11946.27 1726.24,-11856.97 1747.49,-11633.06 1795.28,-11129.68 1798.16,-7297.16 1798.34,-6834.69"/>
<polygon fill="#dddddd" stroke="#dddddd" points="1801.84,-6834.7 1798.34,-6824.7 1794.84,-6834.7 1801.84,-6834.7"/>
<text text-anchor="start" x="1678.87" y="-12102.98" font-family="Times,serif" font-size="14.00"> </text>
<text text-anchor="start" x="1682.62" y="-12102.98" font-family="Times,serif" font-size="14.00" fill="royalblue">213011 </text>
<text text-anchor="start" x="1726.87" y="-12102.98" font-family="Times,serif" font-size="14.00"> N </text>
</g>
<!-- 61182 -->
<g id="node6" class="node">
<title>61182</title>
<ellipse fill="#dddddd" stroke="#dddddd" cx="1296.5" cy="-11889.06" rx="233.04" ry="233.04"/>
<text text-anchor="start" x="1133.75" y="-11885.01" font-family="Times,serif" font-size="14.00"> </text>
<text text-anchor="start" x="1137.5" y="-11885.01" font-family="Times,serif" font-size="14.00" fill="royalblue">61182 </text>
<text text-anchor="start" x="1175" y="-11885.01" font-family="Times,serif" font-size="14.00"> Has the prison service press office been informed? </text>
</g>
<!-- 61182&#45;&gt;END_NODE -->
<g id="edge8" class="edge">
<title>61182&#45;&gt;END_NODE</title>
<path fill="none" stroke="#dddddd" d="M1505.94,-11786.84C1562.6,-11749.93 1618.9,-11703.23 1657.49,-11647.06 1758.97,-11499.38 1726.35,-11432 1747.49,-11254.06 1802.34,-10792.41 1799.05,-7275.65 1798.42,-6834.47"/>
<polygon fill="#dddddd" stroke="#dddddd" points="1801.92,-6834.69 1798.41,-6824.69 1794.92,-6834.7 1801.92,-6834.69"/>
<text text-anchor="start" x="1678.87" y="-11617.26" font-family="Times,serif" font-size="14.00"> </text>
<text text-anchor="start" x="1682.62" y="-11617.26" font-family="Times,serif" font-size="14.00" fill="royalblue">213012 </text>
<text text-anchor="start" x="1726.87" y="-11617.26" font-family="Times,serif" font-size="14.00"> N </text>
</g>
<!-- 61183 -->
<g id="node7" class="node">
<title>61183</title>
<ellipse fill="#dddddd" stroke="#dddddd" cx="1296.5" cy="-11453.06" rx="184.93" ry="184.93"/>
<text text-anchor="start" x="1169" y="-11449.01" font-family="Times,serif" font-size="14.00"> </text>
<text text-anchor="start" x="1172.75" y="-11449.01" font-family="Times,serif" font-size="14.00" fill="royalblue">61183 </text>
<text text-anchor="start" x="1210.25" y="-11449.01" font-family="Times,serif" font-size="14.00"> Is the location of the incident known? </text>
</g>
<!-- 61183&#45;&gt;END_NODE -->
<g id="edge9" class="edge">
<title>61183&#45;&gt;END_NODE</title>
<path fill="none" stroke="black" d="M1472.36,-11394.94C1539.46,-11364.38 1611,-11320.25 1657.49,-11259.06 1766.95,-11115 1726.25,-11041.73 1747.49,-10862.06 1797.13,-10442.31 1798.41,-7254.27 1798.36,-6834.6"/>
<polygon fill="black" stroke="black" points="1801.86,-6834.78 1798.36,-6824.78 1794.86,-6834.78 1801.86,-6834.78"/>
<text text-anchor="start" x="1678.87" y="-11238.05" font-family="Times,serif" font-size="14.00"> </text>
<text text-anchor="start" x="1682.62" y="-11238.05" font-family="Times,serif" font-size="14.00" fill="royalblue">213008 </text>
<text text-anchor="start" x="1726.87" y="-11238.05" font-family="Times,serif" font-size="14.00"> N </text>
</g>
<!-- 61184 -->
<g id="node8" class="node">
<title>61184</title>
<ellipse fill="#dddddd" stroke="#dddddd" cx="1296.5" cy="-11063.06" rx="186.98" ry="186.98"/>
<text text-anchor="start" x="1167.5" y="-11059.01" font-family="Times,serif" font-size="14.00"> </text>
<text text-anchor="start" x="1171.25" y="-11059.01" font-family="Times,serif" font-size="14.00" fill="royalblue">61184 </text>
<text text-anchor="start" x="1208.75" y="-11059.01" font-family="Times,serif" font-size="14.00"> What was the location of the incident? </text>
</g>
<!-- 61184&#45;&gt;END_NODE -->
<g id="edge10" class="edge">
<title>61184&#45;&gt;END_NODE</title>
<path fill="none" stroke="#dddddd" d="M1473.12,-11001.04C1539.11,-10969.94 1609.65,-10926.06 1657.49,-10867.06 1745.44,-10758.61 1726.35,-10704.08 1747.49,-10566.06 1777.15,-10372.44 1795.75,-7249.55 1798.1,-6834.5"/>
<polygon fill="#dddddd" stroke="#dddddd" points="1801.6,-6834.82 1798.15,-6824.8 1794.6,-6834.78 1801.6,-6834.82"/>
<text text-anchor="start" x="1678.87" y="-10846.2" font-family="Times,serif" font-size="14.00"> </text>
<text text-anchor="start" x="1682.62" y="-10846.2" font-family="Times,serif" font-size="14.00" fill="royalblue">213009 </text>
<text text-anchor="start" x="1726.87" y="-10846.2" font-family="Times,serif" font-size="14.00"> N </text>
</g>
<!-- 61185 -->
<g id="node9" class="node">
<title>61185</title>
<ellipse fill="#dddddd" stroke="#dddddd" cx="1296.5" cy="-10718.06" rx="140.41" ry="140.41"/>
<text text-anchor="start" x="1201.62" y="-10714.01" font-family="Times,serif" font-size="14.00"> </text>
<text text-anchor="start" x="1205.37" y="-10714.01" font-family="Times,serif" font-size="14.00" fill="royalblue">61185 </text>
<text text-anchor="start" x="1242.87" y="-10714.01" font-family="Times,serif" font-size="14.00"> Was this a sexual assault? </text>
</g>
<!-- 61185&#45;&gt;END_NODE -->
<g id="edge11" class="edge">
<title>61185&#45;&gt;END_NODE</title>
<path fill="none" stroke="#dddddd" d="M1434.99,-10693.15C1511.06,-10672.42 1601.3,-10635.15 1657.49,-10569.06 1770.75,-10435.84 1726.06,-10359.6 1747.49,-10186.06 1790.41,-9838.61 1797.46,-7213.86 1798.26,-6834.66"/>
<polygon fill="#dddddd" stroke="#dddddd" points="1801.76,-6834.87 1798.28,-6824.87 1794.76,-6834.86 1801.76,-6834.87"/>
<text text-anchor="start" x="1678.87" y="-10549.86" font-family="Times,serif" font-size="14.00"> </text>
<text text-anchor="start" x="1682.62" y="-10549.86" font-family="Times,serif" font-size="14.00" fill="royalblue">213010 </text>
<text text-anchor="start" x="1726.87" y="-10549.86" font-family="Times,serif" font-size="14.00"> N </text>
</g>
<!-- 61186 -->
<g id="node10" class="node">
<title>61186</title>
<ellipse fill="#dddddd" stroke="#dddddd" cx="1296.5" cy="-10380.06" rx="179.82" ry="179.82"/>
<text text-anchor="start" x="1172.75" y="-10376.01" font-family="Times,serif" font-size="14.00"> </text>
<text text-anchor="start" x="1176.5" y="-10376.01" font-family="Times,serif" font-size="14.00" fill="royalblue">61186 </text>
<text text-anchor="start" x="1214" y="-10376.01" font-family="Times,serif" font-size="14.00"> Did the assault occur during a fight? </text>
</g>
<!-- 61186&#45;&gt;END_NODE -->
<g id="edge12" class="edge">
<title>61186&#45;&gt;END_NODE</title>
<path fill="none" stroke="#dddddd" d="M1467.96,-10324.9C1535.58,-10295.24 1608.7,-10252.12 1657.49,-10192.06 1750.38,-10077.72 1726.1,-10018.81 1747.49,-9873.06 1793.46,-9559.89 1797.9,-7194.48 1798.31,-6834.84"/>
<polygon fill="#dddddd" stroke="#dddddd" points="1801.81,-6834.88 1798.32,-6824.88 1794.81,-6834.88 1801.81,-6834.88"/>
<text text-anchor="start" x="1678.87" y="-10169.81" font-family="Times,serif" font-size="14.00"> </text>
<text text-anchor="start" x="1682.62" y="-10169.81" font-family="Times,serif" font-size="14.00" fill="royalblue">213013 </text>
<text text-anchor="start" x="1726.87" y="-10169.81" font-family="Times,serif" font-size="14.00"> N </text>
</g>
<!-- 61187 -->
<g id="node11" class="node">
<title>61187</title>
<ellipse fill="#dddddd" stroke="#dddddd" cx="1296.5" cy="-10034.06" rx="148.59" ry="148.59"/>
<text text-anchor="start" x="1195.62" y="-10030.01" font-family="Times,serif" font-size="14.00"> </text>
<text text-anchor="start" x="1199.37" y="-10030.01" font-family="Times,serif" font-size="14.00" fill="royalblue">61187 </text>
<text text-anchor="start" x="1236.87" y="-10030.01" font-family="Times,serif" font-size="14.00"> What type of assault was it? </text>
</g>
<!-- 61187&#45;&gt;END_NODE -->
<g id="edge13" class="edge">
<title>61187&#45;&gt;END_NODE</title>
<path fill="none" stroke="#dddddd" d="M1442.06,-10002.03C1515.85,-9978.79 1601.59,-9940.03 1657.49,-9877.06 1749.62,-9773.27 1726.03,-9715.17 1747.49,-9578.06 1791.59,-9296.42 1797.59,-7173.49 1798.27,-6834.61"/>
<polygon fill="#dddddd" stroke="#dddddd" points="1801.77,-6834.83 1798.29,-6824.83 1794.77,-6834.82 1801.77,-6834.83"/>
<text text-anchor="start" x="1678.87" y="-9857.16" font-family="Times,serif" font-size="14.00"> </text>
<text text-anchor="start" x="1682.62" y="-9857.16" font-family="Times,serif" font-size="14.00" fill="royalblue">213014 </text>
<text text-anchor="start" x="1726.87" y="-9857.16" font-family="Times,serif" font-size="14.00"> N </text>
</g>
<!-- 61188 -->
<g id="node12" class="node">
<title>61188</title>
<ellipse fill="#dddddd" stroke="#dddddd" cx="1296.5" cy="-9729.06" rx="138.87" ry="138.87"/>
<text text-anchor="start" x="1202.75" y="-9725.01" font-family="Times,serif" font-size="14.00"> </text>
<text text-anchor="start" x="1206.5" y="-9725.01" font-family="Times,serif" font-size="14.00" fill="royalblue">61188 </text>
<text text-anchor="start" x="1244" y="-9725.01" font-family="Times,serif" font-size="14.00"> Were any staff assaulted? </text>
</g>
<!-- 61188&#45;&gt;END_NODE -->
<g id="edge14" class="edge">
<title>61188&#45;&gt;END_NODE</title>
<path fill="none" stroke="#dddddd" d="M1433.01,-9703.34C1508.66,-9682.4 1599.13,-9645.36 1657.49,-9581.06 1750.48,-9478.61 1725.88,-9419.71 1747.49,-9283.06 1787.11,-9032.56 1796.81,-7152.47 1798.17,-6834.63"/>
<polygon fill="#dddddd" stroke="#dddddd" points="1801.67,-6834.68 1798.21,-6824.67 1794.67,-6834.65 1801.67,-6834.68"/>
<text text-anchor="start" x="1678.87" y="-9561.45" font-family="Times,serif" font-size="14.00"> </text>
<text text-anchor="start" x="1682.62" y="-9561.45" font-family="Times,serif" font-size="14.00" fill="royalblue">213015 </text>
<text text-anchor="start" x="1726.87" y="-9561.45" font-family="Times,serif" font-size="14.00"> N </text>
</g>
<!-- 61189 -->
<g id="node13" class="node">
<title>61189</title>
<ellipse fill="#dddddd" stroke="#dddddd" cx="1296.5" cy="-9434.06" rx="138.36" ry="138.36"/>
<text text-anchor="start" x="1203.12" y="-9430.01" font-family="Times,serif" font-size="14.00"> </text>
<text text-anchor="start" x="1206.87" y="-9430.01" font-family="Times,serif" font-size="14.00" fill="royalblue">61189 </text>
<text text-anchor="start" x="1244.37" y="-9430.01" font-family="Times,serif" font-size="14.00"> Describe the type of staff </text>
</g>
<!-- 61189&#45;&gt;END_NODE -->
<g id="edge15" class="edge">
<title>61189&#45;&gt;END_NODE</title>
<path fill="none" stroke="#dddddd" d="M1433.35,-9410.57C1509.83,-9390.42 1601.04,-9353.59 1657.49,-9287.06 1773.98,-9149.76 1725.21,-9070.73 1747.49,-8892.06 1799.64,-8474.04 1799.1,-7101.62 1798.49,-6834.39"/>
<polygon fill="#dddddd" stroke="#dddddd" points="1801.99,-6834.71 1798.46,-6824.72 1794.99,-6834.73 1801.99,-6834.71"/>
<text text-anchor="start" x="1678.87" y="-9267.14" font-family="Times,serif" font-size="14.00"> </text>
<text text-anchor="start" x="1682.62" y="-9267.14" font-family="Times,serif" font-size="14.00" fill="royalblue">213016 </text>
<text text-anchor="start" x="1726.87" y="-9267.14" font-family="Times,serif" font-size="14.00"> N </text>
</g>
<!-- 61190 -->
<g id="node14" class="node">
<title>61190</title>
<ellipse fill="#dddddd" stroke="#dddddd" cx="1296.5" cy="-9106.06" rx="171.63" ry="171.63"/>
<text text-anchor="start" x="1178.75" y="-9102.01" font-family="Times,serif" font-size="14.00"> </text>
<text text-anchor="start" x="1182.5" y="-9102.01" font-family="Times,serif" font-size="14.00" fill="royalblue">61190 </text>
<text text-anchor="start" x="1220" y="-9102.01" font-family="Times,serif" font-size="14.00"> Was spitting used in this incident? </text>
</g>
<!-- 61190&#45;&gt;END_NODE -->
<g id="edge16" class="edge">
<title>61190&#45;&gt;END_NODE</title>
<path fill="none" stroke="#dddddd" d="M1462.42,-9062.01C1533.74,-9034.41 1611.31,-8991.14 1657.49,-8925.06 1781.33,-8747.89 1796.42,-7128.62 1798.14,-6834.71"/>
<polygon fill="#dddddd" stroke="#dddddd" points="1801.64,-6834.79 1798.19,-6824.77 1794.64,-6834.75 1801.64,-6834.79"/>
<text text-anchor="start" x="1678.87" y="-8876.11" font-family="Times,serif" font-size="14.00"> </text>
<text text-anchor="start" x="1682.62" y="-8876.11" font-family="Times,serif" font-size="14.00" fill="royalblue">213017 </text>
<text text-anchor="start" x="1726.87" y="-8876.11" font-family="Times,serif" font-size="14.00"> N </text>
</g>
<!-- 61191 -->
<g id="node15" class="node">
<title>61191</title>
<ellipse fill="#dddddd" stroke="#dddddd" cx="1296.5" cy="-8555.06" rx="361" ry="361"/>
<text text-anchor="start" x="1040" y="-8551.01" font-family="Times,serif" font-size="14.00"> </text>
<text text-anchor="start" x="1043.75" y="-8551.01" font-family="Times,serif" font-size="14.00" fill="royalblue">61191 </text>
<text text-anchor="start" x="1081.25" y="-8551.01" font-family="Times,serif" font-size="14.00"> Is the assailant known to have an infectious disease that can be transmitted in saliva? </text>
</g>
<!-- 61191&#45;&gt;END_NODE -->
<g id="edge17" class="edge">
<title>61191&#45;&gt;END_NODE</title>
<path fill="none" stroke="#dddddd" d="M1568.11,-8316.56C1602.53,-8275.71 1633.91,-8231.38 1657.49,-8185.06 1781.89,-7940.72 1796.43,-7046.59 1798.13,-6834.43"/>
<polygon fill="#dddddd" stroke="#dddddd" points="1801.62,-6834.68 1798.2,-6824.65 1794.62,-6834.63 1801.62,-6834.68"/>
<text text-anchor="start" x="1678.87" y="-8130.59" font-family="Times,serif" font-size="14.00"> </text>
<text text-anchor="start" x="1682.62" y="-8130.59" font-family="Times,serif" font-size="14.00" fill="royalblue">213018 </text>
<text text-anchor="start" x="1726.87" y="-8130.59" font-family="Times,serif" font-size="14.00"> N </text>
</g>
<!-- 61192 -->
<g id="node16" class="node">
<title>61192</title>
<ellipse fill="#dddddd" stroke="#dddddd" cx="1296.5" cy="-7926.06" rx="250.44" ry="250.44"/>
<text text-anchor="start" x="1121" y="-7922.01" font-family="Times,serif" font-size="14.00"> </text>
<text text-anchor="start" x="1124.75" y="-7922.01" font-family="Times,serif" font-size="14.00" fill="royalblue">61192 </text>
<text text-anchor="start" x="1162.25" y="-7922.01" font-family="Times,serif" font-size="14.00"> Did the saliva hit the body or clothing of the victim(s)? </text>
</g>
<!-- 61192&#45;&gt;END_NODE -->
<g id="edge18" class="edge">
<title>61192&#45;&gt;END_NODE</title>
<path fill="none" stroke="#dddddd" d="M1514.1,-7801.79C1566.43,-7763.84 1618.46,-7718.38 1657.49,-7667.06 1727.47,-7575.06 1722.64,-7535.94 1747.49,-7423.06 1795.16,-7206.56 1799.34,-6939.71 1798.93,-6834.63"/>
<polygon fill="#dddddd" stroke="#dddddd" points="1802.43,-6834.71 1798.87,-6824.73 1795.43,-6834.75 1802.43,-6834.71"/>
<text text-anchor="start" x="1678.87" y="-7645.12" font-family="Times,serif" font-size="14.00"> </text>
<text text-anchor="start" x="1682.62" y="-7645.12" font-family="Times,serif" font-size="14.00" fill="royalblue">213019 </text>
<text text-anchor="start" x="1726.87" y="-7645.12" font-family="Times,serif" font-size="14.00"> N </text>
</g>
<!-- 61193 -->
<g id="node17" class="node">
<title>61193</title>
<ellipse fill="#dddddd" stroke="#dddddd" cx="1296.5" cy="-7551.06" rx="106.63" ry="106.63"/>
<text text-anchor="start" x="1226.37" y="-7547.01" font-family="Times,serif" font-size="14.00"> </text>
<text text-anchor="start" x="1230.12" y="-7547.01" font-family="Times,serif" font-size="14.00" fill="royalblue">61193 </text>
<text text-anchor="start" x="1267.62" y="-7547.01" font-family="Times,serif" font-size="14.00"> Where did it hit? </text>
</g>
<!-- 61193&#45;&gt;END_NODE -->
<g id="edge19" class="edge">
<title>61193&#45;&gt;END_NODE</title>
<path fill="none" stroke="#dddddd" d="M1402.94,-7543.33C1482.97,-7531.98 1590.35,-7504.15 1657.49,-7436.06 1742.6,-7349.75 1783.08,-6966.59 1794.7,-6834.22"/>
<polygon fill="#dddddd" stroke="#dddddd" points="1798.17,-6834.7 1795.54,-6824.44 1791.19,-6834.1 1798.17,-6834.7"/>
<text text-anchor="start" x="1678.87" y="-7407.22" font-family="Times,serif" font-size="14.00"> </text>
<text text-anchor="start" x="1682.62" y="-7407.22" font-family="Times,serif" font-size="14.00" fill="royalblue">213020 </text>
<text text-anchor="start" x="1726.87" y="-7407.22" font-family="Times,serif" font-size="14.00"> N </text>
</g>
<!-- 61194 -->
<g id="node18" class="node">
<title>61194</title>
<ellipse fill="#dddddd" stroke="#dddddd" cx="1296.5" cy="-7289.06" rx="137.85" ry="137.85"/>
<text text-anchor="start" x="1203.5" y="-7285.01" font-family="Times,serif" font-size="14.00"> </text>
<text text-anchor="start" x="1207.25" y="-7285.01" font-family="Times,serif" font-size="14.00" fill="royalblue">61194 </text>
<text text-anchor="start" x="1244.75" y="-7285.01" font-family="Times,serif" font-size="14.00"> Were any weapons used? </text>
</g>
<!-- 61194&#45;&gt;END_NODE -->
<g id="edge20" class="edge">
<title>61194&#45;&gt;END_NODE</title>
<path fill="none" stroke="#dddddd" d="M1431.85,-7261.57C1506.64,-7240.16 1596.64,-7203.41 1657.49,-7142.06 1744.06,-7054.8 1779.23,-6907.62 1791.96,-6833.92"/>
<polygon fill="#dddddd" stroke="#dddddd" points="1795.38,-6834.68 1793.57,-6824.24 1788.48,-6833.53 1795.38,-6834.68"/>
<text text-anchor="start" x="1678.87" y="-7123.53" font-family="Times,serif" font-size="14.00"> </text>
<text text-anchor="start" x="1682.62" y="-7123.53" font-family="Times,serif" font-size="14.00" fill="royalblue">213021 </text>
<text text-anchor="start" x="1726.87" y="-7123.53" font-family="Times,serif" font-size="14.00"> N </text>
</g>
<!-- 61195 -->
<g id="node19" class="node">
<title>61195</title>
<ellipse fill="#dddddd" stroke="#dddddd" cx="1296.5" cy="-6984.06" rx="149.11" ry="149.11"/>
<text text-anchor="start" x="1195.25" y="-6980.01" font-family="Times,serif" font-size="14.00"> </text>
<text text-anchor="start" x="1199" y="-6980.01" font-family="Times,serif" font-size="14.00" fill="royalblue">61195 </text>
<text text-anchor="start" x="1236.5" y="-6980.01" font-family="Times,serif" font-size="14.00"> Describe the weapons used? </text>
</g>
<!-- 61195&#45;&gt;END_NODE -->
<g id="edge21" class="edge">
<title>61195&#45;&gt;END_NODE</title>
<path fill="none" stroke="#dddddd" d="M1436.02,-6930.13C1544.3,-6887.97 1687.72,-6832.13 1757.17,-6805.09"/>
<polygon fill="#dddddd" stroke="#dddddd" points="1758.2,-6808.45 1766.25,-6801.56 1755.66,-6801.92 1758.2,-6808.45"/>
<text text-anchor="start" x="1678.87" y="-6840.38" font-family="Times,serif" font-size="14.00"> </text>
<text text-anchor="start" x="1682.62" y="-6840.38" font-family="Times,serif" font-size="14.00" fill="royalblue">213022 </text>
<text text-anchor="start" x="1726.87" y="-6840.38" font-family="Times,serif" font-size="14.00"> N </text>
</g>
<!-- 61196 -->
<g id="node20" class="node">
<title>61196</title>
<ellipse fill="#dddddd" stroke="#dddddd" cx="1296.5" cy="-6595.06" rx="222.3" ry="222.3"/>
<text text-anchor="start" x="1141.62" y="-6591.01" font-family="Times,serif" font-size="14.00"> </text>
<text text-anchor="start" x="1145.37" y="-6591.01" font-family="Times,serif" font-size="14.00" fill="royalblue">61196 </text>
<text text-anchor="start" x="1182.87" y="-6591.01" font-family="Times,serif" font-size="14.00"> Were any injuries received during this incident? </text>
</g>
<!-- 61196&#45;&gt;END_NODE -->
<g id="edge22" class="edge">
<title>61196&#45;&gt;END_NODE</title>
<path fill="none" stroke="#dddddd" d="M1504.11,-6675.09C1598.33,-6711.58 1701.1,-6751.39 1756.79,-6772.96"/>
<polygon fill="#dddddd" stroke="#dddddd" points="1755.29,-6776.13 1765.88,-6776.48 1757.82,-6769.61 1755.29,-6776.13"/>
<text text-anchor="start" x="1678.87" y="-6773.08" font-family="Times,serif" font-size="14.00"> </text>
<text text-anchor="start" x="1682.62" y="-6773.08" font-family="Times,serif" font-size="14.00" fill="royalblue">213023 </text>
<text text-anchor="start" x="1726.87" y="-6773.08" font-family="Times,serif" font-size="14.00"> N </text>
</g>
<!-- 61197 -->
<g id="node21" class="node">
<title>61197</title>
<ellipse fill="#dddddd" stroke="#dddddd" cx="1296.5" cy="-6171.06" rx="183.4" ry="183.4"/>
<text text-anchor="start" x="1170.12" y="-6167.01" font-family="Times,serif" font-size="14.00"> </text>
<text text-anchor="start" x="1173.87" y="-6167.01" font-family="Times,serif" font-size="14.00" fill="royalblue">61197 </text>
<text text-anchor="start" x="1211.37" y="-6167.01" font-family="Times,serif" font-size="14.00"> Enter description of person(s) injured </text>
</g>
<!-- 61197&#45;&gt;END_NODE -->
<g id="edge23" class="edge">
<title>61197&#45;&gt;END_NODE</title>
<path fill="none" stroke="#dddddd" d="M1469.91,-6231.23C1536.42,-6261.94 1608.19,-6305.45 1657.49,-6364.06 1753.45,-6478.14 1784.69,-6659.8 1794.32,-6743.77"/>
<polygon fill="#dddddd" stroke="#dddddd" points="1790.84,-6744.13 1795.4,-6753.69 1797.8,-6743.37 1790.84,-6744.13"/>
<text text-anchor="start" x="1678.87" y="-6527.22" font-family="Times,serif" font-size="14.00"> </text>
<text text-anchor="start" x="1682.62" y="-6527.22" font-family="Times,serif" font-size="14.00" fill="royalblue">213024 </text>
<text text-anchor="start" x="1726.87" y="-6527.22" font-family="Times,serif" font-size="14.00"> N </text>
</g>
<!-- 61198 -->
<g id="node22" class="node">
<title>61198</title>
<ellipse fill="#dddddd" stroke="#dddddd" cx="1296.5" cy="-5809.06" rx="160.88" ry="160.88"/>
<text text-anchor="start" x="1186.62" y="-5805.01" font-family="Times,serif" font-size="14.00"> </text>
<text text-anchor="start" x="1190.37" y="-5805.01" font-family="Times,serif" font-size="14.00" fill="royalblue">61198 </text>
<text text-anchor="start" x="1227.87" y="-5805.01" font-family="Times,serif" font-size="14.00"> Was a serious injury sustained? </text>
</g>
<!-- 61198&#45;&gt;END_NODE -->
<g id="edge24" class="edge">
<title>61198&#45;&gt;END_NODE</title>
<path fill="none" stroke="#dddddd" d="M1452.62,-5848.1C1524.88,-5873.89 1606.06,-5915.1 1657.49,-5979.06 1753.93,-6098.99 1787.84,-6591.57 1796.14,-6743.94"/>
<polygon fill="#dddddd" stroke="#dddddd" points="1792.63,-6743.83 1796.66,-6753.63 1799.62,-6743.45 1792.63,-6743.83"/>
<text text-anchor="start" x="1678.87" y="-6263.76" font-family="Times,serif" font-size="14.00"> </text>
<text text-anchor="start" x="1682.62" y="-6263.76" font-family="Times,serif" font-size="14.00" fill="royalblue">213025 </text>
<text text-anchor="start" x="1726.87" y="-6263.76" font-family="Times,serif" font-size="14.00"> N </text>
</g>
<!-- 61200 -->
<g id="node23" class="node">
<title>61200</title>
<ellipse fill="#dddddd" stroke="#dddddd" cx="1296.5" cy="-5442.06" rx="188.52" ry="188.52"/>
<text text-anchor="start" x="1166.37" y="-5438.01" font-family="Times,serif" font-size="14.00"> </text>
<text text-anchor="start" x="1170.12" y="-5438.01" font-family="Times,serif" font-size="14.00" fill="royalblue">61200 </text>
<text text-anchor="start" x="1207.62" y="-5438.01" font-family="Times,serif" font-size="14.00"> Which serious injuries were sustained? </text>
</g>
<!-- 61200&#45;&gt;END_NODE -->
<g id="edge25" class="edge">
<title>61200&#45;&gt;END_NODE</title>
<path fill="none" stroke="#dddddd" d="M1474.78,-5503.85C1540.81,-5534.99 1610.93,-5579.15 1657.49,-5639.06 1794.65,-5815.52 1799.83,-6552.17 1798.8,-6743.5"/>
<polygon fill="#dddddd" stroke="#dddddd" points="1795.31,-6743.25 1798.74,-6753.27 1802.3,-6743.3 1795.31,-6743.25"/>
<text text-anchor="start" x="1678.87" y="-5894.72" font-family="Times,serif" font-size="14.00"> </text>
<text text-anchor="start" x="1682.62" y="-5894.72" font-family="Times,serif" font-size="14.00" fill="royalblue">213026 </text>
<text text-anchor="start" x="1726.87" y="-5894.72" font-family="Times,serif" font-size="14.00"> N </text>
</g>
<!-- 61201 -->
<g id="node24" class="node">
<title>61201</title>
<ellipse fill="#dddddd" stroke="#dddddd" cx="1296.5" cy="-5078.06" rx="157.3" ry="157.3"/>
<text text-anchor="start" x="1189.25" y="-5074.01" font-family="Times,serif" font-size="14.00"> </text>
<text text-anchor="start" x="1193" y="-5074.01" font-family="Times,serif" font-size="14.00" fill="royalblue">61201 </text>
<text text-anchor="start" x="1230.5" y="-5074.01" font-family="Times,serif" font-size="14.00"> Was a minor injury sustained? </text>
</g>
<!-- 61201&#45;&gt;END_NODE -->
<g id="edge26" class="edge">
<title>61201&#45;&gt;END_NODE</title>
<path fill="none" stroke="#dddddd" d="M1449.96,-5114.27C1522.92,-5139.15 1605.5,-5179.67 1657.49,-5244.06 1772.66,-5386.67 1723.33,-5464.85 1747.49,-5646.56 1776.44,-5864.18 1793.33,-6558.39 1797.39,-6743.39"/>
<polygon fill="#dddddd" stroke="#dddddd" points="1793.89,-6743.39 1797.6,-6753.32 1800.89,-6743.24 1793.89,-6743.39"/>
<text text-anchor="start" x="1678.87" y="-5650.76" font-family="Times,serif" font-size="14.00"> </text>
<text text-anchor="start" x="1682.62" y="-5650.76" font-family="Times,serif" font-size="14.00" fill="royalblue">213027 </text>
<text text-anchor="start" x="1726.87" y="-5650.76" font-family="Times,serif" font-size="14.00"> N </text>
</g>
<!-- 61202 -->
<g id="node25" class="node">
<title>61202</title>
<ellipse fill="#dddddd" stroke="#dddddd" cx="1296.5" cy="-4718.06" rx="184.93" ry="184.93"/>
<text text-anchor="start" x="1169" y="-4714.01" font-family="Times,serif" font-size="14.00"> </text>
<text text-anchor="start" x="1172.75" y="-4714.01" font-family="Times,serif" font-size="14.00" fill="royalblue">61202 </text>
<text text-anchor="start" x="1210.25" y="-4714.01" font-family="Times,serif" font-size="14.00"> Which minor injuries were sustained? </text>
</g>
<!-- 61202&#45;&gt;END_NODE -->
<g id="edge27" class="edge">
<title>61202&#45;&gt;END_NODE</title>
<path fill="none" stroke="#dddddd" d="M1472.13,-4777.51C1538.77,-4808.18 1610.05,-4852.05 1657.49,-4912.06 1753.5,-5033.51 1724.79,-5095.42 1747.49,-5248.56 1791.88,-5547.95 1797.53,-6521.1 1798.25,-6743.5"/>
<polygon fill="#dddddd" stroke="#dddddd" points="1794.75,-6743.51 1798.28,-6753.5 1801.75,-6743.48 1794.75,-6743.51"/>
<text text-anchor="start" x="1678.87" y="-5252.76" font-family="Times,serif" font-size="14.00"> </text>
<text text-anchor="start" x="1682.62" y="-5252.76" font-family="Times,serif" font-size="14.00" fill="royalblue">213028 </text>
<text text-anchor="start" x="1726.87" y="-5252.76" font-family="Times,serif" font-size="14.00"> N </text>
</g>
<!-- 61203 -->
<g id="node26" class="node">
<title>61203</title>
<ellipse fill="#dddddd" stroke="#dddddd" cx="1296.5" cy="-4277.06" rx="237.65" ry="237.65"/>
<text text-anchor="start" x="1130.37" y="-4273.01" font-family="Times,serif" font-size="14.00"> </text>
<text text-anchor="start" x="1134.12" y="-4273.01" font-family="Times,serif" font-size="14.00" fill="royalblue">61203 </text>
<text text-anchor="start" x="1171.62" y="-4273.01" font-family="Times,serif" font-size="14.00"> Did injuries result in attendance to outside hospital? </text>
</g>
<!-- 61203&#45;&gt;END_NODE -->
<g id="edge28" class="edge">
<title>61203&#45;&gt;END_NODE</title>
<path fill="none" stroke="#dddddd" d="M1508.83,-4384.01C1564.54,-4421.4 1619.59,-4468.25 1657.49,-4524.06 1758.78,-4673.19 1724.93,-4740.7 1747.49,-4919.56 1794.02,-5288.4 1798,-6493.31 1798.32,-6743.37"/>
<polygon fill="#dddddd" stroke="#dddddd" points="1794.82,-6743.37 1798.34,-6753.36 1801.82,-6743.36 1794.82,-6743.37"/>
<text text-anchor="start" x="1678.87" y="-4923.76" font-family="Times,serif" font-size="14.00"> </text>
<text text-anchor="start" x="1682.62" y="-4923.76" font-family="Times,serif" font-size="14.00" fill="royalblue">213029 </text>
<text text-anchor="start" x="1726.87" y="-4923.76" font-family="Times,serif" font-size="14.00"> N </text>
</g>
<!-- 61204 -->
<g id="node27" class="node">
<title>61204</title>
<ellipse fill="#dddddd" stroke="#dddddd" cx="1296.5" cy="-3876.06" rx="145.01" ry="145.01"/>
<text text-anchor="start" x="1198.25" y="-3872.01" font-family="Times,serif" font-size="14.00"> </text>
<text text-anchor="start" x="1202" y="-3872.01" font-family="Times,serif" font-size="14.00" fill="royalblue">61204 </text>
<text text-anchor="start" x="1239.5" y="-3872.01" font-family="Times,serif" font-size="14.00"> Type of hospital admission </text>
</g>
<!-- 61204&#45;&gt;END_NODE -->
<g id="edge29" class="edge">
<title>61204&#45;&gt;END_NODE</title>
<path fill="none" stroke="#dddddd" d="M1439.16,-3902.58C1515.15,-3924.17 1603.92,-3962.58 1657.49,-4030.06 1799.93,-4209.46 1724.84,-4309.61 1747.49,-4537.56 1792.26,-4988 1797.65,-6465.56 1798.27,-6743.69"/>
<polygon fill="#dddddd" stroke="#dddddd" points="1794.77,-6743.42 1798.29,-6753.42 1801.77,-6743.41 1794.77,-6743.42"/>
<text text-anchor="start" x="1678.87" y="-4541.76" font-family="Times,serif" font-size="14.00"> </text>
<text text-anchor="start" x="1682.62" y="-4541.76" font-family="Times,serif" font-size="14.00" fill="royalblue">213030 </text>
<text text-anchor="start" x="1726.87" y="-4541.76" font-family="Times,serif" font-size="14.00"> N </text>
</g>
<!-- 61205 -->
<g id="node28" class="node">
<title>61205</title>
<ellipse fill="#dddddd" stroke="#dddddd" cx="1296.5" cy="-3524.06" rx="188.52" ry="188.52"/>
<text text-anchor="start" x="1166.37" y="-3520.01" font-family="Times,serif" font-size="14.00"> </text>
<text text-anchor="start" x="1170.12" y="-3520.01" font-family="Times,serif" font-size="14.00" fill="royalblue">61205 </text>
<text text-anchor="start" x="1207.62" y="-3520.01" font-family="Times,serif" font-size="14.00"> Who was admitted to outside hospital? </text>
</g>
<!-- 61205&#45;&gt;END_NODE -->
<g id="edge30" class="edge">
<title>61205&#45;&gt;END_NODE</title>
<path fill="none" stroke="#dddddd" d="M1474.52,-3587.15C1540.31,-3618.55 1610.33,-3662.73 1657.49,-3722.06 1749.03,-3837.21 1725.96,-3895.05 1747.49,-4040.56 1788.6,-4318.25 1797.1,-6407.04 1798.21,-6743.4"/>
<polygon fill="#dddddd" stroke="#dddddd" points="1794.71,-6743.34 1798.24,-6753.33 1801.71,-6743.32 1794.71,-6743.34"/>
<text text-anchor="start" x="1678.87" y="-4044.76" font-family="Times,serif" font-size="14.00"> </text>
<text text-anchor="start" x="1682.62" y="-4044.76" font-family="Times,serif" font-size="14.00" fill="royalblue">213031 </text>
<text text-anchor="start" x="1726.87" y="-4044.76" font-family="Times,serif" font-size="14.00"> N </text>
</g>
<!-- 61206 -->
<g id="node29" class="node">
<title>61206</title>
<ellipse fill="#dddddd" stroke="#dddddd" cx="1296.5" cy="-3022.06" rx="295.48" ry="295.48"/>
<text text-anchor="start" x="1088" y="-3018.01" font-family="Times,serif" font-size="14.00"> </text>
<text text-anchor="start" x="1091.75" y="-3018.01" font-family="Times,serif" font-size="14.00" fill="royalblue">61206 </text>
<text text-anchor="start" x="1129.25" y="-3018.01" font-family="Times,serif" font-size="14.00"> Was medical treatment for concussion or internal injuries required? </text>
</g>
<!-- 61206&#45;&gt;END_NODE -->
<g id="edge31" class="edge">
<title>61206&#45;&gt;END_NODE</title>
<path fill="none" stroke="#dddddd" d="M1540.32,-3188.96C1584.85,-3229.28 1626.87,-3275.51 1657.49,-3326.06 1752.49,-3482.83 1725.86,-3546.53 1747.49,-3728.56 1784.57,-4040.48 1796.54,-6386.9 1798.15,-6743.65"/>
<polygon fill="#dddddd" stroke="#dddddd" points="1794.65,-6743.53 1798.2,-6753.52 1801.65,-6743.5 1794.65,-6743.53"/>
<text text-anchor="start" x="1678.87" y="-3732.76" font-family="Times,serif" font-size="14.00"> </text>
<text text-anchor="start" x="1682.62" y="-3732.76" font-family="Times,serif" font-size="14.00" fill="royalblue">213032 </text>
<text text-anchor="start" x="1726.87" y="-3732.76" font-family="Times,serif" font-size="14.00"> N </text>
</g>
<!-- 61207 -->
<g id="node30" class="node">
<title>61207</title>
<ellipse fill="#dddddd" stroke="#dddddd" cx="1296.5" cy="-2442.06" rx="266.31" ry="266.31"/>
<text text-anchor="start" x="1109.37" y="-2438.01" font-family="Times,serif" font-size="14.00"> </text>
<text text-anchor="start" x="1113.12" y="-2438.01" font-family="Times,serif" font-size="14.00" fill="royalblue">61207 </text>
<text text-anchor="start" x="1150.62" y="-2438.01" font-family="Times,serif" font-size="14.00"> Are there any staff now off duty as a result of this incident? </text>
</g>
<!-- 61207&#45;&gt;END_NODE -->
<g id="edge32" class="edge">
<title>61207&#45;&gt;END_NODE</title>
<path fill="none" stroke="#dddddd" d="M1526.97,-2575.49C1577.36,-2615.18 1625.24,-2663.02 1657.49,-2718.06 1799.04,-2959.63 1725.38,-3062.45 1747.49,-3341.56 1803.35,-4046.63 1799.42,-6387.71 1798.48,-6743.55"/>
<polygon fill="#dddddd" stroke="#dddddd" points="1794.99,-6743.38 1798.46,-6753.39 1801.99,-6743.4 1794.99,-6743.38"/>
<text text-anchor="start" x="1678.87" y="-3345.76" font-family="Times,serif" font-size="14.00"> </text>
<text text-anchor="start" x="1682.62" y="-3345.76" font-family="Times,serif" font-size="14.00" fill="royalblue">213033 </text>
<text text-anchor="start" x="1726.87" y="-3345.76" font-family="Times,serif" font-size="14.00"> N </text>
</g>
<!-- 61208 -->
<g id="node31" class="node">
<title>61208</title>
<ellipse fill="#dddddd" stroke="#dddddd" cx="1296.5" cy="-1912.06" rx="245.84" ry="245.84"/>
<text text-anchor="start" x="1124.37" y="-1908.01" font-family="Times,serif" font-size="14.00"> </text>
<text text-anchor="start" x="1128.12" y="-1908.01" font-family="Times,serif" font-size="14.00" fill="royalblue">61208 </text>
<text text-anchor="start" x="1165.62" y="-1908.01" font-family="Times,serif" font-size="14.00"> Are any staff on sick leave as a result of this incident? </text>
</g>
<!-- 61208&#45;&gt;END_NODE -->
<g id="edge33" class="edge">
<title>61208&#45;&gt;END_NODE</title>
<path fill="none" stroke="#dddddd" d="M1515.1,-2024.69C1569.54,-2062.85 1622.37,-2110.43 1657.49,-2167.06 1793.26,-2385.94 1725.82,-2482.9 1747.49,-2739.56 1782.85,-3158.19 1796.52,-6325.08 1798.17,-6743.47"/>
<polygon fill="#dddddd" stroke="#dddddd" points="1794.67,-6743.27 1798.21,-6753.26 1801.67,-6743.25 1794.67,-6743.27"/>
<text text-anchor="start" x="1678.87" y="-2743.76" font-family="Times,serif" font-size="14.00"> </text>
<text text-anchor="start" x="1682.62" y="-2743.76" font-family="Times,serif" font-size="14.00" fill="royalblue">213034 </text>
<text text-anchor="start" x="1726.87" y="-2743.76" font-family="Times,serif" font-size="14.00"> N </text>
</g>
<!-- 61209 -->
<g id="node32" class="node">
<title>61209</title>
<ellipse fill="#dddddd" stroke="#dddddd" cx="1296.5" cy="-1466.06" rx="182.37" ry="182.37"/>
<text text-anchor="start" x="1170.87" y="-1462.01" font-family="Times,serif" font-size="14.00"> </text>
<text text-anchor="start" x="1174.62" y="-1462.01" font-family="Times,serif" font-size="14.00" fill="royalblue">61209 </text>
<text text-anchor="start" x="1212.12" y="-1462.01" font-family="Times,serif" font-size="14.00"> Did the assault occur in public view? </text>
</g>
<!-- 61209&#45;&gt;END_NODE -->
<g id="edge34" class="edge">
<title>61209&#45;&gt;END_NODE</title>
<path fill="none" stroke="#dddddd" d="M1470.72,-1520.03C1539.02,-1549.86 1611.9,-1593.99 1657.49,-1657.06 1796.84,-1849.79 1726.11,-1947.69 1747.49,-2184.56 1790.64,-2662.52 1797.59,-6294.85 1798.28,-6743.63"/>
<polygon fill="#dddddd" stroke="#dddddd" points="1794.78,-6743.3 1798.3,-6753.3 1801.78,-6743.29 1794.78,-6743.3"/>
<text text-anchor="start" x="1678.87" y="-2188.76" font-family="Times,serif" font-size="14.00"> </text>
<text text-anchor="start" x="1682.62" y="-2188.76" font-family="Times,serif" font-size="14.00" fill="royalblue">213035 </text>
<text text-anchor="start" x="1726.87" y="-2188.76" font-family="Times,serif" font-size="14.00"> N </text>
</g>
<!-- 61210 -->
<g id="node33" class="node">
<title>61210</title>
<ellipse fill="#dddddd" stroke="#dddddd" cx="1296.5" cy="-1034.06" rx="231.51" ry="231.51"/>
<text text-anchor="start" x="1134.87" y="-1030.01" font-family="Times,serif" font-size="14.00"> </text>
<text text-anchor="start" x="1138.62" y="-1030.01" font-family="Times,serif" font-size="14.00" fill="royalblue">61210 </text>
<text text-anchor="start" x="1176.12" y="-1030.01" font-family="Times,serif" font-size="14.00"> Is there any audio or visual footage of the assault? </text>
</g>
<!-- 61210&#45;&gt;END_NODE -->
<g id="edge35" class="edge">
<title>61210&#45;&gt;END_NODE</title>
<path fill="none" stroke="#dddddd" d="M1505.04,-1135.06C1562.02,-1171.91 1618.72,-1218.66 1657.49,-1275.06 1759.63,-1423.61 1726.48,-1491.52 1747.49,-1670.56 1778.76,-1936.9 1796.28,-6252.76 1798.18,-6743.7"/>
<polygon fill="#dddddd" stroke="#dddddd" points="1794.68,-6743.4 1798.21,-6753.39 1801.68,-6743.37 1794.68,-6743.4"/>
<text text-anchor="start" x="1678.87" y="-1674.76" font-family="Times,serif" font-size="14.00"> </text>
<text text-anchor="start" x="1682.62" y="-1674.76" font-family="Times,serif" font-size="14.00" fill="royalblue">213036 </text>
<text text-anchor="start" x="1726.87" y="-1674.76" font-family="Times,serif" font-size="14.00"> N </text>
</g>
<!-- 61211 -->
<g id="node34" class="node">
<title>61211</title>
<ellipse fill="#dddddd" stroke="#dddddd" cx="1296.5" cy="-613.06" rx="171.11" ry="171.11"/>
<text text-anchor="start" x="1179.12" y="-609.01" font-family="Times,serif" font-size="14.00"> </text>
<text text-anchor="start" x="1182.87" y="-609.01" font-family="Times,serif" font-size="14.00" fill="royalblue">61211 </text>
<text text-anchor="start" x="1220.37" y="-609.01" font-family="Times,serif" font-size="14.00"> What is the source of the footage? </text>
</g>
<!-- 61211&#45;&gt;END_NODE -->
<g id="edge36" class="edge">
<title>61211&#45;&gt;END_NODE</title>
<path fill="none" stroke="#dddddd" d="M1461.87,-658.58C1532.42,-686.29 1609.49,-729.05 1657.49,-793.06 1791.77,-972.13 1726.38,-1065.73 1747.49,-1288.56 1801.87,-1862.51 1798.91,-6247.76 1798.4,-6743.5"/>
<polygon fill="#dddddd" stroke="#dddddd" points="1794.9,-6743.28 1798.39,-6753.29 1801.9,-6743.29 1794.9,-6743.28"/>
<text text-anchor="start" x="1678.87" y="-1292.76" font-family="Times,serif" font-size="14.00"> </text>
<text text-anchor="start" x="1682.62" y="-1292.76" font-family="Times,serif" font-size="14.00" fill="royalblue">213037 </text>
<text text-anchor="start" x="1726.87" y="-1292.76" font-family="Times,serif" font-size="14.00"> N </text>
</g>
<!-- 61212 -->
<g id="node35" class="node">
<title>61212</title>
<ellipse fill="#dddddd" stroke="#dddddd" cx="1296.5" cy="-212.06" rx="212.06" ry="212.06"/>
<text text-anchor="start" x="1149.12" y="-208.01" font-family="Times,serif" font-size="14.00"> </text>
<text text-anchor="start" x="1152.87" y="-208.01" font-family="Times,serif" font-size="14.00" fill="royalblue">61212 </text>
<text text-anchor="start" x="1190.37" y="-208.01" font-family="Times,serif" font-size="14.00"> Was there an apparent reason for the assault? </text>
</g>
<!-- 61212&#45;&gt;END_NODE -->
<g id="edge37" class="edge">
<title>61212&#45;&gt;END_NODE</title>
<path fill="none" stroke="#dddddd" d="M1492.22,-294.83C1553.16,-329.42 1615.41,-375.25 1657.49,-433.06 1757.23,-570.06 1726.64,-635.39 1747.49,-803.56 1786.26,-1116.12 1797.21,-6205.86 1798.26,-6743.24"/>
<polygon fill="#dddddd" stroke="#dddddd" points="1794.76,-6743.23 1798.28,-6753.23 1801.76,-6743.22 1794.76,-6743.23"/>
<text text-anchor="start" x="1678.87" y="-807.76" font-family="Times,serif" font-size="14.00"> </text>
<text text-anchor="start" x="1682.62" y="-807.76" font-family="Times,serif" font-size="14.00" fill="royalblue">213038 </text>
<text text-anchor="start" x="1726.87" y="-807.76" font-family="Times,serif" font-size="14.00"> N </text>
</g>
</g>
</svg>
