<?xml version="1.0" encoding="UTF-8" standalone="no"?>
<!DOCTYPE svg PUBLIC "-//W3C//DTD SVG 1.1//EN"
 "http://www.w3.org/Graphics/SVG/1.1/DTD/svg11.dtd">
<!-- Generated by graphviz version 12.1.1 (20240910.0053)
 -->
<!-- Title: OLD_KEY_LOCK_INCIDENT Pages: 1 -->
<svg width="7968pt" height="762pt"
 viewBox="0.00 0.00 7967.64 762.37" xmlns="http://www.w3.org/2000/svg" xmlns:xlink="http://www.w3.org/1999/xlink">
<g id="graph0" class="graph" transform="scale(1 1) rotate(0) translate(4 758.37)">
<title>OLD_KEY_LOCK_INCIDENT</title>
<polygon fill="white" stroke="none" points="-4,4 -4,-758.37 7963.64,-758.37 7963.64,4 -4,4"/>
<!-- START_NODE -->
<g id="node1" class="node">
<title>START_NODE</title>
</g>
<!-- 44598 -->
<g id="node2" class="node">
<title>44598</title>
<ellipse fill="#dddddd" stroke="#dddddd" cx="280.27" cy="-343.95" rx="167.02" ry="167.02"/>
<text text-anchor="middle" x="280.27" y="-338.9" font-family="Times,serif" font-size="14.00">Were the police informed of the incident?</text>
</g>
<!-- START_NODE&#45;&gt;44598 -->
<g id="edge1" class="edge">
<title>START_NODE&#45;&gt;44598</title>
<path fill="none" stroke="black" d="M53.94,-343.95C66.67,-343.95 83.21,-343.95 101.55,-343.95"/>
<polygon fill="black" stroke="black" points="101.34,-347.45 111.34,-343.95 101.34,-340.45 101.34,-347.45"/>
<text text-anchor="middle" x="83.62" y="-347.15" font-family="Times,serif" font-size="14.00">start</text>
</g>
<!-- 44166 -->
<g id="node4" class="node">
<title>44166</title>
<ellipse fill="#dddddd" stroke="#dddddd" cx="1166.79" cy="-264.95" rx="202.33" ry="202.33"/>
<text text-anchor="middle" x="1166.79" y="-259.9" font-family="Times,serif" font-size="14.00">Has any prosecution taken place or is any pending?</text>
</g>
<!-- 44598&#45;&gt;44166 -->
<g id="edge28" class="edge">
<title>44598&#45;&gt;44166</title>
<path fill="none" stroke="#dddddd" d="M431.54,-415.34C455.17,-423.86 479.68,-431.21 503.54,-435.95 679.94,-471.02 736.02,-487.9 908.21,-435.95 938.91,-426.69 969.31,-412.44 997.88,-396.03"/>
<polygon fill="#dddddd" stroke="#dddddd" points="999.34,-399.23 1006.19,-391.15 995.8,-393.19 999.34,-399.23"/>
<text text-anchor="middle" x="705.87" y="-472.08" font-family="Times,serif" font-size="14.00">No</text>
</g>
<!-- 45072 -->
<g id="node17" class="node">
<title>45072</title>
<ellipse fill="#dddddd" stroke="#dddddd" cx="705.87" cy="-224.95" rx="202.33" ry="202.33"/>
<text text-anchor="middle" x="705.87" y="-219.9" font-family="Times,serif" font-size="14.00">Is the incident the subject of a police investigation?</text>
</g>
<!-- 44598&#45;&gt;45072 -->
<g id="edge27" class="edge">
<title>44598&#45;&gt;45072</title>
<path fill="none" stroke="#dddddd" d="M441.42,-298.96C460.49,-293.61 480.17,-288.08 499.76,-282.57"/>
<polygon fill="#dddddd" stroke="#dddddd" points="500.5,-286 509.18,-279.93 498.6,-279.26 500.5,-286"/>
<text text-anchor="middle" x="475.42" y="-294.78" font-family="Times,serif" font-size="14.00">Yes</text>
</g>
<!-- END_NODE -->
<g id="node3" class="node">
<title>END_NODE</title>
<ellipse fill="none" stroke="black" cx="7925.79" cy="-465.95" rx="29.86" ry="29.86"/>
<ellipse fill="none" stroke="black" cx="7925.79" cy="-465.95" rx="33.86" ry="33.86"/>
<text text-anchor="middle" x="7925.79" y="-460.9" font-family="Times,serif" font-size="14.00">END</text>
</g>
<!-- 44331 -->
<g id="node5" class="node">
<title>44331</title>
<ellipse fill="#dddddd" stroke="#dddddd" cx="1637.95" cy="-264.95" rx="212.57" ry="212.57"/>
<text text-anchor="middle" x="1637.95" y="-259.9" font-family="Times,serif" font-size="14.00">Is the incident the subject of an internal investigation?</text>
</g>
<!-- 44166&#45;&gt;44331 -->
<g id="edge2" class="edge">
<title>44166&#45;&gt;44331</title>
<path fill="none" stroke="#dddddd" d="M1369.48,-264.95C1384.13,-264.95 1398.95,-264.95 1413.71,-264.95"/>
<polygon fill="#dddddd" stroke="#dddddd" points="1413.46,-268.45 1423.46,-264.95 1413.46,-261.45 1413.46,-268.45"/>
<text text-anchor="middle" x="1397.25" y="-268.15" font-family="Times,serif" font-size="14.00">Yes</text>
</g>
<!-- 44166&#45;&gt;44331 -->
<g id="edge3" class="edge">
<title>44166&#45;&gt;44331</title>
<path fill="none" stroke="#dddddd" d="M1368.55,-245.43C1374.81,-245.07 1381.02,-244.74 1387.13,-244.45 1396.17,-244.03 1405.39,-243.81 1414.7,-243.77"/>
<polygon fill="#dddddd" stroke="#dddddd" points="1414.57,-247.27 1424.58,-243.8 1414.59,-240.27 1414.57,-247.27"/>
<text text-anchor="middle" x="1397.25" y="-247.65" font-family="Times,serif" font-size="14.00">No</text>
</g>
<!-- 44386 -->
<g id="node8" class="node">
<title>44386</title>
<ellipse fill="#dddddd" stroke="#dddddd" cx="2108.59" cy="-264.95" rx="201.82" ry="201.82"/>
<text text-anchor="middle" x="2108.59" y="-259.9" font-family="Times,serif" font-size="14.00">Is the incident subject to a governor&#39;s adjudication?</text>
</g>
<!-- 44331&#45;&gt;44386 -->
<g id="edge6" class="edge">
<title>44331&#45;&gt;44386</title>
<path fill="none" stroke="#dddddd" d="M1850.99,-264.95C1865.67,-264.95 1880.47,-264.95 1895.15,-264.95"/>
<polygon fill="#dddddd" stroke="#dddddd" points="1894.83,-268.45 1904.83,-264.95 1894.83,-261.45 1894.83,-268.45"/>
<text text-anchor="middle" x="1878.65" y="-268.15" font-family="Times,serif" font-size="14.00">Yes</text>
</g>
<!-- 44331&#45;&gt;44386 -->
<g id="edge7" class="edge">
<title>44331&#45;&gt;44386</title>
<path fill="none" stroke="#dddddd" d="M1849.81,-243.8C1862.99,-243.67 1876.06,-243.86 1888.77,-244.45 1891.15,-244.56 1893.55,-244.68 1895.96,-244.81"/>
<polygon fill="#dddddd" stroke="#dddddd" points="1895.62,-248.29 1905.8,-245.35 1896.01,-241.3 1895.62,-248.29"/>
<text text-anchor="middle" x="1878.65" y="-247.65" font-family="Times,serif" font-size="14.00">No</text>
</g>
<!-- 44228 -->
<g id="node6" class="node">
<title>44228</title>
<ellipse fill="#dddddd" stroke="#dddddd" cx="3427.89" cy="-264.95" rx="199.78" ry="199.78"/>
<text text-anchor="middle" x="3427.89" y="-259.9" font-family="Times,serif" font-size="14.00">Has the prison service press office been informed?</text>
</g>
<!-- 44972 -->
<g id="node7" class="node">
<title>44972</title>
<ellipse fill="#dddddd" stroke="#dddddd" cx="3863.73" cy="-264.95" rx="179.82" ry="179.82"/>
<text text-anchor="middle" x="3863.73" y="-259.9" font-family="Times,serif" font-size="14.00">Describe the type of key or lock compromise</text>
</g>
<!-- 44228&#45;&gt;44972 -->
<g id="edge4" class="edge">
<title>44228&#45;&gt;44972</title>
<path fill="none" stroke="#dddddd" d="M3628.03,-264.95C3642.77,-264.95 3657.61,-264.95 3672.29,-264.95"/>
<polygon fill="#dddddd" stroke="#dddddd" points="3671.96,-268.45 3681.96,-264.95 3671.96,-261.45 3671.96,-268.45"/>
<text text-anchor="middle" x="3655.79" y="-268.15" font-family="Times,serif" font-size="14.00">Yes</text>
</g>
<!-- 44228&#45;&gt;44972 -->
<g id="edge5" class="edge">
<title>44228&#45;&gt;44972</title>
<path fill="none" stroke="#dddddd" d="M3627.02,-243.74C3640.17,-243.59 3653.23,-243.79 3665.91,-244.45 3668.42,-244.58 3670.95,-244.72 3673.49,-244.87"/>
<polygon fill="#dddddd" stroke="#dddddd" points="3673,-248.35 3683.2,-245.48 3673.44,-241.36 3673,-248.35"/>
<text text-anchor="middle" x="3655.79" y="-247.65" font-family="Times,serif" font-size="14.00">No</text>
</g>
<!-- 45015 -->
<g id="node21" class="node">
<title>45015</title>
<ellipse fill="#dddddd" stroke="#dddddd" cx="4379.82" cy="-264.95" rx="156.27" ry="156.27"/>
<text text-anchor="middle" x="4379.82" y="-259.9" font-family="Times,serif" font-size="14.00">Describe the nature of the compromise</text>
</g>
<!-- 44972&#45;&gt;45015 -->
<g id="edge55" class="edge">
<title>44972&#45;&gt;45015</title>
<path fill="none" stroke="#dddddd" d="M3941.87,-426.99C3972.31,-472.91 4012.04,-517.35 4061.55,-542.95 4118.39,-572.36 4149.59,-574.01 4205.55,-542.95 4254.27,-515.91 4291.09,-468.83 4317.97,-421.02"/>
<polygon fill="#dddddd" stroke="#dddddd" points="4320.92,-422.91 4322.65,-412.46 4314.78,-419.55 4320.92,-422.91"/>
<text text-anchor="middle" x="4133.55" y="-568.83" font-family="Times,serif" font-size="14.00">Class 1 pass key</text>
</g>
<!-- 44972&#45;&gt;45015 -->
<g id="edge56" class="edge">
<title>44972&#45;&gt;45015</title>
<path fill="none" stroke="#dddddd" d="M3957.99,-418.47C3986.65,-452.51 4021.4,-484.06 4061.55,-502.95 4090.5,-516.58 4177.03,-517.47 4205.55,-502.95 4244.81,-482.97 4277.27,-449.46 4303.07,-413.81"/>
<polygon fill="#dddddd" stroke="#dddddd" points="4305.71,-416.13 4308.61,-405.94 4299.99,-412.1 4305.71,-416.13"/>
<text text-anchor="middle" x="4133.55" y="-516.71" font-family="Times,serif" font-size="14.00">Class 2 pass key</text>
</g>
<!-- 44972&#45;&gt;45015 -->
<g id="edge57" class="edge">
<title>44972&#45;&gt;45015</title>
<path fill="none" stroke="#dddddd" d="M3975.84,-406C4001.31,-429.21 4030.22,-449.92 4061.55,-462.95 4120.64,-487.53 4147.26,-489.4 4205.55,-462.95 4235.54,-449.34 4262.38,-427.7 4285.47,-403.62"/>
<polygon fill="#dddddd" stroke="#dddddd" points="4287.87,-406.18 4292.12,-396.47 4282.74,-401.4 4287.87,-406.18"/>
<text text-anchor="middle" x="4133.55" y="-485.29" font-family="Times,serif" font-size="14.00">Cell key</text>
</g>
<!-- 44972&#45;&gt;45015 -->
<g id="edge58" class="edge">
<title>44972&#45;&gt;45015</title>
<path fill="none" stroke="#dddddd" d="M3994.75,-388.48C4015.76,-402.56 4038.29,-414.77 4061.55,-422.95 4121.92,-444.19 4145.87,-446.08 4205.55,-422.95 4226.91,-414.67 4247.26,-402.4 4266.01,-388.28"/>
<polygon fill="#dddddd" stroke="#dddddd" points="4268.15,-391.05 4273.88,-382.14 4263.84,-385.53 4268.15,-391.05"/>
<text text-anchor="middle" x="4133.55" y="-442.79" font-family="Times,serif" font-size="14.00">Class 3 A1 suite key</text>
</g>
<!-- 44972&#45;&gt;45015 -->
<g id="edge59" class="edge">
<title>44972&#45;&gt;45015</title>
<path fill="none" stroke="#dddddd" d="M4013.58,-365.11C4029.29,-372.31 4045.42,-378.49 4061.55,-382.95 4123.23,-400.03 4144.38,-401.8 4205.55,-382.95 4219.26,-378.73 4232.87,-373 4246.07,-366.34"/>
<polygon fill="#dddddd" stroke="#dddddd" points="4247.52,-369.53 4254.74,-361.77 4244.26,-363.33 4247.52,-369.53"/>
<text text-anchor="middle" x="4133.55" y="-399.63" font-family="Times,serif" font-size="14.00">Class 3 accountable key</text>
</g>
<!-- 44972&#45;&gt;45015 -->
<g id="edge60" class="edge">
<title>44972&#45;&gt;45015</title>
<path fill="none" stroke="#dddddd" d="M4029.57,-335.39C4040.27,-338.36 4050.99,-340.94 4061.55,-342.95 4124.41,-354.96 4142.97,-356.39 4205.55,-342.95 4213.11,-341.33 4220.74,-339.35 4228.36,-337.09"/>
<polygon fill="#dddddd" stroke="#dddddd" points="4229.19,-340.5 4237.69,-334.17 4227.1,-333.82 4229.19,-340.5"/>
<text text-anchor="middle" x="4133.55" y="-355.7" font-family="Times,serif" font-size="14.00">Handcuff key</text>
</g>
<!-- 44972&#45;&gt;45015 -->
<g id="edge61" class="edge">
<title>44972&#45;&gt;45015</title>
<path fill="none" stroke="#dddddd" d="M4040.46,-300.6C4047.57,-301.5 4054.62,-302.29 4061.55,-302.95 4125.25,-309.05 4141.92,-309.85 4205.55,-302.95 4209.03,-302.58 4212.55,-302.16 4216.09,-301.7"/>
<polygon fill="#dddddd" stroke="#dddddd" points="4216.54,-305.17 4225.96,-300.33 4215.58,-298.24 4216.54,-305.17"/>
<text text-anchor="middle" x="4133.55" y="-311.03" font-family="Times,serif" font-size="14.00">Closeting/escort chain key</text>
</g>
<!-- 44972&#45;&gt;45015 -->
<g id="edge62" class="edge">
<title>44972&#45;&gt;45015</title>
<path fill="none" stroke="#dddddd" d="M4043.81,-264.95C4098.32,-264.95 4158,-264.95 4211.69,-264.95"/>
<polygon fill="#dddddd" stroke="#dddddd" points="4211.54,-268.45 4221.54,-264.95 4211.54,-261.45 4211.54,-268.45"/>
<text text-anchor="middle" x="4133.55" y="-268.15" font-family="Times,serif" font-size="14.00">Class 1 lock</text>
</g>
<!-- 44972&#45;&gt;45015 -->
<g id="edge63" class="edge">
<title>44972&#45;&gt;45015</title>
<path fill="none" stroke="#dddddd" d="M4042.75,-245.57C4049.09,-245.15 4055.37,-244.77 4061.55,-244.45 4125.46,-241.13 4141.66,-240.69 4205.55,-244.45 4208.06,-244.6 4210.6,-244.76 4213.15,-244.93"/>
<polygon fill="#dddddd" stroke="#dddddd" points="4212.7,-248.41 4222.93,-245.64 4213.21,-241.43 4212.7,-248.41"/>
<text text-anchor="middle" x="4133.55" y="-247.65" font-family="Times,serif" font-size="14.00">Class 2 lock</text>
</g>
<!-- 44972&#45;&gt;45015 -->
<g id="edge64" class="edge">
<title>44972&#45;&gt;45015</title>
<path fill="none" stroke="#dddddd" d="M4039.32,-224.3C4046.81,-223.21 4054.24,-222.25 4061.55,-221.45 4125.17,-214.51 4142.03,-213.6 4205.55,-221.45 4209.43,-221.93 4213.36,-222.47 4217.31,-223.06"/>
<polygon fill="#dddddd" stroke="#dddddd" points="4216.58,-226.49 4227.01,-224.62 4217.69,-219.58 4216.58,-226.49"/>
<text text-anchor="middle" x="4133.55" y="-224.65" font-family="Times,serif" font-size="14.00">Cell lock</text>
</g>
<!-- 44972&#45;&gt;45015 -->
<g id="edge65" class="edge">
<title>44972&#45;&gt;45015</title>
<path fill="none" stroke="#dddddd" d="M4032.29,-201.58C4042.1,-199.18 4051.9,-197.11 4061.55,-195.45 4124.63,-184.64 4142.71,-183.32 4205.55,-195.45 4211.97,-196.69 4218.45,-198.17 4224.95,-199.84"/>
<polygon fill="#dddddd" stroke="#dddddd" points="4223.87,-203.17 4234.44,-202.42 4225.71,-196.41 4223.87,-203.17"/>
<text text-anchor="middle" x="4133.55" y="-198.65" font-family="Times,serif" font-size="14.00">Class 3 A1 suite lock</text>
</g>
<!-- 44972&#45;&gt;45015 -->
<g id="edge66" class="edge">
<title>44972&#45;&gt;45015</title>
<path fill="none" stroke="#dddddd" d="M4021.86,-178.55C4035.02,-173.72 4048.34,-169.57 4061.55,-166.45 4123.83,-151.74 4143.67,-150.1 4205.55,-166.45 4216.08,-169.24 4226.65,-172.83 4237.08,-176.99"/>
<polygon fill="#dddddd" stroke="#dddddd" points="4235.49,-180.11 4246.06,-180.74 4238.19,-173.66 4235.49,-180.11"/>
<text text-anchor="middle" x="4133.55" y="-169.65" font-family="Times,serif" font-size="14.00">Class 3 accountable lock</text>
</g>
<!-- 44972&#45;&gt;45015 -->
<g id="edge67" class="edge">
<title>44972&#45;&gt;45015</title>
<path fill="none" stroke="#dddddd" d="M4007.75,-156.86C4025.18,-147.76 4043.29,-139.95 4061.55,-134.45 4122.82,-115.98 4144.85,-114.15 4205.55,-134.45 4221.51,-139.79 4237.19,-147.25 4252.18,-155.92"/>
<polygon fill="#dddddd" stroke="#dddddd" points="4250.27,-158.85 4260.64,-161 4253.87,-152.85 4250.27,-158.85"/>
<text text-anchor="middle" x="4133.55" y="-137.65" font-family="Times,serif" font-size="14.00">Handcuff</text>
</g>
<!-- 44972&#45;&gt;45015 -->
<g id="edge68" class="edge">
<title>44972&#45;&gt;45015</title>
<path fill="none" stroke="#dddddd" d="M3991.32,-137.6C4013.21,-122.01 4036.9,-108.44 4061.55,-99.45 4121.67,-77.53 4146.14,-75.64 4205.55,-99.45 4228.59,-108.69 4250.3,-122.61 4270.05,-138.53"/>
<polygon fill="#dddddd" stroke="#dddddd" points="4267.6,-141.05 4277.53,-144.75 4272.08,-135.67 4267.6,-141.05"/>
<text text-anchor="middle" x="4133.55" y="-102.65" font-family="Times,serif" font-size="14.00">Closeting/escort chain</text>
</g>
<!-- 44972&#45;&gt;45015 -->
<g id="edge69" class="edge">
<title>44972&#45;&gt;45015</title>
<path fill="none" stroke="#dddddd" d="M3973.38,-121.84C3999.35,-97.26 4029.08,-75.22 4061.55,-61.45 4120.47,-36.47 4147.44,-34.61 4205.55,-61.45 4236.81,-75.89 4264.51,-99.07 4288.08,-124.69"/>
<polygon fill="#dddddd" stroke="#dddddd" points="4285.31,-126.84 4294.58,-131.96 4290.53,-122.18 4285.31,-126.84"/>
<text text-anchor="middle" x="4133.55" y="-64.65" font-family="Times,serif" font-size="14.00">Electronic lock system</text>
</g>
<!-- 44972&#45;&gt;45015 -->
<g id="edge70" class="edge">
<title>44972&#45;&gt;45015</title>
<path fill="none" stroke="#dddddd" d="M3955.57,-110.18C3984.57,-74.5 4020.1,-41.25 4061.55,-21.45 4119.3,6.13 4148.66,7.88 4205.55,-21.45 4245.93,-42.28 4278.96,-77.36 4304.95,-114.49"/>
<polygon fill="#dddddd" stroke="#dddddd" points="4302.03,-116.43 4310.55,-122.72 4307.81,-112.49 4302.03,-116.43"/>
<text text-anchor="middle" x="4133.55" y="-24.65" font-family="Times,serif" font-size="14.00">Other</text>
</g>
<!-- 44414 -->
<g id="node11" class="node">
<title>44414</title>
<ellipse fill="#dddddd" stroke="#dddddd" cx="2569.51" cy="-264.95" rx="202.85" ry="202.85"/>
<text text-anchor="middle" x="2569.51" y="-259.9" font-family="Times,serif" font-size="14.00">Is any member of staff facing disciplinary charges?</text>
</g>
<!-- 44386&#45;&gt;44414 -->
<g id="edge10" class="edge">
<title>44386&#45;&gt;44414</title>
<path fill="none" stroke="#dddddd" d="M2310.88,-264.95C2325.56,-264.95 2340.4,-264.95 2355.15,-264.95"/>
<polygon fill="#dddddd" stroke="#dddddd" points="2354.89,-268.45 2364.89,-264.95 2354.89,-261.45 2354.89,-268.45"/>
<text text-anchor="middle" x="2338.54" y="-268.15" font-family="Times,serif" font-size="14.00">Yes</text>
</g>
<!-- 44386&#45;&gt;44414 -->
<g id="edge11" class="edge">
<title>44386&#45;&gt;44414</title>
<path fill="none" stroke="#dddddd" d="M2309.88,-245.43C2316.13,-245.07 2322.32,-244.74 2328.42,-244.45 2337.48,-244.03 2346.73,-243.82 2356.07,-243.8"/>
<polygon fill="#dddddd" stroke="#dddddd" points="2355.96,-247.3 2365.98,-243.86 2356,-240.3 2355.96,-247.3"/>
<text text-anchor="middle" x="2338.54" y="-247.65" font-family="Times,serif" font-size="14.00">No</text>
</g>
<!-- 44355 -->
<g id="node9" class="node">
<title>44355</title>
<ellipse fill="#dddddd" stroke="#dddddd" cx="4871.42" cy="-607.95" rx="107.65" ry="107.65"/>
<text text-anchor="middle" x="4871.42" y="-602.9" font-family="Times,serif" font-size="14.00">Has a replica been found?</text>
</g>
<!-- 44894 -->
<g id="node10" class="node">
<title>44894</title>
<ellipse fill="#dddddd" stroke="#dddddd" cx="5334.89" cy="-380.95" rx="171.63" ry="171.63"/>
<text text-anchor="middle" x="5334.89" y="-375.9" font-family="Times,serif" font-size="14.00">What action was taken to find these items?</text>
</g>
<!-- 44355&#45;&gt;44894 -->
<g id="edge8" class="edge">
<title>44355&#45;&gt;44894</title>
<path fill="none" stroke="#dddddd" d="M4976.18,-581.94C5028.45,-566.81 5091.88,-545.3 5145.26,-517.95 5160.03,-510.38 5174.92,-501.72 5189.49,-492.52"/>
<polygon fill="#dddddd" stroke="#dddddd" points="5191.23,-495.56 5197.75,-487.21 5187.45,-489.67 5191.23,-495.56"/>
<text text-anchor="middle" x="5086.01" y="-568.74" font-family="Times,serif" font-size="14.00">Yes</text>
</g>
<!-- 44355&#45;&gt;44894 -->
<g id="edge9" class="edge">
<title>44355&#45;&gt;44894</title>
<path fill="none" stroke="#dddddd" d="M4956.8,-541.6C4978.85,-525.95 5003.09,-510.14 5026.76,-497.45 5068.76,-474.95 5116.06,-454.72 5160.72,-437.69"/>
<polygon fill="#dddddd" stroke="#dddddd" points="5161.87,-440.99 5169.99,-434.19 5159.4,-434.44 5161.87,-440.99"/>
<text text-anchor="middle" x="5086.01" y="-500.65" font-family="Times,serif" font-size="14.00">No</text>
</g>
<!-- 44866 -->
<g id="node20" class="node">
<title>44866</title>
<ellipse fill="#dddddd" stroke="#dddddd" cx="5742.66" cy="-196.95" rx="74.89" ry="74.89"/>
<text text-anchor="middle" x="5742.66" y="-191.9" font-family="Times,serif" font-size="14.00">Were tools used?</text>
</g>
<!-- 44894&#45;&gt;44866 -->
<g id="edge37" class="edge">
<title>44894&#45;&gt;44866</title>
<path fill="none" stroke="#dddddd" d="M5506.74,-385.12C5555.93,-379.57 5607.63,-366.65 5649.76,-339.95 5673.97,-324.61 5693.04,-300.33 5707.38,-276.1"/>
<polygon fill="#dddddd" stroke="#dddddd" points="5710.41,-277.85 5712.29,-267.43 5704.32,-274.4 5710.41,-277.85"/>
<text text-anchor="middle" x="5587.14" y="-385.21" font-family="Times,serif" font-size="14.00">Full close down search</text>
</g>
<!-- 44894&#45;&gt;44866 -->
<g id="edge38" class="edge">
<title>44894&#45;&gt;44866</title>
<path fill="none" stroke="#dddddd" d="M5498.18,-328.07C5573.83,-303.35 5647.83,-279.06 5649.76,-277.95 5660.22,-271.97 5670.55,-264.67 5680.3,-256.92"/>
<polygon fill="#dddddd" stroke="#dddddd" points="5682.4,-259.72 5687.9,-250.67 5677.95,-254.32 5682.4,-259.72"/>
<text text-anchor="middle" x="5587.14" y="-321.36" font-family="Times,serif" font-size="14.00">Partial search</text>
</g>
<!-- 44894&#45;&gt;44866 -->
<g id="edge39" class="edge">
<title>44894&#45;&gt;44866</title>
<path fill="none" stroke="#dddddd" d="M5475.85,-282.69C5491.88,-273.45 5508.29,-264.81 5524.51,-257.45 5566.79,-238.28 5616.51,-223.89 5657.7,-213.96"/>
<polygon fill="#dddddd" stroke="#dddddd" points="5658.4,-217.39 5667.33,-211.69 5656.79,-210.58 5658.4,-217.39"/>
<text text-anchor="middle" x="5587.14" y="-260.65" font-family="Times,serif" font-size="14.00">Other</text>
</g>
<!-- 44678 -->
<g id="node14" class="node">
<title>44678</title>
<ellipse fill="#dddddd" stroke="#dddddd" cx="3000.24" cy="-264.95" rx="171.63" ry="171.63"/>
<text text-anchor="middle" x="3000.24" y="-259.9" font-family="Times,serif" font-size="14.00">Is there any media interest in this incident?</text>
</g>
<!-- 44414&#45;&gt;44678 -->
<g id="edge21" class="edge">
<title>44414&#45;&gt;44678</title>
<path fill="none" stroke="#dddddd" d="M2772.64,-264.95C2787.51,-264.95 2802.46,-264.95 2817.2,-264.95"/>
<polygon fill="#dddddd" stroke="#dddddd" points="2816.91,-268.45 2826.91,-264.95 2816.91,-261.45 2816.91,-268.45"/>
<text text-anchor="middle" x="2800.49" y="-268.15" font-family="Times,serif" font-size="14.00">Yes</text>
</g>
<!-- 44414&#45;&gt;44678 -->
<g id="edge22" class="edge">
<title>44414&#45;&gt;44678</title>
<path fill="none" stroke="#dddddd" d="M2771.54,-243.65C2784.76,-243.53 2797.87,-243.76 2810.61,-244.45 2813.12,-244.59 2815.64,-244.73 2818.18,-244.89"/>
<polygon fill="#dddddd" stroke="#dddddd" points="2817.67,-248.36 2827.88,-245.53 2818.13,-241.38 2817.67,-248.36"/>
<text text-anchor="middle" x="2800.49" y="-247.65" font-family="Times,serif" font-size="14.00">No</text>
</g>
<!-- 44407 -->
<g id="node12" class="node">
<title>44407</title>
<ellipse fill="#dddddd" stroke="#dddddd" cx="5969.68" cy="-413.95" rx="95.88" ry="95.88"/>
<text text-anchor="middle" x="5969.68" y="-408.9" font-family="Times,serif" font-size="14.00">What tools were used?</text>
</g>
<!-- 44925 -->
<g id="node13" class="node">
<title>44925</title>
<ellipse fill="#dddddd" stroke="#dddddd" cx="6325.89" cy="-453.95" rx="137.34" ry="137.34"/>
<text text-anchor="middle" x="6325.89" y="-448.9" font-family="Times,serif" font-size="14.00">What was the source of the tools?</text>
</g>
<!-- 44407&#45;&gt;44925 -->
<g id="edge12" class="edge">
<title>44407&#45;&gt;44925</title>
<path fill="none" stroke="#dddddd" d="M6011.42,-500.45C6029.33,-528.49 6053.28,-556.37 6083.56,-571.95 6126.26,-593.93 6173.66,-579.13 6215.07,-553.59"/>
<polygon fill="#dddddd" stroke="#dddddd" points="6216.84,-556.61 6223.36,-548.25 6213.06,-550.72 6216.84,-556.61"/>
<text text-anchor="middle" x="6127.06" y="-585.83" font-family="Times,serif" font-size="14.00">Hacksaw blade</text>
</g>
<!-- 44407&#45;&gt;44925 -->
<g id="edge13" class="edge">
<title>44407&#45;&gt;44925</title>
<path fill="none" stroke="#dddddd" d="M6026.91,-491.03C6043.15,-507.62 6062.31,-522.87 6083.56,-531.95 6119.92,-547.49 6160.47,-542.53 6197.8,-529.53"/>
<polygon fill="#dddddd" stroke="#dddddd" points="6198.65,-532.95 6206.81,-526.19 6196.22,-526.39 6198.65,-532.95"/>
<text text-anchor="middle" x="6127.06" y="-544.8" font-family="Times,serif" font-size="14.00">Other blade</text>
</g>
<!-- 44407&#45;&gt;44925 -->
<g id="edge14" class="edge">
<title>44407&#45;&gt;44925</title>
<path fill="none" stroke="#dddddd" d="M6044.82,-474.19C6057.14,-481.48 6070.26,-487.8 6083.56,-491.95 6115.39,-501.88 6150.43,-502.13 6183.71,-497.7"/>
<polygon fill="#dddddd" stroke="#dddddd" points="6184.04,-501.19 6193.42,-496.25 6183.01,-494.27 6184.04,-501.19"/>
<text text-anchor="middle" x="6127.06" y="-503.64" font-family="Times,serif" font-size="14.00">Wire cutters</text>
</g>
<!-- 44407&#45;&gt;44925 -->
<g id="edge15" class="edge">
<title>44407&#45;&gt;44925</title>
<path fill="none" stroke="#dddddd" d="M6059.98,-446.86C6067.87,-448.9 6075.81,-450.65 6083.56,-451.95 6113.55,-456.99 6145.94,-459.34 6176.95,-460.11"/>
<polygon fill="#dddddd" stroke="#dddddd" points="6176.73,-463.6 6186.79,-460.29 6176.86,-456.6 6176.73,-463.6"/>
<text text-anchor="middle" x="6127.06" y="-463.08" font-family="Times,serif" font-size="14.00">Bolt croppers</text>
</g>
<!-- 44407&#45;&gt;44925 -->
<g id="edge16" class="edge">
<title>44407&#45;&gt;44925</title>
<path fill="none" stroke="#dddddd" d="M6065.6,-421.14C6098.84,-423.96 6136.39,-427.47 6170.56,-431.45 6173.23,-431.76 6175.92,-432.08 6178.63,-432.41"/>
<polygon fill="#dddddd" stroke="#dddddd" points="6178,-435.86 6188.36,-433.62 6178.87,-428.92 6178,-435.86"/>
<text text-anchor="middle" x="6127.06" y="-434.65" font-family="Times,serif" font-size="14.00">Digging tool</text>
</g>
<!-- 44407&#45;&gt;44925 -->
<g id="edge17" class="edge">
<title>44407&#45;&gt;44925</title>
<path fill="none" stroke="#dddddd" d="M6065.47,-403.59C6071.59,-403.14 6077.66,-402.75 6083.56,-402.45 6122.18,-400.49 6132.39,-396.25 6170.56,-402.45 6175.48,-403.25 6180.45,-404.18 6185.44,-405.23"/>
<polygon fill="#dddddd" stroke="#dddddd" points="6184.4,-408.58 6194.93,-407.36 6185.93,-401.75 6184.4,-408.58"/>
<text text-anchor="middle" x="6127.06" y="-405.65" font-family="Times,serif" font-size="14.00">Crow bar</text>
</g>
<!-- 44407&#45;&gt;44925 -->
<g id="edge18" class="edge">
<title>44407&#45;&gt;44925</title>
<path fill="none" stroke="#dddddd" d="M6060.63,-382.53C6095.17,-374.5 6134.85,-370.19 6170.56,-378.45 6178.35,-380.26 6186.2,-382.51 6194.02,-385.1"/>
<polygon fill="#dddddd" stroke="#dddddd" points="6192.62,-388.32 6203.22,-388.33 6194.94,-381.71 6192.62,-388.32"/>
<text text-anchor="middle" x="6127.06" y="-381.65" font-family="Times,serif" font-size="14.00">Improvised tool</text>
</g>
<!-- 44407&#45;&gt;44925 -->
<g id="edge19" class="edge">
<title>44407&#45;&gt;44925</title>
<path fill="none" stroke="#dddddd" d="M6052.01,-364.46C6062.33,-359.96 6072.99,-356.11 6083.56,-353.45 6121.06,-344.04 6133.49,-342.45 6170.56,-353.45 6182.18,-356.9 6193.74,-361.53 6205,-366.92"/>
<polygon fill="#dddddd" stroke="#dddddd" points="6203.4,-370.03 6213.9,-371.39 6206.54,-363.77 6203.4,-370.03"/>
<text text-anchor="middle" x="6127.06" y="-356.65" font-family="Times,serif" font-size="14.00">Other tool</text>
</g>
<!-- 44407&#45;&gt;44925 -->
<g id="edge20" class="edge">
<title>44407&#45;&gt;44925</title>
<path fill="none" stroke="#dddddd" d="M6040.19,-348.28C6053.68,-338.91 6068.38,-330.7 6083.56,-325.45 6120.11,-312.83 6134.2,-312.3 6170.56,-325.45 6187.39,-331.54 6203.68,-340.36 6218.97,-350.56"/>
<polygon fill="#dddddd" stroke="#dddddd" points="6216.9,-353.39 6227.11,-356.22 6220.89,-347.64 6216.9,-353.39"/>
<text text-anchor="middle" x="6127.06" y="-328.65" font-family="Times,serif" font-size="14.00">Not known</text>
</g>
<!-- 44775 -->
<g id="node19" class="node">
<title>44775</title>
<ellipse fill="#dddddd" stroke="#dddddd" cx="6807.06" cy="-453.95" rx="148.08" ry="148.08"/>
<text text-anchor="middle" x="6807.06" y="-448.9" font-family="Times,serif" font-size="14.00">Has any remedial action been taken?</text>
</g>
<!-- 44925&#45;&gt;44775 -->
<g id="edge41" class="edge">
<title>44925&#45;&gt;44775</title>
<path fill="none" stroke="#dddddd" d="M6372.16,-583.71C6396.42,-632.95 6431.74,-683.89 6481.23,-711.95 6542.99,-746.98 6578.7,-746.04 6640.98,-711.95 6685.86,-687.39 6720.33,-644.84 6745.87,-601.3"/>
<polygon fill="#dddddd" stroke="#dddddd" points="6748.84,-603.14 6750.76,-592.72 6742.76,-599.67 6748.84,-603.14"/>
<text text-anchor="middle" x="6561.1" y="-741.07" font-family="Times,serif" font-size="14.00">Works department</text>
</g>
<!-- 44925&#45;&gt;44775 -->
<g id="edge42" class="edge">
<title>44925&#45;&gt;44775</title>
<path fill="none" stroke="#dddddd" d="M6385.5,-578.15C6409.61,-615.17 6441.38,-651.34 6481.23,-671.95 6512.76,-688.26 6609.19,-687.76 6640.98,-671.95 6676.34,-654.37 6706.15,-625.2 6730.28,-593.83"/>
<polygon fill="#dddddd" stroke="#dddddd" points="6732.85,-596.25 6736.03,-586.14 6727.24,-592.06 6732.85,-596.25"/>
<text text-anchor="middle" x="6561.1" y="-687.2" font-family="Times,serif" font-size="14.00">Contractors</text>
</g>
<!-- 44925&#45;&gt;44775 -->
<g id="edge43" class="edge">
<title>44925&#45;&gt;44775</title>
<path fill="none" stroke="#dddddd" d="M6401.18,-569.1C6423.59,-594.47 6450.53,-617.94 6481.23,-631.95 6513.52,-646.7 6608.44,-646.15 6640.98,-631.95 6667.35,-620.44 6691.4,-602.41 6712.49,-582.15"/>
<polygon fill="#dddddd" stroke="#dddddd" points="6714.71,-584.88 6719.35,-575.36 6709.78,-579.91 6714.71,-584.88"/>
<text text-anchor="middle" x="6561.1" y="-646.01" font-family="Times,serif" font-size="14.00">Education</text>
</g>
<!-- 44925&#45;&gt;44775 -->
<g id="edge44" class="edge">
<title>44925&#45;&gt;44775</title>
<path fill="none" stroke="#dddddd" d="M6419.12,-555.18C6438.07,-570.22 6459.07,-583.49 6481.23,-591.95 6547.56,-617.28 6574.24,-616.17 6640.98,-591.95 6658.88,-585.45 6676.21,-576.07 6692.47,-565.21"/>
<polygon fill="#dddddd" stroke="#dddddd" points="6694.45,-568.09 6700.67,-559.51 6690.46,-562.34 6694.45,-568.09"/>
<text text-anchor="middle" x="6561.1" y="-613.73" font-family="Times,serif" font-size="14.00">Health care centre</text>
</g>
<!-- 44925&#45;&gt;44775 -->
<g id="edge45" class="edge">
<title>44925&#45;&gt;44775</title>
<path fill="none" stroke="#dddddd" d="M6437.58,-534.26C6451.73,-541.47 6466.45,-547.66 6481.23,-551.95 6549.41,-571.77 6572.51,-570.74 6640.98,-551.95 6651.71,-549.01 6662.44,-545.17 6673,-540.71"/>
<polygon fill="#dddddd" stroke="#dddddd" points="6674.39,-543.92 6682.11,-536.67 6671.55,-537.52 6674.39,-543.92"/>
<text text-anchor="middle" x="6561.1" y="-569.63" font-family="Times,serif" font-size="14.00">Farms and gardens</text>
</g>
<!-- 44925&#45;&gt;44775 -->
<g id="edge46" class="edge">
<title>44925&#45;&gt;44775</title>
<path fill="none" stroke="#dddddd" d="M6453.47,-505.58C6462.76,-508.11 6472.08,-510.29 6481.23,-511.95 6551.09,-524.65 6570.99,-523.89 6640.98,-511.95 6646.31,-511.04 6651.7,-509.98 6657.12,-508.79"/>
<polygon fill="#dddddd" stroke="#dddddd" points="6657.85,-512.21 6666.78,-506.51 6656.24,-505.4 6657.85,-512.21"/>
<text text-anchor="middle" x="6561.1" y="-524.39" font-family="Times,serif" font-size="14.00">Gymnasium/sports field</text>
</g>
<!-- 44925&#45;&gt;44775 -->
<g id="edge47" class="edge">
<title>44925&#45;&gt;44775</title>
<path fill="none" stroke="#dddddd" d="M6462.32,-470.65C6468.71,-471.15 6475.04,-471.59 6481.23,-471.95 6552.11,-476.07 6570.08,-475.81 6640.98,-471.95 6643.49,-471.82 6646.03,-471.67 6648.58,-471.51"/>
<polygon fill="#dddddd" stroke="#dddddd" points="6648.61,-475.02 6658.35,-470.85 6648.13,-468.03 6648.61,-475.02"/>
<text text-anchor="middle" x="6561.1" y="-478.14" font-family="Times,serif" font-size="14.00">Workshops</text>
</g>
<!-- 44925&#45;&gt;44775 -->
<g id="edge48" class="edge">
<title>44925&#45;&gt;44775</title>
<path fill="none" stroke="#dddddd" d="M6463.64,-451.62C6469.59,-451.56 6475.47,-451.5 6481.23,-451.45 6552.23,-450.88 6569.98,-450.92 6640.98,-451.45 6643.18,-451.47 6645.4,-451.49 6647.64,-451.51"/>
<polygon fill="#dddddd" stroke="#dddddd" points="6647.36,-455 6657.39,-451.6 6647.42,-448 6647.36,-455"/>
<text text-anchor="middle" x="6561.1" y="-454.65" font-family="Times,serif" font-size="14.00">Kitchen</text>
</g>
<!-- 44925&#45;&gt;44775 -->
<g id="edge49" class="edge">
<title>44925&#45;&gt;44775</title>
<path fill="none" stroke="#dddddd" d="M6461.85,-432.2C6468.39,-431.52 6474.88,-430.93 6481.23,-430.45 6552.03,-425.09 6570.16,-425.44 6640.98,-430.45 6643.66,-430.64 6646.36,-430.85 6649.08,-431.07"/>
<polygon fill="#dddddd" stroke="#dddddd" points="6648.57,-434.54 6658.84,-431.94 6649.19,-427.57 6648.57,-434.54"/>
<text text-anchor="middle" x="6561.1" y="-433.65" font-family="Times,serif" font-size="14.00">Hobbies</text>
</g>
<!-- 44925&#45;&gt;44775 -->
<g id="edge50" class="edge">
<title>44925&#45;&gt;44775</title>
<path fill="none" stroke="#dddddd" d="M6456.77,-411C6464.99,-409.21 6473.19,-407.66 6481.23,-406.45 6551.44,-395.89 6570.67,-396.54 6640.98,-406.45 6645.34,-407.07 6649.75,-407.77 6654.18,-408.55"/>
<polygon fill="#dddddd" stroke="#dddddd" points="6653.28,-411.94 6663.75,-410.35 6654.57,-405.06 6653.28,-411.94"/>
<text text-anchor="middle" x="6561.1" y="-409.65" font-family="Times,serif" font-size="14.00">Cell furnishings</text>
</g>
<!-- 44925&#45;&gt;44775 -->
<g id="edge51" class="edge">
<title>44925&#45;&gt;44775</title>
<path fill="none" stroke="#dddddd" d="M6447.14,-388.83C6458.43,-384.65 6469.9,-381.08 6481.23,-378.45 6550.4,-362.44 6571.61,-363.34 6640.98,-378.45 6648.51,-380.09 6656.12,-382.11 6663.71,-384.42"/>
<polygon fill="#dddddd" stroke="#dddddd" points="6662.38,-387.67 6672.97,-387.4 6664.53,-381.01 6662.38,-387.67"/>
<text text-anchor="middle" x="6561.1" y="-381.65" font-family="Times,serif" font-size="14.00">Wing/houseblock furnishings</text>
</g>
<!-- 44925&#45;&gt;44775 -->
<g id="edge52" class="edge">
<title>44925&#45;&gt;44775</title>
<path fill="none" stroke="#dddddd" d="M6433.41,-367.9C6448.73,-359.14 6464.87,-351.59 6481.23,-346.45 6548.97,-325.19 6572.92,-326.25 6640.98,-346.45 6653.4,-350.14 6665.76,-355.09 6677.81,-360.85"/>
<polygon fill="#dddddd" stroke="#dddddd" points="6675.99,-363.85 6686.5,-365.19 6679.12,-357.59 6675.99,-363.85"/>
<text text-anchor="middle" x="6561.1" y="-349.65" font-family="Times,serif" font-size="14.00">Smuggled</text>
</g>
<!-- 44925&#45;&gt;44775 -->
<g id="edge53" class="edge">
<title>44925&#45;&gt;44775</title>
<path fill="none" stroke="#dddddd" d="M6416.46,-350.53C6436.01,-334.16 6457.9,-319.62 6481.23,-310.45 6547.31,-284.48 6574.48,-285.59 6640.98,-310.45 6660.21,-317.64 6678.69,-328.2 6695.86,-340.38"/>
<polygon fill="#dddddd" stroke="#dddddd" points="6693.37,-342.89 6703.51,-345.99 6697.52,-337.25 6693.37,-342.89"/>
<text text-anchor="middle" x="6561.1" y="-313.65" font-family="Times,serif" font-size="14.00">Not known</text>
</g>
<!-- 44925&#45;&gt;44775 -->
<g id="edge54" class="edge">
<title>44925&#45;&gt;44775</title>
<path fill="none" stroke="#dddddd" d="M6398.95,-337.22C6421.69,-310.34 6449.34,-285.3 6481.23,-270.45 6545.59,-240.48 6576.12,-241.56 6640.98,-270.45 6668.52,-282.72 6693.39,-302.11 6714.98,-323.77"/>
<polygon fill="#dddddd" stroke="#dddddd" points="6712.27,-326 6721.74,-330.76 6717.3,-321.14 6712.27,-326"/>
<text text-anchor="middle" x="6561.1" y="-273.65" font-family="Times,serif" font-size="14.00">Other</text>
</g>
<!-- 44678&#45;&gt;44228 -->
<g id="edge31" class="edge">
<title>44678&#45;&gt;44228</title>
<path fill="none" stroke="#dddddd" d="M3172.22,-264.95C3186.77,-264.95 3201.59,-264.95 3216.4,-264.95"/>
<polygon fill="#dddddd" stroke="#dddddd" points="3216.21,-268.45 3226.21,-264.95 3216.21,-261.45 3216.21,-268.45"/>
<text text-anchor="middle" x="3199.99" y="-268.15" font-family="Times,serif" font-size="14.00">Yes</text>
</g>
<!-- 44678&#45;&gt;44228 -->
<g id="edge32" class="edge">
<title>44678&#45;&gt;44228</title>
<path fill="none" stroke="#dddddd" d="M3171.08,-245.63C3177.42,-245.18 3183.7,-244.79 3189.86,-244.45 3198.88,-243.96 3208.08,-243.71 3217.38,-243.65"/>
<polygon fill="#dddddd" stroke="#dddddd" points="3217.24,-247.15 3227.24,-243.67 3217.25,-240.15 3217.24,-247.15"/>
<text text-anchor="middle" x="3199.99" y="-247.65" font-family="Times,serif" font-size="14.00">No</text>
</g>
<!-- 44449 -->
<g id="node15" class="node">
<title>44449</title>
<ellipse fill="#dddddd" stroke="#dddddd" cx="7151.8" cy="-369.95" rx="140.41" ry="140.41"/>
<text text-anchor="middle" x="7151.8" y="-364.9" font-family="Times,serif" font-size="14.00">Describe the remedial action taken</text>
</g>
<!-- 44921 -->
<g id="node16" class="node">
<title>44921</title>
<ellipse fill="#dddddd" stroke="#dddddd" cx="7568.82" cy="-392.95" rx="116.86" ry="116.86"/>
<text text-anchor="middle" x="7568.82" y="-387.9" font-family="Times,serif" font-size="14.00">Estimated cost of this action</text>
</g>
<!-- 44449&#45;&gt;44921 -->
<g id="edge23" class="edge">
<title>44449&#45;&gt;44921</title>
<path fill="none" stroke="#dddddd" d="M7285.22,-415.17C7293.62,-417.05 7301.99,-418.68 7310.21,-419.95 7364.56,-428.38 7379.23,-425.42 7433.96,-419.95 7436.95,-419.65 7439.98,-419.32 7443.02,-418.95"/>
<polygon fill="#dddddd" stroke="#dddddd" points="7443.17,-422.46 7452.63,-417.68 7442.26,-415.52 7443.17,-422.46"/>
<text text-anchor="middle" x="7372.08" y="-428.42" font-family="Times,serif" font-size="14.00">Complete relock</text>
</g>
<!-- 44449&#45;&gt;44921 -->
<g id="edge24" class="edge">
<title>44449&#45;&gt;44921</title>
<path fill="none" stroke="#dddddd" d="M7292.27,-378.91C7298.33,-379.27 7304.33,-379.62 7310.21,-379.95 7352.59,-382.37 7398.92,-384.78 7440.45,-386.85"/>
<polygon fill="#dddddd" stroke="#dddddd" points="7440.07,-390.34 7450.23,-387.34 7440.42,-383.35 7440.07,-390.34"/>
<text text-anchor="middle" x="7372.08" y="-389.54" font-family="Times,serif" font-size="14.00">Partial relock</text>
</g>
<!-- 44449&#45;&gt;44921 -->
<g id="edge25" class="edge">
<title>44449&#45;&gt;44921</title>
<path fill="none" stroke="#dddddd" d="M7291.89,-355.98C7337.31,-353.76 7387.9,-353.78 7433.96,-359.45 7437.41,-359.88 7440.91,-360.36 7444.42,-360.9"/>
<polygon fill="#dddddd" stroke="#dddddd" points="7443.79,-364.34 7454.23,-362.53 7444.94,-357.44 7443.79,-364.34"/>
<text text-anchor="middle" x="7372.08" y="-362.65" font-family="Times,serif" font-size="14.00">Complete replacement</text>
</g>
<!-- 44449&#45;&gt;44921 -->
<g id="edge26" class="edge">
<title>44449&#45;&gt;44921</title>
<path fill="none" stroke="#dddddd" d="M7287.96,-334.81C7334.5,-327.48 7386.76,-324.59 7433.96,-334.45 7440.01,-335.72 7446.12,-337.27 7452.23,-339.05"/>
<polygon fill="#dddddd" stroke="#dddddd" points="7451.17,-342.38 7461.76,-342.02 7453.25,-335.7 7451.17,-342.38"/>
<text text-anchor="middle" x="7372.08" y="-337.65" font-family="Times,serif" font-size="14.00">Partial replacement</text>
</g>
<!-- 44921&#45;&gt;END_NODE -->
<g id="edge40" class="edge">
<title>44921&#45;&gt;END_NODE</title>
<path fill="none" stroke="#dddddd" d="M7683.6,-416.35C7750.81,-430.17 7832.07,-446.89 7881.03,-456.95"/>
<polygon fill="#dddddd" stroke="#dddddd" points="7880.18,-460.35 7890.68,-458.94 7881.59,-453.49 7880.18,-460.35"/>
<text text-anchor="middle" x="7788.81" y="-458.56" font-family="Times,serif" font-size="14.00">Enter amount in pound sterling</text>
</g>
<!-- 45072&#45;&gt;44166 -->
<g id="edge80" class="edge">
<title>45072&#45;&gt;44166</title>
<path fill="none" stroke="#dddddd" d="M907.83,-242.47C923.05,-243.8 938.45,-245.14 953.74,-246.47"/>
<polygon fill="#dddddd" stroke="#dddddd" points="953.08,-249.93 963.34,-247.31 953.68,-242.95 953.08,-249.93"/>
<text text-anchor="middle" x="936.33" y="-248.15" font-family="Times,serif" font-size="14.00">Yes</text>
</g>
<!-- 45072&#45;&gt;44166 -->
<g id="edge81" class="edge">
<title>45072&#45;&gt;44166</title>
<path fill="none" stroke="#dddddd" d="M908.63,-221.83C921.44,-222.47 934.14,-223.32 946.46,-224.45 949.76,-224.75 953.08,-225.08 956.42,-225.43"/>
<polygon fill="#dddddd" stroke="#dddddd" points="956.02,-228.91 966.35,-226.54 956.8,-221.95 956.02,-228.91"/>
<text text-anchor="middle" x="936.33" y="-227.65" font-family="Times,serif" font-size="14.00">No</text>
</g>
<!-- 44619 -->
<g id="node18" class="node">
<title>44619</title>
<ellipse fill="#dddddd" stroke="#dddddd" cx="4871.42" cy="-344.95" rx="137.34" ry="137.34"/>
<text text-anchor="middle" x="4871.42" y="-339.9" font-family="Times,serif" font-size="14.00">Have the lost item(s) been found?</text>
</g>
<!-- 44619&#45;&gt;44894 -->
<g id="edge29" class="edge">
<title>44619&#45;&gt;44894</title>
<path fill="none" stroke="#dddddd" d="M5008.32,-359.33C5014.55,-359.9 5020.72,-360.44 5026.76,-360.95 5067.24,-364.37 5110.77,-367.52 5151.96,-370.26"/>
<polygon fill="#dddddd" stroke="#dddddd" points="5151.51,-373.74 5161.71,-370.9 5151.97,-366.75 5151.51,-373.74"/>
<text text-anchor="middle" x="5086.01" y="-372.99" font-family="Times,serif" font-size="14.00">Yes</text>
</g>
<!-- 44619&#45;&gt;44894 -->
<g id="edge30" class="edge">
<title>44619&#45;&gt;44894</title>
<path fill="none" stroke="#dddddd" d="M5009.17,-340.75C5015.11,-340.64 5021,-340.54 5026.76,-340.45 5079.42,-339.69 5092.89,-334.89 5145.26,-340.45 5148.73,-340.82 5152.23,-341.23 5155.75,-341.67"/>
<polygon fill="#dddddd" stroke="#dddddd" points="5155.18,-345.12 5165.55,-342.97 5156.1,-338.18 5155.18,-345.12"/>
<text text-anchor="middle" x="5086.01" y="-343.65" font-family="Times,serif" font-size="14.00">No</text>
</g>
<!-- 44775&#45;&gt;END_NODE -->
<g id="edge34" class="edge">
<title>44775&#45;&gt;END_NODE</title>
<path fill="none" stroke="#dddddd" d="M6946.7,-504.51C6968.1,-510.49 6990.16,-515.64 7011.4,-518.95 7307.5,-565.13 7387.78,-551.57 7685.68,-518.95 7755.38,-511.32 7834.5,-491.53 7881.98,-478.41"/>
<polygon fill="#dddddd" stroke="#dddddd" points="7882.91,-481.78 7891.6,-475.72 7881.03,-475.04 7882.91,-481.78"/>
<text text-anchor="middle" x="7372.08" y="-551.92" font-family="Times,serif" font-size="14.00">No</text>
</g>
<!-- 44775&#45;&gt;44449 -->
<g id="edge33" class="edge">
<title>44775&#45;&gt;44449</title>
<path fill="none" stroke="#dddddd" d="M6951.43,-418.82C6968.9,-414.53 6986.77,-410.16 7004.28,-405.86"/>
<polygon fill="#dddddd" stroke="#dddddd" points="7004.78,-409.34 7013.66,-403.56 7003.12,-402.54 7004.78,-409.34"/>
<text text-anchor="middle" x="6983.27" y="-415.15" font-family="Times,serif" font-size="14.00">Yes</text>
</g>
<!-- 44866&#45;&gt;44407 -->
<g id="edge35" class="edge">
<title>44866&#45;&gt;44407</title>
<path fill="none" stroke="#dddddd" d="M5797.27,-248.65C5825.55,-275.93 5860.75,-309.87 5891.88,-339.89"/>
<polygon fill="#dddddd" stroke="#dddddd" points="5889.4,-342.36 5899.03,-346.78 5894.26,-337.32 5889.4,-342.36"/>
<text text-anchor="middle" x="5845.68" y="-302.15" font-family="Times,serif" font-size="14.00">Yes</text>
</g>
<!-- 44866&#45;&gt;44775 -->
<g id="edge36" class="edge">
<title>44866&#45;&gt;44775</title>
<path fill="none" stroke="#dddddd" d="M5816.32,-181.65C5976.04,-151.9 6365.4,-101.02 6640.98,-243.95 6673.72,-260.93 6702.05,-287.63 6725.54,-316.36"/>
<polygon fill="#dddddd" stroke="#dddddd" points="6722.78,-318.5 6731.74,-324.15 6728.26,-314.15 6722.78,-318.5"/>
<text text-anchor="middle" x="6127.06" y="-153.3" font-family="Times,serif" font-size="14.00">No</text>
</g>
<!-- 45015&#45;&gt;44355 -->
<g id="edge76" class="edge">
<title>45015&#45;&gt;44355</title>
<path fill="none" stroke="#dddddd" d="M4504.17,-359.56C4520.84,-371.95 4537.81,-384.36 4554.09,-395.95 4625.67,-446.93 4708.2,-502.13 4771.02,-543.42"/>
<polygon fill="#dddddd" stroke="#dddddd" points="4768.98,-546.27 4779.26,-548.83 4772.83,-540.42 4768.98,-546.27"/>
<text text-anchor="middle" x="4635.09" y="-505.23" font-family="Times,serif" font-size="14.00">Replica key used</text>
</g>
<!-- 45015&#45;&gt;44619 -->
<g id="edge71" class="edge">
<title>45015&#45;&gt;44619</title>
<path fill="none" stroke="#dddddd" d="M4512.2,-348.16C4525.96,-354.14 4540.05,-359.26 4554.09,-362.95 4608.83,-377.36 4670.68,-377.28 4725.08,-372.02"/>
<polygon fill="#dddddd" stroke="#dddddd" points="4725.12,-375.54 4734.71,-371.02 4724.4,-368.58 4725.12,-375.54"/>
<text text-anchor="middle" x="4635.09" y="-378.45" font-family="Times,serif" font-size="14.00">Loss of key(s)</text>
</g>
<!-- 45015&#45;&gt;44619 -->
<g id="edge72" class="edge">
<title>45015&#45;&gt;44619</title>
<path fill="none" stroke="#dddddd" d="M4527.59,-316.9C4536.5,-319.17 4545.38,-321.22 4554.09,-322.95 4608.53,-333.78 4669.16,-339.49 4722.66,-342.43"/>
<polygon fill="#dddddd" stroke="#dddddd" points="4722.28,-345.92 4732.45,-342.94 4722.64,-338.93 4722.28,-345.92"/>
<text text-anchor="middle" x="4635.09" y="-344.81" font-family="Times,serif" font-size="14.00">Loss of handcuffs</text>
</g>
<!-- 45015&#45;&gt;44619 -->
<g id="edge73" class="edge">
<title>45015&#45;&gt;44619</title>
<path fill="none" stroke="#dddddd" d="M4535.58,-281.15C4614.52,-289.61 4697.76,-298.93 4716.09,-302.45 4719.96,-303.2 4723.87,-303.99 4727.82,-304.82"/>
<polygon fill="#dddddd" stroke="#dddddd" points="4726.99,-308.22 4737.51,-306.95 4728.49,-301.39 4726.99,-308.22"/>
<text text-anchor="middle" x="4635.09" y="-305.65" font-family="Times,serif" font-size="14.00">Loss of closeting/escort chain</text>
</g>
<!-- 45015&#45;&gt;44619 -->
<g id="edge74" class="edge">
<title>45015&#45;&gt;44619</title>
<path fill="none" stroke="#dddddd" d="M4535.42,-248.5C4592.89,-246.48 4658.18,-249.1 4716.09,-263.45 4724.77,-265.6 4733.49,-268.34 4742.14,-271.5"/>
<polygon fill="#dddddd" stroke="#dddddd" points="4740.65,-274.67 4751.24,-275.01 4743.17,-268.14 4740.65,-274.67"/>
<text text-anchor="middle" x="4635.09" y="-266.65" font-family="Times,serif" font-size="14.00">Complete lock removed</text>
</g>
<!-- 45015&#45;&gt;44619 -->
<g id="edge75" class="edge">
<title>45015&#45;&gt;44619</title>
<path fill="none" stroke="#dddddd" d="M4530.24,-221.05C4589.35,-210.64 4657.12,-207.56 4716.09,-227.45 4730.87,-232.44 4745.35,-239.47 4759.16,-247.63"/>
<polygon fill="#dddddd" stroke="#dddddd" points="4756.97,-250.39 4767.32,-252.66 4760.64,-244.44 4756.97,-250.39"/>
<text text-anchor="middle" x="4635.09" y="-230.65" font-family="Times,serif" font-size="14.00">Part lock removed</text>
</g>
<!-- 45015&#45;&gt;44866 -->
<g id="edge77" class="edge">
<title>45015&#45;&gt;44866</title>
<path fill="none" stroke="#dddddd" d="M4528.09,-214.56C4536.83,-212.44 4545.54,-210.54 4554.09,-208.95 4632.86,-194.29 4654,-201.26 4734.09,-198.95 5075.47,-189.14 5482.18,-193.13 5656.01,-195.58"/>
<polygon fill="#dddddd" stroke="#dddddd" points="5655.81,-199.08 5665.86,-195.72 5655.91,-192.08 5655.81,-199.08"/>
<text text-anchor="middle" x="5086.01" y="-196.8" font-family="Times,serif" font-size="14.00">Locks picked</text>
</g>
<!-- 45015&#45;&gt;44866 -->
<g id="edge78" class="edge">
<title>45015&#45;&gt;44866</title>
<path fill="none" stroke="#dddddd" d="M4523.35,-203.07C4533.63,-199.94 4543.95,-197.18 4554.09,-194.95 4958.89,-106.24 5460.11,-158.06 5656.81,-184.43"/>
<polygon fill="#dddddd" stroke="#dddddd" points="5656.32,-187.89 5666.7,-185.77 5657.26,-180.96 5656.32,-187.89"/>
<text text-anchor="middle" x="5086.01" y="-148.79" font-family="Times,serif" font-size="14.00">Electronics overcome</text>
</g>
<!-- 45015&#45;&gt;44866 -->
<g id="edge79" class="edge">
<title>45015&#45;&gt;44866</title>
<path fill="none" stroke="#dddddd" d="M4512.08,-181.23C4525.92,-174.61 4540.06,-168.67 4554.09,-163.95 4630.47,-138.24 4653.83,-149.25 4734.09,-141.95 5075.98,-110.87 5165.06,-106.38 5506.51,-141.95 5570.65,-148.63 5587.24,-149.18 5649.76,-164.95 5653.48,-165.89 5657.26,-166.91 5661.06,-168"/>
<polygon fill="#dddddd" stroke="#dddddd" points="5659.77,-171.27 5670.35,-170.77 5661.77,-164.56 5659.77,-171.27"/>
<text text-anchor="middle" x="5086.01" y="-122.5" font-family="Times,serif" font-size="14.00">Other</text>
</g>
</g>
</svg>
