<?xml version="1.0" encoding="UTF-8" standalone="no"?>
<!DOCTYPE svg PUBLIC "-//W3C//DTD SVG 1.1//EN"
 "http://www.w3.org/Graphics/SVG/1.1/DTD/svg11.dtd">
<!-- Generated by graphviz version 12.1.1 (20240910.0053)
 -->
<!-- Title: OLD_TEMPORARY_RELEASE_FAILURE2 Pages: 1 -->
<svg width="12916pt" height="1414pt"
 viewBox="0.00 0.00 12916.16 1413.90" xmlns="http://www.w3.org/2000/svg" xmlns:xlink="http://www.w3.org/1999/xlink">
<g id="graph0" class="graph" transform="scale(1 1) rotate(0) translate(4 1409.9)">
<title>OLD_TEMPORARY_RELEASE_FAILURE2</title>
<polygon fill="white" stroke="none" points="-4,4 -4,-1409.9 12912.16,-1409.9 12912.16,4 -4,4"/>
<!-- START_NODE -->
<g id="node1" class="node">
<title>START_NODE</title>
</g>
<!-- 55179 -->
<g id="node2" class="node">
<title>55179</title>
<ellipse fill="#dddddd" stroke="#dddddd" cx="342.71" cy="-298.55" rx="229.46" ry="229.46"/>
<text text-anchor="middle" x="342.71" y="-293.5" font-family="Times,serif" font-size="14.00">What was the main management outcome of the incident?</text>
</g>
<!-- START_NODE&#45;&gt;55179 -->
<g id="edge1" class="edge">
<title>START_NODE&#45;&gt;55179</title>
<path fill="none" stroke="black" d="M53.94,-298.55C66.46,-298.55 82.79,-298.55 101.32,-298.55"/>
<polygon fill="black" stroke="black" points="101.28,-302.05 111.28,-298.55 101.28,-295.05 101.28,-302.05"/>
<text text-anchor="middle" x="83.62" y="-301.75" font-family="Times,serif" font-size="14.00">start</text>
</g>
<!-- 55180 -->
<g id="node4" class="node">
<title>55180</title>
<ellipse fill="#dddddd" stroke="#dddddd" cx="1009.77" cy="-298.55" rx="202.85" ry="202.85"/>
<text text-anchor="middle" x="1009.77" y="-293.5" font-family="Times,serif" font-size="14.00">Is any member of staff facing disciplinary charges?</text>
</g>
<!-- 55179&#45;&gt;55180 -->
<g id="edge2" class="edge">
<title>55179&#45;&gt;55180</title>
<path fill="none" stroke="#dddddd" d="M560.57,-371.15C570.51,-373.22 580.41,-375.05 590.17,-376.55 677.47,-390.04 701.87,-391.54 788.92,-376.55 795.38,-375.44 801.9,-374.16 808.44,-372.73"/>
<polygon fill="#dddddd" stroke="#dddddd" points="809.04,-376.19 818,-370.54 807.47,-369.36 809.04,-376.19"/>
<text text-anchor="middle" x="689.55" y="-390.44" font-family="Times,serif" font-size="14.00">No further action</text>
</g>
<!-- 55179&#45;&gt;55180 -->
<g id="edge3" class="edge">
<title>55179&#45;&gt;55180</title>
<path fill="none" stroke="#dddddd" d="M569.52,-334.76C576.48,-335.43 583.37,-336.03 590.17,-336.55 678.25,-343.3 700.91,-344.1 788.92,-336.55 792.03,-336.29 795.15,-336 798.29,-335.7"/>
<polygon fill="#dddddd" stroke="#dddddd" points="798.65,-339.18 808.24,-334.66 797.93,-332.21 798.65,-339.18"/>
<text text-anchor="middle" x="689.55" y="-345.12" font-family="Times,serif" font-size="14.00">IEP regression</text>
</g>
<!-- 55179&#45;&gt;55180 -->
<g id="edge4" class="edge">
<title>55179&#45;&gt;55180</title>
<path fill="none" stroke="#dddddd" d="M572.59,-298.55C644.72,-298.55 724.08,-298.55 795.11,-298.55"/>
<polygon fill="#dddddd" stroke="#dddddd" points="794.93,-302.05 804.93,-298.55 794.93,-295.05 794.93,-302.05"/>
<text text-anchor="middle" x="689.55" y="-301.75" font-family="Times,serif" font-size="14.00">Placed on report/adjudication referal</text>
</g>
<!-- 55179&#45;&gt;55180 -->
<g id="edge5" class="edge">
<title>55179&#45;&gt;55180</title>
<path fill="none" stroke="#dddddd" d="M571.61,-278.92C577.86,-278.6 584.06,-278.31 590.17,-278.05 678.43,-274.39 700.68,-273.95 788.92,-278.05 791.31,-278.17 793.72,-278.28 796.14,-278.41"/>
<polygon fill="#dddddd" stroke="#dddddd" points="795.86,-281.9 806.03,-278.95 796.24,-274.91 795.86,-281.9"/>
<text text-anchor="middle" x="689.55" y="-281.25" font-family="Times,serif" font-size="14.00">Police referral</text>
</g>
<!-- 55179&#45;&gt;55180 -->
<g id="edge6" class="edge">
<title>55179&#45;&gt;55180</title>
<path fill="none" stroke="#dddddd" d="M568.81,-257.18C576,-256.38 583.14,-255.67 590.17,-255.05 678.17,-247.35 701.01,-246.44 788.92,-255.05 792.39,-255.39 795.89,-255.76 799.4,-256.16"/>
<polygon fill="#dddddd" stroke="#dddddd" points="798.85,-259.62 809.19,-257.34 799.68,-252.67 798.85,-259.62"/>
<text text-anchor="middle" x="689.55" y="-258.25" font-family="Times,serif" font-size="14.00">CPS referral</text>
</g>
<!-- 55179&#45;&gt;55180 -->
<g id="edge7" class="edge">
<title>55179&#45;&gt;55180</title>
<path fill="none" stroke="#dddddd" d="M562.75,-232.55C571.97,-230.84 581.14,-229.32 590.17,-228.05 677.65,-215.79 701.65,-214.4 788.92,-228.05 794.59,-228.94 800.32,-229.95 806.07,-231.06"/>
<polygon fill="#dddddd" stroke="#dddddd" points="805.19,-234.46 815.68,-233.03 806.59,-227.6 805.19,-234.46"/>
<text text-anchor="middle" x="689.55" y="-231.25" font-family="Times,serif" font-size="14.00">Prosecution referral</text>
</g>
<!-- END_NODE -->
<g id="node3" class="node">
<title>END_NODE</title>
<ellipse fill="none" stroke="black" cx="12874.3" cy="-921.55" rx="29.86" ry="29.86"/>
<ellipse fill="none" stroke="black" cx="12874.3" cy="-921.55" rx="33.86" ry="33.86"/>
<text text-anchor="middle" x="12874.3" y="-916.5" font-family="Times,serif" font-size="14.00">END</text>
</g>
<!-- 55181 -->
<g id="node5" class="node">
<title>55181</title>
<ellipse fill="#dddddd" stroke="#dddddd" cx="1407.22" cy="-298.55" rx="138.36" ry="138.36"/>
<text text-anchor="middle" x="1407.22" y="-293.5" font-family="Times,serif" font-size="14.00">Was ROTL standard or restricted?</text>
</g>
<!-- 55180&#45;&gt;55181 -->
<g id="edge8" class="edge">
<title>55180&#45;&gt;55181</title>
<path fill="none" stroke="#dddddd" d="M1212.84,-298.55C1227.7,-298.55 1242.53,-298.55 1256.99,-298.55"/>
<polygon fill="#dddddd" stroke="#dddddd" points="1256.98,-302.05 1266.98,-298.55 1256.98,-295.05 1256.98,-302.05"/>
<text text-anchor="middle" x="1240.74" y="-301.75" font-family="Times,serif" font-size="14.00">Yes</text>
</g>
<!-- 55180&#45;&gt;55181 -->
<g id="edge9" class="edge">
<title>55180&#45;&gt;55181</title>
<path fill="none" stroke="#dddddd" d="M1211.82,-276.91C1225.03,-276.87 1238.13,-277.22 1250.86,-278.05 1253.4,-278.22 1255.96,-278.4 1258.53,-278.6"/>
<polygon fill="#dddddd" stroke="#dddddd" points="1258.16,-282.08 1268.41,-279.42 1258.73,-275.1 1258.16,-282.08"/>
<text text-anchor="middle" x="1240.74" y="-281.25" font-family="Times,serif" font-size="14.00">No</text>
</g>
<!-- 55182 -->
<g id="node6" class="node">
<title>55182</title>
<ellipse fill="#dddddd" stroke="#dddddd" cx="1861.8" cy="-298.55" rx="186.47" ry="186.47"/>
<text text-anchor="middle" x="1861.8" y="-293.5" font-family="Times,serif" font-size="14.00">What type of temporary licence was breached?</text>
</g>
<!-- 55181&#45;&gt;55182 -->
<g id="edge10" class="edge">
<title>55181&#45;&gt;55182</title>
<path fill="none" stroke="#dddddd" d="M1545.85,-298.55C1582.98,-298.55 1623.88,-298.55 1663.57,-298.55"/>
<polygon fill="#dddddd" stroke="#dddddd" points="1663.49,-302.05 1673.49,-298.55 1663.49,-295.05 1663.49,-302.05"/>
<text text-anchor="middle" x="1610.46" y="-301.75" font-family="Times,serif" font-size="14.00">Standard ROTL</text>
</g>
<!-- 55181&#45;&gt;55182 -->
<g id="edge11" class="edge">
<title>55181&#45;&gt;55182</title>
<path fill="none" stroke="#dddddd" d="M1544.53,-279.54C1550.96,-278.97 1557.34,-278.46 1563.58,-278.05 1596.27,-275.91 1630.98,-276.08 1664.71,-277.55"/>
<polygon fill="#dddddd" stroke="#dddddd" points="1664.44,-281.04 1674.59,-278.02 1664.77,-274.05 1664.44,-281.04"/>
<text text-anchor="middle" x="1610.46" y="-281.25" font-family="Times,serif" font-size="14.00">Restricted ROTL</text>
</g>
<!-- 55183 -->
<g id="node7" class="node">
<title>55183</title>
<ellipse fill="#dddddd" stroke="#dddddd" cx="2435.25" cy="-298.55" rx="208.48" ry="208.48"/>
<text text-anchor="middle" x="2435.25" y="-293.5" font-family="Times,serif" font-size="14.00">What was the specific purpose of temporary release?</text>
</g>
<!-- 55182&#45;&gt;55183 -->
<g id="edge12" class="edge">
<title>55182&#45;&gt;55183</title>
<path fill="none" stroke="#dddddd" d="M2040.84,-352.33C2049.4,-353.96 2057.9,-355.39 2066.27,-356.55 2128.99,-365.32 2145.94,-364.51 2208.77,-356.55 2213.39,-355.97 2218.06,-355.32 2222.75,-354.61"/>
<polygon fill="#dddddd" stroke="#dddddd" points="2222.93,-358.13 2232.25,-353.1 2221.82,-351.22 2222.93,-358.13"/>
<text text-anchor="middle" x="2137.52" y="-366.03" font-family="Times,serif" font-size="14.00">Resettlement day</text>
</g>
<!-- 55182&#45;&gt;55183 -->
<g id="edge13" class="edge">
<title>55182&#45;&gt;55183</title>
<path fill="none" stroke="#dddddd" d="M2047.95,-315.63C2054.13,-315.98 2060.25,-316.29 2066.27,-316.55 2129.54,-319.35 2145.49,-319.08 2208.77,-316.55 2211.15,-316.46 2213.53,-316.36 2215.94,-316.25"/>
<polygon fill="#dddddd" stroke="#dddddd" points="2215.92,-319.76 2225.74,-315.79 2215.59,-312.77 2215.92,-319.76"/>
<text text-anchor="middle" x="2137.52" y="-321.75" font-family="Times,serif" font-size="14.00">Resettlement overnight</text>
</g>
<!-- 55182&#45;&gt;55183 -->
<g id="edge14" class="edge">
<title>55182&#45;&gt;55183</title>
<path fill="none" stroke="#dddddd" d="M2048.54,-296.18C2054.52,-296.13 2060.44,-296.09 2066.27,-296.05 2129.6,-295.67 2145.44,-295.7 2208.77,-296.05 2210.84,-296.07 2212.93,-296.08 2215.03,-296.09"/>
<polygon fill="#dddddd" stroke="#dddddd" points="2214.78,-299.59 2224.8,-296.15 2214.82,-292.59 2214.78,-299.59"/>
<text text-anchor="middle" x="2137.52" y="-299.25" font-family="Times,serif" font-size="14.00">Childcare resettlement</text>
</g>
<!-- 55182&#45;&gt;55183 -->
<g id="edge15" class="edge">
<title>55182&#45;&gt;55183</title>
<path fill="none" stroke="#dddddd" d="M2047.37,-276.3C2053.74,-275.83 2060.06,-275.41 2066.27,-275.05 2129.5,-271.42 2145.52,-271.77 2208.77,-275.05 2211.28,-275.19 2213.81,-275.32 2216.36,-275.47"/>
<polygon fill="#dddddd" stroke="#dddddd" points="2215.87,-278.95 2226.07,-276.07 2216.3,-271.96 2215.87,-278.95"/>
<text text-anchor="middle" x="2137.52" y="-278.25" font-family="Times,serif" font-size="14.00">Special purpose (medical)</text>
</g>
<!-- 55182&#45;&gt;55183 -->
<g id="edge16" class="edge">
<title>55182&#45;&gt;55183</title>
<path fill="none" stroke="#dddddd" d="M2043.55,-255.06C2051.2,-253.91 2058.8,-252.9 2066.27,-252.05 2129.2,-244.95 2145.76,-245.63 2208.77,-252.05 2212.45,-252.43 2216.15,-252.84 2219.88,-253.28"/>
<polygon fill="#dddddd" stroke="#dddddd" points="2219.27,-256.73 2229.62,-254.5 2220.14,-249.78 2219.27,-256.73"/>
<text text-anchor="middle" x="2137.52" y="-255.25" font-family="Times,serif" font-size="14.00">Special purpose (other)</text>
</g>
<!-- 55184 -->
<g id="node8" class="node">
<title>55184</title>
<ellipse fill="#dddddd" stroke="#dddddd" cx="3367.53" cy="-298.55" rx="298.55" ry="298.55"/>
<text text-anchor="middle" x="3367.53" y="-293.5" font-family="Times,serif" font-size="14.00">Were UAL contingency plans (including notification to the police) activated?</text>
</g>
<!-- 55183&#45;&gt;55184 -->
<g id="edge17" class="edge">
<title>55183&#45;&gt;55184</title>
<path fill="none" stroke="#dddddd" d="M2607.9,-416.27C2625.52,-424.44 2643.61,-431.45 2661.72,-436.55 2828.24,-483.47 2881.64,-471.96 3050.97,-436.55 3062.62,-434.12 3074.37,-431.23 3086.13,-427.97"/>
<polygon fill="#dddddd" stroke="#dddddd" points="3086.82,-431.41 3095.47,-425.29 3084.89,-424.68 3086.82,-431.41"/>
<text text-anchor="middle" x="2856.35" y="-470.77" font-family="Times,serif" font-size="14.00">Court / legal / police</text>
</g>
<!-- 55183&#45;&gt;55184 -->
<g id="edge18" class="edge">
<title>55183&#45;&gt;55184</title>
<path fill="none" stroke="#dddddd" d="M2624.48,-386.93C2636.91,-390.72 2649.39,-393.99 2661.72,-396.55 2746.41,-414.16 2965.45,-409.53 3050.97,-396.55 3057.95,-395.5 3064.99,-394.31 3072.06,-393.02"/>
<polygon fill="#dddddd" stroke="#dddddd" points="3072.55,-396.49 3081.72,-391.18 3071.24,-389.61 3072.55,-396.49"/>
<text text-anchor="middle" x="2856.35" y="-411.29" font-family="Times,serif" font-size="14.00">Maintaining family ties</text>
</g>
<!-- 55183&#45;&gt;55184 -->
<g id="edge19" class="edge">
<title>55183&#45;&gt;55184</title>
<path fill="none" stroke="#dddddd" d="M2636.75,-352.86C2645.15,-354.27 2653.5,-355.51 2661.72,-356.55 2833.35,-378.28 2878.69,-372.26 3050.97,-356.55 3054.91,-356.2 3058.86,-355.81 3062.84,-355.41"/>
<polygon fill="#dddddd" stroke="#dddddd" points="3063.02,-358.91 3072.59,-354.36 3062.28,-351.95 3063.02,-358.91"/>
<text text-anchor="middle" x="2856.35" y="-373.88" font-family="Times,serif" font-size="14.00">Other compassionate reason (emergency child care, attend funeral etc.)</text>
</g>
<!-- 55183&#45;&gt;55184 -->
<g id="edge20" class="edge">
<title>55183&#45;&gt;55184</title>
<path fill="none" stroke="#dddddd" d="M2643.24,-315.72C2649.47,-316.03 2655.64,-316.31 2661.72,-316.55 2834.59,-323.44 2878.04,-321.48 3050.97,-316.55 3053.24,-316.49 3055.51,-316.42 3057.79,-316.35"/>
<polygon fill="#dddddd" stroke="#dddddd" points="3057.85,-319.85 3067.74,-316.03 3057.63,-312.86 3057.85,-319.85"/>
<text text-anchor="middle" x="2856.35" y="-324.22" font-family="Times,serif" font-size="14.00">Other rdr linked to sentence plan</text>
</g>
<!-- 55183&#45;&gt;55184 -->
<g id="edge21" class="edge">
<title>55183&#45;&gt;55184</title>
<path fill="none" stroke="#dddddd" d="M2644.18,-296.16C2650.09,-296.12 2655.95,-296.09 2661.72,-296.05 2834.72,-295.1 2877.97,-295.37 3050.97,-296.05 3053.09,-296.06 3055.21,-296.07 3057.35,-296.08"/>
<polygon fill="#dddddd" stroke="#dddddd" points="3057.28,-299.58 3067.3,-296.13 3057.31,-292.58 3057.28,-299.58"/>
<text text-anchor="middle" x="2856.35" y="-299.25" font-family="Times,serif" font-size="14.00">Training or education</text>
</g>
<!-- 55183&#45;&gt;55184 -->
<g id="edge22" class="edge">
<title>55183&#45;&gt;55184</title>
<path fill="none" stroke="#dddddd" d="M2642.91,-276.16C2649.25,-275.75 2655.53,-275.38 2661.72,-275.05 2834.49,-266.08 2878.09,-268.63 3050.97,-275.05 3053.39,-275.14 3055.81,-275.24 3058.24,-275.34"/>
<polygon fill="#dddddd" stroke="#dddddd" points="3058.03,-278.83 3068.17,-275.75 3058.33,-271.84 3058.03,-278.83"/>
<text text-anchor="middle" x="2856.35" y="-278.25" font-family="Times,serif" font-size="14.00">Medical</text>
</g>
<!-- 55183&#45;&gt;55184 -->
<g id="edge23" class="edge">
<title>55183&#45;&gt;55184</title>
<path fill="none" stroke="#dddddd" d="M2638.72,-251.94C2646.46,-250.85 2654.15,-249.88 2661.72,-249.05 2833.71,-230.4 2878.5,-235.61 3050.97,-249.05 3054.28,-249.31 3057.6,-249.58 3060.94,-249.87"/>
<polygon fill="#dddddd" stroke="#dddddd" points="3060.55,-253.35 3070.83,-250.76 3061.18,-246.38 3060.55,-253.35"/>
<text text-anchor="middle" x="2856.35" y="-252.25" font-family="Times,serif" font-size="14.00">Paid and unpaid work placements</text>
</g>
<!-- 55183&#45;&gt;55184 -->
<g id="edge24" class="edge">
<title>55183&#45;&gt;55184</title>
<path fill="none" stroke="#dddddd" d="M2630,-222.86C2640.64,-220.21 2651.26,-217.91 2661.72,-216.05 2832.07,-185.87 2879.38,-194 3050.97,-216.05 3056.62,-216.78 3062.31,-217.58 3068.03,-218.44"/>
<polygon fill="#dddddd" stroke="#dddddd" points="3067.15,-221.84 3077.57,-219.93 3068.24,-214.93 3067.15,-221.84"/>
<text text-anchor="middle" x="2856.35" y="-219.25" font-family="Times,serif" font-size="14.00">Marriage or civil partnership of the offender</text>
</g>
<!-- 55183&#45;&gt;55184 -->
<g id="edge25" class="edge">
<title>55183&#45;&gt;55184</title>
<path fill="none" stroke="#dddddd" d="M2614.52,-191.65C2630.11,-185.41 2645.96,-180.06 2661.72,-176.05 2829.39,-133.45 2880.93,-144.21 3050.97,-176.05 3060.63,-177.86 3070.36,-179.96 3080.13,-182.29"/>
<polygon fill="#dddddd" stroke="#dddddd" points="3079.16,-185.66 3089.7,-184.66 3080.84,-178.86 3079.16,-185.66"/>
<text text-anchor="middle" x="2856.35" y="-179.25" font-family="Times,serif" font-size="14.00">Inter&#45;prison transfers</text>
</g>
<!-- 55185 -->
<g id="node9" class="node">
<title>55185</title>
<ellipse fill="#dddddd" stroke="#dddddd" cx="3902.66" cy="-490.55" rx="180.33" ry="180.33"/>
<text text-anchor="middle" x="3902.66" y="-485.5" font-family="Times,serif" font-size="14.00">Why were UAL contingency plans activated?</text>
</g>
<!-- 55184&#45;&gt;55185 -->
<g id="edge26" class="edge">
<title>55184&#45;&gt;55185</title>
<path fill="none" stroke="#dddddd" d="M3648.75,-399.47C3673.58,-408.42 3698.25,-417.3 3721.89,-425.81"/>
<polygon fill="#dddddd" stroke="#dddddd" points="3720.66,-429.09 3731.26,-429.19 3723.04,-422.51 3720.66,-429.09"/>
<text text-anchor="middle" x="3694.21" y="-420.6" font-family="Times,serif" font-size="14.00">Yes</text>
</g>
<!-- 55188 -->
<g id="node10" class="node">
<title>55188</title>
<ellipse fill="#dddddd" stroke="#dddddd" cx="5810.27" cy="-483.55" rx="347.69" ry="347.69"/>
<text text-anchor="middle" x="5810.27" y="-478.5" font-family="Times,serif" font-size="14.00">Was the prisoner arrested for an offence allegedly committed whilst temporarily released?</text>
</g>
<!-- 55184&#45;&gt;55188 -->
<g id="edge27" class="edge">
<title>55184&#45;&gt;55188</title>
<path fill="none" stroke="#dddddd" d="M3666.32,-286.46C3742.99,-284.21 3825.38,-282.55 3901.66,-282.55 3901.66,-282.55 3901.66,-282.55 4975.93,-282.55 5186.73,-282.55 5240.8,-301.63 5444.58,-355.55 5453.46,-357.9 5462.43,-360.37 5471.46,-362.93"/>
<polygon fill="#dddddd" stroke="#dddddd" points="5470.46,-366.28 5481.04,-365.68 5472.4,-359.56 5470.46,-366.28"/>
<text text-anchor="middle" x="4496.63" y="-285.75" font-family="Times,serif" font-size="14.00">No</text>
</g>
<!-- 55186 -->
<g id="node11" class="node">
<title>55186</title>
<ellipse fill="#dddddd" stroke="#dddddd" cx="4496.63" cy="-515.55" rx="183.4" ry="183.4"/>
<text text-anchor="middle" x="4496.63" y="-510.5" font-family="Times,serif" font-size="14.00">Has the prisoner surrendered/been recaptured?</text>
</g>
<!-- 55185&#45;&gt;55186 -->
<g id="edge28" class="edge">
<title>55185&#45;&gt;55186</title>
<path fill="none" stroke="#dddddd" d="M4082.99,-499.74C4089.06,-500.02 4095.07,-500.29 4100.99,-500.55 4166.25,-503.45 4237.6,-506.27 4301.47,-508.66"/>
<polygon fill="#dddddd" stroke="#dddddd" points="4301.25,-512.16 4311.37,-509.03 4301.51,-505.16 4301.25,-512.16"/>
<text text-anchor="middle" x="4198.11" y="-511.63" font-family="Times,serif" font-size="14.00">Apparent failure to return</text>
</g>
<!-- 55185&#45;&gt;55186 -->
<g id="edge29" class="edge">
<title>55185&#45;&gt;55186</title>
<path fill="none" stroke="#dddddd" d="M4082.77,-477.15C4149.56,-474.42 4225.97,-473.97 4295.24,-480.05 4298.31,-480.32 4301.4,-480.62 4304.51,-480.93"/>
<polygon fill="#dddddd" stroke="#dddddd" points="4304.03,-484.4 4314.34,-481.99 4304.78,-477.44 4304.03,-484.4"/>
<text text-anchor="middle" x="4198.11" y="-483.25" font-family="Times,serif" font-size="14.00">Revocation of the prisoner&#39;s licence</text>
</g>
<!-- 55189 -->
<g id="node13" class="node">
<title>55189</title>
<ellipse fill="#dddddd" stroke="#dddddd" cx="6557.8" cy="-839.55" rx="343.59" ry="343.59"/>
<text text-anchor="middle" x="6557.8" y="-834.5" font-family="Times,serif" font-size="14.00">Has the prisoner been charged with any offence (include the offence of failure to return)?</text>
</g>
<!-- 55188&#45;&gt;55189 -->
<g id="edge40" class="edge">
<title>55188&#45;&gt;55189</title>
<path fill="none" stroke="#dddddd" d="M6124.47,-633.11C6161.77,-650.92 6199.89,-669.12 6237.27,-686.98"/>
<polygon fill="#dddddd" stroke="#dddddd" points="6235.38,-689.95 6245.91,-691.1 6238.39,-683.63 6235.38,-689.95"/>
<text text-anchor="middle" x="6186.08" y="-664.75" font-family="Times,serif" font-size="14.00">Yes</text>
</g>
<!-- 55193 -->
<g id="node14" class="node">
<title>55193</title>
<ellipse fill="#dddddd" stroke="#dddddd" cx="9370.47" cy="-784.55" rx="390.68" ry="390.68"/>
<text text-anchor="middle" x="9370.47" y="-779.5" font-family="Times,serif" font-size="14.00">Was any part of the failure failing to comply with any other licence conditions (standard or bespoke)?</text>
</g>
<!-- 55188&#45;&gt;55193 -->
<g id="edge41" class="edge">
<title>55188&#45;&gt;55193</title>
<path fill="none" stroke="#dddddd" d="M6157.83,-473.03C6283.48,-470.03 6426.53,-467.55 6556.8,-467.55 6556.8,-467.55 6556.8,-467.55 8537.12,-467.55 8647.85,-467.55 8678.94,-456.58 8785.54,-486.55 8865.62,-509.07 8947.58,-543.03 9023.81,-580.05"/>
<polygon fill="#dddddd" stroke="#dddddd" points="9022.16,-583.14 9032.68,-584.39 9025.24,-576.85 9022.16,-583.14"/>
<text text-anchor="middle" x="7594.56" y="-470.75" font-family="Times,serif" font-size="14.00">No</text>
</g>
<!-- 55186&#45;&gt;55188 -->
<g id="edge31" class="edge">
<title>55186&#45;&gt;55188</title>
<path fill="none" stroke="#dddddd" d="M4654.54,-609.76C4700.55,-632.63 4752.04,-653.86 4802.28,-665.55 5080.52,-730.34 5167.45,-709.92 5444.58,-640.55 5457.12,-637.42 5469.78,-633.9 5482.47,-630.07"/>
<polygon fill="#dddddd" stroke="#dddddd" points="5483.17,-633.51 5491.69,-627.22 5481.1,-626.82 5483.17,-633.51"/>
<text text-anchor="middle" x="4974.93" y="-707.98" font-family="Times,serif" font-size="14.00">No</text>
</g>
<!-- 55187 -->
<g id="node12" class="node">
<title>55187</title>
<ellipse fill="#dddddd" stroke="#dddddd" cx="4974.93" cy="-483.55" rx="172.65" ry="172.65"/>
<text text-anchor="middle" x="4974.93" y="-478.5" font-family="Times,serif" font-size="14.00">How did prisoner surrender/get recaptured?</text>
</g>
<!-- 55186&#45;&gt;55187 -->
<g id="edge30" class="edge">
<title>55186&#45;&gt;55187</title>
<path fill="none" stroke="#dddddd" d="M4680.08,-503.3C4716.48,-500.85 4754.71,-498.28 4791.12,-495.84"/>
<polygon fill="#dddddd" stroke="#dddddd" points="4791.1,-499.35 4800.84,-495.18 4790.63,-492.36 4791.1,-499.35"/>
<text text-anchor="middle" x="4741.16" y="-504.67" font-family="Times,serif" font-size="14.00">Yes (enter date)</text>
</g>
<!-- 55187&#45;&gt;55188 -->
<g id="edge32" class="edge">
<title>55187&#45;&gt;55188</title>
<path fill="none" stroke="#dddddd" d="M5116.68,-582.52C5132.62,-590.23 5149.08,-596.84 5165.58,-601.55 5263.64,-629.57 5372.07,-623.43 5471.54,-603.65"/>
<polygon fill="#dddddd" stroke="#dddddd" points="5472.11,-607.1 5481.2,-601.67 5470.7,-600.25 5472.11,-607.1"/>
<text text-anchor="middle" x="5305.08" y="-623.72" font-family="Times,serif" font-size="14.00">Surrendered before midnight on return date</text>
</g>
<!-- 55187&#45;&gt;55188 -->
<g id="edge33" class="edge">
<title>55187&#45;&gt;55188</title>
<path fill="none" stroke="#dddddd" d="M5133.09,-553.52C5143.95,-556.69 5154.84,-559.43 5165.58,-561.55 5260.66,-580.34 5364.58,-577.67 5460.65,-565.85"/>
<polygon fill="#dddddd" stroke="#dddddd" points="5461.05,-569.33 5470.52,-564.6 5460.16,-562.39 5461.05,-569.33"/>
<text text-anchor="middle" x="5305.08" y="-578.37" font-family="Times,serif" font-size="14.00">Surrender to HMPS (after midnight on return date)</text>
</g>
<!-- 55187&#45;&gt;55188 -->
<g id="edge34" class="edge">
<title>55187&#45;&gt;55188</title>
<path fill="none" stroke="#dddddd" d="M5144.22,-519.07C5151.42,-520.02 5158.56,-520.86 5165.58,-521.55 5258.71,-530.79 5359.66,-529.95 5453.4,-524.61"/>
<polygon fill="#dddddd" stroke="#dddddd" points="5453.5,-528.11 5463.28,-524.03 5453.09,-521.13 5453.5,-528.11"/>
<text text-anchor="middle" x="5305.08" y="-531.78" font-family="Times,serif" font-size="14.00">Surrender to police (after midnight on return date)</text>
</g>
<!-- 55187&#45;&gt;55188 -->
<g id="edge35" class="edge">
<title>55187&#45;&gt;55188</title>
<path fill="none" stroke="#dddddd" d="M5147.84,-483.55C5235.54,-483.55 5345.66,-483.55 5450.74,-483.55"/>
<polygon fill="#dddddd" stroke="#dddddd" points="5450.7,-487.05 5460.7,-483.55 5450.7,-480.05 5450.7,-487.05"/>
<text text-anchor="middle" x="5305.08" y="-486.75" font-family="Times,serif" font-size="14.00">Arrest by HMPS</text>
</g>
<!-- 55187&#45;&gt;55188 -->
<g id="edge36" class="edge">
<title>55187&#45;&gt;55188</title>
<path fill="none" stroke="#dddddd" d="M5146.96,-464.21C5153.24,-463.77 5159.46,-463.38 5165.58,-463.05 5258.25,-458.06 5358.49,-458.46 5451.66,-461.28"/>
<polygon fill="#dddddd" stroke="#dddddd" points="5451.36,-464.77 5461.47,-461.59 5451.58,-457.78 5451.36,-464.77"/>
<text text-anchor="middle" x="5305.08" y="-466.25" font-family="Times,serif" font-size="14.00">Arrest by police</text>
</g>
<!-- 55187&#45;&gt;55188 -->
<g id="edge37" class="edge">
<title>55187&#45;&gt;55188</title>
<path fill="none" stroke="#dddddd" d="M5142.84,-442.17C5150.5,-440.97 5158.11,-439.92 5165.58,-439.05 5258.88,-428.26 5360.11,-429.3 5454.06,-435.6"/>
<polygon fill="#dddddd" stroke="#dddddd" points="5453.76,-439.08 5463.97,-436.28 5454.24,-432.1 5453.76,-439.08"/>
<text text-anchor="middle" x="5305.08" y="-442.25" font-family="Times,serif" font-size="14.00">Admitted to hospital for treatment</text>
</g>
<!-- 55187&#45;&gt;55188 -->
<g id="edge38" class="edge">
<title>55187&#45;&gt;55188</title>
<path fill="none" stroke="#dddddd" d="M5134.82,-417.18C5145.12,-414.38 5155.43,-411.95 5165.58,-410.05 5260.37,-392.33 5363.86,-394.72 5459.59,-405.74"/>
<polygon fill="#dddddd" stroke="#dddddd" points="5459.08,-409.2 5469.42,-406.91 5459.9,-402.25 5459.08,-409.2"/>
<text text-anchor="middle" x="5305.08" y="-413.25" font-family="Times,serif" font-size="14.00">Deceased</text>
</g>
<!-- 55187&#45;&gt;55188 -->
<g id="edge39" class="edge">
<title>55187&#45;&gt;55188</title>
<path fill="none" stroke="#dddddd" d="M5121.93,-392.21C5136.29,-386.11 5150.97,-380.88 5165.58,-377.05 5262.76,-351.64 5369.84,-356.61 5468.32,-373.96"/>
<polygon fill="#dddddd" stroke="#dddddd" points="5467.4,-377.35 5477.87,-375.69 5468.65,-370.46 5467.4,-377.35"/>
<text text-anchor="middle" x="5305.08" y="-380.25" font-family="Times,serif" font-size="14.00">Other (provide details)</text>
</g>
<!-- 55189&#45;&gt;55193 -->
<g id="edge43" class="edge">
<title>55189&#45;&gt;55193</title>
<path fill="none" stroke="#dddddd" d="M6852.87,-1016.44C6887.33,-1031.81 6922.68,-1045.37 6957.65,-1055.55 7072.67,-1089.06 7106.73,-1074.55 7226.54,-1074.55 7226.54,-1074.55 7226.54,-1074.55 8537.12,-1074.55 8728.78,-1074.55 8785.76,-1075.38 8961.79,-999.55 8979.61,-991.88 8997.71,-983.73 9015.89,-975.26"/>
<polygon fill="#dddddd" stroke="#dddddd" points="9017.35,-978.44 9024.92,-971.02 9014.38,-972.1 9017.35,-978.44"/>
<text text-anchor="middle" x="7961.06" y="-1077.75" font-family="Times,serif" font-size="14.00">No</text>
</g>
<!-- 55190 -->
<g id="node15" class="node">
<title>55190</title>
<ellipse fill="#dddddd" stroke="#dddddd" cx="7227.54" cy="-776.55" rx="269.89" ry="269.89"/>
<text text-anchor="middle" x="7227.54" y="-771.5" font-family="Times,serif" font-size="14.00">With what type of offence or offences has the prisoner been charged?</text>
</g>
<!-- 55189&#45;&gt;55190 -->
<g id="edge42" class="edge">
<title>55189&#45;&gt;55190</title>
<path fill="none" stroke="#dddddd" d="M6900.01,-807.36C6915.77,-805.88 6931.52,-804.39 6947.1,-802.92"/>
<polygon fill="#dddddd" stroke="#dddddd" points="6947.28,-806.42 6956.91,-801.99 6946.62,-799.45 6947.28,-806.42"/>
<text text-anchor="middle" x="6929.52" y="-807.48" font-family="Times,serif" font-size="14.00">Yes</text>
</g>
<!-- 55194 -->
<g id="node18" class="node">
<title>55194</title>
<ellipse fill="#dddddd" stroke="#dddddd" cx="9970.09" cy="-955.55" rx="152.69" ry="152.69"/>
<text text-anchor="middle" x="9970.09" y="-950.5" font-family="Times,serif" font-size="14.00">Please specify which conditions apply</text>
</g>
<!-- 55193&#45;&gt;55194 -->
<g id="edge66" class="edge">
<title>55193&#45;&gt;55194</title>
<path fill="none" stroke="#dddddd" d="M9746.56,-891.88C9769.22,-898.37 9791.26,-904.67 9812.1,-910.64"/>
<polygon fill="#dddddd" stroke="#dddddd" points="9810.86,-913.92 9821.43,-913.31 9812.78,-907.19 9810.86,-913.92"/>
<text text-anchor="middle" x="9789.27" y="-908.23" font-family="Times,serif" font-size="14.00">Yes</text>
</g>
<!-- 55195 -->
<g id="node19" class="node">
<title>55195</title>
<ellipse fill="#dddddd" stroke="#dddddd" cx="10559.41" cy="-921.55" rx="225.88" ry="225.88"/>
<text text-anchor="middle" x="10559.41" y="-916.5" font-family="Times,serif" font-size="14.00">Was failure due to matters beyond the prisoner’s control?</text>
</g>
<!-- 55193&#45;&gt;55195 -->
<g id="edge67" class="edge">
<title>55193&#45;&gt;55195</title>
<path fill="none" stroke="#dddddd" d="M9759.77,-747.63C9933.33,-742.94 10138.27,-753.97 10315.53,-808.55 10325.32,-811.57 10335.23,-814.9 10345.15,-818.48"/>
<polygon fill="#dddddd" stroke="#dddddd" points="10343.91,-821.75 10354.51,-821.92 10346.33,-815.18 10343.91,-821.75"/>
<text text-anchor="middle" x="9970.09" y="-769.09" font-family="Times,serif" font-size="14.00">No</text>
</g>
<!-- 55191 -->
<g id="node16" class="node">
<title>55191</title>
<ellipse fill="#dddddd" stroke="#dddddd" cx="7961.06" cy="-767.55" rx="269.38" ry="269.38"/>
<text text-anchor="middle" x="7961.06" y="-762.5" font-family="Times,serif" font-size="14.00">Has the prisoner been found guilty of offences committed on ROTL?</text>
</g>
<!-- 55190&#45;&gt;55191 -->
<g id="edge44" class="edge">
<title>55190&#45;&gt;55191</title>
<path fill="none" stroke="#dddddd" d="M7460.77,-913.03C7478.87,-919.98 7497.2,-925.97 7515.43,-930.55 7583.64,-947.7 7605.69,-948.55 7673.68,-930.55 7689.79,-926.29 7705.94,-920.89 7721.91,-914.66"/>
<polygon fill="#dddddd" stroke="#dddddd" points="7723,-918 7730.97,-911.02 7720.39,-911.5 7723,-918"/>
<text text-anchor="middle" x="7594.56" y="-946.93" font-family="Times,serif" font-size="14.00">Violence against the person</text>
</g>
<!-- 55190&#45;&gt;55191 -->
<g id="edge45" class="edge">
<title>55190&#45;&gt;55191</title>
<path fill="none" stroke="#dddddd" d="M7476.41,-881.57C7489.48,-885.05 7502.54,-888.09 7515.43,-890.55 7584.51,-903.78 7604.79,-904.72 7673.68,-890.55 7684.11,-888.41 7694.62,-885.87 7705.15,-883.01"/>
<polygon fill="#dddddd" stroke="#dddddd" points="7705.99,-886.41 7714.66,-880.32 7704.09,-879.67 7705.99,-886.41"/>
<text text-anchor="middle" x="7594.56" y="-904.03" font-family="Times,serif" font-size="14.00">Sexual offences</text>
</g>
<!-- 55190&#45;&gt;55191 -->
<g id="edge46" class="edge">
<title>55190&#45;&gt;55191</title>
<path fill="none" stroke="#dddddd" d="M7488.34,-846.61C7497.45,-848.1 7506.5,-849.42 7515.43,-850.55 7585.21,-859.41 7604.05,-860.44 7673.68,-850.55 7679.69,-849.7 7685.75,-848.75 7691.83,-847.72"/>
<polygon fill="#dddddd" stroke="#dddddd" points="7692.1,-851.23 7701.34,-846.03 7690.88,-844.33 7692.1,-851.23"/>
<text text-anchor="middle" x="7594.56" y="-860.79" font-family="Times,serif" font-size="14.00">Robbery</text>
</g>
<!-- 55190&#45;&gt;55191 -->
<g id="edge47" class="edge">
<title>55190&#45;&gt;55191</title>
<path fill="none" stroke="#dddddd" d="M7495.69,-810.07C7554.33,-813.77 7616.1,-814.85 7673.68,-810.55 7676.91,-810.31 7680.16,-810.06 7683.43,-809.79"/>
<polygon fill="#dddddd" stroke="#dddddd" points="7683.43,-813.3 7693.08,-808.94 7682.82,-806.33 7683.43,-813.3"/>
<text text-anchor="middle" x="7594.56" y="-816.53" font-family="Times,serif" font-size="14.00">Burglary</text>
</g>
<!-- 55190&#45;&gt;55191 -->
<g id="edge48" class="edge">
<title>55190&#45;&gt;55191</title>
<path fill="none" stroke="#dddddd" d="M7497.82,-773.24C7557.14,-772.51 7620.11,-771.74 7679.85,-771"/>
<polygon fill="#dddddd" stroke="#dddddd" points="7679.89,-774.5 7689.84,-770.88 7679.8,-767.5 7679.89,-774.5"/>
<text text-anchor="middle" x="7594.56" y="-776.06" font-family="Times,serif" font-size="14.00">Theft and handling</text>
</g>
<!-- 55190&#45;&gt;55191 -->
<g id="edge49" class="edge">
<title>55190&#45;&gt;55191</title>
<path fill="none" stroke="#dddddd" d="M7496.5,-751.98C7502.87,-751.64 7509.19,-751.33 7515.43,-751.05 7568.86,-748.69 7625.91,-748.8 7680.71,-750.24"/>
<polygon fill="#dddddd" stroke="#dddddd" points="7680.39,-753.73 7690.49,-750.51 7680.59,-746.73 7680.39,-753.73"/>
<text text-anchor="middle" x="7594.56" y="-754.25" font-family="Times,serif" font-size="14.00">Fraud and forgery</text>
</g>
<!-- 55190&#45;&gt;55191 -->
<g id="edge50" class="edge">
<title>55190&#45;&gt;55191</title>
<path fill="none" stroke="#dddddd" d="M7494.07,-731.02C7501.26,-730.29 7508.39,-729.63 7515.43,-729.05 7569.53,-724.61 7627.31,-725.48 7682.71,-729.08"/>
<polygon fill="#dddddd" stroke="#dddddd" points="7682.4,-732.57 7692.61,-729.77 7682.88,-725.59 7682.4,-732.57"/>
<text text-anchor="middle" x="7594.56" y="-732.25" font-family="Times,serif" font-size="14.00">Drug offences</text>
</g>
<!-- 55190&#45;&gt;55191 -->
<g id="edge51" class="edge">
<title>55190&#45;&gt;55191</title>
<path fill="none" stroke="#dddddd" d="M7489.16,-708.74C7498,-707.35 7506.77,-706.12 7515.43,-705.05 7585.24,-696.49 7603.76,-697.51 7673.68,-705.05 7677.92,-705.51 7682.18,-706 7686.46,-706.53"/>
<polygon fill="#dddddd" stroke="#dddddd" points="7685.99,-710 7696.36,-707.81 7686.89,-703.06 7685.99,-710"/>
<text text-anchor="middle" x="7594.56" y="-708.25" font-family="Times,serif" font-size="14.00">Motoring offences</text>
</g>
<!-- 55190&#45;&gt;55191 -->
<g id="edge52" class="edge">
<title>55190&#45;&gt;55191</title>
<path fill="none" stroke="#dddddd" d="M7481.59,-684.71C7492.95,-682.16 7504.27,-679.92 7515.43,-678.05 7584.81,-666.48 7604.15,-667.44 7673.68,-678.05 7680.28,-679.06 7686.94,-680.19 7693.62,-681.43"/>
<polygon fill="#dddddd" stroke="#dddddd" points="7692.94,-684.86 7703.43,-683.33 7694.27,-677.99 7692.94,-684.86"/>
<text text-anchor="middle" x="7594.56" y="-681.25" font-family="Times,serif" font-size="14.00">Failure to return from ROTL</text>
</g>
<!-- 55190&#45;&gt;55191 -->
<g id="edge53" class="edge">
<title>55190&#45;&gt;55191</title>
<path fill="none" stroke="#dddddd" d="M7471.57,-660.47C7486.22,-656.01 7500.9,-652.14 7515.43,-649.05 7584.23,-634.45 7604.7,-635.35 7673.68,-649.05 7683.57,-651.02 7693.54,-653.33 7703.53,-655.93"/>
<polygon fill="#dddddd" stroke="#dddddd" points="7702.34,-659.23 7712.91,-658.46 7704.17,-652.47 7702.34,-659.23"/>
<text text-anchor="middle" x="7594.56" y="-652.25" font-family="Times,serif" font-size="14.00">Other offence</text>
</g>
<!-- 55191&#45;&gt;55193 -->
<g id="edge55" class="edge">
<title>55191&#45;&gt;55193</title>
<path fill="none" stroke="#dddddd" d="M8165.39,-943.25C8203.51,-967.62 8244.67,-988.94 8286.7,-1002.55 8520.35,-1078.25 8791.26,-1023.62 9003.64,-950.14"/>
<polygon fill="#dddddd" stroke="#dddddd" points="9004.63,-953.5 9012.92,-946.9 9002.32,-946.89 9004.63,-953.5"/>
<text text-anchor="middle" x="8536.12" y="-1042.14" font-family="Times,serif" font-size="14.00">No</text>
</g>
<!-- 55192 -->
<g id="node17" class="node">
<title>55192</title>
<ellipse fill="#dddddd" stroke="#dddddd" cx="8536.12" cy="-744.55" rx="249.42" ry="249.42"/>
<text text-anchor="middle" x="8536.12" y="-739.5" font-family="Times,serif" font-size="14.00">What offence or offences has the prisoner been found guilty of?</text>
</g>
<!-- 55191&#45;&gt;55192 -->
<g id="edge54" class="edge">
<title>55191&#45;&gt;55192</title>
<path fill="none" stroke="#dddddd" d="M8230.55,-756.78C8245.4,-756.18 8260.31,-755.58 8275.12,-754.99"/>
<polygon fill="#dddddd" stroke="#dddddd" points="8275.06,-758.5 8284.91,-754.6 8274.78,-751.5 8275.06,-758.5"/>
<text text-anchor="middle" x="8258.57" y="-759.25" font-family="Times,serif" font-size="14.00">Yes</text>
</g>
<!-- 55192&#45;&gt;55193 -->
<g id="edge56" class="edge">
<title>55192&#45;&gt;55193</title>
<path fill="none" stroke="#dddddd" d="M8735.59,-894.56C8757.67,-905.87 8780.52,-915.57 8803.54,-922.55 8865.52,-941.35 8931.91,-942.11 8996.62,-932.68"/>
<polygon fill="#dddddd" stroke="#dddddd" points="8996.99,-936.16 9006.34,-931.17 8995.92,-929.24 8996.99,-936.16"/>
<text text-anchor="middle" x="8882.66" y="-941.74" font-family="Times,serif" font-size="14.00">Violence against the person</text>
</g>
<!-- 55192&#45;&gt;55193 -->
<g id="edge57" class="edge">
<title>55192&#45;&gt;55193</title>
<path fill="none" stroke="#dddddd" d="M8753.76,-867.14C8770.27,-873.25 8786.96,-878.52 8803.54,-882.55 8861.34,-896.64 8922.94,-898.83 8983.42,-893.92"/>
<polygon fill="#dddddd" stroke="#dddddd" points="8983.54,-897.42 8993.19,-893.05 8982.92,-890.45 8983.54,-897.42"/>
<text text-anchor="middle" x="8882.66" y="-899.49" font-family="Times,serif" font-size="14.00">Sexual offences</text>
</g>
<!-- 55192&#45;&gt;55193 -->
<g id="edge58" class="edge">
<title>55192&#45;&gt;55193</title>
<path fill="none" stroke="#dddddd" d="M8769,-835.2C8780.58,-838.04 8792.14,-840.52 8803.54,-842.55 8858.46,-852.34 8916.7,-854.98 8974.12,-853.15"/>
<polygon fill="#dddddd" stroke="#dddddd" points="8974.21,-856.65 8984.07,-852.79 8973.95,-849.66 8974.21,-856.65"/>
<text text-anchor="middle" x="8882.66" y="-856.89" font-family="Times,serif" font-size="14.00">Robbery</text>
</g>
<!-- 55192&#45;&gt;55193 -->
<g id="edge59" class="edge">
<title>55192&#45;&gt;55193</title>
<path fill="none" stroke="#dddddd" d="M8779.61,-799.62C8787.66,-800.72 8795.66,-801.71 8803.54,-802.55 8856.92,-808.3 8913.27,-810.77 8968.91,-811.11"/>
<polygon fill="#dddddd" stroke="#dddddd" points="8968.88,-814.61 8978.89,-811.14 8968.9,-807.61 8968.88,-814.61"/>
<text text-anchor="middle" x="8882.66" y="-814.22" font-family="Times,serif" font-size="14.00">Burglary</text>
</g>
<!-- 55192&#45;&gt;55193 -->
<g id="edge60" class="edge">
<title>55192&#45;&gt;55193</title>
<path fill="none" stroke="#dddddd" d="M8785.28,-761.55C8791.43,-761.9 8797.52,-762.23 8803.54,-762.55 8856.82,-765.39 8912.93,-768.01 8968.3,-770.38"/>
<polygon fill="#dddddd" stroke="#dddddd" points="8968.07,-773.88 8978.21,-770.8 8968.37,-766.88 8968.07,-773.88"/>
<text text-anchor="middle" x="8882.66" y="-773.18" font-family="Times,serif" font-size="14.00">Theft and handling</text>
</g>
<!-- 55192&#45;&gt;55193 -->
<g id="edge61" class="edge">
<title>55192&#45;&gt;55193</title>
<path fill="none" stroke="#dddddd" d="M8786,-742.15C8791.9,-742.11 8797.76,-742.08 8803.54,-742.05 8873.87,-741.72 8891.55,-738.4 8961.79,-742.05 8964.66,-742.2 8967.55,-742.36 8970.45,-742.52"/>
<polygon fill="#dddddd" stroke="#dddddd" points="8969.97,-746 8980.16,-743.08 8970.38,-739.01 8969.97,-746"/>
<text text-anchor="middle" x="8882.66" y="-745.25" font-family="Times,serif" font-size="14.00">Fraud and forgery</text>
</g>
<!-- 55192&#45;&gt;55193 -->
<g id="edge62" class="edge">
<title>55192&#45;&gt;55193</title>
<path fill="none" stroke="#dddddd" d="M8784.89,-721.01C8791.17,-720.66 8797.39,-720.34 8803.54,-720.05 8873.8,-716.83 8891.67,-714.54 8961.79,-720.05 8965.54,-720.35 8969.31,-720.66 8973.09,-720.98"/>
<polygon fill="#dddddd" stroke="#dddddd" points="8972.71,-724.46 8982.98,-721.86 8973.33,-717.49 8972.71,-724.46"/>
<text text-anchor="middle" x="8882.66" y="-723.25" font-family="Times,serif" font-size="14.00">Drug offences</text>
</g>
<!-- 55192&#45;&gt;55193 -->
<g id="edge63" class="edge">
<title>55192&#45;&gt;55193</title>
<path fill="none" stroke="#dddddd" d="M8781.51,-698.3C8788.93,-697.46 8796.28,-696.71 8803.54,-696.05 8873.59,-689.73 8891.86,-688.55 8961.79,-696.05 8967.08,-696.62 8972.4,-697.23 8977.75,-697.88"/>
<polygon fill="#dddddd" stroke="#dddddd" points="8976.91,-701.3 8987.27,-699.07 8977.78,-694.35 8976.91,-701.3"/>
<text text-anchor="middle" x="8882.66" y="-699.25" font-family="Times,serif" font-size="14.00">Motoring offences</text>
</g>
<!-- 55192&#45;&gt;55193 -->
<g id="edge64" class="edge">
<title>55192&#45;&gt;55193</title>
<path fill="none" stroke="#dddddd" d="M8775.74,-674.48C8785.09,-672.8 8794.38,-671.31 8803.54,-670.05 8862.32,-661.99 8924.18,-663.78 8984.54,-671.29"/>
<polygon fill="#dddddd" stroke="#dddddd" points="8983.92,-674.74 8994.29,-672.56 8984.83,-667.8 8983.92,-674.74"/>
<text text-anchor="middle" x="8882.66" y="-673.25" font-family="Times,serif" font-size="14.00">Failure to return from ROTL</text>
</g>
<!-- 55192&#45;&gt;55193 -->
<g id="edge65" class="edge">
<title>55192&#45;&gt;55193</title>
<path fill="none" stroke="#dddddd" d="M8767.82,-651.88C8779.8,-648.85 8791.75,-646.21 8803.54,-644.05 8865.19,-632.81 8930.13,-635.22 8993.14,-645.34"/>
<polygon fill="#dddddd" stroke="#dddddd" points="8992.54,-648.79 9002.98,-647 8993.7,-641.89 8992.54,-648.79"/>
<text text-anchor="middle" x="8882.66" y="-647.25" font-family="Times,serif" font-size="14.00">Other offence</text>
</g>
<!-- 55194&#45;&gt;55195 -->
<g id="edge68" class="edge">
<title>55194&#45;&gt;55195</title>
<path fill="none" stroke="#dddddd" d="M10095.91,-1042.21C10110.53,-1049.25 10125.65,-1055.29 10140.78,-1059.55 10215.53,-1080.64 10240.44,-1079.4 10315.53,-1059.55 10329.45,-1055.88 10343.4,-1051.2 10357.2,-1045.8"/>
<polygon fill="#dddddd" stroke="#dddddd" points="10358.36,-1049.1 10366.31,-1042.1 10355.73,-1042.61 10358.36,-1049.1"/>
<text text-anchor="middle" x="10228.15" y="-1078.1" font-family="Times,serif" font-size="14.00">Location</text>
</g>
<!-- 55194&#45;&gt;55195 -->
<g id="edge69" class="edge">
<title>55194&#45;&gt;55195</title>
<path fill="none" stroke="#dddddd" d="M10111.66,-1012.91C10121.41,-1015.54 10131.18,-1017.8 10140.78,-1019.55 10217.19,-1033.48 10239.28,-1034.36 10315.53,-1019.55 10323.83,-1017.94 10332.21,-1016.05 10340.61,-1013.92"/>
<polygon fill="#dddddd" stroke="#dddddd" points="10341.42,-1017.32 10350.19,-1011.38 10339.63,-1010.56 10341.42,-1017.32"/>
<text text-anchor="middle" x="10228.15" y="-1033.53" font-family="Times,serif" font-size="14.00">Alcohol/drugs (under influence)</text>
</g>
<!-- 55194&#45;&gt;55195 -->
<g id="edge70" class="edge">
<title>55194&#45;&gt;55195</title>
<path fill="none" stroke="#dddddd" d="M10121.33,-977.95C10127.89,-978.56 10134.4,-979.11 10140.78,-979.55 10218.25,-985.01 10238.39,-988.64 10315.53,-979.55 10319.94,-979.03 10324.39,-978.46 10328.87,-977.85"/>
<polygon fill="#dddddd" stroke="#dddddd" points="10329.16,-981.34 10338.55,-976.44 10328.15,-974.41 10329.16,-981.34"/>
<text text-anchor="middle" x="10228.15" y="-988.29" font-family="Times,serif" font-size="14.00">Gambling</text>
</g>
<!-- 55194&#45;&gt;55195 -->
<g id="edge71" class="edge">
<title>55194&#45;&gt;55195</title>
<path fill="none" stroke="#dddddd" d="M10122.89,-949.41C10182.91,-946.74 10252.49,-943.35 10315.53,-939.55 10317.78,-939.42 10320.05,-939.28 10322.33,-939.14"/>
<polygon fill="#dddddd" stroke="#dddddd" points="10322.52,-942.64 10332.28,-938.52 10322.08,-935.65 10322.52,-942.64"/>
<text text-anchor="middle" x="10228.15" y="-951.56" font-family="Times,serif" font-size="14.00">Finds (fill in separate report)</text>
</g>
<!-- 55194&#45;&gt;55195 -->
<g id="edge72" class="edge">
<title>55194&#45;&gt;55195</title>
<path fill="none" stroke="#dddddd" d="M10119.33,-921.77C10126.56,-920.72 10133.74,-919.8 10140.78,-919.05 10199.28,-912.83 10262.66,-910.81 10321.94,-910.94"/>
<polygon fill="#dddddd" stroke="#dddddd" points="10321.82,-914.44 10331.84,-910.99 10321.85,-907.44 10321.82,-914.44"/>
<text text-anchor="middle" x="10228.15" y="-922.25" font-family="Times,serif" font-size="14.00">Social media</text>
</g>
<!-- 55194&#45;&gt;55195 -->
<g id="edge73" class="edge">
<title>55194&#45;&gt;55195</title>
<path fill="none" stroke="#dddddd" d="M10111.14,-896.99C10121.06,-894.24 10131,-891.88 10140.78,-890.05 10200.08,-879.01 10264.8,-878.43 10325.21,-882.69"/>
<polygon fill="#dddddd" stroke="#dddddd" points="10324.69,-886.16 10334.93,-883.43 10325.22,-879.18 10324.69,-886.16"/>
<text text-anchor="middle" x="10228.15" y="-893.25" font-family="Times,serif" font-size="14.00">Bad behaviour</text>
</g>
<!-- 55194&#45;&gt;55195 -->
<g id="edge74" class="edge">
<title>55194&#45;&gt;55195</title>
<path fill="none" stroke="#dddddd" d="M10099.78,-874.47C10113.25,-868.64 10127.04,-863.65 10140.78,-860.05 10201.8,-844.06 10269.01,-845.78 10331.34,-855.1"/>
<polygon fill="#dddddd" stroke="#dddddd" points="10330.59,-858.53 10341.02,-856.63 10331.68,-851.61 10330.59,-858.53"/>
<text text-anchor="middle" x="10228.15" y="-863.25" font-family="Times,serif" font-size="14.00">Media contact</text>
</g>
<!-- 55194&#45;&gt;55195 -->
<g id="edge75" class="edge">
<title>55194&#45;&gt;55195</title>
<path fill="none" stroke="#dddddd" d="M10085.01,-854.27C10102.69,-843.15 10121.51,-833.53 10140.78,-827.05 10204.94,-805.5 10276.3,-811.24 10341.61,-827.57"/>
<polygon fill="#dddddd" stroke="#dddddd" points="10340.44,-830.88 10351,-830.02 10342.2,-824.11 10340.44,-830.88"/>
<text text-anchor="middle" x="10228.15" y="-830.25" font-family="Times,serif" font-size="14.00">Other (provide details)</text>
</g>
<!-- 55196 -->
<g id="node20" class="node">
<title>55196</title>
<ellipse fill="#dddddd" stroke="#dddddd" cx="11325.87" cy="-921.55" rx="484.34" ry="484.34"/>
<text text-anchor="middle" x="11325.87" y="-916.5" font-family="Times,serif" font-size="14.00">Have SFO team, offender manager in the community, victim liaison officer and employer (where appropriate) been informed?</text>
</g>
<!-- 55195&#45;&gt;55196 -->
<g id="edge76" class="edge">
<title>55195&#45;&gt;55196</title>
<path fill="none" stroke="#dddddd" d="M10785.64,-921.55C10800.17,-921.55 10815.06,-921.55 10830.22,-921.55"/>
<polygon fill="#dddddd" stroke="#dddddd" points="10829.79,-925.05 10839.79,-921.55 10829.79,-918.05 10829.79,-925.05"/>
<text text-anchor="middle" x="10813.41" y="-924.75" font-family="Times,serif" font-size="14.00">Yes</text>
</g>
<!-- 55195&#45;&gt;55196 -->
<g id="edge77" class="edge">
<title>55195&#45;&gt;55196</title>
<path fill="none" stroke="#dddddd" d="M10784.67,-901.93C10790.94,-901.61 10797.15,-901.31 10803.28,-901.05 10812.3,-900.68 10821.4,-900.36 10830.56,-900.09"/>
<polygon fill="#dddddd" stroke="#dddddd" points="10830.36,-903.6 10840.26,-899.84 10830.17,-896.6 10830.36,-903.6"/>
<text text-anchor="middle" x="10813.41" y="-904.25" font-family="Times,serif" font-size="14.00">No</text>
</g>
<!-- 55197 -->
<g id="node21" class="node">
<title>55197</title>
<ellipse fill="#dddddd" stroke="#dddddd" cx="12141.75" cy="-921.55" rx="200.29" ry="200.29"/>
<text text-anchor="middle" x="12141.75" y="-916.5" font-family="Times,serif" font-size="14.00">Has the deputy director of custody been informed?</text>
</g>
<!-- 55196&#45;&gt;55197 -->
<g id="edge78" class="edge">
<title>55196&#45;&gt;55197</title>
<path fill="none" stroke="#dddddd" d="M11810.6,-921.55C11851.93,-921.55 11892.16,-921.55 11929.5,-921.55"/>
<polygon fill="#dddddd" stroke="#dddddd" points="11929.48,-925.05 11939.48,-921.55 11929.48,-918.05 11929.48,-925.05"/>
<text text-anchor="middle" x="11875.84" y="-924.75" font-family="Times,serif" font-size="14.00">Yes (enter date)</text>
</g>
<!-- 55196&#45;&gt;55197 -->
<g id="edge79" class="edge">
<title>55196&#45;&gt;55197</title>
<path fill="none" stroke="#dddddd" d="M11810.03,-898.28C11848.42,-898.46 11886.59,-899.32 11923.47,-901.05 11925.87,-901.17 11928.29,-901.29 11930.71,-901.41"/>
<polygon fill="#dddddd" stroke="#dddddd" points="11930.47,-904.91 11940.65,-901.97 11930.86,-897.92 11930.47,-904.91"/>
<text text-anchor="middle" x="11875.84" y="-904.25" font-family="Times,serif" font-size="14.00">No (enter reason)</text>
</g>
<!-- 55198 -->
<g id="node22" class="node">
<title>55198</title>
<ellipse fill="#dddddd" stroke="#dddddd" cx="12588.62" cy="-921.55" rx="115.33" ry="115.33"/>
<text text-anchor="middle" x="12588.62" y="-916.5" font-family="Times,serif" font-size="14.00">Have PPCS been informed?</text>
</g>
<!-- 55197&#45;&gt;55198 -->
<g id="edge80" class="edge">
<title>55197&#45;&gt;55198</title>
<path fill="none" stroke="#dddddd" d="M12342.41,-921.55C12382.92,-921.55 12424.44,-921.55 12461.53,-921.55"/>
<polygon fill="#dddddd" stroke="#dddddd" points="12461.38,-925.05 12471.38,-921.55 12461.38,-918.05 12461.38,-925.05"/>
<text text-anchor="middle" x="12407.67" y="-924.75" font-family="Times,serif" font-size="14.00">Yes (enter date)</text>
</g>
<!-- 55197&#45;&gt;55198 -->
<g id="edge81" class="edge">
<title>55197&#45;&gt;55198</title>
<path fill="none" stroke="#dddddd" d="M12341.2,-900.03C12379.09,-898.33 12418.42,-898.22 12455.29,-901.05 12457.83,-901.25 12460.4,-901.47 12462.99,-901.7"/>
<polygon fill="#dddddd" stroke="#dddddd" points="12462.61,-905.18 12472.91,-902.7 12463.31,-898.22 12462.61,-905.18"/>
<text text-anchor="middle" x="12407.67" y="-904.25" font-family="Times,serif" font-size="14.00">No (enter reason)</text>
</g>
<!-- 55198&#45;&gt;END_NODE -->
<g id="edge82" class="edge">
<title>55198&#45;&gt;END_NODE</title>
<path fill="none" stroke="#dddddd" d="M12704.19,-921.55C12748.07,-921.55 12795.57,-921.55 12829.02,-921.55"/>
<polygon fill="#dddddd" stroke="#dddddd" points="12828.72,-925.05 12838.72,-921.55 12828.72,-918.05 12828.72,-925.05"/>
<text text-anchor="middle" x="12772.2" y="-924.75" font-family="Times,serif" font-size="14.00">Yes (enter date)</text>
</g>
<!-- 55198&#45;&gt;END_NODE -->
<g id="edge83" class="edge">
<title>55198&#45;&gt;END_NODE</title>
<path fill="none" stroke="#dddddd" d="M12702.19,-899.05C12740.58,-894.7 12783.61,-893.52 12822.45,-901.05 12825.8,-901.7 12829.2,-902.57 12832.59,-903.59"/>
<polygon fill="#dddddd" stroke="#dddddd" points="12831.2,-906.81 12841.79,-906.75 12833.47,-900.19 12831.2,-906.81"/>
<text text-anchor="middle" x="12772.2" y="-904.25" font-family="Times,serif" font-size="14.00">No (enter reasons)</text>
</g>
</g>
</svg>
