<?xml version="1.0" encoding="UTF-8" standalone="no"?>
<!DOCTYPE svg PUBLIC "-//W3C//DTD SVG 1.1//EN"
 "http://www.w3.org/Graphics/SVG/1.1/DTD/svg11.dtd">
<!-- Generated by graphviz version 12.1.1 (20240910.0053)
 -->
<!-- Title: OLD_TEMPORARY_RELEASE_FAILURE2 Pages: 1 -->
<svg width="13342pt" height="1454pt"
 viewBox="0.00 0.00 13341.59 1453.88" xmlns="http://www.w3.org/2000/svg" xmlns:xlink="http://www.w3.org/1999/xlink">
<g id="graph0" class="graph" transform="scale(1 1) rotate(0) translate(4 1449.88)">
<title>OLD_TEMPORARY_RELEASE_FAILURE2</title>
<polygon fill="white" stroke="none" points="-4,4 -4,-1449.88 13337.59,-1449.88 13337.59,4 -4,4"/>
<!-- START_NODE -->
<g id="node1" class="node">
<title>START_NODE</title>
</g>
<!-- 55179 -->
<g id="node2" class="node">
<title>55179</title>
<ellipse fill="#dddddd" stroke="#dddddd" cx="342.71" cy="-298.55" rx="229.46" ry="229.46"/>
<text text-anchor="middle" x="342.71" y="-293.5" font-family="Times,serif" font-size="14.00">What was the main management outcome of the incident?</text>
</g>
<!-- START_NODE&#45;&gt;55179 -->
<g id="edge1" class="edge">
<title>START_NODE&#45;&gt;55179</title>
<path fill="none" stroke="black" d="M53.94,-298.55C66.46,-298.55 82.79,-298.55 101.32,-298.55"/>
<polygon fill="black" stroke="black" points="101.28,-302.05 111.28,-298.55 101.28,-295.05 101.28,-302.05"/>
<text text-anchor="middle" x="83.62" y="-301.75" font-family="Times,serif" font-size="14.00">start</text>
</g>
<!-- 55180 -->
<g id="node4" class="node">
<title>55180</title>
<ellipse fill="#dddddd" stroke="#dddddd" cx="1009.77" cy="-298.55" rx="202.85" ry="202.85"/>
<text text-anchor="middle" x="1009.77" y="-293.5" font-family="Times,serif" font-size="14.00">Is any member of staff facing disciplinary charges?</text>
</g>
<!-- 55179&#45;&gt;55180 -->
<g id="edge2" class="edge">
<title>55179&#45;&gt;55180</title>
<path fill="none" stroke="#dddddd" d="M560.57,-371.15C570.51,-373.22 580.41,-375.05 590.17,-376.55 677.47,-390.04 701.87,-391.54 788.92,-376.55 795.38,-375.44 801.9,-374.16 808.44,-372.73"/>
<polygon fill="#dddddd" stroke="#dddddd" points="809.04,-376.19 818,-370.54 807.47,-369.36 809.04,-376.19"/>
<text text-anchor="middle" x="689.55" y="-390.44" font-family="Times,serif" font-size="14.00">No further action</text>
</g>
<!-- 55179&#45;&gt;55180 -->
<g id="edge3" class="edge">
<title>55179&#45;&gt;55180</title>
<path fill="none" stroke="#dddddd" d="M569.52,-334.76C576.48,-335.43 583.37,-336.03 590.17,-336.55 678.25,-343.3 700.91,-344.1 788.92,-336.55 792.03,-336.29 795.15,-336 798.29,-335.7"/>
<polygon fill="#dddddd" stroke="#dddddd" points="798.65,-339.18 808.24,-334.66 797.93,-332.21 798.65,-339.18"/>
<text text-anchor="middle" x="689.55" y="-345.12" font-family="Times,serif" font-size="14.00">IEP Regression</text>
</g>
<!-- 55179&#45;&gt;55180 -->
<g id="edge4" class="edge">
<title>55179&#45;&gt;55180</title>
<path fill="none" stroke="#dddddd" d="M572.59,-298.55C644.72,-298.55 724.08,-298.55 795.11,-298.55"/>
<polygon fill="#dddddd" stroke="#dddddd" points="794.93,-302.05 804.93,-298.55 794.93,-295.05 794.93,-302.05"/>
<text text-anchor="middle" x="689.55" y="-301.75" font-family="Times,serif" font-size="14.00">Placed on report/adjudication referal</text>
</g>
<!-- 55179&#45;&gt;55180 -->
<g id="edge5" class="edge">
<title>55179&#45;&gt;55180</title>
<path fill="none" stroke="#dddddd" d="M571.61,-278.92C577.86,-278.6 584.06,-278.31 590.17,-278.05 678.43,-274.39 700.68,-273.95 788.92,-278.05 791.31,-278.17 793.72,-278.28 796.14,-278.41"/>
<polygon fill="#dddddd" stroke="#dddddd" points="795.86,-281.9 806.03,-278.95 796.24,-274.91 795.86,-281.9"/>
<text text-anchor="middle" x="689.55" y="-281.25" font-family="Times,serif" font-size="14.00">Police referral</text>
</g>
<!-- 55179&#45;&gt;55180 -->
<g id="edge6" class="edge">
<title>55179&#45;&gt;55180</title>
<path fill="none" stroke="#dddddd" d="M568.81,-257.18C576,-256.38 583.14,-255.67 590.17,-255.05 678.17,-247.35 701.01,-246.44 788.92,-255.05 792.39,-255.39 795.89,-255.76 799.4,-256.16"/>
<polygon fill="#dddddd" stroke="#dddddd" points="798.85,-259.62 809.19,-257.34 799.68,-252.67 798.85,-259.62"/>
<text text-anchor="middle" x="689.55" y="-258.25" font-family="Times,serif" font-size="14.00">CPS referral</text>
</g>
<!-- 55179&#45;&gt;55180 -->
<g id="edge7" class="edge">
<title>55179&#45;&gt;55180</title>
<path fill="none" stroke="#dddddd" d="M562.75,-232.55C571.97,-230.84 581.14,-229.32 590.17,-228.05 677.65,-215.79 701.65,-214.4 788.92,-228.05 794.59,-228.94 800.32,-229.95 806.07,-231.06"/>
<polygon fill="#dddddd" stroke="#dddddd" points="805.19,-234.46 815.68,-233.03 806.59,-227.6 805.19,-234.46"/>
<text text-anchor="middle" x="689.55" y="-231.25" font-family="Times,serif" font-size="14.00">Prosecution referral</text>
</g>
<!-- END_NODE -->
<g id="node3" class="node">
<title>END_NODE</title>
<ellipse fill="none" stroke="black" cx="13299.73" cy="-940.55" rx="29.86" ry="29.86"/>
<ellipse fill="none" stroke="black" cx="13299.73" cy="-940.55" rx="33.86" ry="33.86"/>
<text text-anchor="middle" x="13299.73" y="-935.5" font-family="Times,serif" font-size="14.00">END</text>
</g>
<!-- 55181 -->
<g id="node5" class="node">
<title>55181</title>
<ellipse fill="#dddddd" stroke="#dddddd" cx="1411.83" cy="-298.55" rx="142.97" ry="142.97"/>
<text text-anchor="middle" x="1411.83" y="-293.5" font-family="Times,serif" font-size="14.00">Was ROTL Standard or Restricted?</text>
</g>
<!-- 55180&#45;&gt;55181 -->
<g id="edge8" class="edge">
<title>55180&#45;&gt;55181</title>
<path fill="none" stroke="#dddddd" d="M1212.85,-298.55C1227.85,-298.55 1242.83,-298.55 1257.45,-298.55"/>
<polygon fill="#dddddd" stroke="#dddddd" points="1257.05,-302.05 1267.05,-298.55 1257.05,-295.05 1257.05,-302.05"/>
<text text-anchor="middle" x="1240.74" y="-301.75" font-family="Times,serif" font-size="14.00">Yes</text>
</g>
<!-- 55180&#45;&gt;55181 -->
<g id="edge9" class="edge">
<title>55180&#45;&gt;55181</title>
<path fill="none" stroke="#dddddd" d="M1211.81,-276.97C1225.02,-276.91 1238.13,-277.24 1250.86,-278.05 1253.42,-278.22 1255.99,-278.4 1258.59,-278.59"/>
<polygon fill="#dddddd" stroke="#dddddd" points="1258.29,-282.07 1268.54,-279.38 1258.85,-275.1 1258.29,-282.07"/>
<text text-anchor="middle" x="1240.74" y="-281.25" font-family="Times,serif" font-size="14.00">No</text>
</g>
<!-- 55182 -->
<g id="node6" class="node">
<title>55182</title>
<ellipse fill="#dddddd" stroke="#dddddd" cx="1884.32" cy="-298.55" rx="199.78" ry="199.78"/>
<text text-anchor="middle" x="1884.32" y="-293.5" font-family="Times,serif" font-size="14.00">What Type Of Temporary Licence Was Breached?</text>
</g>
<!-- 55181&#45;&gt;55182 -->
<g id="edge10" class="edge">
<title>55181&#45;&gt;55182</title>
<path fill="none" stroke="#dddddd" d="M1555.27,-298.55C1592.27,-298.55 1632.93,-298.55 1672.63,-298.55"/>
<polygon fill="#dddddd" stroke="#dddddd" points="1672.57,-302.05 1682.57,-298.55 1672.57,-295.05 1672.57,-302.05"/>
<text text-anchor="middle" x="1619.67" y="-301.75" font-family="Times,serif" font-size="14.00">Standard ROTL</text>
</g>
<!-- 55181&#45;&gt;55182 -->
<g id="edge11" class="edge">
<title>55181&#45;&gt;55182</title>
<path fill="none" stroke="#dddddd" d="M1553.61,-279.5C1560.09,-278.94 1566.51,-278.46 1572.79,-278.05 1605.49,-275.97 1640.13,-276.02 1673.94,-277.32"/>
<polygon fill="#dddddd" stroke="#dddddd" points="1673.72,-280.81 1683.86,-277.74 1674.02,-273.82 1673.72,-280.81"/>
<text text-anchor="middle" x="1619.67" y="-281.25" font-family="Times,serif" font-size="14.00">Restricted ROTL</text>
</g>
<!-- 55183 -->
<g id="node7" class="node">
<title>55183</title>
<ellipse fill="#dddddd" stroke="#dddddd" cx="2485.64" cy="-298.55" rx="222.3" ry="222.3"/>
<text text-anchor="middle" x="2485.64" y="-293.5" font-family="Times,serif" font-size="14.00">What Was The Specific Purpose Of Temporary Release?</text>
</g>
<!-- 55182&#45;&gt;55183 -->
<g id="edge12" class="edge">
<title>55182&#45;&gt;55183</title>
<path fill="none" stroke="#dddddd" d="M2076.86,-352.65C2085.35,-354.15 2093.79,-355.46 2102.1,-356.55 2165.22,-364.85 2182.13,-364.11 2245.35,-356.55 2249.76,-356.03 2254.2,-355.45 2258.68,-354.82"/>
<polygon fill="#dddddd" stroke="#dddddd" points="2258.96,-358.32 2268.34,-353.39 2257.94,-351.39 2258.96,-358.32"/>
<text text-anchor="middle" x="2173.72" y="-365.7" font-family="Times,serif" font-size="14.00">Resettlement Day</text>
</g>
<!-- 55182&#45;&gt;55183 -->
<g id="edge13" class="edge">
<title>55182&#45;&gt;55183</title>
<path fill="none" stroke="#dddddd" d="M2083.74,-315.69C2089.93,-316.02 2096.06,-316.3 2102.1,-316.55 2165.71,-319.19 2181.72,-318.94 2245.35,-316.55 2247.7,-316.47 2250.08,-316.37 2252.46,-316.27"/>
<polygon fill="#dddddd" stroke="#dddddd" points="2252.33,-319.78 2262.17,-315.85 2252.02,-312.79 2252.33,-319.78"/>
<text text-anchor="middle" x="2173.72" y="-321.64" font-family="Times,serif" font-size="14.00">Resettlement Overnight</text>
</g>
<!-- 55182&#45;&gt;55183 -->
<g id="edge14" class="edge">
<title>55182&#45;&gt;55183</title>
<path fill="none" stroke="#dddddd" d="M2084.36,-296.17C2090.34,-296.13 2096.26,-296.09 2102.1,-296.05 2165.76,-295.69 2181.68,-295.72 2245.35,-296.05 2247.44,-296.07 2249.54,-296.08 2251.65,-296.09"/>
<polygon fill="#dddddd" stroke="#dddddd" points="2251.47,-299.59 2261.49,-296.15 2251.52,-292.59 2251.47,-299.59"/>
<text text-anchor="middle" x="2173.72" y="-299.25" font-family="Times,serif" font-size="14.00">Childcare Resettlement</text>
</g>
<!-- 55182&#45;&gt;55183 -->
<g id="edge15" class="edge">
<title>55182&#45;&gt;55183</title>
<path fill="none" stroke="#dddddd" d="M2083.13,-276.22C2089.53,-275.78 2095.86,-275.39 2102.1,-275.05 2165.67,-271.62 2181.76,-271.94 2245.35,-275.05 2247.75,-275.17 2250.16,-275.3 2252.59,-275.43"/>
<polygon fill="#dddddd" stroke="#dddddd" points="2252.33,-278.92 2262.51,-276 2252.73,-271.93 2252.33,-278.92"/>
<text text-anchor="middle" x="2173.72" y="-278.25" font-family="Times,serif" font-size="14.00">Special Purpose (medical)</text>
</g>
<!-- 55182&#45;&gt;55183 -->
<g id="edge16" class="edge">
<title>55182&#45;&gt;55183</title>
<path fill="none" stroke="#dddddd" d="M2079.7,-254.81C2087.24,-253.76 2094.73,-252.84 2102.1,-252.05 2165.41,-245.34 2181.97,-245.95 2245.35,-252.05 2248.98,-252.4 2252.64,-252.78 2256.32,-253.19"/>
<polygon fill="#dddddd" stroke="#dddddd" points="2255.58,-256.63 2265.92,-254.31 2256.39,-249.67 2255.58,-256.63"/>
<text text-anchor="middle" x="2173.72" y="-255.25" font-family="Times,serif" font-size="14.00">Special Purpose (other)</text>
</g>
<!-- 55184 -->
<g id="node8" class="node">
<title>55184</title>
<ellipse fill="#dddddd" stroke="#dddddd" cx="3439.24" cy="-298.55" rx="298.55" ry="298.55"/>
<text text-anchor="middle" x="3439.24" y="-293.5" font-family="Times,serif" font-size="14.00">Were UAL contingency plans (including notification to the police) activated?</text>
</g>
<!-- 55183&#45;&gt;55184 -->
<g id="edge17" class="edge">
<title>55183&#45;&gt;55184</title>
<path fill="none" stroke="#dddddd" d="M2673.39,-418.08C2690.68,-425.49 2708.33,-431.84 2725.94,-436.55 2896.27,-482.15 2950.09,-472.65 3122.69,-436.55 3134.34,-434.12 3146.08,-431.23 3157.84,-427.97"/>
<polygon fill="#dddddd" stroke="#dddddd" points="3158.54,-431.41 3167.19,-425.29 3156.61,-424.68 3158.54,-431.41"/>
<text text-anchor="middle" x="2924.31" y="-470.48" font-family="Times,serif" font-size="14.00">Court / Legal / Police</text>
</g>
<!-- 55183&#45;&gt;55184 -->
<g id="edge18" class="edge">
<title>55183&#45;&gt;55184</title>
<path fill="none" stroke="#dddddd" d="M2689.63,-387.8C2701.77,-391.22 2713.93,-394.19 2725.94,-396.55 2812.44,-413.58 3035.52,-409.78 3122.69,-396.55 3129.67,-395.5 3136.7,-394.31 3143.78,-393.02"/>
<polygon fill="#dddddd" stroke="#dddddd" points="3144.26,-396.49 3153.43,-391.18 3142.95,-389.61 3144.26,-396.49"/>
<text text-anchor="middle" x="2924.31" y="-411.14" font-family="Times,serif" font-size="14.00">Maintaining Family Ties</text>
</g>
<!-- 55183&#45;&gt;55184 -->
<g id="edge19" class="edge">
<title>55183&#45;&gt;55184</title>
<path fill="none" stroke="#dddddd" d="M2701.44,-353.17C2709.69,-354.45 2717.87,-355.59 2725.94,-356.55 2901.03,-377.47 2947.08,-372.56 3122.69,-356.55 3126.62,-356.2 3130.58,-355.81 3134.55,-355.41"/>
<polygon fill="#dddddd" stroke="#dddddd" points="3134.73,-358.91 3144.31,-354.36 3133.99,-351.95 3134.73,-358.91"/>
<text text-anchor="middle" x="2924.31" y="-373.66" font-family="Times,serif" font-size="14.00">Other Compassionate Reason (emergency child care, attend funeral etc.)</text>
</g>
<!-- 55183&#45;&gt;55184 -->
<g id="edge20" class="edge">
<title>55183&#45;&gt;55184</title>
<path fill="none" stroke="#dddddd" d="M2707.6,-315.78C2713.78,-316.07 2719.9,-316.33 2725.94,-316.55 2902.15,-323.17 2946.43,-321.58 3122.69,-316.55 3124.95,-316.49 3127.22,-316.42 3129.5,-316.35"/>
<polygon fill="#dddddd" stroke="#dddddd" points="3129.57,-319.85 3139.45,-316.03 3129.34,-312.86 3129.57,-319.85"/>
<text text-anchor="middle" x="2924.31" y="-324.14" font-family="Times,serif" font-size="14.00">Other RDR Linked to Sentence Plan</text>
</g>
<!-- 55183&#45;&gt;55184 -->
<g id="edge21" class="edge">
<title>55183&#45;&gt;55184</title>
<path fill="none" stroke="#dddddd" d="M2708.28,-296.16C2714.22,-296.12 2720.12,-296.09 2725.94,-296.05 2902.27,-295.13 2946.35,-295.36 3122.69,-296.05 3124.8,-296.06 3126.93,-296.07 3129.06,-296.08"/>
<polygon fill="#dddddd" stroke="#dddddd" points="3129,-299.58 3139.01,-296.13 3129.03,-292.58 3129,-299.58"/>
<text text-anchor="middle" x="2924.31" y="-299.25" font-family="Times,serif" font-size="14.00">Training Or Education</text>
</g>
<!-- 55183&#45;&gt;55184 -->
<g id="edge22" class="edge">
<title>55183&#45;&gt;55184</title>
<path fill="none" stroke="#dddddd" d="M2707.26,-276.08C2713.55,-275.7 2719.79,-275.36 2725.94,-275.05 2902.06,-266.43 2946.48,-268.5 3122.69,-275.05 3125.1,-275.14 3127.52,-275.24 3129.95,-275.34"/>
<polygon fill="#dddddd" stroke="#dddddd" points="3129.75,-278.83 3139.88,-275.75 3130.04,-271.84 3129.75,-278.83"/>
<text text-anchor="middle" x="2924.31" y="-278.25" font-family="Times,serif" font-size="14.00">Medical</text>
</g>
<!-- 55183&#45;&gt;55184 -->
<g id="edge23" class="edge">
<title>55183&#45;&gt;55184</title>
<path fill="none" stroke="#dddddd" d="M2703.18,-251.73C2710.84,-250.72 2718.45,-249.82 2725.94,-249.05 2901.35,-231.1 2946.89,-235.35 3122.69,-249.05 3125.99,-249.31 3129.31,-249.58 3132.65,-249.87"/>
<polygon fill="#dddddd" stroke="#dddddd" points="3132.27,-253.35 3142.54,-250.76 3132.9,-246.38 3132.27,-253.35"/>
<text text-anchor="middle" x="2924.31" y="-252.25" font-family="Times,serif" font-size="14.00">Paid and unpaid work placements</text>
</g>
<!-- 55183&#45;&gt;55184 -->
<g id="edge24" class="edge">
<title>55183&#45;&gt;55184</title>
<path fill="none" stroke="#dddddd" d="M2695.08,-223.16C2705.44,-220.8 2715.76,-218.74 2725.94,-217.05 2899.9,-188.24 2947.76,-194.83 3122.69,-217.05 3128.33,-217.77 3134.02,-218.56 3139.74,-219.41"/>
<polygon fill="#dddddd" stroke="#dddddd" points="3138.86,-222.81 3149.27,-220.88 3139.93,-215.9 3138.86,-222.81"/>
<text text-anchor="middle" x="2924.31" y="-220.25" font-family="Times,serif" font-size="14.00">Marriage or civil partnership of the offender</text>
</g>
<!-- 55183&#45;&gt;55184 -->
<g id="edge25" class="edge">
<title>55183&#45;&gt;55184</title>
<path fill="none" stroke="#dddddd" d="M2680.65,-190.86C2695.68,-185.38 2710.87,-180.66 2725.94,-177.05 2897.43,-136.01 2949.32,-144.83 3122.69,-177.05 3132.23,-178.83 3141.85,-180.88 3151.51,-183.16"/>
<polygon fill="#dddddd" stroke="#dddddd" points="3150.41,-186.5 3160.95,-185.48 3152.07,-179.7 3150.41,-186.5"/>
<text text-anchor="middle" x="2924.31" y="-180.25" font-family="Times,serif" font-size="14.00">Inter&#45;prison transfers</text>
</g>
<!-- 55185 -->
<g id="node9" class="node">
<title>55185</title>
<ellipse fill="#dddddd" stroke="#dddddd" cx="3974.37" cy="-490.55" rx="180.33" ry="180.33"/>
<text text-anchor="middle" x="3974.37" y="-485.5" font-family="Times,serif" font-size="14.00">Why were UAL contingency plans activated?</text>
</g>
<!-- 55184&#45;&gt;55185 -->
<g id="edge26" class="edge">
<title>55184&#45;&gt;55185</title>
<path fill="none" stroke="#dddddd" d="M3720.47,-399.47C3745.3,-408.42 3769.96,-417.3 3793.61,-425.81"/>
<polygon fill="#dddddd" stroke="#dddddd" points="3792.38,-429.09 3802.97,-429.19 3794.75,-422.51 3792.38,-429.09"/>
<text text-anchor="middle" x="3765.92" y="-420.6" font-family="Times,serif" font-size="14.00">Yes</text>
</g>
<!-- 55188 -->
<g id="node10" class="node">
<title>55188</title>
<ellipse fill="#dddddd" stroke="#dddddd" cx="5890.98" cy="-483.55" rx="347.69" ry="347.69"/>
<text text-anchor="middle" x="5890.98" y="-478.5" font-family="Times,serif" font-size="14.00">Was the prisoner arrested for an offence allegedly committed whilst temporarily released?</text>
</g>
<!-- 55184&#45;&gt;55188 -->
<g id="edge27" class="edge">
<title>55184&#45;&gt;55188</title>
<path fill="none" stroke="#dddddd" d="M3738.03,-286.46C3814.7,-284.21 3897.09,-282.55 3973.37,-282.55 3973.37,-282.55 3973.37,-282.55 5052.9,-282.55 5265.28,-282.55 5319.9,-300.53 5525.3,-354.55 5534.4,-356.95 5543.6,-359.47 5552.86,-362.09"/>
<polygon fill="#dddddd" stroke="#dddddd" points="5551.72,-365.4 5562.29,-364.8 5553.65,-358.68 5551.72,-365.4"/>
<text text-anchor="middle" x="4568.35" y="-285.75" font-family="Times,serif" font-size="14.00">No</text>
</g>
<!-- 55186 -->
<g id="node11" class="node">
<title>55186</title>
<ellipse fill="#dddddd" stroke="#dddddd" cx="4568.35" cy="-515.55" rx="183.4" ry="183.4"/>
<text text-anchor="middle" x="4568.35" y="-510.5" font-family="Times,serif" font-size="14.00">Has the prisoner surrendered/been recaptured?</text>
</g>
<!-- 55185&#45;&gt;55186 -->
<g id="edge28" class="edge">
<title>55185&#45;&gt;55186</title>
<path fill="none" stroke="#dddddd" d="M4154.71,-499.74C4160.78,-500.02 4166.79,-500.29 4172.7,-500.55 4237.96,-503.45 4309.31,-506.27 4373.18,-508.66"/>
<polygon fill="#dddddd" stroke="#dddddd" points="4372.96,-512.16 4383.09,-509.03 4373.23,-505.16 4372.96,-512.16"/>
<text text-anchor="middle" x="4269.83" y="-511.63" font-family="Times,serif" font-size="14.00">Apparent failure to return</text>
</g>
<!-- 55185&#45;&gt;55186 -->
<g id="edge29" class="edge">
<title>55185&#45;&gt;55186</title>
<path fill="none" stroke="#dddddd" d="M4154.49,-477.15C4221.28,-474.42 4297.68,-473.97 4366.95,-480.05 4370.02,-480.32 4373.11,-480.62 4376.23,-480.93"/>
<polygon fill="#dddddd" stroke="#dddddd" points="4375.74,-484.4 4386.06,-481.99 4376.49,-477.44 4375.74,-484.4"/>
<text text-anchor="middle" x="4269.83" y="-483.25" font-family="Times,serif" font-size="14.00">Revocation of the prisoner&#39;s licence</text>
</g>
<!-- 55189 -->
<g id="node13" class="node">
<title>55189</title>
<ellipse fill="#dddddd" stroke="#dddddd" cx="6664.11" cy="-864.55" rx="369.18" ry="369.18"/>
<text text-anchor="middle" x="6664.11" y="-859.5" font-family="Times,serif" font-size="14.00">Has The Prisoner Been Charged With Any Offence (INCLUDE the offence of failure to return)?</text>
</g>
<!-- 55188&#45;&gt;55189 -->
<g id="edge40" class="edge">
<title>55188&#45;&gt;55189</title>
<path fill="none" stroke="#dddddd" d="M6203.13,-637.29C6242.45,-656.71 6282.84,-676.67 6322.58,-696.3"/>
<polygon fill="#dddddd" stroke="#dddddd" points="6320.8,-699.33 6331.31,-700.62 6323.9,-693.05 6320.8,-699.33"/>
<text text-anchor="middle" x="6266.8" y="-671.54" font-family="Times,serif" font-size="14.00">Yes</text>
</g>
<!-- 55193 -->
<g id="node14" class="node">
<title>55193</title>
<ellipse fill="#dddddd" stroke="#dddddd" cx="9664.08" cy="-803.55" rx="420.37" ry="420.37"/>
<text text-anchor="middle" x="9664.08" y="-798.5" font-family="Times,serif" font-size="14.00">Was Any Part Of The Failure Failing To Comply With Any Other Licence Conditions (Standard or Bespoke)?</text>
</g>
<!-- 55188&#45;&gt;55193 -->
<g id="edge41" class="edge">
<title>55188&#45;&gt;55193</title>
<path fill="none" stroke="#dddddd" d="M6238.87,-473.3C6371.58,-470.18 6524.35,-467.55 6663.11,-467.55 6663.11,-467.55 6663.11,-467.55 8770.85,-467.55 8889.98,-467.55 8923.41,-454.76 9038.21,-486.55 9123.4,-510.15 9210.58,-545.9 9291.75,-584.99"/>
<polygon fill="#dddddd" stroke="#dddddd" points="9289.74,-587.9 9300.26,-589.11 9292.79,-581.6 9289.74,-587.9"/>
<text text-anchor="middle" x="7769.95" y="-470.75" font-family="Times,serif" font-size="14.00">No</text>
</g>
<!-- 55186&#45;&gt;55188 -->
<g id="edge31" class="edge">
<title>55186&#45;&gt;55188</title>
<path fill="none" stroke="#dddddd" d="M4726.72,-608.59C4774.14,-631.91 4827.39,-653.67 4879.25,-665.55 5159.31,-729.77 5246.49,-711.04 5525.3,-641.55 5537.92,-638.41 5550.65,-634.87 5563.42,-631.02"/>
<polygon fill="#dddddd" stroke="#dddddd" points="5564.19,-634.44 5572.71,-628.15 5562.12,-627.75 5564.19,-634.44"/>
<text text-anchor="middle" x="5051.9" y="-708.16" font-family="Times,serif" font-size="14.00">No</text>
</g>
<!-- 55187 -->
<g id="node12" class="node">
<title>55187</title>
<ellipse fill="#dddddd" stroke="#dddddd" cx="5051.9" cy="-483.55" rx="172.65" ry="172.65"/>
<text text-anchor="middle" x="5051.9" y="-478.5" font-family="Times,serif" font-size="14.00">How did prisoner surrender/get recaptured?</text>
</g>
<!-- 55186&#45;&gt;55187 -->
<g id="edge30" class="edge">
<title>55186&#45;&gt;55187</title>
<path fill="none" stroke="#dddddd" d="M4751.74,-503.43C4789.78,-500.91 4829.89,-498.24 4867.95,-495.71"/>
<polygon fill="#dddddd" stroke="#dddddd" points="4867.9,-499.22 4877.65,-495.07 4867.44,-492.24 4867.9,-499.22"/>
<text text-anchor="middle" x="4815.5" y="-504.67" font-family="Times,serif" font-size="14.00">Yes (Enter Date)</text>
</g>
<!-- 55187&#45;&gt;55188 -->
<g id="edge32" class="edge">
<title>55187&#45;&gt;55188</title>
<path fill="none" stroke="#dddddd" d="M5193.64,-582.52C5209.59,-590.23 5226.05,-596.84 5242.55,-601.55 5341.82,-629.92 5451.67,-623.55 5552.27,-603.45"/>
<polygon fill="#dddddd" stroke="#dddddd" points="5552.98,-606.88 5562.07,-601.43 5551.57,-600.02 5552.98,-606.88"/>
<text text-anchor="middle" x="5383.92" y="-623.87" font-family="Times,serif" font-size="14.00">Surrendered before midnight on return date</text>
</g>
<!-- 55187&#45;&gt;55188 -->
<g id="edge33" class="edge">
<title>55187&#45;&gt;55188</title>
<path fill="none" stroke="#dddddd" d="M5210.05,-553.52C5220.91,-556.69 5231.81,-559.43 5242.55,-561.55 5338.8,-580.58 5444.08,-577.78 5541.24,-565.76"/>
<polygon fill="#dddddd" stroke="#dddddd" points="5541.46,-569.26 5550.93,-564.52 5540.57,-562.32 5541.46,-569.26"/>
<text text-anchor="middle" x="5383.92" y="-578.48" font-family="Times,serif" font-size="14.00">Surrender To HMPS (after midnight on return date)</text>
</g>
<!-- 55187&#45;&gt;55188 -->
<g id="edge34" class="edge">
<title>55187&#45;&gt;55188</title>
<path fill="none" stroke="#dddddd" d="M5221.19,-519.07C5228.39,-520.02 5235.53,-520.86 5242.55,-521.55 5336.85,-530.91 5439.13,-530.01 5533.95,-524.58"/>
<polygon fill="#dddddd" stroke="#dddddd" points="5533.89,-528.09 5543.66,-524 5533.47,-521.1 5533.89,-528.09"/>
<text text-anchor="middle" x="5383.92" y="-531.84" font-family="Times,serif" font-size="14.00">Surrender To Police &#160;(after midnight on return date)</text>
</g>
<!-- 55187&#45;&gt;55188 -->
<g id="edge35" class="edge">
<title>55187&#45;&gt;55188</title>
<path fill="none" stroke="#dddddd" d="M5224.82,-483.55C5313.55,-483.55 5425.25,-483.55 5531.66,-483.55"/>
<polygon fill="#dddddd" stroke="#dddddd" points="5531.42,-487.05 5541.42,-483.55 5531.42,-480.05 5531.42,-487.05"/>
<text text-anchor="middle" x="5383.92" y="-486.75" font-family="Times,serif" font-size="14.00">Arrest By HMPS</text>
</g>
<!-- 55187&#45;&gt;55188 -->
<g id="edge36" class="edge">
<title>55187&#45;&gt;55188</title>
<path fill="none" stroke="#dddddd" d="M5223.92,-464.21C5230.2,-463.77 5236.43,-463.38 5242.55,-463.05 5336.43,-458 5438.04,-458.43 5532.32,-461.3"/>
<polygon fill="#dddddd" stroke="#dddddd" points="5532.16,-464.8 5542.27,-461.62 5532.38,-457.8 5532.16,-464.8"/>
<text text-anchor="middle" x="5383.92" y="-466.25" font-family="Times,serif" font-size="14.00">Arrest By Police</text>
</g>
<!-- 55187&#45;&gt;55188 -->
<g id="edge37" class="edge">
<title>55187&#45;&gt;55188</title>
<path fill="none" stroke="#dddddd" d="M5219.8,-442.17C5227.46,-440.97 5235.07,-439.92 5242.55,-439.05 5337.15,-428.1 5439.87,-429.24 5535.02,-435.67"/>
<polygon fill="#dddddd" stroke="#dddddd" points="5534.56,-439.14 5544.78,-436.35 5535.05,-432.16 5534.56,-439.14"/>
<text text-anchor="middle" x="5383.92" y="-442.25" font-family="Times,serif" font-size="14.00">Admitted to hospital for treatment</text>
</g>
<!-- 55187&#45;&gt;55188 -->
<g id="edge38" class="edge">
<title>55187&#45;&gt;55188</title>
<path fill="none" stroke="#dddddd" d="M5211.79,-417.18C5222.08,-414.38 5232.39,-411.95 5242.55,-410.05 5338.51,-392.11 5443.35,-394.62 5540.17,-405.82"/>
<polygon fill="#dddddd" stroke="#dddddd" points="5539.48,-409.27 5549.83,-406.98 5540.31,-402.32 5539.48,-409.27"/>
<text text-anchor="middle" x="5383.92" y="-413.25" font-family="Times,serif" font-size="14.00">Deceased</text>
</g>
<!-- 55187&#45;&gt;55188 -->
<g id="edge39" class="edge">
<title>55187&#45;&gt;55188</title>
<path fill="none" stroke="#dddddd" d="M5198.3,-391.58C5212.85,-385.33 5227.72,-379.96 5242.55,-376.05 5340.91,-350.12 5449.41,-355.34 5549.01,-373.15"/>
<polygon fill="#dddddd" stroke="#dddddd" points="5548.21,-376.57 5558.68,-374.93 5549.48,-369.68 5548.21,-376.57"/>
<text text-anchor="middle" x="5383.92" y="-379.25" font-family="Times,serif" font-size="14.00">Other (Provide Details)</text>
</g>
<!-- 55189&#45;&gt;55193 -->
<g id="edge43" class="edge">
<title>55189&#45;&gt;55193</title>
<path fill="none" stroke="#dddddd" d="M6981.61,-1053.83C7017.15,-1069.45 7053.54,-1083.19 7089.54,-1093.55 7212.74,-1129.03 7249.17,-1112.55 7377.37,-1112.55 7377.37,-1112.55 7377.37,-1112.55 8770.85,-1112.55 8975.81,-1112.55 9037.28,-1117.2 9225.71,-1036.55 9245.07,-1028.27 9264.74,-1019.43 9284.46,-1010.23"/>
<polygon fill="#dddddd" stroke="#dddddd" points="9285.84,-1013.45 9293.41,-1006.03 9282.87,-1007.11 9285.84,-1013.45"/>
<text text-anchor="middle" x="8158.97" y="-1115.75" font-family="Times,serif" font-size="14.00">No</text>
</g>
<!-- 55190 -->
<g id="node15" class="node">
<title>55190</title>
<ellipse fill="#dddddd" stroke="#dddddd" cx="7378.37" cy="-795.55" rx="288.83" ry="288.83"/>
<text text-anchor="middle" x="7378.37" y="-790.5" font-family="Times,serif" font-size="14.00">With What Type Of Offence or Offences Has The Prisoner Been Charged?</text>
</g>
<!-- 55189&#45;&gt;55190 -->
<g id="edge42" class="edge">
<title>55189&#45;&gt;55190</title>
<path fill="none" stroke="#dddddd" d="M7031.93,-829.02C7047.76,-827.49 7063.57,-825.95 7079.22,-824.44"/>
<polygon fill="#dddddd" stroke="#dddddd" points="7079.46,-827.93 7089.08,-823.48 7078.79,-820.96 7079.46,-827.93"/>
<text text-anchor="middle" x="7061.42" y="-829.12" font-family="Times,serif" font-size="14.00">Yes</text>
</g>
<!-- 55194 -->
<g id="node18" class="node">
<title>55194</title>
<ellipse fill="#dddddd" stroke="#dddddd" cx="10298.5" cy="-979.55" rx="157.81" ry="157.81"/>
<text text-anchor="middle" x="10298.5" y="-974.5" font-family="Times,serif" font-size="14.00">Please Specify Which Conditions apply</text>
</g>
<!-- 55193&#45;&gt;55194 -->
<g id="edge66" class="edge">
<title>55193&#45;&gt;55194</title>
<path fill="none" stroke="#dddddd" d="M10069.18,-916.01C10092.06,-922.38 10114.28,-928.57 10135.29,-934.41"/>
<polygon fill="#dddddd" stroke="#dddddd" points="10134.14,-937.73 10144.71,-937.03 10136.01,-930.98 10134.14,-937.73"/>
<text text-anchor="middle" x="10112.57" y="-930.75" font-family="Times,serif" font-size="14.00">Yes</text>
</g>
<!-- 55195 -->
<g id="node19" class="node">
<title>55195</title>
<ellipse fill="#dddddd" stroke="#dddddd" cx="10892.93" cy="-940.55" rx="225.88" ry="225.88"/>
<text text-anchor="middle" x="10892.93" y="-935.5" font-family="Times,serif" font-size="14.00">Was failure due to matters beyond the prisoner’s control?</text>
</g>
<!-- 55193&#45;&gt;55195 -->
<g id="edge67" class="edge">
<title>55193&#45;&gt;55195</title>
<path fill="none" stroke="#dddddd" d="M10083.01,-763.68C10261.02,-759.3 10468.76,-771.2 10649.06,-826.55 10659.05,-829.62 10669.16,-833.03 10679.29,-836.7"/>
<polygon fill="#dddddd" stroke="#dddddd" points="10677.84,-839.89 10688.43,-840.08 10680.27,-833.32 10677.84,-839.89"/>
<text text-anchor="middle" x="10298.5" y="-785.53" font-family="Times,serif" font-size="14.00">No</text>
</g>
<!-- 55191 -->
<g id="node16" class="node">
<title>55191</title>
<ellipse fill="#dddddd" stroke="#dddddd" cx="8158.97" cy="-786.55" rx="286.27" ry="286.27"/>
<text text-anchor="middle" x="8158.97" y="-781.5" font-family="Times,serif" font-size="14.00">Has The Prisoner Been Found Guilty Of Offences Committed On ROTL?</text>
</g>
<!-- 55190&#45;&gt;55191 -->
<g id="edge44" class="edge">
<title>55190&#45;&gt;55191</title>
<path fill="none" stroke="#dddddd" d="M7632.15,-933.76C7649.78,-939.99 7667.56,-945.36 7685.2,-949.55 7758.5,-966.97 7781.65,-967.94 7854.7,-949.55 7870.13,-945.67 7885.62,-940.84 7901,-935.29"/>
<polygon fill="#dddddd" stroke="#dddddd" points="7902.06,-938.63 7910.22,-931.86 7899.62,-932.07 7902.06,-938.63"/>
<text text-anchor="middle" x="7769.95" y="-966.18" font-family="Times,serif" font-size="14.00">Violence Against The Person</text>
</g>
<!-- 55190&#45;&gt;55191 -->
<g id="edge45" class="edge">
<title>55190&#45;&gt;55191</title>
<path fill="none" stroke="#dddddd" d="M7647.21,-901.42C7659.95,-904.55 7672.65,-907.29 7685.2,-909.55 7759.34,-922.92 7780.76,-923.98 7854.7,-909.55 7864.63,-907.62 7874.65,-905.35 7884.69,-902.82"/>
<polygon fill="#dddddd" stroke="#dddddd" points="7885.35,-906.27 7894.13,-900.35 7883.57,-899.5 7885.35,-906.27"/>
<text text-anchor="middle" x="7769.95" y="-923.18" font-family="Times,serif" font-size="14.00">Sexual Offences</text>
</g>
<!-- 55190&#45;&gt;55191 -->
<g id="edge46" class="edge">
<title>55190&#45;&gt;55191</title>
<path fill="none" stroke="#dddddd" d="M7658.88,-865.99C7667.73,-867.32 7676.52,-868.52 7685.2,-869.55 7760.01,-878.48 7780.04,-879.59 7854.7,-869.55 7860.47,-868.78 7866.29,-867.92 7872.13,-867"/>
<polygon fill="#dddddd" stroke="#dddddd" points="7872.63,-870.46 7881.92,-865.38 7871.48,-863.56 7872.63,-870.46"/>
<text text-anchor="middle" x="7769.95" y="-879.87" font-family="Times,serif" font-size="14.00">Robbery</text>
</g>
<!-- 55190&#45;&gt;55191 -->
<g id="edge47" class="edge">
<title>55190&#45;&gt;55191</title>
<path fill="none" stroke="#dddddd" d="M7665.59,-829.19C7727.93,-832.84 7793.53,-833.87 7854.7,-829.55 7857.93,-829.33 7861.18,-829.09 7864.45,-828.83"/>
<polygon fill="#dddddd" stroke="#dddddd" points="7864.42,-832.35 7874.1,-828.04 7863.85,-825.37 7864.42,-832.35"/>
<text text-anchor="middle" x="7769.95" y="-835.57" font-family="Times,serif" font-size="14.00">Burglary</text>
</g>
<!-- 55190&#45;&gt;55191 -->
<g id="edge48" class="edge">
<title>55190&#45;&gt;55191</title>
<path fill="none" stroke="#dddddd" d="M7667.63,-792.22C7730.74,-791.49 7797.65,-790.72 7861.09,-789.99"/>
<polygon fill="#dddddd" stroke="#dddddd" points="7861.01,-793.49 7870.97,-789.87 7860.93,-786.49 7861.01,-793.49"/>
<text text-anchor="middle" x="7769.95" y="-795.06" font-family="Times,serif" font-size="14.00">Theft And Handling</text>
</g>
<!-- 55190&#45;&gt;55191 -->
<g id="edge49" class="edge">
<title>55190&#45;&gt;55191</title>
<path fill="none" stroke="#dddddd" d="M7666.25,-770.92C7672.62,-770.61 7678.95,-770.32 7685.2,-770.05 7760.47,-766.92 7779.4,-768.01 7854.7,-770.05 7856.93,-770.12 7859.16,-770.18 7861.4,-770.24"/>
<polygon fill="#dddddd" stroke="#dddddd" points="7861.05,-773.73 7871.15,-770.54 7861.27,-766.74 7861.05,-773.73"/>
<text text-anchor="middle" x="7769.95" y="-773.25" font-family="Times,serif" font-size="14.00">Fraud And Forgery</text>
</g>
<!-- 55190&#45;&gt;55191 -->
<g id="edge50" class="edge">
<title>55190&#45;&gt;55191</title>
<path fill="none" stroke="#dddddd" d="M7663.68,-749.9C7670.92,-749.22 7678.1,-748.6 7685.2,-748.05 7742.86,-743.6 7804.46,-744.49 7863.5,-748.12"/>
<polygon fill="#dddddd" stroke="#dddddd" points="7863.17,-751.61 7873.37,-748.76 7863.62,-744.62 7863.17,-751.61"/>
<text text-anchor="middle" x="7769.95" y="-751.25" font-family="Times,serif" font-size="14.00">Drug Offences</text>
</g>
<!-- 55190&#45;&gt;55191 -->
<g id="edge51" class="edge">
<title>55190&#45;&gt;55191</title>
<path fill="none" stroke="#dddddd" d="M7659.76,-728.33C7668.31,-727.11 7676.81,-726.01 7685.2,-725.05 7760.05,-716.54 7779.75,-717.53 7854.7,-725.05 7858.89,-725.48 7863.11,-725.93 7867.35,-726.41"/>
<polygon fill="#dddddd" stroke="#dddddd" points="7866.77,-729.86 7877.11,-727.57 7867.59,-722.91 7866.77,-729.86"/>
<text text-anchor="middle" x="7769.95" y="-728.25" font-family="Times,serif" font-size="14.00">Motoring Offences</text>
</g>
<!-- 55190&#45;&gt;55191 -->
<g id="edge52" class="edge">
<title>55190&#45;&gt;55191</title>
<path fill="none" stroke="#dddddd" d="M7652.66,-703.94C7663.59,-701.71 7674.46,-699.72 7685.2,-698.05 7759.64,-686.48 7780.13,-687.4 7854.7,-698.05 7860.89,-698.94 7867.14,-699.92 7873.41,-700.99"/>
<polygon fill="#dddddd" stroke="#dddddd" points="7872.8,-704.44 7883.26,-702.74 7874.02,-697.54 7872.8,-704.44"/>
<text text-anchor="middle" x="7769.95" y="-701.25" font-family="Times,serif" font-size="14.00">Failure To Return From ROTL</text>
</g>
<!-- 55190&#45;&gt;55191 -->
<g id="edge53" class="edge">
<title>55190&#45;&gt;55191</title>
<path fill="none" stroke="#dddddd" d="M7643.03,-679.16C7657.14,-675.24 7671.25,-671.83 7685.2,-669.05 7759.09,-654.38 7780.65,-655.21 7854.7,-669.05 7863.98,-670.79 7873.33,-672.8 7882.72,-675.04"/>
<polygon fill="#dddddd" stroke="#dddddd" points="7881.74,-678.4 7892.28,-677.4 7883.42,-671.6 7881.74,-678.4"/>
<text text-anchor="middle" x="7769.95" y="-672.25" font-family="Times,serif" font-size="14.00">Other Offence</text>
</g>
<!-- 55191&#45;&gt;55193 -->
<g id="edge55" class="edge">
<title>55191&#45;&gt;55193</title>
<path fill="none" stroke="#dddddd" d="M8373.32,-976.41C8413.49,-1002.75 8456.95,-1025.81 8501.49,-1040.55 8752.13,-1123.54 9043.24,-1063.85 9271.33,-983.64"/>
<polygon fill="#dddddd" stroke="#dddddd" points="9272.46,-986.95 9280.72,-980.31 9270.12,-980.36 9272.46,-986.95"/>
<text text-anchor="middle" x="8769.85" y="-1083.7" font-family="Times,serif" font-size="14.00">No</text>
</g>
<!-- 55192 -->
<g id="node17" class="node">
<title>55192</title>
<ellipse fill="#dddddd" stroke="#dddddd" cx="8769.85" cy="-763.55" rx="268.36" ry="268.36"/>
<text text-anchor="middle" x="8769.85" y="-758.5" font-family="Times,serif" font-size="14.00">What Offence Or Offences Has The Prisoner Been Found Guilty Of?</text>
</g>
<!-- 55191&#45;&gt;55192 -->
<g id="edge54" class="edge">
<title>55191&#45;&gt;55192</title>
<path fill="none" stroke="#dddddd" d="M8445.25,-775.78C8460.16,-775.22 8475.13,-774.65 8490.02,-774.09"/>
<polygon fill="#dddddd" stroke="#dddddd" points="8490.01,-777.59 8499.87,-773.72 8489.74,-770.6 8490.01,-777.59"/>
<text text-anchor="middle" x="8473.37" y="-778.25" font-family="Times,serif" font-size="14.00">Yes</text>
</g>
<!-- 55192&#45;&gt;55193 -->
<g id="edge56" class="edge">
<title>55192&#45;&gt;55193</title>
<path fill="none" stroke="#dddddd" d="M8990.76,-916.72C9012.19,-926.69 9034.18,-935.25 9056.21,-941.55 9121.28,-960.18 9190.83,-961.44 9258.79,-952.7"/>
<polygon fill="#dddddd" stroke="#dddddd" points="9259.19,-956.17 9268.62,-951.35 9258.24,-949.24 9259.19,-956.17"/>
<text text-anchor="middle" x="9140.96" y="-961.07" font-family="Times,serif" font-size="14.00">Violence Against The Person</text>
</g>
<!-- 55192&#45;&gt;55193 -->
<g id="edge57" class="edge">
<title>55192&#45;&gt;55193</title>
<path fill="none" stroke="#dddddd" d="M9008.15,-887.83C9024.15,-893.23 9040.25,-897.9 9056.21,-901.55 9117.43,-915.58 9182.57,-917.98 9246.59,-913.36"/>
<polygon fill="#dddddd" stroke="#dddddd" points="9246.48,-916.88 9256.18,-912.6 9245.94,-909.9 9246.48,-916.88"/>
<text text-anchor="middle" x="9140.96" y="-918.7" font-family="Times,serif" font-size="14.00">Sexual Offences</text>
</g>
<!-- 55192&#45;&gt;55193 -->
<g id="edge58" class="edge">
<title>55192&#45;&gt;55193</title>
<path fill="none" stroke="#dddddd" d="M9022.55,-854.93C9033.85,-857.47 9045.1,-859.7 9056.21,-861.55 9114.69,-871.32 9176.63,-874.03 9237.71,-872.31"/>
<polygon fill="#dddddd" stroke="#dddddd" points="9237.72,-875.81 9247.6,-871.99 9237.49,-868.82 9237.72,-875.81"/>
<text text-anchor="middle" x="9140.96" y="-875.99" font-family="Times,serif" font-size="14.00">Robbery</text>
</g>
<!-- 55192&#45;&gt;55193 -->
<g id="edge59" class="edge">
<title>55192&#45;&gt;55193</title>
<path fill="none" stroke="#dddddd" d="M9032.94,-818.91C9040.77,-819.9 9048.54,-820.78 9056.21,-821.55 9113.23,-827.29 9173.41,-829.78 9232.82,-830.14"/>
<polygon fill="#dddddd" stroke="#dddddd" points="9232.77,-833.64 9242.79,-830.18 9232.8,-826.64 9232.77,-833.64"/>
<text text-anchor="middle" x="9140.96" y="-833.25" font-family="Times,serif" font-size="14.00">Burglary</text>
</g>
<!-- 55192&#45;&gt;55193 -->
<g id="edge60" class="edge">
<title>55192&#45;&gt;55193</title>
<path fill="none" stroke="#dddddd" d="M9037.79,-780.61C9043.99,-780.94 9050.14,-781.25 9056.21,-781.55 9113.09,-784.38 9172.99,-786.99 9232.09,-789.35"/>
<polygon fill="#dddddd" stroke="#dddddd" points="9231.87,-792.85 9242,-789.75 9232.15,-785.85 9231.87,-792.85"/>
<text text-anchor="middle" x="9140.96" y="-792.18" font-family="Times,serif" font-size="14.00">Theft And Handling</text>
</g>
<!-- 55192&#45;&gt;55193 -->
<g id="edge61" class="edge">
<title>55192&#45;&gt;55193</title>
<path fill="none" stroke="#dddddd" d="M9038.56,-761.14C9044.5,-761.11 9050.39,-761.08 9056.21,-761.05 9131.54,-760.72 9150.47,-757.41 9225.71,-761.05 9228.44,-761.19 9231.18,-761.32 9233.94,-761.47"/>
<polygon fill="#dddddd" stroke="#dddddd" points="9233.6,-764.95 9243.78,-761.99 9233.98,-757.96 9233.6,-764.95"/>
<text text-anchor="middle" x="9140.96" y="-764.25" font-family="Times,serif" font-size="14.00">Fraud And Forgery</text>
</g>
<!-- 55192&#45;&gt;55193 -->
<g id="edge62" class="edge">
<title>55192&#45;&gt;55193</title>
<path fill="none" stroke="#dddddd" d="M9037.38,-739.95C9043.72,-739.62 9050,-739.32 9056.21,-739.05 9131.47,-735.83 9150.58,-733.54 9225.71,-739.05 9229.39,-739.32 9233.09,-739.61 9236.81,-739.9"/>
<polygon fill="#dddddd" stroke="#dddddd" points="9236.23,-743.37 9246.48,-740.7 9236.8,-736.39 9236.23,-743.37"/>
<text text-anchor="middle" x="9140.96" y="-742.25" font-family="Times,serif" font-size="14.00">Drug Offences</text>
</g>
<!-- 55192&#45;&gt;55193 -->
<g id="edge63" class="edge">
<title>55192&#45;&gt;55193</title>
<path fill="none" stroke="#dddddd" d="M9034.57,-717.1C9041.85,-716.34 9049.08,-715.66 9056.21,-715.05 9131.28,-708.72 9150.75,-707.55 9225.71,-715.05 9230.78,-715.56 9235.88,-716.1 9241,-716.67"/>
<polygon fill="#dddddd" stroke="#dddddd" points="9240.41,-720.13 9250.74,-717.8 9241.21,-713.17 9240.41,-720.13"/>
<text text-anchor="middle" x="9140.96" y="-718.25" font-family="Times,serif" font-size="14.00">Motoring Offences</text>
</g>
<!-- 55192&#45;&gt;55193 -->
<g id="edge64" class="edge">
<title>55192&#45;&gt;55193</title>
<path fill="none" stroke="#dddddd" d="M9029.25,-693.02C9038.32,-691.53 9047.32,-690.2 9056.21,-689.05 9118.29,-681.08 9183.61,-682.7 9247.46,-689.95"/>
<polygon fill="#dddddd" stroke="#dddddd" points="9246.68,-693.38 9257.03,-691.09 9247.51,-686.43 9246.68,-693.38"/>
<text text-anchor="middle" x="9140.96" y="-692.25" font-family="Times,serif" font-size="14.00">Failure To Return From ROTL</text>
</g>
<!-- 55192&#45;&gt;55193 -->
<g id="edge65" class="edge">
<title>55192&#45;&gt;55193</title>
<path fill="none" stroke="#dddddd" d="M9021.7,-670.03C9033.28,-667.36 9044.82,-665 9056.21,-663.05 9120.96,-651.99 9189.15,-654.08 9255.51,-663.71"/>
<polygon fill="#dddddd" stroke="#dddddd" points="9254.66,-667.13 9265.07,-665.16 9255.71,-660.2 9254.66,-667.13"/>
<text text-anchor="middle" x="9140.96" y="-666.25" font-family="Times,serif" font-size="14.00">Other Offence</text>
</g>
<!-- 55194&#45;&gt;55195 -->
<g id="edge68" class="edge">
<title>55194&#45;&gt;55195</title>
<path fill="none" stroke="#dddddd" d="M10432.04,-1063.61C10445.92,-1069.65 10460.14,-1074.82 10474.31,-1078.55 10549.41,-1098.34 10573.97,-1098.4 10649.06,-1078.55 10662.97,-1074.88 10676.93,-1070.2 10690.73,-1064.8"/>
<polygon fill="#dddddd" stroke="#dddddd" points="10691.89,-1068.1 10699.84,-1061.1 10689.26,-1061.61 10691.89,-1068.1"/>
<text text-anchor="middle" x="10561.68" y="-1096.62" font-family="Times,serif" font-size="14.00">Location</text>
</g>
<!-- 55194&#45;&gt;55195 -->
<g id="edge69" class="edge">
<title>55194&#45;&gt;55195</title>
<path fill="none" stroke="#dddddd" d="M10447.43,-1033.13C10456.45,-1035.26 10465.46,-1037.1 10474.31,-1038.55 10550.95,-1051.14 10572.81,-1053.36 10649.06,-1038.55 10657.36,-1036.94 10665.74,-1035.05 10674.13,-1032.92"/>
<polygon fill="#dddddd" stroke="#dddddd" points="10674.95,-1036.32 10683.72,-1030.38 10673.16,-1029.56 10674.95,-1036.32"/>
<text text-anchor="middle" x="10561.68" y="-1052.04" font-family="Times,serif" font-size="14.00">Alcohol/drugs (under influence)</text>
</g>
<!-- 55194&#45;&gt;55195 -->
<g id="edge70" class="edge">
<title>55194&#45;&gt;55195</title>
<path fill="none" stroke="#dddddd" d="M10455.73,-997.38C10462,-997.83 10468.21,-998.22 10474.31,-998.55 10551.86,-1002.76 10571.92,-1007.64 10649.06,-998.55 10653.47,-998.03 10657.92,-997.46 10662.4,-996.85"/>
<polygon fill="#dddddd" stroke="#dddddd" points="10662.69,-1000.34 10672.08,-995.44 10661.68,-993.41 10662.69,-1000.34"/>
<text text-anchor="middle" x="10561.68" y="-1006.89" font-family="Times,serif" font-size="14.00">Gambling</text>
</g>
<!-- 55194&#45;&gt;55195 -->
<g id="edge71" class="edge">
<title>55194&#45;&gt;55195</title>
<path fill="none" stroke="#dddddd" d="M10456.14,-970.61C10516.45,-967.05 10585.97,-962.79 10649.06,-958.55 10651.31,-958.4 10653.58,-958.25 10655.85,-958.1"/>
<polygon fill="#dddddd" stroke="#dddddd" points="10656.06,-961.59 10665.8,-957.42 10655.59,-954.61 10656.06,-961.59"/>
<text text-anchor="middle" x="10561.68" y="-972.57" font-family="Times,serif" font-size="14.00">Finds (fill in separate report)</text>
</g>
<!-- 55194&#45;&gt;55195 -->
<g id="edge72" class="edge">
<title>55194&#45;&gt;55195</title>
<path fill="none" stroke="#dddddd" d="M10451.67,-941.23C10459.29,-940 10466.87,-938.93 10474.31,-938.05 10532.83,-931.2 10596.28,-928.95 10655.63,-929.07"/>
<polygon fill="#dddddd" stroke="#dddddd" points="10655.52,-932.57 10665.54,-929.12 10655.55,-925.57 10655.52,-932.57"/>
<text text-anchor="middle" x="10561.68" y="-941.25" font-family="Times,serif" font-size="14.00">Social Media</text>
</g>
<!-- 55194&#45;&gt;55195 -->
<g id="edge73" class="edge">
<title>55194&#45;&gt;55195</title>
<path fill="none" stroke="#dddddd" d="M10443.67,-916.52C10453.91,-913.57 10464.19,-911.02 10474.31,-909.05 10533.61,-897.55 10598.4,-896.83 10658.88,-901.1"/>
<polygon fill="#dddddd" stroke="#dddddd" points="10658.37,-904.57 10668.61,-901.84 10658.91,-897.59 10658.37,-904.57"/>
<text text-anchor="middle" x="10561.68" y="-912.25" font-family="Times,serif" font-size="14.00">Bad Behaviour</text>
</g>
<!-- 55194&#45;&gt;55195 -->
<g id="edge74" class="edge">
<title>55194&#45;&gt;55195</title>
<path fill="none" stroke="#dddddd" d="M10431.4,-893.61C10445.47,-887.32 10459.9,-881.93 10474.31,-878.05 10535.41,-861.6 10602.79,-863.35 10665.26,-872.89"/>
<polygon fill="#dddddd" stroke="#dddddd" points="10664.54,-876.32 10674.97,-874.45 10665.65,-869.41 10664.54,-876.32"/>
<text text-anchor="middle" x="10561.68" y="-881.25" font-family="Times,serif" font-size="14.00">Media Contact</text>
</g>
<!-- 55194&#45;&gt;55195 -->
<g id="edge75" class="edge">
<title>55194&#45;&gt;55195</title>
<path fill="none" stroke="#dddddd" d="M10416.2,-873.87C10434.57,-862.1 10454.19,-851.9 10474.31,-845.05 10538.5,-823.22 10609.95,-829.05 10675.33,-845.61"/>
<polygon fill="#dddddd" stroke="#dddddd" points="10674.17,-848.92 10684.73,-848.08 10675.95,-842.15 10674.17,-848.92"/>
<text text-anchor="middle" x="10561.68" y="-848.25" font-family="Times,serif" font-size="14.00">Other (Provide Details)</text>
</g>
<!-- 55196 -->
<g id="node20" class="node">
<title>55196</title>
<ellipse fill="#dddddd" stroke="#dddddd" cx="11680.39" cy="-940.55" rx="505.33" ry="505.33"/>
<text text-anchor="middle" x="11680.39" y="-935.5" font-family="Times,serif" font-size="14.00">Have SFO Team, Offender Manager In The Community, Victim Liaison Officer And Employer (where appropriate) been informed?</text>
</g>
<!-- 55195&#45;&gt;55196 -->
<g id="edge76" class="edge">
<title>55195&#45;&gt;55196</title>
<path fill="none" stroke="#dddddd" d="M11119.28,-940.55C11133.78,-940.55 11148.65,-940.55 11163.79,-940.55"/>
<polygon fill="#dddddd" stroke="#dddddd" points="11163.35,-944.05 11173.35,-940.55 11163.35,-937.05 11163.35,-944.05"/>
<text text-anchor="middle" x="11146.94" y="-943.75" font-family="Times,serif" font-size="14.00">Yes</text>
</g>
<!-- 55195&#45;&gt;55196 -->
<g id="edge77" class="edge">
<title>55195&#45;&gt;55196</title>
<path fill="none" stroke="#dddddd" d="M11118.2,-920.93C11124.47,-920.61 11130.68,-920.31 11136.81,-920.05 11145.67,-919.68 11154.61,-919.36 11163.61,-919.1"/>
<polygon fill="#dddddd" stroke="#dddddd" points="11163.63,-922.6 11173.53,-918.83 11163.44,-915.6 11163.63,-922.6"/>
<text text-anchor="middle" x="11146.94" y="-923.25" font-family="Times,serif" font-size="14.00">No</text>
</g>
<!-- 55197 -->
<g id="node21" class="node">
<title>55197</title>
<ellipse fill="#dddddd" stroke="#dddddd" cx="12536.79" cy="-940.55" rx="213.08" ry="213.08"/>
<text text-anchor="middle" x="12536.79" y="-935.5" font-family="Times,serif" font-size="14.00">Has The Deputy Director Of Custody Been Informed?</text>
</g>
<!-- 55196&#45;&gt;55197 -->
<g id="edge78" class="edge">
<title>55196&#45;&gt;55197</title>
<path fill="none" stroke="#dddddd" d="M12186.12,-940.55C12229.92,-940.55 12272.59,-940.55 12312.21,-940.55"/>
<polygon fill="#dddddd" stroke="#dddddd" points="12312.07,-944.05 12322.07,-940.55 12312.07,-937.05 12312.07,-944.05"/>
<text text-anchor="middle" x="12254.71" y="-943.75" font-family="Times,serif" font-size="14.00">Yes (Enter Date)</text>
</g>
<!-- 55196&#45;&gt;55197 -->
<g id="edge79" class="edge">
<title>55196&#45;&gt;55197</title>
<path fill="none" stroke="#dddddd" d="M12185.31,-917.31C12226.05,-917.47 12266.57,-918.31 12305.71,-920.05 12308.1,-920.16 12310.5,-920.27 12312.91,-920.39"/>
<polygon fill="#dddddd" stroke="#dddddd" points="12312.59,-923.88 12322.76,-920.91 12312.96,-916.89 12312.59,-923.88"/>
<text text-anchor="middle" x="12254.71" y="-923.25" font-family="Times,serif" font-size="14.00">No (Enter Reason)</text>
</g>
<!-- 55198 -->
<g id="node22" class="node">
<title>55198</title>
<ellipse fill="#dddddd" stroke="#dddddd" cx="13005.25" cy="-940.55" rx="117.37" ry="117.37"/>
<text text-anchor="middle" x="13005.25" y="-935.5" font-family="Times,serif" font-size="14.00">Have PPCS Been Informed?</text>
</g>
<!-- 55197&#45;&gt;55198 -->
<g id="edge80" class="edge">
<title>55197&#45;&gt;55198</title>
<path fill="none" stroke="#dddddd" d="M12750.21,-940.55C12793.22,-940.55 12837.18,-940.55 12876.17,-940.55"/>
<polygon fill="#dddddd" stroke="#dddddd" points="12876.06,-944.05 12886.06,-940.55 12876.06,-937.05 12876.06,-944.05"/>
<text text-anchor="middle" x="12818.88" y="-943.75" font-family="Times,serif" font-size="14.00">Yes (Enter Date)</text>
</g>
<!-- 55197&#45;&gt;55198 -->
<g id="edge81" class="edge">
<title>55197&#45;&gt;55198</title>
<path fill="none" stroke="#dddddd" d="M12749.11,-918.8C12789.23,-917.14 12830.86,-917.1 12869.88,-920.05 12872.41,-920.25 12874.97,-920.46 12877.54,-920.69"/>
<polygon fill="#dddddd" stroke="#dddddd" points="12877.13,-924.17 12887.43,-921.66 12877.82,-917.2 12877.13,-924.17"/>
<text text-anchor="middle" x="12818.88" y="-923.25" font-family="Times,serif" font-size="14.00">No (Enter Reason)</text>
</g>
<!-- 55198&#45;&gt;END_NODE -->
<g id="edge82" class="edge">
<title>55198&#45;&gt;END_NODE</title>
<path fill="none" stroke="#dddddd" d="M13123.11,-940.55C13169.28,-940.55 13219.53,-940.55 13254.41,-940.55"/>
<polygon fill="#dddddd" stroke="#dddddd" points="13254.1,-944.05 13264.1,-940.55 13254.1,-937.05 13254.1,-944.05"/>
<text text-anchor="middle" x="13194.25" y="-943.75" font-family="Times,serif" font-size="14.00">Yes (Enter Date)</text>
</g>
<!-- 55198&#45;&gt;END_NODE -->
<g id="edge83" class="edge">
<title>55198&#45;&gt;END_NODE</title>
<path fill="none" stroke="#dddddd" d="M13120.64,-918C13161.1,-913.4 13206.75,-912.08 13247.88,-920.05 13251.23,-920.7 13254.64,-921.57 13258.02,-922.59"/>
<polygon fill="#dddddd" stroke="#dddddd" points="13256.63,-925.81 13267.22,-925.75 13258.9,-919.19 13256.63,-925.81"/>
<text text-anchor="middle" x="13194.25" y="-923.25" font-family="Times,serif" font-size="14.00">No (Enter Reasons)</text>
</g>
</g>
</svg>
