<?xml version="1.0" encoding="UTF-8" standalone="no"?>
<!DOCTYPE svg PUBLIC "-//W3C//DTD SVG 1.1//EN"
 "http://www.w3.org/Graphics/SVG/1.1/DTD/svg11.dtd">
<!-- Generated by graphviz version 12.1.1 (20240910.0053)
 -->
<!-- Title: OLD_KEY_LOCK_INCIDENT Pages: 1 -->
<svg width="8491pt" height="829pt"
 viewBox="0.00 0.00 8491.14 828.76" xmlns="http://www.w3.org/2000/svg" xmlns:xlink="http://www.w3.org/1999/xlink">
<g id="graph0" class="graph" transform="scale(1 1) rotate(0) translate(4 824.76)">
<title>OLD_KEY_LOCK_INCIDENT</title>
<polygon fill="white" stroke="none" points="-4,4 -4,-824.76 8487.14,-824.76 8487.14,4 -4,4"/>
<!-- START_NODE -->
<g id="node1" class="node">
<title>START_NODE</title>
</g>
<!-- 44598 -->
<g id="node2" class="node">
<title>44598</title>
<ellipse fill="#dddddd" stroke="#dddddd" cx="280.27" cy="-399.75" rx="167.02" ry="167.02"/>
<text text-anchor="middle" x="280.27" y="-394.7" font-family="Times,serif" font-size="14.00">Were the police informed of the incident?</text>
</g>
<!-- START_NODE&#45;&gt;44598 -->
<g id="edge1" class="edge">
<title>START_NODE&#45;&gt;44598</title>
<path fill="none" stroke="black" d="M53.94,-399.75C66.67,-399.75 83.21,-399.75 101.55,-399.75"/>
<polygon fill="black" stroke="black" points="101.34,-403.25 111.34,-399.75 101.34,-396.25 101.34,-403.25"/>
<text text-anchor="middle" x="83.62" y="-402.95" font-family="Times,serif" font-size="14.00">start</text>
</g>
<!-- 44166 -->
<g id="node4" class="node">
<title>44166</title>
<ellipse fill="#dddddd" stroke="#dddddd" cx="1177.29" cy="-320.75" rx="202.33" ry="202.33"/>
<text text-anchor="middle" x="1177.29" y="-315.7" font-family="Times,serif" font-size="14.00">Has any prosecution taken place or is any pending?</text>
</g>
<!-- 44598&#45;&gt;44166 -->
<g id="edge28" class="edge">
<title>44598&#45;&gt;44166</title>
<path fill="none" stroke="#dddddd" d="M432.09,-470.04C457.22,-479.03 483.38,-486.81 508.79,-491.75 685.33,-526.1 741.03,-542.91 913.46,-491.75 945.6,-482.22 977.49,-467.37 1007.39,-450.33"/>
<polygon fill="#dddddd" stroke="#dddddd" points="1008.83,-453.54 1015.71,-445.48 1005.31,-447.49 1008.83,-453.54"/>
<text text-anchor="middle" x="711.12" y="-527.32" font-family="Times,serif" font-size="14.00">NO</text>
</g>
<!-- 45072 -->
<g id="node17" class="node">
<title>45072</title>
<ellipse fill="#dddddd" stroke="#dddddd" cx="711.12" cy="-280.75" rx="202.33" ry="202.33"/>
<text text-anchor="middle" x="711.12" y="-275.7" font-family="Times,serif" font-size="14.00">Is the incident the subject of a police investigation?</text>
</g>
<!-- 44598&#45;&gt;45072 -->
<g id="edge27" class="edge">
<title>44598&#45;&gt;45072</title>
<path fill="none" stroke="#dddddd" d="M441.57,-355.27C462.13,-349.57 483.41,-343.66 504.57,-337.79"/>
<polygon fill="#dddddd" stroke="#dddddd" points="505.46,-341.18 514.16,-335.13 503.59,-334.43 505.46,-341.18"/>
<text text-anchor="middle" x="478.04" y="-350.58" font-family="Times,serif" font-size="14.00">YES</text>
</g>
<!-- END_NODE -->
<g id="node3" class="node">
<title>END_NODE</title>
<ellipse fill="none" stroke="black" cx="8449.29" cy="-521.75" rx="29.86" ry="29.86"/>
<ellipse fill="none" stroke="black" cx="8449.29" cy="-521.75" rx="33.86" ry="33.86"/>
<text text-anchor="middle" x="8449.29" y="-516.7" font-family="Times,serif" font-size="14.00">END</text>
</g>
<!-- 44331 -->
<g id="node5" class="node">
<title>44331</title>
<ellipse fill="#dddddd" stroke="#dddddd" cx="1653.7" cy="-320.75" rx="212.57" ry="212.57"/>
<text text-anchor="middle" x="1653.7" y="-315.7" font-family="Times,serif" font-size="14.00">Is the incident the subject of an internal investigation?</text>
</g>
<!-- 44166&#45;&gt;44331 -->
<g id="edge2" class="edge">
<title>44166&#45;&gt;44331</title>
<path fill="none" stroke="#dddddd" d="M1379.83,-320.75C1396.23,-320.75 1412.87,-320.75 1429.42,-320.75"/>
<polygon fill="#dddddd" stroke="#dddddd" points="1429.34,-324.25 1439.34,-320.75 1429.34,-317.25 1429.34,-324.25"/>
<text text-anchor="middle" x="1410.38" y="-323.95" font-family="Times,serif" font-size="14.00">YES</text>
</g>
<!-- 44166&#45;&gt;44331 -->
<g id="edge3" class="edge">
<title>44166&#45;&gt;44331</title>
<path fill="none" stroke="#dddddd" d="M1379.05,-301.24C1385.31,-300.87 1391.52,-300.54 1397.63,-300.25 1408.45,-299.75 1419.52,-299.53 1430.69,-299.54"/>
<polygon fill="#dddddd" stroke="#dddddd" points="1430.36,-303.03 1440.38,-299.61 1430.41,-296.03 1430.36,-303.03"/>
<text text-anchor="middle" x="1410.38" y="-303.45" font-family="Times,serif" font-size="14.00">NO</text>
</g>
<!-- 44386 -->
<g id="node8" class="node">
<title>44386</title>
<ellipse fill="#dddddd" stroke="#dddddd" cx="2129.59" cy="-320.75" rx="201.82" ry="201.82"/>
<text text-anchor="middle" x="2129.59" y="-315.7" font-family="Times,serif" font-size="14.00">Is the incident subject to a governor&#39;s adjudication?</text>
</g>
<!-- 44331&#45;&gt;44386 -->
<g id="edge6" class="edge">
<title>44331&#45;&gt;44386</title>
<path fill="none" stroke="#dddddd" d="M1866.7,-320.75C1883.12,-320.75 1899.7,-320.75 1916.12,-320.75"/>
<polygon fill="#dddddd" stroke="#dddddd" points="1915.95,-324.25 1925.95,-320.75 1915.95,-317.25 1915.95,-324.25"/>
<text text-anchor="middle" x="1897.02" y="-323.95" font-family="Times,serif" font-size="14.00">YES</text>
</g>
<!-- 44331&#45;&gt;44386 -->
<g id="edge7" class="edge">
<title>44331&#45;&gt;44386</title>
<path fill="none" stroke="#dddddd" d="M1865.5,-299.62C1880.48,-299.41 1895.35,-299.58 1909.77,-300.25 1912.15,-300.36 1914.55,-300.48 1916.96,-300.61"/>
<polygon fill="#dddddd" stroke="#dddddd" points="1916.62,-304.09 1926.8,-301.15 1917.01,-297.1 1916.62,-304.09"/>
<text text-anchor="middle" x="1897.02" y="-303.45" font-family="Times,serif" font-size="14.00">NO</text>
</g>
<!-- 44228 -->
<g id="node6" class="node">
<title>44228</title>
<ellipse fill="#dddddd" stroke="#dddddd" cx="3464.64" cy="-320.75" rx="199.78" ry="199.78"/>
<text text-anchor="middle" x="3464.64" y="-315.7" font-family="Times,serif" font-size="14.00">Has the prison service press office been informed?</text>
</g>
<!-- 44972 -->
<g id="node7" class="node">
<title>44972</title>
<ellipse fill="#dddddd" stroke="#dddddd" cx="3905.73" cy="-320.75" rx="179.82" ry="179.82"/>
<text text-anchor="middle" x="3905.73" y="-315.7" font-family="Times,serif" font-size="14.00">Describe the type of key or lock compromise</text>
</g>
<!-- 44228&#45;&gt;44972 -->
<g id="edge4" class="edge">
<title>44228&#45;&gt;44972</title>
<path fill="none" stroke="#dddddd" d="M3664.63,-320.75C3681.13,-320.75 3697.79,-320.75 3714.22,-320.75"/>
<polygon fill="#dddddd" stroke="#dddddd" points="3714.05,-324.25 3724.05,-320.75 3714.05,-317.25 3714.05,-324.25"/>
<text text-anchor="middle" x="3695.16" y="-323.95" font-family="Times,serif" font-size="14.00">YES</text>
</g>
<!-- 44228&#45;&gt;44972 -->
<g id="edge5" class="edge">
<title>44228&#45;&gt;44972</title>
<path fill="none" stroke="#dddddd" d="M3663.57,-299.57C3678.57,-299.32 3693.48,-299.5 3707.91,-300.25 3710.42,-300.38 3712.95,-300.52 3715.49,-300.67"/>
<polygon fill="#dddddd" stroke="#dddddd" points="3715,-304.15 3725.2,-301.28 3715.44,-297.16 3715,-304.15"/>
<text text-anchor="middle" x="3695.16" y="-303.45" font-family="Times,serif" font-size="14.00">NO</text>
</g>
<!-- 45015 -->
<g id="node21" class="node">
<title>45015</title>
<ellipse fill="#dddddd" stroke="#dddddd" cx="4485.57" cy="-320.75" rx="156.27" ry="156.27"/>
<text text-anchor="middle" x="4485.57" y="-315.7" font-family="Times,serif" font-size="14.00">Describe the nature of the compromise</text>
</g>
<!-- 44972&#45;&gt;45015 -->
<g id="edge55" class="edge">
<title>44972&#45;&gt;45015</title>
<path fill="none" stroke="#dddddd" d="M3983.87,-482.79C4014.31,-528.71 4054.04,-573.15 4103.55,-598.75 4185.56,-641.18 4230.56,-643.56 4311.3,-598.75 4360.02,-571.71 4396.84,-524.63 4423.72,-476.82"/>
<polygon fill="#dddddd" stroke="#dddddd" points="4426.67,-478.71 4428.4,-468.26 4420.53,-475.35 4426.67,-478.71"/>
<text text-anchor="middle" x="4207.42" y="-634.67" font-family="Times,serif" font-size="14.00">CLASS 1 PASS KEY</text>
</g>
<!-- 44972&#45;&gt;45015 -->
<g id="edge56" class="edge">
<title>44972&#45;&gt;45015</title>
<path fill="none" stroke="#dddddd" d="M3999.99,-474.27C4028.65,-508.31 4063.4,-539.86 4103.55,-558.75 4145.32,-578.41 4270.15,-579.69 4311.3,-558.75 4350.56,-538.77 4383.02,-505.27 4408.82,-469.61"/>
<polygon fill="#dddddd" stroke="#dddddd" points="4411.46,-471.93 4414.36,-461.74 4405.74,-467.9 4411.46,-471.93"/>
<text text-anchor="middle" x="4207.42" y="-577.18" font-family="Times,serif" font-size="14.00">CLASS 2 PASS KEY</text>
</g>
<!-- 44972&#45;&gt;45015 -->
<g id="edge57" class="edge">
<title>44972&#45;&gt;45015</title>
<path fill="none" stroke="#dddddd" d="M4017.84,-461.8C4043.31,-485.01 4072.22,-505.72 4103.55,-518.75 4146.17,-536.48 4269.25,-537.83 4311.3,-518.75 4341.29,-505.15 4368.13,-483.5 4391.22,-459.42"/>
<polygon fill="#dddddd" stroke="#dddddd" points="4393.62,-461.98 4397.87,-452.27 4388.49,-457.21 4393.62,-461.98"/>
<text text-anchor="middle" x="4207.42" y="-535.76" font-family="Times,serif" font-size="14.00">CELL KEY</text>
</g>
<!-- 44972&#45;&gt;45015 -->
<g id="edge58" class="edge">
<title>44972&#45;&gt;45015</title>
<path fill="none" stroke="#dddddd" d="M4036.75,-444.28C4057.76,-458.36 4080.29,-470.58 4103.55,-478.75 4147.1,-494.07 4268.25,-495.43 4311.3,-478.75 4332.66,-470.47 4353.01,-458.2 4371.76,-444.08"/>
<polygon fill="#dddddd" stroke="#dddddd" points="4373.9,-446.85 4379.63,-437.94 4369.59,-441.33 4373.9,-446.85"/>
<text text-anchor="middle" x="4207.42" y="-493.95" font-family="Times,serif" font-size="14.00">CLASS 3 A1 SUITE KEY</text>
</g>
<!-- 44972&#45;&gt;45015 -->
<g id="edge59" class="edge">
<title>44972&#45;&gt;45015</title>
<path fill="none" stroke="#dddddd" d="M4055.58,-420.91C4071.29,-428.11 4087.42,-434.29 4103.55,-438.75 4192.53,-463.39 4223.06,-465.95 4311.3,-438.75 4325.01,-434.53 4338.62,-428.8 4351.82,-422.14"/>
<polygon fill="#dddddd" stroke="#dddddd" points="4353.27,-425.33 4360.49,-417.57 4350.01,-419.13 4353.27,-425.33"/>
<text text-anchor="middle" x="4207.42" y="-461.39" font-family="Times,serif" font-size="14.00">CLASS 3 ACCOUNTABLE KEY</text>
</g>
<!-- 44972&#45;&gt;45015 -->
<g id="edge60" class="edge">
<title>44972&#45;&gt;45015</title>
<path fill="none" stroke="#dddddd" d="M4071.57,-391.19C4082.27,-394.16 4092.99,-396.74 4103.55,-398.75 4194.24,-416.07 4221.02,-418.14 4311.3,-398.75 4318.86,-397.13 4326.49,-395.15 4334.11,-392.89"/>
<polygon fill="#dddddd" stroke="#dddddd" points="4334.94,-396.3 4343.44,-389.97 4332.85,-389.62 4334.94,-396.3"/>
<text text-anchor="middle" x="4207.42" y="-415.72" font-family="Times,serif" font-size="14.00">HANDCUFF KEY</text>
</g>
<!-- 44972&#45;&gt;45015 -->
<g id="edge61" class="edge">
<title>44972&#45;&gt;45015</title>
<path fill="none" stroke="#dddddd" d="M4082.46,-356.4C4089.57,-357.3 4096.62,-358.09 4103.55,-358.75 4195.46,-367.55 4219.5,-368.7 4311.3,-358.75 4314.78,-358.38 4318.3,-357.96 4321.84,-357.5"/>
<polygon fill="#dddddd" stroke="#dddddd" points="4322.29,-360.97 4331.71,-356.13 4321.33,-354.04 4322.29,-360.97"/>
<text text-anchor="middle" x="4207.42" y="-368.99" font-family="Times,serif" font-size="14.00">CLOSETING/ESCORT CHAIN KEY</text>
</g>
<!-- 44972&#45;&gt;45015 -->
<g id="edge62" class="edge">
<title>44972&#45;&gt;45015</title>
<path fill="none" stroke="#dddddd" d="M4086,-320.75C4160.07,-320.75 4245.43,-320.75 4318.11,-320.75"/>
<polygon fill="#dddddd" stroke="#dddddd" points="4317.68,-324.25 4327.68,-320.75 4317.68,-317.25 4317.68,-324.25"/>
<text text-anchor="middle" x="4207.42" y="-323.95" font-family="Times,serif" font-size="14.00">CLASS 1 LOCK</text>
</g>
<!-- 44972&#45;&gt;45015 -->
<g id="edge63" class="edge">
<title>44972&#45;&gt;45015</title>
<path fill="none" stroke="#dddddd" d="M4084.75,-301.37C4091.09,-300.95 4097.37,-300.57 4103.55,-300.25 4195.75,-295.46 4219.12,-294.82 4311.3,-300.25 4313.81,-300.4 4316.35,-300.56 4318.9,-300.73"/>
<polygon fill="#dddddd" stroke="#dddddd" points="4318.45,-304.21 4328.68,-301.44 4318.96,-297.23 4318.45,-304.21"/>
<text text-anchor="middle" x="4207.42" y="-303.45" font-family="Times,serif" font-size="14.00">CLASS 2 LOCK</text>
</g>
<!-- 44972&#45;&gt;45015 -->
<g id="edge64" class="edge">
<title>44972&#45;&gt;45015</title>
<path fill="none" stroke="#dddddd" d="M4081.04,-279.21C4088.62,-278.07 4096.15,-277.08 4103.55,-276.25 4195.31,-266.01 4219.69,-264.68 4311.3,-276.25 4315.19,-276.75 4319.12,-277.3 4323.07,-277.9"/>
<polygon fill="#dddddd" stroke="#dddddd" points="4322.34,-281.33 4332.78,-279.49 4323.48,-274.42 4322.34,-281.33"/>
<text text-anchor="middle" x="4207.42" y="-279.45" font-family="Times,serif" font-size="14.00">CELL LOCK</text>
</g>
<!-- 44972&#45;&gt;45015 -->
<g id="edge65" class="edge">
<title>44972&#45;&gt;45015</title>
<path fill="none" stroke="#dddddd" d="M4073.08,-254.02C4083.29,-251.37 4093.49,-249.07 4103.55,-247.25 4194.41,-230.84 4220.81,-228.86 4311.3,-247.25 4318.23,-248.66 4325.23,-250.36 4332.24,-252.29"/>
<polygon fill="#dddddd" stroke="#dddddd" points="4331.21,-255.63 4341.79,-255.07 4333.17,-248.91 4331.21,-255.63"/>
<text text-anchor="middle" x="4207.42" y="-250.45" font-family="Times,serif" font-size="14.00">CLASS 3 A1 SUITE LOCK</text>
</g>
<!-- 44972&#45;&gt;45015 -->
<g id="edge66" class="edge">
<title>44972&#45;&gt;45015</title>
<path fill="none" stroke="#dddddd" d="M4060.08,-227.85C4074.41,-221.99 4089.02,-216.96 4103.55,-213.25 4193.01,-190.41 4222.5,-187.95 4311.3,-213.25 4323.28,-216.67 4335.24,-221.18 4346.96,-226.41"/>
<polygon fill="#dddddd" stroke="#dddddd" points="4345.28,-229.49 4355.82,-230.55 4348.24,-223.15 4345.28,-229.49"/>
<text text-anchor="middle" x="4207.42" y="-216.45" font-family="Times,serif" font-size="14.00">CLASS 3 ACCOUNTABLE LOCK</text>
</g>
<!-- 44972&#45;&gt;45015 -->
<g id="edge67" class="edge">
<title>44972&#45;&gt;45015</title>
<path fill="none" stroke="#dddddd" d="M4042.43,-203.2C4061.91,-191.4 4082.52,-181.22 4103.55,-174.25 4191.19,-145.21 4224.59,-142.51 4311.3,-174.25 4330.51,-181.29 4349.06,-191.5 4366.43,-203.31"/>
<polygon fill="#dddddd" stroke="#dddddd" points="4363.97,-205.86 4374.16,-208.75 4368,-200.13 4363.97,-205.86"/>
<text text-anchor="middle" x="4207.42" y="-177.45" font-family="Times,serif" font-size="14.00">HANDCUFF</text>
</g>
<!-- 44972&#45;&gt;45015 -->
<g id="edge68" class="edge">
<title>44972&#45;&gt;45015</title>
<path fill="none" stroke="#dddddd" d="M4021.69,-183.07C4046.34,-161.92 4073.96,-143.18 4103.55,-131.25 4189.18,-96.73 4226.8,-94.02 4311.3,-131.25 4339.45,-143.66 4365.02,-163.15 4387.35,-185.01"/>
<polygon fill="#dddddd" stroke="#dddddd" points="4384.84,-187.45 4394.37,-192.08 4389.81,-182.52 4384.84,-187.45"/>
<text text-anchor="middle" x="4207.42" y="-134.45" font-family="Times,serif" font-size="14.00">CLOSETING/ESCORT CHAIN</text>
</g>
<!-- 44972&#45;&gt;45015 -->
<g id="edge69" class="edge">
<title>44972&#45;&gt;45015</title>
<path fill="none" stroke="#dddddd" d="M4000.67,-167.58C4029.23,-133.98 4063.76,-102.9 4103.55,-84.25 4187.15,-45.06 4228.94,-42.5 4311.3,-84.25 4350.22,-103.99 4382.5,-137.03 4408.23,-172.25"/>
<polygon fill="#dddddd" stroke="#dddddd" points="4405.11,-173.89 4413.75,-180.01 4410.81,-169.84 4405.11,-173.89"/>
<text text-anchor="middle" x="4207.42" y="-87.45" font-family="Times,serif" font-size="14.00">ELECTRONIC LOCK SYSTEM</text>
</g>
<!-- 44972&#45;&gt;45015 -->
<g id="edge70" class="edge">
<title>44972&#45;&gt;45015</title>
<path fill="none" stroke="#dddddd" d="M3980.6,-156.72C4011.24,-108.03 4051.91,-60.48 4103.55,-33.25 4185.22,9.81 4230.9,12.16 4311.3,-33.25 4362.31,-62.07 4399.99,-112.6 4426.92,-163.35"/>
<polygon fill="#dddddd" stroke="#dddddd" points="4423.77,-164.87 4431.47,-172.15 4429.99,-161.66 4423.77,-164.87"/>
<text text-anchor="middle" x="4207.42" y="-36.45" font-family="Times,serif" font-size="14.00">OTHER</text>
</g>
<!-- 44414 -->
<g id="node11" class="node">
<title>44414</title>
<ellipse fill="#dddddd" stroke="#dddddd" cx="2595.76" cy="-320.75" rx="202.85" ry="202.85"/>
<text text-anchor="middle" x="2595.76" y="-315.7" font-family="Times,serif" font-size="14.00">Is any member of staff facing disciplinary charges?</text>
</g>
<!-- 44386&#45;&gt;44414 -->
<g id="edge10" class="edge">
<title>44386&#45;&gt;44414</title>
<path fill="none" stroke="#dddddd" d="M2331.82,-320.75C2348.24,-320.75 2364.86,-320.75 2381.35,-320.75"/>
<polygon fill="#dddddd" stroke="#dddddd" points="2381.23,-324.25 2391.23,-320.75 2381.23,-317.25 2381.23,-324.25"/>
<text text-anchor="middle" x="2362.17" y="-323.95" font-family="Times,serif" font-size="14.00">YES</text>
</g>
<!-- 44386&#45;&gt;44414 -->
<g id="edge11" class="edge">
<title>44386&#45;&gt;44414</title>
<path fill="none" stroke="#dddddd" d="M2330.88,-301.24C2337.13,-300.87 2343.32,-300.54 2349.42,-300.25 2360.22,-299.75 2371.29,-299.54 2382.47,-299.58"/>
<polygon fill="#dddddd" stroke="#dddddd" points="2382.12,-303.08 2392.16,-299.69 2382.19,-296.08 2382.12,-303.08"/>
<text text-anchor="middle" x="2362.17" y="-303.45" font-family="Times,serif" font-size="14.00">NO</text>
</g>
<!-- 44355 -->
<g id="node9" class="node">
<title>44355</title>
<ellipse fill="#dddddd" stroke="#dddddd" cx="5049.17" cy="-663.75" rx="107.65" ry="107.65"/>
<text text-anchor="middle" x="5049.17" y="-658.7" font-family="Times,serif" font-size="14.00">Has a replica been found?</text>
</g>
<!-- 44894 -->
<g id="node10" class="node">
<title>44894</title>
<ellipse fill="#dddddd" stroke="#dddddd" cx="5565.89" cy="-436.75" rx="171.63" ry="171.63"/>
<text text-anchor="middle" x="5565.89" y="-431.7" font-family="Times,serif" font-size="14.00">What action was taken to find these items?</text>
</g>
<!-- 44355&#45;&gt;44894 -->
<g id="edge8" class="edge">
<title>44355&#45;&gt;44894</title>
<path fill="none" stroke="#dddddd" d="M5155.3,-644.78C5220.94,-630.52 5306.02,-607.58 5376.26,-573.75 5391.29,-566.52 5406.37,-558.06 5421.1,-548.96"/>
<polygon fill="#dddddd" stroke="#dddddd" points="5422.85,-551.99 5429.44,-543.7 5419.11,-546.07 5422.85,-551.99"/>
<text text-anchor="middle" x="5290.38" y="-634.65" font-family="Times,serif" font-size="14.00">YES</text>
</g>
<!-- 44355&#45;&gt;44894 -->
<g id="edge9" class="edge">
<title>44355&#45;&gt;44894</title>
<path fill="none" stroke="#dddddd" d="M5133.71,-596.86C5155.88,-581.13 5180.38,-565.42 5204.51,-553.25 5262.11,-524.21 5328.49,-500.32 5388.46,-481.89"/>
<polygon fill="#dddddd" stroke="#dddddd" points="5389.19,-485.33 5397.74,-479.07 5387.16,-478.63 5389.19,-485.33"/>
<text text-anchor="middle" x="5290.38" y="-556.45" font-family="Times,serif" font-size="14.00">NO</text>
</g>
<!-- 44866 -->
<g id="node20" class="node">
<title>44866</title>
<ellipse fill="#dddddd" stroke="#dddddd" cx="6031.41" cy="-252.75" rx="74.89" ry="74.89"/>
<text text-anchor="middle" x="6031.41" y="-247.7" font-family="Times,serif" font-size="14.00">Were tools used?</text>
</g>
<!-- 44894&#45;&gt;44866 -->
<g id="edge37" class="edge">
<title>44894&#45;&gt;44866</title>
<path fill="none" stroke="#dddddd" d="M5737.55,-448.45C5804.52,-445.56 5879.34,-432.42 5938.51,-395.75 5963.09,-380.52 5982.32,-356 5996.69,-331.53"/>
<polygon fill="#dddddd" stroke="#dddddd" points="5999.56,-333.56 6001.42,-323.13 5993.46,-330.13 5999.56,-333.56"/>
<text text-anchor="middle" x="5847.01" y="-450.57" font-family="Times,serif" font-size="14.00">FULL CLOSE DOWN SEARCH</text>
</g>
<!-- 44894&#45;&gt;44866 -->
<g id="edge38" class="edge">
<title>44894&#45;&gt;44866</title>
<path fill="none" stroke="#dddddd" d="M5729.16,-382.79C5738.05,-380.17 5746.88,-377.63 5755.51,-375.25 5835.91,-353.08 5864.26,-371.73 5938.51,-333.75 5949.38,-328.19 5960,-321.05 5969.93,-313.32"/>
<polygon fill="#dddddd" stroke="#dddddd" points="5972.12,-316.05 5977.67,-307.03 5967.71,-310.62 5972.12,-316.05"/>
<text text-anchor="middle" x="5847.01" y="-378.45" font-family="Times,serif" font-size="14.00">PARTIAL SEARCH</text>
</g>
<!-- 44894&#45;&gt;44866 -->
<g id="edge39" class="edge">
<title>44894&#45;&gt;44866</title>
<path fill="none" stroke="#dddddd" d="M5706.46,-337.58C5722.56,-328.51 5739.1,-320.16 5755.51,-313.25 5816.51,-287.6 5889.9,-272.15 5945.5,-263.3"/>
<polygon fill="#dddddd" stroke="#dddddd" points="5945.88,-266.78 5955.23,-261.79 5944.81,-259.86 5945.88,-266.78"/>
<text text-anchor="middle" x="5847.01" y="-316.45" font-family="Times,serif" font-size="14.00">OTHER</text>
</g>
<!-- 44678 -->
<g id="node14" class="node">
<title>44678</title>
<ellipse fill="#dddddd" stroke="#dddddd" cx="3031.74" cy="-320.75" rx="171.63" ry="171.63"/>
<text text-anchor="middle" x="3031.74" y="-315.7" font-family="Times,serif" font-size="14.00">Is there any media interest in this incident?</text>
</g>
<!-- 44414&#45;&gt;44678 -->
<g id="edge21" class="edge">
<title>44414&#45;&gt;44678</title>
<path fill="none" stroke="#dddddd" d="M2798.82,-320.75C2815.35,-320.75 2832,-320.75 2848.38,-320.75"/>
<polygon fill="#dddddd" stroke="#dddddd" points="2848.16,-324.25 2858.16,-320.75 2848.16,-317.25 2848.16,-324.25"/>
<text text-anchor="middle" x="2829.36" y="-323.95" font-family="Times,serif" font-size="14.00">YES</text>
</g>
<!-- 44414&#45;&gt;44678 -->
<g id="edge22" class="edge">
<title>44414&#45;&gt;44678</title>
<path fill="none" stroke="#dddddd" d="M2797.87,-299.46C2812.83,-299.25 2827.71,-299.47 2842.11,-300.25 2844.62,-300.39 2847.14,-300.53 2849.68,-300.69"/>
<polygon fill="#dddddd" stroke="#dddddd" points="2849.17,-304.16 2859.38,-301.33 2849.63,-297.18 2849.17,-304.16"/>
<text text-anchor="middle" x="2829.36" y="-303.45" font-family="Times,serif" font-size="14.00">NO</text>
</g>
<!-- 44407 -->
<g id="node12" class="node">
<title>44407</title>
<ellipse fill="#dddddd" stroke="#dddddd" cx="6263.68" cy="-469.75" rx="95.88" ry="95.88"/>
<text text-anchor="middle" x="6263.68" y="-464.7" font-family="Times,serif" font-size="14.00">What tools were used?</text>
</g>
<!-- 44925 -->
<g id="node13" class="node">
<title>44925</title>
<ellipse fill="#dddddd" stroke="#dddddd" cx="6655.14" cy="-509.75" rx="137.34" ry="137.34"/>
<text text-anchor="middle" x="6655.14" y="-504.7" font-family="Times,serif" font-size="14.00">What was the source of the tools?</text>
</g>
<!-- 44407&#45;&gt;44925 -->
<g id="edge12" class="edge">
<title>44407&#45;&gt;44925</title>
<path fill="none" stroke="#dddddd" d="M6305.42,-556.25C6323.33,-584.3 6347.28,-612.17 6377.56,-627.75 6425.87,-652.61 6448.34,-645.17 6499.81,-627.75 6514.73,-622.7 6529.35,-615.56 6543.28,-607.27"/>
<polygon fill="#dddddd" stroke="#dddddd" points="6544.87,-610.4 6551.52,-602.15 6541.18,-604.45 6544.87,-610.4"/>
<text text-anchor="middle" x="6438.68" y="-646.93" font-family="Times,serif" font-size="14.00">HACKSAW BLADE</text>
</g>
<!-- 44407&#45;&gt;44925 -->
<g id="edge13" class="edge">
<title>44407&#45;&gt;44925</title>
<path fill="none" stroke="#dddddd" d="M6320.91,-546.84C6337.15,-563.42 6356.31,-578.68 6377.56,-587.75 6424.37,-607.75 6477.8,-599.42 6525.14,-582.16"/>
<polygon fill="#dddddd" stroke="#dddddd" points="6526.27,-585.48 6534.36,-578.64 6523.77,-578.94 6526.27,-585.48"/>
<text text-anchor="middle" x="6438.68" y="-602.6" font-family="Times,serif" font-size="14.00">OTHER BLADE</text>
</g>
<!-- 44407&#45;&gt;44925 -->
<g id="edge14" class="edge">
<title>44407&#45;&gt;44925</title>
<path fill="none" stroke="#dddddd" d="M6338.82,-529.99C6351.14,-537.28 6364.26,-543.6 6377.56,-547.75 6420.53,-561.16 6468.73,-559.83 6512.71,-552.7"/>
<polygon fill="#dddddd" stroke="#dddddd" points="6513.05,-556.2 6522.3,-551.03 6511.85,-549.3 6513.05,-556.2"/>
<text text-anchor="middle" x="6438.68" y="-561.19" font-family="Times,serif" font-size="14.00">WIRE CUTTERS</text>
</g>
<!-- 44407&#45;&gt;44925 -->
<g id="edge15" class="edge">
<title>44407&#45;&gt;44925</title>
<path fill="none" stroke="#dddddd" d="M6353.98,-502.67C6361.87,-504.71 6369.81,-506.46 6377.56,-507.75 6418.99,-514.69 6464.4,-517.12 6506.24,-517.32"/>
<polygon fill="#dddddd" stroke="#dddddd" points="6506.13,-520.82 6516.13,-517.32 6506.13,-513.82 6506.13,-520.82"/>
<text text-anchor="middle" x="6438.68" y="-520.45" font-family="Times,serif" font-size="14.00">BOLT CROPPERS</text>
</g>
<!-- 44407&#45;&gt;44925 -->
<g id="edge16" class="edge">
<title>44407&#45;&gt;44925</title>
<path fill="none" stroke="#dddddd" d="M6359.78,-475.3C6402.63,-478.2 6453.83,-482.2 6499.81,-487.25 6502.48,-487.55 6505.17,-487.85 6507.88,-488.17"/>
<polygon fill="#dddddd" stroke="#dddddd" points="6507.28,-491.62 6517.62,-489.33 6508.11,-484.67 6507.28,-491.62"/>
<text text-anchor="middle" x="6438.68" y="-490.45" font-family="Times,serif" font-size="14.00">DIGGING TOOL</text>
</g>
<!-- 44407&#45;&gt;44925 -->
<g id="edge17" class="edge">
<title>44407&#45;&gt;44925</title>
<path fill="none" stroke="#dddddd" d="M6359.15,-457.62C6365.37,-457.08 6371.55,-456.61 6377.56,-456.25 6431.8,-453.02 6446.23,-447.23 6499.81,-456.25 6504.82,-457.1 6509.89,-458.09 6514.98,-459.19"/>
<polygon fill="#dddddd" stroke="#dddddd" points="6514.13,-462.59 6524.67,-461.46 6515.72,-455.77 6514.13,-462.59"/>
<text text-anchor="middle" x="6438.68" y="-459.45" font-family="Times,serif" font-size="14.00">CROW BAR</text>
</g>
<!-- 44407&#45;&gt;44925 -->
<g id="edge18" class="edge">
<title>44407&#45;&gt;44925</title>
<path fill="none" stroke="#dddddd" d="M6353.95,-436.35C6361.85,-434.29 6369.8,-432.54 6377.56,-431.25 6431.16,-422.36 6446.97,-418.59 6499.81,-431.25 6507.94,-433.2 6516.12,-435.65 6524.26,-438.48"/>
<polygon fill="#dddddd" stroke="#dddddd" points="6522.89,-441.71 6533.49,-441.87 6525.31,-435.13 6522.89,-441.71"/>
<text text-anchor="middle" x="6438.68" y="-434.45" font-family="Times,serif" font-size="14.00">IMPROVISED TOOL</text>
</g>
<!-- 44407&#45;&gt;44925 -->
<g id="edge19" class="edge">
<title>44407&#45;&gt;44925</title>
<path fill="none" stroke="#dddddd" d="M6343.36,-415.66C6354.44,-410.17 6366,-405.44 6377.56,-402.25 6429.93,-387.79 6447.97,-385.98 6499.81,-402.25 6512.71,-406.31 6525.49,-411.86 6537.83,-418.33"/>
<polygon fill="#dddddd" stroke="#dddddd" points="6535.85,-421.23 6546.3,-422.97 6539.21,-415.09 6535.85,-421.23"/>
<text text-anchor="middle" x="6438.68" y="-405.45" font-family="Times,serif" font-size="14.00">OTHER TOOL</text>
</g>
<!-- 44407&#45;&gt;44925 -->
<g id="edge20" class="edge">
<title>44407&#45;&gt;44925</title>
<path fill="none" stroke="#dddddd" d="M6329.14,-399.24C6343.8,-387.38 6360.21,-376.81 6377.56,-370.25 6428.39,-351.05 6449.1,-350.73 6499.81,-370.25 6518.72,-377.53 6536.76,-388.32 6553.39,-400.74"/>
<polygon fill="#dddddd" stroke="#dddddd" points="6551.24,-403.5 6561.29,-406.86 6555.53,-397.97 6551.24,-403.5"/>
<text text-anchor="middle" x="6438.68" y="-373.45" font-family="Times,serif" font-size="14.00">NOT KNOWN</text>
</g>
<!-- 44775 -->
<g id="node19" class="node">
<title>44775</title>
<ellipse fill="#dddddd" stroke="#dddddd" cx="7201.56" cy="-509.75" rx="148.08" ry="148.08"/>
<text text-anchor="middle" x="7201.56" y="-504.7" font-family="Times,serif" font-size="14.00">Has any remedial action been taken?</text>
</g>
<!-- 44925&#45;&gt;44775 -->
<g id="edge41" class="edge">
<title>44925&#45;&gt;44775</title>
<path fill="none" stroke="#dddddd" d="M6701.41,-639.51C6725.67,-688.75 6760.99,-739.69 6810.48,-767.75 6897.47,-817.08 6947.76,-815.77 7035.48,-767.75 7080.36,-743.19 7114.83,-700.64 7140.37,-657.1"/>
<polygon fill="#dddddd" stroke="#dddddd" points="7143.34,-658.94 7145.26,-648.52 7137.26,-655.47 7143.34,-658.94"/>
<text text-anchor="middle" x="6922.98" y="-807.46" font-family="Times,serif" font-size="14.00">WORKS DEPARTMENT</text>
</g>
<!-- 44925&#45;&gt;44775 -->
<g id="edge42" class="edge">
<title>44925&#45;&gt;44775</title>
<path fill="none" stroke="#dddddd" d="M6714.75,-633.95C6738.86,-670.97 6770.63,-707.14 6810.48,-727.75 6854.89,-750.73 6990.71,-750.01 7035.48,-727.75 7070.84,-710.18 7100.65,-681 7124.78,-649.63"/>
<polygon fill="#dddddd" stroke="#dddddd" points="7127.35,-652.05 7130.53,-641.94 7121.74,-647.86 7127.35,-652.05"/>
<text text-anchor="middle" x="6922.98" y="-747.91" font-family="Times,serif" font-size="14.00">CONTRACTORS</text>
</g>
<!-- 44925&#45;&gt;44775 -->
<g id="edge43" class="edge">
<title>44925&#45;&gt;44775</title>
<path fill="none" stroke="#dddddd" d="M6730.43,-624.9C6752.84,-650.27 6779.78,-673.74 6810.48,-687.75 6855.96,-708.52 6989.65,-707.75 7035.48,-687.75 7061.85,-676.24 7085.9,-658.21 7106.99,-637.95"/>
<polygon fill="#dddddd" stroke="#dddddd" points="7109.21,-640.68 7113.85,-631.16 7104.28,-635.71 7109.21,-640.68"/>
<text text-anchor="middle" x="6922.98" y="-706.24" font-family="Times,serif" font-size="14.00">EDUCATION</text>
</g>
<!-- 44925&#45;&gt;44775 -->
<g id="edge44" class="edge">
<title>44925&#45;&gt;44775</title>
<path fill="none" stroke="#dddddd" d="M6748.37,-610.98C6767.32,-626.02 6788.32,-639.29 6810.48,-647.75 6857.19,-665.59 6988.48,-664.81 7035.48,-647.75 7053.38,-641.26 7070.71,-631.87 7086.97,-621.01"/>
<polygon fill="#dddddd" stroke="#dddddd" points="7088.95,-623.89 7095.17,-615.31 7084.96,-618.14 7088.95,-623.89"/>
<text text-anchor="middle" x="6922.98" y="-664.04" font-family="Times,serif" font-size="14.00">HEALTH CARE CENTRE</text>
</g>
<!-- 44925&#45;&gt;44775 -->
<g id="edge45" class="edge">
<title>44925&#45;&gt;44775</title>
<path fill="none" stroke="#dddddd" d="M6766.83,-590.07C6780.98,-597.27 6795.7,-603.46 6810.48,-607.75 6858.49,-621.71 6987.26,-620.99 7035.48,-607.75 7046.21,-604.81 7056.94,-600.97 7067.5,-596.51"/>
<polygon fill="#dddddd" stroke="#dddddd" points="7068.89,-599.73 7076.61,-592.47 7066.05,-593.33 7068.89,-599.73"/>
<text text-anchor="middle" x="6922.98" y="-621.15" font-family="Times,serif" font-size="14.00">FARMS AND GARDENS</text>
</g>
<!-- 44925&#45;&gt;44775 -->
<g id="edge46" class="edge">
<title>44925&#45;&gt;44775</title>
<path fill="none" stroke="#dddddd" d="M6782.72,-561.38C6792.01,-563.91 6801.33,-566.09 6810.48,-567.75 6908.87,-585.63 6936.9,-584.57 7035.48,-567.75 7040.81,-566.84 7046.2,-565.78 7051.62,-564.59"/>
<polygon fill="#dddddd" stroke="#dddddd" points="7052.35,-568.01 7061.28,-562.31 7050.74,-561.2 7052.35,-568.01"/>
<text text-anchor="middle" x="6922.98" y="-583.96" font-family="Times,serif" font-size="14.00">GYMNASIUM/SPORTS FIELD</text>
</g>
<!-- 44925&#45;&gt;44775 -->
<g id="edge47" class="edge">
<title>44925&#45;&gt;44775</title>
<path fill="none" stroke="#dddddd" d="M6791.57,-526.45C6797.96,-526.95 6804.29,-527.39 6810.48,-527.75 6910.31,-533.56 6935.63,-533.18 7035.48,-527.75 7037.99,-527.62 7040.53,-527.47 7043.08,-527.31"/>
<polygon fill="#dddddd" stroke="#dddddd" points="7043.11,-530.82 7052.85,-526.65 7042.63,-523.83 7043.11,-530.82"/>
<text text-anchor="middle" x="6922.98" y="-535.16" font-family="Times,serif" font-size="14.00">WORKSHOPS</text>
</g>
<!-- 44925&#45;&gt;44775 -->
<g id="edge48" class="edge">
<title>44925&#45;&gt;44775</title>
<path fill="none" stroke="#dddddd" d="M6792.89,-507.42C6798.84,-507.36 6804.72,-507.3 6810.48,-507.25 6910.48,-506.44 6935.48,-506.5 7035.48,-507.25 7037.68,-507.27 7039.9,-507.29 7042.14,-507.31"/>
<polygon fill="#dddddd" stroke="#dddddd" points="7041.86,-510.8 7051.89,-507.4 7041.92,-503.8 7041.86,-510.8"/>
<text text-anchor="middle" x="6922.98" y="-510.45" font-family="Times,serif" font-size="14.00">KITCHEN</text>
</g>
<!-- 44925&#45;&gt;44775 -->
<g id="edge49" class="edge">
<title>44925&#45;&gt;44775</title>
<path fill="none" stroke="#dddddd" d="M6791.1,-488C6797.64,-487.32 6804.13,-486.73 6810.48,-486.25 6910.19,-478.71 6935.73,-479.19 7035.48,-486.25 7038.16,-486.44 7040.86,-486.65 7043.58,-486.87"/>
<polygon fill="#dddddd" stroke="#dddddd" points="7043.07,-490.34 7053.34,-487.74 7043.69,-483.37 7043.07,-490.34"/>
<text text-anchor="middle" x="6922.98" y="-489.45" font-family="Times,serif" font-size="14.00">HOBBIES</text>
</g>
<!-- 44925&#45;&gt;44775 -->
<g id="edge50" class="edge">
<title>44925&#45;&gt;44775</title>
<path fill="none" stroke="#dddddd" d="M6785.12,-465.18C6793.63,-463.24 6802.14,-461.56 6810.48,-460.25 6909.28,-444.8 6936.54,-445.74 7035.48,-460.25 7039.93,-460.91 7044.43,-461.65 7048.95,-462.48"/>
<polygon fill="#dddddd" stroke="#dddddd" points="7048.27,-465.91 7058.76,-464.41 7049.62,-459.05 7048.27,-465.91"/>
<text text-anchor="middle" x="6922.98" y="-463.45" font-family="Times,serif" font-size="14.00">CELL FURNISHINGS</text>
</g>
<!-- 44925&#45;&gt;44775 -->
<g id="edge51" class="edge">
<title>44925&#45;&gt;44775</title>
<path fill="none" stroke="#dddddd" d="M6773.92,-440.36C6785.97,-435.46 6798.27,-431.28 6810.48,-428.25 6907.54,-404.2 6938.1,-405.52 7035.48,-428.25 7043.7,-430.17 7051.99,-432.56 7060.23,-435.31"/>
<polygon fill="#dddddd" stroke="#dddddd" points="7059.02,-438.59 7069.62,-438.61 7061.34,-431.99 7059.02,-438.59"/>
<text text-anchor="middle" x="6922.98" y="-431.45" font-family="Times,serif" font-size="14.00">WING/HOUSEBLOCK FURNISHINGS</text>
</g>
<!-- 44925&#45;&gt;44775 -->
<g id="edge52" class="edge">
<title>44925&#45;&gt;44775</title>
<path fill="none" stroke="#dddddd" d="M6756.93,-417.29C6773.79,-406.22 6791.88,-396.61 6810.48,-390.25 6905.1,-357.9 6940.35,-359.43 7035.48,-390.25 7049.97,-394.95 7064.26,-401.44 7077.99,-409"/>
<polygon fill="#dddddd" stroke="#dddddd" points="7076.17,-411.99 7086.58,-413.93 7079.65,-405.92 7076.17,-411.99"/>
<text text-anchor="middle" x="6922.98" y="-393.45" font-family="Times,serif" font-size="14.00">SMUGGLED</text>
</g>
<!-- 44925&#45;&gt;44775 -->
<g id="edge53" class="edge">
<title>44925&#45;&gt;44775</title>
<path fill="none" stroke="#dddddd" d="M6736.51,-399.19C6757.92,-377.69 6782.88,-358.15 6810.48,-346.25 6902.31,-306.66 6943,-308.21 7035.48,-346.25 7058.71,-355.81 7080.41,-370.4 7099.95,-387"/>
<polygon fill="#dddddd" stroke="#dddddd" points="7097.52,-389.52 7107.34,-393.49 7102.14,-384.26 7097.52,-389.52"/>
<text text-anchor="middle" x="6922.98" y="-349.45" font-family="Times,serif" font-size="14.00">NOT KNOWN</text>
</g>
<!-- 44925&#45;&gt;44775 -->
<g id="edge54" class="edge">
<title>44925&#45;&gt;44775</title>
<path fill="none" stroke="#dddddd" d="M6716.39,-386.38C6740.4,-350.71 6771.69,-316.08 6810.48,-296.25 6899.53,-250.75 6945.71,-252.19 7035.48,-296.25 7069.74,-313.07 7098.91,-340.8 7122.77,-370.8"/>
<polygon fill="#dddddd" stroke="#dddddd" points="7119.87,-372.77 7128.75,-378.54 7125.41,-368.49 7119.87,-372.77"/>
<text text-anchor="middle" x="6922.98" y="-299.45" font-family="Times,serif" font-size="14.00">OTHER</text>
</g>
<!-- 44678&#45;&gt;44228 -->
<g id="edge31" class="edge">
<title>44678&#45;&gt;44228</title>
<path fill="none" stroke="#dddddd" d="M3203.66,-320.75C3219.89,-320.75 3236.47,-320.75 3253.01,-320.75"/>
<polygon fill="#dddddd" stroke="#dddddd" points="3252.94,-324.25 3262.94,-320.75 3252.94,-317.25 3252.94,-324.25"/>
<text text-anchor="middle" x="3234.11" y="-323.95" font-family="Times,serif" font-size="14.00">YES</text>
</g>
<!-- 44678&#45;&gt;44228 -->
<g id="edge32" class="edge">
<title>44678&#45;&gt;44228</title>
<path fill="none" stroke="#dddddd" d="M3202.58,-301.43C3208.92,-300.98 3215.2,-300.59 3221.36,-300.25 3232.19,-299.67 3243.28,-299.4 3254.48,-299.41"/>
<polygon fill="#dddddd" stroke="#dddddd" points="3254.17,-302.9 3264.2,-299.48 3254.22,-295.9 3254.17,-302.9"/>
<text text-anchor="middle" x="3234.11" y="-303.45" font-family="Times,serif" font-size="14.00">NO</text>
</g>
<!-- 44449 -->
<g id="node15" class="node">
<title>44449</title>
<ellipse fill="#dddddd" stroke="#dddddd" cx="7551.55" cy="-425.75" rx="140.41" ry="140.41"/>
<text text-anchor="middle" x="7551.55" y="-420.7" font-family="Times,serif" font-size="14.00">Describe the remedial action taken</text>
</g>
<!-- 44921 -->
<g id="node16" class="node">
<title>44921</title>
<ellipse fill="#dddddd" stroke="#dddddd" cx="8019.57" cy="-448.75" rx="116.86" ry="116.86"/>
<text text-anchor="middle" x="8019.57" y="-443.7" font-family="Times,serif" font-size="14.00">Estimated cost of this action</text>
</g>
<!-- 44449&#45;&gt;44921 -->
<g id="edge23" class="edge">
<title>44449&#45;&gt;44921</title>
<path fill="none" stroke="#dddddd" d="M7684.97,-470.97C7693.37,-472.85 7701.74,-474.48 7709.96,-475.75 7786.71,-487.65 7807.43,-483.47 7884.71,-475.75 7887.7,-475.45 7890.73,-475.12 7893.77,-474.75"/>
<polygon fill="#dddddd" stroke="#dddddd" points="7893.92,-478.26 7903.38,-473.48 7893.01,-471.32 7893.92,-478.26"/>
<text text-anchor="middle" x="7797.33" y="-486.39" font-family="Times,serif" font-size="14.00">COMPLETE RELOCK</text>
</g>
<!-- 44449&#45;&gt;44921 -->
<g id="edge24" class="edge">
<title>44449&#45;&gt;44921</title>
<path fill="none" stroke="#dddddd" d="M7692.01,-434.77C7698.08,-435.11 7704.08,-435.44 7709.96,-435.75 7769.45,-438.9 7835.43,-441.76 7891.06,-443.99"/>
<polygon fill="#dddddd" stroke="#dddddd" points="7890.76,-447.48 7900.89,-444.39 7891.04,-440.49 7890.76,-447.48"/>
<text text-anchor="middle" x="7797.33" y="-446.66" font-family="Times,serif" font-size="14.00">PARTIAL RELOCK</text>
</g>
<!-- 44449&#45;&gt;44921 -->
<g id="edge25" class="edge">
<title>44449&#45;&gt;44921</title>
<path fill="none" stroke="#dddddd" d="M7691.56,-411.85C7751.22,-408.34 7821.58,-407.47 7884.71,-415.25 7888.16,-415.68 7891.66,-416.16 7895.17,-416.7"/>
<polygon fill="#dddddd" stroke="#dddddd" points="7894.54,-420.14 7904.98,-418.33 7895.69,-413.24 7894.54,-420.14"/>
<text text-anchor="middle" x="7797.33" y="-418.45" font-family="Times,serif" font-size="14.00">COMPLETE REPLACEMENT</text>
</g>
<!-- 44449&#45;&gt;44921 -->
<g id="edge26" class="edge">
<title>44449&#45;&gt;44921</title>
<path fill="none" stroke="#dddddd" d="M7688.06,-391.5C7748.67,-381.14 7820.72,-375.67 7884.71,-389.25 7891,-390.59 7897.36,-392.24 7903.71,-394.14"/>
<polygon fill="#dddddd" stroke="#dddddd" points="7902.34,-397.37 7912.93,-397.08 7904.47,-390.7 7902.34,-397.37"/>
<text text-anchor="middle" x="7797.33" y="-392.45" font-family="Times,serif" font-size="14.00">PARTIAL REPLACEMENT</text>
</g>
<!-- 44921&#45;&gt;END_NODE -->
<g id="edge40" class="edge">
<title>44921&#45;&gt;END_NODE</title>
<path fill="none" stroke="#dddddd" d="M8135.19,-468.32C8223.95,-483.46 8342,-503.61 8404.75,-514.32"/>
<polygon fill="#dddddd" stroke="#dddddd" points="8403.86,-517.72 8414.31,-515.95 8405.04,-510.82 8403.86,-517.72"/>
<text text-anchor="middle" x="8275.93" y="-515.91" font-family="Times,serif" font-size="14.00">ENTER AMOUNT IN POUND STERLING</text>
</g>
<!-- 45072&#45;&gt;44166 -->
<g id="edge80" class="edge">
<title>45072&#45;&gt;44166</title>
<path fill="none" stroke="#dddddd" d="M913.02,-298.07C930,-299.53 947.21,-301.01 964.28,-302.48"/>
<polygon fill="#dddddd" stroke="#dddddd" points="963.69,-305.95 973.96,-303.32 964.29,-298.97 963.69,-305.95"/>
<text text-anchor="middle" x="944.21" y="-303.95" font-family="Times,serif" font-size="14.00">YES</text>
</g>
<!-- 45072&#45;&gt;44166 -->
<g id="edge81" class="edge">
<title>45072&#45;&gt;44166</title>
<path fill="none" stroke="#dddddd" d="M913.67,-277.35C928.34,-278.02 942.89,-278.96 956.96,-280.25 960.26,-280.56 963.58,-280.88 966.92,-281.23"/>
<polygon fill="#dddddd" stroke="#dddddd" points="966.52,-284.71 976.85,-282.34 967.3,-277.75 966.52,-284.71"/>
<text text-anchor="middle" x="944.21" y="-283.45" font-family="Times,serif" font-size="14.00">NO</text>
</g>
<!-- 44619 -->
<g id="node18" class="node">
<title>44619</title>
<ellipse fill="#dddddd" stroke="#dddddd" cx="5049.17" cy="-400.75" rx="137.34" ry="137.34"/>
<text text-anchor="middle" x="5049.17" y="-395.7" font-family="Times,serif" font-size="14.00">Have the lost item(s) been found?</text>
</g>
<!-- 44619&#45;&gt;44894 -->
<g id="edge29" class="edge">
<title>44619&#45;&gt;44894</title>
<path fill="none" stroke="#dddddd" d="M5186.06,-415.2C5192.3,-415.75 5198.47,-416.27 5204.51,-416.75 5262.48,-421.36 5325.79,-425.26 5382.94,-428.35"/>
<polygon fill="#dddddd" stroke="#dddddd" points="5382.6,-431.84 5392.77,-428.88 5382.98,-424.85 5382.6,-431.84"/>
<text text-anchor="middle" x="5290.38" y="-430.97" font-family="Times,serif" font-size="14.00">YES</text>
</g>
<!-- 44619&#45;&gt;44894 -->
<g id="edge30" class="edge">
<title>44619&#45;&gt;44894</title>
<path fill="none" stroke="#dddddd" d="M5186.92,-396.55C5192.86,-396.44 5198.75,-396.34 5204.51,-396.25 5280.83,-395.14 5300.35,-388.2 5376.26,-396.25 5379.73,-396.62 5383.23,-397.03 5386.75,-397.47"/>
<polygon fill="#dddddd" stroke="#dddddd" points="5386.18,-400.92 5396.55,-398.78 5387.1,-393.98 5386.18,-400.92"/>
<text text-anchor="middle" x="5290.38" y="-399.45" font-family="Times,serif" font-size="14.00">NO</text>
</g>
<!-- 44775&#45;&gt;END_NODE -->
<g id="edge34" class="edge">
<title>44775&#45;&gt;END_NODE</title>
<path fill="none" stroke="#dddddd" d="M7341.45,-559.38C7364.46,-565.76 7388.27,-571.27 7411.15,-574.75 7729.83,-623.26 7815.11,-600.44 8136.43,-574.75 8233.38,-567 8345.43,-544.61 8405.29,-531.55"/>
<polygon fill="#dddddd" stroke="#dddddd" points="8405.71,-535.04 8414.72,-529.47 8404.2,-528.2 8405.71,-535.04"/>
<text text-anchor="middle" x="7797.33" y="-606.4" font-family="Times,serif" font-size="14.00">NO</text>
</g>
<!-- 44775&#45;&gt;44449 -->
<g id="edge33" class="edge">
<title>44775&#45;&gt;44449</title>
<path fill="none" stroke="#dddddd" d="M7345.86,-475.16C7364.89,-470.57 7384.42,-465.85 7403.51,-461.25"/>
<polygon fill="#dddddd" stroke="#dddddd" points="7404.32,-464.65 7413.22,-458.9 7402.68,-457.85 7404.32,-464.65"/>
<text text-anchor="middle" x="7380.4" y="-470.95" font-family="Times,serif" font-size="14.00">YES</text>
</g>
<!-- 44866&#45;&gt;44407 -->
<g id="edge35" class="edge">
<title>44866&#45;&gt;44407</title>
<path fill="none" stroke="#dddddd" d="M6086.69,-303.9C6116.11,-331.63 6152.96,-366.36 6185.34,-396.87"/>
<polygon fill="#dddddd" stroke="#dddddd" points="6182.68,-399.18 6192.36,-403.49 6187.48,-394.08 6182.68,-399.18"/>
<text text-anchor="middle" x="6137.05" y="-364.45" font-family="Times,serif" font-size="14.00">YES</text>
</g>
<!-- 44866&#45;&gt;44775 -->
<g id="edge36" class="edge">
<title>44866&#45;&gt;44775</title>
<path fill="none" stroke="#dddddd" d="M6103.64,-231.72C6276.11,-185.12 6724.81,-90.04 7035.48,-258.75 7078.53,-282.13 7112.22,-322.15 7137.61,-363.45"/>
<polygon fill="#dddddd" stroke="#dddddd" points="7134.48,-365.03 7142.62,-371.81 7140.49,-361.44 7134.48,-365.03"/>
<text text-anchor="middle" x="6438.68" y="-180.35" font-family="Times,serif" font-size="14.00">NO</text>
</g>
<!-- 45015&#45;&gt;44355 -->
<g id="edge76" class="edge">
<title>45015&#45;&gt;44355</title>
<path fill="none" stroke="#dddddd" d="M4607.8,-418.49C4624.95,-431.14 4642.62,-443.57 4659.84,-454.75 4751.74,-514.44 4862.27,-572.72 4941.87,-612.5"/>
<polygon fill="#dddddd" stroke="#dddddd" points="4940.04,-615.5 4950.55,-616.83 4943.16,-609.24 4940.04,-615.5"/>
<text text-anchor="middle" x="4776.84" y="-587.93" font-family="Times,serif" font-size="14.00">REPLICA KEY USED</text>
</g>
<!-- 45015&#45;&gt;44619 -->
<g id="edge71" class="edge">
<title>45015&#45;&gt;44619</title>
<path fill="none" stroke="#dddddd" d="M4617.95,-403.96C4631.71,-409.94 4645.8,-415.06 4659.84,-418.75 4738.37,-439.42 4828.87,-436.69 4902.74,-427.98"/>
<polygon fill="#dddddd" stroke="#dddddd" points="4902.98,-431.48 4912.48,-426.78 4902.12,-424.53 4902.98,-431.48"/>
<text text-anchor="middle" x="4776.84" y="-437.72" font-family="Times,serif" font-size="14.00">LOSS OF KEY(S)</text>
</g>
<!-- 45015&#45;&gt;44619 -->
<g id="edge72" class="edge">
<title>45015&#45;&gt;44619</title>
<path fill="none" stroke="#dddddd" d="M4633.32,-372.84C4642.23,-375.07 4651.12,-377.08 4659.84,-378.75 4704.67,-387.37 4810.49,-393.02 4900.35,-396.43"/>
<polygon fill="#dddddd" stroke="#dddddd" points="4900.15,-399.93 4910.28,-396.8 4900.41,-392.93 4900.15,-399.93"/>
<text text-anchor="middle" x="4776.84" y="-399.07" font-family="Times,serif" font-size="14.00">LOSS OF HANDCUFFS</text>
</g>
<!-- 45015&#45;&gt;44619 -->
<g id="edge73" class="edge">
<title>45015&#45;&gt;44619</title>
<path fill="none" stroke="#dddddd" d="M4641.48,-337C4647.68,-337.6 4653.82,-338.19 4659.84,-338.75 4763.75,-348.48 4791.09,-339.99 4893.84,-358.25 4897.72,-358.94 4901.64,-359.69 4905.59,-360.48"/>
<polygon fill="#dddddd" stroke="#dddddd" points="4904.8,-363.89 4915.3,-362.51 4906.23,-357.03 4904.8,-363.89"/>
<text text-anchor="middle" x="4776.84" y="-361.45" font-family="Times,serif" font-size="14.00">LOSS OF CLOSETING/ESCORT CHAIN</text>
</g>
<!-- 45015&#45;&gt;44619 -->
<g id="edge74" class="edge">
<title>45015&#45;&gt;44619</title>
<path fill="none" stroke="#dddddd" d="M4641.03,-301.84C4718.08,-296.91 4812.05,-297.76 4893.84,-318.25 4902.64,-320.46 4911.49,-323.27 4920.25,-326.52"/>
<polygon fill="#dddddd" stroke="#dddddd" points="4918.89,-329.75 4929.48,-330.13 4921.44,-323.23 4918.89,-329.75"/>
<text text-anchor="middle" x="4776.84" y="-321.45" font-family="Times,serif" font-size="14.00">COMPLETE LOCK REMOVED</text>
</g>
<!-- 45015&#45;&gt;44619 -->
<g id="edge75" class="edge">
<title>45015&#45;&gt;44619</title>
<path fill="none" stroke="#dddddd" d="M4635.24,-275.62C4713.99,-259.1 4811.23,-250.64 4893.84,-279.25 4909.43,-284.66 4924.65,-292.36 4939.07,-301.3"/>
<polygon fill="#dddddd" stroke="#dddddd" points="4936.86,-304.03 4947.16,-306.52 4940.65,-298.15 4936.86,-304.03"/>
<text text-anchor="middle" x="4776.84" y="-282.45" font-family="Times,serif" font-size="14.00">PART LOCK REMOVED</text>
</g>
<!-- 45015&#45;&gt;44866 -->
<g id="edge77" class="edge">
<title>45015&#45;&gt;44866</title>
<path fill="none" stroke="#dddddd" d="M4631.13,-263.23C4640.75,-260.69 4650.38,-258.48 4659.84,-256.75 4770.02,-236.6 4799.84,-255.3 4911.84,-254.75 5297.25,-252.88 5757.38,-252.71 5944.72,-252.73"/>
<polygon fill="#dddddd" stroke="#dddddd" points="5944.61,-256.23 5954.61,-252.73 5944.61,-249.23 5944.61,-256.23"/>
<text text-anchor="middle" x="5290.38" y="-256.85" font-family="Times,serif" font-size="14.00">LOCKS PICKED</text>
</g>
<!-- 45015&#45;&gt;44866 -->
<g id="edge78" class="edge">
<title>45015&#45;&gt;44866</title>
<path fill="none" stroke="#dddddd" d="M4626.83,-252.95C4637.83,-249.32 4648.91,-246.18 4659.84,-243.75 5136.2,-137.87 5728.91,-207.41 5945.85,-239.26"/>
<polygon fill="#dddddd" stroke="#dddddd" points="5945.22,-242.71 5955.63,-240.71 5946.25,-235.78 5945.22,-242.71"/>
<text text-anchor="middle" x="5290.38" y="-192.17" font-family="Times,serif" font-size="14.00">ELECTRONICS OVERCOME</text>
</g>
<!-- 45015&#45;&gt;44866 -->
<g id="edge79" class="edge">
<title>45015&#45;&gt;44866</title>
<path fill="none" stroke="#dddddd" d="M4609.72,-225.9C4625.93,-216.76 4642.83,-208.7 4659.84,-202.75 4765.86,-165.66 4799.76,-191.14 4911.84,-183.75 5278.01,-159.63 5372.03,-152.81 5737.51,-185.75 5827.23,-193.84 5851.8,-187.37 5938.51,-211.75 5943.28,-213.09 5948.11,-214.64 5952.94,-216.33"/>
<polygon fill="#dddddd" stroke="#dddddd" points="5951.47,-219.52 5962.07,-219.7 5953.9,-212.95 5951.47,-219.52"/>
<text text-anchor="middle" x="5290.38" y="-169.51" font-family="Times,serif" font-size="14.00">OTHER</text>
</g>
</g>
</svg>
