<?xml version="1.0" encoding="UTF-8" standalone="no"?>
<!DOCTYPE svg PUBLIC "-//W3C//DTD SVG 1.1//EN"
 "http://www.w3.org/Graphics/SVG/1.1/DTD/svg11.dtd">
<!-- Generated by graphviz version 12.1.1 (20240910.0053)
 -->
<!-- Title: OLD_TEMPORARY_RELEASE_FAILURE Pages: 1 -->
<svg width="7090pt" height="1344pt"
 viewBox="0.00 0.00 7089.96 1344.43" xmlns="http://www.w3.org/2000/svg" xmlns:xlink="http://www.w3.org/1999/xlink">
<g id="graph0" class="graph" transform="scale(1 1) rotate(0) translate(4 1340.43)">
<title>OLD_TEMPORARY_RELEASE_FAILURE</title>
<polygon fill="white" stroke="none" points="-4,4 -4,-1340.43 7085.96,-1340.43 7085.96,4 -4,4"/>
<!-- START_NODE -->
<g id="node1" class="node">
<title>START_NODE</title>
</g>
<!-- 44885 -->
<g id="node2" class="node">
<title>44885</title>
<ellipse fill="#dddddd" stroke="#dddddd" cx="280.27" cy="-662.98" rx="167.02" ry="167.02"/>
<text text-anchor="middle" x="280.27" y="-657.93" font-family="Times,serif" font-size="14.00">Were the police informed of the incident?</text>
</g>
<!-- START_NODE&#45;&gt;44885 -->
<g id="edge1" class="edge">
<title>START_NODE&#45;&gt;44885</title>
<path fill="none" stroke="black" d="M53.94,-662.98C66.67,-662.98 83.21,-662.98 101.55,-662.98"/>
<polygon fill="black" stroke="black" points="101.34,-666.48 111.34,-662.98 101.34,-659.48 101.34,-666.48"/>
<text text-anchor="middle" x="83.62" y="-666.18" font-family="Times,serif" font-size="14.00">start</text>
</g>
<!-- 44345 -->
<g id="node9" class="node">
<title>44345</title>
<ellipse fill="#dddddd" stroke="#dddddd" cx="705.87" cy="-543.98" rx="202.33" ry="202.33"/>
<text text-anchor="middle" x="705.87" y="-538.93" font-family="Times,serif" font-size="14.00">Is the incident the subject of a police investigation?</text>
</g>
<!-- 44885&#45;&gt;44345 -->
<g id="edge34" class="edge">
<title>44885&#45;&gt;44345</title>
<path fill="none" stroke="#dddddd" d="M441.42,-617.99C460.49,-612.63 480.17,-607.1 499.76,-601.6"/>
<polygon fill="#dddddd" stroke="#dddddd" points="500.5,-605.03 509.18,-598.95 498.6,-598.29 500.5,-605.03"/>
<text text-anchor="middle" x="475.42" y="-613.8" font-family="Times,serif" font-size="14.00">Yes</text>
</g>
<!-- 44893 -->
<g id="node10" class="node">
<title>44893</title>
<ellipse fill="#dddddd" stroke="#dddddd" cx="1177.03" cy="-583.98" rx="212.57" ry="212.57"/>
<text text-anchor="middle" x="1177.03" y="-578.93" font-family="Times,serif" font-size="14.00">Is the incident the subject of an internal investigation?</text>
</g>
<!-- 44885&#45;&gt;44893 -->
<g id="edge35" class="edge">
<title>44885&#45;&gt;44893</title>
<path fill="none" stroke="#dddddd" d="M431.54,-734.36C455.17,-742.88 479.68,-750.23 503.54,-754.98 679.94,-790.04 735.57,-805.39 908.21,-754.98 938.41,-746.16 968.44,-732.78 996.89,-717.32"/>
<polygon fill="#dddddd" stroke="#dddddd" points="998.51,-720.42 1005.56,-712.5 995.11,-714.3 998.51,-720.42"/>
<text text-anchor="middle" x="705.87" y="-790.48" font-family="Times,serif" font-size="14.00">No</text>
</g>
<!-- END_NODE -->
<g id="node3" class="node">
<title>END_NODE</title>
<ellipse fill="none" stroke="black" cx="7048.11" cy="-761.98" rx="29.86" ry="29.86"/>
<ellipse fill="none" stroke="black" cx="7048.11" cy="-761.98" rx="33.86" ry="33.86"/>
<text text-anchor="middle" x="7048.11" y="-756.93" font-family="Times,serif" font-size="14.00">END</text>
</g>
<!-- 44259 -->
<g id="node4" class="node">
<title>44259</title>
<ellipse fill="#dddddd" stroke="#dddddd" cx="4625.45" cy="-1057.98" rx="211.04" ry="211.04"/>
<text text-anchor="middle" x="4625.45" y="-1052.93" font-family="Times,serif" font-size="14.00">Has the prisoner been charged with a further offence?</text>
</g>
<!-- 44259&#45;&gt;END_NODE -->
<g id="edge3" class="edge">
<title>44259&#45;&gt;END_NODE</title>
<path fill="none" stroke="black" d="M4782.81,-1198.95C4816.98,-1223.11 4854.44,-1245.17 4892.73,-1259.98 4981.21,-1294.2 5010.47,-1278.98 5105.33,-1278.98 5105.33,-1278.98 5105.33,-1278.98 6693.72,-1278.98 6921.71,-1278.98 7013.31,-932.06 7038.98,-806.59"/>
<polygon fill="black" stroke="black" points="7042.38,-807.47 7040.9,-796.98 7035.51,-806.1 7042.38,-807.47"/>
<text text-anchor="middle" x="5826.37" y="-1282.18" font-family="Times,serif" font-size="14.00">No</text>
</g>
<!-- 44772 -->
<g id="node5" class="node">
<title>44772</title>
<ellipse fill="#dddddd" stroke="#dddddd" cx="5106.33" cy="-1036.98" rx="213.59" ry="213.59"/>
<text text-anchor="middle" x="5106.33" y="-1031.93" font-family="Times,serif" font-size="14.00">Is that offence under the prisoners (return to custody)?</text>
</g>
<!-- 44259&#45;&gt;44772 -->
<g id="edge2" class="edge">
<title>44259&#45;&gt;44772</title>
<path fill="none" stroke="black" d="M4836.49,-1048.76C4851.31,-1048.11 4866.28,-1047.46 4881.18,-1046.8"/>
<polygon fill="black" stroke="black" points="4881.2,-1050.31 4891.03,-1046.37 4880.89,-1043.31 4881.2,-1050.31"/>
<text text-anchor="middle" x="4864.61" y="-1050.68" font-family="Times,serif" font-size="14.00">Yes</text>
</g>
<!-- 44266 -->
<g id="node6" class="node">
<title>44266</title>
<ellipse fill="#dddddd" stroke="#dddddd" cx="5587.21" cy="-1039.98" rx="211.04" ry="211.04"/>
<text text-anchor="middle" x="5587.21" y="-1034.93" font-family="Times,serif" font-size="14.00">Has the prisoner been charged with a further offence?</text>
</g>
<!-- 44772&#45;&gt;44266 -->
<g id="edge30" class="edge">
<title>44772&#45;&gt;44266</title>
<path fill="none" stroke="black" d="M5320.16,-1038.31C5334.89,-1038.4 5349.76,-1038.49 5364.53,-1038.59"/>
<polygon fill="black" stroke="black" points="5364.28,-1042.08 5374.3,-1038.65 5364.32,-1035.09 5364.28,-1042.08"/>
<text text-anchor="middle" x="5348.05" y="-1041.68" font-family="Times,serif" font-size="14.00">Yes</text>
</g>
<!-- 44694 -->
<g id="node7" class="node">
<title>44694</title>
<ellipse fill="#dddddd" stroke="#dddddd" cx="6051.71" cy="-980.98" rx="197.22" ry="197.22"/>
<text text-anchor="middle" x="6051.71" y="-975.93" font-family="Times,serif" font-size="14.00">With what offence has the prisoner been charged?</text>
</g>
<!-- 44772&#45;&gt;44694 -->
<g id="edge31" class="edge">
<title>44772&#45;&gt;44694</title>
<path fill="none" stroke="black" d="M5250.99,-879.78C5288.4,-848.62 5331,-820.35 5376.17,-803.48 5551.9,-737.82 5619.39,-746.9 5798.24,-803.48 5830.4,-813.65 5862,-829.55 5891.38,-847.74"/>
<polygon fill="black" stroke="black" points="5889.24,-850.53 5899.56,-852.92 5892.98,-844.61 5889.24,-850.53"/>
<text text-anchor="middle" x="5587.21" y="-806.68" font-family="Times,serif" font-size="14.00">No</text>
</g>
<!-- 44266&#45;&gt;44694 -->
<g id="edge4" class="edge">
<title>44266&#45;&gt;44694</title>
<path fill="none" stroke="black" d="M5796.8,-1013.37C5812.76,-1011.33 5828.87,-1009.28 5844.81,-1007.24"/>
<polygon fill="black" stroke="black" points="5844.84,-1010.77 5854.32,-1006.03 5843.95,-1003.82 5844.84,-1010.77"/>
<text text-anchor="middle" x="5826.37" y="-1013.68" font-family="Times,serif" font-size="14.00">Yes</text>
</g>
<!-- 44602 -->
<g id="node8" class="node">
<title>44602</title>
<ellipse fill="#dddddd" stroke="#dddddd" cx="6692.72" cy="-801.98" rx="202.33" ry="202.33"/>
<text text-anchor="middle" x="6692.72" y="-796.93" font-family="Times,serif" font-size="14.00">Has any prosecution taken place or is any pending?</text>
</g>
<!-- 44266&#45;&gt;44602 -->
<g id="edge5" class="edge">
<title>44266&#45;&gt;44602</title>
<path fill="none" stroke="black" d="M5766.68,-1151.75C5795.2,-1165.68 5825.04,-1178.12 5854.49,-1186.98 5972.8,-1222.55 6300.34,-1277.94 6409.43,-1219.98 6498.5,-1172.65 6564.57,-1083.28 6610.3,-999.29"/>
<polygon fill="black" stroke="black" points="6613.28,-1001.14 6614.92,-990.67 6607.11,-997.83 6613.28,-1001.14"/>
<text text-anchor="middle" x="6051.71" y="-1248.29" font-family="Times,serif" font-size="14.00">No</text>
</g>
<!-- 44694&#45;&gt;44602 -->
<g id="edge16" class="edge">
<title>44694&#45;&gt;44602</title>
<path fill="none" stroke="black" d="M6182.43,-1128.84C6208.18,-1149.72 6236.69,-1168.1 6266.93,-1179.98 6325.88,-1203.13 6352.81,-1208.36 6409.43,-1179.98 6488.96,-1140.11 6551.82,-1066.02 6597.84,-993.92"/>
<polygon fill="black" stroke="black" points="6600.77,-995.84 6603.14,-985.51 6594.85,-992.11 6600.77,-995.84"/>
<text text-anchor="middle" x="6338.18" y="-1202.55" font-family="Times,serif" font-size="14.00">Murder/attempted murder</text>
</g>
<!-- 44694&#45;&gt;44602 -->
<g id="edge17" class="edge">
<title>44694&#45;&gt;44602</title>
<path fill="none" stroke="black" d="M6201.97,-1109.48C6222.72,-1121.9 6244.61,-1132.6 6266.93,-1139.98 6327.06,-1159.85 6352.06,-1166.81 6409.43,-1139.98 6479.89,-1107.02 6538.93,-1046.87 6584.5,-986.34"/>
<polygon fill="black" stroke="black" points="6587.08,-988.75 6590.23,-978.63 6581.46,-984.58 6587.08,-988.75"/>
<text text-anchor="middle" x="6338.18" y="-1160.79" font-family="Times,serif" font-size="14.00">Manslaughter</text>
</g>
<!-- 44694&#45;&gt;44602 -->
<g id="edge18" class="edge">
<title>44694&#45;&gt;44602</title>
<path fill="none" stroke="black" d="M6218.26,-1086.92C6279.2,-1112.74 6348.26,-1126.29 6409.43,-1099.98 6471,-1073.49 6525.44,-1026.24 6569.67,-977.05"/>
<polygon fill="black" stroke="black" points="6572.23,-979.44 6576.24,-969.64 6566.99,-974.8 6572.23,-979.44"/>
<text text-anchor="middle" x="6338.18" y="-1117.38" font-family="Times,serif" font-size="14.00">Assault</text>
</g>
<!-- 44694&#45;&gt;44602 -->
<g id="edge19" class="edge">
<title>44694&#45;&gt;44602</title>
<path fill="none" stroke="black" d="M6232.32,-1061.4C6289.98,-1076.55 6353.4,-1081.72 6409.43,-1059.98 6462.67,-1039.31 6512,-1003.41 6554.04,-964.84"/>
<polygon fill="black" stroke="black" points="6556.31,-967.5 6561.24,-958.12 6551.54,-962.38 6556.31,-967.5"/>
<text text-anchor="middle" x="6338.18" y="-1077.75" font-family="Times,serif" font-size="14.00">Rape/attempted rape</text>
</g>
<!-- 44694&#45;&gt;44602 -->
<g id="edge20" class="edge">
<title>44694&#45;&gt;44602</title>
<path fill="none" stroke="black" d="M6242.61,-1031.91C6297.52,-1038.62 6356.8,-1037.93 6409.43,-1019.98 6455.06,-1004.41 6499.04,-978.14 6538.17,-949.13"/>
<polygon fill="black" stroke="black" points="6539.87,-952.23 6545.75,-943.41 6535.66,-946.64 6539.87,-952.23"/>
<text text-anchor="middle" x="6338.18" y="-1039.02" font-family="Times,serif" font-size="14.00">Other sexual offence</text>
</g>
<!-- 44694&#45;&gt;44602 -->
<g id="edge21" class="edge">
<title>44694&#45;&gt;44602</title>
<path fill="none" stroke="black" d="M6248.89,-989.85C6314.45,-990.79 6378.65,-988.92 6409.43,-979.98 6447.82,-968.82 6486.03,-950.75 6521.37,-930.29"/>
<polygon fill="black" stroke="black" points="6523.11,-933.32 6529.95,-925.23 6519.56,-927.29 6523.11,-933.32"/>
<text text-anchor="middle" x="6338.18" y="-993.27" font-family="Times,serif" font-size="14.00">Theft</text>
</g>
<!-- 44694&#45;&gt;44602 -->
<g id="edge22" class="edge">
<title>44694&#45;&gt;44602</title>
<path fill="none" stroke="black" d="M6248.44,-961.3C6322.3,-953.34 6392.68,-944.88 6409.43,-939.98 6441.06,-930.72 6473.49,-918.15 6504.57,-904.34"/>
<polygon fill="black" stroke="black" points="6506,-907.54 6513.68,-900.23 6503.12,-901.15 6506,-907.54"/>
<text text-anchor="middle" x="6338.18" y="-962.45" font-family="Times,serif" font-size="14.00">Robbery</text>
</g>
<!-- 44694&#45;&gt;44602 -->
<g id="edge23" class="edge">
<title>44694&#45;&gt;44602</title>
<path fill="none" stroke="black" d="M6241.28,-925.23C6249.93,-923.18 6258.5,-921.25 6266.93,-919.48 6329.48,-906.29 6347.26,-914.86 6409.43,-899.98 6436.49,-893.5 6464.59,-885.43 6492.13,-876.73"/>
<polygon fill="black" stroke="black" points="6493.16,-880.07 6501.62,-873.69 6491.03,-873.4 6493.16,-880.07"/>
<text text-anchor="middle" x="6338.18" y="-922.68" font-family="Times,serif" font-size="14.00">Firearm offence</text>
</g>
<!-- 44694&#45;&gt;44602 -->
<g id="edge24" class="edge">
<title>44694&#45;&gt;44602</title>
<path fill="none" stroke="black" d="M6228.43,-892.58C6241.29,-887.7 6254.21,-883.26 6266.93,-879.48 6328.2,-861.24 6346.42,-870.75 6409.43,-859.98 6433.49,-855.86 6458.62,-851.21 6483.56,-846.38"/>
<polygon fill="black" stroke="black" points="6483.98,-849.86 6493.13,-844.51 6482.64,-842.99 6483.98,-849.86"/>
<text text-anchor="middle" x="6338.18" y="-882.68" font-family="Times,serif" font-size="14.00">Drug offence</text>
</g>
<!-- 44694&#45;&gt;44602 -->
<g id="edge25" class="edge">
<title>44694&#45;&gt;44602</title>
<path fill="none" stroke="black" d="M6211.11,-864.37C6229.3,-854.65 6248.1,-846.05 6266.93,-839.48 6288.04,-832.1 6383.87,-823.34 6479.18,-816.13"/>
<polygon fill="black" stroke="black" points="6479.27,-819.63 6488.98,-815.4 6478.75,-812.65 6479.27,-819.63"/>
<text text-anchor="middle" x="6338.18" y="-842.68" font-family="Times,serif" font-size="14.00">Vehicle crime</text>
</g>
<!-- 44694&#45;&gt;44602 -->
<g id="edge26" class="edge">
<title>44694&#45;&gt;44602</title>
<path fill="none" stroke="black" d="M6192.47,-842.35C6215.76,-826.07 6240.87,-811.92 6266.93,-802.48 6306.12,-788.26 6393.53,-786.5 6478.94,-788.97"/>
<polygon fill="black" stroke="black" points="6478.81,-792.47 6488.91,-789.28 6479.02,-785.47 6478.81,-792.47"/>
<text text-anchor="middle" x="6338.18" y="-805.68" font-family="Times,serif" font-size="14.00">Public order offence</text>
</g>
<!-- 44694&#45;&gt;44602 -->
<g id="edge27" class="edge">
<title>44694&#45;&gt;44602</title>
<path fill="none" stroke="black" d="M6175.63,-827.26C6202.9,-802.88 6233.69,-781.21 6266.93,-767.48 6335.06,-739.32 6414.5,-738.31 6486.13,-747.57"/>
<polygon fill="black" stroke="black" points="6485.22,-750.98 6495.6,-748.87 6486.17,-744.05 6485.22,-750.98"/>
<text text-anchor="middle" x="6338.18" y="-770.68" font-family="Times,serif" font-size="14.00">Other</text>
</g>
<!-- 44602&#45;&gt;END_NODE -->
<g id="edge14" class="edge">
<title>44602&#45;&gt;END_NODE</title>
<path fill="none" stroke="black" d="M6895.34,-794.87C6929.24,-791.52 6963.91,-786.75 6996.25,-779.98 6999.24,-779.35 7002.3,-778.59 7005.35,-777.74"/>
<polygon fill="black" stroke="black" points="7006.32,-781.11 7014.84,-774.81 7004.25,-774.42 7006.32,-781.11"/>
<text text-anchor="middle" x="6986.13" y="-786.33" font-family="Times,serif" font-size="14.00">Yes</text>
</g>
<!-- 44602&#45;&gt;END_NODE -->
<g id="edge15" class="edge">
<title>44602&#45;&gt;END_NODE</title>
<path fill="none" stroke="black" d="M6892.62,-768.23C6920.55,-764.6 6948.94,-761.5 6976,-759.48 6984.65,-758.83 6993.91,-758.72 7002.79,-758.91"/>
<polygon fill="black" stroke="black" points="7002.53,-762.41 7012.64,-759.26 7002.77,-755.41 7002.53,-762.41"/>
<text text-anchor="middle" x="6986.13" y="-762.68" font-family="Times,serif" font-size="14.00">No</text>
</g>
<!-- 44345&#45;&gt;44893 -->
<g id="edge6" class="edge">
<title>44345&#45;&gt;44893</title>
<path fill="none" stroke="black" d="M908.62,-542.92C921.43,-543.57 934.13,-544.41 946.46,-545.48 949.56,-545.74 952.68,-546.03 955.82,-546.33"/>
<polygon fill="black" stroke="black" points="955.45,-549.81 965.75,-547.35 956.16,-542.85 955.45,-549.81"/>
<text text-anchor="middle" x="936.33" y="-548.68" font-family="Times,serif" font-size="14.00">Yes</text>
</g>
<!-- 44345&#45;&gt;44893 -->
<g id="edge7" class="edge">
<title>44345&#45;&gt;44893</title>
<path fill="none" stroke="black" d="M907.88,-561.11C923.09,-562.41 938.49,-563.72 953.82,-565.03"/>
<polygon fill="black" stroke="black" points="953.2,-568.49 963.46,-565.85 953.8,-561.51 953.2,-568.49"/>
<text text-anchor="middle" x="936.33" y="-567.18" font-family="Times,serif" font-size="14.00">No</text>
</g>
<!-- 44926 -->
<g id="node20" class="node">
<title>44926</title>
<ellipse fill="#dddddd" stroke="#dddddd" cx="1647.67" cy="-583.98" rx="201.82" ry="201.82"/>
<text text-anchor="middle" x="1647.67" y="-578.93" font-family="Times,serif" font-size="14.00">Is the incident subject to a governor&#39;s adjudication?</text>
</g>
<!-- 44893&#45;&gt;44926 -->
<g id="edge36" class="edge">
<title>44893&#45;&gt;44926</title>
<path fill="none" stroke="black" d="M1390.07,-583.98C1404.75,-583.98 1419.55,-583.98 1434.23,-583.98"/>
<polygon fill="black" stroke="black" points="1433.91,-587.48 1443.91,-583.98 1433.91,-580.48 1433.91,-587.48"/>
<text text-anchor="middle" x="1417.73" y="-587.18" font-family="Times,serif" font-size="14.00">Yes</text>
</g>
<!-- 44893&#45;&gt;44926 -->
<g id="edge37" class="edge">
<title>44893&#45;&gt;44926</title>
<path fill="none" stroke="black" d="M1388.89,-562.82C1402.07,-562.69 1415.14,-562.88 1427.85,-563.48 1430.23,-563.59 1432.63,-563.7 1435.04,-563.83"/>
<polygon fill="black" stroke="black" points="1434.7,-567.32 1444.88,-564.37 1435.09,-560.33 1434.7,-567.32"/>
<text text-anchor="middle" x="1417.73" y="-566.68" font-family="Times,serif" font-size="14.00">No</text>
</g>
<!-- 44351 -->
<g id="node11" class="node">
<title>44351</title>
<ellipse fill="#dddddd" stroke="#dddddd" cx="5587.21" cy="-315.98" rx="187.49" ry="187.49"/>
<text text-anchor="middle" x="5587.21" y="-310.93" font-family="Times,serif" font-size="14.00">Was the breach charged with a further offence?</text>
</g>
<!-- 44934 -->
<g id="node12" class="node">
<title>44934</title>
<ellipse fill="#dddddd" stroke="#dddddd" cx="6051.71" cy="-481.98" rx="197.22" ry="197.22"/>
<text text-anchor="middle" x="6051.71" y="-476.93" font-family="Times,serif" font-size="14.00">With what offence has the prisoner been charged?</text>
</g>
<!-- 44351&#45;&gt;44934 -->
<g id="edge8" class="edge">
<title>44351&#45;&gt;44934</title>
<path fill="none" stroke="black" d="M5764.05,-379.09C5793.75,-389.75 5824.75,-400.87 5854.92,-411.7"/>
<polygon fill="black" stroke="black" points="5853.54,-414.92 5864.13,-415.01 5855.9,-408.34 5853.54,-414.92"/>
<text text-anchor="middle" x="5826.37" y="-407.15" font-family="Times,serif" font-size="14.00">Yes</text>
</g>
<!-- 45160 -->
<g id="node13" class="node">
<title>45160</title>
<ellipse fill="#dddddd" stroke="#dddddd" cx="6692.72" cy="-315.98" rx="265.29" ry="265.29"/>
<text text-anchor="middle" x="6692.72" y="-310.93" font-family="Times,serif" font-size="14.00">Was the breach failing to comply with any other licence conditions?</text>
</g>
<!-- 44351&#45;&gt;45160 -->
<g id="edge9" class="edge">
<title>44351&#45;&gt;45160</title>
<path fill="none" stroke="black" d="M5769.68,-272.2C5797.92,-266.92 5826.88,-262.37 5854.49,-259.48 6099.81,-233.74 6164.24,-240.07 6409.43,-266.98 6412.9,-267.36 6416.4,-267.75 6419.91,-268.17"/>
<polygon fill="black" stroke="black" points="6419.33,-271.62 6429.68,-269.35 6420.17,-264.67 6419.33,-271.62"/>
<text text-anchor="middle" x="6051.71" y="-262.68" font-family="Times,serif" font-size="14.00">No</text>
</g>
<!-- 44934&#45;&gt;44602 -->
<g id="edge40" class="edge">
<title>44934&#45;&gt;44602</title>
<path fill="none" stroke="black" d="M6247.93,-461.16C6317.08,-458.22 6384.05,-461.93 6409.43,-483.48 6446.03,-514.54 6403.12,-548.58 6427.43,-589.98 6448.9,-626.52 6479.22,-659.29 6511.71,-687.52"/>
<polygon fill="black" stroke="black" points="6509.43,-690.17 6519.32,-693.99 6513.97,-684.85 6509.43,-690.17"/>
<text text-anchor="middle" x="6338.18" y="-486.68" font-family="Times,serif" font-size="14.00">Murder/attempted murder</text>
</g>
<!-- 44934&#45;&gt;44602 -->
<g id="edge41" class="edge">
<title>44934&#45;&gt;44602</title>
<path fill="none" stroke="black" d="M6243.41,-434.05C6314.3,-421.35 6383.77,-416.71 6409.43,-439.48 6434.62,-461.83 6411.08,-560.53 6427.43,-589.98 6448.22,-627.43 6478.58,-660.73 6511.37,-689.21"/>
<polygon fill="black" stroke="black" points="6508.71,-691.55 6518.6,-695.36 6513.25,-686.22 6508.71,-691.55"/>
<text text-anchor="middle" x="6338.18" y="-442.68" font-family="Times,serif" font-size="14.00">Manslaughter</text>
</g>
<!-- 44934&#45;&gt;44602 -->
<g id="edge42" class="edge">
<title>44934&#45;&gt;44602</title>
<path fill="none" stroke="black" d="M6235.57,-409.33C6246.08,-406.66 6256.58,-404.33 6266.93,-402.48 6329.26,-391.28 6362.55,-359.89 6409.43,-402.48 6440.41,-430.62 6407.54,-553.15 6427.43,-589.98 6447.85,-627.79 6478.14,-661.28 6511,-689.85"/>
<polygon fill="black" stroke="black" points="6508.37,-692.2 6518.26,-696.02 6512.91,-686.87 6508.37,-692.2"/>
<text text-anchor="middle" x="6338.18" y="-405.68" font-family="Times,serif" font-size="14.00">Assault</text>
</g>
<!-- 44934&#45;&gt;44602 -->
<g id="edge43" class="edge">
<title>44934&#45;&gt;44602</title>
<path fill="none" stroke="black" d="M6219.08,-377.12C6234.83,-370.43 6250.91,-364.7 6266.93,-360.48 6297.55,-352.4 6386.18,-338.98 6409.43,-360.48 6446.99,-395.21 6403.51,-544.75 6427.43,-589.98 6447.58,-628.08 6477.86,-661.75 6510.81,-690.39"/>
<polygon fill="black" stroke="black" points="6508.2,-692.76 6518.09,-696.58 6512.74,-687.43 6508.2,-692.76"/>
<text text-anchor="middle" x="6338.18" y="-363.68" font-family="Times,serif" font-size="14.00">Rape/attempted rape</text>
</g>
<!-- 44934&#45;&gt;44602 -->
<g id="edge44" class="edge">
<title>44934&#45;&gt;44602</title>
<path fill="none" stroke="black" d="M6204.52,-356.64C6224.56,-345.19 6245.58,-335.33 6266.93,-328.48 6327.23,-309.1 6363.13,-285.26 6409.43,-328.48 6452.01,-368.22 6400.44,-538.36 6427.43,-589.98 6447.4,-628.18 6477.6,-661.88 6510.53,-690.53"/>
<polygon fill="black" stroke="black" points="6507.92,-692.91 6517.8,-696.73 6512.46,-687.58 6507.92,-692.91"/>
<text text-anchor="middle" x="6338.18" y="-331.68" font-family="Times,serif" font-size="14.00">Other sexual offence</text>
</g>
<!-- 44934&#45;&gt;44602 -->
<g id="edge45" class="edge">
<title>44934&#45;&gt;44602</title>
<path fill="none" stroke="black" d="M6182.78,-334.24C6208.45,-313.51 6236.84,-295.27 6266.93,-283.48 6296.41,-271.92 6386.39,-261.75 6409.43,-283.48 6434.25,-306.88 6411.77,-559.66 6427.43,-589.98 6447.21,-628.28 6477.32,-662.03 6510.24,-690.69"/>
<polygon fill="black" stroke="black" points="6507.63,-693.06 6517.51,-696.88 6512.17,-687.73 6507.63,-693.06"/>
<text text-anchor="middle" x="6338.18" y="-286.68" font-family="Times,serif" font-size="14.00">Theft</text>
</g>
<!-- 44934&#45;&gt;44602 -->
<g id="edge46" class="edge">
<title>44934&#45;&gt;44602</title>
<path fill="none" stroke="black" d="M6176.73,-634.63C6203.95,-659.99 6234.44,-683.39 6266.93,-699.98 6323.98,-729.09 6346.84,-707.89 6409.43,-721.48 6434.92,-727.01 6461.51,-733.55 6487.74,-740.47"/>
<polygon fill="black" stroke="black" points="6486.53,-743.77 6497.09,-742.97 6488.33,-737.01 6486.53,-743.77"/>
<text text-anchor="middle" x="6338.18" y="-724.68" font-family="Times,serif" font-size="14.00">Robbery</text>
</g>
<!-- 44934&#45;&gt;44602 -->
<g id="edge47" class="edge">
<title>44934&#45;&gt;44602</title>
<path fill="none" stroke="black" d="M6194.98,-617.96C6217.74,-634.28 6242.03,-649.02 6266.93,-659.98 6325.43,-685.73 6347.87,-662.26 6409.43,-679.48 6439.11,-687.78 6469.76,-698.56 6499.42,-710.28"/>
<polygon fill="black" stroke="black" points="6497.88,-713.44 6508.46,-713.9 6500.48,-706.94 6497.88,-713.44"/>
<text text-anchor="middle" x="6338.18" y="-682.68" font-family="Times,serif" font-size="14.00">Firearm offence</text>
</g>
<!-- 44934&#45;&gt;44602 -->
<g id="edge48" class="edge">
<title>44934&#45;&gt;44602</title>
<path fill="none" stroke="black" d="M6213.16,-595.58C6230.78,-604.91 6248.88,-613.3 6266.93,-619.98 6326.88,-642.14 6348.94,-618.81 6409.43,-639.48 6444.37,-651.41 6479.86,-667.83 6513.34,-685.67"/>
<polygon fill="black" stroke="black" points="6511.4,-688.6 6521.86,-690.28 6514.72,-682.44 6511.4,-688.6"/>
<text text-anchor="middle" x="6338.18" y="-642.68" font-family="Times,serif" font-size="14.00">Drug offence</text>
</g>
<!-- 44934&#45;&gt;44602 -->
<g id="edge49" class="edge">
<title>44934&#45;&gt;44602</title>
<path fill="none" stroke="black" d="M6229.75,-567.71C6242.19,-572.26 6254.65,-576.41 6266.93,-579.98 6328.32,-597.8 6350.04,-575.82 6409.43,-599.48 6450.49,-615.84 6491.18,-639.43 6528.34,-664.76"/>
<polygon fill="black" stroke="black" points="6526.25,-667.57 6536.47,-670.38 6530.23,-661.82 6526.25,-667.57"/>
<text text-anchor="middle" x="6338.18" y="-602.68" font-family="Times,serif" font-size="14.00">Vehicle crime</text>
</g>
<!-- 44934&#45;&gt;44602 -->
<g id="edge50" class="edge">
<title>44934&#45;&gt;44602</title>
<path fill="none" stroke="black" d="M6242.21,-534.67C6250.54,-536.55 6258.81,-538.33 6266.93,-539.98 6329.57,-552.69 6356.2,-524.08 6409.43,-559.48 6422.53,-568.19 6417.12,-578.08 6427.43,-589.98 6454.39,-621.09 6486.36,-651.04 6518.6,-678.14"/>
<polygon fill="black" stroke="black" points="6516.15,-680.66 6526.08,-684.36 6520.63,-675.27 6516.15,-680.66"/>
<text text-anchor="middle" x="6338.18" y="-562.68" font-family="Times,serif" font-size="14.00">Public order offence</text>
</g>
<!-- 44934&#45;&gt;44602 -->
<g id="edge51" class="edge">
<title>44934&#45;&gt;44602</title>
<path fill="none" stroke="black" d="M6248.38,-500.25C6329.57,-508.24 6405.95,-516.47 6409.43,-519.48 6433.89,-540.62 6409.91,-562.79 6427.43,-589.98 6450.24,-625.38 6480.96,-657.56 6513.39,-685.56"/>
<polygon fill="black" stroke="black" points="6511.08,-688.19 6520.97,-691.98 6515.61,-682.85 6511.08,-688.19"/>
<text text-anchor="middle" x="6338.18" y="-522.68" font-family="Times,serif" font-size="14.00">Other</text>
</g>
<!-- 45160&#45;&gt;END_NODE -->
<g id="edge62" class="edge">
<title>45160&#45;&gt;END_NODE</title>
<path fill="none" stroke="black" d="M6902.69,-478.79C6937.59,-513.36 6970.7,-551.8 6996.25,-592.48 7020.36,-630.86 7033.58,-681.29 7040.44,-717.15"/>
<polygon fill="black" stroke="black" points="7036.95,-717.53 7042.18,-726.75 7043.84,-716.29 7036.95,-717.53"/>
<text text-anchor="middle" x="6986.13" y="-595.68" font-family="Times,serif" font-size="14.00">Yes</text>
</g>
<!-- 45160&#45;&gt;END_NODE -->
<g id="edge63" class="edge">
<title>45160&#45;&gt;END_NODE</title>
<path fill="none" stroke="black" d="M6884.27,-500.19C6910.44,-529.42 6935.88,-560.19 6958,-590.98 6987.69,-632.3 7013.54,-684.83 7029.64,-720.7"/>
<polygon fill="black" stroke="black" points="7026.25,-721.7 7033.5,-729.42 7032.65,-718.86 7026.25,-721.7"/>
<text text-anchor="middle" x="6986.13" y="-652.57" font-family="Times,serif" font-size="14.00">No</text>
</g>
<!-- 44358 -->
<g id="node14" class="node">
<title>44358</title>
<ellipse fill="#dddddd" stroke="#dddddd" cx="5106.33" cy="-315.98" rx="164.46" ry="164.46"/>
<text text-anchor="middle" x="5106.33" y="-310.93" font-family="Times,serif" font-size="14.00">Was the breach failing to return on time?</text>
</g>
<!-- 44358&#45;&gt;END_NODE -->
<g id="edge10" class="edge">
<title>44358&#45;&gt;END_NODE</title>
<path fill="none" stroke="black" d="M5220.58,-197.65C5310.95,-116.33 5445.37,-22.98 5586.21,-22.98 5586.21,-22.98 5586.21,-22.98 6693.72,-22.98 6811.48,-22.98 6872.62,39.13 6958,-41.98 7007.18,-88.69 7036.68,-566.48 7044.8,-716.89"/>
<polygon fill="black" stroke="black" points="7041.29,-716.66 7045.32,-726.46 7048.28,-716.28 7041.29,-716.66"/>
<text text-anchor="middle" x="6051.71" y="-26.18" font-family="Times,serif" font-size="14.00">Yes</text>
</g>
<!-- 44358&#45;&gt;44351 -->
<g id="edge11" class="edge">
<title>44358&#45;&gt;44351</title>
<path fill="none" stroke="black" d="M5271.13,-315.98C5308.72,-315.98 5349.09,-315.98 5387.96,-315.98"/>
<polygon fill="black" stroke="black" points="5387.91,-319.48 5397.91,-315.98 5387.91,-312.48 5387.91,-319.48"/>
<text text-anchor="middle" x="5348.05" y="-319.18" font-family="Times,serif" font-size="14.00">No</text>
</g>
<!-- 44459 -->
<g id="node15" class="node">
<title>44459</title>
<ellipse fill="#dddddd" stroke="#dddddd" cx="2077.37" cy="-583.98" rx="171.63" ry="171.63"/>
<text text-anchor="middle" x="2077.37" y="-578.93" font-family="Times,serif" font-size="14.00">Is there any media interest in this incident?</text>
</g>
<!-- 44736 -->
<g id="node16" class="node">
<title>44736</title>
<ellipse fill="#dddddd" stroke="#dddddd" cx="2505.03" cy="-583.98" rx="199.78" ry="199.78"/>
<text text-anchor="middle" x="2505.03" y="-578.93" font-family="Times,serif" font-size="14.00">Has the prison service press office been informed?</text>
</g>
<!-- 44459&#45;&gt;44736 -->
<g id="edge12" class="edge">
<title>44459&#45;&gt;44736</title>
<path fill="none" stroke="black" d="M2249.36,-583.98C2263.91,-583.98 2278.73,-583.98 2293.54,-583.98"/>
<polygon fill="black" stroke="black" points="2293.34,-587.48 2303.34,-583.98 2293.34,-580.48 2293.34,-587.48"/>
<text text-anchor="middle" x="2277.13" y="-587.18" font-family="Times,serif" font-size="14.00">Yes</text>
</g>
<!-- 44459&#45;&gt;44736 -->
<g id="edge13" class="edge">
<title>44459&#45;&gt;44736</title>
<path fill="none" stroke="black" d="M2248.22,-564.65C2254.56,-564.2 2260.83,-563.81 2267,-563.48 2276.02,-562.99 2285.22,-562.73 2294.52,-562.67"/>
<polygon fill="black" stroke="black" points="2294.37,-566.17 2304.38,-562.69 2294.39,-559.17 2294.37,-566.17"/>
<text text-anchor="middle" x="2277.13" y="-566.68" font-family="Times,serif" font-size="14.00">No</text>
</g>
<!-- 44942 -->
<g id="node17" class="node">
<title>44942</title>
<ellipse fill="#dddddd" stroke="#dddddd" cx="2906.58" cy="-583.98" rx="145.52" ry="145.52"/>
<text text-anchor="middle" x="2906.58" y="-578.93" font-family="Times,serif" font-size="14.00">What type of licence was breached?</text>
</g>
<!-- 44736&#45;&gt;44942 -->
<g id="edge28" class="edge">
<title>44736&#45;&gt;44942</title>
<path fill="none" stroke="black" d="M2705.22,-583.98C2719.95,-583.98 2734.68,-583.98 2749.1,-583.98"/>
<polygon fill="black" stroke="black" points="2749.07,-587.48 2759.07,-583.98 2749.07,-580.48 2749.07,-587.48"/>
<text text-anchor="middle" x="2732.93" y="-587.18" font-family="Times,serif" font-size="14.00">Yes</text>
</g>
<!-- 44736&#45;&gt;44942 -->
<g id="edge29" class="edge">
<title>44736&#45;&gt;44942</title>
<path fill="none" stroke="black" d="M2703.85,-562.44C2717.11,-562.36 2730.27,-562.67 2743.05,-563.48 2745.59,-563.63 2748.15,-563.81 2750.72,-563.99"/>
<polygon fill="black" stroke="black" points="2750.35,-567.48 2760.59,-564.77 2750.89,-560.5 2750.35,-567.48"/>
<text text-anchor="middle" x="2732.93" y="-566.68" font-family="Times,serif" font-size="14.00">No</text>
</g>
<!-- 45081 -->
<g id="node21" class="node">
<title>45081</title>
<ellipse fill="#dddddd" stroke="#dddddd" cx="3414.14" cy="-583.98" rx="233.04" ry="233.04"/>
<text text-anchor="middle" x="3414.14" y="-578.93" font-family="Times,serif" font-size="14.00">Was the breach failing to return reported to police as UAL?</text>
</g>
<!-- 44942&#45;&gt;45081 -->
<g id="edge52" class="edge">
<title>44942&#45;&gt;45081</title>
<path fill="none" stroke="black" d="M3048.17,-618.93C3055.56,-620.11 3062.9,-621.15 3070.1,-621.98 3103.4,-625.82 3138.53,-626.16 3173.1,-624.36"/>
<polygon fill="black" stroke="black" points="3173.01,-627.87 3182.79,-623.79 3172.6,-620.89 3173.01,-627.87"/>
<text text-anchor="middle" x="3116.6" y="-628.61" font-family="Times,serif" font-size="14.00">Compassionate</text>
</g>
<!-- 44942&#45;&gt;45081 -->
<g id="edge53" class="edge">
<title>44942&#45;&gt;45081</title>
<path fill="none" stroke="black" d="M3052.45,-583.98C3089.12,-583.98 3129.53,-583.98 3169.62,-583.98"/>
<polygon fill="black" stroke="black" points="3169.4,-587.48 3179.4,-583.98 3169.4,-580.48 3169.4,-587.48"/>
<text text-anchor="middle" x="3116.6" y="-587.18" font-family="Times,serif" font-size="14.00">Facility</text>
</g>
<!-- 44942&#45;&gt;45081 -->
<g id="edge54" class="edge">
<title>44942&#45;&gt;45081</title>
<path fill="none" stroke="black" d="M3051.05,-564.89C3057.48,-564.34 3063.86,-563.87 3070.1,-563.48 3102.6,-561.43 3136.83,-561.19 3170.59,-562.08"/>
<polygon fill="black" stroke="black" points="3170.4,-565.58 3180.5,-562.38 3170.61,-558.58 3170.4,-565.58"/>
<text text-anchor="middle" x="3116.6" y="-566.68" font-family="Times,serif" font-size="14.00">Resettlement</text>
</g>
<!-- 44942&#45;&gt;45081 -->
<g id="edge55" class="edge">
<title>44942&#45;&gt;45081</title>
<path fill="none" stroke="black" d="M3047.2,-545.04C3054.91,-543.65 3062.58,-542.44 3070.1,-541.48 3103.67,-537.16 3139.09,-536.81 3173.93,-538.88"/>
<polygon fill="black" stroke="black" points="3173.5,-542.36 3183.71,-539.54 3173.96,-535.38 3173.5,-542.36"/>
<text text-anchor="middle" x="3116.6" y="-544.68" font-family="Times,serif" font-size="14.00">Community visit</text>
</g>
<!-- 44826 -->
<g id="node18" class="node">
<title>44826</title>
<ellipse fill="#dddddd" stroke="#dddddd" cx="3826.95" cy="-1057.98" rx="123.52" ry="123.52"/>
<text text-anchor="middle" x="3826.95" y="-1052.93" font-family="Times,serif" font-size="14.00">Has prisoner been recaptured?</text>
</g>
<!-- 44826&#45;&gt;END_NODE -->
<g id="edge33" class="edge">
<title>44826&#45;&gt;END_NODE</title>
<path fill="none" stroke="black" d="M3895.66,-1160.71C3952.28,-1233.02 4040.26,-1316.98 4143.57,-1316.98 4143.57,-1316.98 4143.57,-1316.98 6693.72,-1316.98 6811.66,-1316.98 6871.51,-1373.16 6958,-1292.98 7028.59,-1227.54 7043.27,-923.79 7046.32,-807.46"/>
<polygon fill="black" stroke="black" points="7049.81,-807.75 7046.55,-797.67 7042.81,-807.58 7049.81,-807.75"/>
<text text-anchor="middle" x="5348.05" y="-1320.18" font-family="Times,serif" font-size="14.00">No</text>
</g>
<!-- 44997 -->
<g id="node19" class="node">
<title>44997</title>
<ellipse fill="#dddddd" stroke="#dddddd" cx="4144.57" cy="-1057.98" rx="137.85" ry="137.85"/>
<text text-anchor="middle" x="4144.57" y="-1052.93" font-family="Times,serif" font-size="14.00">How was the prisoner recaptured?</text>
</g>
<!-- 44826&#45;&gt;44997 -->
<g id="edge32" class="edge">
<title>44826&#45;&gt;44997</title>
<path fill="none" stroke="black" d="M3950.88,-1057.98C3965.36,-1057.98 3980.26,-1057.98 3995.04,-1057.98"/>
<polygon fill="black" stroke="black" points="3994.81,-1061.48 4004.81,-1057.98 3994.81,-1054.48 3994.81,-1061.48"/>
<text text-anchor="middle" x="3978.59" y="-1061.18" font-family="Times,serif" font-size="14.00">Yes</text>
</g>
<!-- 44997&#45;&gt;44259 -->
<g id="edge56" class="edge">
<title>44997&#45;&gt;44259</title>
<path fill="none" stroke="black" d="M4278.22,-1092.72C4285.7,-1093.99 4293.13,-1095.09 4300.41,-1095.98 4334.66,-1100.12 4370.96,-1100.14 4406.39,-1097.76"/>
<polygon fill="black" stroke="black" points="4406.63,-1101.25 4416.35,-1097.02 4406.11,-1094.27 4406.63,-1101.25"/>
<text text-anchor="middle" x="4348.41" y="-1102.56" font-family="Times,serif" font-size="14.00">Police arrest</text>
</g>
<!-- 44997&#45;&gt;44259 -->
<g id="edge57" class="edge">
<title>44997&#45;&gt;44259</title>
<path fill="none" stroke="black" d="M4282.79,-1057.98C4320.18,-1057.98 4361.67,-1057.98 4402.47,-1057.98"/>
<polygon fill="black" stroke="black" points="4402.44,-1061.48 4412.44,-1057.98 4402.44,-1054.48 4402.44,-1061.48"/>
<text text-anchor="middle" x="4348.41" y="-1061.18" font-family="Times,serif" font-size="14.00">Prison staff arrest</text>
</g>
<!-- 44997&#45;&gt;44259 -->
<g id="edge58" class="edge">
<title>44997&#45;&gt;44259</title>
<path fill="none" stroke="black" d="M4281.42,-1038.96C4287.83,-1038.39 4294.19,-1037.89 4300.41,-1037.48 4333.91,-1035.27 4369.36,-1035.2 4404.04,-1036.39"/>
<polygon fill="black" stroke="black" points="4403.63,-1039.87 4413.76,-1036.76 4403.9,-1032.88 4403.63,-1039.87"/>
<text text-anchor="middle" x="4348.41" y="-1040.68" font-family="Times,serif" font-size="14.00">Surrender</text>
</g>
<!-- 44997&#45;&gt;44259 -->
<g id="edge59" class="edge">
<title>44997&#45;&gt;44259</title>
<path fill="none" stroke="black" d="M4277.28,-1019.29C4285.06,-1017.79 4292.82,-1016.5 4300.41,-1015.48 4335.06,-1010.81 4371.81,-1010.85 4407.63,-1013.6"/>
<polygon fill="black" stroke="black" points="4406.95,-1017.06 4417.21,-1014.41 4407.54,-1010.08 4406.95,-1017.06"/>
<text text-anchor="middle" x="4348.41" y="-1018.68" font-family="Times,serif" font-size="14.00">Other</text>
</g>
<!-- 44926&#45;&gt;44459 -->
<g id="edge38" class="edge">
<title>44926&#45;&gt;44459</title>
<path fill="none" stroke="black" d="M1849.69,-583.98C1864.55,-583.98 1879.49,-583.98 1894.23,-583.98"/>
<polygon fill="black" stroke="black" points="1893.94,-587.48 1903.94,-583.98 1893.94,-580.48 1893.94,-587.48"/>
<text text-anchor="middle" x="1877.62" y="-587.18" font-family="Times,serif" font-size="14.00">Yes</text>
</g>
<!-- 44926&#45;&gt;44459 -->
<g id="edge39" class="edge">
<title>44926&#45;&gt;44459</title>
<path fill="none" stroke="black" d="M1848.84,-562.68C1862,-562.56 1875.06,-562.79 1887.75,-563.48 1890.25,-563.61 1892.78,-563.76 1895.31,-563.91"/>
<polygon fill="black" stroke="black" points="1894.81,-567.39 1905.02,-564.55 1895.27,-560.4 1894.81,-567.39"/>
<text text-anchor="middle" x="1877.62" y="-566.68" font-family="Times,serif" font-size="14.00">No</text>
</g>
<!-- 45081&#45;&gt;44358 -->
<g id="edge61" class="edge">
<title>45081&#45;&gt;44358</title>
<path fill="none" stroke="black" d="M3647.28,-571.78C3705.59,-569.58 3768.05,-567.98 3825.95,-567.98 3825.95,-567.98 3825.95,-567.98 4626.45,-567.98 4754.19,-567.98 4881.33,-496.88 4972.47,-430.22"/>
<polygon fill="black" stroke="black" points="4974.28,-433.24 4980.24,-424.48 4970.12,-427.61 4974.28,-433.24"/>
<text text-anchor="middle" x="4144.57" y="-571.18" font-family="Times,serif" font-size="14.00">No</text>
</g>
<!-- 45081&#45;&gt;44826 -->
<g id="edge60" class="edge">
<title>45081&#45;&gt;44826</title>
<path fill="none" stroke="black" d="M3567.53,-759.8C3624.87,-825.96 3688.13,-898.95 3737.7,-956.15"/>
<polygon fill="black" stroke="black" points="3735.04,-958.42 3744.24,-963.69 3740.33,-953.84 3735.04,-958.42"/>
<text text-anchor="middle" x="3675.31" y="-894.33" font-family="Times,serif" font-size="14.00">Yes</text>
</g>
</g>
</svg>
