<?xml version="1.0" encoding="UTF-8" standalone="no"?>
<!DOCTYPE svg PUBLIC "-//W3C//DTD SVG 1.1//EN"
 "http://www.w3.org/Graphics/SVG/1.1/DTD/svg11.dtd">
<!-- Generated by graphviz version 12.1.1 (20240910.0053)
 -->
<!-- Title: OLD_TEMPORARY_RELEASE_FAILURE Pages: 1 -->
<svg width="7296pt" height="1344pt"
 viewBox="0.00 0.00 7296.21 1344.12" xmlns="http://www.w3.org/2000/svg" xmlns:xlink="http://www.w3.org/1999/xlink">
<g id="graph0" class="graph" transform="scale(1 1) rotate(0) translate(4 1340.12)">
<title>OLD_TEMPORARY_RELEASE_FAILURE</title>
<polygon fill="white" stroke="none" points="-4,4 -4,-1340.12 7292.21,-1340.12 7292.21,4 -4,4"/>
<!-- START_NODE -->
<g id="node1" class="node">
<title>START_NODE</title>
</g>
<!-- 44885 -->
<g id="node2" class="node">
<title>44885</title>
<ellipse fill="#dddddd" stroke="#dddddd" cx="280.27" cy="-662.84" rx="167.02" ry="167.02"/>
<text text-anchor="middle" x="280.27" y="-657.79" font-family="Times,serif" font-size="14.00">Were the police informed of the incident?</text>
</g>
<!-- START_NODE&#45;&gt;44885 -->
<g id="edge1" class="edge">
<title>START_NODE&#45;&gt;44885</title>
<path fill="none" stroke="black" d="M53.94,-662.84C66.67,-662.84 83.21,-662.84 101.55,-662.84"/>
<polygon fill="black" stroke="black" points="101.34,-666.34 111.34,-662.84 101.34,-659.34 101.34,-666.34"/>
<text text-anchor="middle" x="83.62" y="-666.04" font-family="Times,serif" font-size="14.00">start</text>
</g>
<!-- 44345 -->
<g id="node9" class="node">
<title>44345</title>
<ellipse fill="#dddddd" stroke="#dddddd" cx="711.12" cy="-543.84" rx="202.33" ry="202.33"/>
<text text-anchor="middle" x="711.12" y="-538.79" font-family="Times,serif" font-size="14.00">Is the incident the subject of a police investigation?</text>
</g>
<!-- 44885&#45;&gt;44345 -->
<g id="edge34" class="edge">
<title>44885&#45;&gt;44345</title>
<path fill="none" stroke="#dddddd" d="M441.57,-618.36C462.13,-612.66 483.41,-606.75 504.57,-600.88"/>
<polygon fill="#dddddd" stroke="#dddddd" points="505.46,-604.27 514.16,-598.22 503.59,-597.52 505.46,-604.27"/>
<text text-anchor="middle" x="478.04" y="-613.67" font-family="Times,serif" font-size="14.00">YES</text>
</g>
<!-- 44893 -->
<g id="node10" class="node">
<title>44893</title>
<ellipse fill="#dddddd" stroke="#dddddd" cx="1187.53" cy="-583.84" rx="212.57" ry="212.57"/>
<text text-anchor="middle" x="1187.53" y="-578.79" font-family="Times,serif" font-size="14.00">Is the incident the subject of an internal investigation?</text>
</g>
<!-- 44885&#45;&gt;44893 -->
<g id="edge35" class="edge">
<title>44885&#45;&gt;44893</title>
<path fill="none" stroke="#dddddd" d="M432.09,-733.13C457.22,-742.12 483.38,-749.9 508.79,-754.84 685.33,-789.19 740.6,-804.5 913.46,-754.84 945.1,-745.75 976.62,-731.81 1006.41,-715.72"/>
<polygon fill="#dddddd" stroke="#dddddd" points="1008.05,-718.81 1015.11,-710.91 1004.67,-712.68 1008.05,-718.81"/>
<text text-anchor="middle" x="711.12" y="-789.8" font-family="Times,serif" font-size="14.00">NO</text>
</g>
<!-- END_NODE -->
<g id="node3" class="node">
<title>END_NODE</title>
<ellipse fill="none" stroke="black" cx="7254.36" cy="-761.84" rx="29.86" ry="29.86"/>
<ellipse fill="none" stroke="black" cx="7254.36" cy="-761.84" rx="33.86" ry="33.86"/>
<text text-anchor="middle" x="7254.36" y="-756.79" font-family="Times,serif" font-size="14.00">END</text>
</g>
<!-- 44259 -->
<g id="node4" class="node">
<title>44259</title>
<ellipse fill="#dddddd" stroke="#dddddd" cx="4749.2" cy="-1057.84" rx="211.04" ry="211.04"/>
<text text-anchor="middle" x="4749.2" y="-1052.79" font-family="Times,serif" font-size="14.00">Has the prisoner been charged with a further offence?</text>
</g>
<!-- 44259&#45;&gt;END_NODE -->
<g id="edge3" class="edge">
<title>44259&#45;&gt;END_NODE</title>
<path fill="none" stroke="black" d="M4907.75,-1197.28C4943.17,-1222.04 4982.07,-1244.72 5021.73,-1259.84 5110.37,-1293.65 5139.47,-1278.84 5234.33,-1278.84 5234.33,-1278.84 5234.33,-1278.84 6894.72,-1278.84 7123.79,-1278.84 7218.22,-931.93 7244.89,-806.45"/>
<polygon fill="black" stroke="black" points="7248.28,-807.35 7246.88,-796.85 7241.42,-805.93 7248.28,-807.35"/>
<text text-anchor="middle" x="5963.24" y="-1282.04" font-family="Times,serif" font-size="14.00">NO</text>
</g>
<!-- 44772 -->
<g id="node5" class="node">
<title>44772</title>
<ellipse fill="#dddddd" stroke="#dddddd" cx="5235.33" cy="-1036.84" rx="213.59" ry="213.59"/>
<text text-anchor="middle" x="5235.33" y="-1031.79" font-family="Times,serif" font-size="14.00">Is that offence under the prisoners (return to custody)?</text>
</g>
<!-- 44259&#45;&gt;44772 -->
<g id="edge2" class="edge">
<title>44259&#45;&gt;44772</title>
<path fill="none" stroke="black" d="M4960.43,-1048.72C4976.92,-1048.01 4993.6,-1047.29 5010.17,-1046.57"/>
<polygon fill="black" stroke="black" points="5010.27,-1050.07 5020.11,-1046.14 5009.97,-1043.07 5010.27,-1050.07"/>
<text text-anchor="middle" x="4990.98" y="-1050.54" font-family="Times,serif" font-size="14.00">YES</text>
</g>
<!-- 44266 -->
<g id="node6" class="node">
<title>44266</title>
<ellipse fill="#dddddd" stroke="#dddddd" cx="5721.46" cy="-1039.84" rx="211.04" ry="211.04"/>
<text text-anchor="middle" x="5721.46" y="-1034.79" font-family="Times,serif" font-size="14.00">Has the prisoner been charged with a further offence?</text>
</g>
<!-- 44772&#45;&gt;44266 -->
<g id="edge30" class="edge">
<title>44772&#45;&gt;44266</title>
<path fill="none" stroke="black" d="M5449.38,-1038.16C5465.77,-1038.27 5482.33,-1038.37 5498.77,-1038.47"/>
<polygon fill="black" stroke="black" points="5498.6,-1041.97 5508.62,-1038.53 5498.64,-1034.97 5498.6,-1041.97"/>
<text text-anchor="middle" x="5479.67" y="-1041.54" font-family="Times,serif" font-size="14.00">YES</text>
</g>
<!-- 44694 -->
<g id="node7" class="node">
<title>44694</title>
<ellipse fill="#dddddd" stroke="#dddddd" cx="6191.21" cy="-980.84" rx="197.22" ry="197.22"/>
<text text-anchor="middle" x="6191.21" y="-975.79" font-family="Times,serif" font-size="14.00">With what offence has the prisoner been charged?</text>
</g>
<!-- 44772&#45;&gt;44694 -->
<g id="edge31" class="edge">
<title>44772&#45;&gt;44694</title>
<path fill="none" stroke="black" d="M5381.77,-880.8C5420.24,-849.18 5464.08,-820.41 5510.42,-803.34 5686.46,-738.53 5753.37,-747.63 5932.49,-803.34 5965.99,-813.76 5998.99,-830.22 6029.6,-849"/>
<polygon fill="black" stroke="black" points="6027.41,-851.76 6037.74,-854.1 6031.12,-845.83 6027.41,-851.76"/>
<text text-anchor="middle" x="5721.46" y="-806.54" font-family="Times,serif" font-size="14.00">NO</text>
</g>
<!-- 44266&#45;&gt;44694 -->
<g id="edge4" class="edge">
<title>44266&#45;&gt;44694</title>
<path fill="none" stroke="black" d="M5931.03,-1013.54C5948.68,-1011.31 5966.53,-1009.06 5984.16,-1006.83"/>
<polygon fill="black" stroke="black" points="5984.12,-1010.37 5993.61,-1005.64 5983.25,-1003.42 5984.12,-1010.37"/>
<text text-anchor="middle" x="5963.24" y="-1013.54" font-family="Times,serif" font-size="14.00">YES</text>
</g>
<!-- 44602 -->
<g id="node8" class="node">
<title>44602</title>
<ellipse fill="#dddddd" stroke="#dddddd" cx="6893.72" cy="-801.84" rx="202.33" ry="202.33"/>
<text text-anchor="middle" x="6893.72" y="-796.79" font-family="Times,serif" font-size="14.00">Has any prosecution taken place or is any pending?</text>
</g>
<!-- 44266&#45;&gt;44602 -->
<g id="edge5" class="edge">
<title>44266&#45;&gt;44602</title>
<path fill="none" stroke="black" d="M5901.52,-1150.55C5931.5,-1165.01 5962.96,-1177.89 5993.99,-1186.84 6125.74,-1224.84 6489.13,-1277.77 6610.43,-1213.84 6698.05,-1167.66 6763.68,-1080.66 6809.5,-998.47"/>
<polygon fill="black" stroke="black" points="6812.52,-1000.25 6814.26,-989.8 6806.38,-996.88 6812.52,-1000.25"/>
<text text-anchor="middle" x="6191.21" y="-1246.36" font-family="Times,serif" font-size="14.00">NO</text>
</g>
<!-- 44694&#45;&gt;44602 -->
<g id="edge16" class="edge">
<title>44694&#45;&gt;44602</title>
<path fill="none" stroke="black" d="M6321.93,-1128.71C6347.68,-1149.59 6376.19,-1167.97 6406.43,-1179.84 6448.62,-1196.42 6569.9,-1200.16 6610.43,-1179.84 6689.96,-1139.97 6752.82,-1065.88 6798.84,-993.79"/>
<polygon fill="black" stroke="black" points="6801.77,-995.71 6804.14,-985.38 6795.85,-991.98 6801.77,-995.71"/>
<text text-anchor="middle" x="6508.43" y="-1196.91" font-family="Times,serif" font-size="14.00">MURDER/ATTEMPTED MURDER</text>
</g>
<!-- 44694&#45;&gt;44602 -->
<g id="edge17" class="edge">
<title>44694&#45;&gt;44602</title>
<path fill="none" stroke="black" d="M6341.47,-1109.35C6362.22,-1121.77 6384.11,-1132.47 6406.43,-1139.84 6449.47,-1154.07 6569.36,-1159.05 6610.43,-1139.84 6680.89,-1106.89 6739.93,-1046.74 6785.5,-986.21"/>
<polygon fill="black" stroke="black" points="6788.08,-988.62 6791.23,-978.5 6782.46,-984.44 6788.08,-988.62"/>
<text text-anchor="middle" x="6508.43" y="-1155.65" font-family="Times,serif" font-size="14.00">MANSLAUGHTER</text>
</g>
<!-- 44694&#45;&gt;44602 -->
<g id="edge18" class="edge">
<title>44694&#45;&gt;44602</title>
<path fill="none" stroke="black" d="M6359.62,-1083.93C6375.05,-1090.32 6390.78,-1095.79 6406.43,-1099.84 6450.31,-1111.21 6568.78,-1117.76 6610.43,-1099.84 6672,-1073.36 6726.44,-1026.1 6770.67,-976.92"/>
<polygon fill="black" stroke="black" points="6773.23,-979.31 6777.24,-969.5 6767.99,-974.67 6773.23,-979.31"/>
<text text-anchor="middle" x="6508.43" y="-1114.16" font-family="Times,serif" font-size="14.00">ASSAULT</text>
</g>
<!-- 44694&#45;&gt;44602 -->
<g id="edge19" class="edge">
<title>44694&#45;&gt;44602</title>
<path fill="none" stroke="black" d="M6373.27,-1057.9C6448.38,-1078.99 6535.34,-1088.99 6610.43,-1059.84 6663.67,-1039.18 6713,-1003.27 6755.04,-964.7"/>
<polygon fill="black" stroke="black" points="6757.31,-967.37 6762.24,-957.99 6752.54,-962.25 6757.31,-967.37"/>
<text text-anchor="middle" x="6508.43" y="-1081.14" font-family="Times,serif" font-size="14.00">RAPE/ATTEMPTED RAPE</text>
</g>
<!-- 44694&#45;&gt;44602 -->
<g id="edge20" class="edge">
<title>44694&#45;&gt;44602</title>
<path fill="none" stroke="black" d="M6382.22,-1031.47C6455.18,-1042.46 6538.22,-1044.48 6610.43,-1019.84 6656.06,-1004.28 6700.04,-978.01 6739.17,-949"/>
<polygon fill="black" stroke="black" points="6740.87,-952.1 6746.75,-943.28 6736.66,-946.51 6740.87,-952.1"/>
<text text-anchor="middle" x="6508.43" y="-1042.45" font-family="Times,serif" font-size="14.00">OTHER SEXUAL OFFENCE</text>
</g>
<!-- 44694&#45;&gt;44602 -->
<g id="edge21" class="edge">
<title>44694&#45;&gt;44602</title>
<path fill="none" stroke="black" d="M6388.52,-990.66C6476.24,-992.94 6569.07,-991.85 6610.43,-979.84 6648.83,-968.7 6687.04,-950.63 6722.37,-930.17"/>
<polygon fill="black" stroke="black" points="6724.12,-933.21 6730.95,-925.11 6720.56,-927.18 6724.12,-933.21"/>
<text text-anchor="middle" x="6508.43" y="-994.82" font-family="Times,serif" font-size="14.00">THEFT</text>
</g>
<!-- 44694&#45;&gt;44602 -->
<g id="edge22" class="edge">
<title>44694&#45;&gt;44602</title>
<path fill="none" stroke="black" d="M6387.76,-961.18C6394.05,-960.56 6400.29,-959.94 6406.43,-959.34 6497.07,-950.46 6522.77,-964.58 6610.43,-939.84 6642.41,-930.82 6675.15,-918.28 6706.48,-904.41"/>
<polygon fill="black" stroke="black" points="6707.53,-907.77 6715.22,-900.48 6704.66,-901.38 6707.53,-907.77"/>
<text text-anchor="middle" x="6508.43" y="-962.54" font-family="Times,serif" font-size="14.00">ROBBERY</text>
</g>
<!-- 44694&#45;&gt;44602 -->
<g id="edge23" class="edge">
<title>44694&#45;&gt;44602</title>
<path fill="none" stroke="black" d="M6380.7,-924.67C6389.36,-922.74 6397.97,-920.95 6406.43,-919.34 6495.91,-902.37 6521.44,-919.25 6610.43,-899.84 6637.61,-893.92 6665.79,-886.17 6693.37,-877.63"/>
<polygon fill="black" stroke="black" points="6694.37,-880.98 6702.86,-874.64 6692.28,-874.3 6694.37,-880.98"/>
<text text-anchor="middle" x="6508.43" y="-922.54" font-family="Times,serif" font-size="14.00">FIREARM OFFENCE</text>
</g>
<!-- 44694&#45;&gt;44602 -->
<g id="edge24" class="edge">
<title>44694&#45;&gt;44602</title>
<path fill="none" stroke="black" d="M6367.76,-891.85C6380.66,-887.12 6393.63,-882.87 6406.43,-879.34 6494.24,-855.15 6520.36,-873.36 6610.43,-859.84 6634.56,-856.22 6659.75,-851.87 6684.71,-847.21"/>
<polygon fill="black" stroke="black" points="6685.11,-850.69 6694.29,-845.4 6683.81,-843.82 6685.11,-850.69"/>
<text text-anchor="middle" x="6508.43" y="-882.54" font-family="Times,serif" font-size="14.00">DRUG OFFENCE</text>
</g>
<!-- 44694&#45;&gt;44602 -->
<g id="edge25" class="edge">
<title>44694&#45;&gt;44602</title>
<path fill="none" stroke="black" d="M6350.54,-864.02C6368.74,-854.35 6387.56,-845.81 6406.43,-839.34 6420.01,-834.69 6555.75,-824.43 6680.36,-815.83"/>
<polygon fill="black" stroke="black" points="6680.37,-819.33 6690.1,-815.15 6679.89,-812.35 6680.37,-819.33"/>
<text text-anchor="middle" x="6508.43" y="-842.54" font-family="Times,serif" font-size="14.00">VEHICLE CRIME</text>
</g>
<!-- 44694&#45;&gt;44602 -->
<g id="edge26" class="edge">
<title>44694&#45;&gt;44602</title>
<path fill="none" stroke="black" d="M6330.87,-841.3C6354.45,-824.57 6379.93,-810.02 6406.43,-800.34 6456.02,-782.23 6573.23,-782.18 6680.15,-786.86"/>
<polygon fill="black" stroke="black" points="6679.8,-790.35 6689.95,-787.3 6680.12,-783.35 6679.8,-790.35"/>
<text text-anchor="middle" x="6508.43" y="-803.54" font-family="Times,serif" font-size="14.00">PUBLIC ORDER OFFENCE</text>
</g>
<!-- 44694&#45;&gt;44602 -->
<g id="edge27" class="edge">
<title>44694&#45;&gt;44602</title>
<path fill="none" stroke="black" d="M6313.24,-825.65C6340.91,-800.26 6372.33,-777.62 6406.43,-763.34 6455.71,-742.71 6574.52,-751.77 6682.36,-766.26"/>
<polygon fill="black" stroke="black" points="6681.88,-769.72 6692.26,-767.61 6682.83,-762.79 6681.88,-769.72"/>
<text text-anchor="middle" x="6508.43" y="-766.54" font-family="Times,serif" font-size="14.00">OTHER</text>
</g>
<!-- 44602&#45;&gt;END_NODE -->
<g id="edge14" class="edge">
<title>44602&#45;&gt;END_NODE</title>
<path fill="none" stroke="black" d="M7096.13,-795.26C7131.8,-791.88 7168.42,-786.96 7202.5,-779.84 7205.49,-779.22 7208.55,-778.46 7211.6,-777.61"/>
<polygon fill="black" stroke="black" points="7212.57,-780.98 7221.09,-774.68 7210.5,-774.29 7212.57,-780.98"/>
<text text-anchor="middle" x="7189.75" y="-787.73" font-family="Times,serif" font-size="14.00">YES</text>
</g>
<!-- 44602&#45;&gt;END_NODE -->
<g id="edge15" class="edge">
<title>44602&#45;&gt;END_NODE</title>
<path fill="none" stroke="black" d="M7093.62,-768.1C7121.55,-764.47 7149.94,-761.37 7177,-759.34 7187.28,-758.57 7198.36,-758.5 7208.81,-758.78"/>
<polygon fill="black" stroke="black" points="7208.61,-762.27 7218.74,-759.15 7208.88,-755.28 7208.61,-762.27"/>
<text text-anchor="middle" x="7189.75" y="-762.54" font-family="Times,serif" font-size="14.00">NO</text>
</g>
<!-- 44345&#45;&gt;44893 -->
<g id="edge6" class="edge">
<title>44345&#45;&gt;44893</title>
<path fill="none" stroke="black" d="M913.66,-542.51C928.33,-543.2 942.88,-544.13 956.96,-545.34 960.06,-545.61 963.18,-545.9 966.32,-546.2"/>
<polygon fill="black" stroke="black" points="965.95,-549.68 976.25,-547.22 966.66,-542.72 965.95,-549.68"/>
<text text-anchor="middle" x="944.21" y="-548.54" font-family="Times,serif" font-size="14.00">YES</text>
</g>
<!-- 44345&#45;&gt;44893 -->
<g id="edge7" class="edge">
<title>44345&#45;&gt;44893</title>
<path fill="none" stroke="black" d="M912.97,-560.78C929.87,-562.2 947.01,-563.65 964.06,-565.09"/>
<polygon fill="black" stroke="black" points="963.48,-568.55 973.73,-565.9 964.06,-561.57 963.48,-568.55"/>
<text text-anchor="middle" x="944.21" y="-567.04" font-family="Times,serif" font-size="14.00">NO</text>
</g>
<!-- 44926 -->
<g id="node20" class="node">
<title>44926</title>
<ellipse fill="#dddddd" stroke="#dddddd" cx="1663.42" cy="-583.84" rx="201.82" ry="201.82"/>
<text text-anchor="middle" x="1663.42" y="-578.79" font-family="Times,serif" font-size="14.00">Is the incident subject to a governor&#39;s adjudication?</text>
</g>
<!-- 44893&#45;&gt;44926 -->
<g id="edge36" class="edge">
<title>44893&#45;&gt;44926</title>
<path fill="none" stroke="black" d="M1400.53,-583.84C1416.95,-583.84 1433.53,-583.84 1449.95,-583.84"/>
<polygon fill="black" stroke="black" points="1449.78,-587.34 1459.78,-583.84 1449.78,-580.34 1449.78,-587.34"/>
<text text-anchor="middle" x="1430.85" y="-587.04" font-family="Times,serif" font-size="14.00">YES</text>
</g>
<!-- 44893&#45;&gt;44926 -->
<g id="edge37" class="edge">
<title>44893&#45;&gt;44926</title>
<path fill="none" stroke="black" d="M1399.33,-562.71C1414.31,-562.5 1429.18,-562.67 1443.6,-563.34 1445.98,-563.45 1448.38,-563.57 1450.79,-563.7"/>
<polygon fill="black" stroke="black" points="1450.45,-567.18 1460.63,-564.24 1450.84,-560.19 1450.45,-567.18"/>
<text text-anchor="middle" x="1430.85" y="-566.54" font-family="Times,serif" font-size="14.00">NO</text>
</g>
<!-- 44351 -->
<g id="node11" class="node">
<title>44351</title>
<ellipse fill="#dddddd" stroke="#dddddd" cx="5721.46" cy="-315.84" rx="187.49" ry="187.49"/>
<text text-anchor="middle" x="5721.46" y="-310.79" font-family="Times,serif" font-size="14.00">Was the breach charged with a further offence?</text>
</g>
<!-- 44934 -->
<g id="node12" class="node">
<title>44934</title>
<ellipse fill="#dddddd" stroke="#dddddd" cx="6191.21" cy="-481.84" rx="197.22" ry="197.22"/>
<text text-anchor="middle" x="6191.21" y="-476.79" font-family="Times,serif" font-size="14.00">With what offence has the prisoner been charged?</text>
</g>
<!-- 44351&#45;&gt;44934 -->
<g id="edge8" class="edge">
<title>44351&#45;&gt;44934</title>
<path fill="none" stroke="black" d="M5898.63,-378.36C5929.81,-389.43 5962.44,-401.01 5994.13,-412.26"/>
<polygon fill="black" stroke="black" points="5992.82,-415.5 6003.41,-415.55 5995.16,-408.91 5992.82,-415.5"/>
<text text-anchor="middle" x="5963.24" y="-407.02" font-family="Times,serif" font-size="14.00">YES</text>
</g>
<!-- 45160 -->
<g id="node13" class="node">
<title>45160</title>
<ellipse fill="#dddddd" stroke="#dddddd" cx="6893.72" cy="-315.84" rx="265.29" ry="265.29"/>
<text text-anchor="middle" x="6893.72" y="-310.79" font-family="Times,serif" font-size="14.00">Was the breach failing to comply with any other licence conditions?</text>
</g>
<!-- 44351&#45;&gt;45160 -->
<g id="edge9" class="edge">
<title>44351&#45;&gt;45160</title>
<path fill="none" stroke="black" d="M5904.23,-272.67C5934.07,-267.13 5964.78,-262.35 5993.99,-259.34 6266.53,-231.29 6337.84,-235.31 6610.43,-262.84 6614.15,-263.22 6617.89,-263.62 6621.66,-264.04"/>
<polygon fill="black" stroke="black" points="6621.17,-267.51 6631.5,-265.19 6621.98,-260.55 6621.17,-267.51"/>
<text text-anchor="middle" x="6191.21" y="-262.54" font-family="Times,serif" font-size="14.00">NO</text>
</g>
<!-- 44934&#45;&gt;44602 -->
<g id="edge40" class="edge">
<title>44934&#45;&gt;44602</title>
<path fill="none" stroke="black" d="M6388.62,-471.3C6488.56,-467.94 6592.74,-468.34 6610.43,-483.34 6647.04,-514.4 6604.12,-548.45 6628.43,-589.84 6649.9,-626.39 6680.22,-659.16 6712.71,-687.39"/>
<polygon fill="black" stroke="black" points="6710.43,-690.04 6720.32,-693.86 6714.97,-684.71 6710.43,-690.04"/>
<text text-anchor="middle" x="6508.43" y="-486.54" font-family="Times,serif" font-size="14.00">MURDER/ATTEMPTED MURDER</text>
</g>
<!-- 44934&#45;&gt;44602 -->
<g id="edge41" class="edge">
<title>44934&#45;&gt;44602</title>
<path fill="none" stroke="black" d="M6384.65,-440.95C6477.75,-426.18 6576.6,-419.57 6610.43,-449.34 6634.06,-470.14 6613.03,-562.39 6628.43,-589.84 6649.38,-627.21 6679.8,-660.47 6712.61,-688.94"/>
<polygon fill="black" stroke="black" points="6709.96,-691.28 6719.84,-695.1 6714.49,-685.95 6709.96,-691.28"/>
<text text-anchor="middle" x="6508.43" y="-452.54" font-family="Times,serif" font-size="14.00">MANSLAUGHTER</text>
</g>
<!-- 44934&#45;&gt;44602 -->
<g id="edge42" class="edge">
<title>44934&#45;&gt;44602</title>
<path fill="none" stroke="black" d="M6377.01,-414.26C6386.89,-411.96 6396.73,-409.96 6406.43,-408.34 6451.14,-400.89 6576.83,-377.91 6610.43,-408.34 6640.47,-435.55 6609.11,-554.21 6628.43,-589.84 6648.91,-627.62 6679.23,-661.1 6712.1,-689.67"/>
<polygon fill="black" stroke="black" points="6709.47,-692.02 6719.35,-695.84 6714,-686.69 6709.47,-692.02"/>
<text text-anchor="middle" x="6508.43" y="-411.54" font-family="Times,serif" font-size="14.00">ASSAULT</text>
</g>
<!-- 44934&#45;&gt;44602 -->
<g id="edge43" class="edge">
<title>44934&#45;&gt;44602</title>
<path fill="none" stroke="black" d="M6363.73,-385.57C6377.89,-380.3 6392.22,-375.77 6406.43,-372.34 6450.5,-361.73 6577.08,-341.64 6610.43,-372.34 6646.11,-405.19 6605.66,-547.02 6628.43,-589.84 6648.67,-627.91 6678.98,-661.55 6711.93,-690.19"/>
<polygon fill="black" stroke="black" points="6709.33,-692.57 6719.21,-696.38 6713.86,-687.24 6709.33,-692.57"/>
<text text-anchor="middle" x="6508.43" y="-375.54" font-family="Times,serif" font-size="14.00">RAPE/ATTEMPTED RAPE</text>
</g>
<!-- 44934&#45;&gt;44602 -->
<g id="edge44" class="edge">
<title>44934&#45;&gt;44602</title>
<path fill="none" stroke="black" d="M6347.27,-360.69C6366.39,-350.4 6386.3,-341.57 6406.43,-335.34 6493.05,-308.56 6544.09,-273.54 6610.43,-335.34 6651.91,-373.99 6602.11,-539.62 6628.43,-589.84 6648.44,-628.03 6678.65,-661.72 6711.59,-690.37"/>
<polygon fill="black" stroke="black" points="6708.98,-692.75 6718.86,-696.57 6713.51,-687.42 6708.98,-692.75"/>
<text text-anchor="middle" x="6508.43" y="-338.54" font-family="Times,serif" font-size="14.00">OTHER SEXUAL OFFENCE</text>
</g>
<!-- 44934&#45;&gt;44602 -->
<g id="edge45" class="edge">
<title>44934&#45;&gt;44602</title>
<path fill="none" stroke="black" d="M6320.79,-332.89C6346.8,-311.44 6375.69,-292.53 6406.43,-280.34 6448.57,-263.64 6577.46,-249.23 6610.43,-280.34 6635.48,-303.98 6612.63,-559.23 6628.43,-589.84 6648.2,-628.15 6678.31,-661.9 6711.22,-690.56"/>
<polygon fill="black" stroke="black" points="6708.61,-692.94 6718.49,-696.76 6713.15,-687.61 6708.61,-692.94"/>
<text text-anchor="middle" x="6508.43" y="-283.54" font-family="Times,serif" font-size="14.00">THEFT</text>
</g>
<!-- 44934&#45;&gt;44602 -->
<g id="edge46" class="edge">
<title>44934&#45;&gt;44602</title>
<path fill="none" stroke="black" d="M6316.21,-634.54C6343.43,-659.89 6373.92,-683.28 6406.43,-699.84 6488.11,-741.47 6520.55,-712.29 6610.43,-730.34 6635.26,-735.33 6661.18,-741.1 6686.81,-747.17"/>
<polygon fill="black" stroke="black" points="6685.77,-750.51 6696.31,-749.43 6687.39,-743.7 6685.77,-750.51"/>
<text text-anchor="middle" x="6508.43" y="-733.54" font-family="Times,serif" font-size="14.00">ROBBERY</text>
</g>
<!-- 44934&#45;&gt;44602 -->
<g id="edge47" class="edge">
<title>44934&#45;&gt;44602</title>
<path fill="none" stroke="black" d="M6333.78,-618.54C6356.68,-634.81 6381.2,-649.35 6406.43,-659.84 6490.52,-694.83 6522.23,-656.6 6610.43,-679.34 6640.39,-687.07 6671.25,-697.57 6701.06,-709.2"/>
<polygon fill="black" stroke="black" points="6699.56,-712.37 6710.15,-712.79 6702.14,-705.86 6699.56,-712.37"/>
<text text-anchor="middle" x="6508.43" y="-682.54" font-family="Times,serif" font-size="14.00">FIREARM OFFENCE</text>
</g>
<!-- 44934&#45;&gt;44602 -->
<g id="edge48" class="edge">
<title>44934&#45;&gt;44602</title>
<path fill="none" stroke="black" d="M6352.39,-596.21C6370.06,-605.39 6388.25,-613.54 6406.43,-619.84 6492.48,-649.68 6523.66,-611.66 6610.43,-639.34 6645.73,-650.61 6681.46,-666.75 6715.08,-684.54"/>
<polygon fill="black" stroke="black" points="6713.17,-687.49 6723.64,-689.14 6716.48,-681.32 6713.17,-687.49"/>
<text text-anchor="middle" x="6508.43" y="-642.54" font-family="Times,serif" font-size="14.00">DRUG OFFENCE</text>
</g>
<!-- 44934&#45;&gt;44602 -->
<g id="edge49" class="edge">
<title>44934&#45;&gt;44602</title>
<path fill="none" stroke="black" d="M6369.09,-568.16C6381.56,-572.57 6394.08,-576.53 6406.43,-579.84 6494.4,-603.45 6525.15,-567.36 6610.43,-599.34 6651.95,-614.91 6692.9,-638.24 6730.19,-663.59"/>
<polygon fill="black" stroke="black" points="6728.12,-666.42 6738.34,-669.21 6732.1,-660.65 6728.12,-666.42"/>
<text text-anchor="middle" x="6508.43" y="-602.54" font-family="Times,serif" font-size="14.00">VEHICLE CRIME</text>
</g>
<!-- 44934&#45;&gt;44602 -->
<g id="edge50" class="edge">
<title>44934&#45;&gt;44602</title>
<path fill="none" stroke="black" d="M6381.63,-534.95C6389.99,-536.72 6398.28,-538.36 6406.43,-539.84 6451.23,-547.99 6572,-534.9 6610.43,-559.34 6623.71,-567.79 6618.12,-577.95 6628.43,-589.84 6655.39,-620.96 6687.36,-650.91 6719.6,-678"/>
<polygon fill="black" stroke="black" points="6717.15,-680.52 6727.08,-684.23 6721.63,-675.14 6717.15,-680.52"/>
<text text-anchor="middle" x="6508.43" y="-562.54" font-family="Times,serif" font-size="14.00">PUBLIC ORDER OFFENCE</text>
</g>
<!-- 44934&#45;&gt;44602 -->
<g id="edge51" class="edge">
<title>44934&#45;&gt;44602</title>
<path fill="none" stroke="black" d="M6387.97,-498.79C6496.23,-508.26 6609.27,-518.36 6610.43,-519.34 6635.05,-540.3 6610.91,-562.66 6628.43,-589.84 6651.24,-625.25 6681.96,-657.43 6714.39,-685.43"/>
<polygon fill="black" stroke="black" points="6712.08,-688.05 6721.97,-691.85 6716.61,-682.72 6712.08,-688.05"/>
<text text-anchor="middle" x="6508.43" y="-522.54" font-family="Times,serif" font-size="14.00">OTHER</text>
</g>
<!-- 45160&#45;&gt;END_NODE -->
<g id="edge62" class="edge">
<title>45160&#45;&gt;END_NODE</title>
<path fill="none" stroke="black" d="M7105.38,-476.29C7141.61,-511.39 7176.05,-550.64 7202.5,-592.34 7226.78,-630.62 7239.96,-681.07 7246.78,-716.96"/>
<polygon fill="black" stroke="black" points="7243.29,-717.35 7248.51,-726.57 7250.18,-716.11 7243.29,-717.35"/>
<text text-anchor="middle" x="7189.75" y="-595.54" font-family="Times,serif" font-size="14.00">YES</text>
</g>
<!-- 45160&#45;&gt;END_NODE -->
<g id="edge63" class="edge">
<title>45160&#45;&gt;END_NODE</title>
<path fill="none" stroke="black" d="M7084.61,-500.54C7110.87,-529.7 7136.52,-560.32 7159,-590.84 7189.66,-632.46 7217.27,-685.16 7234.58,-720.97"/>
<polygon fill="black" stroke="black" points="7231.28,-722.18 7238.75,-729.69 7237.6,-719.16 7231.28,-722.18"/>
<text text-anchor="middle" x="7189.75" y="-661.8" font-family="Times,serif" font-size="14.00">NO</text>
</g>
<!-- 44358 -->
<g id="node14" class="node">
<title>44358</title>
<ellipse fill="#dddddd" stroke="#dddddd" cx="5235.33" cy="-315.84" rx="164.46" ry="164.46"/>
<text text-anchor="middle" x="5235.33" y="-310.79" font-family="Times,serif" font-size="14.00">Was the breach failing to return on time?</text>
</g>
<!-- 44358&#45;&gt;END_NODE -->
<g id="edge10" class="edge">
<title>44358&#45;&gt;END_NODE</title>
<path fill="none" stroke="black" d="M5350.58,-197.94C5442.08,-116.52 5578.25,-22.84 5720.46,-22.84 5720.46,-22.84 5720.46,-22.84 6894.72,-22.84 7012.48,-22.84 7073.33,38.96 7159,-41.84 7208.39,-88.42 7241.46,-566.3 7250.72,-716.75"/>
<polygon fill="black" stroke="black" points="7247.2,-716.55 7251.3,-726.32 7254.18,-716.12 7247.2,-716.55"/>
<text text-anchor="middle" x="6191.21" y="-26.04" font-family="Times,serif" font-size="14.00">YES</text>
</g>
<!-- 44358&#45;&gt;44351 -->
<g id="edge11" class="edge">
<title>44358&#45;&gt;44351</title>
<path fill="none" stroke="black" d="M5400.23,-315.84C5439.47,-315.84 5481.79,-315.84 5522.39,-315.84"/>
<polygon fill="black" stroke="black" points="5522.28,-319.34 5532.28,-315.84 5522.28,-312.34 5522.28,-319.34"/>
<text text-anchor="middle" x="5479.67" y="-319.04" font-family="Times,serif" font-size="14.00">NO</text>
</g>
<!-- 44459 -->
<g id="node15" class="node">
<title>44459</title>
<ellipse fill="#dddddd" stroke="#dddddd" cx="2098.37" cy="-583.84" rx="171.63" ry="171.63"/>
<text text-anchor="middle" x="2098.37" y="-578.79" font-family="Times,serif" font-size="14.00">Is there any media interest in this incident?</text>
</g>
<!-- 44736 -->
<g id="node16" class="node">
<title>44736</title>
<ellipse fill="#dddddd" stroke="#dddddd" cx="2531.28" cy="-583.84" rx="199.78" ry="199.78"/>
<text text-anchor="middle" x="2531.28" y="-578.79" font-family="Times,serif" font-size="14.00">Has the prison service press office been informed?</text>
</g>
<!-- 44459&#45;&gt;44736 -->
<g id="edge12" class="edge">
<title>44459&#45;&gt;44736</title>
<path fill="none" stroke="black" d="M2270.3,-583.84C2286.52,-583.84 2303.1,-583.84 2319.65,-583.84"/>
<polygon fill="black" stroke="black" points="2319.57,-587.34 2329.57,-583.84 2319.57,-580.34 2319.57,-587.34"/>
<text text-anchor="middle" x="2300.75" y="-587.04" font-family="Times,serif" font-size="14.00">YES</text>
</g>
<!-- 44459&#45;&gt;44736 -->
<g id="edge13" class="edge">
<title>44459&#45;&gt;44736</title>
<path fill="none" stroke="black" d="M2269.22,-564.52C2275.56,-564.07 2281.83,-563.68 2288,-563.34 2298.83,-562.76 2309.92,-562.49 2321.12,-562.5"/>
<polygon fill="black" stroke="black" points="2320.8,-565.99 2330.83,-562.57 2320.86,-558.99 2320.8,-565.99"/>
<text text-anchor="middle" x="2300.75" y="-566.54" font-family="Times,serif" font-size="14.00">NO</text>
</g>
<!-- 44942 -->
<g id="node17" class="node">
<title>44942</title>
<ellipse fill="#dddddd" stroke="#dddddd" cx="2938.08" cy="-583.84" rx="145.52" ry="145.52"/>
<text text-anchor="middle" x="2938.08" y="-578.79" font-family="Times,serif" font-size="14.00">What type of licence was breached?</text>
</g>
<!-- 44736&#45;&gt;44942 -->
<g id="edge28" class="edge">
<title>44736&#45;&gt;44942</title>
<path fill="none" stroke="black" d="M2731.41,-583.84C2748.05,-583.84 2764.72,-583.84 2780.96,-583.84"/>
<polygon fill="black" stroke="black" points="2780.62,-587.34 2790.62,-583.84 2780.62,-580.34 2780.62,-587.34"/>
<text text-anchor="middle" x="2761.8" y="-587.04" font-family="Times,serif" font-size="14.00">YES</text>
</g>
<!-- 44736&#45;&gt;44942 -->
<g id="edge29" class="edge">
<title>44736&#45;&gt;44942</title>
<path fill="none" stroke="black" d="M2730.22,-562.31C2745.22,-562.14 2760.12,-562.44 2774.55,-563.34 2777.09,-563.5 2779.65,-563.68 2782.22,-563.86"/>
<polygon fill="black" stroke="black" points="2781.85,-567.34 2792.09,-564.64 2782.39,-560.36 2781.85,-567.34"/>
<text text-anchor="middle" x="2761.8" y="-566.54" font-family="Times,serif" font-size="14.00">NO</text>
</g>
<!-- 45081 -->
<g id="node21" class="node">
<title>45081</title>
<ellipse fill="#dddddd" stroke="#dddddd" cx="3476.39" cy="-583.84" rx="233.04" ry="233.04"/>
<text text-anchor="middle" x="3476.39" y="-578.79" font-family="Times,serif" font-size="14.00">Was the breach failing to return reported to police as UAL?</text>
</g>
<!-- 44942&#45;&gt;45081 -->
<g id="edge52" class="edge">
<title>44942&#45;&gt;45081</title>
<path fill="none" stroke="black" d="M3079.67,-618.8C3087.06,-619.98 3094.4,-621.01 3101.6,-621.84 3144.76,-626.82 3190.76,-626.64 3235.21,-623.64"/>
<polygon fill="black" stroke="black" points="3235.25,-627.15 3244.97,-622.93 3234.74,-620.17 3235.25,-627.15"/>
<text text-anchor="middle" x="3163.48" y="-628.96" font-family="Times,serif" font-size="14.00">COMPASSIONATE</text>
</g>
<!-- 44942&#45;&gt;45081 -->
<g id="edge53" class="edge">
<title>44942&#45;&gt;45081</title>
<path fill="none" stroke="black" d="M3083.86,-583.84C3129.43,-583.84 3181.08,-583.84 3231.57,-583.84"/>
<polygon fill="black" stroke="black" points="3231.49,-587.34 3241.49,-583.84 3231.49,-580.34 3231.49,-587.34"/>
<text text-anchor="middle" x="3163.48" y="-587.04" font-family="Times,serif" font-size="14.00">FACILITY</text>
</g>
<!-- 44942&#45;&gt;45081 -->
<g id="edge54" class="edge">
<title>44942&#45;&gt;45081</title>
<path fill="none" stroke="black" d="M3082.55,-564.75C3088.98,-564.21 3095.36,-563.74 3101.6,-563.34 3143.97,-560.68 3189.05,-560.71 3232.7,-562.24"/>
<polygon fill="black" stroke="black" points="3232.42,-565.73 3242.55,-562.61 3232.69,-558.73 3232.42,-565.73"/>
<text text-anchor="middle" x="3163.48" y="-566.54" font-family="Times,serif" font-size="14.00">RESETTLEMENT</text>
</g>
<!-- 44942&#45;&gt;45081 -->
<g id="edge55" class="edge">
<title>44942&#45;&gt;45081</title>
<path fill="none" stroke="black" d="M3078.23,-544.08C3086.1,-542.62 3093.93,-541.35 3101.6,-540.34 3145.04,-534.63 3191.38,-534.9 3236.11,-538.4"/>
<polygon fill="black" stroke="black" points="3235.67,-541.88 3245.93,-539.23 3236.26,-534.9 3235.67,-541.88"/>
<text text-anchor="middle" x="3163.48" y="-543.54" font-family="Times,serif" font-size="14.00">COMMUNITY VISIT</text>
</g>
<!-- 44826 -->
<g id="node18" class="node">
<title>44826</title>
<ellipse fill="#dddddd" stroke="#dddddd" cx="3894.45" cy="-1057.84" rx="123.52" ry="123.52"/>
<text text-anchor="middle" x="3894.45" y="-1052.79" font-family="Times,serif" font-size="14.00">Has prisoner been recaptured?</text>
</g>
<!-- 44826&#45;&gt;END_NODE -->
<g id="edge33" class="edge">
<title>44826&#45;&gt;END_NODE</title>
<path fill="none" stroke="black" d="M3964.37,-1160.21C4022.13,-1232.6 4111.8,-1316.84 4216.32,-1316.84 4216.32,-1316.84 4216.32,-1316.84 6894.72,-1316.84 7012.66,-1316.84 7072.12,-1372.61 7159,-1292.84 7230.02,-1227.64 7247.84,-923.74 7252.09,-807.36"/>
<polygon fill="black" stroke="black" points="7255.58,-807.67 7252.43,-797.56 7248.59,-807.43 7255.58,-807.67"/>
<text text-anchor="middle" x="5479.67" y="-1320.04" font-family="Times,serif" font-size="14.00">NO</text>
</g>
<!-- 44997 -->
<g id="node19" class="node">
<title>44997</title>
<ellipse fill="#dddddd" stroke="#dddddd" cx="4217.32" cy="-1057.84" rx="137.85" ry="137.85"/>
<text text-anchor="middle" x="4217.32" y="-1052.79" font-family="Times,serif" font-size="14.00">How was the prisoner recaptured?</text>
</g>
<!-- 44826&#45;&gt;44997 -->
<g id="edge32" class="edge">
<title>44826&#45;&gt;44997</title>
<path fill="none" stroke="black" d="M4018.13,-1057.84C4034.3,-1057.84 4051.02,-1057.84 4067.56,-1057.84"/>
<polygon fill="black" stroke="black" points="4067.47,-1061.34 4077.47,-1057.84 4067.47,-1054.34 4067.47,-1061.34"/>
<text text-anchor="middle" x="4048.72" y="-1061.04" font-family="Times,serif" font-size="14.00">YES</text>
</g>
<!-- 44997&#45;&gt;44259 -->
<g id="edge56" class="edge">
<title>44997&#45;&gt;44259</title>
<path fill="none" stroke="black" d="M4350.97,-1092.58C4358.45,-1093.86 4365.88,-1094.96 4373.16,-1095.84 4423.86,-1101.97 4478.49,-1100.84 4529.95,-1096.29"/>
<polygon fill="black" stroke="black" points="4530.08,-1099.8 4539.71,-1095.38 4529.43,-1092.83 4530.08,-1099.8"/>
<text text-anchor="middle" x="4446.66" y="-1103.26" font-family="Times,serif" font-size="14.00">POLICE ARREST</text>
</g>
<!-- 44997&#45;&gt;44259 -->
<g id="edge57" class="edge">
<title>44997&#45;&gt;44259</title>
<path fill="none" stroke="black" d="M4355.46,-1057.84C4407.68,-1057.84 4468.6,-1057.84 4526.66,-1057.84"/>
<polygon fill="black" stroke="black" points="4526.34,-1061.34 4536.34,-1057.84 4526.34,-1054.34 4526.34,-1061.34"/>
<text text-anchor="middle" x="4446.66" y="-1061.04" font-family="Times,serif" font-size="14.00">PRISON STAFF ARREST</text>
</g>
<!-- 44997&#45;&gt;44259 -->
<g id="edge58" class="edge">
<title>44997&#45;&gt;44259</title>
<path fill="none" stroke="black" d="M4354.17,-1038.83C4360.58,-1038.26 4366.94,-1037.75 4373.16,-1037.34 4423.07,-1034.05 4476.73,-1034.58 4527.43,-1036.92"/>
<polygon fill="black" stroke="black" points="4527.21,-1040.41 4537.36,-1037.41 4527.55,-1033.42 4527.21,-1040.41"/>
<text text-anchor="middle" x="4446.66" y="-1040.54" font-family="Times,serif" font-size="14.00">SURRENDER</text>
</g>
<!-- 44997&#45;&gt;44259 -->
<g id="edge59" class="edge">
<title>44997&#45;&gt;44259</title>
<path fill="none" stroke="black" d="M4349.58,-1018.33C4357.51,-1016.76 4365.42,-1015.41 4373.16,-1014.34 4424.13,-1007.32 4479.1,-1008.69 4530.83,-1013.97"/>
<polygon fill="black" stroke="black" points="4530.33,-1017.44 4540.65,-1015.04 4531.08,-1010.48 4530.33,-1017.44"/>
<text text-anchor="middle" x="4446.66" y="-1017.54" font-family="Times,serif" font-size="14.00">OTHER</text>
</g>
<!-- 44926&#45;&gt;44459 -->
<g id="edge38" class="edge">
<title>44926&#45;&gt;44459</title>
<path fill="none" stroke="black" d="M1865.69,-583.84C1882.2,-583.84 1898.82,-583.84 1915.18,-583.84"/>
<polygon fill="black" stroke="black" points="1914.94,-587.34 1924.94,-583.84 1914.94,-580.34 1914.94,-587.34"/>
<text text-anchor="middle" x="1896" y="-587.04" font-family="Times,serif" font-size="14.00">YES</text>
</g>
<!-- 44926&#45;&gt;44459 -->
<g id="edge39" class="edge">
<title>44926&#45;&gt;44459</title>
<path fill="none" stroke="black" d="M1864.36,-562.57C1879.37,-562.35 1894.3,-562.56 1908.75,-563.34 1911.25,-563.48 1913.78,-563.62 1916.31,-563.78"/>
<polygon fill="black" stroke="black" points="1915.81,-567.25 1926.02,-564.42 1916.27,-560.27 1915.81,-567.25"/>
<text text-anchor="middle" x="1896" y="-566.54" font-family="Times,serif" font-size="14.00">NO</text>
</g>
<!-- 45081&#45;&gt;44358 -->
<g id="edge61" class="edge">
<title>45081&#45;&gt;44358</title>
<path fill="none" stroke="black" d="M3709.5,-571.76C3769.41,-569.51 3833.82,-567.84 3893.45,-567.84 3893.45,-567.84 3893.45,-567.84 4750.2,-567.84 4879.5,-567.84 5008.51,-496.24 5100.8,-429.38"/>
<polygon fill="black" stroke="black" points="5102.68,-432.34 5108.68,-423.61 5098.54,-426.69 5102.68,-432.34"/>
<text text-anchor="middle" x="4217.32" y="-571.04" font-family="Times,serif" font-size="14.00">NO</text>
</g>
<!-- 45081&#45;&gt;44826 -->
<g id="edge60" class="edge">
<title>45081&#45;&gt;44826</title>
<path fill="none" stroke="black" d="M3630.84,-758.66C3689.45,-825.43 3754.27,-899.28 3804.85,-956.9"/>
<polygon fill="black" stroke="black" points="3801.98,-958.94 3811.21,-964.15 3807.24,-954.32 3801.98,-958.94"/>
<text text-anchor="middle" x="3740.19" y="-894.2" font-family="Times,serif" font-size="14.00">YES</text>
</g>
</g>
</svg>
