<?xml version="1.0" encoding="UTF-8" standalone="no"?>
<!DOCTYPE svg PUBLIC "-//W3C//DTD SVG 1.1//EN"
 "http://www.w3.org/Graphics/SVG/1.1/DTD/svg11.dtd">
<!-- Generated by graphviz version 12.1.1 (20240910.0053)
 -->
<!-- Title: OLD_ASSAULT1 Pages: 1 -->
<svg width="1599pt" height="10973pt"
 viewBox="0.00 0.00 1599.18 10972.81" xmlns="http://www.w3.org/2000/svg" xmlns:xlink="http://www.w3.org/1999/xlink">
<g id="graph0" class="graph" transform="scale(1 1) rotate(0) translate(4 10968.81)">
<title>OLD_ASSAULT1</title>
<polygon fill="white" stroke="none" points="-4,4 -4,-10968.81 1595.18,-10968.81 1595.18,4 -4,4"/>
<!-- START_NODE -->
<g id="node1" class="node">
<title>START_NODE</title>
</g>
<!-- 61179 -->
<g id="node2" class="node">
<title>61179</title>
<ellipse fill="#dddddd" stroke="#dddddd" cx="344.76" cy="-10733.3" rx="231.51" ry="231.51"/>
<text text-anchor="middle" x="344.76" y="-10728.25" font-family="Times,serif" font-size="14.00">What was the main management outcome of this incident?</text>
</g>
<!-- START_NODE&#45;&gt;61179 -->
<g id="edge1" class="edge">
<title>START_NODE&#45;&gt;61179</title>
<path fill="none" stroke="black" d="M53.84,-10733.3C66.46,-10733.3 82.98,-10733.3 101.73,-10733.3"/>
<polygon fill="black" stroke="black" points="101.5,-10736.8 111.5,-10733.3 101.5,-10729.8 101.5,-10736.8"/>
<text text-anchor="middle" x="83.62" y="-10736.5" font-family="Times,serif" font-size="14.00">start</text>
</g>
<!-- 61180 -->
<g id="node4" class="node">
<title>61180</title>
<ellipse fill="#dddddd" stroke="#dddddd" cx="1143.24" cy="-10733.3" rx="202.85" ry="202.85"/>
<text text-anchor="middle" x="1143.24" y="-10728.25" font-family="Times,serif" font-size="14.00">Is any member of staff facing disciplinary charges?</text>
</g>
<!-- 61179&#45;&gt;61180 -->
<g id="edge2" class="edge">
<title>61179&#45;&gt;61180</title>
<path fill="none" stroke="#dddddd" d="M573.78,-10769.54C580.68,-10770.2 587.52,-10770.79 594.27,-10771.3 705.28,-10779.74 829.01,-10772.58 930.76,-10762.29"/>
<polygon fill="#dddddd" stroke="#dddddd" points="931.02,-10765.79 940.61,-10761.28 930.3,-10758.82 931.02,-10765.79"/>
<text text-anchor="middle" x="695.89" y="-10778.23" font-family="Times,serif" font-size="14.00">No further action</text>
</g>
<!-- 61179&#45;&gt;61180 -->
<g id="edge3" class="edge">
<title>61179&#45;&gt;61180</title>
<path fill="none" stroke="#dddddd" d="M576.67,-10733.3C687.7,-10733.3 819.94,-10733.3 928.62,-10733.3"/>
<polygon fill="#dddddd" stroke="#dddddd" points="928.55,-10736.8 938.55,-10733.3 928.55,-10729.8 928.55,-10736.8"/>
<text text-anchor="middle" x="695.89" y="-10736.5" font-family="Times,serif" font-size="14.00">IEP regression</text>
</g>
<!-- 61179&#45;&gt;61180 -->
<g id="edge4" class="edge">
<title>61179&#45;&gt;61180</title>
<path fill="none" stroke="#dddddd" d="M575.88,-10713.65C582.07,-10713.34 588.21,-10713.05 594.27,-10712.8 704.74,-10708.25 827.77,-10712.05 929.22,-10717.56"/>
<polygon fill="#dddddd" stroke="#dddddd" points="928.85,-10721.05 939.02,-10718.1 929.23,-10714.06 928.85,-10721.05"/>
<text text-anchor="middle" x="695.89" y="-10716" font-family="Times,serif" font-size="14.00">Placed on report/adjudication referral</text>
</g>
<!-- 61179&#45;&gt;61180 -->
<g id="edge5" class="edge">
<title>61179&#45;&gt;61180</title>
<path fill="none" stroke="#dddddd" d="M572.73,-10691.93C579.98,-10691.13 587.17,-10690.42 594.27,-10689.8 705.38,-10680.15 829.25,-10688.38 931.07,-10700.17"/>
<polygon fill="#dddddd" stroke="#dddddd" points="930.58,-10703.64 940.92,-10701.33 931.4,-10696.69 930.58,-10703.64"/>
<text text-anchor="middle" x="695.89" y="-10693" font-family="Times,serif" font-size="14.00">Police referral</text>
</g>
<!-- END_NODE -->
<g id="node3" class="node">
<title>END_NODE</title>
<ellipse fill="none" stroke="black" cx="1557.33" cy="-5739.3" rx="29.86" ry="29.86"/>
<ellipse fill="none" stroke="black" cx="1557.33" cy="-5739.3" rx="33.86" ry="33.86"/>
<text text-anchor="middle" x="1557.33" y="-5734.25" font-family="Times,serif" font-size="14.00">END</text>
</g>
<!-- 61180&#45;&gt;END_NODE -->
<g id="edge6" class="edge">
<title>61180&#45;&gt;END_NODE</title>
<path fill="none" stroke="#dddddd" d="M1329.98,-10653.03C1384.2,-10620.39 1437.76,-10577.18 1470.97,-10522.3 1558.31,-10377.97 1496.82,-10312.78 1505.47,-10144.3 1552.25,-9232.91 1556.01,-6192.71 1556.3,-5784.72"/>
<polygon fill="#dddddd" stroke="#dddddd" points="1559.8,-5784.94 1556.31,-5774.94 1552.8,-5784.93 1559.8,-5784.94"/>
<text text-anchor="middle" x="1497.22" y="-10492.29" font-family="Times,serif" font-size="14.00">No</text>
</g>
<!-- 61181 -->
<g id="node5" class="node">
<title>61181</title>
<ellipse fill="#dddddd" stroke="#dddddd" cx="1143.24" cy="-10341.3" rx="171.63" ry="171.63"/>
<text text-anchor="middle" x="1143.24" y="-10336.25" font-family="Times,serif" font-size="14.00">Is there any media interest in this incident?</text>
</g>
<!-- 61181&#45;&gt;END_NODE -->
<g id="edge7" class="edge">
<title>61181&#45;&gt;END_NODE</title>
<path fill="none" stroke="#dddddd" d="M1307.11,-10289.49C1368.65,-10261.47 1432.94,-10220.2 1470.97,-10161.3 1575.7,-9999.12 1496.57,-9921.15 1505.47,-9728.3 1543.43,-8905.95 1554.74,-6171.1 1556.17,-5784.82"/>
<polygon fill="#dddddd" stroke="#dddddd" points="1559.67,-5785.1 1556.2,-5775.08 1552.67,-5785.07 1559.67,-5785.1"/>
<text text-anchor="middle" x="1497.22" y="-10127.1" font-family="Times,serif" font-size="14.00">N</text>
</g>
<!-- 61182 -->
<g id="node6" class="node">
<title>61182</title>
<ellipse fill="#dddddd" stroke="#dddddd" cx="1143.24" cy="-9952.3" rx="199.78" ry="199.78"/>
<text text-anchor="middle" x="1143.24" y="-9947.25" font-family="Times,serif" font-size="14.00">Has the prison service press office been informed?</text>
</g>
<!-- 61182&#45;&gt;END_NODE -->
<g id="edge8" class="edge">
<title>61182&#45;&gt;END_NODE</title>
<path fill="none" stroke="#dddddd" d="M1327.42,-9874.74C1382.35,-9842.44 1436.97,-9799.37 1470.97,-9744.3 1549.83,-9616.57 1496.76,-9558.17 1505.47,-9408.3 1549.28,-8654.92 1555.56,-6153.38 1556.25,-5784.82"/>
<polygon fill="#dddddd" stroke="#dddddd" points="1559.75,-5785.09 1556.27,-5775.09 1552.75,-5785.08 1559.75,-5785.09"/>
<text text-anchor="middle" x="1497.22" y="-9711.1" font-family="Times,serif" font-size="14.00">N</text>
</g>
<!-- 61183 -->
<g id="node7" class="node">
<title>61183</title>
<ellipse fill="#dddddd" stroke="#dddddd" cx="1143.24" cy="-9583.3" rx="151.67" ry="151.67"/>
<text text-anchor="middle" x="1143.24" y="-9578.25" font-family="Times,serif" font-size="14.00">Is the location of the incident known?</text>
</g>
<!-- 61183&#45;&gt;END_NODE -->
<g id="edge9" class="edge">
<title>61183&#45;&gt;END_NODE</title>
<path fill="none" stroke="black" d="M1290.81,-9546.78C1356.52,-9522.72 1428.62,-9484.05 1470.97,-9423.3 1556.83,-9300.16 1496.66,-9237.16 1505.47,-9087.3 1545.75,-8402.5 1554.99,-6134.8 1556.18,-5784.83"/>
<polygon fill="black" stroke="black" points="1559.68,-5784.95 1556.22,-5774.94 1552.68,-5784.92 1559.68,-5784.95"/>
<text text-anchor="middle" x="1497.22" y="-9391.22" font-family="Times,serif" font-size="14.00">N</text>
</g>
<!-- 61184 -->
<g id="node8" class="node">
<title>61184</title>
<ellipse fill="#dddddd" stroke="#dddddd" cx="1143.24" cy="-9259.3" rx="154.74" ry="154.74"/>
<text text-anchor="middle" x="1143.24" y="-9254.25" font-family="Times,serif" font-size="14.00">What was the location of the incident?</text>
</g>
<!-- 61184&#45;&gt;END_NODE -->
<g id="edge10" class="edge">
<title>61184&#45;&gt;END_NODE</title>
<path fill="none" stroke="#dddddd" d="M1293.13,-9219.37C1357.7,-9194.46 1428.18,-9155.52 1470.97,-9096.3 1533.83,-9009.31 1496.91,-8964.28 1505.47,-8857.3 1556.26,-8222.45 1556.65,-6120.9 1556.38,-5784.81"/>
<polygon fill="#dddddd" stroke="#dddddd" points="1559.88,-5784.9 1556.37,-5774.9 1552.88,-5784.9 1559.88,-5784.9"/>
<text text-anchor="middle" x="1497.22" y="-9069.82" font-family="Times,serif" font-size="14.00">N</text>
</g>
<!-- 61185 -->
<g id="node9" class="node">
<title>61185</title>
<ellipse fill="#dddddd" stroke="#dddddd" cx="1143.24" cy="-8979.3" rx="107.65" ry="107.65"/>
<text text-anchor="middle" x="1143.24" y="-8974.25" font-family="Times,serif" font-size="14.00">Was this a sexual assault?</text>
</g>
<!-- 61185&#45;&gt;END_NODE -->
<g id="edge11" class="edge">
<title>61185&#45;&gt;END_NODE</title>
<path fill="none" stroke="#dddddd" d="M1250.98,-8970.45C1324.62,-8958.35 1418.4,-8929.93 1470.97,-8863.3 1560.4,-8749.96 1496.49,-8684.4 1505.47,-8540.3 1540.91,-7972.08 1554.06,-6100.59 1556.05,-5784.76"/>
<polygon fill="#dddddd" stroke="#dddddd" points="1559.55,-5784.89 1556.11,-5774.87 1552.55,-5784.84 1559.55,-5784.89"/>
<text text-anchor="middle" x="1497.22" y="-8840.15" font-family="Times,serif" font-size="14.00">N</text>
</g>
<!-- 61186 -->
<g id="node10" class="node">
<title>61186</title>
<ellipse fill="#dddddd" stroke="#dddddd" cx="1143.24" cy="-8707.3" rx="146.55" ry="146.55"/>
<text text-anchor="middle" x="1143.24" y="-8702.25" font-family="Times,serif" font-size="14.00">Did the assault occur during a fight?</text>
</g>
<!-- 61186&#45;&gt;END_NODE -->
<g id="edge12" class="edge">
<title>61186&#45;&gt;END_NODE</title>
<path fill="none" stroke="#dddddd" d="M1286.14,-8673.34C1352.62,-8650.05 1426.75,-8612.03 1470.97,-8551.3 1538.81,-8458.14 1496.64,-8409.21 1505.47,-8294.3 1545.09,-7778.65 1554.72,-6083.21 1556.13,-5784.47"/>
<polygon fill="#dddddd" stroke="#dddddd" points="1559.63,-5784.78 1556.18,-5774.76 1552.63,-5784.75 1559.63,-5784.78"/>
<text text-anchor="middle" x="1497.22" y="-8522.68" font-family="Times,serif" font-size="14.00">N</text>
</g>
<!-- 61187 -->
<g id="node11" class="node">
<title>61187</title>
<ellipse fill="#dddddd" stroke="#dddddd" cx="1143.24" cy="-8426.3" rx="116.35" ry="116.35"/>
<text text-anchor="middle" x="1143.24" y="-8421.25" font-family="Times,serif" font-size="14.00">What type of assault was it?</text>
</g>
<!-- 61187&#45;&gt;END_NODE -->
<g id="edge13" class="edge">
<title>61187&#45;&gt;END_NODE</title>
<path fill="none" stroke="#dddddd" d="M1259.08,-8412.39C1331.26,-8397.36 1420.05,-8366.14 1470.97,-8301.3 1546.24,-8205.47 1496.44,-8150.83 1505.47,-8029.3 1539.61,-7569.93 1553.61,-6066.55 1555.96,-5784.97"/>
<polygon fill="#dddddd" stroke="#dddddd" points="1559.46,-5785.14 1556.04,-5775.11 1552.46,-5785.08 1559.46,-5785.14"/>
<text text-anchor="middle" x="1497.22" y="-8276.88" font-family="Times,serif" font-size="14.00">N</text>
</g>
<!-- 61188 -->
<g id="node12" class="node">
<title>61188</title>
<ellipse fill="#dddddd" stroke="#dddddd" cx="1143.24" cy="-8186.3" rx="106.11" ry="106.11"/>
<text text-anchor="middle" x="1143.24" y="-8181.25" font-family="Times,serif" font-size="14.00">Were any staff assaulted?</text>
</g>
<!-- 61188&#45;&gt;END_NODE -->
<g id="edge14" class="edge">
<title>61188&#45;&gt;END_NODE</title>
<path fill="none" stroke="#dddddd" d="M1249.14,-8177.84C1322.88,-8166.03 1417.57,-8137.94 1470.97,-8071.3 1545.15,-7978.74 1555.04,-6103.19 1556.19,-5784.99"/>
<polygon fill="#dddddd" stroke="#dddddd" points="1559.69,-5785.02 1556.22,-5775.01 1552.69,-5784.99 1559.69,-5785.02"/>
<text text-anchor="middle" x="1497.22" y="-8011.57" font-family="Times,serif" font-size="14.00">N</text>
</g>
<!-- 61189 -->
<g id="node13" class="node">
<title>61189</title>
<ellipse fill="#dddddd" stroke="#dddddd" cx="1143.24" cy="-7957.3" rx="105.09" ry="105.09"/>
<text text-anchor="middle" x="1143.24" y="-7952.25" font-family="Times,serif" font-size="14.00">Describe the type of staff</text>
</g>
<!-- 61189&#45;&gt;END_NODE -->
<g id="edge15" class="edge">
<title>61189&#45;&gt;END_NODE</title>
<path fill="none" stroke="#dddddd" d="M1248.47,-7949.77C1322.62,-7938.51 1418.13,-7910.85 1470.97,-7843.3 1536.62,-7759.4 1553.49,-6083.37 1555.98,-5784.65"/>
<polygon fill="#dddddd" stroke="#dddddd" points="1559.47,-5784.96 1556.06,-5774.93 1552.47,-5784.91 1559.47,-5784.96"/>
<text text-anchor="middle" x="1497.22" y="-7765.2" font-family="Times,serif" font-size="14.00">N</text>
</g>
<!-- 61190 -->
<g id="node14" class="node">
<title>61190</title>
<ellipse fill="#dddddd" stroke="#dddddd" cx="1143.24" cy="-7695.3" rx="138.87" ry="138.87"/>
<text text-anchor="middle" x="1143.24" y="-7690.25" font-family="Times,serif" font-size="14.00">Was spitting used in this incident?</text>
</g>
<!-- 61190&#45;&gt;END_NODE -->
<g id="edge16" class="edge">
<title>61190&#45;&gt;END_NODE</title>
<path fill="none" stroke="#dddddd" d="M1279.84,-7669.05C1348.96,-7648.21 1427.43,-7611.45 1470.97,-7547.3 1521.97,-7472.17 1550.47,-6058.22 1555.51,-5784.85"/>
<polygon fill="#dddddd" stroke="#dddddd" points="1559.01,-5784.99 1555.7,-5774.93 1552.01,-5784.87 1559.01,-5784.99"/>
<text text-anchor="middle" x="1497.22" y="-7455.45" font-family="Times,serif" font-size="14.00">N</text>
</g>
<!-- 61191 -->
<g id="node15" class="node">
<title>61191</title>
<ellipse fill="#dddddd" stroke="#dddddd" cx="1143.24" cy="-7210.3" rx="327.73" ry="327.73"/>
<text text-anchor="middle" x="1143.24" y="-7205.25" font-family="Times,serif" font-size="14.00">Is the assailant known to have an infectious disease that can be transmitted in saliva?</text>
</g>
<!-- 61191&#45;&gt;END_NODE -->
<g id="edge17" class="edge">
<title>61191&#45;&gt;END_NODE</title>
<path fill="none" stroke="#dddddd" d="M1391.88,-6996.66C1423.27,-6958.69 1451.26,-6917.15 1470.97,-6873.3 1516.19,-6772.72 1547.5,-5983.87 1554.73,-5784.8"/>
<polygon fill="#dddddd" stroke="#dddddd" points="1558.23,-5784.98 1555.09,-5774.86 1551.23,-5784.73 1558.23,-5784.98"/>
<text text-anchor="middle" x="1497.22" y="-6780.25" font-family="Times,serif" font-size="14.00">N</text>
</g>
<!-- 61192 -->
<g id="node16" class="node">
<title>61192</title>
<ellipse fill="#dddddd" stroke="#dddddd" cx="1143.24" cy="-6647.3" rx="217.18" ry="217.18"/>
<text text-anchor="middle" x="1143.24" y="-6642.25" font-family="Times,serif" font-size="14.00">Did the saliva hit the body or clothing of the victim(s)?</text>
</g>
<!-- 61192&#45;&gt;END_NODE -->
<g id="edge18" class="edge">
<title>61192&#45;&gt;END_NODE</title>
<path fill="none" stroke="#dddddd" d="M1337.22,-6549.35C1387.8,-6515 1437.49,-6471.86 1470.97,-6420.3 1539.48,-6314.81 1553.04,-5920.13 1555.69,-5785.01"/>
<polygon fill="#dddddd" stroke="#dddddd" points="1559.19,-5785.08 1555.88,-5775.02 1552.19,-5784.95 1559.19,-5785.08"/>
<text text-anchor="middle" x="1497.22" y="-6385.14" font-family="Times,serif" font-size="14.00">N</text>
</g>
<!-- 61193 -->
<g id="node17" class="node">
<title>61193</title>
<ellipse fill="#dddddd" stroke="#dddddd" cx="1143.24" cy="-6337.3" rx="74.38" ry="74.38"/>
<text text-anchor="middle" x="1143.24" y="-6332.25" font-family="Times,serif" font-size="14.00">Where did it hit?</text>
</g>
<!-- 61193&#45;&gt;END_NODE -->
<g id="edge19" class="edge">
<title>61193&#45;&gt;END_NODE</title>
<path fill="none" stroke="#dddddd" d="M1217.75,-6340.19C1292.67,-6338.86 1406.72,-6324.23 1470.97,-6254.3 1533.75,-6185.98 1550.71,-5897.5 1554.98,-5784.74"/>
<polygon fill="#dddddd" stroke="#dddddd" points="1558.47,-5785.08 1555.33,-5774.96 1551.48,-5784.83 1558.47,-5785.08"/>
<text text-anchor="middle" x="1497.22" y="-6222.33" font-family="Times,serif" font-size="14.00">N</text>
</g>
<!-- 61194 -->
<g id="node18" class="node">
<title>61194</title>
<ellipse fill="#dddddd" stroke="#dddddd" cx="1143.24" cy="-6140.3" rx="105.09" ry="105.09"/>
<text text-anchor="middle" x="1143.24" y="-6135.25" font-family="Times,serif" font-size="14.00">Were any weapons used?</text>
</g>
<!-- 61194&#45;&gt;END_NODE -->
<g id="edge20" class="edge">
<title>61194&#45;&gt;END_NODE</title>
<path fill="none" stroke="#dddddd" d="M1248.16,-6128.91C1319.97,-6115.74 1412.69,-6087.36 1470.97,-6026.3 1534.7,-5959.53 1551.09,-5847.32 1555.15,-5784.82"/>
<polygon fill="#dddddd" stroke="#dddddd" points="1558.64,-5785.08 1555.7,-5774.9 1551.65,-5784.68 1558.64,-5785.08"/>
<text text-anchor="middle" x="1497.22" y="-6004.73" font-family="Times,serif" font-size="14.00">N</text>
</g>
<!-- 61195 -->
<g id="node19" class="node">
<title>61195</title>
<ellipse fill="#dddddd" stroke="#dddddd" cx="1143.24" cy="-5901.3" rx="115.84" ry="115.84"/>
<text text-anchor="middle" x="1143.24" y="-5896.25" font-family="Times,serif" font-size="14.00">Describe the weapons used?</text>
</g>
<!-- 61195&#45;&gt;END_NODE -->
<g id="edge21" class="edge">
<title>61195&#45;&gt;END_NODE</title>
<path fill="none" stroke="#dddddd" d="M1252.64,-5861.9C1316.53,-5838.25 1398.75,-5807.06 1470.97,-5777.3 1485.67,-5771.25 1501.63,-5764.26 1515.72,-5757.94"/>
<polygon fill="#dddddd" stroke="#dddddd" points="1517.03,-5761.19 1524.71,-5753.88 1514.15,-5754.81 1517.03,-5761.19"/>
<text text-anchor="middle" x="1497.22" y="-5772.54" font-family="Times,serif" font-size="14.00">N</text>
</g>
<!-- 61196 -->
<g id="node20" class="node">
<title>61196</title>
<ellipse fill="#dddddd" stroke="#dddddd" cx="1143.24" cy="-5578.3" rx="189.54" ry="189.54"/>
<text text-anchor="middle" x="1143.24" y="-5573.25" font-family="Times,serif" font-size="14.00">Were any injuries received during this incident?</text>
</g>
<!-- 61196&#45;&gt;END_NODE -->
<g id="edge22" class="edge">
<title>61196&#45;&gt;END_NODE</title>
<path fill="none" stroke="#dddddd" d="M1320.2,-5647.05C1391.94,-5675.08 1468.66,-5705.05 1514.54,-5722.98"/>
<polygon fill="#dddddd" stroke="#dddddd" points="1513.24,-5726.23 1523.83,-5726.61 1515.79,-5719.71 1513.24,-5726.23"/>
<text text-anchor="middle" x="1497.22" y="-5722.55" font-family="Times,serif" font-size="14.00">N</text>
</g>
<!-- 61197 -->
<g id="node21" class="node">
<title>61197</title>
<ellipse fill="#dddddd" stroke="#dddddd" cx="1143.24" cy="-5220.3" rx="150.13" ry="150.13"/>
<text text-anchor="middle" x="1143.24" y="-5215.25" font-family="Times,serif" font-size="14.00">Enter description of person(s) injured</text>
</g>
<!-- 61197&#45;&gt;END_NODE -->
<g id="edge23" class="edge">
<title>61197&#45;&gt;END_NODE</title>
<path fill="none" stroke="#dddddd" d="M1288.64,-5259.39C1353.23,-5283.86 1425.03,-5321.94 1470.97,-5379.3 1509.85,-5427.84 1538.75,-5608.93 1550.52,-5694.27"/>
<polygon fill="#dddddd" stroke="#dddddd" points="1547.05,-5694.71 1551.86,-5704.15 1553.99,-5693.77 1547.05,-5694.71"/>
<text text-anchor="middle" x="1497.22" y="-5461.44" font-family="Times,serif" font-size="14.00">N</text>
</g>
<!-- 61198 -->
<g id="node22" class="node">
<title>61198</title>
<ellipse fill="#dddddd" stroke="#dddddd" cx="1143.24" cy="-4924.3" rx="128.12" ry="128.12"/>
<text text-anchor="middle" x="1143.24" y="-4919.25" font-family="Times,serif" font-size="14.00">Was a serious injury sustained?</text>
</g>
<!-- 61198&#45;&gt;END_NODE -->
<g id="edge24" class="edge">
<title>61198&#45;&gt;END_NODE</title>
<path fill="none" stroke="#dddddd" d="M1269.86,-4945.24C1340.08,-4963.69 1422.89,-4997.99 1470.97,-5061.3 1546.88,-5161.26 1555.62,-5559.13 1556.36,-5694.18"/>
<polygon fill="#dddddd" stroke="#dddddd" points="1552.86,-5693.81 1556.41,-5703.79 1559.86,-5693.78 1552.86,-5693.81"/>
<text text-anchor="middle" x="1497.22" y="-5138.22" font-family="Times,serif" font-size="14.00">N</text>
</g>
<!-- 61200 -->
<g id="node23" class="node">
<title>61200</title>
<ellipse fill="#dddddd" stroke="#dddddd" cx="1143.24" cy="-4622.3" rx="156.27" ry="156.27"/>
<text text-anchor="middle" x="1143.24" y="-4617.25" font-family="Times,serif" font-size="14.00">Which serious injuries were sustained?</text>
</g>
<!-- 61200&#45;&gt;END_NODE -->
<g id="edge25" class="edge">
<title>61200&#45;&gt;END_NODE</title>
<path fill="none" stroke="#dddddd" d="M1294.27,-4662.84C1358.88,-4688.06 1429.07,-4727.43 1470.97,-4787.3 1523.44,-4862.26 1548.85,-5514.63 1554.89,-5693.89"/>
<polygon fill="#dddddd" stroke="#dddddd" points="1551.38,-5693.86 1555.21,-5703.73 1558.38,-5693.62 1551.38,-5693.86"/>
<text text-anchor="middle" x="1497.22" y="-4922.92" font-family="Times,serif" font-size="14.00">N</text>
</g>
<!-- 61201 -->
<g id="node24" class="node">
<title>61201</title>
<ellipse fill="#dddddd" stroke="#dddddd" cx="1143.24" cy="-4323.3" rx="124.54" ry="124.54"/>
<text text-anchor="middle" x="1143.24" y="-4318.25" font-family="Times,serif" font-size="14.00">Was a minor injury sustained?</text>
</g>
<!-- 61201&#45;&gt;END_NODE -->
<g id="edge26" class="edge">
<title>61201&#45;&gt;END_NODE</title>
<path fill="none" stroke="#dddddd" d="M1266.88,-4341.57C1338.11,-4358.91 1423.01,-4392.5 1470.97,-4457.3 1545.85,-4558.49 1555.04,-5477.92 1556.17,-5693.99"/>
<polygon fill="#dddddd" stroke="#dddddd" points="1552.67,-5693.7 1556.22,-5703.68 1559.67,-5693.66 1552.67,-5693.7"/>
<text text-anchor="middle" x="1497.22" y="-4564.5" font-family="Times,serif" font-size="14.00">N</text>
</g>
<!-- 61202 -->
<g id="node25" class="node">
<title>61202</title>
<ellipse fill="#dddddd" stroke="#dddddd" cx="1143.24" cy="-4028.3" rx="152.69" ry="152.69"/>
<text text-anchor="middle" x="1143.24" y="-4023.25" font-family="Times,serif" font-size="14.00">Which minor injuries were sustained?</text>
</g>
<!-- 61202&#45;&gt;END_NODE -->
<g id="edge27" class="edge">
<title>61202&#45;&gt;END_NODE</title>
<path fill="none" stroke="#dddddd" d="M1291.71,-4066.01C1357,-4090.37 1428.48,-4129.12 1470.97,-4189.3 1559.77,-4315.07 1558.05,-5451.28 1556.66,-5693.87"/>
<polygon fill="#dddddd" stroke="#dddddd" points="1553.16,-5693.52 1556.6,-5703.54 1560.16,-5693.57 1553.16,-5693.52"/>
<text text-anchor="middle" x="1497.22" y="-4293.39" font-family="Times,serif" font-size="14.00">N</text>
</g>
<!-- 61203 -->
<g id="node26" class="node">
<title>61203</title>
<ellipse fill="#dddddd" stroke="#dddddd" cx="1143.24" cy="-3653.3" rx="204.38" ry="204.38"/>
<text text-anchor="middle" x="1143.24" y="-3648.25" font-family="Times,serif" font-size="14.00">Did injuries result in attendance to outside hospital?</text>
</g>
<!-- 61203&#45;&gt;END_NODE -->
<g id="edge28" class="edge">
<title>61203&#45;&gt;END_NODE</title>
<path fill="none" stroke="#dddddd" d="M1330.71,-3735.3C1384.64,-3768.21 1437.83,-3811.56 1470.97,-3866.3 1519.79,-3946.94 1550.15,-5415.56 1555.48,-5693.96"/>
<polygon fill="#dddddd" stroke="#dddddd" points="1551.98,-5693.77 1555.67,-5703.7 1558.98,-5693.63 1551.98,-5693.77"/>
<text text-anchor="middle" x="1497.22" y="-4137.36" font-family="Times,serif" font-size="14.00">N</text>
</g>
<!-- 61204 -->
<g id="node27" class="node">
<title>61204</title>
<ellipse fill="#dddddd" stroke="#dddddd" cx="1143.24" cy="-3318.3" rx="112.26" ry="112.26"/>
<text text-anchor="middle" x="1143.24" y="-3313.25" font-family="Times,serif" font-size="14.00">Type of hospital admission</text>
</g>
<!-- 61204&#45;&gt;END_NODE -->
<g id="edge29" class="edge">
<title>61204&#45;&gt;END_NODE</title>
<path fill="none" stroke="#dddddd" d="M1255.47,-3329.26C1328.98,-3342.78 1420.74,-3372.96 1470.97,-3440.3 1540.85,-3534 1554.31,-5379.04 1556.09,-5693.82"/>
<polygon fill="#dddddd" stroke="#dddddd" points="1552.59,-5693.71 1556.15,-5703.69 1559.59,-5693.67 1552.59,-5693.71"/>
<text text-anchor="middle" x="1497.22" y="-3635.93" font-family="Times,serif" font-size="14.00">N</text>
</g>
<!-- 61205 -->
<g id="node28" class="node">
<title>61205</title>
<ellipse fill="#dddddd" stroke="#dddddd" cx="1143.24" cy="-3031.3" rx="156.27" ry="156.27"/>
<text text-anchor="middle" x="1143.24" y="-3026.25" font-family="Times,serif" font-size="14.00">Who was admitted to outside hospital?</text>
</g>
<!-- 61205&#45;&gt;END_NODE -->
<g id="edge30" class="edge">
<title>61205&#45;&gt;END_NODE</title>
<path fill="none" stroke="#dddddd" d="M1294.51,-3072.15C1359.16,-3097.53 1429.33,-3137.14 1470.97,-3197.3 1550.25,-3311.83 1496.21,-3369.82 1505.47,-3508.8 1535.28,-3956.01 1552.75,-5417.49 1555.83,-5693.95"/>
<polygon fill="#dddddd" stroke="#dddddd" points="1552.33,-5693.65 1555.94,-5703.61 1559.33,-5693.57 1552.33,-5693.65"/>
<text text-anchor="middle" x="1497.22" y="-3512" font-family="Times,serif" font-size="14.00">N</text>
</g>
<!-- 61206 -->
<g id="node29" class="node">
<title>61206</title>
<ellipse fill="#dddddd" stroke="#dddddd" cx="1143.24" cy="-2594.3" rx="262.73" ry="262.73"/>
<text text-anchor="middle" x="1143.24" y="-2589.25" font-family="Times,serif" font-size="14.00">Was medical treatment for concussion or internal injuries required?</text>
</g>
<!-- 61206&#45;&gt;END_NODE -->
<g id="edge31" class="edge">
<title>61206&#45;&gt;END_NODE</title>
<path fill="none" stroke="#dddddd" d="M1364.33,-2736.63C1406.2,-2773.83 1445,-2817.42 1470.97,-2866.3 1542.95,-3001.8 1496.26,-3056.65 1505.47,-3209.8 1536.21,-3720.62 1553.12,-5397.16 1555.91,-5694.13"/>
<polygon fill="#dddddd" stroke="#dddddd" points="1552.41,-5693.81 1556,-5703.78 1559.41,-5693.75 1552.41,-5693.81"/>
<text text-anchor="middle" x="1497.22" y="-3213" font-family="Times,serif" font-size="14.00">N</text>
</g>
<!-- 61207 -->
<g id="node30" class="node">
<title>61207</title>
<ellipse fill="#dddddd" stroke="#dddddd" cx="1143.24" cy="-2080.3" rx="233.56" ry="233.56"/>
<text text-anchor="middle" x="1143.24" y="-2075.25" font-family="Times,serif" font-size="14.00">Are there any staff now off duty as a result of this incident?</text>
</g>
<!-- 61207&#45;&gt;END_NODE -->
<g id="edge32" class="edge">
<title>61207&#45;&gt;END_NODE</title>
<path fill="none" stroke="#dddddd" d="M1349.79,-2190.35C1397.51,-2225.96 1442.6,-2270.04 1470.97,-2322.3 1590.25,-2542.04 1495.58,-2633.97 1505.47,-2883.8 1550.69,-4025.53 1555.71,-5425.65 1556.26,-5693.77"/>
<polygon fill="#dddddd" stroke="#dddddd" points="1552.76,-5693.46 1556.28,-5703.45 1559.76,-5693.45 1552.76,-5693.46"/>
<text text-anchor="middle" x="1497.22" y="-2887" font-family="Times,serif" font-size="14.00">N</text>
</g>
<!-- 61208 -->
<g id="node31" class="node">
<title>61208</title>
<ellipse fill="#dddddd" stroke="#dddddd" cx="1143.24" cy="-1615.3" rx="213.08" ry="213.08"/>
<text text-anchor="middle" x="1143.24" y="-1610.25" font-family="Times,serif" font-size="14.00">Are any staff on sick leave as a result of this incident?</text>
</g>
<!-- 61208&#45;&gt;END_NODE -->
<g id="edge33" class="edge">
<title>61208&#45;&gt;END_NODE</title>
<path fill="none" stroke="#dddddd" d="M1336.88,-1705.09C1389.07,-1739.01 1439.72,-1782.89 1470.97,-1837.3 1582.45,-2031.43 1496.13,-2116.14 1505.47,-2339.8 1562.79,-3711.84 1557.93,-5397.73 1556.57,-5693.86"/>
<polygon fill="#dddddd" stroke="#dddddd" points="1553.07,-5693.84 1556.52,-5703.86 1560.07,-5693.87 1553.07,-5693.84"/>
<text text-anchor="middle" x="1497.22" y="-2343" font-family="Times,serif" font-size="14.00">N</text>
</g>
<!-- 61209 -->
<g id="node32" class="node">
<title>61209</title>
<ellipse fill="#dddddd" stroke="#dddddd" cx="1143.24" cy="-1235.3" rx="149.11" ry="149.11"/>
<text text-anchor="middle" x="1143.24" y="-1230.25" font-family="Times,serif" font-size="14.00">Did the assault occur in public view?</text>
</g>
<!-- 61209&#45;&gt;END_NODE -->
<g id="edge34" class="edge">
<title>61209&#45;&gt;END_NODE</title>
<path fill="none" stroke="#dddddd" d="M1288.6,-1269.34C1355.26,-1292.79 1428.82,-1331.29 1470.97,-1393.3 1588.33,-1565.98 1496.43,-1653.21 1505.47,-1861.8 1540.08,-2660.45 1554.24,-5314.14 1556.11,-5693.9"/>
<polygon fill="#dddddd" stroke="#dddddd" points="1552.61,-5693.72 1556.16,-5703.7 1559.61,-5693.69 1552.61,-5693.72"/>
<text text-anchor="middle" x="1497.22" y="-1865" font-family="Times,serif" font-size="14.00">N</text>
</g>
<!-- 61210 -->
<g id="node33" class="node">
<title>61210</title>
<ellipse fill="#dddddd" stroke="#dddddd" cx="1143.24" cy="-870.3" rx="198.24" ry="198.24"/>
<text text-anchor="middle" x="1143.24" y="-865.25" font-family="Times,serif" font-size="14.00">Is there any audio or visual footage of the assault?</text>
</g>
<!-- 61210&#45;&gt;END_NODE -->
<g id="edge35" class="edge">
<title>61210&#45;&gt;END_NODE</title>
<path fill="none" stroke="#dddddd" d="M1326.45,-946.89C1381.66,-979.08 1436.69,-1022.12 1470.97,-1077.3 1547.73,-1200.88 1496.94,-1257.58 1505.47,-1402.8 1558.1,-2298.98 1556.81,-5288.32 1556.38,-5693.66"/>
<polygon fill="#dddddd" stroke="#dddddd" points="1552.88,-5693.64 1556.37,-5703.65 1559.88,-5693.65 1552.88,-5693.64"/>
<text text-anchor="middle" x="1497.22" y="-1406" font-family="Times,serif" font-size="14.00">N</text>
</g>
<!-- 61211 -->
<g id="node34" class="node">
<title>61211</title>
<ellipse fill="#dddddd" stroke="#dddddd" cx="1143.24" cy="-515.3" rx="138.87" ry="138.87"/>
<text text-anchor="middle" x="1143.24" y="-510.25" font-family="Times,serif" font-size="14.00">What is the source of the footage?</text>
</g>
<!-- 61211&#45;&gt;END_NODE -->
<g id="edge36" class="edge">
<title>61211&#45;&gt;END_NODE</title>
<path fill="none" stroke="#dddddd" d="M1279.83,-542.39C1348.51,-563.44 1426.55,-600.14 1470.97,-663.3 1580.88,-819.59 1496.75,-900.94 1505.47,-1091.8 1549.48,-2055.36 1555.64,-5272.55 1556.27,-5693.69"/>
<polygon fill="#dddddd" stroke="#dddddd" points="1552.77,-5693.55 1556.28,-5703.54 1559.77,-5693.54 1552.77,-5693.55"/>
<text text-anchor="middle" x="1497.22" y="-1095" font-family="Times,serif" font-size="14.00">N</text>
</g>
<!-- 61212 -->
<g id="node35" class="node">
<title>61212</title>
<ellipse fill="#dddddd" stroke="#dddddd" cx="1143.24" cy="-179.3" rx="179.3" ry="179.3"/>
<text text-anchor="middle" x="1143.24" y="-174.25" font-family="Times,serif" font-size="14.00">Was there an apparent reason for the assault?</text>
</g>
<!-- 61212&#45;&gt;END_NODE -->
<g id="edge37" class="edge">
<title>61212&#45;&gt;END_NODE</title>
<path fill="none" stroke="#dddddd" d="M1312.74,-238.78C1372.2,-268.25 1433.52,-310.08 1470.97,-367.3 1547.25,-483.85 1497.09,-539.76 1505.47,-678.8 1537.29,-1206.9 1554.25,-5220.96 1556.15,-5693.85"/>
<polygon fill="#dddddd" stroke="#dddddd" points="1552.65,-5693.78 1556.19,-5703.77 1559.65,-5693.75 1552.65,-5693.78"/>
<text text-anchor="middle" x="1497.22" y="-682" font-family="Times,serif" font-size="14.00">N</text>
</g>
</g>
</svg>
