<?xml version="1.0" encoding="UTF-8" standalone="no"?>
<!DOCTYPE svg PUBLIC "-//W3C//DTD SVG 1.1//EN"
 "http://www.w3.org/Graphics/SVG/1.1/DTD/svg11.dtd">
<!-- Generated by graphviz version 12.1.1 (20240910.0053)
 -->
<!-- Title: OLD_TEMPORARY_RELEASE_FAILURE Pages: 1 -->
<svg width="9415pt" height="1711pt"
 viewBox="0.00 0.00 9415.10 1710.55" xmlns="http://www.w3.org/2000/svg" xmlns:xlink="http://www.w3.org/1999/xlink">
<g id="graph0" class="graph" transform="scale(1 1) rotate(0) translate(4 1706.55)">
<title>OLD_TEMPORARY_RELEASE_FAILURE</title>
<polygon fill="white" stroke="none" points="-4,4 -4,-1706.55 9411.1,-1706.55 9411.1,4 -4,4"/>
<!-- START_NODE -->
<g id="node1" class="node">
<title>START_NODE</title>
</g>
<!-- 44885 -->
<g id="node2" class="node">
<title>44885</title>
<ellipse fill="#dddddd" stroke="#dddddd" cx="337.08" cy="-903.42" rx="223.83" ry="223.83"/>
<text text-anchor="middle" x="337.08" y="-898.37" font-family="Times,serif" font-size="14.00">WERE THE POLICE INFORMED OF THE INCIDENT</text>
</g>
<!-- START_NODE&#45;&gt;44885 -->
<g id="edge1" class="edge">
<title>START_NODE&#45;&gt;44885</title>
<path fill="none" stroke="black" d="M53.74,-903.42C66.37,-903.42 82.91,-903.42 101.66,-903.42"/>
<polygon fill="black" stroke="black" points="101.43,-906.92 111.43,-903.42 101.43,-899.92 101.43,-906.92"/>
<text text-anchor="middle" x="83.62" y="-906.62" font-family="Times,serif" font-size="14.00">start</text>
</g>
<!-- 44345 -->
<g id="node9" class="node">
<title>44345</title>
<ellipse fill="#dddddd" stroke="#dddddd" cx="897.93" cy="-747.42" rx="275.52" ry="275.52"/>
<text text-anchor="middle" x="897.93" y="-742.37" font-family="Times,serif" font-size="14.00">IS THE INCIDENT THE SUBJECT OF A POLICE INVESTIGATION</text>
</g>
<!-- 44885&#45;&gt;44345 -->
<g id="edge34" class="edge">
<title>44885&#45;&gt;44345</title>
<path fill="none" stroke="#dddddd" d="M552.95,-843.45C575.39,-837.18 598.42,-830.75 621.42,-824.33"/>
<polygon fill="#dddddd" stroke="#dddddd" points="622.19,-827.75 630.88,-821.69 620.31,-821.01 622.19,-827.75"/>
<text text-anchor="middle" x="591.66" y="-837.96" font-family="Times,serif" font-size="14.00">YES</text>
</g>
<!-- 44893 -->
<g id="node10" class="node">
<title>44893</title>
<ellipse fill="#dddddd" stroke="#dddddd" cx="1531.47" cy="-787.42" rx="296.51" ry="296.51"/>
<text text-anchor="middle" x="1531.47" y="-782.37" font-family="Times,serif" font-size="14.00">IS THE INCIDENT THE SUBJECT OF AN INTERNAL INVESTIGATION</text>
</g>
<!-- 44885&#45;&gt;44893 -->
<g id="edge35" class="edge">
<title>44885&#45;&gt;44893</title>
<path fill="none" stroke="#dddddd" d="M536.36,-1006.07C564.61,-1016.92 593.8,-1026.24 622.41,-1032.42 861.79,-1084.19 939.54,-1104.97 1173.46,-1032.42 1213.83,-1019.9 1253.7,-1001.06 1291.33,-979.28"/>
<polygon fill="#dddddd" stroke="#dddddd" points="1292.69,-982.53 1299.54,-974.45 1289.15,-976.5 1292.69,-982.53"/>
<text text-anchor="middle" x="897.93" y="-1082.56" font-family="Times,serif" font-size="14.00">NO</text>
</g>
<!-- END_NODE -->
<g id="node3" class="node">
<title>END_NODE</title>
<ellipse fill="none" stroke="black" cx="9373.24" cy="-1046.42" rx="29.86" ry="29.86"/>
<ellipse fill="none" stroke="black" cx="9373.24" cy="-1046.42" rx="33.86" ry="33.86"/>
<text text-anchor="middle" x="9373.24" y="-1041.37" font-family="Times,serif" font-size="14.00">END</text>
</g>
<!-- 44259 -->
<g id="node4" class="node">
<title>44259</title>
<ellipse fill="#dddddd" stroke="#dddddd" cx="6107.54" cy="-1327.42" rx="291.9" ry="291.9"/>
<text text-anchor="middle" x="6107.54" y="-1322.37" font-family="Times,serif" font-size="14.00">HAS THE PRISONER BEEN CHARGED WITH A FURTHER OFFENCE</text>
</g>
<!-- 44259&#45;&gt;END_NODE -->
<g id="edge3" class="edge">
<title>44259&#45;&gt;END_NODE</title>
<path fill="none" stroke="black" d="M6317.36,-1530.97C6361.71,-1563.95 6410.48,-1593.7 6460.94,-1613.42 6585,-1661.91 6626.83,-1632.42 6760.03,-1632.42 6760.03,-1632.42 6760.03,-1632.42 8912.77,-1632.42 9113.28,-1632.42 9162.3,-1531.26 9277.89,-1367.42 9338.22,-1281.91 9360.37,-1157.75 9368.19,-1091.71"/>
<polygon fill="black" stroke="black" points="9371.65,-1092.3 9369.29,-1081.97 9364.69,-1091.52 9371.65,-1092.3"/>
<text text-anchor="middle" x="7737.17" y="-1635.62" font-family="Times,serif" font-size="14.00">NO</text>
</g>
<!-- 44772 -->
<g id="node5" class="node">
<title>44772</title>
<ellipse fill="#dddddd" stroke="#dddddd" cx="6761.03" cy="-1304.42" rx="300.09" ry="300.09"/>
<text text-anchor="middle" x="6761.03" y="-1299.37" font-family="Times,serif" font-size="14.00">IS THAT OFFENCE UNDER THE PRISONERS (RETURN TO CUSTODY)</text>
</g>
<!-- 44259&#45;&gt;44772 -->
<g id="edge2" class="edge">
<title>44259&#45;&gt;44772</title>
<path fill="none" stroke="black" d="M6399.51,-1317.15C6416.04,-1316.57 6432.69,-1315.98 6449.29,-1315.4"/>
<polygon fill="black" stroke="black" points="6449.38,-1318.89 6459.25,-1315.04 6449.14,-1311.9 6449.38,-1318.89"/>
<text text-anchor="middle" x="6430.19" y="-1319.12" font-family="Times,serif" font-size="14.00">YES</text>
</g>
<!-- 44266 -->
<g id="node6" class="node">
<title>44266</title>
<ellipse fill="#dddddd" stroke="#dddddd" cx="7414.52" cy="-1312.42" rx="291.9" ry="291.9"/>
<text text-anchor="middle" x="7414.52" y="-1307.37" font-family="Times,serif" font-size="14.00">HAS THE PRISONER BEEN CHARGED WITH A FURTHER OFFENCE</text>
</g>
<!-- 44772&#45;&gt;44266 -->
<g id="edge30" class="edge">
<title>44772&#45;&gt;44266</title>
<path fill="none" stroke="black" d="M7061.56,-1308.1C7077.99,-1308.3 7094.5,-1308.51 7110.94,-1308.71"/>
<polygon fill="black" stroke="black" points="7110.76,-1312.21 7120.8,-1308.83 7110.84,-1305.21 7110.76,-1312.21"/>
<text text-anchor="middle" x="7091.87" y="-1311.62" font-family="Times,serif" font-size="14.00">YES</text>
</g>
<!-- 44694 -->
<g id="node7" class="node">
<title>44694</title>
<ellipse fill="#dddddd" stroke="#dddddd" cx="8036.79" cy="-1282.42" rx="268.87" ry="268.87"/>
<text text-anchor="middle" x="8036.79" y="-1277.37" font-family="Times,serif" font-size="14.00">WITH WHAT OFFENCE HAS THE PRISONER BEEN CHARGED</text>
</g>
<!-- 44772&#45;&gt;44694 -->
<g id="edge31" class="edge">
<title>44772&#45;&gt;44694</title>
<path fill="none" stroke="black" d="M6967.26,-1086.18C7014.39,-1048.83 7067.11,-1015.48 7122.62,-994.92 7365.94,-904.82 7463.48,-903.81 7706.42,-994.92 7756.18,-1013.59 7803.36,-1043.55 7845.65,-1077.23"/>
<polygon fill="black" stroke="black" points="7843.45,-1079.95 7853.43,-1083.52 7847.85,-1074.51 7843.45,-1079.95"/>
<text text-anchor="middle" x="7414.52" y="-998.12" font-family="Times,serif" font-size="14.00">NO</text>
</g>
<!-- 44266&#45;&gt;44694 -->
<g id="edge4" class="edge">
<title>44266&#45;&gt;44694</title>
<path fill="none" stroke="black" d="M7706.13,-1298.37C7723.06,-1297.55 7740.06,-1296.73 7756.94,-1295.91"/>
<polygon fill="black" stroke="black" points="7756.68,-1299.43 7766.5,-1295.45 7756.35,-1292.44 7756.68,-1299.43"/>
<text text-anchor="middle" x="7737.17" y="-1300.62" font-family="Times,serif" font-size="14.00">YES</text>
</g>
<!-- 44602 -->
<g id="node8" class="node">
<title>44602</title>
<ellipse fill="#dddddd" stroke="#dddddd" cx="8911.77" cy="-1086.42" rx="271.94" ry="271.94"/>
<text text-anchor="middle" x="8911.77" y="-1081.37" font-family="Times,serif" font-size="14.00">HAS ANY PROSECUTION TAKEN PLACE OR IS ANY PENDING</text>
</g>
<!-- 44266&#45;&gt;44602 -->
<g id="edge5" class="edge">
<title>44266&#45;&gt;44602</title>
<path fill="none" stroke="black" d="M7639.25,-1499.41C7679.88,-1524.48 7723.52,-1546.37 7767.92,-1560.42 7995.77,-1632.56 8068.3,-1588.37 8305.66,-1560.42 8406.41,-1548.57 8440.31,-1559 8527.66,-1507.42 8609.84,-1458.9 8684.54,-1387.07 8745.7,-1316.43"/>
<polygon fill="black" stroke="black" points="8748.25,-1318.83 8752.11,-1308.97 8742.94,-1314.27 8748.25,-1318.83"/>
<text text-anchor="middle" x="8036.79" y="-1602.83" font-family="Times,serif" font-size="14.00">NO</text>
</g>
<!-- 44694&#45;&gt;44602 -->
<g id="edge16" class="edge">
<title>44694&#45;&gt;44602</title>
<path fill="none" stroke="black" d="M8256.24,-1438.23C8278.27,-1448.76 8300.93,-1457.8 8323.66,-1464.42 8410.71,-1489.78 8443.78,-1498.84 8527.66,-1464.42 8607.7,-1431.58 8679.96,-1373.05 8739.6,-1311.71"/>
<polygon fill="black" stroke="black" points="8742.1,-1314.15 8746.51,-1304.52 8737.05,-1309.3 8742.1,-1314.15"/>
<text text-anchor="middle" x="8425.66" y="-1490.17" font-family="Times,serif" font-size="14.00">MURDER/ATTEMPTED MURDER</text>
</g>
<!-- 44694&#45;&gt;44602 -->
<g id="edge17" class="edge">
<title>44694&#45;&gt;44602</title>
<path fill="none" stroke="black" d="M8272.64,-1412.34C8354.29,-1441.28 8445.87,-1455.35 8527.66,-1424.42 8599.62,-1397.22 8666.8,-1349.65 8724.17,-1298.64"/>
<polygon fill="black" stroke="black" points="8726.35,-1301.39 8731.44,-1292.1 8721.66,-1296.18 8726.35,-1301.39"/>
<text text-anchor="middle" x="8425.66" y="-1445.03" font-family="Times,serif" font-size="14.00">MANSLAUGHTER</text>
</g>
<!-- 44694&#45;&gt;44602 -->
<g id="edge18" class="edge">
<title>44694&#45;&gt;44602</title>
<path fill="none" stroke="black" d="M8285.55,-1385.18C8364.09,-1404.23 8450.53,-1410.89 8527.66,-1384.42 8591.84,-1362.4 8653.54,-1324.76 8707.98,-1283.49"/>
<polygon fill="black" stroke="black" points="8710,-1286.35 8715.81,-1277.49 8705.74,-1280.8 8710,-1286.35"/>
<text text-anchor="middle" x="8425.66" y="-1405.11" font-family="Times,serif" font-size="14.00">ASSAULT</text>
</g>
<!-- 44694&#45;&gt;44602 -->
<g id="edge19" class="edge">
<title>44694&#45;&gt;44602</title>
<path fill="none" stroke="black" d="M8295.83,-1355.29C8371.65,-1365.98 8453.97,-1366.92 8527.66,-1344.42 8584.7,-1327.01 8640.93,-1297.94 8692.01,-1265.45"/>
<polygon fill="black" stroke="black" points="8693.7,-1268.53 8700.21,-1260.17 8689.91,-1262.64 8693.7,-1268.53"/>
<text text-anchor="middle" x="8425.66" y="-1365.79" font-family="Times,serif" font-size="14.00">RAPE/ATTEMPTED RAPE</text>
</g>
<!-- 44694&#45;&gt;44602 -->
<g id="edge20" class="edge">
<title>44694&#45;&gt;44602</title>
<path fill="none" stroke="black" d="M8304.89,-1308.42C8395.57,-1314.23 8484.76,-1315.78 8527.66,-1304.42 8578.17,-1291.06 8628.98,-1269.32 8676.35,-1244.62"/>
<polygon fill="black" stroke="black" points="8677.86,-1247.79 8685.06,-1240.02 8674.59,-1241.6 8677.86,-1247.79"/>
<text text-anchor="middle" x="8425.66" y="-1316.09" font-family="Times,serif" font-size="14.00">OTHER SEXUAL OFFENCE</text>
</g>
<!-- 44694&#45;&gt;44602 -->
<g id="edge21" class="edge">
<title>44694&#45;&gt;44602</title>
<path fill="none" stroke="black" d="M8305.95,-1281.84C8396.14,-1279.65 8484.74,-1274.74 8527.66,-1264.42 8572.22,-1253.72 8617.86,-1237.63 8661.39,-1219.43"/>
<polygon fill="black" stroke="black" points="8662.58,-1222.72 8670.42,-1215.6 8659.85,-1216.28 8662.58,-1222.72"/>
<text text-anchor="middle" x="8425.66" y="-1284.2" font-family="Times,serif" font-size="14.00">THEFT</text>
</g>
<!-- 44694&#45;&gt;44602 -->
<g id="edge22" class="edge">
<title>44694&#45;&gt;44602</title>
<path fill="none" stroke="black" d="M8303.66,-1246.27C8310.39,-1245.47 8317.07,-1244.68 8323.66,-1243.92 8414.14,-1233.51 8438.79,-1244.35 8527.66,-1224.42 8567.16,-1215.57 8608.15,-1203.78 8647.99,-1190.8"/>
<polygon fill="black" stroke="black" points="8649.07,-1194.12 8657.48,-1187.67 8646.88,-1187.48 8649.07,-1194.12"/>
<text text-anchor="middle" x="8425.66" y="-1247.12" font-family="Times,serif" font-size="14.00">ROBBERY</text>
</g>
<!-- 44694&#45;&gt;44602 -->
<g id="edge23" class="edge">
<title>44694&#45;&gt;44602</title>
<path fill="none" stroke="black" d="M8295.99,-1209.37C8305.31,-1207.42 8314.55,-1205.6 8323.66,-1203.92 8413.24,-1187.47 8437.94,-1200.09 8527.66,-1184.42 8563.75,-1178.12 8601.43,-1170.19 8638.49,-1161.58"/>
<polygon fill="black" stroke="black" points="8639.03,-1165.05 8647.97,-1159.36 8637.43,-1158.24 8639.03,-1165.05"/>
<text text-anchor="middle" x="8425.66" y="-1207.12" font-family="Times,serif" font-size="14.00">FIREARM OFFENCE</text>
</g>
<!-- 44694&#45;&gt;44602 -->
<g id="edge24" class="edge">
<title>44694&#45;&gt;44602</title>
<path fill="none" stroke="black" d="M8283.78,-1175.15C8297.15,-1170.99 8310.5,-1167.2 8323.66,-1163.92 8412.04,-1141.91 8437.27,-1155.58 8527.66,-1144.42 8561.32,-1140.27 8596.59,-1135.5 8631.51,-1130.53"/>
<polygon fill="black" stroke="black" points="8631.94,-1134 8641.34,-1129.12 8630.95,-1127.07 8631.94,-1134"/>
<text text-anchor="middle" x="8425.66" y="-1167.12" font-family="Times,serif" font-size="14.00">DRUG OFFENCE</text>
</g>
<!-- 44694&#45;&gt;44602 -->
<g id="edge25" class="edge">
<title>44694&#45;&gt;44602</title>
<path fill="none" stroke="black" d="M8267.69,-1143.98C8286.23,-1136.23 8305.01,-1129.39 8323.66,-1123.92 8354.11,-1115 8493.32,-1105.91 8628.54,-1098.91"/>
<polygon fill="black" stroke="black" points="8628.61,-1102.41 8638.42,-1098.4 8628.25,-1095.42 8628.61,-1102.41"/>
<text text-anchor="middle" x="8425.66" y="-1127.12" font-family="Times,serif" font-size="14.00">VEHICLE CRIME</text>
</g>
<!-- 44694&#45;&gt;44602 -->
<g id="edge26" class="edge">
<title>44694&#45;&gt;44602</title>
<path fill="none" stroke="black" d="M8248.62,-1116.07C8272.91,-1103.07 8298.15,-1091.91 8323.66,-1083.92 8380.38,-1066.16 8507.24,-1065.1 8628.58,-1069.21"/>
<polygon fill="black" stroke="black" points="8628.3,-1072.7 8638.41,-1069.56 8628.54,-1065.71 8628.3,-1072.7"/>
<text text-anchor="middle" x="8425.66" y="-1087.12" font-family="Times,serif" font-size="14.00">PUBLIC ORDER OFFENCE</text>
</g>
<!-- 44694&#45;&gt;44602 -->
<g id="edge27" class="edge">
<title>44694&#45;&gt;44602</title>
<path fill="none" stroke="black" d="M8230.23,-1095.57C8259.66,-1075.75 8291.13,-1058.6 8323.66,-1046.92 8380.19,-1026.64 8508.65,-1033.32 8631.03,-1046.48"/>
<polygon fill="black" stroke="black" points="8630.65,-1049.95 8640.97,-1047.56 8631.41,-1043 8630.65,-1049.95"/>
<text text-anchor="middle" x="8425.66" y="-1050.12" font-family="Times,serif" font-size="14.00">OTHER</text>
</g>
<!-- 44602&#45;&gt;END_NODE -->
<g id="edge14" class="edge">
<title>44602&#45;&gt;END_NODE</title>
<path fill="none" stroke="black" d="M9183.94,-1082.75C9230.09,-1079.01 9277.32,-1073.22 9321.39,-1064.42 9324.38,-1063.83 9327.44,-1063.09 9330.5,-1062.26"/>
<polygon fill="black" stroke="black" points="9331.46,-1065.62 9339.99,-1059.35 9329.41,-1058.93 9331.46,-1065.62"/>
<text text-anchor="middle" x="9308.64" y="-1071.66" font-family="Times,serif" font-size="14.00">YES</text>
</g>
<!-- 44602&#45;&gt;END_NODE -->
<g id="edge15" class="edge">
<title>44602&#45;&gt;END_NODE</title>
<path fill="none" stroke="black" d="M9181.95,-1052.77C9220.14,-1049.11 9258.97,-1045.97 9295.89,-1043.92 9306.18,-1043.36 9317.27,-1043.36 9327.71,-1043.65"/>
<polygon fill="black" stroke="black" points="9327.52,-1047.14 9337.64,-1044.02 9327.78,-1040.15 9327.52,-1047.14"/>
<text text-anchor="middle" x="9308.64" y="-1047.12" font-family="Times,serif" font-size="14.00">NO</text>
</g>
<!-- 44345&#45;&gt;44893 -->
<g id="edge6" class="edge">
<title>44345&#45;&gt;44893</title>
<path fill="none" stroke="black" d="M1173.95,-746.71C1188.5,-747.3 1202.91,-748.03 1216.96,-748.92 1219.83,-749.11 1222.72,-749.3 1225.62,-749.5"/>
<polygon fill="black" stroke="black" points="1225.12,-752.97 1235.35,-750.2 1225.63,-745.99 1225.12,-752.97"/>
<text text-anchor="middle" x="1204.21" y="-752.12" font-family="Times,serif" font-size="14.00">YES</text>
</g>
<!-- 44345&#45;&gt;44893 -->
<g id="edge7" class="edge">
<title>44345&#45;&gt;44893</title>
<path fill="none" stroke="black" d="M1173.18,-764.79C1190.04,-765.86 1207.06,-766.94 1224.05,-768.02"/>
<polygon fill="black" stroke="black" points="1223.49,-771.49 1233.69,-768.63 1223.93,-764.5 1223.49,-771.49"/>
<text text-anchor="middle" x="1204.21" y="-770.62" font-family="Times,serif" font-size="14.00">NO</text>
</g>
<!-- 44926 -->
<g id="node20" class="node">
<title>44926</title>
<ellipse fill="#dddddd" stroke="#dddddd" cx="2167.04" cy="-787.42" rx="277.57" ry="277.57"/>
<text text-anchor="middle" x="2167.04" y="-782.37" font-family="Times,serif" font-size="14.00">IS THE INCIDENT SUBJECT TO A GOVERNOR&#39;S ADJUDICATION</text>
</g>
<!-- 44893&#45;&gt;44926 -->
<g id="edge36" class="edge">
<title>44893&#45;&gt;44926</title>
<path fill="none" stroke="black" d="M1828.39,-787.42C1844.89,-787.42 1861.46,-787.42 1877.93,-787.42"/>
<polygon fill="black" stroke="black" points="1877.8,-790.92 1887.8,-787.42 1877.8,-783.92 1877.8,-790.92"/>
<text text-anchor="middle" x="1858.72" y="-790.62" font-family="Times,serif" font-size="14.00">YES</text>
</g>
<!-- 44893&#45;&gt;44926 -->
<g id="edge37" class="edge">
<title>44893&#45;&gt;44926</title>
<path fill="none" stroke="black" d="M1827.33,-766.22C1842.26,-766.2 1857.04,-766.42 1871.47,-766.92 1873.73,-767 1876,-767.08 1878.27,-767.17"/>
<polygon fill="black" stroke="black" points="1878.08,-770.66 1888.21,-767.56 1878.35,-763.67 1878.08,-770.66"/>
<text text-anchor="middle" x="1858.72" y="-770.12" font-family="Times,serif" font-size="14.00">NO</text>
</g>
<!-- 44351 -->
<g id="node11" class="node">
<title>44351</title>
<ellipse fill="#dddddd" stroke="#dddddd" cx="7414.52" cy="-557.42" rx="259.66" ry="259.66"/>
<text text-anchor="middle" x="7414.52" y="-552.37" font-family="Times,serif" font-size="14.00">WAS THE BREACH CHARGED WITH A FURTHER OFFENCE</text>
</g>
<!-- 44934 -->
<g id="node12" class="node">
<title>44934</title>
<ellipse fill="#dddddd" stroke="#dddddd" cx="8036.79" cy="-726.42" rx="268.87" ry="268.87"/>
<text text-anchor="middle" x="8036.79" y="-721.37" font-family="Times,serif" font-size="14.00">WITH WHAT OFFENCE HAS THE PRISONER BEEN CHARGED</text>
</g>
<!-- 44351&#45;&gt;44934 -->
<g id="edge8" class="edge">
<title>44351&#45;&gt;44934</title>
<path fill="none" stroke="black" d="M7665.57,-625.55C7698.66,-634.57 7732.7,-643.84 7766.1,-652.95"/>
<polygon fill="black" stroke="black" points="7764.9,-656.24 7775.46,-655.5 7766.74,-649.49 7764.9,-656.24"/>
<text text-anchor="middle" x="7737.17" y="-650.19" font-family="Times,serif" font-size="14.00">YES</text>
</g>
<!-- 45160 -->
<g id="node13" class="node">
<title>45160</title>
<ellipse fill="#dddddd" stroke="#dddddd" cx="8911.77" cy="-430.42" rx="366.11" ry="366.11"/>
<text text-anchor="middle" x="8911.77" y="-425.37" font-family="Times,serif" font-size="14.00">WAS THE BREACH FAILING TO COMPLY WITH ANY OTHER LICENCE CONDITIONS</text>
</g>
<!-- 44351&#45;&gt;45160 -->
<g id="edge9" class="edge">
<title>44351&#45;&gt;45160</title>
<path fill="none" stroke="black" d="M7655.25,-459.88C7692.42,-448.32 7730.81,-438.36 7767.92,-431.92 8021.21,-388 8310.85,-388.15 8535.17,-399.02"/>
<polygon fill="black" stroke="black" points="8534.8,-402.5 8544.96,-399.5 8535.15,-395.51 8534.8,-402.5"/>
<text text-anchor="middle" x="8036.79" y="-435.12" font-family="Times,serif" font-size="14.00">NO</text>
</g>
<!-- 44934&#45;&gt;44602 -->
<g id="edge40" class="edge">
<title>44934&#45;&gt;44602</title>
<path fill="none" stroke="black" d="M8305.48,-743.6C8414.4,-751.58 8517.4,-760.84 8527.66,-767.92 8542.88,-778.42 8534.02,-791.06 8545.66,-805.42 8582.57,-850.96 8628.26,-893.45 8674.69,-930.9"/>
<polygon fill="black" stroke="black" points="8672.49,-933.63 8682.49,-937.14 8676.86,-928.16 8672.49,-933.63"/>
<text text-anchor="middle" x="8425.66" y="-771.12" font-family="Times,serif" font-size="14.00">MURDER/ATTEMPTED MURDER</text>
</g>
<!-- 44934&#45;&gt;44602 -->
<g id="edge41" class="edge">
<title>44934&#45;&gt;44602</title>
<path fill="none" stroke="black" d="M8305.63,-711.55C8409.75,-708.41 8508.76,-709.79 8527.66,-724.92 8556.27,-747.85 8525.96,-774.51 8545.66,-805.42 8577.84,-855.91 8622.4,-900.89 8669.37,-939.27"/>
<polygon fill="black" stroke="black" points="8667,-941.86 8676.98,-945.41 8671.4,-936.41 8667,-941.86"/>
<text text-anchor="middle" x="8425.66" y="-728.12" font-family="Times,serif" font-size="14.00">MANSLAUGHTER</text>
</g>
<!-- 44934&#45;&gt;44602 -->
<g id="edge42" class="edge">
<title>44934&#45;&gt;44602</title>
<path fill="none" stroke="black" d="M8300.94,-674.37C8397.66,-661.84 8492.23,-659.59 8527.66,-689.92 8567.12,-723.71 8519.19,-760.72 8545.66,-805.42 8576.46,-857.42 8620.87,-903.2 8668.19,-941.9"/>
<polygon fill="black" stroke="black" points="8665.89,-944.54 8675.88,-948.09 8670.29,-939.09 8665.89,-944.54"/>
<text text-anchor="middle" x="8425.66" y="-693.12" font-family="Times,serif" font-size="14.00">ASSAULT</text>
</g>
<!-- 44934&#45;&gt;44602 -->
<g id="edge43" class="edge">
<title>44934&#45;&gt;44602</title>
<path fill="none" stroke="black" d="M8294.25,-647.53C8393.41,-624.32 8491.67,-612.74 8527.66,-644.92 8554.42,-668.85 8528.04,-774.16 8545.66,-805.42 8575.43,-858.23 8619.56,-904.4 8666.96,-943.23"/>
<polygon fill="black" stroke="black" points="8664.68,-945.89 8674.66,-949.44 8669.08,-940.44 8664.68,-945.89"/>
<text text-anchor="middle" x="8425.66" y="-648.12" font-family="Times,serif" font-size="14.00">RAPE/ATTEMPTED RAPE</text>
</g>
<!-- 44934&#45;&gt;44602 -->
<g id="edge44" class="edge">
<title>44934&#45;&gt;44602</title>
<path fill="none" stroke="black" d="M8281.74,-615.32C8295.76,-611.27 8309.79,-607.75 8323.66,-604.92 8368.08,-595.88 8494.2,-574.34 8527.66,-604.92 8560.68,-635.11 8524.13,-766.21 8545.66,-805.42 8574.93,-858.72 8619.01,-905.14 8666.53,-944.08"/>
<polygon fill="black" stroke="black" points="8664.28,-946.76 8674.26,-950.31 8668.67,-941.31 8664.28,-946.76"/>
<text text-anchor="middle" x="8425.66" y="-608.12" font-family="Times,serif" font-size="14.00">OTHER SEXUAL OFFENCE</text>
</g>
<!-- 44934&#45;&gt;44602 -->
<g id="edge45" class="edge">
<title>44934&#45;&gt;44602</title>
<path fill="none" stroke="black" d="M8255.66,-569.97C8349.04,-523.05 8453.46,-500.15 8527.66,-568.92 8566.32,-604.75 8520.6,-759.05 8545.66,-805.42 8574.66,-859.09 8618.77,-905.71 8666.43,-944.73"/>
<polygon fill="black" stroke="black" points="8664.2,-947.43 8674.19,-950.98 8668.6,-941.98 8664.2,-947.43"/>
<text text-anchor="middle" x="8425.66" y="-572.12" font-family="Times,serif" font-size="14.00">THEFT</text>
</g>
<!-- 44934&#45;&gt;44602 -->
<g id="edge46" class="edge">
<title>44934&#45;&gt;44602</title>
<path fill="none" stroke="black" d="M8222.89,-920.81C8254.4,-945.5 8288.41,-967.88 8323.66,-984.42 8406.59,-1023.35 8437.3,-998.85 8527.66,-1013.92 8561.93,-1019.64 8597.85,-1025.98 8633.38,-1032.46"/>
<polygon fill="black" stroke="black" points="8632.44,-1035.85 8642.91,-1034.2 8633.7,-1028.96 8632.44,-1035.85"/>
<text text-anchor="middle" x="8425.66" y="-1017.12" font-family="Times,serif" font-size="14.00">ROBBERY</text>
</g>
<!-- 44934&#45;&gt;44602 -->
<g id="edge47" class="edge">
<title>44934&#45;&gt;44602</title>
<path fill="none" stroke="black" d="M8240.81,-901.9C8267.42,-918.55 8295.33,-933.33 8323.66,-944.42 8408.46,-977.65 8438.44,-945.62 8527.66,-963.92 8565.72,-971.74 8605.34,-981.94 8644.04,-993.12"/>
<polygon fill="black" stroke="black" points="8642.89,-996.43 8653.47,-995.88 8644.85,-989.72 8642.89,-996.43"/>
<text text-anchor="middle" x="8425.66" y="-967.12" font-family="Times,serif" font-size="14.00">FIREARM OFFENCE</text>
</g>
<!-- 44934&#45;&gt;44602 -->
<g id="edge48" class="edge">
<title>44934&#45;&gt;44602</title>
<path fill="none" stroke="black" d="M8259.63,-877.74C8280.69,-888.03 8302.2,-897.17 8323.66,-904.42 8409.94,-933.6 8439.37,-901.55 8527.66,-923.92 8569.79,-934.6 8613.27,-949.23 8655.14,-965.37"/>
<polygon fill="black" stroke="black" points="8653.76,-968.59 8664.34,-968.96 8656.3,-962.06 8653.76,-968.59"/>
<text text-anchor="middle" x="8425.66" y="-927.12" font-family="Times,serif" font-size="14.00">DRUG OFFENCE</text>
</g>
<!-- 44934&#45;&gt;44602 -->
<g id="edge49" class="edge">
<title>44934&#45;&gt;44602</title>
<path fill="none" stroke="black" d="M8276.38,-849.07C8292.16,-854.85 8308,-860.05 8323.66,-864.42 8411.38,-888.94 8440.4,-857.81 8527.66,-883.92 8574.9,-898.06 8623.06,-918.23 8668.58,-940.42"/>
<polygon fill="black" stroke="black" points="8666.99,-943.54 8677.51,-944.82 8670.08,-937.26 8666.99,-943.54"/>
<text text-anchor="middle" x="8425.66" y="-887.12" font-family="Times,serif" font-size="14.00">VEHICLE CRIME</text>
</g>
<!-- 44934&#45;&gt;44602 -->
<g id="edge50" class="edge">
<title>44934&#45;&gt;44602</title>
<path fill="none" stroke="black" d="M8290.59,-816.57C8301.71,-819.43 8312.76,-822.07 8323.66,-824.42 8412.69,-843.66 8441.49,-814.43 8527.66,-843.92 8580.81,-862.12 8634.1,-889.01 8683.32,-918.35"/>
<polygon fill="black" stroke="black" points="8681.45,-921.3 8691.82,-923.46 8685.06,-915.3 8681.45,-921.3"/>
<text text-anchor="middle" x="8425.66" y="-847.12" font-family="Times,serif" font-size="14.00">PUBLIC ORDER OFFENCE</text>
</g>
<!-- 44934&#45;&gt;44602 -->
<g id="edge51" class="edge">
<title>44934&#45;&gt;44602</title>
<path fill="none" stroke="black" d="M8300.47,-780.82C8308.28,-782.08 8316.02,-783.29 8323.66,-784.42 8413.75,-797.83 8442.59,-771.39 8527.66,-803.92 8587.49,-826.81 8646.22,-861.74 8699.02,-899.32"/>
<polygon fill="black" stroke="black" points="8696.73,-901.98 8706.89,-904.98 8700.82,-896.3 8696.73,-901.98"/>
<text text-anchor="middle" x="8425.66" y="-807.12" font-family="Times,serif" font-size="14.00">OTHER</text>
</g>
<!-- 45160&#45;&gt;END_NODE -->
<g id="edge62" class="edge">
<title>45160&#45;&gt;END_NODE</title>
<path fill="none" stroke="black" d="M9193.48,-665.02C9241.86,-716.44 9287.42,-773.67 9321.39,-833.92 9351.06,-886.56 9363.49,-955.95 9368.66,-1000.88"/>
<polygon fill="black" stroke="black" points="9365.17,-1001.23 9369.71,-1010.8 9372.13,-1000.49 9365.17,-1001.23"/>
<text text-anchor="middle" x="9308.64" y="-837.12" font-family="Times,serif" font-size="14.00">YES</text>
</g>
<!-- 45160&#45;&gt;END_NODE -->
<g id="edge63" class="edge">
<title>45160&#45;&gt;END_NODE</title>
<path fill="none" stroke="black" d="M9180.77,-679.02C9216.16,-719.16 9249.83,-761.89 9277.89,-805.42 9279.31,-807.64 9329.25,-935.85 9355.89,-1004.34"/>
<polygon fill="black" stroke="black" points="9352.51,-1005.32 9359.4,-1013.38 9359.04,-1002.79 9352.51,-1005.32"/>
<text text-anchor="middle" x="9308.64" y="-915.91" font-family="Times,serif" font-size="14.00">NO</text>
</g>
<!-- 44358 -->
<g id="node14" class="node">
<title>44358</title>
<ellipse fill="#dddddd" stroke="#dddddd" cx="6761.03" cy="-557.42" rx="224.85" ry="224.85"/>
<text text-anchor="middle" x="6761.03" y="-552.37" font-family="Times,serif" font-size="14.00">WAS THE BREACH FAILING TO RETURN ON TIME</text>
</g>
<!-- 44358&#45;&gt;END_NODE -->
<g id="edge10" class="edge">
<title>44358&#45;&gt;END_NODE</title>
<path fill="none" stroke="black" d="M6887.09,-370.8C7003.75,-221.31 7192.66,-36.42 7413.52,-36.42 7413.52,-36.42 7413.52,-36.42 8912.77,-36.42 9075.27,-36.42 9160.55,56.98 9277.89,-55.42 9347,-121.63 9367.15,-815.16 9371.33,-1000.89"/>
<polygon fill="black" stroke="black" points="9367.82,-1000.69 9371.54,-1010.61 9374.82,-1000.54 9367.82,-1000.69"/>
<text text-anchor="middle" x="8036.79" y="-39.62" font-family="Times,serif" font-size="14.00">YES</text>
</g>
<!-- 44358&#45;&gt;44351 -->
<g id="edge11" class="edge">
<title>44358&#45;&gt;44351</title>
<path fill="none" stroke="black" d="M6986.24,-557.42C7036.73,-557.42 7090.84,-557.42 7143,-557.42"/>
<polygon fill="black" stroke="black" points="7142.94,-560.92 7152.94,-557.42 7142.94,-553.92 7142.94,-560.92"/>
<text text-anchor="middle" x="7091.87" y="-560.62" font-family="Times,serif" font-size="14.00">NO</text>
</g>
<!-- 44459 -->
<g id="node15" class="node">
<title>44459</title>
<ellipse fill="#dddddd" stroke="#dddddd" cx="2737.62" cy="-787.42" rx="231.51" ry="231.51"/>
<text text-anchor="middle" x="2737.62" y="-782.37" font-family="Times,serif" font-size="14.00">IS THERE ANY MEDIA INTEREST IN THIS INCIDENT</text>
</g>
<!-- 44736 -->
<g id="node16" class="node">
<title>44736</title>
<ellipse fill="#dddddd" stroke="#dddddd" cx="3297.96" cy="-787.42" rx="267.33" ry="267.33"/>
<text text-anchor="middle" x="3297.96" y="-782.37" font-family="Times,serif" font-size="14.00">HAS THE PRISON SERVICE PRESS OFFICE BEEN INFORMED</text>
</g>
<!-- 44459&#45;&gt;44736 -->
<g id="edge12" class="edge">
<title>44459&#45;&gt;44736</title>
<path fill="none" stroke="black" d="M2969.35,-787.42C2985.69,-787.42 3002.26,-787.42 3018.83,-787.42"/>
<polygon fill="black" stroke="black" points="3018.78,-790.92 3028.78,-787.42 3018.78,-783.92 3018.78,-790.92"/>
<text text-anchor="middle" x="2999.88" y="-790.62" font-family="Times,serif" font-size="14.00">YES</text>
</g>
<!-- 44459&#45;&gt;44736 -->
<g id="edge13" class="edge">
<title>44459&#45;&gt;44736</title>
<path fill="none" stroke="black" d="M2968.75,-767.77C2974.94,-767.46 2981.07,-767.17 2987.13,-766.92 2997.82,-766.48 3008.72,-766.24 3019.73,-766.15"/>
<polygon fill="black" stroke="black" points="3019.73,-769.65 3029.72,-766.13 3019.71,-762.65 3019.73,-769.65"/>
<text text-anchor="middle" x="2999.88" y="-770.12" font-family="Times,serif" font-size="14.00">NO</text>
</g>
<!-- 44942 -->
<g id="node17" class="node">
<title>44942</title>
<ellipse fill="#dddddd" stroke="#dddddd" cx="3819.41" cy="-787.42" rx="192.61" ry="192.61"/>
<text text-anchor="middle" x="3819.41" y="-782.37" font-family="Times,serif" font-size="14.00">WHAT TYPE OF LICENCE WAS BREACHED</text>
</g>
<!-- 44736&#45;&gt;44942 -->
<g id="edge28" class="edge">
<title>44736&#45;&gt;44942</title>
<path fill="none" stroke="black" d="M3565.53,-787.42C3582.23,-787.42 3598.89,-787.42 3615.24,-787.42"/>
<polygon fill="black" stroke="black" points="3614.99,-790.92 3624.99,-787.42 3614.99,-783.92 3614.99,-790.92"/>
<text text-anchor="middle" x="3596.05" y="-790.62" font-family="Times,serif" font-size="14.00">YES</text>
</g>
<!-- 44736&#45;&gt;44942 -->
<g id="edge29" class="edge">
<title>44736&#45;&gt;44942</title>
<path fill="none" stroke="black" d="M3564.71,-765.86C3579.62,-765.89 3594.4,-766.22 3608.8,-766.92 3611.19,-767.04 3613.59,-767.17 3616.01,-767.3"/>
<polygon fill="black" stroke="black" points="3615.71,-770.78 3625.89,-767.87 3616.11,-763.8 3615.71,-770.78"/>
<text text-anchor="middle" x="3596.05" y="-770.12" font-family="Times,serif" font-size="14.00">NO</text>
</g>
<!-- 45081 -->
<g id="node21" class="node">
<title>45081</title>
<ellipse fill="#dddddd" stroke="#dddddd" cx="4490.29" cy="-787.42" rx="318.52" ry="318.52"/>
<text text-anchor="middle" x="4490.29" y="-782.37" font-family="Times,serif" font-size="14.00">WAS THE BREACH FAILING TO RETURN REPORTED TO POLICE AS UAL</text>
</g>
<!-- 44942&#45;&gt;45081 -->
<g id="edge52" class="edge">
<title>44942&#45;&gt;45081</title>
<path fill="none" stroke="black" d="M4009.02,-823.24C4016.09,-824.07 4023.11,-824.8 4030.02,-825.42 4072.9,-829.28 4118.05,-829.84 4162.62,-828.31"/>
<polygon fill="black" stroke="black" points="4162.56,-831.81 4172.42,-827.93 4162.29,-824.82 4162.56,-831.81"/>
<text text-anchor="middle" x="4091.89" y="-832.3" font-family="Times,serif" font-size="14.00">COMPASSIONATE</text>
</g>
<!-- 44942&#45;&gt;45081 -->
<g id="edge53" class="edge">
<title>44942&#45;&gt;45081</title>
<path fill="none" stroke="black" d="M4012.08,-787.42C4058.38,-787.42 4109.17,-787.42 4159.81,-787.42"/>
<polygon fill="black" stroke="black" points="4159.78,-790.92 4169.78,-787.42 4159.78,-783.92 4159.78,-790.92"/>
<text text-anchor="middle" x="4091.89" y="-790.62" font-family="Times,serif" font-size="14.00">FACILITY</text>
</g>
<!-- 44942&#45;&gt;45081 -->
<g id="edge54" class="edge">
<title>44942&#45;&gt;45081</title>
<path fill="none" stroke="black" d="M4011.42,-767.96C4017.69,-767.57 4023.9,-767.22 4030.02,-766.92 4072.28,-764.86 4116.73,-764.53 4160.65,-765.31"/>
<polygon fill="black" stroke="black" points="4160.53,-768.81 4170.59,-765.51 4160.67,-761.81 4160.53,-768.81"/>
<text text-anchor="middle" x="4091.89" y="-770.12" font-family="Times,serif" font-size="14.00">RESETTLEMENT</text>
</g>
<!-- 44942&#45;&gt;45081 -->
<g id="edge55" class="edge">
<title>44942&#45;&gt;45081</title>
<path fill="none" stroke="black" d="M4008.11,-747.48C4015.49,-746.51 4022.82,-745.65 4030.02,-744.92 4073.08,-740.6 4118.43,-740 4163.18,-741.74"/>
<polygon fill="black" stroke="black" points="4162.89,-745.23 4173.03,-742.17 4163.19,-738.24 4162.89,-745.23"/>
<text text-anchor="middle" x="4091.89" y="-748.12" font-family="Times,serif" font-size="14.00">COMMUNITY VISIT</text>
</g>
<!-- 44826 -->
<g id="node18" class="node">
<title>44826</title>
<ellipse fill="#dddddd" stroke="#dddddd" cx="5036.3" cy="-1327.42" rx="166" ry="166"/>
<text text-anchor="middle" x="5036.3" y="-1322.37" font-family="Times,serif" font-size="14.00">HAS PRISONER BEEN RECAPTURED</text>
</g>
<!-- 44826&#45;&gt;END_NODE -->
<g id="edge33" class="edge">
<title>44826&#45;&gt;END_NODE</title>
<path fill="none" stroke="black" d="M5126.92,-1466.44C5200.2,-1561.52 5313.36,-1670.42 5447.21,-1670.42 5447.21,-1670.42 5447.21,-1670.42 8912.77,-1670.42 9075.4,-1670.42 9157.82,-1756.11 9277.89,-1646.42 9359.33,-1572.03 9370.67,-1218.49 9372.1,-1091.76"/>
<polygon fill="black" stroke="black" points="9375.6,-1092.11 9372.19,-1082.08 9368.6,-1092.05 9375.6,-1092.11"/>
<text text-anchor="middle" x="7091.87" y="-1673.62" font-family="Times,serif" font-size="14.00">NO</text>
</g>
<!-- 44997 -->
<g id="node19" class="node">
<title>44997</title>
<ellipse fill="#dddddd" stroke="#dddddd" cx="5448.21" cy="-1327.42" rx="184.42" ry="184.42"/>
<text text-anchor="middle" x="5448.21" y="-1322.37" font-family="Times,serif" font-size="14.00">HOW WAS THE PRISONER RECAPTURED</text>
</g>
<!-- 44826&#45;&gt;44997 -->
<g id="edge32" class="edge">
<title>44826&#45;&gt;44997</title>
<path fill="none" stroke="black" d="M5202.55,-1327.42C5218.81,-1327.42 5235.41,-1327.42 5251.93,-1327.42"/>
<polygon fill="black" stroke="black" points="5251.84,-1330.92 5261.84,-1327.42 5251.84,-1323.92 5251.84,-1330.92"/>
<text text-anchor="middle" x="5233.04" y="-1330.62" font-family="Times,serif" font-size="14.00">YES</text>
</g>
<!-- 44997&#45;&gt;44259 -->
<g id="edge56" class="edge">
<title>44997&#45;&gt;44259</title>
<path fill="none" stroke="black" d="M5629.62,-1363.14C5636.7,-1364.01 5643.73,-1364.78 5650.64,-1365.42 5701.01,-1370.13 5754.54,-1370.15 5806.54,-1367.51"/>
<polygon fill="black" stroke="black" points="5806.66,-1371.01 5816.45,-1366.97 5806.28,-1364.02 5806.66,-1371.01"/>
<text text-anchor="middle" x="5724.14" y="-1372.48" font-family="Times,serif" font-size="14.00">POLICE ARREST</text>
</g>
<!-- 44997&#45;&gt;44259 -->
<g id="edge57" class="edge">
<title>44997&#45;&gt;44259</title>
<path fill="none" stroke="black" d="M5632.75,-1327.42C5686.01,-1327.42 5745.63,-1327.42 5804.14,-1327.42"/>
<polygon fill="black" stroke="black" points="5803.92,-1330.92 5813.92,-1327.42 5803.92,-1323.92 5803.92,-1330.92"/>
<text text-anchor="middle" x="5724.14" y="-1330.62" font-family="Times,serif" font-size="14.00">PRISON STAFF ARREST</text>
</g>
<!-- 44997&#45;&gt;44259 -->
<g id="edge58" class="edge">
<title>44997&#45;&gt;44259</title>
<path fill="none" stroke="black" d="M5631.94,-1308.01C5638.25,-1307.6 5644.49,-1307.24 5650.64,-1306.92 5700.49,-1304.39 5753.42,-1304.35 5804.88,-1305.72"/>
<polygon fill="black" stroke="black" points="5804.58,-1309.22 5814.68,-1306.01 5804.78,-1302.22 5804.58,-1309.22"/>
<text text-anchor="middle" x="5724.14" y="-1310.12" font-family="Times,serif" font-size="14.00">SURRENDER</text>
</g>
<!-- 44997&#45;&gt;44259 -->
<g id="edge59" class="edge">
<title>44997&#45;&gt;44259</title>
<path fill="none" stroke="black" d="M5628.45,-1286.69C5635.93,-1285.64 5643.34,-1284.7 5650.64,-1283.92 5701.27,-1278.52 5755.11,-1278.54 5807.38,-1281.61"/>
<polygon fill="black" stroke="black" points="5807.15,-1285.11 5817.35,-1282.24 5807.59,-1278.12 5807.15,-1285.11"/>
<text text-anchor="middle" x="5724.14" y="-1287.12" font-family="Times,serif" font-size="14.00">OTHER</text>
</g>
<!-- 44926&#45;&gt;44459 -->
<g id="edge38" class="edge">
<title>44926&#45;&gt;44459</title>
<path fill="none" stroke="black" d="M2444.84,-787.42C2461.47,-787.42 2478.14,-787.42 2494.62,-787.42"/>
<polygon fill="black" stroke="black" points="2494.48,-790.92 2504.48,-787.42 2494.48,-783.92 2494.48,-790.92"/>
<text text-anchor="middle" x="2475.36" y="-790.62" font-family="Times,serif" font-size="14.00">YES</text>
</g>
<!-- 44926&#45;&gt;44459 -->
<g id="edge39" class="edge">
<title>44926&#45;&gt;44459</title>
<path fill="none" stroke="black" d="M2444.28,-766.07C2459.11,-766.07 2473.79,-766.33 2488.11,-766.92 2490.48,-767.02 2492.86,-767.12 2495.25,-767.23"/>
<polygon fill="black" stroke="black" points="2494.83,-770.72 2504.98,-767.7 2495.16,-763.72 2494.83,-770.72"/>
<text text-anchor="middle" x="2475.36" y="-770.12" font-family="Times,serif" font-size="14.00">NO</text>
</g>
<!-- 45081&#45;&gt;44358 -->
<g id="edge61" class="edge">
<title>45081&#45;&gt;44358</title>
<path fill="none" stroke="black" d="M4808.75,-774.95C4883.07,-772.9 4961.95,-771.42 5035.3,-771.42 5035.3,-771.42 5035.3,-771.42 6108.54,-771.42 6261.39,-771.42 6424.79,-717.6 6549.71,-663.93"/>
<polygon fill="black" stroke="black" points="6550.98,-667.2 6558.77,-660.01 6548.2,-660.78 6550.98,-667.2"/>
<text text-anchor="middle" x="5448.21" y="-774.62" font-family="Times,serif" font-size="14.00">NO</text>
</g>
<!-- 45081&#45;&gt;44826 -->
<g id="edge60" class="edge">
<title>45081&#45;&gt;44826</title>
<path fill="none" stroke="black" d="M4716.88,-1011.35C4782.86,-1076.85 4852.6,-1146.07 4909.93,-1202.98"/>
<polygon fill="black" stroke="black" points="4907.3,-1205.3 4916.86,-1209.87 4912.23,-1200.34 4907.3,-1205.3"/>
<text text-anchor="middle" x="4839.55" y="-1140.54" font-family="Times,serif" font-size="14.00">YES</text>
</g>
</g>
</svg>
