<?xml version="1.0" encoding="UTF-8" standalone="no"?>
<!DOCTYPE svg PUBLIC "-//W3C//DTD SVG 1.1//EN"
 "http://www.w3.org/Graphics/SVG/1.1/DTD/svg11.dtd">
<!-- Generated by graphviz version 12.1.1 (20240910.0053)
 -->
<!-- Title: OLD_ASSAULT1 Pages: 1 -->
<svg width="1596pt" height="10973pt"
 viewBox="0.00 0.00 1596.18 10972.81" xmlns="http://www.w3.org/2000/svg" xmlns:xlink="http://www.w3.org/1999/xlink">
<g id="graph0" class="graph" transform="scale(1 1) rotate(0) translate(4 10968.81)">
<title>OLD_ASSAULT1</title>
<polygon fill="white" stroke="none" points="-4,4 -4,-10968.81 1592.18,-10968.81 1592.18,4 -4,4"/>
<!-- START_NODE -->
<g id="node1" class="node">
<title>START_NODE</title>
</g>
<!-- 61179 -->
<g id="node2" class="node">
<title>61179</title>
<ellipse fill="#dddddd" stroke="#dddddd" cx="344.76" cy="-10733.3" rx="231.51" ry="231.51"/>
<text text-anchor="middle" x="344.76" y="-10728.25" font-family="Times,serif" font-size="14.00">What was the main management outcome of this incident?</text>
</g>
<!-- START_NODE&#45;&gt;61179 -->
<g id="edge1" class="edge">
<title>START_NODE&#45;&gt;61179</title>
<path fill="none" stroke="black" d="M53.84,-10733.3C66.46,-10733.3 82.98,-10733.3 101.73,-10733.3"/>
<polygon fill="black" stroke="black" points="101.5,-10736.8 111.5,-10733.3 101.5,-10729.8 101.5,-10736.8"/>
<text text-anchor="middle" x="83.62" y="-10736.5" font-family="Times,serif" font-size="14.00">start</text>
</g>
<!-- 61180 -->
<g id="node4" class="node">
<title>61180</title>
<ellipse fill="#dddddd" stroke="#dddddd" cx="1143.24" cy="-10733.3" rx="202.85" ry="202.85"/>
<text text-anchor="middle" x="1143.24" y="-10728.25" font-family="Times,serif" font-size="14.00">Is any member of staff facing disciplinary charges?</text>
</g>
<!-- 61179&#45;&gt;61180 -->
<g id="edge2" class="edge">
<title>61179&#45;&gt;61180</title>
<path fill="none" stroke="#dddddd" d="M573.78,-10769.54C580.68,-10770.2 587.52,-10770.79 594.27,-10771.3 705.28,-10779.74 829.01,-10772.58 930.76,-10762.29"/>
<polygon fill="#dddddd" stroke="#dddddd" points="931.02,-10765.79 940.61,-10761.28 930.3,-10758.82 931.02,-10765.79"/>
<text text-anchor="middle" x="695.89" y="-10778.23" font-family="Times,serif" font-size="14.00">No further action</text>
</g>
<!-- 61179&#45;&gt;61180 -->
<g id="edge3" class="edge">
<title>61179&#45;&gt;61180</title>
<path fill="none" stroke="#dddddd" d="M576.67,-10733.3C687.7,-10733.3 819.94,-10733.3 928.62,-10733.3"/>
<polygon fill="#dddddd" stroke="#dddddd" points="928.55,-10736.8 938.55,-10733.3 928.55,-10729.8 928.55,-10736.8"/>
<text text-anchor="middle" x="695.89" y="-10736.5" font-family="Times,serif" font-size="14.00">IEP regression</text>
</g>
<!-- 61179&#45;&gt;61180 -->
<g id="edge4" class="edge">
<title>61179&#45;&gt;61180</title>
<path fill="none" stroke="#dddddd" d="M575.88,-10713.65C582.07,-10713.34 588.21,-10713.05 594.27,-10712.8 704.74,-10708.25 827.77,-10712.05 929.22,-10717.56"/>
<polygon fill="#dddddd" stroke="#dddddd" points="928.85,-10721.05 939.02,-10718.1 929.23,-10714.06 928.85,-10721.05"/>
<text text-anchor="middle" x="695.89" y="-10716" font-family="Times,serif" font-size="14.00">Placed on report/adjudication referral</text>
</g>
<!-- 61179&#45;&gt;61180 -->
<g id="edge5" class="edge">
<title>61179&#45;&gt;61180</title>
<path fill="none" stroke="#dddddd" d="M572.73,-10691.93C579.98,-10691.13 587.17,-10690.42 594.27,-10689.8 705.38,-10680.15 829.25,-10688.38 931.07,-10700.17"/>
<polygon fill="#dddddd" stroke="#dddddd" points="930.58,-10703.64 940.92,-10701.33 931.4,-10696.69 930.58,-10703.64"/>
<text text-anchor="middle" x="695.89" y="-10693" font-family="Times,serif" font-size="14.00">Police referral</text>
</g>
<!-- END_NODE -->
<g id="node3" class="node">
<title>END_NODE</title>
<ellipse fill="none" stroke="black" cx="1554.33" cy="-5739.3" rx="29.86" ry="29.86"/>
<ellipse fill="none" stroke="black" cx="1554.33" cy="-5739.3" rx="33.86" ry="33.86"/>
<text text-anchor="middle" x="1554.33" y="-5734.25" font-family="Times,serif" font-size="14.00">END</text>
</g>
<!-- 61180&#45;&gt;END_NODE -->
<g id="edge6" class="edge">
<title>61180&#45;&gt;END_NODE</title>
<path fill="none" stroke="#dddddd" d="M1329.8,-10653.44C1384.19,-10620.78 1437.89,-10577.46 1470.97,-10522.3 1557.68,-10377.73 1494.49,-10312.7 1502.47,-10144.3 1545.66,-9232.73 1552.52,-6192.68 1553.25,-5784.72"/>
<polygon fill="#dddddd" stroke="#dddddd" points="1556.75,-5784.94 1553.27,-5774.93 1549.75,-5784.93 1556.75,-5784.94"/>
<text text-anchor="middle" x="1495.72" y="-10492.24" font-family="Times,serif" font-size="14.00">no</text>
</g>
<!-- 61181 -->
<g id="node5" class="node">
<title>61181</title>
<ellipse fill="#dddddd" stroke="#dddddd" cx="1143.24" cy="-10341.3" rx="171.63" ry="171.63"/>
<text text-anchor="middle" x="1143.24" y="-10336.25" font-family="Times,serif" font-size="14.00">Is there any media interest in this incident?</text>
</g>
<!-- 61181&#45;&gt;END_NODE -->
<g id="edge7" class="edge">
<title>61181&#45;&gt;END_NODE</title>
<path fill="none" stroke="#dddddd" d="M1307.32,-10289.62C1368.89,-10261.62 1433.14,-10220.33 1470.97,-10161.3 1575.08,-9998.85 1494.24,-9921.08 1502.47,-9728.3 1537.6,-8905.82 1551.34,-6171.08 1553.12,-5784.81"/>
<polygon fill="#dddddd" stroke="#dddddd" points="1556.62,-5785.1 1553.17,-5775.08 1549.62,-5785.07 1556.62,-5785.1"/>
<text text-anchor="middle" x="1495.72" y="-10127.04" font-family="Times,serif" font-size="14.00">n</text>
</g>
<!-- 61182 -->
<g id="node6" class="node">
<title>61182</title>
<ellipse fill="#dddddd" stroke="#dddddd" cx="1143.24" cy="-9952.3" rx="199.78" ry="199.78"/>
<text text-anchor="middle" x="1143.24" y="-9947.25" font-family="Times,serif" font-size="14.00">Has the prison service press office been informed?</text>
</g>
<!-- 61182&#45;&gt;END_NODE -->
<g id="edge8" class="edge">
<title>61182&#45;&gt;END_NODE</title>
<path fill="none" stroke="#dddddd" d="M1327.71,-9874.91C1382.66,-9842.62 1437.22,-9799.52 1470.97,-9744.3 1549.2,-9616.33 1494.43,-9558.08 1502.47,-9408.3 1542.95,-8654.73 1552.06,-6153.35 1553.2,-5784.82"/>
<polygon fill="#dddddd" stroke="#dddddd" points="1556.7,-5785.09 1553.23,-5775.08 1549.7,-5785.07 1556.7,-5785.09"/>
<text text-anchor="middle" x="1495.72" y="-9711.04" font-family="Times,serif" font-size="14.00">n</text>
</g>
<!-- 61183 -->
<g id="node7" class="node">
<title>61183</title>
<ellipse fill="#dddddd" stroke="#dddddd" cx="1143.24" cy="-9583.3" rx="151.67" ry="151.67"/>
<text text-anchor="middle" x="1143.24" y="-9578.25" font-family="Times,serif" font-size="14.00">Is the location of the incident known?</text>
</g>
<!-- 61183&#45;&gt;END_NODE -->
<g id="edge9" class="edge">
<title>61183&#45;&gt;END_NODE</title>
<path fill="none" stroke="black" d="M1290.63,-9547.1C1356.51,-9523.08 1428.8,-9484.37 1470.97,-9423.3 1556.21,-9299.89 1494.33,-9237.07 1502.47,-9087.3 1539.72,-8402.33 1551.51,-6134.77 1553.13,-5784.83"/>
<polygon fill="black" stroke="black" points="1556.63,-5784.95 1553.17,-5774.93 1549.63,-5784.92 1556.63,-5784.95"/>
<text text-anchor="middle" x="1495.72" y="-9391.15" font-family="Times,serif" font-size="14.00">n</text>
</g>
<!-- 61184 -->
<g id="node8" class="node">
<title>61184</title>
<ellipse fill="#dddddd" stroke="#dddddd" cx="1143.24" cy="-9259.3" rx="154.74" ry="154.74"/>
<text text-anchor="middle" x="1143.24" y="-9254.25" font-family="Times,serif" font-size="14.00">What was the location of the incident?</text>
</g>
<!-- 61184&#45;&gt;END_NODE -->
<g id="edge10" class="edge">
<title>61184&#45;&gt;END_NODE</title>
<path fill="none" stroke="#dddddd" d="M1293.04,-9219.77C1357.8,-9194.91 1428.46,-9155.91 1470.97,-9096.3 1533.18,-9009.08 1494.58,-8964.15 1502.47,-8857.3 1549.35,-8222.15 1553.02,-6120.85 1553.3,-5784.81"/>
<polygon fill="#dddddd" stroke="#dddddd" points="1556.8,-5784.9 1553.31,-5774.9 1549.8,-5784.89 1556.8,-5784.9"/>
<text text-anchor="middle" x="1495.72" y="-9069.75" font-family="Times,serif" font-size="14.00">n</text>
</g>
<!-- 61185 -->
<g id="node9" class="node">
<title>61185</title>
<ellipse fill="#dddddd" stroke="#dddddd" cx="1143.24" cy="-8979.3" rx="107.65" ry="107.65"/>
<text text-anchor="middle" x="1143.24" y="-8974.25" font-family="Times,serif" font-size="14.00">Was this a sexual assault?</text>
</g>
<!-- 61185&#45;&gt;END_NODE -->
<g id="edge11" class="edge">
<title>61185&#45;&gt;END_NODE</title>
<path fill="none" stroke="#dddddd" d="M1250.78,-8970.66C1324.57,-8958.68 1418.62,-8930.3 1470.97,-8863.3 1560.05,-8749.3 1494.15,-8683.74 1502.47,-8539.3 1535.2,-7971.12 1550.6,-6100.44 1552.99,-5784.74"/>
<polygon fill="#dddddd" stroke="#dddddd" points="1556.49,-5784.88 1553.07,-5774.85 1549.49,-5784.82 1556.49,-5784.88"/>
<text text-anchor="middle" x="1495.72" y="-8840.01" font-family="Times,serif" font-size="14.00">n</text>
</g>
<!-- 61186 -->
<g id="node10" class="node">
<title>61186</title>
<ellipse fill="#dddddd" stroke="#dddddd" cx="1143.24" cy="-8707.3" rx="146.55" ry="146.55"/>
<text text-anchor="middle" x="1143.24" y="-8702.25" font-family="Times,serif" font-size="14.00">Did the assault occur during a fight?</text>
</g>
<!-- 61186&#45;&gt;END_NODE -->
<g id="edge12" class="edge">
<title>61186&#45;&gt;END_NODE</title>
<path fill="none" stroke="#dddddd" d="M1286.06,-8673.72C1352.73,-8650.51 1427.05,-8612.44 1470.97,-8551.3 1538.88,-8456.77 1494.3,-8407.42 1502.47,-8291.3 1538.71,-7776.29 1551.11,-6084.55 1553.05,-5784.88"/>
<polygon fill="#dddddd" stroke="#dddddd" points="1556.55,-5785.16 1553.11,-5775.14 1549.55,-5785.12 1556.55,-5785.16"/>
<text text-anchor="middle" x="1495.72" y="-8522.23" font-family="Times,serif" font-size="14.00">n</text>
</g>
<!-- 61187 -->
<g id="node11" class="node">
<title>61187</title>
<ellipse fill="#dddddd" stroke="#dddddd" cx="1143.24" cy="-8426.3" rx="116.35" ry="116.35"/>
<text text-anchor="middle" x="1143.24" y="-8421.25" font-family="Times,serif" font-size="14.00">What type of assault was it?</text>
</g>
<!-- 61187&#45;&gt;END_NODE -->
<g id="edge13" class="edge">
<title>61187&#45;&gt;END_NODE</title>
<path fill="none" stroke="#dddddd" d="M1259.14,-8412.83C1331.58,-8397.98 1420.64,-8366.8 1470.97,-8301.3 1552.39,-8195.35 1493.96,-8135.66 1502.47,-8002.3 1531.44,-7548.25 1549.61,-6064.21 1552.82,-5784.87"/>
<polygon fill="#dddddd" stroke="#dddddd" points="1556.31,-5785.13 1552.93,-5775.09 1549.31,-5785.05 1556.31,-5785.13"/>
<text text-anchor="middle" x="1495.72" y="-8273.98" font-family="Times,serif" font-size="14.00">n</text>
</g>
<!-- 61188 -->
<g id="node12" class="node">
<title>61188</title>
<ellipse fill="#dddddd" stroke="#dddddd" cx="1143.24" cy="-8186.3" rx="106.11" ry="106.11"/>
<text text-anchor="middle" x="1143.24" y="-8181.25" font-family="Times,serif" font-size="14.00">Were any staff assaulted?</text>
</g>
<!-- 61188&#45;&gt;END_NODE -->
<g id="edge14" class="edge">
<title>61188&#45;&gt;END_NODE</title>
<path fill="none" stroke="#dddddd" d="M1249.35,-8178C1323.19,-8166.28 1417.91,-8138.21 1470.97,-8071.3 1544.67,-7978.36 1552.45,-6103.13 1553.24,-5784.98"/>
<polygon fill="#dddddd" stroke="#dddddd" points="1556.74,-5785.01 1553.26,-5775 1549.74,-5784.99 1556.74,-5785.01"/>
<text text-anchor="middle" x="1495.72" y="-7984.52" font-family="Times,serif" font-size="14.00">n</text>
</g>
<!-- 61189 -->
<g id="node13" class="node">
<title>61189</title>
<ellipse fill="#dddddd" stroke="#dddddd" cx="1143.24" cy="-7957.3" rx="105.09" ry="105.09"/>
<text text-anchor="middle" x="1143.24" y="-7952.25" font-family="Times,serif" font-size="14.00">Describe the type of staff</text>
</g>
<!-- 61189&#45;&gt;END_NODE -->
<g id="edge15" class="edge">
<title>61189&#45;&gt;END_NODE</title>
<path fill="none" stroke="#dddddd" d="M1248.24,-7949.95C1322.53,-7938.79 1418.31,-7911.18 1470.97,-7843.3 1536.28,-7759.14 1550.94,-6083.32 1553.04,-5784.64"/>
<polygon fill="#dddddd" stroke="#dddddd" points="1556.53,-5784.95 1553.1,-5774.93 1549.53,-5784.91 1556.53,-5784.95"/>
<text text-anchor="middle" x="1495.72" y="-7765.13" font-family="Times,serif" font-size="14.00">n</text>
</g>
<!-- 61190 -->
<g id="node14" class="node">
<title>61190</title>
<ellipse fill="#dddddd" stroke="#dddddd" cx="1143.24" cy="-7695.3" rx="138.87" ry="138.87"/>
<text text-anchor="middle" x="1143.24" y="-7690.25" font-family="Times,serif" font-size="14.00">Was spitting used in this incident?</text>
</g>
<!-- 61190&#45;&gt;END_NODE -->
<g id="edge16" class="edge">
<title>61190&#45;&gt;END_NODE</title>
<path fill="none" stroke="#dddddd" d="M1279.88,-7669.08C1349.02,-7648.25 1427.48,-7611.49 1470.97,-7547.3 1521.9,-7472.13 1548.01,-6058.22 1552.59,-5784.84"/>
<polygon fill="#dddddd" stroke="#dddddd" points="1556.09,-5784.99 1552.76,-5774.93 1549.09,-5784.87 1556.09,-5784.99"/>
<text text-anchor="middle" x="1495.72" y="-7455.44" font-family="Times,serif" font-size="14.00">n</text>
</g>
<!-- 61191 -->
<g id="node15" class="node">
<title>61191</title>
<ellipse fill="#dddddd" stroke="#dddddd" cx="1143.24" cy="-7210.3" rx="327.73" ry="327.73"/>
<text text-anchor="middle" x="1143.24" y="-7205.25" font-family="Times,serif" font-size="14.00">Is the assailant known to have an infectious disease that can be transmitted in saliva?</text>
</g>
<!-- 61191&#45;&gt;END_NODE -->
<g id="edge17" class="edge">
<title>61191&#45;&gt;END_NODE</title>
<path fill="none" stroke="#dddddd" d="M1391.98,-6996.7C1423.36,-6958.73 1451.31,-6917.18 1470.97,-6873.3 1516.05,-6772.68 1545.18,-5983.85 1551.86,-5784.8"/>
<polygon fill="#dddddd" stroke="#dddddd" points="1555.35,-5784.97 1552.19,-5774.86 1548.36,-5784.74 1555.35,-5784.97"/>
<text text-anchor="middle" x="1495.72" y="-6780.23" font-family="Times,serif" font-size="14.00">n</text>
</g>
<!-- 61192 -->
<g id="node16" class="node">
<title>61192</title>
<ellipse fill="#dddddd" stroke="#dddddd" cx="1143.24" cy="-6647.3" rx="217.18" ry="217.18"/>
<text text-anchor="middle" x="1143.24" y="-6642.25" font-family="Times,serif" font-size="14.00">Did the saliva hit the body or clothing of the victim(s)?</text>
</g>
<!-- 61192&#45;&gt;END_NODE -->
<g id="edge18" class="edge">
<title>61192&#45;&gt;END_NODE</title>
<path fill="none" stroke="#dddddd" d="M1337.75,-6549.69C1388.34,-6515.35 1437.91,-6472.13 1470.97,-6420.3 1538.59,-6314.32 1550.69,-5919.96 1552.86,-5784.97"/>
<polygon fill="#dddddd" stroke="#dddddd" points="1556.36,-5785.03 1553,-5774.98 1549.36,-5784.93 1556.36,-5785.03"/>
<text text-anchor="middle" x="1495.72" y="-6385.02" font-family="Times,serif" font-size="14.00">n</text>
</g>
<!-- 61193 -->
<g id="node17" class="node">
<title>61193</title>
<ellipse fill="#dddddd" stroke="#dddddd" cx="1143.24" cy="-6337.3" rx="74.38" ry="74.38"/>
<text text-anchor="middle" x="1143.24" y="-6332.25" font-family="Times,serif" font-size="14.00">Where did it hit?</text>
</g>
<!-- 61193&#45;&gt;END_NODE -->
<g id="edge19" class="edge">
<title>61193&#45;&gt;END_NODE</title>
<path fill="none" stroke="#dddddd" d="M1217.83,-6340.27C1292.82,-6338.99 1406.92,-6324.41 1470.97,-6254.3 1533.5,-6185.87 1548.69,-5897.45 1552.26,-5784.73"/>
<polygon fill="#dddddd" stroke="#dddddd" points="1555.76,-5785.05 1552.56,-5774.95 1548.76,-5784.84 1555.76,-5785.05"/>
<text text-anchor="middle" x="1495.72" y="-6222.29" font-family="Times,serif" font-size="14.00">n</text>
</g>
<!-- 61194 -->
<g id="node18" class="node">
<title>61194</title>
<ellipse fill="#dddddd" stroke="#dddddd" cx="1143.24" cy="-6140.3" rx="105.09" ry="105.09"/>
<text text-anchor="middle" x="1143.24" y="-6135.25" font-family="Times,serif" font-size="14.00">Were any weapons used?</text>
</g>
<!-- 61194&#45;&gt;END_NODE -->
<g id="edge20" class="edge">
<title>61194&#45;&gt;END_NODE</title>
<path fill="none" stroke="#dddddd" d="M1247.96,-6129.16C1319.91,-6116.09 1412.88,-6087.75 1470.97,-6026.3 1534.2,-5959.42 1549.34,-5847.25 1552.68,-5784.79"/>
<polygon fill="#dddddd" stroke="#dddddd" points="1556.17,-5785.02 1553.12,-5774.87 1549.18,-5784.71 1556.17,-5785.02"/>
<text text-anchor="middle" x="1495.72" y="-6004.7" font-family="Times,serif" font-size="14.00">n</text>
</g>
<!-- 61195 -->
<g id="node19" class="node">
<title>61195</title>
<ellipse fill="#dddddd" stroke="#dddddd" cx="1143.24" cy="-5901.3" rx="115.84" ry="115.84"/>
<text text-anchor="middle" x="1143.24" y="-5896.25" font-family="Times,serif" font-size="14.00">Describe the weapons used?</text>
</g>
<!-- 61195&#45;&gt;END_NODE -->
<g id="edge21" class="edge">
<title>61195&#45;&gt;END_NODE</title>
<path fill="none" stroke="#dddddd" d="M1252.79,-5862.26C1316.73,-5838.73 1398.95,-5807.54 1470.97,-5777.3 1484.83,-5771.48 1499.81,-5764.72 1513.14,-5758.52"/>
<polygon fill="#dddddd" stroke="#dddddd" points="1514.49,-5761.76 1522.06,-5754.35 1511.52,-5755.42 1514.49,-5761.76"/>
<text text-anchor="middle" x="1495.72" y="-5772.61" font-family="Times,serif" font-size="14.00">n</text>
</g>
<!-- 61196 -->
<g id="node20" class="node">
<title>61196</title>
<ellipse fill="#dddddd" stroke="#dddddd" cx="1143.24" cy="-5578.3" rx="189.54" ry="189.54"/>
<text text-anchor="middle" x="1143.24" y="-5573.25" font-family="Times,serif" font-size="14.00">Were any injuries received during this incident?</text>
</g>
<!-- 61196&#45;&gt;END_NODE -->
<g id="edge22" class="edge">
<title>61196&#45;&gt;END_NODE</title>
<path fill="none" stroke="#dddddd" d="M1320.11,-5647.52C1390.93,-5675.39 1466.43,-5705.1 1511.73,-5722.93"/>
<polygon fill="#dddddd" stroke="#dddddd" points="1510.31,-5726.14 1520.9,-5726.54 1512.87,-5719.62 1510.31,-5726.14"/>
<text text-anchor="middle" x="1495.72" y="-5719.13" font-family="Times,serif" font-size="14.00">n</text>
</g>
<!-- 61197 -->
<g id="node21" class="node">
<title>61197</title>
<ellipse fill="#dddddd" stroke="#dddddd" cx="1143.24" cy="-5220.3" rx="150.13" ry="150.13"/>
<text text-anchor="middle" x="1143.24" y="-5215.25" font-family="Times,serif" font-size="14.00">Enter description of person(s) injured</text>
</g>
<!-- 61197&#45;&gt;END_NODE -->
<g id="edge23" class="edge">
<title>61197&#45;&gt;END_NODE</title>
<path fill="none" stroke="#dddddd" d="M1288.42,-5259.07C1353.17,-5283.5 1425.16,-5321.64 1470.97,-5379.3 1509.54,-5427.85 1536.84,-5608.51 1547.88,-5693.96"/>
<polygon fill="#dddddd" stroke="#dddddd" points="1544.41,-5694.39 1549.14,-5703.86 1551.35,-5693.5 1544.41,-5694.39"/>
<text text-anchor="middle" x="1495.72" y="-5452.91" font-family="Times,serif" font-size="14.00">n</text>
</g>
<!-- 61198 -->
<g id="node22" class="node">
<title>61198</title>
<ellipse fill="#dddddd" stroke="#dddddd" cx="1143.24" cy="-4924.3" rx="128.12" ry="128.12"/>
<text text-anchor="middle" x="1143.24" y="-4919.25" font-family="Times,serif" font-size="14.00">Was a serious injury sustained?</text>
</g>
<!-- 61198&#45;&gt;END_NODE -->
<g id="edge24" class="edge">
<title>61198&#45;&gt;END_NODE</title>
<path fill="none" stroke="#dddddd" d="M1269.96,-4945.16C1340.21,-4963.58 1423.03,-4997.89 1470.97,-5061.3 1546.62,-5161.37 1553.48,-5559.17 1553.58,-5694.19"/>
<polygon fill="#dddddd" stroke="#dddddd" points="1550.08,-5693.8 1553.58,-5703.8 1557.08,-5693.8 1550.08,-5693.8"/>
<text text-anchor="middle" x="1495.72" y="-5125.2" font-family="Times,serif" font-size="14.00">n</text>
</g>
<!-- 61200 -->
<g id="node23" class="node">
<title>61200</title>
<ellipse fill="#dddddd" stroke="#dddddd" cx="1143.24" cy="-4622.3" rx="156.27" ry="156.27"/>
<text text-anchor="middle" x="1143.24" y="-4617.25" font-family="Times,serif" font-size="14.00">Which serious injuries were sustained?</text>
</g>
<!-- 61200&#45;&gt;END_NODE -->
<g id="edge25" class="edge">
<title>61200&#45;&gt;END_NODE</title>
<path fill="none" stroke="#dddddd" d="M1294.55,-4662.65C1359.21,-4687.82 1429.37,-4727.22 1470.97,-4787.3 1523.04,-4862.51 1546.52,-5514.7 1552.02,-5693.91"/>
<polygon fill="#dddddd" stroke="#dddddd" points="1548.52,-5693.86 1552.32,-5703.75 1555.51,-5693.64 1548.52,-5693.86"/>
<text text-anchor="middle" x="1495.72" y="-4903.63" font-family="Times,serif" font-size="14.00">n</text>
</g>
<!-- 61201 -->
<g id="node24" class="node">
<title>61201</title>
<ellipse fill="#dddddd" stroke="#dddddd" cx="1143.24" cy="-4323.3" rx="124.54" ry="124.54"/>
<text text-anchor="middle" x="1143.24" y="-4318.25" font-family="Times,serif" font-size="14.00">Was a minor injury sustained?</text>
</g>
<!-- 61201&#45;&gt;END_NODE -->
<g id="edge26" class="edge">
<title>61201&#45;&gt;END_NODE</title>
<path fill="none" stroke="#dddddd" d="M1266.66,-4341.34C1338.04,-4358.6 1423.18,-4392.18 1470.97,-4457.3 1545.43,-4558.77 1552.61,-5477.98 1553.27,-5694"/>
<polygon fill="#dddddd" stroke="#dddddd" points="1549.77,-5693.7 1553.29,-5703.69 1556.77,-5693.68 1549.77,-5693.7"/>
<text text-anchor="middle" x="1495.72" y="-4564.6" font-family="Times,serif" font-size="14.00">n</text>
</g>
<!-- 61202 -->
<g id="node25" class="node">
<title>61202</title>
<ellipse fill="#dddddd" stroke="#dddddd" cx="1143.24" cy="-4028.3" rx="152.69" ry="152.69"/>
<text text-anchor="middle" x="1143.24" y="-4023.25" font-family="Times,serif" font-size="14.00">Which minor injuries were sustained?</text>
</g>
<!-- 61202&#45;&gt;END_NODE -->
<g id="edge27" class="edge">
<title>61202&#45;&gt;END_NODE</title>
<path fill="none" stroke="#dddddd" d="M1291.56,-4065.67C1357.02,-4089.97 1428.69,-4128.78 1470.97,-4189.3 1515.17,-4252.57 1546.22,-5444.21 1552.26,-5693.73"/>
<polygon fill="#dddddd" stroke="#dddddd" points="1548.76,-5693.79 1552.5,-5703.71 1555.75,-5693.62 1548.76,-5693.79"/>
<text text-anchor="middle" x="1495.72" y="-4412.94" font-family="Times,serif" font-size="14.00">n</text>
</g>
<!-- 61203 -->
<g id="node26" class="node">
<title>61203</title>
<ellipse fill="#dddddd" stroke="#dddddd" cx="1143.24" cy="-3653.3" rx="204.38" ry="204.38"/>
<text text-anchor="middle" x="1143.24" y="-3648.25" font-family="Times,serif" font-size="14.00">Did injuries result in attendance to outside hospital?</text>
</g>
<!-- 61203&#45;&gt;END_NODE -->
<g id="edge28" class="edge">
<title>61203&#45;&gt;END_NODE</title>
<path fill="none" stroke="#dddddd" d="M1330.89,-3734.68C1385,-3767.6 1438.25,-3811.11 1470.97,-3866.3 1519.04,-3947.39 1547.55,-5415.65 1552.54,-5693.97"/>
<polygon fill="#dddddd" stroke="#dddddd" points="1549.03,-5693.77 1552.71,-5703.71 1556.03,-5693.65 1549.03,-5693.77"/>
<text text-anchor="middle" x="1495.72" y="-4098.7" font-family="Times,serif" font-size="14.00">n</text>
</g>
<!-- 61204 -->
<g id="node27" class="node">
<title>61204</title>
<ellipse fill="#dddddd" stroke="#dddddd" cx="1143.24" cy="-3318.3" rx="112.26" ry="112.26"/>
<text text-anchor="middle" x="1143.24" y="-3313.25" font-family="Times,serif" font-size="14.00">Type of hospital admission</text>
</g>
<!-- 61204&#45;&gt;END_NODE -->
<g id="edge29" class="edge">
<title>61204&#45;&gt;END_NODE</title>
<path fill="none" stroke="#dddddd" d="M1255.19,-3329.09C1328.83,-3342.53 1420.85,-3372.69 1470.97,-3440.3 1540.57,-3534.2 1551.75,-5379.08 1553.15,-5693.83"/>
<polygon fill="#dddddd" stroke="#dddddd" points="1549.65,-5693.71 1553.19,-5703.69 1556.65,-5693.68 1549.65,-5693.71"/>
<text text-anchor="middle" x="1495.72" y="-3636.01" font-family="Times,serif" font-size="14.00">n</text>
</g>
<!-- 61205 -->
<g id="node28" class="node">
<title>61205</title>
<ellipse fill="#dddddd" stroke="#dddddd" cx="1143.24" cy="-3031.3" rx="156.27" ry="156.27"/>
<text text-anchor="middle" x="1143.24" y="-3026.25" font-family="Times,serif" font-size="14.00">Who was admitted to outside hospital?</text>
</g>
<!-- 61205&#45;&gt;END_NODE -->
<g id="edge30" class="edge">
<title>61205&#45;&gt;END_NODE</title>
<path fill="none" stroke="#dddddd" d="M1294.35,-3071.81C1359.17,-3097.15 1429.52,-3136.81 1470.97,-3197.3 1549.63,-3312.09 1493.88,-3369.92 1502.47,-3508.8 1556.78,-4386.59 1554.76,-5461.9 1553.61,-5693.86"/>
<polygon fill="#dddddd" stroke="#dddddd" points="1550.11,-5693.66 1553.56,-5703.68 1557.11,-5693.7 1550.11,-5693.66"/>
<text text-anchor="middle" x="1495.72" y="-3512" font-family="Times,serif" font-size="14.00">n</text>
</g>
<!-- 61206 -->
<g id="node29" class="node">
<title>61206</title>
<ellipse fill="#dddddd" stroke="#dddddd" cx="1143.24" cy="-2594.3" rx="262.73" ry="262.73"/>
<text text-anchor="middle" x="1143.24" y="-2589.25" font-family="Times,serif" font-size="14.00">Was medical treatment for concussion or internal injuries required?</text>
</g>
<!-- 61206&#45;&gt;END_NODE -->
<g id="edge31" class="edge">
<title>61206&#45;&gt;END_NODE</title>
<path fill="none" stroke="#dddddd" d="M1364.64,-2736.46C1406.5,-2773.67 1445.21,-2817.31 1470.97,-2866.3 1542.31,-3002 1493.93,-3056.73 1502.47,-3209.8 1558.48,-4213.01 1555,-5443.07 1553.62,-5693.54"/>
<polygon fill="#dddddd" stroke="#dddddd" points="1550.12,-5693.51 1553.57,-5703.53 1557.12,-5693.55 1550.12,-5693.51"/>
<text text-anchor="middle" x="1495.72" y="-3213" font-family="Times,serif" font-size="14.00">n</text>
</g>
<!-- 61207 -->
<g id="node30" class="node">
<title>61207</title>
<ellipse fill="#dddddd" stroke="#dddddd" cx="1143.24" cy="-2080.3" rx="233.56" ry="233.56"/>
<text text-anchor="middle" x="1143.24" y="-2075.25" font-family="Times,serif" font-size="14.00">Are there any staff now off duty as a result of this incident?</text>
</g>
<!-- 61207&#45;&gt;END_NODE -->
<g id="edge32" class="edge">
<title>61207&#45;&gt;END_NODE</title>
<path fill="none" stroke="#dddddd" d="M1349.58,-2189.91C1397.46,-2225.58 1442.68,-2269.8 1470.97,-2322.3 1591.23,-2545.46 1493.21,-2638.47 1502.47,-2891.8 1544.12,-4030.47 1551.99,-5426.56 1553.15,-5693.9"/>
<polygon fill="#dddddd" stroke="#dddddd" points="1549.65,-5693.57 1553.19,-5703.55 1556.65,-5693.54 1549.65,-5693.57"/>
<text text-anchor="middle" x="1495.72" y="-2895" font-family="Times,serif" font-size="14.00">n</text>
</g>
<!-- 61208 -->
<g id="node31" class="node">
<title>61208</title>
<ellipse fill="#dddddd" stroke="#dddddd" cx="1143.24" cy="-1615.3" rx="213.08" ry="213.08"/>
<text text-anchor="middle" x="1143.24" y="-1610.25" font-family="Times,serif" font-size="14.00">Are any staff on sick leave as a result of this incident?</text>
</g>
<!-- 61208&#45;&gt;END_NODE -->
<g id="edge33" class="edge">
<title>61208&#45;&gt;END_NODE</title>
<path fill="none" stroke="#dddddd" d="M1337.09,-1704.97C1389.29,-1738.89 1439.89,-1782.79 1470.97,-1837.3 1582.04,-2032.08 1493.79,-2116.76 1502.47,-2340.8 1555.61,-3712.56 1554.17,-5397.75 1553.46,-5693.85"/>
<polygon fill="#dddddd" stroke="#dddddd" points="1549.96,-5693.44 1553.44,-5703.45 1556.96,-5693.46 1549.96,-5693.44"/>
<text text-anchor="middle" x="1495.72" y="-2344" font-family="Times,serif" font-size="14.00">n</text>
</g>
<!-- 61209 -->
<g id="node32" class="node">
<title>61209</title>
<ellipse fill="#dddddd" stroke="#dddddd" cx="1143.24" cy="-1235.3" rx="149.11" ry="149.11"/>
<text text-anchor="middle" x="1143.24" y="-1230.25" font-family="Times,serif" font-size="14.00">Did the assault occur in public view?</text>
</g>
<!-- 61209&#45;&gt;END_NODE -->
<g id="edge34" class="edge">
<title>61209&#45;&gt;END_NODE</title>
<path fill="none" stroke="#dddddd" d="M1288.77,-1269.23C1355.47,-1292.65 1429.02,-1331.16 1470.97,-1393.3 1587.73,-1566.28 1494.1,-1653.28 1502.47,-1861.8 1534.54,-2660.56 1550.87,-5314.15 1553.07,-5693.9"/>
<polygon fill="#dddddd" stroke="#dddddd" points="1549.57,-5693.72 1553.13,-5703.7 1556.57,-5693.68 1549.57,-5693.72"/>
<text text-anchor="middle" x="1495.72" y="-1865" font-family="Times,serif" font-size="14.00">n</text>
</g>
<!-- 61210 -->
<g id="node33" class="node">
<title>61210</title>
<ellipse fill="#dddddd" stroke="#dddddd" cx="1143.24" cy="-870.3" rx="198.24" ry="198.24"/>
<text text-anchor="middle" x="1143.24" y="-865.25" font-family="Times,serif" font-size="14.00">Is there any audio or visual footage of the assault?</text>
</g>
<!-- 61210&#45;&gt;END_NODE -->
<g id="edge35" class="edge">
<title>61210&#45;&gt;END_NODE</title>
<path fill="none" stroke="#dddddd" d="M1326.31,-946.46C1381.68,-978.66 1436.86,-1021.82 1470.97,-1077.3 1547.1,-1201.11 1494.61,-1257.67 1502.47,-1402.8 1551.01,-2299.21 1553.25,-5288.36 1553.33,-5693.67"/>
<polygon fill="#dddddd" stroke="#dddddd" points="1549.83,-5693.65 1553.33,-5703.65 1556.83,-5693.65 1549.83,-5693.65"/>
<text text-anchor="middle" x="1495.72" y="-1406" font-family="Times,serif" font-size="14.00">n</text>
</g>
<!-- 61211 -->
<g id="node34" class="node">
<title>61211</title>
<ellipse fill="#dddddd" stroke="#dddddd" cx="1143.24" cy="-515.3" rx="138.87" ry="138.87"/>
<text text-anchor="middle" x="1143.24" y="-510.25" font-family="Times,serif" font-size="14.00">What is the source of the footage?</text>
</g>
<!-- 61211&#45;&gt;END_NODE -->
<g id="edge36" class="edge">
<title>61211&#45;&gt;END_NODE</title>
<path fill="none" stroke="#dddddd" d="M1279.59,-542.14C1348.42,-563.14 1426.68,-599.86 1470.97,-663.3 1580.28,-819.88 1494.42,-901.01 1502.47,-1091.8 1543.13,-2055.51 1552.2,-5272.57 1553.22,-5693.69"/>
<polygon fill="#dddddd" stroke="#dddddd" points="1549.72,-5693.55 1553.25,-5703.55 1556.72,-5693.54 1549.72,-5693.55"/>
<text text-anchor="middle" x="1495.72" y="-1095" font-family="Times,serif" font-size="14.00">n</text>
</g>
<!-- 61212 -->
<g id="node35" class="node">
<title>61212</title>
<ellipse fill="#dddddd" stroke="#dddddd" cx="1143.24" cy="-179.3" rx="179.3" ry="179.3"/>
<text text-anchor="middle" x="1143.24" y="-174.25" font-family="Times,serif" font-size="14.00">Was there an apparent reason for the assault?</text>
</g>
<!-- 61212&#45;&gt;END_NODE -->
<g id="edge37" class="edge">
<title>61212&#45;&gt;END_NODE</title>
<path fill="none" stroke="#dddddd" d="M1312.6,-238.38C1372.23,-267.84 1433.71,-309.76 1470.97,-367.3 1546.61,-484.1 1494.76,-539.87 1502.47,-678.8 1560.82,-1730.69 1554.48,-5252.63 1553.44,-5693.79"/>
<polygon fill="#dddddd" stroke="#dddddd" points="1549.94,-5693.56 1553.42,-5703.57 1556.94,-5693.57 1549.94,-5693.56"/>
<text text-anchor="middle" x="1495.72" y="-682" font-family="Times,serif" font-size="14.00">n</text>
</g>
</g>
</svg>
