<?xml version="1.0" encoding="UTF-8" standalone="no"?>
<!DOCTYPE svg PUBLIC "-//W3C//DTD SVG 1.1//EN"
 "http://www.w3.org/Graphics/SVG/1.1/DTD/svg11.dtd">
<!-- Generated by graphviz version 12.1.1 (20240910.0053)
 -->
<!-- Title: OLD_KEY_LOCK_INCIDENT Pages: 1 -->
<svg width="10543pt" height="877pt"
 viewBox="0.00 0.00 10543.49 876.88" xmlns="http://www.w3.org/2000/svg" xmlns:xlink="http://www.w3.org/1999/xlink">
<g id="graph0" class="graph" transform="scale(1 1) rotate(0) translate(4 872.88)">
<title>OLD_KEY_LOCK_INCIDENT</title>
<polygon fill="white" stroke="none" points="-4,4 -4,-872.88 10539.49,-872.88 10539.49,4 -4,4"/>
<!-- START_NODE -->
<g id="node1" class="node">
<title>START_NODE</title>
</g>
<!-- 44598 -->
<g id="node2" class="node">
<title>44598</title>
<ellipse fill="#dddddd" stroke="#dddddd" cx="337.08" cy="-431.52" rx="223.83" ry="223.83"/>
<text text-anchor="middle" x="337.08" y="-426.47" font-family="Times,serif" font-size="14.00">WERE THE POLICE INFORMED OF THE INCIDENT</text>
</g>
<!-- START_NODE&#45;&gt;44598 -->
<g id="edge1" class="edge">
<title>START_NODE&#45;&gt;44598</title>
<path fill="none" stroke="black" d="M53.74,-431.52C66.37,-431.52 82.91,-431.52 101.66,-431.52"/>
<polygon fill="black" stroke="black" points="101.43,-435.02 111.43,-431.52 101.43,-428.02 101.43,-435.02"/>
<text text-anchor="middle" x="83.62" y="-434.72" font-family="Times,serif" font-size="14.00">start</text>
</g>
<!-- 44166 -->
<g id="node4" class="node">
<title>44166</title>
<ellipse fill="#dddddd" stroke="#dddddd" cx="1506.9" cy="-315.52" rx="271.94" ry="271.94"/>
<text text-anchor="middle" x="1506.9" y="-310.47" font-family="Times,serif" font-size="14.00">HAS ANY PROSECUTION TAKEN PLACE OR IS ANY PENDING</text>
</g>
<!-- 44598&#45;&gt;44166 -->
<g id="edge28" class="edge">
<title>44598&#45;&gt;44166</title>
<path fill="none" stroke="#dddddd" d="M536.36,-534.17C564.61,-545.02 593.8,-554.34 622.41,-560.52 861.79,-612.29 940.79,-637 1173.46,-560.52 1214.9,-546.9 1255.42,-525.92 1293.12,-501.84"/>
<polygon fill="#dddddd" stroke="#dddddd" points="1294.89,-504.86 1301.37,-496.47 1291.08,-498.99 1294.89,-504.86"/>
<text text-anchor="middle" x="897.93" y="-612.25" font-family="Times,serif" font-size="14.00">NO</text>
</g>
<!-- 45072 -->
<g id="node17" class="node">
<title>45072</title>
<ellipse fill="#dddddd" stroke="#dddddd" cx="897.93" cy="-275.52" rx="275.52" ry="275.52"/>
<text text-anchor="middle" x="897.93" y="-270.47" font-family="Times,serif" font-size="14.00">IS THE INCIDENT THE SUBJECT OF A POLICE INVESTIGATION</text>
</g>
<!-- 44598&#45;&gt;45072 -->
<g id="edge27" class="edge">
<title>44598&#45;&gt;45072</title>
<path fill="none" stroke="#dddddd" d="M552.95,-371.54C575.39,-365.28 598.42,-358.85 621.42,-352.43"/>
<polygon fill="#dddddd" stroke="#dddddd" points="622.19,-355.85 630.88,-349.79 620.31,-349.11 622.19,-355.85"/>
<text text-anchor="middle" x="591.66" y="-366.06" font-family="Times,serif" font-size="14.00">YES</text>
</g>
<!-- END_NODE -->
<g id="node3" class="node">
<title>END_NODE</title>
<ellipse fill="none" stroke="black" cx="10501.64" cy="-423.52" rx="29.86" ry="29.86"/>
<ellipse fill="none" stroke="black" cx="10501.64" cy="-423.52" rx="33.86" ry="33.86"/>
<text text-anchor="middle" x="10501.64" y="-418.47" font-family="Times,serif" font-size="14.00">END</text>
</g>
<!-- 44331 -->
<g id="node5" class="node">
<title>44331</title>
<ellipse fill="#dddddd" stroke="#dddddd" cx="2136.85" cy="-315.52" rx="296.51" ry="296.51"/>
<text text-anchor="middle" x="2136.85" y="-310.47" font-family="Times,serif" font-size="14.00">IS THE INCIDENT THE SUBJECT OF AN INTERNAL INVESTIGATION</text>
</g>
<!-- 44166&#45;&gt;44331 -->
<g id="edge2" class="edge">
<title>44166&#45;&gt;44331</title>
<path fill="none" stroke="#dddddd" d="M1779.22,-315.52C1795.59,-315.52 1812.12,-315.52 1828.63,-315.52"/>
<polygon fill="#dddddd" stroke="#dddddd" points="1828.53,-319.02 1838.53,-315.52 1828.53,-312.02 1828.53,-319.02"/>
<text text-anchor="middle" x="1809.59" y="-318.72" font-family="Times,serif" font-size="14.00">YES</text>
</g>
<!-- 44166&#45;&gt;44331 -->
<g id="edge3" class="edge">
<title>44166&#45;&gt;44331</title>
<path fill="none" stroke="#dddddd" d="M1778.56,-295.74C1784.71,-295.48 1790.81,-295.24 1796.84,-295.02 1807.55,-294.64 1818.46,-294.42 1829.47,-294.34"/>
<polygon fill="#dddddd" stroke="#dddddd" points="1829.48,-297.84 1839.46,-294.3 1829.45,-290.84 1829.48,-297.84"/>
<text text-anchor="middle" x="1809.59" y="-298.22" font-family="Times,serif" font-size="14.00">NO</text>
</g>
<!-- 44386 -->
<g id="node8" class="node">
<title>44386</title>
<ellipse fill="#dddddd" stroke="#dddddd" cx="2772.43" cy="-315.52" rx="277.57" ry="277.57"/>
<text text-anchor="middle" x="2772.43" y="-310.47" font-family="Times,serif" font-size="14.00">IS THE INCIDENT SUBJECT TO A GOVERNOR&#39;S ADJUDICATION</text>
</g>
<!-- 44331&#45;&gt;44386 -->
<g id="edge6" class="edge">
<title>44331&#45;&gt;44386</title>
<path fill="none" stroke="#dddddd" d="M2433.77,-315.52C2450.27,-315.52 2466.84,-315.52 2483.31,-315.52"/>
<polygon fill="#dddddd" stroke="#dddddd" points="2483.18,-319.02 2493.18,-315.52 2483.18,-312.02 2483.18,-319.02"/>
<text text-anchor="middle" x="2464.1" y="-318.72" font-family="Times,serif" font-size="14.00">YES</text>
</g>
<!-- 44331&#45;&gt;44386 -->
<g id="edge7" class="edge">
<title>44331&#45;&gt;44386</title>
<path fill="none" stroke="#dddddd" d="M2432.72,-294.32C2447.64,-294.3 2462.42,-294.52 2476.85,-295.02 2479.11,-295.1 2481.38,-295.18 2483.65,-295.27"/>
<polygon fill="#dddddd" stroke="#dddddd" points="2483.46,-298.76 2493.59,-295.66 2483.73,-291.77 2483.46,-298.76"/>
<text text-anchor="middle" x="2464.1" y="-298.22" font-family="Times,serif" font-size="14.00">NO</text>
</g>
<!-- 44228 -->
<g id="node6" class="node">
<title>44228</title>
<ellipse fill="#dddddd" stroke="#dddddd" cx="4518.96" cy="-315.52" rx="267.33" ry="267.33"/>
<text text-anchor="middle" x="4518.96" y="-310.47" font-family="Times,serif" font-size="14.00">HAS THE PRISON SERVICE PRESS OFFICE BEEN INFORMED</text>
</g>
<!-- 44972 -->
<g id="node7" class="node">
<title>44972</title>
<ellipse fill="#dddddd" stroke="#dddddd" cx="5091.08" cy="-315.52" rx="243.28" ry="243.28"/>
<text text-anchor="middle" x="5091.08" y="-310.47" font-family="Times,serif" font-size="14.00">DESCRIBE THE TYPE OF KEY OR LOCK COMPROMISE</text>
</g>
<!-- 44228&#45;&gt;44972 -->
<g id="edge4" class="edge">
<title>44228&#45;&gt;44972</title>
<path fill="none" stroke="#dddddd" d="M4786.66,-315.52C4803.14,-315.52 4819.71,-315.52 4836.13,-315.52"/>
<polygon fill="#dddddd" stroke="#dddddd" points="4835.96,-319.02 4845.96,-315.52 4835.96,-312.02 4835.96,-319.02"/>
<text text-anchor="middle" x="4817.05" y="-318.72" font-family="Times,serif" font-size="14.00">YES</text>
</g>
<!-- 44228&#45;&gt;44972 -->
<g id="edge5" class="edge">
<title>44228&#45;&gt;44972</title>
<path fill="none" stroke="#dddddd" d="M4785.69,-294.29C4800.61,-294.23 4815.39,-294.46 4829.8,-295.02 4832.19,-295.12 4834.59,-295.22 4837,-295.32"/>
<polygon fill="#dddddd" stroke="#dddddd" points="4836.69,-298.81 4846.84,-295.77 4837.01,-291.82 4836.69,-298.81"/>
<text text-anchor="middle" x="4817.05" y="-298.22" font-family="Times,serif" font-size="14.00">NO</text>
</g>
<!-- 45015 -->
<g id="node21" class="node">
<title>45015</title>
<ellipse fill="#dddddd" stroke="#dddddd" cx="5791.19" cy="-315.52" rx="213.08" ry="213.08"/>
<text text-anchor="middle" x="5791.19" y="-310.47" font-family="Times,serif" font-size="14.00">DESCRIBE THE NATURE OF THE COMPROMISE</text>
</g>
<!-- 44972&#45;&gt;45015 -->
<g id="edge55" class="edge">
<title>44972&#45;&gt;45015</title>
<path fill="none" stroke="#dddddd" d="M5235.57,-511.62C5269.81,-544.94 5309.14,-574.78 5352.36,-593.52 5437.07,-630.26 5476.56,-632.83 5560.11,-593.52 5602.75,-573.46 5640.2,-541.19 5671.82,-505.61"/>
<polygon fill="#dddddd" stroke="#dddddd" points="5674.4,-507.98 5678.32,-498.14 5669.12,-503.39 5674.4,-507.98"/>
<text text-anchor="middle" x="5456.23" y="-625.24" font-family="Times,serif" font-size="14.00">CLASS 1 PASS KEY</text>
</g>
<!-- 44972&#45;&gt;45015 -->
<g id="edge56" class="edge">
<title>44972&#45;&gt;45015</title>
<path fill="none" stroke="#dddddd" d="M5254.46,-495.89C5284.54,-519.41 5317.54,-540 5352.36,-553.52 5395.39,-570.23 5517.61,-571.55 5560.11,-553.52 5593.94,-539.17 5625.22,-517.15 5653.12,-492.17"/>
<polygon fill="#dddddd" stroke="#dddddd" points="5655.15,-495.05 5660.16,-485.72 5650.43,-489.89 5655.15,-495.05"/>
<text text-anchor="middle" x="5456.23" y="-569.75" font-family="Times,serif" font-size="14.00">CLASS 2 PASS KEY</text>
</g>
<!-- 44972&#45;&gt;45015 -->
<g id="edge57" class="edge">
<title>44972&#45;&gt;45015</title>
<path fill="none" stroke="#dddddd" d="M5274.19,-476.2C5299.13,-491.37 5325.46,-504.45 5352.36,-513.52 5396.1,-528.27 5516.82,-529.58 5560.11,-513.52 5585.51,-504.1 5609.99,-490.47 5632.89,-474.71"/>
<polygon fill="#dddddd" stroke="#dddddd" points="5634.89,-477.59 5641.03,-468.96 5630.85,-471.87 5634.89,-477.59"/>
<text text-anchor="middle" x="5456.23" y="-528.28" font-family="Times,serif" font-size="14.00">CELL KEY</text>
</g>
<!-- 44972&#45;&gt;45015 -->
<g id="edge58" class="edge">
<title>44972&#45;&gt;45015</title>
<path fill="none" stroke="#dddddd" d="M5293.28,-451.67C5312.66,-460.44 5332.5,-467.97 5352.36,-473.52 5396.82,-485.96 5516.01,-487.21 5560.11,-473.52 5577.9,-468 5595.54,-460.57 5612.67,-451.94"/>
<polygon fill="#dddddd" stroke="#dddddd" points="5614.1,-455.14 5621.36,-447.42 5610.87,-448.93 5614.1,-455.14"/>
<text text-anchor="middle" x="5456.23" y="-486.52" font-family="Times,serif" font-size="14.00">CLASS 3 A1 SUITE KEY</text>
</g>
<!-- 44972&#45;&gt;45015 -->
<g id="edge59" class="edge">
<title>44972&#45;&gt;45015</title>
<path fill="none" stroke="#dddddd" d="M5309.92,-422.16C5324.08,-426.62 5338.29,-430.48 5352.36,-433.52 5442.61,-453.03 5470.35,-455.2 5560.11,-433.52 5571.55,-430.76 5583.06,-427.32 5594.51,-423.38"/>
<polygon fill="#dddddd" stroke="#dddddd" points="5595.34,-426.8 5603.58,-420.14 5592.98,-420.21 5595.34,-426.8"/>
<text text-anchor="middle" x="5456.23" y="-452.17" font-family="Times,serif" font-size="14.00">CLASS 3 ACCOUNTABLE KEY</text>
</g>
<!-- 44972&#45;&gt;45015 -->
<g id="edge60" class="edge">
<title>44972&#45;&gt;45015</title>
<path fill="none" stroke="#dddddd" d="M5323.33,-388.54C5333.08,-390.44 5342.79,-392.12 5352.36,-393.52 5443.71,-406.92 5469,-408.55 5560.11,-393.52 5566.51,-392.47 5572.97,-391.26 5579.46,-389.92"/>
<polygon fill="#dddddd" stroke="#dddddd" points="5579.9,-393.4 5588.92,-387.86 5578.41,-386.56 5579.9,-393.4"/>
<text text-anchor="middle" x="5456.23" y="-407.39" font-family="Times,serif" font-size="14.00">HANDCUFF KEY</text>
</g>
<!-- 44972&#45;&gt;45015 -->
<g id="edge61" class="edge">
<title>44972&#45;&gt;45015</title>
<path fill="none" stroke="#dddddd" d="M5331.97,-351.86C5338.83,-352.48 5345.64,-353.04 5352.36,-353.52 5444.45,-360.21 5468.08,-361.07 5560.11,-353.52 5563.32,-353.26 5566.56,-352.98 5569.82,-352.67"/>
<polygon fill="#dddddd" stroke="#dddddd" points="5569.84,-356.19 5579.45,-351.72 5569.15,-349.22 5569.84,-356.19"/>
<text text-anchor="middle" x="5456.23" y="-362.07" font-family="Times,serif" font-size="14.00">CLOSETING/ESCORT CHAIN KEY</text>
</g>
<!-- 44972&#45;&gt;45015 -->
<g id="edge62" class="edge">
<title>44972&#45;&gt;45015</title>
<path fill="none" stroke="#dddddd" d="M5334.77,-315.52C5410.04,-315.52 5492.59,-315.52 5566.5,-315.52"/>
<polygon fill="#dddddd" stroke="#dddddd" points="5566.3,-319.02 5576.3,-315.52 5566.3,-312.02 5566.3,-319.02"/>
<text text-anchor="middle" x="5456.23" y="-318.72" font-family="Times,serif" font-size="14.00">CLASS 1 LOCK</text>
</g>
<!-- 44972&#45;&gt;45015 -->
<g id="edge63" class="edge">
<title>44972&#45;&gt;45015</title>
<path fill="none" stroke="#dddddd" d="M5333.8,-295.84C5340.05,-295.54 5346.24,-295.26 5352.36,-295.02 5444.62,-291.4 5467.86,-290.92 5560.11,-295.02 5562.49,-295.13 5564.89,-295.24 5567.31,-295.36"/>
<polygon fill="#dddddd" stroke="#dddddd" points="5566.99,-298.85 5577.16,-295.87 5567.35,-291.86 5566.99,-298.85"/>
<text text-anchor="middle" x="5456.23" y="-298.22" font-family="Times,serif" font-size="14.00">CLASS 2 LOCK</text>
</g>
<!-- 44972&#45;&gt;45015 -->
<g id="edge64" class="edge">
<title>44972&#45;&gt;45015</title>
<path fill="none" stroke="#dddddd" d="M5331.22,-274C5338.34,-273.26 5345.39,-272.6 5352.36,-272.02 5444.37,-264.39 5468.18,-263.41 5560.11,-272.02 5563.54,-272.34 5566.99,-272.69 5570.47,-273.06"/>
<polygon fill="#dddddd" stroke="#dddddd" points="5569.79,-276.51 5580.13,-274.16 5570.58,-269.56 5569.79,-276.51"/>
<text text-anchor="middle" x="5456.23" y="-275.22" font-family="Times,serif" font-size="14.00">CELL LOCK</text>
</g>
<!-- 44972&#45;&gt;45015 -->
<g id="edge65" class="edge">
<title>44972&#45;&gt;45015</title>
<path fill="none" stroke="#dddddd" d="M5325.6,-249.15C5334.6,-247.58 5343.54,-246.2 5352.36,-245.02 5443.88,-232.85 5468.79,-231.35 5560.11,-245.02 5565.71,-245.86 5571.36,-246.81 5577.05,-247.85"/>
<polygon fill="#dddddd" stroke="#dddddd" points="5576.04,-251.22 5586.53,-249.68 5577.37,-244.35 5576.04,-251.22"/>
<text text-anchor="middle" x="5456.23" y="-248.22" font-family="Times,serif" font-size="14.00">CLASS 3 A1 SUITE LOCK</text>
</g>
<!-- 44972&#45;&gt;45015 -->
<g id="edge66" class="edge">
<title>44972&#45;&gt;45015</title>
<path fill="none" stroke="#dddddd" d="M5316.32,-223.13C5328.39,-219.99 5340.45,-217.24 5352.36,-215.02 5443.13,-198.11 5469.72,-196.14 5560.11,-215.02 5569.06,-216.89 5578.08,-219.13 5587.11,-221.66"/>
<polygon fill="#dddddd" stroke="#dddddd" points="5586.1,-225.01 5596.68,-224.47 5588.07,-218.29 5586.1,-225.01"/>
<text text-anchor="middle" x="5456.23" y="-218.22" font-family="Times,serif" font-size="14.00">CLASS 3 ACCOUNTABLE LOCK</text>
</g>
<!-- 44972&#45;&gt;45015 -->
<g id="edge67" class="edge">
<title>44972&#45;&gt;45015</title>
<path fill="none" stroke="#dddddd" d="M5303.37,-196.18C5319.62,-190.17 5336.05,-184.99 5352.36,-181.02 5442.08,-159.21 5470.98,-156.89 5560.11,-181.02 5573.99,-184.78 5587.89,-189.61 5601.6,-195.19"/>
<polygon fill="#dddddd" stroke="#dddddd" points="5600.08,-198.35 5610.65,-199.02 5602.8,-191.9 5600.08,-198.35"/>
<text text-anchor="middle" x="5456.23" y="-184.22" font-family="Times,serif" font-size="14.00">HANDCUFF</text>
</g>
<!-- 44972&#45;&gt;45015 -->
<g id="edge68" class="edge">
<title>44972&#45;&gt;45015</title>
<path fill="none" stroke="#dddddd" d="M5286.44,-169.95C5307.87,-159.08 5330.04,-149.75 5352.36,-143.02 5440.76,-116.39 5472.51,-113.83 5560.11,-143.02 5580.57,-149.84 5600.68,-159.27 5619.97,-170.24"/>
<polygon fill="#dddddd" stroke="#dddddd" points="5617.97,-173.12 5628.37,-175.16 5621.51,-167.08 5617.97,-173.12"/>
<text text-anchor="middle" x="5456.23" y="-146.22" font-family="Times,serif" font-size="14.00">CLOSETING/ESCORT CHAIN</text>
</g>
<!-- 44972&#45;&gt;45015 -->
<g id="edge69" class="edge">
<title>44972&#45;&gt;45015</title>
<path fill="none" stroke="#dddddd" d="M5266.62,-146.62C5293.61,-128.44 5322.5,-112.7 5352.36,-102.02 5439.3,-70.93 5474.16,-68.29 5560.11,-102.02 5588.69,-113.24 5615.84,-129.87 5640.81,-148.98"/>
<polygon fill="#dddddd" stroke="#dddddd" points="5638.32,-151.48 5648.35,-154.9 5642.65,-145.97 5638.32,-151.48"/>
<text text-anchor="middle" x="5456.23" y="-105.22" font-family="Times,serif" font-size="14.00">ELECTRONIC LOCK SYSTEM</text>
</g>
<!-- 44972&#45;&gt;45015 -->
<g id="edge70" class="edge">
<title>44972&#45;&gt;45015</title>
<path fill="none" stroke="#dddddd" d="M5244.79,-126.5C5277.1,-98.17 5313.35,-73.1 5352.36,-57.02 5437.72,-21.84 5475.86,-19.23 5560.11,-57.02 5598.35,-74.18 5632.84,-101.19 5662.77,-131.4"/>
<polygon fill="#dddddd" stroke="#dddddd" points="5660.16,-133.73 5669.64,-138.48 5665.19,-128.86 5660.16,-133.73"/>
<text text-anchor="middle" x="5456.23" y="-60.22" font-family="Times,serif" font-size="14.00">OTHER</text>
</g>
<!-- 44414 -->
<g id="node11" class="node">
<title>44414</title>
<ellipse fill="#dddddd" stroke="#dddddd" cx="3388.55" cy="-315.52" rx="277.06" ry="277.06"/>
<text text-anchor="middle" x="3388.55" y="-310.47" font-family="Times,serif" font-size="14.00">IS ANY MEMBER OF STAFF FACING DISCIPLINARY CHARGES</text>
</g>
<!-- 44386&#45;&gt;44414 -->
<g id="edge10" class="edge">
<title>44386&#45;&gt;44414</title>
<path fill="none" stroke="#dddddd" d="M3050.4,-315.52C3066.81,-315.52 3083.34,-315.52 3099.79,-315.52"/>
<polygon fill="#dddddd" stroke="#dddddd" points="3099.66,-319.02 3109.66,-315.52 3099.66,-312.02 3099.66,-319.02"/>
<text text-anchor="middle" x="3080.75" y="-318.72" font-family="Times,serif" font-size="14.00">YES</text>
</g>
<!-- 44386&#45;&gt;44414 -->
<g id="edge11" class="edge">
<title>44386&#45;&gt;44414</title>
<path fill="none" stroke="#dddddd" d="M3049.66,-294.39C3064.48,-294.33 3079.17,-294.52 3093.5,-295.02 3095.75,-295.1 3098.01,-295.18 3100.28,-295.27"/>
<polygon fill="#dddddd" stroke="#dddddd" points="3100.07,-298.76 3110.2,-295.66 3100.34,-291.77 3100.07,-298.76"/>
<text text-anchor="middle" x="3080.75" y="-298.22" font-family="Times,serif" font-size="14.00">NO</text>
</g>
<!-- 44355 -->
<g id="node9" class="node">
<title>44355</title>
<ellipse fill="#dddddd" stroke="#dddddd" cx="6452.55" cy="-730.52" rx="138.36" ry="138.36"/>
<text text-anchor="middle" x="6452.55" y="-725.47" font-family="Times,serif" font-size="14.00">HAS A REPLICA BEEN FOUND</text>
</g>
<!-- 44894 -->
<g id="node10" class="node">
<title>44894</title>
<ellipse fill="#dddddd" stroke="#dddddd" cx="7067.53" cy="-446.52" rx="228.95" ry="228.95"/>
<text text-anchor="middle" x="7067.53" y="-441.47" font-family="Times,serif" font-size="14.00">WHAT ACTION WAS TAKEN TO FIND THESE ITEMS</text>
</g>
<!-- 44355&#45;&gt;44894 -->
<g id="edge8" class="edge">
<title>44355&#45;&gt;44894</title>
<path fill="none" stroke="#dddddd" d="M6586.83,-695.91C6658,-675.14 6746.04,-645.7 6820.58,-609.52 6836.95,-601.58 6853.52,-592.7 6869.91,-583.29"/>
<polygon fill="#dddddd" stroke="#dddddd" points="6871.34,-586.51 6878.23,-578.46 6867.82,-580.46 6871.34,-586.51"/>
<text text-anchor="middle" x="6734.71" y="-678.5" font-family="Times,serif" font-size="14.00">YES</text>
</g>
<!-- 44355&#45;&gt;44894 -->
<g id="edge9" class="edge">
<title>44355&#45;&gt;44894</title>
<path fill="none" stroke="#dddddd" d="M6560.85,-644.05C6588.49,-624.27 6618.9,-604.52 6648.83,-589.02 6707.28,-558.75 6773.54,-532.75 6835.78,-511.56"/>
<polygon fill="#dddddd" stroke="#dddddd" points="6836.75,-514.93 6845.1,-508.41 6834.51,-508.29 6836.75,-514.93"/>
<text text-anchor="middle" x="6734.71" y="-592.22" font-family="Times,serif" font-size="14.00">NO</text>
</g>
<!-- 44866 -->
<g id="node20" class="node">
<title>44866</title>
<ellipse fill="#dddddd" stroke="#dddddd" cx="7611.36" cy="-205.52" rx="95.88" ry="95.88"/>
<text text-anchor="middle" x="7611.36" y="-200.47" font-family="Times,serif" font-size="14.00">WERE TOOLS USED</text>
</g>
<!-- 44894&#45;&gt;44866 -->
<g id="edge37" class="edge">
<title>44894&#45;&gt;44866</title>
<path fill="none" stroke="#dddddd" d="M7296.75,-454.4C7365.73,-447.39 7438.7,-429.73 7497.48,-391.52 7529.34,-370.81 7553.59,-337.66 7571.29,-305.04"/>
<polygon fill="#dddddd" stroke="#dddddd" points="7574.33,-306.77 7575.87,-296.29 7568.13,-303.52 7574.33,-306.77"/>
<text text-anchor="middle" x="7405.98" y="-454.52" font-family="Times,serif" font-size="14.00">FULL CLOSE DOWN SEARCH</text>
</g>
<!-- 44894&#45;&gt;44866 -->
<g id="edge38" class="edge">
<title>44894&#45;&gt;44866</title>
<path fill="none" stroke="#dddddd" d="M7286.78,-379.49C7296.14,-376.62 7305.4,-373.79 7314.48,-371.02 7395.77,-346.22 7424.3,-358.74 7497.48,-315.52 7511.98,-306.96 7526.02,-296.16 7539,-284.7"/>
<polygon fill="#dddddd" stroke="#dddddd" points="7541.21,-287.42 7546.25,-278.1 7536.5,-282.24 7541.21,-287.42"/>
<text text-anchor="middle" x="7405.98" y="-374.22" font-family="Times,serif" font-size="14.00">PARTIAL SEARCH</text>
</g>
<!-- 44894&#45;&gt;44866 -->
<g id="edge39" class="edge">
<title>44894&#45;&gt;44866</title>
<path fill="none" stroke="#dddddd" d="M7259.96,-322.18C7278.07,-312.38 7296.42,-303.15 7314.48,-295.02 7376.09,-267.3 7448.65,-245.2 7506.5,-229.89"/>
<polygon fill="#dddddd" stroke="#dddddd" points="7507.24,-233.32 7516.03,-227.4 7505.47,-226.55 7507.24,-233.32"/>
<text text-anchor="middle" x="7405.98" y="-298.22" font-family="Times,serif" font-size="14.00">OTHER</text>
</g>
<!-- 44678 -->
<g id="node14" class="node">
<title>44678</title>
<ellipse fill="#dddddd" stroke="#dddddd" cx="3958.62" cy="-315.52" rx="231.51" ry="231.51"/>
<text text-anchor="middle" x="3958.62" y="-310.47" font-family="Times,serif" font-size="14.00">IS THERE ANY MEDIA INTEREST IN THIS INCIDENT</text>
</g>
<!-- 44414&#45;&gt;44678 -->
<g id="edge21" class="edge">
<title>44414&#45;&gt;44678</title>
<path fill="none" stroke="#dddddd" d="M3666.1,-315.52C3682.61,-315.52 3699.15,-315.52 3715.5,-315.52"/>
<polygon fill="#dddddd" stroke="#dddddd" points="3715.27,-319.02 3725.27,-315.52 3715.27,-312.02 3715.27,-319.02"/>
<text text-anchor="middle" x="3696.36" y="-318.72" font-family="Times,serif" font-size="14.00">YES</text>
</g>
<!-- 44414&#45;&gt;44678 -->
<g id="edge22" class="edge">
<title>44414&#45;&gt;44678</title>
<path fill="none" stroke="#dddddd" d="M3664.92,-294.17C3679.87,-294.17 3694.67,-294.43 3709.11,-295.02 3711.48,-295.12 3713.86,-295.22 3716.25,-295.33"/>
<polygon fill="#dddddd" stroke="#dddddd" points="3715.83,-298.81 3725.98,-295.8 3716.16,-291.82 3715.83,-298.81"/>
<text text-anchor="middle" x="3696.36" y="-298.22" font-family="Times,serif" font-size="14.00">NO</text>
</g>
<!-- 44407 -->
<g id="node12" class="node">
<title>44407</title>
<ellipse fill="#dddddd" stroke="#dddddd" cx="7893.28" cy="-422.52" rx="124.54" ry="124.54"/>
<text text-anchor="middle" x="7893.28" y="-417.47" font-family="Times,serif" font-size="14.00">WHAT TOOLS WERE USED</text>
</g>
<!-- 44925 -->
<g id="node13" class="node">
<title>44925</title>
<ellipse fill="#dddddd" stroke="#dddddd" cx="8360.49" cy="-462.52" rx="184.42" ry="184.42"/>
<text text-anchor="middle" x="8360.49" y="-457.47" font-family="Times,serif" font-size="14.00">WHAT WAS THE SOURCE OF THE TOOLS</text>
</g>
<!-- 44407&#45;&gt;44925 -->
<g id="edge12" class="edge">
<title>44407&#45;&gt;44925</title>
<path fill="none" stroke="#dddddd" d="M7963.72,-525.61C7984.11,-547.82 8008.41,-568.28 8035.82,-580.52 8087.65,-603.68 8145.55,-593.44 8197.88,-571.39"/>
<polygon fill="#dddddd" stroke="#dddddd" points="8199.14,-574.66 8206.89,-567.44 8196.32,-568.25 8199.14,-574.66"/>
<text text-anchor="middle" x="8096.94" y="-596.83" font-family="Times,serif" font-size="14.00">HACKSAW BLADE</text>
</g>
<!-- 44407&#45;&gt;44925 -->
<g id="edge13" class="edge">
<title>44407&#45;&gt;44925</title>
<path fill="none" stroke="#dddddd" d="M7981.61,-510.61C7998.38,-522.86 8016.72,-533.61 8035.82,-540.52 8082.2,-557.32 8133.64,-554.25 8181.6,-542.69"/>
<polygon fill="#dddddd" stroke="#dddddd" points="8182.45,-546.08 8191.27,-540.21 8180.72,-539.3 8182.45,-546.08"/>
<text text-anchor="middle" x="8096.94" y="-555.44" font-family="Times,serif" font-size="14.00">OTHER BLADE</text>
</g>
<!-- 44407&#45;&gt;44925 -->
<g id="edge14" class="edge">
<title>44407&#45;&gt;44925</title>
<path fill="none" stroke="#dddddd" d="M7999.71,-487.9C8011.56,-493.03 8023.73,-497.41 8035.82,-500.52 8078.63,-511.54 8125.45,-512.29 8169.86,-508.02"/>
<polygon fill="#dddddd" stroke="#dddddd" points="8170.01,-511.52 8179.59,-506.99 8169.27,-504.56 8170.01,-511.52"/>
<text text-anchor="middle" x="8096.94" y="-513.63" font-family="Times,serif" font-size="14.00">WIRE CUTTERS</text>
</g>
<!-- 44407&#45;&gt;44925 -->
<g id="edge15" class="edge">
<title>44407&#45;&gt;44925</title>
<path fill="none" stroke="#dddddd" d="M8013.14,-456.77C8020.78,-458.24 8028.38,-459.52 8035.82,-460.52 8077.22,-466.12 8121.88,-468.63 8164.41,-469.38"/>
<polygon fill="#dddddd" stroke="#dddddd" points="8164.2,-472.87 8174.25,-469.52 8164.3,-465.88 8164.2,-472.87"/>
<text text-anchor="middle" x="8096.94" y="-472.28" font-family="Times,serif" font-size="14.00">BOLT CROPPERS</text>
</g>
<!-- 44407&#45;&gt;44925 -->
<g id="edge16" class="edge">
<title>44407&#45;&gt;44925</title>
<path fill="none" stroke="#dddddd" d="M8017.83,-429.57C8062.1,-432.4 8112.35,-435.96 8158.07,-440.02 8160.59,-440.25 8163.14,-440.48 8165.7,-440.71"/>
<polygon fill="#dddddd" stroke="#dddddd" points="8165.21,-444.18 8175.5,-441.63 8165.87,-437.21 8165.21,-444.18"/>
<text text-anchor="middle" x="8096.94" y="-443.22" font-family="Times,serif" font-size="14.00">DIGGING TOOL</text>
</g>
<!-- 44407&#45;&gt;44925 -->
<g id="edge17" class="edge">
<title>44407&#45;&gt;44925</title>
<path fill="none" stroke="#dddddd" d="M8017.75,-411.9C8023.86,-411.56 8029.91,-411.26 8035.82,-411.02 8090.11,-408.82 8104.16,-404.24 8158.07,-411.02 8162.25,-411.55 8166.48,-412.14 8170.72,-412.77"/>
<polygon fill="#dddddd" stroke="#dddddd" points="8170.1,-416.22 8180.53,-414.34 8171.21,-409.31 8170.1,-416.22"/>
<text text-anchor="middle" x="8096.94" y="-414.22" font-family="Times,serif" font-size="14.00">CROW BAR</text>
</g>
<!-- 44407&#45;&gt;44925 -->
<g id="edge18" class="edge">
<title>44407&#45;&gt;44925</title>
<path fill="none" stroke="#dddddd" d="M8013.97,-390.34C8021.33,-389.04 8028.65,-387.91 8035.82,-387.02 8089.74,-380.36 8104.6,-377.33 8158.07,-387.02 8164.6,-388.21 8171.2,-389.59 8177.82,-391.14"/>
<polygon fill="#dddddd" stroke="#dddddd" points="8176.96,-394.53 8187.5,-393.54 8178.64,-387.74 8176.96,-394.53"/>
<text text-anchor="middle" x="8096.94" y="-390.22" font-family="Times,serif" font-size="14.00">IMPROVISED TOOL</text>
</g>
<!-- 44407&#45;&gt;44925 -->
<g id="edge19" class="edge">
<title>44407&#45;&gt;44925</title>
<path fill="none" stroke="#dddddd" d="M8005.66,-368.33C8015.69,-364.99 8025.83,-362.13 8035.82,-360.02 8088.98,-348.81 8105.23,-347.35 8158.07,-360.02 8168.19,-362.45 8178.38,-365.48 8188.51,-368.95"/>
<polygon fill="#dddddd" stroke="#dddddd" points="8187.02,-372.14 8197.62,-372.21 8189.39,-365.55 8187.02,-372.14"/>
<text text-anchor="middle" x="8096.94" y="-363.22" font-family="Times,serif" font-size="14.00">OTHER TOOL</text>
</g>
<!-- 44407&#45;&gt;44925 -->
<g id="edge20" class="edge">
<title>44407&#45;&gt;44925</title>
<path fill="none" stroke="#dddddd" d="M7993.67,-348.6C8007.28,-341.42 8021.5,-335.25 8035.82,-331.02 8087.93,-315.65 8105.99,-315.53 8158.07,-331.02 8172.72,-335.38 8187.31,-341.19 8201.54,-347.93"/>
<polygon fill="#dddddd" stroke="#dddddd" points="8199.96,-351.05 8210.48,-352.33 8203.05,-344.77 8199.96,-351.05"/>
<text text-anchor="middle" x="8096.94" y="-334.22" font-family="Times,serif" font-size="14.00">NOT KNOWN</text>
</g>
<!-- 44775 -->
<g id="node19" class="node">
<title>44775</title>
<ellipse fill="#dddddd" stroke="#dddddd" cx="9003.64" cy="-462.52" rx="197.73" ry="197.73"/>
<text text-anchor="middle" x="9003.64" y="-457.47" font-family="Times,serif" font-size="14.00">HAS ANY REMEDIAL ACTION BEEN TAKEN</text>
</g>
<!-- 44925&#45;&gt;44775 -->
<g id="edge41" class="edge">
<title>44925&#45;&gt;44775</title>
<path fill="none" stroke="#dddddd" d="M8451.1,-623.38C8481.2,-662.31 8518.61,-698.91 8562.91,-720.52 8652.78,-764.38 8697.36,-762.97 8787.91,-720.52 8827.55,-701.94 8862.42,-672.04 8891.91,-639.07"/>
<polygon fill="#dddddd" stroke="#dddddd" points="8894.35,-641.6 8898.29,-631.77 8889.07,-636.99 8894.35,-641.6"/>
<text text-anchor="middle" x="8675.41" y="-756.08" font-family="Times,serif" font-size="14.00">WORKS DEPARTMENT</text>
</g>
<!-- 44925&#45;&gt;44775 -->
<g id="edge42" class="edge">
<title>44925&#45;&gt;44775</title>
<path fill="none" stroke="#dddddd" d="M8468.35,-612.4C8495.77,-640.07 8527.62,-665.08 8562.91,-680.52 8608.72,-700.57 8741.79,-699.83 8787.91,-680.52 8818.62,-667.67 8847.16,-648.04 8872.75,-625.73"/>
<polygon fill="#dddddd" stroke="#dddddd" points="8875.07,-628.36 8880.19,-619.08 8870.41,-623.14 8875.07,-628.36"/>
<text text-anchor="middle" x="8675.41" y="-698.48" font-family="Times,serif" font-size="14.00">CONTRACTORS</text>
</g>
<!-- 44925&#45;&gt;44775 -->
<g id="edge43" class="edge">
<title>44925&#45;&gt;44775</title>
<path fill="none" stroke="#dddddd" d="M8487.14,-597.05C8510.5,-614.81 8536.07,-630.36 8562.91,-640.52 8609.67,-658.22 8740.87,-657.48 8787.91,-640.52 8810.43,-632.4 8832.25,-620.78 8852.82,-607.32"/>
<polygon fill="#dddddd" stroke="#dddddd" points="8854.59,-610.35 8860.92,-601.85 8850.67,-604.54 8854.59,-610.35"/>
<text text-anchor="middle" x="8675.41" y="-656.72" font-family="Times,serif" font-size="14.00">EDUCATION</text>
</g>
<!-- 44925&#45;&gt;44775 -->
<g id="edge44" class="edge">
<title>44925&#45;&gt;44775</title>
<path fill="none" stroke="#dddddd" d="M8506.12,-576.02C8524.45,-585.98 8543.58,-594.54 8562.91,-600.52 8610.67,-615.32 8739.94,-614.61 8787.91,-600.52 8803.02,-596.09 8818.08,-590.22 8832.81,-583.41"/>
<polygon fill="#dddddd" stroke="#dddddd" points="8834.07,-586.68 8841.58,-579.2 8831.05,-580.37 8834.07,-586.68"/>
<text text-anchor="middle" x="8675.41" y="-614.55" font-family="Times,serif" font-size="14.00">HEALTH CARE CENTRE</text>
</g>
<!-- 44925&#45;&gt;44775 -->
<g id="edge45" class="edge">
<title>44925&#45;&gt;44775</title>
<path fill="none" stroke="#dddddd" d="M8523.84,-549C8536.82,-553.59 8549.93,-557.53 8562.91,-560.52 8660.36,-582.97 8690.19,-581.77 8787.91,-560.52 8796.98,-558.55 8806.12,-556.16 8815.25,-553.45"/>
<polygon fill="#dddddd" stroke="#dddddd" points="8816.01,-556.87 8824.52,-550.56 8813.93,-550.19 8816.01,-556.87"/>
<text text-anchor="middle" x="8675.41" y="-580.11" font-family="Times,serif" font-size="14.00">FARMS AND GARDENS</text>
</g>
<!-- 44925&#45;&gt;44775 -->
<g id="edge46" class="edge">
<title>44925&#45;&gt;44775</title>
<path fill="none" stroke="#dddddd" d="M8537.18,-516.19C8545.83,-517.86 8554.44,-519.33 8562.91,-520.52 8661.93,-534.5 8688.78,-533.68 8787.91,-520.52 8792.59,-519.9 8797.32,-519.21 8802.07,-518.45"/>
<polygon fill="#dddddd" stroke="#dddddd" points="8802.44,-521.94 8811.72,-516.82 8801.27,-515.03 8802.44,-521.94"/>
<text text-anchor="middle" x="8675.41" y="-533.9" font-family="Times,serif" font-size="14.00">GYMNASIUM/SPORTS FIELD</text>
</g>
<!-- 44925&#45;&gt;44775 -->
<g id="edge47" class="edge">
<title>44925&#45;&gt;44775</title>
<path fill="none" stroke="#dddddd" d="M8544.5,-479.59C8550.71,-479.94 8556.86,-480.25 8562.91,-480.52 8662.81,-484.98 8688,-484.7 8787.91,-480.52 8790.28,-480.42 8792.67,-480.32 8795.07,-480.21"/>
<polygon fill="#dddddd" stroke="#dddddd" points="8795.05,-483.71 8804.87,-479.72 8794.7,-476.72 8795.05,-483.71"/>
<text text-anchor="middle" x="8675.41" y="-486.96" font-family="Times,serif" font-size="14.00">WORKSHOPS</text>
</g>
<!-- 44925&#45;&gt;44775 -->
<g id="edge48" class="edge">
<title>44925&#45;&gt;44775</title>
<path fill="none" stroke="#dddddd" d="M8545.36,-460.15C8551.28,-460.1 8557.14,-460.06 8562.91,-460.02 8662.91,-459.4 8687.91,-459.44 8787.91,-460.02 8789.99,-460.04 8792.07,-460.05 8794.17,-460.06"/>
<polygon fill="#dddddd" stroke="#dddddd" points="8793.94,-463.56 8803.96,-460.13 8793.99,-456.56 8793.94,-463.56"/>
<text text-anchor="middle" x="8675.41" y="-463.22" font-family="Times,serif" font-size="14.00">KITCHEN</text>
</g>
<!-- 44925&#45;&gt;44775 -->
<g id="edge49" class="edge">
<title>44925&#45;&gt;44775</title>
<path fill="none" stroke="#dddddd" d="M8543.93,-440.29C8550.33,-439.81 8556.67,-439.39 8562.91,-439.02 8662.74,-433.22 8688.06,-433.58 8787.91,-439.02 8790.42,-439.16 8792.95,-439.31 8795.49,-439.46"/>
<polygon fill="#dddddd" stroke="#dddddd" points="8794.98,-442.93 8805.18,-440.09 8795.43,-435.95 8794.98,-442.93"/>
<text text-anchor="middle" x="8675.41" y="-442.22" font-family="Times,serif" font-size="14.00">HOBBIES</text>
</g>
<!-- 44925&#45;&gt;44775 -->
<g id="edge50" class="edge">
<title>44925&#45;&gt;44775</title>
<path fill="none" stroke="#dddddd" d="M8539.56,-417.29C8547.42,-416.04 8555.23,-414.93 8562.91,-414.02 8662.21,-402.24 8688.53,-402.94 8787.91,-414.02 8791.78,-414.45 8795.68,-414.93 8799.6,-415.44"/>
<polygon fill="#dddddd" stroke="#dddddd" points="8798.83,-418.87 8809.21,-416.77 8799.79,-411.93 8798.83,-418.87"/>
<text text-anchor="middle" x="8675.41" y="-417.22" font-family="Times,serif" font-size="14.00">CELL FURNISHINGS</text>
</g>
<!-- 44925&#45;&gt;44775 -->
<g id="edge51" class="edge">
<title>44925&#45;&gt;44775</title>
<path fill="none" stroke="#dddddd" d="M8531.38,-392.24C8541.94,-389.41 8552.5,-386.96 8562.91,-385.02 8661.23,-366.76 8689.41,-367.79 8787.91,-385.02 8794.41,-386.16 8800.98,-387.48 8807.57,-388.95"/>
<polygon fill="#dddddd" stroke="#dddddd" points="8806.68,-392.33 8817.21,-391.21 8808.28,-385.52 8806.68,-392.33"/>
<text text-anchor="middle" x="8675.41" y="-388.22" font-family="Times,serif" font-size="14.00">WING/HOUSEBLOCK FURNISHINGS</text>
</g>
<!-- 44925&#45;&gt;44775 -->
<g id="edge52" class="edge">
<title>44925&#45;&gt;44775</title>
<path fill="none" stroke="#dddddd" d="M8518.06,-366.28C8532.84,-360.15 8547.91,-354.9 8562.91,-351.02 8659.73,-326.01 8690.76,-327.3 8787.91,-351.02 8798.89,-353.7 8809.93,-357.05 8820.9,-360.9"/>
<polygon fill="#dddddd" stroke="#dddddd" points="8819.38,-364.07 8829.97,-364.21 8821.78,-357.49 8819.38,-364.07"/>
<text text-anchor="middle" x="8675.41" y="-354.22" font-family="Times,serif" font-size="14.00">SMUGGLED</text>
</g>
<!-- 44925&#45;&gt;44775 -->
<g id="edge53" class="edge">
<title>44925&#45;&gt;44775</title>
<path fill="none" stroke="#dddddd" d="M8500.32,-341.77C8520.27,-329.64 8541.37,-319.18 8562.91,-312.02 8657.81,-280.49 8692.55,-281.93 8787.91,-312.02 8805.33,-317.52 8822.56,-324.99 8839.24,-333.68"/>
<polygon fill="#dddddd" stroke="#dddddd" points="8837.2,-336.56 8847.66,-338.22 8840.52,-330.39 8837.2,-336.56"/>
<text text-anchor="middle" x="8675.41" y="-315.22" font-family="Times,serif" font-size="14.00">NOT KNOWN</text>
</g>
<!-- 44925&#45;&gt;44775 -->
<g id="edge54" class="edge">
<title>44925&#45;&gt;44775</title>
<path fill="none" stroke="#dddddd" d="M8479.36,-320.97C8504.52,-299.36 8532.71,-280.22 8562.91,-268.02 8655.63,-230.56 8694.61,-232.05 8787.91,-268.02 8813.7,-277.97 8838.31,-292.61 8861.07,-309.46"/>
<polygon fill="#dddddd" stroke="#dddddd" points="8858.75,-312.1 8868.82,-315.37 8862.99,-306.53 8858.75,-312.1"/>
<text text-anchor="middle" x="8675.41" y="-271.22" font-family="Times,serif" font-size="14.00">OTHER</text>
</g>
<!-- 44678&#45;&gt;44228 -->
<g id="edge31" class="edge">
<title>44678&#45;&gt;44228</title>
<path fill="none" stroke="#dddddd" d="M4190.35,-315.52C4206.69,-315.52 4223.26,-315.52 4239.83,-315.52"/>
<polygon fill="#dddddd" stroke="#dddddd" points="4239.78,-319.02 4249.78,-315.52 4239.78,-312.02 4239.78,-319.02"/>
<text text-anchor="middle" x="4220.88" y="-318.72" font-family="Times,serif" font-size="14.00">YES</text>
</g>
<!-- 44678&#45;&gt;44228 -->
<g id="edge32" class="edge">
<title>44678&#45;&gt;44228</title>
<path fill="none" stroke="#dddddd" d="M4189.75,-295.87C4195.94,-295.56 4202.07,-295.27 4208.13,-295.02 4218.82,-294.58 4229.72,-294.33 4240.73,-294.25"/>
<polygon fill="#dddddd" stroke="#dddddd" points="4240.73,-297.75 4250.72,-294.22 4240.71,-290.75 4240.73,-297.75"/>
<text text-anchor="middle" x="4220.88" y="-298.22" font-family="Times,serif" font-size="14.00">NO</text>
</g>
<!-- 44449 -->
<g id="node15" class="node">
<title>44449</title>
<ellipse fill="#dddddd" stroke="#dddddd" cx="9458.55" cy="-294.52" rx="195.68" ry="195.68"/>
<text text-anchor="middle" x="9458.55" y="-289.47" font-family="Times,serif" font-size="14.00">DESCRIBE THE REMEDIAL ACTION TAKEN</text>
</g>
<!-- 44921 -->
<g id="node16" class="node">
<title>44921</title>
<ellipse fill="#dddddd" stroke="#dddddd" cx="10026.88" cy="-328.52" rx="161.9" ry="161.9"/>
<text text-anchor="middle" x="10026.88" y="-323.47" font-family="Times,serif" font-size="14.00">ESTIMATED COST OF THIS ACTION</text>
</g>
<!-- 44449&#45;&gt;44921 -->
<g id="edge23" class="edge">
<title>44449&#45;&gt;44921</title>
<path fill="none" stroke="#dddddd" d="M9647.8,-345.87C9656.02,-347.27 9664.19,-348.5 9672.23,-349.52 9749.28,-359.32 9769.45,-354.06 9846.98,-349.52 9849.52,-349.37 9852.07,-349.21 9854.64,-349.04"/>
<polygon fill="#dddddd" stroke="#dddddd" points="9854.77,-352.54 9864.49,-348.34 9854.27,-345.56 9854.77,-352.54"/>
<text text-anchor="middle" x="9759.6" y="-358.27" font-family="Times,serif" font-size="14.00">COMPLETE RELOCK</text>
</g>
<!-- 44449&#45;&gt;44921 -->
<g id="edge24" class="edge">
<title>44449&#45;&gt;44921</title>
<path fill="none" stroke="#dddddd" d="M9653.97,-308.37C9660.13,-308.76 9666.23,-309.15 9672.23,-309.52 9731.2,-313.19 9795.73,-316.78 9853.34,-319.83"/>
<polygon fill="#dddddd" stroke="#dddddd" points="9853.08,-323.32 9863.25,-320.36 9853.45,-316.33 9853.08,-323.32"/>
<text text-anchor="middle" x="9759.6" y="-322.65" font-family="Times,serif" font-size="14.00">PARTIAL RELOCK</text>
</g>
<!-- 44449&#45;&gt;44921 -->
<g id="edge25" class="edge">
<title>44449&#45;&gt;44921</title>
<path fill="none" stroke="#dddddd" d="M9654.11,-282.44C9715.92,-281.1 9784.45,-282.2 9846.98,-289.02 9850.62,-289.42 9854.29,-289.86 9857.98,-290.34"/>
<polygon fill="#dddddd" stroke="#dddddd" points="9857.24,-293.77 9867.63,-291.69 9858.21,-286.84 9857.24,-293.77"/>
<text text-anchor="middle" x="9759.6" y="-292.22" font-family="Times,serif" font-size="14.00">COMPLETE REPLACEMENT</text>
</g>
<!-- 44449&#45;&gt;44921 -->
<g id="edge26" class="edge">
<title>44449&#45;&gt;44921</title>
<path fill="none" stroke="#dddddd" d="M9651.15,-257.84C9713.9,-251.17 9783.72,-249.49 9846.98,-261.02 9853.26,-262.17 9859.6,-263.52 9865.96,-265.05"/>
<polygon fill="#dddddd" stroke="#dddddd" points="9864.66,-268.33 9875.21,-267.39 9866.38,-261.54 9864.66,-268.33"/>
<text text-anchor="middle" x="9759.6" y="-264.22" font-family="Times,serif" font-size="14.00">PARTIAL REPLACEMENT</text>
</g>
<!-- 44921&#45;&gt;END_NODE -->
<g id="edge40" class="edge">
<title>44921&#45;&gt;END_NODE</title>
<path fill="none" stroke="#dddddd" d="M10185.96,-360.29C10281.28,-379.44 10395.75,-402.45 10456.96,-414.75"/>
<polygon fill="#dddddd" stroke="#dddddd" points="10456.13,-418.15 10466.62,-416.69 10457.51,-411.29 10456.13,-418.15"/>
<text text-anchor="middle" x="10328.28" y="-414.95" font-family="Times,serif" font-size="14.00">ENTER AMOUNT IN POUND STERLING</text>
</g>
<!-- 45072&#45;&gt;44166 -->
<g id="edge80" class="edge">
<title>45072&#45;&gt;44166</title>
<path fill="none" stroke="#dddddd" d="M1173.12,-293.59C1190.13,-294.71 1207.26,-295.84 1224.3,-296.97"/>
<polygon fill="#dddddd" stroke="#dddddd" points="1223.76,-300.44 1233.97,-297.6 1224.22,-293.45 1223.76,-300.44"/>
<text text-anchor="middle" x="1204.21" y="-298.72" font-family="Times,serif" font-size="14.00">YES</text>
</g>
<!-- 45072&#45;&gt;44166 -->
<g id="edge81" class="edge">
<title>45072&#45;&gt;44166</title>
<path fill="none" stroke="#dddddd" d="M1173.53,-272.64C1188.23,-273.25 1202.78,-274.03 1216.96,-275.02 1219.89,-275.23 1222.83,-275.44 1225.79,-275.67"/>
<polygon fill="#dddddd" stroke="#dddddd" points="1225.5,-279.16 1235.75,-276.48 1226.07,-272.18 1225.5,-279.16"/>
<text text-anchor="middle" x="1204.21" y="-278.22" font-family="Times,serif" font-size="14.00">NO</text>
</g>
<!-- 44619 -->
<g id="node18" class="node">
<title>44619</title>
<ellipse fill="#dddddd" stroke="#dddddd" cx="6452.55" cy="-395.52" rx="178.28" ry="178.28"/>
<text text-anchor="middle" x="6452.55" y="-390.47" font-family="Times,serif" font-size="14.00">HAVE THE LOST ITEM(S) BEEN FOUND</text>
</g>
<!-- 44619&#45;&gt;44894 -->
<g id="edge29" class="edge">
<title>44619&#45;&gt;44894</title>
<path fill="none" stroke="#dddddd" d="M6629.94,-417.67C6636.31,-418.32 6642.63,-418.94 6648.83,-419.52 6706.52,-424.93 6768.8,-429.59 6827.2,-433.44"/>
<polygon fill="#dddddd" stroke="#dddddd" points="6826.73,-436.91 6836.94,-434.07 6827.19,-429.93 6826.73,-436.91"/>
<text text-anchor="middle" x="6734.71" y="-435.45" font-family="Times,serif" font-size="14.00">YES</text>
</g>
<!-- 44619&#45;&gt;44894 -->
<g id="edge30" class="edge">
<title>44619&#45;&gt;44894</title>
<path fill="none" stroke="#dddddd" d="M6631.26,-390.74C6691.49,-390.84 6759.08,-392.84 6820.58,-399.02 6824.09,-399.38 6827.63,-399.75 6831.18,-400.16"/>
<polygon fill="#dddddd" stroke="#dddddd" points="6830.75,-403.63 6841.09,-401.34 6831.58,-396.68 6830.75,-403.63"/>
<text text-anchor="middle" x="6734.71" y="-402.22" font-family="Times,serif" font-size="14.00">NO</text>
</g>
<!-- 44775&#45;&gt;END_NODE -->
<g id="edge34" class="edge">
<title>44775&#45;&gt;END_NODE</title>
<path fill="none" stroke="#dddddd" d="M9199.25,-493.42C9220.67,-495.92 9242.2,-498.05 9262.87,-499.52 9673.34,-528.78 9780.2,-548.59 10188.78,-499.52 10287.02,-487.73 10399.01,-455.73 10458.41,-437.23"/>
<polygon fill="#dddddd" stroke="#dddddd" points="10459.29,-440.63 10467.78,-434.29 10457.19,-433.95 10459.29,-440.63"/>
<text text-anchor="middle" x="9759.6" y="-532.55" font-family="Times,serif" font-size="14.00">NO</text>
</g>
<!-- 44775&#45;&gt;44449 -->
<g id="edge33" class="edge">
<title>44775&#45;&gt;44449</title>
<path fill="none" stroke="#dddddd" d="M9189.51,-393.95C9214.12,-384.82 9239.41,-375.44 9264.16,-366.26"/>
<polygon fill="#dddddd" stroke="#dddddd" points="9265.16,-369.62 9273.32,-362.86 9262.72,-363.06 9265.16,-369.62"/>
<text text-anchor="middle" x="9232.12" y="-381.72" font-family="Times,serif" font-size="14.00">YES</text>
</g>
<!-- 44866&#45;&gt;44407 -->
<g id="edge35" class="edge">
<title>44866&#45;&gt;44407</title>
<path fill="none" stroke="#dddddd" d="M7687.74,-263.96C7717.64,-287.14 7752.57,-314.22 7785.02,-339.38"/>
<polygon fill="#dddddd" stroke="#dddddd" points="7782.86,-342.13 7792.91,-345.49 7787.15,-336.6 7782.86,-342.13"/>
<text text-anchor="middle" x="7737.99" y="-310.72" font-family="Times,serif" font-size="14.00">YES</text>
</g>
<!-- 44866&#45;&gt;44775 -->
<g id="edge36" class="edge">
<title>44866&#45;&gt;44775</title>
<path fill="none" stroke="#dddddd" d="M7705.26,-185.04C7911,-144.42 8416.26,-71.15 8787.91,-236.52 8820.06,-250.83 8849.74,-272.45 8876.11,-296.74"/>
<polygon fill="#dddddd" stroke="#dddddd" points="8873.42,-299.01 8883.09,-303.33 8878.22,-293.92 8873.42,-299.01"/>
<text text-anchor="middle" x="8096.94" y="-142.89" font-family="Times,serif" font-size="14.00">NO</text>
</g>
<!-- 45015&#45;&gt;44355 -->
<g id="edge76" class="edge">
<title>45015&#45;&gt;44355</title>
<path fill="none" stroke="#dddddd" d="M5971.93,-428.65C6083.86,-499.1 6225.09,-587.99 6325.24,-651.02"/>
<polygon fill="#dddddd" stroke="#dddddd" points="6323.19,-653.87 6333.52,-656.23 6326.92,-647.94 6323.19,-653.87"/>
<text text-anchor="middle" x="6139.27" y="-599.49" font-family="Times,serif" font-size="14.00">REPLICA KEY USED</text>
</g>
<!-- 45015&#45;&gt;44619 -->
<g id="edge71" class="edge">
<title>45015&#45;&gt;44619</title>
<path fill="none" stroke="#dddddd" d="M5985.31,-404.19C5997.66,-407.86 6010.04,-411.03 6022.27,-413.52 6100.73,-429.54 6188.87,-428.95 6264.77,-422.88"/>
<polygon fill="#dddddd" stroke="#dddddd" points="6264.7,-426.4 6274.37,-422.07 6264.12,-419.42 6264.7,-426.4"/>
<text text-anchor="middle" x="6139.27" y="-430.02" font-family="Times,serif" font-size="14.00">LOSS OF KEY(S)</text>
</g>
<!-- 45015&#45;&gt;44619 -->
<g id="edge72" class="edge">
<title>45015&#45;&gt;44619</title>
<path fill="none" stroke="#dddddd" d="M5997.82,-369.45C6006.05,-370.95 6014.23,-372.32 6022.27,-373.52 6067.92,-380.38 6169.71,-385.75 6262.72,-389.46"/>
<polygon fill="#dddddd" stroke="#dddddd" points="6262.37,-392.95 6272.5,-389.85 6262.65,-385.96 6262.37,-392.95"/>
<text text-anchor="middle" x="6139.27" y="-392.12" font-family="Times,serif" font-size="14.00">LOSS OF HANDCUFFS</text>
</g>
<!-- 45015&#45;&gt;44619 -->
<g id="edge73" class="edge">
<title>45015&#45;&gt;44619</title>
<path fill="none" stroke="#dddddd" d="M6004.03,-332.33C6123.21,-341.84 6249.59,-352.03 6256.27,-353.02 6259.88,-353.56 6263.51,-354.12 6267.17,-354.71"/>
<polygon fill="#dddddd" stroke="#dddddd" points="6266.29,-358.11 6276.73,-356.29 6267.43,-351.2 6266.29,-358.11"/>
<text text-anchor="middle" x="6139.27" y="-356.22" font-family="Times,serif" font-size="14.00">LOSS OF CLOSETING/ESCORT CHAIN</text>
</g>
<!-- 45015&#45;&gt;44619 -->
<g id="edge74" class="edge">
<title>45015&#45;&gt;44619</title>
<path fill="none" stroke="#dddddd" d="M6003.86,-297.1C6083.66,-294.78 6174.8,-297.7 6256.27,-314.02 6263.65,-315.5 6271.11,-317.27 6278.57,-319.26"/>
<polygon fill="#dddddd" stroke="#dddddd" points="6277.47,-322.59 6288.04,-321.93 6279.37,-315.85 6277.47,-322.59"/>
<text text-anchor="middle" x="6139.27" y="-317.22" font-family="Times,serif" font-size="14.00">COMPLETE LOCK REMOVED</text>
</g>
<!-- 45015&#45;&gt;44619 -->
<g id="edge75" class="edge">
<title>45015&#45;&gt;44619</title>
<path fill="none" stroke="#dddddd" d="M5999.07,-266.72C6080.47,-255.55 6173.96,-252.84 6256.27,-276.02 6269.25,-279.68 6282.22,-284.47 6294.96,-290.02"/>
<polygon fill="#dddddd" stroke="#dddddd" points="6293.19,-293.06 6303.74,-294 6296.08,-286.68 6293.19,-293.06"/>
<text text-anchor="middle" x="6139.27" y="-279.22" font-family="Times,serif" font-size="14.00">PART LOCK REMOVED</text>
</g>
<!-- 45015&#45;&gt;44866 -->
<g id="edge77" class="edge">
<title>45015&#45;&gt;44866</title>
<path fill="none" stroke="#dddddd" d="M5996.81,-258.06C6081.86,-237.34 6182.07,-216.97 6274.27,-208.52 6730.29,-166.73 7277.54,-187.61 7504.12,-199.36"/>
<polygon fill="#dddddd" stroke="#dddddd" points="7503.64,-202.84 7513.81,-199.86 7504.01,-195.85 7503.64,-202.84"/>
<text text-anchor="middle" x="6734.71" y="-190.19" font-family="Times,serif" font-size="14.00">LOCKS PICKED</text>
</g>
<!-- 45015&#45;&gt;44866 -->
<g id="edge78" class="edge">
<title>45015&#45;&gt;44866</title>
<path fill="none" stroke="#dddddd" d="M5981.69,-219.53C5995.23,-214.61 6008.84,-210.19 6022.27,-206.52 6130.76,-176.88 6162.09,-191.56 6274.27,-183.52 6440.54,-171.61 6482.19,-168.36 6648.83,-164.02 6936.66,-156.54 7008.74,-169.11 7296.48,-179.52 7385.83,-182.76 7408.51,-178.69 7497.48,-187.52 7500.01,-187.77 7502.56,-188.05 7505.14,-188.33"/>
<polygon fill="#dddddd" stroke="#dddddd" points="7504.69,-191.8 7515.04,-189.52 7505.52,-184.85 7504.69,-191.8"/>
<text text-anchor="middle" x="6734.71" y="-167.22" font-family="Times,serif" font-size="14.00">ELECTRONICS OVERCOME</text>
</g>
<!-- 45015&#45;&gt;44866 -->
<g id="edge79" class="edge">
<title>45015&#45;&gt;44866</title>
<path fill="none" stroke="#dddddd" d="M5971.07,-200.51C5987.95,-192.76 6005.15,-185.91 6022.27,-180.52 6129.44,-146.79 6162.16,-167.89 6274.27,-160.52 6727.61,-130.74 6843.11,-128.26 7296.48,-157.52 7386.03,-163.3 7409.09,-161.09 7497.48,-176.52 7500.7,-177.09 7503.97,-177.69 7507.26,-178.34"/>
<polygon fill="#dddddd" stroke="#dddddd" points="7506.54,-181.76 7517.04,-180.35 7507.95,-174.91 7506.54,-181.76"/>
<text text-anchor="middle" x="6734.71" y="-142.79" font-family="Times,serif" font-size="14.00">OTHER</text>
</g>
</g>
</svg>
