<?xml version="1.0" encoding="UTF-8" standalone="no"?>
<!DOCTYPE svg PUBLIC "-//W3C//DTD SVG 1.1//EN"
 "http://www.w3.org/Graphics/SVG/1.1/DTD/svg11.dtd">
<!-- Generated by graphviz version 12.1.1 (20240910.0053)
 -->
<!-- Title: OLD_TEMPORARY_RELEASE_FAILURE2 Pages: 1 -->
<svg width="12976pt" height="1414pt"
 viewBox="0.00 0.00 12976.16 1413.90" xmlns="http://www.w3.org/2000/svg" xmlns:xlink="http://www.w3.org/1999/xlink">
<g id="graph0" class="graph" transform="scale(1 1) rotate(0) translate(4 1409.9)">
<title>OLD_TEMPORARY_RELEASE_FAILURE2</title>
<polygon fill="white" stroke="none" points="-4,4 -4,-1409.9 12972.16,-1409.9 12972.16,4 -4,4"/>
<!-- START_NODE -->
<g id="node1" class="node">
<title>START_NODE</title>
</g>
<!-- 55179 -->
<g id="node2" class="node">
<title>55179</title>
<ellipse fill="#dddddd" stroke="#dddddd" cx="342.71" cy="-298.55" rx="229.46" ry="229.46"/>
<text text-anchor="middle" x="342.71" y="-293.5" font-family="Times,serif" font-size="14.00">What was the main management outcome of the incident?</text>
</g>
<!-- START_NODE&#45;&gt;55179 -->
<g id="edge1" class="edge">
<title>START_NODE&#45;&gt;55179</title>
<path fill="none" stroke="black" d="M53.94,-298.55C66.46,-298.55 82.79,-298.55 101.32,-298.55"/>
<polygon fill="black" stroke="black" points="101.28,-302.05 111.28,-298.55 101.28,-295.05 101.28,-302.05"/>
<text text-anchor="middle" x="83.62" y="-301.75" font-family="Times,serif" font-size="14.00">start</text>
</g>
<!-- 55180 -->
<g id="node4" class="node">
<title>55180</title>
<ellipse fill="#dddddd" stroke="#dddddd" cx="1009.77" cy="-298.55" rx="202.85" ry="202.85"/>
<text text-anchor="middle" x="1009.77" y="-293.5" font-family="Times,serif" font-size="14.00">Is any member of staff facing disciplinary charges?</text>
</g>
<!-- 55179&#45;&gt;55180 -->
<g id="edge2" class="edge">
<title>55179&#45;&gt;55180</title>
<path fill="none" stroke="#dddddd" d="M560.57,-371.15C570.51,-373.22 580.41,-375.05 590.17,-376.55 677.47,-390.04 701.87,-391.54 788.92,-376.55 795.38,-375.44 801.9,-374.16 808.44,-372.73"/>
<polygon fill="#dddddd" stroke="#dddddd" points="809.04,-376.19 818,-370.54 807.47,-369.36 809.04,-376.19"/>
<text text-anchor="middle" x="689.55" y="-390.44" font-family="Times,serif" font-size="14.00">No further action</text>
</g>
<!-- 55179&#45;&gt;55180 -->
<g id="edge3" class="edge">
<title>55179&#45;&gt;55180</title>
<path fill="none" stroke="#dddddd" d="M569.52,-334.76C576.48,-335.43 583.37,-336.03 590.17,-336.55 678.25,-343.3 700.91,-344.1 788.92,-336.55 792.03,-336.29 795.15,-336 798.29,-335.7"/>
<polygon fill="#dddddd" stroke="#dddddd" points="798.65,-339.18 808.24,-334.66 797.93,-332.21 798.65,-339.18"/>
<text text-anchor="middle" x="689.55" y="-345.12" font-family="Times,serif" font-size="14.00">IEP Regression</text>
</g>
<!-- 55179&#45;&gt;55180 -->
<g id="edge4" class="edge">
<title>55179&#45;&gt;55180</title>
<path fill="none" stroke="#dddddd" d="M572.59,-298.55C644.72,-298.55 724.08,-298.55 795.11,-298.55"/>
<polygon fill="#dddddd" stroke="#dddddd" points="794.93,-302.05 804.93,-298.55 794.93,-295.05 794.93,-302.05"/>
<text text-anchor="middle" x="689.55" y="-301.75" font-family="Times,serif" font-size="14.00">Placed on report/adjudication referal</text>
</g>
<!-- 55179&#45;&gt;55180 -->
<g id="edge5" class="edge">
<title>55179&#45;&gt;55180</title>
<path fill="none" stroke="#dddddd" d="M571.61,-278.92C577.86,-278.6 584.06,-278.31 590.17,-278.05 678.43,-274.39 700.68,-273.95 788.92,-278.05 791.31,-278.17 793.72,-278.28 796.14,-278.41"/>
<polygon fill="#dddddd" stroke="#dddddd" points="795.86,-281.9 806.03,-278.95 796.24,-274.91 795.86,-281.9"/>
<text text-anchor="middle" x="689.55" y="-281.25" font-family="Times,serif" font-size="14.00">Police referral</text>
</g>
<!-- 55179&#45;&gt;55180 -->
<g id="edge6" class="edge">
<title>55179&#45;&gt;55180</title>
<path fill="none" stroke="#dddddd" d="M568.81,-257.18C576,-256.38 583.14,-255.67 590.17,-255.05 678.17,-247.35 701.01,-246.44 788.92,-255.05 792.39,-255.39 795.89,-255.76 799.4,-256.16"/>
<polygon fill="#dddddd" stroke="#dddddd" points="798.85,-259.62 809.19,-257.34 799.68,-252.67 798.85,-259.62"/>
<text text-anchor="middle" x="689.55" y="-258.25" font-family="Times,serif" font-size="14.00">CPS referral</text>
</g>
<!-- 55179&#45;&gt;55180 -->
<g id="edge7" class="edge">
<title>55179&#45;&gt;55180</title>
<path fill="none" stroke="#dddddd" d="M562.75,-232.55C571.97,-230.84 581.14,-229.32 590.17,-228.05 677.65,-215.79 701.65,-214.4 788.92,-228.05 794.59,-228.94 800.32,-229.95 806.07,-231.06"/>
<polygon fill="#dddddd" stroke="#dddddd" points="805.19,-234.46 815.68,-233.03 806.59,-227.6 805.19,-234.46"/>
<text text-anchor="middle" x="689.55" y="-231.25" font-family="Times,serif" font-size="14.00">Prosecution referral</text>
</g>
<!-- END_NODE -->
<g id="node3" class="node">
<title>END_NODE</title>
<ellipse fill="none" stroke="black" cx="12934.3" cy="-921.55" rx="29.86" ry="29.86"/>
<ellipse fill="none" stroke="black" cx="12934.3" cy="-921.55" rx="33.86" ry="33.86"/>
<text text-anchor="middle" x="12934.3" y="-916.5" font-family="Times,serif" font-size="14.00">END</text>
</g>
<!-- 55181 -->
<g id="node5" class="node">
<title>55181</title>
<ellipse fill="#dddddd" stroke="#dddddd" cx="1407.22" cy="-298.55" rx="138.36" ry="138.36"/>
<text text-anchor="middle" x="1407.22" y="-293.5" font-family="Times,serif" font-size="14.00">Was ROTL standard or restricted?</text>
</g>
<!-- 55180&#45;&gt;55181 -->
<g id="edge8" class="edge">
<title>55180&#45;&gt;55181</title>
<path fill="none" stroke="#dddddd" d="M1212.84,-298.55C1227.7,-298.55 1242.53,-298.55 1256.99,-298.55"/>
<polygon fill="#dddddd" stroke="#dddddd" points="1256.98,-302.05 1266.98,-298.55 1256.98,-295.05 1256.98,-302.05"/>
<text text-anchor="middle" x="1240.74" y="-301.75" font-family="Times,serif" font-size="14.00">Yes</text>
</g>
<!-- 55180&#45;&gt;55181 -->
<g id="edge9" class="edge">
<title>55180&#45;&gt;55181</title>
<path fill="none" stroke="#dddddd" d="M1211.82,-276.91C1225.03,-276.87 1238.13,-277.22 1250.86,-278.05 1253.4,-278.22 1255.96,-278.4 1258.53,-278.6"/>
<polygon fill="#dddddd" stroke="#dddddd" points="1258.16,-282.08 1268.41,-279.42 1258.73,-275.1 1258.16,-282.08"/>
<text text-anchor="middle" x="1240.74" y="-281.25" font-family="Times,serif" font-size="14.00">No</text>
</g>
<!-- 55182 -->
<g id="node6" class="node">
<title>55182</title>
<ellipse fill="#dddddd" stroke="#dddddd" cx="1861.8" cy="-298.55" rx="186.47" ry="186.47"/>
<text text-anchor="middle" x="1861.8" y="-293.5" font-family="Times,serif" font-size="14.00">What type of temporary licence was breached?</text>
</g>
<!-- 55181&#45;&gt;55182 -->
<g id="edge10" class="edge">
<title>55181&#45;&gt;55182</title>
<path fill="none" stroke="#dddddd" d="M1545.85,-298.55C1582.98,-298.55 1623.88,-298.55 1663.57,-298.55"/>
<polygon fill="#dddddd" stroke="#dddddd" points="1663.49,-302.05 1673.49,-298.55 1663.49,-295.05 1663.49,-302.05"/>
<text text-anchor="middle" x="1610.46" y="-301.75" font-family="Times,serif" font-size="14.00">Standard ROTL</text>
</g>
<!-- 55181&#45;&gt;55182 -->
<g id="edge11" class="edge">
<title>55181&#45;&gt;55182</title>
<path fill="none" stroke="#dddddd" d="M1544.53,-279.54C1550.96,-278.97 1557.34,-278.46 1563.58,-278.05 1596.27,-275.91 1630.98,-276.08 1664.71,-277.55"/>
<polygon fill="#dddddd" stroke="#dddddd" points="1664.44,-281.04 1674.59,-278.02 1664.77,-274.05 1664.44,-281.04"/>
<text text-anchor="middle" x="1610.46" y="-281.25" font-family="Times,serif" font-size="14.00">Restricted ROTL</text>
</g>
<!-- 55183 -->
<g id="node7" class="node">
<title>55183</title>
<ellipse fill="#dddddd" stroke="#dddddd" cx="2436" cy="-298.55" rx="208.48" ry="208.48"/>
<text text-anchor="middle" x="2436" y="-293.5" font-family="Times,serif" font-size="14.00">What was the specific purpose of temporary release?</text>
</g>
<!-- 55182&#45;&gt;55183 -->
<g id="edge12" class="edge">
<title>55182&#45;&gt;55183</title>
<path fill="none" stroke="#dddddd" d="M2040.84,-352.33C2049.4,-353.96 2057.9,-355.39 2066.27,-356.55 2129.32,-365.37 2146.36,-364.55 2209.52,-356.55 2214.14,-355.97 2218.81,-355.32 2223.5,-354.61"/>
<polygon fill="#dddddd" stroke="#dddddd" points="2223.68,-358.13 2233,-353.1 2222.57,-351.22 2223.68,-358.13"/>
<text text-anchor="middle" x="2137.89" y="-366.06" font-family="Times,serif" font-size="14.00">Resettlement Day</text>
</g>
<!-- 55182&#45;&gt;55183 -->
<g id="edge13" class="edge">
<title>55182&#45;&gt;55183</title>
<path fill="none" stroke="#dddddd" d="M2047.95,-315.63C2054.13,-315.98 2060.25,-316.29 2066.27,-316.55 2129.87,-319.36 2145.9,-319.09 2209.52,-316.55 2211.9,-316.46 2214.28,-316.36 2216.69,-316.25"/>
<polygon fill="#dddddd" stroke="#dddddd" points="2216.67,-319.76 2226.49,-315.79 2216.34,-312.77 2216.67,-319.76"/>
<text text-anchor="middle" x="2137.89" y="-321.76" font-family="Times,serif" font-size="14.00">Resettlement Overnight</text>
</g>
<!-- 55182&#45;&gt;55183 -->
<g id="edge14" class="edge">
<title>55182&#45;&gt;55183</title>
<path fill="none" stroke="#dddddd" d="M2048.54,-296.18C2054.52,-296.13 2060.44,-296.09 2066.27,-296.05 2129.94,-295.66 2145.85,-295.7 2209.52,-296.05 2211.59,-296.07 2213.68,-296.08 2215.78,-296.09"/>
<polygon fill="#dddddd" stroke="#dddddd" points="2215.53,-299.59 2225.55,-296.15 2215.57,-292.59 2215.53,-299.59"/>
<text text-anchor="middle" x="2137.89" y="-299.25" font-family="Times,serif" font-size="14.00">Childcare Resettlement</text>
</g>
<!-- 55182&#45;&gt;55183 -->
<g id="edge15" class="edge">
<title>55182&#45;&gt;55183</title>
<path fill="none" stroke="#dddddd" d="M2047.37,-276.3C2053.74,-275.83 2060.06,-275.41 2066.27,-275.05 2129.83,-271.4 2145.94,-271.75 2209.52,-275.05 2212.03,-275.19 2214.56,-275.32 2217.11,-275.47"/>
<polygon fill="#dddddd" stroke="#dddddd" points="2216.62,-278.95 2226.82,-276.07 2217.05,-271.96 2216.62,-278.95"/>
<text text-anchor="middle" x="2137.89" y="-278.25" font-family="Times,serif" font-size="14.00">Special Purpose (medical)</text>
</g>
<!-- 55182&#45;&gt;55183 -->
<g id="edge16" class="edge">
<title>55182&#45;&gt;55183</title>
<path fill="none" stroke="#dddddd" d="M2043.55,-255.06C2051.2,-253.91 2058.8,-252.9 2066.27,-252.05 2129.53,-244.92 2146.18,-245.59 2209.52,-252.05 2213.2,-252.43 2216.9,-252.84 2220.63,-253.28"/>
<polygon fill="#dddddd" stroke="#dddddd" points="2220.02,-256.73 2230.37,-254.5 2220.89,-249.78 2220.02,-256.73"/>
<text text-anchor="middle" x="2137.89" y="-255.25" font-family="Times,serif" font-size="14.00">Special Purpose (other)</text>
</g>
<!-- 55184 -->
<g id="node8" class="node">
<title>55184</title>
<ellipse fill="#dddddd" stroke="#dddddd" cx="3375.78" cy="-298.55" rx="298.55" ry="298.55"/>
<text text-anchor="middle" x="3375.78" y="-293.5" font-family="Times,serif" font-size="14.00">Were UAL contingency plans (including notification to the police) activated?</text>
</g>
<!-- 55183&#45;&gt;55184 -->
<g id="edge17" class="edge">
<title>55183&#45;&gt;55184</title>
<path fill="none" stroke="#dddddd" d="M2608.65,-416.27C2626.27,-424.44 2644.36,-431.45 2662.47,-436.55 2832.2,-484.37 2886.62,-472.65 3059.22,-436.55 3070.87,-434.12 3082.62,-431.23 3094.38,-427.97"/>
<polygon fill="#dddddd" stroke="#dddddd" points="3095.07,-431.41 3103.72,-425.29 3093.14,-424.68 3095.07,-431.41"/>
<text text-anchor="middle" x="2860.85" y="-471.37" font-family="Times,serif" font-size="14.00">Court / Legal / Police</text>
</g>
<!-- 55183&#45;&gt;55184 -->
<g id="edge18" class="edge">
<title>55183&#45;&gt;55184</title>
<path fill="none" stroke="#dddddd" d="M2625.23,-386.93C2637.66,-390.72 2650.14,-393.99 2662.47,-396.55 2748.79,-414.5 2972.05,-409.78 3059.22,-396.55 3066.2,-395.5 3073.24,-394.31 3080.31,-393.02"/>
<polygon fill="#dddddd" stroke="#dddddd" points="3080.8,-396.49 3089.97,-391.18 3079.49,-389.61 3080.8,-396.49"/>
<text text-anchor="middle" x="2860.85" y="-411.51" font-family="Times,serif" font-size="14.00">Maintaining Family Ties</text>
</g>
<!-- 55183&#45;&gt;55184 -->
<g id="edge19" class="edge">
<title>55183&#45;&gt;55184</title>
<path fill="none" stroke="#dddddd" d="M2637.5,-352.86C2645.9,-354.27 2654.25,-355.51 2662.47,-356.55 2837.41,-378.69 2883.62,-372.56 3059.22,-356.55 3063.16,-356.2 3067.11,-355.81 3071.09,-355.41"/>
<polygon fill="#dddddd" stroke="#dddddd" points="3071.27,-358.91 3080.84,-354.36 3070.53,-351.95 3071.27,-358.91"/>
<text text-anchor="middle" x="2860.85" y="-374.15" font-family="Times,serif" font-size="14.00">Other Compassionate Reason (emergency child care, attend funeral etc.)</text>
</g>
<!-- 55183&#45;&gt;55184 -->
<g id="edge20" class="edge">
<title>55183&#45;&gt;55184</title>
<path fill="none" stroke="#dddddd" d="M2643.99,-315.72C2650.22,-316.03 2656.39,-316.31 2662.47,-316.55 2838.67,-323.58 2882.96,-321.58 3059.22,-316.55 3061.49,-316.49 3063.76,-316.42 3066.04,-316.35"/>
<polygon fill="#dddddd" stroke="#dddddd" points="3066.1,-319.85 3075.99,-316.03 3065.88,-312.86 3066.1,-319.85"/>
<text text-anchor="middle" x="2860.85" y="-324.3" font-family="Times,serif" font-size="14.00">Other RDR Linked to Sentence Plan</text>
</g>
<!-- 55183&#45;&gt;55184 -->
<g id="edge21" class="edge">
<title>55183&#45;&gt;55184</title>
<path fill="none" stroke="#dddddd" d="M2644.93,-296.16C2650.84,-296.12 2656.7,-296.09 2662.47,-296.05 2838.8,-295.08 2882.89,-295.36 3059.22,-296.05 3061.34,-296.06 3063.46,-296.07 3065.6,-296.08"/>
<polygon fill="#dddddd" stroke="#dddddd" points="3065.53,-299.58 3075.55,-296.13 3065.56,-292.58 3065.53,-299.58"/>
<text text-anchor="middle" x="2860.85" y="-299.25" font-family="Times,serif" font-size="14.00">Training Or Education</text>
</g>
<!-- 55183&#45;&gt;55184 -->
<g id="edge22" class="edge">
<title>55183&#45;&gt;55184</title>
<path fill="none" stroke="#dddddd" d="M2643.66,-276.16C2650,-275.75 2656.28,-275.38 2662.47,-275.05 2838.57,-265.9 2883.01,-268.5 3059.22,-275.05 3061.64,-275.14 3064.06,-275.24 3066.49,-275.34"/>
<polygon fill="#dddddd" stroke="#dddddd" points="3066.28,-278.83 3076.42,-275.75 3066.58,-271.84 3066.28,-278.83"/>
<text text-anchor="middle" x="2860.85" y="-278.25" font-family="Times,serif" font-size="14.00">Medical</text>
</g>
<!-- 55183&#45;&gt;55184 -->
<g id="edge23" class="edge">
<title>55183&#45;&gt;55184</title>
<path fill="none" stroke="#dddddd" d="M2639.47,-251.94C2647.21,-250.85 2654.9,-249.88 2662.47,-249.05 2837.78,-230.04 2883.42,-235.35 3059.22,-249.05 3062.53,-249.31 3065.85,-249.58 3069.19,-249.87"/>
<polygon fill="#dddddd" stroke="#dddddd" points="3068.8,-253.35 3079.08,-250.76 3069.43,-246.38 3068.8,-253.35"/>
<text text-anchor="middle" x="2860.85" y="-252.25" font-family="Times,serif" font-size="14.00">Paid and unpaid work placements</text>
</g>
<!-- 55183&#45;&gt;55184 -->
<g id="edge24" class="edge">
<title>55183&#45;&gt;55184</title>
<path fill="none" stroke="#dddddd" d="M2630.75,-222.86C2641.39,-220.21 2652.01,-217.91 2662.47,-216.05 2836.1,-185.29 2884.33,-193.57 3059.22,-216.05 3064.87,-216.78 3070.56,-217.58 3076.28,-218.44"/>
<polygon fill="#dddddd" stroke="#dddddd" points="3075.4,-221.84 3085.82,-219.93 3076.49,-214.93 3075.4,-221.84"/>
<text text-anchor="middle" x="2860.85" y="-219.25" font-family="Times,serif" font-size="14.00">Marriage or civil partnership of the offender</text>
</g>
<!-- 55183&#45;&gt;55184 -->
<g id="edge25" class="edge">
<title>55183&#45;&gt;55184</title>
<path fill="none" stroke="#dddddd" d="M2614.9,-190.91C2630.61,-184.57 2646.58,-179.12 2662.47,-175.05 2833.3,-131.34 2885.95,-142.35 3059.22,-175.05 3068.99,-176.9 3078.84,-179.04 3088.72,-181.42"/>
<polygon fill="#dddddd" stroke="#dddddd" points="3087.87,-184.82 3098.42,-183.85 3089.57,-178.02 3087.87,-184.82"/>
<text text-anchor="middle" x="2860.85" y="-178.25" font-family="Times,serif" font-size="14.00">Inter&#45;prison transfers</text>
</g>
<!-- 55185 -->
<g id="node9" class="node">
<title>55185</title>
<ellipse fill="#dddddd" stroke="#dddddd" cx="3910.91" cy="-490.55" rx="180.33" ry="180.33"/>
<text text-anchor="middle" x="3910.91" y="-485.5" font-family="Times,serif" font-size="14.00">Why were UAL contingency plans activated?</text>
</g>
<!-- 55184&#45;&gt;55185 -->
<g id="edge26" class="edge">
<title>55184&#45;&gt;55185</title>
<path fill="none" stroke="#dddddd" d="M3657,-399.47C3681.83,-408.42 3706.5,-417.3 3730.14,-425.81"/>
<polygon fill="#dddddd" stroke="#dddddd" points="3728.91,-429.09 3739.51,-429.19 3731.29,-422.51 3728.91,-429.09"/>
<text text-anchor="middle" x="3702.46" y="-420.6" font-family="Times,serif" font-size="14.00">Yes</text>
</g>
<!-- 55188 -->
<g id="node10" class="node">
<title>55188</title>
<ellipse fill="#dddddd" stroke="#dddddd" cx="5827.52" cy="-483.55" rx="347.69" ry="347.69"/>
<text text-anchor="middle" x="5827.52" y="-478.5" font-family="Times,serif" font-size="14.00">Was the prisoner arrested for an offence allegedly committed whilst temporarily released?</text>
</g>
<!-- 55184&#45;&gt;55188 -->
<g id="edge27" class="edge">
<title>55184&#45;&gt;55188</title>
<path fill="none" stroke="#dddddd" d="M3674.57,-286.46C3751.24,-284.21 3833.63,-282.55 3909.91,-282.55 3909.91,-282.55 3909.91,-282.55 4989.43,-282.55 5201.81,-282.55 5256.44,-300.53 5461.83,-354.55 5470.93,-356.95 5480.13,-359.47 5489.39,-362.09"/>
<polygon fill="#dddddd" stroke="#dddddd" points="5488.25,-365.4 5498.83,-364.8 5490.18,-358.68 5488.25,-365.4"/>
<text text-anchor="middle" x="4504.88" y="-285.75" font-family="Times,serif" font-size="14.00">No</text>
</g>
<!-- 55186 -->
<g id="node11" class="node">
<title>55186</title>
<ellipse fill="#dddddd" stroke="#dddddd" cx="4504.88" cy="-515.55" rx="183.4" ry="183.4"/>
<text text-anchor="middle" x="4504.88" y="-510.5" font-family="Times,serif" font-size="14.00">Has the prisoner surrendered/been recaptured?</text>
</g>
<!-- 55185&#45;&gt;55186 -->
<g id="edge28" class="edge">
<title>55185&#45;&gt;55186</title>
<path fill="none" stroke="#dddddd" d="M4091.24,-499.74C4097.31,-500.02 4103.32,-500.29 4109.24,-500.55 4174.5,-503.45 4245.85,-506.27 4309.72,-508.66"/>
<polygon fill="#dddddd" stroke="#dddddd" points="4309.5,-512.16 4319.62,-509.03 4309.76,-505.16 4309.5,-512.16"/>
<text text-anchor="middle" x="4206.36" y="-511.63" font-family="Times,serif" font-size="14.00">Apparent failure to return</text>
</g>
<!-- 55185&#45;&gt;55186 -->
<g id="edge29" class="edge">
<title>55185&#45;&gt;55186</title>
<path fill="none" stroke="#dddddd" d="M4091.02,-477.15C4157.81,-474.42 4234.22,-473.97 4303.49,-480.05 4306.56,-480.32 4309.65,-480.62 4312.76,-480.93"/>
<polygon fill="#dddddd" stroke="#dddddd" points="4312.28,-484.4 4322.59,-481.99 4313.03,-477.44 4312.28,-484.4"/>
<text text-anchor="middle" x="4206.36" y="-483.25" font-family="Times,serif" font-size="14.00">Revocation of the prisoner&#39;s licence</text>
</g>
<!-- 55189 -->
<g id="node13" class="node">
<title>55189</title>
<ellipse fill="#dddddd" stroke="#dddddd" cx="6575.05" cy="-839.55" rx="343.59" ry="343.59"/>
<text text-anchor="middle" x="6575.05" y="-834.5" font-family="Times,serif" font-size="14.00">Has the prisoner been charged with any offence (include the offence of failure to return)?</text>
</g>
<!-- 55188&#45;&gt;55189 -->
<g id="edge40" class="edge">
<title>55188&#45;&gt;55189</title>
<path fill="none" stroke="#dddddd" d="M6141.72,-633.11C6179.02,-650.92 6217.14,-669.12 6254.52,-686.98"/>
<polygon fill="#dddddd" stroke="#dddddd" points="6252.63,-689.95 6263.16,-691.1 6255.64,-683.63 6252.63,-689.95"/>
<text text-anchor="middle" x="6203.33" y="-664.75" font-family="Times,serif" font-size="14.00">Yes</text>
</g>
<!-- 55193 -->
<g id="node14" class="node">
<title>55193</title>
<ellipse fill="#dddddd" stroke="#dddddd" cx="9410.22" cy="-784.55" rx="390.68" ry="390.68"/>
<text text-anchor="middle" x="9410.22" y="-779.5" font-family="Times,serif" font-size="14.00">Was any part of the failure failing to comply with any other licence conditions (standard or bespoke)?</text>
</g>
<!-- 55188&#45;&gt;55193 -->
<g id="edge41" class="edge">
<title>55188&#45;&gt;55193</title>
<path fill="none" stroke="#dddddd" d="M6175.08,-473.03C6300.73,-470.03 6443.78,-467.55 6574.05,-467.55 6574.05,-467.55 6574.05,-467.55 8565.62,-467.55 8676.35,-467.55 8707.33,-456.99 8814.04,-486.55 8897.47,-509.67 8983.05,-544.78 9062.37,-582.88"/>
<polygon fill="#dddddd" stroke="#dddddd" points="9060.62,-585.92 9071.15,-587.13 9063.67,-579.62 9060.62,-585.92"/>
<text text-anchor="middle" x="7617.43" y="-470.75" font-family="Times,serif" font-size="14.00">No</text>
</g>
<!-- 55186&#45;&gt;55188 -->
<g id="edge31" class="edge">
<title>55186&#45;&gt;55188</title>
<path fill="none" stroke="#dddddd" d="M4663.26,-608.59C4710.68,-631.91 4763.93,-653.67 4815.78,-665.55 5095.85,-729.77 5183.03,-711.04 5461.83,-641.55 5474.45,-638.41 5487.19,-634.87 5499.96,-631.02"/>
<polygon fill="#dddddd" stroke="#dddddd" points="5500.72,-634.44 5509.25,-628.15 5498.66,-627.75 5500.72,-634.44"/>
<text text-anchor="middle" x="4988.43" y="-708.16" font-family="Times,serif" font-size="14.00">No</text>
</g>
<!-- 55187 -->
<g id="node12" class="node">
<title>55187</title>
<ellipse fill="#dddddd" stroke="#dddddd" cx="4988.43" cy="-483.55" rx="172.65" ry="172.65"/>
<text text-anchor="middle" x="4988.43" y="-478.5" font-family="Times,serif" font-size="14.00">How did prisoner surrender/get recaptured?</text>
</g>
<!-- 55186&#45;&gt;55187 -->
<g id="edge30" class="edge">
<title>55186&#45;&gt;55187</title>
<path fill="none" stroke="#dddddd" d="M4688.28,-503.43C4726.32,-500.91 4766.43,-498.24 4804.49,-495.71"/>
<polygon fill="#dddddd" stroke="#dddddd" points="4804.44,-499.22 4814.18,-495.07 4803.97,-492.24 4804.44,-499.22"/>
<text text-anchor="middle" x="4752.03" y="-504.67" font-family="Times,serif" font-size="14.00">Yes (Enter Date)</text>
</g>
<!-- 55187&#45;&gt;55188 -->
<g id="edge32" class="edge">
<title>55187&#45;&gt;55188</title>
<path fill="none" stroke="#dddddd" d="M5130.18,-582.52C5146.12,-590.23 5162.58,-596.84 5179.08,-601.55 5278.35,-629.92 5388.21,-623.55 5488.81,-603.45"/>
<polygon fill="#dddddd" stroke="#dddddd" points="5489.51,-606.88 5498.6,-601.43 5488.1,-600.02 5489.51,-606.88"/>
<text text-anchor="middle" x="5320.46" y="-623.87" font-family="Times,serif" font-size="14.00">Surrendered before midnight on return date</text>
</g>
<!-- 55187&#45;&gt;55188 -->
<g id="edge33" class="edge">
<title>55187&#45;&gt;55188</title>
<path fill="none" stroke="#dddddd" d="M5146.59,-553.52C5157.45,-556.69 5168.34,-559.43 5179.08,-561.55 5275.33,-580.58 5380.61,-577.78 5477.77,-565.76"/>
<polygon fill="#dddddd" stroke="#dddddd" points="5477.99,-569.26 5487.47,-564.52 5477.11,-562.32 5477.99,-569.26"/>
<text text-anchor="middle" x="5320.46" y="-578.48" font-family="Times,serif" font-size="14.00">Surrender To HMPS (after midnight on return date)</text>
</g>
<!-- 55187&#45;&gt;55188 -->
<g id="edge34" class="edge">
<title>55187&#45;&gt;55188</title>
<path fill="none" stroke="#dddddd" d="M5157.72,-519.07C5164.92,-520.02 5172.06,-520.86 5179.08,-521.55 5273.39,-530.91 5375.67,-530.01 5470.48,-524.58"/>
<polygon fill="#dddddd" stroke="#dddddd" points="5470.42,-528.09 5480.2,-524 5470.01,-521.1 5470.42,-528.09"/>
<text text-anchor="middle" x="5320.46" y="-531.84" font-family="Times,serif" font-size="14.00">Surrender To Police &#160;(after midnight on return date)</text>
</g>
<!-- 55187&#45;&gt;55188 -->
<g id="edge35" class="edge">
<title>55187&#45;&gt;55188</title>
<path fill="none" stroke="#dddddd" d="M5161.36,-483.55C5250.08,-483.55 5361.79,-483.55 5468.2,-483.55"/>
<polygon fill="#dddddd" stroke="#dddddd" points="5467.96,-487.05 5477.96,-483.55 5467.96,-480.05 5467.96,-487.05"/>
<text text-anchor="middle" x="5320.46" y="-486.75" font-family="Times,serif" font-size="14.00">Arrest By HMPS</text>
</g>
<!-- 55187&#45;&gt;55188 -->
<g id="edge36" class="edge">
<title>55187&#45;&gt;55188</title>
<path fill="none" stroke="#dddddd" d="M5160.46,-464.21C5166.74,-463.77 5172.96,-463.38 5179.08,-463.05 5272.96,-458 5374.57,-458.43 5468.85,-461.3"/>
<polygon fill="#dddddd" stroke="#dddddd" points="5468.7,-464.8 5478.8,-461.62 5468.92,-457.8 5468.7,-464.8"/>
<text text-anchor="middle" x="5320.46" y="-466.25" font-family="Times,serif" font-size="14.00">Arrest By Police</text>
</g>
<!-- 55187&#45;&gt;55188 -->
<g id="edge37" class="edge">
<title>55187&#45;&gt;55188</title>
<path fill="none" stroke="#dddddd" d="M5156.34,-442.17C5164,-440.97 5171.61,-439.92 5179.08,-439.05 5273.69,-428.1 5376.4,-429.24 5471.56,-435.67"/>
<polygon fill="#dddddd" stroke="#dddddd" points="5471.1,-439.14 5481.32,-436.35 5471.58,-432.16 5471.1,-439.14"/>
<text text-anchor="middle" x="5320.46" y="-442.25" font-family="Times,serif" font-size="14.00">Admitted to hospital for treatment</text>
</g>
<!-- 55187&#45;&gt;55188 -->
<g id="edge38" class="edge">
<title>55187&#45;&gt;55188</title>
<path fill="none" stroke="#dddddd" d="M5148.32,-417.18C5158.62,-414.38 5168.93,-411.95 5179.08,-410.05 5275.04,-392.11 5379.88,-394.62 5476.71,-405.82"/>
<polygon fill="#dddddd" stroke="#dddddd" points="5476.02,-409.27 5486.36,-406.98 5476.85,-402.32 5476.02,-409.27"/>
<text text-anchor="middle" x="5320.46" y="-413.25" font-family="Times,serif" font-size="14.00">Deceased</text>
</g>
<!-- 55187&#45;&gt;55188 -->
<g id="edge39" class="edge">
<title>55187&#45;&gt;55188</title>
<path fill="none" stroke="#dddddd" d="M5134.84,-391.58C5149.38,-385.33 5164.26,-379.96 5179.08,-376.05 5277.44,-350.12 5385.94,-355.34 5485.54,-373.15"/>
<polygon fill="#dddddd" stroke="#dddddd" points="5484.75,-376.57 5495.22,-374.93 5486.02,-369.68 5484.75,-376.57"/>
<text text-anchor="middle" x="5320.46" y="-379.25" font-family="Times,serif" font-size="14.00">Other (Provide Details)</text>
</g>
<!-- 55189&#45;&gt;55193 -->
<g id="edge43" class="edge">
<title>55189&#45;&gt;55193</title>
<path fill="none" stroke="#dddddd" d="M6870.12,-1016.44C6904.58,-1031.81 6939.93,-1045.37 6974.9,-1055.55 7089.92,-1089.06 7123.98,-1074.55 7243.79,-1074.55 7243.79,-1074.55 7243.79,-1074.55 8565.62,-1074.55 8762.13,-1074.55 8820.24,-1076.36 9001.54,-1000.55 9019.7,-992.96 9038.13,-984.84 9056.61,-976.35"/>
<polygon fill="#dddddd" stroke="#dddddd" points="9057.9,-979.61 9065.51,-972.23 9054.96,-973.26 9057.9,-979.61"/>
<text text-anchor="middle" x="7989.56" y="-1077.75" font-family="Times,serif" font-size="14.00">No</text>
</g>
<!-- 55190 -->
<g id="node15" class="node">
<title>55190</title>
<ellipse fill="#dddddd" stroke="#dddddd" cx="7244.79" cy="-776.55" rx="269.89" ry="269.89"/>
<text text-anchor="middle" x="7244.79" y="-771.5" font-family="Times,serif" font-size="14.00">With what type of offence or offences has the prisoner been charged?</text>
</g>
<!-- 55189&#45;&gt;55190 -->
<g id="edge42" class="edge">
<title>55189&#45;&gt;55190</title>
<path fill="none" stroke="#dddddd" d="M6917.26,-807.36C6933.02,-805.88 6948.77,-804.39 6964.35,-802.92"/>
<polygon fill="#dddddd" stroke="#dddddd" points="6964.53,-806.42 6974.16,-801.99 6963.87,-799.45 6964.53,-806.42"/>
<text text-anchor="middle" x="6946.77" y="-807.48" font-family="Times,serif" font-size="14.00">Yes</text>
</g>
<!-- 55194 -->
<g id="node18" class="node">
<title>55194</title>
<ellipse fill="#dddddd" stroke="#dddddd" cx="10009.84" cy="-955.55" rx="152.69" ry="152.69"/>
<text text-anchor="middle" x="10009.84" y="-950.5" font-family="Times,serif" font-size="14.00">Please specify which conditions apply</text>
</g>
<!-- 55193&#45;&gt;55194 -->
<g id="edge66" class="edge">
<title>55193&#45;&gt;55194</title>
<path fill="none" stroke="#dddddd" d="M9786.31,-891.88C9808.97,-898.37 9831.01,-904.67 9851.85,-910.64"/>
<polygon fill="#dddddd" stroke="#dddddd" points="9850.61,-913.92 9861.18,-913.31 9852.53,-907.19 9850.61,-913.92"/>
<text text-anchor="middle" x="9829.02" y="-908.23" font-family="Times,serif" font-size="14.00">Yes</text>
</g>
<!-- 55195 -->
<g id="node19" class="node">
<title>55195</title>
<ellipse fill="#dddddd" stroke="#dddddd" cx="10599.16" cy="-921.55" rx="225.88" ry="225.88"/>
<text text-anchor="middle" x="10599.16" y="-916.5" font-family="Times,serif" font-size="14.00">Was failure due to matters beyond the prisoner’s control?</text>
</g>
<!-- 55193&#45;&gt;55195 -->
<g id="edge67" class="edge">
<title>55193&#45;&gt;55195</title>
<path fill="none" stroke="#dddddd" d="M9799.52,-747.63C9973.08,-742.94 10178.02,-753.97 10355.28,-808.55 10365.07,-811.57 10374.98,-814.9 10384.9,-818.48"/>
<polygon fill="#dddddd" stroke="#dddddd" points="10383.66,-821.75 10394.26,-821.92 10386.08,-815.18 10383.66,-821.75"/>
<text text-anchor="middle" x="10009.84" y="-769.09" font-family="Times,serif" font-size="14.00">No</text>
</g>
<!-- 55191 -->
<g id="node16" class="node">
<title>55191</title>
<ellipse fill="#dddddd" stroke="#dddddd" cx="7989.56" cy="-767.55" rx="269.38" ry="269.38"/>
<text text-anchor="middle" x="7989.56" y="-762.5" font-family="Times,serif" font-size="14.00">Has the prisoner been found guilty of offences committed on ROTL?</text>
</g>
<!-- 55190&#45;&gt;55191 -->
<g id="edge44" class="edge">
<title>55190&#45;&gt;55191</title>
<path fill="none" stroke="#dddddd" d="M7478.02,-913.03C7496.12,-919.98 7514.45,-925.97 7532.68,-930.55 7605.74,-948.92 7629.36,-949.83 7702.18,-930.55 7718.29,-926.29 7734.44,-920.89 7750.41,-914.66"/>
<polygon fill="#dddddd" stroke="#dddddd" points="7751.5,-918 7759.47,-911.02 7748.89,-911.5 7751.5,-918"/>
<text text-anchor="middle" x="7617.43" y="-947.87" font-family="Times,serif" font-size="14.00">Violence Against The Person</text>
</g>
<!-- 55190&#45;&gt;55191 -->
<g id="edge45" class="edge">
<title>55190&#45;&gt;55191</title>
<path fill="none" stroke="#dddddd" d="M7493.66,-881.57C7506.73,-885.05 7519.79,-888.09 7532.68,-890.55 7606.67,-904.72 7628.39,-905.73 7702.18,-890.55 7712.61,-888.41 7723.12,-885.87 7733.65,-883.01"/>
<polygon fill="#dddddd" stroke="#dddddd" points="7734.49,-886.41 7743.16,-880.32 7732.59,-879.67 7734.49,-886.41"/>
<text text-anchor="middle" x="7617.43" y="-904.76" font-family="Times,serif" font-size="14.00">Sexual Offences</text>
</g>
<!-- 55190&#45;&gt;55191 -->
<g id="edge46" class="edge">
<title>55190&#45;&gt;55191</title>
<path fill="none" stroke="#dddddd" d="M7505.59,-846.61C7514.7,-848.1 7523.75,-849.42 7532.68,-850.55 7607.42,-860.04 7627.6,-861.15 7702.18,-850.55 7708.19,-849.7 7714.25,-848.75 7720.33,-847.72"/>
<polygon fill="#dddddd" stroke="#dddddd" points="7720.6,-851.23 7729.84,-846.03 7719.38,-844.33 7720.6,-851.23"/>
<text text-anchor="middle" x="7617.43" y="-861.29" font-family="Times,serif" font-size="14.00">Robbery</text>
</g>
<!-- 55190&#45;&gt;55191 -->
<g id="edge47" class="edge">
<title>55190&#45;&gt;55191</title>
<path fill="none" stroke="#dddddd" d="M7513.06,-809.82C7575.15,-813.84 7640.97,-815.12 7702.18,-810.55 7705.41,-810.31 7708.66,-810.06 7711.93,-809.79"/>
<polygon fill="#dddddd" stroke="#dddddd" points="7711.93,-813.3 7721.58,-808.94 7711.32,-806.33 7711.93,-813.3"/>
<text text-anchor="middle" x="7617.43" y="-816.65" font-family="Times,serif" font-size="14.00">Burglary</text>
</g>
<!-- 55190&#45;&gt;55191 -->
<g id="edge48" class="edge">
<title>55190&#45;&gt;55191</title>
<path fill="none" stroke="#dddddd" d="M7515,-773.29C7577.96,-772.53 7645.17,-771.72 7708.58,-770.95"/>
<polygon fill="#dddddd" stroke="#dddddd" points="7708.49,-774.45 7718.45,-770.83 7708.41,-767.45 7708.49,-774.45"/>
<text text-anchor="middle" x="7617.43" y="-776.06" font-family="Times,serif" font-size="14.00">Theft And Handling</text>
</g>
<!-- 55190&#45;&gt;55191 -->
<g id="edge49" class="edge">
<title>55190&#45;&gt;55191</title>
<path fill="none" stroke="#dddddd" d="M7513.75,-751.98C7520.12,-751.64 7526.44,-751.33 7532.68,-751.05 7589.73,-748.52 7650.81,-748.73 7709.12,-750.33"/>
<polygon fill="#dddddd" stroke="#dddddd" points="7708.75,-753.82 7718.84,-750.61 7708.95,-746.82 7708.75,-753.82"/>
<text text-anchor="middle" x="7617.43" y="-754.25" font-family="Times,serif" font-size="14.00">Fraud And Forgery</text>
</g>
<!-- 55190&#45;&gt;55191 -->
<g id="edge50" class="edge">
<title>55190&#45;&gt;55191</title>
<path fill="none" stroke="#dddddd" d="M7511.32,-731.02C7518.51,-730.29 7525.64,-729.63 7532.68,-729.05 7590.41,-724.31 7652.24,-725.39 7711.16,-729.36"/>
<polygon fill="#dddddd" stroke="#dddddd" points="7710.78,-732.85 7721,-730.06 7711.27,-725.86 7710.78,-732.85"/>
<text text-anchor="middle" x="7617.43" y="-732.25" font-family="Times,serif" font-size="14.00">Drug Offences</text>
</g>
<!-- 55190&#45;&gt;55191 -->
<g id="edge51" class="edge">
<title>55190&#45;&gt;55191</title>
<path fill="none" stroke="#dddddd" d="M7506.41,-708.74C7515.25,-707.35 7524.02,-706.12 7532.68,-705.05 7607.46,-695.88 7627.28,-696.98 7702.18,-705.05 7706.42,-705.51 7710.68,-706 7714.96,-706.53"/>
<polygon fill="#dddddd" stroke="#dddddd" points="7714.49,-710 7724.86,-707.81 7715.39,-703.06 7714.49,-710"/>
<text text-anchor="middle" x="7617.43" y="-708.25" font-family="Times,serif" font-size="14.00">Motoring Offences</text>
</g>
<!-- 55190&#45;&gt;55191 -->
<g id="edge52" class="edge">
<title>55190&#45;&gt;55191</title>
<path fill="none" stroke="#dddddd" d="M7498.84,-684.71C7510.2,-682.16 7521.52,-679.92 7532.68,-678.05 7606.99,-665.65 7627.71,-666.69 7702.18,-678.05 7708.78,-679.06 7715.44,-680.19 7722.12,-681.43"/>
<polygon fill="#dddddd" stroke="#dddddd" points="7721.44,-684.86 7731.93,-683.33 7722.77,-677.99 7721.44,-684.86"/>
<text text-anchor="middle" x="7617.43" y="-681.25" font-family="Times,serif" font-size="14.00">Failure To Return From ROTL</text>
</g>
<!-- 55190&#45;&gt;55191 -->
<g id="edge53" class="edge">
<title>55190&#45;&gt;55191</title>
<path fill="none" stroke="#dddddd" d="M7488.82,-660.47C7503.47,-656.01 7518.15,-652.14 7532.68,-649.05 7606.38,-633.42 7628.29,-634.37 7702.18,-649.05 7712.07,-651.02 7722.04,-653.33 7732.03,-655.93"/>
<polygon fill="#dddddd" stroke="#dddddd" points="7730.84,-659.23 7741.41,-658.46 7732.67,-652.47 7730.84,-659.23"/>
<text text-anchor="middle" x="7617.43" y="-652.25" font-family="Times,serif" font-size="14.00">Other Offence</text>
</g>
<!-- 55191&#45;&gt;55193 -->
<g id="edge55" class="edge">
<title>55191&#45;&gt;55193</title>
<path fill="none" stroke="#dddddd" d="M8193.89,-943.25C8232.01,-967.62 8273.17,-988.94 8315.2,-1002.55 8552.55,-1079.45 8828.06,-1023.75 9043.22,-949.43"/>
<polygon fill="#dddddd" stroke="#dddddd" points="9044.35,-952.74 9052.64,-946.15 9042.04,-946.13 9044.35,-952.74"/>
<text text-anchor="middle" x="8564.62" y="-1042.66" font-family="Times,serif" font-size="14.00">No</text>
</g>
<!-- 55192 -->
<g id="node17" class="node">
<title>55192</title>
<ellipse fill="#dddddd" stroke="#dddddd" cx="8564.62" cy="-744.55" rx="249.42" ry="249.42"/>
<text text-anchor="middle" x="8564.62" y="-739.5" font-family="Times,serif" font-size="14.00">What offence or offences has the prisoner been found guilty of?</text>
</g>
<!-- 55191&#45;&gt;55192 -->
<g id="edge54" class="edge">
<title>55191&#45;&gt;55192</title>
<path fill="none" stroke="#dddddd" d="M8259.05,-756.78C8273.9,-756.18 8288.81,-755.58 8303.62,-754.99"/>
<polygon fill="#dddddd" stroke="#dddddd" points="8303.56,-758.5 8313.41,-754.6 8303.28,-751.5 8303.56,-758.5"/>
<text text-anchor="middle" x="8287.07" y="-759.25" font-family="Times,serif" font-size="14.00">Yes</text>
</g>
<!-- 55192&#45;&gt;55193 -->
<g id="edge56" class="edge">
<title>55192&#45;&gt;55193</title>
<path fill="none" stroke="#dddddd" d="M8764.09,-894.56C8786.17,-905.87 8809.02,-915.57 8832.04,-922.55 8897.67,-942.46 8968.19,-942.69 9036.62,-932.12"/>
<polygon fill="#dddddd" stroke="#dddddd" points="9036.78,-935.64 9046.09,-930.57 9035.66,-928.73 9036.78,-935.64"/>
<text text-anchor="middle" x="8916.79" y="-942.22" font-family="Times,serif" font-size="14.00">Violence Against The Person</text>
</g>
<!-- 55192&#45;&gt;55193 -->
<g id="edge57" class="edge">
<title>55192&#45;&gt;55193</title>
<path fill="none" stroke="#dddddd" d="M8782.26,-867.14C8798.77,-873.25 8815.46,-878.52 8832.04,-882.55 8893.53,-897.54 8959.26,-899.43 9023.53,-893.72"/>
<polygon fill="#dddddd" stroke="#dddddd" points="9023.54,-897.23 9033.16,-892.79 9022.87,-890.26 9023.54,-897.23"/>
<text text-anchor="middle" x="8916.79" y="-899.89" font-family="Times,serif" font-size="14.00">Sexual Offences</text>
</g>
<!-- 55192&#45;&gt;55193 -->
<g id="edge58" class="edge">
<title>55192&#45;&gt;55193</title>
<path fill="none" stroke="#dddddd" d="M8797.5,-835.2C8809.08,-838.04 8820.64,-840.52 8832.04,-842.55 8890.49,-852.96 8952.63,-855.5 9013.67,-853.25"/>
<polygon fill="#dddddd" stroke="#dddddd" points="9013.69,-856.75 9023.54,-852.83 9013.4,-849.75 9013.69,-856.75"/>
<text text-anchor="middle" x="8916.79" y="-857.21" font-family="Times,serif" font-size="14.00">Robbery</text>
</g>
<!-- 55192&#45;&gt;55193 -->
<g id="edge59" class="edge">
<title>55192&#45;&gt;55193</title>
<path fill="none" stroke="#dddddd" d="M8808.11,-799.62C8816.16,-800.72 8824.16,-801.71 8832.04,-802.55 8889.04,-808.69 8949.38,-811.18 9008.72,-811.36"/>
<polygon fill="#dddddd" stroke="#dddddd" points="9008.67,-814.86 9018.67,-811.36 9008.67,-807.86 9008.67,-814.86"/>
<text text-anchor="middle" x="8916.79" y="-814.43" font-family="Times,serif" font-size="14.00">Burglary</text>
</g>
<!-- 55192&#45;&gt;55193 -->
<g id="edge60" class="edge">
<title>55192&#45;&gt;55193</title>
<path fill="none" stroke="#dddddd" d="M8813.78,-761.56C8819.93,-761.9 8826.02,-762.24 8832.04,-762.55 8888.95,-765.56 8949.05,-768.32 9008.1,-770.79"/>
<polygon fill="#dddddd" stroke="#dddddd" points="9007.86,-774.28 9017.99,-771.2 9008.15,-767.28 9007.86,-774.28"/>
<text text-anchor="middle" x="8916.79" y="-773.24" font-family="Times,serif" font-size="14.00">Theft And Handling</text>
</g>
<!-- 55192&#45;&gt;55193 -->
<g id="edge61" class="edge">
<title>55192&#45;&gt;55193</title>
<path fill="none" stroke="#dddddd" d="M8814.5,-742.15C8820.4,-742.11 8826.26,-742.08 8832.04,-742.05 8907.37,-741.7 8926.31,-738.14 9001.54,-742.05 9004.41,-742.2 9007.3,-742.36 9010.2,-742.52"/>
<polygon fill="#dddddd" stroke="#dddddd" points="9009.72,-746 9019.91,-743.08 9010.13,-739.01 9009.72,-746"/>
<text text-anchor="middle" x="8916.79" y="-745.25" font-family="Times,serif" font-size="14.00">Fraud And Forgery</text>
</g>
<!-- 55192&#45;&gt;55193 -->
<g id="edge62" class="edge">
<title>55192&#45;&gt;55193</title>
<path fill="none" stroke="#dddddd" d="M8813.39,-721.01C8819.67,-720.66 8825.89,-720.34 8832.04,-720.05 8907.29,-716.6 8926.44,-714.15 9001.54,-720.05 9005.29,-720.35 9009.06,-720.66 9012.84,-720.98"/>
<polygon fill="#dddddd" stroke="#dddddd" points="9012.46,-724.46 9022.73,-721.86 9013.08,-717.49 9012.46,-724.46"/>
<text text-anchor="middle" x="8916.79" y="-723.25" font-family="Times,serif" font-size="14.00">Drug Offences</text>
</g>
<!-- 55192&#45;&gt;55193 -->
<g id="edge63" class="edge">
<title>55192&#45;&gt;55193</title>
<path fill="none" stroke="#dddddd" d="M8810.01,-698.3C8817.43,-697.46 8824.78,-696.71 8832.04,-696.05 8907.07,-689.28 8926.64,-688.02 9001.54,-696.05 9006.83,-696.62 9012.15,-697.23 9017.5,-697.88"/>
<polygon fill="#dddddd" stroke="#dddddd" points="9016.66,-701.3 9027.02,-699.07 9017.53,-694.35 9016.66,-701.3"/>
<text text-anchor="middle" x="8916.79" y="-699.25" font-family="Times,serif" font-size="14.00">Motoring Offences</text>
</g>
<!-- 55192&#45;&gt;55193 -->
<g id="edge64" class="edge">
<title>55192&#45;&gt;55193</title>
<path fill="none" stroke="#dddddd" d="M8804.24,-674.48C8813.59,-672.8 8822.88,-671.31 8832.04,-670.05 8894.47,-661.49 8960.32,-663.7 9024.32,-671.99"/>
<polygon fill="#dddddd" stroke="#dddddd" points="9023.53,-675.41 9033.91,-673.29 9024.47,-668.48 9023.53,-675.41"/>
<text text-anchor="middle" x="8916.79" y="-673.25" font-family="Times,serif" font-size="14.00">Failure To Return From ROTL</text>
</g>
<!-- 55192&#45;&gt;55193 -->
<g id="edge65" class="edge">
<title>55192&#45;&gt;55193</title>
<path fill="none" stroke="#dddddd" d="M8796.32,-651.88C8808.3,-648.85 8820.25,-646.21 8832.04,-644.05 8897.27,-632.16 8966.15,-635.1 9032.72,-646.18"/>
<polygon fill="#dddddd" stroke="#dddddd" points="9031.87,-649.59 9042.32,-647.85 9033.07,-642.69 9031.87,-649.59"/>
<text text-anchor="middle" x="8916.79" y="-647.25" font-family="Times,serif" font-size="14.00">Other Offence</text>
</g>
<!-- 55194&#45;&gt;55195 -->
<g id="edge68" class="edge">
<title>55194&#45;&gt;55195</title>
<path fill="none" stroke="#dddddd" d="M10135.66,-1042.21C10150.28,-1049.25 10165.4,-1055.29 10180.53,-1059.55 10255.28,-1080.64 10280.19,-1079.4 10355.28,-1059.55 10369.2,-1055.88 10383.15,-1051.2 10396.95,-1045.8"/>
<polygon fill="#dddddd" stroke="#dddddd" points="10398.11,-1049.1 10406.06,-1042.1 10395.48,-1042.61 10398.11,-1049.1"/>
<text text-anchor="middle" x="10267.9" y="-1078.1" font-family="Times,serif" font-size="14.00">Location</text>
</g>
<!-- 55194&#45;&gt;55195 -->
<g id="edge69" class="edge">
<title>55194&#45;&gt;55195</title>
<path fill="none" stroke="#dddddd" d="M10151.41,-1012.91C10161.16,-1015.54 10170.93,-1017.8 10180.53,-1019.55 10256.94,-1033.48 10279.03,-1034.36 10355.28,-1019.55 10363.58,-1017.94 10371.96,-1016.05 10380.36,-1013.92"/>
<polygon fill="#dddddd" stroke="#dddddd" points="10381.17,-1017.32 10389.94,-1011.38 10379.38,-1010.56 10381.17,-1017.32"/>
<text text-anchor="middle" x="10267.9" y="-1033.53" font-family="Times,serif" font-size="14.00">Alcohol/drugs (under influence)</text>
</g>
<!-- 55194&#45;&gt;55195 -->
<g id="edge70" class="edge">
<title>55194&#45;&gt;55195</title>
<path fill="none" stroke="#dddddd" d="M10161.08,-977.95C10167.64,-978.56 10174.15,-979.11 10180.53,-979.55 10258,-985.01 10278.14,-988.64 10355.28,-979.55 10359.69,-979.03 10364.14,-978.46 10368.62,-977.85"/>
<polygon fill="#dddddd" stroke="#dddddd" points="10368.91,-981.34 10378.3,-976.44 10367.9,-974.41 10368.91,-981.34"/>
<text text-anchor="middle" x="10267.9" y="-988.29" font-family="Times,serif" font-size="14.00">Gambling</text>
</g>
<!-- 55194&#45;&gt;55195 -->
<g id="edge71" class="edge">
<title>55194&#45;&gt;55195</title>
<path fill="none" stroke="#dddddd" d="M10162.64,-949.41C10222.66,-946.74 10292.24,-943.35 10355.28,-939.55 10357.53,-939.42 10359.8,-939.28 10362.08,-939.14"/>
<polygon fill="#dddddd" stroke="#dddddd" points="10362.27,-942.64 10372.03,-938.52 10361.83,-935.65 10362.27,-942.64"/>
<text text-anchor="middle" x="10267.9" y="-951.56" font-family="Times,serif" font-size="14.00">Finds (fill in separate report)</text>
</g>
<!-- 55194&#45;&gt;55195 -->
<g id="edge72" class="edge">
<title>55194&#45;&gt;55195</title>
<path fill="none" stroke="#dddddd" d="M10159.08,-921.77C10166.31,-920.72 10173.49,-919.8 10180.53,-919.05 10239.03,-912.83 10302.41,-910.81 10361.69,-910.94"/>
<polygon fill="#dddddd" stroke="#dddddd" points="10361.57,-914.44 10371.59,-910.99 10361.6,-907.44 10361.57,-914.44"/>
<text text-anchor="middle" x="10267.9" y="-922.25" font-family="Times,serif" font-size="14.00">Social Media</text>
</g>
<!-- 55194&#45;&gt;55195 -->
<g id="edge73" class="edge">
<title>55194&#45;&gt;55195</title>
<path fill="none" stroke="#dddddd" d="M10150.89,-896.99C10160.81,-894.24 10170.75,-891.88 10180.53,-890.05 10239.83,-879.01 10304.55,-878.43 10364.96,-882.69"/>
<polygon fill="#dddddd" stroke="#dddddd" points="10364.44,-886.16 10374.68,-883.43 10364.97,-879.18 10364.44,-886.16"/>
<text text-anchor="middle" x="10267.9" y="-893.25" font-family="Times,serif" font-size="14.00">Bad Behaviour</text>
</g>
<!-- 55194&#45;&gt;55195 -->
<g id="edge74" class="edge">
<title>55194&#45;&gt;55195</title>
<path fill="none" stroke="#dddddd" d="M10139.53,-874.47C10153,-868.64 10166.79,-863.65 10180.53,-860.05 10241.55,-844.06 10308.76,-845.78 10371.09,-855.1"/>
<polygon fill="#dddddd" stroke="#dddddd" points="10370.34,-858.53 10380.77,-856.63 10371.43,-851.61 10370.34,-858.53"/>
<text text-anchor="middle" x="10267.9" y="-863.25" font-family="Times,serif" font-size="14.00">Media Contact</text>
</g>
<!-- 55194&#45;&gt;55195 -->
<g id="edge75" class="edge">
<title>55194&#45;&gt;55195</title>
<path fill="none" stroke="#dddddd" d="M10124.76,-854.27C10142.44,-843.15 10161.26,-833.53 10180.53,-827.05 10244.69,-805.5 10316.05,-811.24 10381.36,-827.57"/>
<polygon fill="#dddddd" stroke="#dddddd" points="10380.19,-830.88 10390.75,-830.02 10381.95,-824.11 10380.19,-830.88"/>
<text text-anchor="middle" x="10267.9" y="-830.25" font-family="Times,serif" font-size="14.00">Other (Provide Details)</text>
</g>
<!-- 55196 -->
<g id="node20" class="node">
<title>55196</title>
<ellipse fill="#dddddd" stroke="#dddddd" cx="11365.62" cy="-921.55" rx="484.34" ry="484.34"/>
<text text-anchor="middle" x="11365.62" y="-916.5" font-family="Times,serif" font-size="14.00">Have SFO team, offender manager in the community, victim liaison officer and employer (where appropriate) been informed?</text>
</g>
<!-- 55195&#45;&gt;55196 -->
<g id="edge76" class="edge">
<title>55195&#45;&gt;55196</title>
<path fill="none" stroke="#dddddd" d="M10825.39,-921.55C10839.92,-921.55 10854.81,-921.55 10869.97,-921.55"/>
<polygon fill="#dddddd" stroke="#dddddd" points="10869.54,-925.05 10879.54,-921.55 10869.54,-918.05 10869.54,-925.05"/>
<text text-anchor="middle" x="10853.16" y="-924.75" font-family="Times,serif" font-size="14.00">Yes</text>
</g>
<!-- 55195&#45;&gt;55196 -->
<g id="edge77" class="edge">
<title>55195&#45;&gt;55196</title>
<path fill="none" stroke="#dddddd" d="M10824.42,-901.93C10830.69,-901.61 10836.9,-901.31 10843.03,-901.05 10852.05,-900.68 10861.15,-900.36 10870.31,-900.09"/>
<polygon fill="#dddddd" stroke="#dddddd" points="10870.11,-903.6 10880.01,-899.84 10869.92,-896.6 10870.11,-903.6"/>
<text text-anchor="middle" x="10853.16" y="-904.25" font-family="Times,serif" font-size="14.00">No</text>
</g>
<!-- 55197 -->
<g id="node21" class="node">
<title>55197</title>
<ellipse fill="#dddddd" stroke="#dddddd" cx="12188.25" cy="-921.55" rx="200.29" ry="200.29"/>
<text text-anchor="middle" x="12188.25" y="-916.5" font-family="Times,serif" font-size="14.00">Has the deputy director of custody been informed?</text>
</g>
<!-- 55196&#45;&gt;55197 -->
<g id="edge78" class="edge">
<title>55196&#45;&gt;55197</title>
<path fill="none" stroke="#dddddd" d="M11850.22,-921.55C11894.14,-921.55 11936.91,-921.55 11976.42,-921.55"/>
<polygon fill="#dddddd" stroke="#dddddd" points="11976.23,-925.05 11986.23,-921.55 11976.23,-918.05 11976.23,-925.05"/>
<text text-anchor="middle" x="11918.97" y="-924.75" font-family="Times,serif" font-size="14.00">Yes (Enter Date)</text>
</g>
<!-- 55196&#45;&gt;55197 -->
<g id="edge79" class="edge">
<title>55196&#45;&gt;55197</title>
<path fill="none" stroke="#dddddd" d="M11849.53,-898.21C11890.27,-898.35 11930.84,-899.21 11969.97,-901.05 11972.37,-901.17 11974.79,-901.29 11977.21,-901.41"/>
<polygon fill="#dddddd" stroke="#dddddd" points="11976.97,-904.91 11987.15,-901.97 11977.36,-897.92 11976.97,-904.91"/>
<text text-anchor="middle" x="11918.97" y="-904.25" font-family="Times,serif" font-size="14.00">No (Enter Reason)</text>
</g>
<!-- 55198 -->
<g id="node22" class="node">
<title>55198</title>
<ellipse fill="#dddddd" stroke="#dddddd" cx="12641.87" cy="-921.55" rx="115.33" ry="115.33"/>
<text text-anchor="middle" x="12641.87" y="-916.5" font-family="Times,serif" font-size="14.00">Have PPCS been informed?</text>
</g>
<!-- 55197&#45;&gt;55198 -->
<g id="edge80" class="edge">
<title>55197&#45;&gt;55198</title>
<path fill="none" stroke="#dddddd" d="M12388.98,-921.55C12431.75,-921.55 12475.78,-921.55 12514.83,-921.55"/>
<polygon fill="#dddddd" stroke="#dddddd" points="12514.72,-925.05 12524.72,-921.55 12514.72,-918.05 12514.72,-925.05"/>
<text text-anchor="middle" x="12457.54" y="-924.75" font-family="Times,serif" font-size="14.00">Yes (Enter Date)</text>
</g>
<!-- 55197&#45;&gt;55198 -->
<g id="edge81" class="edge">
<title>55197&#45;&gt;55198</title>
<path fill="none" stroke="#dddddd" d="M12387.73,-900.13C12427.74,-898.25 12469.5,-898.05 12508.54,-901.05 12511.08,-901.25 12513.65,-901.47 12516.24,-901.7"/>
<polygon fill="#dddddd" stroke="#dddddd" points="12515.86,-905.18 12526.16,-902.7 12516.56,-898.22 12515.86,-905.18"/>
<text text-anchor="middle" x="12457.54" y="-904.25" font-family="Times,serif" font-size="14.00">No (Enter Reason)</text>
</g>
<!-- 55198&#45;&gt;END_NODE -->
<g id="edge82" class="edge">
<title>55198&#45;&gt;END_NODE</title>
<path fill="none" stroke="#dddddd" d="M12757.66,-921.55C12803.67,-921.55 12853.95,-921.55 12888.88,-921.55"/>
<polygon fill="#dddddd" stroke="#dddddd" points="12888.59,-925.05 12898.59,-921.55 12888.59,-918.05 12888.59,-925.05"/>
<text text-anchor="middle" x="12828.82" y="-924.75" font-family="Times,serif" font-size="14.00">Yes (Enter Date)</text>
</g>
<!-- 55198&#45;&gt;END_NODE -->
<g id="edge83" class="edge">
<title>55198&#45;&gt;END_NODE</title>
<path fill="none" stroke="#dddddd" d="M12755.38,-899.17C12795.72,-894.5 12841.36,-893.09 12882.45,-901.05 12885.8,-901.7 12889.2,-902.57 12892.59,-903.59"/>
<polygon fill="#dddddd" stroke="#dddddd" points="12891.2,-906.81 12901.79,-906.75 12893.47,-900.19 12891.2,-906.81"/>
<text text-anchor="middle" x="12828.82" y="-904.25" font-family="Times,serif" font-size="14.00">No (Enter Reasons)</text>
</g>
</g>
</svg>
