<?xml version="1.0" encoding="UTF-8" standalone="no"?>
<!DOCTYPE svg PUBLIC "-//W3C//DTD SVG 1.1//EN"
 "http://www.w3.org/Graphics/SVG/1.1/DTD/svg11.dtd">
<!-- Generated by graphviz version 12.1.1 (20240910.0053)
 -->
<!-- Title: RADIO_COMPROMISE Pages: 1 -->
<svg width="9010pt" height="1071pt"
 viewBox="0.00 0.00 9009.67 1071.50" xmlns="http://www.w3.org/2000/svg" xmlns:xlink="http://www.w3.org/1999/xlink">
<g id="graph0" class="graph" transform="scale(1 1) rotate(0) translate(4 1067.5)">
<title>RADIO_COMPROMISE</title>
<polygon fill="white" stroke="none" points="-4,4 -4,-1067.5 9005.67,-1067.5 9005.67,4 -4,4"/>
<!-- START_NODE -->
<g id="node1" class="node">
<title>START_NODE</title>
</g>
<!-- 44802 -->
<g id="node2" class="node">
<title>44802</title>
<ellipse fill="none" stroke="black" cx="337.08" cy="-839.67" rx="223.83" ry="223.83"/>
<text text-anchor="middle" x="337.08" y="-834.62" font-family="Times,serif" font-size="14.00">WERE THE POLICE INFORMED OF THE INCIDENT</text>
</g>
<!-- START_NODE&#45;&gt;44802 -->
<g id="edge1" class="edge">
<title>START_NODE&#45;&gt;44802</title>
<path fill="none" stroke="black" d="M53.74,-839.67C66.37,-839.67 82.91,-839.67 101.66,-839.67"/>
<polygon fill="black" stroke="black" points="101.43,-843.17 111.43,-839.67 101.43,-836.17 101.43,-843.17"/>
<text text-anchor="middle" x="83.62" y="-842.87" font-family="Times,serif" font-size="14.00">start</text>
</g>
<!-- 44125 -->
<g id="node4" class="node">
<title>44125</title>
<ellipse fill="none" stroke="black" cx="1531.47" cy="-723.67" rx="296.51" ry="296.51"/>
<text text-anchor="middle" x="1531.47" y="-718.62" font-family="Times,serif" font-size="14.00">IS THE INCIDENT THE SUBJECT OF AN INTERNAL INVESTIGATION</text>
</g>
<!-- 44802&#45;&gt;44125 -->
<g id="edge29" class="edge">
<title>44802&#45;&gt;44125</title>
<path fill="none" stroke="black" d="M536.36,-942.31C564.61,-953.16 593.8,-962.48 622.41,-968.67 861.79,-1020.43 939.54,-1041.21 1173.46,-968.67 1213.83,-956.14 1253.7,-937.3 1291.33,-915.52"/>
<polygon fill="black" stroke="black" points="1292.69,-918.77 1299.54,-910.69 1289.15,-912.74 1292.69,-918.77"/>
<text text-anchor="middle" x="897.93" y="-1018.8" font-family="Times,serif" font-size="14.00">NO</text>
</g>
<!-- 44801 -->
<g id="node19" class="node">
<title>44801</title>
<ellipse fill="none" stroke="black" cx="897.93" cy="-683.67" rx="275.52" ry="275.52"/>
<text text-anchor="middle" x="897.93" y="-678.62" font-family="Times,serif" font-size="14.00">IS THE INCIDENT THE SUBJECT OF A POLICE INVESTIGATION</text>
</g>
<!-- 44802&#45;&gt;44801 -->
<g id="edge28" class="edge">
<title>44802&#45;&gt;44801</title>
<path fill="none" stroke="black" d="M552.95,-779.69C575.39,-773.42 598.42,-766.99 621.42,-760.57"/>
<polygon fill="black" stroke="black" points="622.19,-763.99 630.88,-757.93 620.31,-757.25 622.19,-763.99"/>
<text text-anchor="middle" x="591.66" y="-774.21" font-family="Times,serif" font-size="14.00">YES</text>
</g>
<!-- END_NODE -->
<g id="node3" class="node">
<title>END_NODE</title>
<ellipse fill="none" stroke="black" cx="8967.81" cy="-631.67" rx="29.86" ry="29.86"/>
<ellipse fill="none" stroke="black" cx="8967.81" cy="-631.67" rx="33.86" ry="33.86"/>
<text text-anchor="middle" x="8967.81" y="-626.62" font-family="Times,serif" font-size="14.00">END</text>
</g>
<!-- 44811 -->
<g id="node5" class="node">
<title>44811</title>
<ellipse fill="none" stroke="black" cx="2167.04" cy="-723.67" rx="277.57" ry="277.57"/>
<text text-anchor="middle" x="2167.04" y="-718.62" font-family="Times,serif" font-size="14.00">IS THE INCIDENT SUBJECT TO A GOVERNOR&#39;S ADJUDICATION</text>
</g>
<!-- 44125&#45;&gt;44811 -->
<g id="edge2" class="edge">
<title>44125&#45;&gt;44811</title>
<path fill="none" stroke="black" d="M1828.39,-723.67C1844.89,-723.67 1861.46,-723.67 1877.93,-723.67"/>
<polygon fill="black" stroke="black" points="1877.8,-727.17 1887.8,-723.67 1877.8,-720.17 1877.8,-727.17"/>
<text text-anchor="middle" x="1858.72" y="-726.87" font-family="Times,serif" font-size="14.00">YES</text>
</g>
<!-- 44125&#45;&gt;44811 -->
<g id="edge3" class="edge">
<title>44125&#45;&gt;44811</title>
<path fill="none" stroke="black" d="M1827.33,-702.46C1842.26,-702.45 1857.04,-702.66 1871.47,-703.17 1873.73,-703.24 1876,-703.33 1878.27,-703.41"/>
<polygon fill="black" stroke="black" points="1878.08,-706.91 1888.21,-703.8 1878.35,-699.91 1878.08,-706.91"/>
<text text-anchor="middle" x="1858.72" y="-706.37" font-family="Times,serif" font-size="14.00">NO</text>
</g>
<!-- 44799 -->
<g id="node18" class="node">
<title>44799</title>
<ellipse fill="none" stroke="black" cx="2783.17" cy="-723.67" rx="277.06" ry="277.06"/>
<text text-anchor="middle" x="2783.17" y="-718.62" font-family="Times,serif" font-size="14.00">IS ANY MEMBER OF STAFF FACING DISCIPLINARY CHARGES</text>
</g>
<!-- 44811&#45;&gt;44799 -->
<g id="edge30" class="edge">
<title>44811&#45;&gt;44799</title>
<path fill="none" stroke="black" d="M2445.01,-723.67C2461.43,-723.67 2477.96,-723.67 2494.41,-723.67"/>
<polygon fill="black" stroke="black" points="2494.28,-727.17 2504.28,-723.67 2494.28,-720.17 2494.28,-727.17"/>
<text text-anchor="middle" x="2475.36" y="-726.87" font-family="Times,serif" font-size="14.00">YES</text>
</g>
<!-- 44811&#45;&gt;44799 -->
<g id="edge31" class="edge">
<title>44811&#45;&gt;44799</title>
<path fill="none" stroke="black" d="M2444.28,-702.53C2459.1,-702.48 2473.79,-702.67 2488.11,-703.17 2490.37,-703.24 2492.63,-703.33 2494.9,-703.41"/>
<polygon fill="black" stroke="black" points="2494.68,-706.9 2504.82,-703.8 2494.96,-699.91 2494.68,-706.9"/>
<text text-anchor="middle" x="2475.36" y="-706.37" font-family="Times,serif" font-size="14.00">NO</text>
</g>
<!-- 44132 -->
<g id="node6" class="node">
<title>44132</title>
<ellipse fill="none" stroke="black" cx="8219.14" cy="-512.67" rx="165.48" ry="165.48"/>
<text text-anchor="middle" x="8219.14" y="-507.62" font-family="Times,serif" font-size="14.00">HAS THE RADIO BEEN RECOVERED</text>
</g>
<!-- 44132&#45;&gt;END_NODE -->
<g id="edge5" class="edge">
<title>44132&#45;&gt;END_NODE</title>
<path fill="none" stroke="black" d="M8343.98,-622C8375.29,-643.6 8410.28,-663.14 8446.12,-674.67 8545.55,-706.62 8816.48,-694.49 8915.95,-662.67 8920.68,-661.15 8925.42,-659.12 8930.01,-656.81"/>
<polygon fill="black" stroke="black" points="8931.35,-660.06 8938.4,-652.15 8927.96,-653.94 8931.35,-660.06"/>
<text text-anchor="middle" x="8597.79" y="-696.62" font-family="Times,serif" font-size="14.00">NO</text>
</g>
<!-- 45123 -->
<g id="node7" class="node">
<title>45123</title>
<ellipse fill="none" stroke="black" cx="8597.79" cy="-513.67" rx="151.67" ry="151.67"/>
<text text-anchor="middle" x="8597.79" y="-508.62" font-family="Times,serif" font-size="14.00">WHERE WAS THE RADIO FOUND</text>
</g>
<!-- 44132&#45;&gt;45123 -->
<g id="edge4" class="edge">
<title>44132&#45;&gt;45123</title>
<path fill="none" stroke="black" d="M8385.07,-513.1C8401.46,-513.15 8418.1,-513.19 8434.46,-513.23"/>
<polygon fill="black" stroke="black" points="8434.22,-516.73 8444.23,-513.26 8434.24,-509.73 8434.22,-516.73"/>
<text text-anchor="middle" x="8415.37" y="-516.4" font-family="Times,serif" font-size="14.00">YES</text>
</g>
<!-- 45123&#45;&gt;END_NODE -->
<g id="edge39" class="edge">
<title>45123&#45;&gt;END_NODE</title>
<path fill="none" stroke="black" d="M8717.27,-607.44C8733.42,-616.46 8750.34,-624.25 8767.45,-629.67 8818.93,-645.94 8881.68,-643.13 8922.86,-638.44"/>
<polygon fill="black" stroke="black" points="8923.14,-641.93 8932.63,-637.24 8922.28,-634.99 8923.14,-641.93"/>
<text text-anchor="middle" x="8841.7" y="-645.27" font-family="Times,serif" font-size="14.00">PRISONER POSSESSION</text>
</g>
<!-- 45123&#45;&gt;END_NODE -->
<g id="edge40" class="edge">
<title>45123&#45;&gt;END_NODE</title>
<path fill="none" stroke="black" d="M8735.15,-579.09C8745.95,-583.04 8756.8,-586.64 8767.45,-589.67 8831.48,-607.87 8851.86,-591.18 8915.95,-609.17 8919.44,-610.14 8923,-611.32 8926.53,-612.61"/>
<polygon fill="black" stroke="black" points="8924.96,-615.75 8935.54,-616.2 8927.55,-609.25 8924.96,-615.75"/>
<text text-anchor="middle" x="8841.7" y="-612.37" font-family="Times,serif" font-size="14.00">CONCEALED</text>
</g>
<!-- 45123&#45;&gt;END_NODE -->
<g id="edge41" class="edge">
<title>45123&#45;&gt;END_NODE</title>
<path fill="none" stroke="black" d="M8746.29,-545.86C8753.44,-547.19 8760.52,-548.47 8767.45,-549.67 8833.06,-560.95 8857.83,-536.72 8915.95,-569.17 8926.51,-575.06 8935.73,-584.09 8943.32,-593.47"/>
<polygon fill="black" stroke="black" points="8940.37,-595.38 8949.17,-601.27 8945.97,-591.17 8940.37,-595.38"/>
<text text-anchor="middle" x="8841.7" y="-572.37" font-family="Times,serif" font-size="14.00">DISCARDED</text>
</g>
<!-- 45123&#45;&gt;END_NODE -->
<g id="edge42" class="edge">
<title>45123&#45;&gt;END_NODE</title>
<path fill="none" stroke="black" d="M8749.85,-514.24C8824.36,-515.75 8901.42,-519.66 8915.95,-529.17 8936.2,-542.41 8948.69,-566.25 8956.22,-587.6"/>
<polygon fill="black" stroke="black" points="8952.86,-588.59 8959.26,-597.04 8959.52,-586.44 8952.86,-588.59"/>
<text text-anchor="middle" x="8841.7" y="-532.37" font-family="Times,serif" font-size="14.00">MISLAID/LOST</text>
</g>
<!-- 45123&#45;&gt;END_NODE -->
<g id="edge43" class="edge">
<title>45123&#45;&gt;END_NODE</title>
<path fill="none" stroke="black" d="M8742.81,-467.9C8801.19,-458.22 8866.38,-459.64 8915.95,-494.17 8945.63,-514.83 8958.03,-554.9 8963.19,-586.47"/>
<polygon fill="black" stroke="black" points="8959.69,-586.76 8964.57,-596.17 8966.62,-585.78 8959.69,-586.76"/>
<text text-anchor="middle" x="8841.7" y="-497.37" font-family="Times,serif" font-size="14.00">OTHER</text>
</g>
<!-- 44173 -->
<g id="node8" class="node">
<title>44173</title>
<ellipse fill="none" stroke="black" cx="3353.24" cy="-723.67" rx="231.51" ry="231.51"/>
<text text-anchor="middle" x="3353.24" y="-718.62" font-family="Times,serif" font-size="14.00">IS THERE ANY MEDIA INTEREST IN THIS INCIDENT</text>
</g>
<!-- 44916 -->
<g id="node9" class="node">
<title>44916</title>
<ellipse fill="none" stroke="black" cx="3913.58" cy="-723.67" rx="267.33" ry="267.33"/>
<text text-anchor="middle" x="3913.58" y="-718.62" font-family="Times,serif" font-size="14.00">HAS THE PRISON SERVICE PRESS OFFICE BEEN INFORMED</text>
</g>
<!-- 44173&#45;&gt;44916 -->
<g id="edge6" class="edge">
<title>44173&#45;&gt;44916</title>
<path fill="none" stroke="black" d="M3584.97,-723.67C3601.31,-723.67 3617.88,-723.67 3634.44,-723.67"/>
<polygon fill="black" stroke="black" points="3634.4,-727.17 3644.4,-723.67 3634.4,-720.17 3634.4,-727.17"/>
<text text-anchor="middle" x="3615.5" y="-726.87" font-family="Times,serif" font-size="14.00">YES</text>
</g>
<!-- 44173&#45;&gt;44916 -->
<g id="edge7" class="edge">
<title>44173&#45;&gt;44916</title>
<path fill="none" stroke="black" d="M3584.37,-704.01C3590.56,-703.7 3596.69,-703.41 3602.75,-703.17 3613.44,-702.72 3624.34,-702.48 3635.35,-702.39"/>
<polygon fill="black" stroke="black" points="3635.35,-705.89 3645.34,-702.37 3635.33,-698.89 3635.35,-705.89"/>
<text text-anchor="middle" x="3615.5" y="-706.37" font-family="Times,serif" font-size="14.00">NO</text>
</g>
<!-- 44453 -->
<g id="node14" class="node">
<title>44453</title>
<ellipse fill="none" stroke="black" cx="4414.55" cy="-723.67" rx="172.14" ry="172.14"/>
<text text-anchor="middle" x="4414.55" y="-718.62" font-family="Times,serif" font-size="14.00">WHAT IS THE TYPE OF COMPROMISE</text>
</g>
<!-- 44916&#45;&gt;44453 -->
<g id="edge37" class="edge">
<title>44916&#45;&gt;44453</title>
<path fill="none" stroke="black" d="M4181.23,-723.67C4198.01,-723.67 4214.68,-723.67 4230.94,-723.67"/>
<polygon fill="black" stroke="black" points="4230.61,-727.17 4240.61,-723.67 4230.61,-720.17 4230.61,-727.17"/>
<text text-anchor="middle" x="4211.67" y="-726.87" font-family="Times,serif" font-size="14.00">YES</text>
</g>
<!-- 44916&#45;&gt;44453 -->
<g id="edge38" class="edge">
<title>44916&#45;&gt;44453</title>
<path fill="none" stroke="black" d="M4180.33,-701.92C4195.24,-702 4210.02,-702.39 4224.42,-703.17 4226.93,-703.3 4229.46,-703.45 4232,-703.6"/>
<polygon fill="black" stroke="black" points="4231.53,-707.08 4241.74,-704.24 4231.99,-700.09 4231.53,-707.08"/>
<text text-anchor="middle" x="4211.67" y="-706.37" font-family="Times,serif" font-size="14.00">NO</text>
</g>
<!-- 44184 -->
<g id="node10" class="node">
<title>44184</title>
<ellipse fill="none" stroke="black" cx="5607.8" cy="-787.67" rx="206.43" ry="206.43"/>
<text text-anchor="middle" x="5607.8" y="-782.62" font-family="Times,serif" font-size="14.00">IS THE INTERFERENCE/JAM THOUGHT TO BE</text>
</g>
<!-- 44184&#45;&gt;END_NODE -->
<g id="edge8" class="edge">
<title>44184&#45;&gt;END_NODE</title>
<path fill="none" stroke="black" d="M5814.62,-787.07C5906.25,-786.86 6015.48,-786.67 6113.91,-786.67 6113.91,-786.67 6113.91,-786.67 8598.79,-786.67 8740.22,-786.67 8802.39,-844.96 8915.95,-760.67 8942.41,-741.03 8955.11,-705.53 8961.2,-676.73"/>
<polygon fill="black" stroke="black" points="8964.6,-677.64 8963.02,-667.16 8957.72,-676.34 8964.6,-677.64"/>
<text text-anchor="middle" x="7349.84" y="-789.87" font-family="Times,serif" font-size="14.00">MALICIOUS</text>
</g>
<!-- 44184&#45;&gt;END_NODE -->
<g id="edge9" class="edge">
<title>44184&#45;&gt;END_NODE</title>
<path fill="none" stroke="black" d="M5813.09,-763.52C5904.91,-754.62 6014.71,-746.67 6113.91,-746.67 6113.91,-746.67 6113.91,-746.67 8598.79,-746.67 8742.09,-746.67 8791,-758.82 8915.95,-688.67 8925.21,-683.47 8933.65,-675.95 8940.88,-668.07"/>
<polygon fill="black" stroke="black" points="8943.41,-670.49 8947.25,-660.61 8938.09,-665.94 8943.41,-670.49"/>
<text text-anchor="middle" x="7349.84" y="-749.87" font-family="Times,serif" font-size="14.00">UNINTENTIONAL</text>
</g>
<!-- 44252 -->
<g id="node11" class="node">
<title>44252</title>
<ellipse fill="none" stroke="black" cx="6564.19" cy="-385.67" rx="223.83" ry="223.83"/>
<text text-anchor="middle" x="6564.19" y="-380.62" font-family="Times,serif" font-size="14.00">HAS THE RADIO BEEN ISOLATED FROM THE NET</text>
</g>
<!-- 44282 -->
<g id="node12" class="node">
<title>44282</title>
<ellipse fill="none" stroke="black" cx="7063.12" cy="-429.67" rx="213.59" ry="213.59"/>
<text text-anchor="middle" x="7063.12" y="-424.62" font-family="Times,serif" font-size="14.00">HAS THE LOCAL FREQUENCY BEEN CHANGED</text>
</g>
<!-- 44252&#45;&gt;44282 -->
<g id="edge10" class="edge">
<title>44252&#45;&gt;44282</title>
<path fill="none" stroke="black" d="M6787.28,-406C6793.6,-406.56 6799.86,-407.12 6806.02,-407.67 6816.78,-408.62 6827.78,-409.59 6838.9,-410.56"/>
<polygon fill="black" stroke="black" points="6838.27,-414.02 6848.54,-411.4 6838.88,-407.05 6838.27,-414.02"/>
<text text-anchor="middle" x="6818.77" y="-412.7" font-family="Times,serif" font-size="14.00">YES</text>
</g>
<!-- 44252&#45;&gt;44282 -->
<g id="edge11" class="edge">
<title>44252&#45;&gt;44282</title>
<path fill="none" stroke="black" d="M6788.4,-384.03C6803.01,-384.81 6817.48,-385.84 6831.52,-387.17 6834.96,-387.49 6838.42,-387.84 6841.9,-388.21"/>
<polygon fill="black" stroke="black" points="6841.24,-391.66 6851.57,-389.3 6842.03,-384.7 6841.24,-391.66"/>
<text text-anchor="middle" x="6818.77" y="-390.37" font-family="Times,serif" font-size="14.00">NO</text>
</g>
<!-- 44618 -->
<g id="node13" class="node">
<title>44618</title>
<ellipse fill="none" stroke="black" cx="7663.68" cy="-471.67" rx="240.72" ry="240.72"/>
<text text-anchor="middle" x="7663.68" y="-466.62" font-family="Times,serif" font-size="14.00">WHAT ACTION WAS TAKEN TO RECOVER THE RADIO</text>
</g>
<!-- 44282&#45;&gt;44618 -->
<g id="edge12" class="edge">
<title>44282&#45;&gt;44618</title>
<path fill="none" stroke="black" d="M7276.14,-448.27C7282.4,-448.75 7288.6,-449.22 7294.71,-449.67 7332.55,-452.44 7372.6,-455.1 7411.81,-457.57"/>
<polygon fill="black" stroke="black" points="7411.41,-461.05 7421.61,-458.18 7411.84,-454.06 7411.41,-461.05"/>
<text text-anchor="middle" x="7349.84" y="-459.75" font-family="Times,serif" font-size="14.00">YES</text>
</g>
<!-- 44282&#45;&gt;44618 -->
<g id="edge13" class="edge">
<title>44282&#45;&gt;44618</title>
<path fill="none" stroke="black" d="M7277.08,-429.19C7283.02,-429.18 7288.91,-429.17 7294.71,-429.17 7343.71,-429.11 7356.13,-425.17 7404.96,-429.17 7408.25,-429.43 7411.55,-429.72 7414.87,-430.03"/>
<polygon fill="black" stroke="black" points="7414.43,-433.5 7424.72,-430.99 7415.11,-426.53 7414.43,-433.5"/>
<text text-anchor="middle" x="7349.84" y="-432.37" font-family="Times,serif" font-size="14.00">NO</text>
</g>
<!-- 44618&#45;&gt;44132 -->
<g id="edge17" class="edge">
<title>44618&#45;&gt;44132</title>
<path fill="none" stroke="black" d="M7904.22,-489.41C7950.71,-492.85 7998.63,-496.4 8042.6,-499.66"/>
<polygon fill="black" stroke="black" points="8042.25,-503.14 8052.48,-500.39 8042.76,-496.16 8042.25,-503.14"/>
<text text-anchor="middle" x="7979.03" y="-501.43" font-family="Times,serif" font-size="14.00">FULL SEARCH</text>
</g>
<!-- 44618&#45;&gt;44132 -->
<g id="edge18" class="edge">
<title>44618&#45;&gt;44132</title>
<path fill="none" stroke="black" d="M7904.61,-462.39C7948.31,-463.06 7993.42,-465.31 8035.65,-470.17 8039.37,-470.59 8043.12,-471.07 8046.9,-471.58"/>
<polygon fill="black" stroke="black" points="8046.38,-475.05 8056.78,-473.04 8047.4,-468.12 8046.38,-475.05"/>
<text text-anchor="middle" x="7979.03" y="-473.37" font-family="Times,serif" font-size="14.00">PARTIAL SEARCH</text>
</g>
<!-- 44648 -->
<g id="node15" class="node">
<title>44648</title>
<ellipse fill="none" stroke="black" cx="4966.16" cy="-763.67" rx="240.72" ry="240.72"/>
<text text-anchor="middle" x="4966.16" y="-758.62" font-family="Times,serif" font-size="14.00">DESCRIBE THE SOURCE OF THE INTERFERENCE/JAM</text>
</g>
<!-- 44453&#45;&gt;44648 -->
<g id="edge14" class="edge">
<title>44453&#45;&gt;44648</title>
<path fill="none" stroke="black" d="M4586.16,-740.17C4592.42,-740.69 4598.61,-741.19 4604.69,-741.67 4640.1,-744.43 4677.48,-747.05 4714.24,-749.45"/>
<polygon fill="black" stroke="black" points="4713.9,-752.93 4724.11,-750.09 4714.36,-745.95 4713.9,-752.93"/>
<text text-anchor="middle" x="4656.07" y="-751.95" font-family="Times,serif" font-size="14.00">INTERFERENCE</text>
</g>
<!-- 44453&#45;&gt;44648 -->
<g id="edge15" class="edge">
<title>44453&#45;&gt;44648</title>
<path fill="none" stroke="black" d="M4586.95,-721.3C4592.93,-721.25 4598.86,-721.2 4604.69,-721.17 4650.36,-720.86 4661.93,-717.44 4707.44,-721.17 4710.73,-721.43 4714.03,-721.72 4717.35,-722.03"/>
<polygon fill="black" stroke="black" points="4716.91,-725.5 4727.2,-722.99 4717.59,-718.53 4716.91,-725.5"/>
<text text-anchor="middle" x="4656.07" y="-724.37" font-family="Times,serif" font-size="14.00">NET JAM</text>
</g>
<!-- 44841 -->
<g id="node16" class="node">
<title>44841</title>
<ellipse fill="none" stroke="black" cx="4966.16" cy="-312.67" rx="186.98" ry="186.98"/>
<text text-anchor="middle" x="4966.16" y="-307.62" font-family="Times,serif" font-size="14.00">IS THE MISSING RADIO THOUGHT TO BE</text>
</g>
<!-- 44453&#45;&gt;44841 -->
<g id="edge16" class="edge">
<title>44453&#45;&gt;44841</title>
<path fill="none" stroke="black" d="M4552.83,-621.01C4629.98,-563.32 4726.61,-491.05 4806.94,-430.99"/>
<polygon fill="black" stroke="black" points="4809.02,-433.8 4814.94,-425.01 4804.83,-428.19 4809.02,-433.8"/>
<text text-anchor="middle" x="4656.07" y="-582.19" font-family="Times,serif" font-size="14.00">MISSING RADIO</text>
</g>
<!-- 44648&#45;&gt;44184 -->
<g id="edge19" class="edge">
<title>44648&#45;&gt;44184</title>
<path fill="none" stroke="black" d="M5206.52,-782.79C5212.7,-783.11 5218.83,-783.4 5224.88,-783.67 5278.23,-786.01 5335.8,-787.28 5389.66,-787.91"/>
<polygon fill="black" stroke="black" points="5389.54,-791.41 5399.58,-788.02 5389.62,-784.41 5389.54,-791.41"/>
<text text-anchor="middle" x="5266.51" y="-789.4" font-family="Times,serif" font-size="14.00">INTERNAL</text>
</g>
<!-- 44648&#45;&gt;44184 -->
<g id="edge20" class="edge">
<title>44648&#45;&gt;44184</title>
<path fill="none" stroke="black" d="M5207.23,-763.18C5213.18,-763.18 5219.07,-763.17 5224.88,-763.17 5261.88,-763.13 5271.16,-761.65 5308.13,-763.17 5334.86,-764.26 5362.9,-765.9 5390.65,-767.83"/>
<polygon fill="black" stroke="black" points="5390.36,-771.32 5400.58,-768.53 5390.86,-764.34 5390.36,-771.32"/>
<text text-anchor="middle" x="5266.51" y="-766.37" font-family="Times,serif" font-size="14.00">EXTERNAL</text>
</g>
<!-- 44648&#45;&gt;44184 -->
<g id="edge21" class="edge">
<title>44648&#45;&gt;44184</title>
<path fill="none" stroke="black" d="M5206.16,-743.03C5212.47,-742.71 5218.72,-742.42 5224.88,-742.17 5261.85,-740.63 5271.24,-739.37 5308.13,-742.17 5335.61,-744.25 5364.38,-747.39 5392.76,-751.07"/>
<polygon fill="black" stroke="black" points="5392.17,-754.52 5402.54,-752.36 5393.08,-747.58 5392.17,-754.52"/>
<text text-anchor="middle" x="5266.51" y="-745.37" font-family="Times,serif" font-size="14.00">NOT KNOWN</text>
</g>
<!-- 44856 -->
<g id="node20" class="node">
<title>44856</title>
<ellipse fill="none" stroke="black" cx="5607.8" cy="-281.67" rx="281.67" ry="281.67"/>
<text text-anchor="middle" x="5607.8" y="-276.62" font-family="Times,serif" font-size="14.00">IS THE RADIO THOUGHT TO BE IN POSSESSION OF PRISONERS</text>
</g>
<!-- 44841&#45;&gt;44856 -->
<g id="edge32" class="edge">
<title>44841&#45;&gt;44856</title>
<path fill="none" stroke="black" d="M5153.31,-319.13C5177.39,-319.76 5201.72,-320.31 5224.88,-320.67 5261.88,-321.24 5271.21,-323.07 5308.13,-320.67 5311.04,-320.48 5313.97,-320.28 5316.91,-320.07"/>
<polygon fill="black" stroke="black" points="5317.08,-323.56 5326.79,-319.33 5316.56,-316.58 5317.08,-323.56"/>
<text text-anchor="middle" x="5266.51" y="-325.07" font-family="Times,serif" font-size="14.00">LOST</text>
</g>
<!-- 44841&#45;&gt;44856 -->
<g id="edge33" class="edge">
<title>44841&#45;&gt;44856</title>
<path fill="none" stroke="black" d="M5153.33,-303.63C5177.4,-302.47 5201.73,-301.29 5224.88,-300.17 5254.04,-298.75 5284.45,-297.28 5314.82,-295.81"/>
<polygon fill="black" stroke="black" points="5314.68,-299.32 5324.49,-295.34 5314.34,-292.33 5314.68,-299.32"/>
<text text-anchor="middle" x="5266.51" y="-303.37" font-family="Times,serif" font-size="14.00">MISLAID</text>
</g>
<!-- 44841&#45;&gt;44856 -->
<g id="edge34" class="edge">
<title>44841&#45;&gt;44856</title>
<path fill="none" stroke="black" d="M5151.25,-283.39C5175.95,-280.4 5200.99,-277.85 5224.88,-276.17 5253.97,-274.12 5284.34,-272.93 5314.68,-272.38"/>
<polygon fill="black" stroke="black" points="5314.4,-275.88 5324.34,-272.23 5314.29,-268.88 5314.4,-275.88"/>
<text text-anchor="middle" x="5266.51" y="-279.37" font-family="Times,serif" font-size="14.00">STOLEN</text>
</g>
<!-- 44712 -->
<g id="node17" class="node">
<title>44712</title>
<ellipse fill="none" stroke="black" cx="6114.91" cy="-337.67" rx="163.95" ry="163.95"/>
<text text-anchor="middle" x="6114.91" y="-332.62" font-family="Times,serif" font-size="14.00">IS THE RADIO STILL OPERATIONAL</text>
</g>
<!-- 44712&#45;&gt;44252 -->
<g id="edge22" class="edge">
<title>44712&#45;&gt;44252</title>
<path fill="none" stroke="black" d="M6277.64,-361.4C6284.13,-362.19 6290.55,-362.95 6296.86,-363.67 6307.58,-364.88 6318.55,-366.05 6329.63,-367.18"/>
<polygon fill="black" stroke="black" points="6328.95,-370.63 6339.25,-368.15 6329.65,-363.66 6328.95,-370.63"/>
<text text-anchor="middle" x="6309.61" y="-369.22" font-family="Times,serif" font-size="14.00">YES</text>
</g>
<!-- 44712&#45;&gt;44252 -->
<g id="edge23" class="edge">
<title>44712&#45;&gt;44252</title>
<path fill="none" stroke="black" d="M6279.18,-339.78C6293.8,-340.64 6308.36,-341.75 6322.36,-343.17 6325.63,-343.5 6328.92,-343.84 6332.23,-344.21"/>
<polygon fill="black" stroke="black" points="6331.7,-347.67 6342.03,-345.35 6332.5,-340.72 6331.7,-347.67"/>
<text text-anchor="middle" x="6309.61" y="-346.37" font-family="Times,serif" font-size="14.00">NO</text>
</g>
<!-- 44799&#45;&gt;44173 -->
<g id="edge24" class="edge">
<title>44799&#45;&gt;44173</title>
<path fill="none" stroke="black" d="M3060.72,-723.67C3077.22,-723.67 3093.77,-723.67 3110.12,-723.67"/>
<polygon fill="black" stroke="black" points="3109.89,-727.17 3119.89,-723.67 3109.89,-720.17 3109.89,-727.17"/>
<text text-anchor="middle" x="3090.98" y="-726.87" font-family="Times,serif" font-size="14.00">YES</text>
</g>
<!-- 44799&#45;&gt;44173 -->
<g id="edge25" class="edge">
<title>44799&#45;&gt;44173</title>
<path fill="none" stroke="black" d="M3059.54,-702.32C3074.49,-702.31 3089.29,-702.57 3103.73,-703.17 3106.1,-703.26 3108.48,-703.37 3110.86,-703.47"/>
<polygon fill="black" stroke="black" points="3110.45,-706.96 3120.6,-703.94 3110.78,-699.96 3110.45,-706.96"/>
<text text-anchor="middle" x="3090.98" y="-706.37" font-family="Times,serif" font-size="14.00">NO</text>
</g>
<!-- 44801&#45;&gt;44125 -->
<g id="edge26" class="edge">
<title>44801&#45;&gt;44125</title>
<path fill="none" stroke="black" d="M1173.18,-701.04C1190.04,-702.1 1207.06,-703.18 1224.05,-704.26"/>
<polygon fill="black" stroke="black" points="1223.49,-707.73 1233.69,-704.87 1223.93,-700.74 1223.49,-707.73"/>
<text text-anchor="middle" x="1204.21" y="-706.87" font-family="Times,serif" font-size="14.00">YES</text>
</g>
<!-- 44801&#45;&gt;44125 -->
<g id="edge27" class="edge">
<title>44801&#45;&gt;44125</title>
<path fill="none" stroke="black" d="M1173.76,-682.21C1179.71,-682.2 1185.62,-682.18 1191.46,-682.17 1202.79,-682.14 1205.65,-681.42 1216.96,-682.17 1220,-682.37 1223.06,-682.58 1226.13,-682.8"/>
<polygon fill="black" stroke="black" points="1225.55,-686.26 1235.79,-683.53 1226.08,-679.28 1225.55,-686.26"/>
<text text-anchor="middle" x="1204.21" y="-685.37" font-family="Times,serif" font-size="14.00">NO</text>
</g>
<!-- 44856&#45;&gt;44712 -->
<g id="edge35" class="edge">
<title>44856&#45;&gt;44712</title>
<path fill="none" stroke="black" d="M5887.8,-313.49C5894.42,-314.22 5900.98,-314.95 5907.46,-315.67 5918.21,-316.85 5929.28,-318.06 5940.44,-319.27"/>
<polygon fill="black" stroke="black" points="5939.79,-322.72 5950.11,-320.32 5940.55,-315.76 5939.79,-322.72"/>
<text text-anchor="middle" x="5920.21" y="-321.32" font-family="Times,serif" font-size="14.00">YES</text>
</g>
<!-- 44856&#45;&gt;44712 -->
<g id="edge36" class="edge">
<title>44856&#45;&gt;44712</title>
<path fill="none" stroke="black" d="M5889.78,-290.09C5904.41,-291.55 5918.87,-293.23 5932.96,-295.17 5936.64,-295.67 5940.35,-296.21 5944.09,-296.79"/>
<polygon fill="black" stroke="black" points="5943.43,-300.23 5953.86,-298.39 5944.56,-293.32 5943.43,-300.23"/>
<text text-anchor="middle" x="5920.21" y="-298.37" font-family="Times,serif" font-size="14.00">NO</text>
</g>
</g>
</svg>
