<?xml version="1.0" encoding="UTF-8" standalone="no"?>
<!DOCTYPE svg PUBLIC "-//W3C//DTD SVG 1.1//EN"
 "http://www.w3.org/Graphics/SVG/1.1/DTD/svg11.dtd">
<!-- Generated by graphviz version 12.1.1 (20240910.0053)
 -->
<!-- Title: RADIO_COMPROMISE Pages: 1 -->
<svg width="6830pt" height="775pt"
 viewBox="0.00 0.00 6829.56 774.96" xmlns="http://www.w3.org/2000/svg" xmlns:xlink="http://www.w3.org/1999/xlink">
<g id="graph0" class="graph" transform="scale(1 1) rotate(0) translate(4 770.96)">
<title>RADIO_COMPROMISE</title>
<polygon fill="white" stroke="none" points="-4,4 -4,-770.96 6825.56,-770.96 6825.56,4 -4,4"/>
<!-- START_NODE -->
<g id="node1" class="node">
<title>START_NODE</title>
</g>
<!-- 44802 -->
<g id="node2" class="node">
<title>44802</title>
<ellipse fill="none" stroke="black" cx="280.27" cy="-599.94" rx="167.02" ry="167.02"/>
<text text-anchor="middle" x="280.27" y="-594.89" font-family="Times,serif" font-size="14.00">Were the police informed of the incident?</text>
</g>
<!-- START_NODE&#45;&gt;44802 -->
<g id="edge1" class="edge">
<title>START_NODE&#45;&gt;44802</title>
<path fill="none" stroke="black" d="M53.94,-599.94C66.67,-599.94 83.21,-599.94 101.55,-599.94"/>
<polygon fill="black" stroke="black" points="101.34,-603.44 111.34,-599.94 101.34,-596.44 101.34,-603.44"/>
<text text-anchor="middle" x="83.62" y="-603.14" font-family="Times,serif" font-size="14.00">start</text>
</g>
<!-- 44125 -->
<g id="node4" class="node">
<title>44125</title>
<ellipse fill="none" stroke="black" cx="1177.03" cy="-520.94" rx="212.57" ry="212.57"/>
<text text-anchor="middle" x="1177.03" y="-515.89" font-family="Times,serif" font-size="14.00">Is the incident the subject of an internal investigation?</text>
</g>
<!-- 44802&#45;&gt;44125 -->
<g id="edge29" class="edge">
<title>44802&#45;&gt;44125</title>
<path fill="none" stroke="black" d="M431.54,-671.33C455.17,-679.85 479.68,-687.2 503.54,-691.94 679.94,-727.01 735.57,-742.36 908.21,-691.94 938.41,-683.12 968.44,-669.75 996.89,-654.28"/>
<polygon fill="black" stroke="black" points="998.51,-657.38 1005.56,-649.47 995.11,-651.26 998.51,-657.38"/>
<text text-anchor="middle" x="705.87" y="-727.45" font-family="Times,serif" font-size="14.00">No</text>
</g>
<!-- 44801 -->
<g id="node19" class="node">
<title>44801</title>
<ellipse fill="none" stroke="black" cx="705.87" cy="-480.94" rx="202.33" ry="202.33"/>
<text text-anchor="middle" x="705.87" y="-475.89" font-family="Times,serif" font-size="14.00">Is the incident the subject of a police investigation?</text>
</g>
<!-- 44802&#45;&gt;44801 -->
<g id="edge28" class="edge">
<title>44802&#45;&gt;44801</title>
<path fill="none" stroke="black" d="M441.42,-554.95C460.49,-549.59 480.17,-544.07 499.76,-538.56"/>
<polygon fill="black" stroke="black" points="500.5,-541.99 509.18,-535.92 498.6,-535.25 500.5,-541.99"/>
<text text-anchor="middle" x="475.42" y="-550.77" font-family="Times,serif" font-size="14.00">Yes</text>
</g>
<!-- END_NODE -->
<g id="node3" class="node">
<title>END_NODE</title>
<ellipse fill="none" stroke="black" cx="6787.7" cy="-446.94" rx="29.86" ry="29.86"/>
<ellipse fill="none" stroke="black" cx="6787.7" cy="-446.94" rx="33.86" ry="33.86"/>
<text text-anchor="middle" x="6787.7" y="-441.89" font-family="Times,serif" font-size="14.00">END</text>
</g>
<!-- 44811 -->
<g id="node5" class="node">
<title>44811</title>
<ellipse fill="none" stroke="black" cx="1647.67" cy="-520.94" rx="201.82" ry="201.82"/>
<text text-anchor="middle" x="1647.67" y="-515.89" font-family="Times,serif" font-size="14.00">Is the incident subject to a governor&#39;s adjudication?</text>
</g>
<!-- 44125&#45;&gt;44811 -->
<g id="edge2" class="edge">
<title>44125&#45;&gt;44811</title>
<path fill="none" stroke="black" d="M1390.07,-520.94C1404.75,-520.94 1419.55,-520.94 1434.23,-520.94"/>
<polygon fill="black" stroke="black" points="1433.91,-524.44 1443.91,-520.94 1433.91,-517.44 1433.91,-524.44"/>
<text text-anchor="middle" x="1417.73" y="-524.14" font-family="Times,serif" font-size="14.00">Yes</text>
</g>
<!-- 44125&#45;&gt;44811 -->
<g id="edge3" class="edge">
<title>44125&#45;&gt;44811</title>
<path fill="none" stroke="black" d="M1388.89,-499.78C1402.07,-499.66 1415.14,-499.85 1427.85,-500.44 1430.23,-500.55 1432.63,-500.67 1435.04,-500.8"/>
<polygon fill="black" stroke="black" points="1434.7,-504.28 1444.88,-501.34 1435.09,-497.29 1434.7,-504.28"/>
<text text-anchor="middle" x="1417.73" y="-503.64" font-family="Times,serif" font-size="14.00">No</text>
</g>
<!-- 44799 -->
<g id="node18" class="node">
<title>44799</title>
<ellipse fill="none" stroke="black" cx="2108.59" cy="-520.94" rx="202.85" ry="202.85"/>
<text text-anchor="middle" x="2108.59" y="-515.89" font-family="Times,serif" font-size="14.00">Is any member of staff facing disciplinary charges?</text>
</g>
<!-- 44811&#45;&gt;44799 -->
<g id="edge30" class="edge">
<title>44811&#45;&gt;44799</title>
<path fill="none" stroke="black" d="M1849.96,-520.94C1864.64,-520.94 1879.48,-520.94 1894.23,-520.94"/>
<polygon fill="black" stroke="black" points="1893.97,-524.44 1903.97,-520.94 1893.97,-517.44 1893.97,-524.44"/>
<text text-anchor="middle" x="1877.62" y="-524.14" font-family="Times,serif" font-size="14.00">Yes</text>
</g>
<!-- 44811&#45;&gt;44799 -->
<g id="edge31" class="edge">
<title>44811&#45;&gt;44799</title>
<path fill="none" stroke="black" d="M1848.96,-501.42C1855.21,-501.06 1861.4,-500.73 1867.5,-500.44 1876.56,-500.02 1885.81,-499.81 1895.15,-499.79"/>
<polygon fill="black" stroke="black" points="1895.05,-503.29 1905.07,-499.85 1895.09,-496.29 1895.05,-503.29"/>
<text text-anchor="middle" x="1877.62" y="-503.64" font-family="Times,serif" font-size="14.00">No</text>
</g>
<!-- 44132 -->
<g id="node6" class="node">
<title>44132</title>
<ellipse fill="none" stroke="black" cx="6198.88" cy="-358.94" rx="123.52" ry="123.52"/>
<text text-anchor="middle" x="6198.88" y="-353.89" font-family="Times,serif" font-size="14.00">Has the radio been recovered?</text>
</g>
<!-- 44132&#45;&gt;END_NODE -->
<g id="edge5" class="edge">
<title>44132&#45;&gt;END_NODE</title>
<path fill="none" stroke="black" d="M6297.27,-433.83C6322.48,-449.36 6350.5,-463.55 6378.65,-471.94 6530.79,-517.31 6582.38,-516.62 6735.85,-475.94 6740.38,-474.74 6744.93,-473.03 6749.34,-471.03"/>
<polygon fill="black" stroke="black" points="6750.65,-474.3 6757.97,-466.65 6747.47,-468.06 6750.65,-474.3"/>
<text text-anchor="middle" x="6495" y="-509.42" font-family="Times,serif" font-size="14.00">No</text>
</g>
<!-- 45123 -->
<g id="node7" class="node">
<title>45123</title>
<ellipse fill="none" stroke="black" cx="6495" cy="-346.94" rx="116.35" ry="116.35"/>
<text text-anchor="middle" x="6495" y="-341.89" font-family="Times,serif" font-size="14.00">Where was the radio found?</text>
</g>
<!-- 44132&#45;&gt;45123 -->
<g id="edge4" class="edge">
<title>44132&#45;&gt;45123</title>
<path fill="none" stroke="black" d="M6322.48,-353.94C6337.3,-353.33 6352.47,-352.72 6367.34,-352.11"/>
<polygon fill="black" stroke="black" points="6367.29,-355.61 6377.14,-351.71 6367.01,-348.62 6367.29,-355.61"/>
<text text-anchor="middle" x="6350.52" y="-356.14" font-family="Times,serif" font-size="14.00">Yes</text>
</g>
<!-- 45123&#45;&gt;END_NODE -->
<g id="edge39" class="edge">
<title>45123&#45;&gt;END_NODE</title>
<path fill="none" stroke="black" d="M6583.56,-422.63C6598.06,-431.72 6613.55,-439.65 6629.35,-444.94 6666.03,-457.23 6710.28,-456.54 6742.5,-453.46"/>
<polygon fill="black" stroke="black" points="6742.72,-456.96 6752.28,-452.4 6741.97,-450 6742.72,-456.96"/>
<text text-anchor="middle" x="6682.6" y="-458.56" font-family="Times,serif" font-size="14.00">Prisoner possession</text>
</g>
<!-- 45123&#45;&gt;END_NODE -->
<g id="edge40" class="edge">
<title>45123&#45;&gt;END_NODE</title>
<path fill="none" stroke="black" d="M6601.07,-395.27C6610.53,-398.82 6620.05,-402.11 6629.35,-404.94 6675.38,-418.96 6689.86,-410.27 6735.85,-424.44 6739.31,-425.51 6742.85,-426.74 6746.36,-428.08"/>
<polygon fill="black" stroke="black" points="6744.78,-431.21 6755.36,-431.73 6747.41,-424.73 6744.78,-431.21"/>
<text text-anchor="middle" x="6682.6" y="-427.64" font-family="Times,serif" font-size="14.00">Concealed</text>
</g>
<!-- 45123&#45;&gt;END_NODE -->
<g id="edge41" class="edge">
<title>45123&#45;&gt;END_NODE</title>
<path fill="none" stroke="black" d="M6610.51,-363.02C6669.33,-371.6 6729.97,-381.06 6735.85,-384.44 6746.33,-390.46 6755.52,-399.54 6763.11,-408.92"/>
<polygon fill="black" stroke="black" points="6760.16,-410.82 6768.97,-416.71 6765.76,-406.61 6760.16,-410.82"/>
<text text-anchor="middle" x="6682.6" y="-387.64" font-family="Times,serif" font-size="14.00">Discarded</text>
</g>
<!-- 45123&#45;&gt;END_NODE -->
<g id="edge42" class="edge">
<title>45123&#45;&gt;END_NODE</title>
<path fill="none" stroke="black" d="M6611.08,-334.89C6661.9,-331.84 6714.85,-332.48 6735.85,-345.44 6756.27,-358.05 6768.77,-381.63 6776.26,-402.89"/>
<polygon fill="black" stroke="black" points="6772.89,-403.83 6779.28,-412.29 6779.56,-401.69 6772.89,-403.83"/>
<text text-anchor="middle" x="6682.6" y="-348.64" font-family="Times,serif" font-size="14.00">Mislaid/lost</text>
</g>
<!-- 45123&#45;&gt;END_NODE -->
<g id="edge43" class="edge">
<title>45123&#45;&gt;END_NODE</title>
<path fill="none" stroke="black" d="M6602.1,-300.89C6646.78,-288.88 6697.26,-285.78 6735.85,-312.44 6764.62,-332.32 6777.13,-370.73 6782.56,-401.43"/>
<polygon fill="black" stroke="black" points="6779.1,-401.92 6784.09,-411.26 6786.02,-400.85 6779.1,-401.92"/>
<text text-anchor="middle" x="6682.6" y="-315.64" font-family="Times,serif" font-size="14.00">Other</text>
</g>
<!-- 44173 -->
<g id="node8" class="node">
<title>44173</title>
<ellipse fill="none" stroke="black" cx="2539.32" cy="-520.94" rx="171.63" ry="171.63"/>
<text text-anchor="middle" x="2539.32" y="-515.89" font-family="Times,serif" font-size="14.00">Is there any media interest in this incident?</text>
</g>
<!-- 44916 -->
<g id="node9" class="node">
<title>44916</title>
<ellipse fill="none" stroke="black" cx="2966.97" cy="-520.94" rx="199.78" ry="199.78"/>
<text text-anchor="middle" x="2966.97" y="-515.89" font-family="Times,serif" font-size="14.00">Has the prison service press office been informed?</text>
</g>
<!-- 44173&#45;&gt;44916 -->
<g id="edge6" class="edge">
<title>44173&#45;&gt;44916</title>
<path fill="none" stroke="black" d="M2711.3,-520.94C2725.85,-520.94 2740.67,-520.94 2755.48,-520.94"/>
<polygon fill="black" stroke="black" points="2755.29,-524.44 2765.29,-520.94 2755.29,-517.44 2755.29,-524.44"/>
<text text-anchor="middle" x="2739.07" y="-524.14" font-family="Times,serif" font-size="14.00">Yes</text>
</g>
<!-- 44173&#45;&gt;44916 -->
<g id="edge7" class="edge">
<title>44173&#45;&gt;44916</title>
<path fill="none" stroke="black" d="M2710.17,-501.62C2716.5,-501.17 2722.78,-500.78 2728.94,-500.44 2737.96,-499.95 2747.16,-499.7 2756.46,-499.64"/>
<polygon fill="black" stroke="black" points="2756.32,-503.14 2766.32,-499.66 2756.33,-496.14 2756.32,-503.14"/>
<text text-anchor="middle" x="2739.07" y="-503.64" font-family="Times,serif" font-size="14.00">No</text>
</g>
<!-- 44453 -->
<g id="node14" class="node">
<title>44453</title>
<ellipse fill="none" stroke="black" cx="3358.79" cy="-520.94" rx="135.8" ry="135.8"/>
<text text-anchor="middle" x="3358.79" y="-515.89" font-family="Times,serif" font-size="14.00">What is the type of compromise?</text>
</g>
<!-- 44916&#45;&gt;44453 -->
<g id="edge37" class="edge">
<title>44916&#45;&gt;44453</title>
<path fill="none" stroke="black" d="M3167.16,-520.94C3181.96,-520.94 3196.72,-520.94 3211.11,-520.94"/>
<polygon fill="black" stroke="black" points="3211.05,-524.44 3221.05,-520.94 3211.05,-517.44 3211.05,-524.44"/>
<text text-anchor="middle" x="3194.87" y="-524.14" font-family="Times,serif" font-size="14.00">Yes</text>
</g>
<!-- 44916&#45;&gt;44453 -->
<g id="edge38" class="edge">
<title>44916&#45;&gt;44453</title>
<path fill="none" stroke="black" d="M3165.8,-499.29C3179.06,-499.24 3192.22,-499.59 3205,-500.44 3207.54,-500.61 3210.12,-500.8 3212.71,-501"/>
<polygon fill="black" stroke="black" points="3212.38,-504.48 3222.64,-501.84 3212.97,-497.51 3212.38,-504.48"/>
<text text-anchor="middle" x="3194.87" y="-503.64" font-family="Times,serif" font-size="14.00">No</text>
</g>
<!-- 44184 -->
<g id="node10" class="node">
<title>44184</title>
<ellipse fill="none" stroke="black" cx="4253.29" cy="-582.94" rx="150.64" ry="150.64"/>
<text text-anchor="middle" x="4253.29" y="-577.89" font-family="Times,serif" font-size="14.00">Is the interference/jam thought to be?</text>
</g>
<!-- 44184&#45;&gt;END_NODE -->
<g id="edge8" class="edge">
<title>44184&#45;&gt;END_NODE</title>
<path fill="none" stroke="black" d="M4403.98,-583.52C4473.57,-583.74 4557.44,-583.94 4632.85,-583.94 4632.85,-583.94 4632.85,-583.94 6496,-583.94 6603.22,-583.94 6648.87,-620.64 6735.85,-557.94 6757.59,-542.26 6770.27,-514.99 6777.52,-491.4"/>
<polygon fill="black" stroke="black" points="6780.83,-492.56 6780.17,-481.98 6774.09,-490.66 6780.83,-492.56"/>
<text text-anchor="middle" x="5560.32" y="-587.14" font-family="Times,serif" font-size="14.00">Malicious</text>
</g>
<!-- 44184&#45;&gt;END_NODE -->
<g id="edge9" class="edge">
<title>44184&#45;&gt;END_NODE</title>
<path fill="none" stroke="black" d="M4402.7,-560.54C4472.4,-551.85 4556.71,-543.94 4632.85,-543.94 4632.85,-543.94 4632.85,-543.94 6496,-543.94 6604.22,-543.94 6641.47,-554.9 6735.85,-501.94 6744.76,-496.94 6752.99,-489.83 6760.12,-482.37"/>
<polygon fill="black" stroke="black" points="6762.34,-485.14 6766.4,-475.36 6757.12,-480.48 6762.34,-485.14"/>
<text text-anchor="middle" x="5560.32" y="-547.14" font-family="Times,serif" font-size="14.00">Unintentional</text>
</g>
<!-- 44252 -->
<g id="node11" class="node">
<title>44252</title>
<ellipse fill="none" stroke="black" cx="4971.94" cy="-261.94" rx="164.46" ry="164.46"/>
<text text-anchor="middle" x="4971.94" y="-256.89" font-family="Times,serif" font-size="14.00">Has the radio been isolated from the net?</text>
</g>
<!-- 44282 -->
<g id="node12" class="node">
<title>44282</title>
<ellipse fill="none" stroke="black" cx="5348.92" cy="-300.94" rx="156.27" ry="156.27"/>
<text text-anchor="middle" x="5348.92" y="-295.89" font-family="Times,serif" font-size="14.00">Has the local frequency been changed?</text>
</g>
<!-- 44252&#45;&gt;44282 -->
<g id="edge10" class="edge">
<title>44252&#45;&gt;44282</title>
<path fill="none" stroke="black" d="M5135.78,-278.88C5151.12,-280.47 5166.7,-282.09 5182.07,-283.69"/>
<polygon fill="black" stroke="black" points="5181.41,-287.14 5191.72,-284.7 5182.14,-280.18 5181.41,-287.14"/>
<text text-anchor="middle" x="5164.53" y="-285.81" font-family="Times,serif" font-size="14.00">Yes</text>
</g>
<!-- 44252&#45;&gt;44282 -->
<g id="edge11" class="edge">
<title>44252&#45;&gt;44282</title>
<path fill="none" stroke="black" d="M5136.6,-257.35C5149.5,-258.02 5162.3,-259.02 5174.65,-260.44 5178.33,-260.87 5182.05,-261.34 5185.79,-261.86"/>
<polygon fill="black" stroke="black" points="5185.18,-265.3 5195.58,-263.31 5186.21,-258.38 5185.18,-265.3"/>
<text text-anchor="middle" x="5164.53" y="-263.64" font-family="Times,serif" font-size="14.00">No</text>
</g>
<!-- 44618 -->
<g id="node13" class="node">
<title>44618</title>
<ellipse fill="none" stroke="black" cx="5790.65" cy="-338.94" rx="175.21" ry="175.21"/>
<text text-anchor="middle" x="5790.65" y="-333.89" font-family="Times,serif" font-size="14.00">What action was taken to recover the radio?</text>
</g>
<!-- 44282&#45;&gt;44618 -->
<g id="edge12" class="edge">
<title>44282&#45;&gt;44618</title>
<path fill="none" stroke="black" d="M5504.83,-317.25C5511.03,-317.84 5517.17,-318.4 5523.19,-318.94 5549.39,-321.28 5577.05,-323.57 5604.24,-325.71"/>
<polygon fill="black" stroke="black" points="5603.7,-329.18 5613.94,-326.47 5604.24,-322.2 5603.7,-329.18"/>
<text text-anchor="middle" x="5560.32" y="-328.28" font-family="Times,serif" font-size="14.00">Yes</text>
</g>
<!-- 44282&#45;&gt;44618 -->
<g id="edge13" class="edge">
<title>44282&#45;&gt;44618</title>
<path fill="none" stroke="black" d="M5505.31,-298.59C5511.35,-298.53 5517.33,-298.48 5523.19,-298.44 5556.19,-298.2 5564.62,-295.02 5597.44,-298.44 5600.89,-298.8 5604.37,-299.2 5607.88,-299.62"/>
<polygon fill="black" stroke="black" points="5607.25,-303.07 5617.62,-300.89 5608.16,-296.13 5607.25,-303.07"/>
<text text-anchor="middle" x="5560.32" y="-301.64" font-family="Times,serif" font-size="14.00">No</text>
</g>
<!-- 44618&#45;&gt;44132 -->
<g id="edge17" class="edge">
<title>44618&#45;&gt;44132</title>
<path fill="none" stroke="black" d="M5965.99,-347.52C5998.77,-349.14 6032.56,-350.8 6063.87,-352.34"/>
<polygon fill="black" stroke="black" points="6063.61,-355.83 6073.77,-352.83 6063.95,-348.84 6063.61,-355.83"/>
<text text-anchor="middle" x="6020.61" y="-355.1" font-family="Times,serif" font-size="14.00">Full search</text>
</g>
<!-- 44618&#45;&gt;44132 -->
<g id="edge18" class="edge">
<title>44618&#45;&gt;44132</title>
<path fill="none" stroke="black" d="M5965.56,-324.77C5996.2,-324.36 6027.76,-325.26 6057.36,-328.44 6060.56,-328.78 6063.8,-329.17 6067.05,-329.59"/>
<polygon fill="black" stroke="black" points="6066.3,-333.02 6076.69,-330.96 6067.28,-326.09 6066.3,-333.02"/>
<text text-anchor="middle" x="6020.61" y="-331.64" font-family="Times,serif" font-size="14.00">Partial search</text>
</g>
<!-- 44648 -->
<g id="node15" class="node">
<title>44648</title>
<ellipse fill="none" stroke="black" cx="3777.97" cy="-560.94" rx="171.63" ry="171.63"/>
<text text-anchor="middle" x="3777.97" y="-555.89" font-family="Times,serif" font-size="14.00">Describe the source of the interference/jam</text>
</g>
<!-- 44453&#45;&gt;44648 -->
<g id="edge14" class="edge">
<title>44453&#45;&gt;44648</title>
<path fill="none" stroke="black" d="M3493.92,-537C3500.23,-537.68 3506.48,-538.33 3512.59,-538.94 3539.28,-541.62 3567.5,-544.22 3595.18,-546.64"/>
<polygon fill="black" stroke="black" points="3594.81,-550.12 3605.08,-547.5 3595.42,-543.15 3594.81,-550.12"/>
<text text-anchor="middle" x="3550.47" y="-548.96" font-family="Times,serif" font-size="14.00">Interference</text>
</g>
<!-- 44453&#45;&gt;44648 -->
<g id="edge15" class="edge">
<title>44453&#45;&gt;44648</title>
<path fill="none" stroke="black" d="M3494.77,-518.61C3500.8,-518.55 3506.76,-518.49 3512.59,-518.44 3546.26,-518.17 3554.88,-514.72 3588.34,-518.44 3592.01,-518.85 3595.72,-519.3 3599.44,-519.79"/>
<polygon fill="black" stroke="black" points="3598.79,-523.23 3609.18,-521.16 3599.77,-516.3 3598.79,-523.23"/>
<text text-anchor="middle" x="3550.47" y="-521.64" font-family="Times,serif" font-size="14.00">Net jam</text>
</g>
<!-- 44841 -->
<g id="node16" class="node">
<title>44841</title>
<ellipse fill="none" stroke="black" cx="3777.97" cy="-229.94" rx="140.41" ry="140.41"/>
<text text-anchor="middle" x="3777.97" y="-224.89" font-family="Times,serif" font-size="14.00">Is the missing radio thought to be?</text>
</g>
<!-- 44453&#45;&gt;44841 -->
<g id="edge16" class="edge">
<title>44453&#45;&gt;44841</title>
<path fill="none" stroke="black" d="M3470.77,-443.53C3526.9,-404.37 3595.22,-356.72 3653.06,-316.37"/>
<polygon fill="black" stroke="black" points="3654.81,-319.42 3661.01,-310.83 3650.81,-313.68 3654.81,-319.42"/>
<text text-anchor="middle" x="3550.47" y="-413.26" font-family="Times,serif" font-size="14.00">Missing radio</text>
</g>
<!-- 44648&#45;&gt;44184 -->
<g id="edge19" class="edge">
<title>44648&#45;&gt;44184</title>
<path fill="none" stroke="black" d="M3949.09,-578.79C3955.33,-579.22 3961.52,-579.6 3967.6,-579.94 4007.52,-582.16 4050.64,-583.27 4090.95,-583.76"/>
<polygon fill="black" stroke="black" points="4090.69,-587.26 4100.73,-583.87 4090.76,-580.26 4090.69,-587.26"/>
<text text-anchor="middle" x="3997.97" y="-585.48" font-family="Times,serif" font-size="14.00">Internal</text>
</g>
<!-- 44648&#45;&gt;44184 -->
<g id="edge20" class="edge">
<title>44648&#45;&gt;44184</title>
<path fill="none" stroke="black" d="M3949.9,-559.52C3955.87,-559.49 3961.78,-559.46 3967.6,-559.44 3994.6,-559.33 4001.38,-558.03 4028.35,-559.44 4049.04,-560.52 4070.77,-562.17 4092.21,-564.09"/>
<polygon fill="black" stroke="black" points="4091.61,-567.55 4101.88,-564.98 4092.25,-560.58 4091.61,-567.55"/>
<text text-anchor="middle" x="3997.97" y="-562.64" font-family="Times,serif" font-size="14.00">External</text>
</g>
<!-- 44648&#45;&gt;44184 -->
<g id="edge21" class="edge">
<title>44648&#45;&gt;44184</title>
<path fill="none" stroke="black" d="M3948.55,-539.75C3954.98,-539.25 3961.34,-538.81 3967.6,-538.44 3994.55,-536.84 4001.48,-535.8 4028.35,-538.44 4049.95,-540.57 4072.55,-543.82 4094.74,-547.62"/>
<polygon fill="black" stroke="black" points="4094,-551.04 4104.45,-549.32 4095.21,-544.15 4094,-551.04"/>
<text text-anchor="middle" x="3997.97" y="-541.64" font-family="Times,serif" font-size="14.00">Not known</text>
</g>
<!-- 44856 -->
<g id="node20" class="node">
<title>44856</title>
<ellipse fill="none" stroke="black" cx="4253.29" cy="-206.94" rx="206.94" ry="206.94"/>
<text text-anchor="middle" x="4253.29" y="-201.89" font-family="Times,serif" font-size="14.00">Is the radio thought to be in possession of prisoners?</text>
</g>
<!-- 44841&#45;&gt;44856 -->
<g id="edge32" class="edge">
<title>44841&#45;&gt;44856</title>
<path fill="none" stroke="black" d="M3918.22,-242.27C3934.85,-243.37 3951.59,-244.31 3967.6,-244.94 3994.58,-246.01 4001.44,-247.21 4028.35,-244.94 4031.57,-244.67 4034.82,-244.38 4038.08,-244.06"/>
<polygon fill="black" stroke="black" points="4038.15,-247.57 4047.74,-243.08 4037.44,-240.61 4038.15,-247.57"/>
<text text-anchor="middle" x="3997.97" y="-249.43" font-family="Times,serif" font-size="14.00">Lost</text>
</g>
<!-- 44841&#45;&gt;44856 -->
<g id="edge33" class="edge">
<title>44841&#45;&gt;44856</title>
<path fill="none" stroke="black" d="M3918.42,-223.16C3954.98,-221.39 3995.29,-219.43 4034.88,-217.51"/>
<polygon fill="black" stroke="black" points="4034.97,-221.01 4044.79,-217.02 4034.63,-214.01 4034.97,-221.01"/>
<text text-anchor="middle" x="3997.97" y="-223.7" font-family="Times,serif" font-size="14.00">Mislaid</text>
</g>
<!-- 44841&#45;&gt;44856 -->
<g id="edge34" class="edge">
<title>44841&#45;&gt;44856</title>
<path fill="none" stroke="black" d="M3916.15,-203.5C3933.41,-201 3950.88,-198.87 3967.6,-197.44 3989.51,-195.57 4012.4,-194.63 4035.27,-194.36"/>
<polygon fill="black" stroke="black" points="4035,-197.87 4044.98,-194.3 4034.95,-190.87 4035,-197.87"/>
<text text-anchor="middle" x="3997.97" y="-200.64" font-family="Times,serif" font-size="14.00">Stolen</text>
</g>
<!-- 44712 -->
<g id="node17" class="node">
<title>44712</title>
<ellipse fill="none" stroke="black" cx="4633.85" cy="-226.94" rx="117.37" ry="117.37"/>
<text text-anchor="middle" x="4633.85" y="-221.89" font-family="Times,serif" font-size="14.00">Is the radio still operational?</text>
</g>
<!-- 44712&#45;&gt;44252 -->
<g id="edge22" class="edge">
<title>44712&#45;&gt;44252</title>
<path fill="none" stroke="black" d="M4750.65,-239.96C4756.94,-240.64 4763.16,-241.3 4769.23,-241.94 4778.19,-242.89 4787.37,-243.84 4796.64,-244.79"/>
<polygon fill="black" stroke="black" points="4796.18,-248.27 4806.48,-245.8 4796.89,-241.3 4796.18,-248.27"/>
<text text-anchor="middle" x="4779.35" y="-246.85" font-family="Times,serif" font-size="14.00">Yes</text>
</g>
<!-- 44712&#45;&gt;44252 -->
<g id="edge23" class="edge">
<title>44712&#45;&gt;44252</title>
<path fill="none" stroke="black" d="M4751.38,-221.88C4757.42,-221.71 4763.39,-221.56 4769.23,-221.44 4778.23,-221.26 4780.53,-220.45 4789.48,-221.44 4792.98,-221.83 4796.5,-222.25 4800.05,-222.72"/>
<polygon fill="black" stroke="black" points="4799.57,-226.18 4809.96,-224.1 4800.54,-219.25 4799.57,-226.18"/>
<text text-anchor="middle" x="4779.35" y="-224.64" font-family="Times,serif" font-size="14.00">No</text>
</g>
<!-- 44799&#45;&gt;44173 -->
<g id="edge24" class="edge">
<title>44799&#45;&gt;44173</title>
<path fill="none" stroke="black" d="M2311.72,-520.94C2326.59,-520.94 2341.54,-520.94 2356.28,-520.94"/>
<polygon fill="black" stroke="black" points="2355.99,-524.44 2365.99,-520.94 2355.99,-517.44 2355.99,-524.44"/>
<text text-anchor="middle" x="2339.57" y="-524.14" font-family="Times,serif" font-size="14.00">Yes</text>
</g>
<!-- 44799&#45;&gt;44173 -->
<g id="edge25" class="edge">
<title>44799&#45;&gt;44173</title>
<path fill="none" stroke="black" d="M2310.62,-499.64C2323.84,-499.52 2336.95,-499.75 2349.69,-500.44 2352.2,-500.58 2354.72,-500.72 2357.26,-500.88"/>
<polygon fill="black" stroke="black" points="2356.75,-504.35 2366.96,-501.52 2357.21,-497.37 2356.75,-504.35"/>
<text text-anchor="middle" x="2339.57" y="-503.64" font-family="Times,serif" font-size="14.00">No</text>
</g>
<!-- 44801&#45;&gt;44125 -->
<g id="edge26" class="edge">
<title>44801&#45;&gt;44125</title>
<path fill="none" stroke="black" d="M907.88,-498.08C923.09,-499.38 938.49,-500.69 953.82,-502"/>
<polygon fill="black" stroke="black" points="953.2,-505.46 963.46,-502.82 953.8,-498.48 953.2,-505.46"/>
<text text-anchor="middle" x="936.33" y="-504.14" font-family="Times,serif" font-size="14.00">Yes</text>
</g>
<!-- 44801&#45;&gt;44125 -->
<g id="edge27" class="edge">
<title>44801&#45;&gt;44125</title>
<path fill="none" stroke="black" d="M908.62,-476.91C921.44,-477.51 934.13,-478.34 946.46,-479.44 949.88,-479.75 953.32,-480.08 956.79,-480.43"/>
<polygon fill="black" stroke="black" points="956.09,-483.88 966.41,-481.48 956.85,-476.92 956.09,-483.88"/>
<text text-anchor="middle" x="936.33" y="-482.64" font-family="Times,serif" font-size="14.00">No</text>
</g>
<!-- 44856&#45;&gt;44712 -->
<g id="edge35" class="edge">
<title>44856&#45;&gt;44712</title>
<path fill="none" stroke="black" d="M4460.19,-217.82C4475.53,-218.63 4490.72,-219.43 4505.36,-220.21"/>
<polygon fill="black" stroke="black" points="4504.76,-223.68 4514.93,-220.71 4505.13,-216.69 4504.76,-223.68"/>
<text text-anchor="middle" x="4488.35" y="-222.52" font-family="Times,serif" font-size="14.00">Yes</text>
</g>
<!-- 44856&#45;&gt;44712 -->
<g id="edge36" class="edge">
<title>44856&#45;&gt;44712</title>
<path fill="none" stroke="black" d="M4460.27,-195.69C4473.21,-196.24 4486.03,-197.14 4498.48,-198.44 4501.54,-198.76 4504.64,-199.12 4507.76,-199.52"/>
<polygon fill="black" stroke="black" points="4507.23,-202.98 4517.62,-200.89 4508.2,-196.05 4507.23,-202.98"/>
<text text-anchor="middle" x="4488.35" y="-201.64" font-family="Times,serif" font-size="14.00">No</text>
</g>
</g>
</svg>
