<?xml version="1.0" encoding="UTF-8" standalone="no"?>
<!DOCTYPE svg PUBLIC "-//W3C//DTD SVG 1.1//EN"
 "http://www.w3.org/Graphics/SVG/1.1/DTD/svg11.dtd">
<!-- Generated by graphviz version 12.1.1 (20240910.0053)
 -->
<!-- Title: RADIO_COMPROMISE Pages: 1 -->
<svg width="7055pt" height="775pt"
 viewBox="0.00 0.00 7054.56 774.96" xmlns="http://www.w3.org/2000/svg" xmlns:xlink="http://www.w3.org/1999/xlink">
<g id="graph0" class="graph" transform="scale(1 1) rotate(0) translate(4 770.96)">
<title>RADIO_COMPROMISE</title>
<polygon fill="white" stroke="none" points="-4,4 -4,-770.96 7050.56,-770.96 7050.56,4 -4,4"/>
<!-- START_NODE -->
<g id="node1" class="node">
<title>START_NODE</title>
</g>
<!-- 44802 -->
<g id="node2" class="node">
<title>44802</title>
<ellipse fill="none" stroke="black" cx="280.27" cy="-599.94" rx="167.02" ry="167.02"/>
<text text-anchor="middle" x="280.27" y="-594.89" font-family="Times,serif" font-size="14.00">Were the police informed of the incident?</text>
</g>
<!-- START_NODE&#45;&gt;44802 -->
<g id="edge1" class="edge">
<title>START_NODE&#45;&gt;44802</title>
<path fill="none" stroke="black" d="M53.94,-599.94C66.67,-599.94 83.21,-599.94 101.55,-599.94"/>
<polygon fill="black" stroke="black" points="101.34,-603.44 111.34,-599.94 101.34,-596.44 101.34,-603.44"/>
<text text-anchor="middle" x="83.62" y="-603.14" font-family="Times,serif" font-size="14.00">start</text>
</g>
<!-- 44125 -->
<g id="node4" class="node">
<title>44125</title>
<ellipse fill="none" stroke="black" cx="1187.53" cy="-520.94" rx="212.57" ry="212.57"/>
<text text-anchor="middle" x="1187.53" y="-515.89" font-family="Times,serif" font-size="14.00">Is the incident the subject of an internal investigation?</text>
</g>
<!-- 44802&#45;&gt;44125 -->
<g id="edge29" class="edge">
<title>44802&#45;&gt;44125</title>
<path fill="none" stroke="black" d="M432.09,-670.23C457.22,-679.22 483.38,-687 508.79,-691.94 685.33,-726.28 740.6,-741.6 913.46,-691.94 945.1,-682.85 976.62,-668.91 1006.41,-652.82"/>
<polygon fill="black" stroke="black" points="1008.05,-655.91 1015.11,-648.01 1004.67,-649.78 1008.05,-655.91"/>
<text text-anchor="middle" x="711.12" y="-726.9" font-family="Times,serif" font-size="14.00">NO</text>
</g>
<!-- 44801 -->
<g id="node19" class="node">
<title>44801</title>
<ellipse fill="none" stroke="black" cx="711.12" cy="-480.94" rx="202.33" ry="202.33"/>
<text text-anchor="middle" x="711.12" y="-475.89" font-family="Times,serif" font-size="14.00">Is the incident the subject of a police investigation?</text>
</g>
<!-- 44802&#45;&gt;44801 -->
<g id="edge28" class="edge">
<title>44802&#45;&gt;44801</title>
<path fill="none" stroke="black" d="M441.57,-555.46C462.13,-549.75 483.41,-543.85 504.57,-537.98"/>
<polygon fill="black" stroke="black" points="505.46,-541.37 514.16,-535.32 503.59,-534.62 505.46,-541.37"/>
<text text-anchor="middle" x="478.04" y="-550.77" font-family="Times,serif" font-size="14.00">YES</text>
</g>
<!-- END_NODE -->
<g id="node3" class="node">
<title>END_NODE</title>
<ellipse fill="none" stroke="black" cx="7012.7" cy="-446.94" rx="29.86" ry="29.86"/>
<ellipse fill="none" stroke="black" cx="7012.7" cy="-446.94" rx="33.86" ry="33.86"/>
<text text-anchor="middle" x="7012.7" y="-441.89" font-family="Times,serif" font-size="14.00">END</text>
</g>
<!-- 44811 -->
<g id="node5" class="node">
<title>44811</title>
<ellipse fill="none" stroke="black" cx="1663.42" cy="-520.94" rx="201.82" ry="201.82"/>
<text text-anchor="middle" x="1663.42" y="-515.89" font-family="Times,serif" font-size="14.00">Is the incident subject to a governor&#39;s adjudication?</text>
</g>
<!-- 44125&#45;&gt;44811 -->
<g id="edge2" class="edge">
<title>44125&#45;&gt;44811</title>
<path fill="none" stroke="black" d="M1400.53,-520.94C1416.95,-520.94 1433.53,-520.94 1449.95,-520.94"/>
<polygon fill="black" stroke="black" points="1449.78,-524.44 1459.78,-520.94 1449.78,-517.44 1449.78,-524.44"/>
<text text-anchor="middle" x="1430.85" y="-524.14" font-family="Times,serif" font-size="14.00">YES</text>
</g>
<!-- 44125&#45;&gt;44811 -->
<g id="edge3" class="edge">
<title>44125&#45;&gt;44811</title>
<path fill="none" stroke="black" d="M1399.33,-499.81C1414.31,-499.59 1429.18,-499.77 1443.6,-500.44 1445.98,-500.55 1448.38,-500.67 1450.79,-500.8"/>
<polygon fill="black" stroke="black" points="1450.45,-504.28 1460.63,-501.34 1450.84,-497.29 1450.45,-504.28"/>
<text text-anchor="middle" x="1430.85" y="-503.64" font-family="Times,serif" font-size="14.00">NO</text>
</g>
<!-- 44799 -->
<g id="node18" class="node">
<title>44799</title>
<ellipse fill="none" stroke="black" cx="2129.59" cy="-520.94" rx="202.85" ry="202.85"/>
<text text-anchor="middle" x="2129.59" y="-515.89" font-family="Times,serif" font-size="14.00">Is any member of staff facing disciplinary charges?</text>
</g>
<!-- 44811&#45;&gt;44799 -->
<g id="edge30" class="edge">
<title>44811&#45;&gt;44799</title>
<path fill="none" stroke="black" d="M1865.65,-520.94C1882.07,-520.94 1898.69,-520.94 1915.18,-520.94"/>
<polygon fill="black" stroke="black" points="1915.06,-524.44 1925.06,-520.94 1915.06,-517.44 1915.06,-524.44"/>
<text text-anchor="middle" x="1896" y="-524.14" font-family="Times,serif" font-size="14.00">YES</text>
</g>
<!-- 44811&#45;&gt;44799 -->
<g id="edge31" class="edge">
<title>44811&#45;&gt;44799</title>
<path fill="none" stroke="black" d="M1864.71,-501.42C1870.96,-501.06 1877.15,-500.73 1883.25,-500.44 1894.06,-499.94 1905.12,-499.73 1916.3,-499.77"/>
<polygon fill="black" stroke="black" points="1915.95,-503.27 1925.99,-499.88 1916.02,-496.27 1915.95,-503.27"/>
<text text-anchor="middle" x="1896" y="-503.64" font-family="Times,serif" font-size="14.00">NO</text>
</g>
<!-- 44132 -->
<g id="node6" class="node">
<title>44132</title>
<ellipse fill="none" stroke="black" cx="6376.63" cy="-358.94" rx="123.52" ry="123.52"/>
<text text-anchor="middle" x="6376.63" y="-353.89" font-family="Times,serif" font-size="14.00">Has the radio been recovered?</text>
</g>
<!-- 44132&#45;&gt;END_NODE -->
<g id="edge5" class="edge">
<title>44132&#45;&gt;END_NODE</title>
<path fill="none" stroke="black" d="M6476.24,-432.51C6502.69,-448.5 6532.16,-463.23 6561.65,-471.94 6731.81,-522.22 6790.01,-525.91 6960.85,-477.94 6965.68,-476.58 6970.51,-474.63 6975.17,-472.34"/>
<polygon fill="black" stroke="black" points="6976.6,-475.55 6983.68,-467.67 6973.23,-469.41 6976.6,-475.55"/>
<text text-anchor="middle" x="6678" y="-515.07" font-family="Times,serif" font-size="14.00">NO</text>
</g>
<!-- 45123 -->
<g id="node7" class="node">
<title>45123</title>
<ellipse fill="none" stroke="black" cx="6678" cy="-346.94" rx="116.35" ry="116.35"/>
<text text-anchor="middle" x="6678" y="-341.89" font-family="Times,serif" font-size="14.00">Where was the radio found?</text>
</g>
<!-- 44132&#45;&gt;45123 -->
<g id="edge4" class="edge">
<title>44132&#45;&gt;45123</title>
<path fill="none" stroke="black" d="M6500.26,-354.03C6516.66,-353.37 6533.5,-352.69 6549.98,-352.03"/>
<polygon fill="black" stroke="black" points="6549.95,-355.54 6559.8,-351.64 6549.67,-348.54 6549.95,-355.54"/>
<text text-anchor="middle" x="6530.9" y="-356.5" font-family="Times,serif" font-size="14.00">YES</text>
</g>
<!-- 45123&#45;&gt;END_NODE -->
<g id="edge39" class="edge">
<title>45123&#45;&gt;END_NODE</title>
<path fill="none" stroke="black" d="M6766.55,-422.67C6781.05,-431.76 6796.54,-439.67 6812.35,-444.94 6863.56,-462.02 6926.37,-459.03 6967.63,-454.09"/>
<polygon fill="black" stroke="black" points="6967.97,-457.57 6977.43,-452.81 6967.07,-450.63 6967.97,-457.57"/>
<text text-anchor="middle" x="6886.6" y="-461.13" font-family="Times,serif" font-size="14.00">PRISONER POSSESSION</text>
</g>
<!-- 45123&#45;&gt;END_NODE -->
<g id="edge40" class="edge">
<title>45123&#45;&gt;END_NODE</title>
<path fill="none" stroke="black" d="M6783.92,-395.78C6793.42,-399.22 6802.98,-402.34 6812.35,-404.94 6876.5,-422.72 6896.76,-406.46 6960.85,-424.44 6964.33,-425.42 6967.89,-426.59 6971.42,-427.89"/>
<polygon fill="black" stroke="black" points="6969.85,-431.03 6980.43,-431.48 6972.44,-424.52 6969.85,-431.03"/>
<text text-anchor="middle" x="6886.6" y="-427.64" font-family="Times,serif" font-size="14.00">CONCEALED</text>
</g>
<!-- 45123&#45;&gt;END_NODE -->
<g id="edge41" class="edge">
<title>45123&#45;&gt;END_NODE</title>
<path fill="none" stroke="black" d="M6793.56,-362.43C6799.92,-363.28 6806.21,-364.12 6812.35,-364.94 6878.33,-373.73 6902.72,-351.99 6960.85,-384.44 6971.4,-390.33 6980.62,-399.36 6988.21,-408.75"/>
<polygon fill="black" stroke="black" points="6985.26,-410.65 6994.06,-416.55 6990.86,-406.45 6985.26,-410.65"/>
<text text-anchor="middle" x="6886.6" y="-387.64" font-family="Times,serif" font-size="14.00">DISCARDED</text>
</g>
<!-- 45123&#45;&gt;END_NODE -->
<g id="edge42" class="edge">
<title>45123&#45;&gt;END_NODE</title>
<path fill="none" stroke="black" d="M6794,-333.77C6859.32,-328.62 6933.4,-327.42 6960.85,-344.44 6981.64,-357.34 6994.2,-381.56 7001.63,-403.22"/>
<polygon fill="black" stroke="black" points="6998.2,-403.96 7004.53,-412.46 7004.88,-401.87 6998.2,-403.96"/>
<text text-anchor="middle" x="6886.6" y="-347.64" font-family="Times,serif" font-size="14.00">MISLAID/LOST</text>
</g>
<!-- 45123&#45;&gt;END_NODE -->
<g id="edge43" class="edge">
<title>45123&#45;&gt;END_NODE</title>
<path fill="none" stroke="black" d="M6784.76,-299.94C6841.55,-282.33 6910.11,-274.11 6960.85,-309.44 6990.52,-330.1 7002.92,-370.17 7008.08,-401.75"/>
<polygon fill="black" stroke="black" points="7004.59,-402.04 7009.46,-411.45 7011.52,-401.05 7004.59,-402.04"/>
<text text-anchor="middle" x="6886.6" y="-312.64" font-family="Times,serif" font-size="14.00">OTHER</text>
</g>
<!-- 44173 -->
<g id="node8" class="node">
<title>44173</title>
<ellipse fill="none" stroke="black" cx="2565.57" cy="-520.94" rx="171.63" ry="171.63"/>
<text text-anchor="middle" x="2565.57" y="-515.89" font-family="Times,serif" font-size="14.00">Is there any media interest in this incident?</text>
</g>
<!-- 44916 -->
<g id="node9" class="node">
<title>44916</title>
<ellipse fill="none" stroke="black" cx="2998.47" cy="-520.94" rx="199.78" ry="199.78"/>
<text text-anchor="middle" x="2998.47" y="-515.89" font-family="Times,serif" font-size="14.00">Has the prison service press office been informed?</text>
</g>
<!-- 44173&#45;&gt;44916 -->
<g id="edge6" class="edge">
<title>44173&#45;&gt;44916</title>
<path fill="none" stroke="black" d="M2737.49,-520.94C2753.72,-520.94 2770.3,-520.94 2786.84,-520.94"/>
<polygon fill="black" stroke="black" points="2786.77,-524.44 2796.77,-520.94 2786.77,-517.44 2786.77,-524.44"/>
<text text-anchor="middle" x="2767.94" y="-524.14" font-family="Times,serif" font-size="14.00">YES</text>
</g>
<!-- 44173&#45;&gt;44916 -->
<g id="edge7" class="edge">
<title>44173&#45;&gt;44916</title>
<path fill="none" stroke="black" d="M2736.42,-501.62C2742.75,-501.17 2749.03,-500.78 2755.19,-500.44 2766.02,-499.85 2777.11,-499.59 2788.31,-499.59"/>
<polygon fill="black" stroke="black" points="2788,-503.09 2798.03,-499.67 2788.05,-496.09 2788,-503.09"/>
<text text-anchor="middle" x="2767.94" y="-503.64" font-family="Times,serif" font-size="14.00">NO</text>
</g>
<!-- 44453 -->
<g id="node14" class="node">
<title>44453</title>
<ellipse fill="none" stroke="black" cx="3395.54" cy="-520.94" rx="135.8" ry="135.8"/>
<text text-anchor="middle" x="3395.54" y="-515.89" font-family="Times,serif" font-size="14.00">What is the type of compromise?</text>
</g>
<!-- 44916&#45;&gt;44453 -->
<g id="edge37" class="edge">
<title>44916&#45;&gt;44453</title>
<path fill="none" stroke="black" d="M3198.74,-520.94C3215.42,-520.94 3232.07,-520.94 3248.23,-520.94"/>
<polygon fill="black" stroke="black" points="3247.83,-524.44 3257.83,-520.94 3247.83,-517.44 3247.83,-524.44"/>
<text text-anchor="middle" x="3229" y="-524.14" font-family="Times,serif" font-size="14.00">YES</text>
</g>
<!-- 44916&#45;&gt;44453 -->
<g id="edge38" class="edge">
<title>44916&#45;&gt;44453</title>
<path fill="none" stroke="black" d="M3197.42,-499.28C3212.42,-499.14 3227.32,-499.48 3241.75,-500.44 3244.29,-500.61 3246.87,-500.8 3249.46,-501"/>
<polygon fill="black" stroke="black" points="3249.13,-504.48 3259.39,-501.84 3249.72,-497.51 3249.13,-504.48"/>
<text text-anchor="middle" x="3229" y="-503.64" font-family="Times,serif" font-size="14.00">NO</text>
</g>
<!-- 44184 -->
<g id="node10" class="node">
<title>44184</title>
<ellipse fill="none" stroke="black" cx="4339.54" cy="-582.94" rx="150.64" ry="150.64"/>
<text text-anchor="middle" x="4339.54" y="-577.89" font-family="Times,serif" font-size="14.00">Is the interference/jam thought to be?</text>
</g>
<!-- 44184&#45;&gt;END_NODE -->
<g id="edge8" class="edge">
<title>44184&#45;&gt;END_NODE</title>
<path fill="none" stroke="black" d="M4490.46,-583.51C4561.38,-583.74 4647.22,-583.94 4724.35,-583.94 4724.35,-583.94 4724.35,-583.94 6679,-583.94 6804.8,-583.94 6858.21,-630.68 6960.85,-557.94 6982.79,-542.39 6995.48,-514.98 7002.69,-491.29"/>
<polygon fill="black" stroke="black" points="7006.01,-492.41 7005.32,-481.83 6999.27,-490.53 7006.01,-492.41"/>
<text text-anchor="middle" x="5680.32" y="-587.14" font-family="Times,serif" font-size="14.00">MALICIOUS</text>
</g>
<!-- 44184&#45;&gt;END_NODE -->
<g id="edge9" class="edge">
<title>44184&#45;&gt;END_NODE</title>
<path fill="none" stroke="black" d="M4488.73,-560.82C4559.83,-552.02 4646.32,-543.94 4724.35,-543.94 4724.35,-543.94 4724.35,-543.94 6679,-543.94 6713.01,-543.94 6953.81,-511.82 6960.85,-507.94 6971.08,-502.3 6980.11,-493.71 6987.62,-484.74"/>
<polygon fill="black" stroke="black" points="6990.31,-486.98 6993.67,-476.94 6984.78,-482.69 6990.31,-486.98"/>
<text text-anchor="middle" x="5680.32" y="-547.14" font-family="Times,serif" font-size="14.00">UNINTENTIONAL</text>
</g>
<!-- 44252 -->
<g id="node11" class="node">
<title>44252</title>
<ellipse fill="none" stroke="black" cx="5068.69" cy="-261.94" rx="164.46" ry="164.46"/>
<text text-anchor="middle" x="5068.69" y="-256.89" font-family="Times,serif" font-size="14.00">Has the radio been isolated from the net?</text>
</g>
<!-- 44282 -->
<g id="node12" class="node">
<title>44282</title>
<ellipse fill="none" stroke="black" cx="5450.92" cy="-300.94" rx="156.27" ry="156.27"/>
<text text-anchor="middle" x="5450.92" y="-295.89" font-family="Times,serif" font-size="14.00">Has the local frequency been changed?</text>
</g>
<!-- 44252&#45;&gt;44282 -->
<g id="edge10" class="edge">
<title>44252&#45;&gt;44282</title>
<path fill="none" stroke="black" d="M5232.6,-278.65C5249.63,-280.4 5266.96,-282.17 5284.02,-283.92"/>
<polygon fill="black" stroke="black" points="5283.38,-287.38 5293.68,-284.92 5284.09,-280.41 5283.38,-287.38"/>
<text text-anchor="middle" x="5263.9" y="-285.81" font-family="Times,serif" font-size="14.00">YES</text>
</g>
<!-- 44252&#45;&gt;44282 -->
<g id="edge11" class="edge">
<title>44252&#45;&gt;44282</title>
<path fill="none" stroke="black" d="M5233.42,-257.06C5248.06,-257.74 5262.64,-258.83 5276.65,-260.44 5280.33,-260.87 5284.05,-261.34 5287.79,-261.86"/>
<polygon fill="black" stroke="black" points="5287.18,-265.3 5297.58,-263.31 5288.21,-258.38 5287.18,-265.3"/>
<text text-anchor="middle" x="5263.9" y="-263.64" font-family="Times,serif" font-size="14.00">NO</text>
</g>
<!-- 44618 -->
<g id="node13" class="node">
<title>44618</title>
<ellipse fill="none" stroke="black" cx="5928.65" cy="-338.94" rx="175.21" ry="175.21"/>
<text text-anchor="middle" x="5928.65" y="-333.89" font-family="Times,serif" font-size="14.00">What action was taken to recover the radio?</text>
</g>
<!-- 44282&#45;&gt;44618 -->
<g id="edge12" class="edge">
<title>44282&#45;&gt;44618</title>
<path fill="none" stroke="black" d="M5606.82,-317.32C5613.02,-317.89 5619.17,-318.43 5625.19,-318.94 5663.02,-322.15 5703.54,-325.15 5742.23,-327.78"/>
<polygon fill="black" stroke="black" points="5741.91,-331.27 5752.12,-328.45 5742.38,-324.29 5741.91,-331.27"/>
<text text-anchor="middle" x="5680.32" y="-330.37" font-family="Times,serif" font-size="14.00">YES</text>
</g>
<!-- 44282&#45;&gt;44618 -->
<g id="edge13" class="edge">
<title>44282&#45;&gt;44618</title>
<path fill="none" stroke="black" d="M5607.31,-298.59C5613.35,-298.53 5619.33,-298.48 5625.19,-298.44 5674.19,-298.09 5686.71,-293.36 5735.44,-298.44 5738.89,-298.8 5742.37,-299.2 5745.88,-299.62"/>
<polygon fill="black" stroke="black" points="5745.25,-303.07 5755.62,-300.89 5746.16,-296.13 5745.25,-303.07"/>
<text text-anchor="middle" x="5680.32" y="-301.64" font-family="Times,serif" font-size="14.00">NO</text>
</g>
<!-- 44618&#45;&gt;44132 -->
<g id="edge17" class="edge">
<title>44618&#45;&gt;44132</title>
<path fill="none" stroke="black" d="M6104,-346.76C6149.63,-348.81 6198.13,-350.98 6241.32,-352.92"/>
<polygon fill="black" stroke="black" points="6241.11,-356.41 6251.25,-353.36 6241.42,-349.42 6241.11,-356.41"/>
<text text-anchor="middle" x="6178.49" y="-355.67" font-family="Times,serif" font-size="14.00">FULL SEARCH</text>
</g>
<!-- 44618&#45;&gt;44132 -->
<g id="edge18" class="edge">
<title>44618&#45;&gt;44132</title>
<path fill="none" stroke="black" d="M6103.63,-323.51C6146.69,-322.13 6192.65,-322.74 6235.11,-327.44 6238.37,-327.8 6241.67,-328.21 6244.99,-328.66"/>
<polygon fill="black" stroke="black" points="6244.45,-332.11 6254.85,-330.1 6245.46,-325.19 6244.45,-332.11"/>
<text text-anchor="middle" x="6178.49" y="-330.64" font-family="Times,serif" font-size="14.00">PARTIAL SEARCH</text>
</g>
<!-- 44648 -->
<g id="node15" class="node">
<title>44648</title>
<ellipse fill="none" stroke="black" cx="3841.72" cy="-560.94" rx="171.63" ry="171.63"/>
<text text-anchor="middle" x="3841.72" y="-555.89" font-family="Times,serif" font-size="14.00">Describe the source of the interference/jam</text>
</g>
<!-- 44453&#45;&gt;44648 -->
<g id="edge14" class="edge">
<title>44453&#45;&gt;44648</title>
<path fill="none" stroke="black" d="M3530.67,-537.06C3536.98,-537.72 3543.23,-538.35 3549.34,-538.94 3584.81,-542.37 3622.75,-545.57 3659.13,-548.41"/>
<polygon fill="black" stroke="black" points="3658.62,-551.88 3668.86,-549.17 3659.16,-544.9 3658.62,-551.88"/>
<text text-anchor="middle" x="3600.72" y="-550.53" font-family="Times,serif" font-size="14.00">INTERFERENCE</text>
</g>
<!-- 44453&#45;&gt;44648 -->
<g id="edge15" class="edge">
<title>44453&#45;&gt;44648</title>
<path fill="none" stroke="black" d="M3531.52,-518.61C3537.55,-518.55 3543.51,-518.49 3549.34,-518.44 3595.01,-518.07 3606.71,-513.39 3652.09,-518.44 3655.76,-518.85 3659.47,-519.3 3663.19,-519.79"/>
<polygon fill="black" stroke="black" points="3662.54,-523.23 3672.93,-521.16 3663.52,-516.3 3662.54,-523.23"/>
<text text-anchor="middle" x="3600.72" y="-521.64" font-family="Times,serif" font-size="14.00">NET JAM</text>
</g>
<!-- 44841 -->
<g id="node16" class="node">
<title>44841</title>
<ellipse fill="none" stroke="black" cx="3841.72" cy="-229.94" rx="140.41" ry="140.41"/>
<text text-anchor="middle" x="3841.72" y="-224.89" font-family="Times,serif" font-size="14.00">Is the missing radio thought to be?</text>
</g>
<!-- 44453&#45;&gt;44841 -->
<g id="edge16" class="edge">
<title>44453&#45;&gt;44841</title>
<path fill="none" stroke="black" d="M3509.78,-446.76C3572.25,-405.83 3649.98,-354.9 3714.42,-312.69"/>
<polygon fill="black" stroke="black" points="3716.11,-315.76 3722.56,-307.36 3712.27,-309.91 3716.11,-315.76"/>
<text text-anchor="middle" x="3600.72" y="-421.71" font-family="Times,serif" font-size="14.00">MISSING RADIO</text>
</g>
<!-- 44648&#45;&gt;44184 -->
<g id="edge19" class="edge">
<title>44648&#45;&gt;44184</title>
<path fill="none" stroke="black" d="M4012.84,-578.79C4019.08,-579.22 4025.27,-579.61 4031.35,-579.94 4078.68,-582.55 4130.17,-583.71 4177.23,-584.11"/>
<polygon fill="black" stroke="black" points="4176.92,-587.61 4186.94,-584.18 4176.97,-580.61 4176.92,-587.61"/>
<text text-anchor="middle" x="4072.97" y="-586.13" font-family="Times,serif" font-size="14.00">INTERNAL</text>
</g>
<!-- 44648&#45;&gt;44184 -->
<g id="edge20" class="edge">
<title>44648&#45;&gt;44184</title>
<path fill="none" stroke="black" d="M4013.65,-559.52C4019.62,-559.49 4025.53,-559.46 4031.35,-559.44 4068.35,-559.29 4077.65,-557.51 4114.6,-559.44 4135.29,-560.52 4157.02,-562.17 4178.46,-564.09"/>
<polygon fill="black" stroke="black" points="4177.86,-567.55 4188.13,-564.98 4178.5,-560.58 4177.86,-567.55"/>
<text text-anchor="middle" x="4072.97" y="-562.64" font-family="Times,serif" font-size="14.00">EXTERNAL</text>
</g>
<!-- 44648&#45;&gt;44184 -->
<g id="edge21" class="edge">
<title>44648&#45;&gt;44184</title>
<path fill="none" stroke="black" d="M4012.3,-539.75C4018.73,-539.25 4025.09,-538.81 4031.35,-538.44 4068.28,-536.25 4077.77,-534.82 4114.6,-538.44 4136.2,-540.57 4158.8,-543.82 4180.99,-547.62"/>
<polygon fill="black" stroke="black" points="4180.25,-551.04 4190.7,-549.32 4181.46,-544.15 4180.25,-551.04"/>
<text text-anchor="middle" x="4072.97" y="-541.64" font-family="Times,serif" font-size="14.00">NOT KNOWN</text>
</g>
<!-- 44856 -->
<g id="node20" class="node">
<title>44856</title>
<ellipse fill="none" stroke="black" cx="4339.54" cy="-206.94" rx="206.94" ry="206.94"/>
<text text-anchor="middle" x="4339.54" y="-201.89" font-family="Times,serif" font-size="14.00">Is the radio thought to be in possession of prisoners?</text>
</g>
<!-- 44841&#45;&gt;44856 -->
<g id="edge32" class="edge">
<title>44841&#45;&gt;44856</title>
<path fill="none" stroke="black" d="M3981.97,-242.27C3998.6,-243.37 4015.34,-244.31 4031.35,-244.94 4068.32,-246.41 4077.73,-248.05 4114.6,-244.94 4117.82,-244.67 4121.07,-244.38 4124.33,-244.06"/>
<polygon fill="black" stroke="black" points="4124.4,-247.57 4133.99,-243.08 4123.69,-240.61 4124.4,-247.57"/>
<text text-anchor="middle" x="4072.97" y="-249.91" font-family="Times,serif" font-size="14.00">LOST</text>
</g>
<!-- 44841&#45;&gt;44856 -->
<g id="edge33" class="edge">
<title>44841&#45;&gt;44856</title>
<path fill="none" stroke="black" d="M3982.15,-223.47C4025.38,-221.47 4074.08,-219.21 4121.28,-217.02"/>
<polygon fill="black" stroke="black" points="4121.26,-220.52 4131.08,-216.56 4120.93,-213.53 4121.26,-220.52"/>
<text text-anchor="middle" x="4072.97" y="-224.38" font-family="Times,serif" font-size="14.00">MISLAID</text>
</g>
<!-- 44841&#45;&gt;44856 -->
<g id="edge34" class="edge">
<title>44841&#45;&gt;44856</title>
<path fill="none" stroke="black" d="M3979.9,-203.5C3997.16,-201 4014.63,-198.87 4031.35,-197.44 4060.47,-194.95 4091.19,-193.96 4121.49,-193.94"/>
<polygon fill="black" stroke="black" points="4121.11,-197.44 4131.12,-193.98 4121.13,-190.44 4121.11,-197.44"/>
<text text-anchor="middle" x="4072.97" y="-200.64" font-family="Times,serif" font-size="14.00">STOLEN</text>
</g>
<!-- 44712 -->
<g id="node17" class="node">
<title>44712</title>
<ellipse fill="none" stroke="black" cx="4725.35" cy="-226.94" rx="117.37" ry="117.37"/>
<text text-anchor="middle" x="4725.35" y="-221.89" font-family="Times,serif" font-size="14.00">Is the radio still operational?</text>
</g>
<!-- 44712&#45;&gt;44252 -->
<g id="edge22" class="edge">
<title>44712&#45;&gt;44252</title>
<path fill="none" stroke="black" d="M4842.15,-239.98C4848.43,-240.65 4854.66,-241.31 4860.73,-241.94 4871.43,-243.06 4882.45,-244.18 4893.56,-245.3"/>
<polygon fill="black" stroke="black" points="4892.89,-248.75 4903.19,-246.27 4893.59,-241.79 4892.89,-248.75"/>
<text text-anchor="middle" x="4873.48" y="-247.45" font-family="Times,serif" font-size="14.00">YES</text>
</g>
<!-- 44712&#45;&gt;44252 -->
<g id="edge23" class="edge">
<title>44712&#45;&gt;44252</title>
<path fill="none" stroke="black" d="M4842.88,-221.88C4848.92,-221.71 4854.89,-221.56 4860.73,-221.44 4872.06,-221.21 4874.96,-220.2 4886.23,-221.44 4889.73,-221.83 4893.25,-222.25 4896.8,-222.72"/>
<polygon fill="black" stroke="black" points="4896.32,-226.18 4906.71,-224.1 4897.29,-219.25 4896.32,-226.18"/>
<text text-anchor="middle" x="4873.48" y="-224.64" font-family="Times,serif" font-size="14.00">NO</text>
</g>
<!-- 44799&#45;&gt;44173 -->
<g id="edge24" class="edge">
<title>44799&#45;&gt;44173</title>
<path fill="none" stroke="black" d="M2332.65,-520.94C2349.18,-520.94 2365.83,-520.94 2382.21,-520.94"/>
<polygon fill="black" stroke="black" points="2381.99,-524.44 2391.99,-520.94 2381.99,-517.44 2381.99,-524.44"/>
<text text-anchor="middle" x="2363.19" y="-524.14" font-family="Times,serif" font-size="14.00">YES</text>
</g>
<!-- 44799&#45;&gt;44173 -->
<g id="edge25" class="edge">
<title>44799&#45;&gt;44173</title>
<path fill="none" stroke="black" d="M2331.7,-499.65C2346.67,-499.44 2361.54,-499.66 2375.94,-500.44 2378.45,-500.58 2380.97,-500.72 2383.51,-500.88"/>
<polygon fill="black" stroke="black" points="2383,-504.35 2393.21,-501.52 2383.46,-497.37 2383,-504.35"/>
<text text-anchor="middle" x="2363.19" y="-503.64" font-family="Times,serif" font-size="14.00">NO</text>
</g>
<!-- 44801&#45;&gt;44125 -->
<g id="edge26" class="edge">
<title>44801&#45;&gt;44125</title>
<path fill="none" stroke="black" d="M912.97,-497.88C929.87,-499.3 947.01,-500.75 964.06,-502.18"/>
<polygon fill="black" stroke="black" points="963.48,-505.65 973.73,-503 964.06,-498.67 963.48,-505.65"/>
<text text-anchor="middle" x="944.21" y="-504.14" font-family="Times,serif" font-size="14.00">YES</text>
</g>
<!-- 44801&#45;&gt;44125 -->
<g id="edge27" class="edge">
<title>44801&#45;&gt;44125</title>
<path fill="none" stroke="black" d="M913.67,-476.64C928.33,-477.27 942.88,-478.18 956.96,-479.44 960.38,-479.75 963.82,-480.08 967.29,-480.43"/>
<polygon fill="black" stroke="black" points="966.59,-483.88 976.91,-481.48 967.35,-476.92 966.59,-483.88"/>
<text text-anchor="middle" x="944.21" y="-482.64" font-family="Times,serif" font-size="14.00">NO</text>
</g>
<!-- 44856&#45;&gt;44712 -->
<g id="edge35" class="edge">
<title>44856&#45;&gt;44712</title>
<path fill="none" stroke="black" d="M4546.49,-217.67C4563.54,-218.56 4580.44,-219.44 4596.65,-220.29"/>
<polygon fill="black" stroke="black" points="4596.08,-223.76 4606.25,-220.79 4596.44,-216.77 4596.08,-223.76"/>
<text text-anchor="middle" x="4577.23" y="-223.1" font-family="Times,serif" font-size="14.00">YES</text>
</g>
<!-- 44856&#45;&gt;44712 -->
<g id="edge36" class="edge">
<title>44856&#45;&gt;44712</title>
<path fill="none" stroke="black" d="M4546.58,-195.45C4561.28,-196 4575.87,-196.96 4589.98,-198.44 4593.04,-198.76 4596.14,-199.12 4599.26,-199.52"/>
<polygon fill="black" stroke="black" points="4598.73,-202.98 4609.12,-200.89 4599.7,-196.05 4598.73,-202.98"/>
<text text-anchor="middle" x="4577.23" y="-201.64" font-family="Times,serif" font-size="14.00">NO</text>
</g>
</g>
</svg>
