<?xml version="1.0" encoding="UTF-8" standalone="no"?>
<!DOCTYPE svg PUBLIC "-//W3C//DTD SVG 1.1//EN"
 "http://www.w3.org/Graphics/SVG/1.1/DTD/svg11.dtd">
<!-- Generated by graphviz version 12.2.1 (20241206.2353)
 -->
<!-- Title: RADIO_COMPROMISE_1 Pages: 1 -->
<svg width="8758pt" height="924pt"
 viewBox="0.00 0.00 8758.45 923.98" xmlns="http://www.w3.org/2000/svg" xmlns:xlink="http://www.w3.org/1999/xlink">
<g id="graph0" class="graph" transform="scale(1 1) rotate(0) translate(4 919.98)">
<title>RADIO_COMPROMISE_1</title>
<polygon fill="white" stroke="none" points="-4,4 -4,-919.98 8754.45,-919.98 8754.45,4 -4,4"/>
<!-- START_NODE -->
<g id="node1" class="node">
<title>START_NODE</title>
</g>
<!-- 44802 -->
<g id="node2" class="node">
<title>44802</title>
<ellipse fill="none" stroke="black" cx="313.03" cy="-716.21" rx="199.78" ry="199.78"/>
<text text-anchor="start" x="174.65" y="-712.16" font-family="Times,serif" font-size="14.00"> </text>
<text text-anchor="start" x="178.4" y="-712.16" font-family="Times,serif" font-size="14.00" fill="royalblue">44802 </text>
<text text-anchor="start" x="215.9" y="-712.16" font-family="Times,serif" font-size="14.00"> Were the police informed of the incident? </text>
</g>
<!-- START_NODE&#45;&gt;44802 -->
<g id="edge1" class="edge">
<title>START_NODE&#45;&gt;44802</title>
<path fill="none" stroke="black" d="M53.96,-716.21C66.61,-716.21 83.09,-716.21 101.61,-716.21"/>
<polygon fill="black" stroke="black" points="101.55,-719.71 111.55,-716.21 101.55,-712.71 101.55,-719.71"/>
<text text-anchor="middle" x="83.62" y="-719.41" font-family="Times,serif" font-size="14.00">start</text>
</g>
<!-- 44125 -->
<g id="node4" class="node">
<title>44125</title>
<ellipse fill="none" stroke="black" cx="1450.34" cy="-620.21" rx="245.84" ry="245.84"/>
<text text-anchor="start" x="1278.22" y="-616.16" font-family="Times,serif" font-size="14.00"> </text>
<text text-anchor="start" x="1281.97" y="-616.16" font-family="Times,serif" font-size="14.00" fill="royalblue">44125 </text>
<text text-anchor="start" x="1319.47" y="-616.16" font-family="Times,serif" font-size="14.00"> Is the incident the subject of an internal investigation? </text>
</g>
<!-- 44802&#45;&gt;44125 -->
<g id="edge29" class="edge">
<title>44802&#45;&gt;44125</title>
<path fill="none" stroke="black" d="M498.01,-792.52C538.52,-806.08 581.7,-818.13 623.05,-825.21 829.47,-860.55 891.97,-879.41 1094.26,-825.21 1143.26,-812.08 1192.5,-790.37 1238.05,-765.88"/>
<polygon fill="black" stroke="black" points="1239.58,-769.03 1246.68,-761.17 1236.23,-762.88 1239.58,-769.03"/>
<text text-anchor="start" x="822.65" y="-863.35" font-family="Times,serif" font-size="14.00"> </text>
<text text-anchor="start" x="826.4" y="-863.35" font-family="Times,serif" font-size="14.00" fill="royalblue">181263 </text>
<text text-anchor="start" x="870.65" y="-863.35" font-family="Times,serif" font-size="14.00"> No </text>
</g>
<!-- 44801 -->
<g id="node19" class="node">
<title>44801</title>
<ellipse fill="none" stroke="black" cx="858.65" cy="-580.21" rx="235.6" ry="235.6"/>
<text text-anchor="start" x="694.03" y="-576.16" font-family="Times,serif" font-size="14.00"> </text>
<text text-anchor="start" x="697.78" y="-576.16" font-family="Times,serif" font-size="14.00" fill="royalblue">44801 </text>
<text text-anchor="start" x="735.28" y="-576.16" font-family="Times,serif" font-size="14.00"> Is the incident the subject of a police investigation? </text>
</g>
<!-- 44802&#45;&gt;44801 -->
<g id="edge28" class="edge">
<title>44802&#45;&gt;44801</title>
<path fill="none" stroke="black" d="M507.22,-667.88C543.33,-658.84 581.46,-649.3 618.76,-639.97"/>
<polygon fill="black" stroke="black" points="619.46,-643.41 628.31,-637.58 617.76,-636.62 619.46,-643.41"/>
<text text-anchor="start" x="530.8" y="-664.59" font-family="Times,serif" font-size="14.00"> </text>
<text text-anchor="start" x="534.55" y="-664.59" font-family="Times,serif" font-size="14.00" fill="royalblue">181262 </text>
<text text-anchor="start" x="578.8" y="-664.59" font-family="Times,serif" font-size="14.00"> Yes </text>
</g>
<!-- END_NODE -->
<g id="node3" class="node">
<title>END_NODE</title>
<ellipse fill="none" stroke="black" cx="8716.6" cy="-529.21" rx="29.86" ry="29.86"/>
<ellipse fill="none" stroke="black" cx="8716.6" cy="-529.21" rx="33.86" ry="33.86"/>
<text text-anchor="middle" x="8716.6" y="-524.16" font-family="Times,serif" font-size="14.00">END</text>
</g>
<!-- 44811 -->
<g id="node5" class="node">
<title>44811</title>
<ellipse fill="none" stroke="black" cx="2041.52" cy="-620.21" rx="235.09" ry="235.09"/>
<text text-anchor="start" x="1877.27" y="-616.16" font-family="Times,serif" font-size="14.00"> </text>
<text text-anchor="start" x="1881.02" y="-616.16" font-family="Times,serif" font-size="14.00" fill="royalblue">44811 </text>
<text text-anchor="start" x="1918.52" y="-616.16" font-family="Times,serif" font-size="14.00"> Is the incident subject to a governor&#39;s adjudication? </text>
</g>
<!-- 44125&#45;&gt;44811 -->
<g id="edge2" class="edge">
<title>44125&#45;&gt;44811</title>
<path fill="none" stroke="black" d="M1696.52,-620.21C1729.02,-620.21 1762.35,-620.21 1794.86,-620.21"/>
<polygon fill="black" stroke="black" points="1794.81,-623.71 1804.81,-620.21 1794.81,-616.71 1794.81,-623.71"/>
<text text-anchor="start" x="1714.18" y="-624.41" font-family="Times,serif" font-size="14.00"> </text>
<text text-anchor="start" x="1717.93" y="-624.41" font-family="Times,serif" font-size="14.00" fill="royalblue">178897 </text>
<text text-anchor="start" x="1762.18" y="-624.41" font-family="Times,serif" font-size="14.00"> Yes </text>
</g>
<!-- 44125&#45;&gt;44811 -->
<g id="edge3" class="edge">
<title>44125&#45;&gt;44811</title>
<path fill="none" stroke="black" d="M1695.7,-599.51C1726.9,-598.58 1758.41,-598.49 1788.43,-599.71 1790.83,-599.81 1793.24,-599.91 1795.67,-600.02"/>
<polygon fill="black" stroke="black" points="1795.41,-603.51 1805.57,-600.48 1795.74,-596.52 1795.41,-603.51"/>
<text text-anchor="start" x="1715.31" y="-603.91" font-family="Times,serif" font-size="14.00"> </text>
<text text-anchor="start" x="1719.06" y="-603.91" font-family="Times,serif" font-size="14.00" fill="royalblue">178896 </text>
<text text-anchor="start" x="1763.31" y="-603.91" font-family="Times,serif" font-size="14.00"> No </text>
</g>
<!-- 44799 -->
<g id="node18" class="node">
<title>44799</title>
<ellipse fill="none" stroke="black" cx="2622.98" cy="-620.21" rx="236.11" ry="236.11"/>
<text text-anchor="start" x="2457.98" y="-616.16" font-family="Times,serif" font-size="14.00"> </text>
<text text-anchor="start" x="2461.73" y="-616.16" font-family="Times,serif" font-size="14.00" fill="royalblue">44799 </text>
<text text-anchor="start" x="2499.23" y="-616.16" font-family="Times,serif" font-size="14.00"> Is any member of staff facing disciplinary charges? </text>
</g>
<!-- 44811&#45;&gt;44799 -->
<g id="edge30" class="edge">
<title>44811&#45;&gt;44799</title>
<path fill="none" stroke="black" d="M2276.96,-620.21C2309.25,-620.21 2342.49,-620.21 2375,-620.21"/>
<polygon fill="black" stroke="black" points="2374.96,-623.71 2384.96,-620.21 2374.96,-616.71 2374.96,-623.71"/>
<text text-anchor="start" x="2294.61" y="-624.41" font-family="Times,serif" font-size="14.00"> </text>
<text text-anchor="start" x="2298.36" y="-624.41" font-family="Times,serif" font-size="14.00" fill="royalblue">181284 </text>
<text text-anchor="start" x="2342.61" y="-624.41" font-family="Times,serif" font-size="14.00"> Yes </text>
</g>
<!-- 44811&#45;&gt;44799 -->
<g id="edge31" class="edge">
<title>44811&#45;&gt;44799</title>
<path fill="none" stroke="black" d="M2275.97,-600.55C2282.25,-600.24 2288.47,-599.96 2294.61,-599.71 2320.99,-598.64 2348.56,-598.63 2376.01,-599.33"/>
<polygon fill="black" stroke="black" points="2375.73,-602.82 2385.83,-599.61 2375.94,-595.82 2375.73,-602.82"/>
<text text-anchor="start" x="2295.74" y="-603.91" font-family="Times,serif" font-size="14.00"> </text>
<text text-anchor="start" x="2299.49" y="-603.91" font-family="Times,serif" font-size="14.00" fill="royalblue">181283 </text>
<text text-anchor="start" x="2343.74" y="-603.91" font-family="Times,serif" font-size="14.00"> No </text>
</g>
<!-- 44132 -->
<g id="node6" class="node">
<title>44132</title>
<ellipse fill="none" stroke="black" cx="7920.52" cy="-412.21" rx="156.78" ry="156.78"/>
<text text-anchor="start" x="7813.64" y="-408.16" font-family="Times,serif" font-size="14.00"> </text>
<text text-anchor="start" x="7817.39" y="-408.16" font-family="Times,serif" font-size="14.00" fill="royalblue">44132 </text>
<text text-anchor="start" x="7854.89" y="-408.16" font-family="Times,serif" font-size="14.00"> Has the radio been recovered? </text>
</g>
<!-- 44132&#45;&gt;END_NODE -->
<g id="edge5" class="edge">
<title>44132&#45;&gt;END_NODE</title>
<path fill="none" stroke="black" d="M8047.12,-505.47C8089.54,-531.72 8138.6,-556.77 8187.55,-570.21 8392.11,-626.37 8462.46,-625.07 8664.74,-561.21 8669.63,-559.67 8674.52,-557.54 8679.22,-555.1"/>
<polygon fill="black" stroke="black" points="8680.92,-558.16 8687.85,-550.15 8677.43,-552.09 8680.92,-558.16"/>
<text text-anchor="start" x="8300.15" y="-615" font-family="Times,serif" font-size="14.00"> </text>
<text text-anchor="start" x="8303.9" y="-615" font-family="Times,serif" font-size="14.00" fill="royalblue">178929 </text>
<text text-anchor="start" x="8348.15" y="-615" font-family="Times,serif" font-size="14.00"> No </text>
</g>
<!-- 45123 -->
<g id="node7" class="node">
<title>45123</title>
<ellipse fill="none" stroke="black" cx="8336.15" cy="-412.21" rx="148.59" ry="148.59"/>
<text text-anchor="start" x="8235.27" y="-408.16" font-family="Times,serif" font-size="14.00"> </text>
<text text-anchor="start" x="8239.02" y="-408.16" font-family="Times,serif" font-size="14.00" fill="royalblue">45123 </text>
<text text-anchor="start" x="8276.52" y="-408.16" font-family="Times,serif" font-size="14.00"> Where was the radio found? </text>
</g>
<!-- 44132&#45;&gt;45123 -->
<g id="edge4" class="edge">
<title>44132&#45;&gt;45123</title>
<path fill="none" stroke="black" d="M8077.6,-412.21C8109.75,-412.21 8143.63,-412.21 8175.89,-412.21"/>
<polygon fill="black" stroke="black" points="8175.71,-415.71 8185.71,-412.21 8175.71,-408.71 8175.71,-415.71"/>
<text text-anchor="start" x="8095.3" y="-416.41" font-family="Times,serif" font-size="14.00"> </text>
<text text-anchor="start" x="8099.05" y="-416.41" font-family="Times,serif" font-size="14.00" fill="royalblue">178928 </text>
<text text-anchor="start" x="8143.3" y="-416.41" font-family="Times,serif" font-size="14.00"> Yes </text>
</g>
<!-- 45123&#45;&gt;END_NODE -->
<g id="edge39" class="edge">
<title>45123&#45;&gt;END_NODE</title>
<path fill="none" stroke="black" d="M8452.45,-504.65C8468.6,-513.82 8485.57,-521.74 8502.74,-527.21 8558.87,-545.08 8627.62,-541.47 8671.51,-536.2"/>
<polygon fill="black" stroke="black" points="8671.96,-539.67 8681.43,-534.92 8671.06,-532.73 8671.96,-539.67"/>
<text text-anchor="start" x="8502.74" y="-544.7" font-family="Times,serif" font-size="14.00"> </text>
<text text-anchor="start" x="8506.49" y="-544.7" font-family="Times,serif" font-size="14.00" fill="royalblue">182450 </text>
<text text-anchor="start" x="8550.74" y="-544.7" font-family="Times,serif" font-size="14.00"> Prisoner possession </text>
</g>
<!-- 45123&#45;&gt;END_NODE -->
<g id="edge40" class="edge">
<title>45123&#45;&gt;END_NODE</title>
<path fill="none" stroke="black" d="M8470.52,-476.74C8481.28,-480.67 8492.1,-484.24 8502.74,-487.21 8572.59,-506.73 8594.82,-487.49 8664.74,-506.71 8668.23,-507.67 8671.79,-508.83 8675.33,-510.11"/>
<polygon fill="black" stroke="black" points="8673.76,-513.26 8684.34,-513.69 8676.34,-506.75 8673.76,-513.26"/>
<text text-anchor="start" x="8527.49" y="-510.91" font-family="Times,serif" font-size="14.00"> </text>
<text text-anchor="start" x="8531.24" y="-510.91" font-family="Times,serif" font-size="14.00" fill="royalblue">182446 </text>
<text text-anchor="start" x="8575.49" y="-510.91" font-family="Times,serif" font-size="14.00"> Concealed </text>
</g>
<!-- 45123&#45;&gt;END_NODE -->
<g id="edge41" class="edge">
<title>45123&#45;&gt;END_NODE</title>
<path fill="none" stroke="black" d="M8481.51,-443.51C8488.68,-444.81 8495.79,-446.06 8502.74,-447.21 8574.29,-459.05 8601.23,-431.7 8664.74,-466.71 8675.33,-472.54 8684.56,-481.56 8692.15,-490.94"/>
<polygon fill="black" stroke="black" points="8689.2,-492.85 8698,-498.75 8694.8,-488.65 8689.2,-492.85"/>
<text text-anchor="start" x="8528.62" y="-470.91" font-family="Times,serif" font-size="14.00"> </text>
<text text-anchor="start" x="8532.37" y="-470.91" font-family="Times,serif" font-size="14.00" fill="royalblue">182447 </text>
<text text-anchor="start" x="8576.62" y="-470.91" font-family="Times,serif" font-size="14.00"> Discarded </text>
</g>
<!-- 45123&#45;&gt;END_NODE -->
<g id="edge42" class="edge">
<title>45123&#45;&gt;END_NODE</title>
<path fill="none" stroke="black" d="M8484.93,-411.94C8564.35,-413 8649.18,-416.57 8664.74,-426.71 8685.01,-439.91 8697.51,-463.74 8705.04,-485.11"/>
<polygon fill="black" stroke="black" points="8701.68,-486.1 8708.07,-494.55 8708.34,-483.96 8701.68,-486.1"/>
<text text-anchor="start" x="8523.37" y="-430.91" font-family="Times,serif" font-size="14.00"> </text>
<text text-anchor="start" x="8527.12" y="-430.91" font-family="Times,serif" font-size="14.00" fill="royalblue">182448 </text>
<text text-anchor="start" x="8571.37" y="-430.91" font-family="Times,serif" font-size="14.00"> Mislaid/lost </text>
</g>
<!-- 45123&#45;&gt;END_NODE -->
<g id="edge43" class="edge">
<title>45123&#45;&gt;END_NODE</title>
<path fill="none" stroke="black" d="M8477.69,-366.17C8540.02,-354.59 8611.2,-354.42 8664.74,-391.71 8694.41,-412.37 8706.82,-452.44 8711.98,-484.02"/>
<polygon fill="black" stroke="black" points="8708.48,-484.31 8713.36,-493.72 8715.41,-483.32 8708.48,-484.31"/>
<text text-anchor="start" x="8540.62" y="-395.91" font-family="Times,serif" font-size="14.00"> </text>
<text text-anchor="start" x="8544.37" y="-395.91" font-family="Times,serif" font-size="14.00" fill="royalblue">182449 </text>
<text text-anchor="start" x="8588.62" y="-395.91" font-family="Times,serif" font-size="14.00"> Other </text>
</g>
<!-- 44173 -->
<g id="node8" class="node">
<title>44173</title>
<ellipse fill="none" stroke="black" cx="3174.24" cy="-620.21" rx="204.89" ry="204.89"/>
<text text-anchor="start" x="3032.11" y="-616.16" font-family="Times,serif" font-size="14.00"> </text>
<text text-anchor="start" x="3035.86" y="-616.16" font-family="Times,serif" font-size="14.00" fill="royalblue">44173 </text>
<text text-anchor="start" x="3073.36" y="-616.16" font-family="Times,serif" font-size="14.00"> Is there any media interest in this incident? </text>
</g>
<!-- 44916 -->
<g id="node9" class="node">
<title>44916</title>
<ellipse fill="none" stroke="black" cx="3722.42" cy="-620.21" rx="233.04" ry="233.04"/>
<text text-anchor="start" x="3559.67" y="-616.16" font-family="Times,serif" font-size="14.00"> </text>
<text text-anchor="start" x="3563.42" y="-616.16" font-family="Times,serif" font-size="14.00" fill="royalblue">44916 </text>
<text text-anchor="start" x="3600.92" y="-616.16" font-family="Times,serif" font-size="14.00"> Has the prison service press office been informed? </text>
</g>
<!-- 44173&#45;&gt;44916 -->
<g id="edge6" class="edge">
<title>44173&#45;&gt;44916</title>
<path fill="none" stroke="black" d="M3379.39,-620.21C3411.52,-620.21 3445,-620.21 3477.91,-620.21"/>
<polygon fill="black" stroke="black" points="3477.53,-623.71 3487.53,-620.21 3477.53,-616.71 3477.53,-623.71"/>
<text text-anchor="start" x="3397.13" y="-624.41" font-family="Times,serif" font-size="14.00"> </text>
<text text-anchor="start" x="3400.88" y="-624.41" font-family="Times,serif" font-size="14.00" fill="royalblue">179072 </text>
<text text-anchor="start" x="3445.13" y="-624.41" font-family="Times,serif" font-size="14.00"> Yes </text>
</g>
<!-- 44173&#45;&gt;44916 -->
<g id="edge7" class="edge">
<title>44173&#45;&gt;44916</title>
<path fill="none" stroke="black" d="M3378.63,-600.67C3384.87,-600.31 3391.04,-599.99 3397.13,-599.71 3423.5,-598.49 3451.07,-598.41 3478.52,-599.08"/>
<polygon fill="black" stroke="black" points="3478.25,-602.57 3488.34,-599.35 3478.44,-595.57 3478.25,-602.57"/>
<text text-anchor="start" x="3398.26" y="-603.91" font-family="Times,serif" font-size="14.00"> </text>
<text text-anchor="start" x="3402.01" y="-603.91" font-family="Times,serif" font-size="14.00" fill="royalblue">179071 </text>
<text text-anchor="start" x="3446.26" y="-603.91" font-family="Times,serif" font-size="14.00"> No </text>
</g>
<!-- 44453 -->
<g id="node14" class="node">
<title>44453</title>
<ellipse fill="none" stroke="black" cx="4233.76" cy="-620.21" rx="168.04" ry="168.04"/>
<text text-anchor="start" x="4118.64" y="-616.16" font-family="Times,serif" font-size="14.00"> </text>
<text text-anchor="start" x="4122.39" y="-616.16" font-family="Times,serif" font-size="14.00" fill="royalblue">44453 </text>
<text text-anchor="start" x="4159.89" y="-616.16" font-family="Times,serif" font-size="14.00"> What is the type of compromise? </text>
</g>
<!-- 44916&#45;&gt;44453 -->
<g id="edge37" class="edge">
<title>44916&#45;&gt;44453</title>
<path fill="none" stroke="black" d="M3955.73,-620.21C3988.83,-620.21 4022.43,-620.21 4054.28,-620.21"/>
<polygon fill="black" stroke="black" points="4053.95,-623.71 4063.95,-620.21 4053.95,-616.71 4053.95,-623.71"/>
<text text-anchor="start" x="3973.47" y="-624.41" font-family="Times,serif" font-size="14.00"> </text>
<text text-anchor="start" x="3977.22" y="-624.41" font-family="Times,serif" font-size="14.00" fill="royalblue">181638 </text>
<text text-anchor="start" x="4021.47" y="-624.41" font-family="Times,serif" font-size="14.00"> Yes </text>
</g>
<!-- 44916&#45;&gt;44453 -->
<g id="edge38" class="edge">
<title>44916&#45;&gt;44453</title>
<path fill="none" stroke="black" d="M3954.58,-598.9C3985.88,-597.97 4017.58,-598.04 4047.72,-599.71 4050.11,-599.84 4052.52,-599.98 4054.95,-600.13"/>
<polygon fill="black" stroke="black" points="4054.67,-603.62 4064.88,-600.8 4055.14,-596.64 4054.67,-603.62"/>
<text text-anchor="start" x="3974.59" y="-603.91" font-family="Times,serif" font-size="14.00"> </text>
<text text-anchor="start" x="3978.34" y="-603.91" font-family="Times,serif" font-size="14.00" fill="royalblue">181637 </text>
<text text-anchor="start" x="4022.59" y="-603.91" font-family="Times,serif" font-size="14.00"> No </text>
</g>
<!-- 44184 -->
<g id="node10" class="node">
<title>44184</title>
<ellipse fill="none" stroke="black" cx="5371.3" cy="-682.21" rx="183.91" ry="183.91"/>
<text text-anchor="start" x="5244.55" y="-678.16" font-family="Times,serif" font-size="14.00"> </text>
<text text-anchor="start" x="5248.3" y="-678.16" font-family="Times,serif" font-size="14.00" fill="royalblue">44184 </text>
<text text-anchor="start" x="5285.8" y="-678.16" font-family="Times,serif" font-size="14.00"> Is the interference/jam thought to be? </text>
</g>
<!-- 44184&#45;&gt;END_NODE -->
<g id="edge8" class="edge">
<title>44184&#45;&gt;END_NODE</title>
<path fill="none" stroke="black" d="M5555.42,-682.21C5649.8,-682.21 5766.77,-682.21 5871.4,-682.21 5871.4,-682.21 5871.4,-682.21 8337.15,-682.21 8483.2,-682.21 8547.12,-742.79 8664.74,-656.21 8690.72,-637.09 8703.44,-602.52 8709.67,-574.27"/>
<polygon fill="black" stroke="black" points="8713.1,-574.98 8711.6,-564.5 8706.23,-573.63 8713.1,-574.98"/>
<text text-anchor="start" x="7045.83" y="-686.41" font-family="Times,serif" font-size="14.00"> </text>
<text text-anchor="start" x="7049.58" y="-686.41" font-family="Times,serif" font-size="14.00" fill="royalblue">179097 </text>
<text text-anchor="start" x="7093.83" y="-686.41" font-family="Times,serif" font-size="14.00"> Malicious </text>
</g>
<!-- 44184&#45;&gt;END_NODE -->
<g id="edge9" class="edge">
<title>44184&#45;&gt;END_NODE</title>
<path fill="none" stroke="black" d="M5554.26,-660.6C5648.72,-651.16 5766.11,-642.21 5871.4,-642.21 5871.4,-642.21 5871.4,-642.21 8337.15,-642.21 8484.17,-642.21 8539.3,-672.9 8664.74,-596.21 8676.02,-589.32 8685.68,-578.92 8693.45,-568.37"/>
<polygon fill="black" stroke="black" points="8696.16,-570.61 8698.94,-560.38 8690.39,-566.64 8696.16,-570.61"/>
<text text-anchor="start" x="7036.08" y="-646.41" font-family="Times,serif" font-size="14.00"> </text>
<text text-anchor="start" x="7039.83" y="-646.41" font-family="Times,serif" font-size="14.00" fill="royalblue">179098 </text>
<text text-anchor="start" x="7084.08" y="-646.41" font-family="Times,serif" font-size="14.00"> Unintentional </text>
</g>
<!-- 44252 -->
<g id="node11" class="node">
<title>44252</title>
<ellipse fill="none" stroke="black" cx="6331.02" cy="-294.21" rx="197.73" ry="197.73"/>
<text text-anchor="start" x="6194.15" y="-290.16" font-family="Times,serif" font-size="14.00"> </text>
<text text-anchor="start" x="6197.9" y="-290.16" font-family="Times,serif" font-size="14.00" fill="royalblue">44252 </text>
<text text-anchor="start" x="6235.4" y="-290.16" font-family="Times,serif" font-size="14.00"> Has the radio been isolated from the net? </text>
</g>
<!-- 44282 -->
<g id="node12" class="node">
<title>44282</title>
<ellipse fill="none" stroke="black" cx="6828.54" cy="-333.21" rx="189.54" ry="189.54"/>
<text text-anchor="start" x="6697.67" y="-329.16" font-family="Times,serif" font-size="14.00"> </text>
<text text-anchor="start" x="6701.42" y="-329.16" font-family="Times,serif" font-size="14.00" fill="royalblue">44282 </text>
<text text-anchor="start" x="6738.92" y="-329.16" font-family="Times,serif" font-size="14.00"> Has the local frequency been changed? </text>
</g>
<!-- 44252&#45;&gt;44282 -->
<g id="edge10" class="edge">
<title>44252&#45;&gt;44282</title>
<path fill="none" stroke="black" d="M6528.61,-309.78C6534.73,-310.26 6540.79,-310.74 6546.75,-311.21 6572.99,-313.28 6600.61,-315.45 6627.87,-317.58"/>
<polygon fill="black" stroke="black" points="6627.37,-321.06 6637.61,-318.35 6627.91,-314.08 6627.37,-321.06"/>
<text text-anchor="start" x="6546.75" y="-320.86" font-family="Times,serif" font-size="14.00"> </text>
<text text-anchor="start" x="6550.5" y="-320.86" font-family="Times,serif" font-size="14.00" fill="royalblue">179328 </text>
<text text-anchor="start" x="6594.75" y="-320.86" font-family="Times,serif" font-size="14.00"> Yes </text>
</g>
<!-- 44252&#45;&gt;44282 -->
<g id="edge11" class="edge">
<title>44252&#45;&gt;44282</title>
<path fill="none" stroke="black" d="M6528.93,-285.84C6559.8,-286.26 6591.3,-287.68 6621,-290.71 6624.48,-291.06 6628,-291.45 6631.53,-291.87"/>
<polygon fill="black" stroke="black" points="6631.02,-295.33 6641.38,-293.11 6631.89,-288.39 6631.02,-295.33"/>
<text text-anchor="start" x="6547.88" y="-294.91" font-family="Times,serif" font-size="14.00"> </text>
<text text-anchor="start" x="6551.63" y="-294.91" font-family="Times,serif" font-size="14.00" fill="royalblue">179327 </text>
<text text-anchor="start" x="6595.88" y="-294.91" font-family="Times,serif" font-size="14.00"> No </text>
</g>
<!-- 44618 -->
<g id="node13" class="node">
<title>44618</title>
<ellipse fill="none" stroke="black" cx="7391.28" cy="-373.21" rx="207.45" ry="207.45"/>
<text text-anchor="start" x="7247.28" y="-369.16" font-family="Times,serif" font-size="14.00"> </text>
<text text-anchor="start" x="7251.03" y="-369.16" font-family="Times,serif" font-size="14.00" fill="royalblue">44618 </text>
<text text-anchor="start" x="7288.53" y="-369.16" font-family="Times,serif" font-size="14.00"> What action was taken to recover the radio? </text>
</g>
<!-- 44282&#45;&gt;44618 -->
<g id="edge12" class="edge">
<title>44282&#45;&gt;44618</title>
<path fill="none" stroke="black" d="M7017.79,-349.81C7023.96,-350.29 7030.07,-350.76 7036.08,-351.21 7080.12,-354.49 7127.26,-357.67 7172.32,-360.53"/>
<polygon fill="black" stroke="black" points="7172.02,-364.02 7182.22,-361.15 7172.46,-357.03 7172.02,-364.02"/>
<text text-anchor="start" x="7063.83" y="-364.11" font-family="Times,serif" font-size="14.00"> </text>
<text text-anchor="start" x="7067.58" y="-364.11" font-family="Times,serif" font-size="14.00" fill="royalblue">179403 </text>
<text text-anchor="start" x="7111.83" y="-364.11" font-family="Times,serif" font-size="14.00"> Yes </text>
</g>
<!-- 44282&#45;&gt;44618 -->
<g id="edge13" class="edge">
<title>44282&#45;&gt;44618</title>
<path fill="none" stroke="black" d="M7018.36,-330.83C7024.33,-330.78 7030.25,-330.74 7036.08,-330.71 7093.75,-330.36 7108.42,-325.32 7165.83,-330.71 7169.27,-331.03 7172.74,-331.38 7176.23,-331.76"/>
<polygon fill="black" stroke="black" points="7175.6,-335.21 7185.93,-332.87 7176.39,-328.25 7175.6,-335.21"/>
<text text-anchor="start" x="7064.95" y="-334.91" font-family="Times,serif" font-size="14.00"> </text>
<text text-anchor="start" x="7068.7" y="-334.91" font-family="Times,serif" font-size="14.00" fill="royalblue">179402 </text>
<text text-anchor="start" x="7112.95" y="-334.91" font-family="Times,serif" font-size="14.00"> No </text>
</g>
<!-- 44618&#45;&gt;44132 -->
<g id="edge17" class="edge">
<title>44618&#45;&gt;44132</title>
<path fill="none" stroke="black" d="M7598.37,-389.82C7604.56,-390.29 7610.69,-390.76 7616.74,-391.21 7660.72,-394.5 7708.32,-397.88 7752.46,-400.95"/>
<polygon fill="black" stroke="black" points="7752.18,-404.43 7762.4,-401.63 7752.66,-397.45 7752.18,-404.43"/>
<text text-anchor="start" x="7623.49" y="-404.38" font-family="Times,serif" font-size="14.00"> </text>
<text text-anchor="start" x="7627.24" y="-404.38" font-family="Times,serif" font-size="14.00" fill="royalblue">180653 </text>
<text text-anchor="start" x="7671.49" y="-404.38" font-family="Times,serif" font-size="14.00"> Full search </text>
</g>
<!-- 44618&#45;&gt;44132 -->
<g id="edge18" class="edge">
<title>44618&#45;&gt;44132</title>
<path fill="none" stroke="black" d="M7598.81,-363.15C7647.15,-363.17 7698.35,-365.13 7745.74,-370.71 7749.43,-371.14 7753.16,-371.63 7756.92,-372.16"/>
<polygon fill="black" stroke="black" points="7756.34,-375.61 7766.75,-373.65 7757.39,-368.69 7756.34,-375.61"/>
<text text-anchor="start" x="7616.74" y="-374.91" font-family="Times,serif" font-size="14.00"> </text>
<text text-anchor="start" x="7620.49" y="-374.91" font-family="Times,serif" font-size="14.00" fill="royalblue">180654 </text>
<text text-anchor="start" x="7664.74" y="-374.91" font-family="Times,serif" font-size="14.00"> Partial search </text>
</g>
<!-- 44648 -->
<g id="node15" class="node">
<title>44648</title>
<ellipse fill="none" stroke="black" cx="4773.95" cy="-660.21" rx="204.89" ry="204.89"/>
<text text-anchor="start" x="4631.82" y="-656.16" font-family="Times,serif" font-size="14.00"> </text>
<text text-anchor="start" x="4635.57" y="-656.16" font-family="Times,serif" font-size="14.00" fill="royalblue">44648 </text>
<text text-anchor="start" x="4673.07" y="-656.16" font-family="Times,serif" font-size="14.00"> Describe the source of the interference/jam </text>
</g>
<!-- 44453&#45;&gt;44648 -->
<g id="edge14" class="edge">
<title>44453&#45;&gt;44648</title>
<path fill="none" stroke="black" d="M4401.18,-636.67C4407.47,-637.21 4413.69,-637.72 4419.8,-638.21 4464.49,-641.77 4512.4,-645.09 4558.07,-648.02"/>
<polygon fill="black" stroke="black" points="4557.6,-651.5 4567.8,-648.64 4558.05,-644.51 4557.6,-651.5"/>
<text text-anchor="start" x="4425.05" y="-651.44" font-family="Times,serif" font-size="14.00"> </text>
<text text-anchor="start" x="4428.8" y="-651.44" font-family="Times,serif" font-size="14.00" fill="royalblue">179991 </text>
<text text-anchor="start" x="4473.05" y="-651.44" font-family="Times,serif" font-size="14.00"> Interference </text>
</g>
<!-- 44453&#45;&gt;44648 -->
<g id="edge15" class="edge">
<title>44453&#45;&gt;44648</title>
<path fill="none" stroke="black" d="M4402.19,-617.85C4408.14,-617.79 4414.02,-617.75 4419.8,-617.71 4478.14,-617.31 4492.98,-612.2 4551.05,-617.71 4554.51,-618.04 4557.98,-618.39 4561.48,-618.77"/>
<polygon fill="black" stroke="black" points="4560.88,-622.23 4571.21,-619.9 4561.68,-615.27 4560.88,-622.23"/>
<text text-anchor="start" x="4435.55" y="-621.91" font-family="Times,serif" font-size="14.00"> </text>
<text text-anchor="start" x="4439.3" y="-621.91" font-family="Times,serif" font-size="14.00" fill="royalblue">179992 </text>
<text text-anchor="start" x="4483.55" y="-621.91" font-family="Times,serif" font-size="14.00"> Net jam </text>
</g>
<!-- 44841 -->
<g id="node16" class="node">
<title>44841</title>
<ellipse fill="none" stroke="black" cx="4773.95" cy="-262.21" rx="173.67" ry="173.67"/>
<text text-anchor="start" x="4654.7" y="-258.16" font-family="Times,serif" font-size="14.00"> </text>
<text text-anchor="start" x="4658.45" y="-258.16" font-family="Times,serif" font-size="14.00" fill="royalblue">44841 </text>
<text text-anchor="start" x="4695.95" y="-258.16" font-family="Times,serif" font-size="14.00"> Is the missing radio thought to be? </text>
</g>
<!-- 44453&#45;&gt;44841 -->
<g id="edge16" class="edge">
<title>44453&#45;&gt;44841</title>
<path fill="none" stroke="black" d="M4374.06,-527.55C4449.33,-477.48 4542.41,-415.56 4619.73,-364.13"/>
<polygon fill="black" stroke="black" points="4621.43,-367.2 4627.81,-358.75 4617.55,-361.37 4621.43,-367.2"/>
<text text-anchor="start" x="4419.8" y="-498.39" font-family="Times,serif" font-size="14.00"> </text>
<text text-anchor="start" x="4423.55" y="-498.39" font-family="Times,serif" font-size="14.00" fill="royalblue">179993 </text>
<text text-anchor="start" x="4467.8" y="-498.39" font-family="Times,serif" font-size="14.00"> Missing radio </text>
</g>
<!-- 44648&#45;&gt;44184 -->
<g id="edge19" class="edge">
<title>44648&#45;&gt;44184</title>
<path fill="none" stroke="black" d="M4978.35,-678.25C4984.58,-678.6 4990.76,-678.92 4996.84,-679.21 5054.83,-681.92 5117.94,-683.1 5175.49,-683.49"/>
<polygon fill="black" stroke="black" points="5175.39,-686.99 5185.41,-683.55 5175.43,-679.99 5175.39,-686.99"/>
<text text-anchor="start" x="5006.22" y="-686.89" font-family="Times,serif" font-size="14.00"> </text>
<text text-anchor="start" x="5009.97" y="-686.89" font-family="Times,serif" font-size="14.00" fill="royalblue">180744 </text>
<text text-anchor="start" x="5054.22" y="-686.89" font-family="Times,serif" font-size="14.00"> Internal </text>
</g>
<!-- 44648&#45;&gt;44184 -->
<g id="edge20" class="edge">
<title>44648&#45;&gt;44184</title>
<path fill="none" stroke="black" d="M4979.28,-658.78C4985.2,-658.75 4991.06,-658.73 4996.84,-658.71 5048.51,-658.53 5061.48,-656.36 5113.09,-658.71 5133.79,-659.65 5155.39,-661.02 5176.89,-662.63"/>
<polygon fill="black" stroke="black" points="5176.38,-666.1 5186.62,-663.38 5176.91,-659.12 5176.38,-666.1"/>
<text text-anchor="start" x="5004.34" y="-662.91" font-family="Times,serif" font-size="14.00"> </text>
<text text-anchor="start" x="5008.09" y="-662.91" font-family="Times,serif" font-size="14.00" fill="royalblue">180743 </text>
<text text-anchor="start" x="5052.34" y="-662.91" font-family="Times,serif" font-size="14.00"> External </text>
</g>
<!-- 44648&#45;&gt;44184 -->
<g id="edge21" class="edge">
<title>44648&#45;&gt;44184</title>
<path fill="none" stroke="black" d="M4978.03,-637.83C4984.37,-637.41 4990.65,-637.04 4996.84,-636.71 5048.44,-633.98 5061.62,-632.19 5113.09,-636.71 5134.64,-638.6 5157.08,-641.37 5179.34,-644.61"/>
<polygon fill="black" stroke="black" points="5178.7,-648.06 5189.11,-646.08 5179.73,-641.13 5178.7,-648.06"/>
<text text-anchor="start" x="4996.84" y="-640.91" font-family="Times,serif" font-size="14.00"> </text>
<text text-anchor="start" x="5000.59" y="-640.91" font-family="Times,serif" font-size="14.00" fill="royalblue">180745 </text>
<text text-anchor="start" x="5044.84" y="-640.91" font-family="Times,serif" font-size="14.00"> Not known </text>
</g>
<!-- 44856 -->
<g id="node20" class="node">
<title>44856</title>
<ellipse fill="none" stroke="black" cx="5371.3" cy="-240.21" rx="240.21" ry="240.21"/>
<text text-anchor="start" x="5203.3" y="-236.16" font-family="Times,serif" font-size="14.00"> </text>
<text text-anchor="start" x="5207.05" y="-236.16" font-family="Times,serif" font-size="14.00" fill="royalblue">44856 </text>
<text text-anchor="start" x="5244.55" y="-236.16" font-family="Times,serif" font-size="14.00"> Is the radio thought to be in possession of prisoners? </text>
</g>
<!-- 44841&#45;&gt;44856 -->
<g id="edge32" class="edge">
<title>44841&#45;&gt;44856</title>
<path fill="none" stroke="black" d="M4947.5,-275.87C4964.17,-276.82 4980.82,-277.63 4996.84,-278.21 5048.48,-280.07 5061.56,-281.99 5113.09,-278.21 5116.15,-277.98 5119.23,-277.74 5122.32,-277.49"/>
<polygon fill="black" stroke="black" points="5122.42,-281 5132.08,-276.64 5121.82,-274.02 5122.42,-281"/>
<text text-anchor="start" x="5015.22" y="-284.58" font-family="Times,serif" font-size="14.00"> </text>
<text text-anchor="start" x="5018.97" y="-284.58" font-family="Times,serif" font-size="14.00" fill="royalblue">181355 </text>
<text text-anchor="start" x="5063.22" y="-284.58" font-family="Times,serif" font-size="14.00"> Lost </text>
</g>
<!-- 44841&#45;&gt;44856 -->
<g id="edge33" class="edge">
<title>44841&#45;&gt;44856</title>
<path fill="none" stroke="black" d="M4947.95,-255.82C5001.65,-253.83 5061.96,-251.6 5119.83,-249.46"/>
<polygon fill="black" stroke="black" points="5119.61,-252.98 5129.47,-249.11 5119.35,-245.98 5119.61,-252.98"/>
<text text-anchor="start" x="5006.22" y="-258.03" font-family="Times,serif" font-size="14.00"> </text>
<text text-anchor="start" x="5009.97" y="-258.03" font-family="Times,serif" font-size="14.00" fill="royalblue">181356 </text>
<text text-anchor="start" x="5054.22" y="-258.03" font-family="Times,serif" font-size="14.00"> Mislaid </text>
</g>
<!-- 44841&#45;&gt;44856 -->
<g id="edge34" class="edge">
<title>44841&#45;&gt;44856</title>
<path fill="none" stroke="black" d="M4945.79,-234.64C4963,-232.63 4980.24,-230.92 4996.84,-229.71 5036.54,-226.82 5078.68,-225.91 5119.79,-226.21"/>
<polygon fill="black" stroke="black" points="5119.52,-229.71 5129.55,-226.31 5119.59,-222.71 5119.52,-229.71"/>
<text text-anchor="start" x="5009.97" y="-233.91" font-family="Times,serif" font-size="14.00"> </text>
<text text-anchor="start" x="5013.72" y="-233.91" font-family="Times,serif" font-size="14.00" fill="royalblue">181357 </text>
<text text-anchor="start" x="5057.97" y="-233.91" font-family="Times,serif" font-size="14.00"> Stolen </text>
</g>
<!-- 44712 -->
<g id="node17" class="node">
<title>44712</title>
<ellipse fill="none" stroke="black" cx="5872.4" cy="-259.21" rx="150.64" ry="150.64"/>
<text text-anchor="start" x="5770.03" y="-255.16" font-family="Times,serif" font-size="14.00"> </text>
<text text-anchor="start" x="5773.78" y="-255.16" font-family="Times,serif" font-size="14.00" fill="royalblue">44712 </text>
<text text-anchor="start" x="5811.28" y="-255.16" font-family="Times,serif" font-size="14.00"> Is the radio still operational? </text>
</g>
<!-- 44712&#45;&gt;44252 -->
<g id="edge22" class="edge">
<title>44712&#45;&gt;44252</title>
<path fill="none" stroke="black" d="M6022.83,-272.73C6028.98,-273.24 6035.07,-273.73 6041.04,-274.21 6067.26,-276.29 6094.82,-278.35 6122.09,-280.32"/>
<polygon fill="black" stroke="black" points="6121.61,-283.8 6131.83,-281.02 6122.11,-276.81 6121.61,-283.8"/>
<text text-anchor="start" x="6041.04" y="-283.82" font-family="Times,serif" font-size="14.00"> </text>
<text text-anchor="start" x="6044.79" y="-283.82" font-family="Times,serif" font-size="14.00" fill="royalblue">180985 </text>
<text text-anchor="start" x="6089.04" y="-283.82" font-family="Times,serif" font-size="14.00"> Yes </text>
</g>
<!-- 44712&#45;&gt;44252 -->
<g id="edge23" class="edge">
<title>44712&#45;&gt;44252</title>
<path fill="none" stroke="black" d="M6023.29,-254.05C6029.28,-253.92 6035.22,-253.8 6041.04,-253.71 6074.04,-253.17 6082.44,-250.64 6115.29,-253.71 6118.57,-254.01 6121.87,-254.35 6125.19,-254.7"/>
<polygon fill="black" stroke="black" points="6124.7,-258.17 6135.03,-255.83 6125.5,-251.21 6124.7,-258.17"/>
<text text-anchor="start" x="6042.17" y="-257.91" font-family="Times,serif" font-size="14.00"> </text>
<text text-anchor="start" x="6045.92" y="-257.91" font-family="Times,serif" font-size="14.00" fill="royalblue">180984 </text>
<text text-anchor="start" x="6090.17" y="-257.91" font-family="Times,serif" font-size="14.00"> No </text>
</g>
<!-- 44799&#45;&gt;44173 -->
<g id="edge24" class="edge">
<title>44799&#45;&gt;44173</title>
<path fill="none" stroke="black" d="M2859.3,-620.21C2891.99,-620.21 2925.44,-620.21 2957.74,-620.21"/>
<polygon fill="black" stroke="black" points="2957.6,-623.71 2967.6,-620.21 2957.6,-616.71 2957.6,-623.71"/>
<text text-anchor="start" x="2877.09" y="-624.41" font-family="Times,serif" font-size="14.00"> </text>
<text text-anchor="start" x="2880.84" y="-624.41" font-family="Times,serif" font-size="14.00" fill="royalblue">181256 </text>
<text text-anchor="start" x="2925.09" y="-624.41" font-family="Times,serif" font-size="14.00"> Yes </text>
</g>
<!-- 44799&#45;&gt;44173 -->
<g id="edge25" class="edge">
<title>44799&#45;&gt;44173</title>
<path fill="none" stroke="black" d="M2858.63,-599.35C2889.8,-598.38 2921.34,-598.33 2951.34,-599.71 2953.72,-599.82 2956.11,-599.93 2958.52,-600.06"/>
<polygon fill="black" stroke="black" points="2958.15,-603.54 2968.33,-600.59 2958.54,-596.55 2958.15,-603.54"/>
<text text-anchor="start" x="2878.22" y="-603.91" font-family="Times,serif" font-size="14.00"> </text>
<text text-anchor="start" x="2881.97" y="-603.91" font-family="Times,serif" font-size="14.00" fill="royalblue">181255 </text>
<text text-anchor="start" x="2926.22" y="-603.91" font-family="Times,serif" font-size="14.00"> No </text>
</g>
<!-- 44801&#45;&gt;44125 -->
<g id="edge26" class="edge">
<title>44801&#45;&gt;44125</title>
<path fill="none" stroke="black" d="M1093.95,-596.95C1100.11,-597.38 1106.22,-597.8 1112.26,-598.21 1138.61,-600.01 1166.13,-601.85 1193.58,-603.68"/>
<polygon fill="black" stroke="black" points="1193.2,-607.16 1203.41,-604.33 1193.67,-600.17 1193.2,-607.16"/>
<text text-anchor="start" x="1112.26" y="-607.38" font-family="Times,serif" font-size="14.00"> </text>
<text text-anchor="start" x="1116.01" y="-607.38" font-family="Times,serif" font-size="14.00" fill="royalblue">181261 </text>
<text text-anchor="start" x="1160.26" y="-607.38" font-family="Times,serif" font-size="14.00"> Yes </text>
</g>
<!-- 44801&#45;&gt;44125 -->
<g id="edge27" class="edge">
<title>44801&#45;&gt;44125</title>
<path fill="none" stroke="black" d="M1094.62,-577.81C1100.56,-577.77 1106.45,-577.74 1112.26,-577.71 1145.26,-577.55 1153.61,-575.07 1186.51,-577.71 1189.75,-577.97 1193.01,-578.25 1196.28,-578.54"/>
<polygon fill="black" stroke="black" points="1195.69,-582 1205.98,-579.46 1196.35,-575.03 1195.69,-582"/>
<text text-anchor="start" x="1113.38" y="-581.91" font-family="Times,serif" font-size="14.00"> </text>
<text text-anchor="start" x="1117.13" y="-581.91" font-family="Times,serif" font-size="14.00" fill="royalblue">181260 </text>
<text text-anchor="start" x="1161.38" y="-581.91" font-family="Times,serif" font-size="14.00"> No </text>
</g>
<!-- 44856&#45;&gt;44712 -->
<g id="edge35" class="edge">
<title>44856&#45;&gt;44712</title>
<path fill="none" stroke="black" d="M5611.62,-249.32C5644.93,-250.59 5678.48,-251.86 5709.9,-253.06"/>
<polygon fill="black" stroke="black" points="5709.74,-256.56 5719.86,-253.44 5710,-249.56 5709.74,-256.56"/>
<text text-anchor="start" x="5629.51" y="-256.72" font-family="Times,serif" font-size="14.00"> </text>
<text text-anchor="start" x="5633.26" y="-256.72" font-family="Times,serif" font-size="14.00" fill="royalblue">181415 </text>
<text text-anchor="start" x="5677.51" y="-256.72" font-family="Times,serif" font-size="14.00"> Yes </text>
</g>
<!-- 44856&#45;&gt;44712 -->
<g id="edge36" class="edge">
<title>44856&#45;&gt;44712</title>
<path fill="none" stroke="black" d="M5611.47,-225.87C5642.55,-225.99 5673.93,-227.1 5703.76,-229.71 5706.66,-229.96 5709.58,-230.24 5712.52,-230.54"/>
<polygon fill="black" stroke="black" points="5712.12,-234.01 5722.44,-231.63 5712.89,-227.06 5712.12,-234.01"/>
<text text-anchor="start" x="5630.63" y="-233.91" font-family="Times,serif" font-size="14.00"> </text>
<text text-anchor="start" x="5634.38" y="-233.91" font-family="Times,serif" font-size="14.00" fill="royalblue">181414 </text>
<text text-anchor="start" x="5678.63" y="-233.91" font-family="Times,serif" font-size="14.00"> No </text>
</g>
</g>
</svg>
