<?xml version="1.0" encoding="UTF-8" standalone="no"?>
<!DOCTYPE svg PUBLIC "-//W3C//DTD SVG 1.1//EN"
 "http://www.w3.org/Graphics/SVG/1.1/DTD/svg11.dtd">
<!-- Generated by graphviz version 12.1.1 (20240910.0053)
 -->
<!-- Title: RELEASED_IN_ERROR Pages: 1 -->
<svg width="8850pt" height="3547pt"
 viewBox="0.00 0.00 8849.65 3546.75" xmlns="http://www.w3.org/2000/svg" xmlns:xlink="http://www.w3.org/1999/xlink">
<g id="graph0" class="graph" transform="scale(1 1) rotate(0) translate(4 3542.75)">
<title>RELEASED_IN_ERROR</title>
<polygon fill="white" stroke="none" points="-4,4 -4,-3542.75 8845.65,-3542.75 8845.65,4 -4,4"/>
<!-- START_NODE -->
<g id="node1" class="node">
<title>START_NODE</title>
</g>
<!-- 45179 -->
<g id="node2" class="node">
<title>45179</title>
<ellipse fill="none" stroke="black" cx="238.81" cy="-3284.37" rx="125.56" ry="125.56"/>
<text text-anchor="middle" x="238.81" y="-3279.32" font-family="Times,serif" font-size="14.00">How was this person released?</text>
</g>
<!-- START_NODE&#45;&gt;45179 -->
<g id="edge1" class="edge">
<title>START_NODE&#45;&gt;45179</title>
<path fill="none" stroke="black" d="M53.73,-3284.37C66.69,-3284.37 83.5,-3284.37 101.69,-3284.37"/>
<polygon fill="black" stroke="black" points="101.66,-3287.87 111.66,-3284.37 101.66,-3280.87 101.66,-3287.87"/>
<text text-anchor="middle" x="83.62" y="-3287.57" font-family="Times,serif" font-size="14.00">start</text>
</g>
<!-- END_NODE -->
<g id="node3" class="node">
<title>END_NODE</title>
<ellipse fill="none" stroke="black" cx="8807.8" cy="-2043.37" rx="29.86" ry="29.86"/>
<ellipse fill="none" stroke="black" cx="8807.8" cy="-2043.37" rx="33.86" ry="33.86"/>
<text text-anchor="middle" x="8807.8" y="-2038.32" font-family="Times,serif" font-size="14.00">END</text>
</g>
<!-- 45179&#45;&gt;END_NODE -->
<g id="edge2" class="edge">
<title>45179&#45;&gt;END_NODE</title>
<path fill="none" stroke="#dddddd" d="M296.2,-3396.31C318.46,-3429.21 347.22,-3461.64 382.38,-3481.37 510.34,-3553.22 564.79,-3507.37 711.53,-3507.37 711.53,-3507.37 711.53,-3507.37 8411.06,-3507.37 8564.77,-3507.37 8649.44,-3592.22 8755.94,-3481.37 8805.3,-3430 8807.07,-2328.07 8806.87,-2088.91"/>
<polygon fill="#dddddd" stroke="#dddddd" points="8810.37,-2089.05 8806.86,-2079.06 8803.37,-2089.06 8810.37,-2089.05"/>
<text text-anchor="middle" x="4417.41" y="-3510.57" font-family="Times,serif" font-size="14.00">Bail</text>
</g>
<!-- 45179&#45;&gt;END_NODE -->
<g id="edge3" class="edge">
<title>45179&#45;&gt;END_NODE</title>
<path fill="none" stroke="#dddddd" d="M311.82,-3386.56C332.1,-3408.2 355.94,-3428.4 382.38,-3441.37 514.12,-3506.02 564.79,-3467.37 711.53,-3467.37 711.53,-3467.37 711.53,-3467.37 8411.06,-3467.37 8487.92,-3467.37 8702.66,-3496.77 8755.94,-3441.37 8803.88,-3391.54 8806.77,-2323.62 8806.83,-2088.78"/>
<polygon fill="#dddddd" stroke="#dddddd" points="8810.33,-2089.12 8806.83,-2079.12 8803.33,-2089.12 8810.33,-2089.12"/>
<text text-anchor="middle" x="4417.41" y="-3470.57" font-family="Times,serif" font-size="14.00">Final discharge/end of sentence</text>
</g>
<!-- 45179&#45;&gt;END_NODE -->
<g id="edge4" class="edge">
<title>45179&#45;&gt;END_NODE</title>
<path fill="none" stroke="#dddddd" d="M329.62,-3371.33C346.11,-3383.27 363.96,-3393.96 382.38,-3401.37 518.49,-3456.22 564.79,-3427.37 711.53,-3427.37 711.53,-3427.37 711.53,-3427.37 8411.06,-3427.37 8487.92,-3427.37 8702.63,-3456.74 8755.94,-3401.37 8802.44,-3353.09 8806.46,-2319.99 8806.78,-2088.94"/>
<polygon fill="#dddddd" stroke="#dddddd" points="8810.27,-2089.14 8806.79,-2079.14 8803.27,-2089.13 8810.27,-2089.14"/>
<text text-anchor="middle" x="4417.41" y="-3430.57" font-family="Times,serif" font-size="14.00">Police production</text>
</g>
<!-- 45179&#45;&gt;END_NODE -->
<g id="edge5" class="edge">
<title>45179&#45;&gt;END_NODE</title>
<path fill="none" stroke="#dddddd" d="M347.17,-3348.3C358.78,-3353.4 370.64,-3357.91 382.38,-3361.37 523.12,-3402.92 564.79,-3387.37 711.53,-3387.37 711.53,-3387.37 711.53,-3387.37 8411.06,-3387.37 8487.92,-3387.37 8702.6,-3416.71 8755.94,-3361.37 8801,-3314.63 8806.14,-2316.09 8806.72,-2089.03"/>
<polygon fill="#dddddd" stroke="#dddddd" points="8810.22,-2089.12 8806.74,-2079.11 8803.22,-2089.1 8810.22,-2089.12"/>
<text text-anchor="middle" x="4417.41" y="-3390.57" font-family="Times,serif" font-size="14.00">Court production/PEMS</text>
</g>
<!-- 45179&#45;&gt;END_NODE -->
<g id="edge6" class="edge">
<title>45179&#45;&gt;END_NODE</title>
<path fill="none" stroke="#dddddd" d="M357.84,-3325.04C366.09,-3327.08 374.32,-3328.89 382.38,-3330.37 526.45,-3356.87 565.05,-3347.37 711.53,-3347.37 711.53,-3347.37 711.53,-3347.37 8411.06,-3347.37 8487.88,-3347.37 8702.43,-3378.5 8755.94,-3323.37 8799.79,-3278.2 8805.86,-2311.41 8806.67,-2088.8"/>
<polygon fill="#dddddd" stroke="#dddddd" points="8810.17,-2089.1 8806.71,-2079.09 8803.17,-2089.08 8810.17,-2089.1"/>
<text text-anchor="middle" x="4417.41" y="-3350.57" font-family="Times,serif" font-size="14.00">Escort &#45; HMPS</text>
</g>
<!-- 45179&#45;&gt;END_NODE -->
<g id="edge7" class="edge">
<title>45179&#45;&gt;END_NODE</title>
<path fill="none" stroke="#dddddd" d="M363.75,-3300.88C370.04,-3301.45 376.28,-3301.95 382.38,-3302.37 632.16,-3319.64 695.31,-3309.37 945.69,-3309.37 945.69,-3309.37 945.69,-3309.37 3625.6,-3309.37 4015.68,-3309.37 4113.2,-3308.71 4503.29,-3308.87 4769.13,-3308.99 4835.59,-3309.37 5101.43,-3309.37 5101.43,-3309.37 5101.43,-3309.37 8411.06,-3309.37 8488.19,-3309.37 8703.38,-3326.82 8755.94,-3270.37 8796.94,-3226.35 8805.18,-2306.04 8806.55,-2088.96"/>
<polygon fill="#dddddd" stroke="#dddddd" points="8810.05,-2089.24 8806.61,-2079.21 8803.05,-2089.19 8810.05,-2089.24"/>
<text text-anchor="middle" x="4417.41" y="-3312.07" font-family="Times,serif" font-size="14.00">Other: Please explain</text>
</g>
<!-- 45180 -->
<g id="node4" class="node">
<title>45180</title>
<ellipse fill="none" stroke="black" cx="712.53" cy="-3141.37" rx="140.41" ry="140.41"/>
<text text-anchor="middle" x="712.53" y="-3136.32" font-family="Times,serif" font-size="14.00">Where did the release occur from?</text>
</g>
<!-- 45179&#45;&gt;45180 -->
<g id="edge8" class="edge">
<title>45179&#45;&gt;45180</title>
<path fill="none" stroke="black" d="M364.62,-3282.94C436.92,-3280.69 520.18,-3275.25 554.13,-3262.37 569.05,-3256.71 583.73,-3249.14 597.76,-3240.53"/>
<polygon fill="black" stroke="black" points="599.53,-3243.55 606.09,-3235.23 595.77,-3237.65 599.53,-3243.55"/>
<text text-anchor="middle" x="468.25" y="-3285.25" font-family="Times,serif" font-size="14.00">Bail</text>
</g>
<!-- 45179&#45;&gt;45180 -->
<g id="edge9" class="edge">
<title>45179&#45;&gt;45180</title>
<path fill="none" stroke="black" d="M359.21,-3247.11C367.02,-3245.19 374.79,-3243.42 382.38,-3241.87 457.65,-3226.51 480.6,-3244.65 554.13,-3222.37 562.4,-3219.87 570.75,-3216.94 579.07,-3213.7"/>
<polygon fill="black" stroke="black" points="580.22,-3217.01 588.18,-3210.02 577.6,-3210.52 580.22,-3217.01"/>
<text text-anchor="middle" x="468.25" y="-3245.07" font-family="Times,serif" font-size="14.00">Final discharge/end of sentence</text>
</g>
<!-- 45179&#45;&gt;45180 -->
<g id="edge10" class="edge">
<title>45179&#45;&gt;45180</title>
<path fill="none" stroke="black" d="M345.01,-3217.23C357.28,-3211.3 369.89,-3206 382.38,-3201.87 455.33,-3177.79 478.6,-3196.43 554.13,-3182.37 557.92,-3181.67 561.76,-3180.92 565.62,-3180.14"/>
<polygon fill="black" stroke="black" points="566.02,-3183.63 575.1,-3178.16 564.59,-3176.78 566.02,-3183.63"/>
<text text-anchor="middle" x="468.25" y="-3205.07" font-family="Times,serif" font-size="14.00">Police production</text>
</g>
<!-- 45179&#45;&gt;45180 -->
<g id="edge11" class="edge">
<title>45179&#45;&gt;45180</title>
<path fill="none" stroke="#dddddd" d="M327.05,-3194.59C344.15,-3181.51 362.88,-3169.8 382.38,-3161.87 399.44,-3154.94 482.54,-3149.8 560.96,-3146.4"/>
<polygon fill="#dddddd" stroke="#dddddd" points="560.63,-3149.91 570.47,-3145.99 560.34,-3142.92 560.63,-3149.91"/>
<text text-anchor="middle" x="468.25" y="-3165.07" font-family="Times,serif" font-size="14.00">Court production/PEMS</text>
</g>
<!-- 45179&#45;&gt;45180 -->
<g id="edge12" class="edge">
<title>45179&#45;&gt;45180</title>
<path fill="none" stroke="black" d="M310.2,-3180.54C330.67,-3158.42 354.99,-3138.08 382.38,-3125.87 438.59,-3100.83 505.68,-3099.57 564.57,-3106.53"/>
<polygon fill="black" stroke="black" points="563.99,-3109.98 574.35,-3107.78 564.88,-3103.04 563.99,-3109.98"/>
<text text-anchor="middle" x="468.25" y="-3129.07" font-family="Times,serif" font-size="14.00">Escort – HMPS</text>
</g>
<!-- 45179&#45;&gt;45180 -->
<g id="edge13" class="edge">
<title>45179&#45;&gt;45180</title>
<path fill="none" stroke="black" d="M293.07,-3170.91C315.45,-3136.23 345.08,-3102.18 382.38,-3082.87 440.97,-3052.55 512.43,-3060.69 573.78,-3079.12"/>
<polygon fill="black" stroke="black" points="572.68,-3082.44 583.27,-3082.09 574.77,-3075.76 572.68,-3082.44"/>
<text text-anchor="middle" x="468.25" y="-3086.07" font-family="Times,serif" font-size="14.00">Other : Please explain</text>
</g>
<!-- 45179&#45;&gt;45180 -->
<g id="edge14" class="edge">
<title>45179&#45;&gt;45180</title>
<path fill="none" stroke="black" d="M279.78,-3165.34C302.12,-3118.18 335.22,-3068.85 382.38,-3041.87 448.63,-3003.97 480.81,-3020.64 554.13,-3041.87 565.54,-3045.18 576.92,-3049.59 588.04,-3054.71"/>
<polygon fill="black" stroke="black" points="586.28,-3057.75 596.81,-3058.95 589.33,-3051.44 586.28,-3057.75"/>
<text text-anchor="middle" x="468.25" y="-3045.07" font-family="Times,serif" font-size="14.00">Court production/PEMS</text>
</g>
<!-- 45180&#45;&gt;END_NODE -->
<g id="edge15" class="edge">
<title>45180&#45;&gt;END_NODE</title>
<path fill="none" stroke="#dddddd" d="M834.5,-3211.5C846.56,-3216.79 858.83,-3221.55 870.94,-3225.37 1006.32,-3268.19 1046.04,-3264.37 1188.03,-3264.37 1188.03,-3264.37 1188.03,-3264.37 8411.06,-3264.37 8565.32,-3264.37 8650.72,-3338.18 8755.94,-3225.37 8795.36,-3183.11 8804.78,-2301.14 8806.48,-2088.98"/>
<polygon fill="#dddddd" stroke="#dddddd" points="8809.97,-2089.21 8806.55,-2079.19 8802.97,-2089.16 8809.97,-2089.21"/>
<text text-anchor="middle" x="4714.92" y="-3267.57" font-family="Times,serif" font-size="14.00">Establishment: Enter name</text>
</g>
<!-- 45180&#45;&gt;END_NODE -->
<g id="edge16" class="edge">
<title>45180&#45;&gt;END_NODE</title>
<path fill="none" stroke="#dddddd" d="M849.79,-3172.28C944.21,-3191.03 1073.12,-3211.37 1188.03,-3211.37 1188.03,-3211.37 1188.03,-3211.37 8411.06,-3211.37 8488.19,-3211.37 8703.28,-3228.72 8755.94,-3172.37 8793.52,-3132.17 8804.29,-2295.01 8806.38,-2088.91"/>
<polygon fill="#dddddd" stroke="#dddddd" points="8809.88,-2089.18 8806.48,-2079.15 8802.88,-2089.11 8809.88,-2089.18"/>
<text text-anchor="middle" x="4714.92" y="-3214.57" font-family="Times,serif" font-size="14.00">Court: Enter name</text>
</g>
<!-- 45180&#45;&gt;END_NODE -->
<g id="edge17" class="edge">
<title>45180&#45;&gt;END_NODE</title>
<path fill="none" stroke="#dddddd" d="M853.11,-3149C947.62,-3153.52 1075.31,-3158.37 1188.03,-3158.37 1188.03,-3158.37 1188.03,-3158.37 8411.06,-3158.37 8488.07,-3158.37 8702.9,-3180.21 8755.94,-3124.37 8792.12,-3086.29 8803.9,-2289.56 8806.3,-2088.92"/>
<polygon fill="#dddddd" stroke="#dddddd" points="8809.8,-2089.21 8806.41,-2079.17 8802.8,-2089.12 8809.8,-2089.21"/>
<text text-anchor="middle" x="4714.92" y="-3161.57" font-family="Times,serif" font-size="14.00">Other: Please enter details</text>
</g>
<!-- 45181 -->
<g id="node5" class="node">
<title>45181</title>
<ellipse fill="none" stroke="black" cx="1189.03" cy="-2761.37" rx="148.59" ry="148.59"/>
<text text-anchor="middle" x="1189.03" y="-2756.32" font-family="Times,serif" font-size="14.00">What was the nature of the Incident?</text>
</g>
<!-- 45180&#45;&gt;45181 -->
<g id="edge18" class="edge">
<title>45180&#45;&gt;45181</title>
<path fill="none" stroke="black" d="M846.79,-3098.7C904.87,-3075.74 971.23,-3043.21 1022.44,-3000.37 1055.82,-2972.46 1085.49,-2936.25 1110.17,-2900.49"/>
<polygon fill="black" stroke="black" points="1112.76,-2902.91 1115.49,-2892.67 1106.97,-2898.97 1112.76,-2902.91"/>
<text text-anchor="middle" x="946.69" y="-3091.61" font-family="Times,serif" font-size="14.00">Establishment : Enter name</text>
</g>
<!-- 45180&#45;&gt;45181 -->
<g id="edge19" class="edge">
<title>45180&#45;&gt;45181</title>
<path fill="none" stroke="black" d="M803.92,-3034.76C824.47,-3014.68 847.28,-2995.2 870.94,-2979.87 931.13,-2940.9 961.85,-2962.73 1022.44,-2924.37 1042.69,-2911.56 1062.45,-2895.91 1080.87,-2879.44"/>
<polygon fill="black" stroke="black" points="1083.08,-2882.16 1088.12,-2872.84 1078.37,-2876.99 1083.08,-2882.16"/>
<text text-anchor="middle" x="946.69" y="-2983.07" font-family="Times,serif" font-size="14.00">Court : Enter name</text>
</g>
<!-- 45180&#45;&gt;45181 -->
<g id="edge20" class="edge">
<title>45180&#45;&gt;45181</title>
<path fill="none" stroke="black" d="M777.75,-3016.57C802.74,-2976.76 834.27,-2935.01 870.94,-2903.87 918.91,-2863.15 980.4,-2831.96 1036.44,-2809.29"/>
<polygon fill="black" stroke="black" points="1037.44,-2812.67 1045.43,-2805.72 1034.85,-2806.16 1037.44,-2812.67"/>
<text text-anchor="middle" x="946.69" y="-2907.07" font-family="Times,serif" font-size="14.00">Other : Please enter details</text>
</g>
<!-- 45181&#45;&gt;END_NODE -->
<g id="edge21" class="edge">
<title>45181&#45;&gt;END_NODE</title>
<path fill="none" stroke="#dddddd" d="M1226.1,-2905.37C1250.88,-2972.83 1291.28,-3047.25 1355.63,-3088.37 1483.15,-3169.87 1884.9,-3112.37 2036.24,-3112.37 2036.24,-3112.37 2036.24,-3112.37 4418.41,-3112.37 4892.65,-3112.37 5011.19,-3119.37 5485.43,-3119.37 5485.43,-3119.37 5485.43,-3119.37 8411.06,-3119.37 8487.92,-3119.37 8702.33,-3148.45 8755.94,-3093.37 8791.46,-3056.89 8803.7,-2285.92 8806.25,-2088.9"/>
<polygon fill="#dddddd" stroke="#dddddd" points="8809.75,-2089.11 8806.38,-2079.07 8802.75,-2089.02 8809.75,-2089.11"/>
<text text-anchor="middle" x="5102.43" y="-3122.03" font-family="Times,serif" font-size="14.00">Wrong person released</text>
</g>
<!-- 45181&#45;&gt;END_NODE -->
<g id="edge22" class="edge">
<title>45181&#45;&gt;END_NODE</title>
<path fill="none" stroke="#dddddd" d="M1236.33,-2902.58C1262.24,-2958.48 1300.67,-3017.22 1355.63,-3050.37 1420.42,-3089.47 1960.57,-3074.37 2036.24,-3074.37 2036.24,-3074.37 2036.24,-3074.37 4418.41,-3074.37 4892.65,-3074.37 5011.2,-3079.37 5485.43,-3079.37 5485.43,-3079.37 5485.43,-3079.37 8411.06,-3079.37 8487.92,-3079.37 8702.28,-3108.4 8755.94,-3053.37 8790.03,-3018.42 8803.28,-2281.48 8806.16,-2089.02"/>
<polygon fill="#dddddd" stroke="#dddddd" points="8809.66,-2089.23 8806.31,-2079.18 8802.66,-2089.12 8809.66,-2089.23"/>
<text text-anchor="middle" x="5102.43" y="-3082.18" font-family="Times,serif" font-size="14.00">Sentence miscalculated</text>
</g>
<!-- 45181&#45;&gt;END_NODE -->
<g id="edge23" class="edge">
<title>45181&#45;&gt;END_NODE</title>
<path fill="none" stroke="#dddddd" d="M1248.27,-2897.94C1274.35,-2942.28 1309.76,-2986.63 1355.63,-3012.37 1421.62,-3049.41 1960.57,-3036.37 2036.24,-3036.37 2036.24,-3036.37 2036.24,-3036.37 4418.41,-3036.37 4892.65,-3036.37 5011.2,-3039.37 5485.43,-3039.37 5485.43,-3039.37 5485.43,-3039.37 8411.06,-3039.37 8487.92,-3039.37 8702.22,-3068.34 8755.94,-3013.37 8788.61,-2979.95 8802.84,-2276.65 8806.06,-2089.04"/>
<polygon fill="#dddddd" stroke="#dddddd" points="8809.56,-2089.26 8806.23,-2079.2 8802.56,-2089.14 8809.56,-2089.26"/>
<text text-anchor="middle" x="5102.43" y="-3042.34" font-family="Times,serif" font-size="14.00">ADA not included in calculations</text>
</g>
<!-- 45181&#45;&gt;END_NODE -->
<g id="edge24" class="edge">
<title>45181&#45;&gt;END_NODE</title>
<path fill="none" stroke="#dddddd" d="M1262.67,-2890.74C1287.67,-2923.44 1318.82,-2954.57 1355.63,-2973.37 1490.42,-3042.22 1884.89,-2998.37 2036.24,-2998.37 2036.24,-2998.37 2036.24,-2998.37 4418.41,-2998.37 4892.64,-2998.37 5011.2,-2999.37 5485.43,-2999.37 5485.43,-2999.37 5485.43,-2999.37 8411.06,-2999.37 8487.92,-2999.37 8702.16,-3028.28 8755.94,-2973.37 8787.2,-2941.46 8802.39,-2271.43 8805.96,-2088.93"/>
<polygon fill="#dddddd" stroke="#dddddd" points="8809.45,-2089.2 8806.15,-2079.14 8802.45,-2089.07 8809.45,-2089.2"/>
<text text-anchor="middle" x="5102.43" y="-3002.5" font-family="Times,serif" font-size="14.00">Immigration warrant not applied/misfiled/missing</text>
</g>
<!-- 45181&#45;&gt;END_NODE -->
<g id="edge25" class="edge">
<title>45181&#45;&gt;END_NODE</title>
<path fill="none" stroke="#dddddd" d="M1279.67,-2879.55C1301.99,-2901.17 1327.64,-2920.83 1355.63,-2933.37 1493.75,-2995.27 1884.88,-2959.37 2036.24,-2959.37 2036.24,-2959.37 2036.24,-2959.37 8411.06,-2959.37 8487.92,-2959.37 8702.09,-2988.21 8755.94,-2933.37 8785.79,-2902.98 8801.91,-2266.44 8805.84,-2088.96"/>
<polygon fill="#dddddd" stroke="#dddddd" points="8809.34,-2089.05 8806.06,-2078.98 8802.34,-2088.9 8809.34,-2089.05"/>
<text text-anchor="middle" x="5102.43" y="-2962.57" font-family="Times,serif" font-size="14.00">Remand warrant not applied/misfiled/missing</text>
</g>
<!-- 45181&#45;&gt;END_NODE -->
<g id="edge26" class="edge">
<title>45181&#45;&gt;END_NODE</title>
<path fill="none" stroke="#dddddd" d="M1298.11,-2862.8C1316.21,-2875.12 1335.64,-2885.95 1355.63,-2893.37 1497.52,-2946.07 1884.88,-2919.37 2036.24,-2919.37 2036.24,-2919.37 2036.24,-2919.37 8411.06,-2919.37 8487.92,-2919.37 8702.02,-2948.14 8755.94,-2893.37 8784.38,-2864.49 8801.42,-2261.07 8805.72,-2088.88"/>
<polygon fill="#dddddd" stroke="#dddddd" points="8809.21,-2089.07 8805.96,-2078.99 8802.21,-2088.9 8809.21,-2089.07"/>
<text text-anchor="middle" x="5102.43" y="-2922.57" font-family="Times,serif" font-size="14.00">Imprisonment warrant not applied/misfiled/missing</text>
</g>
<!-- 45181&#45;&gt;END_NODE -->
<g id="edge27" class="edge">
<title>45181&#45;&gt;END_NODE</title>
<path fill="none" stroke="#dddddd" d="M1315.83,-2838.96C1328.93,-2844.68 1342.33,-2849.66 1355.63,-2853.37 1501.4,-2894.13 1884.88,-2879.37 2036.24,-2879.37 2036.24,-2879.37 2036.24,-2879.37 8411.06,-2879.37 8487.88,-2879.37 8701.8,-2909.89 8755.94,-2855.37 8783.13,-2828 8800.95,-2255.79 8805.59,-2088.77"/>
<polygon fill="#dddddd" stroke="#dddddd" points="8809.09,-2089.06 8805.86,-2078.97 8802.09,-2088.87 8809.09,-2089.06"/>
<text text-anchor="middle" x="5102.43" y="-2882.57" font-family="Times,serif" font-size="14.00">Civil/non payment of fines warrant not applied/misfiled/missing</text>
</g>
<!-- 45181&#45;&gt;END_NODE -->
<g id="edge28" class="edge">
<title>45181&#45;&gt;END_NODE</title>
<path fill="none" stroke="#dddddd" d="M1330.34,-2808.22C1338.84,-2810.19 1347.32,-2811.94 1355.63,-2813.37 1653.92,-2864.95 1733.53,-2839.37 2036.24,-2839.37 2036.24,-2839.37 2036.24,-2839.37 4715.92,-2839.37 5207.76,-2839.37 5330.72,-2841.37 5822.56,-2841.37 5822.56,-2841.37 5822.56,-2841.37 8411.06,-2841.37 8487.88,-2841.37 8701.72,-2871.8 8755.94,-2817.37 8807.46,-2765.66 8808.19,-2246.31 8807.21,-2088.57"/>
<polygon fill="#dddddd" stroke="#dddddd" points="8810.71,-2088.91 8807.14,-2078.94 8803.71,-2088.96 8810.71,-2088.91"/>
<text text-anchor="middle" x="5102.43" y="-2843.57" font-family="Times,serif" font-size="14.00">Bail conditions not fully met</text>
</g>
<!-- 45181&#45;&gt;END_NODE -->
<g id="edge29" class="edge">
<title>45181&#45;&gt;END_NODE</title>
<path fill="none" stroke="#dddddd" d="M1337.18,-2774.19C1343.41,-2774.62 1349.58,-2775.01 1355.63,-2775.37 1657.77,-2793.46 1733.56,-2799.37 2036.24,-2799.37 2036.24,-2799.37 2036.24,-2799.37 4715.92,-2799.37 5207.76,-2799.37 5330.72,-2803.37 5822.56,-2803.37 5822.56,-2803.37 5822.56,-2803.37 8411.06,-2803.37 8487.88,-2803.37 8701.63,-2833.71 8755.94,-2779.37 8804.75,-2730.54 8807.42,-2241.79 8807.04,-2088.86"/>
<polygon fill="#dddddd" stroke="#dddddd" points="8810.54,-2089.11 8807.01,-2079.12 8803.54,-2089.13 8810.54,-2089.11"/>
<text text-anchor="middle" x="5102.43" y="-2804.57" font-family="Times,serif" font-size="14.00">Release criteria not met</text>
</g>
<!-- 45181&#45;&gt;END_NODE -->
<g id="edge30" class="edge">
<title>45181&#45;&gt;END_NODE</title>
<path fill="none" stroke="#dddddd" d="M1337.93,-2761.37C1506.83,-2761.37 1791.45,-2761.37 2036.24,-2761.37 2036.24,-2761.37 2036.24,-2761.37 4192.05,-2761.37 4916.72,-2761.37 5097.88,-2765.37 5822.56,-2765.37 5822.56,-2765.37 5822.56,-2765.37 8411.06,-2765.37 8487.88,-2765.37 8701.53,-2795.61 8755.94,-2741.37 8802.08,-2695.39 8806.6,-2236.67 8806.86,-2088.95"/>
<polygon fill="#dddddd" stroke="#dddddd" points="8810.36,-2089.16 8806.87,-2079.16 8803.36,-2089.16 8810.36,-2089.16"/>
<text text-anchor="middle" x="5102.43" y="-2767.66" font-family="Times,serif" font-size="14.00">Recall procedures not applied</text>
</g>
<!-- 45181&#45;&gt;END_NODE -->
<g id="edge31" class="edge">
<title>45181&#45;&gt;END_NODE</title>
<path fill="none" stroke="#dddddd" d="M1337.99,-2756.83C1698.75,-2746.16 2652.43,-2720.37 3448.52,-2720.37 3448.52,-2720.37 3448.52,-2720.37 4418.41,-2720.37 5042.48,-2720.37 5198.48,-2727.37 5822.56,-2727.37 5822.56,-2727.37 5822.56,-2727.37 8411.06,-2727.37 8488.19,-2727.37 8702.33,-2743.83 8755.94,-2688.37 8797.47,-2645.42 8805.1,-2228.32 8806.49,-2088.67"/>
<polygon fill="#dddddd" stroke="#dddddd" points="8809.98,-2089.11 8806.58,-2079.08 8802.98,-2089.04 8809.98,-2089.11"/>
<text text-anchor="middle" x="5102.43" y="-2728.33" font-family="Times,serif" font-size="14.00">Other: Please explain</text>
</g>
<!-- 45182 -->
<g id="node6" class="node">
<title>45182</title>
<ellipse fill="none" stroke="black" cx="2037.24" cy="-2383.37" rx="311.86" ry="311.86"/>
<text text-anchor="middle" x="2037.24" y="-2378.32" font-family="Times,serif" font-size="14.00">What action is being taken to return the person to custody by the Establishment?</text>
</g>
<!-- 45181&#45;&gt;45182 -->
<g id="edge32" class="edge">
<title>45181&#45;&gt;45182</title>
<path fill="none" stroke="black" d="M1329.39,-2711.87C1338.21,-2709.61 1347,-2707.58 1355.63,-2705.87 1432.48,-2690.69 1635.29,-2713.05 1707.38,-2682.37 1745.18,-2666.29 1781.49,-2643.96 1815.28,-2618.68"/>
<polygon fill="black" stroke="black" points="1817.23,-2621.59 1823.07,-2612.75 1813,-2616.02 1817.23,-2621.59"/>
<text text-anchor="middle" x="1531.5" y="-2709.07" font-family="Times,serif" font-size="14.00">Wrong person released</text>
</g>
<!-- 45181&#45;&gt;45182 -->
<g id="edge33" class="edge">
<title>45181&#45;&gt;45182</title>
<path fill="none" stroke="black" d="M1313.14,-2678.83C1327.05,-2672.13 1341.36,-2666.26 1355.63,-2661.87 1430.46,-2638.87 1634.15,-2670.04 1707.38,-2642.37 1737.61,-2630.95 1767.27,-2615.68 1795.63,-2598.24"/>
<polygon fill="black" stroke="black" points="1797.3,-2601.33 1803.92,-2593.05 1793.58,-2595.4 1797.3,-2601.33"/>
<text text-anchor="middle" x="1531.5" y="-2665.07" font-family="Times,serif" font-size="14.00">Sentence Miscalculated</text>
</g>
<!-- 45181&#45;&gt;45182 -->
<g id="edge34" class="edge">
<title>45181&#45;&gt;45182</title>
<path fill="none" stroke="black" d="M1294.8,-2656.58C1313.76,-2642.68 1334.32,-2630.33 1355.63,-2621.87 1428.4,-2593 1633.1,-2627.11 1707.38,-2602.37 1730.38,-2594.72 1753.29,-2585 1775.71,-2573.94"/>
<polygon fill="black" stroke="black" points="1777.27,-2577.07 1784.62,-2569.45 1774.12,-2570.82 1777.27,-2577.07"/>
<text text-anchor="middle" x="1531.5" y="-2625.07" font-family="Times,serif" font-size="14.00">ADA not included on calculations</text>
</g>
<!-- 45181&#45;&gt;45182 -->
<g id="edge35" class="edge">
<title>45181&#45;&gt;45182</title>
<path fill="none" stroke="black" d="M1276.38,-2641.24C1299.35,-2617.58 1326.1,-2595.8 1355.63,-2581.87 1426.44,-2548.49 1632.07,-2583.78 1707.38,-2562.37 1724.08,-2557.63 1740.87,-2551.92 1757.56,-2545.51"/>
<polygon fill="black" stroke="black" points="1758.5,-2548.9 1766.53,-2541.99 1755.94,-2542.39 1758.5,-2548.9"/>
<text text-anchor="middle" x="1531.5" y="-2585.07" font-family="Times,serif" font-size="14.00">Immigration warrant not applied/misfiled/missing</text>
</g>
<!-- 45181&#45;&gt;45182 -->
<g id="edge36" class="edge">
<title>45181&#45;&gt;45182</title>
<path fill="none" stroke="black" d="M1260.17,-2630.55C1285.47,-2595.78 1317.4,-2562.26 1355.63,-2541.87 1424.71,-2505.04 1631.11,-2540.04 1707.38,-2522.37 1718.59,-2519.78 1729.91,-2516.83 1741.25,-2513.59"/>
<polygon fill="black" stroke="black" points="1742.07,-2516.99 1750.68,-2510.82 1740.1,-2510.27 1742.07,-2516.99"/>
<text text-anchor="middle" x="1531.5" y="-2545.07" font-family="Times,serif" font-size="14.00">Remand warrant not applied/misfiled/missing</text>
</g>
<!-- 45181&#45;&gt;45182 -->
<g id="edge37" class="edge">
<title>45181&#45;&gt;45182</title>
<path fill="none" stroke="black" d="M1245.86,-2623.87C1272.02,-2577.09 1308.11,-2529.66 1355.63,-2501.87 1389.42,-2482.12 1668.83,-2489.15 1707.38,-2482.37 1714.32,-2481.16 1721.31,-2479.84 1728.35,-2478.44"/>
<polygon fill="black" stroke="black" points="1728.86,-2481.9 1737.95,-2476.46 1727.46,-2475.05 1728.86,-2481.9"/>
<text text-anchor="middle" x="1531.5" y="-2505.07" font-family="Times,serif" font-size="14.00">Imprisonment warrant not applied/misfiled/missing</text>
</g>
<!-- 45181&#45;&gt;45182 -->
<g id="edge38" class="edge">
<title>45181&#45;&gt;45182</title>
<path fill="none" stroke="black" d="M1233.92,-2619.22C1259.66,-2560.38 1298.64,-2497.65 1355.63,-2461.87 1388.78,-2441.06 1668.5,-2446.92 1707.38,-2442.37 1711.12,-2441.94 1714.89,-2441.48 1718.68,-2441.01"/>
<polygon fill="black" stroke="black" points="1719.1,-2444.49 1728.58,-2439.76 1718.22,-2437.54 1719.1,-2444.49"/>
<text text-anchor="middle" x="1531.5" y="-2465.07" font-family="Times,serif" font-size="14.00">Civil/non payment of fines warrant not applied/misfiled/missing</text>
</g>
<!-- 45181&#45;&gt;45182 -->
<g id="edge39" class="edge">
<title>45181&#45;&gt;45182</title>
<path fill="none" stroke="black" d="M1223.72,-2616.51C1248.08,-2545.64 1288.84,-2466.22 1355.63,-2421.87 1388.24,-2400.22 1668.3,-2404.59 1707.38,-2402.37 1709.63,-2402.25 1711.88,-2402.12 1714.15,-2401.99"/>
<polygon fill="black" stroke="black" points="1714.24,-2405.49 1724.02,-2401.43 1713.84,-2398.5 1714.24,-2405.49"/>
<text text-anchor="middle" x="1531.5" y="-2425.07" font-family="Times,serif" font-size="14.00">Bail conditions not fully met</text>
</g>
<!-- 45181&#45;&gt;45182 -->
<g id="edge40" class="edge">
<title>45181&#45;&gt;45182</title>
<path fill="none" stroke="black" d="M1213.69,-2614.71C1235.49,-2531.25 1276.99,-2433.36 1355.63,-2381.87 1386.92,-2361.39 1553.69,-2361.53 1714.3,-2366.91"/>
<polygon fill="black" stroke="black" points="1713.73,-2370.39 1723.85,-2367.24 1713.97,-2363.4 1713.73,-2370.39"/>
<text text-anchor="middle" x="1531.5" y="-2385.07" font-family="Times,serif" font-size="14.00">Release criteria not met</text>
</g>
<!-- 45181&#45;&gt;45182 -->
<g id="edge41" class="edge">
<title>45181&#45;&gt;45182</title>
<path fill="none" stroke="black" d="M1206.67,-2613.43C1225.82,-2518.89 1267.02,-2403.11 1355.63,-2342.87 1387.95,-2320.9 1668.37,-2340.48 1707.38,-2342.87 1710.27,-2343.05 1713.17,-2343.24 1716.08,-2343.43"/>
<polygon fill="black" stroke="black" points="1715.65,-2346.91 1725.87,-2344.12 1716.14,-2339.93 1715.65,-2346.91"/>
<text text-anchor="middle" x="1531.5" y="-2346.07" font-family="Times,serif" font-size="14.00">Recall procedures not applied</text>
</g>
<!-- 45181&#45;&gt;45182 -->
<g id="edge42" class="edge">
<title>45181&#45;&gt;45182</title>
<path fill="none" stroke="black" d="M1201.76,-2612.99C1218.55,-2509.87 1258.93,-2379.3 1355.63,-2311.87 1464.41,-2236.02 1607.73,-2239.91 1734.78,-2268.42"/>
<polygon fill="black" stroke="black" points="1733.84,-2271.79 1744.37,-2270.63 1735.41,-2264.97 1733.84,-2271.79"/>
<text text-anchor="middle" x="1531.5" y="-2315.07" font-family="Times,serif" font-size="14.00">Other : Please explain</text>
</g>
<!-- 45182&#45;&gt;END_NODE -->
<g id="edge43" class="edge">
<title>45182&#45;&gt;END_NODE</title>
<path fill="none" stroke="#dddddd" d="M2268.98,-2592.11C2300.33,-2612.35 2333.37,-2630.21 2367.1,-2643.37 2582.7,-2727.49 2654.91,-2682.37 2886.33,-2682.37 2886.33,-2682.37 2886.33,-2682.37 8411.06,-2682.37 8565.32,-2682.37 8648.4,-2753.97 8755.94,-2643.37 8794.36,-2603.86 8803.99,-2222.29 8806.19,-2089.03"/>
<polygon fill="#dddddd" stroke="#dddddd" points="8809.69,-2089.22 8806.35,-2079.17 8802.69,-2089.11 8809.69,-2089.22"/>
<text text-anchor="middle" x="5486.43" y="-2685.57" font-family="Times,serif" font-size="14.00">Recall procedures</text>
</g>
<!-- 45182&#45;&gt;END_NODE -->
<g id="edge44" class="edge">
<title>45182&#45;&gt;END_NODE</title>
<path fill="none" stroke="#dddddd" d="M2294.08,-2560.36C2318.07,-2572.01 2342.59,-2582.3 2367.1,-2590.37 2586.89,-2662.82 2654.91,-2629.37 2886.33,-2629.37 2886.33,-2629.37 2886.33,-2629.37 8411.06,-2629.37 8488.19,-2629.37 8701.95,-2645.45 8755.94,-2590.37 8790.79,-2554.83 8802.62,-2213.49 8805.8,-2088.74"/>
<polygon fill="#dddddd" stroke="#dddddd" points="8809.3,-2088.96 8806.04,-2078.87 8802.3,-2088.78 8809.3,-2088.96"/>
<text text-anchor="middle" x="5486.43" y="-2632.57" font-family="Times,serif" font-size="14.00">Home Probation Officer</text>
</g>
<!-- 45182&#45;&gt;END_NODE -->
<g id="edge45" class="edge">
<title>45182&#45;&gt;END_NODE</title>
<path fill="none" stroke="#dddddd" d="M2316.91,-2522.07C2333.68,-2527.84 2350.48,-2533.02 2367.1,-2537.37 2590.95,-2596.08 2654.91,-2576.37 2886.33,-2576.37 2886.33,-2576.37 2886.33,-2576.37 8411.06,-2576.37 8488.19,-2576.37 8701.68,-2592.19 8755.94,-2537.37 8787.21,-2505.79 8801.1,-2204.68 8805.32,-2088.65"/>
<polygon fill="#dddddd" stroke="#dddddd" points="8808.81,-2089 8805.67,-2078.88 8801.81,-2088.75 8808.81,-2089"/>
<text text-anchor="middle" x="5486.43" y="-2579.57" font-family="Times,serif" font-size="14.00">Prisoner contacted</text>
</g>
<!-- 45182&#45;&gt;END_NODE -->
<g id="edge46" class="edge">
<title>45182&#45;&gt;END_NODE</title>
<path fill="none" stroke="#dddddd" d="M2334.61,-2477.68C2345.54,-2480.11 2356.39,-2482.35 2367.1,-2484.37 2594.51,-2527.28 2654.91,-2523.37 2886.33,-2523.37 2886.33,-2523.37 2886.33,-2523.37 8411.06,-2523.37 8488.19,-2523.37 8701.34,-2538.85 8755.94,-2484.37 8783.61,-2456.76 8799.37,-2195.91 8804.71,-2088.87"/>
<polygon fill="#dddddd" stroke="#dddddd" points="8808.2,-2089.17 8805.19,-2079.01 8801.21,-2088.83 8808.2,-2089.17"/>
<text text-anchor="middle" x="5486.43" y="-2526.57" font-family="Times,serif" font-size="14.00">Court contacted</text>
</g>
<!-- 45182&#45;&gt;END_NODE -->
<g id="edge47" class="edge">
<title>45182&#45;&gt;END_NODE</title>
<path fill="none" stroke="#dddddd" d="M2345.64,-2430.19C2506.33,-2450.78 2706.5,-2470.37 2886.33,-2470.37 2886.33,-2470.37 2886.33,-2470.37 8411.06,-2470.37 8488.19,-2470.37 8700.92,-2485.43 8755.94,-2431.37 8803.53,-2384.62 8808.03,-2181.25 8807.55,-2089.08"/>
<polygon fill="#dddddd" stroke="#dddddd" points="8811.05,-2089.11 8807.47,-2079.14 8804.05,-2089.17 8811.05,-2089.11"/>
<text text-anchor="middle" x="5486.43" y="-2473.57" font-family="Times,serif" font-size="14.00">Police contacted</text>
</g>
<!-- 45182&#45;&gt;END_NODE -->
<g id="edge48" class="edge">
<title>45182&#45;&gt;END_NODE</title>
<path fill="none" stroke="#dddddd" d="M2348.78,-2401.79C2509.23,-2409.79 2708.22,-2417.37 2886.33,-2417.37 2886.33,-2417.37 2886.33,-2417.37 8411.06,-2417.37 8488.14,-2417.37 8700.28,-2433.7 8755.94,-2380.37 8796.91,-2341.13 8805.04,-2171.56 8806.54,-2088.95"/>
<polygon fill="#dddddd" stroke="#dddddd" points="8810.03,-2089.23 8806.69,-2079.17 8803.03,-2089.12 8810.03,-2089.23"/>
<text text-anchor="middle" x="5486.43" y="-2420.57" font-family="Times,serif" font-size="14.00">Other: Please explain</text>
</g>
<!-- 45182&#45;&gt;END_NODE -->
<g id="edge49" class="edge">
<title>45182&#45;&gt;END_NODE</title>
<path fill="none" stroke="#dddddd" d="M2349.36,-2373.07C2509.74,-2368.6 2708.5,-2364.37 2886.33,-2364.37 2886.33,-2364.37 2886.33,-2364.37 5103.43,-2364.37 5674.23,-2364.37 5816.93,-2366.37 6387.73,-2366.37 6387.73,-2366.37 6387.73,-2366.37 8411.06,-2366.37 8488.05,-2366.37 8699.41,-2385.65 8755.94,-2333.37 8790.94,-2301.01 8801.94,-2161.86 8805.33,-2088.71"/>
<polygon fill="#dddddd" stroke="#dddddd" points="8808.81,-2089.22 8805.74,-2079.08 8801.81,-2088.92 8808.81,-2089.22"/>
<text text-anchor="middle" x="5486.43" y="-2368.38" font-family="Times,serif" font-size="14.00">None &#45; explain why none of the above procedures have been actioned</text>
</g>
<!-- 45183 -->
<g id="node7" class="node">
<title>45183</title>
<ellipse fill="none" stroke="black" cx="2887.33" cy="-2115.37" rx="121.98" ry="121.98"/>
<text text-anchor="middle" x="2887.33" y="-2110.32" font-family="Times,serif" font-size="14.00">How was the error identified?</text>
</g>
<!-- 45182&#45;&gt;45183 -->
<g id="edge50" class="edge">
<title>45182&#45;&gt;45183</title>
<path fill="none" stroke="black" d="M2345.79,-2336.23C2352.96,-2335.41 2360.07,-2334.62 2367.1,-2333.87 2409.2,-2329.41 2710.34,-2330.92 2747.35,-2310.37 2779.31,-2292.64 2805.7,-2264.09 2826.59,-2234.25"/>
<polygon fill="black" stroke="black" points="2829.33,-2236.45 2832.05,-2226.21 2823.54,-2232.52 2829.33,-2236.45"/>
<text text-anchor="middle" x="2557.23" y="-2337.07" font-family="Times,serif" font-size="14.00">Recall procedures</text>
</g>
<!-- 45182&#45;&gt;45183 -->
<g id="edge51" class="edge">
<title>45182&#45;&gt;45183</title>
<path fill="none" stroke="black" d="M2336.91,-2295.37C2347.06,-2293.37 2357.15,-2291.52 2367.1,-2289.87 2450.58,-2276.05 2671,-2306.84 2747.35,-2270.37 2770.61,-2259.27 2791.7,-2242.32 2810.01,-2223.65"/>
<polygon fill="black" stroke="black" points="2812.31,-2226.32 2816.65,-2216.65 2807.23,-2221.5 2812.31,-2226.32"/>
<text text-anchor="middle" x="2557.23" y="-2293.07" font-family="Times,serif" font-size="14.00">Home Probation Officer</text>
</g>
<!-- 45182&#45;&gt;45183 -->
<g id="edge52" class="edge">
<title>45182&#45;&gt;45183</title>
<path fill="none" stroke="black" d="M2324.32,-2260.81C2338.65,-2256.7 2352.97,-2253.01 2367.1,-2249.87 2449.7,-2231.54 2668.51,-2261.07 2747.35,-2230.37 2762.29,-2224.56 2776.81,-2216.47 2790.49,-2207.25"/>
<polygon fill="black" stroke="black" points="2792.4,-2210.19 2798.57,-2201.57 2788.38,-2204.46 2792.4,-2210.19"/>
<text text-anchor="middle" x="2557.23" y="-2253.07" font-family="Times,serif" font-size="14.00">Prisoner contacted</text>
</g>
<!-- 45182&#45;&gt;45183 -->
<g id="edge53" class="edge">
<title>45182&#45;&gt;45183</title>
<path fill="none" stroke="black" d="M2308.62,-2229.37C2328.05,-2221.85 2347.65,-2215.22 2367.1,-2209.87 2530.27,-2165.01 2584.4,-2236.01 2747.35,-2190.37 2755.43,-2188.11 2763.56,-2185.32 2771.62,-2182.16"/>
<polygon fill="black" stroke="black" points="2772.86,-2185.43 2780.76,-2178.38 2770.18,-2178.96 2772.86,-2185.43"/>
<text text-anchor="middle" x="2557.23" y="-2213.07" font-family="Times,serif" font-size="14.00">Court contacted</text>
</g>
<!-- 45182&#45;&gt;45183 -->
<g id="edge54" class="edge">
<title>45182&#45;&gt;45183</title>
<path fill="none" stroke="black" d="M2290.68,-2201.58C2315.69,-2189.12 2341.36,-2178.22 2367.1,-2169.87 2447.59,-2143.78 2663.68,-2162.93 2747.35,-2150.37 2750.81,-2149.86 2754.3,-2149.29 2757.82,-2148.68"/>
<polygon fill="black" stroke="black" points="2758.44,-2152.13 2767.64,-2146.88 2757.17,-2145.24 2758.44,-2152.13"/>
<text text-anchor="middle" x="2557.23" y="-2173.07" font-family="Times,serif" font-size="14.00">Police contacted</text>
</g>
<!-- 45182&#45;&gt;45183 -->
<g id="edge55" class="edge">
<title>45182&#45;&gt;45183</title>
<path fill="none" stroke="black" d="M2271.25,-2176.85C2301.91,-2158 2334.17,-2141.61 2367.1,-2129.87 2402.49,-2117.27 2611.75,-2114.93 2753.57,-2114.83"/>
<polygon fill="black" stroke="black" points="2753.43,-2118.33 2763.43,-2114.83 2753.43,-2111.33 2753.43,-2118.33"/>
<text text-anchor="middle" x="2557.23" y="-2133.07" font-family="Times,serif" font-size="14.00">Other : Please explain</text>
</g>
<!-- 45182&#45;&gt;45183 -->
<g id="edge56" class="edge">
<title>45182&#45;&gt;45183</title>
<path fill="none" stroke="black" d="M2252.86,-2157.6C2288.42,-2131.63 2326.89,-2109.05 2367.1,-2093.87 2493.46,-2046.18 2649.6,-2061.62 2757.47,-2082.66"/>
<polygon fill="black" stroke="black" points="2756.76,-2086.09 2767.25,-2084.62 2758.13,-2079.23 2756.76,-2086.09"/>
<text text-anchor="middle" x="2557.23" y="-2097.07" font-family="Times,serif" font-size="14.00">None &#45; explain why none of the above procedures have been actioned</text>
</g>
<!-- 45183&#45;&gt;END_NODE -->
<g id="edge57" class="edge">
<title>45183&#45;&gt;END_NODE</title>
<path fill="none" stroke="#dddddd" d="M2947.62,-2221.85C2968.9,-2250.29 2995.62,-2277.72 3027.31,-2294.37 3193.3,-2381.58 3261.01,-2318.37 3448.52,-2318.37 3448.52,-2318.37 3448.52,-2318.37 5103.43,-2318.37 5674.25,-2318.37 5816.91,-2328.37 6387.73,-2328.37 6387.73,-2328.37 6387.73,-2328.37 8411.06,-2328.37 8487.88,-2328.37 8698.38,-2355.26 8755.94,-2304.37 8787.51,-2276.47 8799.91,-2155.66 8804.43,-2088.62"/>
<polygon fill="#dddddd" stroke="#dddddd" points="8807.93,-2088.87 8805.07,-2078.67 8800.94,-2088.43 8807.93,-2088.87"/>
<text text-anchor="middle" x="5823.56" y="-2329.13" font-family="Times,serif" font-size="14.00">Contact from PEMS</text>
</g>
<!-- 45183&#45;&gt;END_NODE -->
<g id="edge58" class="edge">
<title>45183&#45;&gt;END_NODE</title>
<path fill="none" stroke="#dddddd" d="M2963.29,-2211.23C2982.17,-2229.25 3003.83,-2245.75 3027.31,-2256.37 3112.74,-2295.01 3354.77,-2280.37 3448.52,-2280.37 3448.52,-2280.37 3448.52,-2280.37 5103.43,-2280.37 5561.49,-2280.37 5675.96,-2290.37 6134.02,-2290.37 6134.02,-2290.37 6134.02,-2290.37 8411.06,-2290.37 8487.88,-2290.37 8697.58,-2316.34 8755.94,-2266.37 8782.52,-2243.62 8796.61,-2146.49 8802.8,-2088.19"/>
<polygon fill="#dddddd" stroke="#dddddd" points="8806.25,-2088.89 8803.79,-2078.59 8799.29,-2088.18 8806.25,-2088.89"/>
<text text-anchor="middle" x="5823.56" y="-2292.91" font-family="Times,serif" font-size="14.00">Contact from Courts</text>
</g>
<!-- 45183&#45;&gt;END_NODE -->
<g id="edge59" class="edge">
<title>45183&#45;&gt;END_NODE</title>
<path fill="none" stroke="#dddddd" d="M2980.53,-2194.77C2995.4,-2204.21 3011.22,-2212.55 3027.31,-2218.37 3203.62,-2282.2 3261.01,-2242.37 3448.52,-2242.37 3448.52,-2242.37 3448.52,-2242.37 5103.43,-2242.37 5674.25,-2242.37 5816.91,-2252.37 6387.73,-2252.37 6387.73,-2252.37 6387.73,-2252.37 8411.06,-2252.37 8487.88,-2252.37 8696.49,-2277.04 8755.94,-2228.37 8777.48,-2210.75 8792.57,-2137.31 8800.45,-2088.43"/>
<polygon fill="#dddddd" stroke="#dddddd" points="8803.89,-2089.1 8801.97,-2078.68 8796.97,-2088.02 8803.89,-2089.1"/>
<text text-anchor="middle" x="5823.56" y="-2253.13" font-family="Times,serif" font-size="14.00">Contact from UKBA</text>
</g>
<!-- 45183&#45;&gt;END_NODE -->
<g id="edge60" class="edge">
<title>45183&#45;&gt;END_NODE</title>
<path fill="none" stroke="#dddddd" d="M2996.52,-2170.69C3006.75,-2174.47 3017.11,-2177.8 3027.31,-2180.37 3209.12,-2226.25 3261.01,-2204.37 3448.52,-2204.37 3448.52,-2204.37 3448.52,-2204.37 5103.43,-2204.37 5674.25,-2204.37 5816.91,-2214.37 6387.73,-2214.37 6387.73,-2214.37 6387.73,-2214.37 8411.06,-2214.37 8487.88,-2214.37 8694.95,-2237.09 8755.94,-2190.37 8787.14,-2166.48 8799.31,-2122.24 8803.99,-2088.51"/>
<polygon fill="#dddddd" stroke="#dddddd" points="8807.41,-2089.37 8805.13,-2079.02 8800.46,-2088.53 8807.41,-2089.37"/>
<text text-anchor="middle" x="5823.56" y="-2215.13" font-family="Times,serif" font-size="14.00">Contact from Police</text>
</g>
<!-- 45183&#45;&gt;END_NODE -->
<g id="edge61" class="edge">
<title>45183&#45;&gt;END_NODE</title>
<path fill="none" stroke="#dddddd" d="M3007.19,-2139.56C3013.99,-2140.6 3020.73,-2141.55 3027.31,-2142.37 3213.37,-2165.64 3261.01,-2166.37 3448.52,-2166.37 3448.52,-2166.37 3448.52,-2166.37 5103.43,-2166.37 5674.25,-2166.37 5816.91,-2176.37 6387.73,-2176.37 6387.73,-2176.37 6387.73,-2176.37 8411.06,-2176.37 8487.88,-2176.37 8692.61,-2195.87 8755.94,-2152.37 8777.54,-2137.54 8790.18,-2111.06 8797.46,-2087.92"/>
<polygon fill="#dddddd" stroke="#dddddd" points="8800.81,-2088.93 8800.2,-2078.35 8794.08,-2087 8800.81,-2088.93"/>
<text text-anchor="middle" x="5823.56" y="-2177.13" font-family="Times,serif" font-size="14.00">Post release check by Establishment</text>
</g>
<!-- 45183&#45;&gt;END_NODE -->
<g id="edge62" class="edge">
<title>45183&#45;&gt;END_NODE</title>
<path fill="none" stroke="#dddddd" d="M3009.61,-2119.81C3123.06,-2123.58 3297.25,-2128.37 3448.52,-2128.37 3448.52,-2128.37 3448.52,-2128.37 5103.43,-2128.37 5674.25,-2128.37 5816.91,-2138.37 6387.73,-2138.37 6387.73,-2138.37 6387.73,-2138.37 8411.06,-2138.37 8487.88,-2138.37 8688.87,-2151.84 8755.94,-2114.37 8768.68,-2107.26 8779.03,-2095.45 8786.99,-2083.49"/>
<polygon fill="#dddddd" stroke="#dddddd" points="8789.81,-2085.6 8792.06,-2075.24 8783.84,-2081.93 8789.81,-2085.6"/>
<text text-anchor="middle" x="5823.56" y="-2139.13" font-family="Times,serif" font-size="14.00">Contact from other agency: Please enter details</text>
</g>
<!-- 45183&#45;&gt;END_NODE -->
<g id="edge63" class="edge">
<title>45183&#45;&gt;END_NODE</title>
<path fill="none" stroke="#dddddd" d="M3009.61,-2108.72C3155.34,-2101.32 3407.26,-2090.37 3623.6,-2090.37 3623.6,-2090.37 3623.6,-2090.37 5487.43,-2090.37 5887.59,-2090.37 5987.57,-2100.37 6387.73,-2100.37 6387.73,-2100.37 6387.73,-2100.37 8411.06,-2100.37 8564.71,-2100.37 8610.21,-2125.08 8755.94,-2076.37 8760.98,-2074.69 8766.01,-2072.39 8770.83,-2069.78"/>
<polygon fill="#dddddd" stroke="#dddddd" points="8772.29,-2072.98 8779.09,-2064.86 8768.71,-2066.97 8772.29,-2072.98"/>
<text text-anchor="middle" x="5823.56" y="-2098.79" font-family="Times,serif" font-size="14.00">Sentence calculations</text>
</g>
<!-- 45183&#45;&gt;END_NODE -->
<g id="edge64" class="edge">
<title>45183&#45;&gt;END_NODE</title>
<path fill="none" stroke="#dddddd" d="M3008.02,-2095.74C3014.54,-2094.89 3021,-2094.09 3027.31,-2093.37 3291.27,-2063.47 3357.96,-2052.37 3623.6,-2052.37 3623.6,-2052.37 3623.6,-2052.37 5103.43,-2052.37 5674.25,-2052.37 5816.91,-2062.37 6387.73,-2062.37 6387.73,-2062.37 6387.73,-2062.37 8411.06,-2062.37 8564.46,-2062.37 8602.9,-2059 8755.94,-2048.37 8758.01,-2048.23 8760.12,-2048.07 8762.26,-2047.9"/>
<polygon fill="#dddddd" stroke="#dddddd" points="8762.55,-2051.39 8772.21,-2047.04 8761.94,-2044.42 8762.55,-2051.39"/>
<text text-anchor="middle" x="5823.56" y="-2063.13" font-family="Times,serif" font-size="14.00">Other: Please explain</text>
</g>
<!-- 45184 -->
<g id="node8" class="node">
<title>45184</title>
<ellipse fill="none" stroke="black" cx="3449.52" cy="-1882.37" rx="142.45" ry="142.45"/>
<text text-anchor="middle" x="3449.52" y="-1877.32" font-family="Times,serif" font-size="14.00">What date was the error identified?</text>
</g>
<!-- 45183&#45;&gt;45184 -->
<g id="edge65" class="edge">
<title>45183&#45;&gt;45184</title>
<path fill="none" stroke="#dddddd" d="M2995.73,-2058.59C3006.21,-2054.46 3016.85,-2050.78 3027.31,-2047.87 3139.86,-2016.63 3181.88,-2070.78 3289.06,-2024.37 3307.58,-2016.36 3325.43,-2005.34 3342.05,-1992.94"/>
<polygon fill="#dddddd" stroke="#dddddd" points="3344.18,-1995.73 3349.96,-1986.85 3339.91,-1990.18 3344.18,-1995.73"/>
<text text-anchor="middle" x="3158.19" y="-2051.07" font-family="Times,serif" font-size="14.00">Contact from PEMS</text>
</g>
<!-- 45183&#45;&gt;45184 -->
<g id="edge66" class="edge">
<title>45183&#45;&gt;45184</title>
<path fill="none" stroke="black" d="M2976.84,-2031.89C2992.68,-2020.74 3009.76,-2010.79 3027.31,-2003.87 3135.85,-1961.12 3178.39,-2021.26 3289.06,-1984.37 3300.52,-1980.56 3311.98,-1975.73 3323.19,-1970.27"/>
<polygon fill="black" stroke="black" points="3324.73,-1973.41 3332.07,-1965.77 3321.56,-1967.17 3324.73,-1973.41"/>
<text text-anchor="middle" x="3158.19" y="-2007.07" font-family="Times,serif" font-size="14.00">Contact from courts</text>
</g>
<!-- 45183&#45;&gt;45184 -->
<g id="edge67" class="edge">
<title>45183&#45;&gt;45184</title>
<path fill="none" stroke="black" d="M2959.02,-2016.28C2978.7,-1995.55 3001.78,-1976.25 3027.31,-1963.87 3079.8,-1938.43 3232.18,-1957.25 3289.06,-1944.37 3294.95,-1943.04 3300.9,-1941.53 3306.88,-1939.88"/>
<polygon fill="black" stroke="black" points="3307.57,-1943.32 3316.2,-1937.18 3305.62,-1936.6 3307.57,-1943.32"/>
<text text-anchor="middle" x="3158.19" y="-1967.07" font-family="Times,serif" font-size="14.00">Contact from UKBA</text>
</g>
<!-- 45183&#45;&gt;45184 -->
<g id="edge68" class="edge">
<title>45183&#45;&gt;45184</title>
<path fill="none" stroke="black" d="M2943.32,-2006.47C2965.01,-1974.48 2993.05,-1942.98 3027.31,-1923.87 3078.26,-1895.47 3231.06,-1910.53 3289.06,-1904.37 3291.6,-1904.11 3294.17,-1903.83 3296.75,-1903.54"/>
<polygon fill="black" stroke="black" points="3297.11,-1907.02 3306.64,-1902.41 3296.31,-1900.07 3297.11,-1907.02"/>
<text text-anchor="middle" x="3158.19" y="-1927.07" font-family="Times,serif" font-size="14.00">Contact from police</text>
</g>
<!-- 45183&#45;&gt;45184 -->
<g id="edge69" class="edge">
<title>45183&#45;&gt;45184</title>
<path fill="none" stroke="black" d="M2928.64,-2000.23C2950.52,-1955.68 2982.48,-1909.35 3027.31,-1883.87 3050.56,-1870.67 3184.67,-1872.06 3295.42,-1875.68"/>
<polygon fill="black" stroke="black" points="3295.12,-1879.17 3305.23,-1876.01 3295.35,-1872.17 3295.12,-1879.17"/>
<text text-anchor="middle" x="3158.19" y="-1887.07" font-family="Times,serif" font-size="14.00">Post release check by Establishment</text>
</g>
<!-- 45183&#45;&gt;45184 -->
<g id="edge70" class="edge">
<title>45183&#45;&gt;45184</title>
<path fill="none" stroke="black" d="M2919.97,-1997.5C2941.02,-1943.47 2974.74,-1884.53 3027.31,-1852.87 3071.81,-1826.08 3196.11,-1837.99 3298.23,-1853.97"/>
<polygon fill="black" stroke="black" points="3297.38,-1857.38 3307.81,-1855.49 3298.48,-1850.46 3297.38,-1857.38"/>
<text text-anchor="middle" x="3158.19" y="-1856.07" font-family="Times,serif" font-size="14.00">Contact from other agency : Please enter details</text>
</g>
<!-- 45183&#45;&gt;45184 -->
<g id="edge71" class="edge">
<title>45183&#45;&gt;45184</title>
<path fill="none" stroke="black" d="M2911.55,-1995.62C2930.87,-1930.83 2965.61,-1856.21 3027.31,-1816.87 3076.36,-1785.61 3232,-1805.61 3289.06,-1816.87 3295.46,-1818.14 3301.92,-1819.66 3308.39,-1821.39"/>
<polygon fill="black" stroke="black" points="3307.24,-1824.7 3317.82,-1824.07 3309.16,-1817.97 3307.24,-1824.7"/>
<text text-anchor="middle" x="3158.19" y="-1820.07" font-family="Times,serif" font-size="14.00">Sentence calculations (new receptions)</text>
</g>
<!-- 45183&#45;&gt;45184 -->
<g id="edge72" class="edge">
<title>45183&#45;&gt;45184</title>
<path fill="none" stroke="black" d="M2904.42,-1994.31C2921.38,-1918.88 2956.15,-1827.42 3027.31,-1779.87 3075.68,-1747.56 3233.25,-1763.48 3289.06,-1779.87 3300.91,-1783.35 3312.71,-1788.01 3324.22,-1793.43"/>
<polygon fill="black" stroke="black" points="3322.37,-1796.43 3332.89,-1797.71 3325.47,-1790.15 3322.37,-1796.43"/>
<text text-anchor="middle" x="3158.19" y="-1783.07" font-family="Times,serif" font-size="14.00">Other: Please explain</text>
</g>
<!-- 45183&#45;&gt;45184 -->
<g id="edge73" class="edge">
<title>45183&#45;&gt;45184</title>
<path fill="none" stroke="black" d="M2898.15,-1993.54C2912.19,-1907.33 2946.04,-1797.4 3027.31,-1740.87 3122.82,-1674.45 3180.31,-1699.58 3289.06,-1740.87 3308.22,-1748.15 3326.54,-1758.89 3343.5,-1771.26"/>
<polygon fill="black" stroke="black" points="3340.95,-1773.72 3351.03,-1776.96 3345.17,-1768.14 3340.95,-1773.72"/>
<text text-anchor="middle" x="3158.19" y="-1744.07" font-family="Times,serif" font-size="14.00">Contact from PEMS</text>
</g>
<!-- 45184&#45;&gt;END_NODE -->
<g id="edge74" class="edge">
<title>45184&#45;&gt;END_NODE</title>
<path fill="none" stroke="#dddddd" d="M3570.62,-1957.8C3598.21,-1972.33 3628.04,-1985.93 3657.22,-1995.37 3721.44,-2016.15 3740.39,-2014.37 3807.89,-2014.37 3807.89,-2014.37 3807.89,-2014.37 5103.43,-2014.37 5842.88,-2014.37 6027.72,-2024.37 6767.17,-2024.37 6767.17,-2024.37 6767.17,-2024.37 8411.06,-2024.37 8538.86,-2024.37 8689.62,-2034.38 8762.68,-2039.87"/>
<polygon fill="#dddddd" stroke="#dddddd" points="8761.98,-2043.33 8772.22,-2040.6 8762.51,-2036.35 8761.98,-2043.33"/>
<text text-anchor="middle" x="6135.02" y="-2025.97" font-family="Times,serif" font-size="14.00">Date:</text>
</g>
<!-- 45185 -->
<g id="node9" class="node">
<title>45185</title>
<ellipse fill="none" stroke="black" cx="3808.89" cy="-1834.37" rx="151.67" ry="151.67"/>
<text text-anchor="middle" x="3808.89" y="-1829.32" font-family="Times,serif" font-size="14.00">What was the category of the person?</text>
</g>
<!-- 45184&#45;&gt;45185 -->
<g id="edge75" class="edge">
<title>45184&#45;&gt;45185</title>
<path fill="none" stroke="black" d="M3590.99,-1863.51C3609.36,-1861.04 3628.3,-1858.5 3646.98,-1855.99"/>
<polygon fill="black" stroke="black" points="3647.31,-1859.47 3656.76,-1854.67 3646.38,-1852.54 3647.31,-1859.47"/>
<text text-anchor="middle" x="3624.6" y="-1863.01" font-family="Times,serif" font-size="14.00">Date:</text>
</g>
<!-- 45185&#45;&gt;END_NODE -->
<g id="edge76" class="edge">
<title>45185&#45;&gt;END_NODE</title>
<path fill="none" stroke="#dddddd" d="M3942.1,-1907.29C4013.37,-1940 4104.11,-1971.37 4190.05,-1971.37 4190.05,-1971.37 4190.05,-1971.37 5824.56,-1971.37 6243.55,-1971.37 6348.18,-1986.37 6767.17,-1986.37 6767.17,-1986.37 6767.17,-1986.37 8411.06,-1986.37 8564.71,-1986.37 8610.21,-1961.67 8755.94,-2010.37 8760.98,-2012.06 8766.01,-2014.36 8770.83,-2016.97"/>
<polygon fill="#dddddd" stroke="#dddddd" points="8768.71,-2019.78 8779.09,-2021.89 8772.29,-2013.77 8768.71,-2019.78"/>
<text text-anchor="middle" x="6388.73" y="-1986.33" font-family="Times,serif" font-size="14.00">Enter details:</text>
</g>
<!-- 45186 -->
<g id="node10" class="node">
<title>45186</title>
<ellipse fill="none" stroke="black" cx="4191.05" cy="-1744.37" rx="122.49" ry="122.49"/>
<text text-anchor="middle" x="4191.05" y="-1739.32" font-family="Times,serif" font-size="14.00">What was the prisoner status?</text>
</g>
<!-- 45185&#45;&gt;45186 -->
<g id="edge77" class="edge">
<title>45185&#45;&gt;45186</title>
<path fill="none" stroke="black" d="M3956.87,-1799.58C3990.94,-1791.51 4026.96,-1782.98 4060.23,-1775.11"/>
<polygon fill="black" stroke="black" points="4061.01,-1778.52 4069.93,-1772.81 4059.39,-1771.71 4061.01,-1778.52"/>
<text text-anchor="middle" x="4014.55" y="-1795.27" font-family="Times,serif" font-size="14.00">Enter details:</text>
</g>
<!-- 45186&#45;&gt;END_NODE -->
<g id="edge78" class="edge">
<title>45186&#45;&gt;END_NODE</title>
<path fill="none" stroke="#dddddd" d="M4260.59,-1845.51C4280.75,-1867.9 4304.71,-1888.94 4331.54,-1902.37 4484,-1978.71 4543.42,-1933.37 4713.92,-1933.37 4713.92,-1933.37 4713.92,-1933.37 5824.56,-1933.37 6243.51,-1933.37 6348.21,-1941.37 6767.17,-1941.37 6767.17,-1941.37 6767.17,-1941.37 8411.06,-1941.37 8564.96,-1941.37 8622.34,-1895.98 8755.94,-1972.37 8768.61,-1979.62 8778.94,-1991.46 8786.91,-2003.41"/>
<polygon fill="#dddddd" stroke="#dddddd" points="8783.76,-2004.97 8791.99,-2011.64 8789.71,-2001.29 8783.76,-2004.97"/>
<text text-anchor="middle" x="6580.51" y="-1944.44" font-family="Times,serif" font-size="14.00">Sentenced prisoner</text>
</g>
<!-- 45186&#45;&gt;END_NODE -->
<g id="edge79" class="edge">
<title>45186&#45;&gt;END_NODE</title>
<path fill="none" stroke="#dddddd" d="M4284.32,-1824.39C4299.33,-1834.22 4315.31,-1843.02 4331.54,-1849.37 4490.59,-1911.7 4543.09,-1888.37 4713.92,-1888.37 4713.92,-1888.37 4713.92,-1888.37 8411.06,-1888.37 8565.17,-1888.37 8631.91,-1832.9 8755.94,-1924.37 8779.65,-1941.86 8792.41,-1972.64 8799.22,-1998.52"/>
<polygon fill="#dddddd" stroke="#dddddd" points="8795.79,-1999.24 8801.52,-2008.16 8802.6,-1997.62 8795.79,-1999.24"/>
<text text-anchor="middle" x="6580.51" y="-1891.57" font-family="Times,serif" font-size="14.00">Remand prisoner</text>
</g>
<!-- 45186&#45;&gt;END_NODE -->
<g id="edge80" class="edge">
<title>45186&#45;&gt;END_NODE</title>
<path fill="none" stroke="#dddddd" d="M4305.5,-1789.36C4314.24,-1791.99 4322.98,-1794.38 4331.54,-1796.37 4497.9,-1835.19 4543.09,-1835.37 4713.92,-1835.37 4713.92,-1835.37 4713.92,-1835.37 8411.06,-1835.37 8565.04,-1835.37 8637.35,-1770.16 8755.94,-1868.37 8793.75,-1899.69 8804.41,-1957.34 8806.94,-1997.9"/>
<polygon fill="#dddddd" stroke="#dddddd" points="8803.44,-1998.03 8807.4,-2007.85 8810.44,-1997.7 8803.44,-1998.03"/>
<text text-anchor="middle" x="6580.51" y="-1838.57" font-family="Times,serif" font-size="14.00">Immigration detainee</text>
</g>
<!-- 45186&#45;&gt;END_NODE -->
<g id="edge81" class="edge">
<title>45186&#45;&gt;END_NODE</title>
<path fill="none" stroke="#dddddd" d="M4313.13,-1758.2C4418.79,-1769.07 4576.29,-1782.37 4713.92,-1782.37 4713.92,-1782.37 4713.92,-1782.37 6389.73,-1782.37 6888.49,-1782.37 7013.09,-1796.37 7511.85,-1796.37 7511.85,-1796.37 7511.85,-1796.37 8411.06,-1796.37 8487.76,-1796.37 8697.19,-1761.06 8755.94,-1810.37 8784.17,-1834.07 8797.73,-1937.49 8803.37,-1998.29"/>
<polygon fill="#dddddd" stroke="#dddddd" points="8799.86,-1998.32 8804.23,-2007.97 8806.83,-1997.7 8799.86,-1998.32"/>
<text text-anchor="middle" x="6580.51" y="-1787.34" font-family="Times,serif" font-size="14.00">Recall prisoner</text>
</g>
<!-- 45186&#45;&gt;END_NODE -->
<g id="edge82" class="edge">
<title>45186&#45;&gt;END_NODE</title>
<path fill="none" stroke="#dddddd" d="M4313.76,-1745.26C4748.05,-1748.33 6262.23,-1758.37 7511.85,-1758.37 7511.85,-1758.37 7511.85,-1758.37 8411.06,-1758.37 8487.85,-1758.37 8698.29,-1729.64 8755.94,-1780.37 8787.87,-1808.48 8800.13,-1930.69 8804.54,-1998.18"/>
<polygon fill="#dddddd" stroke="#dddddd" points="8801.02,-1998.04 8805.13,-2007.81 8808.01,-1997.61 8801.02,-1998.04"/>
<text text-anchor="middle" x="6580.51" y="-1760.34" font-family="Times,serif" font-size="14.00">Civil prisoner</text>
</g>
<!-- 45189 -->
<g id="node11" class="node">
<title>45189</title>
<ellipse fill="none" stroke="black" cx="4714.92" cy="-1522.37" rx="193.63" ry="193.63"/>
<text text-anchor="middle" x="4714.92" y="-1517.32" font-family="Times,serif" font-size="14.00">Has the person been reported UAL to the Police?</text>
</g>
<!-- 45186&#45;&gt;45189 -->
<g id="edge83" class="edge">
<title>45186&#45;&gt;45189</title>
<path fill="none" stroke="black" d="M4311.02,-1717.75C4317.95,-1716.39 4324.83,-1715.08 4331.54,-1713.87 4407.42,-1700.19 4432.45,-1719.83 4503.29,-1689.37 4523,-1680.9 4542.43,-1670.08 4561.04,-1658.03"/>
<polygon fill="black" stroke="black" points="4562.73,-1661.11 4569.13,-1652.67 4558.87,-1655.27 4562.73,-1661.11"/>
<text text-anchor="middle" x="4417.41" y="-1717.07" font-family="Times,serif" font-size="14.00">Sentenced prisoner</text>
</g>
<!-- 45186&#45;&gt;45189 -->
<g id="edge84" class="edge">
<title>45186&#45;&gt;45189</title>
<path fill="none" stroke="black" d="M4296.88,-1682.48C4308.33,-1677.29 4320.01,-1672.61 4331.54,-1668.87 4404.78,-1645.16 4430.49,-1671.41 4503.29,-1646.37 4515.95,-1642.02 4528.7,-1636.85 4541.31,-1631.14"/>
<polygon fill="black" stroke="black" points="4542.43,-1634.48 4550.02,-1627.09 4539.48,-1628.14 4542.43,-1634.48"/>
<text text-anchor="middle" x="4417.41" y="-1672.07" font-family="Times,serif" font-size="14.00">Remand prisoner</text>
</g>
<!-- 45186&#45;&gt;45189 -->
<g id="edge85" class="edge">
<title>45186&#45;&gt;45189</title>
<path fill="none" stroke="black" d="M4278.92,-1658.36C4295.36,-1645.78 4313.19,-1634.26 4331.54,-1625.87 4401.79,-1593.77 4428.49,-1618.62 4503.29,-1599.37 4509.63,-1597.74 4516.05,-1595.99 4522.5,-1594.15"/>
<polygon fill="black" stroke="black" points="4523.33,-1597.55 4531.94,-1591.38 4521.36,-1590.84 4523.33,-1597.55"/>
<text text-anchor="middle" x="4417.41" y="-1629.07" font-family="Times,serif" font-size="14.00">Immigration detainee</text>
</g>
<!-- 45186&#45;&gt;45189 -->
<g id="edge86" class="edge">
<title>45186&#45;&gt;45189</title>
<path fill="none" stroke="black" d="M4258.64,-1641.88C4279.18,-1617.62 4303.8,-1594.34 4331.54,-1578.87 4348.51,-1569.41 4428.37,-1556.95 4510.75,-1546.14"/>
<polygon fill="black" stroke="black" points="4511.16,-1549.62 4520.62,-1544.85 4510.25,-1542.67 4511.16,-1549.62"/>
<text text-anchor="middle" x="4417.41" y="-1582.07" font-family="Times,serif" font-size="14.00">Recall prisoner</text>
</g>
<!-- 45186&#45;&gt;45189 -->
<g id="edge87" class="edge">
<title>45186&#45;&gt;45189</title>
<path fill="none" stroke="black" d="M4237.69,-1630.75C4259.78,-1590.97 4290.58,-1550.59 4331.54,-1527.87 4385.65,-1497.86 4451.04,-1488.97 4512.33,-1489.8"/>
<polygon fill="black" stroke="black" points="4512.13,-1493.3 4522.21,-1490.04 4512.29,-1486.3 4512.13,-1493.3"/>
<text text-anchor="middle" x="4417.41" y="-1531.07" font-family="Times,serif" font-size="14.00">Civil prisoner</text>
</g>
<!-- 45189&#45;&gt;END_NODE -->
<g id="edge97" class="edge">
<title>45189&#45;&gt;END_NODE</title>
<path fill="none" stroke="#dddddd" d="M4871.82,-1636.28C4889.64,-1645.46 4908.07,-1653.46 4926.56,-1659.37 5163.34,-1735.17 5236.81,-1683.37 5485.43,-1683.37 5485.43,-1683.37 5485.43,-1683.37 6389.73,-1683.37 6639.22,-1683.37 7262.35,-1720.37 7511.85,-1720.37 7511.85,-1720.37 7511.85,-1720.37 8411.06,-1720.37 8487.88,-1720.37 8699,-1692.8 8755.94,-1744.37 8792.53,-1777.51 8802.8,-1922.46 8805.68,-1997.69"/>
<polygon fill="#dddddd" stroke="#dddddd" points="8802.18,-1997.75 8806.03,-2007.63 8809.18,-1997.51 8802.18,-1997.75"/>
<text text-anchor="middle" x="6768.17" y="-1700.19" font-family="Times,serif" font-size="14.00">Yes: Date</text>
</g>
<!-- 45189&#45;&gt;END_NODE -->
<g id="edge98" class="edge">
<title>45189&#45;&gt;END_NODE</title>
<path fill="none" stroke="#dddddd" d="M4888.07,-1609.82C4900.9,-1614.3 4913.8,-1618.24 4926.56,-1621.37 5167.98,-1680.75 5236.81,-1645.37 5485.43,-1645.37 5485.43,-1645.37 5485.43,-1645.37 6389.73,-1645.37 6639.22,-1645.37 7262.35,-1682.37 7511.85,-1682.37 7511.85,-1682.37 7511.85,-1682.37 8411.06,-1682.37 8487.93,-1682.37 8699.63,-1657.03 8755.94,-1709.37 8797.09,-1747.63 8805.13,-1915.68 8806.57,-1997.83"/>
<polygon fill="#dddddd" stroke="#dddddd" points="8803.07,-1997.85 8806.72,-2007.79 8810.07,-1997.74 8803.07,-1997.85"/>
<text text-anchor="middle" x="6768.17" y="-1662.19" font-family="Times,serif" font-size="14.00">Police Incident Number:</text>
</g>
<!-- 45189&#45;&gt;END_NODE -->
<g id="edge99" class="edge">
<title>45189&#45;&gt;END_NODE</title>
<path fill="none" stroke="#dddddd" d="M4906.2,-1555.18C5061.54,-1579.11 5287.01,-1607.37 5485.43,-1607.37 5485.43,-1607.37 5485.43,-1607.37 6389.73,-1607.37 6888.72,-1607.37 7012.86,-1644.37 7511.85,-1644.37 7511.85,-1644.37 7511.85,-1644.37 8411.06,-1644.37 8564.88,-1644.37 8644.34,-1567.51 8755.94,-1673.37 8801.8,-1716.88 8807.31,-1908.78 8807.32,-1997.77"/>
<polygon fill="#dddddd" stroke="#dddddd" points="8803.82,-1997.59 8807.3,-2007.59 8810.82,-1997.6 8803.82,-1997.59"/>
<text text-anchor="middle" x="6768.17" y="-1622.43" font-family="Times,serif" font-size="14.00">No</text>
</g>
<!-- 45188 -->
<g id="node13" class="node">
<title>45188</title>
<ellipse fill="none" stroke="black" cx="5486.43" cy="-1392.37" rx="186.98" ry="186.98"/>
<text text-anchor="middle" x="5486.43" y="-1387.32" font-family="Times,serif" font-size="14.00">Has the release in error been reported to NOU?</text>
</g>
<!-- 45189&#45;&gt;45188 -->
<g id="edge100" class="edge">
<title>45189&#45;&gt;45188</title>
<path fill="none" stroke="black" d="M4908.73,-1529.54C5018.6,-1529.14 5157.95,-1521.03 5278.31,-1490.37 5288.46,-1487.79 5298.72,-1484.7 5308.96,-1481.23"/>
<polygon fill="black" stroke="black" points="5309.91,-1484.61 5318.18,-1477.99 5307.59,-1478 5309.91,-1484.61"/>
<text text-anchor="middle" x="5102.43" y="-1532.52" font-family="Times,serif" font-size="14.00">Yes: Date</text>
</g>
<!-- 45189&#45;&gt;45188 -->
<g id="edge101" class="edge">
<title>45189&#45;&gt;45188</title>
<path fill="none" stroke="black" d="M4902.81,-1474.2C4910.81,-1472.64 4918.75,-1471.19 4926.56,-1469.87 5081.34,-1443.82 5123.2,-1462.44 5278.31,-1438.37 5283.02,-1437.64 5287.78,-1436.87 5292.58,-1436.06"/>
<polygon fill="black" stroke="black" points="5293.08,-1439.52 5302.34,-1434.36 5291.88,-1432.63 5293.08,-1439.52"/>
<text text-anchor="middle" x="5102.43" y="-1473.07" font-family="Times,serif" font-size="14.00">Police Incident Number:</text>
</g>
<!-- 45189&#45;&gt;45188 -->
<g id="edge102" class="edge">
<title>45189&#45;&gt;45188</title>
<path fill="none" stroke="black" d="M4885.79,-1430.87C4899.34,-1425.81 4913.02,-1421.38 4926.56,-1417.87 5043.94,-1387.52 5179.74,-1380.7 5288.07,-1381.69"/>
<polygon fill="black" stroke="black" points="5287.92,-1385.19 5297.96,-1381.8 5288,-1378.19 5287.92,-1385.19"/>
<text text-anchor="middle" x="5102.43" y="-1421.07" font-family="Times,serif" font-size="14.00">No</text>
</g>
<!-- 45187 -->
<g id="node12" class="node">
<title>45187</title>
<ellipse fill="#dddddd" stroke="#dddddd" cx="8410.06" cy="-699.37" rx="193.63" ry="193.63"/>
<text text-anchor="middle" x="8410.06" y="-694.32" font-family="Times,serif" font-size="14.00">Has the person been reported UAL to the Police?</text>
</g>
<!-- 45187&#45;&gt;END_NODE -->
<g id="edge88" class="edge">
<title>45187&#45;&gt;END_NODE</title>
<path fill="none" stroke="#dddddd" d="M8555.62,-827.51C8574.58,-850.61 8591.59,-875.85 8603.69,-902.37 8620.84,-939.95 8593.18,-1057.49 8621.69,-1087.37 8663.31,-1131 8715.27,-1062.37 8755.94,-1106.87 8786.3,-1140.1 8802.16,-1814.77 8805.91,-1997.87"/>
<polygon fill="#dddddd" stroke="#dddddd" points="8802.41,-1997.77 8806.11,-2007.69 8809.41,-1997.62 8802.41,-1997.77"/>
<text text-anchor="middle" x="8688.82" y="-1110.07" font-family="Times,serif" font-size="14.00">Yes: Date</text>
</g>
<!-- 45187&#45;&gt;END_NODE -->
<g id="edge89" class="edge">
<title>45187&#45;&gt;END_NODE</title>
<path fill="none" stroke="#dddddd" d="M8555.25,-828.09C8574.18,-851.07 8591.29,-876.13 8603.69,-902.37 8617.56,-931.73 8598.97,-1024.18 8621.69,-1047.37 8663.88,-1090.45 8715.32,-1022.32 8755.94,-1066.87 8787.66,-1101.66 8802.6,-1809.61 8806.02,-1997.78"/>
<polygon fill="#dddddd" stroke="#dddddd" points="8802.51,-1997.71 8806.19,-2007.64 8809.51,-1997.58 8802.51,-1997.71"/>
<text text-anchor="middle" x="8688.82" y="-1070.07" font-family="Times,serif" font-size="14.00">Police Incident Number:</text>
</g>
<!-- 45187&#45;&gt;END_NODE -->
<g id="edge90" class="edge">
<title>45187&#45;&gt;END_NODE</title>
<path fill="none" stroke="#dddddd" d="M8554.42,-828.89C8573.4,-851.73 8590.74,-876.53 8603.69,-902.37 8624.9,-944.71 8587.79,-974.33 8621.69,-1007.37 8664.87,-1049.46 8715.36,-982.28 8755.94,-1026.87 8789.03,-1063.24 8803.02,-1804.85 8806.11,-1997.81"/>
<polygon fill="#dddddd" stroke="#dddddd" points="8802.61,-1997.74 8806.27,-2007.68 8809.61,-1997.63 8802.61,-1997.74"/>
<text text-anchor="middle" x="8688.82" y="-1030.07" font-family="Times,serif" font-size="14.00">No</text>
</g>
<!-- 45188&#45;&gt;END_NODE -->
<g id="edge91" class="edge">
<title>45188&#45;&gt;END_NODE</title>
<path fill="none" stroke="#dddddd" d="M5629.06,-1513.63C5649.96,-1526.43 5672.06,-1537.59 5694.56,-1545.37 5790.01,-1578.39 7410.84,-1599.37 7511.85,-1599.37 7511.85,-1599.37 7511.85,-1599.37 8411.06,-1599.37 8564.96,-1599.37 8645.34,-1523.35 8755.94,-1630.37 8782.03,-1655.62 8798.51,-1895.92 8804.38,-1997.93"/>
<polygon fill="#dddddd" stroke="#dddddd" points="8800.88,-1998.08 8804.94,-2007.87 8807.87,-1997.69 8800.88,-1998.08"/>
<text text-anchor="middle" x="7126.26" y="-1601.48" font-family="Times,serif" font-size="14.00">Yes: Date</text>
</g>
<!-- 45188&#45;&gt;END_NODE -->
<g id="edge92" class="edge">
<title>45188&#45;&gt;END_NODE</title>
<path fill="none" stroke="#dddddd" d="M5646.17,-1490.28C5662.1,-1497.1 5678.38,-1503 5694.56,-1507.37 5889.52,-1560.11 7309.88,-1546.37 7511.85,-1546.37 7511.85,-1546.37 7511.85,-1546.37 8411.06,-1546.37 8564.68,-1546.37 8645.15,-1462.96 8755.94,-1569.37 8786.53,-1598.76 8800.74,-1885.02 8805.19,-1997.92"/>
<polygon fill="#dddddd" stroke="#dddddd" points="8801.68,-1997.87 8805.56,-2007.73 8808.68,-1997.6 8801.68,-1997.87"/>
<text text-anchor="middle" x="7126.26" y="-1551.18" font-family="Times,serif" font-size="14.00">No</text>
</g>
<!-- 45188&#45;&gt;END_NODE -->
<g id="edge93" class="edge">
<title>45188&#45;&gt;END_NODE</title>
<path fill="none" stroke="#dddddd" d="M5668.46,-1436.01C5797.45,-1463.33 5975.38,-1493.37 6134.02,-1493.37 6134.02,-1493.37 6134.02,-1493.37 8411.06,-1493.37 8487.8,-1493.37 8700.52,-1458.29 8755.94,-1511.37 8790.79,-1544.75 8802.58,-1875.22 8805.78,-1997.87"/>
<polygon fill="#dddddd" stroke="#dddddd" points="8802.27,-1997.65 8806.02,-2007.56 8809.27,-1997.47 8802.27,-1997.65"/>
<text text-anchor="middle" x="7126.26" y="-1496.57" font-family="Times,serif" font-size="14.00">Incident Ref No:</text>
</g>
<!-- 45190 -->
<g id="node14" class="node">
<title>45190</title>
<ellipse fill="none" stroke="black" cx="6135.02" cy="-1301.37" rx="164.46" ry="164.46"/>
<text text-anchor="middle" x="6135.02" y="-1296.32" font-family="Times,serif" font-size="14.00">Has the person been returned to custody?</text>
</g>
<!-- 45188&#45;&gt;45190 -->
<g id="edge94" class="edge">
<title>45188&#45;&gt;45190</title>
<path fill="none" stroke="black" d="M5673.71,-1393.48C5759.36,-1390.95 5861.86,-1383.62 5952.56,-1365.37 5958.14,-1364.25 5963.79,-1362.99 5969.47,-1361.62"/>
<polygon fill="black" stroke="black" points="5970.11,-1365.07 5978.95,-1359.23 5968.39,-1358.28 5970.11,-1365.07"/>
<text text-anchor="middle" x="5823.56" y="-1395.72" font-family="Times,serif" font-size="14.00">Yes: Date</text>
</g>
<!-- 45188&#45;&gt;45190 -->
<g id="edge95" class="edge">
<title>45188&#45;&gt;45190</title>
<path fill="none" stroke="black" d="M5668.72,-1349.21C5677.43,-1347.63 5686.08,-1346.18 5694.56,-1344.87 5808.25,-1327.42 5838.13,-1336.17 5952.56,-1324.37 5955.22,-1324.1 5957.91,-1323.82 5960.61,-1323.53"/>
<polygon fill="black" stroke="black" points="5960.74,-1327.04 5970.31,-1322.48 5959.99,-1320.08 5960.74,-1327.04"/>
<text text-anchor="middle" x="5823.56" y="-1348.07" font-family="Times,serif" font-size="14.00">Incident Ref No:</text>
</g>
<!-- 45188&#45;&gt;45190 -->
<g id="edge96" class="edge">
<title>45188&#45;&gt;45190</title>
<path fill="none" stroke="black" d="M5656.65,-1313.79C5669.3,-1309.86 5682.02,-1306.48 5694.56,-1303.87 5780.62,-1286 5878.22,-1283.71 5959.55,-1286.59"/>
<polygon fill="black" stroke="black" points="5959.27,-1290.09 5969.4,-1286.98 5959.54,-1283.09 5959.27,-1290.09"/>
<text text-anchor="middle" x="5823.56" y="-1307.07" font-family="Times,serif" font-size="14.00">No</text>
</g>
<!-- 45190&#45;&gt;END_NODE -->
<g id="edge103" class="edge">
<title>45190&#45;&gt;END_NODE</title>
<path fill="none" stroke="#dddddd" d="M6266.34,-1401.2C6282.88,-1410.13 6300.11,-1417.86 6317.48,-1423.37 6446.63,-1464.38 8656.97,-1386.82 8755.94,-1479.37 8793.59,-1514.58 8803.68,-1870.56 8806.1,-1998.16"/>
<polygon fill="#dddddd" stroke="#dddddd" points="8802.6,-1997.98 8806.28,-2007.92 8809.6,-1997.85 8802.6,-1997.98"/>
<text text-anchor="middle" x="7512.85" y="-1435.86" font-family="Times,serif" font-size="14.00">Yes</text>
</g>
<!-- 45190&#45;&gt;END_NODE -->
<g id="edge104" class="edge">
<title>45190&#45;&gt;END_NODE</title>
<path fill="none" stroke="#dddddd" d="M6282.27,-1375.17C6293.99,-1379.19 6305.81,-1382.68 6317.48,-1385.37 6383.5,-1400.6 8708.66,-1398.84 8755.94,-1447.37 8794.15,-1486.59 8803.92,-1865.64 8806.17,-1998.02"/>
<polygon fill="#dddddd" stroke="#dddddd" points="8802.67,-1997.86 8806.33,-2007.81 8809.67,-1997.75 8802.67,-1997.86"/>
<text text-anchor="middle" x="7512.85" y="-1407.74" font-family="Times,serif" font-size="14.00">No</text>
</g>
<!-- 45190&#45;&gt;END_NODE -->
<g id="edge105" class="edge">
<title>45190&#45;&gt;END_NODE</title>
<path fill="none" stroke="#dddddd" d="M6294.45,-1343.69C6302.21,-1345.09 6309.91,-1346.33 6317.48,-1347.37 6451.74,-1365.95 8660.87,-1329.77 8755.94,-1426.37 8795.87,-1466.94 8804.54,-1862.81 8806.34,-1998.23"/>
<polygon fill="#dddddd" stroke="#dddddd" points="8802.84,-1997.92 8806.46,-2007.87 8809.84,-1997.83 8802.84,-1997.92"/>
<text text-anchor="middle" x="7512.85" y="-1361.3" font-family="Times,serif" font-size="14.00">Other: Please enter details</text>
</g>
<!-- 45190&#45;&gt;END_NODE -->
<g id="edge109" class="edge">
<title>45190&#45;&gt;END_NODE</title>
<path fill="none" stroke="black" d="M6298.7,-1318.2C6305.04,-1318.63 6311.31,-1319.03 6317.48,-1319.37 6452.8,-1326.94 8664.26,-1291.56 8755.94,-1391.37 8796.84,-1435.9 8804.89,-1857.74 8806.44,-1998.16"/>
<polygon fill="black" stroke="black" points="8802.93,-1997.84 8806.54,-2007.81 8809.93,-1997.77 8802.93,-1997.84"/>
<text text-anchor="middle" x="7512.85" y="-1324.4" font-family="Times,serif" font-size="14.00">No</text>
</g>
<!-- 45191 -->
<g id="node15" class="node">
<title>45191</title>
<ellipse fill="none" stroke="black" cx="6580.51" cy="-1202.37" rx="102.53" ry="102.53"/>
<text text-anchor="middle" x="6580.51" y="-1197.32" font-family="Times,serif" font-size="14.00">Date returned to custody</text>
</g>
<!-- 45190&#45;&gt;45191 -->
<g id="edge106" class="edge">
<title>45190&#45;&gt;45191</title>
<path fill="none" stroke="black" d="M6299.63,-1303.84C6351.9,-1300.66 6409.3,-1292.92 6459.98,-1276.37 6468.56,-1273.57 6477.15,-1270.04 6485.57,-1266.04"/>
<polygon fill="black" stroke="black" points="6487.02,-1269.23 6494.4,-1261.63 6483.89,-1262.97 6487.02,-1269.23"/>
<text text-anchor="middle" x="6388.73" y="-1305.52" font-family="Times,serif" font-size="14.00">Yes</text>
</g>
<!-- 45190&#45;&gt;45191 -->
<g id="edge107" class="edge">
<title>45190&#45;&gt;45191</title>
<path fill="none" stroke="#dddddd" d="M6294.68,-1260.79C6302.37,-1259.07 6310,-1257.43 6317.48,-1255.87 6380.33,-1242.84 6397.13,-1245.42 6459.98,-1232.37 6463.17,-1231.71 6466.4,-1231.02 6469.67,-1230.31"/>
<polygon fill="#dddddd" stroke="#dddddd" points="6470.36,-1233.74 6479.36,-1228.15 6468.84,-1226.91 6470.36,-1233.74"/>
<text text-anchor="middle" x="6388.73" y="-1259.07" font-family="Times,serif" font-size="14.00">No</text>
</g>
<!-- 45190&#45;&gt;45191 -->
<g id="edge108" class="edge">
<title>45190&#45;&gt;45191</title>
<path fill="none" stroke="black" d="M6280.3,-1223.64C6292.64,-1219.02 6305.13,-1214.99 6317.48,-1211.87 6365.39,-1199.78 6419.78,-1196.24 6466.55,-1196.16"/>
<polygon fill="black" stroke="black" points="6466.42,-1199.66 6476.44,-1196.21 6466.45,-1192.66 6466.42,-1199.66"/>
<text text-anchor="middle" x="6388.73" y="-1215.07" font-family="Times,serif" font-size="14.00">Other: Please enter details</text>
</g>
<!-- 45191&#45;&gt;END_NODE -->
<g id="edge110" class="edge">
<title>45191&#45;&gt;END_NODE</title>
<path fill="none" stroke="#dddddd" d="M6678.12,-1234.74C6729.51,-1250.41 6794.15,-1267.67 6853.29,-1276.37 6957.91,-1291.76 8679.53,-1253.29 8755.94,-1326.37 8804.45,-1372.77 8807.34,-1847.59 8807.03,-1997.96"/>
<polygon fill="#dddddd" stroke="#dddddd" points="8803.53,-1997.52 8807,-2007.53 8810.53,-1997.54 8803.53,-1997.52"/>
<text text-anchor="middle" x="7807.82" y="-1283.78" font-family="Times,serif" font-size="14.00">Date:</text>
</g>
<!-- 45192 -->
<g id="node16" class="node">
<title>45192</title>
<ellipse fill="none" stroke="black" cx="7126.26" cy="-994.37" rx="272.96" ry="272.96"/>
<text text-anchor="middle" x="7126.26" y="-989.32" font-family="Times,serif" font-size="14.00">Was person charged with committing a further offence while at large?</text>
</g>
<!-- 45191&#45;&gt;45192 -->
<g id="edge111" class="edge">
<title>45191&#45;&gt;45192</title>
<path fill="none" stroke="black" d="M6676.85,-1165.91C6728.31,-1146.22 6794.64,-1120.85 6860.42,-1095.68"/>
<polygon fill="black" stroke="black" points="6861.46,-1099.03 6869.55,-1092.19 6858.96,-1092.49 6861.46,-1099.03"/>
<text text-anchor="middle" x="6768.17" y="-1155.31" font-family="Times,serif" font-size="14.00">Date:</text>
</g>
<!-- 45192&#45;&gt;END_NODE -->
<g id="edge112" class="edge">
<title>45192&#45;&gt;END_NODE</title>
<path fill="none" stroke="#dddddd" d="M7327.76,-1179.02C7356.22,-1197.54 7386.35,-1213.76 7417.22,-1225.37 7486.91,-1251.59 8702.76,-1236.26 8755.94,-1288.37 8806.64,-1338.06 8807.98,-1841.94 8807.17,-1997.73"/>
<polygon fill="#dddddd" stroke="#dddddd" points="8803.67,-1997.65 8807.11,-2007.67 8810.67,-1997.69 8803.67,-1997.65"/>
<text text-anchor="middle" x="8102.8" y="-1252.42" font-family="Times,serif" font-size="14.00">Yes: Please enter details of offence</text>
</g>
<!-- 45192&#45;&gt;END_NODE -->
<g id="edge113" class="edge">
<title>45192&#45;&gt;END_NODE</title>
<path fill="none" stroke="#dddddd" d="M7373.68,-1110.38C7452.73,-1142.59 7541.77,-1173.8 7626.47,-1192.37 7749.28,-1219.31 8668.82,-1170.72 8755.94,-1261.37 8807.1,-1314.61 8808.06,-1839.8 8807.17,-1998.31"/>
<polygon fill="#dddddd" stroke="#dddddd" points="8803.68,-1997.97 8807.11,-2008 8810.68,-1998.02 8803.68,-1997.97"/>
<text text-anchor="middle" x="8102.8" y="-1206.07" font-family="Times,serif" font-size="14.00">No</text>
</g>
<!-- 45193 -->
<g id="node17" class="node">
<title>45193</title>
<ellipse fill="none" stroke="black" cx="7807.82" cy="-1002.37" rx="181.35" ry="181.35"/>
<text text-anchor="middle" x="7807.82" y="-997.32" font-family="Times,serif" font-size="14.00">To which establishment was person returned?</text>
</g>
<!-- 45192&#45;&gt;45193 -->
<g id="edge114" class="edge">
<title>45192&#45;&gt;45193</title>
<path fill="none" stroke="black" d="M7399.26,-997.58C7471.38,-998.43 7547.75,-999.32 7614.65,-1000.11"/>
<polygon fill="black" stroke="black" points="7614.61,-1003.61 7624.65,-1000.23 7614.69,-996.61 7614.61,-1003.61"/>
<text text-anchor="middle" x="7512.85" y="-1003.21" font-family="Times,serif" font-size="14.00">Yes: Please enter details of offence</text>
</g>
<!-- 45192&#45;&gt;45193 -->
<g id="edge115" class="edge">
<title>45192&#45;&gt;45193</title>
<path fill="none" stroke="black" d="M7399.05,-975.98C7467.45,-973.84 7540.68,-973.7 7608.47,-977.87 7611.04,-978.03 7613.62,-978.2 7616.22,-978.38"/>
<polygon fill="black" stroke="black" points="7615.96,-981.87 7626.2,-979.12 7616.48,-974.89 7615.96,-981.87"/>
<text text-anchor="middle" x="7512.85" y="-981.07" font-family="Times,serif" font-size="14.00">No</text>
</g>
<!-- 45193&#45;&gt;END_NODE -->
<g id="edge116" class="edge">
<title>45193&#45;&gt;END_NODE</title>
<path fill="none" stroke="#dddddd" d="M7974.46,-1074.89C8047.37,-1103.98 8134.83,-1135.11 8216.42,-1154.37 8275.1,-1168.23 8714.32,-1168.76 8755.94,-1212.37 8783.24,-1240.98 8801.03,-1828.11 8805.62,-1997.81"/>
<polygon fill="#dddddd" stroke="#dddddd" points="8802.12,-1997.88 8805.89,-2007.78 8809.12,-1997.69 8802.12,-1997.88"/>
<text text-anchor="middle" x="8410.06" y="-1183.53" font-family="Times,serif" font-size="14.00">Enter details:</text>
</g>
<!-- 45194 -->
<g id="node18" class="node">
<title>45194</title>
<ellipse fill="#dddddd" stroke="#dddddd" cx="8410.06" cy="-1028.37" rx="117.37" ry="117.37"/>
<text text-anchor="middle" x="8410.06" y="-1023.32" font-family="Times,serif" font-size="14.00">How long was person UAL?</text>
</g>
<!-- 45193&#45;&gt;45194 -->
<g id="edge117" class="edge">
<title>45193&#45;&gt;45194</title>
<path fill="none" stroke="black" d="M7989.32,-1010.19C8083.49,-1014.27 8196.44,-1019.17 8281.45,-1022.85"/>
<polygon fill="black" stroke="black" points="8281.07,-1026.33 8291.21,-1023.27 8281.37,-1019.34 8281.07,-1026.33"/>
<text text-anchor="middle" x="8102.8" y="-1022.42" font-family="Times,serif" font-size="14.00">Enter details:</text>
</g>
<!-- 45194&#45;&gt;END_NODE -->
<g id="edge118" class="edge">
<title>45194&#45;&gt;END_NODE</title>
<path fill="none" stroke="#dddddd" d="M8514.11,-1083.5C8547.66,-1099.62 8585.57,-1115.95 8621.69,-1127.37 8679.44,-1145.64 8715.67,-1105.62 8755.94,-1150.87 8784.34,-1182.79 8801.51,-1820.08 8805.76,-1997.74"/>
<polygon fill="#dddddd" stroke="#dddddd" points="8802.26,-1997.82 8805.99,-2007.74 8809.26,-1997.66 8802.26,-1997.82"/>
<text text-anchor="middle" x="8688.82" y="-1154.07" font-family="Times,serif" font-size="14.00">Enter value</text>
</g>
<!-- 45195 -->
<g id="node19" class="node">
<title>45195</title>
<ellipse fill="#dddddd" stroke="#dddddd" cx="8410.06" cy="-370.37" rx="117.37" ry="117.37"/>
<text text-anchor="middle" x="8410.06" y="-365.32" font-family="Times,serif" font-size="14.00">How long was person UAL?</text>
</g>
<!-- 45195&#45;&gt;END_NODE -->
<g id="edge119" class="edge">
<title>45195&#45;&gt;END_NODE</title>
<path fill="none" stroke="#dddddd" d="M8518.58,-416.17C8551.66,-435.84 8584.41,-462.29 8603.69,-496.37 8629.48,-541.96 8586.67,-928.43 8621.69,-967.37 8662,-1012.21 8715.41,-942.24 8755.94,-986.87 8790.4,-1024.82 8803.44,-1800.49 8806.21,-1997.96"/>
<polygon fill="#dddddd" stroke="#dddddd" points="8802.7,-1997.86 8806.34,-2007.81 8809.7,-1997.76 8802.7,-1997.86"/>
<text text-anchor="middle" x="8688.82" y="-990.07" font-family="Times,serif" font-size="14.00">Hours</text>
</g>
<!-- 45195&#45;&gt;END_NODE -->
<g id="edge120" class="edge">
<title>45195&#45;&gt;END_NODE</title>
<path fill="none" stroke="#dddddd" d="M8518.51,-416.21C8551.58,-435.88 8584.34,-462.32 8603.69,-496.37 8627.31,-537.95 8589.78,-890.76 8621.69,-926.37 8661.97,-971.33 8715.56,-902.01 8755.94,-946.87 8791.62,-986.52 8803.79,-1795.68 8806.28,-1997.89"/>
<polygon fill="#dddddd" stroke="#dddddd" points="8802.78,-1997.77 8806.4,-2007.72 8809.78,-1997.68 8802.78,-1997.77"/>
<text text-anchor="middle" x="8688.82" y="-950.07" font-family="Times,serif" font-size="14.00">Days</text>
</g>
<!-- 45195&#45;&gt;END_NODE -->
<g id="edge121" class="edge">
<title>45195&#45;&gt;END_NODE</title>
<path fill="none" stroke="#dddddd" d="M8518.41,-416.26C8551.48,-435.94 8584.26,-462.37 8603.69,-496.37 8624.99,-533.65 8593.31,-850.15 8621.69,-882.37 8661.73,-927.83 8715.95,-860.38 8755.94,-905.87 8792.57,-947.54 8804.07,-1791.04 8806.34,-1997.88"/>
<polygon fill="#dddddd" stroke="#dddddd" points="8802.84,-1997.72 8806.45,-2007.69 8809.84,-1997.65 8802.84,-1997.72"/>
<text text-anchor="middle" x="8688.82" y="-909.07" font-family="Times,serif" font-size="14.00">Weeks</text>
</g>
<!-- 45195&#45;&gt;END_NODE -->
<g id="edge122" class="edge">
<title>45195&#45;&gt;END_NODE</title>
<path fill="none" stroke="#dddddd" d="M8518.54,-416.48C8551.51,-436.15 8584.2,-462.52 8603.69,-496.37 8622.46,-528.97 8597.15,-805.88 8621.69,-834.37 8661.44,-880.52 8716.43,-815.52 8755.94,-861.87 8793.42,-905.84 8804.31,-1786.13 8806.39,-1997.86"/>
<polygon fill="#dddddd" stroke="#dddddd" points="8802.89,-1997.67 8806.48,-2007.63 8809.89,-1997.6 8802.89,-1997.67"/>
<text text-anchor="middle" x="8688.82" y="-865.07" font-family="Times,serif" font-size="14.00">Months</text>
</g>
<!-- 45195&#45;&gt;END_NODE -->
<g id="edge123" class="edge">
<title>45195&#45;&gt;END_NODE</title>
<path fill="none" stroke="#dddddd" d="M8518.33,-416.6C8551.29,-436.28 8584.02,-462.62 8603.69,-496.37 8635.31,-550.63 8581.82,-729.87 8621.69,-778.37 8660.88,-826.05 8717.29,-765.76 8755.94,-813.87 8793.69,-860.87 8804.41,-1780.85 8806.41,-1997.82"/>
<polygon fill="#dddddd" stroke="#dddddd" points="8802.91,-1997.59 8806.5,-2007.56 8809.91,-1997.53 8802.91,-1997.59"/>
<text text-anchor="middle" x="8688.82" y="-817.07" font-family="Times,serif" font-size="14.00">Other</text>
</g>
<!-- 45235 -->
<g id="node20" class="node">
<title>45235</title>
<ellipse fill="none" stroke="black" cx="8410.06" cy="-117.37" rx="117.37" ry="117.37"/>
<text text-anchor="middle" x="8410.06" y="-112.32" font-family="Times,serif" font-size="14.00">How long was person UAL?</text>
</g>
<!-- 45235&#45;&gt;END_NODE -->
<g id="edge124" class="edge">
<title>45235&#45;&gt;END_NODE</title>
<path fill="none" stroke="black" d="M8518.33,-163.56C8551.49,-183.42 8584.36,-210.09 8603.69,-244.37 8628.92,-289.12 8591.77,-664.62 8621.69,-706.37 8658.91,-758.32 8718.7,-705.94 8755.94,-757.87 8792.78,-809.26 8804.24,-1775.58 8806.39,-1997.99"/>
<polygon fill="black" stroke="black" points="8802.89,-1997.73 8806.48,-2007.69 8809.89,-1997.66 8802.89,-1997.73"/>
<text text-anchor="middle" x="8688.82" y="-761.07" font-family="Times,serif" font-size="14.00">Hours</text>
</g>
<!-- 45235&#45;&gt;END_NODE -->
<g id="edge125" class="edge">
<title>45235&#45;&gt;END_NODE</title>
<path fill="none" stroke="black" d="M8518.36,-163.84C8551.42,-183.69 8584.22,-210.29 8603.69,-244.37 8643.21,-313.54 8581.26,-533.74 8621.69,-602.37 8657.35,-662.92 8720.67,-625.1 8755.94,-685.87 8789.56,-743.8 8803.56,-1767.93 8806.29,-1997.82"/>
<polygon fill="black" stroke="black" points="8802.78,-1997.61 8806.4,-2007.57 8809.78,-1997.53 8802.78,-1997.61"/>
<text text-anchor="middle" x="8688.82" y="-689.07" font-family="Times,serif" font-size="14.00">Days</text>
</g>
<!-- 45235&#45;&gt;END_NODE -->
<g id="edge126" class="edge">
<title>45235&#45;&gt;END_NODE</title>
<path fill="none" stroke="black" d="M8518.01,-164.65C8550.83,-184.5 8583.57,-210.9 8603.69,-244.37 8647.39,-317.08 8587.38,-356.8 8621.69,-434.37 8657.55,-515.44 8722.52,-499.77 8755.94,-581.87 8810.37,-715.57 8808.23,-1765.12 8807.07,-1997.8"/>
<polygon fill="black" stroke="black" points="8803.57,-1997.65 8807.02,-2007.67 8810.57,-1997.69 8803.57,-1997.65"/>
<text text-anchor="middle" x="8688.82" y="-585.07" font-family="Times,serif" font-size="14.00">Weeks</text>
</g>
<!-- 45235&#45;&gt;END_NODE -->
<g id="edge127" class="edge">
<title>45235&#45;&gt;END_NODE</title>
<path fill="none" stroke="black" d="M8515.12,-170.25C8599.53,-219.94 8711.55,-303.22 8755.94,-413.87 8786.2,-489.31 8803.11,-1741.57 8806.26,-1997.8"/>
<polygon fill="black" stroke="black" points="8802.75,-1997.77 8806.38,-2007.72 8809.75,-1997.68 8802.75,-1997.77"/>
<text text-anchor="middle" x="8688.82" y="-417.07" font-family="Times,serif" font-size="14.00">Months</text>
</g>
<!-- 45235&#45;&gt;END_NODE -->
<g id="edge128" class="edge">
<title>45235&#45;&gt;END_NODE</title>
<path fill="none" stroke="black" d="M8527.68,-122.69C8605.71,-133 8703.4,-160.37 8755.94,-230.87 8810.3,-303.82 8807.95,-1723.2 8806.99,-1997.65"/>
<polygon fill="black" stroke="black" points="8803.49,-1997.6 8806.95,-2007.61 8810.49,-1997.62 8803.49,-1997.6"/>
<text text-anchor="middle" x="8688.82" y="-234.07" font-family="Times,serif" font-size="14.00">Other</text>
</g>
</g>
</svg>
