<?xml version="1.0" encoding="UTF-8" standalone="no"?>
<!DOCTYPE svg PUBLIC "-//W3C//DTD SVG 1.1//EN"
 "http://www.w3.org/Graphics/SVG/1.1/DTD/svg11.dtd">
<!-- Generated by graphviz version 12.1.1 (20240910.0053)
 -->
<!-- Title: RELEASED_IN_ERROR Pages: 1 -->
<svg width="8830pt" height="3543pt"
 viewBox="0.00 0.00 8830.01 3543.19" xmlns="http://www.w3.org/2000/svg" xmlns:xlink="http://www.w3.org/1999/xlink">
<g id="graph0" class="graph" transform="scale(1 1) rotate(0) translate(4 3539.19)">
<title>RELEASED_IN_ERROR</title>
<polygon fill="white" stroke="none" points="-4,4 -4,-3539.19 8826.01,-3539.19 8826.01,4 -4,4"/>
<!-- START_NODE -->
<g id="node1" class="node">
<title>START_NODE</title>
</g>
<!-- 45179 -->
<g id="node2" class="node">
<title>45179</title>
<ellipse fill="none" stroke="black" cx="238.81" cy="-3281.37" rx="125.56" ry="125.56"/>
<text text-anchor="middle" x="238.81" y="-3276.32" font-family="Times,serif" font-size="14.00">How was this person released?</text>
</g>
<!-- START_NODE&#45;&gt;45179 -->
<g id="edge1" class="edge">
<title>START_NODE&#45;&gt;45179</title>
<path fill="none" stroke="black" d="M53.73,-3281.37C66.69,-3281.37 83.5,-3281.37 101.69,-3281.37"/>
<polygon fill="black" stroke="black" points="101.66,-3284.87 111.66,-3281.37 101.66,-3277.87 101.66,-3284.87"/>
<text text-anchor="middle" x="83.62" y="-3284.57" font-family="Times,serif" font-size="14.00">start</text>
</g>
<!-- END_NODE -->
<g id="node3" class="node">
<title>END_NODE</title>
<ellipse fill="none" stroke="black" cx="8788.15" cy="-2040.37" rx="29.86" ry="29.86"/>
<ellipse fill="none" stroke="black" cx="8788.15" cy="-2040.37" rx="33.86" ry="33.86"/>
<text text-anchor="middle" x="8788.15" y="-2035.32" font-family="Times,serif" font-size="14.00">END</text>
</g>
<!-- 45179&#45;&gt;END_NODE -->
<g id="edge2" class="edge">
<title>45179&#45;&gt;END_NODE</title>
<path fill="none" stroke="#dddddd" d="M296.2,-3393.31C318.46,-3426.21 347.22,-3458.64 382.38,-3478.37 510.34,-3550.22 564.79,-3504.37 711.53,-3504.37 711.53,-3504.37 711.53,-3504.37 8395.68,-3504.37 8547.5,-3504.37 8631.15,-3587.9 8736.3,-3478.37 8785.64,-3426.98 8787.43,-2325.07 8787.23,-2085.91"/>
<polygon fill="#dddddd" stroke="#dddddd" points="8790.73,-2086.05 8787.22,-2076.06 8783.73,-2086.06 8790.73,-2086.05"/>
<text text-anchor="middle" x="4410.32" y="-3507.57" font-family="Times,serif" font-size="14.00">Bail</text>
</g>
<!-- 45179&#45;&gt;END_NODE -->
<g id="edge3" class="edge">
<title>45179&#45;&gt;END_NODE</title>
<path fill="none" stroke="#dddddd" d="M311.82,-3383.56C332.1,-3405.2 355.94,-3425.4 382.38,-3438.37 514.12,-3503.02 564.79,-3464.37 711.53,-3464.37 711.53,-3464.37 711.53,-3464.37 8395.68,-3464.37 8471.59,-3464.37 8683.7,-3493.11 8736.3,-3438.37 8784.21,-3388.51 8787.12,-2320.61 8787.18,-2085.78"/>
<polygon fill="#dddddd" stroke="#dddddd" points="8790.68,-2086.12 8787.18,-2076.12 8783.68,-2086.12 8790.68,-2086.12"/>
<text text-anchor="middle" x="4410.32" y="-3467.57" font-family="Times,serif" font-size="14.00">Final discharge/end of sentence</text>
</g>
<!-- 45179&#45;&gt;END_NODE -->
<g id="edge4" class="edge">
<title>45179&#45;&gt;END_NODE</title>
<path fill="none" stroke="#dddddd" d="M329.62,-3368.33C346.11,-3380.27 363.96,-3390.96 382.38,-3398.37 518.49,-3453.22 564.79,-3424.37 711.53,-3424.37 711.53,-3424.37 711.53,-3424.37 8395.68,-3424.37 8471.59,-3424.37 8683.67,-3453.08 8736.3,-3398.37 8782.77,-3350.07 8786.81,-2316.98 8787.13,-2085.94"/>
<polygon fill="#dddddd" stroke="#dddddd" points="8790.63,-2086.14 8787.14,-2076.14 8783.63,-2086.13 8790.63,-2086.14"/>
<text text-anchor="middle" x="4410.32" y="-3427.57" font-family="Times,serif" font-size="14.00">Police production</text>
</g>
<!-- 45179&#45;&gt;END_NODE -->
<g id="edge5" class="edge">
<title>45179&#45;&gt;END_NODE</title>
<path fill="none" stroke="#dddddd" d="M347.17,-3345.3C358.78,-3350.4 370.64,-3354.91 382.38,-3358.37 523.12,-3399.92 564.79,-3384.37 711.53,-3384.37 711.53,-3384.37 711.53,-3384.37 8395.68,-3384.37 8471.59,-3384.37 8683.64,-3413.05 8736.3,-3358.37 8781.34,-3311.61 8786.49,-2313.08 8787.08,-2086.03"/>
<polygon fill="#dddddd" stroke="#dddddd" points="8790.58,-2086.12 8787.1,-2076.11 8783.58,-2086.1 8790.58,-2086.12"/>
<text text-anchor="middle" x="4410.32" y="-3387.57" font-family="Times,serif" font-size="14.00">Court production/pems</text>
</g>
<!-- 45179&#45;&gt;END_NODE -->
<g id="edge6" class="edge">
<title>45179&#45;&gt;END_NODE</title>
<path fill="none" stroke="#dddddd" d="M357.84,-3322.04C366.09,-3324.08 374.32,-3325.89 382.38,-3327.37 526.45,-3353.87 565.05,-3344.37 711.53,-3344.37 711.53,-3344.37 711.53,-3344.37 8395.68,-3344.37 8471.56,-3344.37 8683.47,-3374.85 8736.3,-3320.37 8780.13,-3275.18 8786.21,-2308.4 8787.03,-2085.8"/>
<polygon fill="#dddddd" stroke="#dddddd" points="8790.53,-2086.1 8787.06,-2076.09 8783.53,-2086.08 8790.53,-2086.1"/>
<text text-anchor="middle" x="4410.32" y="-3347.57" font-family="Times,serif" font-size="14.00">Escort &#45; HMPS</text>
</g>
<!-- 45179&#45;&gt;END_NODE -->
<g id="edge7" class="edge">
<title>45179&#45;&gt;END_NODE</title>
<path fill="none" stroke="#dddddd" d="M363.75,-3297.88C370.04,-3298.45 376.28,-3298.95 382.38,-3299.37 631.66,-3316.61 694.68,-3306.37 944.56,-3306.37 944.56,-3306.37 944.56,-3306.37 3618.5,-3306.37 4008.59,-3306.37 4106.11,-3305.71 4496.19,-3305.87 4761.58,-3305.99 4827.93,-3306.37 5093.31,-3306.37 5093.31,-3306.37 5093.31,-3306.37 8395.68,-3306.37 8471.87,-3306.37 8684.42,-3323.17 8736.3,-3267.37 8777.26,-3223.32 8785.53,-2303.03 8786.91,-2085.96"/>
<polygon fill="#dddddd" stroke="#dddddd" points="8790.41,-2086.24 8786.97,-2076.21 8783.41,-2086.19 8790.41,-2086.24"/>
<text text-anchor="middle" x="4410.32" y="-3309.07" font-family="Times,serif" font-size="14.00">Other: please explain</text>
</g>
<!-- 45180 -->
<g id="node4" class="node">
<title>45180</title>
<ellipse fill="none" stroke="black" cx="712.53" cy="-3138.37" rx="140.41" ry="140.41"/>
<text text-anchor="middle" x="712.53" y="-3133.32" font-family="Times,serif" font-size="14.00">Where did the release occur from?</text>
</g>
<!-- 45179&#45;&gt;45180 -->
<g id="edge8" class="edge">
<title>45179&#45;&gt;45180</title>
<path fill="none" stroke="black" d="M364.62,-3279.94C436.92,-3277.69 520.18,-3272.25 554.13,-3259.37 569.05,-3253.71 583.73,-3246.14 597.76,-3237.53"/>
<polygon fill="black" stroke="black" points="599.53,-3240.55 606.09,-3232.23 595.77,-3234.65 599.53,-3240.55"/>
<text text-anchor="middle" x="468.25" y="-3282.25" font-family="Times,serif" font-size="14.00">Bail</text>
</g>
<!-- 45179&#45;&gt;45180 -->
<g id="edge9" class="edge">
<title>45179&#45;&gt;45180</title>
<path fill="none" stroke="black" d="M359.21,-3244.11C367.02,-3242.19 374.79,-3240.42 382.38,-3238.87 457.65,-3223.51 480.6,-3241.65 554.13,-3219.37 562.4,-3216.87 570.75,-3213.94 579.07,-3210.7"/>
<polygon fill="black" stroke="black" points="580.22,-3214.01 588.18,-3207.02 577.6,-3207.52 580.22,-3214.01"/>
<text text-anchor="middle" x="468.25" y="-3242.07" font-family="Times,serif" font-size="14.00">Final discharge/end of sentence</text>
</g>
<!-- 45179&#45;&gt;45180 -->
<g id="edge10" class="edge">
<title>45179&#45;&gt;45180</title>
<path fill="none" stroke="black" d="M345.01,-3214.23C357.28,-3208.3 369.89,-3203 382.38,-3198.87 455.33,-3174.79 478.6,-3193.43 554.13,-3179.37 557.92,-3178.67 561.76,-3177.92 565.62,-3177.14"/>
<polygon fill="black" stroke="black" points="566.02,-3180.63 575.1,-3175.16 564.59,-3173.78 566.02,-3180.63"/>
<text text-anchor="middle" x="468.25" y="-3202.07" font-family="Times,serif" font-size="14.00">Police production</text>
</g>
<!-- 45179&#45;&gt;45180 -->
<g id="edge11" class="edge">
<title>45179&#45;&gt;45180</title>
<path fill="none" stroke="#dddddd" d="M327.05,-3191.59C344.15,-3178.51 362.88,-3166.8 382.38,-3158.87 399.44,-3151.94 482.54,-3146.8 560.96,-3143.4"/>
<polygon fill="#dddddd" stroke="#dddddd" points="560.63,-3146.91 570.47,-3142.99 560.34,-3139.92 560.63,-3146.91"/>
<text text-anchor="middle" x="468.25" y="-3162.07" font-family="Times,serif" font-size="14.00">Court production/pems</text>
</g>
<!-- 45179&#45;&gt;45180 -->
<g id="edge12" class="edge">
<title>45179&#45;&gt;45180</title>
<path fill="none" stroke="black" d="M310.2,-3177.54C330.67,-3155.42 354.99,-3135.08 382.38,-3122.87 438.59,-3097.83 505.68,-3096.57 564.57,-3103.53"/>
<polygon fill="black" stroke="black" points="563.99,-3106.98 574.35,-3104.78 564.88,-3100.04 563.99,-3106.98"/>
<text text-anchor="middle" x="468.25" y="-3126.07" font-family="Times,serif" font-size="14.00">Escort – HMPS</text>
</g>
<!-- 45179&#45;&gt;45180 -->
<g id="edge13" class="edge">
<title>45179&#45;&gt;45180</title>
<path fill="none" stroke="black" d="M293.07,-3167.91C315.45,-3133.23 345.08,-3099.18 382.38,-3079.87 440.97,-3049.55 512.43,-3057.69 573.78,-3076.12"/>
<polygon fill="black" stroke="black" points="572.68,-3079.44 583.27,-3079.09 574.77,-3072.76 572.68,-3079.44"/>
<text text-anchor="middle" x="468.25" y="-3083.07" font-family="Times,serif" font-size="14.00">Other : please explain</text>
</g>
<!-- 45179&#45;&gt;45180 -->
<g id="edge14" class="edge">
<title>45179&#45;&gt;45180</title>
<path fill="none" stroke="black" d="M279.78,-3162.34C302.12,-3115.18 335.22,-3065.85 382.38,-3038.87 448.63,-3000.97 480.81,-3017.64 554.13,-3038.87 565.54,-3042.18 576.92,-3046.59 588.04,-3051.71"/>
<polygon fill="black" stroke="black" points="586.28,-3054.75 596.81,-3055.95 589.33,-3048.44 586.28,-3054.75"/>
<text text-anchor="middle" x="468.25" y="-3042.07" font-family="Times,serif" font-size="14.00">Court production/pems</text>
</g>
<!-- 45180&#45;&gt;END_NODE -->
<g id="edge15" class="edge">
<title>45180&#45;&gt;END_NODE</title>
<path fill="none" stroke="#dddddd" d="M834.5,-3208.48C846.57,-3213.78 858.83,-3218.54 870.94,-3222.37 1005.14,-3264.89 1044.5,-3261.37 1185.27,-3261.37 1185.27,-3261.37 1185.27,-3261.37 8395.68,-3261.37 8548.05,-3261.37 8632.44,-3333.88 8736.3,-3222.37 8775.69,-3180.08 8785.13,-2298.14 8786.83,-2085.98"/>
<polygon fill="#dddddd" stroke="#dddddd" points="8790.33,-2086.21 8786.91,-2076.19 8783.33,-2086.16 8790.33,-2086.21"/>
<text text-anchor="middle" x="4707.32" y="-3264.57" font-family="Times,serif" font-size="14.00">Establishment: enter name</text>
</g>
<!-- 45180&#45;&gt;END_NODE -->
<g id="edge16" class="edge">
<title>45180&#45;&gt;END_NODE</title>
<path fill="none" stroke="#dddddd" d="M849.76,-3169.43C943.55,-3188.14 1071.32,-3208.37 1185.27,-3208.37 1185.27,-3208.37 1185.27,-3208.37 8395.68,-3208.37 8471.87,-3208.37 8684.32,-3225.07 8736.3,-3169.37 8773.85,-3129.14 8784.64,-2292.01 8786.74,-2085.91"/>
<polygon fill="#dddddd" stroke="#dddddd" points="8790.23,-2086.18 8786.83,-2076.15 8783.24,-2086.11 8790.23,-2086.18"/>
<text text-anchor="middle" x="4707.32" y="-3211.57" font-family="Times,serif" font-size="14.00">Court: enter name</text>
</g>
<!-- 45180&#45;&gt;END_NODE -->
<g id="edge17" class="edge">
<title>45180&#45;&gt;END_NODE</title>
<path fill="none" stroke="#dddddd" d="M853.07,-3146.04C946.95,-3150.55 1073.51,-3155.37 1185.27,-3155.37 1185.27,-3155.37 1185.27,-3155.37 8395.68,-3155.37 8471.77,-3155.37 8684,-3175.65 8736.3,-3120.37 8772.37,-3082.25 8784.23,-2286.31 8786.65,-2085.88"/>
<polygon fill="#dddddd" stroke="#dddddd" points="8790.15,-2086.17 8786.77,-2076.13 8783.15,-2086.09 8790.15,-2086.17"/>
<text text-anchor="middle" x="4707.32" y="-3158.57" font-family="Times,serif" font-size="14.00">Other: please enter details</text>
</g>
<!-- 45181 -->
<g id="node5" class="node">
<title>45181</title>
<ellipse fill="none" stroke="black" cx="1186.27" cy="-2758.37" rx="148.08" ry="148.08"/>
<text text-anchor="middle" x="1186.27" y="-2753.32" font-family="Times,serif" font-size="14.00">What was the nature of the incident?</text>
</g>
<!-- 45180&#45;&gt;45181 -->
<g id="edge18" class="edge">
<title>45180&#45;&gt;45181</title>
<path fill="none" stroke="black" d="M846.61,-3095.25C904.09,-3072.28 969.6,-3039.87 1020.19,-2997.37 1053.56,-2969.34 1083.22,-2933 1107.86,-2897.15"/>
<polygon fill="black" stroke="black" points="1110.46,-2899.55 1113.17,-2889.3 1104.67,-2895.62 1110.46,-2899.55"/>
<text text-anchor="middle" x="945.56" y="-3084.92" font-family="Times,serif" font-size="14.00">Establishment : enter name</text>
</g>
<!-- 45180&#45;&gt;45181 -->
<g id="edge19" class="edge">
<title>45180&#45;&gt;45181</title>
<path fill="none" stroke="black" d="M803.98,-3031.85C824.53,-3011.76 847.32,-2992.26 870.94,-2976.87 930.25,-2938.26 960.51,-2959.42 1020.19,-2921.37 1040.51,-2908.42 1060.35,-2892.62 1078.83,-2876"/>
<polygon fill="black" stroke="black" points="1081.09,-2878.68 1086.1,-2869.34 1076.36,-2873.51 1081.09,-2878.68"/>
<text text-anchor="middle" x="945.56" y="-2980.07" font-family="Times,serif" font-size="14.00">Court : enter name</text>
</g>
<!-- 45180&#45;&gt;45181 -->
<g id="edge20" class="edge">
<title>45180&#45;&gt;45181</title>
<path fill="none" stroke="black" d="M777.8,-3013.64C802.81,-2973.84 834.32,-2932.07 870.94,-2900.87 918.18,-2860.63 978.65,-2829.63 1033.91,-2806.97"/>
<polygon fill="black" stroke="black" points="1035.15,-2810.24 1043.12,-2803.26 1032.54,-2803.75 1035.15,-2810.24"/>
<text text-anchor="middle" x="945.56" y="-2904.07" font-family="Times,serif" font-size="14.00">Other : please enter details</text>
</g>
<!-- 45181&#45;&gt;END_NODE -->
<g id="edge21" class="edge">
<title>45181&#45;&gt;END_NODE</title>
<path fill="none" stroke="#dddddd" d="M1222.97,-2901.93C1247.62,-2969.51 1287.94,-3044.15 1352.36,-3085.37 1479.54,-3166.77 1880.43,-3109.37 2031.43,-3109.37 2031.43,-3109.37 2031.43,-3109.37 4411.32,-3109.37 4885.1,-3109.37 5003.53,-3116.37 5477.31,-3116.37 5477.31,-3116.37 5477.31,-3116.37 8395.68,-3116.37 8471.59,-3116.37 8683.37,-3144.79 8736.3,-3090.37 8771.8,-3053.87 8784.05,-2282.91 8786.61,-2085.9"/>
<polygon fill="#dddddd" stroke="#dddddd" points="8790.11,-2086.11 8786.74,-2076.06 8783.11,-2086.02 8790.11,-2086.11"/>
<text text-anchor="middle" x="5094.31" y="-3119.03" font-family="Times,serif" font-size="14.00">Wrong person released</text>
</g>
<!-- 45181&#45;&gt;END_NODE -->
<g id="edge22" class="edge">
<title>45181&#45;&gt;END_NODE</title>
<path fill="none" stroke="#dddddd" d="M1233.15,-2899.19C1258.96,-2955.2 1297.34,-3014.13 1352.36,-3047.37 1416.97,-3086.42 1955.93,-3071.37 2031.43,-3071.37 2031.43,-3071.37 2031.43,-3071.37 4411.32,-3071.37 4885.1,-3071.37 5003.53,-3076.37 5477.31,-3076.37 5477.31,-3076.37 5477.31,-3076.37 8395.68,-3076.37 8471.59,-3076.37 8683.32,-3104.74 8736.3,-3050.37 8770.37,-3015.41 8783.63,-2278.48 8786.52,-2086.02"/>
<polygon fill="#dddddd" stroke="#dddddd" points="8790.02,-2086.23 8786.66,-2076.18 8783.02,-2086.12 8790.02,-2086.23"/>
<text text-anchor="middle" x="5094.31" y="-3079.18" font-family="Times,serif" font-size="14.00">Sentence miscalculated</text>
</g>
<!-- 45181&#45;&gt;END_NODE -->
<g id="edge23" class="edge">
<title>45181&#45;&gt;END_NODE</title>
<path fill="none" stroke="#dddddd" d="M1245.04,-2894.6C1271.06,-2939.04 1306.44,-2983.56 1352.36,-3009.37 1418.17,-3046.38 1955.93,-3033.37 2031.43,-3033.37 2031.43,-3033.37 2031.43,-3033.37 4411.32,-3033.37 4885.1,-3033.37 5003.54,-3036.37 5477.31,-3036.37 5477.31,-3036.37 5477.31,-3036.37 8395.68,-3036.37 8471.59,-3036.37 8683.26,-3064.69 8736.3,-3010.37 8768.96,-2976.93 8783.19,-2273.65 8786.42,-2086.03"/>
<polygon fill="#dddddd" stroke="#dddddd" points="8789.92,-2086.26 8786.59,-2076.2 8782.92,-2086.14 8789.92,-2086.26"/>
<text text-anchor="middle" x="5094.31" y="-3039.34" font-family="Times,serif" font-size="14.00">ADA not included in calculations</text>
</g>
<!-- 45181&#45;&gt;END_NODE -->
<g id="edge24" class="edge">
<title>45181&#45;&gt;END_NODE</title>
<path fill="none" stroke="#dddddd" d="M1259.4,-2887.45C1284.36,-2920.25 1315.5,-2951.51 1352.36,-2970.37 1486.78,-3039.17 1880.42,-2995.37 2031.43,-2995.37 2031.43,-2995.37 2031.43,-2995.37 4411.32,-2995.37 4885.09,-2995.37 5003.54,-2996.37 5477.31,-2996.37 5477.31,-2996.37 5477.31,-2996.37 8395.68,-2996.37 8471.59,-2996.37 8683.2,-3024.63 8736.3,-2970.37 8767.55,-2938.45 8782.75,-2268.42 8786.32,-2085.93"/>
<polygon fill="#dddddd" stroke="#dddddd" points="8789.81,-2086.2 8786.5,-2076.14 8782.81,-2086.07 8789.81,-2086.2"/>
<text text-anchor="middle" x="5094.31" y="-2999.5" font-family="Times,serif" font-size="14.00">Immigration warrant not applied/misfiled/missing</text>
</g>
<!-- 45181&#45;&gt;END_NODE -->
<g id="edge25" class="edge">
<title>45181&#45;&gt;END_NODE</title>
<path fill="none" stroke="#dddddd" d="M1276.13,-2876.1C1298.49,-2897.9 1324.23,-2917.74 1352.36,-2930.37 1490.12,-2992.24 1880.42,-2956.37 2031.43,-2956.37 2031.43,-2956.37 2031.43,-2956.37 8395.68,-2956.37 8471.59,-2956.37 8683.13,-2984.56 8736.3,-2930.37 8766.13,-2899.97 8782.27,-2263.44 8786.2,-2085.96"/>
<polygon fill="#dddddd" stroke="#dddddd" points="8789.7,-2086.05 8786.42,-2075.98 8782.7,-2085.9 8789.7,-2086.05"/>
<text text-anchor="middle" x="5094.31" y="-2959.57" font-family="Times,serif" font-size="14.00">Remand warrant not applied/misfiled/missing</text>
</g>
<!-- 45181&#45;&gt;END_NODE -->
<g id="edge26" class="edge">
<title>45181&#45;&gt;END_NODE</title>
<path fill="none" stroke="#dddddd" d="M1294.51,-2859.47C1312.69,-2871.93 1332.24,-2882.89 1352.36,-2890.37 1493.88,-2943.06 1880.42,-2916.37 2031.43,-2916.37 2031.43,-2916.37 2031.43,-2916.37 8395.68,-2916.37 8471.59,-2916.37 8683.06,-2944.49 8736.3,-2890.37 8764.72,-2861.48 8781.77,-2258.07 8786.07,-2085.88"/>
<polygon fill="#dddddd" stroke="#dddddd" points="8789.57,-2086.07 8786.32,-2075.99 8782.57,-2085.9 8789.57,-2086.07"/>
<text text-anchor="middle" x="5094.31" y="-2919.57" font-family="Times,serif" font-size="14.00">Imprisonment warrant not applied/misfiled/missing</text>
</g>
<!-- 45181&#45;&gt;END_NODE -->
<g id="edge27" class="edge">
<title>45181&#45;&gt;END_NODE</title>
<path fill="none" stroke="#dddddd" d="M1312.67,-2835.96C1325.73,-2841.68 1339.09,-2846.65 1352.36,-2850.37 1497.77,-2891.14 1880.42,-2876.37 2031.43,-2876.37 2031.43,-2876.37 2031.43,-2876.37 8395.68,-2876.37 8471.56,-2876.37 8682.85,-2906.24 8736.3,-2852.37 8763.47,-2824.99 8781.31,-2252.79 8785.95,-2085.76"/>
<polygon fill="#dddddd" stroke="#dddddd" points="8789.44,-2086.06 8786.22,-2075.97 8782.45,-2085.87 8789.44,-2086.06"/>
<text text-anchor="middle" x="5094.31" y="-2879.57" font-family="Times,serif" font-size="14.00">Civil/non payment of fines warrant not applied/misfiled/missing</text>
</g>
<!-- 45181&#45;&gt;END_NODE -->
<g id="edge28" class="edge">
<title>45181&#45;&gt;END_NODE</title>
<path fill="none" stroke="#dddddd" d="M1327.14,-2805.22C1335.61,-2807.19 1344.07,-2808.94 1352.36,-2810.37 1649.95,-2861.98 1729.4,-2836.37 2031.43,-2836.37 2031.43,-2836.37 2031.43,-2836.37 4708.32,-2836.37 5199.76,-2836.37 5322.62,-2838.37 5814.06,-2838.37 5814.06,-2838.37 5814.06,-2838.37 8395.68,-2838.37 8471.56,-2838.37 8682.77,-2868.16 8736.3,-2814.37 8787.79,-2762.64 8788.54,-2243.31 8787.56,-2085.57"/>
<polygon fill="#dddddd" stroke="#dddddd" points="8791.07,-2085.91 8787.5,-2075.93 8784.07,-2085.96 8791.07,-2085.91"/>
<text text-anchor="middle" x="5094.31" y="-2840.57" font-family="Times,serif" font-size="14.00">Bail conditions not fully met</text>
</g>
<!-- 45181&#45;&gt;END_NODE -->
<g id="edge29" class="edge">
<title>45181&#45;&gt;END_NODE</title>
<path fill="none" stroke="#dddddd" d="M1333.96,-2771.19C1340.18,-2771.62 1346.33,-2772.01 1352.36,-2772.37 1653.81,-2790.47 1729.43,-2796.37 2031.43,-2796.37 2031.43,-2796.37 2031.43,-2796.37 4708.32,-2796.37 5199.76,-2796.37 5322.62,-2800.37 5814.06,-2800.37 5814.06,-2800.37 5814.06,-2800.37 8395.68,-2800.37 8471.56,-2800.37 8682.68,-2830.07 8736.3,-2776.37 8785.09,-2727.52 8787.77,-2238.78 8787.4,-2085.86"/>
<polygon fill="#dddddd" stroke="#dddddd" points="8790.9,-2086.11 8787.37,-2076.12 8783.9,-2086.13 8790.9,-2086.11"/>
<text text-anchor="middle" x="5094.31" y="-2801.57" font-family="Times,serif" font-size="14.00">Release criteria not met</text>
</g>
<!-- 45181&#45;&gt;END_NODE -->
<g id="edge30" class="edge">
<title>45181&#45;&gt;END_NODE</title>
<path fill="none" stroke="#dddddd" d="M1334.81,-2758.37C1503.3,-2758.37 1787.23,-2758.37 2031.43,-2758.37 2031.43,-2758.37 2031.43,-2758.37 4008.46,-2758.37 4810.95,-2758.37 5011.57,-2762.37 5814.06,-2762.37 5814.06,-2762.37 5814.06,-2762.37 8395.68,-2762.37 8471.56,-2762.37 8682.58,-2791.97 8736.3,-2738.37 8782.41,-2692.37 8786.96,-2233.66 8787.21,-2085.95"/>
<polygon fill="#dddddd" stroke="#dddddd" points="8790.71,-2086.16 8787.23,-2076.16 8783.71,-2086.15 8790.71,-2086.16"/>
<text text-anchor="middle" x="5094.31" y="-2764.82" font-family="Times,serif" font-size="14.00">Recall procedures not applied</text>
</g>
<!-- 45181&#45;&gt;END_NODE -->
<g id="edge31" class="edge">
<title>45181&#45;&gt;END_NODE</title>
<path fill="none" stroke="#dddddd" d="M1334.62,-2754.44C1732.42,-2744.18 2861.44,-2717.37 3800.79,-2717.37 3800.79,-2717.37 3800.79,-2717.37 4411.32,-2717.37 5034.77,-2717.37 5190.61,-2724.37 5814.06,-2724.37 5814.06,-2724.37 5814.06,-2724.37 8395.68,-2724.37 8471.87,-2724.37 8683.39,-2740.19 8736.3,-2685.37 8777.8,-2642.39 8785.44,-2225.31 8786.84,-2085.67"/>
<polygon fill="#dddddd" stroke="#dddddd" points="8790.34,-2086.11 8786.93,-2076.08 8783.34,-2086.04 8790.34,-2086.11"/>
<text text-anchor="middle" x="5094.31" y="-2725.33" font-family="Times,serif" font-size="14.00">Other: please explain</text>
</g>
<!-- 45182 -->
<g id="node6" class="node">
<title>45182</title>
<ellipse fill="none" stroke="black" cx="2032.43" cy="-2382.37" rx="310.33" ry="310.33"/>
<text text-anchor="middle" x="2032.43" y="-2377.32" font-family="Times,serif" font-size="14.00">What action is being taken to return the person to custody by the establishment?</text>
</g>
<!-- 45181&#45;&gt;45182 -->
<g id="edge32" class="edge">
<title>45181&#45;&gt;45182</title>
<path fill="none" stroke="black" d="M1326.19,-2708.87C1334.98,-2706.61 1343.75,-2704.58 1352.36,-2702.87 1429.2,-2687.66 1632,-2710.01 1704.11,-2679.37 1741.71,-2663.4 1777.83,-2641.22 1811.45,-2616.11"/>
<polygon fill="black" stroke="black" points="1813.35,-2619.06 1819.2,-2610.23 1809.12,-2613.49 1813.35,-2619.06"/>
<text text-anchor="middle" x="1528.23" y="-2706.07" font-family="Times,serif" font-size="14.00">Wrong person released</text>
</g>
<!-- 45181&#45;&gt;45182 -->
<g id="edge33" class="edge">
<title>45181&#45;&gt;45182</title>
<path fill="none" stroke="black" d="M1309.52,-2676.05C1323.53,-2669.26 1337.96,-2663.31 1352.36,-2658.87 1427.17,-2635.82 1630.85,-2666.99 1704.11,-2639.37 1734.17,-2628.04 1763.67,-2612.89 1791.89,-2595.59"/>
<polygon fill="black" stroke="black" points="1793.5,-2598.71 1800.13,-2590.44 1789.79,-2592.77 1793.5,-2598.71"/>
<text text-anchor="middle" x="1528.23" y="-2662.07" font-family="Times,serif" font-size="14.00">Sentence miscalculated</text>
</g>
<!-- 45181&#45;&gt;45182 -->
<g id="edge34" class="edge">
<title>45181&#45;&gt;45182</title>
<path fill="none" stroke="black" d="M1291.22,-2653.93C1310.24,-2639.88 1330.91,-2627.4 1352.36,-2618.87 1425.1,-2589.95 1629.8,-2624.03 1704.11,-2599.37 1726.97,-2591.79 1749.76,-2582.16 1772.07,-2571.2"/>
<polygon fill="black" stroke="black" points="1773.56,-2574.37 1780.92,-2566.75 1770.42,-2568.11 1773.56,-2574.37"/>
<text text-anchor="middle" x="1528.23" y="-2622.07" font-family="Times,serif" font-size="14.00">ADA not included on calculations</text>
</g>
<!-- 45181&#45;&gt;45182 -->
<g id="edge35" class="edge">
<title>45181&#45;&gt;45182</title>
<path fill="none" stroke="black" d="M1273.3,-2638.25C1296.2,-2614.59 1322.88,-2592.8 1352.36,-2578.87 1423.14,-2545.44 1628.77,-2580.67 1704.11,-2559.37 1720.71,-2554.68 1737.41,-2549.04 1754.01,-2542.7"/>
<polygon fill="black" stroke="black" points="1754.88,-2546.12 1762.92,-2539.22 1752.33,-2539.6 1754.88,-2546.12"/>
<text text-anchor="middle" x="1528.23" y="-2582.07" font-family="Times,serif" font-size="14.00">Immigration warrant not applied/misfiled/missing</text>
</g>
<!-- 45181&#45;&gt;45182 -->
<g id="edge36" class="edge">
<title>45181&#45;&gt;45182</title>
<path fill="none" stroke="black" d="M1256.91,-2627.84C1282.16,-2592.97 1314.08,-2559.32 1352.36,-2538.87 1421.41,-2501.98 1627.81,-2536.91 1704.11,-2519.37 1715.14,-2516.84 1726.27,-2513.96 1737.44,-2510.8"/>
<polygon fill="black" stroke="black" points="1738.07,-2514.27 1746.7,-2508.12 1736.12,-2507.54 1738.07,-2514.27"/>
<text text-anchor="middle" x="1528.23" y="-2542.07" font-family="Times,serif" font-size="14.00">Remand warrant not applied/misfiled/missing</text>
</g>
<!-- 45181&#45;&gt;45182 -->
<g id="edge37" class="edge">
<title>45181&#45;&gt;45182</title>
<path fill="none" stroke="black" d="M1242.64,-2621.22C1268.73,-2574.33 1304.78,-2526.74 1352.36,-2498.87 1386.13,-2479.09 1665.54,-2486.06 1704.11,-2479.37 1710.91,-2478.19 1717.77,-2476.92 1724.67,-2475.57"/>
<polygon fill="black" stroke="black" points="1724.95,-2479.08 1734.06,-2473.67 1723.56,-2472.22 1724.95,-2479.08"/>
<text text-anchor="middle" x="1528.23" y="-2502.07" font-family="Times,serif" font-size="14.00">Imprisonment warrant not applied/misfiled/missing</text>
</g>
<!-- 45181&#45;&gt;45182 -->
<g id="edge38" class="edge">
<title>45181&#45;&gt;45182</title>
<path fill="none" stroke="black" d="M1230.75,-2616.63C1256.39,-2557.67 1295.3,-2494.74 1352.36,-2458.87 1385.49,-2438.04 1665.22,-2443.82 1704.11,-2439.37 1707.83,-2438.95 1711.58,-2438.51 1715.34,-2438.05"/>
<polygon fill="black" stroke="black" points="1715.69,-2441.54 1725.19,-2436.83 1714.83,-2434.59 1715.69,-2441.54"/>
<text text-anchor="middle" x="1528.23" y="-2462.07" font-family="Times,serif" font-size="14.00">Civil/non payment of fines warrant not applied/misfiled/missing</text>
</g>
<!-- 45181&#45;&gt;45182 -->
<g id="edge39" class="edge">
<title>45181&#45;&gt;45182</title>
<path fill="none" stroke="black" d="M1220.56,-2613.91C1244.79,-2542.92 1285.46,-2463.27 1352.36,-2418.87 1353.37,-2418.2 1535.68,-2408.42 1711.12,-2399.16"/>
<polygon fill="black" stroke="black" points="1711.08,-2402.67 1720.88,-2398.64 1710.71,-2395.67 1711.08,-2402.67"/>
<text text-anchor="middle" x="1528.23" y="-2422.07" font-family="Times,serif" font-size="14.00">Bail conditions not fully met</text>
</g>
<!-- 45181&#45;&gt;45182 -->
<g id="edge40" class="edge">
<title>45181&#45;&gt;45182</title>
<path fill="none" stroke="black" d="M1210.84,-2612.1C1232.56,-2528.86 1273.94,-2431.22 1352.36,-2379.87 1383.63,-2359.4 1550.61,-2359.82 1711.15,-2365.47"/>
<polygon fill="black" stroke="black" points="1710.57,-2368.95 1720.69,-2365.81 1710.82,-2361.95 1710.57,-2368.95"/>
<text text-anchor="middle" x="1528.23" y="-2383.07" font-family="Times,serif" font-size="14.00">Release criteria not met</text>
</g>
<!-- 45181&#45;&gt;45182 -->
<g id="edge41" class="edge">
<title>45181&#45;&gt;45182</title>
<path fill="none" stroke="black" d="M1203.98,-2610.87C1223.13,-2516.83 1264.21,-2401.75 1352.36,-2341.87 1417.01,-2297.95 1626.09,-2337.07 1704.11,-2341.87 1707.15,-2342.06 1710.21,-2342.26 1713.28,-2342.47"/>
<polygon fill="black" stroke="black" points="1712.72,-2345.94 1722.94,-2343.15 1713.21,-2338.95 1712.72,-2345.94"/>
<text text-anchor="middle" x="1528.23" y="-2345.07" font-family="Times,serif" font-size="14.00">Recall procedures not applied</text>
</g>
<!-- 45181&#45;&gt;45182 -->
<g id="edge42" class="edge">
<title>45181&#45;&gt;45182</title>
<path fill="none" stroke="black" d="M1197.57,-2610.49C1213.54,-2505.13 1253.45,-2370.33 1352.36,-2300.87 1461.77,-2224.04 1606.3,-2230.56 1733.89,-2261.97"/>
<polygon fill="black" stroke="black" points="1732.98,-2265.35 1743.53,-2264.41 1734.69,-2258.56 1732.98,-2265.35"/>
<text text-anchor="middle" x="1528.23" y="-2304.07" font-family="Times,serif" font-size="14.00">Other : please explain</text>
</g>
<!-- 45182&#45;&gt;END_NODE -->
<g id="edge43" class="edge">
<title>45182&#45;&gt;END_NODE</title>
<path fill="none" stroke="#dddddd" d="M2263.62,-2589.8C2294.67,-2609.77 2327.38,-2627.38 2360.76,-2640.37 2576.41,-2724.33 2648.57,-2679.37 2879.99,-2679.37 2879.99,-2679.37 2879.99,-2679.37 8395.68,-2679.37 8548.05,-2679.37 8630.15,-2749.7 8736.3,-2640.37 8774.69,-2600.83 8784.34,-2219.28 8786.55,-2086.03"/>
<polygon fill="#dddddd" stroke="#dddddd" points="8790.05,-2086.22 8786.71,-2076.17 8783.05,-2086.11 8790.05,-2086.22"/>
<text text-anchor="middle" x="5478.31" y="-2682.57" font-family="Times,serif" font-size="14.00">Recall procedures</text>
</g>
<!-- 45182&#45;&gt;END_NODE -->
<g id="edge44" class="edge">
<title>45182&#45;&gt;END_NODE</title>
<path fill="none" stroke="#dddddd" d="M2288.6,-2557.87C2312.32,-2569.32 2336.55,-2579.43 2360.76,-2587.37 2580.63,-2659.57 2648.57,-2626.37 2879.99,-2626.37 2879.99,-2626.37 2879.99,-2626.37 8395.68,-2626.37 8471.87,-2626.37 8683,-2641.82 8736.3,-2587.37 8771.12,-2551.8 8782.97,-2210.48 8786.16,-2085.74"/>
<polygon fill="#dddddd" stroke="#dddddd" points="8789.65,-2085.95 8786.4,-2075.87 8782.65,-2085.78 8789.65,-2085.95"/>
<text text-anchor="middle" x="5478.31" y="-2629.57" font-family="Times,serif" font-size="14.00">Home probation officer</text>
</g>
<!-- 45182&#45;&gt;END_NODE -->
<g id="edge45" class="edge">
<title>45182&#45;&gt;END_NODE</title>
<path fill="none" stroke="#dddddd" d="M2311.3,-2519.42C2327.83,-2525.05 2344.39,-2530.11 2360.76,-2534.37 2584.7,-2592.72 2648.57,-2573.37 2879.99,-2573.37 2879.99,-2573.37 2879.99,-2573.37 8395.68,-2573.37 8471.87,-2573.37 8682.73,-2588.55 8736.3,-2534.37 8767.54,-2502.77 8781.45,-2201.67 8785.68,-2085.65"/>
<polygon fill="#dddddd" stroke="#dddddd" points="8789.17,-2086 8786.02,-2075.88 8782.17,-2085.75 8789.17,-2086"/>
<text text-anchor="middle" x="5478.31" y="-2576.57" font-family="Times,serif" font-size="14.00">Prisoner contacted</text>
</g>
<!-- 45182&#45;&gt;END_NODE -->
<g id="edge46" class="edge">
<title>45182&#45;&gt;END_NODE</title>
<path fill="none" stroke="#dddddd" d="M2328.89,-2474.9C2339.61,-2477.24 2350.25,-2479.42 2360.76,-2481.37 2588.26,-2523.79 2648.57,-2520.37 2879.99,-2520.37 2879.99,-2520.37 2879.99,-2520.37 8395.68,-2520.37 8471.87,-2520.37 8682.4,-2535.23 8736.3,-2481.37 8763.95,-2453.74 8779.72,-2192.9 8785.07,-2085.87"/>
<polygon fill="#dddddd" stroke="#dddddd" points="8788.56,-2086.17 8785.55,-2076.01 8781.56,-2085.83 8788.56,-2086.17"/>
<text text-anchor="middle" x="5478.31" y="-2523.57" font-family="Times,serif" font-size="14.00">Court contacted</text>
</g>
<!-- 45182&#45;&gt;END_NODE -->
<g id="edge47" class="edge">
<title>45182&#45;&gt;END_NODE</title>
<path fill="none" stroke="#dddddd" d="M2339.81,-2428.05C2500.31,-2448.19 2700.34,-2467.37 2879.99,-2467.37 2879.99,-2467.37 2879.99,-2467.37 8395.68,-2467.37 8471.87,-2467.37 8681.99,-2481.81 8736.3,-2428.37 8783.85,-2381.59 8788.38,-2178.24 8787.9,-2086.08"/>
<polygon fill="#dddddd" stroke="#dddddd" points="8791.4,-2086.11 8787.83,-2076.13 8784.4,-2086.16 8791.4,-2086.11"/>
<text text-anchor="middle" x="5478.31" y="-2470.57" font-family="Times,serif" font-size="14.00">Police contacted</text>
</g>
<!-- 45182&#45;&gt;END_NODE -->
<g id="edge48" class="edge">
<title>45182&#45;&gt;END_NODE</title>
<path fill="none" stroke="#dddddd" d="M2342.43,-2399.66C2502.76,-2407.21 2701.84,-2414.37 2879.99,-2414.37 2879.99,-2414.37 2879.99,-2414.37 8395.68,-2414.37 8471.82,-2414.37 8681.35,-2430.08 8736.3,-2377.37 8777.24,-2338.1 8785.38,-2168.55 8786.89,-2085.95"/>
<polygon fill="#dddddd" stroke="#dddddd" points="8790.39,-2086.22 8787.04,-2076.17 8783.39,-2086.11 8790.39,-2086.22"/>
<text text-anchor="middle" x="5478.31" y="-2417.57" font-family="Times,serif" font-size="14.00">Other: please explain</text>
</g>
<!-- 45182&#45;&gt;END_NODE -->
<g id="edge49" class="edge">
<title>45182&#45;&gt;END_NODE</title>
<path fill="none" stroke="#dddddd" d="M2342.99,-2371.01C2503.25,-2366.07 2702.1,-2361.37 2879.99,-2361.37 2879.99,-2361.37 2879.99,-2361.37 5095.31,-2361.37 5665.61,-2361.37 5808.19,-2363.37 6378.49,-2363.37 6378.49,-2363.37 6378.49,-2363.37 8395.68,-2363.37 8471.73,-2363.37 8680.49,-2382.04 8736.3,-2330.37 8771.28,-2297.99 8782.28,-2158.85 8785.68,-2085.71"/>
<polygon fill="#dddddd" stroke="#dddddd" points="8789.16,-2086.21 8786.1,-2076.07 8782.17,-2085.91 8789.16,-2086.21"/>
<text text-anchor="middle" x="5478.31" y="-2365.38" font-family="Times,serif" font-size="14.00">None &#45; explain why none of the above procedures have been actioned</text>
</g>
<!-- 45183 -->
<g id="node7" class="node">
<title>45183</title>
<ellipse fill="none" stroke="black" cx="2880.99" cy="-2112.37" rx="121.98" ry="121.98"/>
<text text-anchor="middle" x="2880.99" y="-2107.32" font-family="Times,serif" font-size="14.00">How was the error identified?</text>
</g>
<!-- 45182&#45;&gt;45183 -->
<g id="edge50" class="edge">
<title>45182&#45;&gt;45183</title>
<path fill="none" stroke="black" d="M2339.09,-2333.35C2346.38,-2332.48 2353.61,-2331.66 2360.76,-2330.87 2402.84,-2326.27 2704,-2327.92 2741.01,-2307.37 2772.96,-2289.64 2799.36,-2261.09 2820.25,-2231.25"/>
<polygon fill="black" stroke="black" points="2822.98,-2233.45 2825.7,-2223.21 2817.19,-2229.52 2822.98,-2233.45"/>
<text text-anchor="middle" x="2550.88" y="-2334.07" font-family="Times,serif" font-size="14.00">Recall procedures</text>
</g>
<!-- 45182&#45;&gt;45183 -->
<g id="edge51" class="edge">
<title>45182&#45;&gt;45183</title>
<path fill="none" stroke="black" d="M2329.78,-2292.65C2340.2,-2290.54 2350.54,-2288.6 2360.76,-2286.87 2444.18,-2272.76 2664.66,-2303.84 2741.01,-2267.37 2764.27,-2256.27 2785.35,-2239.32 2803.67,-2220.65"/>
<polygon fill="black" stroke="black" points="2805.96,-2223.32 2810.31,-2213.65 2800.89,-2218.5 2805.96,-2223.32"/>
<text text-anchor="middle" x="2550.88" y="-2290.07" font-family="Times,serif" font-size="14.00">Home probation officer</text>
</g>
<!-- 45182&#45;&gt;45183 -->
<g id="edge52" class="edge">
<title>45182&#45;&gt;45183</title>
<path fill="none" stroke="black" d="M2317.19,-2258.23C2331.78,-2253.95 2346.36,-2250.12 2360.76,-2246.87 2443.3,-2228.26 2662.16,-2258.07 2741.01,-2227.37 2755.95,-2221.56 2770.47,-2213.47 2784.14,-2204.25"/>
<polygon fill="black" stroke="black" points="2786.06,-2207.19 2792.23,-2198.57 2782.03,-2201.46 2786.06,-2207.19"/>
<text text-anchor="middle" x="2550.88" y="-2250.07" font-family="Times,serif" font-size="14.00">Prisoner contacted</text>
</g>
<!-- 45182&#45;&gt;45183 -->
<g id="edge53" class="edge">
<title>45182&#45;&gt;45183</title>
<path fill="none" stroke="black" d="M2301.5,-2226.95C2321.17,-2219.2 2341.04,-2212.37 2360.76,-2206.87 2523.77,-2161.46 2578.06,-2233.01 2741.01,-2187.37 2749.09,-2185.11 2757.22,-2182.32 2765.27,-2179.16"/>
<polygon fill="black" stroke="black" points="2766.51,-2182.43 2774.42,-2175.38 2763.84,-2175.96 2766.51,-2182.43"/>
<text text-anchor="middle" x="2550.88" y="-2210.07" font-family="Times,serif" font-size="14.00">Court contacted</text>
</g>
<!-- 45182&#45;&gt;45183 -->
<g id="edge54" class="edge">
<title>45182&#45;&gt;45183</title>
<path fill="none" stroke="black" d="M2283.58,-2199.36C2308.8,-2186.58 2334.74,-2175.4 2360.76,-2166.87 2441.16,-2140.52 2657.33,-2159.93 2741.01,-2147.37 2744.46,-2146.86 2747.96,-2146.29 2751.48,-2145.68"/>
<polygon fill="black" stroke="black" points="2752.1,-2149.13 2761.3,-2143.88 2750.83,-2142.24 2752.1,-2149.13"/>
<text text-anchor="middle" x="2550.88" y="-2170.07" font-family="Times,serif" font-size="14.00">Police contacted</text>
</g>
<!-- 45182&#45;&gt;45183 -->
<g id="edge55" class="edge">
<title>45182&#45;&gt;45183</title>
<path fill="none" stroke="black" d="M2263.7,-2175.12C2294.68,-2155.74 2327.35,-2138.89 2360.76,-2126.87 2396.1,-2114.16 2605.38,-2111.85 2747.21,-2111.79"/>
<polygon fill="black" stroke="black" points="2747.07,-2115.29 2757.07,-2111.79 2747.07,-2108.29 2747.07,-2115.29"/>
<text text-anchor="middle" x="2550.88" y="-2130.07" font-family="Times,serif" font-size="14.00">Other : please explain</text>
</g>
<!-- 45182&#45;&gt;45183 -->
<g id="edge56" class="edge">
<title>45182&#45;&gt;45183</title>
<path fill="none" stroke="black" d="M2245.35,-2156.12C2281.17,-2129.52 2320.04,-2106.38 2360.76,-2090.87 2487.08,-2042.78 2643.39,-2058.34 2751.32,-2079.53"/>
<polygon fill="black" stroke="black" points="2750.61,-2082.95 2761.11,-2081.5 2751.99,-2076.09 2750.61,-2082.95"/>
<text text-anchor="middle" x="2550.88" y="-2094.07" font-family="Times,serif" font-size="14.00">None &#45; explain why none of the above procedures have been actioned</text>
</g>
<!-- 45183&#45;&gt;END_NODE -->
<g id="edge57" class="edge">
<title>45183&#45;&gt;END_NODE</title>
<path fill="none" stroke="#dddddd" d="M2941.27,-2218.85C2962.55,-2247.29 2989.28,-2274.72 3020.97,-2291.37 3186.66,-2378.44 3254.25,-2315.37 3441.42,-2315.37 3441.42,-2315.37 3441.42,-2315.37 5095.31,-2315.37 5665.63,-2315.37 5808.17,-2325.37 6378.49,-2325.37 6378.49,-2325.37 6378.49,-2325.37 8395.68,-2325.37 8471.56,-2325.37 8679.47,-2351.66 8736.3,-2301.37 8767.85,-2273.45 8780.27,-2152.65 8784.79,-2085.62"/>
<polygon fill="#dddddd" stroke="#dddddd" points="8788.28,-2085.87 8785.43,-2075.67 8781.3,-2085.42 8788.28,-2085.87"/>
<text text-anchor="middle" x="5815.06" y="-2326.13" font-family="Times,serif" font-size="14.00">Contact from PEMS</text>
</g>
<!-- 45183&#45;&gt;END_NODE -->
<g id="edge58" class="edge">
<title>45183&#45;&gt;END_NODE</title>
<path fill="none" stroke="#dddddd" d="M2956.95,-2208.23C2975.83,-2226.25 2997.48,-2242.75 3020.97,-2253.37 3106.24,-2291.95 3347.84,-2277.37 3441.42,-2277.37 3441.42,-2277.37 3441.42,-2277.37 5095.31,-2277.37 5553.04,-2277.37 5667.42,-2287.37 6125.15,-2287.37 6125.15,-2287.37 6125.15,-2287.37 8395.68,-2287.37 8471.56,-2287.37 8678.68,-2312.75 8736.3,-2263.37 8762.87,-2240.61 8776.96,-2143.49 8783.16,-2085.19"/>
<polygon fill="#dddddd" stroke="#dddddd" points="8786.61,-2085.89 8784.14,-2075.58 8779.64,-2085.18 8786.61,-2085.89"/>
<text text-anchor="middle" x="5815.06" y="-2289.91" font-family="Times,serif" font-size="14.00">Contact from courts</text>
</g>
<!-- 45183&#45;&gt;END_NODE -->
<g id="edge59" class="edge">
<title>45183&#45;&gt;END_NODE</title>
<path fill="none" stroke="#dddddd" d="M2974.19,-2191.76C2989.06,-2201.21 3004.87,-2209.55 3020.97,-2215.37 3196.96,-2279.1 3254.25,-2239.37 3441.42,-2239.37 3441.42,-2239.37 3441.42,-2239.37 5095.31,-2239.37 5665.63,-2239.37 5808.17,-2249.37 6378.49,-2249.37 6378.49,-2249.37 6378.49,-2249.37 8395.68,-2249.37 8471.56,-2249.37 8677.6,-2273.47 8736.3,-2225.37 8757.83,-2207.74 8772.92,-2134.3 8780.8,-2085.42"/>
<polygon fill="#dddddd" stroke="#dddddd" points="8784.24,-2086.1 8782.33,-2075.68 8777.32,-2085.02 8784.24,-2086.1"/>
<text text-anchor="middle" x="5815.06" y="-2250.13" font-family="Times,serif" font-size="14.00">Contact from UKBA</text>
</g>
<!-- 45183&#45;&gt;END_NODE -->
<g id="edge60" class="edge">
<title>45183&#45;&gt;END_NODE</title>
<path fill="none" stroke="#dddddd" d="M2990.18,-2167.68C3000.41,-2171.47 3010.77,-2174.8 3020.97,-2177.37 3202.45,-2223.18 3254.25,-2201.37 3441.42,-2201.37 3441.42,-2201.37 3441.42,-2201.37 5095.31,-2201.37 5665.63,-2201.37 5808.17,-2211.37 6378.49,-2211.37 6378.49,-2211.37 6378.49,-2211.37 8395.68,-2211.37 8471.56,-2211.37 8676.08,-2233.54 8736.3,-2187.37 8767.36,-2163.57 8779.55,-2119.61 8784.28,-2085.94"/>
<polygon fill="#dddddd" stroke="#dddddd" points="8787.76,-2086.36 8785.48,-2076.02 8780.81,-2085.52 8787.76,-2086.36"/>
<text text-anchor="middle" x="5815.06" y="-2212.13" font-family="Times,serif" font-size="14.00">Contact from police</text>
</g>
<!-- 45183&#45;&gt;END_NODE -->
<g id="edge61" class="edge">
<title>45183&#45;&gt;END_NODE</title>
<path fill="none" stroke="#dddddd" d="M3000.85,-2136.56C3007.64,-2137.6 3014.38,-2138.55 3020.97,-2139.37 3206.69,-2162.61 3254.25,-2163.37 3441.42,-2163.37 3441.42,-2163.37 3441.42,-2163.37 5095.31,-2163.37 5665.63,-2163.37 5808.17,-2173.37 6378.49,-2173.37 6378.49,-2173.37 6378.49,-2173.37 8395.68,-2173.37 8471.56,-2173.37 8673.77,-2192.36 8736.3,-2149.37 8757.89,-2134.53 8770.53,-2108.05 8777.81,-2084.91"/>
<polygon fill="#dddddd" stroke="#dddddd" points="8781.16,-2085.92 8780.55,-2075.34 8774.44,-2083.99 8781.16,-2085.92"/>
<text text-anchor="middle" x="5815.06" y="-2174.13" font-family="Times,serif" font-size="14.00">Post release check by establishment</text>
</g>
<!-- 45183&#45;&gt;END_NODE -->
<g id="edge62" class="edge">
<title>45183&#45;&gt;END_NODE</title>
<path fill="none" stroke="#dddddd" d="M3003.38,-2116.82C3116.68,-2120.59 3290.48,-2125.37 3441.42,-2125.37 3441.42,-2125.37 3441.42,-2125.37 5095.31,-2125.37 5665.63,-2125.37 5808.17,-2135.37 6378.49,-2135.37 6378.49,-2135.37 6378.49,-2135.37 8395.68,-2135.37 8471.56,-2135.37 8670.07,-2148.4 8736.3,-2111.37 8749.04,-2104.25 8759.39,-2092.45 8767.34,-2080.49"/>
<polygon fill="#dddddd" stroke="#dddddd" points="8770.16,-2082.59 8772.42,-2072.24 8764.2,-2078.92 8770.16,-2082.59"/>
<text text-anchor="middle" x="5815.06" y="-2136.13" font-family="Times,serif" font-size="14.00">Contact from other agency: please enter details</text>
</g>
<!-- 45183&#45;&gt;END_NODE -->
<g id="edge63" class="edge">
<title>45183&#45;&gt;END_NODE</title>
<path fill="none" stroke="#dddddd" d="M3003.14,-2105.72C3148.72,-2098.32 3400.39,-2087.37 3616.5,-2087.37 3616.5,-2087.37 3616.5,-2087.37 5479.31,-2087.37 5878.97,-2087.37 5978.83,-2097.37 6378.49,-2097.37 6378.49,-2097.37 6378.49,-2097.37 8395.68,-2097.37 8547.44,-2097.37 8592.38,-2121.54 8736.3,-2073.37 8741.34,-2071.69 8746.36,-2069.39 8751.19,-2066.77"/>
<polygon fill="#dddddd" stroke="#dddddd" points="8752.65,-2069.98 8759.45,-2061.85 8749.07,-2063.96 8752.65,-2069.98"/>
<text text-anchor="middle" x="5815.06" y="-2095.79" font-family="Times,serif" font-size="14.00">Sentence calculations</text>
</g>
<!-- 45183&#45;&gt;END_NODE -->
<g id="edge64" class="edge">
<title>45183&#45;&gt;END_NODE</title>
<path fill="none" stroke="#dddddd" d="M3001.68,-2092.74C3008.2,-2091.89 3014.66,-2091.09 3020.97,-2090.37 3284.59,-2060.49 3351.19,-2049.37 3616.5,-2049.37 3616.5,-2049.37 3616.5,-2049.37 5095.31,-2049.37 5665.63,-2049.37 5808.17,-2059.37 6378.49,-2059.37 6378.49,-2059.37 6378.49,-2059.37 8395.68,-2059.37 8547.19,-2059.37 8585.15,-2055.9 8736.3,-2045.37 8738.37,-2045.23 8740.48,-2045.07 8742.61,-2044.9"/>
<polygon fill="#dddddd" stroke="#dddddd" points="8742.91,-2048.39 8752.57,-2044.03 8742.3,-2041.41 8742.91,-2048.39"/>
<text text-anchor="middle" x="5815.06" y="-2060.13" font-family="Times,serif" font-size="14.00">Other: please explain</text>
</g>
<!-- 45184 -->
<g id="node8" class="node">
<title>45184</title>
<ellipse fill="none" stroke="black" cx="3442.42" cy="-1879.37" rx="142.45" ry="142.45"/>
<text text-anchor="middle" x="3442.42" y="-1874.32" font-family="Times,serif" font-size="14.00">What date was the error identified?</text>
</g>
<!-- 45183&#45;&gt;45184 -->
<g id="edge65" class="edge">
<title>45183&#45;&gt;45184</title>
<path fill="none" stroke="#dddddd" d="M2989.38,-2055.59C2999.87,-2051.46 3010.5,-2047.78 3020.97,-2044.87 3133.19,-2013.7 3175.09,-2067.66 3281.97,-2021.37 3300.48,-2013.36 3318.33,-2002.33 3334.96,-1989.94"/>
<polygon fill="#dddddd" stroke="#dddddd" points="3337.08,-1992.72 3342.87,-1983.85 3332.81,-1987.18 3337.08,-1992.72"/>
<text text-anchor="middle" x="3151.47" y="-2048.07" font-family="Times,serif" font-size="14.00">Contact from PEMS</text>
</g>
<!-- 45183&#45;&gt;45184 -->
<g id="edge66" class="edge">
<title>45183&#45;&gt;45184</title>
<path fill="none" stroke="black" d="M2970.5,-2028.89C2986.33,-2017.74 3003.41,-2007.79 3020.97,-2000.87 3129.19,-1958.23 3171.62,-2018.17 3281.97,-1981.37 3293.43,-1977.55 3304.88,-1972.73 3316.1,-1967.27"/>
<polygon fill="black" stroke="black" points="3317.64,-1970.41 3324.97,-1962.76 3314.47,-1964.17 3317.64,-1970.41"/>
<text text-anchor="middle" x="3151.47" y="-2004.07" font-family="Times,serif" font-size="14.00">Contact from courts</text>
</g>
<!-- 45183&#45;&gt;45184 -->
<g id="edge67" class="edge">
<title>45183&#45;&gt;45184</title>
<path fill="none" stroke="black" d="M2952.68,-2013.29C2972.36,-1992.56 2995.44,-1973.26 3020.97,-1960.87 3073.3,-1935.5 3225.24,-1954.22 3281.97,-1941.37 3287.85,-1940.04 3293.81,-1938.53 3299.78,-1936.88"/>
<polygon fill="black" stroke="black" points="3300.47,-1940.32 3309.1,-1934.18 3298.52,-1933.6 3300.47,-1940.32"/>
<text text-anchor="middle" x="3151.47" y="-1964.07" font-family="Times,serif" font-size="14.00">Contact from UKBA</text>
</g>
<!-- 45183&#45;&gt;45184 -->
<g id="edge68" class="edge">
<title>45183&#45;&gt;45184</title>
<path fill="none" stroke="black" d="M2936.98,-2003.48C2958.67,-1971.49 2986.71,-1939.98 3020.97,-1920.87 3071.76,-1892.54 3224.13,-1907.52 3281.97,-1901.37 3284.51,-1901.1 3287.07,-1900.83 3289.65,-1900.54"/>
<polygon fill="black" stroke="black" points="3290.01,-1904.02 3299.55,-1899.41 3289.22,-1897.07 3290.01,-1904.02"/>
<text text-anchor="middle" x="3151.47" y="-1924.07" font-family="Times,serif" font-size="14.00">Contact from police</text>
</g>
<!-- 45183&#45;&gt;45184 -->
<g id="edge69" class="edge">
<title>45183&#45;&gt;45184</title>
<path fill="none" stroke="black" d="M2922.3,-1997.23C2944.18,-1952.68 2976.14,-1906.36 3020.97,-1880.87 3044.15,-1867.7 3177.83,-1869.07 3288.32,-1872.68"/>
<polygon fill="black" stroke="black" points="3287.99,-1876.17 3298.11,-1873.01 3288.23,-1869.18 3287.99,-1876.17"/>
<text text-anchor="middle" x="3151.47" y="-1884.07" font-family="Times,serif" font-size="14.00">Post release check by establishment</text>
</g>
<!-- 45183&#45;&gt;45184 -->
<g id="edge70" class="edge">
<title>45183&#45;&gt;45184</title>
<path fill="none" stroke="black" d="M2913.63,-1994.5C2934.67,-1940.47 2968.4,-1881.53 3020.97,-1849.87 3065.31,-1823.18 3189.01,-1834.99 3290.84,-1850.91"/>
<polygon fill="black" stroke="black" points="3290.27,-1854.36 3300.7,-1852.47 3291.37,-1847.45 3290.27,-1854.36"/>
<text text-anchor="middle" x="3151.47" y="-1853.07" font-family="Times,serif" font-size="14.00">Contact from other agency : please enter details</text>
</g>
<!-- 45183&#45;&gt;45184 -->
<g id="edge71" class="edge">
<title>45183&#45;&gt;45184</title>
<path fill="none" stroke="black" d="M2905.2,-1992.62C2924.52,-1927.83 2959.27,-1853.21 3020.97,-1813.87 3069.88,-1782.7 3225.07,-1802.64 3281.97,-1813.87 3288.37,-1815.14 3294.83,-1816.66 3301.3,-1818.39"/>
<polygon fill="black" stroke="black" points="3300.15,-1821.7 3310.73,-1821.07 3302.06,-1814.97 3300.15,-1821.7"/>
<text text-anchor="middle" x="3151.47" y="-1817.07" font-family="Times,serif" font-size="14.00">Sentence calculations (new receptions)</text>
</g>
<!-- 45183&#45;&gt;45184 -->
<g id="edge72" class="edge">
<title>45183&#45;&gt;45184</title>
<path fill="none" stroke="black" d="M2898.07,-1991.31C2915.04,-1915.88 2949.81,-1824.42 3020.97,-1776.87 3069.2,-1744.65 3226.32,-1760.53 3281.97,-1776.87 3293.81,-1780.35 3305.61,-1785.01 3317.12,-1790.43"/>
<polygon fill="black" stroke="black" points="3315.28,-1793.43 3325.8,-1794.71 3318.38,-1787.15 3315.28,-1793.43"/>
<text text-anchor="middle" x="3151.47" y="-1780.07" font-family="Times,serif" font-size="14.00">Other: please explain</text>
</g>
<!-- 45183&#45;&gt;45184 -->
<g id="edge73" class="edge">
<title>45183&#45;&gt;45184</title>
<path fill="none" stroke="black" d="M2891.81,-1990.54C2905.85,-1904.33 2939.7,-1794.4 3020.97,-1737.87 3116.2,-1671.64 3173.53,-1696.7 3281.97,-1737.87 3301.12,-1745.15 3319.45,-1755.89 3336.41,-1768.26"/>
<polygon fill="black" stroke="black" points="3333.85,-1770.72 3343.94,-1773.96 3338.07,-1765.14 3333.85,-1770.72"/>
<text text-anchor="middle" x="3151.47" y="-1741.07" font-family="Times,serif" font-size="14.00">Contact from PEMS</text>
</g>
<!-- 45184&#45;&gt;END_NODE -->
<g id="edge74" class="edge">
<title>45184&#45;&gt;END_NODE</title>
<path fill="none" stroke="#dddddd" d="M3563.53,-1954.8C3591.12,-1969.33 3620.94,-1982.93 3650.13,-1992.37 3714.34,-2013.15 3733.3,-2011.37 3800.79,-2011.37 3800.79,-2011.37 3800.79,-2011.37 5095.31,-2011.37 5833.26,-2011.37 6017.72,-2021.37 6755.67,-2021.37 6755.67,-2021.37 6755.67,-2021.37 8395.68,-2021.37 8521.53,-2021.37 8669.87,-2031.29 8742.51,-2036.8"/>
<polygon fill="#dddddd" stroke="#dddddd" points="8742.18,-2040.28 8752.42,-2037.56 8742.71,-2033.3 8742.18,-2040.28"/>
<text text-anchor="middle" x="6126.15" y="-2022.97" font-family="Times,serif" font-size="14.00">Date:</text>
</g>
<!-- 45185 -->
<g id="node9" class="node">
<title>45185</title>
<ellipse fill="none" stroke="black" cx="3801.79" cy="-1831.37" rx="151.67" ry="151.67"/>
<text text-anchor="middle" x="3801.79" y="-1826.32" font-family="Times,serif" font-size="14.00">What was the category of the person?</text>
</g>
<!-- 45184&#45;&gt;45185 -->
<g id="edge75" class="edge">
<title>45184&#45;&gt;45185</title>
<path fill="none" stroke="black" d="M3583.9,-1860.51C3602.27,-1858.04 3621.21,-1855.5 3639.89,-1852.99"/>
<polygon fill="black" stroke="black" points="3640.22,-1856.47 3649.66,-1851.67 3639.29,-1849.54 3640.22,-1856.47"/>
<text text-anchor="middle" x="3617.5" y="-1860.01" font-family="Times,serif" font-size="14.00">Date:</text>
</g>
<!-- 45185&#45;&gt;END_NODE -->
<g id="edge76" class="edge">
<title>45185&#45;&gt;END_NODE</title>
<path fill="none" stroke="#dddddd" d="M3935,-1904.29C4006.27,-1937 4097.01,-1968.37 4182.95,-1968.37 4182.95,-1968.37 4182.95,-1968.37 5816.06,-1968.37 6233.72,-1968.37 6338.02,-1983.37 6755.67,-1983.37 6755.67,-1983.37 6755.67,-1983.37 8395.68,-1983.37 8547.44,-1983.37 8592.38,-1959.21 8736.3,-2007.37 8741.34,-2009.06 8746.36,-2011.36 8751.19,-2013.98"/>
<polygon fill="#dddddd" stroke="#dddddd" points="8749.07,-2016.79 8759.45,-2018.9 8752.65,-2010.77 8749.07,-2016.79"/>
<text text-anchor="middle" x="6379.49" y="-1983.33" font-family="Times,serif" font-size="14.00">Enter details:</text>
</g>
<!-- 45186 -->
<g id="node10" class="node">
<title>45186</title>
<ellipse fill="none" stroke="black" cx="4183.95" cy="-1741.37" rx="122.49" ry="122.49"/>
<text text-anchor="middle" x="4183.95" y="-1736.32" font-family="Times,serif" font-size="14.00">What was the prisoner status?</text>
</g>
<!-- 45185&#45;&gt;45186 -->
<g id="edge77" class="edge">
<title>45185&#45;&gt;45186</title>
<path fill="none" stroke="black" d="M3949.77,-1796.58C3983.84,-1788.51 4019.86,-1779.98 4053.14,-1772.11"/>
<polygon fill="black" stroke="black" points="4053.91,-1775.52 4062.84,-1769.81 4052.3,-1768.71 4053.91,-1775.52"/>
<text text-anchor="middle" x="4007.46" y="-1792.27" font-family="Times,serif" font-size="14.00">Enter details:</text>
</g>
<!-- 45186&#45;&gt;END_NODE -->
<g id="edge78" class="edge">
<title>45186&#45;&gt;END_NODE</title>
<path fill="none" stroke="#dddddd" d="M4253.49,-1842.51C4273.66,-1864.9 4297.61,-1885.94 4324.44,-1899.37 4476.7,-1975.62 4536.04,-1930.37 4706.32,-1930.37 4706.32,-1930.37 4706.32,-1930.37 5816.06,-1930.37 6233.68,-1930.37 6338.05,-1938.37 6755.67,-1938.37 6755.67,-1938.37 6755.67,-1938.37 8395.68,-1938.37 8547.69,-1938.37 8604.38,-1893.84 8736.3,-1969.37 8748.97,-1976.63 8759.3,-1988.46 8767.26,-2000.41"/>
<polygon fill="#dddddd" stroke="#dddddd" points="8764.11,-2001.98 8772.34,-2008.65 8770.07,-1998.3 8764.11,-2001.98"/>
<text text-anchor="middle" x="6570.89" y="-1941.44" font-family="Times,serif" font-size="14.00">Sentenced prisoner</text>
</g>
<!-- 45186&#45;&gt;END_NODE -->
<g id="edge79" class="edge">
<title>45186&#45;&gt;END_NODE</title>
<path fill="none" stroke="#dddddd" d="M4277.22,-1821.39C4292.24,-1831.22 4308.22,-1840.02 4324.44,-1846.37 4483.28,-1908.63 4535.71,-1885.37 4706.32,-1885.37 4706.32,-1885.37 4706.32,-1885.37 8395.68,-1885.37 8547.96,-1885.37 8613.8,-1831.92 8736.3,-1922.37 8759.75,-1939.69 8772.51,-1970.07 8779.38,-1995.67"/>
<polygon fill="#dddddd" stroke="#dddddd" points="8775.93,-1996.3 8781.7,-2005.19 8782.74,-1994.64 8775.93,-1996.3"/>
<text text-anchor="middle" x="6570.89" y="-1888.57" font-family="Times,serif" font-size="14.00">Remand prisoner</text>
</g>
<!-- 45186&#45;&gt;END_NODE -->
<g id="edge80" class="edge">
<title>45186&#45;&gt;END_NODE</title>
<path fill="none" stroke="#dddddd" d="M4298.41,-1786.36C4307.14,-1788.99 4315.89,-1791.38 4324.44,-1793.37 4490.58,-1832.15 4535.71,-1832.37 4706.32,-1832.37 4706.32,-1832.37 4706.32,-1832.37 8395.68,-1832.37 8547.82,-1832.37 8619.25,-1769.18 8736.3,-1866.37 8773.76,-1897.48 8784.52,-1954.55 8787.16,-1994.83"/>
<polygon fill="#dddddd" stroke="#dddddd" points="8783.66,-1994.9 8787.65,-2004.72 8790.66,-1994.56 8783.66,-1994.9"/>
<text text-anchor="middle" x="6570.89" y="-1835.57" font-family="Times,serif" font-size="14.00">Immigration detainee</text>
</g>
<!-- 45186&#45;&gt;END_NODE -->
<g id="edge81" class="edge">
<title>45186&#45;&gt;END_NODE</title>
<path fill="none" stroke="#dddddd" d="M4305.92,-1755.2C4411.47,-1766.07 4568.82,-1779.37 4706.32,-1779.37 4706.32,-1779.37 4706.32,-1779.37 6380.49,-1779.37 6877.24,-1779.37 7001.35,-1793.37 7498.1,-1793.37 7498.1,-1793.37 7498.1,-1793.37 8395.68,-1793.37 8471.44,-1793.37 8678.33,-1759.59 8736.3,-1808.37 8764.38,-1832.01 8778,-1934.97 8783.69,-1995.49"/>
<polygon fill="#dddddd" stroke="#dddddd" points="8780.18,-1995.48 8784.56,-2005.13 8787.15,-1994.85 8780.18,-1995.48"/>
<text text-anchor="middle" x="6570.89" y="-1784.34" font-family="Times,serif" font-size="14.00">Recall prisoner</text>
</g>
<!-- 45186&#45;&gt;END_NODE -->
<g id="edge82" class="edge">
<title>45186&#45;&gt;END_NODE</title>
<path fill="none" stroke="#dddddd" d="M4306.79,-1742.26C4740.71,-1745.34 6251.35,-1755.37 7498.1,-1755.37 7498.1,-1755.37 7498.1,-1755.37 8395.68,-1755.37 8471.54,-1755.37 8679.43,-1728.16 8736.3,-1778.37 8768.07,-1806.42 8780.4,-1928.15 8784.85,-1995.37"/>
<polygon fill="#dddddd" stroke="#dddddd" points="8781.34,-1995.18 8785.46,-2004.95 8788.32,-1994.75 8781.34,-1995.18"/>
<text text-anchor="middle" x="6570.89" y="-1757.34" font-family="Times,serif" font-size="14.00">Civil prisoner</text>
</g>
<!-- 45189 -->
<g id="node11" class="node">
<title>45189</title>
<ellipse fill="none" stroke="black" cx="4707.32" cy="-1520.37" rx="193.12" ry="193.12"/>
<text text-anchor="middle" x="4707.32" y="-1515.32" font-family="Times,serif" font-size="14.00">Has the person been reported UAL to the police?</text>
</g>
<!-- 45186&#45;&gt;45189 -->
<g id="edge83" class="edge">
<title>45186&#45;&gt;45189</title>
<path fill="none" stroke="black" d="M4303.93,-1714.75C4310.86,-1713.39 4317.73,-1712.08 4324.44,-1710.87 4400.32,-1697.19 4425.33,-1716.77 4496.19,-1686.37 4515.75,-1677.99 4535.03,-1667.29 4553.51,-1655.38"/>
<polygon fill="black" stroke="black" points="4555.42,-1658.32 4561.83,-1649.89 4551.56,-1652.48 4555.42,-1658.32"/>
<text text-anchor="middle" x="4410.32" y="-1714.07" font-family="Times,serif" font-size="14.00">Sentenced prisoner</text>
</g>
<!-- 45186&#45;&gt;45189 -->
<g id="edge84" class="edge">
<title>45186&#45;&gt;45189</title>
<path fill="none" stroke="black" d="M4289.78,-1679.48C4301.23,-1674.29 4312.92,-1669.61 4324.44,-1665.87 4397.68,-1642.16 4423.36,-1668.32 4496.19,-1643.37 4508.61,-1639.12 4521.11,-1634.09 4533.49,-1628.53"/>
<polygon fill="black" stroke="black" points="4534.86,-1631.75 4542.47,-1624.38 4531.93,-1625.4 4534.86,-1631.75"/>
<text text-anchor="middle" x="4410.32" y="-1669.07" font-family="Times,serif" font-size="14.00">Remand prisoner</text>
</g>
<!-- 45186&#45;&gt;45189 -->
<g id="edge85" class="edge">
<title>45186&#45;&gt;45189</title>
<path fill="none" stroke="black" d="M4271.82,-1655.36C4288.26,-1642.78 4306.09,-1631.26 4324.44,-1622.87 4394.69,-1590.77 4421.36,-1615.49 4496.19,-1596.37 4502.51,-1594.76 4508.91,-1593.03 4515.35,-1591.21"/>
<polygon fill="black" stroke="black" points="4516.13,-1594.62 4524.75,-1588.47 4514.18,-1587.9 4516.13,-1594.62"/>
<text text-anchor="middle" x="4410.32" y="-1626.07" font-family="Times,serif" font-size="14.00">Immigration detainee</text>
</g>
<!-- 45186&#45;&gt;45189 -->
<g id="edge86" class="edge">
<title>45186&#45;&gt;45189</title>
<path fill="none" stroke="black" d="M4251.52,-1638.84C4272.06,-1614.58 4296.69,-1591.3 4324.44,-1575.87 4341.41,-1566.44 4421.31,-1554.17 4503.68,-1543.57"/>
<polygon fill="black" stroke="black" points="4504.07,-1547.05 4513.54,-1542.31 4503.18,-1540.1 4504.07,-1547.05"/>
<text text-anchor="middle" x="4410.32" y="-1579.07" font-family="Times,serif" font-size="14.00">Recall prisoner</text>
</g>
<!-- 45186&#45;&gt;45189 -->
<g id="edge87" class="edge">
<title>45186&#45;&gt;45189</title>
<path fill="none" stroke="black" d="M4230.87,-1627.97C4252.97,-1588.47 4283.69,-1548.42 4324.44,-1525.87 4378.51,-1495.96 4443.83,-1487.1 4505.03,-1487.92"/>
<polygon fill="black" stroke="black" points="4504.82,-1491.42 4514.9,-1488.15 4504.98,-1484.42 4504.82,-1491.42"/>
<text text-anchor="middle" x="4410.32" y="-1529.07" font-family="Times,serif" font-size="14.00">Civil prisoner</text>
</g>
<!-- 45189&#45;&gt;END_NODE -->
<g id="edge97" class="edge">
<title>45189&#45;&gt;END_NODE</title>
<path fill="none" stroke="#dddddd" d="M4864.17,-1633.6C4881.85,-1642.65 4900.12,-1650.53 4918.44,-1656.37 5155.31,-1731.9 5228.7,-1680.37 5477.31,-1680.37 5477.31,-1680.37 5477.31,-1680.37 6380.49,-1680.37 6628.98,-1680.37 7249.61,-1717.37 7498.1,-1717.37 7498.1,-1717.37 7498.1,-1717.37 8395.68,-1717.37 8471.56,-1717.37 8680.08,-1690.41 8736.3,-1741.37 8772.87,-1774.52 8783.15,-1919.47 8786.03,-1994.69"/>
<polygon fill="#dddddd" stroke="#dddddd" points="8782.53,-1994.76 8786.38,-2004.63 8789.53,-1994.51 8782.53,-1994.76"/>
<text text-anchor="middle" x="6756.67" y="-1696.6" font-family="Times,serif" font-size="14.00">Yes: date</text>
</g>
<!-- 45189&#45;&gt;END_NODE -->
<g id="edge98" class="edge">
<title>45189&#45;&gt;END_NODE</title>
<path fill="none" stroke="#dddddd" d="M4880.37,-1607.04C4893.06,-1611.43 4905.83,-1615.29 4918.44,-1618.37 5159.95,-1677.39 5228.7,-1642.37 5477.31,-1642.37 5477.31,-1642.37 5477.31,-1642.37 6380.49,-1642.37 6628.98,-1642.37 7249.61,-1679.37 7498.1,-1679.37 7498.1,-1679.37 7498.1,-1679.37 8395.68,-1679.37 8471.61,-1679.37 8680.71,-1654.65 8736.3,-1706.37 8777.43,-1744.65 8785.48,-1912.69 8786.93,-1994.84"/>
<polygon fill="#dddddd" stroke="#dddddd" points="8783.43,-1994.85 8787.07,-2004.8 8790.43,-1994.75 8783.43,-1994.85"/>
<text text-anchor="middle" x="6756.67" y="-1658.6" font-family="Times,serif" font-size="14.00">Police incident number:</text>
</g>
<!-- 45189&#45;&gt;END_NODE -->
<g id="edge99" class="edge">
<title>45189&#45;&gt;END_NODE</title>
<path fill="none" stroke="#dddddd" d="M4898.09,-1552.73C5053.35,-1576.39 5278.88,-1604.37 5477.31,-1604.37 5477.31,-1604.37 5477.31,-1604.37 6380.49,-1604.37 6877.48,-1604.37 7001.11,-1641.37 7498.1,-1641.37 7498.1,-1641.37 7498.1,-1641.37 8395.68,-1641.37 8547.61,-1641.37 8626.13,-1565.75 8736.3,-1670.37 8782.14,-1713.91 8787.65,-1905.79 8787.68,-1994.77"/>
<polygon fill="#dddddd" stroke="#dddddd" points="8784.18,-1994.59 8787.65,-2004.6 8791.18,-1994.61 8784.18,-1994.59"/>
<text text-anchor="middle" x="6756.67" y="-1618.85" font-family="Times,serif" font-size="14.00">No</text>
</g>
<!-- 45188 -->
<g id="node13" class="node">
<title>45188</title>
<ellipse fill="none" stroke="black" cx="5478.31" cy="-1389.37" rx="186.98" ry="186.98"/>
<text text-anchor="middle" x="5478.31" y="-1384.32" font-family="Times,serif" font-size="14.00">Has the release in error been reported to NOU?</text>
</g>
<!-- 45189&#45;&gt;45188 -->
<g id="edge100" class="edge">
<title>45189&#45;&gt;45188</title>
<path fill="none" stroke="black" d="M4900.67,-1527.7C5010.51,-1527.37 5149.88,-1519.27 5270.19,-1488.37 5280.43,-1485.74 5290.78,-1482.6 5301.09,-1479.06"/>
<polygon fill="black" stroke="black" points="5302.15,-1482.4 5310.4,-1475.76 5299.8,-1475.81 5302.15,-1482.4"/>
<text text-anchor="middle" x="5094.31" y="-1530.7" font-family="Times,serif" font-size="14.00">Yes: date</text>
</g>
<!-- 45189&#45;&gt;45188 -->
<g id="edge101" class="edge">
<title>45189&#45;&gt;45188</title>
<path fill="none" stroke="black" d="M4894.75,-1472.22C4902.73,-1470.66 4910.65,-1469.2 4918.44,-1467.87 5073.21,-1441.55 5115.08,-1459.66 5270.19,-1435.37 5274.9,-1434.64 5279.66,-1433.86 5284.45,-1433.04"/>
<polygon fill="black" stroke="black" points="5284.97,-1436.5 5294.21,-1431.33 5283.76,-1429.61 5284.97,-1436.5"/>
<text text-anchor="middle" x="5094.31" y="-1471.07" font-family="Times,serif" font-size="14.00">Police incident number:</text>
</g>
<!-- 45189&#45;&gt;45188 -->
<g id="edge102" class="edge">
<title>45189&#45;&gt;45188</title>
<path fill="none" stroke="black" d="M4877.42,-1428.1C4891.04,-1422.95 4904.81,-1418.43 4918.44,-1414.87 5035.75,-1384.24 5171.54,-1377.42 5279.9,-1378.47"/>
<polygon fill="black" stroke="black" points="5279.74,-1381.97 5289.78,-1378.59 5279.83,-1374.97 5279.74,-1381.97"/>
<text text-anchor="middle" x="5094.31" y="-1418.07" font-family="Times,serif" font-size="14.00">No</text>
</g>
<!-- 45187 -->
<g id="node12" class="node">
<title>45187</title>
<ellipse fill="#dddddd" stroke="#dddddd" cx="8394.68" cy="-698.37" rx="193.12" ry="193.12"/>
<text text-anchor="middle" x="8394.68" y="-693.32" font-family="Times,serif" font-size="14.00">Has the person been reported UAL to the police?</text>
</g>
<!-- 45187&#45;&gt;END_NODE -->
<g id="edge88" class="edge">
<title>45187&#45;&gt;END_NODE</title>
<path fill="none" stroke="#dddddd" d="M8544.97,-820.4C8565.05,-835.39 8585.67,-850.09 8605.8,-863.37 8660.99,-899.81 8701.29,-878.76 8736.3,-934.87 8764.76,-980.5 8782.34,-1792.06 8786.3,-1994.78"/>
<polygon fill="#dddddd" stroke="#dddddd" points="8782.8,-1994.72 8786.49,-2004.65 8789.8,-1994.58 8782.8,-1994.72"/>
<text text-anchor="middle" x="8671.05" y="-938.07" font-family="Times,serif" font-size="14.00">Yes: date</text>
</g>
<!-- 45187&#45;&gt;END_NODE -->
<g id="edge89" class="edge">
<title>45187&#45;&gt;END_NODE</title>
<path fill="none" stroke="#dddddd" d="M8584.24,-736.6C8642.42,-758 8700.53,-791.26 8736.3,-842.87 8769.67,-891.03 8783.69,-1781.47 8786.57,-1994.75"/>
<polygon fill="#dddddd" stroke="#dddddd" points="8783.07,-1994.65 8786.71,-2004.6 8790.07,-1994.55 8783.07,-1994.65"/>
<text text-anchor="middle" x="8671.05" y="-846.07" font-family="Times,serif" font-size="14.00">Police incident number:</text>
</g>
<!-- 45187&#45;&gt;END_NODE -->
<g id="edge90" class="edge">
<title>45187&#45;&gt;END_NODE</title>
<path fill="none" stroke="#dddddd" d="M8586,-670.35C8641.64,-672.79 8697.8,-687.49 8736.3,-727.87 8780.91,-774.67 8786.39,-1768.86 8787.06,-1994.92"/>
<polygon fill="#dddddd" stroke="#dddddd" points="8783.56,-1994.8 8787.09,-2004.79 8790.56,-1994.78 8783.56,-1994.8"/>
<text text-anchor="middle" x="8671.05" y="-731.07" font-family="Times,serif" font-size="14.00">No</text>
</g>
<!-- 45188&#45;&gt;END_NODE -->
<g id="edge91" class="edge">
<title>45188&#45;&gt;END_NODE</title>
<path fill="none" stroke="#dddddd" d="M5620.95,-1510.63C5641.84,-1523.43 5663.94,-1534.59 5686.44,-1542.37 5781.6,-1575.29 7397.41,-1596.37 7498.1,-1596.37 7498.1,-1596.37 7498.1,-1596.37 8395.68,-1596.37 8547.69,-1596.37 8627.12,-1521.61 8736.3,-1627.37 8762.38,-1652.64 8778.86,-1892.93 8784.74,-1994.93"/>
<polygon fill="#dddddd" stroke="#dddddd" points="8781.24,-1995.08 8785.3,-2004.87 8788.23,-1994.69 8781.24,-1995.08"/>
<text text-anchor="middle" x="7112.89" y="-1598.47" font-family="Times,serif" font-size="14.00">Yes: date</text>
</g>
<!-- 45188&#45;&gt;END_NODE -->
<g id="edge92" class="edge">
<title>45188&#45;&gt;END_NODE</title>
<path fill="none" stroke="#dddddd" d="M5638.05,-1487.28C5653.98,-1494.1 5670.26,-1500 5686.44,-1504.37 5880.8,-1556.95 7296.76,-1543.37 7498.1,-1543.37 7498.1,-1543.37 7498.1,-1543.37 8395.68,-1543.37 8547.41,-1543.37 8626.91,-1461.22 8736.3,-1566.37 8766.88,-1595.77 8781.09,-1882.03 8785.54,-1994.93"/>
<polygon fill="#dddddd" stroke="#dddddd" points="8782.04,-1994.87 8785.92,-2004.73 8789.03,-1994.6 8782.04,-1994.87"/>
<text text-anchor="middle" x="7112.89" y="-1548.15" font-family="Times,serif" font-size="14.00">No</text>
</g>
<!-- 45188&#45;&gt;END_NODE -->
<g id="edge93" class="edge">
<title>45188&#45;&gt;END_NODE</title>
<path fill="none" stroke="#dddddd" d="M5660.47,-1433.09C5789.28,-1460.38 5966.83,-1490.37 6125.15,-1490.37 6125.15,-1490.37 6125.15,-1490.37 8395.68,-1490.37 8471.48,-1490.37 8681.57,-1455.93 8736.3,-1508.37 8771.14,-1541.76 8782.94,-1872.22 8786.14,-1994.87"/>
<polygon fill="#dddddd" stroke="#dddddd" points="8782.63,-1994.65 8786.38,-2004.56 8789.63,-1994.47 8782.63,-1994.65"/>
<text text-anchor="middle" x="7112.89" y="-1493.57" font-family="Times,serif" font-size="14.00">Incident ref no:</text>
</g>
<!-- 45190 -->
<g id="node14" class="node">
<title>45190</title>
<ellipse fill="none" stroke="black" cx="6126.15" cy="-1298.37" rx="164.46" ry="164.46"/>
<text text-anchor="middle" x="6126.15" y="-1293.32" font-family="Times,serif" font-size="14.00">Has the person been returned to custody?</text>
</g>
<!-- 45188&#45;&gt;45190 -->
<g id="edge94" class="edge">
<title>45188&#45;&gt;45190</title>
<path fill="none" stroke="black" d="M5665.67,-1392.52C5751.15,-1390.71 5853.34,-1383.94 5943.69,-1365.37 5949.65,-1364.15 5955.68,-1362.76 5961.73,-1361.24"/>
<polygon fill="black" stroke="black" points="5962.41,-1364.68 5971.18,-1358.75 5960.62,-1357.91 5962.41,-1364.68"/>
<text text-anchor="middle" x="5815.06" y="-1394.99" font-family="Times,serif" font-size="14.00">Yes: date</text>
</g>
<!-- 45188&#45;&gt;45190 -->
<g id="edge95" class="edge">
<title>45188&#45;&gt;45190</title>
<path fill="none" stroke="black" d="M5661.2,-1348.89C5669.72,-1347.44 5678.16,-1346.09 5686.44,-1344.87 5799.92,-1328.24 5829.7,-1337.07 5943.69,-1324.37 5946.36,-1324.08 5949.05,-1323.77 5951.75,-1323.46"/>
<polygon fill="black" stroke="black" points="5951.95,-1326.96 5961.46,-1322.31 5951.12,-1320.01 5951.95,-1326.96"/>
<text text-anchor="middle" x="5815.06" y="-1348.07" font-family="Times,serif" font-size="14.00">Incident ref no:</text>
</g>
<!-- 45188&#45;&gt;45190 -->
<g id="edge96" class="edge">
<title>45188&#45;&gt;45190</title>
<path fill="none" stroke="black" d="M5649.53,-1313.29C5661.86,-1309.58 5674.24,-1306.37 5686.44,-1303.87 5772.23,-1286.3 5869.45,-1283.41 5950.52,-1285.55"/>
<polygon fill="black" stroke="black" points="5950.24,-1289.04 5960.34,-1285.83 5950.45,-1282.04 5950.24,-1289.04"/>
<text text-anchor="middle" x="5815.06" y="-1307.07" font-family="Times,serif" font-size="14.00">No</text>
</g>
<!-- 45190&#45;&gt;END_NODE -->
<g id="edge103" class="edge">
<title>45190&#45;&gt;END_NODE</title>
<path fill="none" stroke="#dddddd" d="M6257.47,-1398.19C6274.01,-1407.12 6291.24,-1414.86 6308.61,-1420.37 6372.9,-1440.79 8687.03,-1430.3 8736.3,-1476.37 8773.94,-1511.58 8784.04,-1867.56 8786.46,-1995.16"/>
<polygon fill="#dddddd" stroke="#dddddd" points="8782.96,-1994.98 8786.64,-2004.92 8789.95,-1994.85 8782.96,-1994.98"/>
<text text-anchor="middle" x="7499.1" y="-1442.45" font-family="Times,serif" font-size="14.00">Yes</text>
</g>
<!-- 45190&#45;&gt;END_NODE -->
<g id="edge104" class="edge">
<title>45190&#45;&gt;END_NODE</title>
<path fill="none" stroke="#dddddd" d="M6273.68,-1372.16C6285.31,-1376.17 6297.03,-1379.66 6308.61,-1382.37 6439.99,-1413.16 8640.91,-1360.94 8736.3,-1456.37 8774.14,-1494.24 8784.13,-1864.34 8786.49,-1994.99"/>
<polygon fill="#dddddd" stroke="#dddddd" points="8782.99,-1994.7 8786.66,-2004.64 8789.98,-1994.58 8782.99,-1994.7"/>
<text text-anchor="middle" x="7499.1" y="-1398.58" font-family="Times,serif" font-size="14.00">No</text>
</g>
<!-- 45190&#45;&gt;END_NODE -->
<g id="edge105" class="edge">
<title>45190&#45;&gt;END_NODE</title>
<path fill="none" stroke="#dddddd" d="M6285.58,-1340.73C6293.34,-1342.11 6301.04,-1343.34 6308.61,-1344.37 6442.31,-1362.62 8644.35,-1324.61 8736.3,-1423.37 8775.08,-1465.03 8784.5,-1860.19 8786.6,-1995.32"/>
<polygon fill="#dddddd" stroke="#dddddd" points="8783.09,-1995 8786.74,-2004.95 8790.09,-1994.9 8783.09,-1995"/>
<text text-anchor="middle" x="7499.1" y="-1357.34" font-family="Times,serif" font-size="14.00">Other: please enter details</text>
</g>
<!-- 45190&#45;&gt;END_NODE -->
<g id="edge109" class="edge">
<title>45190&#45;&gt;END_NODE</title>
<path fill="none" stroke="black" d="M6289.83,-1315.2C6296.17,-1315.64 6302.45,-1316.03 6308.61,-1316.37 6443.33,-1323.85 8645.55,-1288.52 8736.3,-1388.37 8776.96,-1433.12 8785.17,-1854.82 8786.77,-1995.18"/>
<polygon fill="black" stroke="black" points="8783.27,-1994.86 8786.88,-2004.82 8790.27,-1994.78 8783.27,-1994.86"/>
<text text-anchor="middle" x="7499.1" y="-1321.36" font-family="Times,serif" font-size="14.00">No</text>
</g>
<!-- 45191 -->
<g id="node15" class="node">
<title>45191</title>
<ellipse fill="none" stroke="black" cx="6570.89" cy="-1199.37" rx="102.53" ry="102.53"/>
<text text-anchor="middle" x="6570.89" y="-1194.32" font-family="Times,serif" font-size="14.00">Date returned to custody</text>
</g>
<!-- 45190&#45;&gt;45191 -->
<g id="edge106" class="edge">
<title>45190&#45;&gt;45191</title>
<path fill="none" stroke="black" d="M6290.8,-1300.77C6342.83,-1297.58 6399.94,-1289.85 6450.36,-1273.37 6458.94,-1270.57 6467.53,-1267.04 6475.95,-1263.04"/>
<polygon fill="black" stroke="black" points="6477.4,-1266.23 6484.78,-1258.62 6474.27,-1259.97 6477.4,-1266.23"/>
<text text-anchor="middle" x="6379.49" y="-1302.48" font-family="Times,serif" font-size="14.00">Yes</text>
</g>
<!-- 45190&#45;&gt;45191 -->
<g id="edge107" class="edge">
<title>45190&#45;&gt;45191</title>
<path fill="none" stroke="#dddddd" d="M6285.81,-1257.8C6293.51,-1256.08 6301.14,-1254.43 6308.61,-1252.87 6371.13,-1239.88 6387.84,-1242.38 6450.36,-1229.37 6453.55,-1228.71 6456.79,-1228.02 6460.05,-1227.31"/>
<polygon fill="#dddddd" stroke="#dddddd" points="6460.75,-1230.74 6469.74,-1225.14 6459.22,-1223.91 6460.75,-1230.74"/>
<text text-anchor="middle" x="6379.49" y="-1256.07" font-family="Times,serif" font-size="14.00">No</text>
</g>
<!-- 45190&#45;&gt;45191 -->
<g id="edge108" class="edge">
<title>45190&#45;&gt;45191</title>
<path fill="none" stroke="black" d="M6271.43,-1220.64C6283.78,-1216.02 6296.26,-1211.99 6308.61,-1208.87 6356.28,-1196.84 6410.39,-1193.29 6456.95,-1193.2"/>
<polygon fill="black" stroke="black" points="6456.78,-1196.7 6466.79,-1193.24 6456.81,-1189.7 6456.78,-1196.7"/>
<text text-anchor="middle" x="6379.49" y="-1212.07" font-family="Times,serif" font-size="14.00">Other: please enter details</text>
</g>
<!-- 45191&#45;&gt;END_NODE -->
<g id="edge110" class="edge">
<title>45191&#45;&gt;END_NODE</title>
<path fill="none" stroke="#dddddd" d="M6668.38,-1232.12C6718.85,-1247.68 6782.03,-1264.74 6839.92,-1273.37 6944.16,-1288.93 8660.15,-1251.51 8736.3,-1324.37 8784.73,-1370.72 8787.67,-1844.87 8787.38,-1995.03"/>
<polygon fill="#dddddd" stroke="#dddddd" points="8783.88,-1994.57 8787.36,-2004.58 8790.88,-1994.59 8783.88,-1994.57"/>
<text text-anchor="middle" x="7793.7" y="-1281.65" font-family="Times,serif" font-size="14.00">Date:</text>
</g>
<!-- 45192 -->
<g id="node16" class="node">
<title>45192</title>
<ellipse fill="none" stroke="black" cx="7112.89" cy="-991.37" rx="272.96" ry="272.96"/>
<text text-anchor="middle" x="7112.89" y="-986.32" font-family="Times,serif" font-size="14.00">Was person charged with committing a further offence while at large?</text>
</g>
<!-- 45191&#45;&gt;45192 -->
<g id="edge111" class="edge">
<title>45191&#45;&gt;45192</title>
<path fill="none" stroke="black" d="M6666.88,-1162.79C6717.51,-1143.28 6782.57,-1118.23 6847.21,-1093.32"/>
<polygon fill="black" stroke="black" points="6848.1,-1096.73 6856.17,-1089.87 6845.58,-1090.2 6848.1,-1096.73"/>
<text text-anchor="middle" x="6756.67" y="-1152.31" font-family="Times,serif" font-size="14.00">Date:</text>
</g>
<!-- 45192&#45;&gt;END_NODE -->
<g id="edge112" class="edge">
<title>45192&#45;&gt;END_NODE</title>
<path fill="none" stroke="#dddddd" d="M7313.91,-1176.53C7342.49,-1195.25 7372.79,-1211.65 7403.85,-1223.37 7473.18,-1249.55 8683.37,-1234.5 8736.3,-1286.37 8786.93,-1335.99 8788.32,-1839.21 8787.52,-1994.79"/>
<polygon fill="#dddddd" stroke="#dddddd" points="8784.02,-1994.7 8787.47,-2004.72 8791.02,-1994.74 8784.02,-1994.7"/>
<text text-anchor="middle" x="8088.3" y="-1250.5" font-family="Times,serif" font-size="14.00">Yes: please enter details of offence</text>
</g>
<!-- 45192&#45;&gt;END_NODE -->
<g id="edge113" class="edge">
<title>45192&#45;&gt;END_NODE</title>
<path fill="none" stroke="#dddddd" d="M7360.2,-1108.05C7439.06,-1140.38 7527.85,-1171.69 7612.35,-1190.37 7734.53,-1217.38 8649.71,-1170.05 8736.3,-1260.37 8787.2,-1313.48 8788.36,-1836.16 8787.52,-1994.9"/>
<polygon fill="#dddddd" stroke="#dddddd" points="8784.02,-1994.58 8787.47,-2004.6 8791.02,-1994.62 8784.02,-1994.58"/>
<text text-anchor="middle" x="8088.3" y="-1204.71" font-family="Times,serif" font-size="14.00">No</text>
</g>
<!-- 45193 -->
<g id="node17" class="node">
<title>45193</title>
<ellipse fill="none" stroke="black" cx="7793.7" cy="-1000.37" rx="181.35" ry="181.35"/>
<text text-anchor="middle" x="7793.7" y="-995.32" font-family="Times,serif" font-size="14.00">To which establishment was person returned?</text>
</g>
<!-- 45192&#45;&gt;45193 -->
<g id="edge114" class="edge">
<title>45192&#45;&gt;45193</title>
<path fill="none" stroke="black" d="M7386.08,-994.98C7457.91,-995.94 7533.92,-996.94 7600.54,-997.83"/>
<polygon fill="black" stroke="black" points="7600.45,-1001.33 7610.49,-997.96 7600.54,-994.33 7600.45,-1001.33"/>
<text text-anchor="middle" x="7499.1" y="-1000.92" font-family="Times,serif" font-size="14.00">Yes: please enter details of offence</text>
</g>
<!-- 45192&#45;&gt;45193 -->
<g id="edge115" class="edge">
<title>45192&#45;&gt;45193</title>
<path fill="none" stroke="black" d="M7385.59,-972.74C7453.79,-970.62 7526.78,-970.55 7594.35,-974.87 7597.02,-975.05 7599.71,-975.23 7602.41,-975.42"/>
<polygon fill="black" stroke="black" points="7601.85,-978.89 7612.09,-976.18 7602.39,-971.91 7601.85,-978.89"/>
<text text-anchor="middle" x="7499.1" y="-978.07" font-family="Times,serif" font-size="14.00">No</text>
</g>
<!-- 45193&#45;&gt;END_NODE -->
<g id="edge116" class="edge">
<title>45193&#45;&gt;END_NODE</title>
<path fill="none" stroke="#dddddd" d="M7960.03,-1072.88C8032.8,-1101.97 8120.11,-1133.11 8201.55,-1152.37 8259.71,-1166.13 8695.1,-1167.08 8736.3,-1210.37 8763.51,-1238.97 8781.35,-1824.73 8785.97,-1994.59"/>
<polygon fill="#dddddd" stroke="#dddddd" points="8782.47,-1994.67 8786.23,-2004.57 8789.46,-1994.48 8782.47,-1994.67"/>
<text text-anchor="middle" x="8394.68" y="-1181.66" font-family="Times,serif" font-size="14.00">Enter details:</text>
</g>
<!-- 45235 -->
<g id="node18" class="node">
<title>45235</title>
<ellipse fill="none" stroke="black" cx="8394.68" cy="-1026.37" rx="117.37" ry="117.37"/>
<text text-anchor="middle" x="8394.68" y="-1021.32" font-family="Times,serif" font-size="14.00">How long was person UAL?</text>
</g>
<!-- 45193&#45;&gt;45235 -->
<g id="edge117" class="edge">
<title>45193&#45;&gt;45235</title>
<path fill="none" stroke="black" d="M7975.23,-1008.21C8068.92,-1012.28 8181.16,-1017.15 8265.8,-1020.82"/>
<polygon fill="black" stroke="black" points="8265.64,-1024.32 8275.78,-1021.26 8265.94,-1017.33 8265.64,-1024.32"/>
<text text-anchor="middle" x="8088.3" y="-1020.42" font-family="Times,serif" font-size="14.00">Enter details:</text>
</g>
<!-- 45235&#45;&gt;END_NODE -->
<g id="edge124" class="edge">
<title>45235&#45;&gt;END_NODE</title>
<path fill="none" stroke="black" d="M8498.77,-1081.53C8532.17,-1097.6 8569.88,-1113.9 8605.8,-1125.37 8661.94,-1143.31 8697.23,-1104.76 8736.3,-1148.87 8764.59,-1180.82 8781.84,-1817.35 8786.11,-1994.8"/>
<polygon fill="black" stroke="black" points="8782.61,-1994.86 8786.35,-2004.78 8789.61,-1994.7 8782.61,-1994.86"/>
<text text-anchor="middle" x="8671.05" y="-1152.07" font-family="Times,serif" font-size="14.00">Hours</text>
</g>
<!-- 45235&#45;&gt;END_NODE -->
<g id="edge125" class="edge">
<title>45235&#45;&gt;END_NODE</title>
<path fill="none" stroke="black" d="M8507.35,-1060.54C8538.97,-1069.44 8573.57,-1078.47 8605.8,-1085.37 8634.47,-1091.52 8716.56,-1083.19 8736.3,-1104.87 8766.56,-1138.13 8782.49,-1812.03 8786.27,-1994.92"/>
<polygon fill="black" stroke="black" points="8782.76,-1994.8 8786.47,-2004.73 8789.76,-1994.66 8782.76,-1994.8"/>
<text text-anchor="middle" x="8671.05" y="-1108.07" font-family="Times,serif" font-size="14.00">Days</text>
</g>
<!-- 45235&#45;&gt;END_NODE -->
<g id="edge126" class="edge">
<title>45235&#45;&gt;END_NODE</title>
<path fill="none" stroke="black" d="M8512,-1037.76C8609.11,-1047.53 8732.36,-1060.69 8736.3,-1064.87 8768.54,-1099.12 8783.09,-1806.72 8786.4,-1994.8"/>
<polygon fill="black" stroke="black" points="8782.9,-1994.72 8786.57,-2004.66 8789.9,-1994.6 8782.9,-1994.72"/>
<text text-anchor="middle" x="8671.05" y="-1068.07" font-family="Times,serif" font-size="14.00">Weeks</text>
</g>
<!-- 45235&#45;&gt;END_NODE -->
<g id="edge127" class="edge">
<title>45235&#45;&gt;END_NODE</title>
<path fill="none" stroke="black" d="M8511.97,-1019.16C8604.17,-1014.71 8720.13,-1012.43 8736.3,-1027.87 8771.71,-1061.7 8783.99,-1802.17 8786.59,-1994.87"/>
<polygon fill="black" stroke="black" points="8783.09,-1994.77 8786.72,-2004.73 8790.09,-1994.68 8783.09,-1994.77"/>
<text text-anchor="middle" x="8671.05" y="-1031.07" font-family="Times,serif" font-size="14.00">Months</text>
</g>
<!-- 45235&#45;&gt;END_NODE -->
<g id="edge128" class="edge">
<title>45235&#45;&gt;END_NODE</title>
<path fill="none" stroke="black" d="M8502.23,-978.46C8577.46,-952.71 8675.34,-936.81 8736.3,-994.87 8773.01,-1029.84 8784.36,-1798.52 8786.67,-1994.98"/>
<polygon fill="black" stroke="black" points="8783.17,-1994.82 8786.78,-2004.78 8790.17,-1994.74 8783.17,-1994.82"/>
<text text-anchor="middle" x="8671.05" y="-998.07" font-family="Times,serif" font-size="14.00">Other</text>
</g>
<!-- 45194 -->
<g id="node19" class="node">
<title>45194</title>
<ellipse fill="#dddddd" stroke="#dddddd" cx="8394.68" cy="-370.37" rx="117.37" ry="117.37"/>
<text text-anchor="middle" x="8394.68" y="-365.32" font-family="Times,serif" font-size="14.00">How long was person UAL?</text>
</g>
<!-- 45194&#45;&gt;END_NODE -->
<g id="edge118" class="edge">
<title>45194&#45;&gt;END_NODE</title>
<path fill="none" stroke="#dddddd" d="M8500.73,-421.37C8583.38,-468.22 8691.76,-546.39 8736.3,-651.87 8789.47,-777.82 8788.35,-1769.5 8787.4,-1994.9"/>
<polygon fill="#dddddd" stroke="#dddddd" points="8783.9,-1994.73 8787.35,-2004.74 8790.9,-1994.76 8783.9,-1994.73"/>
<text text-anchor="middle" x="8671.05" y="-655.07" font-family="Times,serif" font-size="14.00">Enter value</text>
</g>
<!-- 45195 -->
<g id="node20" class="node">
<title>45195</title>
<ellipse fill="#dddddd" stroke="#dddddd" cx="8394.68" cy="-117.37" rx="117.37" ry="117.37"/>
<text text-anchor="middle" x="8394.68" y="-112.32" font-family="Times,serif" font-size="14.00">How long was person UAL?</text>
</g>
<!-- 45195&#45;&gt;END_NODE -->
<g id="edge119" class="edge">
<title>45195&#45;&gt;END_NODE</title>
<path fill="none" stroke="#dddddd" d="M8500.76,-168.34C8532.59,-188.21 8565.09,-213.67 8587.8,-244.37 8604.61,-267.1 8592.99,-280.17 8605.8,-305.37 8649.03,-390.45 8704.22,-386 8736.3,-475.87 8788.47,-622.01 8788.03,-1752.67 8787.33,-1994.82"/>
<polygon fill="#dddddd" stroke="#dddddd" points="8783.83,-1994.79 8787.3,-2004.8 8790.83,-1994.81 8783.83,-1994.79"/>
<text text-anchor="middle" x="8671.05" y="-479.07" font-family="Times,serif" font-size="14.00">Hours</text>
</g>
<!-- 45195&#45;&gt;END_NODE -->
<g id="edge120" class="edge">
<title>45195&#45;&gt;END_NODE</title>
<path fill="none" stroke="#dddddd" d="M8493.91,-180.22C8524.34,-200.25 8557.75,-222.81 8587.8,-244.37 8596.03,-250.28 8596.59,-254.14 8605.8,-258.37 8659.58,-283.08 8698.19,-239.6 8736.3,-284.87 8792.98,-352.21 8788.78,-1726.71 8787.42,-1995.14"/>
<polygon fill="#dddddd" stroke="#dddddd" points="8783.92,-1994.84 8787.37,-2004.86 8790.92,-1994.88 8783.92,-1994.84"/>
<text text-anchor="middle" x="8671.05" y="-288.07" font-family="Times,serif" font-size="14.00">Days</text>
</g>
<!-- 45195&#45;&gt;END_NODE -->
<g id="edge121" class="edge">
<title>45195&#45;&gt;END_NODE</title>
<path fill="none" stroke="#dddddd" d="M8502.18,-165.68C8535.01,-179.57 8571.55,-194.01 8605.8,-205.37 8662.53,-224.2 8698.83,-191.3 8736.3,-237.87 8793.01,-308.37 8788.77,-1721.57 8787.41,-1994.85"/>
<polygon fill="#dddddd" stroke="#dddddd" points="8783.91,-1994.74 8787.36,-2004.76 8790.91,-1994.77 8783.91,-1994.74"/>
<text text-anchor="middle" x="8671.05" y="-241.07" font-family="Times,serif" font-size="14.00">Weeks</text>
</g>
<!-- 45195&#45;&gt;END_NODE -->
<g id="edge122" class="edge">
<title>45195&#45;&gt;END_NODE</title>
<path fill="none" stroke="#dddddd" d="M8511.33,-133.08C8604.21,-146.86 8721.52,-167.37 8736.3,-184.87 8766.42,-220.54 8783.69,-1712.84 8786.68,-1994.71"/>
<polygon fill="#dddddd" stroke="#dddddd" points="8783.18,-1994.62 8786.79,-2004.58 8790.18,-1994.55 8783.18,-1994.62"/>
<text text-anchor="middle" x="8671.05" y="-188.07" font-family="Times,serif" font-size="14.00">Months</text>
</g>
<!-- 45195&#45;&gt;END_NODE -->
<g id="edge123" class="edge">
<title>45195&#45;&gt;END_NODE</title>
<path fill="none" stroke="#dddddd" d="M8508.23,-86.12C8583.33,-72.75 8678.53,-71.53 8736.3,-129.87 8770.19,-164.11 8784.45,-1709.08 8786.8,-1995.09"/>
<polygon fill="#dddddd" stroke="#dddddd" points="8783.3,-1994.77 8786.88,-2004.74 8790.3,-1994.71 8783.3,-1994.77"/>
<text text-anchor="middle" x="8671.05" y="-133.07" font-family="Times,serif" font-size="14.00">Other</text>
</g>
</g>
</svg>
