<?xml version="1.0" encoding="UTF-8" standalone="no"?>
<!DOCTYPE svg PUBLIC "-//W3C//DTD SVG 1.1//EN"
 "http://www.w3.org/Graphics/SVG/1.1/DTD/svg11.dtd">
<!-- Generated by graphviz version 12.1.1 (20240910.0053)
 -->
<!-- Title: RELEASED_IN_ERROR Pages: 1 -->
<svg width="8844pt" height="3544pt"
 viewBox="0.00 0.00 8843.51 3543.68" xmlns="http://www.w3.org/2000/svg" xmlns:xlink="http://www.w3.org/1999/xlink">
<g id="graph0" class="graph" transform="scale(1 1) rotate(0) translate(4 3539.68)">
<title>RELEASED_IN_ERROR</title>
<polygon fill="white" stroke="none" points="-4,4 -4,-3539.68 8839.51,-3539.68 8839.51,4 -4,4"/>
<!-- START_NODE -->
<g id="node1" class="node">
<title>START_NODE</title>
</g>
<!-- 45179 -->
<g id="node2" class="node">
<title>45179</title>
<ellipse fill="none" stroke="black" cx="238.81" cy="-3281.37" rx="125.56" ry="125.56"/>
<text text-anchor="middle" x="238.81" y="-3276.32" font-family="Times,serif" font-size="14.00">How was this person released?</text>
</g>
<!-- START_NODE&#45;&gt;45179 -->
<g id="edge1" class="edge">
<title>START_NODE&#45;&gt;45179</title>
<path fill="none" stroke="black" d="M53.73,-3281.37C66.69,-3281.37 83.5,-3281.37 101.69,-3281.37"/>
<polygon fill="black" stroke="black" points="101.66,-3284.87 111.66,-3281.37 101.66,-3277.87 101.66,-3284.87"/>
<text text-anchor="middle" x="83.62" y="-3284.57" font-family="Times,serif" font-size="14.00">start</text>
</g>
<!-- END_NODE -->
<g id="node3" class="node">
<title>END_NODE</title>
<ellipse fill="none" stroke="black" cx="8801.65" cy="-2040.37" rx="29.86" ry="29.86"/>
<ellipse fill="none" stroke="black" cx="8801.65" cy="-2040.37" rx="33.86" ry="33.86"/>
<text text-anchor="middle" x="8801.65" y="-2035.32" font-family="Times,serif" font-size="14.00">END</text>
</g>
<!-- 45179&#45;&gt;END_NODE -->
<g id="edge2" class="edge">
<title>45179&#45;&gt;END_NODE</title>
<path fill="none" stroke="#dddddd" d="M296.2,-3393.31C318.46,-3426.21 347.22,-3458.64 382.38,-3478.37 510.34,-3550.22 564.79,-3504.37 711.53,-3504.37 711.53,-3504.37 711.53,-3504.37 8405.43,-3504.37 8558.92,-3504.37 8643.46,-3589.06 8749.8,-3478.37 8799.16,-3427 8800.93,-2325.07 8800.73,-2085.91"/>
<polygon fill="#dddddd" stroke="#dddddd" points="8804.23,-2086.05 8800.72,-2076.06 8797.23,-2086.06 8804.23,-2086.05"/>
<text text-anchor="middle" x="4413.32" y="-3507.57" font-family="Times,serif" font-size="14.00">Bail</text>
</g>
<!-- 45179&#45;&gt;END_NODE -->
<g id="edge3" class="edge">
<title>45179&#45;&gt;END_NODE</title>
<path fill="none" stroke="#dddddd" d="M311.82,-3383.56C332.1,-3405.2 355.94,-3425.4 382.38,-3438.37 514.12,-3503.02 564.79,-3464.37 711.53,-3464.37 711.53,-3464.37 711.53,-3464.37 8405.43,-3464.37 8482.17,-3464.37 8696.6,-3493.69 8749.8,-3438.37 8797.73,-3388.53 8800.63,-2320.62 8800.68,-2085.78"/>
<polygon fill="#dddddd" stroke="#dddddd" points="8804.18,-2086.12 8800.68,-2076.12 8797.18,-2086.12 8804.18,-2086.12"/>
<text text-anchor="middle" x="4413.32" y="-3467.57" font-family="Times,serif" font-size="14.00">Final discharge/end of sentence</text>
</g>
<!-- 45179&#45;&gt;END_NODE -->
<g id="edge4" class="edge">
<title>45179&#45;&gt;END_NODE</title>
<path fill="none" stroke="#dddddd" d="M329.62,-3368.33C346.11,-3380.27 363.96,-3390.96 382.38,-3398.37 518.49,-3453.22 564.79,-3424.37 711.53,-3424.37 711.53,-3424.37 711.53,-3424.37 8405.43,-3424.37 8482.17,-3424.37 8696.57,-3453.66 8749.8,-3398.37 8796.29,-3350.09 8800.32,-2316.99 8800.63,-2085.94"/>
<polygon fill="#dddddd" stroke="#dddddd" points="8804.13,-2086.14 8800.64,-2076.14 8797.13,-2086.13 8804.13,-2086.14"/>
<text text-anchor="middle" x="4413.32" y="-3427.57" font-family="Times,serif" font-size="14.00">Police production</text>
</g>
<!-- 45179&#45;&gt;END_NODE -->
<g id="edge5" class="edge">
<title>45179&#45;&gt;END_NODE</title>
<path fill="none" stroke="#dddddd" d="M347.17,-3345.3C358.78,-3350.4 370.64,-3354.91 382.38,-3358.37 523.12,-3399.92 564.79,-3384.37 711.53,-3384.37 711.53,-3384.37 711.53,-3384.37 8405.43,-3384.37 8482.17,-3384.37 8696.54,-3413.63 8749.8,-3358.37 8794.85,-3311.63 8799.99,-2313.09 8800.58,-2086.03"/>
<polygon fill="#dddddd" stroke="#dddddd" points="8804.08,-2086.12 8800.6,-2076.11 8797.08,-2086.1 8804.08,-2086.12"/>
<text text-anchor="middle" x="4413.32" y="-3387.57" font-family="Times,serif" font-size="14.00">Court production/PEMS</text>
</g>
<!-- 45179&#45;&gt;END_NODE -->
<g id="edge6" class="edge">
<title>45179&#45;&gt;END_NODE</title>
<path fill="none" stroke="#dddddd" d="M357.84,-3322.04C366.09,-3324.08 374.32,-3325.89 382.38,-3327.37 526.45,-3353.87 565.05,-3344.37 711.53,-3344.37 711.53,-3344.37 711.53,-3344.37 8405.43,-3344.37 8482.14,-3344.37 8696.37,-3375.42 8749.8,-3320.37 8793.64,-3275.2 8799.71,-2308.41 8800.53,-2085.8"/>
<polygon fill="#dddddd" stroke="#dddddd" points="8804.03,-2086.1 8800.56,-2076.09 8797.03,-2086.08 8804.03,-2086.1"/>
<text text-anchor="middle" x="4413.32" y="-3347.57" font-family="Times,serif" font-size="14.00">Escort &#45; HMPS</text>
</g>
<!-- 45179&#45;&gt;END_NODE -->
<g id="edge7" class="edge">
<title>45179&#45;&gt;END_NODE</title>
<path fill="none" stroke="#dddddd" d="M363.75,-3297.88C370.04,-3298.45 376.28,-3298.95 382.38,-3299.37 632.16,-3316.64 695.31,-3306.37 945.69,-3306.37 945.69,-3306.37 945.69,-3306.37 3621.5,-3306.37 4011.59,-3306.37 4109.11,-3305.71 4499.19,-3305.87 4764.58,-3305.99 4830.93,-3306.37 5096.31,-3306.37 5096.31,-3306.37 5096.31,-3306.37 8405.43,-3306.37 8482.44,-3306.37 8697.32,-3323.74 8749.8,-3267.37 8790.79,-3223.35 8799.03,-2303.04 8800.41,-2085.96"/>
<polygon fill="#dddddd" stroke="#dddddd" points="8803.91,-2086.24 8800.47,-2076.21 8796.91,-2086.19 8803.91,-2086.24"/>
<text text-anchor="middle" x="4413.32" y="-3309.07" font-family="Times,serif" font-size="14.00">Other: Please explain</text>
</g>
<!-- 45180 -->
<g id="node4" class="node">
<title>45180</title>
<ellipse fill="none" stroke="black" cx="712.53" cy="-3138.37" rx="140.41" ry="140.41"/>
<text text-anchor="middle" x="712.53" y="-3133.32" font-family="Times,serif" font-size="14.00">Where did the release occur from?</text>
</g>
<!-- 45179&#45;&gt;45180 -->
<g id="edge8" class="edge">
<title>45179&#45;&gt;45180</title>
<path fill="none" stroke="black" d="M364.62,-3279.94C436.92,-3277.69 520.18,-3272.25 554.13,-3259.37 569.05,-3253.71 583.73,-3246.14 597.76,-3237.53"/>
<polygon fill="black" stroke="black" points="599.53,-3240.55 606.09,-3232.23 595.77,-3234.65 599.53,-3240.55"/>
<text text-anchor="middle" x="468.25" y="-3282.25" font-family="Times,serif" font-size="14.00">Bail</text>
</g>
<!-- 45179&#45;&gt;45180 -->
<g id="edge9" class="edge">
<title>45179&#45;&gt;45180</title>
<path fill="none" stroke="black" d="M359.21,-3244.11C367.02,-3242.19 374.79,-3240.42 382.38,-3238.87 457.65,-3223.51 480.6,-3241.65 554.13,-3219.37 562.4,-3216.87 570.75,-3213.94 579.07,-3210.7"/>
<polygon fill="black" stroke="black" points="580.22,-3214.01 588.18,-3207.02 577.6,-3207.52 580.22,-3214.01"/>
<text text-anchor="middle" x="468.25" y="-3242.07" font-family="Times,serif" font-size="14.00">Final discharge/end of sentence</text>
</g>
<!-- 45179&#45;&gt;45180 -->
<g id="edge10" class="edge">
<title>45179&#45;&gt;45180</title>
<path fill="none" stroke="black" d="M345.01,-3214.23C357.28,-3208.3 369.89,-3203 382.38,-3198.87 455.33,-3174.79 478.6,-3193.43 554.13,-3179.37 557.92,-3178.67 561.76,-3177.92 565.62,-3177.14"/>
<polygon fill="black" stroke="black" points="566.02,-3180.63 575.1,-3175.16 564.59,-3173.78 566.02,-3180.63"/>
<text text-anchor="middle" x="468.25" y="-3202.07" font-family="Times,serif" font-size="14.00">Police production</text>
</g>
<!-- 45179&#45;&gt;45180 -->
<g id="edge11" class="edge">
<title>45179&#45;&gt;45180</title>
<path fill="none" stroke="#dddddd" d="M327.05,-3191.59C344.15,-3178.51 362.88,-3166.8 382.38,-3158.87 399.44,-3151.94 482.54,-3146.8 560.96,-3143.4"/>
<polygon fill="#dddddd" stroke="#dddddd" points="560.63,-3146.91 570.47,-3142.99 560.34,-3139.92 560.63,-3146.91"/>
<text text-anchor="middle" x="468.25" y="-3162.07" font-family="Times,serif" font-size="14.00">Court production/PEMS</text>
</g>
<!-- 45179&#45;&gt;45180 -->
<g id="edge12" class="edge">
<title>45179&#45;&gt;45180</title>
<path fill="none" stroke="black" d="M310.2,-3177.54C330.67,-3155.42 354.99,-3135.08 382.38,-3122.87 438.59,-3097.83 505.68,-3096.57 564.57,-3103.53"/>
<polygon fill="black" stroke="black" points="563.99,-3106.98 574.35,-3104.78 564.88,-3100.04 563.99,-3106.98"/>
<text text-anchor="middle" x="468.25" y="-3126.07" font-family="Times,serif" font-size="14.00">Escort – HMPS</text>
</g>
<!-- 45179&#45;&gt;45180 -->
<g id="edge13" class="edge">
<title>45179&#45;&gt;45180</title>
<path fill="none" stroke="black" d="M293.07,-3167.91C315.45,-3133.23 345.08,-3099.18 382.38,-3079.87 440.97,-3049.55 512.43,-3057.69 573.78,-3076.12"/>
<polygon fill="black" stroke="black" points="572.68,-3079.44 583.27,-3079.09 574.77,-3072.76 572.68,-3079.44"/>
<text text-anchor="middle" x="468.25" y="-3083.07" font-family="Times,serif" font-size="14.00">Other : Please explain</text>
</g>
<!-- 45179&#45;&gt;45180 -->
<g id="edge14" class="edge">
<title>45179&#45;&gt;45180</title>
<path fill="none" stroke="black" d="M279.78,-3162.34C302.12,-3115.18 335.22,-3065.85 382.38,-3038.87 448.63,-3000.97 480.81,-3017.64 554.13,-3038.87 565.54,-3042.18 576.92,-3046.59 588.04,-3051.71"/>
<polygon fill="black" stroke="black" points="586.28,-3054.75 596.81,-3055.95 589.33,-3048.44 586.28,-3054.75"/>
<text text-anchor="middle" x="468.25" y="-3042.07" font-family="Times,serif" font-size="14.00">Court production/PEMS</text>
</g>
<!-- 45180&#45;&gt;END_NODE -->
<g id="edge15" class="edge">
<title>45180&#45;&gt;END_NODE</title>
<path fill="none" stroke="#dddddd" d="M834.5,-3208.5C846.56,-3213.79 858.83,-3218.54 870.94,-3222.37 1006.1,-3265.13 1045.76,-3261.37 1187.52,-3261.37 1187.52,-3261.37 1187.52,-3261.37 8405.43,-3261.37 8559.46,-3261.37 8644.75,-3335.02 8749.8,-3222.37 8789.22,-3180.1 8798.64,-2298.14 8800.33,-2085.98"/>
<polygon fill="#dddddd" stroke="#dddddd" points="8803.83,-2086.21 8800.41,-2076.19 8796.83,-2086.16 8803.83,-2086.21"/>
<text text-anchor="middle" x="4710.32" y="-3264.57" font-family="Times,serif" font-size="14.00">Establishment: Enter name</text>
</g>
<!-- 45180&#45;&gt;END_NODE -->
<g id="edge16" class="edge">
<title>45180&#45;&gt;END_NODE</title>
<path fill="none" stroke="#dddddd" d="M849.9,-3169.33C944.2,-3188.07 1072.83,-3208.37 1187.52,-3208.37 1187.52,-3208.37 1187.52,-3208.37 8405.43,-3208.37 8482.44,-3208.37 8697.22,-3225.65 8749.8,-3169.37 8787.37,-3129.16 8798.15,-2292.01 8800.24,-2085.91"/>
<polygon fill="#dddddd" stroke="#dddddd" points="8803.74,-2086.18 8800.34,-2076.15 8796.74,-2086.11 8803.74,-2086.18"/>
<text text-anchor="middle" x="4710.32" y="-3211.57" font-family="Times,serif" font-size="14.00">Court: Enter name</text>
</g>
<!-- 45180&#45;&gt;END_NODE -->
<g id="edge17" class="edge">
<title>45180&#45;&gt;END_NODE</title>
<path fill="none" stroke="#dddddd" d="M853.22,-3146.02C947.6,-3150.53 1075.02,-3155.37 1187.52,-3155.37 1187.52,-3155.37 1187.52,-3155.37 8405.43,-3155.37 8482.33,-3155.37 8696.84,-3177.13 8749.8,-3121.37 8785.98,-3083.29 8797.76,-2286.56 8800.16,-2085.92"/>
<polygon fill="#dddddd" stroke="#dddddd" points="8803.65,-2086.21 8800.27,-2076.17 8796.65,-2086.12 8803.65,-2086.21"/>
<text text-anchor="middle" x="4710.32" y="-3158.57" font-family="Times,serif" font-size="14.00">Other: Please enter details</text>
</g>
<!-- 45181 -->
<g id="node5" class="node">
<title>45181</title>
<ellipse fill="none" stroke="black" cx="1188.52" cy="-2758.37" rx="148.08" ry="148.08"/>
<text text-anchor="middle" x="1188.52" y="-2753.32" font-family="Times,serif" font-size="14.00">What was the nature of the incident?</text>
</g>
<!-- 45180&#45;&gt;45181 -->
<g id="edge18" class="edge">
<title>45180&#45;&gt;45181</title>
<path fill="none" stroke="black" d="M846.82,-3095.73C904.91,-3072.78 971.26,-3040.24 1022.44,-2997.37 1055.85,-2969.39 1085.52,-2933.06 1110.16,-2897.21"/>
<polygon fill="black" stroke="black" points="1112.76,-2899.61 1115.47,-2889.36 1106.97,-2895.68 1112.76,-2899.61"/>
<text text-anchor="middle" x="946.69" y="-3088.65" font-family="Times,serif" font-size="14.00">Establishment : Enter name</text>
</g>
<!-- 45180&#45;&gt;45181 -->
<g id="edge19" class="edge">
<title>45180&#45;&gt;45181</title>
<path fill="none" stroke="black" d="M803.92,-3031.76C824.47,-3011.68 847.28,-2992.2 870.94,-2976.87 931.13,-2937.9 961.88,-2959.78 1022.44,-2921.37 1042.79,-2908.47 1062.65,-2892.69 1081.13,-2876.09"/>
<polygon fill="black" stroke="black" points="1083.39,-2878.77 1088.41,-2869.43 1078.67,-2873.6 1083.39,-2878.77"/>
<text text-anchor="middle" x="946.69" y="-2980.07" font-family="Times,serif" font-size="14.00">Court : Enter name</text>
</g>
<!-- 45180&#45;&gt;45181 -->
<g id="edge20" class="edge">
<title>45180&#45;&gt;45181</title>
<path fill="none" stroke="black" d="M777.76,-3013.59C802.75,-2973.78 834.28,-2932.02 870.94,-2900.87 918.83,-2860.19 980.22,-2829.01 1036.18,-2806.34"/>
<polygon fill="black" stroke="black" points="1037.16,-2809.71 1045.15,-2802.76 1034.57,-2803.21 1037.16,-2809.71"/>
<text text-anchor="middle" x="946.69" y="-2904.07" font-family="Times,serif" font-size="14.00">Other : Please enter details</text>
</g>
<!-- 45181&#45;&gt;END_NODE -->
<g id="edge21" class="edge">
<title>45181&#45;&gt;END_NODE</title>
<path fill="none" stroke="#dddddd" d="M1225.22,-2901.93C1249.87,-2969.51 1290.19,-3044.15 1354.61,-3085.37 1481.79,-3166.77 1882.68,-3109.37 2033.68,-3109.37 2033.68,-3109.37 2033.68,-3109.37 4414.32,-3109.37 4888.1,-3109.37 5006.53,-3116.37 5480.31,-3116.37 5480.31,-3116.37 5480.31,-3116.37 8405.43,-3116.37 8482.17,-3116.37 8696.27,-3145.37 8749.8,-3090.37 8785.31,-3053.89 8797.56,-2282.92 8800.11,-2085.9"/>
<polygon fill="#dddddd" stroke="#dddddd" points="8803.61,-2086.11 8800.24,-2076.06 8796.61,-2086.02 8803.61,-2086.11"/>
<text text-anchor="middle" x="5097.31" y="-3119.03" font-family="Times,serif" font-size="14.00">Wrong person released</text>
</g>
<!-- 45181&#45;&gt;END_NODE -->
<g id="edge22" class="edge">
<title>45181&#45;&gt;END_NODE</title>
<path fill="none" stroke="#dddddd" d="M1235.4,-2899.19C1261.21,-2955.2 1299.59,-3014.13 1354.61,-3047.37 1419.22,-3086.42 1958.18,-3071.37 2033.68,-3071.37 2033.68,-3071.37 2033.68,-3071.37 4414.32,-3071.37 4888.1,-3071.37 5006.53,-3076.37 5480.31,-3076.37 5480.31,-3076.37 5480.31,-3076.37 8405.43,-3076.37 8482.17,-3076.37 8696.22,-3105.32 8749.8,-3050.37 8783.89,-3015.42 8797.13,-2278.48 8800.02,-2086.02"/>
<polygon fill="#dddddd" stroke="#dddddd" points="8803.52,-2086.23 8800.17,-2076.18 8796.52,-2086.12 8803.52,-2086.23"/>
<text text-anchor="middle" x="5097.31" y="-3079.18" font-family="Times,serif" font-size="14.00">Sentence miscalculated</text>
</g>
<!-- 45181&#45;&gt;END_NODE -->
<g id="edge23" class="edge">
<title>45181&#45;&gt;END_NODE</title>
<path fill="none" stroke="#dddddd" d="M1247.29,-2894.6C1273.31,-2939.04 1308.69,-2983.56 1354.61,-3009.37 1420.42,-3046.38 1958.18,-3033.37 2033.68,-3033.37 2033.68,-3033.37 2033.68,-3033.37 4414.32,-3033.37 4888.1,-3033.37 5006.54,-3036.37 5480.31,-3036.37 5480.31,-3036.37 5480.31,-3036.37 8405.43,-3036.37 8482.17,-3036.37 8696.16,-3065.26 8749.8,-3010.37 8782.47,-2976.95 8796.7,-2273.65 8799.92,-2086.04"/>
<polygon fill="#dddddd" stroke="#dddddd" points="8803.42,-2086.26 8800.09,-2076.2 8796.42,-2086.14 8803.42,-2086.26"/>
<text text-anchor="middle" x="5097.31" y="-3039.34" font-family="Times,serif" font-size="14.00">ADA not included in calculations</text>
</g>
<!-- 45181&#45;&gt;END_NODE -->
<g id="edge24" class="edge">
<title>45181&#45;&gt;END_NODE</title>
<path fill="none" stroke="#dddddd" d="M1261.65,-2887.45C1286.61,-2920.25 1317.75,-2951.51 1354.61,-2970.37 1489.03,-3039.17 1882.67,-2995.37 2033.68,-2995.37 2033.68,-2995.37 2033.68,-2995.37 4414.32,-2995.37 4888.09,-2995.37 5006.54,-2996.37 5480.31,-2996.37 5480.31,-2996.37 5480.31,-2996.37 8405.43,-2996.37 8482.17,-2996.37 8696.1,-3025.2 8749.8,-2970.37 8781.06,-2938.46 8796.25,-2268.43 8799.82,-2085.93"/>
<polygon fill="#dddddd" stroke="#dddddd" points="8803.31,-2086.2 8800.01,-2076.14 8796.31,-2086.07 8803.31,-2086.2"/>
<text text-anchor="middle" x="5097.31" y="-2999.5" font-family="Times,serif" font-size="14.00">Immigration warrant not applied/misfiled/missing</text>
</g>
<!-- 45181&#45;&gt;END_NODE -->
<g id="edge25" class="edge">
<title>45181&#45;&gt;END_NODE</title>
<path fill="none" stroke="#dddddd" d="M1278.38,-2876.1C1300.74,-2897.9 1326.48,-2917.74 1354.61,-2930.37 1492.37,-2992.24 1882.67,-2956.37 2033.68,-2956.37 2033.68,-2956.37 2033.68,-2956.37 8405.43,-2956.37 8482.17,-2956.37 8696.03,-2985.14 8749.8,-2930.37 8779.64,-2899.98 8795.77,-2263.44 8799.7,-2085.96"/>
<polygon fill="#dddddd" stroke="#dddddd" points="8803.2,-2086.05 8799.92,-2075.98 8796.2,-2085.9 8803.2,-2086.05"/>
<text text-anchor="middle" x="5097.31" y="-2959.57" font-family="Times,serif" font-size="14.00">Remand warrant not applied/misfiled/missing</text>
</g>
<!-- 45181&#45;&gt;END_NODE -->
<g id="edge26" class="edge">
<title>45181&#45;&gt;END_NODE</title>
<path fill="none" stroke="#dddddd" d="M1296.76,-2859.47C1314.94,-2871.93 1334.49,-2882.89 1354.61,-2890.37 1496.13,-2943.06 1882.67,-2916.37 2033.68,-2916.37 2033.68,-2916.37 2033.68,-2916.37 8405.43,-2916.37 8482.17,-2916.37 8695.96,-2945.06 8749.8,-2890.37 8778.24,-2861.49 8795.28,-2258.07 8799.57,-2085.88"/>
<polygon fill="#dddddd" stroke="#dddddd" points="8803.07,-2086.07 8799.82,-2075.99 8796.07,-2085.9 8803.07,-2086.07"/>
<text text-anchor="middle" x="5097.31" y="-2919.57" font-family="Times,serif" font-size="14.00">Imprisonment warrant not applied/misfiled/missing</text>
</g>
<!-- 45181&#45;&gt;END_NODE -->
<g id="edge27" class="edge">
<title>45181&#45;&gt;END_NODE</title>
<path fill="none" stroke="#dddddd" d="M1314.92,-2835.96C1327.98,-2841.68 1341.34,-2846.65 1354.61,-2850.37 1500.02,-2891.14 1882.67,-2876.37 2033.68,-2876.37 2033.68,-2876.37 2033.68,-2876.37 8405.43,-2876.37 8482.14,-2876.37 8695.75,-2906.81 8749.8,-2852.37 8776.98,-2825 8794.81,-2252.79 8799.45,-2085.77"/>
<polygon fill="#dddddd" stroke="#dddddd" points="8802.94,-2086.06 8799.72,-2075.97 8795.95,-2085.87 8802.94,-2086.06"/>
<text text-anchor="middle" x="5097.31" y="-2879.57" font-family="Times,serif" font-size="14.00">Civil/non payment of fines warrant not applied/misfiled/missing</text>
</g>
<!-- 45181&#45;&gt;END_NODE -->
<g id="edge28" class="edge">
<title>45181&#45;&gt;END_NODE</title>
<path fill="none" stroke="#dddddd" d="M1329.39,-2805.22C1337.86,-2807.19 1346.32,-2808.94 1354.61,-2810.37 1652.2,-2861.98 1731.65,-2836.37 2033.68,-2836.37 2033.68,-2836.37 2033.68,-2836.37 4711.32,-2836.37 5202.93,-2836.37 5325.83,-2838.37 5817.44,-2838.37 5817.44,-2838.37 5817.44,-2838.37 8405.43,-2838.37 8482.14,-2838.37 8695.66,-2868.73 8749.8,-2814.37 8801.31,-2762.66 8802.05,-2243.31 8801.07,-2085.57"/>
<polygon fill="#dddddd" stroke="#dddddd" points="8804.57,-2085.91 8801,-2075.93 8797.57,-2085.96 8804.57,-2085.91"/>
<text text-anchor="middle" x="5097.31" y="-2840.57" font-family="Times,serif" font-size="14.00">Bail conditions not fully met</text>
</g>
<!-- 45181&#45;&gt;END_NODE -->
<g id="edge29" class="edge">
<title>45181&#45;&gt;END_NODE</title>
<path fill="none" stroke="#dddddd" d="M1336.21,-2771.19C1342.43,-2771.62 1348.58,-2772.01 1354.61,-2772.37 1656.06,-2790.47 1731.68,-2796.37 2033.68,-2796.37 2033.68,-2796.37 2033.68,-2796.37 4711.32,-2796.37 5202.93,-2796.37 5325.83,-2800.37 5817.44,-2800.37 5817.44,-2800.37 5817.44,-2800.37 8405.43,-2800.37 8482.14,-2800.37 8695.57,-2830.63 8749.8,-2776.37 8798.61,-2727.54 8801.27,-2238.79 8800.9,-2085.86"/>
<polygon fill="#dddddd" stroke="#dddddd" points="8804.4,-2086.11 8800.87,-2076.12 8797.4,-2086.13 8804.4,-2086.11"/>
<text text-anchor="middle" x="5097.31" y="-2801.57" font-family="Times,serif" font-size="14.00">Release criteria not met</text>
</g>
<!-- 45181&#45;&gt;END_NODE -->
<g id="edge30" class="edge">
<title>45181&#45;&gt;END_NODE</title>
<path fill="none" stroke="#dddddd" d="M1337.06,-2758.37C1505.55,-2758.37 1789.48,-2758.37 2033.68,-2758.37 2033.68,-2758.37 2033.68,-2758.37 4011.46,-2758.37 4814.12,-2758.37 5014.78,-2762.37 5817.44,-2762.37 5817.44,-2762.37 5817.44,-2762.37 8405.43,-2762.37 8482.14,-2762.37 8695.47,-2792.53 8749.8,-2738.37 8795.93,-2692.39 8800.46,-2233.67 8800.72,-2085.95"/>
<polygon fill="#dddddd" stroke="#dddddd" points="8804.22,-2086.16 8800.73,-2076.16 8797.22,-2086.16 8804.22,-2086.16"/>
<text text-anchor="middle" x="5097.31" y="-2764.82" font-family="Times,serif" font-size="14.00">Recall procedures not applied</text>
</g>
<!-- 45181&#45;&gt;END_NODE -->
<g id="edge31" class="edge">
<title>45181&#45;&gt;END_NODE</title>
<path fill="none" stroke="#dddddd" d="M1336.92,-2754.44C1734.82,-2744.18 2864.17,-2717.37 3803.79,-2717.37 3803.79,-2717.37 3803.79,-2717.37 4414.32,-2717.37 5037.94,-2717.37 5193.82,-2724.37 5817.44,-2724.37 5817.44,-2724.37 5817.44,-2724.37 8405.43,-2724.37 8482.44,-2724.37 8696.28,-2740.75 8749.8,-2685.37 8791.32,-2642.41 8798.95,-2225.32 8800.35,-2085.67"/>
<polygon fill="#dddddd" stroke="#dddddd" points="8803.84,-2086.11 8800.44,-2076.08 8796.84,-2086.04 8803.84,-2086.11"/>
<text text-anchor="middle" x="5097.31" y="-2725.33" font-family="Times,serif" font-size="14.00">Other: Please explain</text>
</g>
<!-- 45182 -->
<g id="node6" class="node">
<title>45182</title>
<ellipse fill="none" stroke="black" cx="2034.68" cy="-2382.37" rx="310.33" ry="310.33"/>
<text text-anchor="middle" x="2034.68" y="-2377.32" font-family="Times,serif" font-size="14.00">What action is being taken to return the person to custody by the establishment?</text>
</g>
<!-- 45181&#45;&gt;45182 -->
<g id="edge32" class="edge">
<title>45181&#45;&gt;45182</title>
<path fill="none" stroke="black" d="M1328.44,-2708.87C1337.23,-2706.61 1346,-2704.58 1354.61,-2702.87 1431.45,-2687.66 1634.25,-2710.01 1706.36,-2679.37 1743.96,-2663.4 1780.08,-2641.22 1813.7,-2616.11"/>
<polygon fill="black" stroke="black" points="1815.6,-2619.06 1821.45,-2610.23 1811.37,-2613.49 1815.6,-2619.06"/>
<text text-anchor="middle" x="1530.48" y="-2706.07" font-family="Times,serif" font-size="14.00">Wrong person released</text>
</g>
<!-- 45181&#45;&gt;45182 -->
<g id="edge33" class="edge">
<title>45181&#45;&gt;45182</title>
<path fill="none" stroke="black" d="M1311.77,-2676.05C1325.78,-2669.26 1340.21,-2663.31 1354.61,-2658.87 1429.42,-2635.82 1633.1,-2666.99 1706.36,-2639.37 1736.42,-2628.04 1765.92,-2612.89 1794.14,-2595.59"/>
<polygon fill="black" stroke="black" points="1795.75,-2598.71 1802.38,-2590.44 1792.04,-2592.77 1795.75,-2598.71"/>
<text text-anchor="middle" x="1530.48" y="-2662.07" font-family="Times,serif" font-size="14.00">Sentence Miscalculated</text>
</g>
<!-- 45181&#45;&gt;45182 -->
<g id="edge34" class="edge">
<title>45181&#45;&gt;45182</title>
<path fill="none" stroke="black" d="M1293.47,-2653.93C1312.49,-2639.88 1333.16,-2627.4 1354.61,-2618.87 1427.35,-2589.95 1632.05,-2624.03 1706.36,-2599.37 1729.22,-2591.79 1752.01,-2582.16 1774.32,-2571.2"/>
<polygon fill="black" stroke="black" points="1775.81,-2574.37 1783.17,-2566.75 1772.67,-2568.11 1775.81,-2574.37"/>
<text text-anchor="middle" x="1530.48" y="-2622.07" font-family="Times,serif" font-size="14.00">ADA not included on calculations</text>
</g>
<!-- 45181&#45;&gt;45182 -->
<g id="edge35" class="edge">
<title>45181&#45;&gt;45182</title>
<path fill="none" stroke="black" d="M1275.55,-2638.25C1298.45,-2614.59 1325.13,-2592.8 1354.61,-2578.87 1425.39,-2545.44 1631.02,-2580.67 1706.36,-2559.37 1722.96,-2554.68 1739.66,-2549.04 1756.26,-2542.7"/>
<polygon fill="black" stroke="black" points="1757.13,-2546.12 1765.17,-2539.22 1754.58,-2539.6 1757.13,-2546.12"/>
<text text-anchor="middle" x="1530.48" y="-2582.07" font-family="Times,serif" font-size="14.00">Immigration warrant not applied/misfiled/missing</text>
</g>
<!-- 45181&#45;&gt;45182 -->
<g id="edge36" class="edge">
<title>45181&#45;&gt;45182</title>
<path fill="none" stroke="black" d="M1259.16,-2627.84C1284.41,-2592.97 1316.33,-2559.32 1354.61,-2538.87 1423.66,-2501.98 1630.06,-2536.91 1706.36,-2519.37 1717.39,-2516.84 1728.52,-2513.96 1739.69,-2510.8"/>
<polygon fill="black" stroke="black" points="1740.32,-2514.27 1748.95,-2508.12 1738.37,-2507.54 1740.32,-2514.27"/>
<text text-anchor="middle" x="1530.48" y="-2542.07" font-family="Times,serif" font-size="14.00">Remand warrant not applied/misfiled/missing</text>
</g>
<!-- 45181&#45;&gt;45182 -->
<g id="edge37" class="edge">
<title>45181&#45;&gt;45182</title>
<path fill="none" stroke="black" d="M1244.89,-2621.22C1270.98,-2574.33 1307.03,-2526.74 1354.61,-2498.87 1388.38,-2479.09 1667.79,-2486.06 1706.36,-2479.37 1713.16,-2478.19 1720.02,-2476.92 1726.92,-2475.57"/>
<polygon fill="black" stroke="black" points="1727.2,-2479.08 1736.31,-2473.67 1725.81,-2472.22 1727.2,-2479.08"/>
<text text-anchor="middle" x="1530.48" y="-2502.07" font-family="Times,serif" font-size="14.00">Imprisonment warrant not applied/misfiled/missing</text>
</g>
<!-- 45181&#45;&gt;45182 -->
<g id="edge38" class="edge">
<title>45181&#45;&gt;45182</title>
<path fill="none" stroke="black" d="M1233,-2616.63C1258.64,-2557.67 1297.55,-2494.74 1354.61,-2458.87 1387.74,-2438.04 1667.47,-2443.82 1706.36,-2439.37 1710.08,-2438.95 1713.83,-2438.51 1717.59,-2438.05"/>
<polygon fill="black" stroke="black" points="1717.94,-2441.54 1727.44,-2436.83 1717.08,-2434.59 1717.94,-2441.54"/>
<text text-anchor="middle" x="1530.48" y="-2462.07" font-family="Times,serif" font-size="14.00">Civil/non payment of fines warrant not applied/misfiled/missing</text>
</g>
<!-- 45181&#45;&gt;45182 -->
<g id="edge39" class="edge">
<title>45181&#45;&gt;45182</title>
<path fill="none" stroke="black" d="M1222.81,-2613.91C1247.04,-2542.92 1287.71,-2463.27 1354.61,-2418.87 1355.62,-2418.2 1537.93,-2408.42 1713.37,-2399.16"/>
<polygon fill="black" stroke="black" points="1713.33,-2402.67 1723.13,-2398.64 1712.96,-2395.67 1713.33,-2402.67"/>
<text text-anchor="middle" x="1530.48" y="-2422.07" font-family="Times,serif" font-size="14.00">Bail conditions not fully met</text>
</g>
<!-- 45181&#45;&gt;45182 -->
<g id="edge40" class="edge">
<title>45181&#45;&gt;45182</title>
<path fill="none" stroke="black" d="M1213.09,-2612.1C1234.81,-2528.86 1276.19,-2431.22 1354.61,-2379.87 1385.88,-2359.4 1552.86,-2359.82 1713.4,-2365.47"/>
<polygon fill="black" stroke="black" points="1712.82,-2368.95 1722.94,-2365.81 1713.07,-2361.95 1712.82,-2368.95"/>
<text text-anchor="middle" x="1530.48" y="-2383.07" font-family="Times,serif" font-size="14.00">Release criteria not met</text>
</g>
<!-- 45181&#45;&gt;45182 -->
<g id="edge41" class="edge">
<title>45181&#45;&gt;45182</title>
<path fill="none" stroke="black" d="M1206.23,-2610.87C1225.38,-2516.83 1266.46,-2401.75 1354.61,-2341.87 1419.26,-2297.95 1628.34,-2337.07 1706.36,-2341.87 1709.4,-2342.06 1712.46,-2342.26 1715.53,-2342.47"/>
<polygon fill="black" stroke="black" points="1714.97,-2345.94 1725.19,-2343.15 1715.46,-2338.95 1714.97,-2345.94"/>
<text text-anchor="middle" x="1530.48" y="-2345.07" font-family="Times,serif" font-size="14.00">Recall procedures not applied</text>
</g>
<!-- 45181&#45;&gt;45182 -->
<g id="edge42" class="edge">
<title>45181&#45;&gt;45182</title>
<path fill="none" stroke="black" d="M1199.82,-2610.49C1215.79,-2505.13 1255.7,-2370.33 1354.61,-2300.87 1464.02,-2224.04 1608.55,-2230.56 1736.14,-2261.97"/>
<polygon fill="black" stroke="black" points="1735.23,-2265.35 1745.78,-2264.41 1736.94,-2258.56 1735.23,-2265.35"/>
<text text-anchor="middle" x="1530.48" y="-2304.07" font-family="Times,serif" font-size="14.00">Other : Please explain</text>
</g>
<!-- 45182&#45;&gt;END_NODE -->
<g id="edge43" class="edge">
<title>45182&#45;&gt;END_NODE</title>
<path fill="none" stroke="#dddddd" d="M2265.87,-2589.8C2296.92,-2609.77 2329.63,-2627.38 2363.01,-2640.37 2578.66,-2724.33 2650.82,-2679.37 2882.24,-2679.37 2882.24,-2679.37 2882.24,-2679.37 8405.43,-2679.37 8559.46,-2679.37 8642.43,-2750.82 8749.8,-2640.37 8788.22,-2600.86 8797.85,-2219.29 8800.05,-2086.03"/>
<polygon fill="#dddddd" stroke="#dddddd" points="8803.55,-2086.22 8800.21,-2076.17 8796.55,-2086.11 8803.55,-2086.22"/>
<text text-anchor="middle" x="5481.31" y="-2682.57" font-family="Times,serif" font-size="14.00">Recall procedures</text>
</g>
<!-- 45182&#45;&gt;END_NODE -->
<g id="edge44" class="edge">
<title>45182&#45;&gt;END_NODE</title>
<path fill="none" stroke="#dddddd" d="M2290.85,-2557.87C2314.57,-2569.32 2338.8,-2579.43 2363.01,-2587.37 2582.88,-2659.57 2650.82,-2626.37 2882.24,-2626.37 2882.24,-2626.37 2882.24,-2626.37 8405.43,-2626.37 8482.44,-2626.37 8695.89,-2642.38 8749.8,-2587.37 8784.64,-2551.83 8796.48,-2210.49 8799.66,-2085.74"/>
<polygon fill="#dddddd" stroke="#dddddd" points="8803.15,-2085.96 8799.9,-2075.87 8796.16,-2085.78 8803.15,-2085.96"/>
<text text-anchor="middle" x="5481.31" y="-2629.57" font-family="Times,serif" font-size="14.00">Home Probation Officer</text>
</g>
<!-- 45182&#45;&gt;END_NODE -->
<g id="edge45" class="edge">
<title>45182&#45;&gt;END_NODE</title>
<path fill="none" stroke="#dddddd" d="M2313.55,-2519.42C2330.08,-2525.05 2346.64,-2530.11 2363.01,-2534.37 2586.95,-2592.72 2650.82,-2573.37 2882.24,-2573.37 2882.24,-2573.37 2882.24,-2573.37 8405.43,-2573.37 8482.44,-2573.37 8695.62,-2589.11 8749.8,-2534.37 8781.06,-2502.79 8794.95,-2201.68 8799.18,-2085.65"/>
<polygon fill="#dddddd" stroke="#dddddd" points="8802.67,-2086 8799.53,-2075.88 8795.67,-2085.75 8802.67,-2086"/>
<text text-anchor="middle" x="5481.31" y="-2576.57" font-family="Times,serif" font-size="14.00">Prisoner contacted</text>
</g>
<!-- 45182&#45;&gt;END_NODE -->
<g id="edge46" class="edge">
<title>45182&#45;&gt;END_NODE</title>
<path fill="none" stroke="#dddddd" d="M2331.14,-2474.9C2341.86,-2477.24 2352.5,-2479.42 2363.01,-2481.37 2590.51,-2523.79 2650.82,-2520.37 2882.24,-2520.37 2882.24,-2520.37 2882.24,-2520.37 8405.43,-2520.37 8482.44,-2520.37 8695.28,-2535.78 8749.8,-2481.37 8777.47,-2453.76 8793.22,-2192.91 8798.57,-2085.87"/>
<polygon fill="#dddddd" stroke="#dddddd" points="8802.06,-2086.17 8799.05,-2076.01 8795.07,-2085.83 8802.06,-2086.17"/>
<text text-anchor="middle" x="5481.31" y="-2523.57" font-family="Times,serif" font-size="14.00">Court contacted</text>
</g>
<!-- 45182&#45;&gt;END_NODE -->
<g id="edge47" class="edge">
<title>45182&#45;&gt;END_NODE</title>
<path fill="none" stroke="#dddddd" d="M2342.06,-2428.05C2502.56,-2448.19 2702.59,-2467.37 2882.24,-2467.37 2882.24,-2467.37 2882.24,-2467.37 8405.43,-2467.37 8482.44,-2467.37 8694.86,-2482.35 8749.8,-2428.37 8797.38,-2381.62 8801.89,-2178.25 8801.41,-2086.08"/>
<polygon fill="#dddddd" stroke="#dddddd" points="8804.91,-2086.11 8801.33,-2076.14 8797.91,-2086.17 8804.91,-2086.11"/>
<text text-anchor="middle" x="5481.31" y="-2470.57" font-family="Times,serif" font-size="14.00">Police contacted</text>
</g>
<!-- 45182&#45;&gt;END_NODE -->
<g id="edge48" class="edge">
<title>45182&#45;&gt;END_NODE</title>
<path fill="none" stroke="#dddddd" d="M2344.68,-2399.66C2505.01,-2407.21 2704.09,-2414.37 2882.24,-2414.37 2882.24,-2414.37 2882.24,-2414.37 8405.43,-2414.37 8482.39,-2414.37 8694.22,-2430.62 8749.8,-2377.37 8790.77,-2338.12 8798.89,-2168.56 8800.39,-2085.95"/>
<polygon fill="#dddddd" stroke="#dddddd" points="8803.89,-2086.23 8800.54,-2076.17 8796.89,-2086.12 8803.89,-2086.23"/>
<text text-anchor="middle" x="5481.31" y="-2417.57" font-family="Times,serif" font-size="14.00">Other: Please explain</text>
</g>
<!-- 45182&#45;&gt;END_NODE -->
<g id="edge49" class="edge">
<title>45182&#45;&gt;END_NODE</title>
<path fill="none" stroke="#dddddd" d="M2345.24,-2371.01C2505.5,-2366.07 2704.35,-2361.37 2882.24,-2361.37 2882.24,-2361.37 2882.24,-2361.37 5098.31,-2361.37 5669.11,-2361.37 5811.81,-2363.37 6382.61,-2363.37 6382.61,-2363.37 6382.61,-2363.37 8405.43,-2363.37 8482.3,-2363.37 8693.36,-2382.57 8749.8,-2330.37 8784.8,-2298.01 8795.79,-2158.86 8799.18,-2085.71"/>
<polygon fill="#dddddd" stroke="#dddddd" points="8802.67,-2086.22 8799.6,-2076.08 8795.67,-2085.92 8802.67,-2086.22"/>
<text text-anchor="middle" x="5481.31" y="-2365.38" font-family="Times,serif" font-size="14.00">None &#45; explain why none of the above procedures have been actioned</text>
</g>
<!-- 45183 -->
<g id="node7" class="node">
<title>45183</title>
<ellipse fill="none" stroke="black" cx="2883.24" cy="-2112.37" rx="121.98" ry="121.98"/>
<text text-anchor="middle" x="2883.24" y="-2107.32" font-family="Times,serif" font-size="14.00">How was the error identified?</text>
</g>
<!-- 45182&#45;&gt;45183 -->
<g id="edge50" class="edge">
<title>45182&#45;&gt;45183</title>
<path fill="none" stroke="black" d="M2341.34,-2333.35C2348.63,-2332.48 2355.86,-2331.66 2363.01,-2330.87 2405.09,-2326.27 2706.25,-2327.92 2743.26,-2307.37 2775.21,-2289.64 2801.61,-2261.09 2822.5,-2231.25"/>
<polygon fill="black" stroke="black" points="2825.23,-2233.45 2827.95,-2223.21 2819.44,-2229.52 2825.23,-2233.45"/>
<text text-anchor="middle" x="2553.13" y="-2334.07" font-family="Times,serif" font-size="14.00">Recall procedures</text>
</g>
<!-- 45182&#45;&gt;45183 -->
<g id="edge51" class="edge">
<title>45182&#45;&gt;45183</title>
<path fill="none" stroke="black" d="M2332.03,-2292.65C2342.45,-2290.54 2352.79,-2288.6 2363.01,-2286.87 2446.43,-2272.76 2666.91,-2303.84 2743.26,-2267.37 2766.52,-2256.27 2787.6,-2239.32 2805.92,-2220.65"/>
<polygon fill="black" stroke="black" points="2808.21,-2223.32 2812.56,-2213.65 2803.14,-2218.5 2808.21,-2223.32"/>
<text text-anchor="middle" x="2553.13" y="-2290.07" font-family="Times,serif" font-size="14.00">Home Probation Officer</text>
</g>
<!-- 45182&#45;&gt;45183 -->
<g id="edge52" class="edge">
<title>45182&#45;&gt;45183</title>
<path fill="none" stroke="black" d="M2319.44,-2258.23C2334.03,-2253.95 2348.61,-2250.12 2363.01,-2246.87 2445.55,-2228.26 2664.41,-2258.07 2743.26,-2227.37 2758.2,-2221.56 2772.72,-2213.47 2786.39,-2204.25"/>
<polygon fill="black" stroke="black" points="2788.31,-2207.19 2794.48,-2198.57 2784.28,-2201.46 2788.31,-2207.19"/>
<text text-anchor="middle" x="2553.13" y="-2250.07" font-family="Times,serif" font-size="14.00">Prisoner contacted</text>
</g>
<!-- 45182&#45;&gt;45183 -->
<g id="edge53" class="edge">
<title>45182&#45;&gt;45183</title>
<path fill="none" stroke="black" d="M2303.75,-2226.95C2323.42,-2219.2 2343.29,-2212.37 2363.01,-2206.87 2526.02,-2161.46 2580.31,-2233.01 2743.26,-2187.37 2751.34,-2185.11 2759.47,-2182.32 2767.52,-2179.16"/>
<polygon fill="black" stroke="black" points="2768.76,-2182.43 2776.67,-2175.38 2766.09,-2175.96 2768.76,-2182.43"/>
<text text-anchor="middle" x="2553.13" y="-2210.07" font-family="Times,serif" font-size="14.00">Court contacted</text>
</g>
<!-- 45182&#45;&gt;45183 -->
<g id="edge54" class="edge">
<title>45182&#45;&gt;45183</title>
<path fill="none" stroke="black" d="M2285.83,-2199.36C2311.05,-2186.58 2336.99,-2175.4 2363.01,-2166.87 2443.41,-2140.52 2659.58,-2159.93 2743.26,-2147.37 2746.71,-2146.86 2750.21,-2146.29 2753.73,-2145.68"/>
<polygon fill="black" stroke="black" points="2754.35,-2149.13 2763.55,-2143.88 2753.08,-2142.24 2754.35,-2149.13"/>
<text text-anchor="middle" x="2553.13" y="-2170.07" font-family="Times,serif" font-size="14.00">Police contacted</text>
</g>
<!-- 45182&#45;&gt;45183 -->
<g id="edge55" class="edge">
<title>45182&#45;&gt;45183</title>
<path fill="none" stroke="black" d="M2265.95,-2175.12C2296.93,-2155.74 2329.6,-2138.89 2363.01,-2126.87 2398.35,-2114.16 2607.63,-2111.85 2749.46,-2111.79"/>
<polygon fill="black" stroke="black" points="2749.32,-2115.29 2759.32,-2111.79 2749.32,-2108.29 2749.32,-2115.29"/>
<text text-anchor="middle" x="2553.13" y="-2130.07" font-family="Times,serif" font-size="14.00">Other : Please explain</text>
</g>
<!-- 45182&#45;&gt;45183 -->
<g id="edge56" class="edge">
<title>45182&#45;&gt;45183</title>
<path fill="none" stroke="black" d="M2247.6,-2156.12C2283.42,-2129.52 2322.29,-2106.38 2363.01,-2090.87 2489.33,-2042.78 2645.64,-2058.34 2753.57,-2079.53"/>
<polygon fill="black" stroke="black" points="2752.86,-2082.95 2763.36,-2081.5 2754.24,-2076.09 2752.86,-2082.95"/>
<text text-anchor="middle" x="2553.13" y="-2094.07" font-family="Times,serif" font-size="14.00">None &#45; explain why none of the above procedures have been actioned</text>
</g>
<!-- 45183&#45;&gt;END_NODE -->
<g id="edge57" class="edge">
<title>45183&#45;&gt;END_NODE</title>
<path fill="none" stroke="#dddddd" d="M2943.52,-2218.85C2964.8,-2247.29 2991.53,-2274.72 3023.22,-2291.37 3189.21,-2378.58 3256.92,-2315.37 3444.42,-2315.37 3444.42,-2315.37 3444.42,-2315.37 5098.31,-2315.37 5669.13,-2315.37 5811.79,-2325.37 6382.61,-2325.37 6382.61,-2325.37 6382.61,-2325.37 8405.43,-2325.37 8482.14,-2325.37 8692.33,-2352.19 8749.8,-2301.37 8781.37,-2273.47 8793.77,-2152.66 8798.29,-2085.62"/>
<polygon fill="#dddddd" stroke="#dddddd" points="8801.78,-2085.87 8798.93,-2075.67 8794.8,-2085.43 8801.78,-2085.87"/>
<text text-anchor="middle" x="5818.44" y="-2326.13" font-family="Times,serif" font-size="14.00">Contact from PEMS</text>
</g>
<!-- 45183&#45;&gt;END_NODE -->
<g id="edge58" class="edge">
<title>45183&#45;&gt;END_NODE</title>
<path fill="none" stroke="#dddddd" d="M2959.2,-2208.23C2978.08,-2226.25 2999.73,-2242.75 3023.22,-2253.37 3108.64,-2292.01 3350.67,-2277.37 3444.42,-2277.37 3444.42,-2277.37 3444.42,-2277.37 5098.31,-2277.37 5556.37,-2277.37 5670.84,-2287.37 6128.9,-2287.37 6128.9,-2287.37 6128.9,-2287.37 8405.43,-2287.37 8482.14,-2287.37 8691.53,-2313.27 8749.8,-2263.37 8776.38,-2240.62 8790.47,-2143.49 8796.66,-2085.19"/>
<polygon fill="#dddddd" stroke="#dddddd" points="8800.11,-2085.89 8797.64,-2075.59 8793.15,-2085.18 8800.11,-2085.89"/>
<text text-anchor="middle" x="5818.44" y="-2289.91" font-family="Times,serif" font-size="14.00">Contact from Courts</text>
</g>
<!-- 45183&#45;&gt;END_NODE -->
<g id="edge59" class="edge">
<title>45183&#45;&gt;END_NODE</title>
<path fill="none" stroke="#dddddd" d="M2976.44,-2191.77C2991.31,-2201.21 3007.12,-2209.55 3023.22,-2215.37 3199.53,-2279.2 3256.92,-2239.37 3444.42,-2239.37 3444.42,-2239.37 3444.42,-2239.37 5098.31,-2239.37 5669.13,-2239.37 5811.79,-2249.37 6382.61,-2249.37 6382.61,-2249.37 6382.61,-2249.37 8405.43,-2249.37 8482.14,-2249.37 8690.44,-2273.97 8749.8,-2225.37 8771.33,-2207.74 8786.42,-2134.31 8794.31,-2085.43"/>
<polygon fill="#dddddd" stroke="#dddddd" points="8797.74,-2086.1 8795.83,-2075.68 8790.83,-2085.02 8797.74,-2086.1"/>
<text text-anchor="middle" x="5818.44" y="-2250.13" font-family="Times,serif" font-size="14.00">Contact from UKBA</text>
</g>
<!-- 45183&#45;&gt;END_NODE -->
<g id="edge60" class="edge">
<title>45183&#45;&gt;END_NODE</title>
<path fill="none" stroke="#dddddd" d="M2992.43,-2167.69C3002.66,-2171.47 3013.02,-2174.8 3023.22,-2177.37 3205.03,-2223.25 3256.92,-2201.37 3444.42,-2201.37 3444.42,-2201.37 3444.42,-2201.37 5098.31,-2201.37 5669.13,-2201.37 5811.79,-2211.37 6382.61,-2211.37 6382.61,-2211.37 6382.61,-2211.37 8405.43,-2211.37 8482.14,-2211.37 8688.9,-2234.02 8749.8,-2187.37 8780.87,-2163.58 8793.06,-2119.62 8797.79,-2085.95"/>
<polygon fill="#dddddd" stroke="#dddddd" points="8801.26,-2086.37 8798.99,-2076.02 8794.31,-2085.53 8801.26,-2086.37"/>
<text text-anchor="middle" x="5818.44" y="-2212.13" font-family="Times,serif" font-size="14.00">Contact from Police</text>
</g>
<!-- 45183&#45;&gt;END_NODE -->
<g id="edge61" class="edge">
<title>45183&#45;&gt;END_NODE</title>
<path fill="none" stroke="#dddddd" d="M3003.1,-2136.56C3009.89,-2137.6 3016.63,-2138.55 3023.22,-2139.37 3209.28,-2162.64 3256.92,-2163.37 3444.42,-2163.37 3444.42,-2163.37 3444.42,-2163.37 5098.31,-2163.37 5669.13,-2163.37 5811.79,-2173.37 6382.61,-2173.37 6382.61,-2173.37 6382.61,-2173.37 8405.43,-2173.37 8482.14,-2173.37 8686.57,-2192.81 8749.8,-2149.37 8771.39,-2134.54 8784.04,-2108.06 8791.32,-2084.92"/>
<polygon fill="#dddddd" stroke="#dddddd" points="8794.67,-2085.92 8794.06,-2075.35 8787.94,-2084 8794.67,-2085.92"/>
<text text-anchor="middle" x="5818.44" y="-2174.13" font-family="Times,serif" font-size="14.00">Post release check by Establishment</text>
</g>
<!-- 45183&#45;&gt;END_NODE -->
<g id="edge62" class="edge">
<title>45183&#45;&gt;END_NODE</title>
<path fill="none" stroke="#dddddd" d="M3005.52,-2116.81C3118.97,-2120.58 3293.15,-2125.37 3444.42,-2125.37 3444.42,-2125.37 3444.42,-2125.37 5098.31,-2125.37 5669.13,-2125.37 5811.79,-2135.37 6382.61,-2135.37 6382.61,-2135.37 6382.61,-2135.37 8405.43,-2135.37 8482.14,-2135.37 8682.83,-2148.78 8749.8,-2111.37 8762.54,-2104.26 8772.89,-2092.45 8780.85,-2080.49"/>
<polygon fill="#dddddd" stroke="#dddddd" points="8783.66,-2082.6 8785.92,-2072.24 8777.7,-2078.93 8783.66,-2082.6"/>
<text text-anchor="middle" x="5818.44" y="-2136.13" font-family="Times,serif" font-size="14.00">Contact from other agency: Please enter details</text>
</g>
<!-- 45183&#45;&gt;END_NODE -->
<g id="edge63" class="edge">
<title>45183&#45;&gt;END_NODE</title>
<path fill="none" stroke="#dddddd" d="M3005.52,-2105.72C3151.24,-2098.32 3403.17,-2087.37 3619.5,-2087.37 3619.5,-2087.37 3619.5,-2087.37 5482.31,-2087.37 5882.47,-2087.37 5982.45,-2097.37 6382.61,-2097.37 6382.61,-2097.37 6382.61,-2097.37 8405.43,-2097.37 8558.85,-2097.37 8604.29,-2122.01 8749.8,-2073.37 8754.84,-2071.69 8759.86,-2069.39 8764.69,-2066.78"/>
<polygon fill="#dddddd" stroke="#dddddd" points="8766.15,-2069.98 8772.95,-2061.85 8762.57,-2063.97 8766.15,-2069.98"/>
<text text-anchor="middle" x="5818.44" y="-2095.79" font-family="Times,serif" font-size="14.00">Sentence calculations</text>
</g>
<!-- 45183&#45;&gt;END_NODE -->
<g id="edge64" class="edge">
<title>45183&#45;&gt;END_NODE</title>
<path fill="none" stroke="#dddddd" d="M3003.93,-2092.74C3010.45,-2091.89 3016.91,-2091.09 3023.22,-2090.37 3287.17,-2060.47 3353.86,-2049.37 3619.5,-2049.37 3619.5,-2049.37 3619.5,-2049.37 5098.31,-2049.37 5669.13,-2049.37 5811.79,-2059.37 6382.61,-2059.37 6382.61,-2059.37 6382.61,-2059.37 8405.43,-2059.37 8558.61,-2059.37 8596.99,-2055.98 8749.8,-2045.37 8751.87,-2045.23 8753.98,-2045.07 8756.11,-2044.9"/>
<polygon fill="#dddddd" stroke="#dddddd" points="8756.41,-2048.39 8766.07,-2044.04 8755.8,-2041.42 8756.41,-2048.39"/>
<text text-anchor="middle" x="5818.44" y="-2060.13" font-family="Times,serif" font-size="14.00">Other: Please explain</text>
</g>
<!-- 45184 -->
<g id="node8" class="node">
<title>45184</title>
<ellipse fill="none" stroke="black" cx="3445.42" cy="-1879.37" rx="142.45" ry="142.45"/>
<text text-anchor="middle" x="3445.42" y="-1874.32" font-family="Times,serif" font-size="14.00">What date was the error identified?</text>
</g>
<!-- 45183&#45;&gt;45184 -->
<g id="edge65" class="edge">
<title>45183&#45;&gt;45184</title>
<path fill="none" stroke="#dddddd" d="M2991.63,-2055.59C3002.12,-2051.46 3012.75,-2047.78 3023.22,-2044.87 3135.76,-2013.63 3177.78,-2067.78 3284.97,-2021.37 3303.48,-2013.36 3321.33,-2002.34 3337.96,-1989.94"/>
<polygon fill="#dddddd" stroke="#dddddd" points="3340.08,-1992.73 3345.87,-1983.85 3335.81,-1987.18 3340.08,-1992.73"/>
<text text-anchor="middle" x="3154.1" y="-2048.07" font-family="Times,serif" font-size="14.00">Contact from PEMS</text>
</g>
<!-- 45183&#45;&gt;45184 -->
<g id="edge66" class="edge">
<title>45183&#45;&gt;45184</title>
<path fill="none" stroke="black" d="M2972.75,-2028.89C2988.58,-2017.74 3005.66,-2007.79 3023.22,-2000.87 3131.76,-1958.12 3174.3,-2018.26 3284.97,-1981.37 3296.43,-1977.56 3307.88,-1972.73 3319.1,-1967.27"/>
<polygon fill="black" stroke="black" points="3320.64,-1970.41 3327.97,-1962.77 3317.47,-1964.17 3320.64,-1970.41"/>
<text text-anchor="middle" x="3154.1" y="-2004.07" font-family="Times,serif" font-size="14.00">Contact from courts</text>
</g>
<!-- 45183&#45;&gt;45184 -->
<g id="edge67" class="edge">
<title>45183&#45;&gt;45184</title>
<path fill="none" stroke="black" d="M2954.92,-2013.28C2974.61,-1992.55 2997.69,-1973.25 3023.22,-1960.87 3075.71,-1935.43 3228.08,-1954.25 3284.97,-1941.37 3290.85,-1940.04 3296.81,-1938.53 3302.79,-1936.88"/>
<polygon fill="black" stroke="black" points="3303.47,-1940.32 3312.1,-1934.18 3301.52,-1933.6 3303.47,-1940.32"/>
<text text-anchor="middle" x="3154.1" y="-1964.07" font-family="Times,serif" font-size="14.00">Contact from UKBA</text>
</g>
<!-- 45183&#45;&gt;45184 -->
<g id="edge68" class="edge">
<title>45183&#45;&gt;45184</title>
<path fill="none" stroke="black" d="M2939.22,-2003.47C2960.92,-1971.48 2988.96,-1939.98 3023.22,-1920.87 3074.16,-1892.47 3226.97,-1907.53 3284.97,-1901.37 3287.51,-1901.11 3290.07,-1900.83 3292.65,-1900.54"/>
<polygon fill="black" stroke="black" points="3293.01,-1904.02 3302.55,-1899.41 3292.22,-1897.07 3293.01,-1904.02"/>
<text text-anchor="middle" x="3154.1" y="-1924.07" font-family="Times,serif" font-size="14.00">Contact from police</text>
</g>
<!-- 45183&#45;&gt;45184 -->
<g id="edge69" class="edge">
<title>45183&#45;&gt;45184</title>
<path fill="none" stroke="black" d="M2924.55,-1997.23C2946.43,-1952.68 2978.39,-1906.35 3023.22,-1880.87 3046.46,-1867.67 3180.58,-1869.06 3291.32,-1872.68"/>
<polygon fill="black" stroke="black" points="3291.02,-1876.17 3301.13,-1873.01 3291.26,-1869.17 3291.02,-1876.17"/>
<text text-anchor="middle" x="3154.1" y="-1884.07" font-family="Times,serif" font-size="14.00">Post release check by Establishment</text>
</g>
<!-- 45183&#45;&gt;45184 -->
<g id="edge70" class="edge">
<title>45183&#45;&gt;45184</title>
<path fill="none" stroke="black" d="M2915.88,-1994.5C2936.92,-1940.47 2970.65,-1881.53 3023.22,-1849.87 3067.72,-1823.08 3192.02,-1834.99 3294.14,-1850.97"/>
<polygon fill="black" stroke="black" points="3293.29,-1854.38 3303.71,-1852.49 3294.39,-1847.46 3293.29,-1854.38"/>
<text text-anchor="middle" x="3154.1" y="-1853.07" font-family="Times,serif" font-size="14.00">Contact from other agency : Please enter details</text>
</g>
<!-- 45183&#45;&gt;45184 -->
<g id="edge71" class="edge">
<title>45183&#45;&gt;45184</title>
<path fill="none" stroke="black" d="M2907.45,-1992.62C2926.77,-1927.83 2961.52,-1853.21 3023.22,-1813.87 3072.27,-1782.61 3227.9,-1802.61 3284.97,-1813.87 3291.37,-1815.14 3297.83,-1816.66 3304.3,-1818.39"/>
<polygon fill="black" stroke="black" points="3303.15,-1821.7 3313.73,-1821.07 3305.06,-1814.97 3303.15,-1821.7"/>
<text text-anchor="middle" x="3154.1" y="-1817.07" font-family="Times,serif" font-size="14.00">Sentence calculations (new receptions)</text>
</g>
<!-- 45183&#45;&gt;45184 -->
<g id="edge72" class="edge">
<title>45183&#45;&gt;45184</title>
<path fill="none" stroke="black" d="M2900.32,-1991.31C2917.29,-1915.88 2952.06,-1824.42 3023.22,-1776.87 3071.58,-1744.56 3229.16,-1760.48 3284.97,-1776.87 3296.81,-1780.35 3308.61,-1785.01 3320.12,-1790.43"/>
<polygon fill="black" stroke="black" points="3318.28,-1793.43 3328.8,-1794.71 3321.38,-1787.15 3318.28,-1793.43"/>
<text text-anchor="middle" x="3154.1" y="-1780.07" font-family="Times,serif" font-size="14.00">Other: Please explain</text>
</g>
<!-- 45183&#45;&gt;45184 -->
<g id="edge73" class="edge">
<title>45183&#45;&gt;45184</title>
<path fill="none" stroke="black" d="M2894.06,-1990.54C2908.1,-1904.33 2941.95,-1794.4 3023.22,-1737.87 3118.72,-1671.45 3176.21,-1696.58 3284.97,-1737.87 3304.12,-1745.15 3322.45,-1755.89 3339.41,-1768.26"/>
<polygon fill="black" stroke="black" points="3336.85,-1770.72 3346.94,-1773.96 3341.07,-1765.14 3336.85,-1770.72"/>
<text text-anchor="middle" x="3154.1" y="-1741.07" font-family="Times,serif" font-size="14.00">Contact from PEMS</text>
</g>
<!-- 45184&#45;&gt;END_NODE -->
<g id="edge74" class="edge">
<title>45184&#45;&gt;END_NODE</title>
<path fill="none" stroke="#dddddd" d="M3566.53,-1954.8C3594.12,-1969.33 3623.94,-1982.93 3653.13,-1992.37 3717.34,-2013.15 3736.3,-2011.37 3803.79,-2011.37 3803.79,-2011.37 3803.79,-2011.37 5098.31,-2011.37 5837.76,-2011.37 6022.6,-2021.37 6762.05,-2021.37 6762.05,-2021.37 6762.05,-2021.37 8405.43,-2021.37 8533.07,-2021.37 8683.63,-2031.38 8756.6,-2036.87"/>
<polygon fill="#dddddd" stroke="#dddddd" points="8755.88,-2040.33 8766.12,-2037.6 8756.41,-2033.35 8755.88,-2040.33"/>
<text text-anchor="middle" x="6129.9" y="-2022.97" font-family="Times,serif" font-size="14.00">Date:</text>
</g>
<!-- 45185 -->
<g id="node9" class="node">
<title>45185</title>
<ellipse fill="none" stroke="black" cx="3804.79" cy="-1831.37" rx="151.67" ry="151.67"/>
<text text-anchor="middle" x="3804.79" y="-1826.32" font-family="Times,serif" font-size="14.00">What was the category of the person?</text>
</g>
<!-- 45184&#45;&gt;45185 -->
<g id="edge75" class="edge">
<title>45184&#45;&gt;45185</title>
<path fill="none" stroke="black" d="M3586.9,-1860.51C3605.27,-1858.04 3624.21,-1855.5 3642.89,-1852.99"/>
<polygon fill="black" stroke="black" points="3643.22,-1856.47 3652.66,-1851.67 3642.29,-1849.54 3643.22,-1856.47"/>
<text text-anchor="middle" x="3620.5" y="-1860.01" font-family="Times,serif" font-size="14.00">Date:</text>
</g>
<!-- 45185&#45;&gt;END_NODE -->
<g id="edge76" class="edge">
<title>45185&#45;&gt;END_NODE</title>
<path fill="none" stroke="#dddddd" d="M3938,-1904.29C4009.27,-1937 4100.01,-1968.37 4185.95,-1968.37 4185.95,-1968.37 4185.95,-1968.37 5819.44,-1968.37 6238.43,-1968.37 6343.06,-1983.37 6762.05,-1983.37 6762.05,-1983.37 6762.05,-1983.37 8405.43,-1983.37 8558.85,-1983.37 8604.29,-1958.74 8749.8,-2007.37 8754.84,-2009.06 8759.86,-2011.36 8764.69,-2013.97"/>
<polygon fill="#dddddd" stroke="#dddddd" points="8762.57,-2016.78 8772.95,-2018.89 8766.15,-2010.77 8762.57,-2016.78"/>
<text text-anchor="middle" x="6383.61" y="-1983.33" font-family="Times,serif" font-size="14.00">Enter details:</text>
</g>
<!-- 45186 -->
<g id="node10" class="node">
<title>45186</title>
<ellipse fill="none" stroke="black" cx="4186.95" cy="-1741.37" rx="122.49" ry="122.49"/>
<text text-anchor="middle" x="4186.95" y="-1736.32" font-family="Times,serif" font-size="14.00">What was the prisoner status?</text>
</g>
<!-- 45185&#45;&gt;45186 -->
<g id="edge77" class="edge">
<title>45185&#45;&gt;45186</title>
<path fill="none" stroke="black" d="M3952.77,-1796.58C3986.84,-1788.51 4022.86,-1779.98 4056.14,-1772.11"/>
<polygon fill="black" stroke="black" points="4056.91,-1775.52 4065.84,-1769.81 4055.3,-1768.71 4056.91,-1775.52"/>
<text text-anchor="middle" x="4010.46" y="-1792.27" font-family="Times,serif" font-size="14.00">Enter details:</text>
</g>
<!-- 45186&#45;&gt;END_NODE -->
<g id="edge78" class="edge">
<title>45186&#45;&gt;END_NODE</title>
<path fill="none" stroke="#dddddd" d="M4256.49,-1842.51C4276.66,-1864.9 4300.61,-1885.94 4327.44,-1899.37 4479.7,-1975.62 4539.04,-1930.37 4709.32,-1930.37 4709.32,-1930.37 4709.32,-1930.37 5819.44,-1930.37 6238.39,-1930.37 6343.1,-1938.37 6762.05,-1938.37 6762.05,-1938.37 6762.05,-1938.37 8405.43,-1938.37 8559.1,-1938.37 8616.4,-1893.08 8749.8,-1969.37 8762.47,-1976.62 8772.8,-1988.46 8780.76,-2000.41"/>
<polygon fill="#dddddd" stroke="#dddddd" points="8777.61,-2001.97 8785.84,-2008.64 8783.57,-1998.29 8777.61,-2001.97"/>
<text text-anchor="middle" x="6575.39" y="-1941.44" font-family="Times,serif" font-size="14.00">Sentenced prisoner</text>
</g>
<!-- 45186&#45;&gt;END_NODE -->
<g id="edge79" class="edge">
<title>45186&#45;&gt;END_NODE</title>
<path fill="none" stroke="#dddddd" d="M4280.22,-1821.39C4295.24,-1831.22 4311.22,-1840.02 4327.44,-1846.37 4486.28,-1908.63 4538.71,-1885.37 4709.32,-1885.37 4709.32,-1885.37 4709.32,-1885.37 8405.43,-1885.37 8559.36,-1885.37 8625.91,-1831.01 8749.8,-1922.37 8773.26,-1939.68 8786.02,-1970.06 8792.89,-1995.66"/>
<polygon fill="#dddddd" stroke="#dddddd" points="8789.44,-1996.29 8795.21,-2005.18 8796.24,-1994.64 8789.44,-1996.29"/>
<text text-anchor="middle" x="6575.39" y="-1888.57" font-family="Times,serif" font-size="14.00">Remand prisoner</text>
</g>
<!-- 45186&#45;&gt;END_NODE -->
<g id="edge80" class="edge">
<title>45186&#45;&gt;END_NODE</title>
<path fill="none" stroke="#dddddd" d="M4301.41,-1786.36C4310.14,-1788.99 4318.89,-1791.38 4327.44,-1793.37 4493.58,-1832.15 4538.71,-1832.37 4709.32,-1832.37 4709.32,-1832.37 4709.32,-1832.37 8405.43,-1832.37 8559.23,-1832.37 8631.42,-1768.19 8749.8,-1866.37 8787.28,-1897.46 8798.03,-1954.53 8800.67,-1994.82"/>
<polygon fill="#dddddd" stroke="#dddddd" points="8797.17,-1994.9 8801.16,-2004.71 8804.16,-1994.55 8797.17,-1994.9"/>
<text text-anchor="middle" x="6575.39" y="-1835.57" font-family="Times,serif" font-size="14.00">Immigration detainee</text>
</g>
<!-- 45186&#45;&gt;END_NODE -->
<g id="edge81" class="edge">
<title>45186&#45;&gt;END_NODE</title>
<path fill="none" stroke="#dddddd" d="M4308.92,-1755.2C4414.47,-1766.07 4571.82,-1779.37 4709.32,-1779.37 4709.32,-1779.37 4709.32,-1779.37 6384.61,-1779.37 6883.37,-1779.37 7007.97,-1793.37 7506.73,-1793.37 7506.73,-1793.37 7506.73,-1793.37 8405.43,-1793.37 8482.02,-1793.37 8691.13,-1758.14 8749.8,-1807.37 8778.03,-1831.07 8791.59,-1934.49 8797.23,-1995.29"/>
<polygon fill="#dddddd" stroke="#dddddd" points="8793.72,-1995.32 8798.09,-2004.97 8800.69,-1994.7 8793.72,-1995.32"/>
<text text-anchor="middle" x="6575.39" y="-1784.34" font-family="Times,serif" font-size="14.00">Recall prisoner</text>
</g>
<!-- 45186&#45;&gt;END_NODE -->
<g id="edge82" class="edge">
<title>45186&#45;&gt;END_NODE</title>
<path fill="none" stroke="#dddddd" d="M4309.63,-1742.26C4743.78,-1745.33 6257.49,-1755.37 7506.73,-1755.37 7506.73,-1755.37 7506.73,-1755.37 8405.43,-1755.37 8482.11,-1755.37 8692.24,-1726.71 8749.8,-1777.37 8781.73,-1805.48 8793.99,-1927.69 8798.39,-1995.18"/>
<polygon fill="#dddddd" stroke="#dddddd" points="8794.88,-1995.04 8798.99,-2004.81 8801.86,-1994.61 8794.88,-1995.04"/>
<text text-anchor="middle" x="6575.39" y="-1757.34" font-family="Times,serif" font-size="14.00">Civil prisoner</text>
</g>
<!-- 45189 -->
<g id="node11" class="node">
<title>45189</title>
<ellipse fill="none" stroke="black" cx="4710.32" cy="-1520.37" rx="193.12" ry="193.12"/>
<text text-anchor="middle" x="4710.32" y="-1515.32" font-family="Times,serif" font-size="14.00">Has the person been reported UAL to the police?</text>
</g>
<!-- 45186&#45;&gt;45189 -->
<g id="edge83" class="edge">
<title>45186&#45;&gt;45189</title>
<path fill="none" stroke="black" d="M4306.93,-1714.75C4313.86,-1713.39 4320.73,-1712.08 4327.44,-1710.87 4403.32,-1697.19 4428.33,-1716.77 4499.19,-1686.37 4518.75,-1677.99 4538.03,-1667.29 4556.51,-1655.38"/>
<polygon fill="black" stroke="black" points="4558.42,-1658.32 4564.83,-1649.89 4554.56,-1652.48 4558.42,-1658.32"/>
<text text-anchor="middle" x="4413.32" y="-1714.07" font-family="Times,serif" font-size="14.00">Sentenced prisoner</text>
</g>
<!-- 45186&#45;&gt;45189 -->
<g id="edge84" class="edge">
<title>45186&#45;&gt;45189</title>
<path fill="none" stroke="black" d="M4292.78,-1679.48C4304.23,-1674.29 4315.92,-1669.61 4327.44,-1665.87 4400.68,-1642.16 4426.36,-1668.32 4499.19,-1643.37 4511.61,-1639.12 4524.11,-1634.09 4536.49,-1628.53"/>
<polygon fill="black" stroke="black" points="4537.86,-1631.75 4545.47,-1624.38 4534.93,-1625.4 4537.86,-1631.75"/>
<text text-anchor="middle" x="4413.32" y="-1669.07" font-family="Times,serif" font-size="14.00">Remand prisoner</text>
</g>
<!-- 45186&#45;&gt;45189 -->
<g id="edge85" class="edge">
<title>45186&#45;&gt;45189</title>
<path fill="none" stroke="black" d="M4274.82,-1655.36C4291.26,-1642.78 4309.09,-1631.26 4327.44,-1622.87 4397.69,-1590.77 4424.36,-1615.49 4499.19,-1596.37 4505.51,-1594.76 4511.91,-1593.03 4518.35,-1591.21"/>
<polygon fill="black" stroke="black" points="4519.13,-1594.62 4527.75,-1588.47 4517.18,-1587.9 4519.13,-1594.62"/>
<text text-anchor="middle" x="4413.32" y="-1626.07" font-family="Times,serif" font-size="14.00">Immigration detainee</text>
</g>
<!-- 45186&#45;&gt;45189 -->
<g id="edge86" class="edge">
<title>45186&#45;&gt;45189</title>
<path fill="none" stroke="black" d="M4254.52,-1638.84C4275.06,-1614.58 4299.69,-1591.3 4327.44,-1575.87 4344.41,-1566.44 4424.31,-1554.17 4506.68,-1543.57"/>
<polygon fill="black" stroke="black" points="4507.07,-1547.05 4516.54,-1542.31 4506.18,-1540.1 4507.07,-1547.05"/>
<text text-anchor="middle" x="4413.32" y="-1579.07" font-family="Times,serif" font-size="14.00">Recall prisoner</text>
</g>
<!-- 45186&#45;&gt;45189 -->
<g id="edge87" class="edge">
<title>45186&#45;&gt;45189</title>
<path fill="none" stroke="black" d="M4233.87,-1627.97C4255.97,-1588.47 4286.69,-1548.42 4327.44,-1525.87 4381.51,-1495.96 4446.83,-1487.1 4508.03,-1487.92"/>
<polygon fill="black" stroke="black" points="4507.82,-1491.42 4517.9,-1488.15 4507.98,-1484.42 4507.82,-1491.42"/>
<text text-anchor="middle" x="4413.32" y="-1529.07" font-family="Times,serif" font-size="14.00">Civil prisoner</text>
</g>
<!-- 45189&#45;&gt;END_NODE -->
<g id="edge97" class="edge">
<title>45189&#45;&gt;END_NODE</title>
<path fill="none" stroke="#dddddd" d="M4867.17,-1633.6C4884.85,-1642.65 4903.12,-1650.53 4921.44,-1656.37 5158.31,-1731.9 5231.7,-1680.37 5480.31,-1680.37 5480.31,-1680.37 5480.31,-1680.37 6384.61,-1680.37 6634.11,-1680.37 7257.23,-1717.37 7506.73,-1717.37 7506.73,-1717.37 7506.73,-1717.37 8405.43,-1717.37 8482.14,-1717.37 8692.94,-1689.88 8749.8,-1741.37 8786.38,-1774.51 8796.66,-1919.46 8799.54,-1994.69"/>
<polygon fill="#dddddd" stroke="#dddddd" points="8796.04,-1994.75 8799.89,-2004.63 8803.03,-1994.51 8796.04,-1994.75"/>
<text text-anchor="middle" x="6763.05" y="-1697.19" font-family="Times,serif" font-size="14.00">Yes: Date</text>
</g>
<!-- 45189&#45;&gt;END_NODE -->
<g id="edge98" class="edge">
<title>45189&#45;&gt;END_NODE</title>
<path fill="none" stroke="#dddddd" d="M4883.37,-1607.04C4896.06,-1611.43 4908.83,-1615.29 4921.44,-1618.37 5162.95,-1677.39 5231.7,-1642.37 5480.31,-1642.37 5480.31,-1642.37 5480.31,-1642.37 6384.61,-1642.37 6634.11,-1642.37 7257.23,-1679.37 7506.73,-1679.37 7506.73,-1679.37 7506.73,-1679.37 8405.43,-1679.37 8482.19,-1679.37 8693.58,-1654.11 8749.8,-1706.37 8790.95,-1744.63 8798.99,-1912.68 8800.43,-1994.83"/>
<polygon fill="#dddddd" stroke="#dddddd" points="8796.93,-1994.85 8800.58,-2004.79 8803.93,-1994.74 8796.93,-1994.85"/>
<text text-anchor="middle" x="6763.05" y="-1659.19" font-family="Times,serif" font-size="14.00">Police Incident Number:</text>
</g>
<!-- 45189&#45;&gt;END_NODE -->
<g id="edge99" class="edge">
<title>45189&#45;&gt;END_NODE</title>
<path fill="none" stroke="#dddddd" d="M4901.09,-1552.73C5056.35,-1576.39 5281.88,-1604.37 5480.31,-1604.37 5480.31,-1604.37 5480.31,-1604.37 6384.61,-1604.37 6883.6,-1604.37 7007.74,-1641.37 7506.73,-1641.37 7506.73,-1641.37 7506.73,-1641.37 8405.43,-1641.37 8559.02,-1641.37 8638.37,-1564.66 8749.8,-1670.37 8795.66,-1713.89 8801.16,-1905.78 8801.18,-1994.77"/>
<polygon fill="#dddddd" stroke="#dddddd" points="8797.68,-1994.59 8801.16,-2004.59 8804.68,-1994.6 8797.68,-1994.59"/>
<text text-anchor="middle" x="6763.05" y="-1619.43" font-family="Times,serif" font-size="14.00">No</text>
</g>
<!-- 45188 -->
<g id="node13" class="node">
<title>45188</title>
<ellipse fill="none" stroke="black" cx="5481.31" cy="-1389.37" rx="186.98" ry="186.98"/>
<text text-anchor="middle" x="5481.31" y="-1384.32" font-family="Times,serif" font-size="14.00">Has the release in error been reported to NOU?</text>
</g>
<!-- 45189&#45;&gt;45188 -->
<g id="edge100" class="edge">
<title>45189&#45;&gt;45188</title>
<path fill="none" stroke="black" d="M4903.67,-1527.7C5013.51,-1527.37 5152.88,-1519.27 5273.19,-1488.37 5283.43,-1485.74 5293.78,-1482.6 5304.09,-1479.06"/>
<polygon fill="black" stroke="black" points="5305.15,-1482.4 5313.4,-1475.76 5302.8,-1475.81 5305.15,-1482.4"/>
<text text-anchor="middle" x="5097.31" y="-1530.7" font-family="Times,serif" font-size="14.00">Yes: Date</text>
</g>
<!-- 45189&#45;&gt;45188 -->
<g id="edge101" class="edge">
<title>45189&#45;&gt;45188</title>
<path fill="none" stroke="black" d="M4897.75,-1472.22C4905.73,-1470.66 4913.65,-1469.2 4921.44,-1467.87 5076.21,-1441.55 5118.08,-1459.66 5273.19,-1435.37 5277.9,-1434.64 5282.66,-1433.86 5287.45,-1433.04"/>
<polygon fill="black" stroke="black" points="5287.97,-1436.5 5297.21,-1431.33 5286.76,-1429.61 5287.97,-1436.5"/>
<text text-anchor="middle" x="5097.31" y="-1471.07" font-family="Times,serif" font-size="14.00">Police Incident Number:</text>
</g>
<!-- 45189&#45;&gt;45188 -->
<g id="edge102" class="edge">
<title>45189&#45;&gt;45188</title>
<path fill="none" stroke="black" d="M4880.42,-1428.1C4894.04,-1422.95 4907.81,-1418.43 4921.44,-1414.87 5038.75,-1384.24 5174.54,-1377.42 5282.9,-1378.47"/>
<polygon fill="black" stroke="black" points="5282.74,-1381.97 5292.78,-1378.59 5282.83,-1374.97 5282.74,-1381.97"/>
<text text-anchor="middle" x="5097.31" y="-1418.07" font-family="Times,serif" font-size="14.00">No</text>
</g>
<!-- 45187 -->
<g id="node12" class="node">
<title>45187</title>
<ellipse fill="#dddddd" stroke="#dddddd" cx="8404.43" cy="-698.37" rx="193.12" ry="193.12"/>
<text text-anchor="middle" x="8404.43" y="-693.32" font-family="Times,serif" font-size="14.00">Has the person been reported UAL to the police?</text>
</g>
<!-- 45187&#45;&gt;END_NODE -->
<g id="edge88" class="edge">
<title>45187&#45;&gt;END_NODE</title>
<path fill="none" stroke="#dddddd" d="M8554.2,-820.53C8574.41,-835.53 8595.21,-850.2 8615.55,-863.37 8672.12,-900 8713.63,-877.01 8749.8,-933.87 8778.69,-979.29 8795.95,-1791.78 8799.82,-1994.73"/>
<polygon fill="#dddddd" stroke="#dddddd" points="8796.32,-1994.67 8800.01,-2004.61 8803.32,-1994.54 8796.32,-1994.67"/>
<text text-anchor="middle" x="8682.67" y="-937.07" font-family="Times,serif" font-size="14.00">Yes: Date</text>
</g>
<!-- 45187&#45;&gt;END_NODE -->
<g id="edge89" class="edge">
<title>45187&#45;&gt;END_NODE</title>
<path fill="none" stroke="#dddddd" d="M8594.21,-735.47C8653.63,-756.81 8713.23,-790.32 8749.8,-842.87 8783.26,-890.96 8797.21,-1781.46 8800.08,-1994.75"/>
<polygon fill="#dddddd" stroke="#dddddd" points="8796.58,-1994.64 8800.21,-2004.6 8803.58,-1994.55 8796.58,-1994.64"/>
<text text-anchor="middle" x="8682.67" y="-846.07" font-family="Times,serif" font-size="14.00">Police Incident Number:</text>
</g>
<!-- 45187&#45;&gt;END_NODE -->
<g id="edge90" class="edge">
<title>45187&#45;&gt;END_NODE</title>
<path fill="none" stroke="#dddddd" d="M8595.52,-669.14C8652.51,-671.09 8710.29,-685.59 8749.8,-726.87 8794.54,-773.62 8799.92,-1768.63 8800.57,-1994.88"/>
<polygon fill="#dddddd" stroke="#dddddd" points="8797.07,-1994.77 8800.59,-2004.76 8804.07,-1994.75 8797.07,-1994.77"/>
<text text-anchor="middle" x="8682.67" y="-730.07" font-family="Times,serif" font-size="14.00">No</text>
</g>
<!-- 45188&#45;&gt;END_NODE -->
<g id="edge91" class="edge">
<title>45188&#45;&gt;END_NODE</title>
<path fill="none" stroke="#dddddd" d="M5623.94,-1510.63C5644.84,-1523.43 5666.94,-1534.59 5689.44,-1542.37 5784.9,-1575.39 7405.72,-1596.37 7506.73,-1596.37 7506.73,-1596.37 7506.73,-1596.37 8405.43,-1596.37 8559.1,-1596.37 8639.37,-1520.5 8749.8,-1627.37 8775.89,-1652.63 8792.37,-1892.92 8798.24,-1994.93"/>
<polygon fill="#dddddd" stroke="#dddddd" points="8794.74,-1995.08 8798.8,-2004.87 8801.73,-1994.69 8794.74,-1995.08"/>
<text text-anchor="middle" x="7121.14" y="-1598.48" font-family="Times,serif" font-size="14.00">Yes: Date</text>
</g>
<!-- 45188&#45;&gt;END_NODE -->
<g id="edge92" class="edge">
<title>45188&#45;&gt;END_NODE</title>
<path fill="none" stroke="#dddddd" d="M5641.05,-1487.28C5656.98,-1494.1 5673.26,-1500 5689.44,-1504.37 5884.4,-1557.11 7304.76,-1543.37 7506.73,-1543.37 7506.73,-1543.37 7506.73,-1543.37 8405.43,-1543.37 8558.82,-1543.37 8639.17,-1460.11 8749.8,-1566.37 8780.39,-1595.76 8794.6,-1882.02 8799.05,-1994.92"/>
<polygon fill="#dddddd" stroke="#dddddd" points="8795.54,-1994.87 8799.42,-2004.73 8802.54,-1994.6 8795.54,-1994.87"/>
<text text-anchor="middle" x="7121.14" y="-1548.18" font-family="Times,serif" font-size="14.00">No</text>
</g>
<!-- 45188&#45;&gt;END_NODE -->
<g id="edge93" class="edge">
<title>45188&#45;&gt;END_NODE</title>
<path fill="none" stroke="#dddddd" d="M5663.34,-1433.01C5792.33,-1460.33 5970.26,-1490.37 6128.9,-1490.37 6128.9,-1490.37 6128.9,-1490.37 8405.43,-1490.37 8482.06,-1490.37 8694.46,-1455.37 8749.8,-1508.37 8784.65,-1541.75 8796.44,-1872.22 8799.64,-1994.87"/>
<polygon fill="#dddddd" stroke="#dddddd" points="8796.13,-1994.65 8799.88,-2004.56 8803.13,-1994.47 8796.13,-1994.65"/>
<text text-anchor="middle" x="7121.14" y="-1493.57" font-family="Times,serif" font-size="14.00">Incident Ref No:</text>
</g>
<!-- 45190 -->
<g id="node14" class="node">
<title>45190</title>
<ellipse fill="none" stroke="black" cx="6129.9" cy="-1298.37" rx="164.46" ry="164.46"/>
<text text-anchor="middle" x="6129.9" y="-1293.32" font-family="Times,serif" font-size="14.00">Has the person been returned to custody?</text>
</g>
<!-- 45188&#45;&gt;45190 -->
<g id="edge94" class="edge">
<title>45188&#45;&gt;45190</title>
<path fill="none" stroke="black" d="M5668.69,-1392.55C5754.36,-1390.76 5856.85,-1383.99 5947.44,-1365.37 5953.4,-1364.15 5959.43,-1362.76 5965.48,-1361.24"/>
<polygon fill="black" stroke="black" points="5966.16,-1364.68 5974.94,-1358.75 5964.37,-1357.91 5966.16,-1364.68"/>
<text text-anchor="middle" x="5818.44" y="-1395.02" font-family="Times,serif" font-size="14.00">Yes: Date</text>
</g>
<!-- 45188&#45;&gt;45190 -->
<g id="edge95" class="edge">
<title>45188&#45;&gt;45190</title>
<path fill="none" stroke="black" d="M5664.2,-1348.89C5672.72,-1347.44 5681.16,-1346.09 5689.44,-1344.87 5803.25,-1328.2 5833.12,-1337.09 5947.44,-1324.37 5950.11,-1324.08 5952.8,-1323.77 5955.5,-1323.46"/>
<polygon fill="black" stroke="black" points="5955.7,-1326.96 5965.21,-1322.31 5954.87,-1320.01 5955.7,-1326.96"/>
<text text-anchor="middle" x="5818.44" y="-1348.07" font-family="Times,serif" font-size="14.00">Incident Ref No:</text>
</g>
<!-- 45188&#45;&gt;45190 -->
<g id="edge96" class="edge">
<title>45188&#45;&gt;45190</title>
<path fill="none" stroke="black" d="M5652.53,-1313.29C5664.86,-1309.58 5677.24,-1306.37 5689.44,-1303.87 5775.47,-1286.26 5872.96,-1283.37 5954.23,-1285.53"/>
<polygon fill="black" stroke="black" points="5953.97,-1289.02 5964.07,-1285.82 5954.18,-1282.02 5953.97,-1289.02"/>
<text text-anchor="middle" x="5818.44" y="-1307.07" font-family="Times,serif" font-size="14.00">No</text>
</g>
<!-- 45190&#45;&gt;END_NODE -->
<g id="edge103" class="edge">
<title>45190&#45;&gt;END_NODE</title>
<path fill="none" stroke="#dddddd" d="M6261.22,-1398.2C6277.76,-1407.13 6294.99,-1414.86 6312.36,-1420.37 6376.91,-1440.87 8700.33,-1430.12 8749.8,-1476.37 8787.44,-1511.58 8797.54,-1867.56 8799.96,-1995.16"/>
<polygon fill="#dddddd" stroke="#dddddd" points="8796.46,-1994.98 8800.14,-2004.92 8803.45,-1994.85 8796.46,-1994.98"/>
<text text-anchor="middle" x="7507.73" y="-1442.41" font-family="Times,serif" font-size="14.00">Yes</text>
</g>
<!-- 45190&#45;&gt;END_NODE -->
<g id="edge104" class="edge">
<title>45190&#45;&gt;END_NODE</title>
<path fill="none" stroke="#dddddd" d="M6277.43,-1372.16C6289.06,-1376.17 6300.78,-1379.66 6312.36,-1382.37 6444.26,-1413.27 8653.92,-1360.66 8749.8,-1456.37 8787.68,-1494.2 8797.65,-1864.33 8799.99,-1994.99"/>
<polygon fill="#dddddd" stroke="#dddddd" points="8796.49,-1994.7 8800.16,-2004.63 8803.49,-1994.58 8796.49,-1994.7"/>
<text text-anchor="middle" x="7507.73" y="-1398.52" font-family="Times,serif" font-size="14.00">No</text>
</g>
<!-- 45190&#45;&gt;END_NODE -->
<g id="edge105" class="edge">
<title>45190&#45;&gt;END_NODE</title>
<path fill="none" stroke="#dddddd" d="M6289.33,-1340.73C6297.09,-1342.11 6304.79,-1343.34 6312.36,-1344.37 6446.6,-1362.68 8656.98,-1323.68 8749.8,-1422.37 8788.85,-1463.91 8798.1,-1859.83 8800.12,-1995.23"/>
<polygon fill="#dddddd" stroke="#dddddd" points="8796.62,-1994.93 8800.26,-2004.88 8803.62,-1994.83 8796.62,-1994.93"/>
<text text-anchor="middle" x="7507.73" y="-1356.87" font-family="Times,serif" font-size="14.00">Other: Please enter details</text>
</g>
<!-- 45190&#45;&gt;END_NODE -->
<g id="edge109" class="edge">
<title>45190&#45;&gt;END_NODE</title>
<path fill="none" stroke="black" d="M6293.58,-1315.2C6299.92,-1315.64 6306.2,-1316.03 6312.36,-1316.37 6447.62,-1323.88 8657.85,-1286.89 8749.8,-1386.37 8790.96,-1430.91 8798.83,-1854.13 8800.32,-1995.01"/>
<polygon fill="black" stroke="black" points="8796.81,-1994.73 8800.41,-2004.7 8803.81,-1994.66 8796.81,-1994.73"/>
<text text-anchor="middle" x="7507.73" y="-1320.46" font-family="Times,serif" font-size="14.00">No</text>
</g>
<!-- 45191 -->
<g id="node15" class="node">
<title>45191</title>
<ellipse fill="none" stroke="black" cx="6575.39" cy="-1199.37" rx="102.53" ry="102.53"/>
<text text-anchor="middle" x="6575.39" y="-1194.32" font-family="Times,serif" font-size="14.00">Date returned to custody</text>
</g>
<!-- 45190&#45;&gt;45191 -->
<g id="edge106" class="edge">
<title>45190&#45;&gt;45191</title>
<path fill="none" stroke="black" d="M6294.52,-1300.84C6346.78,-1297.66 6404.19,-1289.92 6454.86,-1273.37 6463.44,-1270.57 6472.03,-1267.04 6480.45,-1263.04"/>
<polygon fill="black" stroke="black" points="6481.9,-1266.23 6489.28,-1258.63 6478.77,-1259.97 6481.9,-1266.23"/>
<text text-anchor="middle" x="6383.61" y="-1302.52" font-family="Times,serif" font-size="14.00">Yes</text>
</g>
<!-- 45190&#45;&gt;45191 -->
<g id="edge107" class="edge">
<title>45190&#45;&gt;45191</title>
<path fill="none" stroke="#dddddd" d="M6289.56,-1257.79C6297.26,-1256.07 6304.89,-1254.43 6312.36,-1252.87 6375.21,-1239.84 6392.01,-1242.42 6454.86,-1229.37 6458.05,-1228.71 6461.29,-1228.02 6464.55,-1227.31"/>
<polygon fill="#dddddd" stroke="#dddddd" points="6465.25,-1230.74 6474.24,-1225.15 6463.72,-1223.91 6465.25,-1230.74"/>
<text text-anchor="middle" x="6383.61" y="-1256.07" font-family="Times,serif" font-size="14.00">No</text>
</g>
<!-- 45190&#45;&gt;45191 -->
<g id="edge108" class="edge">
<title>45190&#45;&gt;45191</title>
<path fill="none" stroke="black" d="M6275.18,-1220.64C6287.53,-1216.02 6300.01,-1211.99 6312.36,-1208.87 6360.27,-1196.78 6414.66,-1193.24 6461.43,-1193.16"/>
<polygon fill="black" stroke="black" points="6461.3,-1196.66 6471.32,-1193.21 6461.33,-1189.66 6461.3,-1196.66"/>
<text text-anchor="middle" x="6383.61" y="-1212.07" font-family="Times,serif" font-size="14.00">Other: Please enter details</text>
</g>
<!-- 45191&#45;&gt;END_NODE -->
<g id="edge110" class="edge">
<title>45191&#45;&gt;END_NODE</title>
<path fill="none" stroke="#dddddd" d="M6673,-1231.73C6724.4,-1247.39 6789.03,-1264.66 6848.17,-1273.37 6952.73,-1288.78 8673.44,-1251.31 8749.8,-1324.37 8798.23,-1370.71 8801.18,-1844.87 8800.88,-1995.03"/>
<polygon fill="#dddddd" stroke="#dddddd" points="8797.38,-1994.57 8800.86,-2004.58 8804.38,-1994.59 8797.38,-1994.57"/>
<text text-anchor="middle" x="7802.7" y="-1281.38" font-family="Times,serif" font-size="14.00">Date:</text>
</g>
<!-- 45192 -->
<g id="node16" class="node">
<title>45192</title>
<ellipse fill="none" stroke="black" cx="7121.14" cy="-991.37" rx="272.96" ry="272.96"/>
<text text-anchor="middle" x="7121.14" y="-986.32" font-family="Times,serif" font-size="14.00">Was person charged with committing a further offence while at large?</text>
</g>
<!-- 45191&#45;&gt;45192 -->
<g id="edge111" class="edge">
<title>45191&#45;&gt;45192</title>
<path fill="none" stroke="black" d="M6671.73,-1162.91C6723.19,-1143.22 6789.52,-1117.85 6855.3,-1092.68"/>
<polygon fill="black" stroke="black" points="6856.35,-1096.03 6864.44,-1089.19 6853.85,-1089.49 6856.35,-1096.03"/>
<text text-anchor="middle" x="6763.05" y="-1152.31" font-family="Times,serif" font-size="14.00">Date:</text>
</g>
<!-- 45192&#45;&gt;END_NODE -->
<g id="edge112" class="edge">
<title>45192&#45;&gt;END_NODE</title>
<path fill="none" stroke="#dddddd" d="M7322.15,-1176.54C7350.74,-1195.25 7381.04,-1211.65 7412.1,-1223.37 7481.71,-1249.65 8696.66,-1234.3 8749.8,-1286.37 8800.43,-1335.99 8801.82,-1839.21 8801.02,-1994.79"/>
<polygon fill="#dddddd" stroke="#dddddd" points="8797.52,-1994.7 8800.97,-2004.72 8804.52,-1994.74 8797.52,-1994.7"/>
<text text-anchor="middle" x="8097.68" y="-1250.45" font-family="Times,serif" font-size="14.00">Yes: Please enter details of offence</text>
</g>
<!-- 45192&#45;&gt;END_NODE -->
<g id="edge113" class="edge">
<title>45192&#45;&gt;END_NODE</title>
<path fill="none" stroke="#dddddd" d="M7368.52,-1107.92C7447.57,-1140.29 7536.62,-1171.67 7621.35,-1190.37 7744.02,-1217.46 8662.46,-1169.09 8749.8,-1259.37 8801.01,-1312.31 8801.95,-1835.83 8801.04,-1994.82"/>
<polygon fill="#dddddd" stroke="#dddddd" points="8797.55,-1994.52 8800.98,-2004.55 8804.55,-1994.57 8797.55,-1994.52"/>
<text text-anchor="middle" x="8097.68" y="-1204.26" font-family="Times,serif" font-size="14.00">No</text>
</g>
<!-- 45193 -->
<g id="node17" class="node">
<title>45193</title>
<ellipse fill="none" stroke="black" cx="7802.7" cy="-1000.37" rx="181.35" ry="181.35"/>
<text text-anchor="middle" x="7802.7" y="-995.32" font-family="Times,serif" font-size="14.00">To which establishment was person returned?</text>
</g>
<!-- 45192&#45;&gt;45193 -->
<g id="edge114" class="edge">
<title>45192&#45;&gt;45193</title>
<path fill="none" stroke="black" d="M7394.14,-994.98C7466.26,-995.93 7542.64,-996.94 7609.53,-997.83"/>
<polygon fill="black" stroke="black" points="7609.49,-1001.33 7619.53,-997.96 7609.58,-994.33 7609.49,-1001.33"/>
<text text-anchor="middle" x="7507.73" y="-1000.92" font-family="Times,serif" font-size="14.00">Yes: Please enter details of offence</text>
</g>
<!-- 45192&#45;&gt;45193 -->
<g id="edge115" class="edge">
<title>45192&#45;&gt;45193</title>
<path fill="none" stroke="black" d="M7393.95,-972.74C7462.34,-970.61 7535.57,-970.54 7603.35,-974.87 7606.02,-975.05 7608.71,-975.23 7611.41,-975.42"/>
<polygon fill="black" stroke="black" points="7610.85,-978.89 7621.09,-976.18 7611.39,-971.91 7610.85,-978.89"/>
<text text-anchor="middle" x="7507.73" y="-978.07" font-family="Times,serif" font-size="14.00">No</text>
</g>
<!-- 45193&#45;&gt;END_NODE -->
<g id="edge116" class="edge">
<title>45193&#45;&gt;END_NODE</title>
<path fill="none" stroke="#dddddd" d="M7969.34,-1072.88C8042.25,-1101.96 8129.72,-1133.1 8211.3,-1152.37 8269.87,-1166.21 8708.25,-1166.84 8749.8,-1210.37 8777.05,-1238.93 8794.86,-1824.72 8799.47,-1994.58"/>
<polygon fill="#dddddd" stroke="#dddddd" points="8795.97,-1994.67 8799.74,-2004.57 8802.97,-1994.48 8795.97,-1994.67"/>
<text text-anchor="middle" x="8404.43" y="-1181.57" font-family="Times,serif" font-size="14.00">Enter details:</text>
</g>
<!-- 45235 -->
<g id="node18" class="node">
<title>45235</title>
<ellipse fill="none" stroke="black" cx="8404.43" cy="-1026.37" rx="117.37" ry="117.37"/>
<text text-anchor="middle" x="8404.43" y="-1021.32" font-family="Times,serif" font-size="14.00">How long was person UAL?</text>
</g>
<!-- 45193&#45;&gt;45235 -->
<g id="edge117" class="edge">
<title>45193&#45;&gt;45235</title>
<path fill="none" stroke="black" d="M7984.05,-1008.19C8077.97,-1012.27 8190.6,-1017.15 8275.48,-1020.83"/>
<polygon fill="black" stroke="black" points="8275.08,-1024.31 8285.23,-1021.25 8275.39,-1017.32 8275.08,-1024.31"/>
<text text-anchor="middle" x="8097.68" y="-1020.42" font-family="Times,serif" font-size="14.00">Enter details:</text>
</g>
<!-- 45235&#45;&gt;END_NODE -->
<g id="edge124" class="edge">
<title>45235&#45;&gt;END_NODE</title>
<path fill="none" stroke="black" d="M8508.49,-1081.64C8541.89,-1097.71 8579.61,-1113.99 8615.55,-1125.37 8673.29,-1143.67 8709.53,-1103.63 8749.8,-1148.87 8778.17,-1180.75 8795.36,-1817.33 8799.61,-1994.8"/>
<polygon fill="black" stroke="black" points="8796.11,-1994.86 8799.85,-2004.77 8803.11,-1994.69 8796.11,-1994.86"/>
<text text-anchor="middle" x="8682.67" y="-1152.07" font-family="Times,serif" font-size="14.00">Hours</text>
</g>
<!-- 45235&#45;&gt;END_NODE -->
<g id="edge125" class="edge">
<title>45235&#45;&gt;END_NODE</title>
<path fill="none" stroke="black" d="M8517.08,-1060.62C8548.7,-1069.53 8583.3,-1078.54 8615.55,-1085.37 8645.04,-1091.63 8729.46,-1082.62 8749.8,-1104.87 8780.13,-1138.06 8796.01,-1812.01 8799.77,-1994.92"/>
<polygon fill="black" stroke="black" points="8796.27,-1994.8 8799.97,-2004.73 8803.27,-1994.66 8796.27,-1994.8"/>
<text text-anchor="middle" x="8682.67" y="-1108.07" font-family="Times,serif" font-size="14.00">Days</text>
</g>
<!-- 45235&#45;&gt;END_NODE -->
<g id="edge126" class="edge">
<title>45235&#45;&gt;END_NODE</title>
<path fill="none" stroke="black" d="M8521.6,-1037.6C8620,-1047.37 8745.8,-1060.63 8749.8,-1064.87 8782.06,-1099.1 8796.6,-1806.71 8799.9,-1994.8"/>
<polygon fill="black" stroke="black" points="8796.4,-1994.72 8800.07,-2004.66 8803.4,-1994.6 8796.4,-1994.72"/>
<text text-anchor="middle" x="8682.67" y="-1068.07" font-family="Times,serif" font-size="14.00">Weeks</text>
</g>
<!-- 45235&#45;&gt;END_NODE -->
<g id="edge127" class="edge">
<title>45235&#45;&gt;END_NODE</title>
<path fill="none" stroke="black" d="M8521.61,-1018.8C8615.03,-1013.97 8733.35,-1011.21 8749.8,-1026.87 8785.29,-1060.68 8797.51,-1801.92 8800.1,-1994.82"/>
<polygon fill="black" stroke="black" points="8796.59,-1994.74 8800.23,-2004.69 8803.59,-1994.65 8796.59,-1994.74"/>
<text text-anchor="middle" x="8682.67" y="-1030.07" font-family="Times,serif" font-size="14.00">Months</text>
</g>
<!-- 45235&#45;&gt;END_NODE -->
<g id="edge128" class="edge">
<title>45235&#45;&gt;END_NODE</title>
<path fill="none" stroke="black" d="M8511.95,-978.49C8588.17,-952.31 8687.85,-935.87 8749.8,-994.87 8786.51,-1029.84 8797.86,-1798.52 8800.17,-1994.98"/>
<polygon fill="black" stroke="black" points="8796.67,-1994.82 8800.28,-2004.78 8803.67,-1994.74 8796.67,-1994.82"/>
<text text-anchor="middle" x="8682.67" y="-998.07" font-family="Times,serif" font-size="14.00">Other</text>
</g>
<!-- 45194 -->
<g id="node19" class="node">
<title>45194</title>
<ellipse fill="#dddddd" stroke="#dddddd" cx="8404.43" cy="-370.37" rx="117.37" ry="117.37"/>
<text text-anchor="middle" x="8404.43" y="-365.32" font-family="Times,serif" font-size="14.00">How long was person UAL?</text>
</g>
<!-- 45194&#45;&gt;END_NODE -->
<g id="edge118" class="edge">
<title>45194&#45;&gt;END_NODE</title>
<path fill="none" stroke="#dddddd" d="M8510.87,-420.4C8594.27,-466.67 8704.03,-544.25 8749.8,-649.87 8804.24,-775.49 8802.14,-1769 8800.95,-1994.82"/>
<polygon fill="#dddddd" stroke="#dddddd" points="8797.45,-1994.66 8800.89,-2004.68 8804.45,-1994.7 8797.45,-1994.66"/>
<text text-anchor="middle" x="8682.67" y="-653.07" font-family="Times,serif" font-size="14.00">Enter value</text>
</g>
<!-- 45195 -->
<g id="node20" class="node">
<title>45195</title>
<ellipse fill="#dddddd" stroke="#dddddd" cx="8404.43" cy="-117.37" rx="117.37" ry="117.37"/>
<text text-anchor="middle" x="8404.43" y="-112.32" font-family="Times,serif" font-size="14.00">How long was person UAL?</text>
</g>
<!-- 45195&#45;&gt;END_NODE -->
<g id="edge119" class="edge">
<title>45195&#45;&gt;END_NODE</title>
<path fill="none" stroke="#dddddd" d="M8510.51,-168.34C8542.34,-188.21 8574.84,-213.67 8597.55,-244.37 8614.36,-267.1 8602.5,-280.3 8615.55,-305.37 8659.75,-390.31 8716.73,-384.01 8749.8,-473.87 8803.48,-619.76 8801.85,-1753.32 8800.88,-1995.1"/>
<polygon fill="#dddddd" stroke="#dddddd" points="8797.38,-1994.73 8800.84,-2004.74 8804.38,-1994.76 8797.38,-1994.73"/>
<text text-anchor="middle" x="8682.67" y="-477.07" font-family="Times,serif" font-size="14.00">Hours</text>
</g>
<!-- 45195&#45;&gt;END_NODE -->
<g id="edge120" class="edge">
<title>45195&#45;&gt;END_NODE</title>
<path fill="none" stroke="#dddddd" d="M8503.66,-180.22C8534.09,-200.25 8567.5,-222.81 8597.55,-244.37 8605.78,-250.28 8606.33,-254.17 8615.55,-258.37 8670.88,-283.62 8710.51,-238.45 8749.8,-284.87 8806.67,-352.06 8802.32,-1726.68 8800.92,-1995.14"/>
<polygon fill="#dddddd" stroke="#dddddd" points="8797.42,-1994.84 8800.87,-2004.86 8804.42,-1994.88 8797.42,-1994.84"/>
<text text-anchor="middle" x="8682.67" y="-288.07" font-family="Times,serif" font-size="14.00">Days</text>
</g>
<!-- 45195&#45;&gt;END_NODE -->
<g id="edge121" class="edge">
<title>45195&#45;&gt;END_NODE</title>
<path fill="none" stroke="#dddddd" d="M8511.62,-165.71C8544.52,-179.63 8581.17,-194.09 8615.55,-205.37 8673.88,-224.51 8711.16,-190.17 8749.8,-237.87 8806.74,-308.18 8802.31,-1721.53 8800.92,-1994.84"/>
<polygon fill="#dddddd" stroke="#dddddd" points="8797.42,-1994.73 8800.87,-2004.75 8804.42,-1994.77 8797.42,-1994.73"/>
<text text-anchor="middle" x="8682.67" y="-241.07" font-family="Times,serif" font-size="14.00">Weeks</text>
</g>
<!-- 45195&#45;&gt;END_NODE -->
<g id="edge122" class="edge">
<title>45195&#45;&gt;END_NODE</title>
<path fill="none" stroke="#dddddd" d="M8520.96,-132.79C8615.07,-146.52 8734.77,-167.12 8749.8,-184.87 8779.96,-220.51 8797.2,-1712.83 8800.19,-1994.71"/>
<polygon fill="#dddddd" stroke="#dddddd" points="8796.68,-1994.62 8800.29,-2004.58 8803.68,-1994.54 8796.68,-1994.62"/>
<text text-anchor="middle" x="8682.67" y="-188.07" font-family="Times,serif" font-size="14.00">Months</text>
</g>
<!-- 45195&#45;&gt;END_NODE -->
<g id="edge123" class="edge">
<title>45195&#45;&gt;END_NODE</title>
<path fill="none" stroke="#dddddd" d="M8517.48,-85.27C8593.6,-70.96 8690.81,-68.65 8749.8,-127.87 8783.83,-162.04 8797.97,-1708.72 8800.3,-1995.04"/>
<polygon fill="#dddddd" stroke="#dddddd" points="8796.8,-1994.73 8800.38,-2004.7 8803.8,-1994.67 8796.8,-1994.73"/>
<text text-anchor="middle" x="8682.67" y="-131.07" font-family="Times,serif" font-size="14.00">Other</text>
</g>
</g>
</svg>
