<?xml version="1.0" encoding="UTF-8" standalone="no"?>
<!DOCTYPE svg PUBLIC "-//W3C//DTD SVG 1.1//EN"
 "http://www.w3.org/Graphics/SVG/1.1/DTD/svg11.dtd">
<!-- Generated by graphviz version 12.1.1 (20240910.0053)
 -->
<!-- Title: TOOL_LOSS Pages: 1 -->
<svg width="9043pt" height="663pt"
 viewBox="0.00 0.00 9042.85 663.35" xmlns="http://www.w3.org/2000/svg" xmlns:xlink="http://www.w3.org/1999/xlink">
<g id="graph0" class="graph" transform="scale(1 1) rotate(0) translate(4 659.35)">
<title>TOOL_LOSS</title>
<polygon fill="white" stroke="none" points="-4,4 -4,-659.35 9038.85,-659.35 9038.85,4 -4,4"/>
<!-- START_NODE -->
<g id="node1" class="node">
<title>START_NODE</title>
</g>
<!-- 45142 -->
<g id="node2" class="node">
<title>45142</title>
<ellipse fill="none" stroke="black" cx="337.08" cy="-431.52" rx="223.83" ry="223.83"/>
<text text-anchor="middle" x="337.08" y="-426.47" font-family="Times,serif" font-size="14.00">WERE THE POLICE INFORMED OF THE INCIDENT</text>
</g>
<!-- START_NODE&#45;&gt;45142 -->
<g id="edge1" class="edge">
<title>START_NODE&#45;&gt;45142</title>
<path fill="none" stroke="black" d="M53.74,-431.52C66.37,-431.52 82.91,-431.52 101.66,-431.52"/>
<polygon fill="black" stroke="black" points="101.43,-435.02 111.43,-431.52 101.43,-428.02 101.43,-435.02"/>
<text text-anchor="middle" x="83.62" y="-434.72" font-family="Times,serif" font-size="14.00">start</text>
</g>
<!-- 44489 -->
<g id="node12" class="node">
<title>44489</title>
<ellipse fill="none" stroke="black" cx="1531.47" cy="-315.52" rx="296.51" ry="296.51"/>
<text text-anchor="middle" x="1531.47" y="-310.47" font-family="Times,serif" font-size="14.00">IS THE INCIDENT THE SUBJECT OF AN INTERNAL INVESTIGATION</text>
</g>
<!-- 45142&#45;&gt;44489 -->
<g id="edge54" class="edge">
<title>45142&#45;&gt;44489</title>
<path fill="none" stroke="black" d="M536.36,-534.17C564.61,-545.02 593.8,-554.34 622.41,-560.52 861.79,-612.29 939.54,-633.07 1173.46,-560.52 1213.83,-548 1253.7,-529.16 1291.33,-507.38"/>
<polygon fill="black" stroke="black" points="1292.69,-510.63 1299.54,-502.55 1289.15,-504.6 1292.69,-510.63"/>
<text text-anchor="middle" x="897.93" y="-610.66" font-family="Times,serif" font-size="14.00">NO</text>
</g>
<!-- 44808 -->
<g id="node18" class="node">
<title>44808</title>
<ellipse fill="none" stroke="black" cx="897.93" cy="-275.52" rx="275.52" ry="275.52"/>
<text text-anchor="middle" x="897.93" y="-270.47" font-family="Times,serif" font-size="14.00">IS THE INCIDENT THE SUBJECT OF A POLICE INVESTIGATION</text>
</g>
<!-- 45142&#45;&gt;44808 -->
<g id="edge53" class="edge">
<title>45142&#45;&gt;44808</title>
<path fill="none" stroke="black" d="M552.95,-371.54C575.39,-365.28 598.42,-358.85 621.42,-352.43"/>
<polygon fill="black" stroke="black" points="622.19,-355.85 630.88,-349.79 620.31,-349.11 622.19,-355.85"/>
<text text-anchor="middle" x="591.66" y="-366.06" font-family="Times,serif" font-size="14.00">YES</text>
</g>
<!-- END_NODE -->
<g id="node3" class="node">
<title>END_NODE</title>
<ellipse fill="none" stroke="black" cx="9001" cy="-264.52" rx="29.86" ry="29.86"/>
<ellipse fill="none" stroke="black" cx="9001" cy="-264.52" rx="33.86" ry="33.86"/>
<text text-anchor="middle" x="9001" y="-259.47" font-family="Times,serif" font-size="14.00">END</text>
</g>
<!-- 44195 -->
<g id="node4" class="node">
<title>44195</title>
<ellipse fill="none" stroke="black" cx="6684.25" cy="-315.52" rx="228.95" ry="228.95"/>
<text text-anchor="middle" x="6684.25" y="-310.47" font-family="Times,serif" font-size="14.00">WHAT ACTION WAS TAKEN TO FIND THESE ITEMS</text>
</g>
<!-- 44565 -->
<g id="node5" class="node">
<title>44565</title>
<ellipse fill="none" stroke="black" cx="7268" cy="-315.52" rx="135.8" ry="135.8"/>
<text text-anchor="middle" x="7268" y="-310.47" font-family="Times,serif" font-size="14.00">HAS THE ITEM BEEN FOUND</text>
</g>
<!-- 44195&#45;&gt;44565 -->
<g id="edge2" class="edge">
<title>44195&#45;&gt;44565</title>
<path fill="none" stroke="black" d="M6912.95,-333.59C6977.98,-336.45 7048.91,-337.36 7114.2,-333.52 7116.6,-333.38 7119.01,-333.23 7121.45,-333.07"/>
<polygon fill="black" stroke="black" points="7121.7,-336.56 7131.41,-332.33 7121.18,-329.58 7121.7,-336.56"/>
<text text-anchor="middle" x="7022.7" y="-339.28" font-family="Times,serif" font-size="14.00">FULL CLOSE DOWN SEARCH</text>
</g>
<!-- 44195&#45;&gt;44565 -->
<g id="edge3" class="edge">
<title>44195&#45;&gt;44565</title>
<path fill="none" stroke="black" d="M6913.43,-313.01C6978.31,-312.61 7049.04,-312.49 7114.2,-313.02 7116.3,-313.04 7118.41,-313.06 7120.54,-313.08"/>
<polygon fill="black" stroke="black" points="7120.48,-316.58 7130.51,-313.18 7120.55,-309.58 7120.48,-316.58"/>
<text text-anchor="middle" x="7022.7" y="-316.22" font-family="Times,serif" font-size="14.00">PARTIAL SEARCH</text>
</g>
<!-- 44195&#45;&gt;44565 -->
<g id="edge4" class="edge">
<title>44195&#45;&gt;44565</title>
<path fill="none" stroke="black" d="M6912.44,-291.98C6977.62,-288.23 7048.76,-287.02 7114.2,-292.02 7116.91,-292.23 7119.65,-292.46 7122.4,-292.7"/>
<polygon fill="black" stroke="black" points="7122.01,-296.18 7132.3,-293.67 7122.68,-289.22 7122.01,-296.18"/>
<text text-anchor="middle" x="7022.7" y="-295.22" font-family="Times,serif" font-size="14.00">OTHER</text>
</g>
<!-- 44477 -->
<g id="node10" class="node">
<title>44477</title>
<ellipse fill="none" stroke="black" cx="8134.31" cy="-264.52" rx="185.96" ry="185.96"/>
<text text-anchor="middle" x="8134.31" y="-259.47" font-family="Times,serif" font-size="14.00">HOW ARE TOOLS/IMPLEMENTS STORED</text>
</g>
<!-- 44565&#45;&gt;44477 -->
<g id="edge21" class="edge">
<title>44565&#45;&gt;44477</title>
<path fill="none" stroke="black" d="M7395.6,-363.21C7418.5,-369.99 7442.38,-375.88 7465.3,-379.52 7670.47,-412.12 7731.5,-392.63 7930.35,-332.52 7935.82,-330.87 7941.37,-329.17 7946.97,-327.43"/>
<polygon fill="black" stroke="black" points="7947.83,-330.83 7956.33,-324.5 7945.74,-324.15 7947.83,-330.83"/>
<text text-anchor="middle" x="7610.83" y="-398.4" font-family="Times,serif" font-size="14.00">NO</text>
</g>
<!-- 45169 -->
<g id="node14" class="node">
<title>45169</title>
<ellipse fill="none" stroke="black" cx="7610.83" cy="-224.52" rx="145.52" ry="145.52"/>
<text text-anchor="middle" x="7610.83" y="-219.47" font-family="Times,serif" font-size="14.00">WHERE WAS THE ITEM FOUND</text>
</g>
<!-- 44565&#45;&gt;45169 -->
<g id="edge20" class="edge">
<title>44565&#45;&gt;45169</title>
<path fill="none" stroke="black" d="M7399.31,-280.73C7418.82,-275.52 7439.06,-270.12 7458.95,-264.81"/>
<polygon fill="black" stroke="black" points="7459.73,-268.22 7468.49,-262.26 7457.92,-261.46 7459.73,-268.22"/>
<text text-anchor="middle" x="7434.55" y="-275.95" font-family="Times,serif" font-size="14.00">YES</text>
</g>
<!-- 44372 -->
<g id="node6" class="node">
<title>44372</title>
<ellipse fill="none" stroke="black" cx="5497.27" cy="-315.52" rx="180.84" ry="180.84"/>
<text text-anchor="middle" x="5497.27" y="-310.47" font-family="Times,serif" font-size="14.00">IS THE MISSING ITEM THOUGHT TO BE</text>
</g>
<!-- 44445 -->
<g id="node7" class="node">
<title>44445</title>
<ellipse fill="none" stroke="black" cx="6082.46" cy="-315.52" rx="311.35" ry="311.35"/>
<text text-anchor="middle" x="6082.46" y="-310.47" font-family="Times,serif" font-size="14.00">IS THE MISSING ITEM THOUGHT TO BE IN A PRISONER&#39;S POSSESSION</text>
</g>
<!-- 44372&#45;&gt;44445 -->
<g id="edge5" class="edge">
<title>44372&#45;&gt;44445</title>
<path fill="none" stroke="black" d="M5677.76,-332.57C5683.95,-332.93 5690.08,-333.25 5696.11,-333.52 5716.9,-334.47 5738.33,-334.92 5759.92,-334.98"/>
<polygon fill="black" stroke="black" points="5759.72,-338.48 5769.72,-334.98 5759.72,-331.48 5759.72,-338.48"/>
<text text-anchor="middle" x="5724.61" y="-338.11" font-family="Times,serif" font-size="14.00">LOST</text>
</g>
<!-- 44372&#45;&gt;44445 -->
<g id="edge6" class="edge">
<title>44372&#45;&gt;44445</title>
<path fill="none" stroke="black" d="M5678.34,-313.15C5684.33,-313.1 5690.27,-313.06 5696.11,-313.02 5716.76,-312.89 5738.03,-312.83 5759.48,-312.82"/>
<polygon fill="black" stroke="black" points="5759.19,-316.32 5769.19,-312.82 5759.19,-309.32 5759.19,-316.32"/>
<text text-anchor="middle" x="5724.61" y="-316.22" font-family="Times,serif" font-size="14.00">MISLAID</text>
</g>
<!-- 44372&#45;&gt;44445 -->
<g id="edge7" class="edge">
<title>44372&#45;&gt;44445</title>
<path fill="none" stroke="black" d="M5677.19,-293.31C5683.57,-292.82 5689.89,-292.39 5696.11,-292.02 5717.04,-290.78 5738.62,-290.2 5760.37,-290.13"/>
<polygon fill="black" stroke="black" points="5760.24,-293.63 5770.24,-290.13 5760.25,-286.63 5760.24,-293.63"/>
<text text-anchor="middle" x="5724.61" y="-295.22" font-family="Times,serif" font-size="14.00">STOLEN</text>
</g>
<!-- 44445&#45;&gt;44195 -->
<g id="edge10" class="edge">
<title>44445&#45;&gt;44195</title>
<path fill="none" stroke="black" d="M6393.9,-315.52C6410.62,-315.52 6427.3,-315.52 6443.72,-315.52"/>
<polygon fill="black" stroke="black" points="6443.54,-319.02 6453.54,-315.52 6443.54,-312.02 6443.54,-319.02"/>
<text text-anchor="middle" x="6424.56" y="-318.72" font-family="Times,serif" font-size="14.00">YES</text>
</g>
<!-- 44445&#45;&gt;44195 -->
<g id="edge11" class="edge">
<title>44445&#45;&gt;44195</title>
<path fill="none" stroke="black" d="M6393.15,-294.02C6408.08,-294.1 6422.86,-294.42 6437.31,-295.02 6439.69,-295.12 6442.08,-295.23 6444.49,-295.34"/>
<polygon fill="black" stroke="black" points="6444.16,-298.82 6454.32,-295.81 6444.5,-291.83 6444.16,-298.82"/>
<text text-anchor="middle" x="6424.56" y="-298.22" font-family="Times,serif" font-size="14.00">NO</text>
</g>
<!-- 44412 -->
<g id="node8" class="node">
<title>44412</title>
<ellipse fill="none" stroke="black" cx="3913.58" cy="-315.52" rx="267.33" ry="267.33"/>
<text text-anchor="middle" x="3913.58" y="-310.47" font-family="Times,serif" font-size="14.00">HAS THE PRISON SERVICE PRESS OFFICE BEEN INFORMED</text>
</g>
<!-- 44593 -->
<g id="node9" class="node">
<title>44593</title>
<ellipse fill="none" stroke="black" cx="4430.42" cy="-315.52" rx="188" ry="188"/>
<text text-anchor="middle" x="4430.42" y="-310.47" font-family="Times,serif" font-size="14.00">WHAT TOOL OR IMPLEMENT IS MISSING</text>
</g>
<!-- 44412&#45;&gt;44593 -->
<g id="edge8" class="edge">
<title>44412&#45;&gt;44593</title>
<path fill="none" stroke="black" d="M4181.05,-315.52C4197.8,-315.52 4214.49,-315.52 4230.85,-315.52"/>
<polygon fill="black" stroke="black" points="4230.61,-319.02 4240.61,-315.52 4230.61,-312.02 4230.61,-319.02"/>
<text text-anchor="middle" x="4211.67" y="-318.72" font-family="Times,serif" font-size="14.00">YES</text>
</g>
<!-- 44412&#45;&gt;44593 -->
<g id="edge9" class="edge">
<title>44412&#45;&gt;44593</title>
<path fill="none" stroke="black" d="M4180.32,-293.92C4195.24,-293.96 4210.01,-294.31 4224.42,-295.02 4226.82,-295.14 4229.25,-295.27 4231.68,-295.41"/>
<polygon fill="black" stroke="black" points="4231.46,-298.9 4241.65,-296 4231.88,-291.91 4231.46,-298.9"/>
<text text-anchor="middle" x="4211.67" y="-298.22" font-family="Times,serif" font-size="14.00">NO</text>
</g>
<!-- 44950 -->
<g id="node15" class="node">
<title>44950</title>
<ellipse fill="none" stroke="black" cx="4931.05" cy="-315.52" rx="171.63" ry="171.63"/>
<text text-anchor="middle" x="4931.05" y="-310.47" font-family="Times,serif" font-size="14.00">WHERE WAS THE TOOLS LOST FROM</text>
</g>
<!-- 44593&#45;&gt;44950 -->
<g id="edge22" class="edge">
<title>44593&#45;&gt;44950</title>
<path fill="none" stroke="black" d="M4551.39,-459.63C4577,-481.62 4605.69,-501.1 4636.42,-513.52 4679.69,-531.01 4698.53,-531.9 4741.42,-513.52 4770.02,-501.27 4796.33,-482.32 4819.66,-460.9"/>
<polygon fill="black" stroke="black" points="4821.82,-463.68 4826.69,-454.27 4817.01,-458.59 4821.82,-463.68"/>
<text text-anchor="middle" x="4688.92" y="-530.17" font-family="Times,serif" font-size="14.00">KNIFE</text>
</g>
<!-- 44593&#45;&gt;44950 -->
<g id="edge23" class="edge">
<title>44593&#45;&gt;44950</title>
<path fill="none" stroke="black" d="M4570.59,-441.16C4591.47,-454.36 4613.67,-465.77 4636.42,-473.52 4680.6,-488.57 4697.57,-489.47 4741.42,-473.52 4761.77,-466.13 4781.46,-455.46 4799.95,-443.12"/>
<polygon fill="black" stroke="black" points="4801.72,-446.15 4807.97,-437.59 4797.75,-440.39 4801.72,-446.15"/>
<text text-anchor="middle" x="4688.92" y="-488.34" font-family="Times,serif" font-size="14.00">HACKSAW</text>
</g>
<!-- 44593&#45;&gt;44950 -->
<g id="edge24" class="edge">
<title>44593&#45;&gt;44950</title>
<path fill="none" stroke="black" d="M4589.37,-416.85C4604.84,-423.56 4620.65,-429.31 4636.42,-433.52 4681.51,-445.57 4696.57,-446.4 4741.42,-433.52 4754.46,-429.78 4767.47,-424.85 4780.22,-419.12"/>
<polygon fill="black" stroke="black" points="4781.43,-422.41 4789,-415 4778.46,-416.07 4781.43,-422.41"/>
<text text-anchor="middle" x="4688.92" y="-446.07" font-family="Times,serif" font-size="14.00">OTHER SAW</text>
</g>
<!-- 44593&#45;&gt;44950 -->
<g id="edge25" class="edge">
<title>44593&#45;&gt;44950</title>
<path fill="none" stroke="black" d="M4604.93,-386.42C4615.48,-389.2 4626.03,-391.61 4636.42,-393.52 4682.32,-401.96 4695.65,-402.61 4741.42,-393.52 4748.58,-392.1 4755.8,-390.41 4763.04,-388.49"/>
<polygon fill="black" stroke="black" points="4763.88,-391.89 4772.57,-385.82 4761.99,-385.15 4763.88,-391.89"/>
<text text-anchor="middle" x="4688.92" y="-403.3" font-family="Times,serif" font-size="14.00">SPADE</text>
</g>
<!-- 44593&#45;&gt;44950 -->
<g id="edge26" class="edge">
<title>44593&#45;&gt;44950</title>
<path fill="none" stroke="black" d="M4615.27,-351.57C4656.73,-355.94 4700.55,-357.6 4741.42,-353.52 4744.7,-353.2 4748,-352.84 4751.32,-352.45"/>
<polygon fill="black" stroke="black" points="4751.68,-355.94 4761.17,-351.23 4750.81,-348.99 4751.68,-355.94"/>
<text text-anchor="middle" x="4688.92" y="-359.05" font-family="Times,serif" font-size="14.00">AXE</text>
</g>
<!-- 44593&#45;&gt;44950 -->
<g id="edge27" class="edge">
<title>44593&#45;&gt;44950</title>
<path fill="none" stroke="black" d="M4618.87,-315.52C4660.99,-315.52 4705.63,-315.52 4747.55,-315.52"/>
<polygon fill="black" stroke="black" points="4747.5,-319.02 4757.5,-315.52 4747.5,-312.02 4747.5,-319.02"/>
<text text-anchor="middle" x="4688.92" y="-318.72" font-family="Times,serif" font-size="14.00">PICKAXE</text>
</g>
<!-- 44593&#45;&gt;44950 -->
<g id="edge28" class="edge">
<title>44593&#45;&gt;44950</title>
<path fill="none" stroke="black" d="M4617.85,-295.92C4658.56,-293.67 4701.43,-292.86 4741.42,-295.02 4743.93,-295.16 4746.45,-295.3 4748.99,-295.46"/>
<polygon fill="black" stroke="black" points="4748.48,-298.93 4758.69,-296.1 4748.94,-291.95 4748.48,-298.93"/>
<text text-anchor="middle" x="4688.92" y="-298.22" font-family="Times,serif" font-size="14.00">PLIERS</text>
</g>
<!-- 44593&#45;&gt;44950 -->
<g id="edge29" class="edge">
<title>44593&#45;&gt;44950</title>
<path fill="none" stroke="black" d="M4614.41,-275.31C4656.11,-270.36 4700.26,-268.44 4741.42,-273.02 4745.09,-273.43 4748.8,-273.88 4752.52,-274.37"/>
<polygon fill="black" stroke="black" points="4751.87,-277.82 4762.26,-275.75 4752.85,-270.89 4751.87,-277.82"/>
<text text-anchor="middle" x="4688.92" y="-276.22" font-family="Times,serif" font-size="14.00">SCREWDRIVER</text>
</g>
<!-- 44593&#45;&gt;44950 -->
<g id="edge30" class="edge">
<title>44593&#45;&gt;44950</title>
<path fill="none" stroke="black" d="M4608.96,-255.17C4618.19,-253.17 4627.38,-251.43 4636.42,-250.02 4682.53,-242.84 4695.41,-242.26 4741.42,-250.02 4747.1,-250.98 4752.83,-252.09 4758.59,-253.33"/>
<polygon fill="black" stroke="black" points="4757.69,-256.71 4768.22,-255.52 4759.25,-249.88 4757.69,-256.71"/>
<text text-anchor="middle" x="4688.92" y="-253.22" font-family="Times,serif" font-size="14.00">WIRE CUTTERS</text>
</g>
<!-- 44593&#45;&gt;44950 -->
<g id="edge31" class="edge">
<title>44593&#45;&gt;44950</title>
<path fill="none" stroke="black" d="M4600.17,-233.74C4612.26,-229.9 4624.42,-226.58 4636.42,-224.02 4682.07,-214.3 4695.94,-213.57 4741.42,-224.02 4750.31,-226.07 4759.27,-228.59 4768.2,-231.47"/>
<polygon fill="black" stroke="black" points="4767.03,-234.77 4777.63,-234.67 4769.29,-228.14 4767.03,-234.77"/>
<text text-anchor="middle" x="4688.92" y="-227.22" font-family="Times,serif" font-size="14.00">BOLT CROPPERS</text>
</g>
<!-- 44593&#45;&gt;44950 -->
<g id="edge32" class="edge">
<title>44593&#45;&gt;44950</title>
<path fill="none" stroke="black" d="M4588.71,-213.17C4604.38,-206.27 4620.42,-200.35 4636.42,-196.02 4681.48,-183.85 4696.61,-183.02 4741.42,-196.02 4754.64,-199.86 4767.83,-204.93 4780.73,-210.82"/>
<polygon fill="black" stroke="black" points="4779.11,-213.92 4789.64,-215.06 4782.11,-207.6 4779.11,-213.92"/>
<text text-anchor="middle" x="4688.92" y="-199.22" font-family="Times,serif" font-size="14.00">SCISSORS</text>
</g>
<!-- 44593&#45;&gt;44950 -->
<g id="edge33" class="edge">
<title>44593&#45;&gt;44950</title>
<path fill="none" stroke="black" d="M4574.75,-194.51C4594.49,-182.91 4615.27,-172.92 4636.42,-166.02 4680.79,-151.56 4697.35,-150.68 4741.42,-166.02 4760.07,-172.52 4778.26,-181.71 4795.52,-192.37"/>
<polygon fill="black" stroke="black" points="4793.43,-195.19 4803.74,-197.63 4797.2,-189.29 4793.43,-195.19"/>
<text text-anchor="middle" x="4688.92" y="-169.22" font-family="Times,serif" font-size="14.00">OTHER</text>
</g>
<!-- 44509 -->
<g id="node11" class="node">
<title>44509</title>
<ellipse fill="none" stroke="black" cx="8687.95" cy="-264.52" rx="217.69" ry="217.69"/>
<text text-anchor="middle" x="8687.95" y="-259.47" font-family="Times,serif" font-size="14.00">IS THE F78A CHECKING SYSTEM IN OPERATION</text>
</g>
<!-- 44477&#45;&gt;44509 -->
<g id="edge12" class="edge">
<title>44477&#45;&gt;44509</title>
<path fill="none" stroke="black" d="M8317.09,-300.24C8324.23,-301.11 8331.3,-301.88 8338.26,-302.52 8378.25,-306.23 8420.78,-305.51 8461.89,-302.39"/>
<polygon fill="black" stroke="black" points="8461.96,-305.9 8471.65,-301.6 8461.39,-298.92 8461.96,-305.9"/>
<text text-anchor="middle" x="8395.26" y="-308.23" font-family="Times,serif" font-size="14.00">SHADOW BOARD</text>
</g>
<!-- 44477&#45;&gt;44509 -->
<g id="edge13" class="edge">
<title>44477&#45;&gt;44509</title>
<path fill="none" stroke="black" d="M8320.53,-264.52C8364.77,-264.52 8412.51,-264.52 8458.45,-264.52"/>
<polygon fill="black" stroke="black" points="8458.26,-268.02 8468.26,-264.52 8458.26,-261.02 8458.26,-268.02"/>
<text text-anchor="middle" x="8395.26" y="-267.72" font-family="Times,serif" font-size="14.00">SECURE CABINET</text>
</g>
<!-- 44477&#45;&gt;44509 -->
<g id="edge14" class="edge">
<title>44477&#45;&gt;44509</title>
<path fill="none" stroke="black" d="M8319.7,-245.09C8325.96,-244.69 8332.16,-244.33 8338.26,-244.02 8377.43,-242.05 8419.06,-242.38 8459.41,-243.98"/>
<polygon fill="black" stroke="black" points="8459.1,-247.47 8469.24,-244.4 8459.4,-240.48 8459.1,-247.47"/>
<text text-anchor="middle" x="8395.26" y="-247.22" font-family="Times,serif" font-size="14.00">SECURE ROOM</text>
</g>
<!-- 44477&#45;&gt;44509 -->
<g id="edge15" class="edge">
<title>44477&#45;&gt;44509</title>
<path fill="none" stroke="black" d="M8316.21,-224.69C8323.64,-223.67 8331.01,-222.77 8338.26,-222.02 8378.55,-217.85 8421.4,-218.7 8462.77,-222.25"/>
<polygon fill="black" stroke="black" points="8462.33,-225.73 8472.6,-223.16 8462.97,-218.76 8462.33,-225.73"/>
<text text-anchor="middle" x="8395.26" y="-225.22" font-family="Times,serif" font-size="14.00">OTHER</text>
</g>
<!-- 44509&#45;&gt;END_NODE -->
<g id="edge18" class="edge">
<title>44509&#45;&gt;END_NODE</title>
<path fill="none" stroke="black" d="M8905.83,-264.52C8924.16,-264.52 8941.13,-264.52 8955.47,-264.52"/>
<polygon fill="black" stroke="black" points="8955.36,-268.02 8965.36,-264.52 8955.36,-261.02 8955.36,-268.02"/>
<text text-anchor="middle" x="8936.39" y="-267.72" font-family="Times,serif" font-size="14.00">YES</text>
</g>
<!-- 44509&#45;&gt;END_NODE -->
<g id="edge19" class="edge">
<title>44509&#45;&gt;END_NODE</title>
<path fill="none" stroke="black" d="M8905.02,-244.94C8911.3,-244.6 8917.51,-244.29 8923.64,-244.02 8934.97,-243.53 8938.02,-241.87 8949.14,-244.02 8952.49,-244.67 8955.9,-245.54 8959.29,-246.56"/>
<polygon fill="black" stroke="black" points="8957.89,-249.78 8968.49,-249.71 8960.16,-243.16 8957.89,-249.78"/>
<text text-anchor="middle" x="8936.39" y="-247.22" font-family="Times,serif" font-size="14.00">NO</text>
</g>
<!-- 44993 -->
<g id="node13" class="node">
<title>44993</title>
<ellipse fill="none" stroke="black" cx="2167.04" cy="-315.52" rx="277.57" ry="277.57"/>
<text text-anchor="middle" x="2167.04" y="-310.47" font-family="Times,serif" font-size="14.00">IS THE INCIDENT SUBJECT TO A GOVERNOR&#39;S ADJUDICATION</text>
</g>
<!-- 44489&#45;&gt;44993 -->
<g id="edge16" class="edge">
<title>44489&#45;&gt;44993</title>
<path fill="none" stroke="black" d="M1828.39,-315.52C1844.89,-315.52 1861.46,-315.52 1877.93,-315.52"/>
<polygon fill="black" stroke="black" points="1877.8,-319.02 1887.8,-315.52 1877.8,-312.02 1877.8,-319.02"/>
<text text-anchor="middle" x="1858.72" y="-318.72" font-family="Times,serif" font-size="14.00">YES</text>
</g>
<!-- 44489&#45;&gt;44993 -->
<g id="edge17" class="edge">
<title>44489&#45;&gt;44993</title>
<path fill="none" stroke="black" d="M1827.33,-294.32C1842.26,-294.3 1857.04,-294.52 1871.47,-295.02 1873.73,-295.1 1876,-295.18 1878.27,-295.27"/>
<polygon fill="black" stroke="black" points="1878.08,-298.76 1888.21,-295.66 1878.35,-291.77 1878.08,-298.76"/>
<text text-anchor="middle" x="1858.72" y="-298.22" font-family="Times,serif" font-size="14.00">NO</text>
</g>
<!-- 44603 -->
<g id="node16" class="node">
<title>44603</title>
<ellipse fill="none" stroke="black" cx="2783.17" cy="-315.52" rx="277.06" ry="277.06"/>
<text text-anchor="middle" x="2783.17" y="-310.47" font-family="Times,serif" font-size="14.00">IS ANY MEMBER OF STAFF FACING DISCIPLINARY CHARGES</text>
</g>
<!-- 44993&#45;&gt;44603 -->
<g id="edge51" class="edge">
<title>44993&#45;&gt;44603</title>
<path fill="none" stroke="black" d="M2445.01,-315.52C2461.43,-315.52 2477.96,-315.52 2494.41,-315.52"/>
<polygon fill="black" stroke="black" points="2494.28,-319.02 2504.28,-315.52 2494.28,-312.02 2494.28,-319.02"/>
<text text-anchor="middle" x="2475.36" y="-318.72" font-family="Times,serif" font-size="14.00">YES</text>
</g>
<!-- 44993&#45;&gt;44603 -->
<g id="edge52" class="edge">
<title>44993&#45;&gt;44603</title>
<path fill="none" stroke="black" d="M2444.28,-294.39C2459.1,-294.33 2473.79,-294.52 2488.11,-295.02 2490.37,-295.1 2492.63,-295.18 2494.9,-295.27"/>
<polygon fill="black" stroke="black" points="2494.68,-298.76 2504.82,-295.66 2494.96,-291.77 2494.68,-298.76"/>
<text text-anchor="middle" x="2475.36" y="-298.22" font-family="Times,serif" font-size="14.00">NO</text>
</g>
<!-- 45169&#45;&gt;44477 -->
<g id="edge55" class="edge">
<title>45169&#45;&gt;44477</title>
<path fill="none" stroke="black" d="M7739.9,-292.3C7751.33,-296.4 7762.91,-299.92 7774.35,-302.52 7828.09,-314.75 7887.26,-314.09 7941.8,-307.96"/>
<polygon fill="black" stroke="black" points="7941.99,-311.46 7951.5,-306.8 7941.16,-304.51 7941.99,-311.46"/>
<text text-anchor="middle" x="7852.35" y="-315.44" font-family="Times,serif" font-size="14.00">PRISONERS POSSESSION</text>
</g>
<!-- 45169&#45;&gt;44477 -->
<g id="edge56" class="edge">
<title>45169&#45;&gt;44477</title>
<path fill="none" stroke="black" d="M7752.43,-259.43C7759.82,-260.63 7767.16,-261.67 7774.35,-262.52 7826.93,-268.74 7884.14,-271.05 7937.13,-271.36"/>
<polygon fill="black" stroke="black" points="7936.84,-274.86 7946.85,-271.39 7936.86,-267.86 7936.84,-274.86"/>
<text text-anchor="middle" x="7852.35" y="-274.41" font-family="Times,serif" font-size="14.00">CONCEALED</text>
</g>
<!-- 45169&#45;&gt;44477 -->
<g id="edge57" class="edge">
<title>45169&#45;&gt;44477</title>
<path fill="none" stroke="black" d="M7756.63,-230.78C7811.14,-233.58 7873.64,-237.33 7930.35,-242.02 7932.86,-242.23 7935.39,-242.45 7937.93,-242.66"/>
<polygon fill="black" stroke="black" points="7937.39,-246.13 7947.66,-243.52 7938.01,-239.16 7937.39,-246.13"/>
<text text-anchor="middle" x="7852.35" y="-245.22" font-family="Times,serif" font-size="14.00">DISCARDED</text>
</g>
<!-- 45169&#45;&gt;44477 -->
<g id="edge58" class="edge">
<title>45169&#45;&gt;44477</title>
<path fill="none" stroke="black" d="M7756.24,-212.84C7762.35,-212.53 7768.41,-212.25 7774.35,-212.02 7843.63,-209.36 7861.57,-203.27 7930.35,-212.02 7934.69,-212.58 7939.08,-213.19 7943.49,-213.87"/>
<polygon fill="black" stroke="black" points="7942.57,-217.26 7953,-215.41 7943.69,-210.35 7942.57,-217.26"/>
<text text-anchor="middle" x="7852.35" y="-215.22" font-family="Times,serif" font-size="14.00">WHERE MISLAID/LOST</text>
</g>
<!-- 45169&#45;&gt;44477 -->
<g id="edge59" class="edge">
<title>45169&#45;&gt;44477</title>
<path fill="none" stroke="black" d="M7752.36,-189.9C7808.03,-180.89 7872.44,-176.34 7930.35,-187.02 7937.17,-188.28 7944.05,-189.76 7950.95,-191.41"/>
<polygon fill="black" stroke="black" points="7949.8,-194.73 7960.35,-193.79 7951.51,-187.94 7949.8,-194.73"/>
<text text-anchor="middle" x="7852.35" y="-190.22" font-family="Times,serif" font-size="14.00">OTHER</text>
</g>
<!-- 44950&#45;&gt;44372 -->
<g id="edge40" class="edge">
<title>44950&#45;&gt;44372</title>
<path fill="none" stroke="black" d="M5043.36,-445.55C5066.75,-465.14 5092.85,-482.47 5120.68,-493.52 5194.09,-522.69 5224.67,-521.82 5298.43,-493.52 5322.01,-484.48 5344.54,-471.18 5365.39,-455.86"/>
<polygon fill="black" stroke="black" points="5367.47,-458.67 5373.33,-449.84 5363.24,-453.09 5367.47,-458.67"/>
<text text-anchor="middle" x="5209.55" y="-518.27" font-family="Times,serif" font-size="14.00">WORKS DEPARTMENT</text>
</g>
<!-- 44950&#45;&gt;44372 -->
<g id="edge41" class="edge">
<title>44950&#45;&gt;44372</title>
<path fill="none" stroke="black" d="M5062.55,-426.43C5081.12,-437.48 5100.72,-447 5120.68,-453.52 5195.77,-478.06 5223.06,-477.21 5298.43,-453.52 5314.4,-448.5 5330.22,-441.68 5345.53,-433.75"/>
<polygon fill="black" stroke="black" points="5347.03,-436.91 5354.18,-429.1 5343.71,-430.75 5347.03,-436.91"/>
<text text-anchor="middle" x="5209.55" y="-474.81" font-family="Times,serif" font-size="14.00">CONTRACTORS</text>
</g>
<!-- 44950&#45;&gt;44372 -->
<g id="edge42" class="edge">
<title>44950&#45;&gt;44372</title>
<path fill="none" stroke="black" d="M5080.34,-400.65C5093.68,-405.81 5107.23,-410.24 5120.68,-413.52 5197.42,-432.27 5221.51,-431.53 5298.43,-413.52 5307.92,-411.3 5317.48,-408.55 5326.99,-405.41"/>
<polygon fill="black" stroke="black" points="5327.98,-408.77 5336.28,-402.19 5325.69,-402.15 5327.98,-408.77"/>
<text text-anchor="middle" x="5209.55" y="-430.51" font-family="Times,serif" font-size="14.00">EDUCATION</text>
</g>
<!-- 44950&#45;&gt;44372 -->
<g id="edge43" class="edge">
<title>44950&#45;&gt;44372</title>
<path fill="none" stroke="black" d="M5094.68,-368.81C5103.42,-370.64 5112.12,-372.24 5120.68,-373.52 5198.8,-385.26 5220.23,-384.75 5298.43,-373.52 5303.34,-372.82 5308.31,-372.02 5313.3,-371.14"/>
<polygon fill="black" stroke="black" points="5313.6,-374.64 5322.78,-369.36 5312.31,-367.76 5313.6,-374.64"/>
<text text-anchor="middle" x="5209.55" y="-385.34" font-family="Times,serif" font-size="14.00">HEALTH CARE CENTRE</text>
</g>
<!-- 44950&#45;&gt;44372 -->
<g id="edge44" class="edge">
<title>44950&#45;&gt;44372</title>
<path fill="none" stroke="black" d="M5102.17,-332.51C5108.41,-332.89 5114.6,-333.23 5120.68,-333.52 5199.59,-337.28 5219.51,-337.11 5298.43,-333.52 5300.78,-333.42 5303.15,-333.3 5305.54,-333.18"/>
<polygon fill="black" stroke="black" points="5305.47,-336.69 5315.26,-332.65 5305.09,-329.7 5305.47,-336.69"/>
<text text-anchor="middle" x="5209.55" y="-339.48" font-family="Times,serif" font-size="14.00">FARMS AND GARDENS</text>
</g>
<!-- 44950&#45;&gt;44372 -->
<g id="edge45" class="edge">
<title>44950&#45;&gt;44372</title>
<path fill="none" stroke="black" d="M5102.98,-313.16C5108.95,-313.11 5114.86,-313.06 5120.68,-313.02 5199.68,-312.5 5219.43,-312.52 5298.43,-313.02 5300.53,-313.04 5302.64,-313.05 5304.76,-313.07"/>
<polygon fill="black" stroke="black" points="5304.66,-316.56 5314.68,-313.14 5304.71,-309.56 5304.66,-316.56"/>
<text text-anchor="middle" x="5209.55" y="-316.22" font-family="Times,serif" font-size="14.00">GYMNASIUM/SPORTSFIELD</text>
</g>
<!-- 44950&#45;&gt;44372 -->
<g id="edge46" class="edge">
<title>44950&#45;&gt;44372</title>
<path fill="none" stroke="black" d="M5101.62,-293.39C5108.05,-292.87 5114.42,-292.41 5120.68,-292.02 5199.53,-287.13 5219.57,-287.36 5298.43,-292.02 5300.95,-292.17 5303.49,-292.33 5306.05,-292.5"/>
<polygon fill="black" stroke="black" points="5305.61,-295.98 5315.83,-293.2 5306.1,-289 5305.61,-295.98"/>
<text text-anchor="middle" x="5209.55" y="-295.22" font-family="Times,serif" font-size="14.00">WORKSHOP</text>
</g>
<!-- 44950&#45;&gt;44372 -->
<g id="edge47" class="edge">
<title>44950&#45;&gt;44372</title>
<path fill="none" stroke="black" d="M5097.23,-271.48C5105.12,-270.15 5112.97,-268.98 5120.68,-268.02 5199.08,-258.3 5219.98,-258.74 5298.43,-268.02 5302.36,-268.49 5306.33,-269.01 5310.32,-269.57"/>
<polygon fill="black" stroke="black" points="5309.73,-273.02 5320.14,-271.04 5310.77,-266.09 5309.73,-273.02"/>
<text text-anchor="middle" x="5209.55" y="-271.22" font-family="Times,serif" font-size="14.00">KITCHEN</text>
</g>
<!-- 44950&#45;&gt;44372 -->
<g id="edge48" class="edge">
<title>44950&#45;&gt;44372</title>
<path fill="none" stroke="black" d="M5088.96,-247.65C5099.57,-244.64 5110.2,-242.04 5120.68,-240.02 5198.25,-225.08 5220.74,-225.7 5298.43,-240.02 5305.13,-241.26 5311.9,-242.71 5318.69,-244.34"/>
<polygon fill="black" stroke="black" points="5317.35,-247.61 5327.91,-246.68 5319.07,-240.83 5317.35,-247.61"/>
<text text-anchor="middle" x="5209.55" y="-243.22" font-family="Times,serif" font-size="14.00">CELL HOBBIES</text>
</g>
<!-- 44950&#45;&gt;44372 -->
<g id="edge49" class="edge">
<title>44950&#45;&gt;44372</title>
<path fill="none" stroke="black" d="M5076.96,-224.29C5091.34,-218.14 5106.04,-212.87 5120.68,-209.02 5197.08,-188.94 5221.82,-189.71 5298.43,-209.02 5309.21,-211.74 5320.04,-215.17 5330.78,-219.13"/>
<polygon fill="black" stroke="black" points="5329.48,-222.38 5340.07,-222.7 5331.99,-215.84 5329.48,-222.38"/>
<text text-anchor="middle" x="5209.55" y="-212.22" font-family="Times,serif" font-size="14.00">WING OFFICE</text>
</g>
<!-- 44950&#45;&gt;44372 -->
<g id="edge50" class="edge">
<title>44950&#45;&gt;44372</title>
<path fill="none" stroke="black" d="M5060.94,-202.65C5079.95,-190.97 5100.09,-180.89 5120.68,-174.02 5195.62,-149.04 5223.2,-149.89 5298.43,-174.02 5315.08,-179.36 5331.52,-186.68 5347.38,-195.19"/>
<polygon fill="black" stroke="black" points="5345.41,-198.1 5355.85,-199.9 5348.81,-191.98 5345.41,-198.1"/>
<text text-anchor="middle" x="5209.55" y="-177.22" font-family="Times,serif" font-size="14.00">OTHER</text>
</g>
<!-- 44672 -->
<g id="node17" class="node">
<title>44672</title>
<ellipse fill="none" stroke="black" cx="3353.24" cy="-315.52" rx="231.51" ry="231.51"/>
<text text-anchor="middle" x="3353.24" y="-310.47" font-family="Times,serif" font-size="14.00">IS THERE ANY MEDIA INTEREST IN THIS INCIDENT</text>
</g>
<!-- 44603&#45;&gt;44672 -->
<g id="edge34" class="edge">
<title>44603&#45;&gt;44672</title>
<path fill="none" stroke="black" d="M3060.72,-315.52C3077.22,-315.52 3093.77,-315.52 3110.12,-315.52"/>
<polygon fill="black" stroke="black" points="3109.89,-319.02 3119.89,-315.52 3109.89,-312.02 3109.89,-319.02"/>
<text text-anchor="middle" x="3090.98" y="-318.72" font-family="Times,serif" font-size="14.00">YES</text>
</g>
<!-- 44603&#45;&gt;44672 -->
<g id="edge35" class="edge">
<title>44603&#45;&gt;44672</title>
<path fill="none" stroke="black" d="M3059.54,-294.17C3074.49,-294.17 3089.29,-294.43 3103.73,-295.02 3106.1,-295.12 3108.48,-295.22 3110.86,-295.33"/>
<polygon fill="black" stroke="black" points="3110.45,-298.81 3120.6,-295.8 3110.78,-291.82 3110.45,-298.81"/>
<text text-anchor="middle" x="3090.98" y="-298.22" font-family="Times,serif" font-size="14.00">NO</text>
</g>
<!-- 44672&#45;&gt;44412 -->
<g id="edge36" class="edge">
<title>44672&#45;&gt;44412</title>
<path fill="none" stroke="black" d="M3584.97,-315.52C3601.31,-315.52 3617.88,-315.52 3634.44,-315.52"/>
<polygon fill="black" stroke="black" points="3634.4,-319.02 3644.4,-315.52 3634.4,-312.02 3634.4,-319.02"/>
<text text-anchor="middle" x="3615.5" y="-318.72" font-family="Times,serif" font-size="14.00">YES</text>
</g>
<!-- 44672&#45;&gt;44412 -->
<g id="edge37" class="edge">
<title>44672&#45;&gt;44412</title>
<path fill="none" stroke="black" d="M3584.37,-295.87C3590.56,-295.56 3596.69,-295.27 3602.75,-295.02 3613.44,-294.58 3624.34,-294.33 3635.35,-294.25"/>
<polygon fill="black" stroke="black" points="3635.35,-297.75 3645.34,-294.22 3635.33,-290.75 3635.35,-297.75"/>
<text text-anchor="middle" x="3615.5" y="-298.22" font-family="Times,serif" font-size="14.00">NO</text>
</g>
<!-- 44808&#45;&gt;44489 -->
<g id="edge38" class="edge">
<title>44808&#45;&gt;44489</title>
<path fill="none" stroke="black" d="M1173.18,-292.89C1190.04,-293.96 1207.06,-295.04 1224.05,-296.12"/>
<polygon fill="black" stroke="black" points="1223.49,-299.59 1233.69,-296.73 1223.93,-292.6 1223.49,-299.59"/>
<text text-anchor="middle" x="1204.21" y="-298.72" font-family="Times,serif" font-size="14.00">YES</text>
</g>
<!-- 44808&#45;&gt;44489 -->
<g id="edge39" class="edge">
<title>44808&#45;&gt;44489</title>
<path fill="none" stroke="black" d="M1173.76,-274.07C1179.71,-274.05 1185.62,-274.04 1191.46,-274.02 1202.79,-273.99 1205.65,-273.28 1216.96,-274.02 1220,-274.22 1223.06,-274.43 1226.13,-274.66"/>
<polygon fill="black" stroke="black" points="1225.55,-278.12 1235.79,-275.39 1226.08,-271.14 1225.55,-278.12"/>
<text text-anchor="middle" x="1204.21" y="-277.22" font-family="Times,serif" font-size="14.00">NO</text>
</g>
</g>
</svg>
