<?xml version="1.0" encoding="UTF-8" standalone="no"?>
<!DOCTYPE svg PUBLIC "-//W3C//DTD SVG 1.1//EN"
 "http://www.w3.org/Graphics/SVG/1.1/DTD/svg11.dtd">
<!-- Generated by graphviz version 12.1.1 (20240910.0053)
 -->
<!-- Title: TOOL_LOSS Pages: 1 -->
<svg width="7226pt" height="496pt"
 viewBox="0.00 0.00 7225.93 496.35" xmlns="http://www.w3.org/2000/svg" xmlns:xlink="http://www.w3.org/1999/xlink">
<g id="graph0" class="graph" transform="scale(1 1) rotate(0) translate(4 492.35)">
<title>TOOL_LOSS</title>
<polygon fill="white" stroke="none" points="-4,4 -4,-492.35 7221.93,-492.35 7221.93,4 -4,4"/>
<!-- START_NODE -->
<g id="node1" class="node">
<title>START_NODE</title>
</g>
<!-- 45142 -->
<g id="node2" class="node">
<title>45142</title>
<ellipse fill="none" stroke="black" cx="280.27" cy="-321.33" rx="167.02" ry="167.02"/>
<text text-anchor="middle" x="280.27" y="-316.28" font-family="Times,serif" font-size="14.00">Were the police informed of the incident?</text>
</g>
<!-- START_NODE&#45;&gt;45142 -->
<g id="edge1" class="edge">
<title>START_NODE&#45;&gt;45142</title>
<path fill="none" stroke="black" d="M53.94,-321.33C66.67,-321.33 83.21,-321.33 101.55,-321.33"/>
<polygon fill="black" stroke="black" points="101.34,-324.83 111.34,-321.33 101.34,-317.83 101.34,-324.83"/>
<text text-anchor="middle" x="83.62" y="-324.53" font-family="Times,serif" font-size="14.00">start</text>
</g>
<!-- 44489 -->
<g id="node12" class="node">
<title>44489</title>
<ellipse fill="none" stroke="black" cx="1187.53" cy="-242.33" rx="212.57" ry="212.57"/>
<text text-anchor="middle" x="1187.53" y="-237.28" font-family="Times,serif" font-size="14.00">Is the incident the subject of an internal investigation?</text>
</g>
<!-- 45142&#45;&gt;44489 -->
<g id="edge54" class="edge">
<title>45142&#45;&gt;44489</title>
<path fill="none" stroke="black" d="M432.09,-391.63C457.22,-400.61 483.38,-408.39 508.79,-413.33 685.33,-447.68 740.6,-462.99 913.46,-413.33 945.1,-404.25 976.62,-390.3 1006.41,-374.21"/>
<polygon fill="black" stroke="black" points="1008.05,-377.3 1015.11,-369.41 1004.67,-371.17 1008.05,-377.3"/>
<text text-anchor="middle" x="711.12" y="-448.29" font-family="Times,serif" font-size="14.00">NO</text>
</g>
<!-- 44808 -->
<g id="node18" class="node">
<title>44808</title>
<ellipse fill="none" stroke="black" cx="711.12" cy="-202.33" rx="202.33" ry="202.33"/>
<text text-anchor="middle" x="711.12" y="-197.28" font-family="Times,serif" font-size="14.00">Is the incident the subject of a police investigation?</text>
</g>
<!-- 45142&#45;&gt;44808 -->
<g id="edge53" class="edge">
<title>45142&#45;&gt;44808</title>
<path fill="none" stroke="black" d="M441.57,-276.85C462.13,-271.15 483.41,-265.25 504.57,-259.37"/>
<polygon fill="black" stroke="black" points="505.46,-262.76 514.16,-256.71 503.59,-256.01 505.46,-262.76"/>
<text text-anchor="middle" x="478.04" y="-272.16" font-family="Times,serif" font-size="14.00">YES</text>
</g>
<!-- END_NODE -->
<g id="node3" class="node">
<title>END_NODE</title>
<ellipse fill="none" stroke="black" cx="7184.08" cy="-206.33" rx="29.86" ry="29.86"/>
<ellipse fill="none" stroke="black" cx="7184.08" cy="-206.33" rx="33.86" ry="33.86"/>
<text text-anchor="middle" x="7184.08" y="-201.28" font-family="Times,serif" font-size="14.00">END</text>
</g>
<!-- 44195 -->
<g id="node4" class="node">
<title>44195</title>
<ellipse fill="none" stroke="black" cx="5234.81" cy="-242.33" rx="171.63" ry="171.63"/>
<text text-anchor="middle" x="5234.81" y="-237.28" font-family="Times,serif" font-size="14.00">What action was taken to find these items?</text>
</g>
<!-- 44565 -->
<g id="node5" class="node">
<title>44565</title>
<ellipse fill="none" stroke="black" cx="5732.07" cy="-242.33" rx="106.63" ry="106.63"/>
<text text-anchor="middle" x="5732.07" y="-237.28" font-family="Times,serif" font-size="14.00">Has the item been found?</text>
</g>
<!-- 44195&#45;&gt;44565 -->
<g id="edge2" class="edge">
<title>44195&#45;&gt;44565</title>
<path fill="none" stroke="black" d="M5405.93,-259.32C5412.18,-259.7 5418.36,-260.05 5424.44,-260.33 5505.68,-264.2 5526.32,-266.21 5607.44,-260.33 5609.94,-260.15 5612.48,-259.95 5615.03,-259.73"/>
<polygon fill="black" stroke="black" points="5615.17,-263.23 5624.8,-258.8 5614.51,-256.27 5615.17,-263.23"/>
<text text-anchor="middle" x="5515.94" y="-267.22" font-family="Times,serif" font-size="14.00">FULL CLOSE DOWN SEARCH</text>
</g>
<!-- 44195&#45;&gt;44565 -->
<g id="edge3" class="edge">
<title>44195&#45;&gt;44565</title>
<path fill="none" stroke="black" d="M5406.74,-239.97C5412.71,-239.92 5418.63,-239.87 5424.44,-239.83 5505.77,-239.3 5526.11,-239.01 5607.44,-239.83 5609.52,-239.86 5611.63,-239.88 5613.74,-239.9"/>
<polygon fill="black" stroke="black" points="5613.63,-243.4 5623.68,-240.03 5613.72,-236.4 5613.63,-243.4"/>
<text text-anchor="middle" x="5515.94" y="-243.03" font-family="Times,serif" font-size="14.00">PARTIAL SEARCH</text>
</g>
<!-- 44195&#45;&gt;44565 -->
<g id="edge4" class="edge">
<title>44195&#45;&gt;44565</title>
<path fill="none" stroke="black" d="M5405.39,-220.2C5411.81,-219.68 5418.18,-219.22 5424.44,-218.83 5505.62,-213.8 5526.46,-211.21 5607.44,-218.83 5610.29,-219.1 5613.18,-219.41 5616.09,-219.74"/>
<polygon fill="black" stroke="black" points="5615.53,-223.2 5625.89,-220.98 5616.41,-216.25 5615.53,-223.2"/>
<text text-anchor="middle" x="5515.94" y="-222.03" font-family="Times,serif" font-size="14.00">OTHER</text>
</g>
<!-- 44477 -->
<g id="node10" class="node">
<title>44477</title>
<ellipse fill="none" stroke="black" cx="6459.67" cy="-206.33" rx="138.87" ry="138.87"/>
<text text-anchor="middle" x="6459.67" y="-201.28" font-family="Times,serif" font-size="14.00">How are tools/implements stored?</text>
</g>
<!-- 44565&#45;&gt;44477 -->
<g id="edge21" class="edge">
<title>44565&#45;&gt;44477</title>
<path fill="none" stroke="black" d="M5833.28,-276.02C5855.09,-281.97 5878.22,-287.24 5900.19,-290.33 6077.51,-315.29 6129.37,-319.87 6302.8,-275.33 6309.57,-273.6 6316.42,-271.59 6323.28,-269.38"/>
<polygon fill="black" stroke="black" points="6324.25,-272.75 6332.61,-266.24 6322.02,-266.11 6324.25,-272.75"/>
<text text-anchor="middle" x="6014.5" y="-312.24" font-family="Times,serif" font-size="14.00">NO</text>
</g>
<!-- 45169 -->
<g id="node14" class="node">
<title>45169</title>
<ellipse fill="none" stroke="black" cx="6014.5" cy="-167.33" rx="114.3" ry="114.3"/>
<text text-anchor="middle" x="6014.5" y="-162.28" font-family="Times,serif" font-size="14.00">Where was the item found?</text>
</g>
<!-- 44565&#45;&gt;45169 -->
<g id="edge20" class="edge">
<title>44565&#45;&gt;45169</title>
<path fill="none" stroke="black" d="M5835.5,-214.94C5854.16,-209.95 5873.78,-204.7 5892.91,-199.59"/>
<polygon fill="black" stroke="black" points="5893.57,-203.03 5902.32,-197.07 5891.76,-196.27 5893.57,-203.03"/>
<text text-anchor="middle" x="5869.44" y="-210.28" font-family="Times,serif" font-size="14.00">YES</text>
</g>
<!-- 44372 -->
<g id="node6" class="node">
<title>44372</title>
<ellipse fill="none" stroke="black" cx="4301.17" cy="-242.33" rx="138.36" ry="138.36"/>
<text text-anchor="middle" x="4301.17" y="-237.28" font-family="Times,serif" font-size="14.00">Is the missing item thought to be?</text>
</g>
<!-- 44445 -->
<g id="node7" class="node">
<title>44445</title>
<ellipse fill="none" stroke="black" cx="4767.11" cy="-242.33" rx="234.58" ry="234.58"/>
<text text-anchor="middle" x="4767.11" y="-237.28" font-family="Times,serif" font-size="14.00">Is the missing item thought to be in a prisoner&#39;s possession?</text>
</g>
<!-- 44372&#45;&gt;44445 -->
<g id="edge5" class="edge">
<title>44372&#45;&gt;44445</title>
<path fill="none" stroke="black" d="M4438.92,-259.06C4445.2,-259.55 4451.43,-259.98 4457.53,-260.33 4478.4,-261.54 4500.07,-261.96 4521.8,-261.81"/>
<polygon fill="black" stroke="black" points="4521.7,-265.31 4531.66,-261.7 4521.62,-258.31 4521.7,-265.31"/>
<text text-anchor="middle" x="4486.03" y="-265.03" font-family="Times,serif" font-size="14.00">LOST</text>
</g>
<!-- 44372&#45;&gt;44445 -->
<g id="edge6" class="edge">
<title>44372&#45;&gt;44445</title>
<path fill="none" stroke="black" d="M4439.83,-240C4445.81,-239.94 4451.73,-239.88 4457.53,-239.83 4478.17,-239.67 4499.59,-239.61 4521.09,-239.63"/>
<polygon fill="black" stroke="black" points="4520.81,-243.13 4530.82,-239.64 4520.82,-236.13 4520.81,-243.13"/>
<text text-anchor="middle" x="4486.03" y="-243.03" font-family="Times,serif" font-size="14.00">MISLAID</text>
</g>
<!-- 44372&#45;&gt;44445 -->
<g id="edge7" class="edge">
<title>44372&#45;&gt;44445</title>
<path fill="none" stroke="black" d="M4438.02,-220.58C4444.61,-219.91 4451.14,-219.32 4457.53,-218.83 4478.52,-217.26 4500.31,-216.71 4522.16,-216.92"/>
<polygon fill="black" stroke="black" points="4522.02,-220.42 4532.08,-217.07 4522.13,-213.42 4522.02,-220.42"/>
<text text-anchor="middle" x="4486.03" y="-222.03" font-family="Times,serif" font-size="14.00">STOLEN</text>
</g>
<!-- 44445&#45;&gt;44195 -->
<g id="edge10" class="edge">
<title>44445&#45;&gt;44195</title>
<path fill="none" stroke="black" d="M5001.98,-242.33C5018.66,-242.33 5035.32,-242.33 5051.64,-242.33"/>
<polygon fill="black" stroke="black" points="5051.36,-245.83 5061.36,-242.33 5051.36,-238.83 5051.36,-245.83"/>
<text text-anchor="middle" x="5032.44" y="-245.53" font-family="Times,serif" font-size="14.00">YES</text>
</g>
<!-- 44445&#45;&gt;44195 -->
<g id="edge11" class="edge">
<title>44445&#45;&gt;44195</title>
<path fill="none" stroke="black" d="M5000.88,-220.78C5015.87,-220.73 5030.74,-221.05 5045.19,-221.83 5047.69,-221.97 5050.22,-222.12 5052.75,-222.27"/>
<polygon fill="black" stroke="black" points="5052.25,-225.75 5062.46,-222.91 5052.71,-218.76 5052.25,-225.75"/>
<text text-anchor="middle" x="5032.44" y="-225.03" font-family="Times,serif" font-size="14.00">NO</text>
</g>
<!-- 44412 -->
<g id="node8" class="node">
<title>44412</title>
<ellipse fill="none" stroke="black" cx="2998.47" cy="-242.33" rx="199.78" ry="199.78"/>
<text text-anchor="middle" x="2998.47" y="-237.28" font-family="Times,serif" font-size="14.00">Has the prison service press office been informed?</text>
</g>
<!-- 44593 -->
<g id="node9" class="node">
<title>44593</title>
<ellipse fill="none" stroke="black" cx="3405.78" cy="-242.33" rx="146.04" ry="146.04"/>
<text text-anchor="middle" x="3405.78" y="-237.28" font-family="Times,serif" font-size="14.00">What tool or implement is missing?</text>
</g>
<!-- 44412&#45;&gt;44593 -->
<g id="edge8" class="edge">
<title>44412&#45;&gt;44593</title>
<path fill="none" stroke="black" d="M3198.56,-242.33C3215.24,-242.33 3231.94,-242.33 3248.23,-242.33"/>
<polygon fill="black" stroke="black" points="3247.91,-245.83 3257.91,-242.33 3247.91,-238.83 3247.91,-245.83"/>
<text text-anchor="middle" x="3229" y="-245.53" font-family="Times,serif" font-size="14.00">YES</text>
</g>
<!-- 44412&#45;&gt;44593 -->
<g id="edge9" class="edge">
<title>44412&#45;&gt;44593</title>
<path fill="none" stroke="black" d="M3197.42,-220.8C3212.41,-220.64 3227.32,-220.93 3241.75,-221.83 3244.29,-221.99 3246.86,-222.17 3249.44,-222.35"/>
<polygon fill="black" stroke="black" points="3249.1,-225.84 3259.34,-223.13 3249.65,-218.86 3249.1,-225.84"/>
<text text-anchor="middle" x="3229" y="-225.03" font-family="Times,serif" font-size="14.00">NO</text>
</g>
<!-- 44950 -->
<g id="node15" class="node">
<title>44950</title>
<ellipse fill="none" stroke="black" cx="3820.94" cy="-242.33" rx="128.12" ry="128.12"/>
<text text-anchor="middle" x="3820.94" y="-237.28" font-family="Times,serif" font-size="14.00">Where was the tools lost from?</text>
</g>
<!-- 44593&#45;&gt;44950 -->
<g id="edge22" class="edge">
<title>44593&#45;&gt;44950</title>
<path fill="none" stroke="black" d="M3481.8,-367.46C3505.94,-396.76 3535.49,-424.13 3569.82,-440.33 3612.02,-460.25 3633.19,-461.43 3674.82,-440.33 3707.55,-423.74 3734.67,-395.92 3756.27,-366.29"/>
<polygon fill="black" stroke="black" points="3759.01,-368.47 3761.92,-358.29 3753.29,-364.44 3759.01,-368.47"/>
<text text-anchor="middle" x="3622.32" y="-458.92" font-family="Times,serif" font-size="14.00">KNIFE</text>
</g>
<!-- 44593&#45;&gt;44950 -->
<g id="edge23" class="edge">
<title>44593&#45;&gt;44950</title>
<path fill="none" stroke="black" d="M3499.41,-354.95C3520.47,-373.47 3544.24,-389.98 3569.82,-400.33 3613.07,-417.85 3632.09,-419.1 3674.82,-400.33 3698.54,-389.91 3720.08,-373.49 3738.88,-355.1"/>
<polygon fill="black" stroke="black" points="3741.17,-357.76 3745.71,-348.18 3736.19,-352.84 3741.17,-357.76"/>
<text text-anchor="middle" x="3622.32" y="-417.14" font-family="Times,serif" font-size="14.00">HACKSAW</text>
</g>
<!-- 44593&#45;&gt;44950 -->
<g id="edge24" class="edge">
<title>44593&#45;&gt;44950</title>
<path fill="none" stroke="black" d="M3518.05,-336.22C3534.56,-346.07 3552.03,-354.57 3569.82,-360.33 3614.21,-374.72 3630.84,-375.96 3674.82,-360.33 3690.25,-354.85 3705.24,-346.95 3719.36,-337.79"/>
<polygon fill="black" stroke="black" points="3720.93,-340.95 3727.25,-332.45 3717.01,-335.15 3720.93,-340.95"/>
<text text-anchor="middle" x="3622.32" y="-374.79" font-family="Times,serif" font-size="14.00">OTHER SAW</text>
</g>
<!-- 44593&#45;&gt;44950 -->
<g id="edge25" class="edge">
<title>44593&#45;&gt;44950</title>
<path fill="none" stroke="black" d="M3535.27,-310.11C3546.73,-314.22 3558.34,-317.73 3569.82,-320.33 3615.33,-330.66 3629.56,-331.73 3674.82,-320.33 3683.2,-318.22 3691.63,-315.52 3699.98,-312.4"/>
<polygon fill="black" stroke="black" points="3701.08,-315.73 3709.09,-308.79 3698.5,-309.22 3701.08,-315.73"/>
<text text-anchor="middle" x="3622.32" y="-331.68" font-family="Times,serif" font-size="14.00">SPADE</text>
</g>
<!-- 44593&#45;&gt;44950 -->
<g id="edge26" class="edge">
<title>44593&#45;&gt;44950</title>
<path fill="none" stroke="black" d="M3547.82,-277.29C3555.24,-278.47 3562.6,-279.5 3569.82,-280.33 3616.18,-285.67 3628.53,-286.29 3674.82,-280.33 3678.5,-279.86 3682.22,-279.32 3685.96,-278.73"/>
<polygon fill="black" stroke="black" points="3686.5,-282.19 3695.76,-277.04 3685.31,-275.29 3686.5,-282.19"/>
<text text-anchor="middle" x="3622.32" y="-287.77" font-family="Times,serif" font-size="14.00">AXE</text>
</g>
<!-- 44593&#45;&gt;44950 -->
<g id="edge27" class="edge">
<title>44593&#45;&gt;44950</title>
<path fill="none" stroke="black" d="M3552.15,-242.33C3594.1,-242.33 3639.74,-242.33 3681.26,-242.33"/>
<polygon fill="black" stroke="black" points="3681.06,-245.83 3691.06,-242.33 3681.06,-238.83 3681.06,-245.83"/>
<text text-anchor="middle" x="3622.32" y="-245.53" font-family="Times,serif" font-size="14.00">PICKAXE</text>
</g>
<!-- 44593&#45;&gt;44950 -->
<g id="edge28" class="edge">
<title>44593&#45;&gt;44950</title>
<path fill="none" stroke="black" d="M3550.71,-223.25C3557.16,-222.7 3563.55,-222.23 3569.82,-221.83 3616.39,-218.92 3628.27,-218.56 3674.82,-221.83 3677.34,-222.01 3679.89,-222.21 3682.46,-222.42"/>
<polygon fill="black" stroke="black" points="3682.03,-225.89 3692.3,-223.3 3682.65,-218.92 3682.03,-225.89"/>
<text text-anchor="middle" x="3622.32" y="-225.03" font-family="Times,serif" font-size="14.00">PLIERS</text>
</g>
<!-- 44593&#45;&gt;44950 -->
<g id="edge29" class="edge">
<title>44593&#45;&gt;44950</title>
<path fill="none" stroke="black" d="M3546.38,-202.57C3554.27,-201.11 3562.12,-199.84 3569.82,-198.83 3616.09,-192.77 3628.64,-192.06 3674.82,-198.83 3678.96,-199.44 3683.16,-200.14 3687.38,-200.92"/>
<polygon fill="black" stroke="black" points="3686.61,-204.34 3697.1,-202.87 3687.98,-197.48 3686.61,-204.34"/>
<text text-anchor="middle" x="3622.32" y="-202.03" font-family="Times,serif" font-size="14.00">SCREWDRIVER</text>
</g>
<!-- 44593&#45;&gt;44950 -->
<g id="edge30" class="edge">
<title>44593&#45;&gt;44950</title>
<path fill="none" stroke="black" d="M3538.87,-181.79C3549.19,-178.62 3559.58,-175.9 3569.82,-173.83 3615.56,-164.61 3629.28,-163.63 3674.82,-173.83 3681.94,-175.43 3689.13,-177.42 3696.29,-179.7"/>
<polygon fill="black" stroke="black" points="3694.72,-182.87 3705.32,-182.76 3696.97,-176.24 3694.72,-182.87"/>
<text text-anchor="middle" x="3622.32" y="-177.03" font-family="Times,serif" font-size="14.00">WIRE CUTTERS</text>
</g>
<!-- 44593&#45;&gt;44950 -->
<g id="edge31" class="edge">
<title>44593&#45;&gt;44950</title>
<path fill="none" stroke="black" d="M3527.84,-161.48C3541.56,-155.14 3555.7,-149.7 3569.82,-145.83 3614.83,-133.51 3630.14,-132.34 3674.82,-145.83 3686.24,-149.29 3697.58,-153.96 3708.6,-159.41"/>
<polygon fill="black" stroke="black" points="3706.8,-162.41 3717.29,-163.91 3710.02,-156.2 3706.8,-162.41"/>
<text text-anchor="middle" x="3622.32" y="-149.03" font-family="Times,serif" font-size="14.00">BOLT CROPPERS</text>
</g>
<!-- 44593&#45;&gt;44950 -->
<g id="edge32" class="edge">
<title>44593&#45;&gt;44950</title>
<path fill="none" stroke="black" d="M3514.15,-143.85C3531.7,-132.39 3550.5,-122.45 3569.82,-115.83 3613.97,-100.72 3631.12,-99.46 3674.82,-115.83 3691.95,-122.26 3708.4,-131.72 3723.66,-142.62"/>
<polygon fill="black" stroke="black" points="3721.18,-145.14 3731.3,-148.3 3725.36,-139.52 3721.18,-145.14"/>
<text text-anchor="middle" x="3622.32" y="-119.03" font-family="Times,serif" font-size="14.00">SCISSORS</text>
</g>
<!-- 44593&#45;&gt;44950 -->
<g id="edge33" class="edge">
<title>44593&#45;&gt;44950</title>
<path fill="none" stroke="black" d="M3498.91,-129.77C3520.08,-111.03 3544.03,-94.3 3569.82,-83.83 3613.06,-66.28 3632.11,-65.03 3674.82,-83.83 3698.57,-94.29 3720.13,-110.77 3738.93,-129.22"/>
<polygon fill="black" stroke="black" points="3736.25,-131.49 3745.76,-136.16 3741.24,-126.58 3736.25,-131.49"/>
<text text-anchor="middle" x="3622.32" y="-87.03" font-family="Times,serif" font-size="14.00">OTHER</text>
</g>
<!-- 44509 -->
<g id="node11" class="node">
<title>44509</title>
<ellipse fill="none" stroke="black" cx="6918.63" cy="-206.33" rx="170.09" ry="170.09"/>
<text text-anchor="middle" x="6918.63" y="-201.28" font-family="Times,serif" font-size="14.00">Is the F78A checking system in operation?</text>
</g>
<!-- 44477&#45;&gt;44509 -->
<g id="edge12" class="edge">
<title>44477&#45;&gt;44509</title>
<path fill="none" stroke="black" d="M6594.21,-241.07C6601.73,-242.35 6609.21,-243.45 6616.54,-244.33 6666.85,-250.38 6680.13,-249.4 6730.54,-244.33 6733.83,-244 6737.14,-243.64 6740.47,-243.25"/>
<polygon fill="black" stroke="black" points="6740.89,-246.73 6750.37,-242 6740.01,-239.78 6740.89,-246.73"/>
<text text-anchor="middle" x="6673.54" y="-251.71" font-family="Times,serif" font-size="14.00">SHADOW BOARD</text>
</g>
<!-- 44477&#45;&gt;44509 -->
<g id="edge13" class="edge">
<title>44477&#45;&gt;44509</title>
<path fill="none" stroke="black" d="M6599.01,-206.33C6642.45,-206.33 6691.07,-206.33 6736.99,-206.33"/>
<polygon fill="black" stroke="black" points="6736.77,-209.83 6746.77,-206.33 6736.77,-202.83 6736.77,-209.83"/>
<text text-anchor="middle" x="6673.54" y="-209.53" font-family="Times,serif" font-size="14.00">SECURE CABINET</text>
</g>
<!-- 44477&#45;&gt;44509 -->
<g id="edge14" class="edge">
<title>44477&#45;&gt;44509</title>
<path fill="none" stroke="black" d="M6597.43,-187.32C6603.88,-186.75 6610.28,-186.24 6616.54,-185.83 6667.1,-182.52 6679.95,-183.07 6730.54,-185.83 6732.93,-185.97 6735.34,-186.11 6737.76,-186.25"/>
<polygon fill="black" stroke="black" points="6737.45,-189.74 6747.66,-186.91 6737.91,-182.76 6737.45,-189.74"/>
<text text-anchor="middle" x="6673.54" y="-189.03" font-family="Times,serif" font-size="14.00">SECURE ROOM</text>
</g>
<!-- 44477&#45;&gt;44509 -->
<g id="edge15" class="edge">
<title>44477&#45;&gt;44509</title>
<path fill="none" stroke="black" d="M6593.24,-166.74C6601.08,-165.21 6608.89,-163.88 6616.54,-162.83 6666.74,-155.96 6680.21,-157.06 6730.54,-162.83 6734.23,-163.26 6737.95,-163.73 6741.69,-164.23"/>
<polygon fill="black" stroke="black" points="6741.08,-167.68 6751.48,-165.66 6742.08,-160.76 6741.08,-167.68"/>
<text text-anchor="middle" x="6673.54" y="-166.03" font-family="Times,serif" font-size="14.00">OTHER</text>
</g>
<!-- 44509&#45;&gt;END_NODE -->
<g id="edge18" class="edge">
<title>44509&#45;&gt;END_NODE</title>
<path fill="none" stroke="black" d="M7089.08,-206.33C7107.03,-206.33 7123.96,-206.33 7138.37,-206.33"/>
<polygon fill="black" stroke="black" points="7138.34,-209.83 7148.34,-206.33 7138.34,-202.83 7138.34,-209.83"/>
<text text-anchor="middle" x="7119.47" y="-209.53" font-family="Times,serif" font-size="14.00">YES</text>
</g>
<!-- 44509&#45;&gt;END_NODE -->
<g id="edge19" class="edge">
<title>44509&#45;&gt;END_NODE</title>
<path fill="none" stroke="black" d="M7087.18,-181.15C7102.46,-181.57 7117.66,-183.01 7132.22,-185.83 7135.57,-186.48 7138.98,-187.35 7142.37,-188.37"/>
<polygon fill="black" stroke="black" points="7140.97,-191.59 7151.57,-191.53 7143.25,-184.97 7140.97,-191.59"/>
<text text-anchor="middle" x="7119.47" y="-189.03" font-family="Times,serif" font-size="14.00">NO</text>
</g>
<!-- 44993 -->
<g id="node13" class="node">
<title>44993</title>
<ellipse fill="none" stroke="black" cx="1663.42" cy="-242.33" rx="201.82" ry="201.82"/>
<text text-anchor="middle" x="1663.42" y="-237.28" font-family="Times,serif" font-size="14.00">Is the incident subject to a governor&#39;s adjudication?</text>
</g>
<!-- 44489&#45;&gt;44993 -->
<g id="edge16" class="edge">
<title>44489&#45;&gt;44993</title>
<path fill="none" stroke="black" d="M1400.53,-242.33C1416.95,-242.33 1433.53,-242.33 1449.95,-242.33"/>
<polygon fill="black" stroke="black" points="1449.78,-245.83 1459.78,-242.33 1449.78,-238.83 1449.78,-245.83"/>
<text text-anchor="middle" x="1430.85" y="-245.53" font-family="Times,serif" font-size="14.00">YES</text>
</g>
<!-- 44489&#45;&gt;44993 -->
<g id="edge17" class="edge">
<title>44489&#45;&gt;44993</title>
<path fill="none" stroke="black" d="M1399.33,-221.2C1414.31,-220.99 1429.18,-221.16 1443.6,-221.83 1445.98,-221.95 1448.38,-222.06 1450.79,-222.19"/>
<polygon fill="black" stroke="black" points="1450.45,-225.68 1460.63,-222.73 1450.84,-218.69 1450.45,-225.68"/>
<text text-anchor="middle" x="1430.85" y="-225.03" font-family="Times,serif" font-size="14.00">NO</text>
</g>
<!-- 44603 -->
<g id="node16" class="node">
<title>44603</title>
<ellipse fill="none" stroke="black" cx="2129.59" cy="-242.33" rx="202.85" ry="202.85"/>
<text text-anchor="middle" x="2129.59" y="-237.28" font-family="Times,serif" font-size="14.00">Is any member of staff facing disciplinary charges?</text>
</g>
<!-- 44993&#45;&gt;44603 -->
<g id="edge51" class="edge">
<title>44993&#45;&gt;44603</title>
<path fill="none" stroke="black" d="M1865.65,-242.33C1882.07,-242.33 1898.69,-242.33 1915.18,-242.33"/>
<polygon fill="black" stroke="black" points="1915.06,-245.83 1925.06,-242.33 1915.06,-238.83 1915.06,-245.83"/>
<text text-anchor="middle" x="1896" y="-245.53" font-family="Times,serif" font-size="14.00">YES</text>
</g>
<!-- 44993&#45;&gt;44603 -->
<g id="edge52" class="edge">
<title>44993&#45;&gt;44603</title>
<path fill="none" stroke="black" d="M1864.71,-222.82C1870.96,-222.45 1877.15,-222.12 1883.25,-221.83 1894.06,-221.33 1905.12,-221.12 1916.3,-221.17"/>
<polygon fill="black" stroke="black" points="1915.95,-224.66 1925.99,-221.27 1916.02,-217.66 1915.95,-224.66"/>
<text text-anchor="middle" x="1896" y="-225.03" font-family="Times,serif" font-size="14.00">NO</text>
</g>
<!-- 45169&#45;&gt;44477 -->
<g id="edge55" class="edge">
<title>45169&#45;&gt;44477</title>
<path fill="none" stroke="black" d="M6110.07,-230.47C6122.04,-236.13 6134.43,-240.98 6146.8,-244.33 6200.61,-258.95 6261.18,-255.83 6314.52,-246.81"/>
<polygon fill="black" stroke="black" points="6315.07,-250.27 6324.3,-245.07 6313.84,-243.38 6315.07,-250.27"/>
<text text-anchor="middle" x="6224.8" y="-257.64" font-family="Times,serif" font-size="14.00">PRISONERS POSSESSION</text>
</g>
<!-- 45169&#45;&gt;44477 -->
<g id="edge56" class="edge">
<title>45169&#45;&gt;44477</title>
<path fill="none" stroke="black" d="M6124.28,-200.38C6131.86,-201.94 6139.41,-203.29 6146.8,-204.33 6199.49,-211.79 6257.7,-213.81 6309.41,-213.48"/>
<polygon fill="black" stroke="black" points="6309.21,-216.98 6319.17,-213.39 6309.14,-209.98 6309.21,-216.98"/>
<text text-anchor="middle" x="6224.8" y="-216.72" font-family="Times,serif" font-size="14.00">CONCEALED</text>
</g>
<!-- 45169&#45;&gt;44477 -->
<g id="edge57" class="edge">
<title>45169&#45;&gt;44477</title>
<path fill="none" stroke="black" d="M6128.93,-171.6C6181.85,-174.16 6245.63,-178.08 6302.8,-183.83 6305.34,-184.09 6307.91,-184.36 6310.49,-184.64"/>
<polygon fill="black" stroke="black" points="6310.07,-188.11 6320.39,-185.74 6310.85,-181.15 6310.07,-188.11"/>
<text text-anchor="middle" x="6224.8" y="-187.03" font-family="Times,serif" font-size="14.00">DISCARDED</text>
</g>
<!-- 45169&#45;&gt;44477 -->
<g id="edge58" class="edge">
<title>45169&#45;&gt;44477</title>
<path fill="none" stroke="black" d="M6128.02,-150.51C6181.31,-145.38 6245.66,-143.3 6302.8,-152.83 6307.78,-153.67 6312.81,-154.63 6317.86,-155.72"/>
<polygon fill="black" stroke="black" points="6316.94,-159.1 6327.47,-157.93 6318.51,-152.28 6316.94,-159.1"/>
<text text-anchor="middle" x="6224.8" y="-156.03" font-family="Times,serif" font-size="14.00">WHERE MISLAID/LOST</text>
</g>
<!-- 45169&#45;&gt;44477 -->
<g id="edge59" class="edge">
<title>45169&#45;&gt;44477</title>
<path fill="none" stroke="black" d="M6123.07,-130.46C6131.03,-128.62 6139,-127.04 6146.8,-125.83 6215.32,-115.26 6235.43,-109.46 6302.8,-125.83 6311.23,-127.88 6319.71,-130.47 6328.13,-133.45"/>
<polygon fill="black" stroke="black" points="6326.74,-136.67 6337.33,-136.9 6329.2,-130.12 6326.74,-136.67"/>
<text text-anchor="middle" x="6224.8" y="-129.03" font-family="Times,serif" font-size="14.00">OTHER</text>
</g>
<!-- 44950&#45;&gt;44372 -->
<g id="edge40" class="edge">
<title>44950&#45;&gt;44372</title>
<path fill="none" stroke="black" d="M3886.83,-352.71C3908.62,-379.84 3935.55,-405.37 3967.06,-420.33 4038.42,-454.23 4072.89,-453.02 4144.81,-420.33 4172.08,-407.94 4196.44,-388.13 4217.32,-366.15"/>
<polygon fill="black" stroke="black" points="4219.64,-368.8 4223.83,-359.07 4214.49,-364.06 4219.64,-368.8"/>
<text text-anchor="middle" x="4055.94" y="-448.5" font-family="Times,serif" font-size="14.00">WORKS DEPARTMENT</text>
</g>
<!-- 44950&#45;&gt;44372 -->
<g id="edge41" class="edge">
<title>44950&#45;&gt;44372</title>
<path fill="none" stroke="black" d="M3903.85,-340.03C3922.77,-356.48 3944.14,-371.18 3967.06,-380.33 4003.74,-394.99 4107.89,-394.37 4144.81,-380.33 4163.45,-373.25 4181.28,-362.8 4197.78,-350.75"/>
<polygon fill="black" stroke="black" points="4199.75,-353.66 4205.61,-344.83 4195.52,-348.08 4199.75,-353.66"/>
<text text-anchor="middle" x="4055.94" y="-394.29" font-family="Times,serif" font-size="14.00">CONTRACTORS</text>
</g>
<!-- 44950&#45;&gt;44372 -->
<g id="edge42" class="edge">
<title>44950&#45;&gt;44372</title>
<path fill="none" stroke="black" d="M3922.32,-320.81C3936.69,-328.79 3951.8,-335.66 3967.06,-340.33 4042.6,-363.45 4068.92,-362.27 4144.81,-340.33 4155.96,-337.11 4167.07,-332.83 4177.94,-327.85"/>
<polygon fill="black" stroke="black" points="4179.42,-331.02 4186.91,-323.53 4176.38,-324.71 4179.42,-331.02"/>
<text text-anchor="middle" x="4055.94" y="-360.43" font-family="Times,serif" font-size="14.00">EDUCATION</text>
</g>
<!-- 44950&#45;&gt;44372 -->
<g id="edge43" class="edge">
<title>44950&#45;&gt;44372</title>
<path fill="none" stroke="black" d="M3938.82,-293.37C3948.25,-296.15 3957.74,-298.54 3967.06,-300.33 4044.64,-315.26 4067.07,-314.37 4144.81,-300.33 4150.42,-299.32 4156.1,-298.12 4161.79,-296.76"/>
<polygon fill="black" stroke="black" points="4162.45,-300.2 4171.28,-294.34 4160.72,-293.42 4162.45,-300.2"/>
<text text-anchor="middle" x="4055.94" y="-314.4" font-family="Times,serif" font-size="14.00">HEALTH CARE CENTRE</text>
</g>
<!-- 44950&#45;&gt;44372 -->
<g id="edge44" class="edge">
<title>44950&#45;&gt;44372</title>
<path fill="none" stroke="black" d="M3948.1,-258.93C3954.5,-259.48 3960.85,-259.95 3967.06,-260.33 4045.91,-265.21 4065.94,-264.89 4144.81,-260.33 4147.19,-260.2 4149.6,-260.05 4152.01,-259.89"/>
<polygon fill="black" stroke="black" points="4152.19,-263.38 4161.91,-259.17 4151.69,-256.4 4152.19,-263.38"/>
<text text-anchor="middle" x="4055.94" y="-267.07" font-family="Times,serif" font-size="14.00">FARMS AND GARDENS</text>
</g>
<!-- 44950&#45;&gt;44372 -->
<g id="edge45" class="edge">
<title>44950&#45;&gt;44372</title>
<path fill="none" stroke="black" d="M3949.36,-240.02C3955.34,-239.95 3961.27,-239.88 3967.06,-239.83 4046.06,-239.15 4065.81,-239.2 4144.81,-239.83 4146.9,-239.85 4149,-239.87 4151.11,-239.89"/>
<polygon fill="black" stroke="black" points="4150.97,-243.39 4161,-239.99 4151.04,-236.39 4150.97,-243.39"/>
<text text-anchor="middle" x="4055.94" y="-243.03" font-family="Times,serif" font-size="14.00">GYMNASIUM/SPORTSFIELD</text>
</g>
<!-- 44950&#45;&gt;44372 -->
<g id="edge46" class="edge">
<title>44950&#45;&gt;44372</title>
<path fill="none" stroke="black" d="M3947.64,-220.71C3954.2,-219.98 3960.7,-219.35 3967.06,-218.83 4045.81,-212.5 4066.03,-212.91 4144.81,-218.83 4147.51,-219.04 4150.23,-219.26 4152.97,-219.5"/>
<polygon fill="black" stroke="black" points="4152.52,-222.97 4162.81,-220.44 4153.19,-216 4152.52,-222.97"/>
<text text-anchor="middle" x="4055.94" y="-222.03" font-family="Times,serif" font-size="14.00">WORKSHOP</text>
</g>
<!-- 44950&#45;&gt;44372 -->
<g id="edge47" class="edge">
<title>44950&#45;&gt;44372</title>
<path fill="none" stroke="black" d="M3941.96,-198.96C3950.38,-196.93 3958.8,-195.18 3967.06,-193.83 4045.04,-181.15 4066.71,-181.93 4144.81,-193.83 4149.24,-194.51 4153.72,-195.29 4158.22,-196.15"/>
<polygon fill="black" stroke="black" points="4157.47,-199.57 4167.97,-198.17 4158.88,-192.72 4157.47,-199.57"/>
<text text-anchor="middle" x="4055.94" y="-197.03" font-family="Times,serif" font-size="14.00">KITCHEN</text>
</g>
<!-- 44950&#45;&gt;44372 -->
<g id="edge48" class="edge">
<title>44950&#45;&gt;44372</title>
<path fill="none" stroke="black" d="M3930.95,-176.18C3942.82,-171.18 3954.98,-166.89 3967.06,-163.83 4043.65,-144.45 4067.96,-145.52 4144.81,-163.83 4152.99,-165.78 4161.22,-168.23 4169.4,-171.06"/>
<polygon fill="black" stroke="black" points="4168.1,-174.31 4178.7,-174.45 4170.5,-167.73 4168.1,-174.31"/>
<text text-anchor="middle" x="4055.94" y="-167.03" font-family="Times,serif" font-size="14.00">CELL HOBBIES</text>
</g>
<!-- 44950&#45;&gt;44372 -->
<g id="edge49" class="edge">
<title>44950&#45;&gt;44372</title>
<path fill="none" stroke="black" d="M3915.38,-155.34C3931.6,-144.48 3949.07,-135.04 3967.06,-128.83 4041.75,-103.1 4069.71,-104.32 4144.81,-128.83 4158.87,-133.42 4172.7,-139.81 4185.98,-147.25"/>
<polygon fill="black" stroke="black" points="4183.84,-150.05 4194.24,-152.08 4187.37,-144.01 4183.84,-150.05"/>
<text text-anchor="middle" x="4055.94" y="-132.03" font-family="Times,serif" font-size="14.00">WING OFFICE</text>
</g>
<!-- 44950&#45;&gt;44372 -->
<g id="edge50" class="edge">
<title>44950&#45;&gt;44372</title>
<path fill="none" stroke="black" d="M3897.64,-139.19C3917.76,-119.14 3941.2,-100.93 3967.06,-89.83 4039.67,-58.7 4071.69,-59.94 4144.81,-89.83 4166.5,-98.7 4186.8,-112.22 4205.11,-127.62"/>
<polygon fill="black" stroke="black" points="4202.39,-129.89 4212.24,-133.82 4206.99,-124.61 4202.39,-129.89"/>
<text text-anchor="middle" x="4055.94" y="-93.03" font-family="Times,serif" font-size="14.00">OTHER</text>
</g>
<!-- 44672 -->
<g id="node17" class="node">
<title>44672</title>
<ellipse fill="none" stroke="black" cx="2565.57" cy="-242.33" rx="171.63" ry="171.63"/>
<text text-anchor="middle" x="2565.57" y="-237.28" font-family="Times,serif" font-size="14.00">Is there any media interest in this incident?</text>
</g>
<!-- 44603&#45;&gt;44672 -->
<g id="edge34" class="edge">
<title>44603&#45;&gt;44672</title>
<path fill="none" stroke="black" d="M2332.65,-242.33C2349.18,-242.33 2365.83,-242.33 2382.21,-242.33"/>
<polygon fill="black" stroke="black" points="2381.99,-245.83 2391.99,-242.33 2381.99,-238.83 2381.99,-245.83"/>
<text text-anchor="middle" x="2363.19" y="-245.53" font-family="Times,serif" font-size="14.00">YES</text>
</g>
<!-- 44603&#45;&gt;44672 -->
<g id="edge35" class="edge">
<title>44603&#45;&gt;44672</title>
<path fill="none" stroke="black" d="M2331.7,-221.05C2346.67,-220.84 2361.54,-221.05 2375.94,-221.83 2378.45,-221.97 2380.97,-222.12 2383.51,-222.27"/>
<polygon fill="black" stroke="black" points="2383,-225.75 2393.21,-222.91 2383.46,-218.76 2383,-225.75"/>
<text text-anchor="middle" x="2363.19" y="-225.03" font-family="Times,serif" font-size="14.00">NO</text>
</g>
<!-- 44672&#45;&gt;44412 -->
<g id="edge36" class="edge">
<title>44672&#45;&gt;44412</title>
<path fill="none" stroke="black" d="M2737.49,-242.33C2753.72,-242.33 2770.3,-242.33 2786.84,-242.33"/>
<polygon fill="black" stroke="black" points="2786.77,-245.83 2796.77,-242.33 2786.77,-238.83 2786.77,-245.83"/>
<text text-anchor="middle" x="2767.94" y="-245.53" font-family="Times,serif" font-size="14.00">YES</text>
</g>
<!-- 44672&#45;&gt;44412 -->
<g id="edge37" class="edge">
<title>44672&#45;&gt;44412</title>
<path fill="none" stroke="black" d="M2736.42,-223.01C2742.75,-222.56 2749.03,-222.17 2755.19,-221.83 2766.02,-221.25 2777.11,-220.99 2788.31,-220.99"/>
<polygon fill="black" stroke="black" points="2788,-224.49 2798.03,-221.06 2788.05,-217.49 2788,-224.49"/>
<text text-anchor="middle" x="2767.94" y="-225.03" font-family="Times,serif" font-size="14.00">NO</text>
</g>
<!-- 44808&#45;&gt;44489 -->
<g id="edge38" class="edge">
<title>44808&#45;&gt;44489</title>
<path fill="none" stroke="black" d="M912.97,-219.27C929.87,-220.69 947.01,-222.14 964.06,-223.58"/>
<polygon fill="black" stroke="black" points="963.48,-227.04 973.73,-224.39 964.06,-220.06 963.48,-227.04"/>
<text text-anchor="middle" x="944.21" y="-225.53" font-family="Times,serif" font-size="14.00">YES</text>
</g>
<!-- 44808&#45;&gt;44489 -->
<g id="edge39" class="edge">
<title>44808&#45;&gt;44489</title>
<path fill="none" stroke="black" d="M913.67,-198.04C928.33,-198.66 942.88,-199.57 956.96,-200.83 960.38,-201.14 963.82,-201.47 967.29,-201.83"/>
<polygon fill="black" stroke="black" points="966.59,-205.27 976.91,-202.87 967.35,-198.31 966.59,-205.27"/>
<text text-anchor="middle" x="944.21" y="-204.03" font-family="Times,serif" font-size="14.00">NO</text>
</g>
</g>
</svg>
