<?xml version="1.0" encoding="UTF-8" standalone="no"?>
<!DOCTYPE svg PUBLIC "-//W3C//DTD SVG 1.1//EN"
 "http://www.w3.org/Graphics/SVG/1.1/DTD/svg11.dtd">
<!-- Generated by graphviz version 15.0.0 (20260523.1842)
 -->
<!-- Title: TOOL_LOSS_2 Pages: 1 -->
<svg width="3039pt" height="475pt"
 viewBox="0.00 0.00 3039.00 475.00" xmlns="http://www.w3.org/2000/svg" xmlns:xlink="http://www.w3.org/1999/xlink">
<g id="graph0" class="graph" transform="scale(1 1) rotate(0) translate(4 471.11)">
<title>TOOL_LOSS_2</title>
<polygon fill="white" stroke="none" points="-4,4 -4,-471.11 3034.84,-471.11 3034.84,4 -4,4"/>
<!-- START_NODE -->
<g id="node1" class="node">
<title>START_NODE</title>
</g>
<!-- 900003 -->
<g id="node2" class="node">
<title>900003</title>
<ellipse fill="none" stroke="black" cx="299.72" cy="-233.56" rx="186.47" ry="186.47"/>
<text xml:space="preserve" text-anchor="start" x="171.09" y="-229.51" font-family="Times,serif" font-size="14.00"> </text>
<text xml:space="preserve" text-anchor="start" x="174.84" y="-229.51" font-family="Times,serif" font-size="14.00" fill="royalblue">900003 </text>
<text xml:space="preserve" text-anchor="start" x="219.09" y="-229.51" font-family="Times,serif" font-size="14.00"> What tools or implement is missing? </text>
</g>
<!-- START_NODE&#45;&gt;900003 -->
<g id="edge1" class="edge">
<title>START_NODE&#45;&gt;900003</title>
<path fill="none" stroke="black" d="M53.96,-233.56C66.62,-233.56 83.1,-233.56 101.52,-233.56"/>
<polygon fill="black" stroke="black" points="101.39,-237.06 111.39,-233.56 101.39,-230.06 101.39,-237.06"/>
<text xml:space="preserve" text-anchor="middle" x="83.62" y="-236.76" font-family="Times,serif" font-size="14.00">start</text>
</g>
<!-- 900004 -->
<g id="node4" class="node">
<title>900004</title>
<ellipse fill="none" stroke="black" cx="884.24" cy="-233.56" rx="168.56" ry="168.56"/>
<text xml:space="preserve" text-anchor="start" x="768.74" y="-229.51" font-family="Times,serif" font-size="14.00"> </text>
<text xml:space="preserve" text-anchor="start" x="772.49" y="-229.51" font-family="Times,serif" font-size="14.00" fill="royalblue">900004 </text>
<text xml:space="preserve" text-anchor="start" x="816.74" y="-229.51" font-family="Times,serif" font-size="14.00"> Where were the tools lost from? </text>
</g>
<!-- 900003&#45;&gt;900004 -->
<g id="edge2" class="edge">
<title>900003&#45;&gt;900004</title>
<path fill="none" stroke="black" d="M428.67,-368.74C452.02,-386.24 477.5,-401.53 504.19,-411.56 584.69,-441.8 617.9,-443.64 697.69,-411.56 722.35,-401.64 745.58,-386.7 766.71,-369.62"/>
<polygon fill="black" stroke="black" points="768.71,-372.51 774.15,-363.42 764.23,-367.13 768.71,-372.51"/>
<text xml:space="preserve" text-anchor="start" x="557.06" y="-439.13" font-family="Times,serif" font-size="14.00"> </text>
<text xml:space="preserve" text-anchor="start" x="560.81" y="-439.13" font-family="Times,serif" font-size="14.00" fill="royalblue">950010 </text>
<text xml:space="preserve" text-anchor="start" x="605.06" y="-439.13" font-family="Times,serif" font-size="14.00"> Baton </text>
</g>
<!-- 900003&#45;&gt;900004 -->
<g id="edge3" class="edge">
<title>900003&#45;&gt;900004</title>
<path fill="none" stroke="black" d="M447.79,-347.53C466.02,-357.29 485.01,-365.67 504.19,-371.56 545.29,-384.18 656.87,-385.07 697.69,-371.56 714.34,-366.04 730.71,-358.39 746.41,-349.5"/>
<polygon fill="black" stroke="black" points="747.94,-352.66 754.79,-344.57 744.39,-346.62 747.94,-352.66"/>
<text xml:space="preserve" text-anchor="start" x="504.19" y="-385.56" font-family="Times,serif" font-size="14.00"> </text>
<text xml:space="preserve" text-anchor="start" x="507.94" y="-385.56" font-family="Times,serif" font-size="14.00" fill="royalblue">950011 </text>
<text xml:space="preserve" text-anchor="start" x="552.19" y="-385.56" font-family="Times,serif" font-size="14.00"> Body worn video camera </text>
</g>
<!-- 900003&#45;&gt;900004 -->
<g id="edge4" class="edge">
<title>900003&#45;&gt;900004</title>
<path fill="none" stroke="black" d="M465.34,-320.24C478.25,-324.74 491.29,-328.61 504.19,-331.56 588.03,-350.69 614.21,-352.24 697.69,-331.56 707.62,-329.09 717.61,-325.99 727.52,-322.42"/>
<polygon fill="black" stroke="black" points="728.7,-325.71 736.82,-318.9 726.23,-319.17 728.7,-325.71"/>
<text xml:space="preserve" text-anchor="start" x="545.81" y="-350.69" font-family="Times,serif" font-size="14.00"> </text>
<text xml:space="preserve" text-anchor="start" x="549.56" y="-350.69" font-family="Times,serif" font-size="14.00" fill="royalblue">950012 </text>
<text xml:space="preserve" text-anchor="start" x="593.81" y="-350.69" font-family="Times,serif" font-size="14.00"> Fish knife </text>
</g>
<!-- 900003&#45;&gt;900004 -->
<g id="edge5" class="edge">
<title>900003&#45;&gt;900004</title>
<path fill="none" stroke="black" d="M478.76,-287.33C487.31,-288.96 495.82,-290.39 504.19,-291.56 589.36,-303.46 612.67,-304.53 697.69,-291.56 702.65,-290.8 707.67,-289.93 712.72,-288.97"/>
<polygon fill="black" stroke="black" points="713.2,-292.44 722.31,-287.03 711.81,-285.58 713.2,-292.44"/>
<text xml:space="preserve" text-anchor="start" x="557.81" y="-305.09" font-family="Times,serif" font-size="14.00"> </text>
<text xml:space="preserve" text-anchor="start" x="561.56" y="-305.09" font-family="Times,serif" font-size="14.00" fill="royalblue">950013 </text>
<text xml:space="preserve" text-anchor="start" x="605.81" y="-305.09" font-family="Times,serif" font-size="14.00"> Knife </text>
</g>
<!-- 900003&#45;&gt;900004 -->
<g id="edge6" class="edge">
<title>900003&#45;&gt;900004</title>
<path fill="none" stroke="black" d="M485.87,-250.63C492.04,-250.98 498.16,-251.29 504.19,-251.56 590.1,-255.35 611.79,-255.71 697.69,-251.56 700.09,-251.44 702.5,-251.31 704.93,-251.18"/>
<polygon fill="black" stroke="black" points="705.11,-254.68 714.88,-250.6 704.7,-247.69 705.11,-254.68"/>
<text xml:space="preserve" text-anchor="start" x="540.56" y="-258.74" font-family="Times,serif" font-size="14.00"> </text>
<text xml:space="preserve" text-anchor="start" x="544.31" y="-258.74" font-family="Times,serif" font-size="14.00" fill="royalblue">950014 </text>
<text xml:space="preserve" text-anchor="start" x="588.56" y="-258.74" font-family="Times,serif" font-size="14.00"> PAVA spray </text>
</g>
<!-- 900003&#45;&gt;900004 -->
<g id="edge7" class="edge">
<title>900003&#45;&gt;900004</title>
<path fill="none" stroke="black" d="M486.46,-231.18C492.44,-231.13 498.36,-231.09 504.19,-231.06 590.19,-230.53 611.69,-230.48 697.69,-231.06 699.77,-231.07 701.87,-231.08 703.98,-231.1"/>
<polygon fill="black" stroke="black" points="703.81,-234.6 713.83,-231.18 703.86,-227.6 703.81,-234.6"/>
<text xml:space="preserve" text-anchor="start" x="534.56" y="-235.26" font-family="Times,serif" font-size="14.00"> </text>
<text xml:space="preserve" text-anchor="start" x="538.31" y="-235.26" font-family="Times,serif" font-size="14.00" fill="royalblue">950015 </text>
<text xml:space="preserve" text-anchor="start" x="582.56" y="-235.26" font-family="Times,serif" font-size="14.00"> Radio handset </text>
</g>
<!-- 900003&#45;&gt;900004 -->
<g id="edge8" class="edge">
<title>900003&#45;&gt;900004</title>
<path fill="none" stroke="black" d="M485.29,-211.3C491.66,-210.83 497.97,-210.41 504.19,-210.06 590.05,-205.11 611.86,-204.64 697.69,-210.06 700.35,-210.22 703.04,-210.4 705.74,-210.6"/>
<polygon fill="black" stroke="black" points="705.18,-214.07 715.42,-211.35 705.72,-207.09 705.18,-214.07"/>
<text xml:space="preserve" text-anchor="start" x="551.06" y="-214.26" font-family="Times,serif" font-size="14.00"> </text>
<text xml:space="preserve" text-anchor="start" x="554.81" y="-214.26" font-family="Times,serif" font-size="14.00" fill="royalblue">950016 </text>
<text xml:space="preserve" text-anchor="start" x="599.06" y="-214.26" font-family="Times,serif" font-size="14.00"> Scissors </text>
</g>
<!-- 900003&#45;&gt;900004 -->
<g id="edge9" class="edge">
<title>900003&#45;&gt;900004</title>
<path fill="none" stroke="black" d="M481.17,-189.16C488.92,-187.97 496.62,-186.93 504.19,-186.06 589.62,-176.21 612.36,-175.31 697.69,-186.06 701.76,-186.57 705.88,-187.14 710.02,-187.77"/>
<polygon fill="black" stroke="black" points="709.1,-191.17 719.53,-189.31 710.22,-184.26 709.1,-191.17"/>
<text xml:space="preserve" text-anchor="start" x="521.06" y="-190.26" font-family="Times,serif" font-size="14.00"> </text>
<text xml:space="preserve" text-anchor="start" x="524.81" y="-190.26" font-family="Times,serif" font-size="14.00" fill="royalblue">950017 </text>
<text xml:space="preserve" text-anchor="start" x="569.06" y="-190.26" font-family="Times,serif" font-size="14.00"> Kitchen equipment </text>
</g>
<!-- 900003&#45;&gt;900004 -->
<g id="edge10" class="edge">
<title>900003&#45;&gt;900004</title>
<path fill="none" stroke="black" d="M473.56,-164.79C483.82,-162.15 494.08,-159.87 504.19,-158.06 588.83,-142.86 613.29,-141.54 697.69,-158.06 704.58,-159.4 711.53,-161.01 718.5,-162.82"/>
<polygon fill="black" stroke="black" points="717.42,-166.15 727.99,-165.43 719.28,-159.4 717.42,-166.15"/>
<text xml:space="preserve" text-anchor="start" x="522.56" y="-162.26" font-family="Times,serif" font-size="14.00"> </text>
<text xml:space="preserve" text-anchor="start" x="526.31" y="-162.26" font-family="Times,serif" font-size="14.00" fill="royalblue">950018 </text>
<text xml:space="preserve" text-anchor="start" x="570.56" y="-162.26" font-family="Times,serif" font-size="14.00"> Garden equipment </text>
</g>
<!-- 900003&#45;&gt;900004 -->
<g id="edge11" class="edge">
<title>900003&#45;&gt;900004</title>
<path fill="none" stroke="black" d="M461.45,-139.84C475.58,-134.32 489.94,-129.59 504.19,-126.06 587.66,-105.36 614.63,-103.73 697.69,-126.06 709.11,-129.13 720.56,-133.09 731.85,-137.68"/>
<polygon fill="black" stroke="black" points="730.2,-140.78 740.77,-141.47 732.93,-134.34 730.2,-140.78"/>
<text xml:space="preserve" text-anchor="start" x="514.69" y="-130.26" font-family="Times,serif" font-size="14.00"> </text>
<text xml:space="preserve" text-anchor="start" x="518.44" y="-130.26" font-family="Times,serif" font-size="14.00" fill="royalblue">950019 </text>
<text xml:space="preserve" text-anchor="start" x="562.69" y="-130.26" font-family="Times,serif" font-size="14.00"> Workshop equipment </text>
</g>
<!-- 900003&#45;&gt;900004 -->
<g id="edge12" class="edge">
<title>900003&#45;&gt;900004</title>
<path fill="none" stroke="black" d="M444.71,-115.73C463.82,-104.88 483.86,-95.54 504.19,-89.06 586.12,-62.92 616.35,-61.12 697.69,-89.06 715.52,-95.18 732.96,-103.8 749.57,-113.81"/>
<polygon fill="black" stroke="black" points="747.63,-116.73 757.96,-119.06 751.34,-110.79 747.63,-116.73"/>
<text xml:space="preserve" text-anchor="start" x="557.81" y="-93.26" font-family="Times,serif" font-size="14.00"> </text>
<text xml:space="preserve" text-anchor="start" x="561.56" y="-93.26" font-family="Times,serif" font-size="14.00" fill="royalblue">950020 </text>
<text xml:space="preserve" text-anchor="start" x="605.81" y="-93.26" font-family="Times,serif" font-size="14.00"> Other </text>
</g>
<!-- END_NODE -->
<g id="node3" class="node">
<title>END_NODE</title>
<ellipse fill="none" stroke="black" cx="2996.98" cy="-192.56" rx="29.86" ry="29.86"/>
<ellipse fill="none" stroke="black" cx="2996.98" cy="-192.56" rx="33.86" ry="33.86"/>
<text xml:space="preserve" text-anchor="middle" x="2996.98" y="-187.51" font-family="Times,serif" font-size="14.00">END</text>
</g>
<!-- 900005 -->
<g id="node5" class="node">
<title>900005</title>
<ellipse fill="none" stroke="black" cx="1506.1" cy="-233.56" rx="233.56" ry="233.56"/>
<text xml:space="preserve" text-anchor="start" x="1342.98" y="-229.51" font-family="Times,serif" font-size="14.00"> </text>
<text xml:space="preserve" text-anchor="start" x="1346.73" y="-229.51" font-family="Times,serif" font-size="14.00" fill="royalblue">900005 </text>
<text xml:space="preserve" text-anchor="start" x="1390.98" y="-229.51" font-family="Times,serif" font-size="14.00"> How is the item thought to have been misplaced? </text>
</g>
<!-- 900004&#45;&gt;900005 -->
<g id="edge13" class="edge">
<title>900004&#45;&gt;900005</title>
<path fill="none" stroke="black" d="M993.17,-362.45C1016.53,-382.49 1042.74,-400.27 1070.8,-411.56 1146.57,-442.02 1176.75,-436.38 1254.55,-411.56 1274.79,-405.1 1294.79,-396.35 1314.14,-386.17"/>
<polygon fill="black" stroke="black" points="1315.74,-389.28 1322.87,-381.44 1312.41,-383.12 1315.74,-389.28"/>
<text xml:space="preserve" text-anchor="start" x="1100.8" y="-436.54" font-family="Times,serif" font-size="14.00"> </text>
<text xml:space="preserve" text-anchor="start" x="1104.55" y="-436.54" font-family="Times,serif" font-size="14.00" fill="royalblue">950021 </text>
<text xml:space="preserve" text-anchor="start" x="1148.8" y="-436.54" font-family="Times,serif" font-size="14.00"> Cell hobbies </text>
</g>
<!-- 900004&#45;&gt;900005 -->
<g id="edge14" class="edge">
<title>900004&#45;&gt;900005</title>
<path fill="none" stroke="black" d="M1012.39,-343.8C1031,-355.13 1050.69,-364.9 1070.8,-371.56 1148.33,-397.22 1175.46,-391.9 1254.55,-371.56 1268.25,-368.03 1282,-363.58 1295.63,-358.46"/>
<polygon fill="black" stroke="black" points="1296.56,-361.85 1304.61,-354.96 1294.03,-355.33 1296.56,-361.85"/>
<text xml:space="preserve" text-anchor="start" x="1103.42" y="-393.06" font-family="Times,serif" font-size="14.00"> </text>
<text xml:space="preserve" text-anchor="start" x="1107.17" y="-393.06" font-family="Times,serif" font-size="14.00" fill="royalblue">950022 </text>
<text xml:space="preserve" text-anchor="start" x="1151.42" y="-393.06" font-family="Times,serif" font-size="14.00"> Contractors </text>
</g>
<!-- 900004&#45;&gt;900005 -->
<g id="edge15" class="edge">
<title>900004&#45;&gt;900005</title>
<path fill="none" stroke="black" d="M1030.25,-318.37C1043.65,-323.66 1057.27,-328.2 1070.8,-331.56 1150.07,-351.2 1174.3,-346.69 1254.55,-331.56 1262.77,-330.01 1271.06,-328.19 1279.38,-326.16"/>
<polygon fill="black" stroke="black" points="1280.03,-329.61 1288.86,-323.74 1278.3,-322.82 1280.03,-329.61"/>
<text xml:space="preserve" text-anchor="start" x="1107.55" y="-348.85" font-family="Times,serif" font-size="14.00"> </text>
<text xml:space="preserve" text-anchor="start" x="1111.3" y="-348.85" font-family="Times,serif" font-size="14.00" fill="royalblue">950023 </text>
<text xml:space="preserve" text-anchor="start" x="1155.55" y="-348.85" font-family="Times,serif" font-size="14.00"> Education </text>
</g>
<!-- 900004&#45;&gt;900005 -->
<g id="edge16" class="edge">
<title>900004&#45;&gt;900005</title>
<path fill="none" stroke="black" d="M1044.69,-286.73C1053.47,-288.61 1062.21,-290.24 1070.8,-291.56 1151.53,-303.88 1173.41,-300.82 1254.55,-291.56 1258.92,-291.06 1263.32,-290.51 1267.74,-289.92"/>
<polygon fill="black" stroke="black" points="1267.88,-293.44 1277.3,-288.58 1266.91,-286.5 1267.88,-293.44"/>
<text xml:space="preserve" text-anchor="start" x="1083.17" y="-303.89" font-family="Times,serif" font-size="14.00"> </text>
<text xml:space="preserve" text-anchor="start" x="1086.92" y="-303.89" font-family="Times,serif" font-size="14.00" fill="royalblue">950024 </text>
<text xml:space="preserve" text-anchor="start" x="1131.17" y="-303.89" font-family="Times,serif" font-size="14.00"> Farms and gardens </text>
</g>
<!-- 900004&#45;&gt;900005 -->
<g id="edge17" class="edge">
<title>900004&#45;&gt;900005</title>
<path fill="none" stroke="black" d="M1052.09,-250.51C1058.4,-250.91 1064.66,-251.26 1070.8,-251.56 1132.66,-254.55 1199.5,-253.77 1261.76,-251.34"/>
<polygon fill="black" stroke="black" points="1261.56,-254.85 1271.41,-250.94 1261.27,-247.85 1261.56,-254.85"/>
<text xml:space="preserve" text-anchor="start" x="1070.8" y="-257.7" font-family="Times,serif" font-size="14.00"> </text>
<text xml:space="preserve" text-anchor="start" x="1074.55" y="-257.7" font-family="Times,serif" font-size="14.00" fill="royalblue">950025 </text>
<text xml:space="preserve" text-anchor="start" x="1118.8" y="-257.7" font-family="Times,serif" font-size="14.00"> Gymnasium/sportsfield </text>
</g>
<!-- 900004&#45;&gt;900005 -->
<g id="edge18" class="edge">
<title>900004&#45;&gt;900005</title>
<path fill="none" stroke="black" d="M1053.14,-231.19C1059.1,-231.14 1065,-231.09 1070.8,-231.06 1132.29,-230.64 1198.67,-230.74 1260.59,-231.08"/>
<polygon fill="black" stroke="black" points="1260.57,-234.58 1270.59,-231.13 1260.61,-227.58 1260.57,-234.58"/>
<text xml:space="preserve" text-anchor="start" x="1085.42" y="-235.26" font-family="Times,serif" font-size="14.00"> </text>
<text xml:space="preserve" text-anchor="start" x="1089.17" y="-235.26" font-family="Times,serif" font-size="14.00" fill="royalblue">950026 </text>
<text xml:space="preserve" text-anchor="start" x="1133.42" y="-235.26" font-family="Times,serif" font-size="14.00"> Health care centre </text>
</g>
<!-- 900004&#45;&gt;900005 -->
<g id="edge19" class="edge">
<title>900004&#45;&gt;900005</title>
<path fill="none" stroke="black" d="M1051.55,-211.46C1058.05,-210.93 1064.48,-210.45 1070.8,-210.06 1132.74,-206.15 1199.67,-207.17 1262.01,-210.36"/>
<polygon fill="black" stroke="black" points="1261.5,-213.84 1271.67,-210.88 1261.88,-206.85 1261.5,-213.84"/>
<text xml:space="preserve" text-anchor="start" x="1113.55" y="-214.26" font-family="Times,serif" font-size="14.00"> </text>
<text xml:space="preserve" text-anchor="start" x="1117.3" y="-214.26" font-family="Times,serif" font-size="14.00" fill="royalblue">950027 </text>
<text xml:space="preserve" text-anchor="start" x="1161.55" y="-214.26" font-family="Times,serif" font-size="14.00"> Kitchen </text>
</g>
<!-- 900004&#45;&gt;900005 -->
<g id="edge20" class="edge">
<title>900004&#45;&gt;900005</title>
<path fill="none" stroke="black" d="M1047.48,-190.48C1055.33,-189.16 1063.14,-188 1070.8,-187.06 1151.85,-177.05 1173.23,-179.57 1254.55,-187.06 1258.02,-187.37 1261.51,-187.72 1265.02,-188.08"/>
<polygon fill="black" stroke="black" points="1264.46,-191.54 1274.78,-189.16 1265.23,-184.59 1264.46,-191.54"/>
<text xml:space="preserve" text-anchor="start" x="1102.67" y="-191.26" font-family="Times,serif" font-size="14.00"> </text>
<text xml:space="preserve" text-anchor="start" x="1106.42" y="-191.26" font-family="Times,serif" font-size="14.00" fill="royalblue">950028 </text>
<text xml:space="preserve" text-anchor="start" x="1150.67" y="-191.26" font-family="Times,serif" font-size="14.00"> Wing office </text>
</g>
<!-- 900004&#45;&gt;900005 -->
<g id="edge21" class="edge">
<title>900004&#45;&gt;900005</title>
<path fill="none" stroke="black" d="M1039.62,-167.48C1050.05,-164.55 1060.5,-162.02 1070.8,-160.06 1151.02,-144.75 1173.71,-148.44 1254.55,-160.06 1260.15,-160.86 1265.81,-161.76 1271.5,-162.75"/>
<polygon fill="black" stroke="black" points="1270.51,-166.13 1280.98,-164.48 1271.77,-159.24 1270.51,-166.13"/>
<text xml:space="preserve" text-anchor="start" x="1084.67" y="-164.26" font-family="Times,serif" font-size="14.00"> </text>
<text xml:space="preserve" text-anchor="start" x="1088.42" y="-164.26" font-family="Times,serif" font-size="14.00" fill="royalblue">950029 </text>
<text xml:space="preserve" text-anchor="start" x="1132.67" y="-164.26" font-family="Times,serif" font-size="14.00"> Works department </text>
</g>
<!-- 900004&#45;&gt;900005 -->
<g id="edge22" class="edge">
<title>900004&#45;&gt;900005</title>
<path fill="none" stroke="black" d="M1027.54,-144.15C1041.77,-138.06 1056.31,-132.85 1070.8,-129.06 1149.79,-108.34 1174.47,-113.03 1254.55,-129.06 1263.5,-130.85 1272.53,-132.97 1281.58,-135.35"/>
<polygon fill="black" stroke="black" points="1280.6,-138.71 1291.17,-137.99 1282.45,-131.96 1280.6,-138.71"/>
<text xml:space="preserve" text-anchor="start" x="1107.17" y="-133.26" font-family="Times,serif" font-size="14.00"> </text>
<text xml:space="preserve" text-anchor="start" x="1110.92" y="-133.26" font-family="Times,serif" font-size="14.00" fill="royalblue">950030 </text>
<text xml:space="preserve" text-anchor="start" x="1155.17" y="-133.26" font-family="Times,serif" font-size="14.00"> Workshop </text>
</g>
<!-- 900004&#45;&gt;900005 -->
<g id="edge23" class="edge">
<title>900004&#45;&gt;900005</title>
<path fill="none" stroke="black" d="M1012.09,-123.07C1030.78,-111.64 1050.58,-101.77 1070.8,-95.06 1148.3,-69.32 1175.47,-74.65 1254.55,-95.06 1268.26,-98.59 1282.02,-103.06 1295.65,-108.2"/>
<polygon fill="black" stroke="black" points="1294.05,-111.33 1304.64,-111.71 1296.6,-104.81 1294.05,-111.33"/>
<text xml:space="preserve" text-anchor="start" x="1119.55" y="-99.26" font-family="Times,serif" font-size="14.00"> </text>
<text xml:space="preserve" text-anchor="start" x="1123.3" y="-99.26" font-family="Times,serif" font-size="14.00" fill="royalblue">950031 </text>
<text xml:space="preserve" text-anchor="start" x="1167.55" y="-99.26" font-family="Times,serif" font-size="14.00"> Other </text>
</g>
<!-- 900006 -->
<g id="node6" class="node">
<title>900006</title>
<ellipse fill="none" stroke="black" cx="2203.33" cy="-233.56" rx="195.17" ry="195.17"/>
<text xml:space="preserve" text-anchor="start" x="2068.33" y="-229.51" font-family="Times,serif" font-size="14.00"> </text>
<text xml:space="preserve" text-anchor="start" x="2072.08" y="-229.51" font-family="Times,serif" font-size="14.00" fill="royalblue">900006 </text>
<text xml:space="preserve" text-anchor="start" x="2116.33" y="-229.51" font-family="Times,serif" font-size="14.00"> Has the tool or implement been found? </text>
</g>
<!-- 900005&#45;&gt;900006 -->
<g id="edge24" class="edge">
<title>900005&#45;&gt;900006</title>
<path fill="none" stroke="black" d="M1737.01,-269.8C1743.96,-270.45 1750.86,-271.04 1757.66,-271.56 1860.7,-279.32 1887.23,-280.7 1990.16,-271.56 1993.39,-271.27 1996.65,-270.96 1999.92,-270.62"/>
<polygon fill="black" stroke="black" points="2000.06,-274.13 2009.62,-269.57 1999.3,-267.17 2000.06,-274.13"/>
<text xml:space="preserve" text-anchor="start" x="1810.91" y="-282.11" font-family="Times,serif" font-size="14.00"> </text>
<text xml:space="preserve" text-anchor="start" x="1814.66" y="-282.11" font-family="Times,serif" font-size="14.00" fill="royalblue">950032 </text>
<text xml:space="preserve" text-anchor="start" x="1858.91" y="-282.11" font-family="Times,serif" font-size="14.00"> Lost/missing </text>
</g>
<!-- 900005&#45;&gt;900006 -->
<g id="edge25" class="edge">
<title>900005&#45;&gt;900006</title>
<path fill="none" stroke="black" d="M1740.05,-233.56C1823.06,-233.56 1915.89,-233.56 1996.46,-233.56"/>
<polygon fill="black" stroke="black" points="1996.24,-237.06 2006.24,-233.56 1996.24,-230.06 1996.24,-237.06"/>
<text xml:space="preserve" text-anchor="start" x="1757.66" y="-237.76" font-family="Times,serif" font-size="14.00"> </text>
<text xml:space="preserve" text-anchor="start" x="1761.41" y="-237.76" font-family="Times,serif" font-size="14.00" fill="royalblue">950033 </text>
<text xml:space="preserve" text-anchor="start" x="1805.66" y="-237.76" font-family="Times,serif" font-size="14.00"> Mislaid/found in wrong location </text>
</g>
<!-- 900005&#45;&gt;900006 -->
<g id="edge26" class="edge">
<title>900005&#45;&gt;900006</title>
<path fill="none" stroke="black" d="M1739.13,-213.9C1745.37,-213.59 1751.55,-213.3 1757.66,-213.06 1860.91,-208.84 1886.95,-208.08 1990.16,-213.06 1992.54,-213.17 1994.94,-213.29 1997.35,-213.42"/>
<polygon fill="black" stroke="black" points="1997.01,-216.91 2007.19,-213.98 1997.41,-209.92 1997.01,-216.91"/>
<text xml:space="preserve" text-anchor="start" x="1785.78" y="-217.26" font-family="Times,serif" font-size="14.00"> </text>
<text xml:space="preserve" text-anchor="start" x="1789.53" y="-217.26" font-family="Times,serif" font-size="14.00" fill="royalblue">950034 </text>
<text xml:space="preserve" text-anchor="start" x="1833.78" y="-217.26" font-family="Times,serif" font-size="14.00"> In prisoner possession </text>
</g>
<!-- 900005&#45;&gt;900006 -->
<g id="edge27" class="edge">
<title>900005&#45;&gt;900006</title>
<path fill="none" stroke="black" d="M1736.28,-191.19C1743.48,-190.39 1750.62,-189.68 1757.66,-189.06 1860.59,-179.99 1887.38,-178.39 1990.16,-189.06 1993.81,-189.43 1997.49,-189.85 2001.19,-190.29"/>
<polygon fill="black" stroke="black" points="2000.49,-193.73 2010.85,-191.54 2001.38,-186.79 2000.49,-193.73"/>
<text xml:space="preserve" text-anchor="start" x="1830.78" y="-193.26" font-family="Times,serif" font-size="14.00"> </text>
<text xml:space="preserve" text-anchor="start" x="1834.53" y="-193.26" font-family="Times,serif" font-size="14.00" fill="royalblue">950035 </text>
<text xml:space="preserve" text-anchor="start" x="1878.78" y="-193.26" font-family="Times,serif" font-size="14.00"> Other </text>
</g>
<!-- 900006&#45;&gt;END_NODE -->
<g id="edge29" class="edge">
<title>900006&#45;&gt;END_NODE</title>
<path fill="none" stroke="black" d="M2394.86,-272.64C2432.45,-278.85 2471.72,-284.3 2508.75,-287.56 2619.93,-297.34 2649.09,-301.1 2759.87,-287.56 2844.08,-277.26 2870.88,-282.61 2945.12,-241.56 2952.74,-237.34 2960.05,-231.7 2966.63,-225.74"/>
<polygon fill="black" stroke="black" points="2968.69,-228.61 2973.45,-219.15 2963.83,-223.58 2968.69,-228.61"/>
<text xml:space="preserve" text-anchor="start" x="2598.31" y="-300.56" font-family="Times,serif" font-size="14.00"> </text>
<text xml:space="preserve" text-anchor="start" x="2602.06" y="-300.56" font-family="Times,serif" font-size="14.00" fill="royalblue">950037 </text>
<text xml:space="preserve" text-anchor="start" x="2646.31" y="-300.56" font-family="Times,serif" font-size="14.00"> No </text>
</g>
<!-- 900007 -->
<g id="node7" class="node">
<title>900007</title>
<ellipse fill="none" stroke="black" cx="2634.31" cy="-152.56" rx="125.56" ry="125.56"/>
<text xml:space="preserve" text-anchor="start" x="2550.31" y="-148.51" font-family="Times,serif" font-size="14.00"> </text>
<text xml:space="preserve" text-anchor="start" x="2554.06" y="-148.51" font-family="Times,serif" font-size="14.00" fill="royalblue">900007 </text>
<text xml:space="preserve" text-anchor="start" x="2598.31" y="-148.51" font-family="Times,serif" font-size="14.00"> Where was it found? </text>
</g>
<!-- 900006&#45;&gt;900007 -->
<g id="edge28" class="edge">
<title>900006&#45;&gt;900007</title>
<path fill="none" stroke="black" d="M2395.61,-197.44C2430.64,-190.82 2466.5,-184.05 2499.41,-177.84"/>
<polygon fill="black" stroke="black" points="2499.78,-181.33 2508.96,-176.04 2498.48,-174.45 2499.78,-181.33"/>
<text xml:space="preserve" text-anchor="start" x="2416.5" y="-197.26" font-family="Times,serif" font-size="14.00"> </text>
<text xml:space="preserve" text-anchor="start" x="2420.25" y="-197.26" font-family="Times,serif" font-size="14.00" fill="royalblue">950036 </text>
<text xml:space="preserve" text-anchor="start" x="2464.5" y="-197.26" font-family="Times,serif" font-size="14.00"> Yes </text>
</g>
<!-- 900007&#45;&gt;END_NODE -->
<g id="edge30" class="edge">
<title>900007&#45;&gt;END_NODE</title>
<path fill="none" stroke="black" d="M2749.29,-203.34C2758.83,-206.23 2768.43,-208.71 2777.87,-210.56 2850.83,-224.83 2871.86,-223.14 2945.12,-210.56 2948.14,-210.04 2951.21,-209.36 2954.27,-208.57"/>
<polygon fill="black" stroke="black" points="2955.19,-211.95 2963.78,-205.75 2953.2,-205.24 2955.19,-211.95"/>
<text xml:space="preserve" text-anchor="start" x="2805.25" y="-224.83" font-family="Times,serif" font-size="14.00"> </text>
<text xml:space="preserve" text-anchor="start" x="2809" y="-224.83" font-family="Times,serif" font-size="14.00" fill="royalblue">950038 </text>
<text xml:space="preserve" text-anchor="start" x="2853.25" y="-224.83" font-family="Times,serif" font-size="14.00"> Concealed </text>
</g>
<!-- 900007&#45;&gt;END_NODE -->
<g id="edge31" class="edge">
<title>900007&#45;&gt;END_NODE</title>
<path fill="none" stroke="black" d="M2759.31,-168.4C2765.59,-169.14 2771.8,-169.87 2777.87,-170.56 2837.97,-177.38 2907.51,-184.21 2951.61,-188.41"/>
<polygon fill="black" stroke="black" points="2951.27,-191.89 2961.56,-189.35 2951.94,-184.92 2951.27,-191.89"/>
<text xml:space="preserve" text-anchor="start" x="2806.37" y="-191.75" font-family="Times,serif" font-size="14.00"> </text>
<text xml:space="preserve" text-anchor="start" x="2810.12" y="-191.75" font-family="Times,serif" font-size="14.00" fill="royalblue">950039 </text>
<text xml:space="preserve" text-anchor="start" x="2854.37" y="-191.75" font-family="Times,serif" font-size="14.00"> Discarded </text>
</g>
<!-- 900007&#45;&gt;END_NODE -->
<g id="edge32" class="edge">
<title>900007&#45;&gt;END_NODE</title>
<path fill="none" stroke="black" d="M2759.87,-142.82C2830.73,-138.99 2911.82,-137.97 2945.12,-150.06 2951.94,-152.53 2958.48,-156.36 2964.47,-160.73"/>
<polygon fill="black" stroke="black" points="2962.23,-163.41 2972.21,-166.97 2966.62,-157.96 2962.23,-163.41"/>
<text xml:space="preserve" text-anchor="start" x="2777.87" y="-154.26" font-family="Times,serif" font-size="14.00"> </text>
<text xml:space="preserve" text-anchor="start" x="2781.62" y="-154.26" font-family="Times,serif" font-size="14.00" fill="royalblue">950040 </text>
<text xml:space="preserve" text-anchor="start" x="2825.87" y="-154.26" font-family="Times,serif" font-size="14.00"> Prisoners possession </text>
</g>
<!-- 900007&#45;&gt;END_NODE -->
<g id="edge33" class="edge">
<title>900007&#45;&gt;END_NODE</title>
<path fill="none" stroke="black" d="M2752.99,-110.14C2813.48,-95.57 2886.59,-89.61 2945.12,-120.06 2958.6,-127.06 2969.25,-139.46 2977.25,-152.05"/>
<polygon fill="black" stroke="black" points="2974.02,-153.45 2982.09,-160.32 2980.06,-149.92 2974.02,-153.45"/>
<text xml:space="preserve" text-anchor="start" x="2818.37" y="-124.26" font-family="Times,serif" font-size="14.00"> </text>
<text xml:space="preserve" text-anchor="start" x="2822.12" y="-124.26" font-family="Times,serif" font-size="14.00" fill="royalblue">950041 </text>
<text xml:space="preserve" text-anchor="start" x="2866.37" y="-124.26" font-family="Times,serif" font-size="14.00"> Other </text>
</g>
</g>
</svg>
