<?xml version="1.0" encoding="UTF-8" standalone="no"?>
<!DOCTYPE svg PUBLIC "-//W3C//DTD SVG 1.1//EN"
 "http://www.w3.org/Graphics/SVG/1.1/DTD/svg11.dtd">
<!-- Generated by graphviz version 12.1.1 (20240910.0053)
 -->
<!-- Title: TOOL_LOSS Pages: 1 -->
<svg width="6941pt" height="496pt"
 viewBox="0.00 0.00 6940.93 496.35" xmlns="http://www.w3.org/2000/svg" xmlns:xlink="http://www.w3.org/1999/xlink">
<g id="graph0" class="graph" transform="scale(1 1) rotate(0) translate(4 492.35)">
<title>TOOL_LOSS</title>
<polygon fill="white" stroke="none" points="-4,4 -4,-492.35 6936.93,-492.35 6936.93,4 -4,4"/>
<!-- START_NODE -->
<g id="node1" class="node">
<title>START_NODE</title>
</g>
<!-- 45142 -->
<g id="node2" class="node">
<title>45142</title>
<ellipse fill="none" stroke="black" cx="280.27" cy="-321.33" rx="167.02" ry="167.02"/>
<text text-anchor="middle" x="280.27" y="-316.28" font-family="Times,serif" font-size="14.00">Were the police informed of the incident?</text>
</g>
<!-- START_NODE&#45;&gt;45142 -->
<g id="edge1" class="edge">
<title>START_NODE&#45;&gt;45142</title>
<path fill="none" stroke="black" d="M53.94,-321.33C66.67,-321.33 83.21,-321.33 101.55,-321.33"/>
<polygon fill="black" stroke="black" points="101.34,-324.83 111.34,-321.33 101.34,-317.83 101.34,-324.83"/>
<text text-anchor="middle" x="83.62" y="-324.53" font-family="Times,serif" font-size="14.00">start</text>
</g>
<!-- 44489 -->
<g id="node12" class="node">
<title>44489</title>
<ellipse fill="none" stroke="black" cx="1177.03" cy="-242.33" rx="212.57" ry="212.57"/>
<text text-anchor="middle" x="1177.03" y="-237.28" font-family="Times,serif" font-size="14.00">Is the incident the subject of an internal investigation?</text>
</g>
<!-- 45142&#45;&gt;44489 -->
<g id="edge54" class="edge">
<title>45142&#45;&gt;44489</title>
<path fill="none" stroke="black" d="M431.54,-392.72C455.17,-401.24 479.68,-408.59 503.54,-413.33 679.94,-448.4 735.57,-463.75 908.21,-413.33 938.41,-404.52 968.44,-391.14 996.89,-375.68"/>
<polygon fill="black" stroke="black" points="998.51,-378.78 1005.56,-370.86 995.11,-372.66 998.51,-378.78"/>
<text text-anchor="middle" x="705.87" y="-448.84" font-family="Times,serif" font-size="14.00">No</text>
</g>
<!-- 44808 -->
<g id="node18" class="node">
<title>44808</title>
<ellipse fill="none" stroke="black" cx="705.87" cy="-202.33" rx="202.33" ry="202.33"/>
<text text-anchor="middle" x="705.87" y="-197.28" font-family="Times,serif" font-size="14.00">Is the incident the subject of a police investigation?</text>
</g>
<!-- 45142&#45;&gt;44808 -->
<g id="edge53" class="edge">
<title>45142&#45;&gt;44808</title>
<path fill="none" stroke="black" d="M441.42,-276.35C460.49,-270.99 480.17,-265.46 499.76,-259.96"/>
<polygon fill="black" stroke="black" points="500.5,-263.38 509.18,-257.31 498.6,-256.65 500.5,-263.38"/>
<text text-anchor="middle" x="475.42" y="-272.16" font-family="Times,serif" font-size="14.00">Yes</text>
</g>
<!-- END_NODE -->
<g id="node3" class="node">
<title>END_NODE</title>
<ellipse fill="none" stroke="black" cx="6899.08" cy="-206.33" rx="29.86" ry="29.86"/>
<ellipse fill="none" stroke="black" cx="6899.08" cy="-206.33" rx="33.86" ry="33.86"/>
<text text-anchor="middle" x="6899.08" y="-201.28" font-family="Times,serif" font-size="14.00">END</text>
</g>
<!-- 44195 -->
<g id="node4" class="node">
<title>44195</title>
<ellipse fill="none" stroke="black" cx="5096.81" cy="-242.33" rx="171.63" ry="171.63"/>
<text text-anchor="middle" x="5096.81" y="-237.28" font-family="Times,serif" font-size="14.00">What action was taken to find these items?</text>
</g>
<!-- 44565 -->
<g id="node5" class="node">
<title>44565</title>
<ellipse fill="none" stroke="black" cx="5536.32" cy="-242.33" rx="106.63" ry="106.63"/>
<text text-anchor="middle" x="5536.32" y="-237.28" font-family="Times,serif" font-size="14.00">Has the item been found?</text>
</g>
<!-- 44195&#45;&gt;44565 -->
<g id="edge2" class="edge">
<title>44195&#45;&gt;44565</title>
<path fill="none" stroke="black" d="M5267.69,-260.11C5314.38,-262.81 5365.01,-263.72 5411.69,-260.33 5414.19,-260.15 5416.73,-259.95 5419.28,-259.73"/>
<polygon fill="black" stroke="black" points="5419.42,-263.23 5429.05,-258.8 5418.76,-256.27 5419.42,-263.23"/>
<text text-anchor="middle" x="5349.06" y="-265.72" font-family="Times,serif" font-size="14.00">Full close down search</text>
</g>
<!-- 44195&#45;&gt;44565 -->
<g id="edge3" class="edge">
<title>44195&#45;&gt;44565</title>
<path fill="none" stroke="black" d="M5268.86,-239.85C5315.21,-239.48 5365.37,-239.37 5411.69,-239.83 5413.77,-239.86 5415.88,-239.88 5417.99,-239.9"/>
<polygon fill="black" stroke="black" points="5417.88,-243.4 5427.93,-240.03 5417.97,-236.4 5417.88,-243.4"/>
<text text-anchor="middle" x="5349.06" y="-243.03" font-family="Times,serif" font-size="14.00">Partial search</text>
</g>
<!-- 44195&#45;&gt;44565 -->
<g id="edge4" class="edge">
<title>44195&#45;&gt;44565</title>
<path fill="none" stroke="black" d="M5267.33,-219.18C5314.13,-215.63 5364.9,-214.43 5411.69,-218.83 5414.54,-219.1 5417.43,-219.41 5420.34,-219.74"/>
<polygon fill="black" stroke="black" points="5419.78,-223.2 5430.14,-220.98 5420.66,-216.25 5419.78,-223.2"/>
<text text-anchor="middle" x="5349.06" y="-222.03" font-family="Times,serif" font-size="14.00">Other</text>
</g>
<!-- 44477 -->
<g id="node10" class="node">
<title>44477</title>
<ellipse fill="none" stroke="black" cx="6214.42" cy="-206.33" rx="138.87" ry="138.87"/>
<text text-anchor="middle" x="6214.42" y="-201.28" font-family="Times,serif" font-size="14.00">How are tools/implements stored?</text>
</g>
<!-- 44565&#45;&gt;44477 -->
<g id="edge21" class="edge">
<title>44565&#45;&gt;44477</title>
<path fill="none" stroke="black" d="M5637.34,-276.86C5657.58,-282.46 5678.89,-287.39 5699.19,-290.33 5856.99,-313.24 5903.8,-315.58 6057.55,-273.33 6063.92,-271.59 6070.37,-269.63 6076.83,-267.51"/>
<polygon fill="black" stroke="black" points="6077.94,-270.83 6086.29,-264.3 6075.69,-264.2 6077.94,-270.83"/>
<text text-anchor="middle" x="5813.5" y="-309.78" font-family="Times,serif" font-size="14.00">No</text>
</g>
<!-- 45169 -->
<g id="node14" class="node">
<title>45169</title>
<ellipse fill="none" stroke="black" cx="5813.5" cy="-167.33" rx="114.3" ry="114.3"/>
<text text-anchor="middle" x="5813.5" y="-162.28" font-family="Times,serif" font-size="14.00">Where was the item found?</text>
</g>
<!-- 44565&#45;&gt;45169 -->
<g id="edge20" class="edge">
<title>44565&#45;&gt;45169</title>
<path fill="none" stroke="black" d="M5639.39,-214.51C5656.49,-209.85 5674.38,-204.98 5691.89,-200.21"/>
<polygon fill="black" stroke="black" points="5692.55,-203.65 5701.28,-197.65 5690.71,-196.9 5692.55,-203.65"/>
<text text-anchor="middle" x="5671.07" y="-210.28" font-family="Times,serif" font-size="14.00">Yes</text>
</g>
<!-- 44372 -->
<g id="node6" class="node">
<title>44372</title>
<ellipse fill="none" stroke="black" cx="4183.42" cy="-242.33" rx="138.36" ry="138.36"/>
<text text-anchor="middle" x="4183.42" y="-237.28" font-family="Times,serif" font-size="14.00">Is the missing item thought to be?</text>
</g>
<!-- 44445 -->
<g id="node7" class="node">
<title>44445</title>
<ellipse fill="none" stroke="black" cx="4634.36" cy="-242.33" rx="234.58" ry="234.58"/>
<text text-anchor="middle" x="4634.36" y="-237.28" font-family="Times,serif" font-size="14.00">Is the missing item thought to be in a prisoner&#39;s possession?</text>
</g>
<!-- 44372&#45;&gt;44445 -->
<g id="edge5" class="edge">
<title>44372&#45;&gt;44445</title>
<path fill="none" stroke="black" d="M4321.17,-259.06C4327.45,-259.55 4333.68,-259.98 4339.78,-260.33 4355.73,-261.26 4372.16,-261.68 4388.72,-261.72"/>
<polygon fill="black" stroke="black" points="4388.7,-265.22 4398.69,-261.69 4388.68,-258.22 4388.7,-265.22"/>
<text text-anchor="middle" x="4360.78" y="-264.86" font-family="Times,serif" font-size="14.00">Lost</text>
</g>
<!-- 44372&#45;&gt;44445 -->
<g id="edge6" class="edge">
<title>44372&#45;&gt;44445</title>
<path fill="none" stroke="black" d="M4322.08,-240C4328.06,-239.94 4333.98,-239.88 4339.78,-239.83 4355.52,-239.71 4371.73,-239.65 4388.07,-239.64"/>
<polygon fill="black" stroke="black" points="4387.89,-243.14 4397.89,-239.64 4387.89,-236.14 4387.89,-243.14"/>
<text text-anchor="middle" x="4360.78" y="-243.03" font-family="Times,serif" font-size="14.00">Mislaid</text>
</g>
<!-- 44372&#45;&gt;44445 -->
<g id="edge7" class="edge">
<title>44372&#45;&gt;44445</title>
<path fill="none" stroke="black" d="M4320.27,-220.58C4326.86,-219.91 4333.39,-219.32 4339.78,-218.83 4356.09,-217.61 4372.91,-217.05 4389.86,-217.03"/>
<polygon fill="black" stroke="black" points="4389.48,-220.52 4399.49,-217.07 4389.51,-213.52 4389.48,-220.52"/>
<text text-anchor="middle" x="4360.78" y="-222.03" font-family="Times,serif" font-size="14.00">Stolen</text>
</g>
<!-- 44445&#45;&gt;44195 -->
<g id="edge10" class="edge">
<title>44445&#45;&gt;44195</title>
<path fill="none" stroke="black" d="M4869.3,-242.33C4884.18,-242.33 4899.05,-242.33 4913.64,-242.33"/>
<polygon fill="black" stroke="black" points="4913.23,-245.83 4923.23,-242.33 4913.23,-238.83 4913.23,-245.83"/>
<text text-anchor="middle" x="4897.06" y="-245.53" font-family="Times,serif" font-size="14.00">Yes</text>
</g>
<!-- 44445&#45;&gt;44195 -->
<g id="edge11" class="edge">
<title>44445&#45;&gt;44195</title>
<path fill="none" stroke="black" d="M4868.12,-220.81C4881.34,-220.83 4894.43,-221.14 4907.19,-221.83 4909.69,-221.97 4912.22,-222.12 4914.75,-222.27"/>
<polygon fill="black" stroke="black" points="4914.25,-225.75 4924.46,-222.91 4914.71,-218.76 4914.25,-225.75"/>
<text text-anchor="middle" x="4897.06" y="-225.03" font-family="Times,serif" font-size="14.00">No</text>
</g>
<!-- 44412 -->
<g id="node8" class="node">
<title>44412</title>
<ellipse fill="none" stroke="black" cx="2966.97" cy="-242.33" rx="199.78" ry="199.78"/>
<text text-anchor="middle" x="2966.97" y="-237.28" font-family="Times,serif" font-size="14.00">Has the prison service press office been informed?</text>
</g>
<!-- 44593 -->
<g id="node9" class="node">
<title>44593</title>
<ellipse fill="none" stroke="black" cx="3369.03" cy="-242.33" rx="146.04" ry="146.04"/>
<text text-anchor="middle" x="3369.03" y="-237.28" font-family="Times,serif" font-size="14.00">What tool or implement is missing?</text>
</g>
<!-- 44412&#45;&gt;44593 -->
<g id="edge8" class="edge">
<title>44412&#45;&gt;44593</title>
<path fill="none" stroke="black" d="M3167.12,-242.33C3182.03,-242.33 3196.95,-242.33 3211.54,-242.33"/>
<polygon fill="black" stroke="black" points="3211.11,-245.83 3221.11,-242.33 3211.11,-238.83 3211.11,-245.83"/>
<text text-anchor="middle" x="3194.87" y="-245.53" font-family="Times,serif" font-size="14.00">Yes</text>
</g>
<!-- 44412&#45;&gt;44593 -->
<g id="edge9" class="edge">
<title>44412&#45;&gt;44593</title>
<path fill="none" stroke="black" d="M3165.79,-220.81C3179.06,-220.73 3192.22,-221.03 3205,-221.83 3207.54,-221.99 3210.11,-222.17 3212.69,-222.35"/>
<polygon fill="black" stroke="black" points="3212.35,-225.84 3222.59,-223.13 3212.9,-218.86 3212.35,-225.84"/>
<text text-anchor="middle" x="3194.87" y="-225.03" font-family="Times,serif" font-size="14.00">No</text>
</g>
<!-- 44950 -->
<g id="node15" class="node">
<title>44950</title>
<ellipse fill="none" stroke="black" cx="3752.69" cy="-242.33" rx="128.12" ry="128.12"/>
<text text-anchor="middle" x="3752.69" y="-237.28" font-family="Times,serif" font-size="14.00">Where was the tools lost from?</text>
</g>
<!-- 44593&#45;&gt;44950 -->
<g id="edge22" class="edge">
<title>44593&#45;&gt;44950</title>
<path fill="none" stroke="black" d="M3444.77,-367.59C3488.37,-423.54 3546.5,-470.78 3606.57,-440.33 3639.3,-423.74 3666.42,-395.92 3688.02,-366.29"/>
<polygon fill="black" stroke="black" points="3690.76,-368.47 3693.67,-358.29 3685.04,-364.44 3690.76,-368.47"/>
<text text-anchor="middle" x="3569.82" y="-453.05" font-family="Times,serif" font-size="14.00">Knife</text>
</g>
<!-- 44593&#45;&gt;44950 -->
<g id="edge23" class="edge">
<title>44593&#45;&gt;44950</title>
<path fill="none" stroke="black" d="M3462.66,-354.95C3483.72,-373.47 3507.49,-389.98 3533.07,-400.33 3563.34,-412.6 3576.66,-413.47 3606.57,-400.33 3630.29,-389.91 3651.83,-373.49 3670.63,-355.1"/>
<polygon fill="black" stroke="black" points="3672.92,-357.76 3677.46,-348.18 3667.94,-352.84 3672.92,-357.76"/>
<text text-anchor="middle" x="3569.82" y="-413.06" font-family="Times,serif" font-size="14.00">Hacksaw</text>
</g>
<!-- 44593&#45;&gt;44950 -->
<g id="edge24" class="edge">
<title>44593&#45;&gt;44950</title>
<path fill="none" stroke="black" d="M3481.3,-336.22C3497.81,-346.07 3515.28,-354.57 3533.07,-360.33 3564.14,-370.4 3575.78,-371.27 3606.57,-360.33 3622,-354.85 3636.99,-346.95 3651.11,-337.79"/>
<polygon fill="black" stroke="black" points="3652.68,-340.95 3659,-332.45 3648.76,-335.15 3652.68,-340.95"/>
<text text-anchor="middle" x="3569.82" y="-371.41" font-family="Times,serif" font-size="14.00">Other saw</text>
</g>
<!-- 44593&#45;&gt;44950 -->
<g id="edge25" class="edge">
<title>44593&#45;&gt;44950</title>
<path fill="none" stroke="black" d="M3497.64,-312.16C3532.65,-323.69 3570.82,-329.33 3606.57,-320.33 3614.95,-318.22 3623.38,-315.52 3631.73,-312.4"/>
<polygon fill="black" stroke="black" points="3632.83,-315.73 3640.84,-308.79 3630.25,-309.22 3632.83,-315.73"/>
<text text-anchor="middle" x="3569.82" y="-327.97" font-family="Times,serif" font-size="14.00">Spade</text>
</g>
<!-- 44593&#45;&gt;44950 -->
<g id="edge26" class="edge">
<title>44593&#45;&gt;44950</title>
<path fill="none" stroke="black" d="M3510.85,-278.39C3542.3,-282.7 3575.53,-284.33 3606.57,-280.33 3610.25,-279.86 3613.97,-279.32 3617.71,-278.73"/>
<polygon fill="black" stroke="black" points="3618.25,-282.19 3627.51,-277.04 3617.06,-275.29 3618.25,-282.19"/>
<text text-anchor="middle" x="3569.82" y="-285.82" font-family="Times,serif" font-size="14.00">Axe</text>
</g>
<!-- 44593&#45;&gt;44950 -->
<g id="edge27" class="edge">
<title>44593&#45;&gt;44950</title>
<path fill="none" stroke="black" d="M3515.41,-242.33C3547.44,-242.33 3581.29,-242.33 3613.05,-242.33"/>
<polygon fill="black" stroke="black" points="3612.68,-245.83 3622.68,-242.33 3612.68,-238.83 3612.68,-245.83"/>
<text text-anchor="middle" x="3569.82" y="-245.53" font-family="Times,serif" font-size="14.00">Pickaxe</text>
</g>
<!-- 44593&#45;&gt;44950 -->
<g id="edge28" class="edge">
<title>44593&#45;&gt;44950</title>
<path fill="none" stroke="black" d="M3514.13,-222.63C3544.64,-220.48 3576.65,-219.73 3606.57,-221.83 3609.09,-222.01 3611.64,-222.21 3614.21,-222.42"/>
<polygon fill="black" stroke="black" points="3613.78,-225.89 3624.05,-223.3 3614.4,-218.92 3613.78,-225.89"/>
<text text-anchor="middle" x="3569.82" y="-225.03" font-family="Times,serif" font-size="14.00">Pliers</text>
</g>
<!-- 44593&#45;&gt;44950 -->
<g id="edge29" class="edge">
<title>44593&#45;&gt;44950</title>
<path fill="none" stroke="black" d="M3509.85,-202.17C3541.58,-197.25 3575.18,-195.33 3606.57,-199.83 3610.71,-200.43 3614.9,-201.11 3619.11,-201.88"/>
<polygon fill="black" stroke="black" points="3618.34,-205.29 3628.82,-203.77 3619.68,-198.42 3618.34,-205.29"/>
<text text-anchor="middle" x="3569.82" y="-203.03" font-family="Times,serif" font-size="14.00">Screwdriver</text>
</g>
<!-- 44593&#45;&gt;44950 -->
<g id="edge30" class="edge">
<title>44593&#45;&gt;44950</title>
<path fill="none" stroke="black" d="M3502.59,-182.34C3536.31,-173.51 3572.62,-169.53 3606.57,-176.83 3613.31,-178.29 3620.11,-180.07 3626.9,-182.12"/>
<polygon fill="black" stroke="black" points="3625.52,-185.36 3636.11,-185.08 3627.66,-178.69 3625.52,-185.36"/>
<text text-anchor="middle" x="3569.82" y="-180.03" font-family="Times,serif" font-size="14.00">Wire cutters</text>
</g>
<!-- 44593&#45;&gt;44950 -->
<g id="edge31" class="edge">
<title>44593&#45;&gt;44950</title>
<path fill="none" stroke="black" d="M3492.68,-164.16C3528.93,-149.74 3568.97,-142.17 3606.57,-152.83 3616.82,-155.74 3627.06,-159.6 3637.08,-164.09"/>
<polygon fill="black" stroke="black" points="3635.54,-167.23 3646.07,-168.33 3638.52,-160.9 3635.54,-167.23"/>
<text text-anchor="middle" x="3569.82" y="-156.03" font-family="Times,serif" font-size="14.00">Bolt croppers</text>
</g>
<!-- 44593&#45;&gt;44950 -->
<g id="edge32" class="edge">
<title>44593&#45;&gt;44950</title>
<path fill="none" stroke="black" d="M3482.95,-150.41C3499.01,-141.2 3515.92,-133.26 3533.07,-127.83 3564.21,-117.99 3575.71,-117.13 3606.57,-127.83 3621.35,-132.96 3635.76,-140.29 3649.41,-148.79"/>
<polygon fill="black" stroke="black" points="3647.18,-151.51 3657.47,-154.03 3650.99,-145.65 3647.18,-151.51"/>
<text text-anchor="middle" x="3569.82" y="-131.03" font-family="Times,serif" font-size="14.00">Scissors</text>
</g>
<!-- 44593&#45;&gt;44950 -->
<g id="edge33" class="edge">
<title>44593&#45;&gt;44950</title>
<path fill="none" stroke="black" d="M3469.58,-136.37C3489.09,-121.43 3510.54,-108.29 3533.07,-99.83 3563.65,-88.35 3576.33,-87.47 3606.57,-99.83 3627.07,-108.22 3646.24,-121.05 3663.5,-135.65"/>
<polygon fill="black" stroke="black" points="3660.85,-137.98 3670.68,-141.95 3665.47,-132.72 3660.85,-137.98"/>
<text text-anchor="middle" x="3569.82" y="-103.03" font-family="Times,serif" font-size="14.00">Other</text>
</g>
<!-- 44509 -->
<g id="node11" class="node">
<title>44509</title>
<ellipse fill="none" stroke="black" cx="6638.88" cy="-206.33" rx="170.09" ry="170.09"/>
<text text-anchor="middle" x="6638.88" y="-201.28" font-family="Times,serif" font-size="14.00">Is the F78A checking system in operation?</text>
</g>
<!-- 44477&#45;&gt;44509 -->
<g id="edge12" class="edge">
<title>44477&#45;&gt;44509</title>
<path fill="none" stroke="black" d="M6348.96,-241.07C6356.48,-242.35 6363.96,-243.45 6371.29,-244.33 6400.41,-247.83 6431.27,-247.33 6461.26,-244.59"/>
<polygon fill="black" stroke="black" points="6461.61,-248.07 6471.21,-243.58 6460.91,-241.11 6461.61,-248.07"/>
<text text-anchor="middle" x="6411.04" y="-250" font-family="Times,serif" font-size="14.00">Shadow board</text>
</g>
<!-- 44477&#45;&gt;44509 -->
<g id="edge13" class="edge">
<title>44477&#45;&gt;44509</title>
<path fill="none" stroke="black" d="M6353.75,-206.33C6386.86,-206.33 6422.7,-206.33 6457.41,-206.33"/>
<polygon fill="black" stroke="black" points="6457.12,-209.83 6467.12,-206.33 6457.12,-202.83 6457.12,-209.83"/>
<text text-anchor="middle" x="6411.04" y="-209.53" font-family="Times,serif" font-size="14.00">Secure cabinet</text>
</g>
<!-- 44477&#45;&gt;44509 -->
<g id="edge14" class="edge">
<title>44477&#45;&gt;44509</title>
<path fill="none" stroke="black" d="M6352.18,-187.32C6358.63,-186.75 6365.03,-186.24 6371.29,-185.83 6399.53,-183.99 6429.44,-184.18 6458.62,-185.55"/>
<polygon fill="black" stroke="black" points="6458.08,-189.03 6468.25,-186.05 6458.44,-182.04 6458.08,-189.03"/>
<text text-anchor="middle" x="6411.04" y="-189.03" font-family="Times,serif" font-size="14.00">Secure room</text>
</g>
<!-- 44477&#45;&gt;44509 -->
<g id="edge15" class="edge">
<title>44477&#45;&gt;44509</title>
<path fill="none" stroke="black" d="M6348.01,-167.65C6355.85,-166.15 6363.65,-164.86 6371.29,-163.83 6400.77,-159.89 6432.01,-160.51 6462.34,-163.68"/>
<polygon fill="black" stroke="black" points="6461.63,-167.12 6471.96,-164.78 6462.42,-160.16 6461.63,-167.12"/>
<text text-anchor="middle" x="6411.04" y="-167.03" font-family="Times,serif" font-size="14.00">Other</text>
</g>
<!-- 44509&#45;&gt;END_NODE -->
<g id="edge18" class="edge">
<title>44509&#45;&gt;END_NODE</title>
<path fill="none" stroke="black" d="M6809.22,-206.33C6825.23,-206.33 6840.33,-206.33 6853.37,-206.33"/>
<polygon fill="black" stroke="black" points="6853.23,-209.83 6863.23,-206.33 6853.23,-202.83 6853.23,-209.83"/>
<text text-anchor="middle" x="6837.1" y="-209.53" font-family="Times,serif" font-size="14.00">Yes</text>
</g>
<!-- 44509&#45;&gt;END_NODE -->
<g id="edge19" class="edge">
<title>44509&#45;&gt;END_NODE</title>
<path fill="none" stroke="black" d="M6807.47,-181.43C6820.97,-181.96 6834.35,-183.34 6847.22,-185.83 6850.57,-186.48 6853.98,-187.35 6857.37,-188.37"/>
<polygon fill="black" stroke="black" points="6855.97,-191.59 6866.57,-191.53 6858.25,-184.97 6855.97,-191.59"/>
<text text-anchor="middle" x="6837.1" y="-189.03" font-family="Times,serif" font-size="14.00">No</text>
</g>
<!-- 44993 -->
<g id="node13" class="node">
<title>44993</title>
<ellipse fill="none" stroke="black" cx="1647.67" cy="-242.33" rx="201.82" ry="201.82"/>
<text text-anchor="middle" x="1647.67" y="-237.28" font-family="Times,serif" font-size="14.00">Is the incident subject to a governor&#39;s adjudication?</text>
</g>
<!-- 44489&#45;&gt;44993 -->
<g id="edge16" class="edge">
<title>44489&#45;&gt;44993</title>
<path fill="none" stroke="black" d="M1390.07,-242.33C1404.75,-242.33 1419.55,-242.33 1434.23,-242.33"/>
<polygon fill="black" stroke="black" points="1433.91,-245.83 1443.91,-242.33 1433.91,-238.83 1433.91,-245.83"/>
<text text-anchor="middle" x="1417.73" y="-245.53" font-family="Times,serif" font-size="14.00">Yes</text>
</g>
<!-- 44489&#45;&gt;44993 -->
<g id="edge17" class="edge">
<title>44489&#45;&gt;44993</title>
<path fill="none" stroke="black" d="M1388.89,-221.18C1402.07,-221.05 1415.14,-221.24 1427.85,-221.83 1430.23,-221.95 1432.63,-222.06 1435.04,-222.19"/>
<polygon fill="black" stroke="black" points="1434.7,-225.68 1444.88,-222.73 1435.09,-218.69 1434.7,-225.68"/>
<text text-anchor="middle" x="1417.73" y="-225.03" font-family="Times,serif" font-size="14.00">No</text>
</g>
<!-- 44603 -->
<g id="node16" class="node">
<title>44603</title>
<ellipse fill="none" stroke="black" cx="2108.59" cy="-242.33" rx="202.85" ry="202.85"/>
<text text-anchor="middle" x="2108.59" y="-237.28" font-family="Times,serif" font-size="14.00">Is any member of staff facing disciplinary charges?</text>
</g>
<!-- 44993&#45;&gt;44603 -->
<g id="edge51" class="edge">
<title>44993&#45;&gt;44603</title>
<path fill="none" stroke="black" d="M1849.96,-242.33C1864.64,-242.33 1879.48,-242.33 1894.23,-242.33"/>
<polygon fill="black" stroke="black" points="1893.97,-245.83 1903.97,-242.33 1893.97,-238.83 1893.97,-245.83"/>
<text text-anchor="middle" x="1877.62" y="-245.53" font-family="Times,serif" font-size="14.00">Yes</text>
</g>
<!-- 44993&#45;&gt;44603 -->
<g id="edge52" class="edge">
<title>44993&#45;&gt;44603</title>
<path fill="none" stroke="black" d="M1848.96,-222.82C1855.21,-222.45 1861.4,-222.12 1867.5,-221.83 1876.56,-221.41 1885.81,-221.21 1895.15,-221.19"/>
<polygon fill="black" stroke="black" points="1895.05,-224.69 1905.07,-221.24 1895.09,-217.69 1895.05,-224.69"/>
<text text-anchor="middle" x="1877.62" y="-225.03" font-family="Times,serif" font-size="14.00">No</text>
</g>
<!-- 45169&#45;&gt;44477 -->
<g id="edge55" class="edge">
<title>45169&#45;&gt;44477</title>
<path fill="none" stroke="black" d="M5909.07,-230.47C5921.04,-236.13 5933.43,-240.98 5945.8,-244.33 5985.44,-255.1 6029.25,-254.06 6069.75,-248.03"/>
<polygon fill="black" stroke="black" points="6070.28,-251.5 6079.59,-246.45 6069.16,-244.58 6070.28,-251.5"/>
<text text-anchor="middle" x="6001.68" y="-255.72" font-family="Times,serif" font-size="14.00">Prisoners possession</text>
</g>
<!-- 45169&#45;&gt;44477 -->
<g id="edge56" class="edge">
<title>45169&#45;&gt;44477</title>
<path fill="none" stroke="black" d="M5923.28,-200.37C5930.86,-201.93 5938.41,-203.29 5945.8,-204.33 5983.9,-209.75 6025.36,-211.86 6064.02,-212.26"/>
<polygon fill="black" stroke="black" points="6063.84,-215.75 6073.86,-212.31 6063.89,-208.75 6063.84,-215.75"/>
<text text-anchor="middle" x="6001.68" y="-215.34" font-family="Times,serif" font-size="14.00">Concealed</text>
</g>
<!-- 45169&#45;&gt;44477 -->
<g id="edge57" class="edge">
<title>45169&#45;&gt;44477</title>
<path fill="none" stroke="black" d="M5928.1,-173.26C5968.97,-175.87 6015.39,-179.37 6057.55,-183.83 6060.09,-184.1 6062.65,-184.38 6065.23,-184.67"/>
<polygon fill="black" stroke="black" points="6064.8,-188.15 6075.14,-185.82 6065.61,-181.19 6064.8,-188.15"/>
<text text-anchor="middle" x="6001.68" y="-187.03" font-family="Times,serif" font-size="14.00">Discarded</text>
</g>
<!-- 45169&#45;&gt;44477 -->
<g id="edge58" class="edge">
<title>45169&#45;&gt;44477</title>
<path fill="none" stroke="black" d="M5926.97,-150.94C5968.25,-147.58 6015.22,-146.9 6057.55,-153.83 6062.52,-154.65 6067.54,-155.6 6072.59,-156.67"/>
<polygon fill="black" stroke="black" points="6071.66,-160.04 6082.19,-158.84 6073.21,-153.22 6071.66,-160.04"/>
<text text-anchor="middle" x="6001.68" y="-157.03" font-family="Times,serif" font-size="14.00">Where mislaid/lost</text>
</g>
<!-- 45169&#45;&gt;44477 -->
<g id="edge59" class="edge">
<title>45169&#45;&gt;44477</title>
<path fill="none" stroke="black" d="M5922.54,-131.55C5964.91,-122.26 6013.77,-117.43 6057.55,-127.83 6065.65,-129.76 6073.8,-132.17 6081.9,-134.95"/>
<polygon fill="black" stroke="black" points="6080.5,-138.17 6091.1,-138.28 6082.89,-131.59 6080.5,-138.17"/>
<text text-anchor="middle" x="6001.68" y="-131.03" font-family="Times,serif" font-size="14.00">Other</text>
</g>
<!-- 44950&#45;&gt;44372 -->
<g id="edge40" class="edge">
<title>44950&#45;&gt;44372</title>
<path fill="none" stroke="black" d="M3818.58,-352.71C3840.37,-379.84 3867.3,-405.37 3898.81,-420.33 3950.3,-444.79 3975.17,-443.92 4027.06,-420.33 4054.33,-407.94 4078.69,-388.13 4099.57,-366.15"/>
<polygon fill="black" stroke="black" points="4101.89,-368.8 4106.08,-359.07 4096.74,-364.06 4101.89,-368.8"/>
<text text-anchor="middle" x="3962.94" y="-441.55" font-family="Times,serif" font-size="14.00">Works department</text>
</g>
<!-- 44950&#45;&gt;44372 -->
<g id="edge41" class="edge">
<title>44950&#45;&gt;44372</title>
<path fill="none" stroke="black" d="M3835.6,-340.03C3854.52,-356.48 3875.89,-371.18 3898.81,-380.33 3951.74,-401.48 3973.78,-400.58 4027.06,-380.33 4045.7,-373.25 4063.53,-362.8 4080.03,-350.75"/>
<polygon fill="black" stroke="black" points="4082,-353.66 4087.86,-344.83 4077.77,-348.08 4082,-353.66"/>
<text text-anchor="middle" x="3962.94" y="-399.06" font-family="Times,serif" font-size="14.00">Contractors</text>
</g>
<!-- 44950&#45;&gt;44372 -->
<g id="edge42" class="edge">
<title>44950&#45;&gt;44372</title>
<path fill="none" stroke="black" d="M3854.07,-320.81C3868.44,-328.79 3883.55,-335.66 3898.81,-340.33 3953.32,-357.01 3972.3,-356.16 4027.06,-340.33 4038.21,-337.11 4049.32,-332.83 4060.19,-327.85"/>
<polygon fill="black" stroke="black" points="4061.67,-331.02 4069.16,-323.53 4058.63,-324.71 4061.67,-331.02"/>
<text text-anchor="middle" x="3962.94" y="-355.73" font-family="Times,serif" font-size="14.00">Education</text>
</g>
<!-- 44950&#45;&gt;44372 -->
<g id="edge43" class="edge">
<title>44950&#45;&gt;44372</title>
<path fill="none" stroke="black" d="M3870.57,-293.37C3880,-296.15 3889.49,-298.54 3898.81,-300.33 3954.79,-311.11 3970.97,-310.46 4027.06,-300.33 4032.67,-299.32 4038.35,-298.12 4044.04,-296.76"/>
<polygon fill="black" stroke="black" points="4044.7,-300.2 4053.53,-294.34 4042.97,-293.42 4044.7,-300.2"/>
<text text-anchor="middle" x="3962.94" y="-311.37" font-family="Times,serif" font-size="14.00">Health care centre</text>
</g>
<!-- 44950&#45;&gt;44372 -->
<g id="edge44" class="edge">
<title>44950&#45;&gt;44372</title>
<path fill="none" stroke="black" d="M3879.85,-258.93C3886.25,-259.48 3892.6,-259.95 3898.81,-260.33 3955.7,-263.85 3970.16,-263.62 4027.06,-260.33 4029.44,-260.2 4031.85,-260.05 4034.26,-259.89"/>
<polygon fill="black" stroke="black" points="4034.44,-263.38 4044.16,-259.17 4033.94,-256.4 4034.44,-263.38"/>
<text text-anchor="middle" x="3962.94" y="-266.08" font-family="Times,serif" font-size="14.00">Farms and gardens</text>
</g>
<!-- 44950&#45;&gt;44372 -->
<g id="edge45" class="edge">
<title>44950&#45;&gt;44372</title>
<path fill="none" stroke="black" d="M3881.11,-240.02C3887.09,-239.95 3893.02,-239.88 3898.81,-239.83 3955.81,-239.34 3970.06,-239.38 4027.06,-239.83 4029.15,-239.85 4031.25,-239.87 4033.36,-239.89"/>
<polygon fill="black" stroke="black" points="4033.22,-243.39 4043.25,-239.99 4033.29,-236.39 4033.22,-243.39"/>
<text text-anchor="middle" x="3962.94" y="-243.03" font-family="Times,serif" font-size="14.00">Gymnasium/sportsfield</text>
</g>
<!-- 44950&#45;&gt;44372 -->
<g id="edge46" class="edge">
<title>44950&#45;&gt;44372</title>
<path fill="none" stroke="black" d="M3879.39,-220.71C3885.95,-219.98 3892.45,-219.35 3898.81,-218.83 3955.63,-214.26 3970.22,-214.56 4027.06,-218.83 4029.76,-219.04 4032.48,-219.26 4035.22,-219.5"/>
<polygon fill="black" stroke="black" points="4034.77,-222.97 4045.06,-220.44 4035.44,-216 4034.77,-222.97"/>
<text text-anchor="middle" x="3962.94" y="-222.03" font-family="Times,serif" font-size="14.00">Workshop</text>
</g>
<!-- 44950&#45;&gt;44372 -->
<g id="edge47" class="edge">
<title>44950&#45;&gt;44372</title>
<path fill="none" stroke="black" d="M3873.74,-199.85C3882.15,-197.86 3890.57,-196.15 3898.81,-194.83 3955.1,-185.86 3970.69,-186.41 4027.06,-194.83 4031.49,-195.5 4035.96,-196.26 4040.46,-197.1"/>
<polygon fill="black" stroke="black" points="4039.69,-200.52 4050.19,-199.08 4041.08,-193.66 4039.69,-200.52"/>
<text text-anchor="middle" x="3962.94" y="-198.03" font-family="Times,serif" font-size="14.00">Kitchen</text>
</g>
<!-- 44950&#45;&gt;44372 -->
<g id="edge48" class="edge">
<title>44950&#45;&gt;44372</title>
<path fill="none" stroke="black" d="M3864.55,-178.89C3875.85,-174.42 3887.39,-170.6 3898.81,-167.83 3954.22,-154.44 3971.48,-155.2 4027.06,-167.83 4034.69,-169.57 4042.39,-171.73 4050.06,-174.21"/>
<polygon fill="black" stroke="black" points="4048.84,-177.49 4059.43,-177.42 4051.11,-170.87 4048.84,-177.49"/>
<text text-anchor="middle" x="3962.94" y="-171.03" font-family="Times,serif" font-size="14.00">Cell hobbies</text>
</g>
<!-- 44950&#45;&gt;44372 -->
<g id="edge49" class="edge">
<title>44950&#45;&gt;44372</title>
<path fill="none" stroke="black" d="M3851.13,-160.17C3866.3,-151.03 3882.41,-143.12 3898.81,-137.83 3953.06,-120.34 3972.54,-121.2 4027.06,-137.83 4039.45,-141.61 4051.75,-146.75 4063.68,-152.72"/>
<polygon fill="black" stroke="black" points="4061.79,-155.68 4072.27,-157.23 4065.04,-149.48 4061.79,-155.68"/>
<text text-anchor="middle" x="3962.94" y="-141.03" font-family="Times,serif" font-size="14.00">Wing office</text>
</g>
<!-- 44950&#45;&gt;44372 -->
<g id="edge50" class="edge">
<title>44950&#45;&gt;44372</title>
<path fill="none" stroke="black" d="M3836.05,-144.64C3854.86,-128.39 3876.08,-113.89 3898.81,-104.83 3951.76,-83.73 3973.76,-84.64 4027.06,-104.83 4045.68,-111.89 4063.49,-122.31 4079.99,-134.3"/>
<polygon fill="black" stroke="black" points="4077.72,-136.98 4087.81,-140.21 4081.94,-131.39 4077.72,-136.98"/>
<text text-anchor="middle" x="3962.94" y="-108.03" font-family="Times,serif" font-size="14.00">Other</text>
</g>
<!-- 44672 -->
<g id="node17" class="node">
<title>44672</title>
<ellipse fill="none" stroke="black" cx="2539.32" cy="-242.33" rx="171.63" ry="171.63"/>
<text text-anchor="middle" x="2539.32" y="-237.28" font-family="Times,serif" font-size="14.00">Is there any media interest in this incident?</text>
</g>
<!-- 44603&#45;&gt;44672 -->
<g id="edge34" class="edge">
<title>44603&#45;&gt;44672</title>
<path fill="none" stroke="black" d="M2311.72,-242.33C2326.59,-242.33 2341.54,-242.33 2356.28,-242.33"/>
<polygon fill="black" stroke="black" points="2355.99,-245.83 2365.99,-242.33 2355.99,-238.83 2355.99,-245.83"/>
<text text-anchor="middle" x="2339.57" y="-245.53" font-family="Times,serif" font-size="14.00">Yes</text>
</g>
<!-- 44603&#45;&gt;44672 -->
<g id="edge35" class="edge">
<title>44603&#45;&gt;44672</title>
<path fill="none" stroke="black" d="M2310.62,-221.03C2323.84,-220.91 2336.95,-221.14 2349.69,-221.83 2352.2,-221.97 2354.72,-222.12 2357.26,-222.27"/>
<polygon fill="black" stroke="black" points="2356.75,-225.75 2366.96,-222.91 2357.21,-218.76 2356.75,-225.75"/>
<text text-anchor="middle" x="2339.57" y="-225.03" font-family="Times,serif" font-size="14.00">No</text>
</g>
<!-- 44672&#45;&gt;44412 -->
<g id="edge36" class="edge">
<title>44672&#45;&gt;44412</title>
<path fill="none" stroke="black" d="M2711.3,-242.33C2725.85,-242.33 2740.67,-242.33 2755.48,-242.33"/>
<polygon fill="black" stroke="black" points="2755.29,-245.83 2765.29,-242.33 2755.29,-238.83 2755.29,-245.83"/>
<text text-anchor="middle" x="2739.07" y="-245.53" font-family="Times,serif" font-size="14.00">Yes</text>
</g>
<!-- 44672&#45;&gt;44412 -->
<g id="edge37" class="edge">
<title>44672&#45;&gt;44412</title>
<path fill="none" stroke="black" d="M2710.17,-223.01C2716.5,-222.56 2722.78,-222.17 2728.94,-221.83 2737.96,-221.35 2747.16,-221.09 2756.46,-221.03"/>
<polygon fill="black" stroke="black" points="2756.32,-224.53 2766.32,-221.05 2756.33,-217.53 2756.32,-224.53"/>
<text text-anchor="middle" x="2739.07" y="-225.03" font-family="Times,serif" font-size="14.00">No</text>
</g>
<!-- 44808&#45;&gt;44489 -->
<g id="edge38" class="edge">
<title>44808&#45;&gt;44489</title>
<path fill="none" stroke="black" d="M907.88,-219.47C923.09,-220.77 938.49,-222.08 953.82,-223.39"/>
<polygon fill="black" stroke="black" points="953.2,-226.85 963.46,-224.21 953.8,-219.87 953.2,-226.85"/>
<text text-anchor="middle" x="936.33" y="-225.53" font-family="Times,serif" font-size="14.00">Yes</text>
</g>
<!-- 44808&#45;&gt;44489 -->
<g id="edge39" class="edge">
<title>44808&#45;&gt;44489</title>
<path fill="none" stroke="black" d="M908.62,-198.3C921.44,-198.9 934.13,-199.73 946.46,-200.83 949.88,-201.14 953.32,-201.47 956.79,-201.83"/>
<polygon fill="black" stroke="black" points="956.09,-205.27 966.41,-202.87 956.85,-198.31 956.09,-205.27"/>
<text text-anchor="middle" x="936.33" y="-204.03" font-family="Times,serif" font-size="14.00">No</text>
</g>
</g>
</svg>
