<?xml version="1.0" encoding="UTF-8" standalone="no"?>
<!DOCTYPE svg PUBLIC "-//W3C//DTD SVG 1.1//EN"
 "http://www.w3.org/Graphics/SVG/1.1/DTD/svg11.dtd">
<!-- Generated by graphviz version 15.0.0 (20260523.1842)
 -->
<!-- Title: UNLAWFUL_DETENTION_1 Pages: 1 -->
<svg width="2639pt" height="446pt"
 viewBox="0.00 0.00 2639.00 446.00" xmlns="http://www.w3.org/2000/svg" xmlns:xlink="http://www.w3.org/1999/xlink">
<g id="graph0" class="graph" transform="scale(1 1) rotate(0) translate(4 442.45)">
<title>UNLAWFUL_DETENTION_1</title>
<polygon fill="white" stroke="none" points="-4,4 -4,-442.45 2634.76,-442.45 2634.76,4 -4,4"/>
<!-- START_NODE -->
<g id="node1" class="node">
<title>START_NODE</title>
</g>
<!-- 100100 -->
<g id="node2" class="node">
<title>100100</title>
<ellipse fill="none" stroke="black" cx="294.09" cy="-219.22" rx="180.84" ry="180.84"/>
<text xml:space="preserve" text-anchor="start" x="169.59" y="-215.17" font-family="Times,serif" font-size="14.00"> </text>
<text xml:space="preserve" text-anchor="start" x="173.34" y="-215.17" font-family="Times,serif" font-size="14.00" fill="royalblue">100100 </text>
<text xml:space="preserve" text-anchor="start" x="217.59" y="-215.17" font-family="Times,serif" font-size="14.00"> When was the error first identified? </text>
</g>
<!-- START_NODE&#45;&gt;100100 -->
<g id="edge1" class="edge">
<title>START_NODE&#45;&gt;100100</title>
<path fill="none" stroke="black" d="M53.9,-219.22C66.58,-219.22 83.09,-219.22 101.51,-219.22"/>
<polygon fill="black" stroke="black" points="101.37,-222.72 111.37,-219.22 101.37,-215.72 101.37,-222.72"/>
<text xml:space="preserve" text-anchor="middle" x="83.62" y="-222.42" font-family="Times,serif" font-size="14.00">start</text>
</g>
<!-- 100110 -->
<g id="node4" class="node">
<title>100110</title>
<ellipse fill="none" stroke="black" cx="890.38" cy="-219.22" rx="142.45" ry="142.45"/>
<text xml:space="preserve" text-anchor="start" x="794.01" y="-215.17" font-family="Times,serif" font-size="14.00"> </text>
<text xml:space="preserve" text-anchor="start" x="797.76" y="-215.17" font-family="Times,serif" font-size="14.00" fill="royalblue">100110 </text>
<text xml:space="preserve" text-anchor="start" x="842.01" y="-215.17" font-family="Times,serif" font-size="14.00"> Who identified the error? </text>
</g>
<!-- 100100&#45;&gt;100110 -->
<g id="edge2" class="edge">
<title>100100&#45;&gt;100110</title>
<path fill="none" stroke="black" d="M475.41,-219.22C558.76,-219.22 656.7,-219.22 736.38,-219.22"/>
<polygon fill="black" stroke="black" points="735.98,-222.72 745.98,-219.22 735.98,-215.72 735.98,-222.72"/>
<text xml:space="preserve" text-anchor="start" x="492.93" y="-223.42" font-family="Times,serif" font-size="14.00"> </text>
<text xml:space="preserve" text-anchor="start" x="496.68" y="-223.42" font-family="Times,serif" font-size="14.00" fill="royalblue">100101 </text>
<text xml:space="preserve" text-anchor="start" x="540.93" y="-223.42" font-family="Times,serif" font-size="14.00"> Enter date of first error identified </text>
</g>
<!-- END_NODE -->
<g id="node3" class="node">
<title>END_NODE</title>
<ellipse fill="none" stroke="black" cx="2596.9" cy="-219.22" rx="29.86" ry="29.86"/>
<ellipse fill="none" stroke="black" cx="2596.9" cy="-219.22" rx="33.86" ry="33.86"/>
<text xml:space="preserve" text-anchor="middle" x="2596.9" y="-214.17" font-family="Times,serif" font-size="14.00">END</text>
</g>
<!-- 100120 -->
<g id="node5" class="node">
<title>100120</title>
<ellipse fill="none" stroke="black" cx="1471.09" cy="-219.22" rx="177.26" ry="177.26"/>
<text xml:space="preserve" text-anchor="start" x="1349.22" y="-215.17" font-family="Times,serif" font-size="14.00"> </text>
<text xml:space="preserve" text-anchor="start" x="1352.97" y="-215.17" font-family="Times,serif" font-size="14.00" fill="royalblue">100120 </text>
<text xml:space="preserve" text-anchor="start" x="1397.22" y="-215.17" font-family="Times,serif" font-size="14.00"> How was the error first identified? </text>
</g>
<!-- 100110&#45;&gt;100120 -->
<g id="edge3" class="edge">
<title>100110&#45;&gt;100120</title>
<path fill="none" stroke="black" d="M1028.87,-254.11C1036.27,-255.32 1043.63,-256.38 1050.83,-257.22 1150.15,-268.9 1176.3,-266.87 1275.83,-257.22 1279.12,-256.91 1282.43,-256.56 1285.77,-256.18"/>
<polygon fill="black" stroke="black" points="1286.16,-259.66 1295.67,-254.99 1285.32,-252.71 1286.16,-259.66"/>
<text xml:space="preserve" text-anchor="start" x="1120.21" y="-269.44" font-family="Times,serif" font-size="14.00"> </text>
<text xml:space="preserve" text-anchor="start" x="1123.96" y="-269.44" font-family="Times,serif" font-size="14.00" fill="royalblue">100111 </text>
<text xml:space="preserve" text-anchor="start" x="1168.21" y="-269.44" font-family="Times,serif" font-size="14.00"> Court </text>
</g>
<!-- 100110&#45;&gt;100120 -->
<g id="edge4" class="edge">
<title>100110&#45;&gt;100120</title>
<path fill="none" stroke="black" d="M1033.32,-219.22C1108.27,-219.22 1201.22,-219.22 1282.09,-219.22"/>
<polygon fill="black" stroke="black" points="1281.9,-222.72 1291.9,-219.22 1281.9,-215.72 1281.9,-222.72"/>
<text xml:space="preserve" text-anchor="start" x="1118.33" y="-223.42" font-family="Times,serif" font-size="14.00"> </text>
<text xml:space="preserve" text-anchor="start" x="1122.08" y="-223.42" font-family="Times,serif" font-size="14.00" fill="royalblue">100112 </text>
<text xml:space="preserve" text-anchor="start" x="1166.33" y="-223.42" font-family="Times,serif" font-size="14.00"> Prison </text>
</g>
<!-- 100110&#45;&gt;100120 -->
<g id="edge5" class="edge">
<title>100110&#45;&gt;100120</title>
<path fill="none" stroke="black" d="M1031.71,-200.17C1038.17,-199.61 1044.57,-199.13 1050.83,-198.72 1150.63,-192.34 1175.97,-193.47 1275.83,-198.72 1278.35,-198.86 1280.87,-199 1283.42,-199.15"/>
<polygon fill="black" stroke="black" points="1282.93,-202.63 1293.14,-199.77 1283.38,-195.64 1282.93,-202.63"/>
<text xml:space="preserve" text-anchor="start" x="1050.83" y="-202.92" font-family="Times,serif" font-size="14.00"> </text>
<text xml:space="preserve" text-anchor="start" x="1054.58" y="-202.92" font-family="Times,serif" font-size="14.00" fill="royalblue">100113 </text>
<text xml:space="preserve" text-anchor="start" x="1098.83" y="-202.92" font-family="Times,serif" font-size="14.00"> Specialist Support Team (SST) </text>
</g>
<!-- 100110&#45;&gt;100120 -->
<g id="edge6" class="edge">
<title>100110&#45;&gt;100120</title>
<path fill="none" stroke="black" d="M1026.97,-177.81C1035,-176.21 1042.99,-174.82 1050.83,-173.72 1149.87,-159.87 1176.5,-162.25 1275.83,-173.72 1279.69,-174.17 1283.59,-174.66 1287.5,-175.2"/>
<polygon fill="black" stroke="black" points="1286.7,-178.62 1297.1,-176.61 1287.72,-171.7 1286.7,-178.62"/>
<text xml:space="preserve" text-anchor="start" x="1120.21" y="-177.92" font-family="Times,serif" font-size="14.00"> </text>
<text xml:space="preserve" text-anchor="start" x="1123.96" y="-177.92" font-family="Times,serif" font-size="14.00" fill="royalblue">100114 </text>
<text xml:space="preserve" text-anchor="start" x="1168.21" y="-177.92" font-family="Times,serif" font-size="14.00"> Other </text>
</g>
<!-- 100130 -->
<g id="node6" class="node">
<title>100130</title>
<ellipse fill="none" stroke="black" cx="2039.32" cy="-219.22" rx="219.22" ry="219.22"/>
<text xml:space="preserve" text-anchor="start" x="1886.7" y="-215.17" font-family="Times,serif" font-size="14.00"> </text>
<text xml:space="preserve" text-anchor="start" x="1890.45" y="-215.17" font-family="Times,serif" font-size="14.00" fill="royalblue">100130 </text>
<text xml:space="preserve" text-anchor="start" x="1934.7" y="-215.17" font-family="Times,serif" font-size="14.00"> When was this person released from custody? </text>
</g>
<!-- 100120&#45;&gt;100130 -->
<g id="edge7" class="edge">
<title>100120&#45;&gt;100130</title>
<path fill="none" stroke="black" d="M1645.01,-254.81C1652.2,-255.73 1659.33,-256.55 1666.35,-257.22 1713.4,-261.78 1763.79,-260.67 1811.8,-256.75"/>
<polygon fill="black" stroke="black" points="1811.81,-260.26 1821.47,-255.91 1811.2,-253.29 1811.81,-260.26"/>
<text xml:space="preserve" text-anchor="start" x="1666.35" y="-264.38" font-family="Times,serif" font-size="14.00"> </text>
<text xml:space="preserve" text-anchor="start" x="1670.1" y="-264.38" font-family="Times,serif" font-size="14.00" fill="royalblue">100121 </text>
<text xml:space="preserve" text-anchor="start" x="1714.35" y="-264.38" font-family="Times,serif" font-size="14.00"> Transfer check </text>
</g>
<!-- 100120&#45;&gt;100130 -->
<g id="edge8" class="edge">
<title>100120&#45;&gt;100130</title>
<path fill="none" stroke="black" d="M1648.53,-219.22C1699.14,-219.22 1755.07,-219.22 1808.38,-219.22"/>
<polygon fill="black" stroke="black" points="1808.21,-222.72 1818.21,-219.22 1808.21,-215.72 1808.21,-222.72"/>
<text xml:space="preserve" text-anchor="start" x="1673.85" y="-223.42" font-family="Times,serif" font-size="14.00"> </text>
<text xml:space="preserve" text-anchor="start" x="1677.6" y="-223.42" font-family="Times,serif" font-size="14.00" fill="royalblue">100122 </text>
<text xml:space="preserve" text-anchor="start" x="1721.85" y="-223.42" font-family="Times,serif" font-size="14.00"> 2 day check </text>
</g>
<!-- 100120&#45;&gt;100130 -->
<g id="edge9" class="edge">
<title>100120&#45;&gt;100130</title>
<path fill="none" stroke="black" d="M1647.53,-199.86C1653.88,-199.43 1660.17,-199.05 1666.35,-198.72 1712.69,-196.29 1762.27,-196.82 1809.64,-198.86"/>
<polygon fill="black" stroke="black" points="1809.32,-202.35 1819.47,-199.31 1809.64,-195.36 1809.32,-202.35"/>
<text xml:space="preserve" text-anchor="start" x="1670.47" y="-202.92" font-family="Times,serif" font-size="14.00"> </text>
<text xml:space="preserve" text-anchor="start" x="1674.22" y="-202.92" font-family="Times,serif" font-size="14.00" fill="royalblue">100123 </text>
<text xml:space="preserve" text-anchor="start" x="1718.47" y="-202.92" font-family="Times,serif" font-size="14.00"> 14 day check </text>
</g>
<!-- 100120&#45;&gt;100130 -->
<g id="edge10" class="edge">
<title>100120&#45;&gt;100130</title>
<path fill="none" stroke="black" d="M1644.15,-179.54C1651.63,-178.46 1659.05,-177.51 1666.35,-176.72 1713.56,-171.62 1764.12,-172.89 1812.27,-177.31"/>
<polygon fill="black" stroke="black" points="1811.68,-180.77 1821.97,-178.26 1812.36,-173.8 1811.68,-180.77"/>
<text xml:space="preserve" text-anchor="start" x="1691.1" y="-180.92" font-family="Times,serif" font-size="14.00"> </text>
<text xml:space="preserve" text-anchor="start" x="1694.85" y="-180.92" font-family="Times,serif" font-size="14.00" fill="royalblue">100124 </text>
<text xml:space="preserve" text-anchor="start" x="1739.1" y="-180.92" font-family="Times,serif" font-size="14.00"> Other </text>
</g>
<!-- 100130&#45;&gt;END_NODE -->
<g id="edge11" class="edge">
<title>100130&#45;&gt;END_NODE</title>
<path fill="none" stroke="black" d="M2258.7,-219.22C2367.11,-219.22 2488.18,-219.22 2551.61,-219.22"/>
<polygon fill="black" stroke="black" points="2551.26,-222.72 2561.26,-219.22 2551.26,-215.72 2551.26,-222.72"/>
<text xml:space="preserve" text-anchor="start" x="2276.55" y="-223.42" font-family="Times,serif" font-size="14.00"> </text>
<text xml:space="preserve" text-anchor="start" x="2280.3" y="-223.42" font-family="Times,serif" font-size="14.00" fill="royalblue">100131 </text>
<text xml:space="preserve" text-anchor="start" x="2324.55" y="-223.42" font-family="Times,serif" font-size="14.00"> Enter date when released from custody </text>
</g>
</g>
</svg>
